%TF.GenerationSoftware,KiCad,Pcbnew,(6.0.5)*%
%TF.CreationDate,2022-11-15T09:33:25+00:00*%
%TF.ProjectId,ArduinoMIDIProtoShield,41726475-696e-46f4-9d49-444950726f74,rev?*%
%TF.SameCoordinates,Original*%
%TF.FileFunction,Profile,NP*%
%FSLAX46Y46*%
G04 Gerber Fmt 4.6, Leading zero omitted, Abs format (unit mm)*
G04 Created by KiCad (PCBNEW (6.0.5)) date 2022-11-15 09:33:25*
%MOMM*%
%LPD*%
G01*
G04 APERTURE LIST*
%TA.AperFunction,Profile*%
%ADD10C,0.150000*%
%TD*%
%TA.AperFunction,Profile*%
%ADD11C,0.120000*%
%TD*%
G04 APERTURE END LIST*
D10*
X110998000Y-126365000D02*
X110993800Y-117250000D01*
X179578000Y-88519000D02*
X177038000Y-85979000D01*
X177038000Y-126365000D02*
X177038000Y-123825000D01*
X110993800Y-97600000D02*
X110993800Y-104250000D01*
X177038000Y-74549000D02*
X175514000Y-73025000D01*
X177038000Y-123825000D02*
X179578000Y-121285000D01*
X179578000Y-121285000D02*
X179578000Y-88519000D01*
X110998000Y-126365000D02*
X177038000Y-126365000D01*
X175514000Y-73025000D02*
X110998000Y-73025000D01*
X110998000Y-73025000D02*
X110993800Y-84600000D01*
X177038000Y-85979000D02*
X177038000Y-74549000D01*
D11*
%TO.C,J2*%
X112393800Y-112550000D02*
X112393800Y-108950000D01*
X111993800Y-108550000D02*
X110993800Y-108550000D01*
X110993800Y-108550000D02*
X110993800Y-104250000D01*
X110993800Y-112950000D02*
X110993800Y-117250000D01*
X111993800Y-112950000D02*
X110993800Y-112950000D01*
X111993800Y-112950000D02*
G75*
G03*
X112393800Y-112550000I0J400000D01*
G01*
X112393800Y-108950000D02*
G75*
G03*
X111993800Y-108550000I-400002J-2D01*
G01*
%TO.C,J1*%
X110993800Y-93300000D02*
X110993800Y-97600000D01*
X111993800Y-88900000D02*
X110993800Y-88900000D01*
X112393800Y-92900000D02*
X112393800Y-89300000D01*
X110993800Y-88900000D02*
X110993800Y-84600000D01*
X111993800Y-93300000D02*
X110993800Y-93300000D01*
X112393800Y-89300000D02*
G75*
G03*
X111993800Y-88900000I-400002J-2D01*
G01*
X111993800Y-93300000D02*
G75*
G03*
X112393800Y-92900000I0J400000D01*
G01*
%TD*%
M02*
