%TF.GenerationSoftware,KiCad,Pcbnew,9.0.7*%
%TF.CreationDate,2026-04-12T14:09:31+01:00*%
%TF.ProjectId,PGA2350Breakout,50474132-3335-4304-9272-65616b6f7574,rev?*%
%TF.SameCoordinates,Original*%
%TF.FileFunction,Legend,Top*%
%TF.FilePolarity,Positive*%
%FSLAX46Y46*%
G04 Gerber Fmt 4.6, Leading zero omitted, Abs format (unit mm)*
G04 Created by KiCad (PCBNEW 9.0.7) date 2026-04-12 14:09:31*
%MOMM*%
%LPD*%
G01*
G04 APERTURE LIST*
%ADD10C,0.100000*%
%ADD11C,0.150000*%
%ADD12C,0.120000*%
%ADD13C,1.050000*%
G04 APERTURE END LIST*
D10*
X93568094Y-59045475D02*
X93568094Y-58045475D01*
X93568094Y-58045475D02*
X93949046Y-58045475D01*
X93949046Y-58045475D02*
X94044284Y-58093094D01*
X94044284Y-58093094D02*
X94091903Y-58140713D01*
X94091903Y-58140713D02*
X94139522Y-58235951D01*
X94139522Y-58235951D02*
X94139522Y-58378808D01*
X94139522Y-58378808D02*
X94091903Y-58474046D01*
X94091903Y-58474046D02*
X94044284Y-58521665D01*
X94044284Y-58521665D02*
X93949046Y-58569284D01*
X93949046Y-58569284D02*
X93568094Y-58569284D01*
X95091903Y-58093094D02*
X94996665Y-58045475D01*
X94996665Y-58045475D02*
X94853808Y-58045475D01*
X94853808Y-58045475D02*
X94710951Y-58093094D01*
X94710951Y-58093094D02*
X94615713Y-58188332D01*
X94615713Y-58188332D02*
X94568094Y-58283570D01*
X94568094Y-58283570D02*
X94520475Y-58474046D01*
X94520475Y-58474046D02*
X94520475Y-58616903D01*
X94520475Y-58616903D02*
X94568094Y-58807379D01*
X94568094Y-58807379D02*
X94615713Y-58902617D01*
X94615713Y-58902617D02*
X94710951Y-58997856D01*
X94710951Y-58997856D02*
X94853808Y-59045475D01*
X94853808Y-59045475D02*
X94949046Y-59045475D01*
X94949046Y-59045475D02*
X95091903Y-58997856D01*
X95091903Y-58997856D02*
X95139522Y-58950236D01*
X95139522Y-58950236D02*
X95139522Y-58616903D01*
X95139522Y-58616903D02*
X94949046Y-58616903D01*
X95520475Y-58759760D02*
X95996665Y-58759760D01*
X95425237Y-59045475D02*
X95758570Y-58045475D01*
X95758570Y-58045475D02*
X96091903Y-59045475D01*
X96377618Y-58140713D02*
X96425237Y-58093094D01*
X96425237Y-58093094D02*
X96520475Y-58045475D01*
X96520475Y-58045475D02*
X96758570Y-58045475D01*
X96758570Y-58045475D02*
X96853808Y-58093094D01*
X96853808Y-58093094D02*
X96901427Y-58140713D01*
X96901427Y-58140713D02*
X96949046Y-58235951D01*
X96949046Y-58235951D02*
X96949046Y-58331189D01*
X96949046Y-58331189D02*
X96901427Y-58474046D01*
X96901427Y-58474046D02*
X96329999Y-59045475D01*
X96329999Y-59045475D02*
X96949046Y-59045475D01*
X97282380Y-58045475D02*
X97901427Y-58045475D01*
X97901427Y-58045475D02*
X97568094Y-58426427D01*
X97568094Y-58426427D02*
X97710951Y-58426427D01*
X97710951Y-58426427D02*
X97806189Y-58474046D01*
X97806189Y-58474046D02*
X97853808Y-58521665D01*
X97853808Y-58521665D02*
X97901427Y-58616903D01*
X97901427Y-58616903D02*
X97901427Y-58854998D01*
X97901427Y-58854998D02*
X97853808Y-58950236D01*
X97853808Y-58950236D02*
X97806189Y-58997856D01*
X97806189Y-58997856D02*
X97710951Y-59045475D01*
X97710951Y-59045475D02*
X97425237Y-59045475D01*
X97425237Y-59045475D02*
X97329999Y-58997856D01*
X97329999Y-58997856D02*
X97282380Y-58950236D01*
X98806189Y-58045475D02*
X98329999Y-58045475D01*
X98329999Y-58045475D02*
X98282380Y-58521665D01*
X98282380Y-58521665D02*
X98329999Y-58474046D01*
X98329999Y-58474046D02*
X98425237Y-58426427D01*
X98425237Y-58426427D02*
X98663332Y-58426427D01*
X98663332Y-58426427D02*
X98758570Y-58474046D01*
X98758570Y-58474046D02*
X98806189Y-58521665D01*
X98806189Y-58521665D02*
X98853808Y-58616903D01*
X98853808Y-58616903D02*
X98853808Y-58854998D01*
X98853808Y-58854998D02*
X98806189Y-58950236D01*
X98806189Y-58950236D02*
X98758570Y-58997856D01*
X98758570Y-58997856D02*
X98663332Y-59045475D01*
X98663332Y-59045475D02*
X98425237Y-59045475D01*
X98425237Y-59045475D02*
X98329999Y-58997856D01*
X98329999Y-58997856D02*
X98282380Y-58950236D01*
X99472856Y-58045475D02*
X99568094Y-58045475D01*
X99568094Y-58045475D02*
X99663332Y-58093094D01*
X99663332Y-58093094D02*
X99710951Y-58140713D01*
X99710951Y-58140713D02*
X99758570Y-58235951D01*
X99758570Y-58235951D02*
X99806189Y-58426427D01*
X99806189Y-58426427D02*
X99806189Y-58664522D01*
X99806189Y-58664522D02*
X99758570Y-58854998D01*
X99758570Y-58854998D02*
X99710951Y-58950236D01*
X99710951Y-58950236D02*
X99663332Y-58997856D01*
X99663332Y-58997856D02*
X99568094Y-59045475D01*
X99568094Y-59045475D02*
X99472856Y-59045475D01*
X99472856Y-59045475D02*
X99377618Y-58997856D01*
X99377618Y-58997856D02*
X99329999Y-58950236D01*
X99329999Y-58950236D02*
X99282380Y-58854998D01*
X99282380Y-58854998D02*
X99234761Y-58664522D01*
X99234761Y-58664522D02*
X99234761Y-58426427D01*
X99234761Y-58426427D02*
X99282380Y-58235951D01*
X99282380Y-58235951D02*
X99329999Y-58140713D01*
X99329999Y-58140713D02*
X99377618Y-58093094D01*
X99377618Y-58093094D02*
X99472856Y-58045475D01*
X101329999Y-58521665D02*
X101472856Y-58569284D01*
X101472856Y-58569284D02*
X101520475Y-58616903D01*
X101520475Y-58616903D02*
X101568094Y-58712141D01*
X101568094Y-58712141D02*
X101568094Y-58854998D01*
X101568094Y-58854998D02*
X101520475Y-58950236D01*
X101520475Y-58950236D02*
X101472856Y-58997856D01*
X101472856Y-58997856D02*
X101377618Y-59045475D01*
X101377618Y-59045475D02*
X100996666Y-59045475D01*
X100996666Y-59045475D02*
X100996666Y-58045475D01*
X100996666Y-58045475D02*
X101329999Y-58045475D01*
X101329999Y-58045475D02*
X101425237Y-58093094D01*
X101425237Y-58093094D02*
X101472856Y-58140713D01*
X101472856Y-58140713D02*
X101520475Y-58235951D01*
X101520475Y-58235951D02*
X101520475Y-58331189D01*
X101520475Y-58331189D02*
X101472856Y-58426427D01*
X101472856Y-58426427D02*
X101425237Y-58474046D01*
X101425237Y-58474046D02*
X101329999Y-58521665D01*
X101329999Y-58521665D02*
X100996666Y-58521665D01*
X101996666Y-59045475D02*
X101996666Y-58378808D01*
X101996666Y-58569284D02*
X102044285Y-58474046D01*
X102044285Y-58474046D02*
X102091904Y-58426427D01*
X102091904Y-58426427D02*
X102187142Y-58378808D01*
X102187142Y-58378808D02*
X102282380Y-58378808D01*
X102996666Y-58997856D02*
X102901428Y-59045475D01*
X102901428Y-59045475D02*
X102710952Y-59045475D01*
X102710952Y-59045475D02*
X102615714Y-58997856D01*
X102615714Y-58997856D02*
X102568095Y-58902617D01*
X102568095Y-58902617D02*
X102568095Y-58521665D01*
X102568095Y-58521665D02*
X102615714Y-58426427D01*
X102615714Y-58426427D02*
X102710952Y-58378808D01*
X102710952Y-58378808D02*
X102901428Y-58378808D01*
X102901428Y-58378808D02*
X102996666Y-58426427D01*
X102996666Y-58426427D02*
X103044285Y-58521665D01*
X103044285Y-58521665D02*
X103044285Y-58616903D01*
X103044285Y-58616903D02*
X102568095Y-58712141D01*
X103901428Y-59045475D02*
X103901428Y-58521665D01*
X103901428Y-58521665D02*
X103853809Y-58426427D01*
X103853809Y-58426427D02*
X103758571Y-58378808D01*
X103758571Y-58378808D02*
X103568095Y-58378808D01*
X103568095Y-58378808D02*
X103472857Y-58426427D01*
X103901428Y-58997856D02*
X103806190Y-59045475D01*
X103806190Y-59045475D02*
X103568095Y-59045475D01*
X103568095Y-59045475D02*
X103472857Y-58997856D01*
X103472857Y-58997856D02*
X103425238Y-58902617D01*
X103425238Y-58902617D02*
X103425238Y-58807379D01*
X103425238Y-58807379D02*
X103472857Y-58712141D01*
X103472857Y-58712141D02*
X103568095Y-58664522D01*
X103568095Y-58664522D02*
X103806190Y-58664522D01*
X103806190Y-58664522D02*
X103901428Y-58616903D01*
X104377619Y-59045475D02*
X104377619Y-58045475D01*
X104472857Y-58664522D02*
X104758571Y-59045475D01*
X104758571Y-58378808D02*
X104377619Y-58759760D01*
X105330000Y-59045475D02*
X105234762Y-58997856D01*
X105234762Y-58997856D02*
X105187143Y-58950236D01*
X105187143Y-58950236D02*
X105139524Y-58854998D01*
X105139524Y-58854998D02*
X105139524Y-58569284D01*
X105139524Y-58569284D02*
X105187143Y-58474046D01*
X105187143Y-58474046D02*
X105234762Y-58426427D01*
X105234762Y-58426427D02*
X105330000Y-58378808D01*
X105330000Y-58378808D02*
X105472857Y-58378808D01*
X105472857Y-58378808D02*
X105568095Y-58426427D01*
X105568095Y-58426427D02*
X105615714Y-58474046D01*
X105615714Y-58474046D02*
X105663333Y-58569284D01*
X105663333Y-58569284D02*
X105663333Y-58854998D01*
X105663333Y-58854998D02*
X105615714Y-58950236D01*
X105615714Y-58950236D02*
X105568095Y-58997856D01*
X105568095Y-58997856D02*
X105472857Y-59045475D01*
X105472857Y-59045475D02*
X105330000Y-59045475D01*
X106520476Y-58378808D02*
X106520476Y-59045475D01*
X106091905Y-58378808D02*
X106091905Y-58902617D01*
X106091905Y-58902617D02*
X106139524Y-58997856D01*
X106139524Y-58997856D02*
X106234762Y-59045475D01*
X106234762Y-59045475D02*
X106377619Y-59045475D01*
X106377619Y-59045475D02*
X106472857Y-58997856D01*
X106472857Y-58997856D02*
X106520476Y-58950236D01*
X106853810Y-58378808D02*
X107234762Y-58378808D01*
X106996667Y-58045475D02*
X106996667Y-58902617D01*
X106996667Y-58902617D02*
X107044286Y-58997856D01*
X107044286Y-58997856D02*
X107139524Y-59045475D01*
X107139524Y-59045475D02*
X107234762Y-59045475D01*
X95139523Y-60655419D02*
X95139523Y-59655419D01*
X95139523Y-60607800D02*
X95044285Y-60655419D01*
X95044285Y-60655419D02*
X94853809Y-60655419D01*
X94853809Y-60655419D02*
X94758571Y-60607800D01*
X94758571Y-60607800D02*
X94710952Y-60560180D01*
X94710952Y-60560180D02*
X94663333Y-60464942D01*
X94663333Y-60464942D02*
X94663333Y-60179228D01*
X94663333Y-60179228D02*
X94710952Y-60083990D01*
X94710952Y-60083990D02*
X94758571Y-60036371D01*
X94758571Y-60036371D02*
X94853809Y-59988752D01*
X94853809Y-59988752D02*
X95044285Y-59988752D01*
X95044285Y-59988752D02*
X95139523Y-60036371D01*
X95615714Y-60655419D02*
X95615714Y-59988752D01*
X95615714Y-59655419D02*
X95568095Y-59703038D01*
X95568095Y-59703038D02*
X95615714Y-59750657D01*
X95615714Y-59750657D02*
X95663333Y-59703038D01*
X95663333Y-59703038D02*
X95615714Y-59655419D01*
X95615714Y-59655419D02*
X95615714Y-59750657D01*
X95996666Y-59988752D02*
X96234761Y-60655419D01*
X96472856Y-59988752D02*
X96234761Y-60655419D01*
X96234761Y-60655419D02*
X96139523Y-60893514D01*
X96139523Y-60893514D02*
X96091904Y-60941133D01*
X96091904Y-60941133D02*
X95996666Y-60988752D01*
X97234761Y-60607800D02*
X97139523Y-60655419D01*
X97139523Y-60655419D02*
X96949047Y-60655419D01*
X96949047Y-60655419D02*
X96853809Y-60607800D01*
X96853809Y-60607800D02*
X96806190Y-60512561D01*
X96806190Y-60512561D02*
X96806190Y-60131609D01*
X96806190Y-60131609D02*
X96853809Y-60036371D01*
X96853809Y-60036371D02*
X96949047Y-59988752D01*
X96949047Y-59988752D02*
X97139523Y-59988752D01*
X97139523Y-59988752D02*
X97234761Y-60036371D01*
X97234761Y-60036371D02*
X97282380Y-60131609D01*
X97282380Y-60131609D02*
X97282380Y-60226847D01*
X97282380Y-60226847D02*
X96806190Y-60322085D01*
X97853809Y-60655419D02*
X97758571Y-60607800D01*
X97758571Y-60607800D02*
X97710952Y-60512561D01*
X97710952Y-60512561D02*
X97710952Y-59655419D01*
X98615714Y-60607800D02*
X98520476Y-60655419D01*
X98520476Y-60655419D02*
X98330000Y-60655419D01*
X98330000Y-60655419D02*
X98234762Y-60607800D01*
X98234762Y-60607800D02*
X98187143Y-60512561D01*
X98187143Y-60512561D02*
X98187143Y-60131609D01*
X98187143Y-60131609D02*
X98234762Y-60036371D01*
X98234762Y-60036371D02*
X98330000Y-59988752D01*
X98330000Y-59988752D02*
X98520476Y-59988752D01*
X98520476Y-59988752D02*
X98615714Y-60036371D01*
X98615714Y-60036371D02*
X98663333Y-60131609D01*
X98663333Y-60131609D02*
X98663333Y-60226847D01*
X98663333Y-60226847D02*
X98187143Y-60322085D01*
X99520476Y-60607800D02*
X99425238Y-60655419D01*
X99425238Y-60655419D02*
X99234762Y-60655419D01*
X99234762Y-60655419D02*
X99139524Y-60607800D01*
X99139524Y-60607800D02*
X99091905Y-60560180D01*
X99091905Y-60560180D02*
X99044286Y-60464942D01*
X99044286Y-60464942D02*
X99044286Y-60179228D01*
X99044286Y-60179228D02*
X99091905Y-60083990D01*
X99091905Y-60083990D02*
X99139524Y-60036371D01*
X99139524Y-60036371D02*
X99234762Y-59988752D01*
X99234762Y-59988752D02*
X99425238Y-59988752D01*
X99425238Y-59988752D02*
X99520476Y-60036371D01*
X99806191Y-59988752D02*
X100187143Y-59988752D01*
X99949048Y-59655419D02*
X99949048Y-60512561D01*
X99949048Y-60512561D02*
X99996667Y-60607800D01*
X99996667Y-60607800D02*
X100091905Y-60655419D01*
X100091905Y-60655419D02*
X100187143Y-60655419D01*
X100520477Y-60655419D02*
X100520477Y-59988752D01*
X100520477Y-60179228D02*
X100568096Y-60083990D01*
X100568096Y-60083990D02*
X100615715Y-60036371D01*
X100615715Y-60036371D02*
X100710953Y-59988752D01*
X100710953Y-59988752D02*
X100806191Y-59988752D01*
X101282382Y-60655419D02*
X101187144Y-60607800D01*
X101187144Y-60607800D02*
X101139525Y-60560180D01*
X101139525Y-60560180D02*
X101091906Y-60464942D01*
X101091906Y-60464942D02*
X101091906Y-60179228D01*
X101091906Y-60179228D02*
X101139525Y-60083990D01*
X101139525Y-60083990D02*
X101187144Y-60036371D01*
X101187144Y-60036371D02*
X101282382Y-59988752D01*
X101282382Y-59988752D02*
X101425239Y-59988752D01*
X101425239Y-59988752D02*
X101520477Y-60036371D01*
X101520477Y-60036371D02*
X101568096Y-60083990D01*
X101568096Y-60083990D02*
X101615715Y-60179228D01*
X101615715Y-60179228D02*
X101615715Y-60464942D01*
X101615715Y-60464942D02*
X101568096Y-60560180D01*
X101568096Y-60560180D02*
X101520477Y-60607800D01*
X101520477Y-60607800D02*
X101425239Y-60655419D01*
X101425239Y-60655419D02*
X101282382Y-60655419D01*
X102044287Y-60655419D02*
X102044287Y-59988752D01*
X102044287Y-60083990D02*
X102091906Y-60036371D01*
X102091906Y-60036371D02*
X102187144Y-59988752D01*
X102187144Y-59988752D02*
X102330001Y-59988752D01*
X102330001Y-59988752D02*
X102425239Y-60036371D01*
X102425239Y-60036371D02*
X102472858Y-60131609D01*
X102472858Y-60131609D02*
X102472858Y-60655419D01*
X102472858Y-60131609D02*
X102520477Y-60036371D01*
X102520477Y-60036371D02*
X102615715Y-59988752D01*
X102615715Y-59988752D02*
X102758572Y-59988752D01*
X102758572Y-59988752D02*
X102853811Y-60036371D01*
X102853811Y-60036371D02*
X102901430Y-60131609D01*
X102901430Y-60131609D02*
X102901430Y-60655419D01*
X103806191Y-59988752D02*
X103806191Y-60655419D01*
X103377620Y-59988752D02*
X103377620Y-60512561D01*
X103377620Y-60512561D02*
X103425239Y-60607800D01*
X103425239Y-60607800D02*
X103520477Y-60655419D01*
X103520477Y-60655419D02*
X103663334Y-60655419D01*
X103663334Y-60655419D02*
X103758572Y-60607800D01*
X103758572Y-60607800D02*
X103806191Y-60560180D01*
X104234763Y-60607800D02*
X104330001Y-60655419D01*
X104330001Y-60655419D02*
X104520477Y-60655419D01*
X104520477Y-60655419D02*
X104615715Y-60607800D01*
X104615715Y-60607800D02*
X104663334Y-60512561D01*
X104663334Y-60512561D02*
X104663334Y-60464942D01*
X104663334Y-60464942D02*
X104615715Y-60369704D01*
X104615715Y-60369704D02*
X104520477Y-60322085D01*
X104520477Y-60322085D02*
X104377620Y-60322085D01*
X104377620Y-60322085D02*
X104282382Y-60274466D01*
X104282382Y-60274466D02*
X104234763Y-60179228D01*
X104234763Y-60179228D02*
X104234763Y-60131609D01*
X104234763Y-60131609D02*
X104282382Y-60036371D01*
X104282382Y-60036371D02*
X104377620Y-59988752D01*
X104377620Y-59988752D02*
X104520477Y-59988752D01*
X104520477Y-59988752D02*
X104615715Y-60036371D01*
X105091906Y-60655419D02*
X105091906Y-59988752D01*
X105091906Y-59655419D02*
X105044287Y-59703038D01*
X105044287Y-59703038D02*
X105091906Y-59750657D01*
X105091906Y-59750657D02*
X105139525Y-59703038D01*
X105139525Y-59703038D02*
X105091906Y-59655419D01*
X105091906Y-59655419D02*
X105091906Y-59750657D01*
X105996667Y-60607800D02*
X105901429Y-60655419D01*
X105901429Y-60655419D02*
X105710953Y-60655419D01*
X105710953Y-60655419D02*
X105615715Y-60607800D01*
X105615715Y-60607800D02*
X105568096Y-60560180D01*
X105568096Y-60560180D02*
X105520477Y-60464942D01*
X105520477Y-60464942D02*
X105520477Y-60179228D01*
X105520477Y-60179228D02*
X105568096Y-60083990D01*
X105568096Y-60083990D02*
X105615715Y-60036371D01*
X105615715Y-60036371D02*
X105710953Y-59988752D01*
X105710953Y-59988752D02*
X105901429Y-59988752D01*
X105901429Y-59988752D02*
X105996667Y-60036371D01*
X96615714Y-61598696D02*
X96853809Y-62265363D01*
X96853809Y-62265363D02*
X97091904Y-61598696D01*
X97663333Y-61265363D02*
X97758571Y-61265363D01*
X97758571Y-61265363D02*
X97853809Y-61312982D01*
X97853809Y-61312982D02*
X97901428Y-61360601D01*
X97901428Y-61360601D02*
X97949047Y-61455839D01*
X97949047Y-61455839D02*
X97996666Y-61646315D01*
X97996666Y-61646315D02*
X97996666Y-61884410D01*
X97996666Y-61884410D02*
X97949047Y-62074886D01*
X97949047Y-62074886D02*
X97901428Y-62170124D01*
X97901428Y-62170124D02*
X97853809Y-62217744D01*
X97853809Y-62217744D02*
X97758571Y-62265363D01*
X97758571Y-62265363D02*
X97663333Y-62265363D01*
X97663333Y-62265363D02*
X97568095Y-62217744D01*
X97568095Y-62217744D02*
X97520476Y-62170124D01*
X97520476Y-62170124D02*
X97472857Y-62074886D01*
X97472857Y-62074886D02*
X97425238Y-61884410D01*
X97425238Y-61884410D02*
X97425238Y-61646315D01*
X97425238Y-61646315D02*
X97472857Y-61455839D01*
X97472857Y-61455839D02*
X97520476Y-61360601D01*
X97520476Y-61360601D02*
X97568095Y-61312982D01*
X97568095Y-61312982D02*
X97663333Y-61265363D01*
X98425238Y-62170124D02*
X98472857Y-62217744D01*
X98472857Y-62217744D02*
X98425238Y-62265363D01*
X98425238Y-62265363D02*
X98377619Y-62217744D01*
X98377619Y-62217744D02*
X98425238Y-62170124D01*
X98425238Y-62170124D02*
X98425238Y-62265363D01*
X99425237Y-62265363D02*
X98853809Y-62265363D01*
X99139523Y-62265363D02*
X99139523Y-61265363D01*
X99139523Y-61265363D02*
X99044285Y-61408220D01*
X99044285Y-61408220D02*
X98949047Y-61503458D01*
X98949047Y-61503458D02*
X98853809Y-61551077D01*
X100568095Y-61360601D02*
X100615714Y-61312982D01*
X100615714Y-61312982D02*
X100710952Y-61265363D01*
X100710952Y-61265363D02*
X100949047Y-61265363D01*
X100949047Y-61265363D02*
X101044285Y-61312982D01*
X101044285Y-61312982D02*
X101091904Y-61360601D01*
X101091904Y-61360601D02*
X101139523Y-61455839D01*
X101139523Y-61455839D02*
X101139523Y-61551077D01*
X101139523Y-61551077D02*
X101091904Y-61693934D01*
X101091904Y-61693934D02*
X100520476Y-62265363D01*
X100520476Y-62265363D02*
X101139523Y-62265363D01*
X101758571Y-61265363D02*
X101853809Y-61265363D01*
X101853809Y-61265363D02*
X101949047Y-61312982D01*
X101949047Y-61312982D02*
X101996666Y-61360601D01*
X101996666Y-61360601D02*
X102044285Y-61455839D01*
X102044285Y-61455839D02*
X102091904Y-61646315D01*
X102091904Y-61646315D02*
X102091904Y-61884410D01*
X102091904Y-61884410D02*
X102044285Y-62074886D01*
X102044285Y-62074886D02*
X101996666Y-62170124D01*
X101996666Y-62170124D02*
X101949047Y-62217744D01*
X101949047Y-62217744D02*
X101853809Y-62265363D01*
X101853809Y-62265363D02*
X101758571Y-62265363D01*
X101758571Y-62265363D02*
X101663333Y-62217744D01*
X101663333Y-62217744D02*
X101615714Y-62170124D01*
X101615714Y-62170124D02*
X101568095Y-62074886D01*
X101568095Y-62074886D02*
X101520476Y-61884410D01*
X101520476Y-61884410D02*
X101520476Y-61646315D01*
X101520476Y-61646315D02*
X101568095Y-61455839D01*
X101568095Y-61455839D02*
X101615714Y-61360601D01*
X101615714Y-61360601D02*
X101663333Y-61312982D01*
X101663333Y-61312982D02*
X101758571Y-61265363D01*
X102472857Y-61360601D02*
X102520476Y-61312982D01*
X102520476Y-61312982D02*
X102615714Y-61265363D01*
X102615714Y-61265363D02*
X102853809Y-61265363D01*
X102853809Y-61265363D02*
X102949047Y-61312982D01*
X102949047Y-61312982D02*
X102996666Y-61360601D01*
X102996666Y-61360601D02*
X103044285Y-61455839D01*
X103044285Y-61455839D02*
X103044285Y-61551077D01*
X103044285Y-61551077D02*
X102996666Y-61693934D01*
X102996666Y-61693934D02*
X102425238Y-62265363D01*
X102425238Y-62265363D02*
X103044285Y-62265363D01*
X103901428Y-61265363D02*
X103710952Y-61265363D01*
X103710952Y-61265363D02*
X103615714Y-61312982D01*
X103615714Y-61312982D02*
X103568095Y-61360601D01*
X103568095Y-61360601D02*
X103472857Y-61503458D01*
X103472857Y-61503458D02*
X103425238Y-61693934D01*
X103425238Y-61693934D02*
X103425238Y-62074886D01*
X103425238Y-62074886D02*
X103472857Y-62170124D01*
X103472857Y-62170124D02*
X103520476Y-62217744D01*
X103520476Y-62217744D02*
X103615714Y-62265363D01*
X103615714Y-62265363D02*
X103806190Y-62265363D01*
X103806190Y-62265363D02*
X103901428Y-62217744D01*
X103901428Y-62217744D02*
X103949047Y-62170124D01*
X103949047Y-62170124D02*
X103996666Y-62074886D01*
X103996666Y-62074886D02*
X103996666Y-61836791D01*
X103996666Y-61836791D02*
X103949047Y-61741553D01*
X103949047Y-61741553D02*
X103901428Y-61693934D01*
X103901428Y-61693934D02*
X103806190Y-61646315D01*
X103806190Y-61646315D02*
X103615714Y-61646315D01*
X103615714Y-61646315D02*
X103520476Y-61693934D01*
X103520476Y-61693934D02*
X103472857Y-61741553D01*
X103472857Y-61741553D02*
X103425238Y-61836791D01*
X70358000Y-60960000D02*
X68834000Y-59182000D01*
X71628000Y-59182000D01*
X70358000Y-60960000D01*
G36*
X70358000Y-60960000D02*
G01*
X68834000Y-59182000D01*
X71628000Y-59182000D01*
X70358000Y-60960000D01*
G37*
X79756095Y-90230657D02*
X79803714Y-90183038D01*
X79803714Y-90183038D02*
X79898952Y-90135419D01*
X79898952Y-90135419D02*
X80137047Y-90135419D01*
X80137047Y-90135419D02*
X80232285Y-90183038D01*
X80232285Y-90183038D02*
X80279904Y-90230657D01*
X80279904Y-90230657D02*
X80327523Y-90325895D01*
X80327523Y-90325895D02*
X80327523Y-90421133D01*
X80327523Y-90421133D02*
X80279904Y-90563990D01*
X80279904Y-90563990D02*
X79708476Y-91135419D01*
X79708476Y-91135419D02*
X80327523Y-91135419D01*
X80660857Y-90135419D02*
X81279904Y-90135419D01*
X81279904Y-90135419D02*
X80946571Y-90516371D01*
X80946571Y-90516371D02*
X81089428Y-90516371D01*
X81089428Y-90516371D02*
X81184666Y-90563990D01*
X81184666Y-90563990D02*
X81232285Y-90611609D01*
X81232285Y-90611609D02*
X81279904Y-90706847D01*
X81279904Y-90706847D02*
X81279904Y-90944942D01*
X81279904Y-90944942D02*
X81232285Y-91040180D01*
X81232285Y-91040180D02*
X81184666Y-91087800D01*
X81184666Y-91087800D02*
X81089428Y-91135419D01*
X81089428Y-91135419D02*
X80803714Y-91135419D01*
X80803714Y-91135419D02*
X80708476Y-91087800D01*
X80708476Y-91087800D02*
X80660857Y-91040180D01*
X55104360Y-59655419D02*
X55199598Y-59655419D01*
X55199598Y-59655419D02*
X55294836Y-59703038D01*
X55294836Y-59703038D02*
X55342455Y-59750657D01*
X55342455Y-59750657D02*
X55390074Y-59845895D01*
X55390074Y-59845895D02*
X55437693Y-60036371D01*
X55437693Y-60036371D02*
X55437693Y-60274466D01*
X55437693Y-60274466D02*
X55390074Y-60464942D01*
X55390074Y-60464942D02*
X55342455Y-60560180D01*
X55342455Y-60560180D02*
X55294836Y-60607800D01*
X55294836Y-60607800D02*
X55199598Y-60655419D01*
X55199598Y-60655419D02*
X55104360Y-60655419D01*
X55104360Y-60655419D02*
X55009122Y-60607800D01*
X55009122Y-60607800D02*
X54961503Y-60560180D01*
X54961503Y-60560180D02*
X54913884Y-60464942D01*
X54913884Y-60464942D02*
X54866265Y-60274466D01*
X54866265Y-60274466D02*
X54866265Y-60036371D01*
X54866265Y-60036371D02*
X54913884Y-59845895D01*
X54913884Y-59845895D02*
X54961503Y-59750657D01*
X54961503Y-59750657D02*
X55009122Y-59703038D01*
X55009122Y-59703038D02*
X55104360Y-59655419D01*
X54866265Y-64830657D02*
X54913884Y-64783038D01*
X54913884Y-64783038D02*
X55009122Y-64735419D01*
X55009122Y-64735419D02*
X55247217Y-64735419D01*
X55247217Y-64735419D02*
X55342455Y-64783038D01*
X55342455Y-64783038D02*
X55390074Y-64830657D01*
X55390074Y-64830657D02*
X55437693Y-64925895D01*
X55437693Y-64925895D02*
X55437693Y-65021133D01*
X55437693Y-65021133D02*
X55390074Y-65163990D01*
X55390074Y-65163990D02*
X54818646Y-65735419D01*
X54818646Y-65735419D02*
X55437693Y-65735419D01*
X97488476Y-90135419D02*
X98107523Y-90135419D01*
X98107523Y-90135419D02*
X97774190Y-90516371D01*
X97774190Y-90516371D02*
X97917047Y-90516371D01*
X97917047Y-90516371D02*
X98012285Y-90563990D01*
X98012285Y-90563990D02*
X98059904Y-90611609D01*
X98059904Y-90611609D02*
X98107523Y-90706847D01*
X98107523Y-90706847D02*
X98107523Y-90944942D01*
X98107523Y-90944942D02*
X98059904Y-91040180D01*
X98059904Y-91040180D02*
X98012285Y-91087800D01*
X98012285Y-91087800D02*
X97917047Y-91135419D01*
X97917047Y-91135419D02*
X97631333Y-91135419D01*
X97631333Y-91135419D02*
X97536095Y-91087800D01*
X97536095Y-91087800D02*
X97488476Y-91040180D01*
X98726571Y-90135419D02*
X98821809Y-90135419D01*
X98821809Y-90135419D02*
X98917047Y-90183038D01*
X98917047Y-90183038D02*
X98964666Y-90230657D01*
X98964666Y-90230657D02*
X99012285Y-90325895D01*
X99012285Y-90325895D02*
X99059904Y-90516371D01*
X99059904Y-90516371D02*
X99059904Y-90754466D01*
X99059904Y-90754466D02*
X99012285Y-90944942D01*
X99012285Y-90944942D02*
X98964666Y-91040180D01*
X98964666Y-91040180D02*
X98917047Y-91087800D01*
X98917047Y-91087800D02*
X98821809Y-91135419D01*
X98821809Y-91135419D02*
X98726571Y-91135419D01*
X98726571Y-91135419D02*
X98631333Y-91087800D01*
X98631333Y-91087800D02*
X98583714Y-91040180D01*
X98583714Y-91040180D02*
X98536095Y-90944942D01*
X98536095Y-90944942D02*
X98488476Y-90754466D01*
X98488476Y-90754466D02*
X98488476Y-90516371D01*
X98488476Y-90516371D02*
X98536095Y-90325895D01*
X98536095Y-90325895D02*
X98583714Y-90230657D01*
X98583714Y-90230657D02*
X98631333Y-90183038D01*
X98631333Y-90183038D02*
X98726571Y-90135419D01*
X84836095Y-90230657D02*
X84883714Y-90183038D01*
X84883714Y-90183038D02*
X84978952Y-90135419D01*
X84978952Y-90135419D02*
X85217047Y-90135419D01*
X85217047Y-90135419D02*
X85312285Y-90183038D01*
X85312285Y-90183038D02*
X85359904Y-90230657D01*
X85359904Y-90230657D02*
X85407523Y-90325895D01*
X85407523Y-90325895D02*
X85407523Y-90421133D01*
X85407523Y-90421133D02*
X85359904Y-90563990D01*
X85359904Y-90563990D02*
X84788476Y-91135419D01*
X84788476Y-91135419D02*
X85407523Y-91135419D01*
X86312285Y-90135419D02*
X85836095Y-90135419D01*
X85836095Y-90135419D02*
X85788476Y-90611609D01*
X85788476Y-90611609D02*
X85836095Y-90563990D01*
X85836095Y-90563990D02*
X85931333Y-90516371D01*
X85931333Y-90516371D02*
X86169428Y-90516371D01*
X86169428Y-90516371D02*
X86264666Y-90563990D01*
X86264666Y-90563990D02*
X86312285Y-90611609D01*
X86312285Y-90611609D02*
X86359904Y-90706847D01*
X86359904Y-90706847D02*
X86359904Y-90944942D01*
X86359904Y-90944942D02*
X86312285Y-91040180D01*
X86312285Y-91040180D02*
X86264666Y-91087800D01*
X86264666Y-91087800D02*
X86169428Y-91135419D01*
X86169428Y-91135419D02*
X85931333Y-91135419D01*
X85931333Y-91135419D02*
X85836095Y-91087800D01*
X85836095Y-91087800D02*
X85788476Y-91040180D01*
X55437693Y-63195419D02*
X54866265Y-63195419D01*
X55151979Y-63195419D02*
X55151979Y-62195419D01*
X55151979Y-62195419D02*
X55056741Y-62338276D01*
X55056741Y-62338276D02*
X54961503Y-62433514D01*
X54961503Y-62433514D02*
X54866265Y-62481133D01*
X60007523Y-91135419D02*
X59436095Y-91135419D01*
X59721809Y-91135419D02*
X59721809Y-90135419D01*
X59721809Y-90135419D02*
X59626571Y-90278276D01*
X59626571Y-90278276D02*
X59531333Y-90373514D01*
X59531333Y-90373514D02*
X59436095Y-90421133D01*
X60912285Y-90135419D02*
X60436095Y-90135419D01*
X60436095Y-90135419D02*
X60388476Y-90611609D01*
X60388476Y-90611609D02*
X60436095Y-90563990D01*
X60436095Y-90563990D02*
X60531333Y-90516371D01*
X60531333Y-90516371D02*
X60769428Y-90516371D01*
X60769428Y-90516371D02*
X60864666Y-90563990D01*
X60864666Y-90563990D02*
X60912285Y-90611609D01*
X60912285Y-90611609D02*
X60959904Y-90706847D01*
X60959904Y-90706847D02*
X60959904Y-90944942D01*
X60959904Y-90944942D02*
X60912285Y-91040180D01*
X60912285Y-91040180D02*
X60864666Y-91087800D01*
X60864666Y-91087800D02*
X60769428Y-91135419D01*
X60769428Y-91135419D02*
X60531333Y-91135419D01*
X60531333Y-91135419D02*
X60436095Y-91087800D01*
X60436095Y-91087800D02*
X60388476Y-91040180D01*
X55437693Y-88595419D02*
X54866265Y-88595419D01*
X55151979Y-88595419D02*
X55151979Y-87595419D01*
X55151979Y-87595419D02*
X55056741Y-87738276D01*
X55056741Y-87738276D02*
X54961503Y-87833514D01*
X54961503Y-87833514D02*
X54866265Y-87881133D01*
X56390074Y-88595419D02*
X55818646Y-88595419D01*
X56104360Y-88595419D02*
X56104360Y-87595419D01*
X56104360Y-87595419D02*
X56009122Y-87738276D01*
X56009122Y-87738276D02*
X55913884Y-87833514D01*
X55913884Y-87833514D02*
X55818646Y-87881133D01*
X82296095Y-90230657D02*
X82343714Y-90183038D01*
X82343714Y-90183038D02*
X82438952Y-90135419D01*
X82438952Y-90135419D02*
X82677047Y-90135419D01*
X82677047Y-90135419D02*
X82772285Y-90183038D01*
X82772285Y-90183038D02*
X82819904Y-90230657D01*
X82819904Y-90230657D02*
X82867523Y-90325895D01*
X82867523Y-90325895D02*
X82867523Y-90421133D01*
X82867523Y-90421133D02*
X82819904Y-90563990D01*
X82819904Y-90563990D02*
X82248476Y-91135419D01*
X82248476Y-91135419D02*
X82867523Y-91135419D01*
X83724666Y-90468752D02*
X83724666Y-91135419D01*
X83486571Y-90087800D02*
X83248476Y-90802085D01*
X83248476Y-90802085D02*
X83867523Y-90802085D01*
X67627523Y-91135419D02*
X67056095Y-91135419D01*
X67341809Y-91135419D02*
X67341809Y-90135419D01*
X67341809Y-90135419D02*
X67246571Y-90278276D01*
X67246571Y-90278276D02*
X67151333Y-90373514D01*
X67151333Y-90373514D02*
X67056095Y-90421133D01*
X68198952Y-90563990D02*
X68103714Y-90516371D01*
X68103714Y-90516371D02*
X68056095Y-90468752D01*
X68056095Y-90468752D02*
X68008476Y-90373514D01*
X68008476Y-90373514D02*
X68008476Y-90325895D01*
X68008476Y-90325895D02*
X68056095Y-90230657D01*
X68056095Y-90230657D02*
X68103714Y-90183038D01*
X68103714Y-90183038D02*
X68198952Y-90135419D01*
X68198952Y-90135419D02*
X68389428Y-90135419D01*
X68389428Y-90135419D02*
X68484666Y-90183038D01*
X68484666Y-90183038D02*
X68532285Y-90230657D01*
X68532285Y-90230657D02*
X68579904Y-90325895D01*
X68579904Y-90325895D02*
X68579904Y-90373514D01*
X68579904Y-90373514D02*
X68532285Y-90468752D01*
X68532285Y-90468752D02*
X68484666Y-90516371D01*
X68484666Y-90516371D02*
X68389428Y-90563990D01*
X68389428Y-90563990D02*
X68198952Y-90563990D01*
X68198952Y-90563990D02*
X68103714Y-90611609D01*
X68103714Y-90611609D02*
X68056095Y-90659228D01*
X68056095Y-90659228D02*
X68008476Y-90754466D01*
X68008476Y-90754466D02*
X68008476Y-90944942D01*
X68008476Y-90944942D02*
X68056095Y-91040180D01*
X68056095Y-91040180D02*
X68103714Y-91087800D01*
X68103714Y-91087800D02*
X68198952Y-91135419D01*
X68198952Y-91135419D02*
X68389428Y-91135419D01*
X68389428Y-91135419D02*
X68484666Y-91087800D01*
X68484666Y-91087800D02*
X68532285Y-91040180D01*
X68532285Y-91040180D02*
X68579904Y-90944942D01*
X68579904Y-90944942D02*
X68579904Y-90754466D01*
X68579904Y-90754466D02*
X68532285Y-90659228D01*
X68532285Y-90659228D02*
X68484666Y-90611609D01*
X68484666Y-90611609D02*
X68389428Y-90563990D01*
X74676095Y-90230657D02*
X74723714Y-90183038D01*
X74723714Y-90183038D02*
X74818952Y-90135419D01*
X74818952Y-90135419D02*
X75057047Y-90135419D01*
X75057047Y-90135419D02*
X75152285Y-90183038D01*
X75152285Y-90183038D02*
X75199904Y-90230657D01*
X75199904Y-90230657D02*
X75247523Y-90325895D01*
X75247523Y-90325895D02*
X75247523Y-90421133D01*
X75247523Y-90421133D02*
X75199904Y-90563990D01*
X75199904Y-90563990D02*
X74628476Y-91135419D01*
X74628476Y-91135419D02*
X75247523Y-91135419D01*
X76199904Y-91135419D02*
X75628476Y-91135419D01*
X75914190Y-91135419D02*
X75914190Y-90135419D01*
X75914190Y-90135419D02*
X75818952Y-90278276D01*
X75818952Y-90278276D02*
X75723714Y-90373514D01*
X75723714Y-90373514D02*
X75628476Y-90421133D01*
X92456095Y-90230657D02*
X92503714Y-90183038D01*
X92503714Y-90183038D02*
X92598952Y-90135419D01*
X92598952Y-90135419D02*
X92837047Y-90135419D01*
X92837047Y-90135419D02*
X92932285Y-90183038D01*
X92932285Y-90183038D02*
X92979904Y-90230657D01*
X92979904Y-90230657D02*
X93027523Y-90325895D01*
X93027523Y-90325895D02*
X93027523Y-90421133D01*
X93027523Y-90421133D02*
X92979904Y-90563990D01*
X92979904Y-90563990D02*
X92408476Y-91135419D01*
X92408476Y-91135419D02*
X93027523Y-91135419D01*
X93598952Y-90563990D02*
X93503714Y-90516371D01*
X93503714Y-90516371D02*
X93456095Y-90468752D01*
X93456095Y-90468752D02*
X93408476Y-90373514D01*
X93408476Y-90373514D02*
X93408476Y-90325895D01*
X93408476Y-90325895D02*
X93456095Y-90230657D01*
X93456095Y-90230657D02*
X93503714Y-90183038D01*
X93503714Y-90183038D02*
X93598952Y-90135419D01*
X93598952Y-90135419D02*
X93789428Y-90135419D01*
X93789428Y-90135419D02*
X93884666Y-90183038D01*
X93884666Y-90183038D02*
X93932285Y-90230657D01*
X93932285Y-90230657D02*
X93979904Y-90325895D01*
X93979904Y-90325895D02*
X93979904Y-90373514D01*
X93979904Y-90373514D02*
X93932285Y-90468752D01*
X93932285Y-90468752D02*
X93884666Y-90516371D01*
X93884666Y-90516371D02*
X93789428Y-90563990D01*
X93789428Y-90563990D02*
X93598952Y-90563990D01*
X93598952Y-90563990D02*
X93503714Y-90611609D01*
X93503714Y-90611609D02*
X93456095Y-90659228D01*
X93456095Y-90659228D02*
X93408476Y-90754466D01*
X93408476Y-90754466D02*
X93408476Y-90944942D01*
X93408476Y-90944942D02*
X93456095Y-91040180D01*
X93456095Y-91040180D02*
X93503714Y-91087800D01*
X93503714Y-91087800D02*
X93598952Y-91135419D01*
X93598952Y-91135419D02*
X93789428Y-91135419D01*
X93789428Y-91135419D02*
X93884666Y-91087800D01*
X93884666Y-91087800D02*
X93932285Y-91040180D01*
X93932285Y-91040180D02*
X93979904Y-90944942D01*
X93979904Y-90944942D02*
X93979904Y-90754466D01*
X93979904Y-90754466D02*
X93932285Y-90659228D01*
X93932285Y-90659228D02*
X93884666Y-90611609D01*
X93884666Y-90611609D02*
X93789428Y-90563990D01*
X87376095Y-90230657D02*
X87423714Y-90183038D01*
X87423714Y-90183038D02*
X87518952Y-90135419D01*
X87518952Y-90135419D02*
X87757047Y-90135419D01*
X87757047Y-90135419D02*
X87852285Y-90183038D01*
X87852285Y-90183038D02*
X87899904Y-90230657D01*
X87899904Y-90230657D02*
X87947523Y-90325895D01*
X87947523Y-90325895D02*
X87947523Y-90421133D01*
X87947523Y-90421133D02*
X87899904Y-90563990D01*
X87899904Y-90563990D02*
X87328476Y-91135419D01*
X87328476Y-91135419D02*
X87947523Y-91135419D01*
X88804666Y-90135419D02*
X88614190Y-90135419D01*
X88614190Y-90135419D02*
X88518952Y-90183038D01*
X88518952Y-90183038D02*
X88471333Y-90230657D01*
X88471333Y-90230657D02*
X88376095Y-90373514D01*
X88376095Y-90373514D02*
X88328476Y-90563990D01*
X88328476Y-90563990D02*
X88328476Y-90944942D01*
X88328476Y-90944942D02*
X88376095Y-91040180D01*
X88376095Y-91040180D02*
X88423714Y-91087800D01*
X88423714Y-91087800D02*
X88518952Y-91135419D01*
X88518952Y-91135419D02*
X88709428Y-91135419D01*
X88709428Y-91135419D02*
X88804666Y-91087800D01*
X88804666Y-91087800D02*
X88852285Y-91040180D01*
X88852285Y-91040180D02*
X88899904Y-90944942D01*
X88899904Y-90944942D02*
X88899904Y-90706847D01*
X88899904Y-90706847D02*
X88852285Y-90611609D01*
X88852285Y-90611609D02*
X88804666Y-90563990D01*
X88804666Y-90563990D02*
X88709428Y-90516371D01*
X88709428Y-90516371D02*
X88518952Y-90516371D01*
X88518952Y-90516371D02*
X88423714Y-90563990D01*
X88423714Y-90563990D02*
X88376095Y-90611609D01*
X88376095Y-90611609D02*
X88328476Y-90706847D01*
X94996095Y-90230657D02*
X95043714Y-90183038D01*
X95043714Y-90183038D02*
X95138952Y-90135419D01*
X95138952Y-90135419D02*
X95377047Y-90135419D01*
X95377047Y-90135419D02*
X95472285Y-90183038D01*
X95472285Y-90183038D02*
X95519904Y-90230657D01*
X95519904Y-90230657D02*
X95567523Y-90325895D01*
X95567523Y-90325895D02*
X95567523Y-90421133D01*
X95567523Y-90421133D02*
X95519904Y-90563990D01*
X95519904Y-90563990D02*
X94948476Y-91135419D01*
X94948476Y-91135419D02*
X95567523Y-91135419D01*
X96043714Y-91135419D02*
X96234190Y-91135419D01*
X96234190Y-91135419D02*
X96329428Y-91087800D01*
X96329428Y-91087800D02*
X96377047Y-91040180D01*
X96377047Y-91040180D02*
X96472285Y-90897323D01*
X96472285Y-90897323D02*
X96519904Y-90706847D01*
X96519904Y-90706847D02*
X96519904Y-90325895D01*
X96519904Y-90325895D02*
X96472285Y-90230657D01*
X96472285Y-90230657D02*
X96424666Y-90183038D01*
X96424666Y-90183038D02*
X96329428Y-90135419D01*
X96329428Y-90135419D02*
X96138952Y-90135419D01*
X96138952Y-90135419D02*
X96043714Y-90183038D01*
X96043714Y-90183038D02*
X95996095Y-90230657D01*
X95996095Y-90230657D02*
X95948476Y-90325895D01*
X95948476Y-90325895D02*
X95948476Y-90563990D01*
X95948476Y-90563990D02*
X95996095Y-90659228D01*
X95996095Y-90659228D02*
X96043714Y-90706847D01*
X96043714Y-90706847D02*
X96138952Y-90754466D01*
X96138952Y-90754466D02*
X96329428Y-90754466D01*
X96329428Y-90754466D02*
X96424666Y-90706847D01*
X96424666Y-90706847D02*
X96472285Y-90659228D01*
X96472285Y-90659228D02*
X96519904Y-90563990D01*
X55342455Y-74895419D02*
X55151979Y-74895419D01*
X55151979Y-74895419D02*
X55056741Y-74943038D01*
X55056741Y-74943038D02*
X55009122Y-74990657D01*
X55009122Y-74990657D02*
X54913884Y-75133514D01*
X54913884Y-75133514D02*
X54866265Y-75323990D01*
X54866265Y-75323990D02*
X54866265Y-75704942D01*
X54866265Y-75704942D02*
X54913884Y-75800180D01*
X54913884Y-75800180D02*
X54961503Y-75847800D01*
X54961503Y-75847800D02*
X55056741Y-75895419D01*
X55056741Y-75895419D02*
X55247217Y-75895419D01*
X55247217Y-75895419D02*
X55342455Y-75847800D01*
X55342455Y-75847800D02*
X55390074Y-75800180D01*
X55390074Y-75800180D02*
X55437693Y-75704942D01*
X55437693Y-75704942D02*
X55437693Y-75466847D01*
X55437693Y-75466847D02*
X55390074Y-75371609D01*
X55390074Y-75371609D02*
X55342455Y-75323990D01*
X55342455Y-75323990D02*
X55247217Y-75276371D01*
X55247217Y-75276371D02*
X55056741Y-75276371D01*
X55056741Y-75276371D02*
X54961503Y-75323990D01*
X54961503Y-75323990D02*
X54913884Y-75371609D01*
X54913884Y-75371609D02*
X54866265Y-75466847D01*
X100028476Y-90135419D02*
X100647523Y-90135419D01*
X100647523Y-90135419D02*
X100314190Y-90516371D01*
X100314190Y-90516371D02*
X100457047Y-90516371D01*
X100457047Y-90516371D02*
X100552285Y-90563990D01*
X100552285Y-90563990D02*
X100599904Y-90611609D01*
X100599904Y-90611609D02*
X100647523Y-90706847D01*
X100647523Y-90706847D02*
X100647523Y-90944942D01*
X100647523Y-90944942D02*
X100599904Y-91040180D01*
X100599904Y-91040180D02*
X100552285Y-91087800D01*
X100552285Y-91087800D02*
X100457047Y-91135419D01*
X100457047Y-91135419D02*
X100171333Y-91135419D01*
X100171333Y-91135419D02*
X100076095Y-91087800D01*
X100076095Y-91087800D02*
X100028476Y-91040180D01*
X101599904Y-91135419D02*
X101028476Y-91135419D01*
X101314190Y-91135419D02*
X101314190Y-90135419D01*
X101314190Y-90135419D02*
X101218952Y-90278276D01*
X101218952Y-90278276D02*
X101123714Y-90373514D01*
X101123714Y-90373514D02*
X101028476Y-90421133D01*
X107392306Y-85055419D02*
X108011353Y-85055419D01*
X108011353Y-85055419D02*
X107678020Y-85436371D01*
X107678020Y-85436371D02*
X107820877Y-85436371D01*
X107820877Y-85436371D02*
X107916115Y-85483990D01*
X107916115Y-85483990D02*
X107963734Y-85531609D01*
X107963734Y-85531609D02*
X108011353Y-85626847D01*
X108011353Y-85626847D02*
X108011353Y-85864942D01*
X108011353Y-85864942D02*
X107963734Y-85960180D01*
X107963734Y-85960180D02*
X107916115Y-86007800D01*
X107916115Y-86007800D02*
X107820877Y-86055419D01*
X107820877Y-86055419D02*
X107535163Y-86055419D01*
X107535163Y-86055419D02*
X107439925Y-86007800D01*
X107439925Y-86007800D02*
X107392306Y-85960180D01*
X108344687Y-85055419D02*
X109011353Y-85055419D01*
X109011353Y-85055419D02*
X108582782Y-86055419D01*
X107916115Y-59988752D02*
X107916115Y-60655419D01*
X107678020Y-59607800D02*
X107439925Y-60322085D01*
X107439925Y-60322085D02*
X108058972Y-60322085D01*
X108344687Y-59655419D02*
X109011353Y-59655419D01*
X109011353Y-59655419D02*
X108582782Y-60655419D01*
X55342455Y-70148752D02*
X55342455Y-70815419D01*
X55104360Y-69767800D02*
X54866265Y-70482085D01*
X54866265Y-70482085D02*
X55485312Y-70482085D01*
X54961503Y-83515419D02*
X55151979Y-83515419D01*
X55151979Y-83515419D02*
X55247217Y-83467800D01*
X55247217Y-83467800D02*
X55294836Y-83420180D01*
X55294836Y-83420180D02*
X55390074Y-83277323D01*
X55390074Y-83277323D02*
X55437693Y-83086847D01*
X55437693Y-83086847D02*
X55437693Y-82705895D01*
X55437693Y-82705895D02*
X55390074Y-82610657D01*
X55390074Y-82610657D02*
X55342455Y-82563038D01*
X55342455Y-82563038D02*
X55247217Y-82515419D01*
X55247217Y-82515419D02*
X55056741Y-82515419D01*
X55056741Y-82515419D02*
X54961503Y-82563038D01*
X54961503Y-82563038D02*
X54913884Y-82610657D01*
X54913884Y-82610657D02*
X54866265Y-82705895D01*
X54866265Y-82705895D02*
X54866265Y-82943990D01*
X54866265Y-82943990D02*
X54913884Y-83039228D01*
X54913884Y-83039228D02*
X54961503Y-83086847D01*
X54961503Y-83086847D02*
X55056741Y-83134466D01*
X55056741Y-83134466D02*
X55247217Y-83134466D01*
X55247217Y-83134466D02*
X55342455Y-83086847D01*
X55342455Y-83086847D02*
X55390074Y-83039228D01*
X55390074Y-83039228D02*
X55437693Y-82943990D01*
X55437693Y-86055419D02*
X54866265Y-86055419D01*
X55151979Y-86055419D02*
X55151979Y-85055419D01*
X55151979Y-85055419D02*
X55056741Y-85198276D01*
X55056741Y-85198276D02*
X54961503Y-85293514D01*
X54961503Y-85293514D02*
X54866265Y-85341133D01*
X56056741Y-85055419D02*
X56151979Y-85055419D01*
X56151979Y-85055419D02*
X56247217Y-85103038D01*
X56247217Y-85103038D02*
X56294836Y-85150657D01*
X56294836Y-85150657D02*
X56342455Y-85245895D01*
X56342455Y-85245895D02*
X56390074Y-85436371D01*
X56390074Y-85436371D02*
X56390074Y-85674466D01*
X56390074Y-85674466D02*
X56342455Y-85864942D01*
X56342455Y-85864942D02*
X56294836Y-85960180D01*
X56294836Y-85960180D02*
X56247217Y-86007800D01*
X56247217Y-86007800D02*
X56151979Y-86055419D01*
X56151979Y-86055419D02*
X56056741Y-86055419D01*
X56056741Y-86055419D02*
X55961503Y-86007800D01*
X55961503Y-86007800D02*
X55913884Y-85960180D01*
X55913884Y-85960180D02*
X55866265Y-85864942D01*
X55866265Y-85864942D02*
X55818646Y-85674466D01*
X55818646Y-85674466D02*
X55818646Y-85436371D01*
X55818646Y-85436371D02*
X55866265Y-85245895D01*
X55866265Y-85245895D02*
X55913884Y-85150657D01*
X55913884Y-85150657D02*
X55961503Y-85103038D01*
X55961503Y-85103038D02*
X56056741Y-85055419D01*
X102568476Y-90135419D02*
X103187523Y-90135419D01*
X103187523Y-90135419D02*
X102854190Y-90516371D01*
X102854190Y-90516371D02*
X102997047Y-90516371D01*
X102997047Y-90516371D02*
X103092285Y-90563990D01*
X103092285Y-90563990D02*
X103139904Y-90611609D01*
X103139904Y-90611609D02*
X103187523Y-90706847D01*
X103187523Y-90706847D02*
X103187523Y-90944942D01*
X103187523Y-90944942D02*
X103139904Y-91040180D01*
X103139904Y-91040180D02*
X103092285Y-91087800D01*
X103092285Y-91087800D02*
X102997047Y-91135419D01*
X102997047Y-91135419D02*
X102711333Y-91135419D01*
X102711333Y-91135419D02*
X102616095Y-91087800D01*
X102616095Y-91087800D02*
X102568476Y-91040180D01*
X103568476Y-90230657D02*
X103616095Y-90183038D01*
X103616095Y-90183038D02*
X103711333Y-90135419D01*
X103711333Y-90135419D02*
X103949428Y-90135419D01*
X103949428Y-90135419D02*
X104044666Y-90183038D01*
X104044666Y-90183038D02*
X104092285Y-90230657D01*
X104092285Y-90230657D02*
X104139904Y-90325895D01*
X104139904Y-90325895D02*
X104139904Y-90421133D01*
X104139904Y-90421133D02*
X104092285Y-90563990D01*
X104092285Y-90563990D02*
X103520857Y-91135419D01*
X103520857Y-91135419D02*
X104139904Y-91135419D01*
X52387523Y-91135419D02*
X51816095Y-91135419D01*
X52101809Y-91135419D02*
X52101809Y-90135419D01*
X52101809Y-90135419D02*
X52006571Y-90278276D01*
X52006571Y-90278276D02*
X51911333Y-90373514D01*
X51911333Y-90373514D02*
X51816095Y-90421133D01*
X52768476Y-90230657D02*
X52816095Y-90183038D01*
X52816095Y-90183038D02*
X52911333Y-90135419D01*
X52911333Y-90135419D02*
X53149428Y-90135419D01*
X53149428Y-90135419D02*
X53244666Y-90183038D01*
X53244666Y-90183038D02*
X53292285Y-90230657D01*
X53292285Y-90230657D02*
X53339904Y-90325895D01*
X53339904Y-90325895D02*
X53339904Y-90421133D01*
X53339904Y-90421133D02*
X53292285Y-90563990D01*
X53292285Y-90563990D02*
X52720857Y-91135419D01*
X52720857Y-91135419D02*
X53339904Y-91135419D01*
X77216095Y-90230657D02*
X77263714Y-90183038D01*
X77263714Y-90183038D02*
X77358952Y-90135419D01*
X77358952Y-90135419D02*
X77597047Y-90135419D01*
X77597047Y-90135419D02*
X77692285Y-90183038D01*
X77692285Y-90183038D02*
X77739904Y-90230657D01*
X77739904Y-90230657D02*
X77787523Y-90325895D01*
X77787523Y-90325895D02*
X77787523Y-90421133D01*
X77787523Y-90421133D02*
X77739904Y-90563990D01*
X77739904Y-90563990D02*
X77168476Y-91135419D01*
X77168476Y-91135419D02*
X77787523Y-91135419D01*
X78168476Y-90230657D02*
X78216095Y-90183038D01*
X78216095Y-90183038D02*
X78311333Y-90135419D01*
X78311333Y-90135419D02*
X78549428Y-90135419D01*
X78549428Y-90135419D02*
X78644666Y-90183038D01*
X78644666Y-90183038D02*
X78692285Y-90230657D01*
X78692285Y-90230657D02*
X78739904Y-90325895D01*
X78739904Y-90325895D02*
X78739904Y-90421133D01*
X78739904Y-90421133D02*
X78692285Y-90563990D01*
X78692285Y-90563990D02*
X78120857Y-91135419D01*
X78120857Y-91135419D02*
X78739904Y-91135419D01*
X107916115Y-70148752D02*
X107916115Y-70815419D01*
X107678020Y-69767800D02*
X107439925Y-70482085D01*
X107439925Y-70482085D02*
X108058972Y-70482085D01*
X108344687Y-69815419D02*
X108963734Y-69815419D01*
X108963734Y-69815419D02*
X108630401Y-70196371D01*
X108630401Y-70196371D02*
X108773258Y-70196371D01*
X108773258Y-70196371D02*
X108868496Y-70243990D01*
X108868496Y-70243990D02*
X108916115Y-70291609D01*
X108916115Y-70291609D02*
X108963734Y-70386847D01*
X108963734Y-70386847D02*
X108963734Y-70624942D01*
X108963734Y-70624942D02*
X108916115Y-70720180D01*
X108916115Y-70720180D02*
X108868496Y-70767800D01*
X108868496Y-70767800D02*
X108773258Y-70815419D01*
X108773258Y-70815419D02*
X108487544Y-70815419D01*
X108487544Y-70815419D02*
X108392306Y-70767800D01*
X108392306Y-70767800D02*
X108344687Y-70720180D01*
X110188476Y-90135419D02*
X110807523Y-90135419D01*
X110807523Y-90135419D02*
X110474190Y-90516371D01*
X110474190Y-90516371D02*
X110617047Y-90516371D01*
X110617047Y-90516371D02*
X110712285Y-90563990D01*
X110712285Y-90563990D02*
X110759904Y-90611609D01*
X110759904Y-90611609D02*
X110807523Y-90706847D01*
X110807523Y-90706847D02*
X110807523Y-90944942D01*
X110807523Y-90944942D02*
X110759904Y-91040180D01*
X110759904Y-91040180D02*
X110712285Y-91087800D01*
X110712285Y-91087800D02*
X110617047Y-91135419D01*
X110617047Y-91135419D02*
X110331333Y-91135419D01*
X110331333Y-91135419D02*
X110236095Y-91087800D01*
X110236095Y-91087800D02*
X110188476Y-91040180D01*
X111712285Y-90135419D02*
X111236095Y-90135419D01*
X111236095Y-90135419D02*
X111188476Y-90611609D01*
X111188476Y-90611609D02*
X111236095Y-90563990D01*
X111236095Y-90563990D02*
X111331333Y-90516371D01*
X111331333Y-90516371D02*
X111569428Y-90516371D01*
X111569428Y-90516371D02*
X111664666Y-90563990D01*
X111664666Y-90563990D02*
X111712285Y-90611609D01*
X111712285Y-90611609D02*
X111759904Y-90706847D01*
X111759904Y-90706847D02*
X111759904Y-90944942D01*
X111759904Y-90944942D02*
X111712285Y-91040180D01*
X111712285Y-91040180D02*
X111664666Y-91087800D01*
X111664666Y-91087800D02*
X111569428Y-91135419D01*
X111569428Y-91135419D02*
X111331333Y-91135419D01*
X111331333Y-91135419D02*
X111236095Y-91087800D01*
X111236095Y-91087800D02*
X111188476Y-91040180D01*
X107916115Y-62528752D02*
X107916115Y-63195419D01*
X107678020Y-62147800D02*
X107439925Y-62862085D01*
X107439925Y-62862085D02*
X108058972Y-62862085D01*
X108868496Y-62195419D02*
X108678020Y-62195419D01*
X108678020Y-62195419D02*
X108582782Y-62243038D01*
X108582782Y-62243038D02*
X108535163Y-62290657D01*
X108535163Y-62290657D02*
X108439925Y-62433514D01*
X108439925Y-62433514D02*
X108392306Y-62623990D01*
X108392306Y-62623990D02*
X108392306Y-63004942D01*
X108392306Y-63004942D02*
X108439925Y-63100180D01*
X108439925Y-63100180D02*
X108487544Y-63147800D01*
X108487544Y-63147800D02*
X108582782Y-63195419D01*
X108582782Y-63195419D02*
X108773258Y-63195419D01*
X108773258Y-63195419D02*
X108868496Y-63147800D01*
X108868496Y-63147800D02*
X108916115Y-63100180D01*
X108916115Y-63100180D02*
X108963734Y-63004942D01*
X108963734Y-63004942D02*
X108963734Y-62766847D01*
X108963734Y-62766847D02*
X108916115Y-62671609D01*
X108916115Y-62671609D02*
X108868496Y-62623990D01*
X108868496Y-62623990D02*
X108773258Y-62576371D01*
X108773258Y-62576371D02*
X108582782Y-62576371D01*
X108582782Y-62576371D02*
X108487544Y-62623990D01*
X108487544Y-62623990D02*
X108439925Y-62671609D01*
X108439925Y-62671609D02*
X108392306Y-62766847D01*
X107648476Y-90135419D02*
X108267523Y-90135419D01*
X108267523Y-90135419D02*
X107934190Y-90516371D01*
X107934190Y-90516371D02*
X108077047Y-90516371D01*
X108077047Y-90516371D02*
X108172285Y-90563990D01*
X108172285Y-90563990D02*
X108219904Y-90611609D01*
X108219904Y-90611609D02*
X108267523Y-90706847D01*
X108267523Y-90706847D02*
X108267523Y-90944942D01*
X108267523Y-90944942D02*
X108219904Y-91040180D01*
X108219904Y-91040180D02*
X108172285Y-91087800D01*
X108172285Y-91087800D02*
X108077047Y-91135419D01*
X108077047Y-91135419D02*
X107791333Y-91135419D01*
X107791333Y-91135419D02*
X107696095Y-91087800D01*
X107696095Y-91087800D02*
X107648476Y-91040180D01*
X109124666Y-90468752D02*
X109124666Y-91135419D01*
X108886571Y-90087800D02*
X108648476Y-90802085D01*
X108648476Y-90802085D02*
X109267523Y-90802085D01*
X55056741Y-80403990D02*
X54961503Y-80356371D01*
X54961503Y-80356371D02*
X54913884Y-80308752D01*
X54913884Y-80308752D02*
X54866265Y-80213514D01*
X54866265Y-80213514D02*
X54866265Y-80165895D01*
X54866265Y-80165895D02*
X54913884Y-80070657D01*
X54913884Y-80070657D02*
X54961503Y-80023038D01*
X54961503Y-80023038D02*
X55056741Y-79975419D01*
X55056741Y-79975419D02*
X55247217Y-79975419D01*
X55247217Y-79975419D02*
X55342455Y-80023038D01*
X55342455Y-80023038D02*
X55390074Y-80070657D01*
X55390074Y-80070657D02*
X55437693Y-80165895D01*
X55437693Y-80165895D02*
X55437693Y-80213514D01*
X55437693Y-80213514D02*
X55390074Y-80308752D01*
X55390074Y-80308752D02*
X55342455Y-80356371D01*
X55342455Y-80356371D02*
X55247217Y-80403990D01*
X55247217Y-80403990D02*
X55056741Y-80403990D01*
X55056741Y-80403990D02*
X54961503Y-80451609D01*
X54961503Y-80451609D02*
X54913884Y-80499228D01*
X54913884Y-80499228D02*
X54866265Y-80594466D01*
X54866265Y-80594466D02*
X54866265Y-80784942D01*
X54866265Y-80784942D02*
X54913884Y-80880180D01*
X54913884Y-80880180D02*
X54961503Y-80927800D01*
X54961503Y-80927800D02*
X55056741Y-80975419D01*
X55056741Y-80975419D02*
X55247217Y-80975419D01*
X55247217Y-80975419D02*
X55342455Y-80927800D01*
X55342455Y-80927800D02*
X55390074Y-80880180D01*
X55390074Y-80880180D02*
X55437693Y-80784942D01*
X55437693Y-80784942D02*
X55437693Y-80594466D01*
X55437693Y-80594466D02*
X55390074Y-80499228D01*
X55390074Y-80499228D02*
X55342455Y-80451609D01*
X55342455Y-80451609D02*
X55247217Y-80403990D01*
X54818646Y-67275419D02*
X55437693Y-67275419D01*
X55437693Y-67275419D02*
X55104360Y-67656371D01*
X55104360Y-67656371D02*
X55247217Y-67656371D01*
X55247217Y-67656371D02*
X55342455Y-67703990D01*
X55342455Y-67703990D02*
X55390074Y-67751609D01*
X55390074Y-67751609D02*
X55437693Y-67846847D01*
X55437693Y-67846847D02*
X55437693Y-68084942D01*
X55437693Y-68084942D02*
X55390074Y-68180180D01*
X55390074Y-68180180D02*
X55342455Y-68227800D01*
X55342455Y-68227800D02*
X55247217Y-68275419D01*
X55247217Y-68275419D02*
X54961503Y-68275419D01*
X54961503Y-68275419D02*
X54866265Y-68227800D01*
X54866265Y-68227800D02*
X54818646Y-68180180D01*
X89916095Y-90230657D02*
X89963714Y-90183038D01*
X89963714Y-90183038D02*
X90058952Y-90135419D01*
X90058952Y-90135419D02*
X90297047Y-90135419D01*
X90297047Y-90135419D02*
X90392285Y-90183038D01*
X90392285Y-90183038D02*
X90439904Y-90230657D01*
X90439904Y-90230657D02*
X90487523Y-90325895D01*
X90487523Y-90325895D02*
X90487523Y-90421133D01*
X90487523Y-90421133D02*
X90439904Y-90563990D01*
X90439904Y-90563990D02*
X89868476Y-91135419D01*
X89868476Y-91135419D02*
X90487523Y-91135419D01*
X90820857Y-90135419D02*
X91487523Y-90135419D01*
X91487523Y-90135419D02*
X91058952Y-91135419D01*
X55390074Y-72355419D02*
X54913884Y-72355419D01*
X54913884Y-72355419D02*
X54866265Y-72831609D01*
X54866265Y-72831609D02*
X54913884Y-72783990D01*
X54913884Y-72783990D02*
X55009122Y-72736371D01*
X55009122Y-72736371D02*
X55247217Y-72736371D01*
X55247217Y-72736371D02*
X55342455Y-72783990D01*
X55342455Y-72783990D02*
X55390074Y-72831609D01*
X55390074Y-72831609D02*
X55437693Y-72926847D01*
X55437693Y-72926847D02*
X55437693Y-73164942D01*
X55437693Y-73164942D02*
X55390074Y-73260180D01*
X55390074Y-73260180D02*
X55342455Y-73307800D01*
X55342455Y-73307800D02*
X55247217Y-73355419D01*
X55247217Y-73355419D02*
X55009122Y-73355419D01*
X55009122Y-73355419D02*
X54913884Y-73307800D01*
X54913884Y-73307800D02*
X54866265Y-73260180D01*
X107916115Y-77768752D02*
X107916115Y-78435419D01*
X107678020Y-77387800D02*
X107439925Y-78102085D01*
X107439925Y-78102085D02*
X108058972Y-78102085D01*
X108630401Y-77435419D02*
X108725639Y-77435419D01*
X108725639Y-77435419D02*
X108820877Y-77483038D01*
X108820877Y-77483038D02*
X108868496Y-77530657D01*
X108868496Y-77530657D02*
X108916115Y-77625895D01*
X108916115Y-77625895D02*
X108963734Y-77816371D01*
X108963734Y-77816371D02*
X108963734Y-78054466D01*
X108963734Y-78054466D02*
X108916115Y-78244942D01*
X108916115Y-78244942D02*
X108868496Y-78340180D01*
X108868496Y-78340180D02*
X108820877Y-78387800D01*
X108820877Y-78387800D02*
X108725639Y-78435419D01*
X108725639Y-78435419D02*
X108630401Y-78435419D01*
X108630401Y-78435419D02*
X108535163Y-78387800D01*
X108535163Y-78387800D02*
X108487544Y-78340180D01*
X108487544Y-78340180D02*
X108439925Y-78244942D01*
X108439925Y-78244942D02*
X108392306Y-78054466D01*
X108392306Y-78054466D02*
X108392306Y-77816371D01*
X108392306Y-77816371D02*
X108439925Y-77625895D01*
X108439925Y-77625895D02*
X108487544Y-77530657D01*
X108487544Y-77530657D02*
X108535163Y-77483038D01*
X108535163Y-77483038D02*
X108630401Y-77435419D01*
X107916115Y-72688752D02*
X107916115Y-73355419D01*
X107678020Y-72307800D02*
X107439925Y-73022085D01*
X107439925Y-73022085D02*
X108058972Y-73022085D01*
X108392306Y-72450657D02*
X108439925Y-72403038D01*
X108439925Y-72403038D02*
X108535163Y-72355419D01*
X108535163Y-72355419D02*
X108773258Y-72355419D01*
X108773258Y-72355419D02*
X108868496Y-72403038D01*
X108868496Y-72403038D02*
X108916115Y-72450657D01*
X108916115Y-72450657D02*
X108963734Y-72545895D01*
X108963734Y-72545895D02*
X108963734Y-72641133D01*
X108963734Y-72641133D02*
X108916115Y-72783990D01*
X108916115Y-72783990D02*
X108344687Y-73355419D01*
X108344687Y-73355419D02*
X108963734Y-73355419D01*
X107392306Y-79975419D02*
X108011353Y-79975419D01*
X108011353Y-79975419D02*
X107678020Y-80356371D01*
X107678020Y-80356371D02*
X107820877Y-80356371D01*
X107820877Y-80356371D02*
X107916115Y-80403990D01*
X107916115Y-80403990D02*
X107963734Y-80451609D01*
X107963734Y-80451609D02*
X108011353Y-80546847D01*
X108011353Y-80546847D02*
X108011353Y-80784942D01*
X108011353Y-80784942D02*
X107963734Y-80880180D01*
X107963734Y-80880180D02*
X107916115Y-80927800D01*
X107916115Y-80927800D02*
X107820877Y-80975419D01*
X107820877Y-80975419D02*
X107535163Y-80975419D01*
X107535163Y-80975419D02*
X107439925Y-80927800D01*
X107439925Y-80927800D02*
X107392306Y-80880180D01*
X108487544Y-80975419D02*
X108678020Y-80975419D01*
X108678020Y-80975419D02*
X108773258Y-80927800D01*
X108773258Y-80927800D02*
X108820877Y-80880180D01*
X108820877Y-80880180D02*
X108916115Y-80737323D01*
X108916115Y-80737323D02*
X108963734Y-80546847D01*
X108963734Y-80546847D02*
X108963734Y-80165895D01*
X108963734Y-80165895D02*
X108916115Y-80070657D01*
X108916115Y-80070657D02*
X108868496Y-80023038D01*
X108868496Y-80023038D02*
X108773258Y-79975419D01*
X108773258Y-79975419D02*
X108582782Y-79975419D01*
X108582782Y-79975419D02*
X108487544Y-80023038D01*
X108487544Y-80023038D02*
X108439925Y-80070657D01*
X108439925Y-80070657D02*
X108392306Y-80165895D01*
X108392306Y-80165895D02*
X108392306Y-80403990D01*
X108392306Y-80403990D02*
X108439925Y-80499228D01*
X108439925Y-80499228D02*
X108487544Y-80546847D01*
X108487544Y-80546847D02*
X108582782Y-80594466D01*
X108582782Y-80594466D02*
X108773258Y-80594466D01*
X108773258Y-80594466D02*
X108868496Y-80546847D01*
X108868496Y-80546847D02*
X108916115Y-80499228D01*
X108916115Y-80499228D02*
X108963734Y-80403990D01*
X62547523Y-91135419D02*
X61976095Y-91135419D01*
X62261809Y-91135419D02*
X62261809Y-90135419D01*
X62261809Y-90135419D02*
X62166571Y-90278276D01*
X62166571Y-90278276D02*
X62071333Y-90373514D01*
X62071333Y-90373514D02*
X61976095Y-90421133D01*
X63404666Y-90135419D02*
X63214190Y-90135419D01*
X63214190Y-90135419D02*
X63118952Y-90183038D01*
X63118952Y-90183038D02*
X63071333Y-90230657D01*
X63071333Y-90230657D02*
X62976095Y-90373514D01*
X62976095Y-90373514D02*
X62928476Y-90563990D01*
X62928476Y-90563990D02*
X62928476Y-90944942D01*
X62928476Y-90944942D02*
X62976095Y-91040180D01*
X62976095Y-91040180D02*
X63023714Y-91087800D01*
X63023714Y-91087800D02*
X63118952Y-91135419D01*
X63118952Y-91135419D02*
X63309428Y-91135419D01*
X63309428Y-91135419D02*
X63404666Y-91087800D01*
X63404666Y-91087800D02*
X63452285Y-91040180D01*
X63452285Y-91040180D02*
X63499904Y-90944942D01*
X63499904Y-90944942D02*
X63499904Y-90706847D01*
X63499904Y-90706847D02*
X63452285Y-90611609D01*
X63452285Y-90611609D02*
X63404666Y-90563990D01*
X63404666Y-90563990D02*
X63309428Y-90516371D01*
X63309428Y-90516371D02*
X63118952Y-90516371D01*
X63118952Y-90516371D02*
X63023714Y-90563990D01*
X63023714Y-90563990D02*
X62976095Y-90611609D01*
X62976095Y-90611609D02*
X62928476Y-90706847D01*
X107392306Y-82515419D02*
X108011353Y-82515419D01*
X108011353Y-82515419D02*
X107678020Y-82896371D01*
X107678020Y-82896371D02*
X107820877Y-82896371D01*
X107820877Y-82896371D02*
X107916115Y-82943990D01*
X107916115Y-82943990D02*
X107963734Y-82991609D01*
X107963734Y-82991609D02*
X108011353Y-83086847D01*
X108011353Y-83086847D02*
X108011353Y-83324942D01*
X108011353Y-83324942D02*
X107963734Y-83420180D01*
X107963734Y-83420180D02*
X107916115Y-83467800D01*
X107916115Y-83467800D02*
X107820877Y-83515419D01*
X107820877Y-83515419D02*
X107535163Y-83515419D01*
X107535163Y-83515419D02*
X107439925Y-83467800D01*
X107439925Y-83467800D02*
X107392306Y-83420180D01*
X108582782Y-82943990D02*
X108487544Y-82896371D01*
X108487544Y-82896371D02*
X108439925Y-82848752D01*
X108439925Y-82848752D02*
X108392306Y-82753514D01*
X108392306Y-82753514D02*
X108392306Y-82705895D01*
X108392306Y-82705895D02*
X108439925Y-82610657D01*
X108439925Y-82610657D02*
X108487544Y-82563038D01*
X108487544Y-82563038D02*
X108582782Y-82515419D01*
X108582782Y-82515419D02*
X108773258Y-82515419D01*
X108773258Y-82515419D02*
X108868496Y-82563038D01*
X108868496Y-82563038D02*
X108916115Y-82610657D01*
X108916115Y-82610657D02*
X108963734Y-82705895D01*
X108963734Y-82705895D02*
X108963734Y-82753514D01*
X108963734Y-82753514D02*
X108916115Y-82848752D01*
X108916115Y-82848752D02*
X108868496Y-82896371D01*
X108868496Y-82896371D02*
X108773258Y-82943990D01*
X108773258Y-82943990D02*
X108582782Y-82943990D01*
X108582782Y-82943990D02*
X108487544Y-82991609D01*
X108487544Y-82991609D02*
X108439925Y-83039228D01*
X108439925Y-83039228D02*
X108392306Y-83134466D01*
X108392306Y-83134466D02*
X108392306Y-83324942D01*
X108392306Y-83324942D02*
X108439925Y-83420180D01*
X108439925Y-83420180D02*
X108487544Y-83467800D01*
X108487544Y-83467800D02*
X108582782Y-83515419D01*
X108582782Y-83515419D02*
X108773258Y-83515419D01*
X108773258Y-83515419D02*
X108868496Y-83467800D01*
X108868496Y-83467800D02*
X108916115Y-83420180D01*
X108916115Y-83420180D02*
X108963734Y-83324942D01*
X108963734Y-83324942D02*
X108963734Y-83134466D01*
X108963734Y-83134466D02*
X108916115Y-83039228D01*
X108916115Y-83039228D02*
X108868496Y-82991609D01*
X108868496Y-82991609D02*
X108773258Y-82943990D01*
X54927523Y-91135419D02*
X54356095Y-91135419D01*
X54641809Y-91135419D02*
X54641809Y-90135419D01*
X54641809Y-90135419D02*
X54546571Y-90278276D01*
X54546571Y-90278276D02*
X54451333Y-90373514D01*
X54451333Y-90373514D02*
X54356095Y-90421133D01*
X55260857Y-90135419D02*
X55879904Y-90135419D01*
X55879904Y-90135419D02*
X55546571Y-90516371D01*
X55546571Y-90516371D02*
X55689428Y-90516371D01*
X55689428Y-90516371D02*
X55784666Y-90563990D01*
X55784666Y-90563990D02*
X55832285Y-90611609D01*
X55832285Y-90611609D02*
X55879904Y-90706847D01*
X55879904Y-90706847D02*
X55879904Y-90944942D01*
X55879904Y-90944942D02*
X55832285Y-91040180D01*
X55832285Y-91040180D02*
X55784666Y-91087800D01*
X55784666Y-91087800D02*
X55689428Y-91135419D01*
X55689428Y-91135419D02*
X55403714Y-91135419D01*
X55403714Y-91135419D02*
X55308476Y-91087800D01*
X55308476Y-91087800D02*
X55260857Y-91040180D01*
X57467523Y-91135419D02*
X56896095Y-91135419D01*
X57181809Y-91135419D02*
X57181809Y-90135419D01*
X57181809Y-90135419D02*
X57086571Y-90278276D01*
X57086571Y-90278276D02*
X56991333Y-90373514D01*
X56991333Y-90373514D02*
X56896095Y-90421133D01*
X58324666Y-90468752D02*
X58324666Y-91135419D01*
X58086571Y-90087800D02*
X57848476Y-90802085D01*
X57848476Y-90802085D02*
X58467523Y-90802085D01*
X107916115Y-67608752D02*
X107916115Y-68275419D01*
X107678020Y-67227800D02*
X107439925Y-67942085D01*
X107439925Y-67942085D02*
X108058972Y-67942085D01*
X108868496Y-67608752D02*
X108868496Y-68275419D01*
X108630401Y-67227800D02*
X108392306Y-67942085D01*
X108392306Y-67942085D02*
X109011353Y-67942085D01*
X107392306Y-87595419D02*
X108011353Y-87595419D01*
X108011353Y-87595419D02*
X107678020Y-87976371D01*
X107678020Y-87976371D02*
X107820877Y-87976371D01*
X107820877Y-87976371D02*
X107916115Y-88023990D01*
X107916115Y-88023990D02*
X107963734Y-88071609D01*
X107963734Y-88071609D02*
X108011353Y-88166847D01*
X108011353Y-88166847D02*
X108011353Y-88404942D01*
X108011353Y-88404942D02*
X107963734Y-88500180D01*
X107963734Y-88500180D02*
X107916115Y-88547800D01*
X107916115Y-88547800D02*
X107820877Y-88595419D01*
X107820877Y-88595419D02*
X107535163Y-88595419D01*
X107535163Y-88595419D02*
X107439925Y-88547800D01*
X107439925Y-88547800D02*
X107392306Y-88500180D01*
X108868496Y-87595419D02*
X108678020Y-87595419D01*
X108678020Y-87595419D02*
X108582782Y-87643038D01*
X108582782Y-87643038D02*
X108535163Y-87690657D01*
X108535163Y-87690657D02*
X108439925Y-87833514D01*
X108439925Y-87833514D02*
X108392306Y-88023990D01*
X108392306Y-88023990D02*
X108392306Y-88404942D01*
X108392306Y-88404942D02*
X108439925Y-88500180D01*
X108439925Y-88500180D02*
X108487544Y-88547800D01*
X108487544Y-88547800D02*
X108582782Y-88595419D01*
X108582782Y-88595419D02*
X108773258Y-88595419D01*
X108773258Y-88595419D02*
X108868496Y-88547800D01*
X108868496Y-88547800D02*
X108916115Y-88500180D01*
X108916115Y-88500180D02*
X108963734Y-88404942D01*
X108963734Y-88404942D02*
X108963734Y-88166847D01*
X108963734Y-88166847D02*
X108916115Y-88071609D01*
X108916115Y-88071609D02*
X108868496Y-88023990D01*
X108868496Y-88023990D02*
X108773258Y-87976371D01*
X108773258Y-87976371D02*
X108582782Y-87976371D01*
X108582782Y-87976371D02*
X108487544Y-88023990D01*
X108487544Y-88023990D02*
X108439925Y-88071609D01*
X108439925Y-88071609D02*
X108392306Y-88166847D01*
X107916115Y-65068752D02*
X107916115Y-65735419D01*
X107678020Y-64687800D02*
X107439925Y-65402085D01*
X107439925Y-65402085D02*
X108058972Y-65402085D01*
X108916115Y-64735419D02*
X108439925Y-64735419D01*
X108439925Y-64735419D02*
X108392306Y-65211609D01*
X108392306Y-65211609D02*
X108439925Y-65163990D01*
X108439925Y-65163990D02*
X108535163Y-65116371D01*
X108535163Y-65116371D02*
X108773258Y-65116371D01*
X108773258Y-65116371D02*
X108868496Y-65163990D01*
X108868496Y-65163990D02*
X108916115Y-65211609D01*
X108916115Y-65211609D02*
X108963734Y-65306847D01*
X108963734Y-65306847D02*
X108963734Y-65544942D01*
X108963734Y-65544942D02*
X108916115Y-65640180D01*
X108916115Y-65640180D02*
X108868496Y-65687800D01*
X108868496Y-65687800D02*
X108773258Y-65735419D01*
X108773258Y-65735419D02*
X108535163Y-65735419D01*
X108535163Y-65735419D02*
X108439925Y-65687800D01*
X108439925Y-65687800D02*
X108392306Y-65640180D01*
X65087523Y-91135419D02*
X64516095Y-91135419D01*
X64801809Y-91135419D02*
X64801809Y-90135419D01*
X64801809Y-90135419D02*
X64706571Y-90278276D01*
X64706571Y-90278276D02*
X64611333Y-90373514D01*
X64611333Y-90373514D02*
X64516095Y-90421133D01*
X65420857Y-90135419D02*
X66087523Y-90135419D01*
X66087523Y-90135419D02*
X65658952Y-91135419D01*
X70167523Y-91135419D02*
X69596095Y-91135419D01*
X69881809Y-91135419D02*
X69881809Y-90135419D01*
X69881809Y-90135419D02*
X69786571Y-90278276D01*
X69786571Y-90278276D02*
X69691333Y-90373514D01*
X69691333Y-90373514D02*
X69596095Y-90421133D01*
X70643714Y-91135419D02*
X70834190Y-91135419D01*
X70834190Y-91135419D02*
X70929428Y-91087800D01*
X70929428Y-91087800D02*
X70977047Y-91040180D01*
X70977047Y-91040180D02*
X71072285Y-90897323D01*
X71072285Y-90897323D02*
X71119904Y-90706847D01*
X71119904Y-90706847D02*
X71119904Y-90325895D01*
X71119904Y-90325895D02*
X71072285Y-90230657D01*
X71072285Y-90230657D02*
X71024666Y-90183038D01*
X71024666Y-90183038D02*
X70929428Y-90135419D01*
X70929428Y-90135419D02*
X70738952Y-90135419D01*
X70738952Y-90135419D02*
X70643714Y-90183038D01*
X70643714Y-90183038D02*
X70596095Y-90230657D01*
X70596095Y-90230657D02*
X70548476Y-90325895D01*
X70548476Y-90325895D02*
X70548476Y-90563990D01*
X70548476Y-90563990D02*
X70596095Y-90659228D01*
X70596095Y-90659228D02*
X70643714Y-90706847D01*
X70643714Y-90706847D02*
X70738952Y-90754466D01*
X70738952Y-90754466D02*
X70929428Y-90754466D01*
X70929428Y-90754466D02*
X71024666Y-90706847D01*
X71024666Y-90706847D02*
X71072285Y-90659228D01*
X71072285Y-90659228D02*
X71119904Y-90563990D01*
X105108476Y-90135419D02*
X105727523Y-90135419D01*
X105727523Y-90135419D02*
X105394190Y-90516371D01*
X105394190Y-90516371D02*
X105537047Y-90516371D01*
X105537047Y-90516371D02*
X105632285Y-90563990D01*
X105632285Y-90563990D02*
X105679904Y-90611609D01*
X105679904Y-90611609D02*
X105727523Y-90706847D01*
X105727523Y-90706847D02*
X105727523Y-90944942D01*
X105727523Y-90944942D02*
X105679904Y-91040180D01*
X105679904Y-91040180D02*
X105632285Y-91087800D01*
X105632285Y-91087800D02*
X105537047Y-91135419D01*
X105537047Y-91135419D02*
X105251333Y-91135419D01*
X105251333Y-91135419D02*
X105156095Y-91087800D01*
X105156095Y-91087800D02*
X105108476Y-91040180D01*
X106060857Y-90135419D02*
X106679904Y-90135419D01*
X106679904Y-90135419D02*
X106346571Y-90516371D01*
X106346571Y-90516371D02*
X106489428Y-90516371D01*
X106489428Y-90516371D02*
X106584666Y-90563990D01*
X106584666Y-90563990D02*
X106632285Y-90611609D01*
X106632285Y-90611609D02*
X106679904Y-90706847D01*
X106679904Y-90706847D02*
X106679904Y-90944942D01*
X106679904Y-90944942D02*
X106632285Y-91040180D01*
X106632285Y-91040180D02*
X106584666Y-91087800D01*
X106584666Y-91087800D02*
X106489428Y-91135419D01*
X106489428Y-91135419D02*
X106203714Y-91135419D01*
X106203714Y-91135419D02*
X106108476Y-91087800D01*
X106108476Y-91087800D02*
X106060857Y-91040180D01*
X107916115Y-75228752D02*
X107916115Y-75895419D01*
X107678020Y-74847800D02*
X107439925Y-75562085D01*
X107439925Y-75562085D02*
X108058972Y-75562085D01*
X108963734Y-75895419D02*
X108392306Y-75895419D01*
X108678020Y-75895419D02*
X108678020Y-74895419D01*
X108678020Y-74895419D02*
X108582782Y-75038276D01*
X108582782Y-75038276D02*
X108487544Y-75133514D01*
X108487544Y-75133514D02*
X108392306Y-75181133D01*
X54818646Y-77435419D02*
X55485312Y-77435419D01*
X55485312Y-77435419D02*
X55056741Y-78435419D01*
X72136095Y-90230657D02*
X72183714Y-90183038D01*
X72183714Y-90183038D02*
X72278952Y-90135419D01*
X72278952Y-90135419D02*
X72517047Y-90135419D01*
X72517047Y-90135419D02*
X72612285Y-90183038D01*
X72612285Y-90183038D02*
X72659904Y-90230657D01*
X72659904Y-90230657D02*
X72707523Y-90325895D01*
X72707523Y-90325895D02*
X72707523Y-90421133D01*
X72707523Y-90421133D02*
X72659904Y-90563990D01*
X72659904Y-90563990D02*
X72088476Y-91135419D01*
X72088476Y-91135419D02*
X72707523Y-91135419D01*
X73326571Y-90135419D02*
X73421809Y-90135419D01*
X73421809Y-90135419D02*
X73517047Y-90183038D01*
X73517047Y-90183038D02*
X73564666Y-90230657D01*
X73564666Y-90230657D02*
X73612285Y-90325895D01*
X73612285Y-90325895D02*
X73659904Y-90516371D01*
X73659904Y-90516371D02*
X73659904Y-90754466D01*
X73659904Y-90754466D02*
X73612285Y-90944942D01*
X73612285Y-90944942D02*
X73564666Y-91040180D01*
X73564666Y-91040180D02*
X73517047Y-91087800D01*
X73517047Y-91087800D02*
X73421809Y-91135419D01*
X73421809Y-91135419D02*
X73326571Y-91135419D01*
X73326571Y-91135419D02*
X73231333Y-91087800D01*
X73231333Y-91087800D02*
X73183714Y-91040180D01*
X73183714Y-91040180D02*
X73136095Y-90944942D01*
X73136095Y-90944942D02*
X73088476Y-90754466D01*
X73088476Y-90754466D02*
X73088476Y-90516371D01*
X73088476Y-90516371D02*
X73136095Y-90325895D01*
X73136095Y-90325895D02*
X73183714Y-90230657D01*
X73183714Y-90230657D02*
X73231333Y-90183038D01*
X73231333Y-90183038D02*
X73326571Y-90135419D01*
D11*
X100342438Y-56341904D02*
X100294819Y-56437142D01*
X100294819Y-56437142D02*
X100294819Y-56579999D01*
X100294819Y-56579999D02*
X100342438Y-56722856D01*
X100342438Y-56722856D02*
X100437676Y-56818094D01*
X100437676Y-56818094D02*
X100532914Y-56865713D01*
X100532914Y-56865713D02*
X100723390Y-56913332D01*
X100723390Y-56913332D02*
X100866247Y-56913332D01*
X100866247Y-56913332D02*
X101056723Y-56865713D01*
X101056723Y-56865713D02*
X101151961Y-56818094D01*
X101151961Y-56818094D02*
X101247200Y-56722856D01*
X101247200Y-56722856D02*
X101294819Y-56579999D01*
X101294819Y-56579999D02*
X101294819Y-56484761D01*
X101294819Y-56484761D02*
X101247200Y-56341904D01*
X101247200Y-56341904D02*
X101199580Y-56294285D01*
X101199580Y-56294285D02*
X100866247Y-56294285D01*
X100866247Y-56294285D02*
X100866247Y-56484761D01*
X101294819Y-55865713D02*
X100294819Y-55865713D01*
X100294819Y-55865713D02*
X101294819Y-55294285D01*
X101294819Y-55294285D02*
X100294819Y-55294285D01*
X101294819Y-54818094D02*
X100294819Y-54818094D01*
X100294819Y-54818094D02*
X100294819Y-54579999D01*
X100294819Y-54579999D02*
X100342438Y-54437142D01*
X100342438Y-54437142D02*
X100437676Y-54341904D01*
X100437676Y-54341904D02*
X100532914Y-54294285D01*
X100532914Y-54294285D02*
X100723390Y-54246666D01*
X100723390Y-54246666D02*
X100866247Y-54246666D01*
X100866247Y-54246666D02*
X101056723Y-54294285D01*
X101056723Y-54294285D02*
X101151961Y-54341904D01*
X101151961Y-54341904D02*
X101247200Y-54437142D01*
X101247200Y-54437142D02*
X101294819Y-54579999D01*
X101294819Y-54579999D02*
X101294819Y-54818094D01*
X62442438Y-56341904D02*
X62394819Y-56437142D01*
X62394819Y-56437142D02*
X62394819Y-56579999D01*
X62394819Y-56579999D02*
X62442438Y-56722856D01*
X62442438Y-56722856D02*
X62537676Y-56818094D01*
X62537676Y-56818094D02*
X62632914Y-56865713D01*
X62632914Y-56865713D02*
X62823390Y-56913332D01*
X62823390Y-56913332D02*
X62966247Y-56913332D01*
X62966247Y-56913332D02*
X63156723Y-56865713D01*
X63156723Y-56865713D02*
X63251961Y-56818094D01*
X63251961Y-56818094D02*
X63347200Y-56722856D01*
X63347200Y-56722856D02*
X63394819Y-56579999D01*
X63394819Y-56579999D02*
X63394819Y-56484761D01*
X63394819Y-56484761D02*
X63347200Y-56341904D01*
X63347200Y-56341904D02*
X63299580Y-56294285D01*
X63299580Y-56294285D02*
X62966247Y-56294285D01*
X62966247Y-56294285D02*
X62966247Y-56484761D01*
X63394819Y-55865713D02*
X62394819Y-55865713D01*
X62394819Y-55865713D02*
X63394819Y-55294285D01*
X63394819Y-55294285D02*
X62394819Y-55294285D01*
X63394819Y-54818094D02*
X62394819Y-54818094D01*
X62394819Y-54818094D02*
X62394819Y-54579999D01*
X62394819Y-54579999D02*
X62442438Y-54437142D01*
X62442438Y-54437142D02*
X62537676Y-54341904D01*
X62537676Y-54341904D02*
X62632914Y-54294285D01*
X62632914Y-54294285D02*
X62823390Y-54246666D01*
X62823390Y-54246666D02*
X62966247Y-54246666D01*
X62966247Y-54246666D02*
X63156723Y-54294285D01*
X63156723Y-54294285D02*
X63251961Y-54341904D01*
X63251961Y-54341904D02*
X63347200Y-54437142D01*
X63347200Y-54437142D02*
X63394819Y-54579999D01*
X63394819Y-54579999D02*
X63394819Y-54818094D01*
X77384762Y-74354819D02*
X77384762Y-73354819D01*
X77384762Y-73354819D02*
X77765714Y-73354819D01*
X77765714Y-73354819D02*
X77860952Y-73402438D01*
X77860952Y-73402438D02*
X77908571Y-73450057D01*
X77908571Y-73450057D02*
X77956190Y-73545295D01*
X77956190Y-73545295D02*
X77956190Y-73688152D01*
X77956190Y-73688152D02*
X77908571Y-73783390D01*
X77908571Y-73783390D02*
X77860952Y-73831009D01*
X77860952Y-73831009D02*
X77765714Y-73878628D01*
X77765714Y-73878628D02*
X77384762Y-73878628D01*
X78908571Y-73402438D02*
X78813333Y-73354819D01*
X78813333Y-73354819D02*
X78670476Y-73354819D01*
X78670476Y-73354819D02*
X78527619Y-73402438D01*
X78527619Y-73402438D02*
X78432381Y-73497676D01*
X78432381Y-73497676D02*
X78384762Y-73592914D01*
X78384762Y-73592914D02*
X78337143Y-73783390D01*
X78337143Y-73783390D02*
X78337143Y-73926247D01*
X78337143Y-73926247D02*
X78384762Y-74116723D01*
X78384762Y-74116723D02*
X78432381Y-74211961D01*
X78432381Y-74211961D02*
X78527619Y-74307200D01*
X78527619Y-74307200D02*
X78670476Y-74354819D01*
X78670476Y-74354819D02*
X78765714Y-74354819D01*
X78765714Y-74354819D02*
X78908571Y-74307200D01*
X78908571Y-74307200D02*
X78956190Y-74259580D01*
X78956190Y-74259580D02*
X78956190Y-73926247D01*
X78956190Y-73926247D02*
X78765714Y-73926247D01*
X79337143Y-74069104D02*
X79813333Y-74069104D01*
X79241905Y-74354819D02*
X79575238Y-73354819D01*
X79575238Y-73354819D02*
X79908571Y-74354819D01*
X80194286Y-73450057D02*
X80241905Y-73402438D01*
X80241905Y-73402438D02*
X80337143Y-73354819D01*
X80337143Y-73354819D02*
X80575238Y-73354819D01*
X80575238Y-73354819D02*
X80670476Y-73402438D01*
X80670476Y-73402438D02*
X80718095Y-73450057D01*
X80718095Y-73450057D02*
X80765714Y-73545295D01*
X80765714Y-73545295D02*
X80765714Y-73640533D01*
X80765714Y-73640533D02*
X80718095Y-73783390D01*
X80718095Y-73783390D02*
X80146667Y-74354819D01*
X80146667Y-74354819D02*
X80765714Y-74354819D01*
X81099048Y-73354819D02*
X81718095Y-73354819D01*
X81718095Y-73354819D02*
X81384762Y-73735771D01*
X81384762Y-73735771D02*
X81527619Y-73735771D01*
X81527619Y-73735771D02*
X81622857Y-73783390D01*
X81622857Y-73783390D02*
X81670476Y-73831009D01*
X81670476Y-73831009D02*
X81718095Y-73926247D01*
X81718095Y-73926247D02*
X81718095Y-74164342D01*
X81718095Y-74164342D02*
X81670476Y-74259580D01*
X81670476Y-74259580D02*
X81622857Y-74307200D01*
X81622857Y-74307200D02*
X81527619Y-74354819D01*
X81527619Y-74354819D02*
X81241905Y-74354819D01*
X81241905Y-74354819D02*
X81146667Y-74307200D01*
X81146667Y-74307200D02*
X81099048Y-74259580D01*
X82622857Y-73354819D02*
X82146667Y-73354819D01*
X82146667Y-73354819D02*
X82099048Y-73831009D01*
X82099048Y-73831009D02*
X82146667Y-73783390D01*
X82146667Y-73783390D02*
X82241905Y-73735771D01*
X82241905Y-73735771D02*
X82480000Y-73735771D01*
X82480000Y-73735771D02*
X82575238Y-73783390D01*
X82575238Y-73783390D02*
X82622857Y-73831009D01*
X82622857Y-73831009D02*
X82670476Y-73926247D01*
X82670476Y-73926247D02*
X82670476Y-74164342D01*
X82670476Y-74164342D02*
X82622857Y-74259580D01*
X82622857Y-74259580D02*
X82575238Y-74307200D01*
X82575238Y-74307200D02*
X82480000Y-74354819D01*
X82480000Y-74354819D02*
X82241905Y-74354819D01*
X82241905Y-74354819D02*
X82146667Y-74307200D01*
X82146667Y-74307200D02*
X82099048Y-74259580D01*
X83289524Y-73354819D02*
X83384762Y-73354819D01*
X83384762Y-73354819D02*
X83480000Y-73402438D01*
X83480000Y-73402438D02*
X83527619Y-73450057D01*
X83527619Y-73450057D02*
X83575238Y-73545295D01*
X83575238Y-73545295D02*
X83622857Y-73735771D01*
X83622857Y-73735771D02*
X83622857Y-73973866D01*
X83622857Y-73973866D02*
X83575238Y-74164342D01*
X83575238Y-74164342D02*
X83527619Y-74259580D01*
X83527619Y-74259580D02*
X83480000Y-74307200D01*
X83480000Y-74307200D02*
X83384762Y-74354819D01*
X83384762Y-74354819D02*
X83289524Y-74354819D01*
X83289524Y-74354819D02*
X83194286Y-74307200D01*
X83194286Y-74307200D02*
X83146667Y-74259580D01*
X83146667Y-74259580D02*
X83099048Y-74164342D01*
X83099048Y-74164342D02*
X83051429Y-73973866D01*
X83051429Y-73973866D02*
X83051429Y-73735771D01*
X83051429Y-73735771D02*
X83099048Y-73545295D01*
X83099048Y-73545295D02*
X83146667Y-73450057D01*
X83146667Y-73450057D02*
X83194286Y-73402438D01*
X83194286Y-73402438D02*
X83289524Y-73354819D01*
X100294819Y-52230476D02*
X100294819Y-52706666D01*
X100294819Y-52706666D02*
X100771009Y-52754285D01*
X100771009Y-52754285D02*
X100723390Y-52706666D01*
X100723390Y-52706666D02*
X100675771Y-52611428D01*
X100675771Y-52611428D02*
X100675771Y-52373333D01*
X100675771Y-52373333D02*
X100723390Y-52278095D01*
X100723390Y-52278095D02*
X100771009Y-52230476D01*
X100771009Y-52230476D02*
X100866247Y-52182857D01*
X100866247Y-52182857D02*
X101104342Y-52182857D01*
X101104342Y-52182857D02*
X101199580Y-52230476D01*
X101199580Y-52230476D02*
X101247200Y-52278095D01*
X101247200Y-52278095D02*
X101294819Y-52373333D01*
X101294819Y-52373333D02*
X101294819Y-52611428D01*
X101294819Y-52611428D02*
X101247200Y-52706666D01*
X101247200Y-52706666D02*
X101199580Y-52754285D01*
X100294819Y-51897142D02*
X101294819Y-51563809D01*
X101294819Y-51563809D02*
X100294819Y-51230476D01*
X93077857Y-51511009D02*
X93220714Y-51558628D01*
X93220714Y-51558628D02*
X93268333Y-51606247D01*
X93268333Y-51606247D02*
X93315952Y-51701485D01*
X93315952Y-51701485D02*
X93315952Y-51844342D01*
X93315952Y-51844342D02*
X93268333Y-51939580D01*
X93268333Y-51939580D02*
X93220714Y-51987200D01*
X93220714Y-51987200D02*
X93125476Y-52034819D01*
X93125476Y-52034819D02*
X92744524Y-52034819D01*
X92744524Y-52034819D02*
X92744524Y-51034819D01*
X92744524Y-51034819D02*
X93077857Y-51034819D01*
X93077857Y-51034819D02*
X93173095Y-51082438D01*
X93173095Y-51082438D02*
X93220714Y-51130057D01*
X93220714Y-51130057D02*
X93268333Y-51225295D01*
X93268333Y-51225295D02*
X93268333Y-51320533D01*
X93268333Y-51320533D02*
X93220714Y-51415771D01*
X93220714Y-51415771D02*
X93173095Y-51463390D01*
X93173095Y-51463390D02*
X93077857Y-51511009D01*
X93077857Y-51511009D02*
X92744524Y-51511009D01*
X93935000Y-51034819D02*
X94125476Y-51034819D01*
X94125476Y-51034819D02*
X94220714Y-51082438D01*
X94220714Y-51082438D02*
X94315952Y-51177676D01*
X94315952Y-51177676D02*
X94363571Y-51368152D01*
X94363571Y-51368152D02*
X94363571Y-51701485D01*
X94363571Y-51701485D02*
X94315952Y-51891961D01*
X94315952Y-51891961D02*
X94220714Y-51987200D01*
X94220714Y-51987200D02*
X94125476Y-52034819D01*
X94125476Y-52034819D02*
X93935000Y-52034819D01*
X93935000Y-52034819D02*
X93839762Y-51987200D01*
X93839762Y-51987200D02*
X93744524Y-51891961D01*
X93744524Y-51891961D02*
X93696905Y-51701485D01*
X93696905Y-51701485D02*
X93696905Y-51368152D01*
X93696905Y-51368152D02*
X93744524Y-51177676D01*
X93744524Y-51177676D02*
X93839762Y-51082438D01*
X93839762Y-51082438D02*
X93935000Y-51034819D01*
X94982619Y-51034819D02*
X95173095Y-51034819D01*
X95173095Y-51034819D02*
X95268333Y-51082438D01*
X95268333Y-51082438D02*
X95363571Y-51177676D01*
X95363571Y-51177676D02*
X95411190Y-51368152D01*
X95411190Y-51368152D02*
X95411190Y-51701485D01*
X95411190Y-51701485D02*
X95363571Y-51891961D01*
X95363571Y-51891961D02*
X95268333Y-51987200D01*
X95268333Y-51987200D02*
X95173095Y-52034819D01*
X95173095Y-52034819D02*
X94982619Y-52034819D01*
X94982619Y-52034819D02*
X94887381Y-51987200D01*
X94887381Y-51987200D02*
X94792143Y-51891961D01*
X94792143Y-51891961D02*
X94744524Y-51701485D01*
X94744524Y-51701485D02*
X94744524Y-51368152D01*
X94744524Y-51368152D02*
X94792143Y-51177676D01*
X94792143Y-51177676D02*
X94887381Y-51082438D01*
X94887381Y-51082438D02*
X94982619Y-51034819D01*
X95696905Y-51034819D02*
X96268333Y-51034819D01*
X95982619Y-52034819D02*
X95982619Y-51034819D01*
X62394819Y-53278094D02*
X62394819Y-52659047D01*
X62394819Y-52659047D02*
X62775771Y-52992380D01*
X62775771Y-52992380D02*
X62775771Y-52849523D01*
X62775771Y-52849523D02*
X62823390Y-52754285D01*
X62823390Y-52754285D02*
X62871009Y-52706666D01*
X62871009Y-52706666D02*
X62966247Y-52659047D01*
X62966247Y-52659047D02*
X63204342Y-52659047D01*
X63204342Y-52659047D02*
X63299580Y-52706666D01*
X63299580Y-52706666D02*
X63347200Y-52754285D01*
X63347200Y-52754285D02*
X63394819Y-52849523D01*
X63394819Y-52849523D02*
X63394819Y-53135237D01*
X63394819Y-53135237D02*
X63347200Y-53230475D01*
X63347200Y-53230475D02*
X63299580Y-53278094D01*
X62394819Y-52373332D02*
X63394819Y-52039999D01*
X63394819Y-52039999D02*
X62394819Y-51706666D01*
X62394819Y-51468570D02*
X62394819Y-50849523D01*
X62394819Y-50849523D02*
X62775771Y-51182856D01*
X62775771Y-51182856D02*
X62775771Y-51039999D01*
X62775771Y-51039999D02*
X62823390Y-50944761D01*
X62823390Y-50944761D02*
X62871009Y-50897142D01*
X62871009Y-50897142D02*
X62966247Y-50849523D01*
X62966247Y-50849523D02*
X63204342Y-50849523D01*
X63204342Y-50849523D02*
X63299580Y-50897142D01*
X63299580Y-50897142D02*
X63347200Y-50944761D01*
X63347200Y-50944761D02*
X63394819Y-51039999D01*
X63394819Y-51039999D02*
X63394819Y-51325713D01*
X63394819Y-51325713D02*
X63347200Y-51420951D01*
X63347200Y-51420951D02*
X63299580Y-51468570D01*
X80488095Y-58154819D02*
X80488095Y-58964342D01*
X80488095Y-58964342D02*
X80535714Y-59059580D01*
X80535714Y-59059580D02*
X80583333Y-59107200D01*
X80583333Y-59107200D02*
X80678571Y-59154819D01*
X80678571Y-59154819D02*
X80869047Y-59154819D01*
X80869047Y-59154819D02*
X80964285Y-59107200D01*
X80964285Y-59107200D02*
X81011904Y-59059580D01*
X81011904Y-59059580D02*
X81059523Y-58964342D01*
X81059523Y-58964342D02*
X81059523Y-58154819D01*
X81488095Y-59107200D02*
X81630952Y-59154819D01*
X81630952Y-59154819D02*
X81869047Y-59154819D01*
X81869047Y-59154819D02*
X81964285Y-59107200D01*
X81964285Y-59107200D02*
X82011904Y-59059580D01*
X82011904Y-59059580D02*
X82059523Y-58964342D01*
X82059523Y-58964342D02*
X82059523Y-58869104D01*
X82059523Y-58869104D02*
X82011904Y-58773866D01*
X82011904Y-58773866D02*
X81964285Y-58726247D01*
X81964285Y-58726247D02*
X81869047Y-58678628D01*
X81869047Y-58678628D02*
X81678571Y-58631009D01*
X81678571Y-58631009D02*
X81583333Y-58583390D01*
X81583333Y-58583390D02*
X81535714Y-58535771D01*
X81535714Y-58535771D02*
X81488095Y-58440533D01*
X81488095Y-58440533D02*
X81488095Y-58345295D01*
X81488095Y-58345295D02*
X81535714Y-58250057D01*
X81535714Y-58250057D02*
X81583333Y-58202438D01*
X81583333Y-58202438D02*
X81678571Y-58154819D01*
X81678571Y-58154819D02*
X81916666Y-58154819D01*
X81916666Y-58154819D02*
X82059523Y-58202438D01*
X82821428Y-58631009D02*
X82964285Y-58678628D01*
X82964285Y-58678628D02*
X83011904Y-58726247D01*
X83011904Y-58726247D02*
X83059523Y-58821485D01*
X83059523Y-58821485D02*
X83059523Y-58964342D01*
X83059523Y-58964342D02*
X83011904Y-59059580D01*
X83011904Y-59059580D02*
X82964285Y-59107200D01*
X82964285Y-59107200D02*
X82869047Y-59154819D01*
X82869047Y-59154819D02*
X82488095Y-59154819D01*
X82488095Y-59154819D02*
X82488095Y-58154819D01*
X82488095Y-58154819D02*
X82821428Y-58154819D01*
X82821428Y-58154819D02*
X82916666Y-58202438D01*
X82916666Y-58202438D02*
X82964285Y-58250057D01*
X82964285Y-58250057D02*
X83011904Y-58345295D01*
X83011904Y-58345295D02*
X83011904Y-58440533D01*
X83011904Y-58440533D02*
X82964285Y-58535771D01*
X82964285Y-58535771D02*
X82916666Y-58583390D01*
X82916666Y-58583390D02*
X82821428Y-58631009D01*
X82821428Y-58631009D02*
X82488095Y-58631009D01*
X67612618Y-52034819D02*
X67279285Y-51558628D01*
X67041190Y-52034819D02*
X67041190Y-51034819D01*
X67041190Y-51034819D02*
X67422142Y-51034819D01*
X67422142Y-51034819D02*
X67517380Y-51082438D01*
X67517380Y-51082438D02*
X67564999Y-51130057D01*
X67564999Y-51130057D02*
X67612618Y-51225295D01*
X67612618Y-51225295D02*
X67612618Y-51368152D01*
X67612618Y-51368152D02*
X67564999Y-51463390D01*
X67564999Y-51463390D02*
X67517380Y-51511009D01*
X67517380Y-51511009D02*
X67422142Y-51558628D01*
X67422142Y-51558628D02*
X67041190Y-51558628D01*
X68041190Y-51511009D02*
X68374523Y-51511009D01*
X68517380Y-52034819D02*
X68041190Y-52034819D01*
X68041190Y-52034819D02*
X68041190Y-51034819D01*
X68041190Y-51034819D02*
X68517380Y-51034819D01*
X68898333Y-51987200D02*
X69041190Y-52034819D01*
X69041190Y-52034819D02*
X69279285Y-52034819D01*
X69279285Y-52034819D02*
X69374523Y-51987200D01*
X69374523Y-51987200D02*
X69422142Y-51939580D01*
X69422142Y-51939580D02*
X69469761Y-51844342D01*
X69469761Y-51844342D02*
X69469761Y-51749104D01*
X69469761Y-51749104D02*
X69422142Y-51653866D01*
X69422142Y-51653866D02*
X69374523Y-51606247D01*
X69374523Y-51606247D02*
X69279285Y-51558628D01*
X69279285Y-51558628D02*
X69088809Y-51511009D01*
X69088809Y-51511009D02*
X68993571Y-51463390D01*
X68993571Y-51463390D02*
X68945952Y-51415771D01*
X68945952Y-51415771D02*
X68898333Y-51320533D01*
X68898333Y-51320533D02*
X68898333Y-51225295D01*
X68898333Y-51225295D02*
X68945952Y-51130057D01*
X68945952Y-51130057D02*
X68993571Y-51082438D01*
X68993571Y-51082438D02*
X69088809Y-51034819D01*
X69088809Y-51034819D02*
X69326904Y-51034819D01*
X69326904Y-51034819D02*
X69469761Y-51082438D01*
X69898333Y-51511009D02*
X70231666Y-51511009D01*
X70374523Y-52034819D02*
X69898333Y-52034819D01*
X69898333Y-52034819D02*
X69898333Y-51034819D01*
X69898333Y-51034819D02*
X70374523Y-51034819D01*
X70660238Y-51034819D02*
X71231666Y-51034819D01*
X70945952Y-52034819D02*
X70945952Y-51034819D01*
D12*
%TO.C,J5*%
X109580000Y-89480000D02*
X109580000Y-58780000D01*
X112340000Y-58780000D02*
X109580000Y-58780000D01*
X112340000Y-89480000D02*
X109580000Y-89480000D01*
X112340000Y-89480000D02*
X112340000Y-58780000D01*
%TO.C,J8*%
X101960000Y-53700000D02*
X112340000Y-53700000D01*
X101960000Y-56460000D02*
X101960000Y-53700000D01*
X101960000Y-56460000D02*
X112340000Y-56460000D01*
X112340000Y-56460000D02*
X112340000Y-53700000D01*
%TO.C,J9*%
X51160000Y-53700000D02*
X61540000Y-53700000D01*
X51160000Y-56460000D02*
X51160000Y-53700000D01*
X51160000Y-56460000D02*
X61540000Y-56460000D01*
X61540000Y-56460000D02*
X61540000Y-53700000D01*
%TO.C,U1*%
D10*
X69050000Y-61430000D02*
X94450000Y-61430000D01*
X94450000Y-86830000D01*
X69050000Y-86830000D01*
X69050000Y-61430000D01*
X74765000Y-69685000D02*
X86195000Y-69685000D01*
X86195000Y-81115000D01*
X74765000Y-81115000D01*
X74765000Y-69685000D01*
D13*
X75925000Y-67780000D02*
G75*
G02*
X74875000Y-67780000I-525000J0D01*
G01*
X74875000Y-67780000D02*
G75*
G02*
X75925000Y-67780000I525000J0D01*
G01*
D10*
X72225000Y-63970000D02*
X71570000Y-64605000D01*
X70955000Y-63970000D01*
X71590000Y-63335000D01*
X72225000Y-63970000D01*
G36*
X72225000Y-63970000D02*
G01*
X71570000Y-64605000D01*
X70955000Y-63970000D01*
X71590000Y-63335000D01*
X72225000Y-63970000D01*
G37*
D12*
%TO.C,J3*%
X51160000Y-91800000D02*
X81860000Y-91800000D01*
X51160000Y-94560000D02*
X51160000Y-91800000D01*
X51160000Y-94560000D02*
X81860000Y-94560000D01*
X81860000Y-94560000D02*
X81860000Y-91800000D01*
%TO.C,J7*%
X101960000Y-51160000D02*
X112340000Y-51160000D01*
X101960000Y-53920000D02*
X101960000Y-51160000D01*
X101960000Y-53920000D02*
X112340000Y-53920000D01*
X112340000Y-53920000D02*
X112340000Y-51160000D01*
%TO.C,SW1*%
X91040000Y-54120000D02*
X91040000Y-52970000D01*
X91040000Y-57190000D02*
X91040000Y-56040000D01*
X95053333Y-55715000D02*
X95053333Y-54445000D01*
X97860000Y-52970000D02*
X91040000Y-52970000D01*
X97860000Y-54040000D02*
X97860000Y-52970000D01*
X97860000Y-57190000D02*
X91040000Y-57190000D01*
X97860000Y-57190000D02*
X97860000Y-56120000D01*
X98100000Y-57430000D02*
X96717000Y-57430000D01*
X98100000Y-57430000D02*
X98100000Y-56120000D01*
X96260000Y-55715000D02*
X92640000Y-55715000D01*
X92640000Y-54445000D01*
X96260000Y-54445000D01*
X96260000Y-55715000D01*
X96260000Y-55715000D02*
X95053333Y-55715000D01*
X95053333Y-54445000D01*
X96260000Y-54445000D01*
X96260000Y-55715000D01*
G36*
X96260000Y-55715000D02*
G01*
X95053333Y-55715000D01*
X95053333Y-54445000D01*
X96260000Y-54445000D01*
X96260000Y-55715000D01*
G37*
%TO.C,J6*%
X51160000Y-51160000D02*
X61540000Y-51160000D01*
X51160000Y-53920000D02*
X51160000Y-51160000D01*
X51160000Y-53920000D02*
X61540000Y-53920000D01*
X61540000Y-53920000D02*
X61540000Y-51160000D01*
%TO.C,J4*%
X81640000Y-91800000D02*
X112340000Y-91800000D01*
X81640000Y-94560000D02*
X81640000Y-91800000D01*
X81640000Y-94560000D02*
X112340000Y-94560000D01*
X112340000Y-94560000D02*
X112340000Y-91800000D01*
%TO.C,J2*%
X51160000Y-58780000D02*
X51160000Y-89480000D01*
X51160000Y-58780000D02*
X53920000Y-58780000D01*
X51160000Y-89480000D02*
X53920000Y-89480000D01*
X53920000Y-58780000D02*
X53920000Y-89480000D01*
%TO.C,J1*%
X77850000Y-50062500D02*
X77850000Y-50312500D01*
X77850000Y-52612500D02*
X77850000Y-54462500D01*
X77850000Y-54462500D02*
X78300000Y-54462500D01*
X83450000Y-55012500D02*
X83000000Y-55012500D01*
X83450000Y-55012500D02*
X83450000Y-54562500D01*
X85650000Y-50062500D02*
X85650000Y-50312500D01*
X85650000Y-52612500D02*
X85650000Y-54462500D01*
X85650000Y-54462500D02*
X85200000Y-54462500D01*
%TO.C,SW2*%
X65400000Y-52730000D02*
X65400000Y-54040000D01*
X65400000Y-52730000D02*
X66783000Y-52730000D01*
X65640000Y-52970000D02*
X65640000Y-54040000D01*
X65640000Y-52970000D02*
X72460000Y-52970000D01*
X65640000Y-56120000D02*
X65640000Y-57190000D01*
X65640000Y-57190000D02*
X72460000Y-57190000D01*
X68446667Y-54445000D02*
X68446667Y-55715000D01*
X72460000Y-52970000D02*
X72460000Y-54120000D01*
X72460000Y-56040000D02*
X72460000Y-57190000D01*
X67240000Y-54445000D02*
X68446667Y-54445000D01*
X68446667Y-55715000D01*
X67240000Y-55715000D01*
X67240000Y-54445000D01*
G36*
X67240000Y-54445000D02*
G01*
X68446667Y-54445000D01*
X68446667Y-55715000D01*
X67240000Y-55715000D01*
X67240000Y-54445000D01*
G37*
X67240000Y-54445000D02*
X70860000Y-54445000D01*
X70860000Y-55715000D01*
X67240000Y-55715000D01*
X67240000Y-54445000D01*
%TD*%
M02*
