%TF.GenerationSoftware,KiCad,Pcbnew,9.0.7*%
%TF.CreationDate,2026-04-12T14:09:31+01:00*%
%TF.ProjectId,PGA2350Breakout,50474132-3335-4304-9272-65616b6f7574,rev?*%
%TF.SameCoordinates,Original*%
%TF.FileFunction,Soldermask,Top*%
%TF.FilePolarity,Negative*%
%FSLAX46Y46*%
G04 Gerber Fmt 4.6, Leading zero omitted, Abs format (unit mm)*
G04 Created by KiCad (PCBNEW 9.0.7) date 2026-04-12 14:09:31*
%MOMM*%
%LPD*%
G01*
G04 APERTURE LIST*
G04 Aperture macros list*
%AMRoundRect*
0 Rectangle with rounded corners*
0 $1 Rounding radius*
0 $2 $3 $4 $5 $6 $7 $8 $9 X,Y pos of 4 corners*
0 Add a 4 corners polygon primitive as box body*
4,1,4,$2,$3,$4,$5,$6,$7,$8,$9,$2,$3,0*
0 Add four circle primitives for the rounded corners*
1,1,$1+$1,$2,$3*
1,1,$1+$1,$4,$5*
1,1,$1+$1,$6,$7*
1,1,$1+$1,$8,$9*
0 Add four rect primitives between the rounded corners*
20,1,$1+$1,$2,$3,$4,$5,0*
20,1,$1+$1,$4,$5,$6,$7,0*
20,1,$1+$1,$6,$7,$8,$9,0*
20,1,$1+$1,$8,$9,$2,$3,0*%
G04 Aperture macros list end*
%ADD10RoundRect,0.060000X0.140000X1.440000X-0.140000X1.440000X-0.140000X-1.440000X0.140000X-1.440000X0*%
%ADD11O,1.700000X1.700000*%
%ADD12C,1.700000*%
%ADD13RoundRect,0.250000X0.550000X0.550000X-0.550000X0.550000X-0.550000X-0.550000X0.550000X-0.550000X0*%
%ADD14C,1.600000*%
%ADD15R,0.400000X1.350000*%
%ADD16O,1.200000X1.900000*%
%ADD17R,1.200000X1.900000*%
%ADD18C,1.450000*%
%ADD19R,1.500000X1.900000*%
%ADD20RoundRect,0.250000X-0.550000X-0.550000X0.550000X-0.550000X0.550000X0.550000X-0.550000X0.550000X0*%
G04 APERTURE END LIST*
D10*
%TO.C,TP1*%
X80445937Y-55626000D03*
%TD*%
D11*
%TO.C,J5*%
X110960000Y-88100000D03*
D12*
X110960000Y-85560000D03*
X110960000Y-83020000D03*
X110960000Y-80480000D03*
X110960000Y-77940000D03*
X110960000Y-75400000D03*
X110960000Y-72860000D03*
X110960000Y-70320000D03*
X110960000Y-67780000D03*
X110960000Y-65240000D03*
X110960000Y-62700000D03*
X110960000Y-60160000D03*
%TD*%
D11*
%TO.C,J8*%
X103340000Y-55080000D03*
D12*
X105880000Y-55080000D03*
X108420000Y-55080000D03*
X110960000Y-55080000D03*
%TD*%
D11*
%TO.C,J9*%
X52540000Y-55080000D03*
D12*
X55080000Y-55080000D03*
X57620000Y-55080000D03*
X60160000Y-55080000D03*
%TD*%
%TO.C,U1*%
X75400000Y-65240000D03*
X72860000Y-62700000D03*
X70320000Y-65240000D03*
X72860000Y-67780000D03*
X70320000Y-67780000D03*
X72860000Y-70320000D03*
X70320000Y-70320000D03*
X72860000Y-72860000D03*
X70320000Y-72860000D03*
X72860000Y-75400000D03*
X70320000Y-75400000D03*
X72860000Y-77940000D03*
X70320000Y-77940000D03*
X72860000Y-80480000D03*
X70320000Y-80480000D03*
X72860000Y-83020000D03*
X70320000Y-83020000D03*
X72860000Y-85560000D03*
X75400000Y-85560000D03*
X75400000Y-83020000D03*
X77940000Y-85560000D03*
X77940000Y-83020000D03*
X80480000Y-85560000D03*
X80480000Y-83020000D03*
X83020000Y-85560000D03*
X83020000Y-83020000D03*
X85560000Y-85560000D03*
X85560000Y-83020000D03*
X88100000Y-85560000D03*
X88100000Y-83020000D03*
X90640000Y-85560000D03*
X90640000Y-83020000D03*
X93180000Y-83020000D03*
X90640000Y-80480000D03*
X93180000Y-80480000D03*
X90640000Y-77940000D03*
X93180000Y-77940000D03*
X90640000Y-75400000D03*
X93180000Y-75400000D03*
X90640000Y-72860000D03*
X93180000Y-72860000D03*
X90640000Y-70320000D03*
X93180000Y-70320000D03*
X90640000Y-67780000D03*
X93180000Y-67780000D03*
X93180000Y-65240000D03*
X90640000Y-62700000D03*
X88100000Y-65240000D03*
X88100000Y-62700000D03*
X85560000Y-65240000D03*
X85560000Y-62700000D03*
X83020000Y-65240000D03*
X83020000Y-62700000D03*
X80480000Y-65240000D03*
X80480000Y-62700000D03*
X77940000Y-65240000D03*
X77940000Y-62700000D03*
X75400000Y-62700000D03*
X72860000Y-65240000D03*
X70320000Y-62700000D03*
X90640000Y-65240000D03*
X93180000Y-62700000D03*
X70320000Y-85560000D03*
X93180000Y-85560000D03*
%TD*%
D10*
%TO.C,TP2*%
X83058000Y-55626000D03*
%TD*%
D11*
%TO.C,J3*%
X52540000Y-93180000D03*
D12*
X55080000Y-93180000D03*
X57620000Y-93180000D03*
X60160000Y-93180000D03*
X62700000Y-93180000D03*
X65240000Y-93180000D03*
X67780000Y-93180000D03*
X70320000Y-93180000D03*
X72860000Y-93180000D03*
X75400000Y-93180000D03*
X77940000Y-93180000D03*
X80480000Y-93180000D03*
%TD*%
D11*
%TO.C,J7*%
X103340000Y-52540000D03*
D12*
X105880000Y-52540000D03*
X108420000Y-52540000D03*
X110960000Y-52540000D03*
%TD*%
D13*
%TO.C,SW1*%
X98260000Y-55080000D03*
D14*
X90640000Y-55080000D03*
%TD*%
D11*
%TO.C,J6*%
X52540000Y-52540000D03*
D12*
X55080000Y-52540000D03*
X57620000Y-52540000D03*
X60160000Y-52540000D03*
%TD*%
D11*
%TO.C,J4*%
X83020000Y-93180000D03*
D12*
X85560000Y-93180000D03*
X88100000Y-93180000D03*
X90640000Y-93180000D03*
X93180000Y-93180000D03*
X95720000Y-93180000D03*
X98260000Y-93180000D03*
X100800000Y-93180000D03*
X103340000Y-93180000D03*
X105880000Y-93180000D03*
X108420000Y-93180000D03*
X110960000Y-93180000D03*
%TD*%
D11*
%TO.C,J2*%
X52540000Y-60160000D03*
D12*
X52540000Y-62700000D03*
X52540000Y-65240000D03*
X52540000Y-67780000D03*
X52540000Y-70320000D03*
X52540000Y-72860000D03*
X52540000Y-75400000D03*
X52540000Y-77940000D03*
X52540000Y-80480000D03*
X52540000Y-83020000D03*
X52540000Y-85560000D03*
X52540000Y-88100000D03*
%TD*%
D15*
%TO.C,J1*%
X83050000Y-54162500D03*
X82400000Y-54162500D03*
X81750000Y-54162500D03*
X81100000Y-54162500D03*
X80450000Y-54162500D03*
D16*
X85250000Y-51462500D03*
D17*
X84650000Y-51462500D03*
D18*
X84250000Y-54162500D03*
D19*
X82750000Y-51462500D03*
X80750000Y-51462500D03*
D18*
X79250000Y-54162500D03*
D17*
X78850000Y-51462500D03*
D16*
X78250000Y-51462500D03*
%TD*%
D20*
%TO.C,SW2*%
X65240000Y-55080000D03*
D14*
X72860000Y-55080000D03*
%TD*%
M02*
