%TF.GenerationSoftware,KiCad,Pcbnew,(6.0.5)*%
%TF.CreationDate,2022-07-19T14:12:40+01:00*%
%TF.ProjectId,PicoMIDIPack,5069636f-4d49-4444-9950-61636b2e6b69,rev?*%
%TF.SameCoordinates,Original*%
%TF.FileFunction,Soldermask,Top*%
%TF.FilePolarity,Negative*%
%FSLAX46Y46*%
G04 Gerber Fmt 4.6, Leading zero omitted, Abs format (unit mm)*
G04 Created by KiCad (PCBNEW (6.0.5)) date 2022-07-19 14:12:40*
%MOMM*%
%LPD*%
G01*
G04 APERTURE LIST*
%ADD10R,1.700000X1.700000*%
%ADD11O,1.700000X1.700000*%
%ADD12C,2.499360*%
%ADD13C,1.600000*%
%ADD14O,1.600000X1.600000*%
%ADD15R,1.600000X1.600000*%
G04 APERTURE END LIST*
D10*
%TO.C,UART0*%
X81011000Y-85795000D03*
D11*
X78471000Y-85795000D03*
X75931000Y-85795000D03*
%TD*%
D12*
%TO.C,IN*%
X41770300Y-85676740D03*
X41770300Y-95679260D03*
X51765200Y-98176080D03*
X51767740Y-90678000D03*
X51765200Y-83179920D03*
X54267100Y-95674180D03*
X54267100Y-85681820D03*
%TD*%
D13*
%TO.C,33R*%
X65024000Y-116586000D03*
D14*
X65024000Y-108966000D03*
%TD*%
D13*
%TO.C,220R*%
X65024000Y-91694000D03*
D14*
X65024000Y-84074000D03*
%TD*%
D10*
%TO.C,J4*%
X87780000Y-70000000D03*
D11*
X87780000Y-72540000D03*
X87780000Y-75080000D03*
X87780000Y-77620000D03*
X87780000Y-80160000D03*
X87780000Y-82700000D03*
X87780000Y-85240000D03*
X87780000Y-87780000D03*
X87780000Y-90320000D03*
X87780000Y-92860000D03*
X87780000Y-95400000D03*
X87780000Y-97940000D03*
X87780000Y-100480000D03*
X87780000Y-103020000D03*
X87780000Y-105560000D03*
X87780000Y-108100000D03*
X87780000Y-110640000D03*
X87780000Y-113180000D03*
X87780000Y-115720000D03*
X87780000Y-118260000D03*
%TD*%
D15*
%TO.C,H11L1*%
X46492000Y-69840000D03*
D14*
X46492000Y-72380000D03*
X46492000Y-74920000D03*
X54112000Y-74920000D03*
X54112000Y-72380000D03*
X54112000Y-69840000D03*
%TD*%
D10*
%TO.C,UART1*%
X75961000Y-82607000D03*
D11*
X78501000Y-82607000D03*
X81041000Y-82607000D03*
%TD*%
D13*
%TO.C,470R*%
X65024000Y-69596000D03*
D14*
X65024000Y-77216000D03*
%TD*%
D13*
%TO.C,10R*%
X65024000Y-104140000D03*
D14*
X65024000Y-96520000D03*
%TD*%
D13*
%TO.C,100nF*%
X59182000Y-69636000D03*
X59182000Y-74636000D03*
%TD*%
D15*
%TO.C,1N914*%
X41910000Y-69850000D03*
D14*
X41910000Y-77470000D03*
%TD*%
D10*
%TO.C,J3*%
X70000000Y-70000000D03*
D11*
X70000000Y-72540000D03*
X70000000Y-75080000D03*
X70000000Y-77620000D03*
X70000000Y-80160000D03*
X70000000Y-82700000D03*
X70000000Y-85240000D03*
X70000000Y-87780000D03*
X70000000Y-90320000D03*
X70000000Y-92860000D03*
X70000000Y-95400000D03*
X70000000Y-97940000D03*
X70000000Y-100480000D03*
X70000000Y-103020000D03*
X70000000Y-105560000D03*
X70000000Y-108100000D03*
X70000000Y-110640000D03*
X70000000Y-113180000D03*
X70000000Y-115720000D03*
X70000000Y-118260000D03*
%TD*%
D12*
%TO.C,OUT*%
X41770300Y-115237260D03*
X41770300Y-105234740D03*
X51765200Y-117734080D03*
X51767740Y-110236000D03*
X51765200Y-102737920D03*
X54267100Y-115232180D03*
X54267100Y-105239820D03*
%TD*%
M02*
