M48
; DRILL file {KiCad (6.0.5)} date Tue Jul 19 14:12:49 2022
; FORMAT={-:-/ absolute / inch / decimal}
; #@! TF.CreationDate,2022-07-19T14:12:49+01:00
; #@! TF.GenerationSoftware,Kicad,Pcbnew,(6.0.5)
; #@! TF.FileFunction,MixedPlating,1,2
FMAT,2
INCH
; #@! TA.AperFunction,Plated,PTH,ComponentDrill
T1C0.0315
; #@! TA.AperFunction,Plated,PTH,ComponentDrill
T2C0.0394
; #@! TA.AperFunction,Plated,PTH,ComponentDrill
T3C0.0550
; #@! TA.AperFunction,NonPlated,NPTH,ComponentDrill
T4C0.0550
%
G90
G05
T1
X1.65Y-2.75
X1.65Y-3.05
X1.8304Y-2.7496
X1.8304Y-2.8496
X1.8304Y-2.9496
X2.1304Y-2.7496
X2.1304Y-2.8496
X2.1304Y-2.9496
X2.33Y-2.7416
X2.33Y-2.9384
X2.56Y-2.74
X2.56Y-3.04
X2.56Y-3.31
X2.56Y-3.61
X2.56Y-3.8
X2.56Y-4.1
X2.56Y-4.29
X2.56Y-4.59
T2
X2.7559Y-2.7559
X2.7559Y-2.8559
X2.7559Y-2.9559
X2.7559Y-3.0559
X2.7559Y-3.1559
X2.7559Y-3.2559
X2.7559Y-3.3559
X2.7559Y-3.4559
X2.7559Y-3.5559
X2.7559Y-3.6559
X2.7559Y-3.7559
X2.7559Y-3.8559
X2.7559Y-3.9559
X2.7559Y-4.0559
X2.7559Y-4.1559
X2.7559Y-4.2559
X2.7559Y-4.3559
X2.7559Y-4.4559
X2.7559Y-4.5559
X2.7559Y-4.6559
X2.9894Y-3.3778
X2.9906Y-3.2522
X3.0894Y-3.3778
X3.0906Y-3.2522
X3.1894Y-3.3778
X3.1906Y-3.2522
X3.4559Y-2.7559
X3.4559Y-2.8559
X3.4559Y-2.9559
X3.4559Y-3.0559
X3.4559Y-3.1559
X3.4559Y-3.2559
X3.4559Y-3.3559
X3.4559Y-3.4559
X3.4559Y-3.5559
X3.4559Y-3.6559
X3.4559Y-3.7559
X3.4559Y-3.8559
X3.4559Y-3.9559
X3.4559Y-4.0559
X3.4559Y-4.1559
X3.4559Y-4.2559
X3.4559Y-4.3559
X3.4559Y-4.4559
X3.4559Y-4.5559
X3.4559Y-4.6559
T3
X2.038Y-3.2748
X2.038Y-3.8652
X2.038Y-4.0448
X2.038Y-4.6352
X2.0381Y-3.57
X2.0381Y-4.34
X2.1365Y-3.3733
X2.1365Y-3.7667
X2.1365Y-4.1433
X2.1365Y-4.5367
T4
X1.6445Y-3.3731
X1.6445Y-3.7669
X1.6445Y-4.1431
X1.6445Y-4.5369
T0
M30
