%TF.GenerationSoftware,KiCad,Pcbnew,(6.0.5)*%
%TF.CreationDate,2022-08-29T17:14:51+01:00*%
%TF.ProjectId,ArduinoMIDIProtoShield,41726475-696e-46f4-9d49-444950726f74,rev?*%
%TF.SameCoordinates,Original*%
%TF.FileFunction,Legend,Top*%
%TF.FilePolarity,Positive*%
%FSLAX46Y46*%
G04 Gerber Fmt 4.6, Leading zero omitted, Abs format (unit mm)*
G04 Created by KiCad (PCBNEW (6.0.5)) date 2022-08-29 17:14:51*
%MOMM*%
%LPD*%
G01*
G04 APERTURE LIST*
%ADD10C,0.150000*%
%ADD11C,0.304800*%
%ADD12C,0.120000*%
%ADD13O,1.727200X2.032000*%
%ADD14C,4.064000*%
%ADD15C,2.499360*%
G04 APERTURE END LIST*
D10*
X143256000Y-119913400D02*
X145846800Y-119913400D01*
X145846800Y-119913400D02*
X145846800Y-99491800D01*
X145846800Y-99491800D02*
X143256000Y-99491800D01*
X143256000Y-99491800D02*
X143256000Y-119913400D01*
X145821400Y-119913400D02*
X148361400Y-119913400D01*
X148361400Y-119913400D02*
X148361400Y-99491800D01*
X148361400Y-99491800D02*
X145821400Y-99491800D01*
X145821400Y-99491800D02*
X145821400Y-119913400D01*
X148361400Y-119913400D02*
X150901400Y-119913400D01*
X150901400Y-119913400D02*
X150901400Y-99491800D01*
X150901400Y-99491800D02*
X148361400Y-99491800D01*
X148361400Y-99491800D02*
X148361400Y-119913400D01*
X158877904Y-121138933D02*
X159258857Y-121138933D01*
X158801714Y-121367504D02*
X159068380Y-120567504D01*
X159335047Y-121367504D01*
X159754095Y-120567504D02*
X159830285Y-120567504D01*
X159906476Y-120605600D01*
X159944571Y-120643695D01*
X159982666Y-120719885D01*
X160020761Y-120872266D01*
X160020761Y-121062742D01*
X159982666Y-121215123D01*
X159944571Y-121291314D01*
X159906476Y-121329409D01*
X159830285Y-121367504D01*
X159754095Y-121367504D01*
X159677904Y-121329409D01*
X159639809Y-121291314D01*
X159601714Y-121215123D01*
X159563619Y-121062742D01*
X159563619Y-120872266D01*
X159601714Y-120719885D01*
X159639809Y-120643695D01*
X159677904Y-120605600D01*
X159754095Y-120567504D01*
X161544571Y-121138933D02*
X161925523Y-121138933D01*
X161468380Y-121367504D02*
X161735047Y-120567504D01*
X162001714Y-121367504D01*
X162687428Y-121367504D02*
X162230285Y-121367504D01*
X162458857Y-121367504D02*
X162458857Y-120567504D01*
X162382666Y-120681790D01*
X162306476Y-120757980D01*
X162230285Y-120796076D01*
X164211238Y-121138933D02*
X164592190Y-121138933D01*
X164135047Y-121367504D02*
X164401714Y-120567504D01*
X164668380Y-121367504D01*
X164896952Y-120643695D02*
X164935047Y-120605600D01*
X165011238Y-120567504D01*
X165201714Y-120567504D01*
X165277904Y-120605600D01*
X165316000Y-120643695D01*
X165354095Y-120719885D01*
X165354095Y-120796076D01*
X165316000Y-120910361D01*
X164858857Y-121367504D01*
X165354095Y-121367504D01*
X166877904Y-121138933D02*
X167258857Y-121138933D01*
X166801714Y-121367504D02*
X167068380Y-120567504D01*
X167335047Y-121367504D01*
X167525523Y-120567504D02*
X168020761Y-120567504D01*
X167754095Y-120872266D01*
X167868380Y-120872266D01*
X167944571Y-120910361D01*
X167982666Y-120948457D01*
X168020761Y-121024647D01*
X168020761Y-121215123D01*
X167982666Y-121291314D01*
X167944571Y-121329409D01*
X167868380Y-121367504D01*
X167639809Y-121367504D01*
X167563619Y-121329409D01*
X167525523Y-121291314D01*
X169544571Y-121138933D02*
X169925523Y-121138933D01*
X169468380Y-121367504D02*
X169735047Y-120567504D01*
X170001714Y-121367504D01*
X170611238Y-120834171D02*
X170611238Y-121367504D01*
X170420761Y-120529409D02*
X170230285Y-121100838D01*
X170725523Y-121100838D01*
X172211238Y-121138933D02*
X172592190Y-121138933D01*
X172135047Y-121367504D02*
X172401714Y-120567504D01*
X172668380Y-121367504D01*
X173316000Y-120567504D02*
X172935047Y-120567504D01*
X172896952Y-120948457D01*
X172935047Y-120910361D01*
X173011238Y-120872266D01*
X173201714Y-120872266D01*
X173277904Y-120910361D01*
X173316000Y-120948457D01*
X173354095Y-121024647D01*
X173354095Y-121215123D01*
X173316000Y-121291314D01*
X173277904Y-121329409D01*
X173201714Y-121367504D01*
X173011238Y-121367504D01*
X172935047Y-121329409D01*
X172896952Y-121291314D01*
X154344266Y-77870104D02*
X154877600Y-77870104D01*
X154534742Y-78670104D01*
X157353790Y-77870104D02*
X157201409Y-77870104D01*
X157125219Y-77908200D01*
X157087123Y-77946295D01*
X157010933Y-78060580D01*
X156972838Y-78212961D01*
X156972838Y-78517723D01*
X157010933Y-78593914D01*
X157049028Y-78632009D01*
X157125219Y-78670104D01*
X157277600Y-78670104D01*
X157353790Y-78632009D01*
X157391885Y-78593914D01*
X157429980Y-78517723D01*
X157429980Y-78327247D01*
X157391885Y-78251057D01*
X157353790Y-78212961D01*
X157277600Y-78174866D01*
X157125219Y-78174866D01*
X157049028Y-78212961D01*
X157010933Y-78251057D01*
X156972838Y-78327247D01*
X159982361Y-77870104D02*
X159601409Y-77870104D01*
X159563314Y-78251057D01*
X159601409Y-78212961D01*
X159677600Y-78174866D01*
X159868076Y-78174866D01*
X159944266Y-78212961D01*
X159982361Y-78251057D01*
X160020457Y-78327247D01*
X160020457Y-78517723D01*
X159982361Y-78593914D01*
X159944266Y-78632009D01*
X159868076Y-78670104D01*
X159677600Y-78670104D01*
X159601409Y-78632009D01*
X159563314Y-78593914D01*
X162534742Y-78136771D02*
X162534742Y-78670104D01*
X162344266Y-77832009D02*
X162153790Y-78403438D01*
X162649028Y-78403438D01*
X164706171Y-77870104D02*
X165201409Y-77870104D01*
X164934742Y-78174866D01*
X165049028Y-78174866D01*
X165125219Y-78212961D01*
X165163314Y-78251057D01*
X165201409Y-78327247D01*
X165201409Y-78517723D01*
X165163314Y-78593914D01*
X165125219Y-78632009D01*
X165049028Y-78670104D01*
X164820457Y-78670104D01*
X164744266Y-78632009D01*
X164706171Y-78593914D01*
X167334742Y-77946295D02*
X167372838Y-77908200D01*
X167449028Y-77870104D01*
X167639504Y-77870104D01*
X167715695Y-77908200D01*
X167753790Y-77946295D01*
X167791885Y-78022485D01*
X167791885Y-78098676D01*
X167753790Y-78212961D01*
X167296647Y-78670104D01*
X167791885Y-78670104D01*
X170382361Y-78670104D02*
X169925219Y-78670104D01*
X170153790Y-78670104D02*
X170153790Y-77870104D01*
X170077600Y-77984390D01*
X170001409Y-78060580D01*
X169925219Y-78098676D01*
X172706171Y-77870104D02*
X172782361Y-77870104D01*
X172858552Y-77908200D01*
X172896647Y-77946295D01*
X172934742Y-78022485D01*
X172972838Y-78174866D01*
X172972838Y-78365342D01*
X172934742Y-78517723D01*
X172896647Y-78593914D01*
X172858552Y-78632009D01*
X172782361Y-78670104D01*
X172706171Y-78670104D01*
X172629980Y-78632009D01*
X172591885Y-78593914D01*
X172553790Y-78517723D01*
X172515695Y-78365342D01*
X172515695Y-78174866D01*
X172553790Y-78022485D01*
X172591885Y-77946295D01*
X172629980Y-77908200D01*
X172706171Y-77870104D01*
X139070600Y-78670104D02*
X138624885Y-78670104D01*
X138847742Y-78670104D02*
X138847742Y-77870104D01*
X138773457Y-77984390D01*
X138699171Y-78060580D01*
X138624885Y-78098676D01*
X139330600Y-77870104D02*
X139813457Y-77870104D01*
X139553457Y-78174866D01*
X139664885Y-78174866D01*
X139739171Y-78212961D01*
X139776314Y-78251057D01*
X139813457Y-78327247D01*
X139813457Y-78517723D01*
X139776314Y-78593914D01*
X139739171Y-78632009D01*
X139664885Y-78670104D01*
X139442028Y-78670104D01*
X139367742Y-78632009D01*
X139330600Y-78593914D01*
X141744885Y-78670104D02*
X141299171Y-78670104D01*
X141522028Y-78670104D02*
X141522028Y-77870104D01*
X141447742Y-77984390D01*
X141373457Y-78060580D01*
X141299171Y-78098676D01*
X142042028Y-77946295D02*
X142079171Y-77908200D01*
X142153457Y-77870104D01*
X142339171Y-77870104D01*
X142413457Y-77908200D01*
X142450600Y-77946295D01*
X142487742Y-78022485D01*
X142487742Y-78098676D01*
X142450600Y-78212961D01*
X142004885Y-78670104D01*
X142487742Y-78670104D01*
X144419171Y-78670104D02*
X143973457Y-78670104D01*
X144196314Y-78670104D02*
X144196314Y-77870104D01*
X144122028Y-77984390D01*
X144047742Y-78060580D01*
X143973457Y-78098676D01*
X145162028Y-78670104D02*
X144716314Y-78670104D01*
X144939171Y-78670104D02*
X144939171Y-77870104D01*
X144864885Y-77984390D01*
X144790600Y-78060580D01*
X144716314Y-78098676D01*
X147093457Y-78670104D02*
X146647742Y-78670104D01*
X146870600Y-78670104D02*
X146870600Y-77870104D01*
X146796314Y-77984390D01*
X146722028Y-78060580D01*
X146647742Y-78098676D01*
X147576314Y-77870104D02*
X147650600Y-77870104D01*
X147724885Y-77908200D01*
X147762028Y-77946295D01*
X147799171Y-78022485D01*
X147836314Y-78174866D01*
X147836314Y-78365342D01*
X147799171Y-78517723D01*
X147762028Y-78593914D01*
X147724885Y-78632009D01*
X147650600Y-78670104D01*
X147576314Y-78670104D01*
X147502028Y-78632009D01*
X147464885Y-78593914D01*
X147427742Y-78517723D01*
X147390600Y-78365342D01*
X147390600Y-78174866D01*
X147427742Y-78022485D01*
X147464885Y-77946295D01*
X147502028Y-77908200D01*
X147576314Y-77870104D01*
X143599342Y-120643704D02*
X144094580Y-120643704D01*
X143827914Y-120948466D01*
X143942200Y-120948466D01*
X144018390Y-120986561D01*
X144056485Y-121024657D01*
X144094580Y-121100847D01*
X144094580Y-121291323D01*
X144056485Y-121367514D01*
X144018390Y-121405609D01*
X143942200Y-121443704D01*
X143713628Y-121443704D01*
X143637438Y-121405609D01*
X143599342Y-121367514D01*
X144323152Y-120643704D02*
X144589819Y-121443704D01*
X144856485Y-120643704D01*
X145046961Y-120643704D02*
X145542200Y-120643704D01*
X145275533Y-120948466D01*
X145389819Y-120948466D01*
X145466009Y-120986561D01*
X145504104Y-121024657D01*
X145542200Y-121100847D01*
X145542200Y-121291323D01*
X145504104Y-121367514D01*
X145466009Y-121405609D01*
X145389819Y-121443704D01*
X145161247Y-121443704D01*
X145085057Y-121405609D01*
X145046961Y-121367514D01*
X146875533Y-120643704D02*
X146494580Y-120643704D01*
X146456485Y-121024657D01*
X146494580Y-120986561D01*
X146570771Y-120948466D01*
X146761247Y-120948466D01*
X146837438Y-120986561D01*
X146875533Y-121024657D01*
X146913628Y-121100847D01*
X146913628Y-121291323D01*
X146875533Y-121367514D01*
X146837438Y-121405609D01*
X146761247Y-121443704D01*
X146570771Y-121443704D01*
X146494580Y-121405609D01*
X146456485Y-121367514D01*
X147142200Y-120643704D02*
X147408866Y-121443704D01*
X147675533Y-120643704D01*
X148970771Y-120681800D02*
X148894580Y-120643704D01*
X148780295Y-120643704D01*
X148666009Y-120681800D01*
X148589819Y-120757990D01*
X148551723Y-120834180D01*
X148513628Y-120986561D01*
X148513628Y-121100847D01*
X148551723Y-121253228D01*
X148589819Y-121329419D01*
X148666009Y-121405609D01*
X148780295Y-121443704D01*
X148856485Y-121443704D01*
X148970771Y-121405609D01*
X149008866Y-121367514D01*
X149008866Y-121100847D01*
X148856485Y-121100847D01*
X149351723Y-121443704D02*
X149351723Y-120643704D01*
X149808866Y-121443704D01*
X149808866Y-120643704D01*
X150189819Y-121443704D02*
X150189819Y-120643704D01*
X150380295Y-120643704D01*
X150494580Y-120681800D01*
X150570771Y-120757990D01*
X150608866Y-120834180D01*
X150646961Y-120986561D01*
X150646961Y-121100847D01*
X150608866Y-121253228D01*
X150570771Y-121329419D01*
X150494580Y-121405609D01*
X150380295Y-121443704D01*
X150189819Y-121443704D01*
X149428380Y-78644704D02*
X149580761Y-78644704D01*
X149656952Y-78606609D01*
X149695047Y-78568514D01*
X149771238Y-78454228D01*
X149809333Y-78301847D01*
X149809333Y-77997085D01*
X149771238Y-77920895D01*
X149733142Y-77882800D01*
X149656952Y-77844704D01*
X149504571Y-77844704D01*
X149428380Y-77882800D01*
X149390285Y-77920895D01*
X149352190Y-77997085D01*
X149352190Y-78187561D01*
X149390285Y-78263752D01*
X149428380Y-78301847D01*
X149504571Y-78339942D01*
X149656952Y-78339942D01*
X149733142Y-78301847D01*
X149771238Y-78263752D01*
X149809333Y-78187561D01*
X152095047Y-78187561D02*
X152018857Y-78149466D01*
X151980761Y-78111371D01*
X151942666Y-78035180D01*
X151942666Y-77997085D01*
X151980761Y-77920895D01*
X152018857Y-77882800D01*
X152095047Y-77844704D01*
X152247428Y-77844704D01*
X152323619Y-77882800D01*
X152361714Y-77920895D01*
X152399809Y-77997085D01*
X152399809Y-78035180D01*
X152361714Y-78111371D01*
X152323619Y-78149466D01*
X152247428Y-78187561D01*
X152095047Y-78187561D01*
X152018857Y-78225657D01*
X151980761Y-78263752D01*
X151942666Y-78339942D01*
X151942666Y-78492323D01*
X151980761Y-78568514D01*
X152018857Y-78606609D01*
X152095047Y-78644704D01*
X152247428Y-78644704D01*
X152323619Y-78606609D01*
X152361714Y-78568514D01*
X152399809Y-78492323D01*
X152399809Y-78339942D01*
X152361714Y-78263752D01*
X152323619Y-78225657D01*
X152247428Y-78187561D01*
X175494266Y-112482266D02*
X175494266Y-112148933D01*
X175694266Y-112548933D02*
X174994266Y-112315600D01*
X175694266Y-112082266D01*
X175694266Y-111848933D02*
X175227600Y-111848933D01*
X175360933Y-111848933D02*
X175294266Y-111815600D01*
X175260933Y-111782266D01*
X175227600Y-111715600D01*
X175227600Y-111648933D01*
X175694266Y-111115600D02*
X174994266Y-111115600D01*
X175660933Y-111115600D02*
X175694266Y-111182266D01*
X175694266Y-111315600D01*
X175660933Y-111382266D01*
X175627600Y-111415600D01*
X175560933Y-111448933D01*
X175360933Y-111448933D01*
X175294266Y-111415600D01*
X175260933Y-111382266D01*
X175227600Y-111315600D01*
X175227600Y-111182266D01*
X175260933Y-111115600D01*
X175227600Y-110482266D02*
X175694266Y-110482266D01*
X175227600Y-110782266D02*
X175594266Y-110782266D01*
X175660933Y-110748933D01*
X175694266Y-110682266D01*
X175694266Y-110582266D01*
X175660933Y-110515600D01*
X175627600Y-110482266D01*
X175694266Y-110148933D02*
X175227600Y-110148933D01*
X174994266Y-110148933D02*
X175027600Y-110182266D01*
X175060933Y-110148933D01*
X175027600Y-110115600D01*
X174994266Y-110148933D01*
X175060933Y-110148933D01*
X175227600Y-109815600D02*
X175694266Y-109815600D01*
X175294266Y-109815600D02*
X175260933Y-109782266D01*
X175227600Y-109715600D01*
X175227600Y-109615600D01*
X175260933Y-109548933D01*
X175327600Y-109515600D01*
X175694266Y-109515600D01*
X175694266Y-109082266D02*
X175660933Y-109148933D01*
X175627600Y-109182266D01*
X175560933Y-109215600D01*
X175360933Y-109215600D01*
X175294266Y-109182266D01*
X175260933Y-109148933D01*
X175227600Y-109082266D01*
X175227600Y-108982266D01*
X175260933Y-108915600D01*
X175294266Y-108882266D01*
X175360933Y-108848933D01*
X175560933Y-108848933D01*
X175627600Y-108882266D01*
X175660933Y-108915600D01*
X175694266Y-108982266D01*
X175694266Y-109082266D01*
X175694266Y-108015600D02*
X174994266Y-108015600D01*
X175494266Y-107782266D01*
X174994266Y-107548933D01*
X175694266Y-107548933D01*
X175694266Y-107215600D02*
X174994266Y-107215600D01*
X175694266Y-106882266D02*
X174994266Y-106882266D01*
X174994266Y-106715600D01*
X175027600Y-106615600D01*
X175094266Y-106548933D01*
X175160933Y-106515600D01*
X175294266Y-106482266D01*
X175394266Y-106482266D01*
X175527600Y-106515600D01*
X175594266Y-106548933D01*
X175660933Y-106615600D01*
X175694266Y-106715600D01*
X175694266Y-106882266D01*
X175694266Y-106182266D02*
X174994266Y-106182266D01*
X175694266Y-105315600D02*
X174994266Y-105315600D01*
X174994266Y-105048933D01*
X175027600Y-104982266D01*
X175060933Y-104948933D01*
X175127600Y-104915600D01*
X175227600Y-104915600D01*
X175294266Y-104948933D01*
X175327600Y-104982266D01*
X175360933Y-105048933D01*
X175360933Y-105315600D01*
X175694266Y-104615600D02*
X175227600Y-104615600D01*
X175360933Y-104615600D02*
X175294266Y-104582266D01*
X175260933Y-104548933D01*
X175227600Y-104482266D01*
X175227600Y-104415600D01*
X175694266Y-104082266D02*
X175660933Y-104148933D01*
X175627600Y-104182266D01*
X175560933Y-104215600D01*
X175360933Y-104215600D01*
X175294266Y-104182266D01*
X175260933Y-104148933D01*
X175227600Y-104082266D01*
X175227600Y-103982266D01*
X175260933Y-103915600D01*
X175294266Y-103882266D01*
X175360933Y-103848933D01*
X175560933Y-103848933D01*
X175627600Y-103882266D01*
X175660933Y-103915600D01*
X175694266Y-103982266D01*
X175694266Y-104082266D01*
X175227600Y-103648933D02*
X175227600Y-103382266D01*
X174994266Y-103548933D02*
X175594266Y-103548933D01*
X175660933Y-103515600D01*
X175694266Y-103448933D01*
X175694266Y-103382266D01*
X175694266Y-103048933D02*
X175660933Y-103115600D01*
X175627600Y-103148933D01*
X175560933Y-103182266D01*
X175360933Y-103182266D01*
X175294266Y-103148933D01*
X175260933Y-103115600D01*
X175227600Y-103048933D01*
X175227600Y-102948933D01*
X175260933Y-102882266D01*
X175294266Y-102848933D01*
X175360933Y-102815600D01*
X175560933Y-102815600D01*
X175627600Y-102848933D01*
X175660933Y-102882266D01*
X175694266Y-102948933D01*
X175694266Y-103048933D01*
X175660933Y-102015600D02*
X175694266Y-101915600D01*
X175694266Y-101748933D01*
X175660933Y-101682266D01*
X175627600Y-101648933D01*
X175560933Y-101615600D01*
X175494266Y-101615600D01*
X175427600Y-101648933D01*
X175394266Y-101682266D01*
X175360933Y-101748933D01*
X175327600Y-101882266D01*
X175294266Y-101948933D01*
X175260933Y-101982266D01*
X175194266Y-102015600D01*
X175127600Y-102015600D01*
X175060933Y-101982266D01*
X175027600Y-101948933D01*
X174994266Y-101882266D01*
X174994266Y-101715600D01*
X175027600Y-101615600D01*
X175694266Y-101315600D02*
X174994266Y-101315600D01*
X175694266Y-101015600D02*
X175327600Y-101015600D01*
X175260933Y-101048933D01*
X175227600Y-101115600D01*
X175227600Y-101215600D01*
X175260933Y-101282266D01*
X175294266Y-101315600D01*
X175694266Y-100682266D02*
X175227600Y-100682266D01*
X174994266Y-100682266D02*
X175027600Y-100715600D01*
X175060933Y-100682266D01*
X175027600Y-100648933D01*
X174994266Y-100682266D01*
X175060933Y-100682266D01*
X175660933Y-100082266D02*
X175694266Y-100148933D01*
X175694266Y-100282266D01*
X175660933Y-100348933D01*
X175594266Y-100382266D01*
X175327600Y-100382266D01*
X175260933Y-100348933D01*
X175227600Y-100282266D01*
X175227600Y-100148933D01*
X175260933Y-100082266D01*
X175327600Y-100048933D01*
X175394266Y-100048933D01*
X175460933Y-100382266D01*
X175694266Y-99648933D02*
X175660933Y-99715600D01*
X175594266Y-99748933D01*
X174994266Y-99748933D01*
X175694266Y-99082266D02*
X174994266Y-99082266D01*
X175660933Y-99082266D02*
X175694266Y-99148933D01*
X175694266Y-99282266D01*
X175660933Y-99348933D01*
X175627600Y-99382266D01*
X175560933Y-99415600D01*
X175360933Y-99415600D01*
X175294266Y-99382266D01*
X175260933Y-99348933D01*
X175227600Y-99282266D01*
X175227600Y-99148933D01*
X175260933Y-99082266D01*
X176821266Y-109398933D02*
X176121266Y-109398933D01*
X176787933Y-109398933D02*
X176821266Y-109465600D01*
X176821266Y-109598933D01*
X176787933Y-109665600D01*
X176754600Y-109698933D01*
X176687933Y-109732266D01*
X176487933Y-109732266D01*
X176421266Y-109698933D01*
X176387933Y-109665600D01*
X176354600Y-109598933D01*
X176354600Y-109465600D01*
X176387933Y-109398933D01*
X176821266Y-109065600D02*
X176354600Y-109065600D01*
X176121266Y-109065600D02*
X176154600Y-109098933D01*
X176187933Y-109065600D01*
X176154600Y-109032266D01*
X176121266Y-109065600D01*
X176187933Y-109065600D01*
X176354600Y-108798933D02*
X176821266Y-108632266D01*
X176354600Y-108465600D02*
X176821266Y-108632266D01*
X176987933Y-108698933D01*
X177021266Y-108732266D01*
X177054600Y-108798933D01*
X176787933Y-107932266D02*
X176821266Y-107998933D01*
X176821266Y-108132266D01*
X176787933Y-108198933D01*
X176721266Y-108232266D01*
X176454600Y-108232266D01*
X176387933Y-108198933D01*
X176354600Y-108132266D01*
X176354600Y-107998933D01*
X176387933Y-107932266D01*
X176454600Y-107898933D01*
X176521266Y-107898933D01*
X176587933Y-108232266D01*
X176821266Y-107498933D02*
X176787933Y-107565600D01*
X176721266Y-107598933D01*
X176121266Y-107598933D01*
X176787933Y-106965600D02*
X176821266Y-107032266D01*
X176821266Y-107165600D01*
X176787933Y-107232266D01*
X176721266Y-107265600D01*
X176454600Y-107265600D01*
X176387933Y-107232266D01*
X176354600Y-107165600D01*
X176354600Y-107032266D01*
X176387933Y-106965600D01*
X176454600Y-106932266D01*
X176521266Y-106932266D01*
X176587933Y-107265600D01*
X176787933Y-106332266D02*
X176821266Y-106398933D01*
X176821266Y-106532266D01*
X176787933Y-106598933D01*
X176754600Y-106632266D01*
X176687933Y-106665600D01*
X176487933Y-106665600D01*
X176421266Y-106632266D01*
X176387933Y-106598933D01*
X176354600Y-106532266D01*
X176354600Y-106398933D01*
X176387933Y-106332266D01*
X176354600Y-106132266D02*
X176354600Y-105865600D01*
X176121266Y-106032266D02*
X176721266Y-106032266D01*
X176787933Y-105998933D01*
X176821266Y-105932266D01*
X176821266Y-105865600D01*
X176821266Y-105632266D02*
X176354600Y-105632266D01*
X176487933Y-105632266D02*
X176421266Y-105598933D01*
X176387933Y-105565600D01*
X176354600Y-105498933D01*
X176354600Y-105432266D01*
X176821266Y-105098933D02*
X176787933Y-105165600D01*
X176754600Y-105198933D01*
X176687933Y-105232266D01*
X176487933Y-105232266D01*
X176421266Y-105198933D01*
X176387933Y-105165600D01*
X176354600Y-105098933D01*
X176354600Y-104998933D01*
X176387933Y-104932266D01*
X176421266Y-104898933D01*
X176487933Y-104865600D01*
X176687933Y-104865600D01*
X176754600Y-104898933D01*
X176787933Y-104932266D01*
X176821266Y-104998933D01*
X176821266Y-105098933D01*
X176821266Y-104565600D02*
X176354600Y-104565600D01*
X176421266Y-104565600D02*
X176387933Y-104532266D01*
X176354600Y-104465600D01*
X176354600Y-104365600D01*
X176387933Y-104298933D01*
X176454600Y-104265600D01*
X176821266Y-104265600D01*
X176454600Y-104265600D02*
X176387933Y-104232266D01*
X176354600Y-104165600D01*
X176354600Y-104065600D01*
X176387933Y-103998933D01*
X176454600Y-103965600D01*
X176821266Y-103965600D01*
X176354600Y-103332266D02*
X176821266Y-103332266D01*
X176354600Y-103632266D02*
X176721266Y-103632266D01*
X176787933Y-103598933D01*
X176821266Y-103532266D01*
X176821266Y-103432266D01*
X176787933Y-103365600D01*
X176754600Y-103332266D01*
X176787933Y-103032266D02*
X176821266Y-102965600D01*
X176821266Y-102832266D01*
X176787933Y-102765600D01*
X176721266Y-102732266D01*
X176687933Y-102732266D01*
X176621266Y-102765600D01*
X176587933Y-102832266D01*
X176587933Y-102932266D01*
X176554600Y-102998933D01*
X176487933Y-103032266D01*
X176454600Y-103032266D01*
X176387933Y-102998933D01*
X176354600Y-102932266D01*
X176354600Y-102832266D01*
X176387933Y-102765600D01*
X176821266Y-102432266D02*
X176354600Y-102432266D01*
X176121266Y-102432266D02*
X176154600Y-102465600D01*
X176187933Y-102432266D01*
X176154600Y-102398933D01*
X176121266Y-102432266D01*
X176187933Y-102432266D01*
X176787933Y-101798933D02*
X176821266Y-101865600D01*
X176821266Y-101998933D01*
X176787933Y-102065600D01*
X176754600Y-102098933D01*
X176687933Y-102132266D01*
X176487933Y-102132266D01*
X176421266Y-102098933D01*
X176387933Y-102065600D01*
X176354600Y-101998933D01*
X176354600Y-101865600D01*
X176387933Y-101798933D01*
X177481600Y-108365600D02*
X177948266Y-108198933D01*
X177481600Y-108032266D01*
X177248266Y-107632266D02*
X177248266Y-107565600D01*
X177281600Y-107498933D01*
X177314933Y-107465600D01*
X177381600Y-107432266D01*
X177514933Y-107398933D01*
X177681600Y-107398933D01*
X177814933Y-107432266D01*
X177881600Y-107465600D01*
X177914933Y-107498933D01*
X177948266Y-107565600D01*
X177948266Y-107632266D01*
X177914933Y-107698933D01*
X177881600Y-107732266D01*
X177814933Y-107765600D01*
X177681600Y-107798933D01*
X177514933Y-107798933D01*
X177381600Y-107765600D01*
X177314933Y-107732266D01*
X177281600Y-107698933D01*
X177248266Y-107632266D01*
X177881600Y-107098933D02*
X177914933Y-107065600D01*
X177948266Y-107098933D01*
X177914933Y-107132266D01*
X177881600Y-107098933D01*
X177948266Y-107098933D01*
X177948266Y-106398933D02*
X177948266Y-106798933D01*
X177948266Y-106598933D02*
X177248266Y-106598933D01*
X177348266Y-106665600D01*
X177414933Y-106732266D01*
X177448266Y-106798933D01*
X177314933Y-105598933D02*
X177281600Y-105565600D01*
X177248266Y-105498933D01*
X177248266Y-105332266D01*
X177281600Y-105265600D01*
X177314933Y-105232266D01*
X177381600Y-105198933D01*
X177448266Y-105198933D01*
X177548266Y-105232266D01*
X177948266Y-105632266D01*
X177948266Y-105198933D01*
X177248266Y-104765600D02*
X177248266Y-104698933D01*
X177281600Y-104632266D01*
X177314933Y-104598933D01*
X177381600Y-104565600D01*
X177514933Y-104532266D01*
X177681600Y-104532266D01*
X177814933Y-104565600D01*
X177881600Y-104598933D01*
X177914933Y-104632266D01*
X177948266Y-104698933D01*
X177948266Y-104765600D01*
X177914933Y-104832266D01*
X177881600Y-104865600D01*
X177814933Y-104898933D01*
X177681600Y-104932266D01*
X177514933Y-104932266D01*
X177381600Y-104898933D01*
X177314933Y-104865600D01*
X177281600Y-104832266D01*
X177248266Y-104765600D01*
X177314933Y-104265600D02*
X177281600Y-104232266D01*
X177248266Y-104165600D01*
X177248266Y-103998933D01*
X177281600Y-103932266D01*
X177314933Y-103898933D01*
X177381600Y-103865600D01*
X177448266Y-103865600D01*
X177548266Y-103898933D01*
X177948266Y-104298933D01*
X177948266Y-103865600D01*
X177314933Y-103598933D02*
X177281600Y-103565600D01*
X177248266Y-103498933D01*
X177248266Y-103332266D01*
X177281600Y-103265600D01*
X177314933Y-103232266D01*
X177381600Y-103198933D01*
X177448266Y-103198933D01*
X177548266Y-103232266D01*
X177948266Y-103632266D01*
X177948266Y-103198933D01*
%TO.C,U1*%
X134661495Y-98207580D02*
X134471019Y-98207580D01*
X134375780Y-98255200D01*
X134328161Y-98302819D01*
X134232923Y-98445676D01*
X134185304Y-98636152D01*
X134185304Y-99017104D01*
X134232923Y-99112342D01*
X134280542Y-99159961D01*
X134375780Y-99207580D01*
X134566257Y-99207580D01*
X134661495Y-99159961D01*
X134709114Y-99112342D01*
X134756733Y-99017104D01*
X134756733Y-98779009D01*
X134709114Y-98683771D01*
X134661495Y-98636152D01*
X134566257Y-98588533D01*
X134375780Y-98588533D01*
X134280542Y-98636152D01*
X134232923Y-98683771D01*
X134185304Y-98779009D01*
X135185304Y-99207580D02*
X135185304Y-98207580D01*
X135756733Y-99207580D01*
X135756733Y-98207580D01*
X136756733Y-99207580D02*
X136185304Y-99207580D01*
X136471019Y-99207580D02*
X136471019Y-98207580D01*
X136375780Y-98350438D01*
X136280542Y-98445676D01*
X136185304Y-98493295D01*
X137090066Y-98207580D02*
X137709114Y-98207580D01*
X137375780Y-98588533D01*
X137518638Y-98588533D01*
X137613876Y-98636152D01*
X137661495Y-98683771D01*
X137709114Y-98779009D01*
X137709114Y-99017104D01*
X137661495Y-99112342D01*
X137613876Y-99159961D01*
X137518638Y-99207580D01*
X137232923Y-99207580D01*
X137137685Y-99159961D01*
X137090066Y-99112342D01*
X138280542Y-98636152D02*
X138185304Y-98588533D01*
X138137685Y-98540914D01*
X138090066Y-98445676D01*
X138090066Y-98398057D01*
X138137685Y-98302819D01*
X138185304Y-98255200D01*
X138280542Y-98207580D01*
X138471019Y-98207580D01*
X138566257Y-98255200D01*
X138613876Y-98302819D01*
X138661495Y-98398057D01*
X138661495Y-98445676D01*
X138613876Y-98540914D01*
X138566257Y-98588533D01*
X138471019Y-98636152D01*
X138280542Y-98636152D01*
X138185304Y-98683771D01*
X138137685Y-98731390D01*
X138090066Y-98826628D01*
X138090066Y-99017104D01*
X138137685Y-99112342D01*
X138185304Y-99159961D01*
X138280542Y-99207580D01*
X138471019Y-99207580D01*
X138566257Y-99159961D01*
X138613876Y-99112342D01*
X138661495Y-99017104D01*
X138661495Y-98826628D01*
X138613876Y-98731390D01*
X138566257Y-98683771D01*
X138471019Y-98636152D01*
%TO.C,*%
%TO.C,J6*%
X135647133Y-86019980D02*
X135313800Y-85543790D01*
X135075704Y-86019980D02*
X135075704Y-85019980D01*
X135456657Y-85019980D01*
X135551895Y-85067600D01*
X135599514Y-85115219D01*
X135647133Y-85210457D01*
X135647133Y-85353314D01*
X135599514Y-85448552D01*
X135551895Y-85496171D01*
X135456657Y-85543790D01*
X135075704Y-85543790D01*
X135980466Y-85019980D02*
X136647133Y-86019980D01*
X136647133Y-85019980D02*
X135980466Y-86019980D01*
%TO.C,*%
%TO.C,R3*%
X135312304Y-91521019D02*
X135359923Y-91473400D01*
X135455161Y-91425780D01*
X135693257Y-91425780D01*
X135788495Y-91473400D01*
X135836114Y-91521019D01*
X135883733Y-91616257D01*
X135883733Y-91711495D01*
X135836114Y-91854352D01*
X135264685Y-92425780D01*
X135883733Y-92425780D01*
X136264685Y-91521019D02*
X136312304Y-91473400D01*
X136407542Y-91425780D01*
X136645638Y-91425780D01*
X136740876Y-91473400D01*
X136788495Y-91521019D01*
X136836114Y-91616257D01*
X136836114Y-91711495D01*
X136788495Y-91854352D01*
X136217066Y-92425780D01*
X136836114Y-92425780D01*
X137455161Y-91425780D02*
X137550400Y-91425780D01*
X137645638Y-91473400D01*
X137693257Y-91521019D01*
X137740876Y-91616257D01*
X137788495Y-91806733D01*
X137788495Y-92044828D01*
X137740876Y-92235304D01*
X137693257Y-92330542D01*
X137645638Y-92378161D01*
X137550400Y-92425780D01*
X137455161Y-92425780D01*
X137359923Y-92378161D01*
X137312304Y-92330542D01*
X137264685Y-92235304D01*
X137217066Y-92044828D01*
X137217066Y-91806733D01*
X137264685Y-91616257D01*
X137312304Y-91521019D01*
X137359923Y-91473400D01*
X137455161Y-91425780D01*
%TO.C,*%
%TO.C,R5*%
X135337704Y-108615219D02*
X135385323Y-108567600D01*
X135480561Y-108519980D01*
X135718657Y-108519980D01*
X135813895Y-108567600D01*
X135861514Y-108615219D01*
X135909133Y-108710457D01*
X135909133Y-108805695D01*
X135861514Y-108948552D01*
X135290085Y-109519980D01*
X135909133Y-109519980D01*
X136290085Y-108615219D02*
X136337704Y-108567600D01*
X136432942Y-108519980D01*
X136671038Y-108519980D01*
X136766276Y-108567600D01*
X136813895Y-108615219D01*
X136861514Y-108710457D01*
X136861514Y-108805695D01*
X136813895Y-108948552D01*
X136242466Y-109519980D01*
X136861514Y-109519980D01*
X137480561Y-108519980D02*
X137575800Y-108519980D01*
X137671038Y-108567600D01*
X137718657Y-108615219D01*
X137766276Y-108710457D01*
X137813895Y-108900933D01*
X137813895Y-109139028D01*
X137766276Y-109329504D01*
X137718657Y-109424742D01*
X137671038Y-109472361D01*
X137575800Y-109519980D01*
X137480561Y-109519980D01*
X137385323Y-109472361D01*
X137337704Y-109424742D01*
X137290085Y-109329504D01*
X137242466Y-109139028D01*
X137242466Y-108900933D01*
X137290085Y-108710457D01*
X137337704Y-108615219D01*
X137385323Y-108567600D01*
X137480561Y-108519980D01*
%TO.C,*%
%TO.C,D1*%
X134807533Y-88971380D02*
X134236104Y-88971380D01*
X134521819Y-88971380D02*
X134521819Y-87971380D01*
X134426580Y-88114238D01*
X134331342Y-88209476D01*
X134236104Y-88257095D01*
X135236104Y-88971380D02*
X135236104Y-87971380D01*
X135807533Y-88971380D01*
X135807533Y-87971380D01*
X136331342Y-88971380D02*
X136521819Y-88971380D01*
X136617057Y-88923761D01*
X136664676Y-88876142D01*
X136759914Y-88733285D01*
X136807533Y-88542809D01*
X136807533Y-88161857D01*
X136759914Y-88066619D01*
X136712295Y-88019000D01*
X136617057Y-87971380D01*
X136426580Y-87971380D01*
X136331342Y-88019000D01*
X136283723Y-88066619D01*
X136236104Y-88161857D01*
X136236104Y-88399952D01*
X136283723Y-88495190D01*
X136331342Y-88542809D01*
X136426580Y-88590428D01*
X136617057Y-88590428D01*
X136712295Y-88542809D01*
X136759914Y-88495190D01*
X136807533Y-88399952D01*
X137759914Y-88971380D02*
X137188485Y-88971380D01*
X137474200Y-88971380D02*
X137474200Y-87971380D01*
X137378961Y-88114238D01*
X137283723Y-88209476D01*
X137188485Y-88257095D01*
X138617057Y-88304714D02*
X138617057Y-88971380D01*
X138378961Y-87923761D02*
X138140866Y-88638047D01*
X138759914Y-88638047D01*
%TO.C,*%
%TO.C,R4*%
X135637685Y-112307714D02*
X135637685Y-112974380D01*
X135399590Y-111926761D02*
X135161495Y-112641047D01*
X135780542Y-112641047D01*
X136161495Y-112974380D02*
X136161495Y-111974380D01*
X136732923Y-112974380D02*
X136304352Y-112402952D01*
X136732923Y-111974380D02*
X136161495Y-112545809D01*
X137066257Y-111974380D02*
X137732923Y-111974380D01*
X137304352Y-112974380D01*
%TO.C,*%
%TO.C,C1*%
X130379980Y-106319580D02*
X129808552Y-106319580D01*
X130094266Y-106319580D02*
X130094266Y-105319580D01*
X129999028Y-105462438D01*
X129903790Y-105557676D01*
X129808552Y-105605295D01*
X130999028Y-105319580D02*
X131094266Y-105319580D01*
X131189504Y-105367200D01*
X131237123Y-105414819D01*
X131284742Y-105510057D01*
X131332361Y-105700533D01*
X131332361Y-105938628D01*
X131284742Y-106129104D01*
X131237123Y-106224342D01*
X131189504Y-106271961D01*
X131094266Y-106319580D01*
X130999028Y-106319580D01*
X130903790Y-106271961D01*
X130856171Y-106224342D01*
X130808552Y-106129104D01*
X130760933Y-105938628D01*
X130760933Y-105700533D01*
X130808552Y-105510057D01*
X130856171Y-105414819D01*
X130903790Y-105367200D01*
X130999028Y-105319580D01*
X131951409Y-105319580D02*
X132046647Y-105319580D01*
X132141885Y-105367200D01*
X132189504Y-105414819D01*
X132237123Y-105510057D01*
X132284742Y-105700533D01*
X132284742Y-105938628D01*
X132237123Y-106129104D01*
X132189504Y-106224342D01*
X132141885Y-106271961D01*
X132046647Y-106319580D01*
X131951409Y-106319580D01*
X131856171Y-106271961D01*
X131808552Y-106224342D01*
X131760933Y-106129104D01*
X131713314Y-105938628D01*
X131713314Y-105700533D01*
X131760933Y-105510057D01*
X131808552Y-105414819D01*
X131856171Y-105367200D01*
X131951409Y-105319580D01*
X133141885Y-105652914D02*
X133141885Y-106319580D01*
X132713314Y-105652914D02*
X132713314Y-106176723D01*
X132760933Y-106271961D01*
X132856171Y-106319580D01*
X132999028Y-106319580D01*
X133094266Y-106271961D01*
X133141885Y-106224342D01*
X133951409Y-105795771D02*
X133618076Y-105795771D01*
X133618076Y-106319580D02*
X133618076Y-105319580D01*
X134094266Y-105319580D01*
%TO.C,*%
D11*
%TO.C,IN1*%
X116930714Y-78032428D02*
X116930714Y-76508428D01*
X117656428Y-78032428D02*
X117656428Y-76508428D01*
X118527285Y-78032428D01*
X118527285Y-76508428D01*
D10*
%TO.C,*%
D11*
%TO.C,OUT1*%
X116713000Y-120958428D02*
X117003285Y-120958428D01*
X117148428Y-121031000D01*
X117293571Y-121176142D01*
X117366142Y-121466428D01*
X117366142Y-121974428D01*
X117293571Y-122264714D01*
X117148428Y-122409857D01*
X117003285Y-122482428D01*
X116713000Y-122482428D01*
X116567857Y-122409857D01*
X116422714Y-122264714D01*
X116350142Y-121974428D01*
X116350142Y-121466428D01*
X116422714Y-121176142D01*
X116567857Y-121031000D01*
X116713000Y-120958428D01*
X118019285Y-120958428D02*
X118019285Y-122192142D01*
X118091857Y-122337285D01*
X118164428Y-122409857D01*
X118309571Y-122482428D01*
X118599857Y-122482428D01*
X118745000Y-122409857D01*
X118817571Y-122337285D01*
X118890142Y-122192142D01*
X118890142Y-120958428D01*
X119398142Y-120958428D02*
X120269000Y-120958428D01*
X119833571Y-122482428D02*
X119833571Y-120958428D01*
D10*
%TO.C,*%
%TO.C,R1*%
X135464704Y-119207019D02*
X135512323Y-119159400D01*
X135607561Y-119111780D01*
X135845657Y-119111780D01*
X135940895Y-119159400D01*
X135988514Y-119207019D01*
X136036133Y-119302257D01*
X136036133Y-119397495D01*
X135988514Y-119540352D01*
X135417085Y-120111780D01*
X136036133Y-120111780D01*
X136417085Y-119207019D02*
X136464704Y-119159400D01*
X136559942Y-119111780D01*
X136798038Y-119111780D01*
X136893276Y-119159400D01*
X136940895Y-119207019D01*
X136988514Y-119302257D01*
X136988514Y-119397495D01*
X136940895Y-119540352D01*
X136369466Y-120111780D01*
X136988514Y-120111780D01*
X137607561Y-119111780D02*
X137702800Y-119111780D01*
X137798038Y-119159400D01*
X137845657Y-119207019D01*
X137893276Y-119302257D01*
X137940895Y-119492733D01*
X137940895Y-119730828D01*
X137893276Y-119921304D01*
X137845657Y-120016542D01*
X137798038Y-120064161D01*
X137702800Y-120111780D01*
X137607561Y-120111780D01*
X137512323Y-120064161D01*
X137464704Y-120016542D01*
X137417085Y-119921304D01*
X137369466Y-119730828D01*
X137369466Y-119492733D01*
X137417085Y-119302257D01*
X137464704Y-119207019D01*
X137512323Y-119159400D01*
X137607561Y-119111780D01*
%TO.C,*%
%TO.C,R2*%
X135363104Y-115625619D02*
X135410723Y-115578000D01*
X135505961Y-115530380D01*
X135744057Y-115530380D01*
X135839295Y-115578000D01*
X135886914Y-115625619D01*
X135934533Y-115720857D01*
X135934533Y-115816095D01*
X135886914Y-115958952D01*
X135315485Y-116530380D01*
X135934533Y-116530380D01*
X136315485Y-115625619D02*
X136363104Y-115578000D01*
X136458342Y-115530380D01*
X136696438Y-115530380D01*
X136791676Y-115578000D01*
X136839295Y-115625619D01*
X136886914Y-115720857D01*
X136886914Y-115816095D01*
X136839295Y-115958952D01*
X136267866Y-116530380D01*
X136886914Y-116530380D01*
X137505961Y-115530380D02*
X137601200Y-115530380D01*
X137696438Y-115578000D01*
X137744057Y-115625619D01*
X137791676Y-115720857D01*
X137839295Y-115911333D01*
X137839295Y-116149428D01*
X137791676Y-116339904D01*
X137744057Y-116435142D01*
X137696438Y-116482761D01*
X137601200Y-116530380D01*
X137505961Y-116530380D01*
X137410723Y-116482761D01*
X137363104Y-116435142D01*
X137315485Y-116339904D01*
X137267866Y-116149428D01*
X137267866Y-115911333D01*
X137315485Y-115720857D01*
X137363104Y-115625619D01*
X137410723Y-115578000D01*
X137505961Y-115530380D01*
%TO.C,*%
%TO.C,J5*%
X131368895Y-84994580D02*
X131940323Y-84994580D01*
X131654609Y-85994580D02*
X131654609Y-84994580D01*
X132178419Y-84994580D02*
X132845085Y-85994580D01*
X132845085Y-84994580D02*
X132178419Y-85994580D01*
%TO.C,*%
D12*
%TO.C,J4*%
X155956000Y-79162600D02*
X173796000Y-79162600D01*
X173796000Y-81822600D02*
X173796000Y-79162600D01*
X155956000Y-81822600D02*
X155956000Y-79162600D01*
X155956000Y-81822600D02*
X173796000Y-81822600D01*
%TO.C,U1*%
X141553400Y-101389800D02*
X141553400Y-99739800D01*
X141553400Y-96089800D02*
X131273400Y-96089800D01*
X131273400Y-101389800D02*
X141553400Y-101389800D01*
X141553400Y-97739800D02*
X141553400Y-96089800D01*
X131273400Y-96089800D02*
X131273400Y-101389800D01*
X141553400Y-97739800D02*
G75*
G03*
X141553400Y-99739800I0J-1000000D01*
G01*
D10*
%TO.C,P1*%
X157988000Y-125095000D02*
X157988000Y-122555000D01*
X140208000Y-125095000D02*
X157988000Y-125095000D01*
X157988000Y-122555000D02*
X140208000Y-122555000D01*
X138938000Y-122275000D02*
X137388000Y-122275000D01*
X137388000Y-122275000D02*
X137388000Y-125375000D01*
X137388000Y-125375000D02*
X138938000Y-125375000D01*
X140208000Y-125095000D02*
X140208000Y-122555000D01*
%TO.C,P2*%
X163068000Y-125095000D02*
X163068000Y-122555000D01*
X161798000Y-122275000D02*
X160248000Y-122275000D01*
X175768000Y-122555000D02*
X163068000Y-122555000D01*
X163068000Y-125095000D02*
X175768000Y-125095000D01*
X175768000Y-125095000D02*
X175768000Y-122555000D01*
X160248000Y-122275000D02*
X160248000Y-125375000D01*
X160248000Y-125375000D02*
X161798000Y-125375000D01*
%TO.C,P3*%
X128244000Y-74015000D02*
X128244000Y-77115000D01*
X131064000Y-76835000D02*
X153924000Y-76835000D01*
X153924000Y-76835000D02*
X153924000Y-74295000D01*
X153924000Y-74295000D02*
X131064000Y-74295000D01*
X129794000Y-74015000D02*
X128244000Y-74015000D01*
X128244000Y-77115000D02*
X129794000Y-77115000D01*
X131064000Y-76835000D02*
X131064000Y-74295000D01*
%TO.C,P4*%
X175768000Y-74295000D02*
X157988000Y-74295000D01*
X155168000Y-77115000D02*
X156718000Y-77115000D01*
X157988000Y-76835000D02*
X175768000Y-76835000D01*
X157988000Y-76835000D02*
X157988000Y-74295000D01*
X156718000Y-74015000D02*
X155168000Y-74015000D01*
X175768000Y-76835000D02*
X175768000Y-74295000D01*
X155168000Y-74015000D02*
X155168000Y-77115000D01*
%TO.C,P5*%
X127254000Y-123825000D02*
G75*
G03*
X127254000Y-123825000I-2286000J0D01*
G01*
%TO.C,P6*%
X179324000Y-118745000D02*
G75*
G03*
X179324000Y-118745000I-2286000J0D01*
G01*
%TO.C,P7*%
X128524000Y-75565000D02*
G75*
G03*
X128524000Y-75565000I-2286000J0D01*
G01*
%TO.C,P8*%
X179324000Y-90805000D02*
G75*
G03*
X179324000Y-90805000I-2286000J0D01*
G01*
D12*
%TO.C,J6*%
X134509200Y-84662400D02*
X137169200Y-84662400D01*
X134509200Y-80792400D02*
X134509200Y-79462400D01*
X134509200Y-82062400D02*
X134509200Y-84662400D01*
X137169200Y-82062400D02*
X137169200Y-84662400D01*
X134509200Y-79462400D02*
X135839200Y-79462400D01*
X134509200Y-82062400D02*
X137169200Y-82062400D01*
%TO.C,J3*%
X140716000Y-79162600D02*
X153476000Y-79162600D01*
X140716000Y-81822600D02*
X140716000Y-79162600D01*
X153476000Y-81822600D02*
X153476000Y-79162600D01*
X140716000Y-81822600D02*
X153476000Y-81822600D01*
X139446000Y-81822600D02*
X138116000Y-81822600D01*
X138116000Y-81822600D02*
X138116000Y-80492600D01*
%TO.C,R3*%
X133128000Y-90806400D02*
X133128000Y-90476400D01*
X133128000Y-93216400D02*
X139668000Y-93216400D01*
X133128000Y-90476400D02*
X139668000Y-90476400D01*
X133128000Y-92886400D02*
X133128000Y-93216400D01*
X139668000Y-93216400D02*
X139668000Y-92886400D01*
X139668000Y-90476400D02*
X139668000Y-90806400D01*
%TO.C,R5*%
X133255000Y-107723000D02*
X133255000Y-108053000D01*
X133255000Y-110463000D02*
X133255000Y-110133000D01*
X139795000Y-108053000D02*
X139795000Y-107723000D01*
X139795000Y-110463000D02*
X133255000Y-110463000D01*
X139795000Y-110133000D02*
X139795000Y-110463000D01*
X139795000Y-107723000D02*
X133255000Y-107723000D01*
%TO.C,D1*%
X137918000Y-89664400D02*
X137918000Y-87424400D01*
X133628000Y-88544400D02*
X134278000Y-88544400D01*
X138518000Y-87424400D02*
X134278000Y-87424400D01*
X137798000Y-89664400D02*
X137798000Y-87424400D01*
X137678000Y-89664400D02*
X137678000Y-87424400D01*
X138518000Y-89664400D02*
X138518000Y-87424400D01*
X134278000Y-89664400D02*
X138518000Y-89664400D01*
X134278000Y-87424400D02*
X134278000Y-89664400D01*
X139168000Y-88544400D02*
X138518000Y-88544400D01*
%TO.C,R4*%
X139795000Y-111482000D02*
X139795000Y-111152000D01*
X133255000Y-111152000D02*
X133255000Y-111482000D01*
X133255000Y-113892000D02*
X133255000Y-113562000D01*
X139795000Y-111152000D02*
X133255000Y-111152000D01*
X139795000Y-113892000D02*
X133255000Y-113892000D01*
X139795000Y-113562000D02*
X139795000Y-113892000D01*
%TO.C,C1*%
X134675000Y-104739000D02*
X134675000Y-104294000D01*
X134675000Y-107034000D02*
X134675000Y-106589000D01*
X140915000Y-104294000D02*
X134675000Y-104294000D01*
X140915000Y-107034000D02*
X134675000Y-107034000D01*
X140915000Y-104739000D02*
X140915000Y-104294000D01*
X140915000Y-107034000D02*
X140915000Y-106589000D01*
D11*
%TO.C,IN1*%
X129522220Y-79519780D02*
X112522000Y-79519780D01*
X111772700Y-79519780D02*
X111772700Y-99019360D01*
X112024160Y-97017840D02*
X112522000Y-97017840D01*
X127523240Y-83019900D02*
X127523240Y-86520020D01*
X111523780Y-78018640D02*
X111523780Y-79519780D01*
X129522220Y-90517980D02*
X127523240Y-90517980D01*
X130022600Y-90020140D02*
X129522220Y-90517980D01*
X111023400Y-78018640D02*
X111523780Y-78018640D01*
X129522220Y-94018100D02*
X127523240Y-94018100D01*
X130022600Y-95018860D02*
X130022600Y-94518480D01*
X112522000Y-80020160D02*
X112024160Y-80020160D01*
X130022600Y-97017840D02*
X130022600Y-95018860D01*
X111523780Y-97518220D02*
X111523780Y-79519780D01*
X111523780Y-79519780D02*
X112024160Y-79519780D01*
X111272320Y-78018640D02*
X111272320Y-97518220D01*
X129522220Y-79519780D02*
X130022600Y-80020160D01*
X129522220Y-97518220D02*
X112522000Y-97518220D01*
X129522220Y-83019900D02*
X127523240Y-83019900D01*
X112522000Y-79519780D02*
X112522000Y-80020160D01*
X129522220Y-97518220D02*
X130022600Y-97017840D01*
X130022600Y-87017860D02*
X130022600Y-90020140D01*
X111523780Y-97518220D02*
X111023400Y-97518220D01*
X130022600Y-82519520D02*
X129522220Y-83019900D01*
X112024160Y-99019360D02*
X111523780Y-99019360D01*
X111023400Y-97518220D02*
X111023400Y-78018640D01*
X112522000Y-97518220D02*
X112522000Y-97017840D01*
X130022600Y-94518480D02*
X129522220Y-94018100D01*
X127523240Y-94018100D02*
X127523240Y-90517980D01*
X112024160Y-79519780D02*
X112024160Y-99019360D01*
X111523780Y-99019360D02*
X111523780Y-97518220D01*
X130022600Y-80020160D02*
X130022600Y-82519520D01*
X130022600Y-87017860D02*
X129522220Y-86520020D01*
X129522220Y-86520020D02*
X127523240Y-86520020D01*
%TO.C,OUT1*%
X130022600Y-119317840D02*
X130022600Y-117318860D01*
X111772700Y-101819780D02*
X111772700Y-121319360D01*
X112024160Y-119317840D02*
X112522000Y-119317840D01*
X127523240Y-105319900D02*
X127523240Y-108820020D01*
X112522000Y-119818220D02*
X112522000Y-119317840D01*
X129522220Y-105319900D02*
X127523240Y-105319900D01*
X130022600Y-112320140D02*
X129522220Y-112817980D01*
X130022600Y-102320160D02*
X130022600Y-104819520D01*
X129522220Y-101819780D02*
X130022600Y-102320160D01*
X129522220Y-101819780D02*
X112522000Y-101819780D01*
X112522000Y-101819780D02*
X112522000Y-102320160D01*
X129522220Y-119818220D02*
X130022600Y-119317840D01*
X129522220Y-112817980D02*
X127523240Y-112817980D01*
X111023400Y-119818220D02*
X111023400Y-100318640D01*
X112522000Y-102320160D02*
X112024160Y-102320160D01*
X130022600Y-117318860D02*
X130022600Y-116818480D01*
X111523780Y-119818220D02*
X111523780Y-101819780D01*
X111023400Y-100318640D02*
X111523780Y-100318640D01*
X111523780Y-101819780D02*
X112024160Y-101819780D01*
X127523240Y-116318100D02*
X127523240Y-112817980D01*
X111523780Y-100318640D02*
X111523780Y-101819780D01*
X129522220Y-108820020D02*
X127523240Y-108820020D01*
X112024160Y-101819780D02*
X112024160Y-121319360D01*
X112024160Y-121319360D02*
X111523780Y-121319360D01*
X130022600Y-109317860D02*
X129522220Y-108820020D01*
X130022600Y-104819520D02*
X129522220Y-105319900D01*
X129522220Y-119818220D02*
X112522000Y-119818220D01*
X130022600Y-116818480D02*
X129522220Y-116318100D01*
X130022600Y-109317860D02*
X130022600Y-112320140D01*
X111272320Y-100318640D02*
X111272320Y-119818220D01*
X111523780Y-121319360D02*
X111523780Y-119818220D01*
X111523780Y-119818220D02*
X111023400Y-119818220D01*
X129522220Y-116318100D02*
X127523240Y-116318100D01*
D12*
%TO.C,J2*%
X158436000Y-119922600D02*
X158436000Y-118592600D01*
X161036000Y-119922600D02*
X161036000Y-117262600D01*
X161036000Y-119922600D02*
X173796000Y-119922600D01*
X173796000Y-119922600D02*
X173796000Y-117262600D01*
X161036000Y-117262600D02*
X173796000Y-117262600D01*
X159766000Y-119922600D02*
X158436000Y-119922600D01*
%TO.C,R1*%
X139795000Y-121004000D02*
X133255000Y-121004000D01*
X133255000Y-121004000D02*
X133255000Y-120674000D01*
X139795000Y-118594000D02*
X139795000Y-118264000D01*
X133255000Y-118264000D02*
X133255000Y-118594000D01*
X139795000Y-120674000D02*
X139795000Y-121004000D01*
X139795000Y-118264000D02*
X133255000Y-118264000D01*
%TO.C,R2*%
X139795000Y-117448000D02*
X133255000Y-117448000D01*
X139795000Y-114708000D02*
X133255000Y-114708000D01*
X133255000Y-114708000D02*
X133255000Y-115038000D01*
X139795000Y-117118000D02*
X139795000Y-117448000D01*
X133255000Y-117448000D02*
X133255000Y-117118000D01*
X139795000Y-115038000D02*
X139795000Y-114708000D01*
%TO.C,J5*%
X130800800Y-82057400D02*
X133460800Y-82057400D01*
X133460800Y-82057400D02*
X133460800Y-84657400D01*
X130800800Y-84657400D02*
X133460800Y-84657400D01*
X130800800Y-79457400D02*
X132130800Y-79457400D01*
X130800800Y-82057400D02*
X130800800Y-84657400D01*
X130800800Y-80787400D02*
X130800800Y-79457400D01*
%TD*%
D13*
%TO.C,P1*%
X138938000Y-123825000D03*
X141478000Y-123825000D03*
X144018000Y-123825000D03*
X146558000Y-123825000D03*
X149098000Y-123825000D03*
X151638000Y-123825000D03*
X154178000Y-123825000D03*
X156718000Y-123825000D03*
%TD*%
%TO.C,P2*%
X161798000Y-123825000D03*
X164338000Y-123825000D03*
X166878000Y-123825000D03*
X169418000Y-123825000D03*
X171958000Y-123825000D03*
X174498000Y-123825000D03*
%TD*%
%TO.C,P3*%
X129794000Y-75565000D03*
X132334000Y-75565000D03*
X134874000Y-75565000D03*
X137414000Y-75565000D03*
X139954000Y-75565000D03*
X142494000Y-75565000D03*
X145034000Y-75565000D03*
X147574000Y-75565000D03*
X150114000Y-75565000D03*
X152654000Y-75565000D03*
%TD*%
%TO.C,P4*%
X156718000Y-75565000D03*
X159258000Y-75565000D03*
X161798000Y-75565000D03*
X164338000Y-75565000D03*
X166878000Y-75565000D03*
X169418000Y-75565000D03*
X171958000Y-75565000D03*
X174498000Y-75565000D03*
%TD*%
D14*
%TO.C,P5*%
X124968000Y-123825000D03*
%TD*%
%TO.C,P6*%
X177038000Y-118745000D03*
%TD*%
%TO.C,P7*%
X126238000Y-75565000D03*
%TD*%
%TO.C,P8*%
X177038000Y-90805000D03*
%TD*%
D15*
%TO.C,IN1*%
X113525300Y-83517740D03*
X113525300Y-93520260D03*
X123520200Y-96017080D03*
X123522740Y-88519000D03*
X123520200Y-81020920D03*
X126022100Y-93515180D03*
X126022100Y-83522820D03*
%TD*%
%TO.C,OUT1*%
X113525300Y-115820260D03*
X113525300Y-105817740D03*
X123520200Y-118317080D03*
X123522740Y-110819000D03*
X123520200Y-103320920D03*
X126022100Y-115815180D03*
X126022100Y-105822820D03*
%TD*%
M02*
