%TF.GenerationSoftware,KiCad,Pcbnew,(6.0.5)*%
%TF.CreationDate,2022-08-29T17:14:51+01:00*%
%TF.ProjectId,ArduinoMIDIProtoShield,41726475-696e-46f4-9d49-444950726f74,rev?*%
%TF.SameCoordinates,Original*%
%TF.FileFunction,Soldermask,Bot*%
%TF.FilePolarity,Negative*%
%FSLAX46Y46*%
G04 Gerber Fmt 4.6, Leading zero omitted, Abs format (unit mm)*
G04 Created by KiCad (PCBNEW (6.0.5)) date 2022-08-29 17:14:51*
%MOMM*%
%LPD*%
G01*
G04 APERTURE LIST*
%ADD10R,1.700000X1.700000*%
%ADD11O,1.700000X1.700000*%
%ADD12R,1.600000X1.600000*%
%ADD13O,1.600000X1.600000*%
%ADD14O,1.727200X2.032000*%
%ADD15C,4.064000*%
%ADD16C,1.700000*%
%ADD17C,1.600000*%
%ADD18C,2.499360*%
G04 APERTURE END LIST*
D10*
%TO.C,J4*%
X154686000Y-80492600D03*
D11*
X157226000Y-80492600D03*
X159766000Y-80492600D03*
X162306000Y-80492600D03*
X164846000Y-80492600D03*
X167386000Y-80492600D03*
X169926000Y-80492600D03*
X172466000Y-80492600D03*
%TD*%
D10*
%TO.C,J1*%
X144526000Y-118592600D03*
D11*
X147066000Y-118592600D03*
X149606000Y-118592600D03*
%TD*%
D12*
%TO.C,U1*%
X140223400Y-94929800D03*
D13*
X137683400Y-94929800D03*
X135143400Y-94929800D03*
X132603400Y-94929800D03*
X132603400Y-102549800D03*
X135143400Y-102549800D03*
X137683400Y-102549800D03*
X140223400Y-102549800D03*
%TD*%
D14*
%TO.C,P1*%
X138938000Y-123825000D03*
X141478000Y-123825000D03*
X144018000Y-123825000D03*
X146558000Y-123825000D03*
X149098000Y-123825000D03*
X151638000Y-123825000D03*
X154178000Y-123825000D03*
X156718000Y-123825000D03*
%TD*%
%TO.C,P2*%
X161798000Y-123825000D03*
X164338000Y-123825000D03*
X166878000Y-123825000D03*
X169418000Y-123825000D03*
X171958000Y-123825000D03*
X174498000Y-123825000D03*
%TD*%
%TO.C,P3*%
X129794000Y-75565000D03*
X132334000Y-75565000D03*
X134874000Y-75565000D03*
X137414000Y-75565000D03*
X139954000Y-75565000D03*
X142494000Y-75565000D03*
X145034000Y-75565000D03*
X147574000Y-75565000D03*
X150114000Y-75565000D03*
X152654000Y-75565000D03*
%TD*%
%TO.C,P4*%
X156718000Y-75565000D03*
X159258000Y-75565000D03*
X161798000Y-75565000D03*
X164338000Y-75565000D03*
X166878000Y-75565000D03*
X169418000Y-75565000D03*
X171958000Y-75565000D03*
X174498000Y-75565000D03*
%TD*%
D15*
%TO.C,P5*%
X124968000Y-123825000D03*
%TD*%
%TO.C,P6*%
X177038000Y-118745000D03*
%TD*%
%TO.C,P7*%
X126238000Y-75565000D03*
%TD*%
%TO.C,P8*%
X177038000Y-90805000D03*
%TD*%
D16*
%TO.C,*%
X162306000Y-110972600D03*
%TD*%
%TO.C,*%
X167386000Y-85572600D03*
%TD*%
%TO.C,*%
X169926000Y-110972600D03*
%TD*%
%TO.C,*%
X152146000Y-108432600D03*
%TD*%
%TO.C,*%
X164846000Y-100812600D03*
%TD*%
%TO.C,*%
X154686000Y-90652600D03*
%TD*%
%TO.C,*%
X172466000Y-116052600D03*
%TD*%
%TO.C,*%
X169926000Y-93192600D03*
%TD*%
%TO.C,*%
X154686000Y-116052600D03*
%TD*%
%TO.C,*%
X167386000Y-105892600D03*
%TD*%
%TO.C,*%
X167386000Y-116052600D03*
%TD*%
%TO.C,*%
X147066000Y-90652600D03*
%TD*%
%TO.C,*%
X147066000Y-88112600D03*
%TD*%
%TO.C,*%
X157200600Y-98272600D03*
%TD*%
%TO.C,*%
X144526000Y-90652600D03*
%TD*%
%TO.C,*%
X162306000Y-116052600D03*
%TD*%
%TO.C,*%
X157226000Y-108432600D03*
%TD*%
%TO.C,*%
X152146000Y-93192600D03*
%TD*%
%TO.C,*%
X147066000Y-83032600D03*
%TD*%
%TO.C,*%
X164846000Y-93192600D03*
%TD*%
%TO.C,*%
X147066000Y-85572600D03*
%TD*%
%TO.C,*%
X159766000Y-100812600D03*
%TD*%
%TO.C,*%
X157226000Y-90652600D03*
%TD*%
%TO.C,*%
X169926000Y-100812600D03*
%TD*%
D10*
%TO.C,J6*%
X135839200Y-80792400D03*
D11*
X135839200Y-83332400D03*
%TD*%
D16*
%TO.C,*%
X169926000Y-90652600D03*
%TD*%
%TO.C,*%
X144526000Y-100812600D03*
%TD*%
%TO.C,*%
X162280600Y-98272600D03*
%TD*%
%TO.C,*%
X149606000Y-105892600D03*
%TD*%
%TO.C,*%
X164846000Y-90652600D03*
%TD*%
%TO.C,*%
X159766000Y-88112600D03*
%TD*%
%TO.C,*%
X144526000Y-110972600D03*
%TD*%
%TO.C,*%
X144526000Y-113512600D03*
%TD*%
D10*
%TO.C,J3*%
X139446000Y-80492600D03*
D11*
X141986000Y-80492600D03*
X144526000Y-80492600D03*
X147066000Y-80492600D03*
X149606000Y-80492600D03*
X152146000Y-80492600D03*
%TD*%
D16*
%TO.C,*%
X169926000Y-88112600D03*
%TD*%
D17*
%TO.C,R3*%
X132588000Y-91846400D03*
D13*
X140208000Y-91846400D03*
%TD*%
D16*
%TO.C,*%
X159766000Y-90652600D03*
%TD*%
D17*
%TO.C,R5*%
X140335000Y-109093000D03*
D13*
X132715000Y-109093000D03*
%TD*%
D16*
%TO.C,*%
X152146000Y-83032600D03*
%TD*%
%TO.C,*%
X172466000Y-103352600D03*
%TD*%
D12*
%TO.C,D1*%
X140208000Y-88544400D03*
D13*
X132588000Y-88544400D03*
%TD*%
D16*
%TO.C,*%
X159766000Y-83032600D03*
%TD*%
D17*
%TO.C,R4*%
X140335000Y-112522000D03*
D13*
X132715000Y-112522000D03*
%TD*%
D16*
%TO.C,*%
X172466000Y-85572600D03*
%TD*%
%TO.C,*%
X172466000Y-113512600D03*
%TD*%
%TO.C,*%
X152146000Y-103352600D03*
%TD*%
%TO.C,*%
X164846000Y-85572600D03*
%TD*%
%TO.C,*%
X164846000Y-95732600D03*
%TD*%
%TO.C,*%
X147066000Y-95732600D03*
%TD*%
%TO.C,*%
X149606000Y-113512600D03*
%TD*%
%TO.C,*%
X157226000Y-85572600D03*
%TD*%
%TO.C,*%
X164846000Y-110972600D03*
%TD*%
%TO.C,*%
X144526000Y-108432600D03*
%TD*%
%TO.C,*%
X157226000Y-103352600D03*
%TD*%
%TO.C,*%
X169926000Y-83032600D03*
%TD*%
%TO.C,*%
X162306000Y-85572600D03*
%TD*%
%TO.C,*%
X164846000Y-88112600D03*
%TD*%
%TO.C,*%
X147066000Y-103352600D03*
%TD*%
%TO.C,*%
X162306000Y-83032600D03*
%TD*%
%TO.C,*%
X144526000Y-116052600D03*
%TD*%
%TO.C,*%
X157226000Y-88112600D03*
%TD*%
%TO.C,*%
X147066000Y-105892600D03*
%TD*%
%TO.C,*%
X167386000Y-100812600D03*
%TD*%
D17*
%TO.C,C1*%
X140295000Y-105664000D03*
X135295000Y-105664000D03*
%TD*%
D16*
%TO.C,*%
X167386000Y-93192600D03*
%TD*%
%TO.C,*%
X157226000Y-95732600D03*
%TD*%
%TO.C,*%
X162306000Y-100812600D03*
%TD*%
%TO.C,*%
X172466000Y-93192600D03*
%TD*%
%TO.C,*%
X152146000Y-90652600D03*
%TD*%
%TO.C,*%
X157226000Y-113512600D03*
%TD*%
%TO.C,*%
X157226000Y-116052600D03*
%TD*%
%TO.C,*%
X169926000Y-113512600D03*
%TD*%
%TO.C,*%
X157226000Y-83032600D03*
%TD*%
%TO.C,*%
X152146000Y-85572600D03*
%TD*%
%TO.C,*%
X172466000Y-110972600D03*
%TD*%
%TO.C,*%
X159766000Y-105892600D03*
%TD*%
%TO.C,*%
X164846000Y-103352600D03*
%TD*%
%TO.C,*%
X154686000Y-105892600D03*
%TD*%
%TO.C,*%
X172466000Y-105892600D03*
%TD*%
%TO.C,*%
X169926000Y-108432600D03*
%TD*%
%TO.C,*%
X152146000Y-100812600D03*
%TD*%
%TO.C,*%
X154686000Y-85572600D03*
%TD*%
%TO.C,*%
X164846000Y-105892600D03*
%TD*%
%TO.C,*%
X167386000Y-108432600D03*
%TD*%
%TO.C,*%
X164846000Y-108432600D03*
%TD*%
%TO.C,*%
X149606000Y-116052600D03*
%TD*%
%TO.C,*%
X154686000Y-95732600D03*
%TD*%
%TO.C,*%
X167386000Y-90652600D03*
%TD*%
%TO.C,*%
X162306000Y-105892600D03*
%TD*%
%TO.C,*%
X167386000Y-83032600D03*
%TD*%
%TO.C,*%
X172466000Y-90652600D03*
%TD*%
%TO.C,*%
X154686000Y-93192600D03*
%TD*%
%TO.C,*%
X167386000Y-103352600D03*
%TD*%
%TO.C,*%
X154686000Y-113512600D03*
%TD*%
D18*
%TO.C,IN1*%
X113525300Y-83517740D03*
X113525300Y-93520260D03*
X123520200Y-96017080D03*
X123522740Y-88519000D03*
X123520200Y-81020920D03*
X126022100Y-93515180D03*
X126022100Y-83522820D03*
%TD*%
D16*
%TO.C,*%
X147066000Y-108432600D03*
%TD*%
%TO.C,*%
X152120600Y-98272600D03*
%TD*%
%TO.C,*%
X147066000Y-110972600D03*
%TD*%
%TO.C,*%
X152146000Y-110972600D03*
%TD*%
%TO.C,*%
X147066000Y-116052600D03*
%TD*%
%TO.C,*%
X152146000Y-113512600D03*
%TD*%
%TO.C,*%
X162306000Y-95732600D03*
%TD*%
%TO.C,*%
X149606000Y-100812600D03*
%TD*%
%TO.C,*%
X169926000Y-85572600D03*
%TD*%
%TO.C,*%
X162306000Y-88112600D03*
%TD*%
%TO.C,*%
X154686000Y-100812600D03*
%TD*%
%TO.C,*%
X164846000Y-113512600D03*
%TD*%
%TO.C,*%
X149606000Y-110972600D03*
%TD*%
%TO.C,*%
X167360600Y-98272600D03*
%TD*%
%TO.C,*%
X149606000Y-103352600D03*
%TD*%
%TO.C,*%
X159766000Y-110972600D03*
%TD*%
%TO.C,*%
X159766000Y-103352600D03*
%TD*%
%TO.C,*%
X144526000Y-85572600D03*
%TD*%
%TO.C,*%
X167386000Y-113512600D03*
%TD*%
%TO.C,*%
X169926000Y-95732600D03*
%TD*%
%TO.C,*%
X167386000Y-88112600D03*
%TD*%
%TO.C,*%
X149606000Y-88112600D03*
%TD*%
%TO.C,*%
X172466000Y-100812600D03*
%TD*%
%TO.C,*%
X172466000Y-95732600D03*
%TD*%
%TO.C,*%
X144526000Y-88112600D03*
%TD*%
%TO.C,*%
X149606000Y-85572600D03*
%TD*%
%TO.C,*%
X147066000Y-100812600D03*
%TD*%
%TO.C,*%
X167386000Y-95732600D03*
%TD*%
%TO.C,*%
X154686000Y-108432600D03*
%TD*%
%TO.C,*%
X152146000Y-88112600D03*
%TD*%
%TO.C,*%
X162306000Y-93192600D03*
%TD*%
D18*
%TO.C,OUT1*%
X113525300Y-115820260D03*
X113525300Y-105817740D03*
X123520200Y-118317080D03*
X123522740Y-110819000D03*
X123520200Y-103320920D03*
X126022100Y-115815180D03*
X126022100Y-105822820D03*
%TD*%
D16*
%TO.C,*%
X144526000Y-103352600D03*
%TD*%
%TO.C,*%
X157226000Y-100812600D03*
%TD*%
%TO.C,*%
X169926000Y-105892600D03*
%TD*%
D10*
%TO.C,J2*%
X159766000Y-118592600D03*
D11*
X162306000Y-118592600D03*
X164846000Y-118592600D03*
X167386000Y-118592600D03*
X169926000Y-118592600D03*
X172466000Y-118592600D03*
%TD*%
D17*
%TO.C,R1*%
X140335000Y-119634000D03*
D13*
X132715000Y-119634000D03*
%TD*%
D16*
%TO.C,*%
X159766000Y-108432600D03*
%TD*%
%TO.C,*%
X172466000Y-83032600D03*
%TD*%
%TO.C,*%
X147066000Y-113512600D03*
%TD*%
%TO.C,*%
X154686000Y-88112600D03*
%TD*%
%TO.C,*%
X157226000Y-105892600D03*
%TD*%
%TO.C,*%
X167386000Y-110972600D03*
%TD*%
%TO.C,*%
X162306000Y-103352600D03*
%TD*%
%TO.C,*%
X162306000Y-90652600D03*
%TD*%
%TO.C,*%
X169926000Y-116052600D03*
%TD*%
%TO.C,*%
X164820600Y-98272600D03*
%TD*%
%TO.C,*%
X144526000Y-93192600D03*
%TD*%
%TO.C,*%
X162306000Y-108432600D03*
%TD*%
%TO.C,*%
X159766000Y-85572600D03*
%TD*%
%TO.C,*%
X149606000Y-90652600D03*
%TD*%
%TO.C,*%
X152146000Y-116052600D03*
%TD*%
%TO.C,*%
X144526000Y-105892600D03*
%TD*%
%TO.C,*%
X172440600Y-98272600D03*
%TD*%
%TO.C,*%
X157226000Y-110972600D03*
%TD*%
%TO.C,*%
X149606000Y-83032600D03*
%TD*%
%TO.C,*%
X159766000Y-93192600D03*
%TD*%
%TO.C,*%
X157226000Y-93192600D03*
%TD*%
%TO.C,*%
X159766000Y-113512600D03*
%TD*%
D17*
%TO.C,R2*%
X140335000Y-116078000D03*
D13*
X132715000Y-116078000D03*
%TD*%
D16*
%TO.C,*%
X169926000Y-103352600D03*
%TD*%
%TO.C,*%
X152146000Y-95732600D03*
%TD*%
%TO.C,*%
X172466000Y-88112600D03*
%TD*%
%TO.C,*%
X149606000Y-93192600D03*
%TD*%
%TO.C,*%
X154686000Y-103352600D03*
%TD*%
%TO.C,*%
X147066000Y-93192600D03*
%TD*%
%TO.C,*%
X172466000Y-108432600D03*
%TD*%
%TO.C,*%
X159740600Y-98272600D03*
%TD*%
%TO.C,*%
X164846000Y-116052600D03*
%TD*%
%TO.C,*%
X154686000Y-110972600D03*
%TD*%
%TO.C,*%
X169900600Y-98272600D03*
%TD*%
%TO.C,*%
X154686000Y-83032600D03*
%TD*%
%TO.C,*%
X154660600Y-98272600D03*
%TD*%
%TO.C,*%
X159766000Y-116052600D03*
%TD*%
%TO.C,*%
X149606000Y-108432600D03*
%TD*%
%TO.C,*%
X159766000Y-95732600D03*
%TD*%
%TO.C,*%
X149606000Y-95732600D03*
%TD*%
%TO.C,*%
X144526000Y-95732600D03*
%TD*%
%TO.C,*%
X164846000Y-83032600D03*
%TD*%
%TO.C,*%
X144526000Y-83032600D03*
%TD*%
D10*
%TO.C,J5*%
X132130800Y-80787400D03*
D11*
X132130800Y-83327400D03*
%TD*%
D16*
%TO.C,*%
X152146000Y-105892600D03*
%TD*%
%TO.C,*%
X162306000Y-113512600D03*
%TD*%
M02*
