%TF.GenerationSoftware,KiCad,Pcbnew,(6.0.5)*%
%TF.CreationDate,2022-08-29T17:14:51+01:00*%
%TF.ProjectId,ArduinoMIDIProtoShield,41726475-696e-46f4-9d49-444950726f74,rev?*%
%TF.SameCoordinates,Original*%
%TF.FileFunction,Copper,L1,Top*%
%TF.FilePolarity,Positive*%
%FSLAX46Y46*%
G04 Gerber Fmt 4.6, Leading zero omitted, Abs format (unit mm)*
G04 Created by KiCad (PCBNEW (6.0.5)) date 2022-08-29 17:14:51*
%MOMM*%
%LPD*%
G01*
G04 APERTURE LIST*
%TA.AperFunction,ComponentPad*%
%ADD10R,1.700000X1.700000*%
%TD*%
%TA.AperFunction,ComponentPad*%
%ADD11O,1.700000X1.700000*%
%TD*%
%TA.AperFunction,ComponentPad*%
%ADD12R,1.600000X1.600000*%
%TD*%
%TA.AperFunction,ComponentPad*%
%ADD13O,1.600000X1.600000*%
%TD*%
%TA.AperFunction,ComponentPad*%
%ADD14O,1.727200X2.032000*%
%TD*%
%TA.AperFunction,ComponentPad*%
%ADD15C,4.064000*%
%TD*%
%TA.AperFunction,ComponentPad*%
%ADD16C,1.700000*%
%TD*%
%TA.AperFunction,ComponentPad*%
%ADD17C,1.600000*%
%TD*%
%TA.AperFunction,WasherPad*%
%ADD18C,2.499360*%
%TD*%
%TA.AperFunction,ComponentPad*%
%ADD19C,2.499360*%
%TD*%
%TA.AperFunction,Conductor*%
%ADD20C,0.600000*%
%TD*%
%TA.AperFunction,Conductor*%
%ADD21C,0.800000*%
%TD*%
G04 APERTURE END LIST*
D10*
%TO.P,J4,1,Pin_1*%
%TO.N,/7*%
X154686000Y-80492600D03*
D11*
%TO.P,J4,2,Pin_2*%
%TO.N,/6(\u002A\u002A)*%
X157226000Y-80492600D03*
%TO.P,J4,3,Pin_3*%
%TO.N,/5(\u002A\u002A)*%
X159766000Y-80492600D03*
%TO.P,J4,4,Pin_4*%
%TO.N,/4*%
X162306000Y-80492600D03*
%TO.P,J4,5,Pin_5*%
%TO.N,/3(\u002A\u002A)*%
X164846000Y-80492600D03*
%TO.P,J4,6,Pin_6*%
%TO.N,/2*%
X167386000Y-80492600D03*
%TO.P,J4,7,Pin_7*%
%TO.N,/1(Tx)*%
X169926000Y-80492600D03*
%TO.P,J4,8,Pin_8*%
%TO.N,/0(Rx)*%
X172466000Y-80492600D03*
%TD*%
D10*
%TO.P,J1,1,Pin_1*%
%TO.N,+3V3*%
X144526000Y-118592600D03*
D11*
%TO.P,J1,2,Pin_2*%
%TO.N,+5V*%
X147066000Y-118592600D03*
%TO.P,J1,3,Pin_3*%
%TO.N,GND*%
X149606000Y-118592600D03*
%TD*%
D12*
%TO.P,U1,1,NC*%
%TO.N,unconnected-(U1-Pad1)*%
X140223400Y-94929800D03*
D13*
%TO.P,U1,2,C1*%
%TO.N,Net-(D1-Pad1)*%
X137683400Y-94929800D03*
%TO.P,U1,3,C2*%
%TO.N,Net-(D1-Pad2)*%
X135143400Y-94929800D03*
%TO.P,U1,4,NC*%
%TO.N,unconnected-(U1-Pad4)*%
X132603400Y-94929800D03*
%TO.P,U1,5,GND*%
%TO.N,GND*%
X132603400Y-102549800D03*
%TO.P,U1,6,VO2*%
%TO.N,Net-(J6-Pad2)*%
X135143400Y-102549800D03*
%TO.P,U1,7,VO1*%
%TO.N,Net-(R4-Pad1)*%
X137683400Y-102549800D03*
%TO.P,U1,8,VCC*%
%TO.N,+5V*%
X140223400Y-102549800D03*
%TD*%
D14*
%TO.P,P1,1,Pin_1*%
%TO.N,unconnected-(P1-Pad1)*%
X138938000Y-123825000D03*
%TO.P,P1,2,Pin_2*%
%TO.N,/IOREF*%
X141478000Y-123825000D03*
%TO.P,P1,3,Pin_3*%
%TO.N,/Reset*%
X144018000Y-123825000D03*
%TO.P,P1,4,Pin_4*%
%TO.N,+3V3*%
X146558000Y-123825000D03*
%TO.P,P1,5,Pin_5*%
%TO.N,+5V*%
X149098000Y-123825000D03*
%TO.P,P1,6,Pin_6*%
%TO.N,GND*%
X151638000Y-123825000D03*
%TO.P,P1,7,Pin_7*%
X154178000Y-123825000D03*
%TO.P,P1,8,Pin_8*%
%TO.N,/Vin*%
X156718000Y-123825000D03*
%TD*%
%TO.P,P2,1,Pin_1*%
%TO.N,/A0*%
X161798000Y-123825000D03*
%TO.P,P2,2,Pin_2*%
%TO.N,/A1*%
X164338000Y-123825000D03*
%TO.P,P2,3,Pin_3*%
%TO.N,/A2*%
X166878000Y-123825000D03*
%TO.P,P2,4,Pin_4*%
%TO.N,/A3*%
X169418000Y-123825000D03*
%TO.P,P2,5,Pin_5*%
%TO.N,/A4(SDA)*%
X171958000Y-123825000D03*
%TO.P,P2,6,Pin_6*%
%TO.N,/A5(SCL)*%
X174498000Y-123825000D03*
%TD*%
%TO.P,P3,1,Pin_1*%
%TO.N,/A5(SCL)*%
X129794000Y-75565000D03*
%TO.P,P3,2,Pin_2*%
%TO.N,/A4(SDA)*%
X132334000Y-75565000D03*
%TO.P,P3,3,Pin_3*%
%TO.N,/AREF*%
X134874000Y-75565000D03*
%TO.P,P3,4,Pin_4*%
%TO.N,GND*%
X137414000Y-75565000D03*
%TO.P,P3,5,Pin_5*%
%TO.N,/13(SCK)*%
X139954000Y-75565000D03*
%TO.P,P3,6,Pin_6*%
%TO.N,/12(MISO)*%
X142494000Y-75565000D03*
%TO.P,P3,7,Pin_7*%
%TO.N,/11(\u002A\u002A{slash}MOSI)*%
X145034000Y-75565000D03*
%TO.P,P3,8,Pin_8*%
%TO.N,/10(\u002A\u002A{slash}SS)*%
X147574000Y-75565000D03*
%TO.P,P3,9,Pin_9*%
%TO.N,/9(\u002A\u002A)*%
X150114000Y-75565000D03*
%TO.P,P3,10,Pin_10*%
%TO.N,/8*%
X152654000Y-75565000D03*
%TD*%
%TO.P,P4,1,Pin_1*%
%TO.N,/7*%
X156718000Y-75565000D03*
%TO.P,P4,2,Pin_2*%
%TO.N,/6(\u002A\u002A)*%
X159258000Y-75565000D03*
%TO.P,P4,3,Pin_3*%
%TO.N,/5(\u002A\u002A)*%
X161798000Y-75565000D03*
%TO.P,P4,4,Pin_4*%
%TO.N,/4*%
X164338000Y-75565000D03*
%TO.P,P4,5,Pin_5*%
%TO.N,/3(\u002A\u002A)*%
X166878000Y-75565000D03*
%TO.P,P4,6,Pin_6*%
%TO.N,/2*%
X169418000Y-75565000D03*
%TO.P,P4,7,Pin_7*%
%TO.N,/1(Tx)*%
X171958000Y-75565000D03*
%TO.P,P4,8,Pin_8*%
%TO.N,/0(Rx)*%
X174498000Y-75565000D03*
%TD*%
D15*
%TO.P,P5,1,Pin_1*%
%TO.N,unconnected-(P5-Pad1)*%
X124968000Y-123825000D03*
%TD*%
%TO.P,P6,1,Pin_1*%
%TO.N,unconnected-(P6-Pad1)*%
X177038000Y-118745000D03*
%TD*%
%TO.P,P7,1,Pin_1*%
%TO.N,unconnected-(P7-Pad1)*%
X126238000Y-75565000D03*
%TD*%
%TO.P,P8,1,Pin_1*%
%TO.N,unconnected-(P8-Pad1)*%
X177038000Y-90805000D03*
%TD*%
D16*
%TO.P,,1*%
%TO.N,N/C*%
X162306000Y-110972600D03*
%TD*%
%TO.P,,1*%
%TO.N,N/C*%
X167386000Y-85572600D03*
%TD*%
%TO.P,,1*%
%TO.N,N/C*%
X169926000Y-110972600D03*
%TD*%
%TO.P,,1*%
%TO.N,N/C*%
X152146000Y-108432600D03*
%TD*%
%TO.P,,1*%
%TO.N,N/C*%
X164846000Y-100812600D03*
%TD*%
%TO.P,,1*%
%TO.N,N/C*%
X154686000Y-90652600D03*
%TD*%
%TO.P,,1*%
%TO.N,N/C*%
X172466000Y-116052600D03*
%TD*%
%TO.P,,1*%
%TO.N,N/C*%
X169926000Y-93192600D03*
%TD*%
%TO.P,,1*%
%TO.N,N/C*%
X154686000Y-116052600D03*
%TD*%
%TO.P,,1*%
%TO.N,N/C*%
X167386000Y-105892600D03*
%TD*%
%TO.P,,1*%
%TO.N,N/C*%
X167386000Y-116052600D03*
%TD*%
%TO.P,,1*%
%TO.N,N/C*%
X147066000Y-90652600D03*
%TD*%
%TO.P,,1*%
%TO.N,N/C*%
X147066000Y-88112600D03*
%TD*%
%TO.P,,1*%
%TO.N,N/C*%
X157200600Y-98272600D03*
%TD*%
%TO.P,,1*%
%TO.N,N/C*%
X144526000Y-90652600D03*
%TD*%
%TO.P,,1*%
%TO.N,N/C*%
X162306000Y-116052600D03*
%TD*%
%TO.P,,1*%
%TO.N,N/C*%
X157226000Y-108432600D03*
%TD*%
%TO.P,,1*%
%TO.N,N/C*%
X152146000Y-93192600D03*
%TD*%
%TO.P,,1*%
%TO.N,N/C*%
X147066000Y-83032600D03*
%TD*%
%TO.P,,1*%
%TO.N,N/C*%
X164846000Y-93192600D03*
%TD*%
%TO.P,,1*%
%TO.N,N/C*%
X147066000Y-85572600D03*
%TD*%
%TO.P,,1*%
%TO.N,N/C*%
X159766000Y-100812600D03*
%TD*%
%TO.P,,1*%
%TO.N,N/C*%
X157226000Y-90652600D03*
%TD*%
%TO.P,,1*%
%TO.N,N/C*%
X169926000Y-100812600D03*
%TD*%
D10*
%TO.P,J6,1,Pin_1*%
%TO.N,/0(Rx)*%
X135839200Y-80792400D03*
D11*
%TO.P,J6,2,Pin_2*%
%TO.N,Net-(J6-Pad2)*%
X135839200Y-83332400D03*
%TD*%
D16*
%TO.P,,1*%
%TO.N,N/C*%
X169926000Y-90652600D03*
%TD*%
%TO.P,,1*%
%TO.N,+3V3*%
X144526000Y-100812600D03*
%TD*%
%TO.P,,1*%
%TO.N,N/C*%
X162280600Y-98272600D03*
%TD*%
%TO.P,,1*%
%TO.N,GND*%
X149606000Y-105892600D03*
%TD*%
%TO.P,,1*%
%TO.N,N/C*%
X164846000Y-90652600D03*
%TD*%
%TO.P,,1*%
%TO.N,N/C*%
X159766000Y-88112600D03*
%TD*%
%TO.P,,1*%
%TO.N,+3V3*%
X144526000Y-110972600D03*
%TD*%
%TO.P,,1*%
%TO.N,+3V3*%
X144526000Y-113512600D03*
%TD*%
D10*
%TO.P,J3,1,Pin_1*%
%TO.N,/13(SCK)*%
X139446000Y-80492600D03*
D11*
%TO.P,J3,2,Pin_2*%
%TO.N,/12(MISO)*%
X141986000Y-80492600D03*
%TO.P,J3,3,Pin_3*%
%TO.N,/11(\u002A\u002A{slash}MOSI)*%
X144526000Y-80492600D03*
%TO.P,J3,4,Pin_4*%
%TO.N,/10(\u002A\u002A{slash}SS)*%
X147066000Y-80492600D03*
%TO.P,J3,5,Pin_5*%
%TO.N,/9(\u002A\u002A)*%
X149606000Y-80492600D03*
%TO.P,J3,6,Pin_6*%
%TO.N,/8*%
X152146000Y-80492600D03*
%TD*%
D16*
%TO.P,,1*%
%TO.N,N/C*%
X169926000Y-88112600D03*
%TD*%
D17*
%TO.P,R3,1*%
%TO.N,Net-(IN1-Pad4)*%
X132588000Y-91846400D03*
D13*
%TO.P,R3,2*%
%TO.N,Net-(D1-Pad1)*%
X140208000Y-91846400D03*
%TD*%
D16*
%TO.P,,1*%
%TO.N,N/C*%
X159766000Y-90652600D03*
%TD*%
D17*
%TO.P,R5,1*%
%TO.N,+5V*%
X140335000Y-109093000D03*
D13*
%TO.P,R5,2*%
%TO.N,Net-(J6-Pad2)*%
X132715000Y-109093000D03*
%TD*%
D16*
%TO.P,,1*%
%TO.N,N/C*%
X152146000Y-83032600D03*
%TD*%
%TO.P,,1*%
%TO.N,N/C*%
X172466000Y-103352600D03*
%TD*%
D12*
%TO.P,D1,1,K*%
%TO.N,Net-(D1-Pad1)*%
X140208000Y-88544400D03*
D13*
%TO.P,D1,2,A*%
%TO.N,Net-(D1-Pad2)*%
X132588000Y-88544400D03*
%TD*%
D16*
%TO.P,,1*%
%TO.N,N/C*%
X159766000Y-83032600D03*
%TD*%
D17*
%TO.P,R4,1*%
%TO.N,Net-(R4-Pad1)*%
X140335000Y-112522000D03*
D13*
%TO.P,R4,2*%
%TO.N,GND*%
X132715000Y-112522000D03*
%TD*%
D16*
%TO.P,,1*%
%TO.N,N/C*%
X172466000Y-85572600D03*
%TD*%
%TO.P,,1*%
%TO.N,N/C*%
X172466000Y-113512600D03*
%TD*%
%TO.P,,1*%
%TO.N,N/C*%
X152146000Y-103352600D03*
%TD*%
%TO.P,,1*%
%TO.N,N/C*%
X164846000Y-85572600D03*
%TD*%
%TO.P,,1*%
%TO.N,N/C*%
X164846000Y-95732600D03*
%TD*%
%TO.P,,1*%
%TO.N,N/C*%
X147066000Y-95732600D03*
%TD*%
%TO.P,,1*%
%TO.N,GND*%
X149606000Y-113512600D03*
%TD*%
%TO.P,,1*%
%TO.N,N/C*%
X157226000Y-85572600D03*
%TD*%
%TO.P,,1*%
%TO.N,N/C*%
X164846000Y-110972600D03*
%TD*%
%TO.P,,1*%
%TO.N,+3V3*%
X144526000Y-108432600D03*
%TD*%
%TO.P,,1*%
%TO.N,N/C*%
X157226000Y-103352600D03*
%TD*%
%TO.P,,1*%
%TO.N,N/C*%
X169926000Y-83032600D03*
%TD*%
%TO.P,,1*%
%TO.N,N/C*%
X162306000Y-85572600D03*
%TD*%
%TO.P,,1*%
%TO.N,N/C*%
X164846000Y-88112600D03*
%TD*%
%TO.P,,1*%
%TO.N,+5V*%
X147066000Y-103352600D03*
%TD*%
%TO.P,,1*%
%TO.N,N/C*%
X162306000Y-83032600D03*
%TD*%
%TO.P,,1*%
%TO.N,+3V3*%
X144526000Y-116052600D03*
%TD*%
%TO.P,,1*%
%TO.N,N/C*%
X157226000Y-88112600D03*
%TD*%
%TO.P,,1*%
%TO.N,+5V*%
X147066000Y-105892600D03*
%TD*%
%TO.P,,1*%
%TO.N,N/C*%
X167386000Y-100812600D03*
%TD*%
D17*
%TO.P,C1,1*%
%TO.N,+5V*%
X140295000Y-105664000D03*
%TO.P,C1,2*%
%TO.N,GND*%
X135295000Y-105664000D03*
%TD*%
D16*
%TO.P,,1*%
%TO.N,N/C*%
X167386000Y-93192600D03*
%TD*%
%TO.P,,1*%
%TO.N,N/C*%
X157226000Y-95732600D03*
%TD*%
%TO.P,,1*%
%TO.N,N/C*%
X162306000Y-100812600D03*
%TD*%
%TO.P,,1*%
%TO.N,N/C*%
X172466000Y-93192600D03*
%TD*%
%TO.P,,1*%
%TO.N,N/C*%
X152146000Y-90652600D03*
%TD*%
%TO.P,,1*%
%TO.N,N/C*%
X157226000Y-113512600D03*
%TD*%
%TO.P,,1*%
%TO.N,N/C*%
X157226000Y-116052600D03*
%TD*%
%TO.P,,1*%
%TO.N,N/C*%
X169926000Y-113512600D03*
%TD*%
%TO.P,,1*%
%TO.N,N/C*%
X157226000Y-83032600D03*
%TD*%
%TO.P,,1*%
%TO.N,N/C*%
X152146000Y-85572600D03*
%TD*%
%TO.P,,1*%
%TO.N,N/C*%
X172466000Y-110972600D03*
%TD*%
%TO.P,,1*%
%TO.N,N/C*%
X159766000Y-105892600D03*
%TD*%
%TO.P,,1*%
%TO.N,N/C*%
X164846000Y-103352600D03*
%TD*%
%TO.P,,1*%
%TO.N,N/C*%
X154686000Y-105892600D03*
%TD*%
%TO.P,,1*%
%TO.N,N/C*%
X172466000Y-105892600D03*
%TD*%
%TO.P,,1*%
%TO.N,N/C*%
X169926000Y-108432600D03*
%TD*%
%TO.P,,1*%
%TO.N,N/C*%
X152146000Y-100812600D03*
%TD*%
%TO.P,,1*%
%TO.N,N/C*%
X154686000Y-85572600D03*
%TD*%
%TO.P,,1*%
%TO.N,N/C*%
X164846000Y-105892600D03*
%TD*%
%TO.P,,1*%
%TO.N,N/C*%
X167386000Y-108432600D03*
%TD*%
%TO.P,,1*%
%TO.N,N/C*%
X164846000Y-108432600D03*
%TD*%
%TO.P,,1*%
%TO.N,GND*%
X149606000Y-116052600D03*
%TD*%
%TO.P,,1*%
%TO.N,N/C*%
X154686000Y-95732600D03*
%TD*%
%TO.P,,1*%
%TO.N,N/C*%
X167386000Y-90652600D03*
%TD*%
%TO.P,,1*%
%TO.N,N/C*%
X162306000Y-105892600D03*
%TD*%
%TO.P,,1*%
%TO.N,N/C*%
X167386000Y-83032600D03*
%TD*%
%TO.P,,1*%
%TO.N,N/C*%
X172466000Y-90652600D03*
%TD*%
%TO.P,,1*%
%TO.N,N/C*%
X154686000Y-93192600D03*
%TD*%
%TO.P,,1*%
%TO.N,N/C*%
X167386000Y-103352600D03*
%TD*%
%TO.P,,1*%
%TO.N,N/C*%
X154686000Y-113512600D03*
%TD*%
D18*
%TO.P,IN1,*%
%TO.N,*%
X113525300Y-83517740D03*
X113525300Y-93520260D03*
D19*
%TO.P,IN1,1*%
%TO.N,unconnected-(IN1-Pad1)*%
X123520200Y-96017080D03*
%TO.P,IN1,2*%
%TO.N,unconnected-(IN1-Pad2)*%
X123522740Y-88519000D03*
%TO.P,IN1,3*%
%TO.N,unconnected-(IN1-Pad3)*%
X123520200Y-81020920D03*
%TO.P,IN1,4*%
%TO.N,Net-(IN1-Pad4)*%
X126022100Y-93515180D03*
%TO.P,IN1,5*%
%TO.N,Net-(D1-Pad2)*%
X126022100Y-83522820D03*
%TD*%
D16*
%TO.P,,1*%
%TO.N,+5V*%
X147066000Y-108432600D03*
%TD*%
%TO.P,,1*%
%TO.N,N/C*%
X152120600Y-98272600D03*
%TD*%
%TO.P,,1*%
%TO.N,+5V*%
X147066000Y-110972600D03*
%TD*%
%TO.P,,1*%
%TO.N,N/C*%
X152146000Y-110972600D03*
%TD*%
%TO.P,,1*%
%TO.N,+5V*%
X147066000Y-116052600D03*
%TD*%
%TO.P,,1*%
%TO.N,N/C*%
X152146000Y-113512600D03*
%TD*%
%TO.P,,1*%
%TO.N,N/C*%
X162306000Y-95732600D03*
%TD*%
%TO.P,,1*%
%TO.N,GND*%
X149606000Y-100812600D03*
%TD*%
%TO.P,,1*%
%TO.N,N/C*%
X169926000Y-85572600D03*
%TD*%
%TO.P,,1*%
%TO.N,N/C*%
X162306000Y-88112600D03*
%TD*%
%TO.P,,1*%
%TO.N,N/C*%
X154686000Y-100812600D03*
%TD*%
%TO.P,,1*%
%TO.N,N/C*%
X164846000Y-113512600D03*
%TD*%
%TO.P,,1*%
%TO.N,GND*%
X149606000Y-110972600D03*
%TD*%
%TO.P,,1*%
%TO.N,N/C*%
X167360600Y-98272600D03*
%TD*%
%TO.P,,1*%
%TO.N,GND*%
X149606000Y-103352600D03*
%TD*%
%TO.P,,1*%
%TO.N,N/C*%
X159766000Y-110972600D03*
%TD*%
%TO.P,,1*%
%TO.N,N/C*%
X159766000Y-103352600D03*
%TD*%
%TO.P,,1*%
%TO.N,N/C*%
X144526000Y-85572600D03*
%TD*%
%TO.P,,1*%
%TO.N,N/C*%
X167386000Y-113512600D03*
%TD*%
%TO.P,,1*%
%TO.N,N/C*%
X169926000Y-95732600D03*
%TD*%
%TO.P,,1*%
%TO.N,N/C*%
X167386000Y-88112600D03*
%TD*%
%TO.P,,1*%
%TO.N,N/C*%
X149606000Y-88112600D03*
%TD*%
%TO.P,,1*%
%TO.N,N/C*%
X172466000Y-100812600D03*
%TD*%
%TO.P,,1*%
%TO.N,N/C*%
X172466000Y-95732600D03*
%TD*%
%TO.P,,1*%
%TO.N,N/C*%
X144526000Y-88112600D03*
%TD*%
%TO.P,,1*%
%TO.N,N/C*%
X149606000Y-85572600D03*
%TD*%
%TO.P,,1*%
%TO.N,+5V*%
X147066000Y-100812600D03*
%TD*%
%TO.P,,1*%
%TO.N,N/C*%
X167386000Y-95732600D03*
%TD*%
%TO.P,,1*%
%TO.N,N/C*%
X154686000Y-108432600D03*
%TD*%
%TO.P,,1*%
%TO.N,N/C*%
X152146000Y-88112600D03*
%TD*%
%TO.P,,1*%
%TO.N,N/C*%
X162306000Y-93192600D03*
%TD*%
D18*
%TO.P,OUT1,*%
%TO.N,*%
X113525300Y-115820260D03*
X113525300Y-105817740D03*
D19*
%TO.P,OUT1,1*%
%TO.N,unconnected-(OUT1-Pad1)*%
X123520200Y-118317080D03*
%TO.P,OUT1,2*%
%TO.N,GND*%
X123522740Y-110819000D03*
%TO.P,OUT1,3*%
%TO.N,unconnected-(OUT1-Pad3)*%
X123520200Y-103320920D03*
%TO.P,OUT1,4*%
%TO.N,Net-(OUT1-Pad4)*%
X126022100Y-115815180D03*
%TO.P,OUT1,5*%
%TO.N,Net-(OUT1-Pad5)*%
X126022100Y-105822820D03*
%TD*%
D16*
%TO.P,,1*%
%TO.N,+3V3*%
X144526000Y-103352600D03*
%TD*%
%TO.P,,1*%
%TO.N,N/C*%
X157226000Y-100812600D03*
%TD*%
%TO.P,,1*%
%TO.N,N/C*%
X169926000Y-105892600D03*
%TD*%
D10*
%TO.P,J2,1,Pin_1*%
%TO.N,/A0*%
X159766000Y-118592600D03*
D11*
%TO.P,J2,2,Pin_2*%
%TO.N,/A1*%
X162306000Y-118592600D03*
%TO.P,J2,3,Pin_3*%
%TO.N,/A2*%
X164846000Y-118592600D03*
%TO.P,J2,4,Pin_4*%
%TO.N,/A3*%
X167386000Y-118592600D03*
%TO.P,J2,5,Pin_5*%
%TO.N,/A4(SDA)*%
X169926000Y-118592600D03*
%TO.P,J2,6,Pin_6*%
%TO.N,/A5(SCL)*%
X172466000Y-118592600D03*
%TD*%
D17*
%TO.P,R1,1*%
%TO.N,+5V*%
X140335000Y-119634000D03*
D13*
%TO.P,R1,2*%
%TO.N,Net-(OUT1-Pad4)*%
X132715000Y-119634000D03*
%TD*%
D16*
%TO.P,,1*%
%TO.N,N/C*%
X159766000Y-108432600D03*
%TD*%
%TO.P,,1*%
%TO.N,N/C*%
X172466000Y-83032600D03*
%TD*%
%TO.P,,1*%
%TO.N,+5V*%
X147066000Y-113512600D03*
%TD*%
%TO.P,,1*%
%TO.N,N/C*%
X154686000Y-88112600D03*
%TD*%
%TO.P,,1*%
%TO.N,N/C*%
X157226000Y-105892600D03*
%TD*%
%TO.P,,1*%
%TO.N,N/C*%
X167386000Y-110972600D03*
%TD*%
%TO.P,,1*%
%TO.N,N/C*%
X162306000Y-103352600D03*
%TD*%
%TO.P,,1*%
%TO.N,N/C*%
X162306000Y-90652600D03*
%TD*%
%TO.P,,1*%
%TO.N,N/C*%
X169926000Y-116052600D03*
%TD*%
%TO.P,,1*%
%TO.N,N/C*%
X164820600Y-98272600D03*
%TD*%
%TO.P,,1*%
%TO.N,N/C*%
X144526000Y-93192600D03*
%TD*%
%TO.P,,1*%
%TO.N,N/C*%
X162306000Y-108432600D03*
%TD*%
%TO.P,,1*%
%TO.N,N/C*%
X159766000Y-85572600D03*
%TD*%
%TO.P,,1*%
%TO.N,N/C*%
X149606000Y-90652600D03*
%TD*%
%TO.P,,1*%
%TO.N,N/C*%
X152146000Y-116052600D03*
%TD*%
%TO.P,,1*%
%TO.N,+3V3*%
X144526000Y-105892600D03*
%TD*%
%TO.P,,1*%
%TO.N,N/C*%
X172440600Y-98272600D03*
%TD*%
%TO.P,,1*%
%TO.N,N/C*%
X157226000Y-110972600D03*
%TD*%
%TO.P,,1*%
%TO.N,N/C*%
X149606000Y-83032600D03*
%TD*%
%TO.P,,1*%
%TO.N,N/C*%
X159766000Y-93192600D03*
%TD*%
%TO.P,,1*%
%TO.N,N/C*%
X157226000Y-93192600D03*
%TD*%
%TO.P,,1*%
%TO.N,N/C*%
X159766000Y-113512600D03*
%TD*%
D17*
%TO.P,R2,1*%
%TO.N,Net-(J5-Pad2)*%
X140335000Y-116078000D03*
D13*
%TO.P,R2,2*%
%TO.N,Net-(OUT1-Pad5)*%
X132715000Y-116078000D03*
%TD*%
D16*
%TO.P,,1*%
%TO.N,N/C*%
X169926000Y-103352600D03*
%TD*%
%TO.P,,1*%
%TO.N,N/C*%
X152146000Y-95732600D03*
%TD*%
%TO.P,,1*%
%TO.N,N/C*%
X172466000Y-88112600D03*
%TD*%
%TO.P,,1*%
%TO.N,N/C*%
X149606000Y-93192600D03*
%TD*%
%TO.P,,1*%
%TO.N,N/C*%
X154686000Y-103352600D03*
%TD*%
%TO.P,,1*%
%TO.N,N/C*%
X147066000Y-93192600D03*
%TD*%
%TO.P,,1*%
%TO.N,N/C*%
X172466000Y-108432600D03*
%TD*%
%TO.P,,1*%
%TO.N,N/C*%
X159740600Y-98272600D03*
%TD*%
%TO.P,,1*%
%TO.N,N/C*%
X164846000Y-116052600D03*
%TD*%
%TO.P,,1*%
%TO.N,N/C*%
X154686000Y-110972600D03*
%TD*%
%TO.P,,1*%
%TO.N,N/C*%
X169900600Y-98272600D03*
%TD*%
%TO.P,,1*%
%TO.N,N/C*%
X154686000Y-83032600D03*
%TD*%
%TO.P,,1*%
%TO.N,N/C*%
X154660600Y-98272600D03*
%TD*%
%TO.P,,1*%
%TO.N,N/C*%
X159766000Y-116052600D03*
%TD*%
%TO.P,,1*%
%TO.N,GND*%
X149606000Y-108432600D03*
%TD*%
%TO.P,,1*%
%TO.N,N/C*%
X159766000Y-95732600D03*
%TD*%
%TO.P,,1*%
%TO.N,N/C*%
X149606000Y-95732600D03*
%TD*%
%TO.P,,1*%
%TO.N,N/C*%
X144526000Y-95732600D03*
%TD*%
%TO.P,,1*%
%TO.N,N/C*%
X164846000Y-83032600D03*
%TD*%
%TO.P,,1*%
%TO.N,N/C*%
X144526000Y-83032600D03*
%TD*%
D10*
%TO.P,J5,1,Pin_1*%
%TO.N,/1(Tx)*%
X132130800Y-80787400D03*
D11*
%TO.P,J5,2,Pin_2*%
%TO.N,Net-(J5-Pad2)*%
X132130800Y-83327400D03*
%TD*%
D16*
%TO.P,,1*%
%TO.N,N/C*%
X152146000Y-105892600D03*
%TD*%
%TO.P,,1*%
%TO.N,N/C*%
X162306000Y-113512600D03*
%TD*%
D20*
%TO.N,Net-(J6-Pad2)*%
X139273200Y-83332400D02*
X135839200Y-83332400D01*
X142316200Y-85826600D02*
X139822000Y-83332400D01*
X142316200Y-85826600D02*
X142316200Y-93573600D01*
X139822000Y-83332400D02*
X139273200Y-83332400D01*
X140487400Y-98475800D02*
X142316200Y-96647000D01*
X135143400Y-100695600D02*
X137363200Y-98475800D01*
X135143400Y-102549800D02*
X135143400Y-100695600D01*
X142316200Y-96647000D02*
X142316200Y-93573600D01*
X137363200Y-98475800D02*
X140487400Y-98475800D01*
%TO.N,Net-(D1-Pad1)*%
X140208000Y-91846400D02*
X140208000Y-88544400D01*
X137683400Y-94371000D02*
X140208000Y-91846400D01*
X137683400Y-94929800D02*
X137683400Y-94371000D01*
%TO.N,Net-(IN1-Pad4)*%
X127690880Y-91846400D02*
X126022100Y-93515180D01*
X132588000Y-91846400D02*
X127690880Y-91846400D01*
%TO.N,Net-(D1-Pad2)*%
X135143400Y-91099800D02*
X135143400Y-94929800D01*
X132588000Y-88544400D02*
X135143400Y-91099800D01*
X131043680Y-88544400D02*
X132588000Y-88544400D01*
X126022100Y-83522820D02*
X131043680Y-88544400D01*
%TO.N,Net-(J6-Pad2)*%
X137469800Y-83332400D02*
X137541000Y-83261200D01*
X135839200Y-83332400D02*
X137469800Y-83332400D01*
X137134600Y-83261200D02*
X137541000Y-83261200D01*
%TO.N,Net-(J5-Pad2)*%
X131064000Y-114300000D02*
X138557000Y-114300000D01*
X129413000Y-112649000D02*
X131064000Y-114300000D01*
X129413000Y-105714800D02*
X129413000Y-112649000D01*
X119913400Y-80822800D02*
X119913400Y-96215200D01*
X127152400Y-78867000D02*
X121869200Y-78867000D01*
X131612800Y-83327400D02*
X127152400Y-78867000D01*
X138557000Y-114300000D02*
X140335000Y-116078000D01*
X119913400Y-96215200D02*
X129413000Y-105714800D01*
X132130800Y-83327400D02*
X131612800Y-83327400D01*
X121869200Y-78867000D02*
X119913400Y-80822800D01*
D21*
%TO.N,+5V*%
X147066000Y-120523000D02*
X147040600Y-120548400D01*
X147066000Y-119659400D02*
X147066000Y-120523000D01*
X140335000Y-109093000D02*
X140335000Y-105704000D01*
X147066000Y-103352600D02*
X147066000Y-105892600D01*
X149098000Y-123825000D02*
X149098000Y-122580400D01*
X142290800Y-117678200D02*
X140335000Y-119634000D01*
X147066000Y-120548400D02*
X147040600Y-120548400D01*
X147066000Y-113512600D02*
X147066000Y-116052600D01*
X140335000Y-109093000D02*
X142290800Y-111048800D01*
X142290800Y-111048800D02*
X142290800Y-117678200D01*
X147066000Y-116052600D02*
X147066000Y-118592600D01*
X147066000Y-105892600D02*
X147066000Y-108432600D01*
X147066000Y-110972600D02*
X147066000Y-113512600D01*
X140295000Y-105664000D02*
X140295000Y-102591400D01*
X147066000Y-100812600D02*
X147066000Y-103352600D01*
X147066000Y-108432600D02*
X147066000Y-110972600D01*
X140295000Y-102591400D02*
X140223400Y-102519800D01*
X149098000Y-122580400D02*
X147066000Y-120548400D01*
D20*
%TO.N,/A0*%
X161798000Y-120624600D02*
X159766000Y-118592600D01*
X161798000Y-123825000D02*
X161798000Y-120624600D01*
%TO.N,/A1*%
X164338000Y-123825000D02*
X164338000Y-120624600D01*
X164338000Y-120624600D02*
X162306000Y-118592600D01*
%TO.N,/A2*%
X166878000Y-120624600D02*
X164846000Y-118592600D01*
X166878000Y-123825000D02*
X166878000Y-120624600D01*
%TO.N,/A3*%
X169418000Y-123825000D02*
X169418000Y-120624600D01*
X169418000Y-120624600D02*
X167386000Y-118592600D01*
%TO.N,/A4(SDA)*%
X171958000Y-123825000D02*
X171958000Y-120624600D01*
X171958000Y-120624600D02*
X169926000Y-118592600D01*
%TO.N,/A5(SCL)*%
X174498000Y-120624600D02*
X172466000Y-118592600D01*
X174498000Y-123825000D02*
X174498000Y-120624600D01*
%TO.N,/9(\u002A\u002A)*%
X150114000Y-75565000D02*
X150114000Y-79984600D01*
X150114000Y-79984600D02*
X149606000Y-80492600D01*
%TO.N,/8*%
X152654000Y-79984600D02*
X152146000Y-80492600D01*
X152654000Y-75565000D02*
X152654000Y-79984600D01*
%TO.N,/7*%
X156718000Y-78460600D02*
X154686000Y-80492600D01*
X156718000Y-75565000D02*
X156718000Y-78460600D01*
%TO.N,/6(\u002A\u002A)*%
X159258000Y-75565000D02*
X159258000Y-78460600D01*
X159258000Y-78460600D02*
X157226000Y-80492600D01*
%TO.N,/5(\u002A\u002A)*%
X161798000Y-75565000D02*
X161798000Y-78460600D01*
X161798000Y-78460600D02*
X159766000Y-80492600D01*
%TO.N,/4*%
X164338000Y-78460600D02*
X162306000Y-80492600D01*
X164338000Y-75565000D02*
X164338000Y-78460600D01*
%TO.N,/3(\u002A\u002A)*%
X166878000Y-75565000D02*
X166878000Y-78460600D01*
X166878000Y-78460600D02*
X164846000Y-80492600D01*
%TO.N,/2*%
X169418000Y-78460600D02*
X167386000Y-80492600D01*
X169418000Y-75565000D02*
X169418000Y-78460600D01*
%TO.N,/1(Tx)*%
X171958000Y-78460600D02*
X169926000Y-80492600D01*
X171958000Y-75565000D02*
X171958000Y-78460600D01*
%TO.N,/0(Rx)*%
X174498000Y-75565000D02*
X174498000Y-78460600D01*
X174498000Y-78460600D02*
X172466000Y-80492600D01*
%TO.N,/11(\u002A\u002A{slash}MOSI)*%
X145034000Y-75565000D02*
X145034000Y-79984600D01*
X145034000Y-79984600D02*
X144526000Y-80492600D01*
%TO.N,/13(SCK)*%
X139954000Y-75565000D02*
X139954000Y-79984600D01*
X139954000Y-79984600D02*
X139446000Y-80492600D01*
%TO.N,/10(\u002A\u002A{slash}SS)*%
X147574000Y-79984600D02*
X147066000Y-80492600D01*
X147574000Y-75565000D02*
X147574000Y-79984600D01*
D21*
%TO.N,+3V3*%
X144526000Y-116052600D02*
X144526000Y-113512600D01*
X144526000Y-103352600D02*
X144526000Y-100812600D01*
X144526000Y-120700800D02*
X146558000Y-122732800D01*
X146558000Y-122732800D02*
X146558000Y-123825000D01*
X144526000Y-118592600D02*
X144526000Y-116052600D01*
X144526000Y-110972600D02*
X144526000Y-108432600D01*
X144526000Y-105892600D02*
X144526000Y-103352600D01*
X144526000Y-113512600D02*
X144526000Y-110972600D01*
X144526000Y-118592600D02*
X144526000Y-120700800D01*
X144526000Y-108432600D02*
X144526000Y-105892600D01*
D20*
%TO.N,/12(MISO)*%
X142494000Y-75565000D02*
X142494000Y-79984600D01*
X142494000Y-79984600D02*
X141986000Y-80492600D01*
%TO.N,Net-(OUT1-Pad4)*%
X129840920Y-119634000D02*
X132715000Y-119634000D01*
X126022100Y-115815180D02*
X129840920Y-119634000D01*
%TO.N,Net-(OUT1-Pad5)*%
X130302000Y-116078000D02*
X126022100Y-111798100D01*
X126022100Y-111798100D02*
X126022100Y-105822820D01*
X132715000Y-116078000D02*
X130302000Y-116078000D01*
%TO.N,Net-(R4-Pad1)*%
X137683400Y-102519800D02*
X137683400Y-109870400D01*
X137683400Y-109870400D02*
X140335000Y-112522000D01*
%TO.N,Net-(J6-Pad2)*%
X132715000Y-104948200D02*
X132715000Y-105435400D01*
X135143400Y-102519800D02*
X132715000Y-104948200D01*
X132715000Y-105435400D02*
X132715000Y-109093000D01*
%TD*%
M02*
