%TF.GenerationSoftware,KiCad,Pcbnew,8.0.5*%
%TF.CreationDate,2024-10-10T20:00:25+01:00*%
%TF.ProjectId,ArduinoClockGenShield,41726475-696e-46f4-936c-6f636b47656e,rev?*%
%TF.SameCoordinates,Original*%
%TF.FileFunction,Soldermask,Bot*%
%TF.FilePolarity,Negative*%
%FSLAX46Y46*%
G04 Gerber Fmt 4.6, Leading zero omitted, Abs format (unit mm)*
G04 Created by KiCad (PCBNEW 8.0.5) date 2024-10-10 20:00:25*
%MOMM*%
%LPD*%
G01*
G04 APERTURE LIST*
%ADD10R,1.700000X1.700000*%
%ADD11O,1.700000X1.700000*%
%ADD12C,1.600000*%
%ADD13O,1.600000X1.600000*%
%ADD14R,1.600000X1.600000*%
%ADD15C,1.200000*%
%ADD16O,2.200000X1.200000*%
%ADD17O,2.300000X1.600000*%
%ADD18O,1.200000X2.200000*%
%ADD19O,2.500000X1.600000*%
%ADD20R,2.000000X2.000000*%
%ADD21C,2.000000*%
%ADD22C,3.200000*%
G04 APERTURE END LIST*
D10*
%TO.C,J1*%
X127940000Y-97460000D03*
D11*
X130480000Y-97460000D03*
X133020000Y-97460000D03*
X135560000Y-97460000D03*
X138100000Y-97460000D03*
X140640000Y-97460000D03*
X143180000Y-97460000D03*
X145720000Y-97460000D03*
%TD*%
D10*
%TO.C,J3*%
X150800000Y-97460000D03*
D11*
X153340000Y-97460000D03*
X155880000Y-97460000D03*
X158420000Y-97460000D03*
X160960000Y-97460000D03*
X163500000Y-97460000D03*
%TD*%
D10*
%TO.C,J2*%
X118796000Y-49200000D03*
D11*
X121336000Y-49200000D03*
X123876000Y-49200000D03*
X126416000Y-49200000D03*
X128956000Y-49200000D03*
X131496000Y-49200000D03*
X134036000Y-49200000D03*
X136576000Y-49200000D03*
X139116000Y-49200000D03*
X141656000Y-49200000D03*
%TD*%
D10*
%TO.C,J4*%
X145720000Y-49200000D03*
D11*
X148260000Y-49200000D03*
X150800000Y-49200000D03*
X153340000Y-49200000D03*
X155880000Y-49200000D03*
X158420000Y-49200000D03*
X160960000Y-49200000D03*
X163500000Y-49200000D03*
%TD*%
D12*
%TO.C,C1*%
X165278000Y-85990000D03*
X165278000Y-80990000D03*
%TD*%
%TO.C,R2*%
X114880000Y-66000000D03*
D13*
X122500000Y-66000000D03*
%TD*%
D10*
%TO.C,A2*%
X133260000Y-69820000D03*
D11*
X135800000Y-69820000D03*
X138340000Y-69820000D03*
X140880000Y-69820000D03*
%TD*%
D12*
%TO.C,C4*%
X145310000Y-54200000D03*
X145310000Y-59200000D03*
%TD*%
D14*
%TO.C,D1*%
X114880000Y-60000000D03*
D13*
X122500000Y-60000000D03*
%TD*%
D15*
%TO.C,J10*%
X164000000Y-64000000D03*
X166500000Y-64000000D03*
X159000000Y-59000000D03*
X164000000Y-54000000D03*
X166500000Y-54000000D03*
D16*
X159000000Y-64000000D03*
D17*
X159000000Y-61500000D03*
D18*
X164000000Y-59000000D03*
D16*
X159000000Y-54000000D03*
D19*
X159000000Y-56500000D03*
%TD*%
D12*
%TO.C,R4*%
X114880000Y-84000000D03*
D13*
X122500000Y-84000000D03*
%TD*%
D15*
%TO.C,J8*%
X103600000Y-87850000D03*
X101100000Y-87850000D03*
X108600000Y-92850000D03*
X103600000Y-97850000D03*
X101100000Y-97850000D03*
D16*
X108600000Y-87850000D03*
D17*
X108600000Y-90350000D03*
D18*
X103600000Y-92850000D03*
D16*
X108600000Y-97850000D03*
D19*
X108600000Y-95350000D03*
%TD*%
D15*
%TO.C,J9*%
X164000000Y-77100000D03*
X166500000Y-77100000D03*
X159000000Y-72100000D03*
X164000000Y-67100000D03*
X166500000Y-67100000D03*
D16*
X159000000Y-77100000D03*
D17*
X159000000Y-74600000D03*
D18*
X164000000Y-72100000D03*
D16*
X159000000Y-67100000D03*
D19*
X159000000Y-69600000D03*
%TD*%
D14*
%TO.C,D8*%
X122500000Y-90000000D03*
D13*
X114880000Y-90000000D03*
%TD*%
D20*
%TO.C,SW1*%
X141290000Y-62220000D03*
D21*
X141290000Y-57220000D03*
X141290000Y-59720000D03*
D22*
X133790000Y-65320000D03*
X133790000Y-54120000D03*
D21*
X126790000Y-57220000D03*
X126790000Y-62220000D03*
%TD*%
D14*
%TO.C,D7*%
X114880000Y-87000000D03*
D13*
X122500000Y-87000000D03*
%TD*%
D14*
%TO.C,D12*%
X145160000Y-68010000D03*
D13*
X152780000Y-68010000D03*
%TD*%
D12*
%TO.C,R5*%
X152780000Y-71010000D03*
D13*
X145160000Y-71010000D03*
%TD*%
D12*
%TO.C,R6*%
X152780000Y-62010000D03*
D13*
X145160000Y-62010000D03*
%TD*%
D14*
%TO.C,D2*%
X122500000Y-63000000D03*
D13*
X114880000Y-63000000D03*
%TD*%
D22*
%TO.C,MH1*%
X115240000Y-49200000D03*
%TD*%
D14*
%TO.C,D3*%
X114880000Y-69000000D03*
D13*
X122500000Y-69000000D03*
%TD*%
D14*
%TO.C,D11*%
X152780000Y-65010000D03*
D13*
X145160000Y-65010000D03*
%TD*%
D14*
%TO.C,D5*%
X114880000Y-78000000D03*
D13*
X122500000Y-78000000D03*
%TD*%
D12*
%TO.C,C5*%
X130800000Y-76260000D03*
X135800000Y-76260000D03*
%TD*%
D15*
%TO.C,J6*%
X103600000Y-61750000D03*
X101100000Y-61750000D03*
X108600000Y-66750000D03*
X103600000Y-71750000D03*
X101100000Y-71750000D03*
D16*
X108600000Y-61750000D03*
D17*
X108600000Y-64250000D03*
D18*
X103600000Y-66750000D03*
D16*
X108600000Y-71750000D03*
D19*
X108600000Y-69250000D03*
%TD*%
D14*
%TO.C,D9*%
X152780000Y-74010000D03*
D13*
X145160000Y-74010000D03*
%TD*%
D12*
%TO.C,C2*%
X151310000Y-54200000D03*
X151310000Y-59200000D03*
%TD*%
D14*
%TO.C,D4*%
X122500000Y-72000000D03*
D13*
X114880000Y-72000000D03*
%TD*%
D10*
%TO.C,A1*%
X161468000Y-82474000D03*
D11*
X161468000Y-85014000D03*
X161468000Y-87554000D03*
X161468000Y-90094000D03*
%TD*%
D12*
%TO.C,R1*%
X114880000Y-57000000D03*
D13*
X122500000Y-57000000D03*
%TD*%
D12*
%TO.C,C3*%
X148310000Y-54200000D03*
X148310000Y-59200000D03*
%TD*%
D15*
%TO.C,J5*%
X103600000Y-48700000D03*
X101100000Y-48700000D03*
X108600000Y-53700000D03*
X103600000Y-58700000D03*
X101100000Y-58700000D03*
D16*
X108600000Y-48700000D03*
D17*
X108600000Y-51200000D03*
D18*
X103600000Y-53700000D03*
D16*
X108600000Y-58700000D03*
D19*
X108600000Y-56200000D03*
%TD*%
D22*
%TO.C,MH2*%
X113970000Y-97460000D03*
%TD*%
D14*
%TO.C,D10*%
X145160000Y-77010000D03*
D13*
X152780000Y-77010000D03*
%TD*%
D15*
%TO.C,J7*%
X103600000Y-74800000D03*
X101100000Y-74800000D03*
X108600000Y-79800000D03*
X103600000Y-84800000D03*
X101100000Y-84800000D03*
D16*
X108600000Y-74800000D03*
D17*
X108600000Y-77300000D03*
D18*
X103600000Y-79800000D03*
D16*
X108600000Y-84800000D03*
D19*
X108600000Y-82300000D03*
%TD*%
D22*
%TO.C,MH4*%
X166040000Y-92380000D03*
%TD*%
D14*
%TO.C,D6*%
X122500000Y-81000000D03*
D13*
X114880000Y-81000000D03*
%TD*%
D12*
%TO.C,R3*%
X114880000Y-75000000D03*
D13*
X122500000Y-75000000D03*
%TD*%
M02*
