%TF.GenerationSoftware,KiCad,Pcbnew,8.0.5*%
%TF.CreationDate,2024-10-10T20:00:25+01:00*%
%TF.ProjectId,ArduinoClockGenShield,41726475-696e-46f4-936c-6f636b47656e,rev?*%
%TF.SameCoordinates,Original*%
%TF.FileFunction,Copper,L1,Top*%
%TF.FilePolarity,Positive*%
%FSLAX46Y46*%
G04 Gerber Fmt 4.6, Leading zero omitted, Abs format (unit mm)*
G04 Created by KiCad (PCBNEW 8.0.5) date 2024-10-10 20:00:25*
%MOMM*%
%LPD*%
G01*
G04 APERTURE LIST*
%TA.AperFunction,ComponentPad*%
%ADD10R,1.700000X1.700000*%
%TD*%
%TA.AperFunction,ComponentPad*%
%ADD11O,1.700000X1.700000*%
%TD*%
%TA.AperFunction,ComponentPad*%
%ADD12C,1.600000*%
%TD*%
%TA.AperFunction,ComponentPad*%
%ADD13O,1.600000X1.600000*%
%TD*%
%TA.AperFunction,ComponentPad*%
%ADD14R,1.600000X1.600000*%
%TD*%
%TA.AperFunction,ComponentPad*%
%ADD15O,2.200000X1.200000*%
%TD*%
%TA.AperFunction,ComponentPad*%
%ADD16O,2.300000X1.600000*%
%TD*%
%TA.AperFunction,ComponentPad*%
%ADD17O,1.200000X2.200000*%
%TD*%
%TA.AperFunction,ComponentPad*%
%ADD18O,2.500000X1.600000*%
%TD*%
%TA.AperFunction,ComponentPad*%
%ADD19R,2.000000X2.000000*%
%TD*%
%TA.AperFunction,ComponentPad*%
%ADD20C,2.000000*%
%TD*%
%TA.AperFunction,ComponentPad*%
%ADD21C,3.200000*%
%TD*%
%TA.AperFunction,Conductor*%
%ADD22C,0.600000*%
%TD*%
%TA.AperFunction,Conductor*%
%ADD23C,0.400000*%
%TD*%
G04 APERTURE END LIST*
D10*
%TO.P,J1,1,Pin_1*%
%TO.N,unconnected-(J1-Pin_1-Pad1)*%
X127940000Y-97460000D03*
D11*
%TO.P,J1,2,Pin_2*%
%TO.N,/IOREF*%
X130480000Y-97460000D03*
%TO.P,J1,3,Pin_3*%
%TO.N,/~{RESET}*%
X133020000Y-97460000D03*
%TO.P,J1,4,Pin_4*%
%TO.N,+3V3*%
X135560000Y-97460000D03*
%TO.P,J1,5,Pin_5*%
%TO.N,+5V*%
X138100000Y-97460000D03*
%TO.P,J1,6,Pin_6*%
%TO.N,GND*%
X140640000Y-97460000D03*
%TO.P,J1,7,Pin_7*%
X143180000Y-97460000D03*
%TO.P,J1,8,Pin_8*%
%TO.N,VCC*%
X145720000Y-97460000D03*
%TD*%
D10*
%TO.P,J3,1,Pin_1*%
%TO.N,/A0*%
X150800000Y-97460000D03*
D11*
%TO.P,J3,2,Pin_2*%
%TO.N,/A1*%
X153340000Y-97460000D03*
%TO.P,J3,3,Pin_3*%
%TO.N,/A2*%
X155880000Y-97460000D03*
%TO.P,J3,4,Pin_4*%
%TO.N,/A3*%
X158420000Y-97460000D03*
%TO.P,J3,5,Pin_5*%
%TO.N,/LCD_SDA*%
X160960000Y-97460000D03*
%TO.P,J3,6,Pin_6*%
%TO.N,/LCD_SCL*%
X163500000Y-97460000D03*
%TD*%
D10*
%TO.P,J2,1,Pin_1*%
%TO.N,/LCD_SCL*%
X118796000Y-49200000D03*
D11*
%TO.P,J2,2,Pin_2*%
%TO.N,/LCD_SDA*%
X121336000Y-49200000D03*
%TO.P,J2,3,Pin_3*%
%TO.N,/AREF*%
X123876000Y-49200000D03*
%TO.P,J2,4,Pin_4*%
%TO.N,GND*%
X126416000Y-49200000D03*
%TO.P,J2,5,Pin_5*%
%TO.N,/13*%
X128956000Y-49200000D03*
%TO.P,J2,6,Pin_6*%
%TO.N,/12*%
X131496000Y-49200000D03*
%TO.P,J2,7,Pin_7*%
%TO.N,/\u002A11*%
X134036000Y-49200000D03*
%TO.P,J2,8,Pin_8*%
%TO.N,/\u002A10*%
X136576000Y-49200000D03*
%TO.P,J2,9,Pin_9*%
%TO.N,/\u002A9*%
X139116000Y-49200000D03*
%TO.P,J2,10,Pin_10*%
%TO.N,/8*%
X141656000Y-49200000D03*
%TD*%
D10*
%TO.P,J4,1,Pin_1*%
%TO.N,/7*%
X145720000Y-49200000D03*
D11*
%TO.P,J4,2,Pin_2*%
%TO.N,/\u002A6*%
X148260000Y-49200000D03*
%TO.P,J4,3,Pin_3*%
%TO.N,/\u002A5*%
X150800000Y-49200000D03*
%TO.P,J4,4,Pin_4*%
%TO.N,/4*%
X153340000Y-49200000D03*
%TO.P,J4,5,Pin_5*%
%TO.N,/\u002A3*%
X155880000Y-49200000D03*
%TO.P,J4,6,Pin_6*%
%TO.N,/2*%
X158420000Y-49200000D03*
%TO.P,J4,7,Pin_7*%
%TO.N,/TX{slash}1*%
X160960000Y-49200000D03*
%TO.P,J4,8,Pin_8*%
%TO.N,/RX{slash}0*%
X163500000Y-49200000D03*
%TD*%
D12*
%TO.P,C1,1*%
%TO.N,+5V*%
X165278000Y-85990000D03*
%TO.P,C1,2*%
%TO.N,GND*%
X165278000Y-80990000D03*
%TD*%
%TO.P,R2,1*%
%TO.N,Net-(J6-PadT)*%
X114880000Y-66000000D03*
D13*
%TO.P,R2,2*%
%TO.N,/12*%
X122500000Y-66000000D03*
%TD*%
D10*
%TO.P,A2,1,Pin_1*%
%TO.N,GND*%
X133260000Y-69820000D03*
D11*
%TO.P,A2,2,Pin_2*%
%TO.N,+5V*%
X135800000Y-69820000D03*
%TO.P,A2,3,Pin_3*%
%TO.N,/LCD_SCL*%
X138340000Y-69820000D03*
%TO.P,A2,4,Pin_4*%
%TO.N,/LCD_SDA*%
X140880000Y-69820000D03*
%TD*%
D12*
%TO.P,C4,1*%
%TO.N,/\u002A6*%
X145310000Y-54200000D03*
%TO.P,C4,2*%
%TO.N,GND*%
X145310000Y-59200000D03*
%TD*%
D14*
%TO.P,D1,1,K*%
%TO.N,+5V*%
X114880000Y-60000000D03*
D13*
%TO.P,D1,2,A*%
%TO.N,/13*%
X122500000Y-60000000D03*
%TD*%
D15*
%TO.P,J10,R*%
%TO.N,unconnected-(J10-PadR)*%
X159000000Y-64000000D03*
D16*
%TO.P,J10,RN*%
%TO.N,unconnected-(J10-PadRN)*%
X159000000Y-61500000D03*
D17*
%TO.P,J10,S*%
%TO.N,GND*%
X164000000Y-59000000D03*
D15*
%TO.P,J10,T*%
%TO.N,Net-(J10-PadT)*%
X159000000Y-54000000D03*
D18*
%TO.P,J10,TN*%
%TO.N,unconnected-(J10-PadTN)*%
X159000000Y-56500000D03*
%TD*%
D12*
%TO.P,R4,1*%
%TO.N,Net-(J8-PadT)*%
X114880000Y-84000000D03*
D13*
%TO.P,R4,2*%
%TO.N,/\u002A10*%
X122500000Y-84000000D03*
%TD*%
D15*
%TO.P,J8,R*%
%TO.N,unconnected-(J8-PadR)*%
X108600000Y-87850000D03*
D16*
%TO.P,J8,RN*%
%TO.N,unconnected-(J8-PadRN)*%
X108600000Y-90350000D03*
D17*
%TO.P,J8,S*%
%TO.N,GND*%
X103600000Y-92850000D03*
D15*
%TO.P,J8,T*%
%TO.N,Net-(J8-PadT)*%
X108600000Y-97850000D03*
D18*
%TO.P,J8,TN*%
%TO.N,unconnected-(J8-PadTN)*%
X108600000Y-95350000D03*
%TD*%
D15*
%TO.P,J9,R*%
%TO.N,unconnected-(J9-PadR)*%
X159000000Y-77100000D03*
D16*
%TO.P,J9,RN*%
%TO.N,unconnected-(J9-PadRN)*%
X159000000Y-74600000D03*
D17*
%TO.P,J9,S*%
%TO.N,GND*%
X164000000Y-72100000D03*
D15*
%TO.P,J9,T*%
%TO.N,Net-(J9-PadT)*%
X159000000Y-67100000D03*
D18*
%TO.P,J9,TN*%
%TO.N,unconnected-(J9-PadTN)*%
X159000000Y-69600000D03*
%TD*%
D14*
%TO.P,D8,1,K*%
%TO.N,/\u002A10*%
X122500000Y-90000000D03*
D13*
%TO.P,D8,2,A*%
%TO.N,GND*%
X114880000Y-90000000D03*
%TD*%
D19*
%TO.P,SW1,A,A*%
%TO.N,/4*%
X141290000Y-62220000D03*
D20*
%TO.P,SW1,B,B*%
%TO.N,/\u002A5*%
X141290000Y-57220000D03*
%TO.P,SW1,C,C*%
%TO.N,GND*%
X141290000Y-59720000D03*
D21*
%TO.P,SW1,MP*%
%TO.N,N/C*%
X133790000Y-65320000D03*
X133790000Y-54120000D03*
D20*
%TO.P,SW1,S1,S1*%
%TO.N,/\u002A6*%
X126790000Y-57220000D03*
%TO.P,SW1,S2,S2*%
%TO.N,GND*%
X126790000Y-62220000D03*
%TD*%
D14*
%TO.P,D7,1,K*%
%TO.N,+5V*%
X114880000Y-87000000D03*
D13*
%TO.P,D7,2,A*%
%TO.N,/\u002A10*%
X122500000Y-87000000D03*
%TD*%
D14*
%TO.P,D12,1,K*%
%TO.N,/\u002A3*%
X145160000Y-68010000D03*
D13*
%TO.P,D12,2,A*%
%TO.N,GND*%
X152780000Y-68010000D03*
%TD*%
D12*
%TO.P,R5,1*%
%TO.N,Net-(J9-PadT)*%
X152780000Y-71010000D03*
D13*
%TO.P,R5,2*%
%TO.N,/2*%
X145160000Y-71010000D03*
%TD*%
D12*
%TO.P,R6,1*%
%TO.N,Net-(J10-PadT)*%
X152780000Y-62010000D03*
D13*
%TO.P,R6,2*%
%TO.N,/\u002A3*%
X145160000Y-62010000D03*
%TD*%
D14*
%TO.P,D2,1,K*%
%TO.N,/13*%
X122500000Y-63000000D03*
D13*
%TO.P,D2,2,A*%
%TO.N,GND*%
X114880000Y-63000000D03*
%TD*%
D14*
%TO.P,D3,1,K*%
%TO.N,+5V*%
X114880000Y-69000000D03*
D13*
%TO.P,D3,2,A*%
%TO.N,/12*%
X122500000Y-69000000D03*
%TD*%
D14*
%TO.P,D11,1,K*%
%TO.N,+5V*%
X152780000Y-65010000D03*
D13*
%TO.P,D11,2,A*%
%TO.N,/\u002A3*%
X145160000Y-65010000D03*
%TD*%
D14*
%TO.P,D5,1,K*%
%TO.N,+5V*%
X114880000Y-78000000D03*
D13*
%TO.P,D5,2,A*%
%TO.N,/\u002A11*%
X122500000Y-78000000D03*
%TD*%
D12*
%TO.P,C5,1*%
%TO.N,GND*%
X130800000Y-76260000D03*
%TO.P,C5,2*%
%TO.N,+5V*%
X135800000Y-76260000D03*
%TD*%
D15*
%TO.P,J6,R*%
%TO.N,unconnected-(J6-PadR)*%
X108600000Y-61750000D03*
D16*
%TO.P,J6,RN*%
%TO.N,unconnected-(J6-PadRN)*%
X108600000Y-64250000D03*
D17*
%TO.P,J6,S*%
%TO.N,GND*%
X103600000Y-66750000D03*
D15*
%TO.P,J6,T*%
%TO.N,Net-(J6-PadT)*%
X108600000Y-71750000D03*
D18*
%TO.P,J6,TN*%
%TO.N,unconnected-(J6-PadTN)*%
X108600000Y-69250000D03*
%TD*%
D14*
%TO.P,D9,1,K*%
%TO.N,+5V*%
X152780000Y-74010000D03*
D13*
%TO.P,D9,2,A*%
%TO.N,/2*%
X145160000Y-74010000D03*
%TD*%
D12*
%TO.P,C2,1*%
%TO.N,/4*%
X151310000Y-54200000D03*
%TO.P,C2,2*%
%TO.N,GND*%
X151310000Y-59200000D03*
%TD*%
D14*
%TO.P,D4,1,K*%
%TO.N,/12*%
X122500000Y-72000000D03*
D13*
%TO.P,D4,2,A*%
%TO.N,GND*%
X114880000Y-72000000D03*
%TD*%
D10*
%TO.P,A1,1,Pin_1*%
%TO.N,GND*%
X161468000Y-82474000D03*
D11*
%TO.P,A1,2,Pin_2*%
%TO.N,+5V*%
X161468000Y-85014000D03*
%TO.P,A1,3,Pin_3*%
%TO.N,/LCD_SCL*%
X161468000Y-87554000D03*
%TO.P,A1,4,Pin_4*%
%TO.N,/LCD_SDA*%
X161468000Y-90094000D03*
%TD*%
D12*
%TO.P,R1,1*%
%TO.N,Net-(J5-PadT)*%
X114880000Y-57000000D03*
D13*
%TO.P,R1,2*%
%TO.N,/13*%
X122500000Y-57000000D03*
%TD*%
D12*
%TO.P,C3,1*%
%TO.N,/\u002A5*%
X148310000Y-54200000D03*
%TO.P,C3,2*%
%TO.N,GND*%
X148310000Y-59200000D03*
%TD*%
D15*
%TO.P,J5,R*%
%TO.N,unconnected-(J5-PadR)*%
X108600000Y-48700000D03*
D16*
%TO.P,J5,RN*%
%TO.N,unconnected-(J5-PadRN)*%
X108600000Y-51200000D03*
D17*
%TO.P,J5,S*%
%TO.N,GND*%
X103600000Y-53700000D03*
D15*
%TO.P,J5,T*%
%TO.N,Net-(J5-PadT)*%
X108600000Y-58700000D03*
D18*
%TO.P,J5,TN*%
%TO.N,unconnected-(J5-PadTN)*%
X108600000Y-56200000D03*
%TD*%
D14*
%TO.P,D10,1,K*%
%TO.N,/2*%
X145160000Y-77010000D03*
D13*
%TO.P,D10,2,A*%
%TO.N,GND*%
X152780000Y-77010000D03*
%TD*%
D15*
%TO.P,J7,R*%
%TO.N,unconnected-(J7-PadR)*%
X108600000Y-74800000D03*
D16*
%TO.P,J7,RN*%
%TO.N,unconnected-(J7-PadRN)*%
X108600000Y-77300000D03*
D17*
%TO.P,J7,S*%
%TO.N,GND*%
X103600000Y-79800000D03*
D15*
%TO.P,J7,T*%
%TO.N,Net-(J7-PadT)*%
X108600000Y-84800000D03*
D18*
%TO.P,J7,TN*%
%TO.N,unconnected-(J7-PadTN)*%
X108600000Y-82300000D03*
%TD*%
D14*
%TO.P,D6,1,K*%
%TO.N,/\u002A11*%
X122500000Y-81000000D03*
D13*
%TO.P,D6,2,A*%
%TO.N,GND*%
X114880000Y-81000000D03*
%TD*%
D12*
%TO.P,R3,1*%
%TO.N,Net-(J7-PadT)*%
X114880000Y-75000000D03*
D13*
%TO.P,R3,2*%
%TO.N,/\u002A11*%
X122500000Y-75000000D03*
%TD*%
D22*
%TO.N,+5V*%
X114880000Y-69000000D02*
X116470000Y-69000000D01*
X116510000Y-87000000D02*
X116510000Y-78000000D01*
X150820000Y-85014000D02*
X138196000Y-85014000D01*
X138100000Y-97080000D02*
X138400000Y-96780000D01*
X135800000Y-69820000D02*
X135800000Y-82810000D01*
X150820000Y-73930000D02*
X150820000Y-85014000D01*
X161468000Y-85014000D02*
X150820000Y-85014000D01*
X152780000Y-65010000D02*
X152760000Y-65010000D01*
X138100000Y-97460000D02*
X138100000Y-92800000D01*
X116510000Y-61630000D02*
X114880000Y-60000000D01*
X150820000Y-66970000D02*
X152780000Y-65010000D01*
X116510000Y-68960000D02*
X116510000Y-61630000D01*
X150820000Y-73930000D02*
X150820000Y-66970000D01*
X138196000Y-85014000D02*
X138100000Y-85110000D01*
X138100000Y-92800000D02*
X138100000Y-85110000D01*
X135800000Y-82810000D02*
X138100000Y-85110000D01*
X152780000Y-74010000D02*
X150900000Y-74010000D01*
X150900000Y-74010000D02*
X150820000Y-73930000D01*
X164302000Y-85014000D02*
X165278000Y-85990000D01*
X116470000Y-69000000D02*
X116510000Y-68960000D01*
X161468000Y-85014000D02*
X164302000Y-85014000D01*
X122310000Y-92800000D02*
X116510000Y-87000000D01*
X116510000Y-78000000D02*
X116510000Y-68960000D01*
X114880000Y-78000000D02*
X116510000Y-78000000D01*
X138100000Y-97460000D02*
X138100000Y-97080000D01*
X116510000Y-87000000D02*
X114880000Y-87000000D01*
X122310000Y-92800000D02*
X138100000Y-92800000D01*
D23*
%TO.N,/13*%
X122500000Y-63000000D02*
X122500000Y-60000000D01*
X122500000Y-57000000D02*
X122500000Y-60000000D01*
X122500000Y-55656000D02*
X128956000Y-49200000D01*
X122500000Y-57000000D02*
X122500000Y-55656000D01*
%TO.N,/12*%
X124560000Y-56136000D02*
X124560000Y-63940000D01*
X131496000Y-49200000D02*
X124560000Y-56136000D01*
X122500000Y-66000000D02*
X122500000Y-69000000D01*
X122500000Y-69000000D02*
X122500000Y-72000000D01*
X124560000Y-63940000D02*
X122500000Y-66000000D01*
%TO.N,/\u002A11*%
X128940000Y-54296000D02*
X128940000Y-68560000D01*
X134036000Y-49200000D02*
X128940000Y-54296000D01*
X122500000Y-75000000D02*
X122500000Y-78000000D01*
X128940000Y-68560000D02*
X122500000Y-75000000D01*
X134036000Y-49200000D02*
X133263767Y-49200000D01*
X122500000Y-78000000D02*
X122500000Y-81000000D01*
%TO.N,/\u002A10*%
X132865000Y-51485000D02*
X129695000Y-54655000D01*
X134291000Y-51485000D02*
X136576000Y-49200000D01*
X136576000Y-49952528D02*
X136576000Y-49200000D01*
X122500000Y-84000000D02*
X122500000Y-87000000D01*
X124840000Y-81660000D02*
X122500000Y-84000000D01*
X122500000Y-87000000D02*
X122500000Y-90000000D01*
X129695000Y-54655000D02*
X129695000Y-69015000D01*
X129695000Y-69015000D02*
X124840000Y-73870000D01*
X124840000Y-73870000D02*
X124840000Y-81660000D01*
X132865000Y-51485000D02*
X134291000Y-51485000D01*
%TO.N,/4*%
X143410000Y-58990000D02*
X143410000Y-60100000D01*
X153340000Y-52170000D02*
X151310000Y-54200000D01*
X151310000Y-54200000D02*
X147690000Y-57820000D01*
X144580000Y-57820000D02*
X143410000Y-58990000D01*
X153340000Y-49200000D02*
X153340000Y-52170000D01*
X147690000Y-57820000D02*
X144580000Y-57820000D01*
X143410000Y-60100000D02*
X141290000Y-62220000D01*
%TO.N,/2*%
X145160000Y-71010000D02*
X145160000Y-74010000D01*
X145160000Y-74010000D02*
X145160000Y-77010000D01*
X158420000Y-49200000D02*
X156480000Y-51140000D01*
X148240000Y-64852943D02*
X148240000Y-67930000D01*
X156480000Y-56612943D02*
X148240000Y-64852943D01*
X148240000Y-67930000D02*
X145160000Y-71010000D01*
X156480000Y-51140000D02*
X156480000Y-56612943D01*
%TO.N,/\u002A6*%
X148260000Y-49200000D02*
X148260000Y-51250000D01*
X148260000Y-51250000D02*
X145310000Y-54200000D01*
%TO.N,/\u002A5*%
X150800000Y-51710000D02*
X148310000Y-54200000D01*
X145290000Y-57220000D02*
X141290000Y-57220000D01*
X148310000Y-54200000D02*
X145290000Y-57220000D01*
X150800000Y-49200000D02*
X150800000Y-51710000D01*
%TO.N,/\u002A3*%
X145160000Y-62010000D02*
X150197057Y-62010000D01*
X155880000Y-56327057D02*
X155880000Y-49200000D01*
X145160000Y-65010000D02*
X145160000Y-68010000D01*
X150197057Y-62010000D02*
X155880000Y-56327057D01*
X145160000Y-62010000D02*
X145160000Y-65010000D01*
%TO.N,Net-(J5-PadT)*%
X113180000Y-58700000D02*
X108600000Y-58700000D01*
X114880000Y-57000000D02*
X113180000Y-58700000D01*
%TO.N,/LCD_SDA*%
X160960000Y-90602000D02*
X161468000Y-90094000D01*
X160960000Y-97460000D02*
X160960000Y-90602000D01*
%TO.N,/LCD_SCL*%
X161468000Y-87554000D02*
X163500000Y-89586000D01*
X163500000Y-89586000D02*
X163500000Y-97460000D01*
%TO.N,Net-(J6-PadT)*%
X108600000Y-71750000D02*
X109130000Y-71750000D01*
X109130000Y-71750000D02*
X114880000Y-66000000D01*
%TO.N,Net-(J7-PadT)*%
X111490000Y-78390000D02*
X114880000Y-75000000D01*
X111490000Y-81910000D02*
X111490000Y-78390000D01*
X111490000Y-81910000D02*
X108600000Y-84800000D01*
%TO.N,Net-(J8-PadT)*%
X111380000Y-87500000D02*
X114880000Y-84000000D01*
X111380000Y-95070000D02*
X111380000Y-87500000D01*
X111380000Y-95070000D02*
X108600000Y-97850000D01*
%TO.N,Net-(J9-PadT)*%
X159000000Y-67100000D02*
X156690000Y-67100000D01*
X156690000Y-67100000D02*
X152780000Y-71010000D01*
%TO.N,Net-(J10-PadT)*%
X157080000Y-57710000D02*
X152780000Y-62010000D01*
X157080000Y-55920000D02*
X157080000Y-57710000D01*
X159000000Y-54000000D02*
X157080000Y-55920000D01*
%TD*%
M02*
