%TF.GenerationSoftware,KiCad,Pcbnew,(6.0.5)*%
%TF.CreationDate,2023-03-15T22:14:50+00:00*%
%TF.ProjectId,XiaoSynthBoard,5869616f-5379-46e7-9468-426f6172642e,rev?*%
%TF.SameCoordinates,Original*%
%TF.FileFunction,Profile,NP*%
%FSLAX46Y46*%
G04 Gerber Fmt 4.6, Leading zero omitted, Abs format (unit mm)*
G04 Created by KiCad (PCBNEW (6.0.5)) date 2023-03-15 22:14:50*
%MOMM*%
%LPD*%
G01*
G04 APERTURE LIST*
%TA.AperFunction,Profile*%
%ADD10C,0.100000*%
%TD*%
%TA.AperFunction,Profile*%
%ADD11C,0.120000*%
%TD*%
G04 APERTURE END LIST*
D10*
X125000000Y-54000000D02*
X127000000Y-54000000D01*
X127000000Y-54000000D02*
X127000000Y-63000000D01*
X127000000Y-63000000D02*
X125000000Y-63000000D01*
X125000000Y-63000000D02*
X125000000Y-54000000D01*
X125000000Y-74000000D02*
X127000000Y-74000000D01*
X127000000Y-74000000D02*
X127000000Y-116000000D01*
X127000000Y-116000000D02*
X125000000Y-116000000D01*
X125000000Y-116000000D02*
X125000000Y-74000000D01*
X50000000Y-64500000D02*
X50000000Y-58500000D01*
X50000000Y-84500000D02*
X50000000Y-78500000D01*
X50000000Y-102500000D02*
X50000000Y-104500000D01*
X50000000Y-117500000D02*
X50000000Y-120000000D01*
X50000000Y-50000000D02*
X50000000Y-58500000D01*
X150000000Y-50000000D02*
X50000000Y-50000000D01*
X150000000Y-120000000D02*
X150000000Y-50000000D01*
X50000000Y-120000000D02*
X150000000Y-120000000D01*
X50000000Y-97500000D02*
X50000000Y-102500000D01*
X50000000Y-77500000D02*
X50000000Y-78500000D01*
D11*
%TO.C,J1*%
X51000000Y-73200000D02*
G75*
G03*
X51400000Y-72800000I0J400000D01*
G01*
X51400000Y-69200000D02*
G75*
G03*
X51000000Y-68800000I-400002J-2D01*
G01*
X50000000Y-68800000D02*
X50000000Y-64500000D01*
X51000000Y-73200000D02*
X50000000Y-73200000D01*
X51000000Y-68800000D02*
X50000000Y-68800000D01*
X50000000Y-73200000D02*
X50000000Y-77500000D01*
X51400000Y-72800000D02*
X51400000Y-69200000D01*
%TO.C,J2*%
X51000000Y-93200000D02*
G75*
G03*
X51400000Y-92800000I0J400000D01*
G01*
X51400000Y-89200000D02*
G75*
G03*
X51000000Y-88800000I-400002J-2D01*
G01*
X51000000Y-93200000D02*
X50000000Y-93200000D01*
X51400000Y-92800000D02*
X51400000Y-89200000D01*
X51000000Y-88800000D02*
X50000000Y-88800000D01*
X50000000Y-88800000D02*
X50000000Y-84500000D01*
X50000000Y-93200000D02*
X50000000Y-97500000D01*
%TO.C,J12*%
X51400000Y-109200000D02*
G75*
G03*
X51000000Y-108800000I-400002J-2D01*
G01*
X51000000Y-113200000D02*
G75*
G03*
X51400000Y-112800000I0J400000D01*
G01*
X51000000Y-113200000D02*
X50000000Y-113200000D01*
X51000000Y-108800000D02*
X50000000Y-108800000D01*
X50000000Y-108800000D02*
X50000000Y-104500000D01*
X50000000Y-113200000D02*
X50000000Y-117500000D01*
X51400000Y-112800000D02*
X51400000Y-109200000D01*
%TD*%
M02*
