%TF.GenerationSoftware,KiCad,Pcbnew,(6.0.5)*%
%TF.CreationDate,2023-03-15T22:14:50+00:00*%
%TF.ProjectId,XiaoSynthBoard,5869616f-5379-46e7-9468-426f6172642e,rev?*%
%TF.SameCoordinates,Original*%
%TF.FileFunction,Soldermask,Bot*%
%TF.FilePolarity,Negative*%
%FSLAX46Y46*%
G04 Gerber Fmt 4.6, Leading zero omitted, Abs format (unit mm)*
G04 Created by KiCad (PCBNEW (6.0.5)) date 2023-03-15 22:14:50*
%MOMM*%
%LPD*%
G01*
G04 APERTURE LIST*
G04 Aperture macros list*
%AMRoundRect*
0 Rectangle with rounded corners*
0 $1 Rounding radius*
0 $2 $3 $4 $5 $6 $7 $8 $9 X,Y pos of 4 corners*
0 Add a 4 corners polygon primitive as box body*
4,1,4,$2,$3,$4,$5,$6,$7,$8,$9,$2,$3,0*
0 Add four circle primitives for the rounded corners*
1,1,$1+$1,$2,$3*
1,1,$1+$1,$4,$5*
1,1,$1+$1,$6,$7*
1,1,$1+$1,$8,$9*
0 Add four rect primitives between the rounded corners*
20,1,$1+$1,$2,$3,$4,$5,0*
20,1,$1+$1,$4,$5,$6,$7,0*
20,1,$1+$1,$6,$7,$8,$9,0*
20,1,$1+$1,$8,$9,$2,$3,0*%
G04 Aperture macros list end*
%ADD10C,2.499360*%
%ADD11R,1.700000X1.700000*%
%ADD12O,1.700000X1.700000*%
%ADD13O,2.200000X1.200000*%
%ADD14O,1.200000X2.200000*%
%ADD15C,1.600000*%
%ADD16O,1.600000X1.600000*%
%ADD17RoundRect,0.750000X-1.250000X-0.750000X1.250000X-0.750000X1.250000X0.750000X-1.250000X0.750000X0*%
%ADD18C,1.800000*%
%ADD19R,1.800000X1.800000*%
%ADD20R,1.600000X1.600000*%
%ADD21C,2.250000*%
G04 APERTURE END LIST*
D10*
%TO.C,J4*%
X64499100Y-66003820D03*
X64499100Y-75996180D03*
X61997200Y-63501920D03*
X61999740Y-71000000D03*
X61997200Y-78498080D03*
X52002300Y-76001260D03*
X52002300Y-65998740D03*
%TD*%
D11*
%TO.C,J9*%
X60825000Y-58975000D03*
D12*
X63365000Y-58975000D03*
X65905000Y-58975000D03*
%TD*%
%TO.C,J14*%
X98000000Y-113080000D03*
X98000000Y-110540000D03*
D11*
X98000000Y-108000000D03*
%TD*%
%TO.C,J13*%
X104000000Y-108000000D03*
D12*
X104000000Y-110540000D03*
X104000000Y-113080000D03*
%TD*%
D13*
%TO.C,J1*%
X59500000Y-73500000D03*
X59500000Y-76000000D03*
D14*
X54500000Y-71000000D03*
D13*
X59500000Y-68500000D03*
X59500000Y-66000000D03*
%TD*%
D15*
%TO.C,C1*%
X92750000Y-84475000D03*
X87750000Y-84475000D03*
%TD*%
%TO.C,R4*%
X73815000Y-86825000D03*
D16*
X81435000Y-86825000D03*
%TD*%
D13*
%TO.C,J2*%
X59500000Y-93500000D03*
X59500000Y-96000000D03*
D14*
X54500000Y-91000000D03*
D13*
X59500000Y-88500000D03*
X59500000Y-86000000D03*
%TD*%
D11*
%TO.C,J7*%
X79500000Y-54500000D03*
D12*
X79500000Y-57040000D03*
X79500000Y-59580000D03*
X79500000Y-62120000D03*
X79500000Y-64660000D03*
X79500000Y-67200000D03*
X79500000Y-69740000D03*
%TD*%
D17*
%TO.C,RV2*%
X117000000Y-80900000D03*
X117000000Y-72100000D03*
D18*
X110000000Y-79000000D03*
X110000000Y-76500000D03*
D19*
X110000000Y-74000000D03*
%TD*%
D17*
%TO.C,RV4*%
X117000000Y-106100000D03*
X117000000Y-114900000D03*
D18*
X110000000Y-113000000D03*
X110000000Y-110500000D03*
D19*
X110000000Y-108000000D03*
%TD*%
D11*
%TO.C,J8*%
X86050000Y-53820000D03*
D12*
X88590000Y-53820000D03*
X86050000Y-56360000D03*
X88590000Y-56360000D03*
%TD*%
D11*
%TO.C,J5*%
X53825000Y-53150000D03*
D12*
X53825000Y-55690000D03*
%TD*%
D15*
%TO.C,C2*%
X73400000Y-106000000D03*
X78400000Y-106000000D03*
%TD*%
D16*
%TO.C,U1*%
X92795000Y-88275000D03*
X92795000Y-90815000D03*
X92795000Y-93355000D03*
X85175000Y-93355000D03*
X85175000Y-90815000D03*
D20*
X85175000Y-88275000D03*
%TD*%
D15*
%TO.C,R1*%
X73825000Y-90500000D03*
D16*
X81445000Y-90500000D03*
%TD*%
D20*
%TO.C,C3*%
X67544888Y-106000000D03*
D15*
X69544888Y-106000000D03*
%TD*%
D13*
%TO.C,J12*%
X59500000Y-113500000D03*
X59500000Y-116000000D03*
D14*
X54500000Y-111000000D03*
D13*
X59500000Y-108500000D03*
X59500000Y-106000000D03*
%TD*%
D19*
%TO.C,RV7*%
X133000000Y-74000000D03*
D18*
X133000000Y-76500000D03*
X133000000Y-79000000D03*
D17*
X140000000Y-80900000D03*
X140000000Y-72100000D03*
%TD*%
D15*
%TO.C,R3*%
X73765000Y-79475000D03*
D16*
X81385000Y-79475000D03*
%TD*%
D11*
%TO.C,J11*%
X100025000Y-54500000D03*
D12*
X100025000Y-57040000D03*
X100025000Y-59580000D03*
X100025000Y-62120000D03*
X100025000Y-64660000D03*
X100025000Y-67200000D03*
X100025000Y-69740000D03*
%TD*%
D11*
%TO.C,J6*%
X74500000Y-54500000D03*
D12*
X74500000Y-57040000D03*
X74500000Y-59580000D03*
X74500000Y-62120000D03*
X74500000Y-64660000D03*
X74500000Y-67200000D03*
X74500000Y-69740000D03*
%TD*%
D17*
%TO.C,RV3*%
X117000000Y-89100000D03*
X117000000Y-97900000D03*
D18*
X110000000Y-96000000D03*
X110000000Y-93500000D03*
D19*
X110000000Y-91000000D03*
%TD*%
D15*
%TO.C,R2*%
X73840000Y-83275000D03*
D16*
X81460000Y-83275000D03*
%TD*%
D21*
%TO.C,SW1*%
X59850000Y-53700000D03*
X66350000Y-53700000D03*
%TD*%
D15*
%TO.C,R5*%
X73490000Y-110475000D03*
D16*
X81110000Y-110475000D03*
%TD*%
D11*
%TO.C,J10*%
X95025000Y-54500000D03*
D12*
X95025000Y-57040000D03*
X95025000Y-59580000D03*
X95025000Y-62120000D03*
X95025000Y-64660000D03*
X95025000Y-67200000D03*
X95025000Y-69740000D03*
%TD*%
D20*
%TO.C,D1*%
X73815000Y-93800000D03*
D16*
X81435000Y-93800000D03*
%TD*%
D17*
%TO.C,RV8*%
X140000000Y-55100000D03*
X140000000Y-63900000D03*
D18*
X133000000Y-62000000D03*
X133000000Y-59500000D03*
D19*
X133000000Y-57000000D03*
%TD*%
D10*
%TO.C,J3*%
X52002300Y-96001260D03*
X52002300Y-85998740D03*
X61997200Y-98498080D03*
X61999740Y-91000000D03*
X61997200Y-83501920D03*
X64499100Y-95996180D03*
X64499100Y-86003820D03*
%TD*%
D17*
%TO.C,RV5*%
X140000000Y-114900000D03*
X140000000Y-106100000D03*
D18*
X133000000Y-113000000D03*
X133000000Y-110500000D03*
D19*
X133000000Y-108000000D03*
%TD*%
%TO.C,RV6*%
X133000000Y-91000000D03*
D18*
X133000000Y-93500000D03*
X133000000Y-96000000D03*
D17*
X140000000Y-97900000D03*
X140000000Y-89100000D03*
%TD*%
%TO.C,RV1*%
X117000000Y-63900000D03*
X117000000Y-55100000D03*
D18*
X110000000Y-62000000D03*
X110000000Y-59500000D03*
D19*
X110000000Y-57000000D03*
%TD*%
M02*
