%TF.GenerationSoftware,KiCad,Pcbnew,(6.0.5)*%
%TF.CreationDate,2023-03-15T22:14:50+00:00*%
%TF.ProjectId,XiaoSynthBoard,5869616f-5379-46e7-9468-426f6172642e,rev?*%
%TF.SameCoordinates,Original*%
%TF.FileFunction,Legend,Top*%
%TF.FilePolarity,Positive*%
%FSLAX46Y46*%
G04 Gerber Fmt 4.6, Leading zero omitted, Abs format (unit mm)*
G04 Created by KiCad (PCBNEW (6.0.5)) date 2023-03-15 22:14:50*
%MOMM*%
%LPD*%
G01*
G04 APERTURE LIST*
%ADD10C,0.150000*%
%ADD11C,0.100000*%
%ADD12C,0.304800*%
%ADD13C,0.152400*%
%ADD14C,0.120000*%
%ADD15C,0.127000*%
%ADD16C,2.499360*%
G04 APERTURE END LIST*
D10*
X148166666Y-111214285D02*
X148166666Y-110738095D01*
X148452380Y-111309523D02*
X147452380Y-110976190D01*
X148452380Y-110642857D01*
X147452380Y-109833333D02*
X147452380Y-110309523D01*
X147928571Y-110357142D01*
X147880952Y-110309523D01*
X147833333Y-110214285D01*
X147833333Y-109976190D01*
X147880952Y-109880952D01*
X147928571Y-109833333D01*
X148023809Y-109785714D01*
X148261904Y-109785714D01*
X148357142Y-109833333D01*
X148404761Y-109880952D01*
X148452380Y-109976190D01*
X148452380Y-110214285D01*
X148404761Y-110309523D01*
X148357142Y-110357142D01*
X148166666Y-60690476D02*
X148166666Y-60214285D01*
X148452380Y-60785714D02*
X147452380Y-60452380D01*
X148452380Y-60119047D01*
X148452380Y-59261904D02*
X148452380Y-59833333D01*
X148452380Y-59547619D02*
X147452380Y-59547619D01*
X147595238Y-59642857D01*
X147690476Y-59738095D01*
X147738095Y-59833333D01*
X147452380Y-58642857D02*
X147452380Y-58547619D01*
X147500000Y-58452380D01*
X147547619Y-58404761D01*
X147642857Y-58357142D01*
X147833333Y-58309523D01*
X148071428Y-58309523D01*
X148261904Y-58357142D01*
X148357142Y-58404761D01*
X148404761Y-58452380D01*
X148452380Y-58547619D01*
X148452380Y-58642857D01*
X148404761Y-58738095D01*
X148357142Y-58785714D01*
X148261904Y-58833333D01*
X148071428Y-58880952D01*
X147833333Y-58880952D01*
X147642857Y-58833333D01*
X147547619Y-58785714D01*
X147500000Y-58738095D01*
X147452380Y-58642857D01*
X148166666Y-77214285D02*
X148166666Y-76738095D01*
X148452380Y-77309523D02*
X147452380Y-76976190D01*
X148452380Y-76642857D01*
X148452380Y-76261904D02*
X148452380Y-76071428D01*
X148404761Y-75976190D01*
X148357142Y-75928571D01*
X148214285Y-75833333D01*
X148023809Y-75785714D01*
X147642857Y-75785714D01*
X147547619Y-75833333D01*
X147500000Y-75880952D01*
X147452380Y-75976190D01*
X147452380Y-76166666D01*
X147500000Y-76261904D01*
X147547619Y-76309523D01*
X147642857Y-76357142D01*
X147880952Y-76357142D01*
X147976190Y-76309523D01*
X148023809Y-76261904D01*
X148071428Y-76166666D01*
X148071428Y-75976190D01*
X148023809Y-75880952D01*
X147976190Y-75833333D01*
X147880952Y-75785714D01*
X148166666Y-94214285D02*
X148166666Y-93738095D01*
X148452380Y-94309523D02*
X147452380Y-93976190D01*
X148452380Y-93642857D01*
X147880952Y-93166666D02*
X147833333Y-93261904D01*
X147785714Y-93309523D01*
X147690476Y-93357142D01*
X147642857Y-93357142D01*
X147547619Y-93309523D01*
X147500000Y-93261904D01*
X147452380Y-93166666D01*
X147452380Y-92976190D01*
X147500000Y-92880952D01*
X147547619Y-92833333D01*
X147642857Y-92785714D01*
X147690476Y-92785714D01*
X147785714Y-92833333D01*
X147833333Y-92880952D01*
X147880952Y-92976190D01*
X147880952Y-93166666D01*
X147928571Y-93261904D01*
X147976190Y-93309523D01*
X148071428Y-93357142D01*
X148261904Y-93357142D01*
X148357142Y-93309523D01*
X148404761Y-93261904D01*
X148452380Y-93166666D01*
X148452380Y-92976190D01*
X148404761Y-92880952D01*
X148357142Y-92833333D01*
X148261904Y-92785714D01*
X148071428Y-92785714D01*
X147976190Y-92833333D01*
X147928571Y-92880952D01*
X147880952Y-92976190D01*
X125166666Y-112642857D02*
X125166666Y-112166666D01*
X125452380Y-112738095D02*
X124452380Y-112404761D01*
X125452380Y-112071428D01*
X124785714Y-111309523D02*
X125452380Y-111309523D01*
X124404761Y-111547619D02*
X125119047Y-111785714D01*
X125119047Y-111166666D01*
X124404761Y-110071428D02*
X125690476Y-110928571D01*
X125166666Y-109785714D02*
X125166666Y-109309523D01*
X125452380Y-109880952D02*
X124452380Y-109547619D01*
X125452380Y-109214285D01*
X124452380Y-108690476D02*
X124452380Y-108595238D01*
X124500000Y-108500000D01*
X124547619Y-108452380D01*
X124642857Y-108404761D01*
X124833333Y-108357142D01*
X125071428Y-108357142D01*
X125261904Y-108404761D01*
X125357142Y-108452380D01*
X125404761Y-108500000D01*
X125452380Y-108595238D01*
X125452380Y-108690476D01*
X125404761Y-108785714D01*
X125357142Y-108833333D01*
X125261904Y-108880952D01*
X125071428Y-108928571D01*
X124833333Y-108928571D01*
X124642857Y-108880952D01*
X124547619Y-108833333D01*
X124500000Y-108785714D01*
X124452380Y-108690476D01*
X125166666Y-94214285D02*
X125166666Y-93738095D01*
X125452380Y-94309523D02*
X124452380Y-93976190D01*
X125452380Y-93642857D01*
X124452380Y-93404761D02*
X124452380Y-92785714D01*
X124833333Y-93119047D01*
X124833333Y-92976190D01*
X124880952Y-92880952D01*
X124928571Y-92833333D01*
X125023809Y-92785714D01*
X125261904Y-92785714D01*
X125357142Y-92833333D01*
X125404761Y-92880952D01*
X125452380Y-92976190D01*
X125452380Y-93261904D01*
X125404761Y-93357142D01*
X125357142Y-93404761D01*
X125166666Y-77214285D02*
X125166666Y-76738095D01*
X125452380Y-77309523D02*
X124452380Y-76976190D01*
X125452380Y-76642857D01*
X124547619Y-76357142D02*
X124500000Y-76309523D01*
X124452380Y-76214285D01*
X124452380Y-75976190D01*
X124500000Y-75880952D01*
X124547619Y-75833333D01*
X124642857Y-75785714D01*
X124738095Y-75785714D01*
X124880952Y-75833333D01*
X125452380Y-76404761D01*
X125452380Y-75785714D01*
X125166666Y-60214285D02*
X125166666Y-59738095D01*
X125452380Y-60309523D02*
X124452380Y-59976190D01*
X125452380Y-59642857D01*
X125452380Y-58785714D02*
X125452380Y-59357142D01*
X125452380Y-59071428D02*
X124452380Y-59071428D01*
X124595238Y-59166666D01*
X124690476Y-59261904D01*
X124738095Y-59357142D01*
X82148809Y-98467380D02*
X82815476Y-99467380D01*
X82815476Y-98467380D02*
X82148809Y-99467380D01*
X83196428Y-99467380D02*
X83196428Y-98800714D01*
X83196428Y-98467380D02*
X83148809Y-98515000D01*
X83196428Y-98562619D01*
X83244047Y-98515000D01*
X83196428Y-98467380D01*
X83196428Y-98562619D01*
X84101190Y-99467380D02*
X84101190Y-98943571D01*
X84053571Y-98848333D01*
X83958333Y-98800714D01*
X83767857Y-98800714D01*
X83672619Y-98848333D01*
X84101190Y-99419761D02*
X84005952Y-99467380D01*
X83767857Y-99467380D01*
X83672619Y-99419761D01*
X83625000Y-99324523D01*
X83625000Y-99229285D01*
X83672619Y-99134047D01*
X83767857Y-99086428D01*
X84005952Y-99086428D01*
X84101190Y-99038809D01*
X84720238Y-99467380D02*
X84625000Y-99419761D01*
X84577380Y-99372142D01*
X84529761Y-99276904D01*
X84529761Y-98991190D01*
X84577380Y-98895952D01*
X84625000Y-98848333D01*
X84720238Y-98800714D01*
X84863095Y-98800714D01*
X84958333Y-98848333D01*
X85005952Y-98895952D01*
X85053571Y-98991190D01*
X85053571Y-99276904D01*
X85005952Y-99372142D01*
X84958333Y-99419761D01*
X84863095Y-99467380D01*
X84720238Y-99467380D01*
X86244047Y-99467380D02*
X86244047Y-98467380D01*
X86577380Y-99181666D01*
X86910714Y-98467380D01*
X86910714Y-99467380D01*
X87386904Y-99467380D02*
X87386904Y-98467380D01*
X87863095Y-99467380D02*
X87863095Y-98467380D01*
X88101190Y-98467380D01*
X88244047Y-98515000D01*
X88339285Y-98610238D01*
X88386904Y-98705476D01*
X88434523Y-98895952D01*
X88434523Y-99038809D01*
X88386904Y-99229285D01*
X88339285Y-99324523D01*
X88244047Y-99419761D01*
X88101190Y-99467380D01*
X87863095Y-99467380D01*
X88863095Y-99467380D02*
X88863095Y-98467380D01*
X90053571Y-99419761D02*
X90196428Y-99467380D01*
X90434523Y-99467380D01*
X90529761Y-99419761D01*
X90577380Y-99372142D01*
X90625000Y-99276904D01*
X90625000Y-99181666D01*
X90577380Y-99086428D01*
X90529761Y-99038809D01*
X90434523Y-98991190D01*
X90244047Y-98943571D01*
X90148809Y-98895952D01*
X90101190Y-98848333D01*
X90053571Y-98753095D01*
X90053571Y-98657857D01*
X90101190Y-98562619D01*
X90148809Y-98515000D01*
X90244047Y-98467380D01*
X90482142Y-98467380D01*
X90625000Y-98515000D01*
X90958333Y-98800714D02*
X91196428Y-99467380D01*
X91434523Y-98800714D02*
X91196428Y-99467380D01*
X91101190Y-99705476D01*
X91053571Y-99753095D01*
X90958333Y-99800714D01*
X91815476Y-98800714D02*
X91815476Y-99467380D01*
X91815476Y-98895952D02*
X91863095Y-98848333D01*
X91958333Y-98800714D01*
X92101190Y-98800714D01*
X92196428Y-98848333D01*
X92244047Y-98943571D01*
X92244047Y-99467380D01*
X92577380Y-98800714D02*
X92958333Y-98800714D01*
X92720238Y-98467380D02*
X92720238Y-99324523D01*
X92767857Y-99419761D01*
X92863095Y-99467380D01*
X92958333Y-99467380D01*
X93291666Y-99467380D02*
X93291666Y-98467380D01*
X93720238Y-99467380D02*
X93720238Y-98943571D01*
X93672619Y-98848333D01*
X93577380Y-98800714D01*
X93434523Y-98800714D01*
X93339285Y-98848333D01*
X93291666Y-98895952D01*
X94958333Y-99467380D02*
X94958333Y-98467380D01*
X95625000Y-98467380D02*
X95815476Y-98467380D01*
X95910714Y-98515000D01*
X96005952Y-98610238D01*
X96053571Y-98800714D01*
X96053571Y-99134047D01*
X96005952Y-99324523D01*
X95910714Y-99419761D01*
X95815476Y-99467380D01*
X95625000Y-99467380D01*
X95529761Y-99419761D01*
X95434523Y-99324523D01*
X95386904Y-99134047D01*
X95386904Y-98800714D01*
X95434523Y-98610238D01*
X95529761Y-98515000D01*
X95625000Y-98467380D01*
X83934523Y-101077380D02*
X83934523Y-100077380D01*
X83934523Y-101029761D02*
X83839285Y-101077380D01*
X83648809Y-101077380D01*
X83553571Y-101029761D01*
X83505952Y-100982142D01*
X83458333Y-100886904D01*
X83458333Y-100601190D01*
X83505952Y-100505952D01*
X83553571Y-100458333D01*
X83648809Y-100410714D01*
X83839285Y-100410714D01*
X83934523Y-100458333D01*
X84410714Y-101077380D02*
X84410714Y-100410714D01*
X84410714Y-100077380D02*
X84363095Y-100125000D01*
X84410714Y-100172619D01*
X84458333Y-100125000D01*
X84410714Y-100077380D01*
X84410714Y-100172619D01*
X84791666Y-100410714D02*
X85029761Y-101077380D01*
X85267857Y-100410714D02*
X85029761Y-101077380D01*
X84934523Y-101315476D01*
X84886904Y-101363095D01*
X84791666Y-101410714D01*
X86029761Y-101029761D02*
X85934523Y-101077380D01*
X85744047Y-101077380D01*
X85648809Y-101029761D01*
X85601190Y-100934523D01*
X85601190Y-100553571D01*
X85648809Y-100458333D01*
X85744047Y-100410714D01*
X85934523Y-100410714D01*
X86029761Y-100458333D01*
X86077380Y-100553571D01*
X86077380Y-100648809D01*
X85601190Y-100744047D01*
X86648809Y-101077380D02*
X86553571Y-101029761D01*
X86505952Y-100934523D01*
X86505952Y-100077380D01*
X87410714Y-101029761D02*
X87315476Y-101077380D01*
X87125000Y-101077380D01*
X87029761Y-101029761D01*
X86982142Y-100934523D01*
X86982142Y-100553571D01*
X87029761Y-100458333D01*
X87125000Y-100410714D01*
X87315476Y-100410714D01*
X87410714Y-100458333D01*
X87458333Y-100553571D01*
X87458333Y-100648809D01*
X86982142Y-100744047D01*
X88315476Y-101029761D02*
X88220238Y-101077380D01*
X88029761Y-101077380D01*
X87934523Y-101029761D01*
X87886904Y-100982142D01*
X87839285Y-100886904D01*
X87839285Y-100601190D01*
X87886904Y-100505952D01*
X87934523Y-100458333D01*
X88029761Y-100410714D01*
X88220238Y-100410714D01*
X88315476Y-100458333D01*
X88601190Y-100410714D02*
X88982142Y-100410714D01*
X88744047Y-100077380D02*
X88744047Y-100934523D01*
X88791666Y-101029761D01*
X88886904Y-101077380D01*
X88982142Y-101077380D01*
X89315476Y-101077380D02*
X89315476Y-100410714D01*
X89315476Y-100601190D02*
X89363095Y-100505952D01*
X89410714Y-100458333D01*
X89505952Y-100410714D01*
X89601190Y-100410714D01*
X90077380Y-101077380D02*
X89982142Y-101029761D01*
X89934523Y-100982142D01*
X89886904Y-100886904D01*
X89886904Y-100601190D01*
X89934523Y-100505952D01*
X89982142Y-100458333D01*
X90077380Y-100410714D01*
X90220238Y-100410714D01*
X90315476Y-100458333D01*
X90363095Y-100505952D01*
X90410714Y-100601190D01*
X90410714Y-100886904D01*
X90363095Y-100982142D01*
X90315476Y-101029761D01*
X90220238Y-101077380D01*
X90077380Y-101077380D01*
X90839285Y-101077380D02*
X90839285Y-100410714D01*
X90839285Y-100505952D02*
X90886904Y-100458333D01*
X90982142Y-100410714D01*
X91125000Y-100410714D01*
X91220238Y-100458333D01*
X91267857Y-100553571D01*
X91267857Y-101077380D01*
X91267857Y-100553571D02*
X91315476Y-100458333D01*
X91410714Y-100410714D01*
X91553571Y-100410714D01*
X91648809Y-100458333D01*
X91696428Y-100553571D01*
X91696428Y-101077380D01*
X92601190Y-100410714D02*
X92601190Y-101077380D01*
X92172619Y-100410714D02*
X92172619Y-100934523D01*
X92220238Y-101029761D01*
X92315476Y-101077380D01*
X92458333Y-101077380D01*
X92553571Y-101029761D01*
X92601190Y-100982142D01*
X93029761Y-101029761D02*
X93125000Y-101077380D01*
X93315476Y-101077380D01*
X93410714Y-101029761D01*
X93458333Y-100934523D01*
X93458333Y-100886904D01*
X93410714Y-100791666D01*
X93315476Y-100744047D01*
X93172619Y-100744047D01*
X93077380Y-100696428D01*
X93029761Y-100601190D01*
X93029761Y-100553571D01*
X93077380Y-100458333D01*
X93172619Y-100410714D01*
X93315476Y-100410714D01*
X93410714Y-100458333D01*
X93886904Y-101077380D02*
X93886904Y-100410714D01*
X93886904Y-100077380D02*
X93839285Y-100125000D01*
X93886904Y-100172619D01*
X93934523Y-100125000D01*
X93886904Y-100077380D01*
X93886904Y-100172619D01*
X94791666Y-101029761D02*
X94696428Y-101077380D01*
X94505952Y-101077380D01*
X94410714Y-101029761D01*
X94363095Y-100982142D01*
X94315476Y-100886904D01*
X94315476Y-100601190D01*
X94363095Y-100505952D01*
X94410714Y-100458333D01*
X94505952Y-100410714D01*
X94696428Y-100410714D01*
X94791666Y-100458333D01*
X85410714Y-102020714D02*
X85648809Y-102687380D01*
X85886904Y-102020714D01*
X86458333Y-101687380D02*
X86553571Y-101687380D01*
X86648809Y-101735000D01*
X86696428Y-101782619D01*
X86744047Y-101877857D01*
X86791666Y-102068333D01*
X86791666Y-102306428D01*
X86744047Y-102496904D01*
X86696428Y-102592142D01*
X86648809Y-102639761D01*
X86553571Y-102687380D01*
X86458333Y-102687380D01*
X86363095Y-102639761D01*
X86315476Y-102592142D01*
X86267857Y-102496904D01*
X86220238Y-102306428D01*
X86220238Y-102068333D01*
X86267857Y-101877857D01*
X86315476Y-101782619D01*
X86363095Y-101735000D01*
X86458333Y-101687380D01*
X87220238Y-102592142D02*
X87267857Y-102639761D01*
X87220238Y-102687380D01*
X87172619Y-102639761D01*
X87220238Y-102592142D01*
X87220238Y-102687380D01*
X88220238Y-102687380D02*
X87648809Y-102687380D01*
X87934523Y-102687380D02*
X87934523Y-101687380D01*
X87839285Y-101830238D01*
X87744047Y-101925476D01*
X87648809Y-101973095D01*
X89363095Y-101782619D02*
X89410714Y-101735000D01*
X89505952Y-101687380D01*
X89744047Y-101687380D01*
X89839285Y-101735000D01*
X89886904Y-101782619D01*
X89934523Y-101877857D01*
X89934523Y-101973095D01*
X89886904Y-102115952D01*
X89315476Y-102687380D01*
X89934523Y-102687380D01*
X90553571Y-101687380D02*
X90648809Y-101687380D01*
X90744047Y-101735000D01*
X90791666Y-101782619D01*
X90839285Y-101877857D01*
X90886904Y-102068333D01*
X90886904Y-102306428D01*
X90839285Y-102496904D01*
X90791666Y-102592142D01*
X90744047Y-102639761D01*
X90648809Y-102687380D01*
X90553571Y-102687380D01*
X90458333Y-102639761D01*
X90410714Y-102592142D01*
X90363095Y-102496904D01*
X90315476Y-102306428D01*
X90315476Y-102068333D01*
X90363095Y-101877857D01*
X90410714Y-101782619D01*
X90458333Y-101735000D01*
X90553571Y-101687380D01*
X91267857Y-101782619D02*
X91315476Y-101735000D01*
X91410714Y-101687380D01*
X91648809Y-101687380D01*
X91744047Y-101735000D01*
X91791666Y-101782619D01*
X91839285Y-101877857D01*
X91839285Y-101973095D01*
X91791666Y-102115952D01*
X91220238Y-102687380D01*
X91839285Y-102687380D01*
X92172619Y-101687380D02*
X92791666Y-101687380D01*
X92458333Y-102068333D01*
X92601190Y-102068333D01*
X92696428Y-102115952D01*
X92744047Y-102163571D01*
X92791666Y-102258809D01*
X92791666Y-102496904D01*
X92744047Y-102592142D01*
X92696428Y-102639761D01*
X92601190Y-102687380D01*
X92315476Y-102687380D01*
X92220238Y-102639761D01*
X92172619Y-102592142D01*
X103285714Y-116166666D02*
X103761904Y-116166666D01*
X103190476Y-116452380D02*
X103523809Y-115452380D01*
X103857142Y-116452380D01*
X104380952Y-115452380D02*
X104476190Y-115452380D01*
X104571428Y-115500000D01*
X104619047Y-115547619D01*
X104666666Y-115642857D01*
X104714285Y-115833333D01*
X104714285Y-116071428D01*
X104666666Y-116261904D01*
X104619047Y-116357142D01*
X104571428Y-116404761D01*
X104476190Y-116452380D01*
X104380952Y-116452380D01*
X104285714Y-116404761D01*
X104238095Y-116357142D01*
X104190476Y-116261904D01*
X104142857Y-116071428D01*
X104142857Y-115833333D01*
X104190476Y-115642857D01*
X104238095Y-115547619D01*
X104285714Y-115500000D01*
X104380952Y-115452380D01*
X103285714Y-105166666D02*
X103761904Y-105166666D01*
X103190476Y-105452380D02*
X103523809Y-104452380D01*
X103857142Y-105452380D01*
X104619047Y-104785714D02*
X104619047Y-105452380D01*
X104380952Y-104404761D02*
X104142857Y-105119047D01*
X104761904Y-105119047D01*
X96690476Y-116452380D02*
X96690476Y-115452380D01*
X97261904Y-116452380D01*
X97261904Y-115452380D01*
X98452380Y-115404761D02*
X97595238Y-116690476D01*
X99357142Y-116357142D02*
X99309523Y-116404761D01*
X99166666Y-116452380D01*
X99071428Y-116452380D01*
X98928571Y-116404761D01*
X98833333Y-116309523D01*
X98785714Y-116214285D01*
X98738095Y-116023809D01*
X98738095Y-115880952D01*
X98785714Y-115690476D01*
X98833333Y-115595238D01*
X98928571Y-115500000D01*
X99071428Y-115452380D01*
X99166666Y-115452380D01*
X99309523Y-115500000D01*
X99357142Y-115547619D01*
X95333333Y-105166666D02*
X95809523Y-105166666D01*
X95238095Y-105452380D02*
X95571428Y-104452380D01*
X95904761Y-105452380D01*
X96428571Y-104452380D02*
X96523809Y-104452380D01*
X96619047Y-104500000D01*
X96666666Y-104547619D01*
X96714285Y-104642857D01*
X96761904Y-104833333D01*
X96761904Y-105071428D01*
X96714285Y-105261904D01*
X96666666Y-105357142D01*
X96619047Y-105404761D01*
X96523809Y-105452380D01*
X96428571Y-105452380D01*
X96333333Y-105404761D01*
X96285714Y-105357142D01*
X96238095Y-105261904D01*
X96190476Y-105071428D01*
X96190476Y-104833333D01*
X96238095Y-104642857D01*
X96285714Y-104547619D01*
X96333333Y-104500000D01*
X96428571Y-104452380D01*
X97904761Y-104404761D02*
X97047619Y-105690476D01*
X98238095Y-105452380D02*
X98238095Y-104452380D01*
X98476190Y-104452380D01*
X98619047Y-104500000D01*
X98714285Y-104595238D01*
X98761904Y-104690476D01*
X98809523Y-104880952D01*
X98809523Y-105023809D01*
X98761904Y-105214285D01*
X98714285Y-105309523D01*
X98619047Y-105404761D01*
X98476190Y-105452380D01*
X98238095Y-105452380D01*
X99190476Y-105166666D02*
X99666666Y-105166666D01*
X99095238Y-105452380D02*
X99428571Y-104452380D01*
X99761904Y-105452380D01*
X100666666Y-105357142D02*
X100619047Y-105404761D01*
X100476190Y-105452380D01*
X100380952Y-105452380D01*
X100238095Y-105404761D01*
X100142857Y-105309523D01*
X100095238Y-105214285D01*
X100047619Y-105023809D01*
X100047619Y-104880952D01*
X100095238Y-104690476D01*
X100142857Y-104595238D01*
X100238095Y-104500000D01*
X100380952Y-104452380D01*
X100476190Y-104452380D01*
X100619047Y-104500000D01*
X100666666Y-104547619D01*
X76739285Y-59177619D02*
X76786904Y-59130000D01*
X76882142Y-59082380D01*
X77120238Y-59082380D01*
X77215476Y-59130000D01*
X77263095Y-59177619D01*
X77310714Y-59272857D01*
X77310714Y-59368095D01*
X77263095Y-59510952D01*
X76691666Y-60082380D01*
X77310714Y-60082380D01*
X77215476Y-64495714D02*
X77215476Y-65162380D01*
X76977380Y-64114761D02*
X76739285Y-64829047D01*
X77358333Y-64829047D01*
X97309523Y-65202380D02*
X97500000Y-65202380D01*
X97595238Y-65154761D01*
X97642857Y-65107142D01*
X97738095Y-64964285D01*
X97785714Y-64773809D01*
X97785714Y-64392857D01*
X97738095Y-64297619D01*
X97690476Y-64250000D01*
X97595238Y-64202380D01*
X97404761Y-64202380D01*
X97309523Y-64250000D01*
X97261904Y-64297619D01*
X97214285Y-64392857D01*
X97214285Y-64630952D01*
X97261904Y-64726190D01*
X97309523Y-64773809D01*
X97404761Y-64821428D01*
X97595238Y-64821428D01*
X97690476Y-64773809D01*
X97738095Y-64726190D01*
X97785714Y-64630952D01*
D11*
X81902857Y-54092857D02*
X81988571Y-54121428D01*
X82131428Y-54121428D01*
X82188571Y-54092857D01*
X82217142Y-54064285D01*
X82245714Y-54007142D01*
X82245714Y-53950000D01*
X82217142Y-53892857D01*
X82188571Y-53864285D01*
X82131428Y-53835714D01*
X82017142Y-53807142D01*
X81960000Y-53778571D01*
X81931428Y-53750000D01*
X81902857Y-53692857D01*
X81902857Y-53635714D01*
X81931428Y-53578571D01*
X81960000Y-53550000D01*
X82017142Y-53521428D01*
X82160000Y-53521428D01*
X82245714Y-53550000D01*
X82445714Y-53521428D02*
X82588571Y-54121428D01*
X82702857Y-53692857D01*
X82817142Y-54121428D01*
X82960000Y-53521428D01*
X83188571Y-54121428D02*
X83188571Y-53521428D01*
X83331428Y-53521428D01*
X83417142Y-53550000D01*
X83474285Y-53607142D01*
X83502857Y-53664285D01*
X83531428Y-53778571D01*
X83531428Y-53864285D01*
X83502857Y-53978571D01*
X83474285Y-54035714D01*
X83417142Y-54092857D01*
X83331428Y-54121428D01*
X83188571Y-54121428D01*
X83788571Y-54121428D02*
X83788571Y-53521428D01*
X84188571Y-53521428D02*
X84302857Y-53521428D01*
X84360000Y-53550000D01*
X84417142Y-53607142D01*
X84445714Y-53721428D01*
X84445714Y-53921428D01*
X84417142Y-54035714D01*
X84360000Y-54092857D01*
X84302857Y-54121428D01*
X84188571Y-54121428D01*
X84131428Y-54092857D01*
X84074285Y-54035714D01*
X84045714Y-53921428D01*
X84045714Y-53721428D01*
X84074285Y-53607142D01*
X84131428Y-53550000D01*
X84188571Y-53521428D01*
X96890476Y-56590000D02*
X96814285Y-56542380D01*
X96700000Y-56542380D01*
X96585714Y-56590000D01*
X96509523Y-56685238D01*
X96471428Y-56780476D01*
X96433333Y-56970952D01*
X96433333Y-57113809D01*
X96471428Y-57304285D01*
X96509523Y-57399523D01*
X96585714Y-57494761D01*
X96700000Y-57542380D01*
X96776190Y-57542380D01*
X96890476Y-57494761D01*
X96928571Y-57447142D01*
X96928571Y-57113809D01*
X96776190Y-57113809D01*
X97271428Y-57542380D02*
X97271428Y-56542380D01*
X97728571Y-57542380D01*
X97728571Y-56542380D01*
X98109523Y-57542380D02*
X98109523Y-56542380D01*
X98300000Y-56542380D01*
X98414285Y-56590000D01*
X98490476Y-56685238D01*
X98528571Y-56780476D01*
X98566666Y-56970952D01*
X98566666Y-57113809D01*
X98528571Y-57304285D01*
X98490476Y-57399523D01*
X98414285Y-57494761D01*
X98300000Y-57542380D01*
X98109523Y-57542380D01*
D10*
X97309523Y-62702380D02*
X96738095Y-62702380D01*
X97023809Y-62702380D02*
X97023809Y-61702380D01*
X96928571Y-61845238D01*
X96833333Y-61940476D01*
X96738095Y-61988095D01*
X97928571Y-61702380D02*
X98023809Y-61702380D01*
X98119047Y-61750000D01*
X98166666Y-61797619D01*
X98214285Y-61892857D01*
X98261904Y-62083333D01*
X98261904Y-62321428D01*
X98214285Y-62511904D01*
X98166666Y-62607142D01*
X98119047Y-62654761D01*
X98023809Y-62702380D01*
X97928571Y-62702380D01*
X97833333Y-62654761D01*
X97785714Y-62607142D01*
X97738095Y-62511904D01*
X97690476Y-62321428D01*
X97690476Y-62083333D01*
X97738095Y-61892857D01*
X97785714Y-61797619D01*
X97833333Y-61750000D01*
X97928571Y-61702380D01*
X97309523Y-54002380D02*
X96833333Y-54002380D01*
X96785714Y-54478571D01*
X96833333Y-54430952D01*
X96928571Y-54383333D01*
X97166666Y-54383333D01*
X97261904Y-54430952D01*
X97309523Y-54478571D01*
X97357142Y-54573809D01*
X97357142Y-54811904D01*
X97309523Y-54907142D01*
X97261904Y-54954761D01*
X97166666Y-55002380D01*
X96928571Y-55002380D01*
X96833333Y-54954761D01*
X96785714Y-54907142D01*
X97642857Y-54002380D02*
X97976190Y-55002380D01*
X98309523Y-54002380D01*
X77263095Y-66702380D02*
X76786904Y-66702380D01*
X76739285Y-67178571D01*
X76786904Y-67130952D01*
X76882142Y-67083333D01*
X77120238Y-67083333D01*
X77215476Y-67130952D01*
X77263095Y-67178571D01*
X77310714Y-67273809D01*
X77310714Y-67511904D01*
X77263095Y-67607142D01*
X77215476Y-67654761D01*
X77120238Y-67702380D01*
X76882142Y-67702380D01*
X76786904Y-67654761D01*
X76739285Y-67607142D01*
D11*
X90204285Y-54092857D02*
X90290000Y-54121428D01*
X90432857Y-54121428D01*
X90490000Y-54092857D01*
X90518571Y-54064285D01*
X90547142Y-54007142D01*
X90547142Y-53950000D01*
X90518571Y-53892857D01*
X90490000Y-53864285D01*
X90432857Y-53835714D01*
X90318571Y-53807142D01*
X90261428Y-53778571D01*
X90232857Y-53750000D01*
X90204285Y-53692857D01*
X90204285Y-53635714D01*
X90232857Y-53578571D01*
X90261428Y-53550000D01*
X90318571Y-53521428D01*
X90461428Y-53521428D01*
X90547142Y-53550000D01*
X90747142Y-53521428D02*
X90890000Y-54121428D01*
X91004285Y-53692857D01*
X91118571Y-54121428D01*
X91261428Y-53521428D01*
X91832857Y-54064285D02*
X91804285Y-54092857D01*
X91718571Y-54121428D01*
X91661428Y-54121428D01*
X91575714Y-54092857D01*
X91518571Y-54035714D01*
X91490000Y-53978571D01*
X91461428Y-53864285D01*
X91461428Y-53778571D01*
X91490000Y-53664285D01*
X91518571Y-53607142D01*
X91575714Y-53550000D01*
X91661428Y-53521428D01*
X91718571Y-53521428D01*
X91804285Y-53550000D01*
X91832857Y-53578571D01*
X92375714Y-54121428D02*
X92090000Y-54121428D01*
X92090000Y-53521428D01*
X92575714Y-54121428D02*
X92575714Y-53521428D01*
X92918571Y-54121428D02*
X92661428Y-53778571D01*
X92918571Y-53521428D02*
X92575714Y-53864285D01*
D10*
X77215476Y-69242380D02*
X77025000Y-69242380D01*
X76929761Y-69290000D01*
X76882142Y-69337619D01*
X76786904Y-69480476D01*
X76739285Y-69670952D01*
X76739285Y-70051904D01*
X76786904Y-70147142D01*
X76834523Y-70194761D01*
X76929761Y-70242380D01*
X77120238Y-70242380D01*
X77215476Y-70194761D01*
X77263095Y-70147142D01*
X77310714Y-70051904D01*
X77310714Y-69813809D01*
X77263095Y-69718571D01*
X77215476Y-69670952D01*
X77120238Y-69623333D01*
X76929761Y-69623333D01*
X76834523Y-69670952D01*
X76786904Y-69718571D01*
X76739285Y-69813809D01*
X97404761Y-67130952D02*
X97309523Y-67083333D01*
X97261904Y-67035714D01*
X97214285Y-66940476D01*
X97214285Y-66892857D01*
X97261904Y-66797619D01*
X97309523Y-66750000D01*
X97404761Y-66702380D01*
X97595238Y-66702380D01*
X97690476Y-66750000D01*
X97738095Y-66797619D01*
X97785714Y-66892857D01*
X97785714Y-66940476D01*
X97738095Y-67035714D01*
X97690476Y-67083333D01*
X97595238Y-67130952D01*
X97404761Y-67130952D01*
X97309523Y-67178571D01*
X97261904Y-67226190D01*
X97214285Y-67321428D01*
X97214285Y-67511904D01*
X97261904Y-67607142D01*
X97309523Y-67654761D01*
X97404761Y-67702380D01*
X97595238Y-67702380D01*
X97690476Y-67654761D01*
X97738095Y-67607142D01*
X97785714Y-67511904D01*
X97785714Y-67321428D01*
X97738095Y-67226190D01*
X97690476Y-67178571D01*
X97595238Y-67130952D01*
X97166666Y-69242380D02*
X97833333Y-69242380D01*
X97404761Y-70242380D01*
X85701190Y-62102380D02*
X86367857Y-63102380D01*
X86367857Y-62102380D02*
X85701190Y-63102380D01*
X86748809Y-63102380D02*
X86748809Y-62102380D01*
X87177380Y-62816666D02*
X87653571Y-62816666D01*
X87082142Y-63102380D02*
X87415476Y-62102380D01*
X87748809Y-63102380D01*
X88272619Y-62102380D02*
X88463095Y-62102380D01*
X88558333Y-62150000D01*
X88653571Y-62245238D01*
X88701190Y-62435714D01*
X88701190Y-62769047D01*
X88653571Y-62959523D01*
X88558333Y-63054761D01*
X88463095Y-63102380D01*
X88272619Y-63102380D01*
X88177380Y-63054761D01*
X88082142Y-62959523D01*
X88034523Y-62769047D01*
X88034523Y-62435714D01*
X88082142Y-62245238D01*
X88177380Y-62150000D01*
X88272619Y-62102380D01*
D11*
X90547142Y-56090000D02*
X90490000Y-56061428D01*
X90404285Y-56061428D01*
X90318571Y-56090000D01*
X90261428Y-56147142D01*
X90232857Y-56204285D01*
X90204285Y-56318571D01*
X90204285Y-56404285D01*
X90232857Y-56518571D01*
X90261428Y-56575714D01*
X90318571Y-56632857D01*
X90404285Y-56661428D01*
X90461428Y-56661428D01*
X90547142Y-56632857D01*
X90575714Y-56604285D01*
X90575714Y-56404285D01*
X90461428Y-56404285D01*
X90832857Y-56661428D02*
X90832857Y-56061428D01*
X91175714Y-56661428D01*
X91175714Y-56061428D01*
X91461428Y-56661428D02*
X91461428Y-56061428D01*
X91604285Y-56061428D01*
X91690000Y-56090000D01*
X91747142Y-56147142D01*
X91775714Y-56204285D01*
X91804285Y-56318571D01*
X91804285Y-56404285D01*
X91775714Y-56518571D01*
X91747142Y-56575714D01*
X91690000Y-56632857D01*
X91604285Y-56661428D01*
X91461428Y-56661428D01*
D10*
X76977380Y-54002380D02*
X77072619Y-54002380D01*
X77167857Y-54050000D01*
X77215476Y-54097619D01*
X77263095Y-54192857D01*
X77310714Y-54383333D01*
X77310714Y-54621428D01*
X77263095Y-54811904D01*
X77215476Y-54907142D01*
X77167857Y-54954761D01*
X77072619Y-55002380D01*
X76977380Y-55002380D01*
X76882142Y-54954761D01*
X76834523Y-54907142D01*
X76786904Y-54811904D01*
X76739285Y-54621428D01*
X76739285Y-54383333D01*
X76786904Y-54192857D01*
X76834523Y-54097619D01*
X76882142Y-54050000D01*
X76977380Y-54002380D01*
X77310714Y-57542380D02*
X76739285Y-57542380D01*
X77025000Y-57542380D02*
X77025000Y-56542380D01*
X76929761Y-56685238D01*
X76834523Y-56780476D01*
X76739285Y-56828095D01*
D11*
X96509523Y-59082380D02*
X97004761Y-59082380D01*
X96738095Y-59463333D01*
X96852380Y-59463333D01*
X96928571Y-59510952D01*
X96966666Y-59558571D01*
X97004761Y-59653809D01*
X97004761Y-59891904D01*
X96966666Y-59987142D01*
X96928571Y-60034761D01*
X96852380Y-60082380D01*
X96623809Y-60082380D01*
X96547619Y-60034761D01*
X96509523Y-59987142D01*
X97233333Y-59082380D02*
X97500000Y-60082380D01*
X97766666Y-59082380D01*
X97957142Y-59082380D02*
X98452380Y-59082380D01*
X98185714Y-59463333D01*
X98300000Y-59463333D01*
X98376190Y-59510952D01*
X98414285Y-59558571D01*
X98452380Y-59653809D01*
X98452380Y-59891904D01*
X98414285Y-59987142D01*
X98376190Y-60034761D01*
X98300000Y-60082380D01*
X98071428Y-60082380D01*
X97995238Y-60034761D01*
X97957142Y-59987142D01*
X82331428Y-56661428D02*
X82131428Y-56375714D01*
X81988571Y-56661428D02*
X81988571Y-56061428D01*
X82217142Y-56061428D01*
X82274285Y-56090000D01*
X82302857Y-56118571D01*
X82331428Y-56175714D01*
X82331428Y-56261428D01*
X82302857Y-56318571D01*
X82274285Y-56347142D01*
X82217142Y-56375714D01*
X81988571Y-56375714D01*
X82588571Y-56347142D02*
X82788571Y-56347142D01*
X82874285Y-56661428D02*
X82588571Y-56661428D01*
X82588571Y-56061428D01*
X82874285Y-56061428D01*
X83102857Y-56632857D02*
X83188571Y-56661428D01*
X83331428Y-56661428D01*
X83388571Y-56632857D01*
X83417142Y-56604285D01*
X83445714Y-56547142D01*
X83445714Y-56490000D01*
X83417142Y-56432857D01*
X83388571Y-56404285D01*
X83331428Y-56375714D01*
X83217142Y-56347142D01*
X83160000Y-56318571D01*
X83131428Y-56290000D01*
X83102857Y-56232857D01*
X83102857Y-56175714D01*
X83131428Y-56118571D01*
X83160000Y-56090000D01*
X83217142Y-56061428D01*
X83360000Y-56061428D01*
X83445714Y-56090000D01*
X83702857Y-56347142D02*
X83902857Y-56347142D01*
X83988571Y-56661428D02*
X83702857Y-56661428D01*
X83702857Y-56061428D01*
X83988571Y-56061428D01*
X84160000Y-56061428D02*
X84502857Y-56061428D01*
X84331428Y-56661428D02*
X84331428Y-56061428D01*
D10*
X76691666Y-61622380D02*
X77310714Y-61622380D01*
X76977380Y-62003333D01*
X77120238Y-62003333D01*
X77215476Y-62050952D01*
X77263095Y-62098571D01*
X77310714Y-62193809D01*
X77310714Y-62431904D01*
X77263095Y-62527142D01*
X77215476Y-62574761D01*
X77120238Y-62622380D01*
X76834523Y-62622380D01*
X76739285Y-62574761D01*
X76691666Y-62527142D01*
D11*
X59598571Y-56692857D02*
X59684285Y-56721428D01*
X59827142Y-56721428D01*
X59884285Y-56692857D01*
X59912857Y-56664285D01*
X59941428Y-56607142D01*
X59941428Y-56550000D01*
X59912857Y-56492857D01*
X59884285Y-56464285D01*
X59827142Y-56435714D01*
X59712857Y-56407142D01*
X59655714Y-56378571D01*
X59627142Y-56350000D01*
X59598571Y-56292857D01*
X59598571Y-56235714D01*
X59627142Y-56178571D01*
X59655714Y-56150000D01*
X59712857Y-56121428D01*
X59855714Y-56121428D01*
X59941428Y-56150000D01*
X60141428Y-56121428D02*
X60284285Y-56721428D01*
X60398571Y-56292857D01*
X60512857Y-56721428D01*
X60655714Y-56121428D01*
X60884285Y-56721428D02*
X60884285Y-56121428D01*
X61027142Y-56121428D01*
X61112857Y-56150000D01*
X61170000Y-56207142D01*
X61198571Y-56264285D01*
X61227142Y-56378571D01*
X61227142Y-56464285D01*
X61198571Y-56578571D01*
X61170000Y-56635714D01*
X61112857Y-56692857D01*
X61027142Y-56721428D01*
X60884285Y-56721428D01*
X61484285Y-56721428D02*
X61484285Y-56121428D01*
X61884285Y-56121428D02*
X61998571Y-56121428D01*
X62055714Y-56150000D01*
X62112857Y-56207142D01*
X62141428Y-56321428D01*
X62141428Y-56521428D01*
X62112857Y-56635714D01*
X62055714Y-56692857D01*
X61998571Y-56721428D01*
X61884285Y-56721428D01*
X61827142Y-56692857D01*
X61770000Y-56635714D01*
X61741428Y-56521428D01*
X61741428Y-56321428D01*
X61770000Y-56207142D01*
X61827142Y-56150000D01*
X61884285Y-56121428D01*
X62952857Y-56150000D02*
X62895714Y-56121428D01*
X62810000Y-56121428D01*
X62724285Y-56150000D01*
X62667142Y-56207142D01*
X62638571Y-56264285D01*
X62610000Y-56378571D01*
X62610000Y-56464285D01*
X62638571Y-56578571D01*
X62667142Y-56635714D01*
X62724285Y-56692857D01*
X62810000Y-56721428D01*
X62867142Y-56721428D01*
X62952857Y-56692857D01*
X62981428Y-56664285D01*
X62981428Y-56464285D01*
X62867142Y-56464285D01*
X63238571Y-56721428D02*
X63238571Y-56121428D01*
X63581428Y-56721428D01*
X63581428Y-56121428D01*
X63867142Y-56721428D02*
X63867142Y-56121428D01*
X64010000Y-56121428D01*
X64095714Y-56150000D01*
X64152857Y-56207142D01*
X64181428Y-56264285D01*
X64210000Y-56378571D01*
X64210000Y-56464285D01*
X64181428Y-56578571D01*
X64152857Y-56635714D01*
X64095714Y-56692857D01*
X64010000Y-56721428D01*
X63867142Y-56721428D01*
X64592857Y-56692857D02*
X64678571Y-56721428D01*
X64821428Y-56721428D01*
X64878571Y-56692857D01*
X64907142Y-56664285D01*
X64935714Y-56607142D01*
X64935714Y-56550000D01*
X64907142Y-56492857D01*
X64878571Y-56464285D01*
X64821428Y-56435714D01*
X64707142Y-56407142D01*
X64650000Y-56378571D01*
X64621428Y-56350000D01*
X64592857Y-56292857D01*
X64592857Y-56235714D01*
X64621428Y-56178571D01*
X64650000Y-56150000D01*
X64707142Y-56121428D01*
X64850000Y-56121428D01*
X64935714Y-56150000D01*
X65135714Y-56121428D02*
X65278571Y-56721428D01*
X65392857Y-56292857D01*
X65507142Y-56721428D01*
X65650000Y-56121428D01*
X66221428Y-56664285D02*
X66192857Y-56692857D01*
X66107142Y-56721428D01*
X66050000Y-56721428D01*
X65964285Y-56692857D01*
X65907142Y-56635714D01*
X65878571Y-56578571D01*
X65850000Y-56464285D01*
X65850000Y-56378571D01*
X65878571Y-56264285D01*
X65907142Y-56207142D01*
X65964285Y-56150000D01*
X66050000Y-56121428D01*
X66107142Y-56121428D01*
X66192857Y-56150000D01*
X66221428Y-56178571D01*
X66764285Y-56721428D02*
X66478571Y-56721428D01*
X66478571Y-56121428D01*
X66964285Y-56721428D02*
X66964285Y-56121428D01*
X67307142Y-56721428D02*
X67050000Y-56378571D01*
X67307142Y-56121428D02*
X66964285Y-56464285D01*
D10*
X56509523Y-52777380D02*
X56033333Y-52777380D01*
X55985714Y-53253571D01*
X56033333Y-53205952D01*
X56128571Y-53158333D01*
X56366666Y-53158333D01*
X56461904Y-53205952D01*
X56509523Y-53253571D01*
X56557142Y-53348809D01*
X56557142Y-53586904D01*
X56509523Y-53682142D01*
X56461904Y-53729761D01*
X56366666Y-53777380D01*
X56128571Y-53777380D01*
X56033333Y-53729761D01*
X55985714Y-53682142D01*
X56842857Y-52777380D02*
X57176190Y-53777380D01*
X57509523Y-52777380D01*
X56323095Y-55250000D02*
X56227857Y-55202380D01*
X56085000Y-55202380D01*
X55942142Y-55250000D01*
X55846904Y-55345238D01*
X55799285Y-55440476D01*
X55751666Y-55630952D01*
X55751666Y-55773809D01*
X55799285Y-55964285D01*
X55846904Y-56059523D01*
X55942142Y-56154761D01*
X56085000Y-56202380D01*
X56180238Y-56202380D01*
X56323095Y-56154761D01*
X56370714Y-56107142D01*
X56370714Y-55773809D01*
X56180238Y-55773809D01*
X56799285Y-56202380D02*
X56799285Y-55202380D01*
X57370714Y-56202380D01*
X57370714Y-55202380D01*
X57846904Y-56202380D02*
X57846904Y-55202380D01*
X58085000Y-55202380D01*
X58227857Y-55250000D01*
X58323095Y-55345238D01*
X58370714Y-55440476D01*
X58418333Y-55630952D01*
X58418333Y-55773809D01*
X58370714Y-55964285D01*
X58323095Y-56059523D01*
X58227857Y-56154761D01*
X58085000Y-56202380D01*
X57846904Y-56202380D01*
D12*
%TO.C,J4*%
X69166168Y-72524000D02*
X69166168Y-72233714D01*
X69238740Y-72088571D01*
X69383882Y-71943428D01*
X69674168Y-71870857D01*
X70182168Y-71870857D01*
X70472454Y-71943428D01*
X70617597Y-72088571D01*
X70690168Y-72233714D01*
X70690168Y-72524000D01*
X70617597Y-72669142D01*
X70472454Y-72814285D01*
X70182168Y-72886857D01*
X69674168Y-72886857D01*
X69383882Y-72814285D01*
X69238740Y-72669142D01*
X69166168Y-72524000D01*
X69166168Y-71217714D02*
X70399882Y-71217714D01*
X70545025Y-71145142D01*
X70617597Y-71072571D01*
X70690168Y-70927428D01*
X70690168Y-70637142D01*
X70617597Y-70492000D01*
X70545025Y-70419428D01*
X70399882Y-70346857D01*
X69166168Y-70346857D01*
X69166168Y-69838857D02*
X69166168Y-68968000D01*
X70690168Y-69403428D02*
X69166168Y-69403428D01*
D10*
%TO.C,J9*%
X68442857Y-59354761D02*
X68585714Y-59402380D01*
X68823809Y-59402380D01*
X68919047Y-59354761D01*
X68966666Y-59307142D01*
X69014285Y-59211904D01*
X69014285Y-59116666D01*
X68966666Y-59021428D01*
X68919047Y-58973809D01*
X68823809Y-58926190D01*
X68633333Y-58878571D01*
X68538095Y-58830952D01*
X68490476Y-58783333D01*
X68442857Y-58688095D01*
X68442857Y-58592857D01*
X68490476Y-58497619D01*
X68538095Y-58450000D01*
X68633333Y-58402380D01*
X68871428Y-58402380D01*
X69014285Y-58450000D01*
X69347619Y-58402380D02*
X69585714Y-59402380D01*
X69776190Y-58688095D01*
X69966666Y-59402380D01*
X70204761Y-58402380D01*
X70585714Y-59402380D02*
X70585714Y-58402380D01*
X70823809Y-58402380D01*
X70966666Y-58450000D01*
X71061904Y-58545238D01*
X71109523Y-58640476D01*
X71157142Y-58830952D01*
X71157142Y-58973809D01*
X71109523Y-59164285D01*
X71061904Y-59259523D01*
X70966666Y-59354761D01*
X70823809Y-59402380D01*
X70585714Y-59402380D01*
%TO.C,J14*%
X95141666Y-114408333D02*
X95141666Y-113932142D01*
X95427380Y-114503571D02*
X94427380Y-114170238D01*
X95427380Y-113836904D01*
X94427380Y-113503571D02*
X95236904Y-113503571D01*
X95332142Y-113455952D01*
X95379761Y-113408333D01*
X95427380Y-113313095D01*
X95427380Y-113122619D01*
X95379761Y-113027380D01*
X95332142Y-112979761D01*
X95236904Y-112932142D01*
X94427380Y-112932142D01*
X95427380Y-112455952D02*
X94427380Y-112455952D01*
X94427380Y-112217857D01*
X94475000Y-112075000D01*
X94570238Y-111979761D01*
X94665476Y-111932142D01*
X94855952Y-111884523D01*
X94998809Y-111884523D01*
X95189285Y-111932142D01*
X95284523Y-111979761D01*
X95379761Y-112075000D01*
X95427380Y-112217857D01*
X95427380Y-112455952D01*
X95427380Y-111455952D02*
X94427380Y-111455952D01*
X94427380Y-110789285D02*
X94427380Y-110598809D01*
X94475000Y-110503571D01*
X94570238Y-110408333D01*
X94760714Y-110360714D01*
X95094047Y-110360714D01*
X95284523Y-110408333D01*
X95379761Y-110503571D01*
X95427380Y-110598809D01*
X95427380Y-110789285D01*
X95379761Y-110884523D01*
X95284523Y-110979761D01*
X95094047Y-111027380D01*
X94760714Y-111027380D01*
X94570238Y-110979761D01*
X94475000Y-110884523D01*
X94427380Y-110789285D01*
X94427380Y-108979761D02*
X94427380Y-108789285D01*
X94475000Y-108694047D01*
X94570238Y-108598809D01*
X94760714Y-108551190D01*
X95094047Y-108551190D01*
X95284523Y-108598809D01*
X95379761Y-108694047D01*
X95427380Y-108789285D01*
X95427380Y-108979761D01*
X95379761Y-109075000D01*
X95284523Y-109170238D01*
X95094047Y-109217857D01*
X94760714Y-109217857D01*
X94570238Y-109170238D01*
X94475000Y-109075000D01*
X94427380Y-108979761D01*
X94427380Y-108122619D02*
X95236904Y-108122619D01*
X95332142Y-108075000D01*
X95379761Y-108027380D01*
X95427380Y-107932142D01*
X95427380Y-107741666D01*
X95379761Y-107646428D01*
X95332142Y-107598809D01*
X95236904Y-107551190D01*
X94427380Y-107551190D01*
X94427380Y-107217857D02*
X94427380Y-106646428D01*
X95427380Y-106932142D02*
X94427380Y-106932142D01*
%TO.C,J13*%
X107177380Y-111095238D02*
X106701190Y-111428571D01*
X107177380Y-111666666D02*
X106177380Y-111666666D01*
X106177380Y-111285714D01*
X106225000Y-111190476D01*
X106272619Y-111142857D01*
X106367857Y-111095238D01*
X106510714Y-111095238D01*
X106605952Y-111142857D01*
X106653571Y-111190476D01*
X106701190Y-111285714D01*
X106701190Y-111666666D01*
X106177380Y-110809523D02*
X107177380Y-110476190D01*
X106177380Y-110142857D01*
X106510714Y-109380952D02*
X107177380Y-109380952D01*
X106129761Y-109619047D02*
X106844047Y-109857142D01*
X106844047Y-109238095D01*
%TO.C,C1*%
X88702380Y-82427380D02*
X88130952Y-82427380D01*
X88416666Y-82427380D02*
X88416666Y-81427380D01*
X88321428Y-81570238D01*
X88226190Y-81665476D01*
X88130952Y-81713095D01*
X89321428Y-81427380D02*
X89416666Y-81427380D01*
X89511904Y-81475000D01*
X89559523Y-81522619D01*
X89607142Y-81617857D01*
X89654761Y-81808333D01*
X89654761Y-82046428D01*
X89607142Y-82236904D01*
X89559523Y-82332142D01*
X89511904Y-82379761D01*
X89416666Y-82427380D01*
X89321428Y-82427380D01*
X89226190Y-82379761D01*
X89178571Y-82332142D01*
X89130952Y-82236904D01*
X89083333Y-82046428D01*
X89083333Y-81808333D01*
X89130952Y-81617857D01*
X89178571Y-81522619D01*
X89226190Y-81475000D01*
X89321428Y-81427380D01*
X90273809Y-81427380D02*
X90369047Y-81427380D01*
X90464285Y-81475000D01*
X90511904Y-81522619D01*
X90559523Y-81617857D01*
X90607142Y-81808333D01*
X90607142Y-82046428D01*
X90559523Y-82236904D01*
X90511904Y-82332142D01*
X90464285Y-82379761D01*
X90369047Y-82427380D01*
X90273809Y-82427380D01*
X90178571Y-82379761D01*
X90130952Y-82332142D01*
X90083333Y-82236904D01*
X90035714Y-82046428D01*
X90035714Y-81808333D01*
X90083333Y-81617857D01*
X90130952Y-81522619D01*
X90178571Y-81475000D01*
X90273809Y-81427380D01*
X91035714Y-81760714D02*
X91035714Y-82427380D01*
X91035714Y-81855952D02*
X91083333Y-81808333D01*
X91178571Y-81760714D01*
X91321428Y-81760714D01*
X91416666Y-81808333D01*
X91464285Y-81903571D01*
X91464285Y-82427380D01*
X92273809Y-81903571D02*
X91940476Y-81903571D01*
X91940476Y-82427380D02*
X91940476Y-81427380D01*
X92416666Y-81427380D01*
%TO.C,R4*%
X76988095Y-86735714D02*
X76988095Y-87402380D01*
X76750000Y-86354761D02*
X76511904Y-87069047D01*
X77130952Y-87069047D01*
X77416666Y-86402380D02*
X78083333Y-86402380D01*
X77654761Y-87402380D01*
X78654761Y-86402380D02*
X78750000Y-86402380D01*
X78845238Y-86450000D01*
X78892857Y-86497619D01*
X78940476Y-86592857D01*
X78988095Y-86783333D01*
X78988095Y-87021428D01*
X78940476Y-87211904D01*
X78892857Y-87307142D01*
X78845238Y-87354761D01*
X78750000Y-87402380D01*
X78654761Y-87402380D01*
X78559523Y-87354761D01*
X78511904Y-87307142D01*
X78464285Y-87211904D01*
X78416666Y-87021428D01*
X78416666Y-86783333D01*
X78464285Y-86592857D01*
X78511904Y-86497619D01*
X78559523Y-86450000D01*
X78654761Y-86402380D01*
%TO.C,J7*%
X75932142Y-72002380D02*
X76027380Y-72002380D01*
X76122619Y-72050000D01*
X76170238Y-72097619D01*
X76217857Y-72192857D01*
X76265476Y-72383333D01*
X76265476Y-72621428D01*
X76217857Y-72811904D01*
X76170238Y-72907142D01*
X76122619Y-72954761D01*
X76027380Y-73002380D01*
X75932142Y-73002380D01*
X75836904Y-72954761D01*
X75789285Y-72907142D01*
X75741666Y-72811904D01*
X75694047Y-72621428D01*
X75694047Y-72383333D01*
X75741666Y-72192857D01*
X75789285Y-72097619D01*
X75836904Y-72050000D01*
X75932142Y-72002380D01*
X76694047Y-72621428D02*
X77455952Y-72621428D01*
X78360714Y-72002380D02*
X78170238Y-72002380D01*
X78075000Y-72050000D01*
X78027380Y-72097619D01*
X77932142Y-72240476D01*
X77884523Y-72430952D01*
X77884523Y-72811904D01*
X77932142Y-72907142D01*
X77979761Y-72954761D01*
X78075000Y-73002380D01*
X78265476Y-73002380D01*
X78360714Y-72954761D01*
X78408333Y-72907142D01*
X78455952Y-72811904D01*
X78455952Y-72573809D01*
X78408333Y-72478571D01*
X78360714Y-72430952D01*
X78265476Y-72383333D01*
X78075000Y-72383333D01*
X77979761Y-72430952D01*
X77932142Y-72478571D01*
X77884523Y-72573809D01*
%TO.C,RV2*%
X115454761Y-69302380D02*
X115121428Y-68826190D01*
X114883333Y-69302380D02*
X114883333Y-68302380D01*
X115264285Y-68302380D01*
X115359523Y-68350000D01*
X115407142Y-68397619D01*
X115454761Y-68492857D01*
X115454761Y-68635714D01*
X115407142Y-68730952D01*
X115359523Y-68778571D01*
X115264285Y-68826190D01*
X114883333Y-68826190D01*
X115740476Y-68302380D02*
X116073809Y-69302380D01*
X116407142Y-68302380D01*
X116692857Y-68397619D02*
X116740476Y-68350000D01*
X116835714Y-68302380D01*
X117073809Y-68302380D01*
X117169047Y-68350000D01*
X117216666Y-68397619D01*
X117264285Y-68492857D01*
X117264285Y-68588095D01*
X117216666Y-68730952D01*
X116645238Y-69302380D01*
X117264285Y-69302380D01*
%TO.C,RV4*%
X115454761Y-103302380D02*
X115121428Y-102826190D01*
X114883333Y-103302380D02*
X114883333Y-102302380D01*
X115264285Y-102302380D01*
X115359523Y-102350000D01*
X115407142Y-102397619D01*
X115454761Y-102492857D01*
X115454761Y-102635714D01*
X115407142Y-102730952D01*
X115359523Y-102778571D01*
X115264285Y-102826190D01*
X114883333Y-102826190D01*
X115740476Y-102302380D02*
X116073809Y-103302380D01*
X116407142Y-102302380D01*
X117169047Y-102635714D02*
X117169047Y-103302380D01*
X116930952Y-102254761D02*
X116692857Y-102969047D01*
X117311904Y-102969047D01*
%TO.C,J5*%
X51565476Y-59252380D02*
X51565476Y-58252380D01*
X51946428Y-58252380D01*
X52041666Y-58300000D01*
X52089285Y-58347619D01*
X52136904Y-58442857D01*
X52136904Y-58585714D01*
X52089285Y-58680952D01*
X52041666Y-58728571D01*
X51946428Y-58776190D01*
X51565476Y-58776190D01*
X52755952Y-58252380D02*
X52946428Y-58252380D01*
X53041666Y-58300000D01*
X53136904Y-58395238D01*
X53184523Y-58585714D01*
X53184523Y-58919047D01*
X53136904Y-59109523D01*
X53041666Y-59204761D01*
X52946428Y-59252380D01*
X52755952Y-59252380D01*
X52660714Y-59204761D01*
X52565476Y-59109523D01*
X52517857Y-58919047D01*
X52517857Y-58585714D01*
X52565476Y-58395238D01*
X52660714Y-58300000D01*
X52755952Y-58252380D01*
X53517857Y-58252380D02*
X53755952Y-59252380D01*
X53946428Y-58538095D01*
X54136904Y-59252380D01*
X54375000Y-58252380D01*
X54755952Y-58728571D02*
X55089285Y-58728571D01*
X55232142Y-59252380D02*
X54755952Y-59252380D01*
X54755952Y-58252380D01*
X55232142Y-58252380D01*
X56232142Y-59252380D02*
X55898809Y-58776190D01*
X55660714Y-59252380D02*
X55660714Y-58252380D01*
X56041666Y-58252380D01*
X56136904Y-58300000D01*
X56184523Y-58347619D01*
X56232142Y-58442857D01*
X56232142Y-58585714D01*
X56184523Y-58680952D01*
X56136904Y-58728571D01*
X56041666Y-58776190D01*
X55660714Y-58776190D01*
%TO.C,C2*%
X74402380Y-104152380D02*
X73830952Y-104152380D01*
X74116666Y-104152380D02*
X74116666Y-103152380D01*
X74021428Y-103295238D01*
X73926190Y-103390476D01*
X73830952Y-103438095D01*
X75021428Y-103152380D02*
X75116666Y-103152380D01*
X75211904Y-103200000D01*
X75259523Y-103247619D01*
X75307142Y-103342857D01*
X75354761Y-103533333D01*
X75354761Y-103771428D01*
X75307142Y-103961904D01*
X75259523Y-104057142D01*
X75211904Y-104104761D01*
X75116666Y-104152380D01*
X75021428Y-104152380D01*
X74926190Y-104104761D01*
X74878571Y-104057142D01*
X74830952Y-103961904D01*
X74783333Y-103771428D01*
X74783333Y-103533333D01*
X74830952Y-103342857D01*
X74878571Y-103247619D01*
X74926190Y-103200000D01*
X75021428Y-103152380D01*
X75973809Y-103152380D02*
X76069047Y-103152380D01*
X76164285Y-103200000D01*
X76211904Y-103247619D01*
X76259523Y-103342857D01*
X76307142Y-103533333D01*
X76307142Y-103771428D01*
X76259523Y-103961904D01*
X76211904Y-104057142D01*
X76164285Y-104104761D01*
X76069047Y-104152380D01*
X75973809Y-104152380D01*
X75878571Y-104104761D01*
X75830952Y-104057142D01*
X75783333Y-103961904D01*
X75735714Y-103771428D01*
X75735714Y-103533333D01*
X75783333Y-103342857D01*
X75830952Y-103247619D01*
X75878571Y-103200000D01*
X75973809Y-103152380D01*
X76735714Y-103485714D02*
X76735714Y-104152380D01*
X76735714Y-103580952D02*
X76783333Y-103533333D01*
X76878571Y-103485714D01*
X77021428Y-103485714D01*
X77116666Y-103533333D01*
X77164285Y-103628571D01*
X77164285Y-104152380D01*
X77973809Y-103628571D02*
X77640476Y-103628571D01*
X77640476Y-104152380D02*
X77640476Y-103152380D01*
X78116666Y-103152380D01*
%TO.C,U1*%
X89427380Y-93444047D02*
X88427380Y-93444047D01*
X88903571Y-93444047D02*
X88903571Y-92872619D01*
X89427380Y-92872619D02*
X88427380Y-92872619D01*
X89427380Y-91872619D02*
X89427380Y-92444047D01*
X89427380Y-92158333D02*
X88427380Y-92158333D01*
X88570238Y-92253571D01*
X88665476Y-92348809D01*
X88713095Y-92444047D01*
X89427380Y-90920238D02*
X89427380Y-91491666D01*
X89427380Y-91205952D02*
X88427380Y-91205952D01*
X88570238Y-91301190D01*
X88665476Y-91396428D01*
X88713095Y-91491666D01*
X89427380Y-90015476D02*
X89427380Y-90491666D01*
X88427380Y-90491666D01*
X89427380Y-89158333D02*
X89427380Y-89729761D01*
X89427380Y-89444047D02*
X88427380Y-89444047D01*
X88570238Y-89539285D01*
X88665476Y-89634523D01*
X88713095Y-89729761D01*
%TO.C,R1*%
X76436904Y-90047619D02*
X76484523Y-90000000D01*
X76579761Y-89952380D01*
X76817857Y-89952380D01*
X76913095Y-90000000D01*
X76960714Y-90047619D01*
X77008333Y-90142857D01*
X77008333Y-90238095D01*
X76960714Y-90380952D01*
X76389285Y-90952380D01*
X77008333Y-90952380D01*
X77389285Y-90047619D02*
X77436904Y-90000000D01*
X77532142Y-89952380D01*
X77770238Y-89952380D01*
X77865476Y-90000000D01*
X77913095Y-90047619D01*
X77960714Y-90142857D01*
X77960714Y-90238095D01*
X77913095Y-90380952D01*
X77341666Y-90952380D01*
X77960714Y-90952380D01*
X78579761Y-89952380D02*
X78675000Y-89952380D01*
X78770238Y-90000000D01*
X78817857Y-90047619D01*
X78865476Y-90142857D01*
X78913095Y-90333333D01*
X78913095Y-90571428D01*
X78865476Y-90761904D01*
X78817857Y-90857142D01*
X78770238Y-90904761D01*
X78675000Y-90952380D01*
X78579761Y-90952380D01*
X78484523Y-90904761D01*
X78436904Y-90857142D01*
X78389285Y-90761904D01*
X78341666Y-90571428D01*
X78341666Y-90333333D01*
X78389285Y-90142857D01*
X78436904Y-90047619D01*
X78484523Y-90000000D01*
X78579761Y-89952380D01*
%TO.C,C3*%
X67949649Y-110202380D02*
X67378221Y-110202380D01*
X67663935Y-110202380D02*
X67663935Y-109202380D01*
X67568697Y-109345238D01*
X67473459Y-109440476D01*
X67378221Y-109488095D01*
X68806792Y-109535714D02*
X68806792Y-110202380D01*
X68378221Y-109535714D02*
X68378221Y-110059523D01*
X68425840Y-110154761D01*
X68521078Y-110202380D01*
X68663935Y-110202380D01*
X68759173Y-110154761D01*
X68806792Y-110107142D01*
X69616316Y-109678571D02*
X69282983Y-109678571D01*
X69282983Y-110202380D02*
X69282983Y-109202380D01*
X69759173Y-109202380D01*
%TO.C,J12*%
X64666666Y-114833333D02*
X64666666Y-114357142D01*
X64952380Y-114928571D02*
X63952380Y-114595238D01*
X64952380Y-114261904D01*
X63952380Y-113928571D02*
X64761904Y-113928571D01*
X64857142Y-113880952D01*
X64904761Y-113833333D01*
X64952380Y-113738095D01*
X64952380Y-113547619D01*
X64904761Y-113452380D01*
X64857142Y-113404761D01*
X64761904Y-113357142D01*
X63952380Y-113357142D01*
X64952380Y-112880952D02*
X63952380Y-112880952D01*
X63952380Y-112642857D01*
X64000000Y-112500000D01*
X64095238Y-112404761D01*
X64190476Y-112357142D01*
X64380952Y-112309523D01*
X64523809Y-112309523D01*
X64714285Y-112357142D01*
X64809523Y-112404761D01*
X64904761Y-112500000D01*
X64952380Y-112642857D01*
X64952380Y-112880952D01*
X64952380Y-111880952D02*
X63952380Y-111880952D01*
X63952380Y-111214285D02*
X63952380Y-111023809D01*
X64000000Y-110928571D01*
X64095238Y-110833333D01*
X64285714Y-110785714D01*
X64619047Y-110785714D01*
X64809523Y-110833333D01*
X64904761Y-110928571D01*
X64952380Y-111023809D01*
X64952380Y-111214285D01*
X64904761Y-111309523D01*
X64809523Y-111404761D01*
X64619047Y-111452380D01*
X64285714Y-111452380D01*
X64095238Y-111404761D01*
X64000000Y-111309523D01*
X63952380Y-111214285D01*
X63952380Y-109404761D02*
X63952380Y-109214285D01*
X64000000Y-109119047D01*
X64095238Y-109023809D01*
X64285714Y-108976190D01*
X64619047Y-108976190D01*
X64809523Y-109023809D01*
X64904761Y-109119047D01*
X64952380Y-109214285D01*
X64952380Y-109404761D01*
X64904761Y-109500000D01*
X64809523Y-109595238D01*
X64619047Y-109642857D01*
X64285714Y-109642857D01*
X64095238Y-109595238D01*
X64000000Y-109500000D01*
X63952380Y-109404761D01*
X63952380Y-108547619D02*
X64761904Y-108547619D01*
X64857142Y-108500000D01*
X64904761Y-108452380D01*
X64952380Y-108357142D01*
X64952380Y-108166666D01*
X64904761Y-108071428D01*
X64857142Y-108023809D01*
X64761904Y-107976190D01*
X63952380Y-107976190D01*
X63952380Y-107642857D02*
X63952380Y-107071428D01*
X64952380Y-107357142D02*
X63952380Y-107357142D01*
%TO.C,RV7*%
X138454761Y-69302380D02*
X138121428Y-68826190D01*
X137883333Y-69302380D02*
X137883333Y-68302380D01*
X138264285Y-68302380D01*
X138359523Y-68350000D01*
X138407142Y-68397619D01*
X138454761Y-68492857D01*
X138454761Y-68635714D01*
X138407142Y-68730952D01*
X138359523Y-68778571D01*
X138264285Y-68826190D01*
X137883333Y-68826190D01*
X138740476Y-68302380D02*
X139073809Y-69302380D01*
X139407142Y-68302380D01*
X139645238Y-68302380D02*
X140311904Y-68302380D01*
X139883333Y-69302380D01*
%TO.C,R3*%
X77384523Y-79952380D02*
X76813095Y-79952380D01*
X77098809Y-79952380D02*
X77098809Y-78952380D01*
X77003571Y-79095238D01*
X76908333Y-79190476D01*
X76813095Y-79238095D01*
X78003571Y-78952380D02*
X78098809Y-78952380D01*
X78194047Y-79000000D01*
X78241666Y-79047619D01*
X78289285Y-79142857D01*
X78336904Y-79333333D01*
X78336904Y-79571428D01*
X78289285Y-79761904D01*
X78241666Y-79857142D01*
X78194047Y-79904761D01*
X78098809Y-79952380D01*
X78003571Y-79952380D01*
X77908333Y-79904761D01*
X77860714Y-79857142D01*
X77813095Y-79761904D01*
X77765476Y-79571428D01*
X77765476Y-79333333D01*
X77813095Y-79142857D01*
X77860714Y-79047619D01*
X77908333Y-79000000D01*
X78003571Y-78952380D01*
%TO.C,RV3*%
X115454761Y-86302380D02*
X115121428Y-85826190D01*
X114883333Y-86302380D02*
X114883333Y-85302380D01*
X115264285Y-85302380D01*
X115359523Y-85350000D01*
X115407142Y-85397619D01*
X115454761Y-85492857D01*
X115454761Y-85635714D01*
X115407142Y-85730952D01*
X115359523Y-85778571D01*
X115264285Y-85826190D01*
X114883333Y-85826190D01*
X115740476Y-85302380D02*
X116073809Y-86302380D01*
X116407142Y-85302380D01*
X116645238Y-85302380D02*
X117264285Y-85302380D01*
X116930952Y-85683333D01*
X117073809Y-85683333D01*
X117169047Y-85730952D01*
X117216666Y-85778571D01*
X117264285Y-85873809D01*
X117264285Y-86111904D01*
X117216666Y-86207142D01*
X117169047Y-86254761D01*
X117073809Y-86302380D01*
X116788095Y-86302380D01*
X116692857Y-86254761D01*
X116645238Y-86207142D01*
%TO.C,R2*%
X76840476Y-82777380D02*
X77459523Y-82777380D01*
X77126190Y-83158333D01*
X77269047Y-83158333D01*
X77364285Y-83205952D01*
X77411904Y-83253571D01*
X77459523Y-83348809D01*
X77459523Y-83586904D01*
X77411904Y-83682142D01*
X77364285Y-83729761D01*
X77269047Y-83777380D01*
X76983333Y-83777380D01*
X76888095Y-83729761D01*
X76840476Y-83682142D01*
X77792857Y-82777380D02*
X78411904Y-82777380D01*
X78078571Y-83158333D01*
X78221428Y-83158333D01*
X78316666Y-83205952D01*
X78364285Y-83253571D01*
X78411904Y-83348809D01*
X78411904Y-83586904D01*
X78364285Y-83682142D01*
X78316666Y-83729761D01*
X78221428Y-83777380D01*
X77935714Y-83777380D01*
X77840476Y-83729761D01*
X77792857Y-83682142D01*
D13*
%TO.C,SW1*%
X68924380Y-54259619D02*
X68585714Y-53775809D01*
X68343809Y-54259619D02*
X68343809Y-53243619D01*
X68730857Y-53243619D01*
X68827619Y-53292000D01*
X68876000Y-53340380D01*
X68924380Y-53437142D01*
X68924380Y-53582285D01*
X68876000Y-53679047D01*
X68827619Y-53727428D01*
X68730857Y-53775809D01*
X68343809Y-53775809D01*
X69359809Y-53727428D02*
X69698476Y-53727428D01*
X69843619Y-54259619D02*
X69359809Y-54259619D01*
X69359809Y-53243619D01*
X69843619Y-53243619D01*
X70230666Y-54211238D02*
X70375809Y-54259619D01*
X70617714Y-54259619D01*
X70714476Y-54211238D01*
X70762857Y-54162857D01*
X70811238Y-54066095D01*
X70811238Y-53969333D01*
X70762857Y-53872571D01*
X70714476Y-53824190D01*
X70617714Y-53775809D01*
X70424190Y-53727428D01*
X70327428Y-53679047D01*
X70279047Y-53630666D01*
X70230666Y-53533904D01*
X70230666Y-53437142D01*
X70279047Y-53340380D01*
X70327428Y-53292000D01*
X70424190Y-53243619D01*
X70666095Y-53243619D01*
X70811238Y-53292000D01*
X71246666Y-53727428D02*
X71585333Y-53727428D01*
X71730476Y-54259619D02*
X71246666Y-54259619D01*
X71246666Y-53243619D01*
X71730476Y-53243619D01*
X72020761Y-53243619D02*
X72601333Y-53243619D01*
X72311047Y-54259619D02*
X72311047Y-53243619D01*
D10*
%TO.C,R5*%
X76438095Y-110285714D02*
X76438095Y-110952380D01*
X76200000Y-109904761D02*
X75961904Y-110619047D01*
X76580952Y-110619047D01*
X76866666Y-109952380D02*
X77533333Y-109952380D01*
X77104761Y-110952380D01*
X78104761Y-109952380D02*
X78200000Y-109952380D01*
X78295238Y-110000000D01*
X78342857Y-110047619D01*
X78390476Y-110142857D01*
X78438095Y-110333333D01*
X78438095Y-110571428D01*
X78390476Y-110761904D01*
X78342857Y-110857142D01*
X78295238Y-110904761D01*
X78200000Y-110952380D01*
X78104761Y-110952380D01*
X78009523Y-110904761D01*
X77961904Y-110857142D01*
X77914285Y-110761904D01*
X77866666Y-110571428D01*
X77866666Y-110333333D01*
X77914285Y-110142857D01*
X77961904Y-110047619D01*
X78009523Y-110000000D01*
X78104761Y-109952380D01*
%TO.C,J10*%
X93542857Y-72127380D02*
X94209523Y-72127380D01*
X93780952Y-73127380D01*
X94590476Y-72746428D02*
X95352380Y-72746428D01*
X96352380Y-73127380D02*
X95780952Y-73127380D01*
X96066666Y-73127380D02*
X96066666Y-72127380D01*
X95971428Y-72270238D01*
X95876190Y-72365476D01*
X95780952Y-72413095D01*
X96971428Y-72127380D02*
X97066666Y-72127380D01*
X97161904Y-72175000D01*
X97209523Y-72222619D01*
X97257142Y-72317857D01*
X97304761Y-72508333D01*
X97304761Y-72746428D01*
X97257142Y-72936904D01*
X97209523Y-73032142D01*
X97161904Y-73079761D01*
X97066666Y-73127380D01*
X96971428Y-73127380D01*
X96876190Y-73079761D01*
X96828571Y-73032142D01*
X96780952Y-72936904D01*
X96733333Y-72746428D01*
X96733333Y-72508333D01*
X96780952Y-72317857D01*
X96828571Y-72222619D01*
X96876190Y-72175000D01*
X96971428Y-72127380D01*
X98495238Y-73127380D02*
X98495238Y-72127380D01*
X98876190Y-72127380D01*
X98971428Y-72175000D01*
X99019047Y-72222619D01*
X99066666Y-72317857D01*
X99066666Y-72460714D01*
X99019047Y-72555952D01*
X98971428Y-72603571D01*
X98876190Y-72651190D01*
X98495238Y-72651190D01*
X99400000Y-72127380D02*
X99638095Y-73127380D01*
X99828571Y-72413095D01*
X100019047Y-73127380D01*
X100257142Y-72127380D01*
X101209523Y-73127380D02*
X100876190Y-72651190D01*
X100638095Y-73127380D02*
X100638095Y-72127380D01*
X101019047Y-72127380D01*
X101114285Y-72175000D01*
X101161904Y-72222619D01*
X101209523Y-72317857D01*
X101209523Y-72460714D01*
X101161904Y-72555952D01*
X101114285Y-72603571D01*
X101019047Y-72651190D01*
X100638095Y-72651190D01*
%TO.C,D1*%
X75958333Y-96372380D02*
X75386904Y-96372380D01*
X75672619Y-96372380D02*
X75672619Y-95372380D01*
X75577380Y-95515238D01*
X75482142Y-95610476D01*
X75386904Y-95658095D01*
X76386904Y-96372380D02*
X76386904Y-95372380D01*
X76958333Y-96372380D01*
X76958333Y-95372380D01*
X77482142Y-96372380D02*
X77672619Y-96372380D01*
X77767857Y-96324761D01*
X77815476Y-96277142D01*
X77910714Y-96134285D01*
X77958333Y-95943809D01*
X77958333Y-95562857D01*
X77910714Y-95467619D01*
X77863095Y-95420000D01*
X77767857Y-95372380D01*
X77577380Y-95372380D01*
X77482142Y-95420000D01*
X77434523Y-95467619D01*
X77386904Y-95562857D01*
X77386904Y-95800952D01*
X77434523Y-95896190D01*
X77482142Y-95943809D01*
X77577380Y-95991428D01*
X77767857Y-95991428D01*
X77863095Y-95943809D01*
X77910714Y-95896190D01*
X77958333Y-95800952D01*
X78910714Y-96372380D02*
X78339285Y-96372380D01*
X78625000Y-96372380D02*
X78625000Y-95372380D01*
X78529761Y-95515238D01*
X78434523Y-95610476D01*
X78339285Y-95658095D01*
X79767857Y-95705714D02*
X79767857Y-96372380D01*
X79529761Y-95324761D02*
X79291666Y-96039047D01*
X79910714Y-96039047D01*
%TO.C,RV8*%
X138454761Y-52302380D02*
X138121428Y-51826190D01*
X137883333Y-52302380D02*
X137883333Y-51302380D01*
X138264285Y-51302380D01*
X138359523Y-51350000D01*
X138407142Y-51397619D01*
X138454761Y-51492857D01*
X138454761Y-51635714D01*
X138407142Y-51730952D01*
X138359523Y-51778571D01*
X138264285Y-51826190D01*
X137883333Y-51826190D01*
X138740476Y-51302380D02*
X139073809Y-52302380D01*
X139407142Y-51302380D01*
X139883333Y-51730952D02*
X139788095Y-51683333D01*
X139740476Y-51635714D01*
X139692857Y-51540476D01*
X139692857Y-51492857D01*
X139740476Y-51397619D01*
X139788095Y-51350000D01*
X139883333Y-51302380D01*
X140073809Y-51302380D01*
X140169047Y-51350000D01*
X140216666Y-51397619D01*
X140264285Y-51492857D01*
X140264285Y-51540476D01*
X140216666Y-51635714D01*
X140169047Y-51683333D01*
X140073809Y-51730952D01*
X139883333Y-51730952D01*
X139788095Y-51778571D01*
X139740476Y-51826190D01*
X139692857Y-51921428D01*
X139692857Y-52111904D01*
X139740476Y-52207142D01*
X139788095Y-52254761D01*
X139883333Y-52302380D01*
X140073809Y-52302380D01*
X140169047Y-52254761D01*
X140216666Y-52207142D01*
X140264285Y-52111904D01*
X140264285Y-51921428D01*
X140216666Y-51826190D01*
X140169047Y-51778571D01*
X140073809Y-51730952D01*
D12*
%TO.C,J3*%
X70690168Y-91798285D02*
X69166168Y-91798285D01*
X70690168Y-91072571D02*
X69166168Y-91072571D01*
X70690168Y-90201714D01*
X69166168Y-90201714D01*
D10*
%TO.C,RV5*%
X138454761Y-103302380D02*
X138121428Y-102826190D01*
X137883333Y-103302380D02*
X137883333Y-102302380D01*
X138264285Y-102302380D01*
X138359523Y-102350000D01*
X138407142Y-102397619D01*
X138454761Y-102492857D01*
X138454761Y-102635714D01*
X138407142Y-102730952D01*
X138359523Y-102778571D01*
X138264285Y-102826190D01*
X137883333Y-102826190D01*
X138740476Y-102302380D02*
X139073809Y-103302380D01*
X139407142Y-102302380D01*
X140216666Y-102302380D02*
X139740476Y-102302380D01*
X139692857Y-102778571D01*
X139740476Y-102730952D01*
X139835714Y-102683333D01*
X140073809Y-102683333D01*
X140169047Y-102730952D01*
X140216666Y-102778571D01*
X140264285Y-102873809D01*
X140264285Y-103111904D01*
X140216666Y-103207142D01*
X140169047Y-103254761D01*
X140073809Y-103302380D01*
X139835714Y-103302380D01*
X139740476Y-103254761D01*
X139692857Y-103207142D01*
%TO.C,RV6*%
X138454761Y-86302380D02*
X138121428Y-85826190D01*
X137883333Y-86302380D02*
X137883333Y-85302380D01*
X138264285Y-85302380D01*
X138359523Y-85350000D01*
X138407142Y-85397619D01*
X138454761Y-85492857D01*
X138454761Y-85635714D01*
X138407142Y-85730952D01*
X138359523Y-85778571D01*
X138264285Y-85826190D01*
X137883333Y-85826190D01*
X138740476Y-85302380D02*
X139073809Y-86302380D01*
X139407142Y-85302380D01*
X140169047Y-85302380D02*
X139978571Y-85302380D01*
X139883333Y-85350000D01*
X139835714Y-85397619D01*
X139740476Y-85540476D01*
X139692857Y-85730952D01*
X139692857Y-86111904D01*
X139740476Y-86207142D01*
X139788095Y-86254761D01*
X139883333Y-86302380D01*
X140073809Y-86302380D01*
X140169047Y-86254761D01*
X140216666Y-86207142D01*
X140264285Y-86111904D01*
X140264285Y-85873809D01*
X140216666Y-85778571D01*
X140169047Y-85730952D01*
X140073809Y-85683333D01*
X139883333Y-85683333D01*
X139788095Y-85730952D01*
X139740476Y-85778571D01*
X139692857Y-85873809D01*
%TO.C,RV1*%
X115454761Y-52302380D02*
X115121428Y-51826190D01*
X114883333Y-52302380D02*
X114883333Y-51302380D01*
X115264285Y-51302380D01*
X115359523Y-51350000D01*
X115407142Y-51397619D01*
X115454761Y-51492857D01*
X115454761Y-51635714D01*
X115407142Y-51730952D01*
X115359523Y-51778571D01*
X115264285Y-51826190D01*
X114883333Y-51826190D01*
X115740476Y-51302380D02*
X116073809Y-52302380D01*
X116407142Y-51302380D01*
X117264285Y-52302380D02*
X116692857Y-52302380D01*
X116978571Y-52302380D02*
X116978571Y-51302380D01*
X116883333Y-51445238D01*
X116788095Y-51540476D01*
X116692857Y-51588095D01*
D12*
%TO.C,J4*%
X50000780Y-62000780D02*
X50501160Y-62000780D01*
X50249700Y-62000780D02*
X50249700Y-81500360D01*
X67999220Y-79999220D02*
X68499600Y-79498840D01*
X67999220Y-72998980D02*
X66000240Y-72998980D01*
X50999000Y-62501160D02*
X50501160Y-62501160D01*
X68499600Y-76999480D02*
X67999220Y-76499100D01*
X66000240Y-76499100D02*
X66000240Y-72998980D01*
X67999220Y-69001020D02*
X66000240Y-69001020D01*
X49500400Y-60499640D02*
X50000780Y-60499640D01*
X50501160Y-62000780D02*
X50501160Y-81500360D01*
X50000780Y-79999220D02*
X50000780Y-62000780D01*
X67999220Y-62000780D02*
X68499600Y-62501160D01*
X50999000Y-62000780D02*
X50999000Y-62501160D01*
X67999220Y-62000780D02*
X50999000Y-62000780D01*
X50999000Y-79999220D02*
X50999000Y-79498840D01*
X68499600Y-65000520D02*
X67999220Y-65500900D01*
X49500400Y-79999220D02*
X49500400Y-60499640D01*
X50501160Y-79498840D02*
X50999000Y-79498840D01*
X68499600Y-72501140D02*
X67999220Y-72998980D01*
X50000780Y-60499640D02*
X50000780Y-62000780D01*
X68499600Y-69498860D02*
X67999220Y-69001020D01*
X67999220Y-76499100D02*
X66000240Y-76499100D01*
X50000780Y-81500360D02*
X50000780Y-79999220D01*
X68499600Y-69498860D02*
X68499600Y-72501140D01*
X67999220Y-79999220D02*
X50999000Y-79999220D01*
X68499600Y-62501160D02*
X68499600Y-65000520D01*
X67999220Y-65500900D02*
X66000240Y-65500900D01*
X50000780Y-79999220D02*
X49500400Y-79999220D01*
X68499600Y-79498840D02*
X68499600Y-77499860D01*
X49749320Y-60499640D02*
X49749320Y-79999220D01*
X68499600Y-77499860D02*
X68499600Y-76999480D01*
X66000240Y-65500900D02*
X66000240Y-69001020D01*
X50501160Y-81500360D02*
X50000780Y-81500360D01*
D14*
%TO.C,J9*%
X60825000Y-60305000D02*
X59495000Y-60305000D01*
X59495000Y-60305000D02*
X59495000Y-58975000D01*
X62095000Y-60305000D02*
X62095000Y-57645000D01*
X62095000Y-60305000D02*
X67235000Y-60305000D01*
X62095000Y-57645000D02*
X67235000Y-57645000D01*
X67235000Y-60305000D02*
X67235000Y-57645000D01*
%TO.C,J14*%
X96670000Y-109270000D02*
X99330000Y-109270000D01*
X96670000Y-106670000D02*
X98000000Y-106670000D01*
X99330000Y-109270000D02*
X99330000Y-114410000D01*
X96670000Y-108000000D02*
X96670000Y-106670000D01*
X96670000Y-109270000D02*
X96670000Y-114410000D01*
X96670000Y-114410000D02*
X99330000Y-114410000D01*
%TO.C,J13*%
X102670000Y-114410000D02*
X105330000Y-114410000D01*
X102670000Y-109270000D02*
X102670000Y-114410000D01*
X102670000Y-108000000D02*
X102670000Y-106670000D01*
X105330000Y-109270000D02*
X105330000Y-114410000D01*
X102670000Y-106670000D02*
X104000000Y-106670000D01*
X102670000Y-109270000D02*
X105330000Y-109270000D01*
%TO.C,J1*%
X51200000Y-65000000D02*
X62200000Y-65000000D01*
X51200000Y-75500000D02*
X50000000Y-75500000D01*
X50000000Y-66500000D02*
X51200000Y-66500000D01*
X62200000Y-65000000D02*
X62200000Y-77000000D01*
X50000000Y-68000000D02*
X50000000Y-66500000D01*
X62200000Y-77000000D02*
X51200000Y-77000000D01*
X51200000Y-73000000D02*
X51200000Y-69000000D01*
X51200000Y-77000000D02*
X51200000Y-75500000D01*
X48200000Y-68000000D02*
X50000000Y-68000000D01*
X48200000Y-73000000D02*
X51200000Y-73000000D01*
X51200000Y-66500000D02*
X51200000Y-65000000D01*
X50000000Y-75500000D02*
X50000000Y-74000000D01*
X51200000Y-69000000D02*
X48200000Y-69000000D01*
X48200000Y-74000000D02*
X48200000Y-68000000D01*
X50000000Y-74000000D02*
X48200000Y-74000000D01*
%TO.C,C1*%
X87130000Y-85845000D02*
X87130000Y-85400000D01*
X93370000Y-85845000D02*
X93370000Y-85400000D01*
X93370000Y-85845000D02*
X87130000Y-85845000D01*
X93370000Y-83105000D02*
X87130000Y-83105000D01*
X93370000Y-83550000D02*
X93370000Y-83105000D01*
X87130000Y-83550000D02*
X87130000Y-83105000D01*
%TO.C,R4*%
X80895000Y-85455000D02*
X80895000Y-85785000D01*
X80895000Y-88195000D02*
X80895000Y-87865000D01*
X74355000Y-88195000D02*
X80895000Y-88195000D01*
X74355000Y-85455000D02*
X80895000Y-85455000D01*
X74355000Y-85785000D02*
X74355000Y-85455000D01*
X74355000Y-87865000D02*
X74355000Y-88195000D01*
%TO.C,J2*%
X51200000Y-89000000D02*
X48200000Y-89000000D01*
X50000000Y-88000000D02*
X50000000Y-86500000D01*
X50000000Y-94000000D02*
X48200000Y-94000000D01*
X51200000Y-93000000D02*
X51200000Y-89000000D01*
X48200000Y-93000000D02*
X51200000Y-93000000D01*
X51200000Y-85000000D02*
X62200000Y-85000000D01*
X51200000Y-95500000D02*
X50000000Y-95500000D01*
X62200000Y-97000000D02*
X51200000Y-97000000D01*
X51200000Y-97000000D02*
X51200000Y-95500000D01*
X48200000Y-88000000D02*
X50000000Y-88000000D01*
X48200000Y-94000000D02*
X48200000Y-88000000D01*
X50000000Y-86500000D02*
X51200000Y-86500000D01*
X51200000Y-86500000D02*
X51200000Y-85000000D01*
X50000000Y-95500000D02*
X50000000Y-94000000D01*
X62200000Y-85000000D02*
X62200000Y-97000000D01*
%TO.C,J7*%
X78170000Y-71070000D02*
X80830000Y-71070000D01*
X80830000Y-53170000D02*
X80830000Y-54500000D01*
X78170000Y-55770000D02*
X80830000Y-55770000D01*
X80830000Y-55770000D02*
X80830000Y-71070000D01*
X78170000Y-55770000D02*
X78170000Y-71070000D01*
X79500000Y-53170000D02*
X80830000Y-53170000D01*
%TO.C,RV2*%
X119184000Y-71479000D02*
X123120000Y-71479000D01*
X110880000Y-77371000D02*
X110880000Y-78130000D01*
X119184000Y-81520000D02*
X123120000Y-81520000D01*
X110880000Y-75250000D02*
X110880000Y-75630000D01*
X110880000Y-79870000D02*
X110880000Y-81520000D01*
X110880000Y-81520000D02*
X114817000Y-81520000D01*
X110880000Y-71479000D02*
X110880000Y-72800000D01*
X110880000Y-71479000D02*
X114817000Y-71479000D01*
X123120000Y-71479000D02*
X123120000Y-81520000D01*
%TO.C,RV4*%
X110880000Y-115520000D02*
X114817000Y-115520000D01*
X110880000Y-105479000D02*
X110880000Y-106800000D01*
X119184000Y-105479000D02*
X123120000Y-105479000D01*
X123120000Y-105479000D02*
X123120000Y-115520000D01*
X110880000Y-111371000D02*
X110880000Y-112130000D01*
X110880000Y-109250000D02*
X110880000Y-109630000D01*
X119184000Y-115520000D02*
X123120000Y-115520000D01*
X110880000Y-105479000D02*
X114817000Y-105479000D01*
X110880000Y-113870000D02*
X110880000Y-115520000D01*
%TO.C,J8*%
X84720000Y-53820000D02*
X84720000Y-52490000D01*
X87320000Y-52490000D02*
X89920000Y-52490000D01*
X84720000Y-52490000D02*
X86050000Y-52490000D01*
X84720000Y-55090000D02*
X87320000Y-55090000D01*
X89920000Y-52490000D02*
X89920000Y-57690000D01*
X87320000Y-55090000D02*
X87320000Y-52490000D01*
X84720000Y-57690000D02*
X89920000Y-57690000D01*
X84720000Y-55090000D02*
X84720000Y-57690000D01*
%TO.C,J5*%
X52495000Y-53150000D02*
X52495000Y-51820000D01*
X52495000Y-51820000D02*
X53825000Y-51820000D01*
X52495000Y-54420000D02*
X55155000Y-54420000D01*
X52495000Y-54420000D02*
X52495000Y-57020000D01*
X52495000Y-57020000D02*
X55155000Y-57020000D01*
X55155000Y-54420000D02*
X55155000Y-57020000D01*
%TO.C,C2*%
X78170000Y-107055000D02*
X78170000Y-107070000D01*
X73630000Y-104930000D02*
X78170000Y-104930000D01*
X73630000Y-107055000D02*
X73630000Y-107070000D01*
X78170000Y-104930000D02*
X78170000Y-104945000D01*
X73630000Y-104930000D02*
X73630000Y-104945000D01*
X73630000Y-107070000D02*
X78170000Y-107070000D01*
%TO.C,U1*%
X87985000Y-86945000D02*
G75*
G03*
X89985000Y-86945000I1000000J0D01*
G01*
X91635000Y-94685000D02*
X91635000Y-86945000D01*
X86335000Y-94685000D02*
X91635000Y-94685000D01*
X86335000Y-86945000D02*
X86335000Y-94685000D01*
X83845000Y-94745000D02*
X94125000Y-94745000D01*
X87985000Y-86945000D02*
X86335000Y-86945000D01*
X94125000Y-86885000D02*
X83845000Y-86885000D01*
X83845000Y-86885000D02*
X83845000Y-94745000D01*
X91635000Y-86945000D02*
X89985000Y-86945000D01*
X94125000Y-94745000D02*
X94125000Y-86885000D01*
%TO.C,R1*%
X74365000Y-89130000D02*
X80905000Y-89130000D01*
X80905000Y-89130000D02*
X80905000Y-89460000D01*
X74365000Y-89460000D02*
X74365000Y-89130000D01*
X74365000Y-91870000D02*
X80905000Y-91870000D01*
X74365000Y-91540000D02*
X74365000Y-91870000D01*
X80905000Y-91870000D02*
X80905000Y-91540000D01*
%TO.C,C3*%
X69465888Y-107040000D02*
X69465888Y-108414000D01*
X70625888Y-104446000D02*
X70625888Y-107554000D01*
X69665888Y-107040000D02*
X69665888Y-108329000D01*
X71145888Y-105716000D02*
X71145888Y-106284000D01*
X69585888Y-103635000D02*
X69585888Y-104960000D01*
X69064888Y-103472000D02*
X69064888Y-104960000D01*
X70745888Y-104617000D02*
X70745888Y-107383000D01*
X69144888Y-107040000D02*
X69144888Y-108511000D01*
X69745888Y-107040000D02*
X69745888Y-108290000D01*
X70185888Y-103996000D02*
X70185888Y-104960000D01*
X69224888Y-107040000D02*
X69224888Y-108491000D01*
X70385888Y-107040000D02*
X70385888Y-107826000D01*
X69705888Y-103690000D02*
X69705888Y-104960000D01*
X69184888Y-103499000D02*
X69184888Y-104960000D01*
X69825888Y-107040000D02*
X69825888Y-108247000D01*
X68904888Y-107040000D02*
X68904888Y-108556000D01*
X69865888Y-103776000D02*
X69865888Y-104960000D01*
X70065888Y-107040000D02*
X70065888Y-108095000D01*
X68864888Y-107040000D02*
X68864888Y-108561000D01*
X70665888Y-104500000D02*
X70665888Y-107500000D01*
X70425888Y-104215000D02*
X70425888Y-104960000D01*
X70705888Y-104557000D02*
X70705888Y-107443000D01*
X69665888Y-103671000D02*
X69665888Y-104960000D01*
X68664888Y-107040000D02*
X68664888Y-108578000D01*
X70505888Y-107040000D02*
X70505888Y-107699000D01*
X69505888Y-107040000D02*
X69505888Y-108398000D01*
X68544888Y-103420000D02*
X68544888Y-104960000D01*
X68544888Y-107040000D02*
X68544888Y-108580000D01*
X68904888Y-103444000D02*
X68904888Y-104960000D01*
X70305888Y-104099000D02*
X70305888Y-104960000D01*
X69945888Y-103825000D02*
X69945888Y-104960000D01*
X69545888Y-103618000D02*
X69545888Y-104960000D01*
X71105888Y-105482000D02*
X71105888Y-106518000D01*
X69305888Y-103532000D02*
X69305888Y-104960000D01*
X70945888Y-104989000D02*
X70945888Y-107011000D01*
X70545888Y-107040000D02*
X70545888Y-107653000D01*
X68824888Y-103435000D02*
X68824888Y-104960000D01*
X70465888Y-104257000D02*
X70465888Y-104960000D01*
X68584888Y-107040000D02*
X68584888Y-108580000D01*
X70225888Y-104029000D02*
X70225888Y-104960000D01*
X68744888Y-107040000D02*
X68744888Y-108573000D01*
X70345888Y-104136000D02*
X70345888Y-104960000D01*
X68984888Y-103457000D02*
X68984888Y-104960000D01*
X68984888Y-107040000D02*
X68984888Y-108543000D01*
X68744888Y-103427000D02*
X68744888Y-104960000D01*
X70025888Y-103878000D02*
X70025888Y-104960000D01*
X70545888Y-104347000D02*
X70545888Y-104960000D01*
X69785888Y-103732000D02*
X69785888Y-104960000D01*
X70385888Y-104174000D02*
X70385888Y-104960000D01*
X69265888Y-103520000D02*
X69265888Y-104960000D01*
X69825888Y-103753000D02*
X69825888Y-104960000D01*
X68864888Y-103439000D02*
X68864888Y-104960000D01*
X70105888Y-103935000D02*
X70105888Y-104960000D01*
X68664888Y-103422000D02*
X68664888Y-104960000D01*
X69104888Y-103480000D02*
X69104888Y-104960000D01*
X69024888Y-103464000D02*
X69024888Y-104960000D01*
X70305888Y-107040000D02*
X70305888Y-107901000D01*
X70785888Y-104681000D02*
X70785888Y-107319000D01*
X69144888Y-103489000D02*
X69144888Y-104960000D01*
X70585888Y-104395000D02*
X70585888Y-107605000D01*
X70825888Y-104749000D02*
X70825888Y-107251000D01*
X68944888Y-103450000D02*
X68944888Y-104960000D01*
X71025888Y-105195000D02*
X71025888Y-106805000D01*
X69425888Y-103572000D02*
X69425888Y-104960000D01*
X69024888Y-107040000D02*
X69024888Y-108536000D01*
X69505888Y-103602000D02*
X69505888Y-104960000D01*
X70425888Y-107040000D02*
X70425888Y-107785000D01*
X70985888Y-105085000D02*
X70985888Y-106915000D01*
X69184888Y-107040000D02*
X69184888Y-108501000D01*
X65740113Y-104525000D02*
X66240113Y-104525000D01*
X70185888Y-107040000D02*
X70185888Y-108004000D01*
X69625888Y-103652000D02*
X69625888Y-104960000D01*
X70265888Y-104063000D02*
X70265888Y-104960000D01*
X69625888Y-107040000D02*
X69625888Y-108348000D01*
X69345888Y-107040000D02*
X69345888Y-108455000D01*
X69865888Y-107040000D02*
X69865888Y-108224000D01*
X69104888Y-107040000D02*
X69104888Y-108520000D01*
X70025888Y-107040000D02*
X70025888Y-108122000D01*
X69705888Y-107040000D02*
X69705888Y-108310000D01*
X69905888Y-103800000D02*
X69905888Y-104960000D01*
X69545888Y-107040000D02*
X69545888Y-108382000D01*
X69985888Y-107040000D02*
X69985888Y-108149000D01*
X69305888Y-107040000D02*
X69305888Y-108468000D01*
X69265888Y-107040000D02*
X69265888Y-108480000D01*
X68584888Y-103420000D02*
X68584888Y-104960000D01*
X69425888Y-107040000D02*
X69425888Y-108428000D01*
X70105888Y-107040000D02*
X70105888Y-108065000D01*
X65990113Y-104275000D02*
X65990113Y-104775000D01*
X69745888Y-103710000D02*
X69745888Y-104960000D01*
X68784888Y-107040000D02*
X68784888Y-108569000D01*
X70505888Y-104301000D02*
X70505888Y-104960000D01*
X70345888Y-107040000D02*
X70345888Y-107864000D01*
X68824888Y-107040000D02*
X68824888Y-108565000D01*
X70465888Y-107040000D02*
X70465888Y-107743000D01*
X68704888Y-103424000D02*
X68704888Y-104960000D01*
X70225888Y-107040000D02*
X70225888Y-107971000D01*
X69345888Y-103545000D02*
X69345888Y-104960000D01*
X69385888Y-107040000D02*
X69385888Y-108442000D01*
X71065888Y-105323000D02*
X71065888Y-106677000D01*
X69905888Y-107040000D02*
X69905888Y-108200000D01*
X70865888Y-104822000D02*
X70865888Y-107178000D01*
X68784888Y-103431000D02*
X68784888Y-104960000D01*
X69985888Y-103851000D02*
X69985888Y-104960000D01*
X68624888Y-103421000D02*
X68624888Y-104960000D01*
X70065888Y-103905000D02*
X70065888Y-104960000D01*
X69465888Y-103586000D02*
X69465888Y-104960000D01*
X70145888Y-103965000D02*
X70145888Y-104960000D01*
X69945888Y-107040000D02*
X69945888Y-108175000D01*
X69385888Y-103558000D02*
X69385888Y-104960000D01*
X68704888Y-107040000D02*
X68704888Y-108576000D01*
X69585888Y-107040000D02*
X69585888Y-108365000D01*
X69785888Y-107040000D02*
X69785888Y-108268000D01*
X68624888Y-107040000D02*
X68624888Y-108579000D01*
X70265888Y-107040000D02*
X70265888Y-107937000D01*
X68944888Y-107040000D02*
X68944888Y-108550000D01*
X69064888Y-107040000D02*
X69064888Y-108528000D01*
X70905888Y-104902000D02*
X70905888Y-107098000D01*
X70145888Y-107040000D02*
X70145888Y-108035000D01*
X69224888Y-103509000D02*
X69224888Y-104960000D01*
X71164888Y-106000000D02*
G75*
G03*
X71164888Y-106000000I-2620000J0D01*
G01*
%TO.C,J12*%
X50000000Y-114000000D02*
X48200000Y-114000000D01*
X51200000Y-117000000D02*
X51200000Y-115500000D01*
X48200000Y-108000000D02*
X50000000Y-108000000D01*
X51200000Y-113000000D02*
X51200000Y-109000000D01*
X51200000Y-115500000D02*
X50000000Y-115500000D01*
X48200000Y-113000000D02*
X51200000Y-113000000D01*
X50000000Y-106500000D02*
X51200000Y-106500000D01*
X51200000Y-106500000D02*
X51200000Y-105000000D01*
X62200000Y-117000000D02*
X51200000Y-117000000D01*
X51200000Y-109000000D02*
X48200000Y-109000000D01*
X51200000Y-105000000D02*
X62200000Y-105000000D01*
X48200000Y-114000000D02*
X48200000Y-108000000D01*
X50000000Y-115500000D02*
X50000000Y-114000000D01*
X62200000Y-105000000D02*
X62200000Y-117000000D01*
X50000000Y-108000000D02*
X50000000Y-106500000D01*
%TO.C,RV7*%
X133880000Y-71479000D02*
X137817000Y-71479000D01*
X142184000Y-81520000D02*
X146120000Y-81520000D01*
X146120000Y-71479000D02*
X146120000Y-81520000D01*
X133880000Y-77371000D02*
X133880000Y-78130000D01*
X133880000Y-71479000D02*
X133880000Y-72800000D01*
X142184000Y-71479000D02*
X146120000Y-71479000D01*
X133880000Y-75250000D02*
X133880000Y-75630000D01*
X133880000Y-81520000D02*
X137817000Y-81520000D01*
X133880000Y-79870000D02*
X133880000Y-81520000D01*
%TO.C,R3*%
X74305000Y-80515000D02*
X74305000Y-80845000D01*
X80845000Y-78105000D02*
X80845000Y-78435000D01*
X74305000Y-78105000D02*
X80845000Y-78105000D01*
X80845000Y-80845000D02*
X80845000Y-80515000D01*
X74305000Y-80845000D02*
X80845000Y-80845000D01*
X74305000Y-78435000D02*
X74305000Y-78105000D01*
%TO.C,J11*%
X98695000Y-71070000D02*
X101355000Y-71070000D01*
X100025000Y-53170000D02*
X101355000Y-53170000D01*
X98695000Y-55770000D02*
X98695000Y-71070000D01*
X98695000Y-55770000D02*
X101355000Y-55770000D01*
X101355000Y-53170000D02*
X101355000Y-54500000D01*
X101355000Y-55770000D02*
X101355000Y-71070000D01*
%TO.C,J6*%
X73170000Y-55770000D02*
X73170000Y-71070000D01*
X75830000Y-53170000D02*
X75830000Y-54500000D01*
X75830000Y-55770000D02*
X75830000Y-71070000D01*
X74500000Y-53170000D02*
X75830000Y-53170000D01*
X73170000Y-71070000D02*
X75830000Y-71070000D01*
X73170000Y-55770000D02*
X75830000Y-55770000D01*
%TO.C,RV3*%
X110880000Y-92250000D02*
X110880000Y-92630000D01*
X123120000Y-88479000D02*
X123120000Y-98520000D01*
X110880000Y-88479000D02*
X110880000Y-89800000D01*
X119184000Y-98520000D02*
X123120000Y-98520000D01*
X110880000Y-94371000D02*
X110880000Y-95130000D01*
X119184000Y-88479000D02*
X123120000Y-88479000D01*
X110880000Y-98520000D02*
X114817000Y-98520000D01*
X110880000Y-96870000D02*
X110880000Y-98520000D01*
X110880000Y-88479000D02*
X114817000Y-88479000D01*
%TO.C,R2*%
X80920000Y-81905000D02*
X80920000Y-82235000D01*
X74380000Y-81905000D02*
X80920000Y-81905000D01*
X80920000Y-84645000D02*
X80920000Y-84315000D01*
X74380000Y-82235000D02*
X74380000Y-81905000D01*
X74380000Y-84645000D02*
X80920000Y-84645000D01*
X74380000Y-84315000D02*
X74380000Y-84645000D01*
D15*
%TO.C,SW1*%
X60100000Y-52200000D02*
X66100000Y-52200000D01*
X66100000Y-55200000D02*
X60100000Y-55200000D01*
D14*
%TO.C,R5*%
X74030000Y-109435000D02*
X74030000Y-109105000D01*
X74030000Y-111845000D02*
X80570000Y-111845000D01*
X74030000Y-111515000D02*
X74030000Y-111845000D01*
X74030000Y-109105000D02*
X80570000Y-109105000D01*
X80570000Y-111845000D02*
X80570000Y-111515000D01*
X80570000Y-109105000D02*
X80570000Y-109435000D01*
%TO.C,J10*%
X95025000Y-53170000D02*
X96355000Y-53170000D01*
X93695000Y-71070000D02*
X96355000Y-71070000D01*
X96355000Y-55770000D02*
X96355000Y-71070000D01*
X93695000Y-55770000D02*
X96355000Y-55770000D01*
X96355000Y-53170000D02*
X96355000Y-54500000D01*
X93695000Y-55770000D02*
X93695000Y-71070000D01*
%TO.C,D1*%
X75505000Y-94920000D02*
X79745000Y-94920000D01*
X76105000Y-92680000D02*
X76105000Y-94920000D01*
X75505000Y-92680000D02*
X75505000Y-94920000D01*
X80395000Y-93800000D02*
X79745000Y-93800000D01*
X79745000Y-94920000D02*
X79745000Y-92680000D01*
X74855000Y-93800000D02*
X75505000Y-93800000D01*
X76345000Y-92680000D02*
X76345000Y-94920000D01*
X76225000Y-92680000D02*
X76225000Y-94920000D01*
X79745000Y-92680000D02*
X75505000Y-92680000D01*
%TO.C,RV8*%
X142184000Y-64520000D02*
X146120000Y-64520000D01*
X133880000Y-64520000D02*
X137817000Y-64520000D01*
X133880000Y-54479000D02*
X133880000Y-55800000D01*
X133880000Y-60371000D02*
X133880000Y-61130000D01*
X133880000Y-62870000D02*
X133880000Y-64520000D01*
X133880000Y-54479000D02*
X137817000Y-54479000D01*
X133880000Y-58250000D02*
X133880000Y-58630000D01*
X142184000Y-54479000D02*
X146120000Y-54479000D01*
X146120000Y-54479000D02*
X146120000Y-64520000D01*
D12*
%TO.C,J3*%
X68499600Y-92501140D02*
X67999220Y-92998980D01*
X68499600Y-89498860D02*
X68499600Y-92501140D01*
X68499600Y-82501160D02*
X68499600Y-85000520D01*
X66000240Y-85500900D02*
X66000240Y-89001020D01*
X67999220Y-96499100D02*
X66000240Y-96499100D01*
X50999000Y-99999220D02*
X50999000Y-99498840D01*
X68499600Y-97499860D02*
X68499600Y-96999480D01*
X67999220Y-89001020D02*
X66000240Y-89001020D01*
X68499600Y-99498840D02*
X68499600Y-97499860D01*
X50501160Y-101500360D02*
X50000780Y-101500360D01*
X50000780Y-80499640D02*
X50000780Y-82000780D01*
X68499600Y-96999480D02*
X67999220Y-96499100D01*
X49749320Y-80499640D02*
X49749320Y-99999220D01*
X67999220Y-99999220D02*
X68499600Y-99498840D01*
X49500400Y-80499640D02*
X50000780Y-80499640D01*
X50999000Y-82501160D02*
X50501160Y-82501160D01*
X49500400Y-99999220D02*
X49500400Y-80499640D01*
X50000780Y-101500360D02*
X50000780Y-99999220D01*
X67999220Y-99999220D02*
X50999000Y-99999220D01*
X67999220Y-85500900D02*
X66000240Y-85500900D01*
X67999220Y-82000780D02*
X68499600Y-82501160D01*
X67999220Y-92998980D02*
X66000240Y-92998980D01*
X50501160Y-82000780D02*
X50501160Y-101500360D01*
X68499600Y-85000520D02*
X67999220Y-85500900D01*
X66000240Y-96499100D02*
X66000240Y-92998980D01*
X50501160Y-99498840D02*
X50999000Y-99498840D01*
X68499600Y-89498860D02*
X67999220Y-89001020D01*
X50000780Y-82000780D02*
X50501160Y-82000780D01*
X50999000Y-82000780D02*
X50999000Y-82501160D01*
X50000780Y-99999220D02*
X49500400Y-99999220D01*
X50249700Y-82000780D02*
X50249700Y-101500360D01*
X50000780Y-99999220D02*
X50000780Y-82000780D01*
X67999220Y-82000780D02*
X50999000Y-82000780D01*
D14*
%TO.C,RV5*%
X133880000Y-111371000D02*
X133880000Y-112130000D01*
X142184000Y-115520000D02*
X146120000Y-115520000D01*
X133880000Y-105479000D02*
X133880000Y-106800000D01*
X146120000Y-105479000D02*
X146120000Y-115520000D01*
X133880000Y-109250000D02*
X133880000Y-109630000D01*
X133880000Y-115520000D02*
X137817000Y-115520000D01*
X133880000Y-113870000D02*
X133880000Y-115520000D01*
X133880000Y-105479000D02*
X137817000Y-105479000D01*
X142184000Y-105479000D02*
X146120000Y-105479000D01*
%TO.C,RV6*%
X142184000Y-98520000D02*
X146120000Y-98520000D01*
X133880000Y-96870000D02*
X133880000Y-98520000D01*
X133880000Y-88479000D02*
X133880000Y-89800000D01*
X146120000Y-88479000D02*
X146120000Y-98520000D01*
X133880000Y-98520000D02*
X137817000Y-98520000D01*
X133880000Y-94371000D02*
X133880000Y-95130000D01*
X133880000Y-88479000D02*
X137817000Y-88479000D01*
X133880000Y-92250000D02*
X133880000Y-92630000D01*
X142184000Y-88479000D02*
X146120000Y-88479000D01*
%TO.C,RV1*%
X123120000Y-54479000D02*
X123120000Y-64520000D01*
X110880000Y-54479000D02*
X114817000Y-54479000D01*
X110880000Y-60371000D02*
X110880000Y-61130000D01*
X110880000Y-58250000D02*
X110880000Y-58630000D01*
X110880000Y-64520000D02*
X114817000Y-64520000D01*
X110880000Y-62870000D02*
X110880000Y-64520000D01*
X119184000Y-54479000D02*
X123120000Y-54479000D01*
X119184000Y-64520000D02*
X123120000Y-64520000D01*
X110880000Y-54479000D02*
X110880000Y-55800000D01*
%TD*%
D16*
%TO.C,J4*%
X64499100Y-66003820D03*
X64499100Y-75996180D03*
X61997200Y-63501920D03*
X61999740Y-71000000D03*
X61997200Y-78498080D03*
X52002300Y-76001260D03*
X52002300Y-65998740D03*
%TD*%
%TO.C,J3*%
X52002300Y-96001260D03*
X52002300Y-85998740D03*
X61997200Y-98498080D03*
X61999740Y-91000000D03*
X61997200Y-83501920D03*
X64499100Y-95996180D03*
X64499100Y-86003820D03*
%TD*%
M02*
