%TF.GenerationSoftware,KiCad,Pcbnew,9.0.7*%
%TF.CreationDate,2026-07-18T15:47:34+01:00*%
%TF.ProjectId,PicoVGABreakout,5069636f-5647-4414-9272-65616b6f7574,rev?*%
%TF.SameCoordinates,Original*%
%TF.FileFunction,Legend,Top*%
%TF.FilePolarity,Positive*%
%FSLAX46Y46*%
G04 Gerber Fmt 4.6, Leading zero omitted, Abs format (unit mm)*
G04 Created by KiCad (PCBNEW 9.0.7) date 2026-07-18 15:47:34*
%MOMM*%
%LPD*%
G01*
G04 APERTURE LIST*
%ADD10C,0.100000*%
%ADD11C,0.150000*%
%ADD12C,0.120000*%
G04 APERTURE END LIST*
D10*
X50300000Y-38300000D02*
X80000000Y-38300000D01*
X80000000Y-57100000D01*
X50300000Y-57100000D01*
X50300000Y-38300000D01*
X50300000Y-88800000D02*
X69000000Y-88800000D01*
X69000000Y-104200000D01*
X50300000Y-104200000D01*
X50300000Y-88800000D01*
X50300000Y-73400000D02*
X69000000Y-73400000D01*
X69000000Y-88800000D01*
X50300000Y-88800000D01*
X50300000Y-73400000D01*
X50300000Y-57900000D02*
X69000000Y-57900000D01*
X69000000Y-73400000D01*
X50300000Y-73400000D01*
X50300000Y-57900000D01*
X55127693Y-113005038D02*
X55032455Y-112957419D01*
X55032455Y-112957419D02*
X54889598Y-112957419D01*
X54889598Y-112957419D02*
X54746741Y-113005038D01*
X54746741Y-113005038D02*
X54651503Y-113100276D01*
X54651503Y-113100276D02*
X54603884Y-113195514D01*
X54603884Y-113195514D02*
X54556265Y-113385990D01*
X54556265Y-113385990D02*
X54556265Y-113528847D01*
X54556265Y-113528847D02*
X54603884Y-113719323D01*
X54603884Y-113719323D02*
X54651503Y-113814561D01*
X54651503Y-113814561D02*
X54746741Y-113909800D01*
X54746741Y-113909800D02*
X54889598Y-113957419D01*
X54889598Y-113957419D02*
X54984836Y-113957419D01*
X54984836Y-113957419D02*
X55127693Y-113909800D01*
X55127693Y-113909800D02*
X55175312Y-113862180D01*
X55175312Y-113862180D02*
X55175312Y-113528847D01*
X55175312Y-113528847D02*
X54984836Y-113528847D01*
X55603884Y-113957419D02*
X55603884Y-112957419D01*
X55603884Y-112957419D02*
X56175312Y-113957419D01*
X56175312Y-113957419D02*
X56175312Y-112957419D01*
X56651503Y-113957419D02*
X56651503Y-112957419D01*
X56651503Y-112957419D02*
X56889598Y-112957419D01*
X56889598Y-112957419D02*
X57032455Y-113005038D01*
X57032455Y-113005038D02*
X57127693Y-113100276D01*
X57127693Y-113100276D02*
X57175312Y-113195514D01*
X57175312Y-113195514D02*
X57222931Y-113385990D01*
X57222931Y-113385990D02*
X57222931Y-113528847D01*
X57222931Y-113528847D02*
X57175312Y-113719323D01*
X57175312Y-113719323D02*
X57127693Y-113814561D01*
X57127693Y-113814561D02*
X57032455Y-113909800D01*
X57032455Y-113909800D02*
X56889598Y-113957419D01*
X56889598Y-113957419D02*
X56651503Y-113957419D01*
X83151219Y-53499495D02*
X84151219Y-53166162D01*
X84151219Y-53166162D02*
X83151219Y-52832829D01*
X83198838Y-51975686D02*
X83151219Y-52070924D01*
X83151219Y-52070924D02*
X83151219Y-52213781D01*
X83151219Y-52213781D02*
X83198838Y-52356638D01*
X83198838Y-52356638D02*
X83294076Y-52451876D01*
X83294076Y-52451876D02*
X83389314Y-52499495D01*
X83389314Y-52499495D02*
X83579790Y-52547114D01*
X83579790Y-52547114D02*
X83722647Y-52547114D01*
X83722647Y-52547114D02*
X83913123Y-52499495D01*
X83913123Y-52499495D02*
X84008361Y-52451876D01*
X84008361Y-52451876D02*
X84103600Y-52356638D01*
X84103600Y-52356638D02*
X84151219Y-52213781D01*
X84151219Y-52213781D02*
X84151219Y-52118543D01*
X84151219Y-52118543D02*
X84103600Y-51975686D01*
X84103600Y-51975686D02*
X84055980Y-51928067D01*
X84055980Y-51928067D02*
X83722647Y-51928067D01*
X83722647Y-51928067D02*
X83722647Y-52118543D01*
X83865504Y-51547114D02*
X83865504Y-51070924D01*
X84151219Y-51642352D02*
X83151219Y-51309019D01*
X83151219Y-51309019D02*
X84151219Y-50975686D01*
X84151219Y-49880447D02*
X83151219Y-49880447D01*
X83151219Y-49880447D02*
X83151219Y-49642352D01*
X83151219Y-49642352D02*
X83198838Y-49499495D01*
X83198838Y-49499495D02*
X83294076Y-49404257D01*
X83294076Y-49404257D02*
X83389314Y-49356638D01*
X83389314Y-49356638D02*
X83579790Y-49309019D01*
X83579790Y-49309019D02*
X83722647Y-49309019D01*
X83722647Y-49309019D02*
X83913123Y-49356638D01*
X83913123Y-49356638D02*
X84008361Y-49404257D01*
X84008361Y-49404257D02*
X84103600Y-49499495D01*
X84103600Y-49499495D02*
X84151219Y-49642352D01*
X84151219Y-49642352D02*
X84151219Y-49880447D01*
X83865504Y-48928066D02*
X83865504Y-48451876D01*
X84151219Y-49023304D02*
X83151219Y-48689971D01*
X83151219Y-48689971D02*
X84151219Y-48356638D01*
X84055980Y-47451876D02*
X84103600Y-47499495D01*
X84103600Y-47499495D02*
X84151219Y-47642352D01*
X84151219Y-47642352D02*
X84151219Y-47737590D01*
X84151219Y-47737590D02*
X84103600Y-47880447D01*
X84103600Y-47880447D02*
X84008361Y-47975685D01*
X84008361Y-47975685D02*
X83913123Y-48023304D01*
X83913123Y-48023304D02*
X83722647Y-48070923D01*
X83722647Y-48070923D02*
X83579790Y-48070923D01*
X83579790Y-48070923D02*
X83389314Y-48023304D01*
X83389314Y-48023304D02*
X83294076Y-47975685D01*
X83294076Y-47975685D02*
X83198838Y-47880447D01*
X83198838Y-47880447D02*
X83151219Y-47737590D01*
X83151219Y-47737590D02*
X83151219Y-47642352D01*
X83151219Y-47642352D02*
X83198838Y-47499495D01*
X83198838Y-47499495D02*
X83246457Y-47451876D01*
X83627409Y-45928066D02*
X83675028Y-45785209D01*
X83675028Y-45785209D02*
X83722647Y-45737590D01*
X83722647Y-45737590D02*
X83817885Y-45689971D01*
X83817885Y-45689971D02*
X83960742Y-45689971D01*
X83960742Y-45689971D02*
X84055980Y-45737590D01*
X84055980Y-45737590D02*
X84103600Y-45785209D01*
X84103600Y-45785209D02*
X84151219Y-45880447D01*
X84151219Y-45880447D02*
X84151219Y-46261399D01*
X84151219Y-46261399D02*
X83151219Y-46261399D01*
X83151219Y-46261399D02*
X83151219Y-45928066D01*
X83151219Y-45928066D02*
X83198838Y-45832828D01*
X83198838Y-45832828D02*
X83246457Y-45785209D01*
X83246457Y-45785209D02*
X83341695Y-45737590D01*
X83341695Y-45737590D02*
X83436933Y-45737590D01*
X83436933Y-45737590D02*
X83532171Y-45785209D01*
X83532171Y-45785209D02*
X83579790Y-45832828D01*
X83579790Y-45832828D02*
X83627409Y-45928066D01*
X83627409Y-45928066D02*
X83627409Y-46261399D01*
X84151219Y-45261399D02*
X83484552Y-45261399D01*
X83675028Y-45261399D02*
X83579790Y-45213780D01*
X83579790Y-45213780D02*
X83532171Y-45166161D01*
X83532171Y-45166161D02*
X83484552Y-45070923D01*
X83484552Y-45070923D02*
X83484552Y-44975685D01*
X84103600Y-44261399D02*
X84151219Y-44356637D01*
X84151219Y-44356637D02*
X84151219Y-44547113D01*
X84151219Y-44547113D02*
X84103600Y-44642351D01*
X84103600Y-44642351D02*
X84008361Y-44689970D01*
X84008361Y-44689970D02*
X83627409Y-44689970D01*
X83627409Y-44689970D02*
X83532171Y-44642351D01*
X83532171Y-44642351D02*
X83484552Y-44547113D01*
X83484552Y-44547113D02*
X83484552Y-44356637D01*
X83484552Y-44356637D02*
X83532171Y-44261399D01*
X83532171Y-44261399D02*
X83627409Y-44213780D01*
X83627409Y-44213780D02*
X83722647Y-44213780D01*
X83722647Y-44213780D02*
X83817885Y-44689970D01*
X84151219Y-43356637D02*
X83627409Y-43356637D01*
X83627409Y-43356637D02*
X83532171Y-43404256D01*
X83532171Y-43404256D02*
X83484552Y-43499494D01*
X83484552Y-43499494D02*
X83484552Y-43689970D01*
X83484552Y-43689970D02*
X83532171Y-43785208D01*
X84103600Y-43356637D02*
X84151219Y-43451875D01*
X84151219Y-43451875D02*
X84151219Y-43689970D01*
X84151219Y-43689970D02*
X84103600Y-43785208D01*
X84103600Y-43785208D02*
X84008361Y-43832827D01*
X84008361Y-43832827D02*
X83913123Y-43832827D01*
X83913123Y-43832827D02*
X83817885Y-43785208D01*
X83817885Y-43785208D02*
X83770266Y-43689970D01*
X83770266Y-43689970D02*
X83770266Y-43451875D01*
X83770266Y-43451875D02*
X83722647Y-43356637D01*
X84151219Y-42880446D02*
X83151219Y-42880446D01*
X83770266Y-42785208D02*
X84151219Y-42499494D01*
X83484552Y-42499494D02*
X83865504Y-42880446D01*
X84151219Y-41928065D02*
X84103600Y-42023303D01*
X84103600Y-42023303D02*
X84055980Y-42070922D01*
X84055980Y-42070922D02*
X83960742Y-42118541D01*
X83960742Y-42118541D02*
X83675028Y-42118541D01*
X83675028Y-42118541D02*
X83579790Y-42070922D01*
X83579790Y-42070922D02*
X83532171Y-42023303D01*
X83532171Y-42023303D02*
X83484552Y-41928065D01*
X83484552Y-41928065D02*
X83484552Y-41785208D01*
X83484552Y-41785208D02*
X83532171Y-41689970D01*
X83532171Y-41689970D02*
X83579790Y-41642351D01*
X83579790Y-41642351D02*
X83675028Y-41594732D01*
X83675028Y-41594732D02*
X83960742Y-41594732D01*
X83960742Y-41594732D02*
X84055980Y-41642351D01*
X84055980Y-41642351D02*
X84103600Y-41689970D01*
X84103600Y-41689970D02*
X84151219Y-41785208D01*
X84151219Y-41785208D02*
X84151219Y-41928065D01*
X83484552Y-40737589D02*
X84151219Y-40737589D01*
X83484552Y-41166160D02*
X84008361Y-41166160D01*
X84008361Y-41166160D02*
X84103600Y-41118541D01*
X84103600Y-41118541D02*
X84151219Y-41023303D01*
X84151219Y-41023303D02*
X84151219Y-40880446D01*
X84151219Y-40880446D02*
X84103600Y-40785208D01*
X84103600Y-40785208D02*
X84055980Y-40737589D01*
X83484552Y-40404255D02*
X83484552Y-40023303D01*
X83151219Y-40261398D02*
X84008361Y-40261398D01*
X84008361Y-40261398D02*
X84103600Y-40213779D01*
X84103600Y-40213779D02*
X84151219Y-40118541D01*
X84151219Y-40118541D02*
X84151219Y-40023303D01*
X85761163Y-51951876D02*
X84761163Y-51951876D01*
X85713544Y-51951876D02*
X85761163Y-52047114D01*
X85761163Y-52047114D02*
X85761163Y-52237590D01*
X85761163Y-52237590D02*
X85713544Y-52332828D01*
X85713544Y-52332828D02*
X85665924Y-52380447D01*
X85665924Y-52380447D02*
X85570686Y-52428066D01*
X85570686Y-52428066D02*
X85284972Y-52428066D01*
X85284972Y-52428066D02*
X85189734Y-52380447D01*
X85189734Y-52380447D02*
X85142115Y-52332828D01*
X85142115Y-52332828D02*
X85094496Y-52237590D01*
X85094496Y-52237590D02*
X85094496Y-52047114D01*
X85094496Y-52047114D02*
X85142115Y-51951876D01*
X85761163Y-51475685D02*
X85094496Y-51475685D01*
X84761163Y-51475685D02*
X84808782Y-51523304D01*
X84808782Y-51523304D02*
X84856401Y-51475685D01*
X84856401Y-51475685D02*
X84808782Y-51428066D01*
X84808782Y-51428066D02*
X84761163Y-51475685D01*
X84761163Y-51475685D02*
X84856401Y-51475685D01*
X85094496Y-51094733D02*
X85761163Y-50856638D01*
X85094496Y-50618543D02*
X85761163Y-50856638D01*
X85761163Y-50856638D02*
X85999258Y-50951876D01*
X85999258Y-50951876D02*
X86046877Y-50999495D01*
X86046877Y-50999495D02*
X86094496Y-51094733D01*
X85713544Y-49856638D02*
X85761163Y-49951876D01*
X85761163Y-49951876D02*
X85761163Y-50142352D01*
X85761163Y-50142352D02*
X85713544Y-50237590D01*
X85713544Y-50237590D02*
X85618305Y-50285209D01*
X85618305Y-50285209D02*
X85237353Y-50285209D01*
X85237353Y-50285209D02*
X85142115Y-50237590D01*
X85142115Y-50237590D02*
X85094496Y-50142352D01*
X85094496Y-50142352D02*
X85094496Y-49951876D01*
X85094496Y-49951876D02*
X85142115Y-49856638D01*
X85142115Y-49856638D02*
X85237353Y-49809019D01*
X85237353Y-49809019D02*
X85332591Y-49809019D01*
X85332591Y-49809019D02*
X85427829Y-50285209D01*
X85761163Y-49237590D02*
X85713544Y-49332828D01*
X85713544Y-49332828D02*
X85618305Y-49380447D01*
X85618305Y-49380447D02*
X84761163Y-49380447D01*
X85713544Y-48475685D02*
X85761163Y-48570923D01*
X85761163Y-48570923D02*
X85761163Y-48761399D01*
X85761163Y-48761399D02*
X85713544Y-48856637D01*
X85713544Y-48856637D02*
X85618305Y-48904256D01*
X85618305Y-48904256D02*
X85237353Y-48904256D01*
X85237353Y-48904256D02*
X85142115Y-48856637D01*
X85142115Y-48856637D02*
X85094496Y-48761399D01*
X85094496Y-48761399D02*
X85094496Y-48570923D01*
X85094496Y-48570923D02*
X85142115Y-48475685D01*
X85142115Y-48475685D02*
X85237353Y-48428066D01*
X85237353Y-48428066D02*
X85332591Y-48428066D01*
X85332591Y-48428066D02*
X85427829Y-48904256D01*
X85713544Y-47570923D02*
X85761163Y-47666161D01*
X85761163Y-47666161D02*
X85761163Y-47856637D01*
X85761163Y-47856637D02*
X85713544Y-47951875D01*
X85713544Y-47951875D02*
X85665924Y-47999494D01*
X85665924Y-47999494D02*
X85570686Y-48047113D01*
X85570686Y-48047113D02*
X85284972Y-48047113D01*
X85284972Y-48047113D02*
X85189734Y-47999494D01*
X85189734Y-47999494D02*
X85142115Y-47951875D01*
X85142115Y-47951875D02*
X85094496Y-47856637D01*
X85094496Y-47856637D02*
X85094496Y-47666161D01*
X85094496Y-47666161D02*
X85142115Y-47570923D01*
X85094496Y-47285208D02*
X85094496Y-46904256D01*
X84761163Y-47142351D02*
X85618305Y-47142351D01*
X85618305Y-47142351D02*
X85713544Y-47094732D01*
X85713544Y-47094732D02*
X85761163Y-46999494D01*
X85761163Y-46999494D02*
X85761163Y-46904256D01*
X85761163Y-46570922D02*
X85094496Y-46570922D01*
X85284972Y-46570922D02*
X85189734Y-46523303D01*
X85189734Y-46523303D02*
X85142115Y-46475684D01*
X85142115Y-46475684D02*
X85094496Y-46380446D01*
X85094496Y-46380446D02*
X85094496Y-46285208D01*
X85761163Y-45809017D02*
X85713544Y-45904255D01*
X85713544Y-45904255D02*
X85665924Y-45951874D01*
X85665924Y-45951874D02*
X85570686Y-45999493D01*
X85570686Y-45999493D02*
X85284972Y-45999493D01*
X85284972Y-45999493D02*
X85189734Y-45951874D01*
X85189734Y-45951874D02*
X85142115Y-45904255D01*
X85142115Y-45904255D02*
X85094496Y-45809017D01*
X85094496Y-45809017D02*
X85094496Y-45666160D01*
X85094496Y-45666160D02*
X85142115Y-45570922D01*
X85142115Y-45570922D02*
X85189734Y-45523303D01*
X85189734Y-45523303D02*
X85284972Y-45475684D01*
X85284972Y-45475684D02*
X85570686Y-45475684D01*
X85570686Y-45475684D02*
X85665924Y-45523303D01*
X85665924Y-45523303D02*
X85713544Y-45570922D01*
X85713544Y-45570922D02*
X85761163Y-45666160D01*
X85761163Y-45666160D02*
X85761163Y-45809017D01*
X85761163Y-45047112D02*
X85094496Y-45047112D01*
X85189734Y-45047112D02*
X85142115Y-44999493D01*
X85142115Y-44999493D02*
X85094496Y-44904255D01*
X85094496Y-44904255D02*
X85094496Y-44761398D01*
X85094496Y-44761398D02*
X85142115Y-44666160D01*
X85142115Y-44666160D02*
X85237353Y-44618541D01*
X85237353Y-44618541D02*
X85761163Y-44618541D01*
X85237353Y-44618541D02*
X85142115Y-44570922D01*
X85142115Y-44570922D02*
X85094496Y-44475684D01*
X85094496Y-44475684D02*
X85094496Y-44332827D01*
X85094496Y-44332827D02*
X85142115Y-44237588D01*
X85142115Y-44237588D02*
X85237353Y-44189969D01*
X85237353Y-44189969D02*
X85761163Y-44189969D01*
X85094496Y-43285208D02*
X85761163Y-43285208D01*
X85094496Y-43713779D02*
X85618305Y-43713779D01*
X85618305Y-43713779D02*
X85713544Y-43666160D01*
X85713544Y-43666160D02*
X85761163Y-43570922D01*
X85761163Y-43570922D02*
X85761163Y-43428065D01*
X85761163Y-43428065D02*
X85713544Y-43332827D01*
X85713544Y-43332827D02*
X85665924Y-43285208D01*
X85713544Y-42856636D02*
X85761163Y-42761398D01*
X85761163Y-42761398D02*
X85761163Y-42570922D01*
X85761163Y-42570922D02*
X85713544Y-42475684D01*
X85713544Y-42475684D02*
X85618305Y-42428065D01*
X85618305Y-42428065D02*
X85570686Y-42428065D01*
X85570686Y-42428065D02*
X85475448Y-42475684D01*
X85475448Y-42475684D02*
X85427829Y-42570922D01*
X85427829Y-42570922D02*
X85427829Y-42713779D01*
X85427829Y-42713779D02*
X85380210Y-42809017D01*
X85380210Y-42809017D02*
X85284972Y-42856636D01*
X85284972Y-42856636D02*
X85237353Y-42856636D01*
X85237353Y-42856636D02*
X85142115Y-42809017D01*
X85142115Y-42809017D02*
X85094496Y-42713779D01*
X85094496Y-42713779D02*
X85094496Y-42570922D01*
X85094496Y-42570922D02*
X85142115Y-42475684D01*
X85761163Y-41999493D02*
X85094496Y-41999493D01*
X84761163Y-41999493D02*
X84808782Y-42047112D01*
X84808782Y-42047112D02*
X84856401Y-41999493D01*
X84856401Y-41999493D02*
X84808782Y-41951874D01*
X84808782Y-41951874D02*
X84761163Y-41999493D01*
X84761163Y-41999493D02*
X84856401Y-41999493D01*
X85713544Y-41094732D02*
X85761163Y-41189970D01*
X85761163Y-41189970D02*
X85761163Y-41380446D01*
X85761163Y-41380446D02*
X85713544Y-41475684D01*
X85713544Y-41475684D02*
X85665924Y-41523303D01*
X85665924Y-41523303D02*
X85570686Y-41570922D01*
X85570686Y-41570922D02*
X85284972Y-41570922D01*
X85284972Y-41570922D02*
X85189734Y-41523303D01*
X85189734Y-41523303D02*
X85142115Y-41475684D01*
X85142115Y-41475684D02*
X85094496Y-41380446D01*
X85094496Y-41380446D02*
X85094496Y-41189970D01*
X85094496Y-41189970D02*
X85142115Y-41094732D01*
X86704440Y-50475685D02*
X87371107Y-50237590D01*
X87371107Y-50237590D02*
X86704440Y-49999495D01*
X86371107Y-49428066D02*
X86371107Y-49332828D01*
X86371107Y-49332828D02*
X86418726Y-49237590D01*
X86418726Y-49237590D02*
X86466345Y-49189971D01*
X86466345Y-49189971D02*
X86561583Y-49142352D01*
X86561583Y-49142352D02*
X86752059Y-49094733D01*
X86752059Y-49094733D02*
X86990154Y-49094733D01*
X86990154Y-49094733D02*
X87180630Y-49142352D01*
X87180630Y-49142352D02*
X87275868Y-49189971D01*
X87275868Y-49189971D02*
X87323488Y-49237590D01*
X87323488Y-49237590D02*
X87371107Y-49332828D01*
X87371107Y-49332828D02*
X87371107Y-49428066D01*
X87371107Y-49428066D02*
X87323488Y-49523304D01*
X87323488Y-49523304D02*
X87275868Y-49570923D01*
X87275868Y-49570923D02*
X87180630Y-49618542D01*
X87180630Y-49618542D02*
X86990154Y-49666161D01*
X86990154Y-49666161D02*
X86752059Y-49666161D01*
X86752059Y-49666161D02*
X86561583Y-49618542D01*
X86561583Y-49618542D02*
X86466345Y-49570923D01*
X86466345Y-49570923D02*
X86418726Y-49523304D01*
X86418726Y-49523304D02*
X86371107Y-49428066D01*
X87275868Y-48666161D02*
X87323488Y-48618542D01*
X87323488Y-48618542D02*
X87371107Y-48666161D01*
X87371107Y-48666161D02*
X87323488Y-48713780D01*
X87323488Y-48713780D02*
X87275868Y-48666161D01*
X87275868Y-48666161D02*
X87371107Y-48666161D01*
X87371107Y-47666162D02*
X87371107Y-48237590D01*
X87371107Y-47951876D02*
X86371107Y-47951876D01*
X86371107Y-47951876D02*
X86513964Y-48047114D01*
X86513964Y-48047114D02*
X86609202Y-48142352D01*
X86609202Y-48142352D02*
X86656821Y-48237590D01*
X86466345Y-46523304D02*
X86418726Y-46475685D01*
X86418726Y-46475685D02*
X86371107Y-46380447D01*
X86371107Y-46380447D02*
X86371107Y-46142352D01*
X86371107Y-46142352D02*
X86418726Y-46047114D01*
X86418726Y-46047114D02*
X86466345Y-45999495D01*
X86466345Y-45999495D02*
X86561583Y-45951876D01*
X86561583Y-45951876D02*
X86656821Y-45951876D01*
X86656821Y-45951876D02*
X86799678Y-45999495D01*
X86799678Y-45999495D02*
X87371107Y-46570923D01*
X87371107Y-46570923D02*
X87371107Y-45951876D01*
X86371107Y-45332828D02*
X86371107Y-45237590D01*
X86371107Y-45237590D02*
X86418726Y-45142352D01*
X86418726Y-45142352D02*
X86466345Y-45094733D01*
X86466345Y-45094733D02*
X86561583Y-45047114D01*
X86561583Y-45047114D02*
X86752059Y-44999495D01*
X86752059Y-44999495D02*
X86990154Y-44999495D01*
X86990154Y-44999495D02*
X87180630Y-45047114D01*
X87180630Y-45047114D02*
X87275868Y-45094733D01*
X87275868Y-45094733D02*
X87323488Y-45142352D01*
X87323488Y-45142352D02*
X87371107Y-45237590D01*
X87371107Y-45237590D02*
X87371107Y-45332828D01*
X87371107Y-45332828D02*
X87323488Y-45428066D01*
X87323488Y-45428066D02*
X87275868Y-45475685D01*
X87275868Y-45475685D02*
X87180630Y-45523304D01*
X87180630Y-45523304D02*
X86990154Y-45570923D01*
X86990154Y-45570923D02*
X86752059Y-45570923D01*
X86752059Y-45570923D02*
X86561583Y-45523304D01*
X86561583Y-45523304D02*
X86466345Y-45475685D01*
X86466345Y-45475685D02*
X86418726Y-45428066D01*
X86418726Y-45428066D02*
X86371107Y-45332828D01*
X86466345Y-44618542D02*
X86418726Y-44570923D01*
X86418726Y-44570923D02*
X86371107Y-44475685D01*
X86371107Y-44475685D02*
X86371107Y-44237590D01*
X86371107Y-44237590D02*
X86418726Y-44142352D01*
X86418726Y-44142352D02*
X86466345Y-44094733D01*
X86466345Y-44094733D02*
X86561583Y-44047114D01*
X86561583Y-44047114D02*
X86656821Y-44047114D01*
X86656821Y-44047114D02*
X86799678Y-44094733D01*
X86799678Y-44094733D02*
X87371107Y-44666161D01*
X87371107Y-44666161D02*
X87371107Y-44047114D01*
X86371107Y-43189971D02*
X86371107Y-43380447D01*
X86371107Y-43380447D02*
X86418726Y-43475685D01*
X86418726Y-43475685D02*
X86466345Y-43523304D01*
X86466345Y-43523304D02*
X86609202Y-43618542D01*
X86609202Y-43618542D02*
X86799678Y-43666161D01*
X86799678Y-43666161D02*
X87180630Y-43666161D01*
X87180630Y-43666161D02*
X87275868Y-43618542D01*
X87275868Y-43618542D02*
X87323488Y-43570923D01*
X87323488Y-43570923D02*
X87371107Y-43475685D01*
X87371107Y-43475685D02*
X87371107Y-43285209D01*
X87371107Y-43285209D02*
X87323488Y-43189971D01*
X87323488Y-43189971D02*
X87275868Y-43142352D01*
X87275868Y-43142352D02*
X87180630Y-43094733D01*
X87180630Y-43094733D02*
X86942535Y-43094733D01*
X86942535Y-43094733D02*
X86847297Y-43142352D01*
X86847297Y-43142352D02*
X86799678Y-43189971D01*
X86799678Y-43189971D02*
X86752059Y-43285209D01*
X86752059Y-43285209D02*
X86752059Y-43475685D01*
X86752059Y-43475685D02*
X86799678Y-43570923D01*
X86799678Y-43570923D02*
X86847297Y-43618542D01*
X86847297Y-43618542D02*
X86942535Y-43666161D01*
X56283609Y-52627142D02*
X56331228Y-52484285D01*
X56331228Y-52484285D02*
X56378847Y-52436666D01*
X56378847Y-52436666D02*
X56474085Y-52389047D01*
X56474085Y-52389047D02*
X56616942Y-52389047D01*
X56616942Y-52389047D02*
X56712180Y-52436666D01*
X56712180Y-52436666D02*
X56759800Y-52484285D01*
X56759800Y-52484285D02*
X56807419Y-52579523D01*
X56807419Y-52579523D02*
X56807419Y-52960475D01*
X56807419Y-52960475D02*
X55807419Y-52960475D01*
X55807419Y-52960475D02*
X55807419Y-52627142D01*
X55807419Y-52627142D02*
X55855038Y-52531904D01*
X55855038Y-52531904D02*
X55902657Y-52484285D01*
X55902657Y-52484285D02*
X55997895Y-52436666D01*
X55997895Y-52436666D02*
X56093133Y-52436666D01*
X56093133Y-52436666D02*
X56188371Y-52484285D01*
X56188371Y-52484285D02*
X56235990Y-52531904D01*
X56235990Y-52531904D02*
X56283609Y-52627142D01*
X56283609Y-52627142D02*
X56283609Y-52960475D01*
X55855038Y-51436666D02*
X55807419Y-51531904D01*
X55807419Y-51531904D02*
X55807419Y-51674761D01*
X55807419Y-51674761D02*
X55855038Y-51817618D01*
X55855038Y-51817618D02*
X55950276Y-51912856D01*
X55950276Y-51912856D02*
X56045514Y-51960475D01*
X56045514Y-51960475D02*
X56235990Y-52008094D01*
X56235990Y-52008094D02*
X56378847Y-52008094D01*
X56378847Y-52008094D02*
X56569323Y-51960475D01*
X56569323Y-51960475D02*
X56664561Y-51912856D01*
X56664561Y-51912856D02*
X56759800Y-51817618D01*
X56759800Y-51817618D02*
X56807419Y-51674761D01*
X56807419Y-51674761D02*
X56807419Y-51579523D01*
X56807419Y-51579523D02*
X56759800Y-51436666D01*
X56759800Y-51436666D02*
X56712180Y-51389047D01*
X56712180Y-51389047D02*
X56378847Y-51389047D01*
X56378847Y-51389047D02*
X56378847Y-51579523D01*
X56807419Y-50389047D02*
X56331228Y-50722380D01*
X56807419Y-50960475D02*
X55807419Y-50960475D01*
X55807419Y-50960475D02*
X55807419Y-50579523D01*
X55807419Y-50579523D02*
X55855038Y-50484285D01*
X55855038Y-50484285D02*
X55902657Y-50436666D01*
X55902657Y-50436666D02*
X55997895Y-50389047D01*
X55997895Y-50389047D02*
X56140752Y-50389047D01*
X56140752Y-50389047D02*
X56235990Y-50436666D01*
X56235990Y-50436666D02*
X56283609Y-50484285D01*
X56283609Y-50484285D02*
X56331228Y-50579523D01*
X56331228Y-50579523D02*
X56331228Y-50960475D01*
X56331228Y-49769999D02*
X56807419Y-49769999D01*
X55807419Y-50103332D02*
X56331228Y-49769999D01*
X56331228Y-49769999D02*
X55807419Y-49436666D01*
X70511074Y-99861028D02*
X70811074Y-99861028D01*
X70939646Y-100332457D02*
X70511074Y-100332457D01*
X70511074Y-100332457D02*
X70511074Y-99432457D01*
X70511074Y-99432457D02*
X70939646Y-99432457D01*
X71239646Y-100332457D02*
X71711075Y-99732457D01*
X71239646Y-99732457D02*
X71711075Y-100332457D01*
X72439646Y-100332457D02*
X72439646Y-99861028D01*
X72439646Y-99861028D02*
X72396788Y-99775314D01*
X72396788Y-99775314D02*
X72311074Y-99732457D01*
X72311074Y-99732457D02*
X72139646Y-99732457D01*
X72139646Y-99732457D02*
X72053931Y-99775314D01*
X72439646Y-100289600D02*
X72353931Y-100332457D01*
X72353931Y-100332457D02*
X72139646Y-100332457D01*
X72139646Y-100332457D02*
X72053931Y-100289600D01*
X72053931Y-100289600D02*
X72011074Y-100203885D01*
X72011074Y-100203885D02*
X72011074Y-100118171D01*
X72011074Y-100118171D02*
X72053931Y-100032457D01*
X72053931Y-100032457D02*
X72139646Y-99989600D01*
X72139646Y-99989600D02*
X72353931Y-99989600D01*
X72353931Y-99989600D02*
X72439646Y-99946742D01*
X72868217Y-100332457D02*
X72868217Y-99732457D01*
X72868217Y-99818171D02*
X72911074Y-99775314D01*
X72911074Y-99775314D02*
X72996789Y-99732457D01*
X72996789Y-99732457D02*
X73125360Y-99732457D01*
X73125360Y-99732457D02*
X73211074Y-99775314D01*
X73211074Y-99775314D02*
X73253932Y-99861028D01*
X73253932Y-99861028D02*
X73253932Y-100332457D01*
X73253932Y-99861028D02*
X73296789Y-99775314D01*
X73296789Y-99775314D02*
X73382503Y-99732457D01*
X73382503Y-99732457D02*
X73511074Y-99732457D01*
X73511074Y-99732457D02*
X73596789Y-99775314D01*
X73596789Y-99775314D02*
X73639646Y-99861028D01*
X73639646Y-99861028D02*
X73639646Y-100332457D01*
X74068217Y-99732457D02*
X74068217Y-100632457D01*
X74068217Y-99775314D02*
X74153932Y-99732457D01*
X74153932Y-99732457D02*
X74325360Y-99732457D01*
X74325360Y-99732457D02*
X74411074Y-99775314D01*
X74411074Y-99775314D02*
X74453932Y-99818171D01*
X74453932Y-99818171D02*
X74496789Y-99903885D01*
X74496789Y-99903885D02*
X74496789Y-100161028D01*
X74496789Y-100161028D02*
X74453932Y-100246742D01*
X74453932Y-100246742D02*
X74411074Y-100289600D01*
X74411074Y-100289600D02*
X74325360Y-100332457D01*
X74325360Y-100332457D02*
X74153932Y-100332457D01*
X74153932Y-100332457D02*
X74068217Y-100289600D01*
X75011075Y-100332457D02*
X74925360Y-100289600D01*
X74925360Y-100289600D02*
X74882503Y-100203885D01*
X74882503Y-100203885D02*
X74882503Y-99432457D01*
X75696789Y-100289600D02*
X75611075Y-100332457D01*
X75611075Y-100332457D02*
X75439647Y-100332457D01*
X75439647Y-100332457D02*
X75353932Y-100289600D01*
X75353932Y-100289600D02*
X75311075Y-100203885D01*
X75311075Y-100203885D02*
X75311075Y-99861028D01*
X75311075Y-99861028D02*
X75353932Y-99775314D01*
X75353932Y-99775314D02*
X75439647Y-99732457D01*
X75439647Y-99732457D02*
X75611075Y-99732457D01*
X75611075Y-99732457D02*
X75696789Y-99775314D01*
X75696789Y-99775314D02*
X75739647Y-99861028D01*
X75739647Y-99861028D02*
X75739647Y-99946742D01*
X75739647Y-99946742D02*
X75311075Y-100032457D01*
X77325361Y-100332457D02*
X77025361Y-99903885D01*
X76811075Y-100332457D02*
X76811075Y-99432457D01*
X76811075Y-99432457D02*
X77153932Y-99432457D01*
X77153932Y-99432457D02*
X77239647Y-99475314D01*
X77239647Y-99475314D02*
X77282504Y-99518171D01*
X77282504Y-99518171D02*
X77325361Y-99603885D01*
X77325361Y-99603885D02*
X77325361Y-99732457D01*
X77325361Y-99732457D02*
X77282504Y-99818171D01*
X77282504Y-99818171D02*
X77239647Y-99861028D01*
X77239647Y-99861028D02*
X77153932Y-99903885D01*
X77153932Y-99903885D02*
X76811075Y-99903885D01*
X78268218Y-99732457D02*
X78611075Y-99732457D01*
X78396789Y-100332457D02*
X78396789Y-99561028D01*
X78396789Y-99561028D02*
X78439646Y-99475314D01*
X78439646Y-99475314D02*
X78525361Y-99432457D01*
X78525361Y-99432457D02*
X78611075Y-99432457D01*
X79039647Y-100332457D02*
X78953932Y-100289600D01*
X78953932Y-100289600D02*
X78911075Y-100246742D01*
X78911075Y-100246742D02*
X78868218Y-100161028D01*
X78868218Y-100161028D02*
X78868218Y-99903885D01*
X78868218Y-99903885D02*
X78911075Y-99818171D01*
X78911075Y-99818171D02*
X78953932Y-99775314D01*
X78953932Y-99775314D02*
X79039647Y-99732457D01*
X79039647Y-99732457D02*
X79168218Y-99732457D01*
X79168218Y-99732457D02*
X79253932Y-99775314D01*
X79253932Y-99775314D02*
X79296790Y-99818171D01*
X79296790Y-99818171D02*
X79339647Y-99903885D01*
X79339647Y-99903885D02*
X79339647Y-100161028D01*
X79339647Y-100161028D02*
X79296790Y-100246742D01*
X79296790Y-100246742D02*
X79253932Y-100289600D01*
X79253932Y-100289600D02*
X79168218Y-100332457D01*
X79168218Y-100332457D02*
X79039647Y-100332457D01*
X79725361Y-100332457D02*
X79725361Y-99732457D01*
X79725361Y-99903885D02*
X79768218Y-99818171D01*
X79768218Y-99818171D02*
X79811076Y-99775314D01*
X79811076Y-99775314D02*
X79896790Y-99732457D01*
X79896790Y-99732457D02*
X79982504Y-99732457D01*
X80882504Y-99432457D02*
X81439647Y-99432457D01*
X81439647Y-99432457D02*
X81139647Y-99775314D01*
X81139647Y-99775314D02*
X81268218Y-99775314D01*
X81268218Y-99775314D02*
X81353933Y-99818171D01*
X81353933Y-99818171D02*
X81396790Y-99861028D01*
X81396790Y-99861028D02*
X81439647Y-99946742D01*
X81439647Y-99946742D02*
X81439647Y-100161028D01*
X81439647Y-100161028D02*
X81396790Y-100246742D01*
X81396790Y-100246742D02*
X81353933Y-100289600D01*
X81353933Y-100289600D02*
X81268218Y-100332457D01*
X81268218Y-100332457D02*
X81011075Y-100332457D01*
X81011075Y-100332457D02*
X80925361Y-100289600D01*
X80925361Y-100289600D02*
X80882504Y-100246742D01*
X81696790Y-99432457D02*
X81996790Y-100332457D01*
X81996790Y-100332457D02*
X82296790Y-99432457D01*
X82511076Y-99432457D02*
X83068219Y-99432457D01*
X83068219Y-99432457D02*
X82768219Y-99775314D01*
X82768219Y-99775314D02*
X82896790Y-99775314D01*
X82896790Y-99775314D02*
X82982505Y-99818171D01*
X82982505Y-99818171D02*
X83025362Y-99861028D01*
X83025362Y-99861028D02*
X83068219Y-99946742D01*
X83068219Y-99946742D02*
X83068219Y-100161028D01*
X83068219Y-100161028D02*
X83025362Y-100246742D01*
X83025362Y-100246742D02*
X82982505Y-100289600D01*
X82982505Y-100289600D02*
X82896790Y-100332457D01*
X82896790Y-100332457D02*
X82639647Y-100332457D01*
X82639647Y-100332457D02*
X82553933Y-100289600D01*
X82553933Y-100289600D02*
X82511076Y-100246742D01*
X70511074Y-103230357D02*
X70511074Y-102330357D01*
X70511074Y-102330357D02*
X70725360Y-102330357D01*
X70725360Y-102330357D02*
X70853931Y-102373214D01*
X70853931Y-102373214D02*
X70939646Y-102458928D01*
X70939646Y-102458928D02*
X70982503Y-102544642D01*
X70982503Y-102544642D02*
X71025360Y-102716071D01*
X71025360Y-102716071D02*
X71025360Y-102844642D01*
X71025360Y-102844642D02*
X70982503Y-103016071D01*
X70982503Y-103016071D02*
X70939646Y-103101785D01*
X70939646Y-103101785D02*
X70853931Y-103187500D01*
X70853931Y-103187500D02*
X70725360Y-103230357D01*
X70725360Y-103230357D02*
X70511074Y-103230357D01*
X71368217Y-102973214D02*
X71796789Y-102973214D01*
X71282503Y-103230357D02*
X71582503Y-102330357D01*
X71582503Y-102330357D02*
X71882503Y-103230357D01*
X72696789Y-103144642D02*
X72653932Y-103187500D01*
X72653932Y-103187500D02*
X72525360Y-103230357D01*
X72525360Y-103230357D02*
X72439646Y-103230357D01*
X72439646Y-103230357D02*
X72311075Y-103187500D01*
X72311075Y-103187500D02*
X72225360Y-103101785D01*
X72225360Y-103101785D02*
X72182503Y-103016071D01*
X72182503Y-103016071D02*
X72139646Y-102844642D01*
X72139646Y-102844642D02*
X72139646Y-102716071D01*
X72139646Y-102716071D02*
X72182503Y-102544642D01*
X72182503Y-102544642D02*
X72225360Y-102458928D01*
X72225360Y-102458928D02*
X72311075Y-102373214D01*
X72311075Y-102373214D02*
X72439646Y-102330357D01*
X72439646Y-102330357D02*
X72525360Y-102330357D01*
X72525360Y-102330357D02*
X72653932Y-102373214D01*
X72653932Y-102373214D02*
X72696789Y-102416071D01*
X73511075Y-102330357D02*
X73082503Y-102330357D01*
X73082503Y-102330357D02*
X73039646Y-102758928D01*
X73039646Y-102758928D02*
X73082503Y-102716071D01*
X73082503Y-102716071D02*
X73168218Y-102673214D01*
X73168218Y-102673214D02*
X73382503Y-102673214D01*
X73382503Y-102673214D02*
X73468218Y-102716071D01*
X73468218Y-102716071D02*
X73511075Y-102758928D01*
X73511075Y-102758928D02*
X73553932Y-102844642D01*
X73553932Y-102844642D02*
X73553932Y-103058928D01*
X73553932Y-103058928D02*
X73511075Y-103144642D01*
X73511075Y-103144642D02*
X73468218Y-103187500D01*
X73468218Y-103187500D02*
X73382503Y-103230357D01*
X73382503Y-103230357D02*
X73168218Y-103230357D01*
X73168218Y-103230357D02*
X73082503Y-103187500D01*
X73082503Y-103187500D02*
X73039646Y-103144642D01*
X74368218Y-102330357D02*
X73939646Y-102330357D01*
X73939646Y-102330357D02*
X73896789Y-102758928D01*
X73896789Y-102758928D02*
X73939646Y-102716071D01*
X73939646Y-102716071D02*
X74025361Y-102673214D01*
X74025361Y-102673214D02*
X74239646Y-102673214D01*
X74239646Y-102673214D02*
X74325361Y-102716071D01*
X74325361Y-102716071D02*
X74368218Y-102758928D01*
X74368218Y-102758928D02*
X74411075Y-102844642D01*
X74411075Y-102844642D02*
X74411075Y-103058928D01*
X74411075Y-103058928D02*
X74368218Y-103144642D01*
X74368218Y-103144642D02*
X74325361Y-103187500D01*
X74325361Y-103187500D02*
X74239646Y-103230357D01*
X74239646Y-103230357D02*
X74025361Y-103230357D01*
X74025361Y-103230357D02*
X73939646Y-103187500D01*
X73939646Y-103187500D02*
X73896789Y-103144642D01*
X75225361Y-102330357D02*
X74796789Y-102330357D01*
X74796789Y-102330357D02*
X74753932Y-102758928D01*
X74753932Y-102758928D02*
X74796789Y-102716071D01*
X74796789Y-102716071D02*
X74882504Y-102673214D01*
X74882504Y-102673214D02*
X75096789Y-102673214D01*
X75096789Y-102673214D02*
X75182504Y-102716071D01*
X75182504Y-102716071D02*
X75225361Y-102758928D01*
X75225361Y-102758928D02*
X75268218Y-102844642D01*
X75268218Y-102844642D02*
X75268218Y-103058928D01*
X75268218Y-103058928D02*
X75225361Y-103144642D01*
X75225361Y-103144642D02*
X75182504Y-103187500D01*
X75182504Y-103187500D02*
X75096789Y-103230357D01*
X75096789Y-103230357D02*
X74882504Y-103230357D01*
X74882504Y-103230357D02*
X74796789Y-103187500D01*
X74796789Y-103187500D02*
X74753932Y-103144642D01*
X75653932Y-103144642D02*
X75696789Y-103187500D01*
X75696789Y-103187500D02*
X75653932Y-103230357D01*
X75653932Y-103230357D02*
X75611075Y-103187500D01*
X75611075Y-103187500D02*
X75653932Y-103144642D01*
X75653932Y-103144642D02*
X75653932Y-103230357D01*
X75653932Y-102673214D02*
X75696789Y-102716071D01*
X75696789Y-102716071D02*
X75653932Y-102758928D01*
X75653932Y-102758928D02*
X75611075Y-102716071D01*
X75611075Y-102716071D02*
X75653932Y-102673214D01*
X75653932Y-102673214D02*
X75653932Y-102758928D01*
X76896789Y-102716071D02*
X76811074Y-102673214D01*
X76811074Y-102673214D02*
X76768217Y-102630357D01*
X76768217Y-102630357D02*
X76725360Y-102544642D01*
X76725360Y-102544642D02*
X76725360Y-102501785D01*
X76725360Y-102501785D02*
X76768217Y-102416071D01*
X76768217Y-102416071D02*
X76811074Y-102373214D01*
X76811074Y-102373214D02*
X76896789Y-102330357D01*
X76896789Y-102330357D02*
X77068217Y-102330357D01*
X77068217Y-102330357D02*
X77153932Y-102373214D01*
X77153932Y-102373214D02*
X77196789Y-102416071D01*
X77196789Y-102416071D02*
X77239646Y-102501785D01*
X77239646Y-102501785D02*
X77239646Y-102544642D01*
X77239646Y-102544642D02*
X77196789Y-102630357D01*
X77196789Y-102630357D02*
X77153932Y-102673214D01*
X77153932Y-102673214D02*
X77068217Y-102716071D01*
X77068217Y-102716071D02*
X76896789Y-102716071D01*
X76896789Y-102716071D02*
X76811074Y-102758928D01*
X76811074Y-102758928D02*
X76768217Y-102801785D01*
X76768217Y-102801785D02*
X76725360Y-102887500D01*
X76725360Y-102887500D02*
X76725360Y-103058928D01*
X76725360Y-103058928D02*
X76768217Y-103144642D01*
X76768217Y-103144642D02*
X76811074Y-103187500D01*
X76811074Y-103187500D02*
X76896789Y-103230357D01*
X76896789Y-103230357D02*
X77068217Y-103230357D01*
X77068217Y-103230357D02*
X77153932Y-103187500D01*
X77153932Y-103187500D02*
X77196789Y-103144642D01*
X77196789Y-103144642D02*
X77239646Y-103058928D01*
X77239646Y-103058928D02*
X77239646Y-102887500D01*
X77239646Y-102887500D02*
X77196789Y-102801785D01*
X77196789Y-102801785D02*
X77153932Y-102758928D01*
X77153932Y-102758928D02*
X77068217Y-102716071D01*
X77625360Y-103230357D02*
X77625360Y-102330357D01*
X78139646Y-103230357D02*
X77753932Y-102716071D01*
X78139646Y-102330357D02*
X77625360Y-102844642D01*
X78568217Y-103187500D02*
X78568217Y-103230357D01*
X78568217Y-103230357D02*
X78525360Y-103316071D01*
X78525360Y-103316071D02*
X78482503Y-103358928D01*
X79339646Y-102630357D02*
X79339646Y-103230357D01*
X79125360Y-102287500D02*
X78911074Y-102930357D01*
X78911074Y-102930357D02*
X79468217Y-102930357D01*
X79811074Y-103230357D02*
X79811074Y-102330357D01*
X80325360Y-103230357D02*
X79939646Y-102716071D01*
X80325360Y-102330357D02*
X79811074Y-102844642D01*
X80753931Y-103187500D02*
X80753931Y-103230357D01*
X80753931Y-103230357D02*
X80711074Y-103316071D01*
X80711074Y-103316071D02*
X80668217Y-103358928D01*
X81096788Y-102416071D02*
X81139645Y-102373214D01*
X81139645Y-102373214D02*
X81225360Y-102330357D01*
X81225360Y-102330357D02*
X81439645Y-102330357D01*
X81439645Y-102330357D02*
X81525360Y-102373214D01*
X81525360Y-102373214D02*
X81568217Y-102416071D01*
X81568217Y-102416071D02*
X81611074Y-102501785D01*
X81611074Y-102501785D02*
X81611074Y-102587500D01*
X81611074Y-102587500D02*
X81568217Y-102716071D01*
X81568217Y-102716071D02*
X81053931Y-103230357D01*
X81053931Y-103230357D02*
X81611074Y-103230357D01*
X81996788Y-103230357D02*
X81996788Y-102330357D01*
X82511074Y-103230357D02*
X82125360Y-102716071D01*
X82511074Y-102330357D02*
X81996788Y-102844642D01*
X82939645Y-103187500D02*
X82939645Y-103230357D01*
X82939645Y-103230357D02*
X82896788Y-103316071D01*
X82896788Y-103316071D02*
X82853931Y-103358928D01*
X83796788Y-103230357D02*
X83282502Y-103230357D01*
X83539645Y-103230357D02*
X83539645Y-102330357D01*
X83539645Y-102330357D02*
X83453931Y-102458928D01*
X83453931Y-102458928D02*
X83368216Y-102544642D01*
X83368216Y-102544642D02*
X83282502Y-102587500D01*
X84182502Y-103230357D02*
X84182502Y-102330357D01*
X84696788Y-103230357D02*
X84311074Y-102716071D01*
X84696788Y-102330357D02*
X84182502Y-102844642D01*
X85125359Y-103187500D02*
X85125359Y-103230357D01*
X85125359Y-103230357D02*
X85082502Y-103316071D01*
X85082502Y-103316071D02*
X85039645Y-103358928D01*
X85939645Y-102330357D02*
X85511073Y-102330357D01*
X85511073Y-102330357D02*
X85468216Y-102758928D01*
X85468216Y-102758928D02*
X85511073Y-102716071D01*
X85511073Y-102716071D02*
X85596788Y-102673214D01*
X85596788Y-102673214D02*
X85811073Y-102673214D01*
X85811073Y-102673214D02*
X85896788Y-102716071D01*
X85896788Y-102716071D02*
X85939645Y-102758928D01*
X85939645Y-102758928D02*
X85982502Y-102844642D01*
X85982502Y-102844642D02*
X85982502Y-103058928D01*
X85982502Y-103058928D02*
X85939645Y-103144642D01*
X85939645Y-103144642D02*
X85896788Y-103187500D01*
X85896788Y-103187500D02*
X85811073Y-103230357D01*
X85811073Y-103230357D02*
X85596788Y-103230357D01*
X85596788Y-103230357D02*
X85511073Y-103187500D01*
X85511073Y-103187500D02*
X85468216Y-103144642D01*
X86539645Y-102330357D02*
X86625359Y-102330357D01*
X86625359Y-102330357D02*
X86711073Y-102373214D01*
X86711073Y-102373214D02*
X86753931Y-102416071D01*
X86753931Y-102416071D02*
X86796788Y-102501785D01*
X86796788Y-102501785D02*
X86839645Y-102673214D01*
X86839645Y-102673214D02*
X86839645Y-102887500D01*
X86839645Y-102887500D02*
X86796788Y-103058928D01*
X86796788Y-103058928D02*
X86753931Y-103144642D01*
X86753931Y-103144642D02*
X86711073Y-103187500D01*
X86711073Y-103187500D02*
X86625359Y-103230357D01*
X86625359Y-103230357D02*
X86539645Y-103230357D01*
X86539645Y-103230357D02*
X86453931Y-103187500D01*
X86453931Y-103187500D02*
X86411073Y-103144642D01*
X86411073Y-103144642D02*
X86368216Y-103058928D01*
X86368216Y-103058928D02*
X86325359Y-102887500D01*
X86325359Y-102887500D02*
X86325359Y-102673214D01*
X86325359Y-102673214D02*
X86368216Y-102501785D01*
X86368216Y-102501785D02*
X86411073Y-102416071D01*
X86411073Y-102416071D02*
X86453931Y-102373214D01*
X86453931Y-102373214D02*
X86539645Y-102330357D01*
X87396788Y-102330357D02*
X87482502Y-102330357D01*
X87482502Y-102330357D02*
X87568216Y-102373214D01*
X87568216Y-102373214D02*
X87611074Y-102416071D01*
X87611074Y-102416071D02*
X87653931Y-102501785D01*
X87653931Y-102501785D02*
X87696788Y-102673214D01*
X87696788Y-102673214D02*
X87696788Y-102887500D01*
X87696788Y-102887500D02*
X87653931Y-103058928D01*
X87653931Y-103058928D02*
X87611074Y-103144642D01*
X87611074Y-103144642D02*
X87568216Y-103187500D01*
X87568216Y-103187500D02*
X87482502Y-103230357D01*
X87482502Y-103230357D02*
X87396788Y-103230357D01*
X87396788Y-103230357D02*
X87311074Y-103187500D01*
X87311074Y-103187500D02*
X87268216Y-103144642D01*
X87268216Y-103144642D02*
X87225359Y-103058928D01*
X87225359Y-103058928D02*
X87182502Y-102887500D01*
X87182502Y-102887500D02*
X87182502Y-102673214D01*
X87182502Y-102673214D02*
X87225359Y-102501785D01*
X87225359Y-102501785D02*
X87268216Y-102416071D01*
X87268216Y-102416071D02*
X87311074Y-102373214D01*
X87311074Y-102373214D02*
X87396788Y-102330357D01*
X88596788Y-103230357D02*
X88296788Y-102801785D01*
X88082502Y-103230357D02*
X88082502Y-102330357D01*
X88082502Y-102330357D02*
X88425359Y-102330357D01*
X88425359Y-102330357D02*
X88511074Y-102373214D01*
X88511074Y-102373214D02*
X88553931Y-102416071D01*
X88553931Y-102416071D02*
X88596788Y-102501785D01*
X88596788Y-102501785D02*
X88596788Y-102630357D01*
X88596788Y-102630357D02*
X88553931Y-102716071D01*
X88553931Y-102716071D02*
X88511074Y-102758928D01*
X88511074Y-102758928D02*
X88425359Y-102801785D01*
X88425359Y-102801785D02*
X88082502Y-102801785D01*
X70511074Y-104679307D02*
X70511074Y-103779307D01*
X70511074Y-103779307D02*
X70725360Y-103779307D01*
X70725360Y-103779307D02*
X70853931Y-103822164D01*
X70853931Y-103822164D02*
X70939646Y-103907878D01*
X70939646Y-103907878D02*
X70982503Y-103993592D01*
X70982503Y-103993592D02*
X71025360Y-104165021D01*
X71025360Y-104165021D02*
X71025360Y-104293592D01*
X71025360Y-104293592D02*
X70982503Y-104465021D01*
X70982503Y-104465021D02*
X70939646Y-104550735D01*
X70939646Y-104550735D02*
X70853931Y-104636450D01*
X70853931Y-104636450D02*
X70725360Y-104679307D01*
X70725360Y-104679307D02*
X70511074Y-104679307D01*
X71368217Y-104422164D02*
X71796789Y-104422164D01*
X71282503Y-104679307D02*
X71582503Y-103779307D01*
X71582503Y-103779307D02*
X71882503Y-104679307D01*
X72696789Y-104593592D02*
X72653932Y-104636450D01*
X72653932Y-104636450D02*
X72525360Y-104679307D01*
X72525360Y-104679307D02*
X72439646Y-104679307D01*
X72439646Y-104679307D02*
X72311075Y-104636450D01*
X72311075Y-104636450D02*
X72225360Y-104550735D01*
X72225360Y-104550735D02*
X72182503Y-104465021D01*
X72182503Y-104465021D02*
X72139646Y-104293592D01*
X72139646Y-104293592D02*
X72139646Y-104165021D01*
X72139646Y-104165021D02*
X72182503Y-103993592D01*
X72182503Y-103993592D02*
X72225360Y-103907878D01*
X72225360Y-103907878D02*
X72311075Y-103822164D01*
X72311075Y-103822164D02*
X72439646Y-103779307D01*
X72439646Y-103779307D02*
X72525360Y-103779307D01*
X72525360Y-103779307D02*
X72653932Y-103822164D01*
X72653932Y-103822164D02*
X72696789Y-103865021D01*
X72996789Y-103779307D02*
X73553932Y-103779307D01*
X73553932Y-103779307D02*
X73253932Y-104122164D01*
X73253932Y-104122164D02*
X73382503Y-104122164D01*
X73382503Y-104122164D02*
X73468218Y-104165021D01*
X73468218Y-104165021D02*
X73511075Y-104207878D01*
X73511075Y-104207878D02*
X73553932Y-104293592D01*
X73553932Y-104293592D02*
X73553932Y-104507878D01*
X73553932Y-104507878D02*
X73511075Y-104593592D01*
X73511075Y-104593592D02*
X73468218Y-104636450D01*
X73468218Y-104636450D02*
X73382503Y-104679307D01*
X73382503Y-104679307D02*
X73125360Y-104679307D01*
X73125360Y-104679307D02*
X73039646Y-104636450D01*
X73039646Y-104636450D02*
X72996789Y-104593592D01*
X73853932Y-103779307D02*
X74411075Y-103779307D01*
X74411075Y-103779307D02*
X74111075Y-104122164D01*
X74111075Y-104122164D02*
X74239646Y-104122164D01*
X74239646Y-104122164D02*
X74325361Y-104165021D01*
X74325361Y-104165021D02*
X74368218Y-104207878D01*
X74368218Y-104207878D02*
X74411075Y-104293592D01*
X74411075Y-104293592D02*
X74411075Y-104507878D01*
X74411075Y-104507878D02*
X74368218Y-104593592D01*
X74368218Y-104593592D02*
X74325361Y-104636450D01*
X74325361Y-104636450D02*
X74239646Y-104679307D01*
X74239646Y-104679307D02*
X73982503Y-104679307D01*
X73982503Y-104679307D02*
X73896789Y-104636450D01*
X73896789Y-104636450D02*
X73853932Y-104593592D01*
X74753932Y-103865021D02*
X74796789Y-103822164D01*
X74796789Y-103822164D02*
X74882504Y-103779307D01*
X74882504Y-103779307D02*
X75096789Y-103779307D01*
X75096789Y-103779307D02*
X75182504Y-103822164D01*
X75182504Y-103822164D02*
X75225361Y-103865021D01*
X75225361Y-103865021D02*
X75268218Y-103950735D01*
X75268218Y-103950735D02*
X75268218Y-104036450D01*
X75268218Y-104036450D02*
X75225361Y-104165021D01*
X75225361Y-104165021D02*
X74711075Y-104679307D01*
X74711075Y-104679307D02*
X75268218Y-104679307D01*
X75653932Y-104593592D02*
X75696789Y-104636450D01*
X75696789Y-104636450D02*
X75653932Y-104679307D01*
X75653932Y-104679307D02*
X75611075Y-104636450D01*
X75611075Y-104636450D02*
X75653932Y-104593592D01*
X75653932Y-104593592D02*
X75653932Y-104679307D01*
X75653932Y-104122164D02*
X75696789Y-104165021D01*
X75696789Y-104165021D02*
X75653932Y-104207878D01*
X75653932Y-104207878D02*
X75611075Y-104165021D01*
X75611075Y-104165021D02*
X75653932Y-104122164D01*
X75653932Y-104122164D02*
X75653932Y-104207878D01*
X76725360Y-103865021D02*
X76768217Y-103822164D01*
X76768217Y-103822164D02*
X76853932Y-103779307D01*
X76853932Y-103779307D02*
X77068217Y-103779307D01*
X77068217Y-103779307D02*
X77153932Y-103822164D01*
X77153932Y-103822164D02*
X77196789Y-103865021D01*
X77196789Y-103865021D02*
X77239646Y-103950735D01*
X77239646Y-103950735D02*
X77239646Y-104036450D01*
X77239646Y-104036450D02*
X77196789Y-104165021D01*
X77196789Y-104165021D02*
X76682503Y-104679307D01*
X76682503Y-104679307D02*
X77239646Y-104679307D01*
X77625360Y-104679307D02*
X77625360Y-103779307D01*
X78139646Y-104679307D02*
X77753932Y-104165021D01*
X78139646Y-103779307D02*
X77625360Y-104293592D01*
X78568217Y-104636450D02*
X78568217Y-104679307D01*
X78568217Y-104679307D02*
X78525360Y-104765021D01*
X78525360Y-104765021D02*
X78482503Y-104807878D01*
X79425360Y-104679307D02*
X78911074Y-104679307D01*
X79168217Y-104679307D02*
X79168217Y-103779307D01*
X79168217Y-103779307D02*
X79082503Y-103907878D01*
X79082503Y-103907878D02*
X78996788Y-103993592D01*
X78996788Y-103993592D02*
X78911074Y-104036450D01*
X79811074Y-104679307D02*
X79811074Y-103779307D01*
X80325360Y-104679307D02*
X79939646Y-104165021D01*
X80325360Y-103779307D02*
X79811074Y-104293592D01*
X80753931Y-104636450D02*
X80753931Y-104679307D01*
X80753931Y-104679307D02*
X80711074Y-104765021D01*
X80711074Y-104765021D02*
X80668217Y-104807878D01*
X81525360Y-104079307D02*
X81525360Y-104679307D01*
X81311074Y-103736450D02*
X81096788Y-104379307D01*
X81096788Y-104379307D02*
X81653931Y-104379307D01*
X81911074Y-103779307D02*
X82511074Y-103779307D01*
X82511074Y-103779307D02*
X82125360Y-104679307D01*
X83025360Y-103779307D02*
X83111074Y-103779307D01*
X83111074Y-103779307D02*
X83196788Y-103822164D01*
X83196788Y-103822164D02*
X83239646Y-103865021D01*
X83239646Y-103865021D02*
X83282503Y-103950735D01*
X83282503Y-103950735D02*
X83325360Y-104122164D01*
X83325360Y-104122164D02*
X83325360Y-104336450D01*
X83325360Y-104336450D02*
X83282503Y-104507878D01*
X83282503Y-104507878D02*
X83239646Y-104593592D01*
X83239646Y-104593592D02*
X83196788Y-104636450D01*
X83196788Y-104636450D02*
X83111074Y-104679307D01*
X83111074Y-104679307D02*
X83025360Y-104679307D01*
X83025360Y-104679307D02*
X82939646Y-104636450D01*
X82939646Y-104636450D02*
X82896788Y-104593592D01*
X82896788Y-104593592D02*
X82853931Y-104507878D01*
X82853931Y-104507878D02*
X82811074Y-104336450D01*
X82811074Y-104336450D02*
X82811074Y-104122164D01*
X82811074Y-104122164D02*
X82853931Y-103950735D01*
X82853931Y-103950735D02*
X82896788Y-103865021D01*
X82896788Y-103865021D02*
X82939646Y-103822164D01*
X82939646Y-103822164D02*
X83025360Y-103779307D01*
X84225360Y-104679307D02*
X83925360Y-104250735D01*
X83711074Y-104679307D02*
X83711074Y-103779307D01*
X83711074Y-103779307D02*
X84053931Y-103779307D01*
X84053931Y-103779307D02*
X84139646Y-103822164D01*
X84139646Y-103822164D02*
X84182503Y-103865021D01*
X84182503Y-103865021D02*
X84225360Y-103950735D01*
X84225360Y-103950735D02*
X84225360Y-104079307D01*
X84225360Y-104079307D02*
X84182503Y-104165021D01*
X84182503Y-104165021D02*
X84139646Y-104207878D01*
X84139646Y-104207878D02*
X84053931Y-104250735D01*
X84053931Y-104250735D02*
X83711074Y-104250735D01*
X84653931Y-104636450D02*
X84653931Y-104679307D01*
X84653931Y-104679307D02*
X84611074Y-104765021D01*
X84611074Y-104765021D02*
X84568217Y-104807878D01*
X84611074Y-104122164D02*
X84653931Y-104165021D01*
X84653931Y-104165021D02*
X84611074Y-104207878D01*
X84611074Y-104207878D02*
X84568217Y-104165021D01*
X84568217Y-104165021D02*
X84611074Y-104122164D01*
X84611074Y-104122164D02*
X84611074Y-104207878D01*
X76811072Y-105613971D02*
X76725357Y-105571114D01*
X76725357Y-105571114D02*
X76682500Y-105528257D01*
X76682500Y-105528257D02*
X76639643Y-105442542D01*
X76639643Y-105442542D02*
X76639643Y-105399685D01*
X76639643Y-105399685D02*
X76682500Y-105313971D01*
X76682500Y-105313971D02*
X76725357Y-105271114D01*
X76725357Y-105271114D02*
X76811072Y-105228257D01*
X76811072Y-105228257D02*
X76982500Y-105228257D01*
X76982500Y-105228257D02*
X77068215Y-105271114D01*
X77068215Y-105271114D02*
X77111072Y-105313971D01*
X77111072Y-105313971D02*
X77153929Y-105399685D01*
X77153929Y-105399685D02*
X77153929Y-105442542D01*
X77153929Y-105442542D02*
X77111072Y-105528257D01*
X77111072Y-105528257D02*
X77068215Y-105571114D01*
X77068215Y-105571114D02*
X76982500Y-105613971D01*
X76982500Y-105613971D02*
X76811072Y-105613971D01*
X76811072Y-105613971D02*
X76725357Y-105656828D01*
X76725357Y-105656828D02*
X76682500Y-105699685D01*
X76682500Y-105699685D02*
X76639643Y-105785400D01*
X76639643Y-105785400D02*
X76639643Y-105956828D01*
X76639643Y-105956828D02*
X76682500Y-106042542D01*
X76682500Y-106042542D02*
X76725357Y-106085400D01*
X76725357Y-106085400D02*
X76811072Y-106128257D01*
X76811072Y-106128257D02*
X76982500Y-106128257D01*
X76982500Y-106128257D02*
X77068215Y-106085400D01*
X77068215Y-106085400D02*
X77111072Y-106042542D01*
X77111072Y-106042542D02*
X77153929Y-105956828D01*
X77153929Y-105956828D02*
X77153929Y-105785400D01*
X77153929Y-105785400D02*
X77111072Y-105699685D01*
X77111072Y-105699685D02*
X77068215Y-105656828D01*
X77068215Y-105656828D02*
X76982500Y-105613971D01*
X77496786Y-105313971D02*
X77539643Y-105271114D01*
X77539643Y-105271114D02*
X77625358Y-105228257D01*
X77625358Y-105228257D02*
X77839643Y-105228257D01*
X77839643Y-105228257D02*
X77925358Y-105271114D01*
X77925358Y-105271114D02*
X77968215Y-105313971D01*
X77968215Y-105313971D02*
X78011072Y-105399685D01*
X78011072Y-105399685D02*
X78011072Y-105485400D01*
X78011072Y-105485400D02*
X77968215Y-105613971D01*
X77968215Y-105613971D02*
X77453929Y-106128257D01*
X77453929Y-106128257D02*
X78011072Y-106128257D01*
X78568215Y-105228257D02*
X78653929Y-105228257D01*
X78653929Y-105228257D02*
X78739643Y-105271114D01*
X78739643Y-105271114D02*
X78782501Y-105313971D01*
X78782501Y-105313971D02*
X78825358Y-105399685D01*
X78825358Y-105399685D02*
X78868215Y-105571114D01*
X78868215Y-105571114D02*
X78868215Y-105785400D01*
X78868215Y-105785400D02*
X78825358Y-105956828D01*
X78825358Y-105956828D02*
X78782501Y-106042542D01*
X78782501Y-106042542D02*
X78739643Y-106085400D01*
X78739643Y-106085400D02*
X78653929Y-106128257D01*
X78653929Y-106128257D02*
X78568215Y-106128257D01*
X78568215Y-106128257D02*
X78482501Y-106085400D01*
X78482501Y-106085400D02*
X78439643Y-106042542D01*
X78439643Y-106042542D02*
X78396786Y-105956828D01*
X78396786Y-105956828D02*
X78353929Y-105785400D01*
X78353929Y-105785400D02*
X78353929Y-105571114D01*
X78353929Y-105571114D02*
X78396786Y-105399685D01*
X78396786Y-105399685D02*
X78439643Y-105313971D01*
X78439643Y-105313971D02*
X78482501Y-105271114D01*
X78482501Y-105271114D02*
X78568215Y-105228257D01*
X79768215Y-106128257D02*
X79468215Y-105699685D01*
X79253929Y-106128257D02*
X79253929Y-105228257D01*
X79253929Y-105228257D02*
X79596786Y-105228257D01*
X79596786Y-105228257D02*
X79682501Y-105271114D01*
X79682501Y-105271114D02*
X79725358Y-105313971D01*
X79725358Y-105313971D02*
X79768215Y-105399685D01*
X79768215Y-105399685D02*
X79768215Y-105528257D01*
X79768215Y-105528257D02*
X79725358Y-105613971D01*
X79725358Y-105613971D02*
X79682501Y-105656828D01*
X79682501Y-105656828D02*
X79596786Y-105699685D01*
X79596786Y-105699685D02*
X79253929Y-105699685D01*
X80196786Y-106085400D02*
X80196786Y-106128257D01*
X80196786Y-106128257D02*
X80153929Y-106213971D01*
X80153929Y-106213971D02*
X80111072Y-106256828D01*
X80496786Y-105228257D02*
X81053929Y-105228257D01*
X81053929Y-105228257D02*
X80753929Y-105571114D01*
X80753929Y-105571114D02*
X80882500Y-105571114D01*
X80882500Y-105571114D02*
X80968215Y-105613971D01*
X80968215Y-105613971D02*
X81011072Y-105656828D01*
X81011072Y-105656828D02*
X81053929Y-105742542D01*
X81053929Y-105742542D02*
X81053929Y-105956828D01*
X81053929Y-105956828D02*
X81011072Y-106042542D01*
X81011072Y-106042542D02*
X80968215Y-106085400D01*
X80968215Y-106085400D02*
X80882500Y-106128257D01*
X80882500Y-106128257D02*
X80625357Y-106128257D01*
X80625357Y-106128257D02*
X80539643Y-106085400D01*
X80539643Y-106085400D02*
X80496786Y-106042542D01*
X81482500Y-106128257D02*
X81653929Y-106128257D01*
X81653929Y-106128257D02*
X81739643Y-106085400D01*
X81739643Y-106085400D02*
X81782500Y-106042542D01*
X81782500Y-106042542D02*
X81868215Y-105913971D01*
X81868215Y-105913971D02*
X81911072Y-105742542D01*
X81911072Y-105742542D02*
X81911072Y-105399685D01*
X81911072Y-105399685D02*
X81868215Y-105313971D01*
X81868215Y-105313971D02*
X81825358Y-105271114D01*
X81825358Y-105271114D02*
X81739643Y-105228257D01*
X81739643Y-105228257D02*
X81568215Y-105228257D01*
X81568215Y-105228257D02*
X81482500Y-105271114D01*
X81482500Y-105271114D02*
X81439643Y-105313971D01*
X81439643Y-105313971D02*
X81396786Y-105399685D01*
X81396786Y-105399685D02*
X81396786Y-105613971D01*
X81396786Y-105613971D02*
X81439643Y-105699685D01*
X81439643Y-105699685D02*
X81482500Y-105742542D01*
X81482500Y-105742542D02*
X81568215Y-105785400D01*
X81568215Y-105785400D02*
X81739643Y-105785400D01*
X81739643Y-105785400D02*
X81825358Y-105742542D01*
X81825358Y-105742542D02*
X81868215Y-105699685D01*
X81868215Y-105699685D02*
X81911072Y-105613971D01*
X82468215Y-105228257D02*
X82553929Y-105228257D01*
X82553929Y-105228257D02*
X82639643Y-105271114D01*
X82639643Y-105271114D02*
X82682501Y-105313971D01*
X82682501Y-105313971D02*
X82725358Y-105399685D01*
X82725358Y-105399685D02*
X82768215Y-105571114D01*
X82768215Y-105571114D02*
X82768215Y-105785400D01*
X82768215Y-105785400D02*
X82725358Y-105956828D01*
X82725358Y-105956828D02*
X82682501Y-106042542D01*
X82682501Y-106042542D02*
X82639643Y-106085400D01*
X82639643Y-106085400D02*
X82553929Y-106128257D01*
X82553929Y-106128257D02*
X82468215Y-106128257D01*
X82468215Y-106128257D02*
X82382501Y-106085400D01*
X82382501Y-106085400D02*
X82339643Y-106042542D01*
X82339643Y-106042542D02*
X82296786Y-105956828D01*
X82296786Y-105956828D02*
X82253929Y-105785400D01*
X82253929Y-105785400D02*
X82253929Y-105571114D01*
X82253929Y-105571114D02*
X82296786Y-105399685D01*
X82296786Y-105399685D02*
X82339643Y-105313971D01*
X82339643Y-105313971D02*
X82382501Y-105271114D01*
X82382501Y-105271114D02*
X82468215Y-105228257D01*
X83668215Y-106128257D02*
X83368215Y-105699685D01*
X83153929Y-106128257D02*
X83153929Y-105228257D01*
X83153929Y-105228257D02*
X83496786Y-105228257D01*
X83496786Y-105228257D02*
X83582501Y-105271114D01*
X83582501Y-105271114D02*
X83625358Y-105313971D01*
X83625358Y-105313971D02*
X83668215Y-105399685D01*
X83668215Y-105399685D02*
X83668215Y-105528257D01*
X83668215Y-105528257D02*
X83625358Y-105613971D01*
X83625358Y-105613971D02*
X83582501Y-105656828D01*
X83582501Y-105656828D02*
X83496786Y-105699685D01*
X83496786Y-105699685D02*
X83153929Y-105699685D01*
X70511074Y-107577207D02*
X70511074Y-106677207D01*
X70511074Y-106677207D02*
X70725360Y-106677207D01*
X70725360Y-106677207D02*
X70853931Y-106720064D01*
X70853931Y-106720064D02*
X70939646Y-106805778D01*
X70939646Y-106805778D02*
X70982503Y-106891492D01*
X70982503Y-106891492D02*
X71025360Y-107062921D01*
X71025360Y-107062921D02*
X71025360Y-107191492D01*
X71025360Y-107191492D02*
X70982503Y-107362921D01*
X70982503Y-107362921D02*
X70939646Y-107448635D01*
X70939646Y-107448635D02*
X70853931Y-107534350D01*
X70853931Y-107534350D02*
X70725360Y-107577207D01*
X70725360Y-107577207D02*
X70511074Y-107577207D01*
X71368217Y-107320064D02*
X71796789Y-107320064D01*
X71282503Y-107577207D02*
X71582503Y-106677207D01*
X71582503Y-106677207D02*
X71882503Y-107577207D01*
X72696789Y-107491492D02*
X72653932Y-107534350D01*
X72653932Y-107534350D02*
X72525360Y-107577207D01*
X72525360Y-107577207D02*
X72439646Y-107577207D01*
X72439646Y-107577207D02*
X72311075Y-107534350D01*
X72311075Y-107534350D02*
X72225360Y-107448635D01*
X72225360Y-107448635D02*
X72182503Y-107362921D01*
X72182503Y-107362921D02*
X72139646Y-107191492D01*
X72139646Y-107191492D02*
X72139646Y-107062921D01*
X72139646Y-107062921D02*
X72182503Y-106891492D01*
X72182503Y-106891492D02*
X72225360Y-106805778D01*
X72225360Y-106805778D02*
X72311075Y-106720064D01*
X72311075Y-106720064D02*
X72439646Y-106677207D01*
X72439646Y-106677207D02*
X72525360Y-106677207D01*
X72525360Y-106677207D02*
X72653932Y-106720064D01*
X72653932Y-106720064D02*
X72696789Y-106762921D01*
X73039646Y-106762921D02*
X73082503Y-106720064D01*
X73082503Y-106720064D02*
X73168218Y-106677207D01*
X73168218Y-106677207D02*
X73382503Y-106677207D01*
X73382503Y-106677207D02*
X73468218Y-106720064D01*
X73468218Y-106720064D02*
X73511075Y-106762921D01*
X73511075Y-106762921D02*
X73553932Y-106848635D01*
X73553932Y-106848635D02*
X73553932Y-106934350D01*
X73553932Y-106934350D02*
X73511075Y-107062921D01*
X73511075Y-107062921D02*
X72996789Y-107577207D01*
X72996789Y-107577207D02*
X73553932Y-107577207D01*
X73896789Y-106762921D02*
X73939646Y-106720064D01*
X73939646Y-106720064D02*
X74025361Y-106677207D01*
X74025361Y-106677207D02*
X74239646Y-106677207D01*
X74239646Y-106677207D02*
X74325361Y-106720064D01*
X74325361Y-106720064D02*
X74368218Y-106762921D01*
X74368218Y-106762921D02*
X74411075Y-106848635D01*
X74411075Y-106848635D02*
X74411075Y-106934350D01*
X74411075Y-106934350D02*
X74368218Y-107062921D01*
X74368218Y-107062921D02*
X73853932Y-107577207D01*
X73853932Y-107577207D02*
X74411075Y-107577207D01*
X74753932Y-106762921D02*
X74796789Y-106720064D01*
X74796789Y-106720064D02*
X74882504Y-106677207D01*
X74882504Y-106677207D02*
X75096789Y-106677207D01*
X75096789Y-106677207D02*
X75182504Y-106720064D01*
X75182504Y-106720064D02*
X75225361Y-106762921D01*
X75225361Y-106762921D02*
X75268218Y-106848635D01*
X75268218Y-106848635D02*
X75268218Y-106934350D01*
X75268218Y-106934350D02*
X75225361Y-107062921D01*
X75225361Y-107062921D02*
X74711075Y-107577207D01*
X74711075Y-107577207D02*
X75268218Y-107577207D01*
X75653932Y-107491492D02*
X75696789Y-107534350D01*
X75696789Y-107534350D02*
X75653932Y-107577207D01*
X75653932Y-107577207D02*
X75611075Y-107534350D01*
X75611075Y-107534350D02*
X75653932Y-107491492D01*
X75653932Y-107491492D02*
X75653932Y-107577207D01*
X75653932Y-107020064D02*
X75696789Y-107062921D01*
X75696789Y-107062921D02*
X75653932Y-107105778D01*
X75653932Y-107105778D02*
X75611075Y-107062921D01*
X75611075Y-107062921D02*
X75653932Y-107020064D01*
X75653932Y-107020064D02*
X75653932Y-107105778D01*
X77239646Y-107577207D02*
X76725360Y-107577207D01*
X76982503Y-107577207D02*
X76982503Y-106677207D01*
X76982503Y-106677207D02*
X76896789Y-106805778D01*
X76896789Y-106805778D02*
X76811074Y-106891492D01*
X76811074Y-106891492D02*
X76725360Y-106934350D01*
X77625360Y-107577207D02*
X77625360Y-106677207D01*
X78139646Y-107577207D02*
X77753932Y-107062921D01*
X78139646Y-106677207D02*
X77625360Y-107191492D01*
X78568217Y-107534350D02*
X78568217Y-107577207D01*
X78568217Y-107577207D02*
X78525360Y-107662921D01*
X78525360Y-107662921D02*
X78482503Y-107705778D01*
X79339646Y-106977207D02*
X79339646Y-107577207D01*
X79125360Y-106634350D02*
X78911074Y-107277207D01*
X78911074Y-107277207D02*
X79468217Y-107277207D01*
X79725360Y-106677207D02*
X80325360Y-106677207D01*
X80325360Y-106677207D02*
X79939646Y-107577207D01*
X80839646Y-106677207D02*
X80925360Y-106677207D01*
X80925360Y-106677207D02*
X81011074Y-106720064D01*
X81011074Y-106720064D02*
X81053932Y-106762921D01*
X81053932Y-106762921D02*
X81096789Y-106848635D01*
X81096789Y-106848635D02*
X81139646Y-107020064D01*
X81139646Y-107020064D02*
X81139646Y-107234350D01*
X81139646Y-107234350D02*
X81096789Y-107405778D01*
X81096789Y-107405778D02*
X81053932Y-107491492D01*
X81053932Y-107491492D02*
X81011074Y-107534350D01*
X81011074Y-107534350D02*
X80925360Y-107577207D01*
X80925360Y-107577207D02*
X80839646Y-107577207D01*
X80839646Y-107577207D02*
X80753932Y-107534350D01*
X80753932Y-107534350D02*
X80711074Y-107491492D01*
X80711074Y-107491492D02*
X80668217Y-107405778D01*
X80668217Y-107405778D02*
X80625360Y-107234350D01*
X80625360Y-107234350D02*
X80625360Y-107020064D01*
X80625360Y-107020064D02*
X80668217Y-106848635D01*
X80668217Y-106848635D02*
X80711074Y-106762921D01*
X80711074Y-106762921D02*
X80753932Y-106720064D01*
X80753932Y-106720064D02*
X80839646Y-106677207D01*
X82039646Y-107577207D02*
X81739646Y-107148635D01*
X81525360Y-107577207D02*
X81525360Y-106677207D01*
X81525360Y-106677207D02*
X81868217Y-106677207D01*
X81868217Y-106677207D02*
X81953932Y-106720064D01*
X81953932Y-106720064D02*
X81996789Y-106762921D01*
X81996789Y-106762921D02*
X82039646Y-106848635D01*
X82039646Y-106848635D02*
X82039646Y-106977207D01*
X82039646Y-106977207D02*
X81996789Y-107062921D01*
X81996789Y-107062921D02*
X81953932Y-107105778D01*
X81953932Y-107105778D02*
X81868217Y-107148635D01*
X81868217Y-107148635D02*
X81525360Y-107148635D01*
X71025360Y-109026157D02*
X70725360Y-108597585D01*
X70511074Y-109026157D02*
X70511074Y-108126157D01*
X70511074Y-108126157D02*
X70853931Y-108126157D01*
X70853931Y-108126157D02*
X70939646Y-108169014D01*
X70939646Y-108169014D02*
X70982503Y-108211871D01*
X70982503Y-108211871D02*
X71025360Y-108297585D01*
X71025360Y-108297585D02*
X71025360Y-108426157D01*
X71025360Y-108426157D02*
X70982503Y-108511871D01*
X70982503Y-108511871D02*
X70939646Y-108554728D01*
X70939646Y-108554728D02*
X70853931Y-108597585D01*
X70853931Y-108597585D02*
X70511074Y-108597585D01*
X71882503Y-108169014D02*
X71796789Y-108126157D01*
X71796789Y-108126157D02*
X71668217Y-108126157D01*
X71668217Y-108126157D02*
X71539646Y-108169014D01*
X71539646Y-108169014D02*
X71453931Y-108254728D01*
X71453931Y-108254728D02*
X71411074Y-108340442D01*
X71411074Y-108340442D02*
X71368217Y-108511871D01*
X71368217Y-108511871D02*
X71368217Y-108640442D01*
X71368217Y-108640442D02*
X71411074Y-108811871D01*
X71411074Y-108811871D02*
X71453931Y-108897585D01*
X71453931Y-108897585D02*
X71539646Y-108983300D01*
X71539646Y-108983300D02*
X71668217Y-109026157D01*
X71668217Y-109026157D02*
X71753931Y-109026157D01*
X71753931Y-109026157D02*
X71882503Y-108983300D01*
X71882503Y-108983300D02*
X71925360Y-108940442D01*
X71925360Y-108940442D02*
X71925360Y-108640442D01*
X71925360Y-108640442D02*
X71753931Y-108640442D01*
X72611074Y-108554728D02*
X72739646Y-108597585D01*
X72739646Y-108597585D02*
X72782503Y-108640442D01*
X72782503Y-108640442D02*
X72825360Y-108726157D01*
X72825360Y-108726157D02*
X72825360Y-108854728D01*
X72825360Y-108854728D02*
X72782503Y-108940442D01*
X72782503Y-108940442D02*
X72739646Y-108983300D01*
X72739646Y-108983300D02*
X72653931Y-109026157D01*
X72653931Y-109026157D02*
X72311074Y-109026157D01*
X72311074Y-109026157D02*
X72311074Y-108126157D01*
X72311074Y-108126157D02*
X72611074Y-108126157D01*
X72611074Y-108126157D02*
X72696789Y-108169014D01*
X72696789Y-108169014D02*
X72739646Y-108211871D01*
X72739646Y-108211871D02*
X72782503Y-108297585D01*
X72782503Y-108297585D02*
X72782503Y-108383300D01*
X72782503Y-108383300D02*
X72739646Y-108469014D01*
X72739646Y-108469014D02*
X72696789Y-108511871D01*
X72696789Y-108511871D02*
X72611074Y-108554728D01*
X72611074Y-108554728D02*
X72311074Y-108554728D01*
X73382503Y-108597585D02*
X73382503Y-109026157D01*
X73082503Y-108126157D02*
X73382503Y-108597585D01*
X73382503Y-108597585D02*
X73682503Y-108126157D01*
X74453932Y-109026157D02*
X73939646Y-109026157D01*
X74196789Y-109026157D02*
X74196789Y-108126157D01*
X74196789Y-108126157D02*
X74111075Y-108254728D01*
X74111075Y-108254728D02*
X74025360Y-108340442D01*
X74025360Y-108340442D02*
X73939646Y-108383300D01*
X75311075Y-109026157D02*
X74796789Y-109026157D01*
X75053932Y-109026157D02*
X75053932Y-108126157D01*
X75053932Y-108126157D02*
X74968218Y-108254728D01*
X74968218Y-108254728D02*
X74882503Y-108340442D01*
X74882503Y-108340442D02*
X74796789Y-108383300D01*
X76168218Y-109026157D02*
X75653932Y-109026157D01*
X75911075Y-109026157D02*
X75911075Y-108126157D01*
X75911075Y-108126157D02*
X75825361Y-108254728D01*
X75825361Y-108254728D02*
X75739646Y-108340442D01*
X75739646Y-108340442D02*
X75653932Y-108383300D01*
X77025361Y-109026157D02*
X76511075Y-109026157D01*
X76768218Y-109026157D02*
X76768218Y-108126157D01*
X76768218Y-108126157D02*
X76682504Y-108254728D01*
X76682504Y-108254728D02*
X76596789Y-108340442D01*
X76596789Y-108340442D02*
X76511075Y-108383300D01*
X77411075Y-108940442D02*
X77453932Y-108983300D01*
X77453932Y-108983300D02*
X77411075Y-109026157D01*
X77411075Y-109026157D02*
X77368218Y-108983300D01*
X77368218Y-108983300D02*
X77411075Y-108940442D01*
X77411075Y-108940442D02*
X77411075Y-109026157D01*
X77411075Y-108469014D02*
X77453932Y-108511871D01*
X77453932Y-108511871D02*
X77411075Y-108554728D01*
X77411075Y-108554728D02*
X77368218Y-108511871D01*
X77368218Y-108511871D02*
X77411075Y-108469014D01*
X77411075Y-108469014D02*
X77411075Y-108554728D01*
X78439646Y-108126157D02*
X78996789Y-108126157D01*
X78996789Y-108126157D02*
X78696789Y-108469014D01*
X78696789Y-108469014D02*
X78825360Y-108469014D01*
X78825360Y-108469014D02*
X78911075Y-108511871D01*
X78911075Y-108511871D02*
X78953932Y-108554728D01*
X78953932Y-108554728D02*
X78996789Y-108640442D01*
X78996789Y-108640442D02*
X78996789Y-108854728D01*
X78996789Y-108854728D02*
X78953932Y-108940442D01*
X78953932Y-108940442D02*
X78911075Y-108983300D01*
X78911075Y-108983300D02*
X78825360Y-109026157D01*
X78825360Y-109026157D02*
X78568217Y-109026157D01*
X78568217Y-109026157D02*
X78482503Y-108983300D01*
X78482503Y-108983300D02*
X78439646Y-108940442D01*
X79553932Y-108126157D02*
X79639646Y-108126157D01*
X79639646Y-108126157D02*
X79725360Y-108169014D01*
X79725360Y-108169014D02*
X79768218Y-108211871D01*
X79768218Y-108211871D02*
X79811075Y-108297585D01*
X79811075Y-108297585D02*
X79853932Y-108469014D01*
X79853932Y-108469014D02*
X79853932Y-108683300D01*
X79853932Y-108683300D02*
X79811075Y-108854728D01*
X79811075Y-108854728D02*
X79768218Y-108940442D01*
X79768218Y-108940442D02*
X79725360Y-108983300D01*
X79725360Y-108983300D02*
X79639646Y-109026157D01*
X79639646Y-109026157D02*
X79553932Y-109026157D01*
X79553932Y-109026157D02*
X79468218Y-108983300D01*
X79468218Y-108983300D02*
X79425360Y-108940442D01*
X79425360Y-108940442D02*
X79382503Y-108854728D01*
X79382503Y-108854728D02*
X79339646Y-108683300D01*
X79339646Y-108683300D02*
X79339646Y-108469014D01*
X79339646Y-108469014D02*
X79382503Y-108297585D01*
X79382503Y-108297585D02*
X79425360Y-108211871D01*
X79425360Y-108211871D02*
X79468218Y-108169014D01*
X79468218Y-108169014D02*
X79553932Y-108126157D01*
X80411075Y-108126157D02*
X80496789Y-108126157D01*
X80496789Y-108126157D02*
X80582503Y-108169014D01*
X80582503Y-108169014D02*
X80625361Y-108211871D01*
X80625361Y-108211871D02*
X80668218Y-108297585D01*
X80668218Y-108297585D02*
X80711075Y-108469014D01*
X80711075Y-108469014D02*
X80711075Y-108683300D01*
X80711075Y-108683300D02*
X80668218Y-108854728D01*
X80668218Y-108854728D02*
X80625361Y-108940442D01*
X80625361Y-108940442D02*
X80582503Y-108983300D01*
X80582503Y-108983300D02*
X80496789Y-109026157D01*
X80496789Y-109026157D02*
X80411075Y-109026157D01*
X80411075Y-109026157D02*
X80325361Y-108983300D01*
X80325361Y-108983300D02*
X80282503Y-108940442D01*
X80282503Y-108940442D02*
X80239646Y-108854728D01*
X80239646Y-108854728D02*
X80196789Y-108683300D01*
X80196789Y-108683300D02*
X80196789Y-108469014D01*
X80196789Y-108469014D02*
X80239646Y-108297585D01*
X80239646Y-108297585D02*
X80282503Y-108211871D01*
X80282503Y-108211871D02*
X80325361Y-108169014D01*
X80325361Y-108169014D02*
X80411075Y-108126157D01*
X81611075Y-109026157D02*
X81311075Y-108597585D01*
X81096789Y-109026157D02*
X81096789Y-108126157D01*
X81096789Y-108126157D02*
X81439646Y-108126157D01*
X81439646Y-108126157D02*
X81525361Y-108169014D01*
X81525361Y-108169014D02*
X81568218Y-108211871D01*
X81568218Y-108211871D02*
X81611075Y-108297585D01*
X81611075Y-108297585D02*
X81611075Y-108426157D01*
X81611075Y-108426157D02*
X81568218Y-108511871D01*
X81568218Y-108511871D02*
X81525361Y-108554728D01*
X81525361Y-108554728D02*
X81439646Y-108597585D01*
X81439646Y-108597585D02*
X81096789Y-108597585D01*
X82039646Y-108983300D02*
X82039646Y-109026157D01*
X82039646Y-109026157D02*
X81996789Y-109111871D01*
X81996789Y-109111871D02*
X81953932Y-109154728D01*
X83582503Y-109026157D02*
X83068217Y-109026157D01*
X83325360Y-109026157D02*
X83325360Y-108126157D01*
X83325360Y-108126157D02*
X83239646Y-108254728D01*
X83239646Y-108254728D02*
X83153931Y-108340442D01*
X83153931Y-108340442D02*
X83068217Y-108383300D01*
X84139646Y-108126157D02*
X84225360Y-108126157D01*
X84225360Y-108126157D02*
X84311074Y-108169014D01*
X84311074Y-108169014D02*
X84353932Y-108211871D01*
X84353932Y-108211871D02*
X84396789Y-108297585D01*
X84396789Y-108297585D02*
X84439646Y-108469014D01*
X84439646Y-108469014D02*
X84439646Y-108683300D01*
X84439646Y-108683300D02*
X84396789Y-108854728D01*
X84396789Y-108854728D02*
X84353932Y-108940442D01*
X84353932Y-108940442D02*
X84311074Y-108983300D01*
X84311074Y-108983300D02*
X84225360Y-109026157D01*
X84225360Y-109026157D02*
X84139646Y-109026157D01*
X84139646Y-109026157D02*
X84053932Y-108983300D01*
X84053932Y-108983300D02*
X84011074Y-108940442D01*
X84011074Y-108940442D02*
X83968217Y-108854728D01*
X83968217Y-108854728D02*
X83925360Y-108683300D01*
X83925360Y-108683300D02*
X83925360Y-108469014D01*
X83925360Y-108469014D02*
X83968217Y-108297585D01*
X83968217Y-108297585D02*
X84011074Y-108211871D01*
X84011074Y-108211871D02*
X84053932Y-108169014D01*
X84053932Y-108169014D02*
X84139646Y-108126157D01*
X84996789Y-108126157D02*
X85082503Y-108126157D01*
X85082503Y-108126157D02*
X85168217Y-108169014D01*
X85168217Y-108169014D02*
X85211075Y-108211871D01*
X85211075Y-108211871D02*
X85253932Y-108297585D01*
X85253932Y-108297585D02*
X85296789Y-108469014D01*
X85296789Y-108469014D02*
X85296789Y-108683300D01*
X85296789Y-108683300D02*
X85253932Y-108854728D01*
X85253932Y-108854728D02*
X85211075Y-108940442D01*
X85211075Y-108940442D02*
X85168217Y-108983300D01*
X85168217Y-108983300D02*
X85082503Y-109026157D01*
X85082503Y-109026157D02*
X84996789Y-109026157D01*
X84996789Y-109026157D02*
X84911075Y-108983300D01*
X84911075Y-108983300D02*
X84868217Y-108940442D01*
X84868217Y-108940442D02*
X84825360Y-108854728D01*
X84825360Y-108854728D02*
X84782503Y-108683300D01*
X84782503Y-108683300D02*
X84782503Y-108469014D01*
X84782503Y-108469014D02*
X84825360Y-108297585D01*
X84825360Y-108297585D02*
X84868217Y-108211871D01*
X84868217Y-108211871D02*
X84911075Y-108169014D01*
X84911075Y-108169014D02*
X84996789Y-108126157D01*
X86196789Y-109026157D02*
X85896789Y-108597585D01*
X85682503Y-109026157D02*
X85682503Y-108126157D01*
X85682503Y-108126157D02*
X86025360Y-108126157D01*
X86025360Y-108126157D02*
X86111075Y-108169014D01*
X86111075Y-108169014D02*
X86153932Y-108211871D01*
X86153932Y-108211871D02*
X86196789Y-108297585D01*
X86196789Y-108297585D02*
X86196789Y-108426157D01*
X86196789Y-108426157D02*
X86153932Y-108511871D01*
X86153932Y-108511871D02*
X86111075Y-108554728D01*
X86111075Y-108554728D02*
X86025360Y-108597585D01*
X86025360Y-108597585D02*
X85682503Y-108597585D01*
X70468217Y-111881200D02*
X70596789Y-111924057D01*
X70596789Y-111924057D02*
X70811074Y-111924057D01*
X70811074Y-111924057D02*
X70896789Y-111881200D01*
X70896789Y-111881200D02*
X70939646Y-111838342D01*
X70939646Y-111838342D02*
X70982503Y-111752628D01*
X70982503Y-111752628D02*
X70982503Y-111666914D01*
X70982503Y-111666914D02*
X70939646Y-111581200D01*
X70939646Y-111581200D02*
X70896789Y-111538342D01*
X70896789Y-111538342D02*
X70811074Y-111495485D01*
X70811074Y-111495485D02*
X70639646Y-111452628D01*
X70639646Y-111452628D02*
X70553931Y-111409771D01*
X70553931Y-111409771D02*
X70511074Y-111366914D01*
X70511074Y-111366914D02*
X70468217Y-111281200D01*
X70468217Y-111281200D02*
X70468217Y-111195485D01*
X70468217Y-111195485D02*
X70511074Y-111109771D01*
X70511074Y-111109771D02*
X70553931Y-111066914D01*
X70553931Y-111066914D02*
X70639646Y-111024057D01*
X70639646Y-111024057D02*
X70853931Y-111024057D01*
X70853931Y-111024057D02*
X70982503Y-111066914D01*
X71539646Y-111495485D02*
X71539646Y-111924057D01*
X71239646Y-111024057D02*
X71539646Y-111495485D01*
X71539646Y-111495485D02*
X71839646Y-111024057D01*
X72139646Y-111924057D02*
X72139646Y-111024057D01*
X72139646Y-111024057D02*
X72653932Y-111924057D01*
X72653932Y-111924057D02*
X72653932Y-111024057D01*
X73596789Y-111838342D02*
X73553932Y-111881200D01*
X73553932Y-111881200D02*
X73425360Y-111924057D01*
X73425360Y-111924057D02*
X73339646Y-111924057D01*
X73339646Y-111924057D02*
X73211075Y-111881200D01*
X73211075Y-111881200D02*
X73125360Y-111795485D01*
X73125360Y-111795485D02*
X73082503Y-111709771D01*
X73082503Y-111709771D02*
X73039646Y-111538342D01*
X73039646Y-111538342D02*
X73039646Y-111409771D01*
X73039646Y-111409771D02*
X73082503Y-111238342D01*
X73082503Y-111238342D02*
X73125360Y-111152628D01*
X73125360Y-111152628D02*
X73211075Y-111066914D01*
X73211075Y-111066914D02*
X73339646Y-111024057D01*
X73339646Y-111024057D02*
X73425360Y-111024057D01*
X73425360Y-111024057D02*
X73553932Y-111066914D01*
X73553932Y-111066914D02*
X73596789Y-111109771D01*
X73982503Y-111838342D02*
X74025360Y-111881200D01*
X74025360Y-111881200D02*
X73982503Y-111924057D01*
X73982503Y-111924057D02*
X73939646Y-111881200D01*
X73939646Y-111881200D02*
X73982503Y-111838342D01*
X73982503Y-111838342D02*
X73982503Y-111924057D01*
X73982503Y-111366914D02*
X74025360Y-111409771D01*
X74025360Y-111409771D02*
X73982503Y-111452628D01*
X73982503Y-111452628D02*
X73939646Y-111409771D01*
X73939646Y-111409771D02*
X73982503Y-111366914D01*
X73982503Y-111366914D02*
X73982503Y-111452628D01*
X75482503Y-111324057D02*
X75482503Y-111924057D01*
X75268217Y-110981200D02*
X75053931Y-111624057D01*
X75053931Y-111624057D02*
X75611074Y-111624057D01*
X75868217Y-111024057D02*
X76468217Y-111024057D01*
X76468217Y-111024057D02*
X76082503Y-111924057D01*
X77325360Y-111924057D02*
X77025360Y-111495485D01*
X76811074Y-111924057D02*
X76811074Y-111024057D01*
X76811074Y-111024057D02*
X77153931Y-111024057D01*
X77153931Y-111024057D02*
X77239646Y-111066914D01*
X77239646Y-111066914D02*
X77282503Y-111109771D01*
X77282503Y-111109771D02*
X77325360Y-111195485D01*
X77325360Y-111195485D02*
X77325360Y-111324057D01*
X77325360Y-111324057D02*
X77282503Y-111409771D01*
X77282503Y-111409771D02*
X77239646Y-111452628D01*
X77239646Y-111452628D02*
X77153931Y-111495485D01*
X77153931Y-111495485D02*
X76811074Y-111495485D01*
X78525360Y-111924057D02*
X78439645Y-111881200D01*
X78439645Y-111881200D02*
X78396788Y-111838342D01*
X78396788Y-111838342D02*
X78353931Y-111752628D01*
X78353931Y-111752628D02*
X78353931Y-111495485D01*
X78353931Y-111495485D02*
X78396788Y-111409771D01*
X78396788Y-111409771D02*
X78439645Y-111366914D01*
X78439645Y-111366914D02*
X78525360Y-111324057D01*
X78525360Y-111324057D02*
X78653931Y-111324057D01*
X78653931Y-111324057D02*
X78739645Y-111366914D01*
X78739645Y-111366914D02*
X78782503Y-111409771D01*
X78782503Y-111409771D02*
X78825360Y-111495485D01*
X78825360Y-111495485D02*
X78825360Y-111752628D01*
X78825360Y-111752628D02*
X78782503Y-111838342D01*
X78782503Y-111838342D02*
X78739645Y-111881200D01*
X78739645Y-111881200D02*
X78653931Y-111924057D01*
X78653931Y-111924057D02*
X78525360Y-111924057D01*
X79211074Y-111924057D02*
X79211074Y-111324057D01*
X79211074Y-111495485D02*
X79253931Y-111409771D01*
X79253931Y-111409771D02*
X79296789Y-111366914D01*
X79296789Y-111366914D02*
X79382503Y-111324057D01*
X79382503Y-111324057D02*
X79468217Y-111324057D01*
X80925360Y-111924057D02*
X80411074Y-111924057D01*
X80668217Y-111924057D02*
X80668217Y-111024057D01*
X80668217Y-111024057D02*
X80582503Y-111152628D01*
X80582503Y-111152628D02*
X80496788Y-111238342D01*
X80496788Y-111238342D02*
X80411074Y-111281200D01*
X81482503Y-111024057D02*
X81568217Y-111024057D01*
X81568217Y-111024057D02*
X81653931Y-111066914D01*
X81653931Y-111066914D02*
X81696789Y-111109771D01*
X81696789Y-111109771D02*
X81739646Y-111195485D01*
X81739646Y-111195485D02*
X81782503Y-111366914D01*
X81782503Y-111366914D02*
X81782503Y-111581200D01*
X81782503Y-111581200D02*
X81739646Y-111752628D01*
X81739646Y-111752628D02*
X81696789Y-111838342D01*
X81696789Y-111838342D02*
X81653931Y-111881200D01*
X81653931Y-111881200D02*
X81568217Y-111924057D01*
X81568217Y-111924057D02*
X81482503Y-111924057D01*
X81482503Y-111924057D02*
X81396789Y-111881200D01*
X81396789Y-111881200D02*
X81353931Y-111838342D01*
X81353931Y-111838342D02*
X81311074Y-111752628D01*
X81311074Y-111752628D02*
X81268217Y-111581200D01*
X81268217Y-111581200D02*
X81268217Y-111366914D01*
X81268217Y-111366914D02*
X81311074Y-111195485D01*
X81311074Y-111195485D02*
X81353931Y-111109771D01*
X81353931Y-111109771D02*
X81396789Y-111066914D01*
X81396789Y-111066914D02*
X81482503Y-111024057D01*
X82339646Y-111024057D02*
X82425360Y-111024057D01*
X82425360Y-111024057D02*
X82511074Y-111066914D01*
X82511074Y-111066914D02*
X82553932Y-111109771D01*
X82553932Y-111109771D02*
X82596789Y-111195485D01*
X82596789Y-111195485D02*
X82639646Y-111366914D01*
X82639646Y-111366914D02*
X82639646Y-111581200D01*
X82639646Y-111581200D02*
X82596789Y-111752628D01*
X82596789Y-111752628D02*
X82553932Y-111838342D01*
X82553932Y-111838342D02*
X82511074Y-111881200D01*
X82511074Y-111881200D02*
X82425360Y-111924057D01*
X82425360Y-111924057D02*
X82339646Y-111924057D01*
X82339646Y-111924057D02*
X82253932Y-111881200D01*
X82253932Y-111881200D02*
X82211074Y-111838342D01*
X82211074Y-111838342D02*
X82168217Y-111752628D01*
X82168217Y-111752628D02*
X82125360Y-111581200D01*
X82125360Y-111581200D02*
X82125360Y-111366914D01*
X82125360Y-111366914D02*
X82168217Y-111195485D01*
X82168217Y-111195485D02*
X82211074Y-111109771D01*
X82211074Y-111109771D02*
X82253932Y-111066914D01*
X82253932Y-111066914D02*
X82339646Y-111024057D01*
X83539646Y-111924057D02*
X83239646Y-111495485D01*
X83025360Y-111924057D02*
X83025360Y-111024057D01*
X83025360Y-111024057D02*
X83368217Y-111024057D01*
X83368217Y-111024057D02*
X83453932Y-111066914D01*
X83453932Y-111066914D02*
X83496789Y-111109771D01*
X83496789Y-111109771D02*
X83539646Y-111195485D01*
X83539646Y-111195485D02*
X83539646Y-111324057D01*
X83539646Y-111324057D02*
X83496789Y-111409771D01*
X83496789Y-111409771D02*
X83453932Y-111452628D01*
X83453932Y-111452628D02*
X83368217Y-111495485D01*
X83368217Y-111495485D02*
X83025360Y-111495485D01*
X55127693Y-105385038D02*
X55032455Y-105337419D01*
X55032455Y-105337419D02*
X54889598Y-105337419D01*
X54889598Y-105337419D02*
X54746741Y-105385038D01*
X54746741Y-105385038D02*
X54651503Y-105480276D01*
X54651503Y-105480276D02*
X54603884Y-105575514D01*
X54603884Y-105575514D02*
X54556265Y-105765990D01*
X54556265Y-105765990D02*
X54556265Y-105908847D01*
X54556265Y-105908847D02*
X54603884Y-106099323D01*
X54603884Y-106099323D02*
X54651503Y-106194561D01*
X54651503Y-106194561D02*
X54746741Y-106289800D01*
X54746741Y-106289800D02*
X54889598Y-106337419D01*
X54889598Y-106337419D02*
X54984836Y-106337419D01*
X54984836Y-106337419D02*
X55127693Y-106289800D01*
X55127693Y-106289800D02*
X55175312Y-106242180D01*
X55175312Y-106242180D02*
X55175312Y-105908847D01*
X55175312Y-105908847D02*
X54984836Y-105908847D01*
X55603884Y-106337419D02*
X55603884Y-105337419D01*
X55603884Y-105337419D02*
X56175312Y-106337419D01*
X56175312Y-106337419D02*
X56175312Y-105337419D01*
X56651503Y-106337419D02*
X56651503Y-105337419D01*
X56651503Y-105337419D02*
X56889598Y-105337419D01*
X56889598Y-105337419D02*
X57032455Y-105385038D01*
X57032455Y-105385038D02*
X57127693Y-105480276D01*
X57127693Y-105480276D02*
X57175312Y-105575514D01*
X57175312Y-105575514D02*
X57222931Y-105765990D01*
X57222931Y-105765990D02*
X57222931Y-105908847D01*
X57222931Y-105908847D02*
X57175312Y-106099323D01*
X57175312Y-106099323D02*
X57127693Y-106194561D01*
X57127693Y-106194561D02*
X57032455Y-106289800D01*
X57032455Y-106289800D02*
X56889598Y-106337419D01*
X56889598Y-106337419D02*
X56651503Y-106337419D01*
X54461027Y-110417419D02*
X54794360Y-111417419D01*
X54794360Y-111417419D02*
X55127693Y-110417419D01*
X55413408Y-111369800D02*
X55556265Y-111417419D01*
X55556265Y-111417419D02*
X55794360Y-111417419D01*
X55794360Y-111417419D02*
X55889598Y-111369800D01*
X55889598Y-111369800D02*
X55937217Y-111322180D01*
X55937217Y-111322180D02*
X55984836Y-111226942D01*
X55984836Y-111226942D02*
X55984836Y-111131704D01*
X55984836Y-111131704D02*
X55937217Y-111036466D01*
X55937217Y-111036466D02*
X55889598Y-110988847D01*
X55889598Y-110988847D02*
X55794360Y-110941228D01*
X55794360Y-110941228D02*
X55603884Y-110893609D01*
X55603884Y-110893609D02*
X55508646Y-110845990D01*
X55508646Y-110845990D02*
X55461027Y-110798371D01*
X55461027Y-110798371D02*
X55413408Y-110703133D01*
X55413408Y-110703133D02*
X55413408Y-110607895D01*
X55413408Y-110607895D02*
X55461027Y-110512657D01*
X55461027Y-110512657D02*
X55508646Y-110465038D01*
X55508646Y-110465038D02*
X55603884Y-110417419D01*
X55603884Y-110417419D02*
X55841979Y-110417419D01*
X55841979Y-110417419D02*
X55984836Y-110465038D01*
X56603884Y-110941228D02*
X56603884Y-111417419D01*
X56270551Y-110417419D02*
X56603884Y-110941228D01*
X56603884Y-110941228D02*
X56937217Y-110417419D01*
X57270551Y-111417419D02*
X57270551Y-110417419D01*
X57270551Y-110417419D02*
X57841979Y-111417419D01*
X57841979Y-111417419D02*
X57841979Y-110417419D01*
X58889598Y-111322180D02*
X58841979Y-111369800D01*
X58841979Y-111369800D02*
X58699122Y-111417419D01*
X58699122Y-111417419D02*
X58603884Y-111417419D01*
X58603884Y-111417419D02*
X58461027Y-111369800D01*
X58461027Y-111369800D02*
X58365789Y-111274561D01*
X58365789Y-111274561D02*
X58318170Y-111179323D01*
X58318170Y-111179323D02*
X58270551Y-110988847D01*
X58270551Y-110988847D02*
X58270551Y-110845990D01*
X58270551Y-110845990D02*
X58318170Y-110655514D01*
X58318170Y-110655514D02*
X58365789Y-110560276D01*
X58365789Y-110560276D02*
X58461027Y-110465038D01*
X58461027Y-110465038D02*
X58603884Y-110417419D01*
X58603884Y-110417419D02*
X58699122Y-110417419D01*
X58699122Y-110417419D02*
X58841979Y-110465038D01*
X58841979Y-110465038D02*
X58889598Y-110512657D01*
X54553884Y-108877419D02*
X54553884Y-107877419D01*
X54553884Y-108353609D02*
X55125312Y-108353609D01*
X55125312Y-108877419D02*
X55125312Y-107877419D01*
X55553884Y-108829800D02*
X55696741Y-108877419D01*
X55696741Y-108877419D02*
X55934836Y-108877419D01*
X55934836Y-108877419D02*
X56030074Y-108829800D01*
X56030074Y-108829800D02*
X56077693Y-108782180D01*
X56077693Y-108782180D02*
X56125312Y-108686942D01*
X56125312Y-108686942D02*
X56125312Y-108591704D01*
X56125312Y-108591704D02*
X56077693Y-108496466D01*
X56077693Y-108496466D02*
X56030074Y-108448847D01*
X56030074Y-108448847D02*
X55934836Y-108401228D01*
X55934836Y-108401228D02*
X55744360Y-108353609D01*
X55744360Y-108353609D02*
X55649122Y-108305990D01*
X55649122Y-108305990D02*
X55601503Y-108258371D01*
X55601503Y-108258371D02*
X55553884Y-108163133D01*
X55553884Y-108163133D02*
X55553884Y-108067895D01*
X55553884Y-108067895D02*
X55601503Y-107972657D01*
X55601503Y-107972657D02*
X55649122Y-107925038D01*
X55649122Y-107925038D02*
X55744360Y-107877419D01*
X55744360Y-107877419D02*
X55982455Y-107877419D01*
X55982455Y-107877419D02*
X56125312Y-107925038D01*
X56744360Y-108401228D02*
X56744360Y-108877419D01*
X56411027Y-107877419D02*
X56744360Y-108401228D01*
X56744360Y-108401228D02*
X57077693Y-107877419D01*
X57411027Y-108877419D02*
X57411027Y-107877419D01*
X57411027Y-107877419D02*
X57982455Y-108877419D01*
X57982455Y-108877419D02*
X57982455Y-107877419D01*
X59030074Y-108782180D02*
X58982455Y-108829800D01*
X58982455Y-108829800D02*
X58839598Y-108877419D01*
X58839598Y-108877419D02*
X58744360Y-108877419D01*
X58744360Y-108877419D02*
X58601503Y-108829800D01*
X58601503Y-108829800D02*
X58506265Y-108734561D01*
X58506265Y-108734561D02*
X58458646Y-108639323D01*
X58458646Y-108639323D02*
X58411027Y-108448847D01*
X58411027Y-108448847D02*
X58411027Y-108305990D01*
X58411027Y-108305990D02*
X58458646Y-108115514D01*
X58458646Y-108115514D02*
X58506265Y-108020276D01*
X58506265Y-108020276D02*
X58601503Y-107925038D01*
X58601503Y-107925038D02*
X58744360Y-107877419D01*
X58744360Y-107877419D02*
X58839598Y-107877419D01*
X58839598Y-107877419D02*
X58982455Y-107925038D01*
X58982455Y-107925038D02*
X59030074Y-107972657D01*
X56283609Y-97029523D02*
X56331228Y-96886666D01*
X56331228Y-96886666D02*
X56378847Y-96839047D01*
X56378847Y-96839047D02*
X56474085Y-96791428D01*
X56474085Y-96791428D02*
X56616942Y-96791428D01*
X56616942Y-96791428D02*
X56712180Y-96839047D01*
X56712180Y-96839047D02*
X56759800Y-96886666D01*
X56759800Y-96886666D02*
X56807419Y-96981904D01*
X56807419Y-96981904D02*
X56807419Y-97362856D01*
X56807419Y-97362856D02*
X55807419Y-97362856D01*
X55807419Y-97362856D02*
X55807419Y-97029523D01*
X55807419Y-97029523D02*
X55855038Y-96934285D01*
X55855038Y-96934285D02*
X55902657Y-96886666D01*
X55902657Y-96886666D02*
X55997895Y-96839047D01*
X55997895Y-96839047D02*
X56093133Y-96839047D01*
X56093133Y-96839047D02*
X56188371Y-96886666D01*
X56188371Y-96886666D02*
X56235990Y-96934285D01*
X56235990Y-96934285D02*
X56283609Y-97029523D01*
X56283609Y-97029523D02*
X56283609Y-97362856D01*
X56807419Y-95886666D02*
X56807419Y-96362856D01*
X56807419Y-96362856D02*
X55807419Y-96362856D01*
X55807419Y-95553332D02*
X56616942Y-95553332D01*
X56616942Y-95553332D02*
X56712180Y-95505713D01*
X56712180Y-95505713D02*
X56759800Y-95458094D01*
X56759800Y-95458094D02*
X56807419Y-95362856D01*
X56807419Y-95362856D02*
X56807419Y-95172380D01*
X56807419Y-95172380D02*
X56759800Y-95077142D01*
X56759800Y-95077142D02*
X56712180Y-95029523D01*
X56712180Y-95029523D02*
X56616942Y-94981904D01*
X56616942Y-94981904D02*
X55807419Y-94981904D01*
X56283609Y-94505713D02*
X56283609Y-94172380D01*
X56807419Y-94029523D02*
X56807419Y-94505713D01*
X56807419Y-94505713D02*
X55807419Y-94505713D01*
X55807419Y-94505713D02*
X55807419Y-94029523D01*
X55855038Y-82146666D02*
X55807419Y-82241904D01*
X55807419Y-82241904D02*
X55807419Y-82384761D01*
X55807419Y-82384761D02*
X55855038Y-82527618D01*
X55855038Y-82527618D02*
X55950276Y-82622856D01*
X55950276Y-82622856D02*
X56045514Y-82670475D01*
X56045514Y-82670475D02*
X56235990Y-82718094D01*
X56235990Y-82718094D02*
X56378847Y-82718094D01*
X56378847Y-82718094D02*
X56569323Y-82670475D01*
X56569323Y-82670475D02*
X56664561Y-82622856D01*
X56664561Y-82622856D02*
X56759800Y-82527618D01*
X56759800Y-82527618D02*
X56807419Y-82384761D01*
X56807419Y-82384761D02*
X56807419Y-82289523D01*
X56807419Y-82289523D02*
X56759800Y-82146666D01*
X56759800Y-82146666D02*
X56712180Y-82099047D01*
X56712180Y-82099047D02*
X56378847Y-82099047D01*
X56378847Y-82099047D02*
X56378847Y-82289523D01*
X56807419Y-81099047D02*
X56331228Y-81432380D01*
X56807419Y-81670475D02*
X55807419Y-81670475D01*
X55807419Y-81670475D02*
X55807419Y-81289523D01*
X55807419Y-81289523D02*
X55855038Y-81194285D01*
X55855038Y-81194285D02*
X55902657Y-81146666D01*
X55902657Y-81146666D02*
X55997895Y-81099047D01*
X55997895Y-81099047D02*
X56140752Y-81099047D01*
X56140752Y-81099047D02*
X56235990Y-81146666D01*
X56235990Y-81146666D02*
X56283609Y-81194285D01*
X56283609Y-81194285D02*
X56331228Y-81289523D01*
X56331228Y-81289523D02*
X56331228Y-81670475D01*
X56283609Y-80670475D02*
X56283609Y-80337142D01*
X56807419Y-80194285D02*
X56807419Y-80670475D01*
X56807419Y-80670475D02*
X55807419Y-80670475D01*
X55807419Y-80670475D02*
X55807419Y-80194285D01*
X56283609Y-79765713D02*
X56283609Y-79432380D01*
X56807419Y-79289523D02*
X56807419Y-79765713D01*
X56807419Y-79765713D02*
X55807419Y-79765713D01*
X55807419Y-79765713D02*
X55807419Y-79289523D01*
X56807419Y-78860951D02*
X55807419Y-78860951D01*
X55807419Y-78860951D02*
X56807419Y-78289523D01*
X56807419Y-78289523D02*
X55807419Y-78289523D01*
X56807419Y-65882857D02*
X56331228Y-66216190D01*
X56807419Y-66454285D02*
X55807419Y-66454285D01*
X55807419Y-66454285D02*
X55807419Y-66073333D01*
X55807419Y-66073333D02*
X55855038Y-65978095D01*
X55855038Y-65978095D02*
X55902657Y-65930476D01*
X55902657Y-65930476D02*
X55997895Y-65882857D01*
X55997895Y-65882857D02*
X56140752Y-65882857D01*
X56140752Y-65882857D02*
X56235990Y-65930476D01*
X56235990Y-65930476D02*
X56283609Y-65978095D01*
X56283609Y-65978095D02*
X56331228Y-66073333D01*
X56331228Y-66073333D02*
X56331228Y-66454285D01*
X56283609Y-65454285D02*
X56283609Y-65120952D01*
X56807419Y-64978095D02*
X56807419Y-65454285D01*
X56807419Y-65454285D02*
X55807419Y-65454285D01*
X55807419Y-65454285D02*
X55807419Y-64978095D01*
X56807419Y-64549523D02*
X55807419Y-64549523D01*
X55807419Y-64549523D02*
X55807419Y-64311428D01*
X55807419Y-64311428D02*
X55855038Y-64168571D01*
X55855038Y-64168571D02*
X55950276Y-64073333D01*
X55950276Y-64073333D02*
X56045514Y-64025714D01*
X56045514Y-64025714D02*
X56235990Y-63978095D01*
X56235990Y-63978095D02*
X56378847Y-63978095D01*
X56378847Y-63978095D02*
X56569323Y-64025714D01*
X56569323Y-64025714D02*
X56664561Y-64073333D01*
X56664561Y-64073333D02*
X56759800Y-64168571D01*
X56759800Y-64168571D02*
X56807419Y-64311428D01*
X56807419Y-64311428D02*
X56807419Y-64549523D01*
D11*
X62684286Y-51574819D02*
X63303333Y-51574819D01*
X63303333Y-51574819D02*
X62970000Y-51955771D01*
X62970000Y-51955771D02*
X63112857Y-51955771D01*
X63112857Y-51955771D02*
X63208095Y-52003390D01*
X63208095Y-52003390D02*
X63255714Y-52051009D01*
X63255714Y-52051009D02*
X63303333Y-52146247D01*
X63303333Y-52146247D02*
X63303333Y-52384342D01*
X63303333Y-52384342D02*
X63255714Y-52479580D01*
X63255714Y-52479580D02*
X63208095Y-52527200D01*
X63208095Y-52527200D02*
X63112857Y-52574819D01*
X63112857Y-52574819D02*
X62827143Y-52574819D01*
X62827143Y-52574819D02*
X62731905Y-52527200D01*
X62731905Y-52527200D02*
X62684286Y-52479580D01*
X63636667Y-51574819D02*
X64255714Y-51574819D01*
X64255714Y-51574819D02*
X63922381Y-51955771D01*
X63922381Y-51955771D02*
X64065238Y-51955771D01*
X64065238Y-51955771D02*
X64160476Y-52003390D01*
X64160476Y-52003390D02*
X64208095Y-52051009D01*
X64208095Y-52051009D02*
X64255714Y-52146247D01*
X64255714Y-52146247D02*
X64255714Y-52384342D01*
X64255714Y-52384342D02*
X64208095Y-52479580D01*
X64208095Y-52479580D02*
X64160476Y-52527200D01*
X64160476Y-52527200D02*
X64065238Y-52574819D01*
X64065238Y-52574819D02*
X63779524Y-52574819D01*
X63779524Y-52574819D02*
X63684286Y-52527200D01*
X63684286Y-52527200D02*
X63636667Y-52479580D01*
X64874762Y-51574819D02*
X64970000Y-51574819D01*
X64970000Y-51574819D02*
X65065238Y-51622438D01*
X65065238Y-51622438D02*
X65112857Y-51670057D01*
X65112857Y-51670057D02*
X65160476Y-51765295D01*
X65160476Y-51765295D02*
X65208095Y-51955771D01*
X65208095Y-51955771D02*
X65208095Y-52193866D01*
X65208095Y-52193866D02*
X65160476Y-52384342D01*
X65160476Y-52384342D02*
X65112857Y-52479580D01*
X65112857Y-52479580D02*
X65065238Y-52527200D01*
X65065238Y-52527200D02*
X64970000Y-52574819D01*
X64970000Y-52574819D02*
X64874762Y-52574819D01*
X64874762Y-52574819D02*
X64779524Y-52527200D01*
X64779524Y-52527200D02*
X64731905Y-52479580D01*
X64731905Y-52479580D02*
X64684286Y-52384342D01*
X64684286Y-52384342D02*
X64636667Y-52193866D01*
X64636667Y-52193866D02*
X64636667Y-51955771D01*
X64636667Y-51955771D02*
X64684286Y-51765295D01*
X64684286Y-51765295D02*
X64731905Y-51670057D01*
X64731905Y-51670057D02*
X64779524Y-51622438D01*
X64779524Y-51622438D02*
X64874762Y-51574819D01*
X73524286Y-45574819D02*
X74143333Y-45574819D01*
X74143333Y-45574819D02*
X73810000Y-45955771D01*
X73810000Y-45955771D02*
X73952857Y-45955771D01*
X73952857Y-45955771D02*
X74048095Y-46003390D01*
X74048095Y-46003390D02*
X74095714Y-46051009D01*
X74095714Y-46051009D02*
X74143333Y-46146247D01*
X74143333Y-46146247D02*
X74143333Y-46384342D01*
X74143333Y-46384342D02*
X74095714Y-46479580D01*
X74095714Y-46479580D02*
X74048095Y-46527200D01*
X74048095Y-46527200D02*
X73952857Y-46574819D01*
X73952857Y-46574819D02*
X73667143Y-46574819D01*
X73667143Y-46574819D02*
X73571905Y-46527200D01*
X73571905Y-46527200D02*
X73524286Y-46479580D01*
X74476667Y-45574819D02*
X75095714Y-45574819D01*
X75095714Y-45574819D02*
X74762381Y-45955771D01*
X74762381Y-45955771D02*
X74905238Y-45955771D01*
X74905238Y-45955771D02*
X75000476Y-46003390D01*
X75000476Y-46003390D02*
X75048095Y-46051009D01*
X75048095Y-46051009D02*
X75095714Y-46146247D01*
X75095714Y-46146247D02*
X75095714Y-46384342D01*
X75095714Y-46384342D02*
X75048095Y-46479580D01*
X75048095Y-46479580D02*
X75000476Y-46527200D01*
X75000476Y-46527200D02*
X74905238Y-46574819D01*
X74905238Y-46574819D02*
X74619524Y-46574819D01*
X74619524Y-46574819D02*
X74524286Y-46527200D01*
X74524286Y-46527200D02*
X74476667Y-46479580D01*
X75714762Y-45574819D02*
X75810000Y-45574819D01*
X75810000Y-45574819D02*
X75905238Y-45622438D01*
X75905238Y-45622438D02*
X75952857Y-45670057D01*
X75952857Y-45670057D02*
X76000476Y-45765295D01*
X76000476Y-45765295D02*
X76048095Y-45955771D01*
X76048095Y-45955771D02*
X76048095Y-46193866D01*
X76048095Y-46193866D02*
X76000476Y-46384342D01*
X76000476Y-46384342D02*
X75952857Y-46479580D01*
X75952857Y-46479580D02*
X75905238Y-46527200D01*
X75905238Y-46527200D02*
X75810000Y-46574819D01*
X75810000Y-46574819D02*
X75714762Y-46574819D01*
X75714762Y-46574819D02*
X75619524Y-46527200D01*
X75619524Y-46527200D02*
X75571905Y-46479580D01*
X75571905Y-46479580D02*
X75524286Y-46384342D01*
X75524286Y-46384342D02*
X75476667Y-46193866D01*
X75476667Y-46193866D02*
X75476667Y-45955771D01*
X75476667Y-45955771D02*
X75524286Y-45765295D01*
X75524286Y-45765295D02*
X75571905Y-45670057D01*
X75571905Y-45670057D02*
X75619524Y-45622438D01*
X75619524Y-45622438D02*
X75714762Y-45574819D01*
X73524286Y-39574819D02*
X74143333Y-39574819D01*
X74143333Y-39574819D02*
X73810000Y-39955771D01*
X73810000Y-39955771D02*
X73952857Y-39955771D01*
X73952857Y-39955771D02*
X74048095Y-40003390D01*
X74048095Y-40003390D02*
X74095714Y-40051009D01*
X74095714Y-40051009D02*
X74143333Y-40146247D01*
X74143333Y-40146247D02*
X74143333Y-40384342D01*
X74143333Y-40384342D02*
X74095714Y-40479580D01*
X74095714Y-40479580D02*
X74048095Y-40527200D01*
X74048095Y-40527200D02*
X73952857Y-40574819D01*
X73952857Y-40574819D02*
X73667143Y-40574819D01*
X73667143Y-40574819D02*
X73571905Y-40527200D01*
X73571905Y-40527200D02*
X73524286Y-40479580D01*
X74476667Y-39574819D02*
X75095714Y-39574819D01*
X75095714Y-39574819D02*
X74762381Y-39955771D01*
X74762381Y-39955771D02*
X74905238Y-39955771D01*
X74905238Y-39955771D02*
X75000476Y-40003390D01*
X75000476Y-40003390D02*
X75048095Y-40051009D01*
X75048095Y-40051009D02*
X75095714Y-40146247D01*
X75095714Y-40146247D02*
X75095714Y-40384342D01*
X75095714Y-40384342D02*
X75048095Y-40479580D01*
X75048095Y-40479580D02*
X75000476Y-40527200D01*
X75000476Y-40527200D02*
X74905238Y-40574819D01*
X74905238Y-40574819D02*
X74619524Y-40574819D01*
X74619524Y-40574819D02*
X74524286Y-40527200D01*
X74524286Y-40527200D02*
X74476667Y-40479580D01*
X75714762Y-39574819D02*
X75810000Y-39574819D01*
X75810000Y-39574819D02*
X75905238Y-39622438D01*
X75905238Y-39622438D02*
X75952857Y-39670057D01*
X75952857Y-39670057D02*
X76000476Y-39765295D01*
X76000476Y-39765295D02*
X76048095Y-39955771D01*
X76048095Y-39955771D02*
X76048095Y-40193866D01*
X76048095Y-40193866D02*
X76000476Y-40384342D01*
X76000476Y-40384342D02*
X75952857Y-40479580D01*
X75952857Y-40479580D02*
X75905238Y-40527200D01*
X75905238Y-40527200D02*
X75810000Y-40574819D01*
X75810000Y-40574819D02*
X75714762Y-40574819D01*
X75714762Y-40574819D02*
X75619524Y-40527200D01*
X75619524Y-40527200D02*
X75571905Y-40479580D01*
X75571905Y-40479580D02*
X75524286Y-40384342D01*
X75524286Y-40384342D02*
X75476667Y-40193866D01*
X75476667Y-40193866D02*
X75476667Y-39955771D01*
X75476667Y-39955771D02*
X75524286Y-39765295D01*
X75524286Y-39765295D02*
X75571905Y-39670057D01*
X75571905Y-39670057D02*
X75619524Y-39622438D01*
X75619524Y-39622438D02*
X75714762Y-39574819D01*
X62684286Y-48574819D02*
X63303333Y-48574819D01*
X63303333Y-48574819D02*
X62970000Y-48955771D01*
X62970000Y-48955771D02*
X63112857Y-48955771D01*
X63112857Y-48955771D02*
X63208095Y-49003390D01*
X63208095Y-49003390D02*
X63255714Y-49051009D01*
X63255714Y-49051009D02*
X63303333Y-49146247D01*
X63303333Y-49146247D02*
X63303333Y-49384342D01*
X63303333Y-49384342D02*
X63255714Y-49479580D01*
X63255714Y-49479580D02*
X63208095Y-49527200D01*
X63208095Y-49527200D02*
X63112857Y-49574819D01*
X63112857Y-49574819D02*
X62827143Y-49574819D01*
X62827143Y-49574819D02*
X62731905Y-49527200D01*
X62731905Y-49527200D02*
X62684286Y-49479580D01*
X63636667Y-48574819D02*
X64255714Y-48574819D01*
X64255714Y-48574819D02*
X63922381Y-48955771D01*
X63922381Y-48955771D02*
X64065238Y-48955771D01*
X64065238Y-48955771D02*
X64160476Y-49003390D01*
X64160476Y-49003390D02*
X64208095Y-49051009D01*
X64208095Y-49051009D02*
X64255714Y-49146247D01*
X64255714Y-49146247D02*
X64255714Y-49384342D01*
X64255714Y-49384342D02*
X64208095Y-49479580D01*
X64208095Y-49479580D02*
X64160476Y-49527200D01*
X64160476Y-49527200D02*
X64065238Y-49574819D01*
X64065238Y-49574819D02*
X63779524Y-49574819D01*
X63779524Y-49574819D02*
X63684286Y-49527200D01*
X63684286Y-49527200D02*
X63636667Y-49479580D01*
X64874762Y-48574819D02*
X64970000Y-48574819D01*
X64970000Y-48574819D02*
X65065238Y-48622438D01*
X65065238Y-48622438D02*
X65112857Y-48670057D01*
X65112857Y-48670057D02*
X65160476Y-48765295D01*
X65160476Y-48765295D02*
X65208095Y-48955771D01*
X65208095Y-48955771D02*
X65208095Y-49193866D01*
X65208095Y-49193866D02*
X65160476Y-49384342D01*
X65160476Y-49384342D02*
X65112857Y-49479580D01*
X65112857Y-49479580D02*
X65065238Y-49527200D01*
X65065238Y-49527200D02*
X64970000Y-49574819D01*
X64970000Y-49574819D02*
X64874762Y-49574819D01*
X64874762Y-49574819D02*
X64779524Y-49527200D01*
X64779524Y-49527200D02*
X64731905Y-49479580D01*
X64731905Y-49479580D02*
X64684286Y-49384342D01*
X64684286Y-49384342D02*
X64636667Y-49193866D01*
X64636667Y-49193866D02*
X64636667Y-48955771D01*
X64636667Y-48955771D02*
X64684286Y-48765295D01*
X64684286Y-48765295D02*
X64731905Y-48670057D01*
X64731905Y-48670057D02*
X64779524Y-48622438D01*
X64779524Y-48622438D02*
X64874762Y-48574819D01*
X62684286Y-54574819D02*
X63303333Y-54574819D01*
X63303333Y-54574819D02*
X62970000Y-54955771D01*
X62970000Y-54955771D02*
X63112857Y-54955771D01*
X63112857Y-54955771D02*
X63208095Y-55003390D01*
X63208095Y-55003390D02*
X63255714Y-55051009D01*
X63255714Y-55051009D02*
X63303333Y-55146247D01*
X63303333Y-55146247D02*
X63303333Y-55384342D01*
X63303333Y-55384342D02*
X63255714Y-55479580D01*
X63255714Y-55479580D02*
X63208095Y-55527200D01*
X63208095Y-55527200D02*
X63112857Y-55574819D01*
X63112857Y-55574819D02*
X62827143Y-55574819D01*
X62827143Y-55574819D02*
X62731905Y-55527200D01*
X62731905Y-55527200D02*
X62684286Y-55479580D01*
X63636667Y-54574819D02*
X64255714Y-54574819D01*
X64255714Y-54574819D02*
X63922381Y-54955771D01*
X63922381Y-54955771D02*
X64065238Y-54955771D01*
X64065238Y-54955771D02*
X64160476Y-55003390D01*
X64160476Y-55003390D02*
X64208095Y-55051009D01*
X64208095Y-55051009D02*
X64255714Y-55146247D01*
X64255714Y-55146247D02*
X64255714Y-55384342D01*
X64255714Y-55384342D02*
X64208095Y-55479580D01*
X64208095Y-55479580D02*
X64160476Y-55527200D01*
X64160476Y-55527200D02*
X64065238Y-55574819D01*
X64065238Y-55574819D02*
X63779524Y-55574819D01*
X63779524Y-55574819D02*
X63684286Y-55527200D01*
X63684286Y-55527200D02*
X63636667Y-55479580D01*
X64874762Y-54574819D02*
X64970000Y-54574819D01*
X64970000Y-54574819D02*
X65065238Y-54622438D01*
X65065238Y-54622438D02*
X65112857Y-54670057D01*
X65112857Y-54670057D02*
X65160476Y-54765295D01*
X65160476Y-54765295D02*
X65208095Y-54955771D01*
X65208095Y-54955771D02*
X65208095Y-55193866D01*
X65208095Y-55193866D02*
X65160476Y-55384342D01*
X65160476Y-55384342D02*
X65112857Y-55479580D01*
X65112857Y-55479580D02*
X65065238Y-55527200D01*
X65065238Y-55527200D02*
X64970000Y-55574819D01*
X64970000Y-55574819D02*
X64874762Y-55574819D01*
X64874762Y-55574819D02*
X64779524Y-55527200D01*
X64779524Y-55527200D02*
X64731905Y-55479580D01*
X64731905Y-55479580D02*
X64684286Y-55384342D01*
X64684286Y-55384342D02*
X64636667Y-55193866D01*
X64636667Y-55193866D02*
X64636667Y-54955771D01*
X64636667Y-54955771D02*
X64684286Y-54765295D01*
X64684286Y-54765295D02*
X64731905Y-54670057D01*
X64731905Y-54670057D02*
X64779524Y-54622438D01*
X64779524Y-54622438D02*
X64874762Y-54574819D01*
X73524286Y-42574819D02*
X74143333Y-42574819D01*
X74143333Y-42574819D02*
X73810000Y-42955771D01*
X73810000Y-42955771D02*
X73952857Y-42955771D01*
X73952857Y-42955771D02*
X74048095Y-43003390D01*
X74048095Y-43003390D02*
X74095714Y-43051009D01*
X74095714Y-43051009D02*
X74143333Y-43146247D01*
X74143333Y-43146247D02*
X74143333Y-43384342D01*
X74143333Y-43384342D02*
X74095714Y-43479580D01*
X74095714Y-43479580D02*
X74048095Y-43527200D01*
X74048095Y-43527200D02*
X73952857Y-43574819D01*
X73952857Y-43574819D02*
X73667143Y-43574819D01*
X73667143Y-43574819D02*
X73571905Y-43527200D01*
X73571905Y-43527200D02*
X73524286Y-43479580D01*
X74476667Y-42574819D02*
X75095714Y-42574819D01*
X75095714Y-42574819D02*
X74762381Y-42955771D01*
X74762381Y-42955771D02*
X74905238Y-42955771D01*
X74905238Y-42955771D02*
X75000476Y-43003390D01*
X75000476Y-43003390D02*
X75048095Y-43051009D01*
X75048095Y-43051009D02*
X75095714Y-43146247D01*
X75095714Y-43146247D02*
X75095714Y-43384342D01*
X75095714Y-43384342D02*
X75048095Y-43479580D01*
X75048095Y-43479580D02*
X75000476Y-43527200D01*
X75000476Y-43527200D02*
X74905238Y-43574819D01*
X74905238Y-43574819D02*
X74619524Y-43574819D01*
X74619524Y-43574819D02*
X74524286Y-43527200D01*
X74524286Y-43527200D02*
X74476667Y-43479580D01*
X75714762Y-42574819D02*
X75810000Y-42574819D01*
X75810000Y-42574819D02*
X75905238Y-42622438D01*
X75905238Y-42622438D02*
X75952857Y-42670057D01*
X75952857Y-42670057D02*
X76000476Y-42765295D01*
X76000476Y-42765295D02*
X76048095Y-42955771D01*
X76048095Y-42955771D02*
X76048095Y-43193866D01*
X76048095Y-43193866D02*
X76000476Y-43384342D01*
X76000476Y-43384342D02*
X75952857Y-43479580D01*
X75952857Y-43479580D02*
X75905238Y-43527200D01*
X75905238Y-43527200D02*
X75810000Y-43574819D01*
X75810000Y-43574819D02*
X75714762Y-43574819D01*
X75714762Y-43574819D02*
X75619524Y-43527200D01*
X75619524Y-43527200D02*
X75571905Y-43479580D01*
X75571905Y-43479580D02*
X75524286Y-43384342D01*
X75524286Y-43384342D02*
X75476667Y-43193866D01*
X75476667Y-43193866D02*
X75476667Y-42955771D01*
X75476667Y-42955771D02*
X75524286Y-42765295D01*
X75524286Y-42765295D02*
X75571905Y-42670057D01*
X75571905Y-42670057D02*
X75619524Y-42622438D01*
X75619524Y-42622438D02*
X75714762Y-42574819D01*
X74143333Y-55574819D02*
X73571905Y-55574819D01*
X73857619Y-55574819D02*
X73857619Y-54574819D01*
X73857619Y-54574819D02*
X73762381Y-54717676D01*
X73762381Y-54717676D02*
X73667143Y-54812914D01*
X73667143Y-54812914D02*
X73571905Y-54860533D01*
X74762381Y-54574819D02*
X74857619Y-54574819D01*
X74857619Y-54574819D02*
X74952857Y-54622438D01*
X74952857Y-54622438D02*
X75000476Y-54670057D01*
X75000476Y-54670057D02*
X75048095Y-54765295D01*
X75048095Y-54765295D02*
X75095714Y-54955771D01*
X75095714Y-54955771D02*
X75095714Y-55193866D01*
X75095714Y-55193866D02*
X75048095Y-55384342D01*
X75048095Y-55384342D02*
X75000476Y-55479580D01*
X75000476Y-55479580D02*
X74952857Y-55527200D01*
X74952857Y-55527200D02*
X74857619Y-55574819D01*
X74857619Y-55574819D02*
X74762381Y-55574819D01*
X74762381Y-55574819D02*
X74667143Y-55527200D01*
X74667143Y-55527200D02*
X74619524Y-55479580D01*
X74619524Y-55479580D02*
X74571905Y-55384342D01*
X74571905Y-55384342D02*
X74524286Y-55193866D01*
X74524286Y-55193866D02*
X74524286Y-54955771D01*
X74524286Y-54955771D02*
X74571905Y-54765295D01*
X74571905Y-54765295D02*
X74619524Y-54670057D01*
X74619524Y-54670057D02*
X74667143Y-54622438D01*
X74667143Y-54622438D02*
X74762381Y-54574819D01*
X75714762Y-54574819D02*
X75810000Y-54574819D01*
X75810000Y-54574819D02*
X75905238Y-54622438D01*
X75905238Y-54622438D02*
X75952857Y-54670057D01*
X75952857Y-54670057D02*
X76000476Y-54765295D01*
X76000476Y-54765295D02*
X76048095Y-54955771D01*
X76048095Y-54955771D02*
X76048095Y-55193866D01*
X76048095Y-55193866D02*
X76000476Y-55384342D01*
X76000476Y-55384342D02*
X75952857Y-55479580D01*
X75952857Y-55479580D02*
X75905238Y-55527200D01*
X75905238Y-55527200D02*
X75810000Y-55574819D01*
X75810000Y-55574819D02*
X75714762Y-55574819D01*
X75714762Y-55574819D02*
X75619524Y-55527200D01*
X75619524Y-55527200D02*
X75571905Y-55479580D01*
X75571905Y-55479580D02*
X75524286Y-55384342D01*
X75524286Y-55384342D02*
X75476667Y-55193866D01*
X75476667Y-55193866D02*
X75476667Y-54955771D01*
X75476667Y-54955771D02*
X75524286Y-54765295D01*
X75524286Y-54765295D02*
X75571905Y-54670057D01*
X75571905Y-54670057D02*
X75619524Y-54622438D01*
X75619524Y-54622438D02*
X75714762Y-54574819D01*
X74143333Y-52574819D02*
X73571905Y-52574819D01*
X73857619Y-52574819D02*
X73857619Y-51574819D01*
X73857619Y-51574819D02*
X73762381Y-51717676D01*
X73762381Y-51717676D02*
X73667143Y-51812914D01*
X73667143Y-51812914D02*
X73571905Y-51860533D01*
X74762381Y-51574819D02*
X74857619Y-51574819D01*
X74857619Y-51574819D02*
X74952857Y-51622438D01*
X74952857Y-51622438D02*
X75000476Y-51670057D01*
X75000476Y-51670057D02*
X75048095Y-51765295D01*
X75048095Y-51765295D02*
X75095714Y-51955771D01*
X75095714Y-51955771D02*
X75095714Y-52193866D01*
X75095714Y-52193866D02*
X75048095Y-52384342D01*
X75048095Y-52384342D02*
X75000476Y-52479580D01*
X75000476Y-52479580D02*
X74952857Y-52527200D01*
X74952857Y-52527200D02*
X74857619Y-52574819D01*
X74857619Y-52574819D02*
X74762381Y-52574819D01*
X74762381Y-52574819D02*
X74667143Y-52527200D01*
X74667143Y-52527200D02*
X74619524Y-52479580D01*
X74619524Y-52479580D02*
X74571905Y-52384342D01*
X74571905Y-52384342D02*
X74524286Y-52193866D01*
X74524286Y-52193866D02*
X74524286Y-51955771D01*
X74524286Y-51955771D02*
X74571905Y-51765295D01*
X74571905Y-51765295D02*
X74619524Y-51670057D01*
X74619524Y-51670057D02*
X74667143Y-51622438D01*
X74667143Y-51622438D02*
X74762381Y-51574819D01*
X75714762Y-51574819D02*
X75810000Y-51574819D01*
X75810000Y-51574819D02*
X75905238Y-51622438D01*
X75905238Y-51622438D02*
X75952857Y-51670057D01*
X75952857Y-51670057D02*
X76000476Y-51765295D01*
X76000476Y-51765295D02*
X76048095Y-51955771D01*
X76048095Y-51955771D02*
X76048095Y-52193866D01*
X76048095Y-52193866D02*
X76000476Y-52384342D01*
X76000476Y-52384342D02*
X75952857Y-52479580D01*
X75952857Y-52479580D02*
X75905238Y-52527200D01*
X75905238Y-52527200D02*
X75810000Y-52574819D01*
X75810000Y-52574819D02*
X75714762Y-52574819D01*
X75714762Y-52574819D02*
X75619524Y-52527200D01*
X75619524Y-52527200D02*
X75571905Y-52479580D01*
X75571905Y-52479580D02*
X75524286Y-52384342D01*
X75524286Y-52384342D02*
X75476667Y-52193866D01*
X75476667Y-52193866D02*
X75476667Y-51955771D01*
X75476667Y-51955771D02*
X75524286Y-51765295D01*
X75524286Y-51765295D02*
X75571905Y-51670057D01*
X75571905Y-51670057D02*
X75619524Y-51622438D01*
X75619524Y-51622438D02*
X75714762Y-51574819D01*
X74143333Y-49574819D02*
X73571905Y-49574819D01*
X73857619Y-49574819D02*
X73857619Y-48574819D01*
X73857619Y-48574819D02*
X73762381Y-48717676D01*
X73762381Y-48717676D02*
X73667143Y-48812914D01*
X73667143Y-48812914D02*
X73571905Y-48860533D01*
X74762381Y-48574819D02*
X74857619Y-48574819D01*
X74857619Y-48574819D02*
X74952857Y-48622438D01*
X74952857Y-48622438D02*
X75000476Y-48670057D01*
X75000476Y-48670057D02*
X75048095Y-48765295D01*
X75048095Y-48765295D02*
X75095714Y-48955771D01*
X75095714Y-48955771D02*
X75095714Y-49193866D01*
X75095714Y-49193866D02*
X75048095Y-49384342D01*
X75048095Y-49384342D02*
X75000476Y-49479580D01*
X75000476Y-49479580D02*
X74952857Y-49527200D01*
X74952857Y-49527200D02*
X74857619Y-49574819D01*
X74857619Y-49574819D02*
X74762381Y-49574819D01*
X74762381Y-49574819D02*
X74667143Y-49527200D01*
X74667143Y-49527200D02*
X74619524Y-49479580D01*
X74619524Y-49479580D02*
X74571905Y-49384342D01*
X74571905Y-49384342D02*
X74524286Y-49193866D01*
X74524286Y-49193866D02*
X74524286Y-48955771D01*
X74524286Y-48955771D02*
X74571905Y-48765295D01*
X74571905Y-48765295D02*
X74619524Y-48670057D01*
X74619524Y-48670057D02*
X74667143Y-48622438D01*
X74667143Y-48622438D02*
X74762381Y-48574819D01*
X75714762Y-48574819D02*
X75810000Y-48574819D01*
X75810000Y-48574819D02*
X75905238Y-48622438D01*
X75905238Y-48622438D02*
X75952857Y-48670057D01*
X75952857Y-48670057D02*
X76000476Y-48765295D01*
X76000476Y-48765295D02*
X76048095Y-48955771D01*
X76048095Y-48955771D02*
X76048095Y-49193866D01*
X76048095Y-49193866D02*
X76000476Y-49384342D01*
X76000476Y-49384342D02*
X75952857Y-49479580D01*
X75952857Y-49479580D02*
X75905238Y-49527200D01*
X75905238Y-49527200D02*
X75810000Y-49574819D01*
X75810000Y-49574819D02*
X75714762Y-49574819D01*
X75714762Y-49574819D02*
X75619524Y-49527200D01*
X75619524Y-49527200D02*
X75571905Y-49479580D01*
X75571905Y-49479580D02*
X75524286Y-49384342D01*
X75524286Y-49384342D02*
X75476667Y-49193866D01*
X75476667Y-49193866D02*
X75476667Y-48955771D01*
X75476667Y-48955771D02*
X75524286Y-48765295D01*
X75524286Y-48765295D02*
X75571905Y-48670057D01*
X75571905Y-48670057D02*
X75619524Y-48622438D01*
X75619524Y-48622438D02*
X75714762Y-48574819D01*
D12*
%TO.C,J4*%
X51160000Y-104500000D02*
X52540000Y-104500000D01*
X51160000Y-105880000D02*
X51160000Y-104500000D01*
X51160000Y-107150000D02*
X51160000Y-114880000D01*
X51160000Y-107150000D02*
X53920000Y-107150000D01*
X51160000Y-114880000D02*
X53920000Y-114880000D01*
X53920000Y-107150000D02*
X53920000Y-114880000D01*
%TO.C,R22*%
X67240000Y-53490000D02*
X67240000Y-53160000D01*
X67240000Y-50750000D02*
X67240000Y-51080000D01*
X60700000Y-53490000D02*
X67240000Y-53490000D01*
X60700000Y-53160000D02*
X60700000Y-53490000D01*
X60700000Y-51080000D02*
X60700000Y-50750000D01*
X60700000Y-50750000D02*
X67240000Y-50750000D01*
%TO.C,R18*%
X78080000Y-47490000D02*
X78080000Y-47160000D01*
X78080000Y-44750000D02*
X78080000Y-45080000D01*
X71540000Y-47490000D02*
X78080000Y-47490000D01*
X71540000Y-47160000D02*
X71540000Y-47490000D01*
X71540000Y-45080000D02*
X71540000Y-44750000D01*
X71540000Y-44750000D02*
X78080000Y-44750000D01*
%TO.C,R20*%
X71540000Y-38750000D02*
X78080000Y-38750000D01*
X71540000Y-39080000D02*
X71540000Y-38750000D01*
X71540000Y-41160000D02*
X71540000Y-41490000D01*
X71540000Y-41490000D02*
X78080000Y-41490000D01*
X78080000Y-38750000D02*
X78080000Y-39080000D01*
X78080000Y-41490000D02*
X78080000Y-41160000D01*
%TO.C,R21*%
X60700000Y-47750000D02*
X67240000Y-47750000D01*
X60700000Y-48080000D02*
X60700000Y-47750000D01*
X60700000Y-50160000D02*
X60700000Y-50490000D01*
X60700000Y-50490000D02*
X67240000Y-50490000D01*
X67240000Y-47750000D02*
X67240000Y-48080000D01*
X67240000Y-50490000D02*
X67240000Y-50160000D01*
%TO.C,R23*%
X67240000Y-56490000D02*
X67240000Y-56160000D01*
X67240000Y-53750000D02*
X67240000Y-54080000D01*
X60700000Y-56490000D02*
X67240000Y-56490000D01*
X60700000Y-56160000D02*
X60700000Y-56490000D01*
X60700000Y-54080000D02*
X60700000Y-53750000D01*
X60700000Y-53750000D02*
X67240000Y-53750000D01*
%TO.C,R19*%
X78080000Y-44490000D02*
X78080000Y-44160000D01*
X78080000Y-41750000D02*
X78080000Y-42080000D01*
X71540000Y-44490000D02*
X78080000Y-44490000D01*
X71540000Y-44160000D02*
X71540000Y-44490000D01*
X71540000Y-42080000D02*
X71540000Y-41750000D01*
X71540000Y-41750000D02*
X78080000Y-41750000D01*
%TO.C,R26*%
X78080000Y-56490000D02*
X78080000Y-56160000D01*
X78080000Y-53750000D02*
X78080000Y-54080000D01*
X71540000Y-56490000D02*
X78080000Y-56490000D01*
X71540000Y-56160000D02*
X71540000Y-56490000D01*
X71540000Y-54080000D02*
X71540000Y-53750000D01*
X71540000Y-53750000D02*
X78080000Y-53750000D01*
%TO.C,R25*%
X78080000Y-53490000D02*
X78080000Y-53160000D01*
X78080000Y-50750000D02*
X78080000Y-51080000D01*
X71540000Y-53490000D02*
X78080000Y-53490000D01*
X71540000Y-53160000D02*
X71540000Y-53490000D01*
X71540000Y-51080000D02*
X71540000Y-50750000D01*
X71540000Y-50750000D02*
X78080000Y-50750000D01*
%TO.C,R24*%
X71540000Y-47750000D02*
X78080000Y-47750000D01*
X71540000Y-48080000D02*
X71540000Y-47750000D01*
X71540000Y-50160000D02*
X71540000Y-50490000D01*
X71540000Y-50490000D02*
X78080000Y-50490000D01*
X78080000Y-47750000D02*
X78080000Y-48080000D01*
X78080000Y-50490000D02*
X78080000Y-50160000D01*
%TO.C,D3*%
X61850000Y-39000000D02*
X66090000Y-39000000D01*
X66090000Y-41240000D01*
X61850000Y-41240000D01*
X61850000Y-39000000D01*
X66740000Y-40120000D02*
X66090000Y-40120000D01*
X62690000Y-39000000D02*
X62690000Y-41240000D01*
X62570000Y-39000000D02*
X62570000Y-41240000D01*
X62450000Y-39000000D02*
X62450000Y-41240000D01*
X61200000Y-40120000D02*
X61850000Y-40120000D01*
%TO.C,J6*%
X51160000Y-46080000D02*
X52540000Y-46080000D01*
X51160000Y-47460000D02*
X51160000Y-46080000D01*
X51160000Y-48730000D02*
X51160000Y-56460000D01*
X51160000Y-48730000D02*
X53920000Y-48730000D01*
X51160000Y-56460000D02*
X53920000Y-56460000D01*
X53920000Y-48730000D02*
X53920000Y-56460000D01*
%TO.C,D2*%
X61200000Y-43120000D02*
X61850000Y-43120000D01*
X62450000Y-42000000D02*
X62450000Y-44240000D01*
X62570000Y-42000000D02*
X62570000Y-44240000D01*
X62690000Y-42000000D02*
X62690000Y-44240000D01*
X66740000Y-43120000D02*
X66090000Y-43120000D01*
X61850000Y-42000000D02*
X66090000Y-42000000D01*
X66090000Y-44240000D01*
X61850000Y-44240000D01*
X61850000Y-42000000D01*
%TO.C,D1*%
X61200000Y-46120000D02*
X61850000Y-46120000D01*
X62450000Y-45000000D02*
X62450000Y-47240000D01*
X62570000Y-45000000D02*
X62570000Y-47240000D01*
X62690000Y-45000000D02*
X62690000Y-47240000D01*
X66740000Y-46120000D02*
X66090000Y-46120000D01*
X61850000Y-45000000D02*
X66090000Y-45000000D01*
X66090000Y-47240000D01*
X61850000Y-47240000D01*
X61850000Y-45000000D01*
%TO.C,J5*%
X74497000Y-66000000D02*
X89697000Y-66000000D01*
X73602662Y-76920000D02*
X74035675Y-77170000D01*
X74035675Y-77170000D02*
X73602662Y-77420000D01*
X73602662Y-77420000D02*
X73602662Y-76920000D01*
X89697000Y-96970000D02*
X74497000Y-96970000D01*
X74497000Y-96970000D02*
X74497000Y-66000000D01*
%TO.C,J1*%
X53920000Y-61430000D02*
X53920000Y-71700000D01*
X51160000Y-71700000D02*
X53920000Y-71700000D01*
X51160000Y-61430000D02*
X53920000Y-61430000D01*
X51160000Y-61430000D02*
X51160000Y-71700000D01*
X51160000Y-60160000D02*
X51160000Y-58780000D01*
X51160000Y-58780000D02*
X52540000Y-58780000D01*
%TO.C,R1*%
X60700000Y-58250000D02*
X67240000Y-58250000D01*
X60700000Y-58580000D02*
X60700000Y-58250000D01*
X60700000Y-60660000D02*
X60700000Y-60990000D01*
X60700000Y-60990000D02*
X67240000Y-60990000D01*
X67240000Y-58250000D02*
X67240000Y-58580000D01*
X67240000Y-60990000D02*
X67240000Y-60660000D01*
%TO.C,R6*%
X67240000Y-76450000D02*
X67240000Y-76120000D01*
X67240000Y-73710000D02*
X67240000Y-74040000D01*
X60700000Y-76450000D02*
X67240000Y-76450000D01*
X60700000Y-76120000D02*
X60700000Y-76450000D01*
X60700000Y-74040000D02*
X60700000Y-73710000D01*
X60700000Y-73710000D02*
X67240000Y-73710000D01*
%TO.C,R2*%
X60700000Y-61250000D02*
X67240000Y-61250000D01*
X60700000Y-61580000D02*
X60700000Y-61250000D01*
X60700000Y-63660000D02*
X60700000Y-63990000D01*
X60700000Y-63990000D02*
X67240000Y-63990000D01*
X67240000Y-61250000D02*
X67240000Y-61580000D01*
X67240000Y-63990000D02*
X67240000Y-63660000D01*
%TO.C,R10*%
X67240000Y-88450000D02*
X67240000Y-88120000D01*
X67240000Y-85710000D02*
X67240000Y-86040000D01*
X60700000Y-88450000D02*
X67240000Y-88450000D01*
X60700000Y-88120000D02*
X60700000Y-88450000D01*
X60700000Y-86040000D02*
X60700000Y-85710000D01*
X60700000Y-85710000D02*
X67240000Y-85710000D01*
%TO.C,R13*%
X67240000Y-97910000D02*
X67240000Y-97580000D01*
X67240000Y-95170000D02*
X67240000Y-95500000D01*
X60700000Y-97910000D02*
X67240000Y-97910000D01*
X60700000Y-97580000D02*
X60700000Y-97910000D01*
X60700000Y-95500000D02*
X60700000Y-95170000D01*
X60700000Y-95170000D02*
X67240000Y-95170000D01*
%TO.C,R5*%
X60700000Y-70250000D02*
X67240000Y-70250000D01*
X60700000Y-70580000D02*
X60700000Y-70250000D01*
X60700000Y-72660000D02*
X60700000Y-72990000D01*
X60700000Y-72990000D02*
X67240000Y-72990000D01*
X67240000Y-70250000D02*
X67240000Y-70580000D01*
X67240000Y-72990000D02*
X67240000Y-72660000D01*
%TO.C,R3*%
X60700000Y-64250000D02*
X67240000Y-64250000D01*
X60700000Y-64580000D02*
X60700000Y-64250000D01*
X60700000Y-66660000D02*
X60700000Y-66990000D01*
X60700000Y-66990000D02*
X67240000Y-66990000D01*
X67240000Y-64250000D02*
X67240000Y-64580000D01*
X67240000Y-66990000D02*
X67240000Y-66660000D01*
%TO.C,R7*%
X67240000Y-79450000D02*
X67240000Y-79120000D01*
X67240000Y-76710000D02*
X67240000Y-77040000D01*
X60700000Y-79450000D02*
X67240000Y-79450000D01*
X60700000Y-79120000D02*
X60700000Y-79450000D01*
X60700000Y-77040000D02*
X60700000Y-76710000D01*
X60700000Y-76710000D02*
X67240000Y-76710000D01*
%TO.C,R4*%
X60700000Y-67250000D02*
X67240000Y-67250000D01*
X60700000Y-67580000D02*
X60700000Y-67250000D01*
X60700000Y-69660000D02*
X60700000Y-69990000D01*
X60700000Y-69990000D02*
X67240000Y-69990000D01*
X67240000Y-67250000D02*
X67240000Y-67580000D01*
X67240000Y-69990000D02*
X67240000Y-69660000D01*
%TO.C,R8*%
X67240000Y-82450000D02*
X67240000Y-82120000D01*
X67240000Y-79710000D02*
X67240000Y-80040000D01*
X60700000Y-82450000D02*
X67240000Y-82450000D01*
X60700000Y-82120000D02*
X60700000Y-82450000D01*
X60700000Y-80040000D02*
X60700000Y-79710000D01*
X60700000Y-79710000D02*
X67240000Y-79710000D01*
%TO.C,R9*%
X67240000Y-85450000D02*
X67240000Y-85120000D01*
X67240000Y-82710000D02*
X67240000Y-83040000D01*
X60700000Y-85450000D02*
X67240000Y-85450000D01*
X60700000Y-85120000D02*
X60700000Y-85450000D01*
X60700000Y-83040000D02*
X60700000Y-82710000D01*
X60700000Y-82710000D02*
X67240000Y-82710000D01*
%TO.C,R11*%
X67240000Y-91910000D02*
X67240000Y-91580000D01*
X67240000Y-89170000D02*
X67240000Y-89500000D01*
X60700000Y-91910000D02*
X67240000Y-91910000D01*
X60700000Y-91580000D02*
X60700000Y-91910000D01*
X60700000Y-89500000D02*
X60700000Y-89170000D01*
X60700000Y-89170000D02*
X67240000Y-89170000D01*
%TO.C,R12*%
X67240000Y-94910000D02*
X67240000Y-94580000D01*
X67240000Y-92170000D02*
X67240000Y-92500000D01*
X60700000Y-94910000D02*
X67240000Y-94910000D01*
X60700000Y-94580000D02*
X60700000Y-94910000D01*
X60700000Y-92500000D02*
X60700000Y-92170000D01*
X60700000Y-92170000D02*
X67240000Y-92170000D01*
%TO.C,R17*%
X67240000Y-112370000D02*
X67240000Y-112040000D01*
X67240000Y-109630000D02*
X67240000Y-109960000D01*
X60700000Y-112370000D02*
X67240000Y-112370000D01*
X60700000Y-112040000D02*
X60700000Y-112370000D01*
X60700000Y-109960000D02*
X60700000Y-109630000D01*
X60700000Y-109630000D02*
X67240000Y-109630000D01*
%TO.C,R14*%
X67240000Y-100910000D02*
X67240000Y-100580000D01*
X67240000Y-98170000D02*
X67240000Y-98500000D01*
X60700000Y-100910000D02*
X67240000Y-100910000D01*
X60700000Y-100580000D02*
X60700000Y-100910000D01*
X60700000Y-98500000D02*
X60700000Y-98170000D01*
X60700000Y-98170000D02*
X67240000Y-98170000D01*
%TO.C,R16*%
X67240000Y-109370000D02*
X67240000Y-109040000D01*
X67240000Y-106630000D02*
X67240000Y-106960000D01*
X60700000Y-109370000D02*
X67240000Y-109370000D01*
X60700000Y-109040000D02*
X60700000Y-109370000D01*
X60700000Y-106960000D02*
X60700000Y-106630000D01*
X60700000Y-106630000D02*
X67240000Y-106630000D01*
%TO.C,R15*%
X67240000Y-103910000D02*
X67240000Y-103580000D01*
X67240000Y-101170000D02*
X67240000Y-101500000D01*
X60700000Y-103910000D02*
X67240000Y-103910000D01*
X60700000Y-103580000D02*
X60700000Y-103910000D01*
X60700000Y-101500000D02*
X60700000Y-101170000D01*
X60700000Y-101170000D02*
X67240000Y-101170000D01*
%TO.C,J3*%
X51160000Y-89260000D02*
X52540000Y-89260000D01*
X51160000Y-90640000D02*
X51160000Y-89260000D01*
X51160000Y-91910000D02*
X51160000Y-102180000D01*
X51160000Y-91910000D02*
X53920000Y-91910000D01*
X51160000Y-102180000D02*
X53920000Y-102180000D01*
X53920000Y-91910000D02*
X53920000Y-102180000D01*
%TO.C,J2*%
X51160000Y-74020000D02*
X52540000Y-74020000D01*
X51160000Y-75400000D02*
X51160000Y-74020000D01*
X51160000Y-76670000D02*
X51160000Y-86940000D01*
X51160000Y-76670000D02*
X53920000Y-76670000D01*
X51160000Y-86940000D02*
X53920000Y-86940000D01*
X53920000Y-76670000D02*
X53920000Y-86940000D01*
%TD*%
M02*
