%TF.GenerationSoftware,KiCad,Pcbnew,9.0.7*%
%TF.CreationDate,2026-07-18T15:47:33+01:00*%
%TF.ProjectId,PicoVGABreakout,5069636f-5647-4414-9272-65616b6f7574,rev?*%
%TF.SameCoordinates,Original*%
%TF.FileFunction,Copper,L1,Top*%
%TF.FilePolarity,Positive*%
%FSLAX46Y46*%
G04 Gerber Fmt 4.6, Leading zero omitted, Abs format (unit mm)*
G04 Created by KiCad (PCBNEW 9.0.7) date 2026-07-18 15:47:33*
%MOMM*%
%LPD*%
G01*
G04 APERTURE LIST*
G04 Aperture macros list*
%AMRoundRect*
0 Rectangle with rounded corners*
0 $1 Rounding radius*
0 $2 $3 $4 $5 $6 $7 $8 $9 X,Y pos of 4 corners*
0 Add a 4 corners polygon primitive as box body*
4,1,4,$2,$3,$4,$5,$6,$7,$8,$9,$2,$3,0*
0 Add four circle primitives for the rounded corners*
1,1,$1+$1,$2,$3*
1,1,$1+$1,$4,$5*
1,1,$1+$1,$6,$7*
1,1,$1+$1,$8,$9*
0 Add four rect primitives between the rounded corners*
20,1,$1+$1,$2,$3,$4,$5,0*
20,1,$1+$1,$4,$5,$6,$7,0*
20,1,$1+$1,$6,$7,$8,$9,0*
20,1,$1+$1,$8,$9,$2,$3,0*%
G04 Aperture macros list end*
%TA.AperFunction,ComponentPad*%
%ADD10R,1.700000X1.700000*%
%TD*%
%TA.AperFunction,ComponentPad*%
%ADD11C,1.700000*%
%TD*%
%TA.AperFunction,ComponentPad*%
%ADD12C,1.600000*%
%TD*%
%TA.AperFunction,ComponentPad*%
%ADD13RoundRect,0.250000X-0.550000X-0.550000X0.550000X-0.550000X0.550000X0.550000X-0.550000X0.550000X0*%
%TD*%
%TA.AperFunction,ComponentPad*%
%ADD14R,1.600000X1.600000*%
%TD*%
%TA.AperFunction,ComponentPad*%
%ADD15C,4.000000*%
%TD*%
%TA.AperFunction,Conductor*%
%ADD16C,0.400000*%
%TD*%
G04 APERTURE END LIST*
D10*
%TO.P,J4,1,Pin_1*%
%TO.N,GND*%
X52540000Y-105880000D03*
D11*
%TO.P,J4,2,Pin_2*%
%TO.N,Net-(J4-Pin_2)*%
X52540000Y-108420000D03*
%TO.P,J4,3,Pin_3*%
%TO.N,Net-(J4-Pin_3)*%
X52540000Y-110960000D03*
%TO.P,J4,4,Pin_4*%
%TO.N,GND*%
X52540000Y-113500000D03*
%TD*%
D12*
%TO.P,R22,2*%
%TO.N,Net-(R19-Pad2)*%
X67780000Y-52120000D03*
%TO.P,R22,1*%
%TO.N,Net-(J6-Pin_3)*%
X60160000Y-52120000D03*
%TD*%
%TO.P,R18,2*%
%TO.N,Net-(R18-Pad2)*%
X78620000Y-46120000D03*
%TO.P,R18,1*%
%TO.N,Net-(D1-A)*%
X71000000Y-46120000D03*
%TD*%
%TO.P,R20,1*%
%TO.N,Net-(D3-A)*%
X71000000Y-40120000D03*
%TO.P,R20,2*%
%TO.N,Net-(R20-Pad2)*%
X78620000Y-40120000D03*
%TD*%
%TO.P,R21,1*%
%TO.N,Net-(J6-Pin_2)*%
X60160000Y-49120000D03*
%TO.P,R21,2*%
%TO.N,Net-(R20-Pad2)*%
X67780000Y-49120000D03*
%TD*%
%TO.P,R23,2*%
%TO.N,Net-(R18-Pad2)*%
X67780000Y-55120000D03*
%TO.P,R23,1*%
%TO.N,Net-(J6-Pin_4)*%
X60160000Y-55120000D03*
%TD*%
%TO.P,R19,2*%
%TO.N,Net-(R19-Pad2)*%
X78620000Y-43120000D03*
%TO.P,R19,1*%
%TO.N,Net-(D2-A)*%
X71000000Y-43120000D03*
%TD*%
%TO.P,R26,2*%
%TO.N,/VGA_B*%
X78620000Y-55120000D03*
%TO.P,R26,1*%
%TO.N,Net-(R18-Pad2)*%
X71000000Y-55120000D03*
%TD*%
%TO.P,R25,2*%
%TO.N,/VGA_G*%
X78620000Y-52120000D03*
%TO.P,R25,1*%
%TO.N,Net-(R19-Pad2)*%
X71000000Y-52120000D03*
%TD*%
%TO.P,R24,1*%
%TO.N,Net-(R20-Pad2)*%
X71000000Y-49120000D03*
%TO.P,R24,2*%
%TO.N,/VGA_R*%
X78620000Y-49120000D03*
%TD*%
%TO.P,D3,2,A*%
%TO.N,Net-(D3-A)*%
X67780000Y-40120000D03*
D13*
%TO.P,D3,1,K*%
%TO.N,Net-(D1-K)*%
X60160000Y-40120000D03*
%TD*%
D10*
%TO.P,J6,1,Pin_1*%
%TO.N,Net-(D1-K)*%
X52540000Y-47460000D03*
D11*
%TO.P,J6,2,Pin_2*%
%TO.N,Net-(J6-Pin_2)*%
X52540000Y-50000000D03*
%TO.P,J6,3,Pin_3*%
%TO.N,Net-(J6-Pin_3)*%
X52540000Y-52540000D03*
%TO.P,J6,4,Pin_4*%
%TO.N,Net-(J6-Pin_4)*%
X52540000Y-55080000D03*
%TD*%
D13*
%TO.P,D2,1,K*%
%TO.N,Net-(D1-K)*%
X60160000Y-43120000D03*
D12*
%TO.P,D2,2,A*%
%TO.N,Net-(D2-A)*%
X67780000Y-43120000D03*
%TD*%
D13*
%TO.P,D1,1,K*%
%TO.N,Net-(D1-K)*%
X60160000Y-46120000D03*
D12*
%TO.P,D1,2,A*%
%TO.N,Net-(D1-A)*%
X67780000Y-46120000D03*
%TD*%
%TO.P,J5,15*%
%TO.N,unconnected-(J5-Pad15)*%
X81407000Y-86330000D03*
%TO.P,J5,14*%
%TO.N,/VSYNC*%
X81407000Y-84040000D03*
%TO.P,J5,13*%
%TO.N,/HSYNC*%
X81407000Y-81750000D03*
%TO.P,J5,12*%
%TO.N,unconnected-(J5-Pad12)*%
X81407000Y-79460000D03*
%TO.P,J5,11*%
%TO.N,unconnected-(J5-Pad11)*%
X81407000Y-77170000D03*
%TO.P,J5,10*%
%TO.N,GND*%
X78867000Y-85185000D03*
%TO.P,J5,9*%
%TO.N,unconnected-(J5-Pad9)*%
X78867000Y-82895000D03*
%TO.P,J5,8*%
%TO.N,GND*%
X78867000Y-80605000D03*
%TO.P,J5,7*%
X78867000Y-78315000D03*
%TO.P,J5,6*%
X78867000Y-76025000D03*
%TO.P,J5,5*%
X76327000Y-86330000D03*
%TO.P,J5,4*%
%TO.N,unconnected-(J5-Pad4)*%
X76327000Y-84040000D03*
%TO.P,J5,3*%
%TO.N,/VGA_B*%
X76327000Y-81750000D03*
%TO.P,J5,2*%
%TO.N,/VGA_G*%
X76327000Y-79460000D03*
D14*
%TO.P,J5,1*%
%TO.N,/VGA_R*%
X76327000Y-77170000D03*
D15*
%TO.P,J5,0*%
%TO.N,GND*%
X78867000Y-68985000D03*
X78867000Y-93985000D03*
%TD*%
D11*
%TO.P,J1,5,Pin_5*%
%TO.N,Net-(J1-Pin_5)*%
X52540000Y-70320000D03*
%TO.P,J1,4,Pin_4*%
%TO.N,Net-(J1-Pin_4)*%
X52540000Y-67780000D03*
%TO.P,J1,3,Pin_3*%
%TO.N,Net-(J1-Pin_3)*%
X52540000Y-65240000D03*
%TO.P,J1,2,Pin_2*%
%TO.N,Net-(J1-Pin_2)*%
X52540000Y-62700000D03*
D10*
%TO.P,J1,1,Pin_1*%
%TO.N,Net-(J1-Pin_1)*%
X52540000Y-60160000D03*
%TD*%
D12*
%TO.P,R1,1*%
%TO.N,Net-(J1-Pin_1)*%
X60160000Y-59620000D03*
%TO.P,R1,2*%
%TO.N,/VGA_R*%
X67780000Y-59620000D03*
%TD*%
%TO.P,R6,2*%
%TO.N,/VGA_G*%
X67780000Y-75080000D03*
%TO.P,R6,1*%
%TO.N,Net-(J2-Pin_1)*%
X60160000Y-75080000D03*
%TD*%
%TO.P,R2,1*%
%TO.N,Net-(J1-Pin_2)*%
X60160000Y-62620000D03*
%TO.P,R2,2*%
%TO.N,/VGA_R*%
X67780000Y-62620000D03*
%TD*%
%TO.P,R10,2*%
%TO.N,/VGA_G*%
X67780000Y-87080000D03*
%TO.P,R10,1*%
%TO.N,Net-(J2-Pin_5)*%
X60160000Y-87080000D03*
%TD*%
%TO.P,R13,2*%
%TO.N,/VGA_B*%
X67780000Y-96540000D03*
%TO.P,R13,1*%
%TO.N,Net-(J3-Pin_3)*%
X60160000Y-96540000D03*
%TD*%
%TO.P,R5,1*%
%TO.N,Net-(J1-Pin_5)*%
X60160000Y-71620000D03*
%TO.P,R5,2*%
%TO.N,/VGA_R*%
X67780000Y-71620000D03*
%TD*%
%TO.P,R3,1*%
%TO.N,Net-(J1-Pin_3)*%
X60160000Y-65620000D03*
%TO.P,R3,2*%
%TO.N,/VGA_R*%
X67780000Y-65620000D03*
%TD*%
%TO.P,R7,2*%
%TO.N,/VGA_G*%
X67780000Y-78080000D03*
%TO.P,R7,1*%
%TO.N,Net-(J2-Pin_2)*%
X60160000Y-78080000D03*
%TD*%
%TO.P,R4,1*%
%TO.N,Net-(J1-Pin_4)*%
X60160000Y-68620000D03*
%TO.P,R4,2*%
%TO.N,/VGA_R*%
X67780000Y-68620000D03*
%TD*%
%TO.P,R8,2*%
%TO.N,/VGA_G*%
X67780000Y-81080000D03*
%TO.P,R8,1*%
%TO.N,Net-(J2-Pin_3)*%
X60160000Y-81080000D03*
%TD*%
%TO.P,R9,2*%
%TO.N,/VGA_G*%
X67780000Y-84080000D03*
%TO.P,R9,1*%
%TO.N,Net-(J2-Pin_4)*%
X60160000Y-84080000D03*
%TD*%
%TO.P,R11,2*%
%TO.N,/VGA_B*%
X67780000Y-90540000D03*
%TO.P,R11,1*%
%TO.N,Net-(J3-Pin_1)*%
X60160000Y-90540000D03*
%TD*%
%TO.P,R12,2*%
%TO.N,/VGA_B*%
X67780000Y-93540000D03*
%TO.P,R12,1*%
%TO.N,Net-(J3-Pin_2)*%
X60160000Y-93540000D03*
%TD*%
%TO.P,R17,2*%
%TO.N,/VSYNC*%
X67780000Y-111000000D03*
%TO.P,R17,1*%
%TO.N,Net-(J4-Pin_3)*%
X60160000Y-111000000D03*
%TD*%
%TO.P,R14,2*%
%TO.N,/VGA_B*%
X67780000Y-99540000D03*
%TO.P,R14,1*%
%TO.N,Net-(J3-Pin_4)*%
X60160000Y-99540000D03*
%TD*%
%TO.P,R16,2*%
%TO.N,/HSYNC*%
X67780000Y-108000000D03*
%TO.P,R16,1*%
%TO.N,Net-(J4-Pin_2)*%
X60160000Y-108000000D03*
%TD*%
%TO.P,R15,2*%
%TO.N,/VGA_B*%
X67780000Y-102540000D03*
%TO.P,R15,1*%
%TO.N,Net-(J3-Pin_5)*%
X60160000Y-102540000D03*
%TD*%
D10*
%TO.P,J3,1,Pin_1*%
%TO.N,Net-(J3-Pin_1)*%
X52540000Y-90640000D03*
D11*
%TO.P,J3,2,Pin_2*%
%TO.N,Net-(J3-Pin_2)*%
X52540000Y-93180000D03*
%TO.P,J3,3,Pin_3*%
%TO.N,Net-(J3-Pin_3)*%
X52540000Y-95720000D03*
%TO.P,J3,4,Pin_4*%
%TO.N,Net-(J3-Pin_4)*%
X52540000Y-98260000D03*
%TO.P,J3,5,Pin_5*%
%TO.N,Net-(J3-Pin_5)*%
X52540000Y-100800000D03*
%TD*%
D10*
%TO.P,J2,1,Pin_1*%
%TO.N,Net-(J2-Pin_1)*%
X52540000Y-75400000D03*
D11*
%TO.P,J2,2,Pin_2*%
%TO.N,Net-(J2-Pin_2)*%
X52540000Y-77940000D03*
%TO.P,J2,3,Pin_3*%
%TO.N,Net-(J2-Pin_3)*%
X52540000Y-80480000D03*
%TO.P,J2,4,Pin_4*%
%TO.N,Net-(J2-Pin_4)*%
X52540000Y-83020000D03*
%TO.P,J2,5,Pin_5*%
%TO.N,Net-(J2-Pin_5)*%
X52540000Y-85560000D03*
%TD*%
D16*
%TO.N,/VGA_R*%
X73482200Y-74325200D02*
X73528200Y-74371200D01*
X73482200Y-54257800D02*
X73482200Y-74325200D01*
X71704200Y-74371200D02*
X73528200Y-74371200D01*
X73528200Y-74371200D02*
X76327000Y-77170000D01*
X68953000Y-71620000D02*
X71704200Y-74371200D01*
X67780000Y-71620000D02*
X68953000Y-71620000D01*
X78620000Y-49120000D02*
X75033300Y-52706700D01*
%TO.N,/VGA_B*%
X76327000Y-81750000D02*
X67780000Y-90297000D01*
X67780000Y-90297000D02*
X67780000Y-90540000D01*
%TO.N,/VGA_G*%
X67788800Y-79460000D02*
X67780000Y-79451200D01*
X76327000Y-79460000D02*
X67788800Y-79460000D01*
X67780000Y-79451200D02*
X67780000Y-87080000D01*
%TO.N,Net-(R20-Pad2)*%
X78620000Y-40368630D02*
X78620000Y-40120000D01*
X71000000Y-49120000D02*
X71000000Y-47988630D01*
X71000000Y-47988630D02*
X78620000Y-40368630D01*
%TO.N,Net-(R19-Pad2)*%
X78620000Y-43368630D02*
X78620000Y-43120000D01*
X71000000Y-50988630D02*
X78620000Y-43368630D01*
X71000000Y-52120000D02*
X71000000Y-50988630D01*
%TO.N,Net-(R18-Pad2)*%
X78620000Y-46368630D02*
X78620000Y-46120000D01*
X71000000Y-55120000D02*
X71000000Y-53988630D01*
X71000000Y-53988630D02*
X78620000Y-46368630D01*
X67780000Y-55120000D02*
X71000000Y-55120000D01*
%TO.N,Net-(R19-Pad2)*%
X67780000Y-52120000D02*
X71000000Y-52120000D01*
%TO.N,Net-(R20-Pad2)*%
X67780000Y-49120000D02*
X71000000Y-49120000D01*
%TO.N,Net-(D1-A)*%
X67780000Y-46120000D02*
X71000000Y-46120000D01*
%TO.N,Net-(D2-A)*%
X67780000Y-43120000D02*
X71000000Y-43120000D01*
%TO.N,Net-(D3-A)*%
X67780000Y-40120000D02*
X71000000Y-40120000D01*
%TO.N,Net-(D1-K)*%
X60160000Y-40120000D02*
X60160000Y-46120000D01*
X58820000Y-47460000D02*
X60160000Y-46120000D01*
X52540000Y-47460000D02*
X58820000Y-47460000D01*
%TO.N,Net-(J6-Pin_2)*%
X53420000Y-49120000D02*
X60160000Y-49120000D01*
X52540000Y-50000000D02*
X53420000Y-49120000D01*
%TO.N,Net-(J6-Pin_3)*%
X59740000Y-52540000D02*
X60160000Y-52120000D01*
X52540000Y-52540000D02*
X59740000Y-52540000D01*
%TO.N,Net-(J6-Pin_4)*%
X60120000Y-55080000D02*
X60160000Y-55120000D01*
X52540000Y-55080000D02*
X60120000Y-55080000D01*
%TO.N,/VSYNC*%
X83278000Y-84040000D02*
X81407000Y-84040000D01*
X84658200Y-98425000D02*
X84658200Y-85420200D01*
X67780000Y-111000000D02*
X72083200Y-111000000D01*
X72083200Y-111000000D02*
X84658200Y-98425000D01*
X84658200Y-85420200D02*
X83278000Y-84040000D01*
%TO.N,/HSYNC*%
X80206000Y-82951000D02*
X81407000Y-81750000D01*
X71424800Y-108000800D02*
X82651600Y-96774000D01*
X82651600Y-96774000D02*
X82651600Y-90906600D01*
X82651600Y-90906600D02*
X80206000Y-88461000D01*
X67780800Y-108000800D02*
X71424800Y-108000800D01*
X67780000Y-108000000D02*
X67780800Y-108000800D01*
X80206000Y-88461000D02*
X80206000Y-82951000D01*
%TO.N,/VGA_B*%
X67780000Y-90540000D02*
X67780000Y-102540000D01*
%TO.N,/VGA_G*%
X67780000Y-75080000D02*
X67780000Y-79451200D01*
%TO.N,/VGA_R*%
X67780000Y-59620000D02*
X67780000Y-71620000D01*
%TO.N,Net-(J4-Pin_3)*%
X52540000Y-110960000D02*
X60120000Y-110960000D01*
X60120000Y-110960000D02*
X60160000Y-111000000D01*
%TO.N,Net-(J4-Pin_2)*%
X59740000Y-108420000D02*
X60160000Y-108000000D01*
X52540000Y-108420000D02*
X59740000Y-108420000D01*
%TO.N,Net-(J3-Pin_5)*%
X54280000Y-102540000D02*
X60160000Y-102540000D01*
X52540000Y-100800000D02*
X54280000Y-102540000D01*
%TO.N,Net-(J3-Pin_4)*%
X53820000Y-99540000D02*
X60160000Y-99540000D01*
X52540000Y-98260000D02*
X53820000Y-99540000D01*
%TO.N,Net-(J3-Pin_3)*%
X52540000Y-95720000D02*
X59340000Y-95720000D01*
X59340000Y-95720000D02*
X60160000Y-96540000D01*
%TO.N,Net-(J3-Pin_2)*%
X59800000Y-93180000D02*
X60160000Y-93540000D01*
X52540000Y-93180000D02*
X59800000Y-93180000D01*
%TO.N,Net-(J3-Pin_1)*%
X60060000Y-90640000D02*
X60160000Y-90540000D01*
X52540000Y-90640000D02*
X60060000Y-90640000D01*
%TO.N,Net-(J1-Pin_4)*%
X52540000Y-67780000D02*
X59320000Y-67780000D01*
X59320000Y-67780000D02*
X60160000Y-68620000D01*
%TO.N,Net-(J1-Pin_3)*%
X59780000Y-65240000D02*
X60160000Y-65620000D01*
X52540000Y-65240000D02*
X59780000Y-65240000D01*
%TO.N,Net-(J1-Pin_5)*%
X53840000Y-71620000D02*
X60160000Y-71620000D01*
X52540000Y-70320000D02*
X53840000Y-71620000D01*
%TO.N,Net-(J2-Pin_4)*%
X53600000Y-84080000D02*
X60160000Y-84080000D01*
X52540000Y-83020000D02*
X53600000Y-84080000D01*
%TO.N,Net-(J2-Pin_5)*%
X54060000Y-87080000D02*
X60160000Y-87080000D01*
X52540000Y-85560000D02*
X54060000Y-87080000D01*
%TO.N,Net-(J2-Pin_3)*%
X52540000Y-80480000D02*
X59560000Y-80480000D01*
X59560000Y-80480000D02*
X60160000Y-81080000D01*
%TO.N,Net-(J2-Pin_2)*%
X60020000Y-77940000D02*
X60160000Y-78080000D01*
X52540000Y-77940000D02*
X60020000Y-77940000D01*
%TO.N,Net-(J2-Pin_1)*%
X59840000Y-75400000D02*
X60160000Y-75080000D01*
X52540000Y-75400000D02*
X59840000Y-75400000D01*
%TO.N,Net-(J1-Pin_2)*%
X60080000Y-62700000D02*
X60160000Y-62620000D01*
X52540000Y-62700000D02*
X60080000Y-62700000D01*
%TO.N,Net-(J1-Pin_1)*%
X59620000Y-60160000D02*
X60160000Y-59620000D01*
X52540000Y-60160000D02*
X59620000Y-60160000D01*
%TO.N,/VGA_R*%
X75033300Y-52706700D02*
X73482200Y-54257800D01*
%TD*%
%TA.AperFunction,Conductor*%
%TO.N,GND*%
G36*
X77486334Y-78138151D02*
G01*
X77542267Y-78180023D01*
X77566684Y-78245487D01*
X77567000Y-78254333D01*
X77567000Y-78417317D01*
X77599009Y-78619417D01*
X77662244Y-78814031D01*
X77755141Y-78996350D01*
X77755147Y-78996359D01*
X77787523Y-79040921D01*
X77787524Y-79040922D01*
X78384037Y-78444409D01*
X78401075Y-78507993D01*
X78466901Y-78622007D01*
X78559993Y-78715099D01*
X78674007Y-78780925D01*
X78737590Y-78797962D01*
X78141076Y-79394474D01*
X78145468Y-79450276D01*
X78145468Y-79469733D01*
X78141077Y-79525524D01*
X78737591Y-80122037D01*
X78674007Y-80139075D01*
X78559993Y-80204901D01*
X78466901Y-80297993D01*
X78401075Y-80412007D01*
X78384037Y-80475590D01*
X77787524Y-79879077D01*
X77787523Y-79879077D01*
X77755143Y-79923644D01*
X77662244Y-80105968D01*
X77599009Y-80300582D01*
X77567000Y-80502682D01*
X77567000Y-80707317D01*
X77599009Y-80909417D01*
X77662244Y-81104031D01*
X77755141Y-81286350D01*
X77755147Y-81286359D01*
X77787523Y-81330921D01*
X77787524Y-81330922D01*
X78384037Y-80734409D01*
X78401075Y-80797993D01*
X78466901Y-80912007D01*
X78559993Y-81005099D01*
X78674007Y-81070925D01*
X78737590Y-81087962D01*
X78141076Y-81684474D01*
X78185650Y-81716859D01*
X78258478Y-81753967D01*
X78309274Y-81801941D01*
X78326069Y-81869762D01*
X78303532Y-81935897D01*
X78275068Y-81964770D01*
X78150072Y-82055586D01*
X78150070Y-82055588D01*
X78150069Y-82055588D01*
X78027588Y-82178069D01*
X78027588Y-82178070D01*
X78027586Y-82178072D01*
X78025822Y-82180500D01*
X77925768Y-82318211D01*
X77847128Y-82472552D01*
X77793597Y-82637302D01*
X77768313Y-82796943D01*
X77766500Y-82808389D01*
X77766500Y-82981611D01*
X77773199Y-83023909D01*
X77785234Y-83099897D01*
X77793598Y-83152701D01*
X77847127Y-83317445D01*
X77925768Y-83471788D01*
X78027586Y-83611928D01*
X78150072Y-83734414D01*
X78215980Y-83782299D01*
X78275069Y-83825230D01*
X78317734Y-83880560D01*
X78323713Y-83950174D01*
X78291107Y-84011969D01*
X78258478Y-84036033D01*
X78185644Y-84073143D01*
X78141077Y-84105523D01*
X78141077Y-84105524D01*
X78737590Y-84702037D01*
X78674007Y-84719075D01*
X78559993Y-84784901D01*
X78466901Y-84877993D01*
X78401075Y-84992007D01*
X78384037Y-85055590D01*
X77787524Y-84459077D01*
X77787523Y-84459077D01*
X77755143Y-84503644D01*
X77662244Y-84685968D01*
X77599009Y-84880582D01*
X77567000Y-85082682D01*
X77567000Y-85287317D01*
X77595223Y-85465511D01*
X77586268Y-85534805D01*
X77541272Y-85588257D01*
X77474521Y-85608896D01*
X77463022Y-85608527D01*
X77406474Y-85604076D01*
X76809962Y-86200589D01*
X76792925Y-86137007D01*
X76727099Y-86022993D01*
X76634007Y-85929901D01*
X76519993Y-85864075D01*
X76456408Y-85847037D01*
X77052922Y-85250524D01*
X77052921Y-85250523D01*
X77008359Y-85218147D01*
X77008350Y-85218141D01*
X76935521Y-85181033D01*
X76884725Y-85133059D01*
X76867930Y-85065238D01*
X76890467Y-84999103D01*
X76918927Y-84970232D01*
X77043928Y-84879414D01*
X77166414Y-84756928D01*
X77268232Y-84616788D01*
X77346873Y-84462445D01*
X77400402Y-84297701D01*
X77427500Y-84126611D01*
X77427500Y-83953389D01*
X77400402Y-83782299D01*
X77346873Y-83617555D01*
X77268232Y-83463212D01*
X77166414Y-83323072D01*
X77043928Y-83200586D01*
X76903788Y-83098768D01*
X76749445Y-83020127D01*
X76727295Y-83012930D01*
X76669621Y-82973494D01*
X76642423Y-82909135D01*
X76654338Y-82840289D01*
X76701582Y-82788813D01*
X76727294Y-82777070D01*
X76749445Y-82769873D01*
X76903788Y-82691232D01*
X77043928Y-82589414D01*
X77166414Y-82466928D01*
X77268232Y-82326788D01*
X77346873Y-82172445D01*
X77400402Y-82007701D01*
X77427500Y-81836611D01*
X77427500Y-81663389D01*
X77400402Y-81492299D01*
X77346873Y-81327555D01*
X77268232Y-81173212D01*
X77166414Y-81033072D01*
X77043928Y-80910586D01*
X76903788Y-80808768D01*
X76749445Y-80730127D01*
X76727295Y-80722930D01*
X76669621Y-80683494D01*
X76642423Y-80619135D01*
X76654338Y-80550289D01*
X76701582Y-80498813D01*
X76710537Y-80493904D01*
X76718666Y-80489873D01*
X76749445Y-80479873D01*
X76903788Y-80401232D01*
X77043928Y-80299414D01*
X77166414Y-80176928D01*
X77268232Y-80036788D01*
X77346873Y-79882445D01*
X77400402Y-79717701D01*
X77427500Y-79546611D01*
X77427500Y-79373389D01*
X77400402Y-79202299D01*
X77346873Y-79037555D01*
X77268232Y-78883212D01*
X77166414Y-78743072D01*
X77043928Y-78620586D01*
X76903788Y-78518768D01*
X76876734Y-78504983D01*
X76825939Y-78457010D01*
X76809144Y-78389189D01*
X76831681Y-78323054D01*
X76886396Y-78279602D01*
X76933029Y-78270499D01*
X77171864Y-78270499D01*
X77171879Y-78270497D01*
X77171882Y-78270497D01*
X77196987Y-78267586D01*
X77196988Y-78267585D01*
X77196991Y-78267585D01*
X77299765Y-78222206D01*
X77355319Y-78166652D01*
X77416642Y-78133167D01*
X77486334Y-78138151D01*
G37*
%TD.AperFunction*%
%TA.AperFunction,Conductor*%
G36*
X78401075Y-76217993D02*
G01*
X78466901Y-76332007D01*
X78559993Y-76425099D01*
X78674007Y-76490925D01*
X78737590Y-76507962D01*
X78141076Y-77104474D01*
X78145468Y-77160276D01*
X78145468Y-77179733D01*
X78141077Y-77235524D01*
X78737591Y-77832037D01*
X78674007Y-77849075D01*
X78559993Y-77914901D01*
X78466901Y-78007993D01*
X78401075Y-78122007D01*
X78384037Y-78185590D01*
X77787524Y-77589077D01*
X77787523Y-77589077D01*
X77755143Y-77633644D01*
X77661984Y-77816479D01*
X77614009Y-77867275D01*
X77546188Y-77884070D01*
X77480053Y-77861532D01*
X77436602Y-77806817D01*
X77427499Y-77760188D01*
X77427499Y-76579813D01*
X77447184Y-76512775D01*
X77499988Y-76467020D01*
X77569146Y-76457076D01*
X77632702Y-76486101D01*
X77661984Y-76523519D01*
X77755141Y-76706350D01*
X77755147Y-76706359D01*
X77787523Y-76750921D01*
X77787524Y-76750922D01*
X78384037Y-76154409D01*
X78401075Y-76217993D01*
G37*
%TD.AperFunction*%
%TA.AperFunction,Conductor*%
G36*
X89442539Y-37820185D02*
G01*
X89488294Y-37872989D01*
X89499500Y-37924500D01*
X89499500Y-115415500D01*
X89479815Y-115482539D01*
X89427011Y-115528294D01*
X89375500Y-115539500D01*
X50624500Y-115539500D01*
X50557461Y-115519815D01*
X50511706Y-115467011D01*
X50500500Y-115415500D01*
X50500500Y-104982155D01*
X51190000Y-104982155D01*
X51190000Y-105630000D01*
X52106988Y-105630000D01*
X52074075Y-105687007D01*
X52040000Y-105814174D01*
X52040000Y-105945826D01*
X52074075Y-106072993D01*
X52106988Y-106130000D01*
X51190000Y-106130000D01*
X51190000Y-106777844D01*
X51196401Y-106837372D01*
X51196403Y-106837379D01*
X51246645Y-106972086D01*
X51246649Y-106972093D01*
X51332809Y-107087187D01*
X51332812Y-107087190D01*
X51447906Y-107173350D01*
X51447913Y-107173354D01*
X51582620Y-107223596D01*
X51582627Y-107223598D01*
X51642155Y-107229999D01*
X51642172Y-107230000D01*
X51838913Y-107230000D01*
X51905952Y-107249685D01*
X51951707Y-107302489D01*
X51961651Y-107371647D01*
X51932626Y-107435203D01*
X51911798Y-107454318D01*
X51790504Y-107542441D01*
X51662445Y-107670500D01*
X51662441Y-107670505D01*
X51556006Y-107817002D01*
X51473788Y-107978360D01*
X51473787Y-107978363D01*
X51417829Y-108150589D01*
X51389500Y-108329448D01*
X51389500Y-108510551D01*
X51417829Y-108689410D01*
X51473787Y-108861636D01*
X51473788Y-108861639D01*
X51556006Y-109022997D01*
X51662441Y-109169494D01*
X51662445Y-109169499D01*
X51790500Y-109297554D01*
X51790505Y-109297558D01*
X51918287Y-109390396D01*
X51937006Y-109403996D01*
X52042484Y-109457740D01*
X52098360Y-109486211D01*
X52098363Y-109486212D01*
X52184476Y-109514191D01*
X52270591Y-109542171D01*
X52343639Y-109553740D01*
X52430678Y-109567527D01*
X52493813Y-109597456D01*
X52530744Y-109656768D01*
X52529746Y-109726631D01*
X52491136Y-109784863D01*
X52430678Y-109812473D01*
X52270589Y-109837829D01*
X52098363Y-109893787D01*
X52098360Y-109893788D01*
X51937002Y-109976006D01*
X51790505Y-110082441D01*
X51790500Y-110082445D01*
X51662445Y-110210500D01*
X51662441Y-110210505D01*
X51556006Y-110357002D01*
X51473788Y-110518360D01*
X51473787Y-110518363D01*
X51417829Y-110690589D01*
X51389500Y-110869448D01*
X51389500Y-111050551D01*
X51417829Y-111229410D01*
X51473787Y-111401636D01*
X51473788Y-111401639D01*
X51556006Y-111562997D01*
X51662441Y-111709494D01*
X51662445Y-111709499D01*
X51790500Y-111837554D01*
X51790505Y-111837558D01*
X51793060Y-111839414D01*
X51937006Y-111943996D01*
X52038780Y-111995853D01*
X52068684Y-112011090D01*
X52119480Y-112059065D01*
X52136275Y-112126886D01*
X52113737Y-112193021D01*
X52059022Y-112236472D01*
X52050708Y-112239506D01*
X52021781Y-112248905D01*
X51832439Y-112345380D01*
X51778282Y-112384727D01*
X51778282Y-112384728D01*
X52410591Y-113017037D01*
X52347007Y-113034075D01*
X52232993Y-113099901D01*
X52139901Y-113192993D01*
X52074075Y-113307007D01*
X52057037Y-113370591D01*
X51424728Y-112738282D01*
X51424727Y-112738282D01*
X51385380Y-112792439D01*
X51288904Y-112981782D01*
X51223242Y-113183869D01*
X51223242Y-113183872D01*
X51190000Y-113393753D01*
X51190000Y-113606246D01*
X51223242Y-113816127D01*
X51223242Y-113816130D01*
X51288904Y-114018217D01*
X51385375Y-114207550D01*
X51424728Y-114261716D01*
X52057037Y-113629408D01*
X52074075Y-113692993D01*
X52139901Y-113807007D01*
X52232993Y-113900099D01*
X52347007Y-113965925D01*
X52410590Y-113982962D01*
X51778282Y-114615269D01*
X51778282Y-114615270D01*
X51832449Y-114654624D01*
X52021782Y-114751095D01*
X52223870Y-114816757D01*
X52433754Y-114850000D01*
X52646246Y-114850000D01*
X52856127Y-114816757D01*
X52856130Y-114816757D01*
X53058217Y-114751095D01*
X53247554Y-114654622D01*
X53301716Y-114615270D01*
X53301717Y-114615270D01*
X52669408Y-113982962D01*
X52732993Y-113965925D01*
X52847007Y-113900099D01*
X52940099Y-113807007D01*
X53005925Y-113692993D01*
X53022962Y-113629408D01*
X53655270Y-114261717D01*
X53655270Y-114261716D01*
X53694622Y-114207554D01*
X53791095Y-114018217D01*
X53856757Y-113816130D01*
X53856757Y-113816127D01*
X53890000Y-113606246D01*
X53890000Y-113393753D01*
X53856757Y-113183872D01*
X53856757Y-113183869D01*
X53791095Y-112981782D01*
X53694624Y-112792449D01*
X53655270Y-112738282D01*
X53655269Y-112738282D01*
X53022962Y-113370590D01*
X53005925Y-113307007D01*
X52940099Y-113192993D01*
X52847007Y-113099901D01*
X52732993Y-113034075D01*
X52669409Y-113017037D01*
X53301716Y-112384728D01*
X53247550Y-112345375D01*
X53058217Y-112248904D01*
X53029292Y-112239506D01*
X52971616Y-112200068D01*
X52944418Y-112135710D01*
X52956333Y-112066863D01*
X53003577Y-112015388D01*
X53011315Y-112011090D01*
X53142994Y-111943996D01*
X53289501Y-111837553D01*
X53417553Y-111709501D01*
X53523996Y-111562994D01*
X53541722Y-111528204D01*
X53589697Y-111477409D01*
X53652207Y-111460500D01*
X59083530Y-111460500D01*
X59150569Y-111480185D01*
X59194015Y-111528206D01*
X59218766Y-111576784D01*
X59218770Y-111576792D01*
X59261100Y-111635053D01*
X59320586Y-111716928D01*
X59443072Y-111839414D01*
X59583212Y-111941232D01*
X59737555Y-112019873D01*
X59902299Y-112073402D01*
X60073389Y-112100500D01*
X60073390Y-112100500D01*
X60246610Y-112100500D01*
X60246611Y-112100500D01*
X60417701Y-112073402D01*
X60582445Y-112019873D01*
X60736788Y-111941232D01*
X60876928Y-111839414D01*
X60999414Y-111716928D01*
X61101232Y-111576788D01*
X61179873Y-111422445D01*
X61233402Y-111257701D01*
X61260500Y-111086611D01*
X61260500Y-110913389D01*
X61233402Y-110742299D01*
X61179873Y-110577555D01*
X61101232Y-110423212D01*
X60999414Y-110283072D01*
X60876928Y-110160586D01*
X60736788Y-110058768D01*
X60582445Y-109980127D01*
X60417701Y-109926598D01*
X60417699Y-109926597D01*
X60417698Y-109926597D01*
X60286271Y-109905781D01*
X60246611Y-109899500D01*
X60073389Y-109899500D01*
X60033728Y-109905781D01*
X59902302Y-109926597D01*
X59737552Y-109980128D01*
X59583211Y-110058768D01*
X59503256Y-110116859D01*
X59443072Y-110160586D01*
X59443070Y-110160588D01*
X59443069Y-110160588D01*
X59320588Y-110283069D01*
X59320588Y-110283070D01*
X59320586Y-110283072D01*
X59266873Y-110357002D01*
X59229540Y-110408386D01*
X59174210Y-110451051D01*
X59129222Y-110459500D01*
X53652207Y-110459500D01*
X53585168Y-110439815D01*
X53541722Y-110391795D01*
X53523996Y-110357006D01*
X53470278Y-110283069D01*
X53417558Y-110210505D01*
X53417554Y-110210500D01*
X53289499Y-110082445D01*
X53289494Y-110082441D01*
X53142997Y-109976006D01*
X53142996Y-109976005D01*
X53142994Y-109976004D01*
X53091300Y-109949664D01*
X52981639Y-109893788D01*
X52981636Y-109893787D01*
X52809410Y-109837829D01*
X52649321Y-109812473D01*
X52586186Y-109782544D01*
X52549255Y-109723232D01*
X52550253Y-109653370D01*
X52588863Y-109595137D01*
X52649321Y-109567527D01*
X52719425Y-109556422D01*
X52809409Y-109542171D01*
X52981639Y-109486211D01*
X53142994Y-109403996D01*
X53289501Y-109297553D01*
X53417553Y-109169501D01*
X53523996Y-109022994D01*
X53541722Y-108988204D01*
X53589697Y-108937409D01*
X53652207Y-108920500D01*
X59514408Y-108920500D01*
X59579194Y-108938771D01*
X59583200Y-108941225D01*
X59583207Y-108941229D01*
X59583212Y-108941232D01*
X59737555Y-109019873D01*
X59902299Y-109073402D01*
X60073389Y-109100500D01*
X60073390Y-109100500D01*
X60246610Y-109100500D01*
X60246611Y-109100500D01*
X60417701Y-109073402D01*
X60582445Y-109019873D01*
X60736788Y-108941232D01*
X60876928Y-108839414D01*
X60999414Y-108716928D01*
X61101232Y-108576788D01*
X61179873Y-108422445D01*
X61233402Y-108257701D01*
X61260500Y-108086611D01*
X61260500Y-107913389D01*
X61233402Y-107742299D01*
X61179873Y-107577555D01*
X61101232Y-107423212D01*
X60999414Y-107283072D01*
X60876928Y-107160586D01*
X60736788Y-107058768D01*
X60582445Y-106980127D01*
X60417701Y-106926598D01*
X60417699Y-106926597D01*
X60417698Y-106926597D01*
X60286271Y-106905781D01*
X60246611Y-106899500D01*
X60073389Y-106899500D01*
X60033728Y-106905781D01*
X59902302Y-106926597D01*
X59902299Y-106926598D01*
X59762303Y-106972086D01*
X59737552Y-106980128D01*
X59583211Y-107058768D01*
X59503256Y-107116859D01*
X59443072Y-107160586D01*
X59443070Y-107160588D01*
X59443069Y-107160588D01*
X59320588Y-107283069D01*
X59320588Y-107283070D01*
X59320586Y-107283072D01*
X59306479Y-107302489D01*
X59218768Y-107423211D01*
X59140128Y-107577552D01*
X59086597Y-107742302D01*
X59075099Y-107814898D01*
X59045170Y-107878033D01*
X58985858Y-107914964D01*
X58952626Y-107919500D01*
X53652207Y-107919500D01*
X53585168Y-107899815D01*
X53541722Y-107851795D01*
X53523996Y-107817006D01*
X53469721Y-107742302D01*
X53417558Y-107670505D01*
X53417554Y-107670500D01*
X53289495Y-107542441D01*
X53168202Y-107454318D01*
X53125536Y-107398989D01*
X53119557Y-107329375D01*
X53152162Y-107267580D01*
X53213001Y-107233223D01*
X53241087Y-107230000D01*
X53437828Y-107230000D01*
X53437844Y-107229999D01*
X53497372Y-107223598D01*
X53497379Y-107223596D01*
X53632086Y-107173354D01*
X53632093Y-107173350D01*
X53747187Y-107087190D01*
X53747190Y-107087187D01*
X53833350Y-106972093D01*
X53833354Y-106972086D01*
X53883596Y-106837379D01*
X53883598Y-106837372D01*
X53889999Y-106777844D01*
X53890000Y-106777827D01*
X53890000Y-106130000D01*
X52973012Y-106130000D01*
X53005925Y-106072993D01*
X53040000Y-105945826D01*
X53040000Y-105814174D01*
X53005925Y-105687007D01*
X52973012Y-105630000D01*
X53890000Y-105630000D01*
X53890000Y-104982172D01*
X53889999Y-104982155D01*
X53883598Y-104922627D01*
X53883596Y-104922620D01*
X53833354Y-104787913D01*
X53833350Y-104787906D01*
X53747190Y-104672812D01*
X53747187Y-104672809D01*
X53632093Y-104586649D01*
X53632086Y-104586645D01*
X53497379Y-104536403D01*
X53497372Y-104536401D01*
X53437844Y-104530000D01*
X52790000Y-104530000D01*
X52790000Y-105446988D01*
X52732993Y-105414075D01*
X52605826Y-105380000D01*
X52474174Y-105380000D01*
X52347007Y-105414075D01*
X52290000Y-105446988D01*
X52290000Y-104530000D01*
X51642155Y-104530000D01*
X51582627Y-104536401D01*
X51582620Y-104536403D01*
X51447913Y-104586645D01*
X51447906Y-104586649D01*
X51332812Y-104672809D01*
X51332809Y-104672812D01*
X51246649Y-104787906D01*
X51246645Y-104787913D01*
X51196403Y-104922620D01*
X51196401Y-104922627D01*
X51190000Y-104982155D01*
X50500500Y-104982155D01*
X50500500Y-89745131D01*
X51389500Y-89745131D01*
X51389500Y-91534856D01*
X51389502Y-91534882D01*
X51392413Y-91559987D01*
X51392415Y-91559991D01*
X51437793Y-91662764D01*
X51437794Y-91662765D01*
X51517235Y-91742206D01*
X51620009Y-91787585D01*
X51645135Y-91790500D01*
X52382873Y-91790499D01*
X52449910Y-91810183D01*
X52495665Y-91862987D01*
X52505609Y-91932146D01*
X52476584Y-91995702D01*
X52417806Y-92033476D01*
X52402270Y-92036972D01*
X52270589Y-92057829D01*
X52098363Y-92113787D01*
X52098360Y-92113788D01*
X51937002Y-92196006D01*
X51790505Y-92302441D01*
X51790500Y-92302445D01*
X51662445Y-92430500D01*
X51662441Y-92430505D01*
X51556006Y-92577002D01*
X51473788Y-92738360D01*
X51473787Y-92738363D01*
X51417829Y-92910589D01*
X51389500Y-93089448D01*
X51389500Y-93270551D01*
X51417829Y-93449410D01*
X51473787Y-93621636D01*
X51473788Y-93621639D01*
X51556006Y-93782997D01*
X51662441Y-93929494D01*
X51662445Y-93929499D01*
X51790500Y-94057554D01*
X51790505Y-94057558D01*
X51883884Y-94125401D01*
X51937006Y-94163996D01*
X52042484Y-94217740D01*
X52098360Y-94246211D01*
X52098363Y-94246212D01*
X52131351Y-94256930D01*
X52270591Y-94302171D01*
X52343639Y-94313740D01*
X52430678Y-94327527D01*
X52493813Y-94357456D01*
X52530744Y-94416768D01*
X52529746Y-94486631D01*
X52491136Y-94544863D01*
X52430678Y-94572473D01*
X52270589Y-94597829D01*
X52098363Y-94653787D01*
X52098360Y-94653788D01*
X51937002Y-94736006D01*
X51790505Y-94842441D01*
X51790500Y-94842445D01*
X51662445Y-94970500D01*
X51662441Y-94970505D01*
X51556006Y-95117002D01*
X51473788Y-95278360D01*
X51473787Y-95278363D01*
X51417829Y-95450589D01*
X51389500Y-95629448D01*
X51389500Y-95810551D01*
X51417829Y-95989410D01*
X51473787Y-96161636D01*
X51473788Y-96161639D01*
X51556006Y-96322997D01*
X51662441Y-96469494D01*
X51662445Y-96469499D01*
X51790500Y-96597554D01*
X51790505Y-96597558D01*
X51830494Y-96626611D01*
X51937006Y-96703996D01*
X52042484Y-96757740D01*
X52098360Y-96786211D01*
X52098363Y-96786212D01*
X52133724Y-96797701D01*
X52270591Y-96842171D01*
X52343639Y-96853740D01*
X52430678Y-96867527D01*
X52493813Y-96897456D01*
X52530744Y-96956768D01*
X52529746Y-97026631D01*
X52491136Y-97084863D01*
X52430678Y-97112473D01*
X52270589Y-97137829D01*
X52098363Y-97193787D01*
X52098360Y-97193788D01*
X51937002Y-97276006D01*
X51790505Y-97382441D01*
X51790500Y-97382445D01*
X51662445Y-97510500D01*
X51662441Y-97510505D01*
X51556006Y-97657002D01*
X51473788Y-97818360D01*
X51473787Y-97818363D01*
X51417829Y-97990589D01*
X51389500Y-98169448D01*
X51389500Y-98350551D01*
X51417829Y-98529410D01*
X51473787Y-98701636D01*
X51473788Y-98701639D01*
X51556006Y-98862997D01*
X51662441Y-99009494D01*
X51662445Y-99009499D01*
X51790500Y-99137554D01*
X51790505Y-99137558D01*
X51918287Y-99230396D01*
X51937006Y-99243996D01*
X52042484Y-99297740D01*
X52098360Y-99326211D01*
X52098363Y-99326212D01*
X52184476Y-99354191D01*
X52270591Y-99382171D01*
X52343639Y-99393740D01*
X52430678Y-99407527D01*
X52493813Y-99437456D01*
X52530744Y-99496768D01*
X52529746Y-99566631D01*
X52491136Y-99624863D01*
X52430678Y-99652473D01*
X52270589Y-99677829D01*
X52098363Y-99733787D01*
X52098360Y-99733788D01*
X51937002Y-99816006D01*
X51790505Y-99922441D01*
X51790500Y-99922445D01*
X51662445Y-100050500D01*
X51662441Y-100050505D01*
X51556006Y-100197002D01*
X51473788Y-100358360D01*
X51473787Y-100358363D01*
X51417829Y-100530589D01*
X51389500Y-100709448D01*
X51389500Y-100890551D01*
X51417829Y-101069410D01*
X51473787Y-101241636D01*
X51473788Y-101241639D01*
X51556006Y-101402997D01*
X51662441Y-101549494D01*
X51662445Y-101549499D01*
X51790500Y-101677554D01*
X51790505Y-101677558D01*
X51918287Y-101770396D01*
X51937006Y-101783996D01*
X52042484Y-101837740D01*
X52098360Y-101866211D01*
X52098363Y-101866212D01*
X52184476Y-101894191D01*
X52270591Y-101922171D01*
X52353429Y-101935291D01*
X52449449Y-101950500D01*
X52449454Y-101950500D01*
X52630551Y-101950500D01*
X52809403Y-101922172D01*
X52809403Y-101922171D01*
X52809409Y-101922171D01*
X52846544Y-101910104D01*
X52916382Y-101908110D01*
X52972541Y-101940355D01*
X53972686Y-102940500D01*
X54086814Y-103006392D01*
X54214108Y-103040500D01*
X54345893Y-103040500D01*
X59103910Y-103040500D01*
X59170949Y-103060185D01*
X59214393Y-103108202D01*
X59218765Y-103116783D01*
X59218770Y-103116792D01*
X59261100Y-103175053D01*
X59320586Y-103256928D01*
X59443072Y-103379414D01*
X59583212Y-103481232D01*
X59737555Y-103559873D01*
X59902299Y-103613402D01*
X60073389Y-103640500D01*
X60073390Y-103640500D01*
X60246610Y-103640500D01*
X60246611Y-103640500D01*
X60417701Y-103613402D01*
X60582445Y-103559873D01*
X60736788Y-103481232D01*
X60876928Y-103379414D01*
X60999414Y-103256928D01*
X61101232Y-103116788D01*
X61179873Y-102962445D01*
X61233402Y-102797701D01*
X61260500Y-102626611D01*
X61260500Y-102453389D01*
X61233402Y-102282299D01*
X61179873Y-102117555D01*
X61101232Y-101963212D01*
X60999414Y-101823072D01*
X60876928Y-101700586D01*
X60736788Y-101598768D01*
X60640091Y-101549499D01*
X60582447Y-101520128D01*
X60582446Y-101520127D01*
X60582445Y-101520127D01*
X60417701Y-101466598D01*
X60417699Y-101466597D01*
X60417698Y-101466597D01*
X60286271Y-101445781D01*
X60246611Y-101439500D01*
X60073389Y-101439500D01*
X60033728Y-101445781D01*
X59902302Y-101466597D01*
X59737552Y-101520128D01*
X59583211Y-101598768D01*
X59503256Y-101656859D01*
X59443072Y-101700586D01*
X59443070Y-101700588D01*
X59443069Y-101700588D01*
X59320588Y-101823069D01*
X59320588Y-101823070D01*
X59320586Y-101823072D01*
X59295040Y-101858232D01*
X59218770Y-101963207D01*
X59218765Y-101963216D01*
X59214393Y-101971798D01*
X59166418Y-102022592D01*
X59103910Y-102039500D01*
X54538676Y-102039500D01*
X54471637Y-102019815D01*
X54450995Y-102003181D01*
X53680355Y-101232541D01*
X53646870Y-101171218D01*
X53650104Y-101106544D01*
X53662171Y-101069409D01*
X53662172Y-101069403D01*
X53690500Y-100890551D01*
X53690500Y-100709448D01*
X53672545Y-100596089D01*
X53662171Y-100530591D01*
X53634191Y-100444476D01*
X53606212Y-100358363D01*
X53606211Y-100358360D01*
X53521784Y-100192665D01*
X53523914Y-100191579D01*
X53508190Y-100133654D01*
X53529246Y-100067033D01*
X53582978Y-100022371D01*
X53652326Y-100013849D01*
X53664237Y-100016419D01*
X53754107Y-100040500D01*
X53754108Y-100040500D01*
X59103910Y-100040500D01*
X59170949Y-100060185D01*
X59214393Y-100108202D01*
X59218765Y-100116783D01*
X59218770Y-100116792D01*
X59261100Y-100175053D01*
X59320586Y-100256928D01*
X59443072Y-100379414D01*
X59583212Y-100481232D01*
X59737555Y-100559873D01*
X59902299Y-100613402D01*
X60073389Y-100640500D01*
X60073390Y-100640500D01*
X60246610Y-100640500D01*
X60246611Y-100640500D01*
X60417701Y-100613402D01*
X60582445Y-100559873D01*
X60736788Y-100481232D01*
X60876928Y-100379414D01*
X60999414Y-100256928D01*
X61101232Y-100116788D01*
X61179873Y-99962445D01*
X61233402Y-99797701D01*
X61260500Y-99626611D01*
X61260500Y-99453389D01*
X61233402Y-99282299D01*
X61179873Y-99117555D01*
X61101232Y-98963212D01*
X60999414Y-98823072D01*
X60876928Y-98700586D01*
X60736788Y-98598768D01*
X60582445Y-98520127D01*
X60417701Y-98466598D01*
X60417699Y-98466597D01*
X60417698Y-98466597D01*
X60286271Y-98445781D01*
X60246611Y-98439500D01*
X60073389Y-98439500D01*
X60033728Y-98445781D01*
X59902302Y-98466597D01*
X59737552Y-98520128D01*
X59583211Y-98598768D01*
X59443069Y-98700588D01*
X59320588Y-98823069D01*
X59320588Y-98823070D01*
X59320586Y-98823072D01*
X59295040Y-98858232D01*
X59218770Y-98963207D01*
X59218765Y-98963216D01*
X59214393Y-98971798D01*
X59166418Y-99022592D01*
X59103910Y-99039500D01*
X54078676Y-99039500D01*
X54011637Y-99019815D01*
X53990995Y-99003181D01*
X53680355Y-98692541D01*
X53646870Y-98631218D01*
X53650104Y-98566544D01*
X53662171Y-98529409D01*
X53663641Y-98520127D01*
X53690500Y-98350551D01*
X53690500Y-98169448D01*
X53674019Y-98065397D01*
X53662171Y-97990591D01*
X53606211Y-97818361D01*
X53606211Y-97818360D01*
X53577740Y-97762484D01*
X53523996Y-97657006D01*
X53492316Y-97613402D01*
X53417558Y-97510505D01*
X53417554Y-97510500D01*
X53289499Y-97382445D01*
X53289494Y-97382441D01*
X53142997Y-97276006D01*
X53142996Y-97276005D01*
X53142994Y-97276004D01*
X53091300Y-97249664D01*
X52981639Y-97193788D01*
X52981636Y-97193787D01*
X52809410Y-97137829D01*
X52649321Y-97112473D01*
X52586186Y-97082544D01*
X52549255Y-97023232D01*
X52550253Y-96953370D01*
X52588863Y-96895137D01*
X52649321Y-96867527D01*
X52719425Y-96856422D01*
X52809409Y-96842171D01*
X52981639Y-96786211D01*
X53142994Y-96703996D01*
X53289501Y-96597553D01*
X53417553Y-96469501D01*
X53523996Y-96322994D01*
X53541722Y-96288204D01*
X53589697Y-96237409D01*
X53652207Y-96220500D01*
X58951201Y-96220500D01*
X59018240Y-96240185D01*
X59063995Y-96292989D01*
X59073939Y-96362147D01*
X59073674Y-96363895D01*
X59059500Y-96453389D01*
X59059500Y-96626611D01*
X59086598Y-96797701D01*
X59140127Y-96962445D01*
X59218768Y-97116788D01*
X59320586Y-97256928D01*
X59443072Y-97379414D01*
X59583212Y-97481232D01*
X59737555Y-97559873D01*
X59902299Y-97613402D01*
X60073389Y-97640500D01*
X60073390Y-97640500D01*
X60246610Y-97640500D01*
X60246611Y-97640500D01*
X60417701Y-97613402D01*
X60582445Y-97559873D01*
X60736788Y-97481232D01*
X60876928Y-97379414D01*
X60999414Y-97256928D01*
X61101232Y-97116788D01*
X61179873Y-96962445D01*
X61233402Y-96797701D01*
X61260500Y-96626611D01*
X61260500Y-96453389D01*
X61233402Y-96282299D01*
X61179873Y-96117555D01*
X61101232Y-95963212D01*
X60999414Y-95823072D01*
X60876928Y-95700586D01*
X60736788Y-95598768D01*
X60582445Y-95520127D01*
X60417701Y-95466598D01*
X60417699Y-95466597D01*
X60417698Y-95466597D01*
X60286271Y-95445781D01*
X60246611Y-95439500D01*
X60073389Y-95439500D01*
X60041192Y-95444599D01*
X59902301Y-95466597D01*
X59902294Y-95466599D01*
X59893127Y-95469577D01*
X59823286Y-95471567D01*
X59767138Y-95439324D01*
X59647316Y-95319502D01*
X59647314Y-95319500D01*
X59576063Y-95278363D01*
X59533187Y-95253608D01*
X59469539Y-95236554D01*
X59405892Y-95219500D01*
X59405891Y-95219500D01*
X53652207Y-95219500D01*
X53585168Y-95199815D01*
X53541722Y-95151795D01*
X53523996Y-95117006D01*
X53458843Y-95027330D01*
X53417558Y-94970505D01*
X53417554Y-94970500D01*
X53289499Y-94842445D01*
X53289494Y-94842441D01*
X53142997Y-94736006D01*
X53142996Y-94736005D01*
X53142994Y-94736004D01*
X53091300Y-94709664D01*
X52981639Y-94653788D01*
X52981636Y-94653787D01*
X52809410Y-94597829D01*
X52649321Y-94572473D01*
X52586186Y-94542544D01*
X52549255Y-94483232D01*
X52550253Y-94413370D01*
X52588863Y-94355137D01*
X52649321Y-94327527D01*
X52719425Y-94316422D01*
X52809409Y-94302171D01*
X52981639Y-94246211D01*
X53142994Y-94163996D01*
X53289501Y-94057553D01*
X53417553Y-93929501D01*
X53523996Y-93782994D01*
X53541722Y-93748204D01*
X53589697Y-93697409D01*
X53652207Y-93680500D01*
X58962129Y-93680500D01*
X59029168Y-93700185D01*
X59074923Y-93752989D01*
X59084602Y-93785100D01*
X59086597Y-93797699D01*
X59106540Y-93859077D01*
X59140127Y-93962445D01*
X59218768Y-94116788D01*
X59320586Y-94256928D01*
X59443072Y-94379414D01*
X59583212Y-94481232D01*
X59737555Y-94559873D01*
X59902299Y-94613402D01*
X60073389Y-94640500D01*
X60073390Y-94640500D01*
X60246610Y-94640500D01*
X60246611Y-94640500D01*
X60417701Y-94613402D01*
X60582445Y-94559873D01*
X60736788Y-94481232D01*
X60876928Y-94379414D01*
X60999414Y-94256928D01*
X61101232Y-94116788D01*
X61179873Y-93962445D01*
X61233402Y-93797701D01*
X61260500Y-93626611D01*
X61260500Y-93453389D01*
X61233402Y-93282299D01*
X61179873Y-93117555D01*
X61101232Y-92963212D01*
X60999414Y-92823072D01*
X60876928Y-92700586D01*
X60736788Y-92598768D01*
X60582445Y-92520127D01*
X60417701Y-92466598D01*
X60417699Y-92466597D01*
X60417698Y-92466597D01*
X60286271Y-92445781D01*
X60246611Y-92439500D01*
X60073389Y-92439500D01*
X60033728Y-92445781D01*
X59902302Y-92466597D01*
X59737552Y-92520128D01*
X59583211Y-92598768D01*
X59532305Y-92635753D01*
X59504688Y-92655818D01*
X59438883Y-92679298D01*
X59431804Y-92679500D01*
X53652207Y-92679500D01*
X53585168Y-92659815D01*
X53541722Y-92611795D01*
X53535084Y-92598768D01*
X53523996Y-92577006D01*
X53469662Y-92502221D01*
X53417558Y-92430505D01*
X53417554Y-92430500D01*
X53289499Y-92302445D01*
X53289494Y-92302441D01*
X53142997Y-92196006D01*
X53142996Y-92196005D01*
X53142994Y-92196004D01*
X53091300Y-92169664D01*
X52981639Y-92113788D01*
X52981636Y-92113787D01*
X52809410Y-92057829D01*
X52677728Y-92036972D01*
X52614594Y-92007042D01*
X52577663Y-91947731D01*
X52578661Y-91877868D01*
X52617271Y-91819636D01*
X52681235Y-91791522D01*
X52697120Y-91790499D01*
X53434864Y-91790499D01*
X53434879Y-91790497D01*
X53434882Y-91790497D01*
X53459987Y-91787586D01*
X53459988Y-91787585D01*
X53459991Y-91787585D01*
X53562765Y-91742206D01*
X53642206Y-91662765D01*
X53687585Y-91559991D01*
X53690500Y-91534865D01*
X53690500Y-91264500D01*
X53710185Y-91197461D01*
X53762989Y-91151706D01*
X53814500Y-91140500D01*
X59172815Y-91140500D01*
X59239854Y-91160185D01*
X59273131Y-91191612D01*
X59320586Y-91256928D01*
X59443072Y-91379414D01*
X59583212Y-91481232D01*
X59737555Y-91559873D01*
X59902299Y-91613402D01*
X60073389Y-91640500D01*
X60073390Y-91640500D01*
X60246610Y-91640500D01*
X60246611Y-91640500D01*
X60417701Y-91613402D01*
X60582445Y-91559873D01*
X60736788Y-91481232D01*
X60876928Y-91379414D01*
X60999414Y-91256928D01*
X61101232Y-91116788D01*
X61179873Y-90962445D01*
X61233402Y-90797701D01*
X61260500Y-90626611D01*
X61260500Y-90453389D01*
X61233402Y-90282299D01*
X61179873Y-90117555D01*
X61101232Y-89963212D01*
X60999414Y-89823072D01*
X60876928Y-89700586D01*
X60736788Y-89598768D01*
X60582445Y-89520127D01*
X60417701Y-89466598D01*
X60417699Y-89466597D01*
X60417698Y-89466597D01*
X60286271Y-89445781D01*
X60246611Y-89439500D01*
X60073389Y-89439500D01*
X60033728Y-89445781D01*
X59902302Y-89466597D01*
X59737552Y-89520128D01*
X59583211Y-89598768D01*
X59557794Y-89617235D01*
X59443072Y-89700586D01*
X59443070Y-89700588D01*
X59443069Y-89700588D01*
X59320588Y-89823069D01*
X59320588Y-89823070D01*
X59320586Y-89823072D01*
X59289996Y-89865174D01*
X59218766Y-89963213D01*
X59163443Y-90071794D01*
X59115469Y-90122591D01*
X59052958Y-90139500D01*
X53814499Y-90139500D01*
X53747460Y-90119815D01*
X53701705Y-90067011D01*
X53690499Y-90015500D01*
X53690499Y-89745143D01*
X53690499Y-89745136D01*
X53690497Y-89745117D01*
X53687586Y-89720012D01*
X53687585Y-89720010D01*
X53687585Y-89720009D01*
X53642206Y-89617235D01*
X53562765Y-89537794D01*
X53562763Y-89537793D01*
X53459992Y-89492415D01*
X53434865Y-89489500D01*
X51645143Y-89489500D01*
X51645117Y-89489502D01*
X51620012Y-89492413D01*
X51620008Y-89492415D01*
X51517235Y-89537793D01*
X51437794Y-89617234D01*
X51392415Y-89720006D01*
X51392415Y-89720008D01*
X51389500Y-89745131D01*
X50500500Y-89745131D01*
X50500500Y-74505131D01*
X51389500Y-74505131D01*
X51389500Y-76294856D01*
X51389502Y-76294882D01*
X51392413Y-76319987D01*
X51392415Y-76319991D01*
X51437793Y-76422764D01*
X51437794Y-76422765D01*
X51517235Y-76502206D01*
X51620009Y-76547585D01*
X51645135Y-76550500D01*
X52382873Y-76550499D01*
X52449910Y-76570183D01*
X52495665Y-76622987D01*
X52505609Y-76692146D01*
X52476584Y-76755702D01*
X52417806Y-76793476D01*
X52402270Y-76796972D01*
X52270589Y-76817829D01*
X52098363Y-76873787D01*
X52098360Y-76873788D01*
X51937002Y-76956006D01*
X51790505Y-77062441D01*
X51790500Y-77062445D01*
X51662445Y-77190500D01*
X51662441Y-77190505D01*
X51556006Y-77337002D01*
X51473788Y-77498360D01*
X51473787Y-77498363D01*
X51417829Y-77670589D01*
X51389500Y-77849448D01*
X51389500Y-78030551D01*
X51417829Y-78209410D01*
X51473787Y-78381636D01*
X51473788Y-78381639D01*
X51556006Y-78542997D01*
X51662441Y-78689494D01*
X51662445Y-78689499D01*
X51790500Y-78817554D01*
X51790505Y-78817558D01*
X51880864Y-78883207D01*
X51937006Y-78923996D01*
X52042484Y-78977740D01*
X52098360Y-79006211D01*
X52098363Y-79006212D01*
X52158041Y-79025602D01*
X52270591Y-79062171D01*
X52342593Y-79073575D01*
X52430678Y-79087527D01*
X52493813Y-79117456D01*
X52530744Y-79176768D01*
X52529746Y-79246631D01*
X52491136Y-79304863D01*
X52430678Y-79332473D01*
X52270589Y-79357829D01*
X52098363Y-79413787D01*
X52098360Y-79413788D01*
X51937002Y-79496006D01*
X51790505Y-79602441D01*
X51790500Y-79602445D01*
X51662445Y-79730500D01*
X51662441Y-79730505D01*
X51556006Y-79877002D01*
X51473788Y-80038360D01*
X51473787Y-80038363D01*
X51417829Y-80210589D01*
X51389500Y-80389448D01*
X51389500Y-80570551D01*
X51417829Y-80749410D01*
X51473787Y-80921636D01*
X51473788Y-80921639D01*
X51512396Y-80997409D01*
X51549854Y-81070925D01*
X51556006Y-81082997D01*
X51662441Y-81229494D01*
X51662445Y-81229499D01*
X51790500Y-81357554D01*
X51790505Y-81357558D01*
X51918287Y-81450396D01*
X51937006Y-81463996D01*
X52012466Y-81502445D01*
X52098360Y-81546211D01*
X52098363Y-81546212D01*
X52184476Y-81574191D01*
X52270591Y-81602171D01*
X52343639Y-81613740D01*
X52430678Y-81627527D01*
X52493813Y-81657456D01*
X52530744Y-81716768D01*
X52529746Y-81786631D01*
X52491136Y-81844863D01*
X52430678Y-81872473D01*
X52270589Y-81897829D01*
X52098363Y-81953787D01*
X52098360Y-81953788D01*
X51937002Y-82036006D01*
X51790505Y-82142441D01*
X51790500Y-82142445D01*
X51662445Y-82270500D01*
X51662441Y-82270505D01*
X51556006Y-82417002D01*
X51473788Y-82578360D01*
X51473787Y-82578363D01*
X51417829Y-82750589D01*
X51389500Y-82929448D01*
X51389500Y-83110551D01*
X51417829Y-83289410D01*
X51473787Y-83461636D01*
X51473788Y-83461639D01*
X51499346Y-83511798D01*
X51553231Y-83617552D01*
X51556006Y-83622997D01*
X51662441Y-83769494D01*
X51662445Y-83769499D01*
X51790500Y-83897554D01*
X51790505Y-83897558D01*
X51862926Y-83950174D01*
X51937006Y-84003996D01*
X52042484Y-84057740D01*
X52098360Y-84086211D01*
X52098363Y-84086212D01*
X52184476Y-84114191D01*
X52270591Y-84142171D01*
X52343639Y-84153740D01*
X52430678Y-84167527D01*
X52493813Y-84197456D01*
X52530744Y-84256768D01*
X52529746Y-84326631D01*
X52491136Y-84384863D01*
X52430678Y-84412473D01*
X52270589Y-84437829D01*
X52098363Y-84493787D01*
X52098360Y-84493788D01*
X51937002Y-84576006D01*
X51790505Y-84682441D01*
X51790500Y-84682445D01*
X51662445Y-84810500D01*
X51662441Y-84810505D01*
X51556006Y-84957002D01*
X51473788Y-85118360D01*
X51473787Y-85118363D01*
X51417829Y-85290589D01*
X51389500Y-85469448D01*
X51389500Y-85650551D01*
X51417829Y-85829410D01*
X51473787Y-86001636D01*
X51473788Y-86001639D01*
X51556006Y-86162997D01*
X51662441Y-86309494D01*
X51662445Y-86309499D01*
X51790500Y-86437554D01*
X51790505Y-86437558D01*
X51880864Y-86503207D01*
X51937006Y-86543996D01*
X52042484Y-86597740D01*
X52098360Y-86626211D01*
X52098363Y-86626212D01*
X52184476Y-86654191D01*
X52270591Y-86682171D01*
X52353429Y-86695291D01*
X52449449Y-86710500D01*
X52449454Y-86710500D01*
X52630551Y-86710500D01*
X52809403Y-86682172D01*
X52809403Y-86682171D01*
X52809409Y-86682171D01*
X52846544Y-86670104D01*
X52916382Y-86668110D01*
X52972541Y-86700355D01*
X53752686Y-87480500D01*
X53866814Y-87546392D01*
X53994108Y-87580500D01*
X54125893Y-87580500D01*
X59103910Y-87580500D01*
X59170949Y-87600185D01*
X59214393Y-87648202D01*
X59218765Y-87656783D01*
X59218770Y-87656792D01*
X59261100Y-87715053D01*
X59320586Y-87796928D01*
X59443072Y-87919414D01*
X59583212Y-88021232D01*
X59737555Y-88099873D01*
X59902299Y-88153402D01*
X60073389Y-88180500D01*
X60073390Y-88180500D01*
X60246610Y-88180500D01*
X60246611Y-88180500D01*
X60417701Y-88153402D01*
X60582445Y-88099873D01*
X60736788Y-88021232D01*
X60876928Y-87919414D01*
X60999414Y-87796928D01*
X61101232Y-87656788D01*
X61179873Y-87502445D01*
X61233402Y-87337701D01*
X61260500Y-87166611D01*
X61260500Y-86993389D01*
X61233402Y-86822299D01*
X61179873Y-86657555D01*
X61101232Y-86503212D01*
X60999414Y-86363072D01*
X60876928Y-86240586D01*
X60736788Y-86138768D01*
X60582445Y-86060127D01*
X60417701Y-86006598D01*
X60417699Y-86006597D01*
X60417698Y-86006597D01*
X60286271Y-85985781D01*
X60246611Y-85979500D01*
X60073389Y-85979500D01*
X60033728Y-85985781D01*
X59902302Y-86006597D01*
X59737552Y-86060128D01*
X59583211Y-86138768D01*
X59503256Y-86196859D01*
X59443072Y-86240586D01*
X59443070Y-86240588D01*
X59443069Y-86240588D01*
X59320588Y-86363069D01*
X59320588Y-86363070D01*
X59320586Y-86363072D01*
X59308913Y-86379139D01*
X59218770Y-86503207D01*
X59218765Y-86503216D01*
X59214393Y-86511798D01*
X59166418Y-86562592D01*
X59103910Y-86579500D01*
X54318676Y-86579500D01*
X54251637Y-86559815D01*
X54230995Y-86543181D01*
X53680355Y-85992541D01*
X53646870Y-85931218D01*
X53650104Y-85866544D01*
X53662171Y-85829409D01*
X53662172Y-85829403D01*
X53690500Y-85650551D01*
X53690500Y-85469448D01*
X53664125Y-85302931D01*
X53662171Y-85290591D01*
X53618755Y-85156969D01*
X53606212Y-85118363D01*
X53606211Y-85118360D01*
X53572172Y-85051557D01*
X53523996Y-84957006D01*
X53510396Y-84938287D01*
X53417558Y-84810505D01*
X53417554Y-84810500D01*
X53387936Y-84780882D01*
X53354451Y-84719559D01*
X53359435Y-84649867D01*
X53401307Y-84593934D01*
X53466771Y-84569517D01*
X53507709Y-84573426D01*
X53534107Y-84580500D01*
X53534108Y-84580500D01*
X59103910Y-84580500D01*
X59170949Y-84600185D01*
X59214393Y-84648202D01*
X59218765Y-84656783D01*
X59218770Y-84656792D01*
X59261100Y-84715053D01*
X59320586Y-84796928D01*
X59443072Y-84919414D01*
X59583212Y-85021232D01*
X59737555Y-85099873D01*
X59902299Y-85153402D01*
X60073389Y-85180500D01*
X60073390Y-85180500D01*
X60246610Y-85180500D01*
X60246611Y-85180500D01*
X60417701Y-85153402D01*
X60582445Y-85099873D01*
X60736788Y-85021232D01*
X60876928Y-84919414D01*
X60999414Y-84796928D01*
X61101232Y-84656788D01*
X61179873Y-84502445D01*
X61233402Y-84337701D01*
X61260500Y-84166611D01*
X61260500Y-83993389D01*
X61233402Y-83822299D01*
X61179873Y-83657555D01*
X61101232Y-83503212D01*
X60999414Y-83363072D01*
X60876928Y-83240586D01*
X60736788Y-83138768D01*
X60582445Y-83060127D01*
X60417701Y-83006598D01*
X60417699Y-83006597D01*
X60417698Y-83006597D01*
X60259939Y-82981611D01*
X60246611Y-82979500D01*
X60073389Y-82979500D01*
X60060061Y-82981611D01*
X59902302Y-83006597D01*
X59737552Y-83060128D01*
X59583211Y-83138768D01*
X59503256Y-83196859D01*
X59443072Y-83240586D01*
X59443070Y-83240588D01*
X59443069Y-83240588D01*
X59320588Y-83363069D01*
X59320588Y-83363070D01*
X59320586Y-83363072D01*
X59300137Y-83391218D01*
X59218770Y-83503207D01*
X59218765Y-83503216D01*
X59214393Y-83511798D01*
X59166418Y-83562592D01*
X59103910Y-83579500D01*
X53858676Y-83579500D01*
X53829235Y-83570855D01*
X53799249Y-83564332D01*
X53794233Y-83560577D01*
X53791637Y-83559815D01*
X53770995Y-83543181D01*
X53680355Y-83452541D01*
X53646870Y-83391218D01*
X53650104Y-83326544D01*
X53662171Y-83289409D01*
X53662172Y-83289403D01*
X53690500Y-83110551D01*
X53690500Y-82929448D01*
X53669512Y-82796943D01*
X53662171Y-82750591D01*
X53625361Y-82637299D01*
X53606212Y-82578363D01*
X53606211Y-82578360D01*
X53577740Y-82522484D01*
X53523996Y-82417006D01*
X53452219Y-82318213D01*
X53417558Y-82270505D01*
X53417554Y-82270500D01*
X53289499Y-82142445D01*
X53289494Y-82142441D01*
X53142997Y-82036006D01*
X53142996Y-82036005D01*
X53142994Y-82036004D01*
X53091300Y-82009664D01*
X52981639Y-81953788D01*
X52981636Y-81953787D01*
X52809410Y-81897829D01*
X52649321Y-81872473D01*
X52586186Y-81842544D01*
X52549255Y-81783232D01*
X52550253Y-81713370D01*
X52588863Y-81655137D01*
X52649321Y-81627527D01*
X52719425Y-81616422D01*
X52809409Y-81602171D01*
X52981639Y-81546211D01*
X53142994Y-81463996D01*
X53289501Y-81357553D01*
X53417553Y-81229501D01*
X53523996Y-81082994D01*
X53541722Y-81048204D01*
X53589697Y-80997409D01*
X53652207Y-80980500D01*
X58935500Y-80980500D01*
X59002539Y-81000185D01*
X59048294Y-81052989D01*
X59059500Y-81104500D01*
X59059500Y-81166611D01*
X59067677Y-81218239D01*
X59084990Y-81327552D01*
X59086598Y-81337701D01*
X59140127Y-81502445D01*
X59218768Y-81656788D01*
X59320586Y-81796928D01*
X59443072Y-81919414D01*
X59583212Y-82021232D01*
X59737555Y-82099873D01*
X59902299Y-82153402D01*
X60073389Y-82180500D01*
X60073390Y-82180500D01*
X60246610Y-82180500D01*
X60246611Y-82180500D01*
X60417701Y-82153402D01*
X60582445Y-82099873D01*
X60736788Y-82021232D01*
X60876928Y-81919414D01*
X60999414Y-81796928D01*
X61101232Y-81656788D01*
X61179873Y-81502445D01*
X61233402Y-81337701D01*
X61260500Y-81166611D01*
X61260500Y-80993389D01*
X61233402Y-80822299D01*
X61179873Y-80657555D01*
X61101232Y-80503212D01*
X60999414Y-80363072D01*
X60876928Y-80240586D01*
X60736788Y-80138768D01*
X60582445Y-80060127D01*
X60417701Y-80006598D01*
X60417699Y-80006597D01*
X60417698Y-80006597D01*
X60286271Y-79985781D01*
X60246611Y-79979500D01*
X60073389Y-79979500D01*
X60016359Y-79988532D01*
X59902297Y-80006598D01*
X59851620Y-80023064D01*
X59781778Y-80025059D01*
X59760814Y-80016433D01*
X59760696Y-80016719D01*
X59753188Y-80013609D01*
X59753186Y-80013608D01*
X59625892Y-79979500D01*
X59625891Y-79979500D01*
X53652207Y-79979500D01*
X53585168Y-79959815D01*
X53541722Y-79911795D01*
X53526767Y-79882445D01*
X53523996Y-79877006D01*
X53510396Y-79858287D01*
X53417558Y-79730505D01*
X53417554Y-79730500D01*
X53289499Y-79602445D01*
X53289494Y-79602441D01*
X53142997Y-79496006D01*
X53142996Y-79496005D01*
X53142994Y-79496004D01*
X53091300Y-79469664D01*
X52981639Y-79413788D01*
X52981636Y-79413787D01*
X52809410Y-79357829D01*
X52649321Y-79332473D01*
X52586186Y-79302544D01*
X52549255Y-79243232D01*
X52550253Y-79173370D01*
X52588863Y-79115137D01*
X52649321Y-79087527D01*
X52719425Y-79076422D01*
X52809409Y-79062171D01*
X52981639Y-79006211D01*
X53142994Y-78923996D01*
X53289501Y-78817553D01*
X53417553Y-78689501D01*
X53523996Y-78542994D01*
X53541722Y-78508204D01*
X53589697Y-78457409D01*
X53652207Y-78440500D01*
X59032577Y-78440500D01*
X59099616Y-78460185D01*
X59143062Y-78508206D01*
X59218766Y-78656786D01*
X59242530Y-78689494D01*
X59320586Y-78796928D01*
X59443072Y-78919414D01*
X59583212Y-79021232D01*
X59737555Y-79099873D01*
X59902299Y-79153402D01*
X60073389Y-79180500D01*
X60073390Y-79180500D01*
X60246610Y-79180500D01*
X60246611Y-79180500D01*
X60417701Y-79153402D01*
X60582445Y-79099873D01*
X60736788Y-79021232D01*
X60876928Y-78919414D01*
X60999414Y-78796928D01*
X61101232Y-78656788D01*
X61179873Y-78502445D01*
X61233402Y-78337701D01*
X61260500Y-78166611D01*
X61260500Y-77993389D01*
X61233402Y-77822299D01*
X61179873Y-77657555D01*
X61101232Y-77503212D01*
X60999414Y-77363072D01*
X60876928Y-77240586D01*
X60736788Y-77138768D01*
X60582445Y-77060127D01*
X60417701Y-77006598D01*
X60417699Y-77006597D01*
X60417698Y-77006597D01*
X60286271Y-76985781D01*
X60246611Y-76979500D01*
X60073389Y-76979500D01*
X60033728Y-76985781D01*
X59902302Y-77006597D01*
X59737552Y-77060128D01*
X59583211Y-77138768D01*
X59512011Y-77190499D01*
X59443072Y-77240586D01*
X59443070Y-77240588D01*
X59443069Y-77240588D01*
X59320584Y-77363073D01*
X59320580Y-77363078D01*
X59302194Y-77388385D01*
X59246864Y-77431051D01*
X59201876Y-77439500D01*
X53652207Y-77439500D01*
X53585168Y-77419815D01*
X53541722Y-77371795D01*
X53523996Y-77337006D01*
X53465586Y-77256611D01*
X53417558Y-77190505D01*
X53417554Y-77190500D01*
X53289499Y-77062445D01*
X53289494Y-77062441D01*
X53142997Y-76956006D01*
X53142996Y-76956005D01*
X53142994Y-76956004D01*
X53057219Y-76912299D01*
X52981639Y-76873788D01*
X52981636Y-76873787D01*
X52809410Y-76817829D01*
X52677728Y-76796972D01*
X52614594Y-76767042D01*
X52577663Y-76707731D01*
X52578661Y-76637868D01*
X52617271Y-76579636D01*
X52681235Y-76551522D01*
X52697120Y-76550499D01*
X53434864Y-76550499D01*
X53434879Y-76550497D01*
X53434882Y-76550497D01*
X53459987Y-76547586D01*
X53459988Y-76547585D01*
X53459991Y-76547585D01*
X53562765Y-76502206D01*
X53642206Y-76422765D01*
X53687585Y-76319991D01*
X53690500Y-76294865D01*
X53690500Y-76024500D01*
X53710185Y-75957461D01*
X53762989Y-75911706D01*
X53814500Y-75900500D01*
X59376749Y-75900500D01*
X59443788Y-75920185D01*
X59449627Y-75924177D01*
X59583212Y-76021232D01*
X59737555Y-76099873D01*
X59902299Y-76153402D01*
X60073389Y-76180500D01*
X60073390Y-76180500D01*
X60246610Y-76180500D01*
X60246611Y-76180500D01*
X60417701Y-76153402D01*
X60582445Y-76099873D01*
X60736788Y-76021232D01*
X60876928Y-75919414D01*
X60999414Y-75796928D01*
X61101232Y-75656788D01*
X61179873Y-75502445D01*
X61233402Y-75337701D01*
X61260500Y-75166611D01*
X61260500Y-74993389D01*
X61233402Y-74822299D01*
X61179873Y-74657555D01*
X61101232Y-74503212D01*
X60999414Y-74363072D01*
X60876928Y-74240586D01*
X60736788Y-74138768D01*
X60582445Y-74060127D01*
X60417701Y-74006598D01*
X60417699Y-74006597D01*
X60417698Y-74006597D01*
X60286271Y-73985781D01*
X60246611Y-73979500D01*
X60073389Y-73979500D01*
X60033728Y-73985781D01*
X59902302Y-74006597D01*
X59737552Y-74060128D01*
X59583211Y-74138768D01*
X59503256Y-74196859D01*
X59443072Y-74240586D01*
X59443070Y-74240588D01*
X59443069Y-74240588D01*
X59320588Y-74363069D01*
X59320588Y-74363070D01*
X59320586Y-74363072D01*
X59310297Y-74377234D01*
X59218768Y-74503211D01*
X59140128Y-74657550D01*
X59089353Y-74813819D01*
X59049915Y-74871494D01*
X58985556Y-74898692D01*
X58971422Y-74899500D01*
X53814499Y-74899500D01*
X53747460Y-74879815D01*
X53701705Y-74827011D01*
X53690499Y-74775500D01*
X53690499Y-74505143D01*
X53690499Y-74505136D01*
X53690276Y-74503211D01*
X53687586Y-74480012D01*
X53687585Y-74480010D01*
X53687585Y-74480009D01*
X53642206Y-74377235D01*
X53562765Y-74297794D01*
X53562763Y-74297793D01*
X53459992Y-74252415D01*
X53434865Y-74249500D01*
X51645143Y-74249500D01*
X51645117Y-74249502D01*
X51620012Y-74252413D01*
X51620008Y-74252415D01*
X51517235Y-74297793D01*
X51437794Y-74377234D01*
X51392415Y-74480006D01*
X51392415Y-74480008D01*
X51389500Y-74505131D01*
X50500500Y-74505131D01*
X50500500Y-59265131D01*
X51389500Y-59265131D01*
X51389500Y-61054856D01*
X51389502Y-61054882D01*
X51392413Y-61079987D01*
X51392415Y-61079991D01*
X51437793Y-61182764D01*
X51437794Y-61182765D01*
X51517235Y-61262206D01*
X51620009Y-61307585D01*
X51645135Y-61310500D01*
X52382873Y-61310499D01*
X52449910Y-61330183D01*
X52495665Y-61382987D01*
X52505609Y-61452146D01*
X52476584Y-61515702D01*
X52417806Y-61553476D01*
X52402270Y-61556972D01*
X52270589Y-61577829D01*
X52098363Y-61633787D01*
X52098360Y-61633788D01*
X51937002Y-61716006D01*
X51790505Y-61822441D01*
X51790500Y-61822445D01*
X51662445Y-61950500D01*
X51662441Y-61950505D01*
X51556006Y-62097002D01*
X51473788Y-62258360D01*
X51473787Y-62258363D01*
X51417829Y-62430589D01*
X51389500Y-62609448D01*
X51389500Y-62790551D01*
X51417829Y-62969410D01*
X51473787Y-63141636D01*
X51473788Y-63141639D01*
X51556006Y-63302997D01*
X51662441Y-63449494D01*
X51662445Y-63449499D01*
X51790500Y-63577554D01*
X51790505Y-63577558D01*
X51918287Y-63670396D01*
X51937006Y-63683996D01*
X52008649Y-63720500D01*
X52098360Y-63766211D01*
X52098363Y-63766212D01*
X52184476Y-63794191D01*
X52270591Y-63822171D01*
X52343639Y-63833740D01*
X52430678Y-63847527D01*
X52493813Y-63877456D01*
X52530744Y-63936768D01*
X52529746Y-64006631D01*
X52491136Y-64064863D01*
X52430678Y-64092473D01*
X52270589Y-64117829D01*
X52098363Y-64173787D01*
X52098360Y-64173788D01*
X51937002Y-64256006D01*
X51790505Y-64362441D01*
X51790500Y-64362445D01*
X51662445Y-64490500D01*
X51662441Y-64490505D01*
X51556006Y-64637002D01*
X51473788Y-64798360D01*
X51473787Y-64798363D01*
X51417829Y-64970589D01*
X51389500Y-65149448D01*
X51389500Y-65330551D01*
X51417829Y-65509410D01*
X51473787Y-65681636D01*
X51473788Y-65681639D01*
X51556006Y-65842997D01*
X51662441Y-65989494D01*
X51662445Y-65989499D01*
X51790500Y-66117554D01*
X51790505Y-66117558D01*
X51899557Y-66196788D01*
X51937006Y-66223996D01*
X52042484Y-66277740D01*
X52098360Y-66306211D01*
X52098363Y-66306212D01*
X52184476Y-66334191D01*
X52270591Y-66362171D01*
X52343639Y-66373740D01*
X52430678Y-66387527D01*
X52493813Y-66417456D01*
X52530744Y-66476768D01*
X52529746Y-66546631D01*
X52491136Y-66604863D01*
X52430678Y-66632473D01*
X52270589Y-66657829D01*
X52098363Y-66713787D01*
X52098360Y-66713788D01*
X51937002Y-66796006D01*
X51790505Y-66902441D01*
X51790500Y-66902445D01*
X51662445Y-67030500D01*
X51662441Y-67030505D01*
X51556006Y-67177002D01*
X51473788Y-67338360D01*
X51473787Y-67338363D01*
X51417829Y-67510589D01*
X51389500Y-67689448D01*
X51389500Y-67870551D01*
X51417829Y-68049410D01*
X51473787Y-68221636D01*
X51473788Y-68221639D01*
X51512396Y-68297409D01*
X51549797Y-68370813D01*
X51556006Y-68382997D01*
X51662441Y-68529494D01*
X51662445Y-68529499D01*
X51790500Y-68657554D01*
X51790505Y-68657558D01*
X51918287Y-68750396D01*
X51937006Y-68763996D01*
X52042484Y-68817740D01*
X52098360Y-68846211D01*
X52098363Y-68846212D01*
X52137959Y-68859077D01*
X52270591Y-68902171D01*
X52343639Y-68913740D01*
X52430678Y-68927527D01*
X52493813Y-68957456D01*
X52530744Y-69016768D01*
X52529746Y-69086631D01*
X52491136Y-69144863D01*
X52430678Y-69172473D01*
X52270589Y-69197829D01*
X52098363Y-69253787D01*
X52098360Y-69253788D01*
X51937002Y-69336006D01*
X51790505Y-69442441D01*
X51790500Y-69442445D01*
X51662445Y-69570500D01*
X51662441Y-69570505D01*
X51556006Y-69717002D01*
X51473788Y-69878360D01*
X51473787Y-69878363D01*
X51417829Y-70050589D01*
X51389500Y-70229448D01*
X51389500Y-70410551D01*
X51417829Y-70589410D01*
X51473787Y-70761636D01*
X51473788Y-70761639D01*
X51529664Y-70871300D01*
X51554891Y-70920810D01*
X51556006Y-70922997D01*
X51662441Y-71069494D01*
X51662445Y-71069499D01*
X51790500Y-71197554D01*
X51790505Y-71197558D01*
X51820709Y-71219502D01*
X51937006Y-71303996D01*
X52042484Y-71357740D01*
X52098360Y-71386211D01*
X52098363Y-71386212D01*
X52184476Y-71414191D01*
X52270591Y-71442171D01*
X52353429Y-71455291D01*
X52449449Y-71470500D01*
X52449454Y-71470500D01*
X52630551Y-71470500D01*
X52809403Y-71442172D01*
X52809403Y-71442171D01*
X52809409Y-71442171D01*
X52846544Y-71430104D01*
X52916382Y-71428110D01*
X52972541Y-71460355D01*
X53532686Y-72020500D01*
X53646814Y-72086392D01*
X53774108Y-72120500D01*
X53905893Y-72120500D01*
X59103910Y-72120500D01*
X59170949Y-72140185D01*
X59214393Y-72188202D01*
X59218765Y-72196783D01*
X59218770Y-72196792D01*
X59261100Y-72255053D01*
X59320586Y-72336928D01*
X59443072Y-72459414D01*
X59583212Y-72561232D01*
X59737555Y-72639873D01*
X59902299Y-72693402D01*
X60073389Y-72720500D01*
X60073390Y-72720500D01*
X60246610Y-72720500D01*
X60246611Y-72720500D01*
X60417701Y-72693402D01*
X60582445Y-72639873D01*
X60736788Y-72561232D01*
X60876928Y-72459414D01*
X60999414Y-72336928D01*
X61101232Y-72196788D01*
X61179873Y-72042445D01*
X61233402Y-71877701D01*
X61260500Y-71706611D01*
X61260500Y-71533389D01*
X61233402Y-71362299D01*
X61179873Y-71197555D01*
X61101232Y-71043212D01*
X60999414Y-70903072D01*
X60876928Y-70780586D01*
X60736788Y-70678768D01*
X60582445Y-70600127D01*
X60417701Y-70546598D01*
X60417699Y-70546597D01*
X60417698Y-70546597D01*
X60286271Y-70525781D01*
X60246611Y-70519500D01*
X60073389Y-70519500D01*
X60033728Y-70525781D01*
X59902302Y-70546597D01*
X59737552Y-70600128D01*
X59583211Y-70678768D01*
X59503256Y-70736859D01*
X59443072Y-70780586D01*
X59443070Y-70780588D01*
X59443069Y-70780588D01*
X59320588Y-70903069D01*
X59320588Y-70903070D01*
X59320586Y-70903072D01*
X59307699Y-70920810D01*
X59218770Y-71043207D01*
X59218765Y-71043216D01*
X59214393Y-71051798D01*
X59166418Y-71102592D01*
X59103910Y-71119500D01*
X54098676Y-71119500D01*
X54031637Y-71099815D01*
X54010995Y-71083181D01*
X53680355Y-70752541D01*
X53646870Y-70691218D01*
X53650104Y-70626544D01*
X53662171Y-70589409D01*
X53669109Y-70545603D01*
X53690500Y-70410551D01*
X53690500Y-70229448D01*
X53674019Y-70125397D01*
X53662171Y-70050591D01*
X53606211Y-69878361D01*
X53606211Y-69878360D01*
X53577740Y-69822484D01*
X53523996Y-69717006D01*
X53506847Y-69693402D01*
X53417558Y-69570505D01*
X53417554Y-69570500D01*
X53289499Y-69442445D01*
X53289494Y-69442441D01*
X53142997Y-69336006D01*
X53142996Y-69336005D01*
X53142994Y-69336004D01*
X53091300Y-69309664D01*
X52981639Y-69253788D01*
X52981636Y-69253787D01*
X52809410Y-69197829D01*
X52649321Y-69172473D01*
X52586186Y-69142544D01*
X52549255Y-69083232D01*
X52550253Y-69013370D01*
X52588863Y-68955137D01*
X52649321Y-68927527D01*
X52719425Y-68916422D01*
X52809409Y-68902171D01*
X52981639Y-68846211D01*
X53142994Y-68763996D01*
X53289501Y-68657553D01*
X53417553Y-68529501D01*
X53523996Y-68382994D01*
X53541722Y-68348204D01*
X53589697Y-68297409D01*
X53652207Y-68280500D01*
X58954369Y-68280500D01*
X59021408Y-68300185D01*
X59067163Y-68352989D01*
X59077107Y-68422147D01*
X59076842Y-68423898D01*
X59059500Y-68533389D01*
X59059500Y-68706610D01*
X59081610Y-68846212D01*
X59086598Y-68877701D01*
X59140127Y-69042445D01*
X59218768Y-69196788D01*
X59320586Y-69336928D01*
X59443072Y-69459414D01*
X59583212Y-69561232D01*
X59737555Y-69639873D01*
X59902299Y-69693402D01*
X60073389Y-69720500D01*
X60073390Y-69720500D01*
X60246610Y-69720500D01*
X60246611Y-69720500D01*
X60417701Y-69693402D01*
X60582445Y-69639873D01*
X60736788Y-69561232D01*
X60876928Y-69459414D01*
X60999414Y-69336928D01*
X61101232Y-69196788D01*
X61179873Y-69042445D01*
X61233402Y-68877701D01*
X61260500Y-68706611D01*
X61260500Y-68533389D01*
X61233402Y-68362299D01*
X61179873Y-68197555D01*
X61101232Y-68043212D01*
X60999414Y-67903072D01*
X60876928Y-67780586D01*
X60736788Y-67678768D01*
X60582445Y-67600127D01*
X60417701Y-67546598D01*
X60417699Y-67546597D01*
X60417698Y-67546597D01*
X60286271Y-67525781D01*
X60246611Y-67519500D01*
X60073389Y-67519500D01*
X60041192Y-67524599D01*
X59902301Y-67546597D01*
X59902294Y-67546599D01*
X59893127Y-67549577D01*
X59823286Y-67551567D01*
X59767138Y-67519324D01*
X59627316Y-67379502D01*
X59627314Y-67379500D01*
X59556063Y-67338363D01*
X59513187Y-67313608D01*
X59449539Y-67296554D01*
X59385892Y-67279500D01*
X59385891Y-67279500D01*
X53652207Y-67279500D01*
X53585168Y-67259815D01*
X53541722Y-67211795D01*
X53523996Y-67177006D01*
X53431131Y-67049187D01*
X53417558Y-67030505D01*
X53417554Y-67030500D01*
X53289499Y-66902445D01*
X53289494Y-66902441D01*
X53142997Y-66796006D01*
X53142996Y-66796005D01*
X53142994Y-66796004D01*
X53091300Y-66769664D01*
X52981639Y-66713788D01*
X52981636Y-66713787D01*
X52809410Y-66657829D01*
X52649321Y-66632473D01*
X52586186Y-66602544D01*
X52549255Y-66543232D01*
X52550253Y-66473370D01*
X52588863Y-66415137D01*
X52649321Y-66387527D01*
X52719425Y-66376422D01*
X52809409Y-66362171D01*
X52981639Y-66306211D01*
X53142994Y-66223996D01*
X53289501Y-66117553D01*
X53417553Y-65989501D01*
X53523996Y-65842994D01*
X53541722Y-65808204D01*
X53589697Y-65757409D01*
X53652207Y-65740500D01*
X58958962Y-65740500D01*
X59026001Y-65760185D01*
X59071756Y-65812989D01*
X59081433Y-65845095D01*
X59086598Y-65877701D01*
X59140127Y-66042445D01*
X59218768Y-66196788D01*
X59320586Y-66336928D01*
X59443072Y-66459414D01*
X59583212Y-66561232D01*
X59737555Y-66639873D01*
X59902299Y-66693402D01*
X60073389Y-66720500D01*
X60073390Y-66720500D01*
X60246610Y-66720500D01*
X60246611Y-66720500D01*
X60417701Y-66693402D01*
X60582445Y-66639873D01*
X60736788Y-66561232D01*
X60876928Y-66459414D01*
X60999414Y-66336928D01*
X61101232Y-66196788D01*
X61179873Y-66042445D01*
X61233402Y-65877701D01*
X61260500Y-65706611D01*
X61260500Y-65533389D01*
X61233402Y-65362299D01*
X61179873Y-65197555D01*
X61101232Y-65043212D01*
X60999414Y-64903072D01*
X60876928Y-64780586D01*
X60736788Y-64678768D01*
X60582445Y-64600127D01*
X60417701Y-64546598D01*
X60417699Y-64546597D01*
X60417698Y-64546597D01*
X60286271Y-64525781D01*
X60246611Y-64519500D01*
X60073389Y-64519500D01*
X60033728Y-64525781D01*
X59902302Y-64546597D01*
X59737552Y-64600128D01*
X59583208Y-64678770D01*
X59532216Y-64715818D01*
X59466410Y-64739298D01*
X59459331Y-64739500D01*
X53652207Y-64739500D01*
X53585168Y-64719815D01*
X53541722Y-64671795D01*
X53523996Y-64637006D01*
X53458311Y-64546598D01*
X53417558Y-64490505D01*
X53417554Y-64490500D01*
X53289499Y-64362445D01*
X53289494Y-64362441D01*
X53142997Y-64256006D01*
X53142996Y-64256005D01*
X53142994Y-64256004D01*
X53091300Y-64229664D01*
X52981639Y-64173788D01*
X52981636Y-64173787D01*
X52809410Y-64117829D01*
X52649321Y-64092473D01*
X52586186Y-64062544D01*
X52549255Y-64003232D01*
X52550253Y-63933370D01*
X52588863Y-63875137D01*
X52649321Y-63847527D01*
X52719425Y-63836422D01*
X52809409Y-63822171D01*
X52981639Y-63766211D01*
X53142994Y-63683996D01*
X53289501Y-63577553D01*
X53417553Y-63449501D01*
X53523996Y-63302994D01*
X53541722Y-63268204D01*
X53589697Y-63217409D01*
X53652207Y-63200500D01*
X59158284Y-63200500D01*
X59225323Y-63220185D01*
X59258600Y-63251612D01*
X59320586Y-63336928D01*
X59443072Y-63459414D01*
X59583212Y-63561232D01*
X59737555Y-63639873D01*
X59902299Y-63693402D01*
X60073389Y-63720500D01*
X60073390Y-63720500D01*
X60246610Y-63720500D01*
X60246611Y-63720500D01*
X60417701Y-63693402D01*
X60582445Y-63639873D01*
X60736788Y-63561232D01*
X60876928Y-63459414D01*
X60999414Y-63336928D01*
X61101232Y-63196788D01*
X61179873Y-63042445D01*
X61233402Y-62877701D01*
X61260500Y-62706611D01*
X61260500Y-62533389D01*
X61233402Y-62362299D01*
X61179873Y-62197555D01*
X61101232Y-62043212D01*
X60999414Y-61903072D01*
X60876928Y-61780586D01*
X60736788Y-61678768D01*
X60582445Y-61600127D01*
X60417701Y-61546598D01*
X60417699Y-61546597D01*
X60417698Y-61546597D01*
X60286271Y-61525781D01*
X60246611Y-61519500D01*
X60073389Y-61519500D01*
X60033728Y-61525781D01*
X59902302Y-61546597D01*
X59737552Y-61600128D01*
X59583211Y-61678768D01*
X59531961Y-61716004D01*
X59443072Y-61780586D01*
X59443070Y-61780588D01*
X59443069Y-61780588D01*
X59320588Y-61903069D01*
X59320588Y-61903070D01*
X59320586Y-61903072D01*
X59286124Y-61950505D01*
X59218768Y-62043211D01*
X59173633Y-62131795D01*
X59125659Y-62182591D01*
X59063148Y-62199500D01*
X53652207Y-62199500D01*
X53585168Y-62179815D01*
X53541722Y-62131795D01*
X53523996Y-62097006D01*
X53484912Y-62043211D01*
X53417558Y-61950505D01*
X53417554Y-61950500D01*
X53289499Y-61822445D01*
X53289494Y-61822441D01*
X53142997Y-61716006D01*
X53142996Y-61716005D01*
X53142994Y-61716004D01*
X53069913Y-61678767D01*
X52981639Y-61633788D01*
X52981636Y-61633787D01*
X52809410Y-61577829D01*
X52677728Y-61556972D01*
X52614594Y-61527042D01*
X52577663Y-61467731D01*
X52578661Y-61397868D01*
X52617271Y-61339636D01*
X52681235Y-61311522D01*
X52697120Y-61310499D01*
X53434864Y-61310499D01*
X53434879Y-61310497D01*
X53434882Y-61310497D01*
X53459987Y-61307586D01*
X53459988Y-61307585D01*
X53459991Y-61307585D01*
X53562765Y-61262206D01*
X53642206Y-61182765D01*
X53687585Y-61079991D01*
X53690500Y-61054865D01*
X53690500Y-60784500D01*
X53710185Y-60717461D01*
X53762989Y-60671706D01*
X53814500Y-60660500D01*
X59685889Y-60660500D01*
X59685892Y-60660500D01*
X59713519Y-60653097D01*
X59783367Y-60654760D01*
X59783796Y-60654898D01*
X59902299Y-60693402D01*
X60073389Y-60720500D01*
X60073390Y-60720500D01*
X60246610Y-60720500D01*
X60246611Y-60720500D01*
X60417701Y-60693402D01*
X60582445Y-60639873D01*
X60736788Y-60561232D01*
X60876928Y-60459414D01*
X60999414Y-60336928D01*
X61101232Y-60196788D01*
X61179873Y-60042445D01*
X61233402Y-59877701D01*
X61260500Y-59706611D01*
X61260500Y-59533389D01*
X66679500Y-59533389D01*
X66679500Y-59706611D01*
X66706598Y-59877701D01*
X66760127Y-60042445D01*
X66838768Y-60196788D01*
X66940586Y-60336928D01*
X67063072Y-60459414D01*
X67203212Y-60561232D01*
X67211793Y-60565604D01*
X67262589Y-60613575D01*
X67279500Y-60676089D01*
X67279500Y-61563909D01*
X67259815Y-61630948D01*
X67211801Y-61674391D01*
X67203212Y-61678767D01*
X67151961Y-61716004D01*
X67063072Y-61780586D01*
X67063070Y-61780588D01*
X67063069Y-61780588D01*
X66940588Y-61903069D01*
X66940588Y-61903070D01*
X66940586Y-61903072D01*
X66906124Y-61950505D01*
X66838768Y-62043211D01*
X66760128Y-62197552D01*
X66706597Y-62362302D01*
X66679500Y-62533389D01*
X66679500Y-62706611D01*
X66706598Y-62877701D01*
X66760127Y-63042445D01*
X66838768Y-63196788D01*
X66940586Y-63336928D01*
X67063072Y-63459414D01*
X67203212Y-63561232D01*
X67211793Y-63565604D01*
X67262589Y-63613575D01*
X67279500Y-63676089D01*
X67279500Y-64563909D01*
X67259815Y-64630948D01*
X67211801Y-64674391D01*
X67203212Y-64678767D01*
X67119900Y-64739298D01*
X67063072Y-64780586D01*
X67063070Y-64780588D01*
X67063069Y-64780588D01*
X66940588Y-64903069D01*
X66940588Y-64903070D01*
X66940586Y-64903072D01*
X66896859Y-64963256D01*
X66838768Y-65043211D01*
X66760128Y-65197552D01*
X66706597Y-65362302D01*
X66683298Y-65509409D01*
X66679500Y-65533389D01*
X66679500Y-65706611D01*
X66687546Y-65757409D01*
X66696348Y-65812989D01*
X66706598Y-65877701D01*
X66760127Y-66042445D01*
X66838768Y-66196788D01*
X66940586Y-66336928D01*
X67063072Y-66459414D01*
X67203212Y-66561232D01*
X67211793Y-66565604D01*
X67262589Y-66613575D01*
X67279500Y-66676089D01*
X67279500Y-67563909D01*
X67259815Y-67630948D01*
X67211801Y-67674391D01*
X67203212Y-67678767D01*
X67112617Y-67744589D01*
X67063072Y-67780586D01*
X67063070Y-67780588D01*
X67063069Y-67780588D01*
X66940588Y-67903069D01*
X66940588Y-67903070D01*
X66940586Y-67903072D01*
X66911816Y-67942670D01*
X66838768Y-68043211D01*
X66760128Y-68197552D01*
X66706597Y-68362302D01*
X66679500Y-68533389D01*
X66679500Y-68706610D01*
X66701610Y-68846212D01*
X66706598Y-68877701D01*
X66760127Y-69042445D01*
X66838768Y-69196788D01*
X66940586Y-69336928D01*
X67063072Y-69459414D01*
X67203212Y-69561232D01*
X67211793Y-69565604D01*
X67262589Y-69613575D01*
X67279500Y-69676089D01*
X67279500Y-70563909D01*
X67259815Y-70630948D01*
X67211801Y-70674391D01*
X67203212Y-70678767D01*
X67112617Y-70744589D01*
X67063072Y-70780586D01*
X67063070Y-70780588D01*
X67063069Y-70780588D01*
X66940588Y-70903069D01*
X66940588Y-70903070D01*
X66940586Y-70903072D01*
X66927699Y-70920810D01*
X66838768Y-71043211D01*
X66760128Y-71197552D01*
X66706597Y-71362302D01*
X66687164Y-71484999D01*
X66679500Y-71533389D01*
X66679500Y-71706611D01*
X66706598Y-71877701D01*
X66760127Y-72042445D01*
X66838768Y-72196788D01*
X66940586Y-72336928D01*
X67063072Y-72459414D01*
X67203212Y-72561232D01*
X67357555Y-72639873D01*
X67522299Y-72693402D01*
X67693389Y-72720500D01*
X67693390Y-72720500D01*
X67866610Y-72720500D01*
X67866611Y-72720500D01*
X68037701Y-72693402D01*
X68202445Y-72639873D01*
X68356788Y-72561232D01*
X68496928Y-72459414D01*
X68619414Y-72336928D01*
X68678287Y-72255895D01*
X68733617Y-72213230D01*
X68803230Y-72207251D01*
X68865025Y-72239857D01*
X68866286Y-72241100D01*
X71303700Y-74678514D01*
X71396886Y-74771700D01*
X71431340Y-74791592D01*
X71511014Y-74837592D01*
X71638307Y-74871700D01*
X71638308Y-74871700D01*
X73269524Y-74871700D01*
X73336563Y-74891385D01*
X73357205Y-74908019D01*
X75190181Y-76740995D01*
X75223666Y-76802318D01*
X75226500Y-76828676D01*
X75226500Y-78014856D01*
X75226502Y-78014882D01*
X75229413Y-78039987D01*
X75229415Y-78039991D01*
X75274793Y-78142764D01*
X75274794Y-78142765D01*
X75354235Y-78222206D01*
X75457009Y-78267585D01*
X75482135Y-78270500D01*
X75720969Y-78270499D01*
X75788007Y-78290183D01*
X75833762Y-78342987D01*
X75843706Y-78412146D01*
X75814681Y-78475701D01*
X75777266Y-78504982D01*
X75750214Y-78518766D01*
X75680142Y-78569677D01*
X75610072Y-78620586D01*
X75610070Y-78620588D01*
X75610069Y-78620588D01*
X75487588Y-78743069D01*
X75487588Y-78743070D01*
X75487586Y-78743072D01*
X75473388Y-78762614D01*
X75385770Y-78883207D01*
X75385765Y-78883216D01*
X75381393Y-78891798D01*
X75333418Y-78942592D01*
X75270910Y-78959500D01*
X68744662Y-78959500D01*
X68677623Y-78939815D01*
X68631868Y-78887011D01*
X68621924Y-78817853D01*
X68644343Y-78762616D01*
X68721232Y-78656788D01*
X68799873Y-78502445D01*
X68853402Y-78337701D01*
X68880500Y-78166611D01*
X68880500Y-77993389D01*
X68853402Y-77822299D01*
X68799873Y-77657555D01*
X68721232Y-77503212D01*
X68619414Y-77363072D01*
X68496928Y-77240586D01*
X68356788Y-77138768D01*
X68356789Y-77138768D01*
X68356787Y-77138767D01*
X68348199Y-77134391D01*
X68297406Y-77086414D01*
X68280500Y-77023909D01*
X68280500Y-76136089D01*
X68300185Y-76069050D01*
X68348206Y-76025604D01*
X68356788Y-76021232D01*
X68496928Y-75919414D01*
X68619414Y-75796928D01*
X68721232Y-75656788D01*
X68799873Y-75502445D01*
X68853402Y-75337701D01*
X68880500Y-75166611D01*
X68880500Y-74993389D01*
X68853402Y-74822299D01*
X68799873Y-74657555D01*
X68721232Y-74503212D01*
X68619414Y-74363072D01*
X68496928Y-74240586D01*
X68356788Y-74138768D01*
X68202445Y-74060127D01*
X68037701Y-74006598D01*
X68037699Y-74006597D01*
X68037698Y-74006597D01*
X67906271Y-73985781D01*
X67866611Y-73979500D01*
X67693389Y-73979500D01*
X67653728Y-73985781D01*
X67522302Y-74006597D01*
X67357552Y-74060128D01*
X67203211Y-74138768D01*
X67123256Y-74196859D01*
X67063072Y-74240586D01*
X67063070Y-74240588D01*
X67063069Y-74240588D01*
X66940588Y-74363069D01*
X66940588Y-74363070D01*
X66940586Y-74363072D01*
X66930297Y-74377234D01*
X66838768Y-74503211D01*
X66760128Y-74657552D01*
X66706597Y-74822302D01*
X66679500Y-74993389D01*
X66679500Y-75166610D01*
X66700480Y-75299077D01*
X66706598Y-75337701D01*
X66760127Y-75502445D01*
X66838768Y-75656788D01*
X66940586Y-75796928D01*
X67063072Y-75919414D01*
X67203212Y-76021232D01*
X67211793Y-76025604D01*
X67262589Y-76073575D01*
X67279500Y-76136089D01*
X67279500Y-77023909D01*
X67259815Y-77090948D01*
X67211801Y-77134391D01*
X67203212Y-77138767D01*
X67132009Y-77190500D01*
X67063072Y-77240586D01*
X67063070Y-77240588D01*
X67063069Y-77240588D01*
X66940588Y-77363069D01*
X66940588Y-77363070D01*
X66940586Y-77363072D01*
X66922195Y-77388385D01*
X66838768Y-77503211D01*
X66760128Y-77657552D01*
X66706597Y-77822302D01*
X66696361Y-77886930D01*
X66679500Y-77993389D01*
X66679500Y-78166611D01*
X66681624Y-78180023D01*
X66703002Y-78315001D01*
X66706598Y-78337701D01*
X66760127Y-78502445D01*
X66838768Y-78656788D01*
X66940586Y-78796928D01*
X67063072Y-78919414D01*
X67203212Y-79021232D01*
X67211793Y-79025604D01*
X67262589Y-79073575D01*
X67279500Y-79136089D01*
X67279500Y-80023909D01*
X67259815Y-80090948D01*
X67211801Y-80134391D01*
X67203212Y-80138767D01*
X67112617Y-80204589D01*
X67063072Y-80240586D01*
X67063070Y-80240588D01*
X67063069Y-80240588D01*
X66940588Y-80363069D01*
X66940588Y-80363070D01*
X66940586Y-80363072D01*
X66912862Y-80401231D01*
X66838768Y-80503211D01*
X66760128Y-80657552D01*
X66706597Y-80822302D01*
X66690864Y-80921639D01*
X66679500Y-80993389D01*
X66679500Y-81166611D01*
X66687677Y-81218239D01*
X66704990Y-81327552D01*
X66706598Y-81337701D01*
X66760127Y-81502445D01*
X66838768Y-81656788D01*
X66940586Y-81796928D01*
X67063072Y-81919414D01*
X67203212Y-82021232D01*
X67211793Y-82025604D01*
X67262589Y-82073575D01*
X67279500Y-82136089D01*
X67279500Y-83023909D01*
X67259815Y-83090948D01*
X67211801Y-83134391D01*
X67203212Y-83138767D01*
X67118127Y-83200586D01*
X67063072Y-83240586D01*
X67063070Y-83240588D01*
X67063069Y-83240588D01*
X66940588Y-83363069D01*
X66940588Y-83363070D01*
X66940586Y-83363072D01*
X66920137Y-83391218D01*
X66838768Y-83503211D01*
X66760128Y-83657552D01*
X66706597Y-83822302D01*
X66679500Y-83993389D01*
X66679500Y-84166610D01*
X66704844Y-84326631D01*
X66706598Y-84337701D01*
X66760127Y-84502445D01*
X66838768Y-84656788D01*
X66940586Y-84796928D01*
X67063072Y-84919414D01*
X67203212Y-85021232D01*
X67211793Y-85025604D01*
X67262589Y-85073575D01*
X67279500Y-85136089D01*
X67279500Y-86023909D01*
X67259815Y-86090948D01*
X67211801Y-86134391D01*
X67203212Y-86138767D01*
X67112617Y-86204589D01*
X67063072Y-86240586D01*
X67063070Y-86240588D01*
X67063069Y-86240588D01*
X66940588Y-86363069D01*
X66940588Y-86363070D01*
X66940586Y-86363072D01*
X66928913Y-86379139D01*
X66838768Y-86503211D01*
X66760128Y-86657552D01*
X66706597Y-86822302D01*
X66705378Y-86830000D01*
X66679500Y-86993389D01*
X66679500Y-87166611D01*
X66679944Y-87169414D01*
X66700636Y-87300062D01*
X66706598Y-87337701D01*
X66760127Y-87502445D01*
X66838768Y-87656788D01*
X66940586Y-87796928D01*
X67063072Y-87919414D01*
X67203212Y-88021232D01*
X67357555Y-88099873D01*
X67522299Y-88153402D01*
X67693389Y-88180500D01*
X67693390Y-88180500D01*
X67866610Y-88180500D01*
X67866611Y-88180500D01*
X68037701Y-88153402D01*
X68202445Y-88099873D01*
X68356788Y-88021232D01*
X68496928Y-87919414D01*
X68619414Y-87796928D01*
X68721232Y-87656788D01*
X68799873Y-87502445D01*
X68853402Y-87337701D01*
X68880500Y-87166611D01*
X68880500Y-86993389D01*
X68853402Y-86822299D01*
X68799873Y-86657555D01*
X68721232Y-86503212D01*
X68619414Y-86363072D01*
X68496928Y-86240586D01*
X68356788Y-86138768D01*
X68356789Y-86138768D01*
X68356787Y-86138767D01*
X68348199Y-86134391D01*
X68297406Y-86086414D01*
X68280500Y-86023909D01*
X68280500Y-85136089D01*
X68300185Y-85069050D01*
X68348206Y-85025604D01*
X68356788Y-85021232D01*
X68496928Y-84919414D01*
X68619414Y-84796928D01*
X68721232Y-84656788D01*
X68799873Y-84502445D01*
X68853402Y-84337701D01*
X68880500Y-84166611D01*
X68880500Y-83993389D01*
X68853402Y-83822299D01*
X68799873Y-83657555D01*
X68721232Y-83503212D01*
X68619414Y-83363072D01*
X68496928Y-83240586D01*
X68356788Y-83138768D01*
X68356789Y-83138768D01*
X68356787Y-83138767D01*
X68348199Y-83134391D01*
X68297406Y-83086414D01*
X68280500Y-83023909D01*
X68280500Y-82136089D01*
X68300185Y-82069050D01*
X68348206Y-82025604D01*
X68356788Y-82021232D01*
X68496928Y-81919414D01*
X68619414Y-81796928D01*
X68721232Y-81656788D01*
X68799873Y-81502445D01*
X68853402Y-81337701D01*
X68880500Y-81166611D01*
X68880500Y-80993389D01*
X68853402Y-80822299D01*
X68799873Y-80657555D01*
X68721232Y-80503212D01*
X68619414Y-80363072D01*
X68496928Y-80240586D01*
X68420169Y-80184817D01*
X68377505Y-80129487D01*
X68371526Y-80059874D01*
X68404132Y-79998079D01*
X68464971Y-79963722D01*
X68493056Y-79960500D01*
X75270910Y-79960500D01*
X75337949Y-79980185D01*
X75381393Y-80028202D01*
X75385765Y-80036783D01*
X75385770Y-80036792D01*
X75425118Y-80090948D01*
X75487586Y-80176928D01*
X75610072Y-80299414D01*
X75750212Y-80401232D01*
X75823133Y-80438387D01*
X75904550Y-80479871D01*
X75904552Y-80479871D01*
X75904555Y-80479873D01*
X75926704Y-80487069D01*
X75984378Y-80526508D01*
X76011576Y-80590866D01*
X75999661Y-80659713D01*
X75952416Y-80711188D01*
X75926705Y-80722929D01*
X75918334Y-80725649D01*
X75904550Y-80730128D01*
X75750211Y-80808768D01*
X75670256Y-80866859D01*
X75610072Y-80910586D01*
X75610070Y-80910588D01*
X75610069Y-80910588D01*
X75487588Y-81033069D01*
X75487588Y-81033070D01*
X75487586Y-81033072D01*
X75451313Y-81082997D01*
X75385768Y-81173211D01*
X75307128Y-81327552D01*
X75253597Y-81492302D01*
X75245059Y-81546211D01*
X75226500Y-81663389D01*
X75226500Y-81836611D01*
X75227440Y-81842544D01*
X75253597Y-82007698D01*
X75253599Y-82007704D01*
X75256576Y-82016869D01*
X75258567Y-82086710D01*
X75226324Y-82142861D01*
X67965505Y-89403679D01*
X67904182Y-89437164D01*
X67871483Y-89439387D01*
X67871483Y-89439500D01*
X67869835Y-89439500D01*
X67868115Y-89439617D01*
X67866625Y-89439500D01*
X67866611Y-89439500D01*
X67693389Y-89439500D01*
X67653728Y-89445781D01*
X67522302Y-89466597D01*
X67357552Y-89520128D01*
X67203211Y-89598768D01*
X67177794Y-89617235D01*
X67063072Y-89700586D01*
X67063070Y-89700588D01*
X67063069Y-89700588D01*
X66940588Y-89823069D01*
X66940588Y-89823070D01*
X66940586Y-89823072D01*
X66896859Y-89883256D01*
X66838768Y-89963211D01*
X66760128Y-90117552D01*
X66706597Y-90282302D01*
X66679500Y-90453389D01*
X66679500Y-90626611D01*
X66706598Y-90797701D01*
X66760127Y-90962445D01*
X66838768Y-91116788D01*
X66940586Y-91256928D01*
X67063072Y-91379414D01*
X67203212Y-91481232D01*
X67211793Y-91485604D01*
X67262589Y-91533575D01*
X67279500Y-91596089D01*
X67279500Y-92483909D01*
X67259815Y-92550948D01*
X67211801Y-92594391D01*
X67203212Y-92598767D01*
X67119188Y-92659815D01*
X67063072Y-92700586D01*
X67063070Y-92700588D01*
X67063069Y-92700588D01*
X66940588Y-92823069D01*
X66940588Y-92823070D01*
X66940586Y-92823072D01*
X66896859Y-92883256D01*
X66838768Y-92963211D01*
X66760128Y-93117552D01*
X66706597Y-93282302D01*
X66679500Y-93453389D01*
X66679500Y-93626610D01*
X66706597Y-93797697D01*
X66706597Y-93797699D01*
X66706598Y-93797701D01*
X66760127Y-93962445D01*
X66838768Y-94116788D01*
X66940586Y-94256928D01*
X67063072Y-94379414D01*
X67203212Y-94481232D01*
X67211793Y-94485604D01*
X67262589Y-94533575D01*
X67279500Y-94596089D01*
X67279500Y-95483909D01*
X67259815Y-95550948D01*
X67211801Y-95594391D01*
X67203212Y-95598767D01*
X67160976Y-95629454D01*
X67063072Y-95700586D01*
X67063070Y-95700588D01*
X67063069Y-95700588D01*
X66940588Y-95823069D01*
X66940588Y-95823070D01*
X66940586Y-95823072D01*
X66896859Y-95883256D01*
X66838768Y-95963211D01*
X66760128Y-96117552D01*
X66706597Y-96282302D01*
X66700152Y-96322997D01*
X66679500Y-96453389D01*
X66679500Y-96626611D01*
X66706598Y-96797701D01*
X66760127Y-96962445D01*
X66838768Y-97116788D01*
X66940586Y-97256928D01*
X67063072Y-97379414D01*
X67203212Y-97481232D01*
X67211793Y-97485604D01*
X67262589Y-97533575D01*
X67279500Y-97596089D01*
X67279500Y-98483909D01*
X67259815Y-98550948D01*
X67211801Y-98594391D01*
X67203212Y-98598767D01*
X67063069Y-98700588D01*
X66940588Y-98823069D01*
X66940588Y-98823070D01*
X66940586Y-98823072D01*
X66911581Y-98862994D01*
X66838768Y-98963211D01*
X66760128Y-99117552D01*
X66706597Y-99282302D01*
X66679500Y-99453389D01*
X66679500Y-99626610D01*
X66692964Y-99711623D01*
X66706598Y-99797701D01*
X66760127Y-99962445D01*
X66838768Y-100116788D01*
X66940586Y-100256928D01*
X67063072Y-100379414D01*
X67203212Y-100481232D01*
X67211793Y-100485604D01*
X67262589Y-100533575D01*
X67279500Y-100596089D01*
X67279500Y-101483909D01*
X67259815Y-101550948D01*
X67211801Y-101594391D01*
X67203212Y-101598767D01*
X67112617Y-101664589D01*
X67063072Y-101700586D01*
X67063070Y-101700588D01*
X67063069Y-101700588D01*
X66940588Y-101823069D01*
X66940588Y-101823070D01*
X66940586Y-101823072D01*
X66909244Y-101866211D01*
X66838768Y-101963211D01*
X66760128Y-102117552D01*
X66706597Y-102282302D01*
X66679500Y-102453389D01*
X66679500Y-102626611D01*
X66706598Y-102797701D01*
X66760127Y-102962445D01*
X66838768Y-103116788D01*
X66940586Y-103256928D01*
X67063072Y-103379414D01*
X67203212Y-103481232D01*
X67357555Y-103559873D01*
X67522299Y-103613402D01*
X67693389Y-103640500D01*
X67693390Y-103640500D01*
X67866610Y-103640500D01*
X67866611Y-103640500D01*
X68037701Y-103613402D01*
X68202445Y-103559873D01*
X68356788Y-103481232D01*
X68496928Y-103379414D01*
X68619414Y-103256928D01*
X68721232Y-103116788D01*
X68799873Y-102962445D01*
X68853402Y-102797701D01*
X68880500Y-102626611D01*
X68880500Y-102453389D01*
X68853402Y-102282299D01*
X68799873Y-102117555D01*
X68721232Y-101963212D01*
X68619414Y-101823072D01*
X68496928Y-101700586D01*
X68356788Y-101598768D01*
X68356789Y-101598768D01*
X68356787Y-101598767D01*
X68348199Y-101594391D01*
X68297406Y-101546414D01*
X68280500Y-101483909D01*
X68280500Y-100596089D01*
X68300185Y-100529050D01*
X68348206Y-100485604D01*
X68356788Y-100481232D01*
X68496928Y-100379414D01*
X68619414Y-100256928D01*
X68721232Y-100116788D01*
X68799873Y-99962445D01*
X68853402Y-99797701D01*
X68880500Y-99626611D01*
X68880500Y-99453389D01*
X68853402Y-99282299D01*
X68799873Y-99117555D01*
X68721232Y-98963212D01*
X68619414Y-98823072D01*
X68496928Y-98700586D01*
X68383516Y-98618187D01*
X68356787Y-98598767D01*
X68348199Y-98594391D01*
X68297406Y-98546414D01*
X68280500Y-98483909D01*
X68280500Y-97596089D01*
X68300185Y-97529050D01*
X68348206Y-97485604D01*
X68356788Y-97481232D01*
X68496928Y-97379414D01*
X68619414Y-97256928D01*
X68721232Y-97116788D01*
X68799873Y-96962445D01*
X68853402Y-96797701D01*
X68880500Y-96626611D01*
X68880500Y-96453389D01*
X68853402Y-96282299D01*
X68799873Y-96117555D01*
X68721232Y-95963212D01*
X68619414Y-95823072D01*
X68496928Y-95700586D01*
X68356788Y-95598768D01*
X68356789Y-95598768D01*
X68356787Y-95598767D01*
X68348199Y-95594391D01*
X68297406Y-95546414D01*
X68280500Y-95483909D01*
X68280500Y-94596089D01*
X68300185Y-94529050D01*
X68348206Y-94485604D01*
X68356788Y-94481232D01*
X68496928Y-94379414D01*
X68619414Y-94256928D01*
X68721232Y-94116788D01*
X68799873Y-93962445D01*
X68838164Y-93844598D01*
X76367000Y-93844598D01*
X76367000Y-94125401D01*
X76398437Y-94404412D01*
X76398439Y-94404424D01*
X76460921Y-94678178D01*
X76460922Y-94678180D01*
X76553662Y-94943217D01*
X76675492Y-95196200D01*
X76824884Y-95433956D01*
X76931187Y-95567257D01*
X77572747Y-94925697D01*
X77646588Y-95027330D01*
X77824670Y-95205412D01*
X77926300Y-95279251D01*
X77284741Y-95920810D01*
X77284741Y-95920811D01*
X77418043Y-96027115D01*
X77655799Y-96176507D01*
X77908782Y-96298337D01*
X78173819Y-96391077D01*
X78173821Y-96391078D01*
X78447575Y-96453560D01*
X78447587Y-96453562D01*
X78726598Y-96484999D01*
X78726600Y-96485000D01*
X79007400Y-96485000D01*
X79007401Y-96484999D01*
X79286412Y-96453562D01*
X79286424Y-96453560D01*
X79560178Y-96391078D01*
X79560180Y-96391077D01*
X79825217Y-96298337D01*
X80078200Y-96176507D01*
X80315956Y-96027116D01*
X80449257Y-95920810D01*
X79807698Y-95279251D01*
X79909330Y-95205412D01*
X80087412Y-95027330D01*
X80161251Y-94925698D01*
X80802810Y-95567257D01*
X80909116Y-95433956D01*
X81058507Y-95196200D01*
X81180337Y-94943217D01*
X81273077Y-94678180D01*
X81273078Y-94678178D01*
X81335560Y-94404424D01*
X81335562Y-94404412D01*
X81366999Y-94125401D01*
X81367000Y-94125399D01*
X81367000Y-93844600D01*
X81366999Y-93844598D01*
X81335562Y-93565587D01*
X81335560Y-93565575D01*
X81273078Y-93291821D01*
X81273077Y-93291819D01*
X81180337Y-93026782D01*
X81058507Y-92773799D01*
X80909115Y-92536043D01*
X80802810Y-92402741D01*
X80161251Y-93044300D01*
X80087412Y-92942670D01*
X79909330Y-92764588D01*
X79807697Y-92690747D01*
X80449257Y-92049187D01*
X80315956Y-91942884D01*
X80078200Y-91793492D01*
X79825217Y-91671662D01*
X79560180Y-91578922D01*
X79560178Y-91578921D01*
X79286424Y-91516439D01*
X79286412Y-91516437D01*
X79007401Y-91485000D01*
X78726598Y-91485000D01*
X78447587Y-91516437D01*
X78447575Y-91516439D01*
X78173821Y-91578921D01*
X78173819Y-91578922D01*
X77908782Y-91671662D01*
X77655799Y-91793492D01*
X77418043Y-91942884D01*
X77284741Y-92049187D01*
X77926301Y-92690747D01*
X77824670Y-92764588D01*
X77646588Y-92942670D01*
X77572747Y-93044301D01*
X76931187Y-92402741D01*
X76824884Y-92536043D01*
X76675492Y-92773799D01*
X76553662Y-93026782D01*
X76460922Y-93291819D01*
X76460921Y-93291821D01*
X76398439Y-93565575D01*
X76398437Y-93565587D01*
X76367000Y-93844598D01*
X68838164Y-93844598D01*
X68853402Y-93797701D01*
X68880500Y-93626611D01*
X68880500Y-93453389D01*
X68853402Y-93282299D01*
X68799873Y-93117555D01*
X68721232Y-92963212D01*
X68619414Y-92823072D01*
X68496928Y-92700586D01*
X68403501Y-92632707D01*
X68356787Y-92598767D01*
X68348199Y-92594391D01*
X68297406Y-92546414D01*
X68280500Y-92483909D01*
X68280500Y-91596089D01*
X68300185Y-91529050D01*
X68348206Y-91485604D01*
X68356788Y-91481232D01*
X68496928Y-91379414D01*
X68619414Y-91256928D01*
X68721232Y-91116788D01*
X68799873Y-90962445D01*
X68853402Y-90797701D01*
X68880500Y-90626611D01*
X68880500Y-90453389D01*
X68853402Y-90282299D01*
X68799873Y-90117555D01*
X68799871Y-90117552D01*
X68799871Y-90117550D01*
X68796012Y-90109977D01*
X68783114Y-90041308D01*
X68809388Y-89976567D01*
X68818805Y-89966007D01*
X75030997Y-83753814D01*
X75092318Y-83720331D01*
X75162010Y-83725315D01*
X75217943Y-83767187D01*
X75242360Y-83832651D01*
X75241150Y-83860892D01*
X75226500Y-83953389D01*
X75226500Y-84126611D01*
X75229574Y-84146022D01*
X75253339Y-84296069D01*
X75253598Y-84297701D01*
X75291935Y-84415690D01*
X75307128Y-84462447D01*
X75374123Y-84593934D01*
X75385768Y-84616788D01*
X75487586Y-84756928D01*
X75610072Y-84879414D01*
X75666680Y-84920542D01*
X75735069Y-84970230D01*
X75777734Y-85025560D01*
X75783713Y-85095174D01*
X75751107Y-85156969D01*
X75718478Y-85181033D01*
X75645644Y-85218143D01*
X75601077Y-85250523D01*
X75601077Y-85250524D01*
X76197591Y-85847037D01*
X76134007Y-85864075D01*
X76019993Y-85929901D01*
X75926901Y-86022993D01*
X75861075Y-86137007D01*
X75844037Y-86200590D01*
X75247524Y-85604077D01*
X75247523Y-85604077D01*
X75215143Y-85648644D01*
X75122244Y-85830968D01*
X75059009Y-86025582D01*
X75027000Y-86227682D01*
X75027000Y-86432317D01*
X75059009Y-86634417D01*
X75122244Y-86829031D01*
X75215141Y-87011350D01*
X75215147Y-87011359D01*
X75247523Y-87055921D01*
X75247524Y-87055922D01*
X75844037Y-86459408D01*
X75861075Y-86522993D01*
X75926901Y-86637007D01*
X76019993Y-86730099D01*
X76134007Y-86795925D01*
X76197590Y-86812962D01*
X75601076Y-87409474D01*
X75645650Y-87441859D01*
X75827968Y-87534755D01*
X76022582Y-87597990D01*
X76224683Y-87630000D01*
X76429317Y-87630000D01*
X76631417Y-87597990D01*
X76826031Y-87534755D01*
X77008349Y-87441859D01*
X77052921Y-87409474D01*
X76456409Y-86812962D01*
X76519993Y-86795925D01*
X76634007Y-86730099D01*
X76727099Y-86637007D01*
X76792925Y-86522993D01*
X76809962Y-86459409D01*
X77406474Y-87055921D01*
X77438859Y-87011349D01*
X77531755Y-86829031D01*
X77594990Y-86634417D01*
X77627000Y-86432317D01*
X77627000Y-86227682D01*
X77598776Y-86049487D01*
X77607730Y-85980194D01*
X77652726Y-85926742D01*
X77719478Y-85906102D01*
X77730979Y-85906471D01*
X77787525Y-85910921D01*
X78384037Y-85314409D01*
X78401075Y-85377993D01*
X78466901Y-85492007D01*
X78559993Y-85585099D01*
X78674007Y-85650925D01*
X78737589Y-85667962D01*
X78141076Y-86264474D01*
X78185650Y-86296859D01*
X78367968Y-86389755D01*
X78562582Y-86452990D01*
X78764683Y-86485000D01*
X78969317Y-86485000D01*
X79171417Y-86452990D01*
X79366031Y-86389755D01*
X79525205Y-86308652D01*
X79593874Y-86295756D01*
X79658615Y-86322032D01*
X79698872Y-86379139D01*
X79705500Y-86419137D01*
X79705500Y-88526891D01*
X79739608Y-88654187D01*
X79772554Y-88711250D01*
X79805500Y-88768314D01*
X79805502Y-88768316D01*
X82114781Y-91077595D01*
X82148266Y-91138918D01*
X82151100Y-91165276D01*
X82151100Y-96515324D01*
X82131415Y-96582363D01*
X82114781Y-96603005D01*
X71253805Y-107463981D01*
X71192482Y-107497466D01*
X71166124Y-107500300D01*
X68836498Y-107500300D01*
X68769459Y-107480615D01*
X68726014Y-107432597D01*
X68721231Y-107423211D01*
X68619414Y-107283072D01*
X68496928Y-107160586D01*
X68356788Y-107058768D01*
X68202445Y-106980127D01*
X68037701Y-106926598D01*
X68037699Y-106926597D01*
X68037698Y-106926597D01*
X67906271Y-106905781D01*
X67866611Y-106899500D01*
X67693389Y-106899500D01*
X67653728Y-106905781D01*
X67522302Y-106926597D01*
X67522299Y-106926598D01*
X67382303Y-106972086D01*
X67357552Y-106980128D01*
X67203211Y-107058768D01*
X67123256Y-107116859D01*
X67063072Y-107160586D01*
X67063070Y-107160588D01*
X67063069Y-107160588D01*
X66940588Y-107283069D01*
X66940588Y-107283070D01*
X66940586Y-107283072D01*
X66926479Y-107302489D01*
X66838768Y-107423211D01*
X66760128Y-107577552D01*
X66706597Y-107742302D01*
X66685100Y-107878033D01*
X66679500Y-107913389D01*
X66679500Y-108086611D01*
X66706598Y-108257701D01*
X66760127Y-108422445D01*
X66838768Y-108576788D01*
X66940586Y-108716928D01*
X67063072Y-108839414D01*
X67203212Y-108941232D01*
X67357555Y-109019873D01*
X67522299Y-109073402D01*
X67693389Y-109100500D01*
X67693390Y-109100500D01*
X67866610Y-109100500D01*
X67866611Y-109100500D01*
X68037701Y-109073402D01*
X68202445Y-109019873D01*
X68356788Y-108941232D01*
X68496928Y-108839414D01*
X68619414Y-108716928D01*
X68721232Y-108576788D01*
X68725200Y-108569001D01*
X68773176Y-108518207D01*
X68835683Y-108501300D01*
X71490690Y-108501300D01*
X71490692Y-108501300D01*
X71617986Y-108467192D01*
X71732114Y-108401300D01*
X83052100Y-97081314D01*
X83117992Y-96967186D01*
X83152100Y-96839892D01*
X83152100Y-96708107D01*
X83152100Y-90840708D01*
X83117992Y-90713414D01*
X83052100Y-90599286D01*
X82958914Y-90506100D01*
X80742819Y-88290005D01*
X80709334Y-88228682D01*
X80706500Y-88202324D01*
X80706500Y-87410547D01*
X80726185Y-87343508D01*
X80778989Y-87297753D01*
X80848147Y-87287809D01*
X80886793Y-87300061D01*
X80984555Y-87349873D01*
X81149299Y-87403402D01*
X81320389Y-87430500D01*
X81320390Y-87430500D01*
X81493610Y-87430500D01*
X81493611Y-87430500D01*
X81664701Y-87403402D01*
X81829445Y-87349873D01*
X81983788Y-87271232D01*
X82123928Y-87169414D01*
X82246414Y-87046928D01*
X82348232Y-86906788D01*
X82426873Y-86752445D01*
X82480402Y-86587701D01*
X82507500Y-86416611D01*
X82507500Y-86243389D01*
X82480402Y-86072299D01*
X82426873Y-85907555D01*
X82348232Y-85753212D01*
X82246414Y-85613072D01*
X82123928Y-85490586D01*
X81983788Y-85388768D01*
X81829445Y-85310127D01*
X81807295Y-85302930D01*
X81749621Y-85263494D01*
X81722423Y-85199135D01*
X81734338Y-85130289D01*
X81781582Y-85078813D01*
X81807294Y-85067070D01*
X81829445Y-85059873D01*
X81983788Y-84981232D01*
X82123928Y-84879414D01*
X82246414Y-84756928D01*
X82348232Y-84616788D01*
X82352607Y-84608202D01*
X82400582Y-84557408D01*
X82463090Y-84540500D01*
X83019324Y-84540500D01*
X83086363Y-84560185D01*
X83107005Y-84576819D01*
X84121381Y-85591195D01*
X84154866Y-85652518D01*
X84157700Y-85678876D01*
X84157700Y-98166324D01*
X84138015Y-98233363D01*
X84121381Y-98254005D01*
X71912205Y-110463181D01*
X71850882Y-110496666D01*
X71824524Y-110499500D01*
X68836090Y-110499500D01*
X68769051Y-110479815D01*
X68725607Y-110431798D01*
X68721234Y-110423216D01*
X68721229Y-110423207D01*
X68673127Y-110357002D01*
X68619414Y-110283072D01*
X68496928Y-110160586D01*
X68356788Y-110058768D01*
X68202445Y-109980127D01*
X68037701Y-109926598D01*
X68037699Y-109926597D01*
X68037698Y-109926597D01*
X67906271Y-109905781D01*
X67866611Y-109899500D01*
X67693389Y-109899500D01*
X67653728Y-109905781D01*
X67522302Y-109926597D01*
X67357552Y-109980128D01*
X67203211Y-110058768D01*
X67123256Y-110116859D01*
X67063072Y-110160586D01*
X67063070Y-110160588D01*
X67063069Y-110160588D01*
X66940588Y-110283069D01*
X66940588Y-110283070D01*
X66940586Y-110283072D01*
X66896859Y-110343256D01*
X66838768Y-110423211D01*
X66760128Y-110577552D01*
X66706597Y-110742302D01*
X66679500Y-110913389D01*
X66679500Y-111086611D01*
X66706598Y-111257701D01*
X66760127Y-111422445D01*
X66838768Y-111576788D01*
X66940586Y-111716928D01*
X67063072Y-111839414D01*
X67203212Y-111941232D01*
X67357555Y-112019873D01*
X67522299Y-112073402D01*
X67693389Y-112100500D01*
X67693390Y-112100500D01*
X67866610Y-112100500D01*
X67866611Y-112100500D01*
X68037701Y-112073402D01*
X68202445Y-112019873D01*
X68356788Y-111941232D01*
X68496928Y-111839414D01*
X68619414Y-111716928D01*
X68721232Y-111576788D01*
X68725607Y-111568202D01*
X68773582Y-111517408D01*
X68836090Y-111500500D01*
X72149090Y-111500500D01*
X72149092Y-111500500D01*
X72276386Y-111466392D01*
X72390514Y-111400500D01*
X85058700Y-98732314D01*
X85077018Y-98700586D01*
X85124592Y-98618186D01*
X85158700Y-98490892D01*
X85158700Y-85354308D01*
X85124592Y-85227014D01*
X85058700Y-85112886D01*
X84965514Y-85019700D01*
X83585314Y-83639500D01*
X83528250Y-83606554D01*
X83471187Y-83573608D01*
X83407539Y-83556554D01*
X83343892Y-83539500D01*
X83343891Y-83539500D01*
X82463090Y-83539500D01*
X82396051Y-83519815D01*
X82352607Y-83471798D01*
X82348234Y-83463216D01*
X82348229Y-83463207D01*
X82295925Y-83391218D01*
X82246414Y-83323072D01*
X82123928Y-83200586D01*
X81983788Y-83098768D01*
X81829445Y-83020127D01*
X81807295Y-83012930D01*
X81749621Y-82973494D01*
X81722423Y-82909135D01*
X81734338Y-82840289D01*
X81781582Y-82788813D01*
X81807294Y-82777070D01*
X81829445Y-82769873D01*
X81983788Y-82691232D01*
X82123928Y-82589414D01*
X82246414Y-82466928D01*
X82348232Y-82326788D01*
X82426873Y-82172445D01*
X82480402Y-82007701D01*
X82507500Y-81836611D01*
X82507500Y-81663389D01*
X82480402Y-81492299D01*
X82426873Y-81327555D01*
X82348232Y-81173212D01*
X82246414Y-81033072D01*
X82123928Y-80910586D01*
X81983788Y-80808768D01*
X81829445Y-80730127D01*
X81807295Y-80722930D01*
X81749621Y-80683494D01*
X81722423Y-80619135D01*
X81734338Y-80550289D01*
X81781582Y-80498813D01*
X81807294Y-80487070D01*
X81829445Y-80479873D01*
X81983788Y-80401232D01*
X82123928Y-80299414D01*
X82246414Y-80176928D01*
X82348232Y-80036788D01*
X82426873Y-79882445D01*
X82480402Y-79717701D01*
X82507500Y-79546611D01*
X82507500Y-79373389D01*
X82480402Y-79202299D01*
X82426873Y-79037555D01*
X82348232Y-78883212D01*
X82246414Y-78743072D01*
X82123928Y-78620586D01*
X81983788Y-78518768D01*
X81829445Y-78440127D01*
X81807295Y-78432930D01*
X81749621Y-78393494D01*
X81722423Y-78329135D01*
X81734338Y-78260289D01*
X81781582Y-78208813D01*
X81807294Y-78197070D01*
X81829445Y-78189873D01*
X81983788Y-78111232D01*
X82123928Y-78009414D01*
X82246414Y-77886928D01*
X82348232Y-77746788D01*
X82426873Y-77592445D01*
X82480402Y-77427701D01*
X82507500Y-77256611D01*
X82507500Y-77083389D01*
X82480402Y-76912299D01*
X82426873Y-76747555D01*
X82348232Y-76593212D01*
X82246414Y-76453072D01*
X82123928Y-76330586D01*
X81983788Y-76228768D01*
X81829445Y-76150127D01*
X81664701Y-76096598D01*
X81664699Y-76096597D01*
X81664698Y-76096597D01*
X81533271Y-76075781D01*
X81493611Y-76069500D01*
X81320389Y-76069500D01*
X81280728Y-76075781D01*
X81149302Y-76096597D01*
X80984552Y-76150128D01*
X80830211Y-76228768D01*
X80750256Y-76286859D01*
X80690072Y-76330586D01*
X80690070Y-76330588D01*
X80690069Y-76330588D01*
X80567588Y-76453069D01*
X80567588Y-76453070D01*
X80567586Y-76453072D01*
X80543589Y-76486101D01*
X80465768Y-76593211D01*
X80387128Y-76747552D01*
X80333597Y-76912302D01*
X80315921Y-77023909D01*
X80306500Y-77083389D01*
X80306500Y-77256611D01*
X80333598Y-77427701D01*
X80387127Y-77592445D01*
X80465768Y-77746788D01*
X80567586Y-77886928D01*
X80690072Y-78009414D01*
X80830212Y-78111232D01*
X80883044Y-78138151D01*
X80984550Y-78189871D01*
X80984552Y-78189871D01*
X80984555Y-78189873D01*
X81006704Y-78197069D01*
X81064378Y-78236508D01*
X81091576Y-78300866D01*
X81079661Y-78369713D01*
X81032416Y-78421188D01*
X81006705Y-78432929D01*
X80998334Y-78435649D01*
X80984550Y-78440128D01*
X80830211Y-78518768D01*
X80750256Y-78576859D01*
X80690072Y-78620586D01*
X80690070Y-78620588D01*
X80690069Y-78620588D01*
X80567588Y-78743069D01*
X80567588Y-78743070D01*
X80567586Y-78743072D01*
X80528456Y-78796930D01*
X80465768Y-78883211D01*
X80387128Y-79037552D01*
X80333597Y-79202302D01*
X80326576Y-79246631D01*
X80306500Y-79373389D01*
X80306500Y-79546611D01*
X80333598Y-79717701D01*
X80387127Y-79882445D01*
X80465768Y-80036788D01*
X80567586Y-80176928D01*
X80690072Y-80299414D01*
X80830212Y-80401232D01*
X80903133Y-80438387D01*
X80984550Y-80479871D01*
X80984552Y-80479871D01*
X80984555Y-80479873D01*
X81006704Y-80487069D01*
X81064378Y-80526508D01*
X81091576Y-80590866D01*
X81079661Y-80659713D01*
X81032416Y-80711188D01*
X81006705Y-80722929D01*
X80998334Y-80725649D01*
X80984550Y-80730128D01*
X80830211Y-80808768D01*
X80750256Y-80866859D01*
X80690072Y-80910586D01*
X80690070Y-80910588D01*
X80690069Y-80910588D01*
X80567588Y-81033069D01*
X80567588Y-81033070D01*
X80567586Y-81033072D01*
X80531313Y-81082997D01*
X80465768Y-81173211D01*
X80387128Y-81327552D01*
X80333597Y-81492302D01*
X80325059Y-81546211D01*
X80306500Y-81663389D01*
X80306500Y-81836611D01*
X80307440Y-81842544D01*
X80333597Y-82007697D01*
X80336576Y-82016866D01*
X80338568Y-82086707D01*
X80306324Y-82142860D01*
X80037852Y-82411332D01*
X79976529Y-82444817D01*
X79906837Y-82439833D01*
X79850904Y-82397961D01*
X79839686Y-82379945D01*
X79808233Y-82318213D01*
X79792937Y-82297160D01*
X79706414Y-82178072D01*
X79583928Y-82055586D01*
X79458928Y-81964768D01*
X79416265Y-81909440D01*
X79410286Y-81839827D01*
X79442892Y-81778032D01*
X79475522Y-81753967D01*
X79548346Y-81716861D01*
X79548347Y-81716861D01*
X79592921Y-81684474D01*
X78996409Y-81087962D01*
X79059993Y-81070925D01*
X79174007Y-81005099D01*
X79267099Y-80912007D01*
X79332925Y-80797993D01*
X79349962Y-80734409D01*
X79946474Y-81330921D01*
X79978859Y-81286349D01*
X80071755Y-81104031D01*
X80134990Y-80909417D01*
X80167000Y-80707317D01*
X80167000Y-80502682D01*
X80134990Y-80300582D01*
X80071755Y-80105968D01*
X79978859Y-79923650D01*
X79946474Y-79879077D01*
X79946474Y-79879076D01*
X79349962Y-80475589D01*
X79332925Y-80412007D01*
X79267099Y-80297993D01*
X79174007Y-80204901D01*
X79059993Y-80139075D01*
X78996408Y-80122037D01*
X79592921Y-79525525D01*
X79588530Y-79469728D01*
X79588530Y-79450268D01*
X79592921Y-79394473D01*
X78996409Y-78797962D01*
X79059993Y-78780925D01*
X79174007Y-78715099D01*
X79267099Y-78622007D01*
X79332925Y-78507993D01*
X79349962Y-78444409D01*
X79946474Y-79040921D01*
X79978859Y-78996349D01*
X80071755Y-78814031D01*
X80134990Y-78619417D01*
X80167000Y-78417317D01*
X80167000Y-78212682D01*
X80134990Y-78010582D01*
X80071755Y-77815968D01*
X79978859Y-77633650D01*
X79946474Y-77589077D01*
X79946474Y-77589076D01*
X79349962Y-78185589D01*
X79332925Y-78122007D01*
X79267099Y-78007993D01*
X79174007Y-77914901D01*
X79059993Y-77849075D01*
X78996408Y-77832037D01*
X79592921Y-77235525D01*
X79588530Y-77179728D01*
X79588530Y-77160268D01*
X79592921Y-77104473D01*
X78996409Y-76507962D01*
X79059993Y-76490925D01*
X79174007Y-76425099D01*
X79267099Y-76332007D01*
X79332925Y-76217993D01*
X79349962Y-76154409D01*
X79946474Y-76750921D01*
X79978859Y-76706349D01*
X80071755Y-76524031D01*
X80134990Y-76329417D01*
X80167000Y-76127317D01*
X80167000Y-75922682D01*
X80134990Y-75720582D01*
X80071755Y-75525968D01*
X79978859Y-75343650D01*
X79946474Y-75299077D01*
X79946474Y-75299076D01*
X79349962Y-75895589D01*
X79332925Y-75832007D01*
X79267099Y-75717993D01*
X79174007Y-75624901D01*
X79059993Y-75559075D01*
X78996408Y-75542037D01*
X79592922Y-74945524D01*
X79592921Y-74945523D01*
X79548359Y-74913147D01*
X79548350Y-74913141D01*
X79366031Y-74820244D01*
X79171417Y-74757009D01*
X78969317Y-74725000D01*
X78764683Y-74725000D01*
X78562582Y-74757009D01*
X78367968Y-74820244D01*
X78185644Y-74913143D01*
X78141077Y-74945523D01*
X78141077Y-74945524D01*
X78737591Y-75542037D01*
X78674007Y-75559075D01*
X78559993Y-75624901D01*
X78466901Y-75717993D01*
X78401075Y-75832007D01*
X78384037Y-75895590D01*
X77787524Y-75299077D01*
X77787523Y-75299077D01*
X77755143Y-75343644D01*
X77662244Y-75525968D01*
X77599009Y-75720582D01*
X77567000Y-75922682D01*
X77567000Y-76085667D01*
X77547315Y-76152706D01*
X77494511Y-76198461D01*
X77425353Y-76208405D01*
X77361797Y-76179380D01*
X77355319Y-76173348D01*
X77299765Y-76117794D01*
X77196992Y-76072415D01*
X77171868Y-76069500D01*
X77171865Y-76069500D01*
X75985676Y-76069500D01*
X75918637Y-76049815D01*
X75897995Y-76033181D01*
X74019019Y-74154205D01*
X73985534Y-74092882D01*
X73982700Y-74066524D01*
X73982700Y-68844598D01*
X76367000Y-68844598D01*
X76367000Y-69125401D01*
X76398437Y-69404412D01*
X76398439Y-69404424D01*
X76460921Y-69678178D01*
X76460922Y-69678180D01*
X76553662Y-69943217D01*
X76675492Y-70196200D01*
X76824884Y-70433956D01*
X76931187Y-70567257D01*
X77572747Y-69925697D01*
X77646588Y-70027330D01*
X77824670Y-70205412D01*
X77926300Y-70279251D01*
X77284741Y-70920810D01*
X77284741Y-70920811D01*
X77418043Y-71027115D01*
X77655799Y-71176507D01*
X77908782Y-71298337D01*
X78173819Y-71391077D01*
X78173821Y-71391078D01*
X78447575Y-71453560D01*
X78447587Y-71453562D01*
X78726598Y-71484999D01*
X78726600Y-71485000D01*
X79007400Y-71485000D01*
X79007401Y-71484999D01*
X79286412Y-71453562D01*
X79286424Y-71453560D01*
X79560178Y-71391078D01*
X79560180Y-71391077D01*
X79825217Y-71298337D01*
X80078200Y-71176507D01*
X80315956Y-71027116D01*
X80449257Y-70920810D01*
X79807698Y-70279251D01*
X79909330Y-70205412D01*
X80087412Y-70027330D01*
X80161251Y-69925698D01*
X80802810Y-70567257D01*
X80909116Y-70433956D01*
X81058507Y-70196200D01*
X81180337Y-69943217D01*
X81273077Y-69678180D01*
X81273078Y-69678178D01*
X81335560Y-69404424D01*
X81335562Y-69404412D01*
X81366999Y-69125401D01*
X81367000Y-69125399D01*
X81367000Y-68844600D01*
X81366999Y-68844598D01*
X81335562Y-68565587D01*
X81335560Y-68565575D01*
X81273078Y-68291821D01*
X81273077Y-68291819D01*
X81180337Y-68026782D01*
X81058507Y-67773799D01*
X80909115Y-67536043D01*
X80802810Y-67402741D01*
X80161251Y-68044300D01*
X80087412Y-67942670D01*
X79909330Y-67764588D01*
X79807697Y-67690747D01*
X80449257Y-67049187D01*
X80315956Y-66942884D01*
X80078200Y-66793492D01*
X79825217Y-66671662D01*
X79560180Y-66578922D01*
X79560178Y-66578921D01*
X79286424Y-66516439D01*
X79286412Y-66516437D01*
X79007401Y-66485000D01*
X78726598Y-66485000D01*
X78447587Y-66516437D01*
X78447575Y-66516439D01*
X78173821Y-66578921D01*
X78173819Y-66578922D01*
X77908782Y-66671662D01*
X77655799Y-66793492D01*
X77418043Y-66942884D01*
X77284741Y-67049187D01*
X77926301Y-67690747D01*
X77824670Y-67764588D01*
X77646588Y-67942670D01*
X77572747Y-68044301D01*
X76931187Y-67402741D01*
X76824884Y-67536043D01*
X76675492Y-67773799D01*
X76553662Y-68026782D01*
X76460922Y-68291819D01*
X76460921Y-68291821D01*
X76398439Y-68565575D01*
X76398437Y-68565587D01*
X76367000Y-68844598D01*
X73982700Y-68844598D01*
X73982700Y-55033389D01*
X77519500Y-55033389D01*
X77519500Y-55206611D01*
X77546598Y-55377701D01*
X77600127Y-55542445D01*
X77678768Y-55696788D01*
X77780586Y-55836928D01*
X77903072Y-55959414D01*
X78043212Y-56061232D01*
X78197555Y-56139873D01*
X78362299Y-56193402D01*
X78533389Y-56220500D01*
X78533390Y-56220500D01*
X78706610Y-56220500D01*
X78706611Y-56220500D01*
X78877701Y-56193402D01*
X79042445Y-56139873D01*
X79196788Y-56061232D01*
X79336928Y-55959414D01*
X79459414Y-55836928D01*
X79561232Y-55696788D01*
X79639873Y-55542445D01*
X79693402Y-55377701D01*
X79720500Y-55206611D01*
X79720500Y-55033389D01*
X79693402Y-54862299D01*
X79639873Y-54697555D01*
X79561232Y-54543212D01*
X79459414Y-54403072D01*
X79336928Y-54280586D01*
X79196788Y-54178768D01*
X79042445Y-54100127D01*
X78877701Y-54046598D01*
X78877699Y-54046597D01*
X78877698Y-54046597D01*
X78746271Y-54025781D01*
X78706611Y-54019500D01*
X78533389Y-54019500D01*
X78493728Y-54025781D01*
X78362302Y-54046597D01*
X78197552Y-54100128D01*
X78043211Y-54178768D01*
X77963256Y-54236859D01*
X77903072Y-54280586D01*
X77903070Y-54280588D01*
X77903069Y-54280588D01*
X77780588Y-54403069D01*
X77780588Y-54403070D01*
X77780586Y-54403072D01*
X77761897Y-54428795D01*
X77678768Y-54543211D01*
X77600128Y-54697552D01*
X77546597Y-54862302D01*
X77519500Y-55033389D01*
X73982700Y-55033389D01*
X73982700Y-54516476D01*
X74002385Y-54449437D01*
X74019019Y-54428795D01*
X75433800Y-53014014D01*
X75905369Y-52542445D01*
X76414425Y-52033389D01*
X77519500Y-52033389D01*
X77519500Y-52206611D01*
X77546598Y-52377701D01*
X77600127Y-52542445D01*
X77678768Y-52696788D01*
X77780586Y-52836928D01*
X77903072Y-52959414D01*
X78043212Y-53061232D01*
X78197555Y-53139873D01*
X78362299Y-53193402D01*
X78533389Y-53220500D01*
X78533390Y-53220500D01*
X78706610Y-53220500D01*
X78706611Y-53220500D01*
X78877701Y-53193402D01*
X79042445Y-53139873D01*
X79196788Y-53061232D01*
X79336928Y-52959414D01*
X79459414Y-52836928D01*
X79561232Y-52696788D01*
X79639873Y-52542445D01*
X79693402Y-52377701D01*
X79720500Y-52206611D01*
X79720500Y-52033389D01*
X79693402Y-51862299D01*
X79639873Y-51697555D01*
X79561232Y-51543212D01*
X79459414Y-51403072D01*
X79336928Y-51280586D01*
X79196788Y-51178768D01*
X79042445Y-51100127D01*
X78877701Y-51046598D01*
X78877699Y-51046597D01*
X78877698Y-51046597D01*
X78746271Y-51025781D01*
X78706611Y-51019500D01*
X78533389Y-51019500D01*
X78493728Y-51025781D01*
X78362302Y-51046597D01*
X78197552Y-51100128D01*
X78043211Y-51178768D01*
X78036148Y-51183900D01*
X77903072Y-51280586D01*
X77903070Y-51280588D01*
X77903069Y-51280588D01*
X77780588Y-51403069D01*
X77780588Y-51403070D01*
X77780586Y-51403072D01*
X77736859Y-51463256D01*
X77678768Y-51543211D01*
X77600128Y-51697552D01*
X77546597Y-51862302D01*
X77528784Y-51974772D01*
X77519500Y-52033389D01*
X76414425Y-52033389D01*
X78227140Y-50220672D01*
X78288461Y-50187189D01*
X78353142Y-50190426D01*
X78362299Y-50193402D01*
X78533389Y-50220500D01*
X78533390Y-50220500D01*
X78706610Y-50220500D01*
X78706611Y-50220500D01*
X78877701Y-50193402D01*
X79042445Y-50139873D01*
X79196788Y-50061232D01*
X79336928Y-49959414D01*
X79459414Y-49836928D01*
X79561232Y-49696788D01*
X79639873Y-49542445D01*
X79693402Y-49377701D01*
X79720500Y-49206611D01*
X79720500Y-49033389D01*
X79693402Y-48862299D01*
X79639873Y-48697555D01*
X79561232Y-48543212D01*
X79459414Y-48403072D01*
X79336928Y-48280586D01*
X79196788Y-48178768D01*
X79042445Y-48100127D01*
X78877701Y-48046598D01*
X78877699Y-48046597D01*
X78877698Y-48046597D01*
X78746271Y-48025781D01*
X78706611Y-48019500D01*
X78533389Y-48019500D01*
X78493728Y-48025781D01*
X78362302Y-48046597D01*
X78197552Y-48100128D01*
X78043211Y-48178768D01*
X78036148Y-48183900D01*
X77903072Y-48280586D01*
X77903070Y-48280588D01*
X77903069Y-48280588D01*
X77780588Y-48403069D01*
X77780588Y-48403070D01*
X77780586Y-48403072D01*
X77736859Y-48463256D01*
X77678768Y-48543211D01*
X77600128Y-48697552D01*
X77546597Y-48862302D01*
X77519500Y-49033389D01*
X77519500Y-49206610D01*
X77546597Y-49377697D01*
X77549576Y-49386866D01*
X77551568Y-49456707D01*
X77519324Y-49512860D01*
X74725986Y-52306200D01*
X73081702Y-53950483D01*
X73081700Y-53950486D01*
X73015808Y-54064612D01*
X72981700Y-54191908D01*
X72981700Y-73746700D01*
X72962015Y-73813739D01*
X72909211Y-73859494D01*
X72857700Y-73870700D01*
X71962876Y-73870700D01*
X71895837Y-73851015D01*
X71875195Y-73834381D01*
X69260316Y-71219502D01*
X69260314Y-71219500D01*
X69185848Y-71176507D01*
X69146187Y-71153608D01*
X69082539Y-71136554D01*
X69018892Y-71119500D01*
X69018891Y-71119500D01*
X68836090Y-71119500D01*
X68769051Y-71099815D01*
X68725607Y-71051798D01*
X68721234Y-71043216D01*
X68721229Y-71043207D01*
X68691672Y-71002526D01*
X68619414Y-70903072D01*
X68496928Y-70780586D01*
X68403501Y-70712707D01*
X68356787Y-70678767D01*
X68348199Y-70674391D01*
X68297406Y-70626414D01*
X68280500Y-70563909D01*
X68280500Y-69676089D01*
X68300185Y-69609050D01*
X68348206Y-69565604D01*
X68356788Y-69561232D01*
X68496928Y-69459414D01*
X68619414Y-69336928D01*
X68721232Y-69196788D01*
X68799873Y-69042445D01*
X68853402Y-68877701D01*
X68880500Y-68706611D01*
X68880500Y-68533389D01*
X68853402Y-68362299D01*
X68799873Y-68197555D01*
X68721232Y-68043212D01*
X68619414Y-67903072D01*
X68496928Y-67780586D01*
X68356788Y-67678768D01*
X68356789Y-67678768D01*
X68356787Y-67678767D01*
X68348199Y-67674391D01*
X68297406Y-67626414D01*
X68280500Y-67563909D01*
X68280500Y-66676089D01*
X68300185Y-66609050D01*
X68348206Y-66565604D01*
X68356788Y-66561232D01*
X68496928Y-66459414D01*
X68619414Y-66336928D01*
X68721232Y-66196788D01*
X68799873Y-66042445D01*
X68853402Y-65877701D01*
X68880500Y-65706611D01*
X68880500Y-65533389D01*
X68853402Y-65362299D01*
X68799873Y-65197555D01*
X68721232Y-65043212D01*
X68619414Y-64903072D01*
X68496928Y-64780586D01*
X68356788Y-64678768D01*
X68356789Y-64678768D01*
X68356787Y-64678767D01*
X68348199Y-64674391D01*
X68297406Y-64626414D01*
X68280500Y-64563909D01*
X68280500Y-63676089D01*
X68300185Y-63609050D01*
X68348206Y-63565604D01*
X68356788Y-63561232D01*
X68496928Y-63459414D01*
X68619414Y-63336928D01*
X68721232Y-63196788D01*
X68799873Y-63042445D01*
X68853402Y-62877701D01*
X68880500Y-62706611D01*
X68880500Y-62533389D01*
X68853402Y-62362299D01*
X68799873Y-62197555D01*
X68721232Y-62043212D01*
X68619414Y-61903072D01*
X68496928Y-61780586D01*
X68356788Y-61678768D01*
X68356789Y-61678768D01*
X68356787Y-61678767D01*
X68348199Y-61674391D01*
X68297406Y-61626414D01*
X68280500Y-61563909D01*
X68280500Y-60676089D01*
X68300185Y-60609050D01*
X68348206Y-60565604D01*
X68356788Y-60561232D01*
X68496928Y-60459414D01*
X68619414Y-60336928D01*
X68721232Y-60196788D01*
X68799873Y-60042445D01*
X68853402Y-59877701D01*
X68880500Y-59706611D01*
X68880500Y-59533389D01*
X68853402Y-59362299D01*
X68799873Y-59197555D01*
X68721232Y-59043212D01*
X68619414Y-58903072D01*
X68496928Y-58780586D01*
X68356788Y-58678768D01*
X68202445Y-58600127D01*
X68037701Y-58546598D01*
X68037699Y-58546597D01*
X68037698Y-58546597D01*
X67906271Y-58525781D01*
X67866611Y-58519500D01*
X67693389Y-58519500D01*
X67653728Y-58525781D01*
X67522302Y-58546597D01*
X67357552Y-58600128D01*
X67203211Y-58678768D01*
X67123256Y-58736859D01*
X67063072Y-58780586D01*
X67063070Y-58780588D01*
X67063069Y-58780588D01*
X66940588Y-58903069D01*
X66940588Y-58903070D01*
X66940586Y-58903072D01*
X66896859Y-58963256D01*
X66838768Y-59043211D01*
X66760128Y-59197552D01*
X66706597Y-59362302D01*
X66679500Y-59533389D01*
X61260500Y-59533389D01*
X61233402Y-59362299D01*
X61179873Y-59197555D01*
X61101232Y-59043212D01*
X60999414Y-58903072D01*
X60876928Y-58780586D01*
X60736788Y-58678768D01*
X60582445Y-58600127D01*
X60417701Y-58546598D01*
X60417699Y-58546597D01*
X60417698Y-58546597D01*
X60286271Y-58525781D01*
X60246611Y-58519500D01*
X60073389Y-58519500D01*
X60033728Y-58525781D01*
X59902302Y-58546597D01*
X59737552Y-58600128D01*
X59583211Y-58678768D01*
X59503256Y-58736859D01*
X59443072Y-58780586D01*
X59443070Y-58780588D01*
X59443069Y-58780588D01*
X59320588Y-58903069D01*
X59320588Y-58903070D01*
X59320586Y-58903072D01*
X59276859Y-58963256D01*
X59218768Y-59043211D01*
X59140128Y-59197552D01*
X59086597Y-59362302D01*
X59059500Y-59533389D01*
X59059500Y-59535500D01*
X59059272Y-59536273D01*
X59059117Y-59538252D01*
X59058701Y-59538219D01*
X59039815Y-59602539D01*
X58987011Y-59648294D01*
X58935500Y-59659500D01*
X53814499Y-59659500D01*
X53747460Y-59639815D01*
X53701705Y-59587011D01*
X53690499Y-59535500D01*
X53690499Y-59265143D01*
X53690499Y-59265136D01*
X53690497Y-59265117D01*
X53687586Y-59240012D01*
X53687585Y-59240010D01*
X53687585Y-59240009D01*
X53642206Y-59137235D01*
X53562765Y-59057794D01*
X53529738Y-59043211D01*
X53459992Y-59012415D01*
X53434865Y-59009500D01*
X51645143Y-59009500D01*
X51645117Y-59009502D01*
X51620012Y-59012413D01*
X51620008Y-59012415D01*
X51517235Y-59057793D01*
X51437794Y-59137234D01*
X51392415Y-59240006D01*
X51392415Y-59240008D01*
X51389500Y-59265131D01*
X50500500Y-59265131D01*
X50500500Y-46565131D01*
X51389500Y-46565131D01*
X51389500Y-48354856D01*
X51389502Y-48354882D01*
X51392413Y-48379987D01*
X51392415Y-48379991D01*
X51437793Y-48482764D01*
X51437794Y-48482765D01*
X51517235Y-48562206D01*
X51620009Y-48607585D01*
X51645135Y-48610500D01*
X52382873Y-48610499D01*
X52449910Y-48630183D01*
X52495665Y-48682987D01*
X52505609Y-48752146D01*
X52476584Y-48815702D01*
X52417806Y-48853476D01*
X52402270Y-48856972D01*
X52270589Y-48877829D01*
X52098363Y-48933787D01*
X52098360Y-48933788D01*
X51937002Y-49016006D01*
X51790505Y-49122441D01*
X51790500Y-49122445D01*
X51662445Y-49250500D01*
X51662441Y-49250505D01*
X51556006Y-49397002D01*
X51473788Y-49558360D01*
X51473787Y-49558363D01*
X51417829Y-49730589D01*
X51389500Y-49909448D01*
X51389500Y-50090551D01*
X51417829Y-50269410D01*
X51473787Y-50441636D01*
X51473788Y-50441639D01*
X51529664Y-50551300D01*
X51548430Y-50588130D01*
X51556006Y-50602997D01*
X51662441Y-50749494D01*
X51662445Y-50749499D01*
X51790500Y-50877554D01*
X51790505Y-50877558D01*
X51852691Y-50922738D01*
X51937006Y-50983996D01*
X52042484Y-51037740D01*
X52098360Y-51066211D01*
X52098363Y-51066212D01*
X52184476Y-51094191D01*
X52270591Y-51122171D01*
X52343639Y-51133740D01*
X52430678Y-51147527D01*
X52493813Y-51177456D01*
X52530744Y-51236768D01*
X52529746Y-51306631D01*
X52491136Y-51364863D01*
X52430678Y-51392473D01*
X52270589Y-51417829D01*
X52098363Y-51473787D01*
X52098360Y-51473788D01*
X51937002Y-51556006D01*
X51790505Y-51662441D01*
X51790500Y-51662445D01*
X51662445Y-51790500D01*
X51662441Y-51790505D01*
X51556006Y-51937002D01*
X51473788Y-52098360D01*
X51473787Y-52098363D01*
X51417829Y-52270589D01*
X51389500Y-52449448D01*
X51389500Y-52630551D01*
X51417829Y-52809410D01*
X51473787Y-52981636D01*
X51473788Y-52981639D01*
X51556006Y-53142997D01*
X51662441Y-53289494D01*
X51662445Y-53289499D01*
X51790500Y-53417554D01*
X51790505Y-53417558D01*
X51918287Y-53510396D01*
X51937006Y-53523996D01*
X52042484Y-53577740D01*
X52098360Y-53606211D01*
X52098363Y-53606212D01*
X52184476Y-53634191D01*
X52270591Y-53662171D01*
X52343639Y-53673740D01*
X52430678Y-53687527D01*
X52493813Y-53717456D01*
X52530744Y-53776768D01*
X52529746Y-53846631D01*
X52491136Y-53904863D01*
X52430678Y-53932473D01*
X52270589Y-53957829D01*
X52098363Y-54013787D01*
X52098360Y-54013788D01*
X51937002Y-54096006D01*
X51790505Y-54202441D01*
X51790500Y-54202445D01*
X51662445Y-54330500D01*
X51662441Y-54330505D01*
X51556006Y-54477002D01*
X51473788Y-54638360D01*
X51473787Y-54638363D01*
X51417829Y-54810589D01*
X51389500Y-54989448D01*
X51389500Y-55170551D01*
X51417829Y-55349410D01*
X51473787Y-55521636D01*
X51473788Y-55521639D01*
X51556006Y-55682997D01*
X51662441Y-55829494D01*
X51662445Y-55829499D01*
X51790500Y-55957554D01*
X51790505Y-55957558D01*
X51793060Y-55959414D01*
X51937006Y-56063996D01*
X52042484Y-56117740D01*
X52098360Y-56146211D01*
X52098363Y-56146212D01*
X52184476Y-56174191D01*
X52270591Y-56202171D01*
X52353429Y-56215291D01*
X52449449Y-56230500D01*
X52449454Y-56230500D01*
X52630551Y-56230500D01*
X52717259Y-56216765D01*
X52809409Y-56202171D01*
X52981639Y-56146211D01*
X53142994Y-56063996D01*
X53289501Y-55957553D01*
X53417553Y-55829501D01*
X53523996Y-55682994D01*
X53541722Y-55648204D01*
X53589697Y-55597409D01*
X53652207Y-55580500D01*
X59083530Y-55580500D01*
X59150569Y-55600185D01*
X59194015Y-55648206D01*
X59218766Y-55696784D01*
X59218770Y-55696792D01*
X59261100Y-55755053D01*
X59320586Y-55836928D01*
X59443072Y-55959414D01*
X59583212Y-56061232D01*
X59737555Y-56139873D01*
X59902299Y-56193402D01*
X60073389Y-56220500D01*
X60073390Y-56220500D01*
X60246610Y-56220500D01*
X60246611Y-56220500D01*
X60417701Y-56193402D01*
X60582445Y-56139873D01*
X60736788Y-56061232D01*
X60876928Y-55959414D01*
X60999414Y-55836928D01*
X61101232Y-55696788D01*
X61179873Y-55542445D01*
X61233402Y-55377701D01*
X61260500Y-55206611D01*
X61260500Y-55033389D01*
X61233402Y-54862299D01*
X61179873Y-54697555D01*
X61101232Y-54543212D01*
X60999414Y-54403072D01*
X60876928Y-54280586D01*
X60736788Y-54178768D01*
X60582445Y-54100127D01*
X60417701Y-54046598D01*
X60417699Y-54046597D01*
X60417698Y-54046597D01*
X60286271Y-54025781D01*
X60246611Y-54019500D01*
X60073389Y-54019500D01*
X60033728Y-54025781D01*
X59902302Y-54046597D01*
X59737552Y-54100128D01*
X59583211Y-54178768D01*
X59503256Y-54236859D01*
X59443072Y-54280586D01*
X59443070Y-54280588D01*
X59443069Y-54280588D01*
X59320588Y-54403069D01*
X59320588Y-54403070D01*
X59320586Y-54403072D01*
X59286900Y-54449437D01*
X59229540Y-54528386D01*
X59174210Y-54571051D01*
X59129222Y-54579500D01*
X53652207Y-54579500D01*
X53585168Y-54559815D01*
X53541722Y-54511795D01*
X53523996Y-54477006D01*
X53470278Y-54403069D01*
X53417558Y-54330505D01*
X53417554Y-54330500D01*
X53289499Y-54202445D01*
X53289494Y-54202441D01*
X53142997Y-54096006D01*
X53142996Y-54096005D01*
X53142994Y-54096004D01*
X53081384Y-54064612D01*
X52981639Y-54013788D01*
X52981636Y-54013787D01*
X52809410Y-53957829D01*
X52649321Y-53932473D01*
X52586186Y-53902544D01*
X52549255Y-53843232D01*
X52550253Y-53773370D01*
X52588863Y-53715137D01*
X52649321Y-53687527D01*
X52719425Y-53676422D01*
X52809409Y-53662171D01*
X52981639Y-53606211D01*
X53142994Y-53523996D01*
X53289501Y-53417553D01*
X53417553Y-53289501D01*
X53523996Y-53142994D01*
X53541722Y-53108204D01*
X53589697Y-53057409D01*
X53652207Y-53040500D01*
X59514408Y-53040500D01*
X59579194Y-53058771D01*
X59583200Y-53061225D01*
X59583207Y-53061229D01*
X59583212Y-53061232D01*
X59737555Y-53139873D01*
X59902299Y-53193402D01*
X60073389Y-53220500D01*
X60073390Y-53220500D01*
X60246610Y-53220500D01*
X60246611Y-53220500D01*
X60417701Y-53193402D01*
X60582445Y-53139873D01*
X60736788Y-53061232D01*
X60876928Y-52959414D01*
X60999414Y-52836928D01*
X61101232Y-52696788D01*
X61179873Y-52542445D01*
X61233402Y-52377701D01*
X61260500Y-52206611D01*
X61260500Y-52033389D01*
X61233402Y-51862299D01*
X61179873Y-51697555D01*
X61101232Y-51543212D01*
X60999414Y-51403072D01*
X60876928Y-51280586D01*
X60736788Y-51178768D01*
X60582445Y-51100127D01*
X60417701Y-51046598D01*
X60417699Y-51046597D01*
X60417698Y-51046597D01*
X60286271Y-51025781D01*
X60246611Y-51019500D01*
X60073389Y-51019500D01*
X60033728Y-51025781D01*
X59902302Y-51046597D01*
X59737552Y-51100128D01*
X59583211Y-51178768D01*
X59576148Y-51183900D01*
X59443072Y-51280586D01*
X59443070Y-51280588D01*
X59443069Y-51280588D01*
X59320588Y-51403069D01*
X59320588Y-51403070D01*
X59320586Y-51403072D01*
X59276859Y-51463256D01*
X59218768Y-51543211D01*
X59140128Y-51697552D01*
X59086597Y-51862302D01*
X59075099Y-51934898D01*
X59045170Y-51998033D01*
X58985858Y-52034964D01*
X58952626Y-52039500D01*
X53652207Y-52039500D01*
X53585168Y-52019815D01*
X53541722Y-51971795D01*
X53523996Y-51937006D01*
X53469721Y-51862302D01*
X53417558Y-51790505D01*
X53417554Y-51790500D01*
X53289499Y-51662445D01*
X53289494Y-51662441D01*
X53142997Y-51556006D01*
X53142996Y-51556005D01*
X53142994Y-51556004D01*
X53091300Y-51529664D01*
X52981639Y-51473788D01*
X52981636Y-51473787D01*
X52809410Y-51417829D01*
X52649321Y-51392473D01*
X52586186Y-51362544D01*
X52549255Y-51303232D01*
X52550253Y-51233370D01*
X52588863Y-51175137D01*
X52649321Y-51147527D01*
X52719425Y-51136422D01*
X52809409Y-51122171D01*
X52981639Y-51066211D01*
X53142994Y-50983996D01*
X53289501Y-50877553D01*
X53417553Y-50749501D01*
X53523996Y-50602994D01*
X53606211Y-50441639D01*
X53662171Y-50269409D01*
X53678400Y-50166943D01*
X53690500Y-50090551D01*
X53690500Y-49909448D01*
X53667447Y-49763898D01*
X53676402Y-49694604D01*
X53721398Y-49641153D01*
X53788149Y-49620513D01*
X53789920Y-49620500D01*
X59103910Y-49620500D01*
X59170949Y-49640185D01*
X59214393Y-49688202D01*
X59218765Y-49696783D01*
X59218770Y-49696792D01*
X59243326Y-49730589D01*
X59320586Y-49836928D01*
X59443072Y-49959414D01*
X59583212Y-50061232D01*
X59737555Y-50139873D01*
X59902299Y-50193402D01*
X60073389Y-50220500D01*
X60073390Y-50220500D01*
X60246610Y-50220500D01*
X60246611Y-50220500D01*
X60417701Y-50193402D01*
X60582445Y-50139873D01*
X60736788Y-50061232D01*
X60876928Y-49959414D01*
X60999414Y-49836928D01*
X61101232Y-49696788D01*
X61179873Y-49542445D01*
X61233402Y-49377701D01*
X61260500Y-49206611D01*
X61260500Y-49033389D01*
X61233402Y-48862299D01*
X61179873Y-48697555D01*
X61101232Y-48543212D01*
X60999414Y-48403072D01*
X60876928Y-48280586D01*
X60736788Y-48178768D01*
X60582445Y-48100127D01*
X60417701Y-48046598D01*
X60417699Y-48046597D01*
X60417698Y-48046597D01*
X60286271Y-48025781D01*
X60246611Y-48019500D01*
X60073389Y-48019500D01*
X60033728Y-48025781D01*
X59902302Y-48046597D01*
X59737552Y-48100128D01*
X59583211Y-48178768D01*
X59576148Y-48183900D01*
X59443072Y-48280586D01*
X59443070Y-48280588D01*
X59443069Y-48280588D01*
X59320588Y-48403069D01*
X59320588Y-48403070D01*
X59320586Y-48403072D01*
X59295040Y-48438232D01*
X59218770Y-48543207D01*
X59218765Y-48543216D01*
X59214393Y-48551798D01*
X59166418Y-48602592D01*
X59103910Y-48619500D01*
X53772132Y-48619500D01*
X53705093Y-48599815D01*
X53659338Y-48547011D01*
X53649394Y-48477853D01*
X53658698Y-48445413D01*
X53687585Y-48379991D01*
X53690500Y-48354865D01*
X53690500Y-48084500D01*
X53710185Y-48017461D01*
X53762989Y-47971706D01*
X53814500Y-47960500D01*
X58885890Y-47960500D01*
X58885892Y-47960500D01*
X59013186Y-47926392D01*
X59127314Y-47860500D01*
X59730995Y-47256819D01*
X59792318Y-47223334D01*
X59818676Y-47220500D01*
X60753097Y-47220500D01*
X60753102Y-47220500D01*
X60841564Y-47209877D01*
X60982342Y-47154361D01*
X61102922Y-47062922D01*
X61194361Y-46942342D01*
X61249877Y-46801564D01*
X61260500Y-46713102D01*
X61260500Y-46033389D01*
X66679500Y-46033389D01*
X66679500Y-46206611D01*
X66706598Y-46377701D01*
X66760127Y-46542445D01*
X66838768Y-46696788D01*
X66940586Y-46836928D01*
X67063072Y-46959414D01*
X67203212Y-47061232D01*
X67357555Y-47139873D01*
X67522299Y-47193402D01*
X67693389Y-47220500D01*
X67693390Y-47220500D01*
X67866610Y-47220500D01*
X67866611Y-47220500D01*
X68037701Y-47193402D01*
X68202445Y-47139873D01*
X68356788Y-47061232D01*
X68496928Y-46959414D01*
X68619414Y-46836928D01*
X68721232Y-46696788D01*
X68725607Y-46688202D01*
X68773582Y-46637408D01*
X68836090Y-46620500D01*
X69943910Y-46620500D01*
X70010949Y-46640185D01*
X70054393Y-46688202D01*
X70058765Y-46696783D01*
X70058770Y-46696792D01*
X70101100Y-46755053D01*
X70160586Y-46836928D01*
X70283072Y-46959414D01*
X70423212Y-47061232D01*
X70577555Y-47139873D01*
X70742299Y-47193402D01*
X70799862Y-47202519D01*
X70811236Y-47207910D01*
X70823795Y-47208809D01*
X70842209Y-47222593D01*
X70862993Y-47232446D01*
X70869647Y-47243133D01*
X70879729Y-47250680D01*
X70887767Y-47272233D01*
X70899925Y-47291757D01*
X70899745Y-47304346D01*
X70904146Y-47316145D01*
X70899256Y-47338619D01*
X70898929Y-47361620D01*
X70891614Y-47373748D01*
X70889294Y-47384418D01*
X70868143Y-47412672D01*
X70692686Y-47588130D01*
X70599502Y-47681313D01*
X70599500Y-47681316D01*
X70533608Y-47795442D01*
X70499500Y-47922738D01*
X70499500Y-48063909D01*
X70479815Y-48130948D01*
X70431801Y-48174391D01*
X70423212Y-48178767D01*
X70339993Y-48239230D01*
X70283072Y-48280586D01*
X70283070Y-48280588D01*
X70283069Y-48280588D01*
X70160588Y-48403069D01*
X70160588Y-48403070D01*
X70160586Y-48403072D01*
X70135040Y-48438232D01*
X70058770Y-48543207D01*
X70058765Y-48543216D01*
X70054393Y-48551798D01*
X70006418Y-48602592D01*
X69943910Y-48619500D01*
X68836090Y-48619500D01*
X68769051Y-48599815D01*
X68725607Y-48551798D01*
X68721234Y-48543216D01*
X68721229Y-48543207D01*
X68691672Y-48502526D01*
X68619414Y-48403072D01*
X68496928Y-48280586D01*
X68356788Y-48178768D01*
X68202445Y-48100127D01*
X68037701Y-48046598D01*
X68037699Y-48046597D01*
X68037698Y-48046597D01*
X67906271Y-48025781D01*
X67866611Y-48019500D01*
X67693389Y-48019500D01*
X67653728Y-48025781D01*
X67522302Y-48046597D01*
X67357552Y-48100128D01*
X67203211Y-48178768D01*
X67196148Y-48183900D01*
X67063072Y-48280586D01*
X67063070Y-48280588D01*
X67063069Y-48280588D01*
X66940588Y-48403069D01*
X66940588Y-48403070D01*
X66940586Y-48403072D01*
X66896859Y-48463256D01*
X66838768Y-48543211D01*
X66760128Y-48697552D01*
X66706597Y-48862302D01*
X66682253Y-49016006D01*
X66679500Y-49033389D01*
X66679500Y-49206611D01*
X66706598Y-49377701D01*
X66760127Y-49542445D01*
X66838768Y-49696788D01*
X66940586Y-49836928D01*
X67063072Y-49959414D01*
X67203212Y-50061232D01*
X67357555Y-50139873D01*
X67522299Y-50193402D01*
X67693389Y-50220500D01*
X67693390Y-50220500D01*
X67866610Y-50220500D01*
X67866611Y-50220500D01*
X68037701Y-50193402D01*
X68202445Y-50139873D01*
X68356788Y-50061232D01*
X68496928Y-49959414D01*
X68619414Y-49836928D01*
X68721232Y-49696788D01*
X68725607Y-49688202D01*
X68773582Y-49637408D01*
X68836090Y-49620500D01*
X69943910Y-49620500D01*
X70010949Y-49640185D01*
X70054393Y-49688202D01*
X70058765Y-49696783D01*
X70058770Y-49696792D01*
X70083326Y-49730589D01*
X70160586Y-49836928D01*
X70283072Y-49959414D01*
X70423212Y-50061232D01*
X70577555Y-50139873D01*
X70742299Y-50193402D01*
X70799862Y-50202519D01*
X70811236Y-50207910D01*
X70823795Y-50208809D01*
X70842209Y-50222593D01*
X70862993Y-50232446D01*
X70869647Y-50243133D01*
X70879729Y-50250680D01*
X70887767Y-50272233D01*
X70899925Y-50291757D01*
X70899745Y-50304346D01*
X70904146Y-50316145D01*
X70899256Y-50338619D01*
X70898929Y-50361620D01*
X70891614Y-50373748D01*
X70889294Y-50384418D01*
X70868143Y-50412672D01*
X70692686Y-50588130D01*
X70599502Y-50681313D01*
X70599500Y-50681316D01*
X70533608Y-50795442D01*
X70499500Y-50922738D01*
X70499500Y-51063909D01*
X70479815Y-51130948D01*
X70431801Y-51174391D01*
X70423212Y-51178767D01*
X70348059Y-51233370D01*
X70283072Y-51280586D01*
X70283070Y-51280588D01*
X70283069Y-51280588D01*
X70160588Y-51403069D01*
X70160588Y-51403070D01*
X70160586Y-51403072D01*
X70135040Y-51438232D01*
X70058770Y-51543207D01*
X70058765Y-51543216D01*
X70054393Y-51551798D01*
X70006418Y-51602592D01*
X69943910Y-51619500D01*
X68836090Y-51619500D01*
X68769051Y-51599815D01*
X68725607Y-51551798D01*
X68721234Y-51543216D01*
X68721229Y-51543207D01*
X68670792Y-51473788D01*
X68619414Y-51403072D01*
X68496928Y-51280586D01*
X68356788Y-51178768D01*
X68202445Y-51100127D01*
X68037701Y-51046598D01*
X68037699Y-51046597D01*
X68037698Y-51046597D01*
X67906271Y-51025781D01*
X67866611Y-51019500D01*
X67693389Y-51019500D01*
X67653728Y-51025781D01*
X67522302Y-51046597D01*
X67357552Y-51100128D01*
X67203211Y-51178768D01*
X67196148Y-51183900D01*
X67063072Y-51280586D01*
X67063070Y-51280588D01*
X67063069Y-51280588D01*
X66940588Y-51403069D01*
X66940588Y-51403070D01*
X66940586Y-51403072D01*
X66896859Y-51463256D01*
X66838768Y-51543211D01*
X66760128Y-51697552D01*
X66706597Y-51862302D01*
X66688784Y-51974772D01*
X66679500Y-52033389D01*
X66679500Y-52206611D01*
X66706598Y-52377701D01*
X66760127Y-52542445D01*
X66838768Y-52696788D01*
X66940586Y-52836928D01*
X67063072Y-52959414D01*
X67203212Y-53061232D01*
X67357555Y-53139873D01*
X67522299Y-53193402D01*
X67693389Y-53220500D01*
X67693390Y-53220500D01*
X67866610Y-53220500D01*
X67866611Y-53220500D01*
X68037701Y-53193402D01*
X68202445Y-53139873D01*
X68356788Y-53061232D01*
X68496928Y-52959414D01*
X68619414Y-52836928D01*
X68721232Y-52696788D01*
X68725607Y-52688202D01*
X68773582Y-52637408D01*
X68836090Y-52620500D01*
X69943910Y-52620500D01*
X70010949Y-52640185D01*
X70054393Y-52688202D01*
X70058765Y-52696783D01*
X70058770Y-52696792D01*
X70101100Y-52755053D01*
X70160586Y-52836928D01*
X70283072Y-52959414D01*
X70423212Y-53061232D01*
X70577555Y-53139873D01*
X70742299Y-53193402D01*
X70799862Y-53202519D01*
X70811236Y-53207910D01*
X70823795Y-53208809D01*
X70842209Y-53222593D01*
X70862993Y-53232446D01*
X70869647Y-53243133D01*
X70879729Y-53250680D01*
X70887767Y-53272233D01*
X70899925Y-53291757D01*
X70899745Y-53304346D01*
X70904146Y-53316145D01*
X70899256Y-53338619D01*
X70898929Y-53361620D01*
X70891614Y-53373748D01*
X70889294Y-53384418D01*
X70868143Y-53412672D01*
X70692686Y-53588130D01*
X70599502Y-53681313D01*
X70599500Y-53681316D01*
X70533608Y-53795442D01*
X70499500Y-53922738D01*
X70499500Y-54063909D01*
X70479815Y-54130948D01*
X70431801Y-54174391D01*
X70423212Y-54178767D01*
X70339993Y-54239230D01*
X70283072Y-54280586D01*
X70283070Y-54280588D01*
X70283069Y-54280588D01*
X70160588Y-54403069D01*
X70160588Y-54403070D01*
X70160586Y-54403072D01*
X70141897Y-54428795D01*
X70058770Y-54543207D01*
X70058765Y-54543216D01*
X70054393Y-54551798D01*
X70006418Y-54602592D01*
X69943910Y-54619500D01*
X68836090Y-54619500D01*
X68769051Y-54599815D01*
X68725607Y-54551798D01*
X68721234Y-54543216D01*
X68721229Y-54543207D01*
X68664490Y-54465114D01*
X68619414Y-54403072D01*
X68496928Y-54280586D01*
X68356788Y-54178768D01*
X68202445Y-54100127D01*
X68037701Y-54046598D01*
X68037699Y-54046597D01*
X68037698Y-54046597D01*
X67906271Y-54025781D01*
X67866611Y-54019500D01*
X67693389Y-54019500D01*
X67653728Y-54025781D01*
X67522302Y-54046597D01*
X67357552Y-54100128D01*
X67203211Y-54178768D01*
X67123256Y-54236859D01*
X67063072Y-54280586D01*
X67063070Y-54280588D01*
X67063069Y-54280588D01*
X66940588Y-54403069D01*
X66940588Y-54403070D01*
X66940586Y-54403072D01*
X66921897Y-54428795D01*
X66838768Y-54543211D01*
X66760128Y-54697552D01*
X66706597Y-54862302D01*
X66679500Y-55033389D01*
X66679500Y-55206611D01*
X66706598Y-55377701D01*
X66760127Y-55542445D01*
X66838768Y-55696788D01*
X66940586Y-55836928D01*
X67063072Y-55959414D01*
X67203212Y-56061232D01*
X67357555Y-56139873D01*
X67522299Y-56193402D01*
X67693389Y-56220500D01*
X67693390Y-56220500D01*
X67866610Y-56220500D01*
X67866611Y-56220500D01*
X68037701Y-56193402D01*
X68202445Y-56139873D01*
X68356788Y-56061232D01*
X68496928Y-55959414D01*
X68619414Y-55836928D01*
X68721232Y-55696788D01*
X68725607Y-55688202D01*
X68773582Y-55637408D01*
X68836090Y-55620500D01*
X69943910Y-55620500D01*
X70010949Y-55640185D01*
X70054393Y-55688202D01*
X70058765Y-55696783D01*
X70058770Y-55696792D01*
X70101100Y-55755053D01*
X70160586Y-55836928D01*
X70283072Y-55959414D01*
X70423212Y-56061232D01*
X70577555Y-56139873D01*
X70742299Y-56193402D01*
X70913389Y-56220500D01*
X70913390Y-56220500D01*
X71086610Y-56220500D01*
X71086611Y-56220500D01*
X71257701Y-56193402D01*
X71422445Y-56139873D01*
X71576788Y-56061232D01*
X71716928Y-55959414D01*
X71839414Y-55836928D01*
X71941232Y-55696788D01*
X72019873Y-55542445D01*
X72073402Y-55377701D01*
X72100500Y-55206611D01*
X72100500Y-55033389D01*
X72073402Y-54862299D01*
X72019873Y-54697555D01*
X71941232Y-54543212D01*
X71839414Y-54403072D01*
X71716928Y-54280586D01*
X71660005Y-54239229D01*
X71617341Y-54183900D01*
X71611362Y-54114286D01*
X71643968Y-54052491D01*
X71645137Y-54051305D01*
X78439714Y-47256728D01*
X78501035Y-47223245D01*
X78528517Y-47221384D01*
X78528517Y-47220500D01*
X78706610Y-47220500D01*
X78706611Y-47220500D01*
X78877701Y-47193402D01*
X79042445Y-47139873D01*
X79196788Y-47061232D01*
X79336928Y-46959414D01*
X79459414Y-46836928D01*
X79561232Y-46696788D01*
X79639873Y-46542445D01*
X79693402Y-46377701D01*
X79720500Y-46206611D01*
X79720500Y-46033389D01*
X79693402Y-45862299D01*
X79639873Y-45697555D01*
X79561232Y-45543212D01*
X79459414Y-45403072D01*
X79336928Y-45280586D01*
X79196788Y-45178768D01*
X79042445Y-45100127D01*
X78877701Y-45046598D01*
X78877699Y-45046597D01*
X78877698Y-45046597D01*
X78746271Y-45025781D01*
X78706611Y-45019500D01*
X78533389Y-45019500D01*
X78493728Y-45025781D01*
X78362302Y-45046597D01*
X78197552Y-45100128D01*
X78043211Y-45178768D01*
X77963256Y-45236859D01*
X77903072Y-45280586D01*
X77903070Y-45280588D01*
X77903069Y-45280588D01*
X77780588Y-45403069D01*
X77780588Y-45403070D01*
X77780586Y-45403072D01*
X77754891Y-45438438D01*
X77678768Y-45543211D01*
X77600128Y-45697552D01*
X77546597Y-45862302D01*
X77519500Y-46033389D01*
X77519500Y-46206610D01*
X77546597Y-46377697D01*
X77600126Y-46542442D01*
X77600130Y-46542452D01*
X77605889Y-46553754D01*
X77618785Y-46622423D01*
X77592508Y-46687163D01*
X77583085Y-46697729D01*
X72292672Y-51988143D01*
X72231349Y-52021628D01*
X72161657Y-52016644D01*
X72105724Y-51974772D01*
X72082519Y-51919863D01*
X72073402Y-51862299D01*
X72019873Y-51697555D01*
X71941232Y-51543212D01*
X71839414Y-51403072D01*
X71716928Y-51280586D01*
X71660005Y-51239229D01*
X71617341Y-51183900D01*
X71611362Y-51114286D01*
X71643968Y-51052491D01*
X71645137Y-51051305D01*
X78439714Y-44256728D01*
X78501035Y-44223245D01*
X78528517Y-44221384D01*
X78528517Y-44220500D01*
X78706610Y-44220500D01*
X78706611Y-44220500D01*
X78877701Y-44193402D01*
X79042445Y-44139873D01*
X79196788Y-44061232D01*
X79336928Y-43959414D01*
X79459414Y-43836928D01*
X79561232Y-43696788D01*
X79639873Y-43542445D01*
X79693402Y-43377701D01*
X79720500Y-43206611D01*
X79720500Y-43033389D01*
X79693402Y-42862299D01*
X79639873Y-42697555D01*
X79561232Y-42543212D01*
X79459414Y-42403072D01*
X79336928Y-42280586D01*
X79196788Y-42178768D01*
X79042445Y-42100127D01*
X78877701Y-42046598D01*
X78877699Y-42046597D01*
X78877698Y-42046597D01*
X78746271Y-42025781D01*
X78706611Y-42019500D01*
X78533389Y-42019500D01*
X78493728Y-42025781D01*
X78362302Y-42046597D01*
X78197552Y-42100128D01*
X78043211Y-42178768D01*
X77963256Y-42236859D01*
X77903072Y-42280586D01*
X77903070Y-42280588D01*
X77903069Y-42280588D01*
X77780588Y-42403069D01*
X77780588Y-42403070D01*
X77780586Y-42403072D01*
X77754891Y-42438438D01*
X77678768Y-42543211D01*
X77600128Y-42697552D01*
X77546597Y-42862302D01*
X77519500Y-43033389D01*
X77519500Y-43206610D01*
X77546597Y-43377697D01*
X77600126Y-43542442D01*
X77600130Y-43542452D01*
X77605889Y-43553754D01*
X77618785Y-43622423D01*
X77592508Y-43687163D01*
X77583085Y-43697729D01*
X72292672Y-48988143D01*
X72231349Y-49021628D01*
X72161657Y-49016644D01*
X72105724Y-48974772D01*
X72082519Y-48919863D01*
X72073402Y-48862299D01*
X72019873Y-48697555D01*
X71941232Y-48543212D01*
X71839414Y-48403072D01*
X71716928Y-48280586D01*
X71660005Y-48239229D01*
X71617341Y-48183900D01*
X71611362Y-48114286D01*
X71643968Y-48052491D01*
X71645137Y-48051305D01*
X78439714Y-41256728D01*
X78501035Y-41223245D01*
X78528517Y-41221384D01*
X78528517Y-41220500D01*
X78706610Y-41220500D01*
X78706611Y-41220500D01*
X78877701Y-41193402D01*
X79042445Y-41139873D01*
X79196788Y-41061232D01*
X79336928Y-40959414D01*
X79459414Y-40836928D01*
X79561232Y-40696788D01*
X79639873Y-40542445D01*
X79693402Y-40377701D01*
X79720500Y-40206611D01*
X79720500Y-40033389D01*
X79693402Y-39862299D01*
X79639873Y-39697555D01*
X79561232Y-39543212D01*
X79459414Y-39403072D01*
X79336928Y-39280586D01*
X79196788Y-39178768D01*
X79042445Y-39100127D01*
X78877701Y-39046598D01*
X78877699Y-39046597D01*
X78877698Y-39046597D01*
X78746271Y-39025781D01*
X78706611Y-39019500D01*
X78533389Y-39019500D01*
X78493728Y-39025781D01*
X78362302Y-39046597D01*
X78197552Y-39100128D01*
X78043211Y-39178768D01*
X77963256Y-39236859D01*
X77903072Y-39280586D01*
X77903070Y-39280588D01*
X77903069Y-39280588D01*
X77780588Y-39403069D01*
X77780588Y-39403070D01*
X77780586Y-39403072D01*
X77754891Y-39438438D01*
X77678768Y-39543211D01*
X77600128Y-39697552D01*
X77546597Y-39862302D01*
X77519500Y-40033389D01*
X77519500Y-40206610D01*
X77546597Y-40377697D01*
X77600126Y-40542442D01*
X77600130Y-40542452D01*
X77605889Y-40553754D01*
X77618785Y-40622423D01*
X77592508Y-40687163D01*
X77583085Y-40697729D01*
X72292672Y-45988143D01*
X72231349Y-46021628D01*
X72161657Y-46016644D01*
X72105724Y-45974772D01*
X72082519Y-45919863D01*
X72073402Y-45862299D01*
X72019873Y-45697555D01*
X71941232Y-45543212D01*
X71839414Y-45403072D01*
X71716928Y-45280586D01*
X71576788Y-45178768D01*
X71422445Y-45100127D01*
X71257701Y-45046598D01*
X71257699Y-45046597D01*
X71257698Y-45046597D01*
X71126271Y-45025781D01*
X71086611Y-45019500D01*
X70913389Y-45019500D01*
X70873728Y-45025781D01*
X70742302Y-45046597D01*
X70577552Y-45100128D01*
X70423211Y-45178768D01*
X70343256Y-45236859D01*
X70283072Y-45280586D01*
X70283070Y-45280588D01*
X70283069Y-45280588D01*
X70160588Y-45403069D01*
X70160588Y-45403070D01*
X70160586Y-45403072D01*
X70135040Y-45438232D01*
X70058770Y-45543207D01*
X70058765Y-45543216D01*
X70054393Y-45551798D01*
X70006418Y-45602592D01*
X69943910Y-45619500D01*
X68836090Y-45619500D01*
X68769051Y-45599815D01*
X68725607Y-45551798D01*
X68721234Y-45543216D01*
X68721229Y-45543207D01*
X68691672Y-45502526D01*
X68619414Y-45403072D01*
X68496928Y-45280586D01*
X68356788Y-45178768D01*
X68202445Y-45100127D01*
X68037701Y-45046598D01*
X68037699Y-45046597D01*
X68037698Y-45046597D01*
X67906271Y-45025781D01*
X67866611Y-45019500D01*
X67693389Y-45019500D01*
X67653728Y-45025781D01*
X67522302Y-45046597D01*
X67357552Y-45100128D01*
X67203211Y-45178768D01*
X67123256Y-45236859D01*
X67063072Y-45280586D01*
X67063070Y-45280588D01*
X67063069Y-45280588D01*
X66940588Y-45403069D01*
X66940588Y-45403070D01*
X66940586Y-45403072D01*
X66914891Y-45438438D01*
X66838768Y-45543211D01*
X66760128Y-45697552D01*
X66706597Y-45862302D01*
X66688784Y-45974772D01*
X66679500Y-46033389D01*
X61260500Y-46033389D01*
X61260500Y-45526898D01*
X61249877Y-45438436D01*
X61194361Y-45297658D01*
X61194360Y-45297657D01*
X61194360Y-45297656D01*
X61102922Y-45177077D01*
X60982343Y-45085639D01*
X60883339Y-45046597D01*
X60841564Y-45030123D01*
X60841562Y-45030122D01*
X60841558Y-45030121D01*
X60769715Y-45021494D01*
X60705501Y-44993957D01*
X60666368Y-44936074D01*
X60660500Y-44898379D01*
X60660500Y-44341620D01*
X60680185Y-44274581D01*
X60732989Y-44228826D01*
X60769712Y-44218505D01*
X60841564Y-44209877D01*
X60982342Y-44154361D01*
X61102922Y-44062922D01*
X61194361Y-43942342D01*
X61249877Y-43801564D01*
X61260500Y-43713102D01*
X61260500Y-43033389D01*
X66679500Y-43033389D01*
X66679500Y-43206611D01*
X66706598Y-43377701D01*
X66760127Y-43542445D01*
X66838768Y-43696788D01*
X66940586Y-43836928D01*
X67063072Y-43959414D01*
X67203212Y-44061232D01*
X67357555Y-44139873D01*
X67522299Y-44193402D01*
X67693389Y-44220500D01*
X67693390Y-44220500D01*
X67866610Y-44220500D01*
X67866611Y-44220500D01*
X68037701Y-44193402D01*
X68202445Y-44139873D01*
X68356788Y-44061232D01*
X68496928Y-43959414D01*
X68619414Y-43836928D01*
X68721232Y-43696788D01*
X68725607Y-43688202D01*
X68773582Y-43637408D01*
X68836090Y-43620500D01*
X69943910Y-43620500D01*
X70010949Y-43640185D01*
X70054393Y-43688202D01*
X70058765Y-43696783D01*
X70058770Y-43696792D01*
X70101100Y-43755053D01*
X70160586Y-43836928D01*
X70283072Y-43959414D01*
X70423212Y-44061232D01*
X70577555Y-44139873D01*
X70742299Y-44193402D01*
X70913389Y-44220500D01*
X70913390Y-44220500D01*
X71086610Y-44220500D01*
X71086611Y-44220500D01*
X71257701Y-44193402D01*
X71422445Y-44139873D01*
X71576788Y-44061232D01*
X71716928Y-43959414D01*
X71839414Y-43836928D01*
X71941232Y-43696788D01*
X72019873Y-43542445D01*
X72073402Y-43377701D01*
X72100500Y-43206611D01*
X72100500Y-43033389D01*
X72073402Y-42862299D01*
X72019873Y-42697555D01*
X71941232Y-42543212D01*
X71839414Y-42403072D01*
X71716928Y-42280586D01*
X71576788Y-42178768D01*
X71422445Y-42100127D01*
X71257701Y-42046598D01*
X71257699Y-42046597D01*
X71257698Y-42046597D01*
X71126271Y-42025781D01*
X71086611Y-42019500D01*
X70913389Y-42019500D01*
X70873728Y-42025781D01*
X70742302Y-42046597D01*
X70577552Y-42100128D01*
X70423211Y-42178768D01*
X70343256Y-42236859D01*
X70283072Y-42280586D01*
X70283070Y-42280588D01*
X70283069Y-42280588D01*
X70160588Y-42403069D01*
X70160588Y-42403070D01*
X70160586Y-42403072D01*
X70135040Y-42438232D01*
X70058770Y-42543207D01*
X70058765Y-42543216D01*
X70054393Y-42551798D01*
X70006418Y-42602592D01*
X69943910Y-42619500D01*
X68836090Y-42619500D01*
X68769051Y-42599815D01*
X68725607Y-42551798D01*
X68721234Y-42543216D01*
X68721229Y-42543207D01*
X68691672Y-42502526D01*
X68619414Y-42403072D01*
X68496928Y-42280586D01*
X68356788Y-42178768D01*
X68202445Y-42100127D01*
X68037701Y-42046598D01*
X68037699Y-42046597D01*
X68037698Y-42046597D01*
X67906271Y-42025781D01*
X67866611Y-42019500D01*
X67693389Y-42019500D01*
X67653728Y-42025781D01*
X67522302Y-42046597D01*
X67357552Y-42100128D01*
X67203211Y-42178768D01*
X67123256Y-42236859D01*
X67063072Y-42280586D01*
X67063070Y-42280588D01*
X67063069Y-42280588D01*
X66940588Y-42403069D01*
X66940588Y-42403070D01*
X66940586Y-42403072D01*
X66914891Y-42438438D01*
X66838768Y-42543211D01*
X66760128Y-42697552D01*
X66706597Y-42862302D01*
X66679500Y-43033389D01*
X61260500Y-43033389D01*
X61260500Y-42526898D01*
X61249877Y-42438436D01*
X61194361Y-42297658D01*
X61194360Y-42297657D01*
X61194360Y-42297656D01*
X61102922Y-42177077D01*
X60982343Y-42085639D01*
X60883339Y-42046597D01*
X60841564Y-42030123D01*
X60841562Y-42030122D01*
X60841558Y-42030121D01*
X60769715Y-42021494D01*
X60705501Y-41993957D01*
X60666368Y-41936074D01*
X60660500Y-41898379D01*
X60660500Y-41341620D01*
X60680185Y-41274581D01*
X60732989Y-41228826D01*
X60769712Y-41218505D01*
X60841564Y-41209877D01*
X60982342Y-41154361D01*
X61102922Y-41062922D01*
X61194361Y-40942342D01*
X61249877Y-40801564D01*
X61260500Y-40713102D01*
X61260500Y-40033389D01*
X66679500Y-40033389D01*
X66679500Y-40206611D01*
X66706598Y-40377701D01*
X66760127Y-40542445D01*
X66838768Y-40696788D01*
X66940586Y-40836928D01*
X67063072Y-40959414D01*
X67203212Y-41061232D01*
X67357555Y-41139873D01*
X67522299Y-41193402D01*
X67693389Y-41220500D01*
X67693390Y-41220500D01*
X67866610Y-41220500D01*
X67866611Y-41220500D01*
X68037701Y-41193402D01*
X68202445Y-41139873D01*
X68356788Y-41061232D01*
X68496928Y-40959414D01*
X68619414Y-40836928D01*
X68721232Y-40696788D01*
X68725607Y-40688202D01*
X68773582Y-40637408D01*
X68836090Y-40620500D01*
X69943910Y-40620500D01*
X70010949Y-40640185D01*
X70054393Y-40688202D01*
X70058765Y-40696783D01*
X70058770Y-40696792D01*
X70101100Y-40755053D01*
X70160586Y-40836928D01*
X70283072Y-40959414D01*
X70423212Y-41061232D01*
X70577555Y-41139873D01*
X70742299Y-41193402D01*
X70913389Y-41220500D01*
X70913390Y-41220500D01*
X71086610Y-41220500D01*
X71086611Y-41220500D01*
X71257701Y-41193402D01*
X71422445Y-41139873D01*
X71576788Y-41061232D01*
X71716928Y-40959414D01*
X71839414Y-40836928D01*
X71941232Y-40696788D01*
X72019873Y-40542445D01*
X72073402Y-40377701D01*
X72100500Y-40206611D01*
X72100500Y-40033389D01*
X72073402Y-39862299D01*
X72019873Y-39697555D01*
X71941232Y-39543212D01*
X71839414Y-39403072D01*
X71716928Y-39280586D01*
X71576788Y-39178768D01*
X71422445Y-39100127D01*
X71257701Y-39046598D01*
X71257699Y-39046597D01*
X71257698Y-39046597D01*
X71126271Y-39025781D01*
X71086611Y-39019500D01*
X70913389Y-39019500D01*
X70873728Y-39025781D01*
X70742302Y-39046597D01*
X70577552Y-39100128D01*
X70423211Y-39178768D01*
X70343256Y-39236859D01*
X70283072Y-39280586D01*
X70283070Y-39280588D01*
X70283069Y-39280588D01*
X70160588Y-39403069D01*
X70160588Y-39403070D01*
X70160586Y-39403072D01*
X70135040Y-39438232D01*
X70058770Y-39543207D01*
X70058765Y-39543216D01*
X70054393Y-39551798D01*
X70006418Y-39602592D01*
X69943910Y-39619500D01*
X68836090Y-39619500D01*
X68769051Y-39599815D01*
X68725607Y-39551798D01*
X68721234Y-39543216D01*
X68721229Y-39543207D01*
X68691672Y-39502526D01*
X68619414Y-39403072D01*
X68496928Y-39280586D01*
X68356788Y-39178768D01*
X68202445Y-39100127D01*
X68037701Y-39046598D01*
X68037699Y-39046597D01*
X68037698Y-39046597D01*
X67906271Y-39025781D01*
X67866611Y-39019500D01*
X67693389Y-39019500D01*
X67653728Y-39025781D01*
X67522302Y-39046597D01*
X67357552Y-39100128D01*
X67203211Y-39178768D01*
X67123256Y-39236859D01*
X67063072Y-39280586D01*
X67063070Y-39280588D01*
X67063069Y-39280588D01*
X66940588Y-39403069D01*
X66940588Y-39403070D01*
X66940586Y-39403072D01*
X66914891Y-39438438D01*
X66838768Y-39543211D01*
X66760128Y-39697552D01*
X66706597Y-39862302D01*
X66679500Y-40033389D01*
X61260500Y-40033389D01*
X61260500Y-39526898D01*
X61249877Y-39438436D01*
X61194361Y-39297658D01*
X61194360Y-39297657D01*
X61194360Y-39297656D01*
X61102922Y-39177077D01*
X60982343Y-39085639D01*
X60841561Y-39030122D01*
X60795926Y-39024642D01*
X60753102Y-39019500D01*
X59566898Y-39019500D01*
X59527853Y-39024188D01*
X59478438Y-39030122D01*
X59337656Y-39085639D01*
X59217077Y-39177077D01*
X59125639Y-39297656D01*
X59070122Y-39438438D01*
X59064188Y-39487853D01*
X59059500Y-39526898D01*
X59059500Y-40713102D01*
X59065126Y-40759954D01*
X59070122Y-40801561D01*
X59125639Y-40942343D01*
X59217077Y-41062922D01*
X59337656Y-41154360D01*
X59337657Y-41154360D01*
X59337658Y-41154361D01*
X59478436Y-41209877D01*
X59550285Y-41218505D01*
X59614498Y-41246041D01*
X59653631Y-41303923D01*
X59659500Y-41341620D01*
X59659500Y-41898379D01*
X59639815Y-41965418D01*
X59587011Y-42011173D01*
X59550285Y-42021494D01*
X59478441Y-42030121D01*
X59337656Y-42085639D01*
X59217077Y-42177077D01*
X59125639Y-42297656D01*
X59070122Y-42438438D01*
X59064188Y-42487853D01*
X59059500Y-42526898D01*
X59059500Y-43713102D01*
X59065126Y-43759954D01*
X59070122Y-43801561D01*
X59125639Y-43942343D01*
X59217077Y-44062922D01*
X59337656Y-44154360D01*
X59337657Y-44154360D01*
X59337658Y-44154361D01*
X59478436Y-44209877D01*
X59550285Y-44218505D01*
X59614498Y-44246041D01*
X59653631Y-44303923D01*
X59659500Y-44341620D01*
X59659500Y-44898379D01*
X59639815Y-44965418D01*
X59587011Y-45011173D01*
X59550285Y-45021494D01*
X59478441Y-45030121D01*
X59337656Y-45085639D01*
X59217077Y-45177077D01*
X59125639Y-45297656D01*
X59070122Y-45438438D01*
X59064188Y-45487853D01*
X59059500Y-45526898D01*
X59059500Y-45526903D01*
X59059500Y-46461324D01*
X59039815Y-46528363D01*
X59023181Y-46549005D01*
X58649005Y-46923181D01*
X58587682Y-46956666D01*
X58561324Y-46959500D01*
X53814499Y-46959500D01*
X53747460Y-46939815D01*
X53701705Y-46887011D01*
X53690499Y-46835500D01*
X53690499Y-46565143D01*
X53690499Y-46565136D01*
X53689179Y-46553754D01*
X53687586Y-46540012D01*
X53687585Y-46540010D01*
X53687585Y-46540009D01*
X53642206Y-46437235D01*
X53562765Y-46357794D01*
X53562763Y-46357793D01*
X53459992Y-46312415D01*
X53434865Y-46309500D01*
X51645143Y-46309500D01*
X51645117Y-46309502D01*
X51620012Y-46312413D01*
X51620008Y-46312415D01*
X51517235Y-46357793D01*
X51437794Y-46437234D01*
X51392415Y-46540006D01*
X51392415Y-46540008D01*
X51389500Y-46565131D01*
X50500500Y-46565131D01*
X50500500Y-37924500D01*
X50520185Y-37857461D01*
X50572989Y-37811706D01*
X50624500Y-37800500D01*
X89375500Y-37800500D01*
X89442539Y-37820185D01*
G37*
%TD.AperFunction*%
%TD*%
M02*
