%TF.GenerationSoftware,KiCad,Pcbnew,(6.0.5)*%
%TF.CreationDate,2022-09-04T14:03:00+01:00*%
%TF.ProjectId,MPR121TouchKeyboard,4d505231-3231-4546-9f75-63684b657962,rev?*%
%TF.SameCoordinates,Original*%
%TF.FileFunction,Legend,Top*%
%TF.FilePolarity,Positive*%
%FSLAX46Y46*%
G04 Gerber Fmt 4.6, Leading zero omitted, Abs format (unit mm)*
G04 Created by KiCad (PCBNEW (6.0.5)) date 2022-09-04 14:03:00*
%MOMM*%
%LPD*%
G01*
G04 APERTURE LIST*
%ADD10C,0.150000*%
%ADD11C,0.200000*%
%ADD12C,0.300000*%
%ADD13C,0.120000*%
G04 APERTURE END LIST*
D10*
X191000000Y-62000000D02*
X95000000Y-62000000D01*
X107470000Y-58200000D02*
X107470000Y-13200000D01*
X178500000Y-110000000D02*
X178500000Y-65000000D01*
X119910476Y-66440000D02*
X119834285Y-66401904D01*
X119720000Y-66401904D01*
X119605714Y-66440000D01*
X119529523Y-66516190D01*
X119491428Y-66592380D01*
X119453333Y-66744761D01*
X119453333Y-66859047D01*
X119491428Y-67011428D01*
X119529523Y-67087619D01*
X119605714Y-67163809D01*
X119720000Y-67201904D01*
X119796190Y-67201904D01*
X119910476Y-67163809D01*
X119948571Y-67125714D01*
X119948571Y-66859047D01*
X119796190Y-66859047D01*
X120291428Y-67201904D02*
X120291428Y-66401904D01*
X120748571Y-67201904D01*
X120748571Y-66401904D01*
X121129523Y-67201904D02*
X121129523Y-66401904D01*
X121320000Y-66401904D01*
X121434285Y-66440000D01*
X121510476Y-66516190D01*
X121548571Y-66592380D01*
X121586666Y-66744761D01*
X121586666Y-66859047D01*
X121548571Y-67011428D01*
X121510476Y-67087619D01*
X121434285Y-67163809D01*
X121320000Y-67201904D01*
X121129523Y-67201904D01*
X165519523Y-57010000D02*
X165595714Y-57048095D01*
X165710000Y-57048095D01*
X165824285Y-57010000D01*
X165900476Y-56933809D01*
X165938571Y-56857619D01*
X165976666Y-56705238D01*
X165976666Y-56590952D01*
X165938571Y-56438571D01*
X165900476Y-56362380D01*
X165824285Y-56286190D01*
X165710000Y-56248095D01*
X165633809Y-56248095D01*
X165519523Y-56286190D01*
X165481428Y-56324285D01*
X165481428Y-56590952D01*
X165633809Y-56590952D01*
X165138571Y-56248095D02*
X165138571Y-57048095D01*
X164681428Y-56248095D01*
X164681428Y-57048095D01*
X164300476Y-56248095D02*
X164300476Y-57048095D01*
X164110000Y-57048095D01*
X163995714Y-57010000D01*
X163919523Y-56933809D01*
X163881428Y-56857619D01*
X163843333Y-56705238D01*
X163843333Y-56590952D01*
X163881428Y-56438571D01*
X163919523Y-56362380D01*
X163995714Y-56286190D01*
X164110000Y-56248095D01*
X164300476Y-56248095D01*
%TO.C,J10*%
X159761904Y-111166666D02*
X160238095Y-111166666D01*
X159666666Y-111452380D02*
X160000000Y-110452380D01*
X160333333Y-111452380D01*
%TO.C,J5*%
X123785714Y-110928571D02*
X124119047Y-110928571D01*
X124261904Y-111452380D02*
X123785714Y-111452380D01*
X123785714Y-110452380D01*
X124261904Y-110452380D01*
%TO.C,J12*%
X172071428Y-110928571D02*
X172214285Y-110976190D01*
X172261904Y-111023809D01*
X172309523Y-111119047D01*
X172309523Y-111261904D01*
X172261904Y-111357142D01*
X172214285Y-111404761D01*
X172119047Y-111452380D01*
X171738095Y-111452380D01*
X171738095Y-110452380D01*
X172071428Y-110452380D01*
X172166666Y-110500000D01*
X172214285Y-110547619D01*
X172261904Y-110642857D01*
X172261904Y-110738095D01*
X172214285Y-110833333D01*
X172166666Y-110880952D01*
X172071428Y-110928571D01*
X171738095Y-110928571D01*
%TO.C,J26*%
X120738095Y-42333333D02*
X120261904Y-42333333D01*
X120833333Y-42047619D02*
X120500000Y-43047619D01*
X120166666Y-42047619D01*
X119880952Y-42714285D02*
X119166666Y-42714285D01*
X119595238Y-43142857D02*
X119880952Y-41857142D01*
X119261904Y-42285714D02*
X119976190Y-42285714D01*
X119547619Y-41857142D02*
X119261904Y-43142857D01*
%TO.C,J7*%
X141642857Y-75928571D02*
X141309523Y-75928571D01*
X141309523Y-76452380D02*
X141309523Y-75452380D01*
X141785714Y-75452380D01*
X142119047Y-75785714D02*
X142833333Y-75785714D01*
X142404761Y-75357142D02*
X142119047Y-76642857D01*
X142738095Y-76214285D02*
X142023809Y-76214285D01*
X142452380Y-76642857D02*
X142738095Y-75357142D01*
%TO.C,J28*%
X100928571Y-17642857D02*
X100976190Y-17595238D01*
X101119047Y-17547619D01*
X101214285Y-17547619D01*
X101357142Y-17595238D01*
X101452380Y-17690476D01*
X101500000Y-17785714D01*
X101547619Y-17976190D01*
X101547619Y-18119047D01*
X101500000Y-18309523D01*
X101452380Y-18404761D01*
X101357142Y-18500000D01*
X101214285Y-18547619D01*
X101119047Y-18547619D01*
X100976190Y-18500000D01*
X100928571Y-18452380D01*
X100452380Y-18547619D02*
X100547619Y-18357142D01*
%TO.C,J13*%
X185071428Y-111357142D02*
X185023809Y-111404761D01*
X184880952Y-111452380D01*
X184785714Y-111452380D01*
X184642857Y-111404761D01*
X184547619Y-111309523D01*
X184500000Y-111214285D01*
X184452380Y-111023809D01*
X184452380Y-110880952D01*
X184500000Y-110690476D01*
X184547619Y-110595238D01*
X184642857Y-110500000D01*
X184785714Y-110452380D01*
X184880952Y-110452380D01*
X185023809Y-110500000D01*
X185071428Y-110547619D01*
X185547619Y-110452380D02*
X185452380Y-110642857D01*
%TO.C,J23*%
X137738095Y-18500000D02*
X137833333Y-18547619D01*
X137976190Y-18547619D01*
X138119047Y-18500000D01*
X138214285Y-18404761D01*
X138261904Y-18309523D01*
X138309523Y-18119047D01*
X138309523Y-17976190D01*
X138261904Y-17785714D01*
X138214285Y-17690476D01*
X138119047Y-17595238D01*
X137976190Y-17547619D01*
X137880952Y-17547619D01*
X137738095Y-17595238D01*
X137690476Y-17642857D01*
X137690476Y-17976190D01*
X137880952Y-17976190D01*
%TO.C,J4*%
X117238095Y-76452380D02*
X117238095Y-75452380D01*
X117476190Y-75452380D01*
X117619047Y-75500000D01*
X117714285Y-75595238D01*
X117761904Y-75690476D01*
X117809523Y-75880952D01*
X117809523Y-76023809D01*
X117761904Y-76214285D01*
X117714285Y-76309523D01*
X117619047Y-76404761D01*
X117476190Y-76452380D01*
X117238095Y-76452380D01*
X118190476Y-75785714D02*
X118904761Y-75785714D01*
X118476190Y-75357142D02*
X118190476Y-76642857D01*
X118809523Y-76214285D02*
X118095238Y-76214285D01*
X118523809Y-76642857D02*
X118809523Y-75357142D01*
%TO.C,J24*%
X132238095Y-43000000D02*
X132333333Y-43047619D01*
X132476190Y-43047619D01*
X132619047Y-43000000D01*
X132714285Y-42904761D01*
X132761904Y-42809523D01*
X132809523Y-42619047D01*
X132809523Y-42476190D01*
X132761904Y-42285714D01*
X132714285Y-42190476D01*
X132619047Y-42095238D01*
X132476190Y-42047619D01*
X132380952Y-42047619D01*
X132238095Y-42095238D01*
X132190476Y-42142857D01*
X132190476Y-42476190D01*
X132380952Y-42476190D01*
X131809523Y-42714285D02*
X131095238Y-42714285D01*
X131523809Y-43142857D02*
X131809523Y-41857142D01*
X131190476Y-42285714D02*
X131904761Y-42285714D01*
X131476190Y-41857142D02*
X131190476Y-43142857D01*
%TO.C,J3*%
X111738095Y-111452380D02*
X111738095Y-110452380D01*
X111976190Y-110452380D01*
X112119047Y-110500000D01*
X112214285Y-110595238D01*
X112261904Y-110690476D01*
X112309523Y-110880952D01*
X112309523Y-111023809D01*
X112261904Y-111214285D01*
X112214285Y-111309523D01*
X112119047Y-111404761D01*
X111976190Y-111452380D01*
X111738095Y-111452380D01*
%TO.C,J6*%
X136142857Y-110928571D02*
X135809523Y-110928571D01*
X135809523Y-111452380D02*
X135809523Y-110452380D01*
X136285714Y-110452380D01*
%TO.C,J8*%
X148261904Y-110500000D02*
X148166666Y-110452380D01*
X148023809Y-110452380D01*
X147880952Y-110500000D01*
X147785714Y-110595238D01*
X147738095Y-110690476D01*
X147690476Y-110880952D01*
X147690476Y-111023809D01*
X147738095Y-111214285D01*
X147785714Y-111309523D01*
X147880952Y-111404761D01*
X148023809Y-111452380D01*
X148119047Y-111452380D01*
X148261904Y-111404761D01*
X148309523Y-111357142D01*
X148309523Y-111023809D01*
X148119047Y-111023809D01*
%TO.C,J1*%
X100309523Y-111357142D02*
X100261904Y-111404761D01*
X100119047Y-111452380D01*
X100023809Y-111452380D01*
X99880952Y-111404761D01*
X99785714Y-111309523D01*
X99738095Y-111214285D01*
X99690476Y-111023809D01*
X99690476Y-110880952D01*
X99738095Y-110690476D01*
X99785714Y-110595238D01*
X99880952Y-110500000D01*
X100023809Y-110452380D01*
X100119047Y-110452380D01*
X100261904Y-110500000D01*
X100309523Y-110547619D01*
%TO.C,J11*%
X165261904Y-76166666D02*
X165738095Y-76166666D01*
X165166666Y-76452380D02*
X165500000Y-75452380D01*
X165833333Y-76452380D01*
X166119047Y-75785714D02*
X166833333Y-75785714D01*
X166404761Y-75357142D02*
X166119047Y-76642857D01*
X166738095Y-76214285D02*
X166023809Y-76214285D01*
X166452380Y-76642857D02*
X166738095Y-75357142D01*
%TO.C,J17*%
X180190476Y-42142857D02*
X180238095Y-42095238D01*
X180380952Y-42047619D01*
X180476190Y-42047619D01*
X180619047Y-42095238D01*
X180714285Y-42190476D01*
X180761904Y-42285714D01*
X180809523Y-42476190D01*
X180809523Y-42619047D01*
X180761904Y-42809523D01*
X180714285Y-42904761D01*
X180619047Y-43000000D01*
X180476190Y-43047619D01*
X180380952Y-43047619D01*
X180238095Y-43000000D01*
X180190476Y-42952380D01*
X179809523Y-42714285D02*
X179095238Y-42714285D01*
X179523809Y-43142857D02*
X179809523Y-41857142D01*
X179190476Y-42285714D02*
X179904761Y-42285714D01*
X179476190Y-41857142D02*
X179190476Y-43142857D01*
%TO.C,J16*%
X185690476Y-17642857D02*
X185738095Y-17595238D01*
X185880952Y-17547619D01*
X185976190Y-17547619D01*
X186119047Y-17595238D01*
X186214285Y-17690476D01*
X186261904Y-17785714D01*
X186309523Y-17976190D01*
X186309523Y-18119047D01*
X186261904Y-18309523D01*
X186214285Y-18404761D01*
X186119047Y-18500000D01*
X185976190Y-18547619D01*
X185880952Y-18547619D01*
X185738095Y-18500000D01*
X185690476Y-18452380D01*
%TO.C,J25*%
X126238095Y-17833333D02*
X125761904Y-17833333D01*
X126333333Y-17547619D02*
X126000000Y-18547619D01*
X125666666Y-17547619D01*
%TO.C,J21*%
X149857142Y-18071428D02*
X150190476Y-18071428D01*
X150190476Y-17547619D02*
X150190476Y-18547619D01*
X149714285Y-18547619D01*
%TO.C,J27*%
X113928571Y-18071428D02*
X113785714Y-18023809D01*
X113738095Y-17976190D01*
X113690476Y-17880952D01*
X113690476Y-17738095D01*
X113738095Y-17642857D01*
X113785714Y-17595238D01*
X113880952Y-17547619D01*
X114261904Y-17547619D01*
X114261904Y-18547619D01*
X113928571Y-18547619D01*
X113833333Y-18500000D01*
X113785714Y-18452380D01*
X113738095Y-18357142D01*
X113738095Y-18261904D01*
X113785714Y-18166666D01*
X113833333Y-18119047D01*
X113928571Y-18071428D01*
X114261904Y-18071428D01*
%TO.C,J14*%
X169123809Y-67297142D02*
X169076190Y-67344761D01*
X168933333Y-67392380D01*
X168838095Y-67392380D01*
X168695238Y-67344761D01*
X168600000Y-67249523D01*
X168552380Y-67154285D01*
X168504761Y-66963809D01*
X168504761Y-66820952D01*
X168552380Y-66630476D01*
X168600000Y-66535238D01*
X168695238Y-66440000D01*
X168838095Y-66392380D01*
X168933333Y-66392380D01*
X169076190Y-66440000D01*
X169123809Y-66487619D01*
X169695238Y-67392380D02*
X169600000Y-67344761D01*
X169552380Y-67297142D01*
X169504761Y-67201904D01*
X169504761Y-66916190D01*
X169552380Y-66820952D01*
X169600000Y-66773333D01*
X169695238Y-66725714D01*
X169838095Y-66725714D01*
X169933333Y-66773333D01*
X169980952Y-66820952D01*
X170028571Y-66916190D01*
X170028571Y-67201904D01*
X169980952Y-67297142D01*
X169933333Y-67344761D01*
X169838095Y-67392380D01*
X169695238Y-67392380D01*
X170457142Y-67392380D02*
X170457142Y-66725714D01*
X170457142Y-66820952D02*
X170504761Y-66773333D01*
X170600000Y-66725714D01*
X170742857Y-66725714D01*
X170838095Y-66773333D01*
X170885714Y-66868571D01*
X170885714Y-67392380D01*
X170885714Y-66868571D02*
X170933333Y-66773333D01*
X171028571Y-66725714D01*
X171171428Y-66725714D01*
X171266666Y-66773333D01*
X171314285Y-66868571D01*
X171314285Y-67392380D01*
X171790476Y-67392380D02*
X171790476Y-66725714D01*
X171790476Y-66820952D02*
X171838095Y-66773333D01*
X171933333Y-66725714D01*
X172076190Y-66725714D01*
X172171428Y-66773333D01*
X172219047Y-66868571D01*
X172219047Y-67392380D01*
X172219047Y-66868571D02*
X172266666Y-66773333D01*
X172361904Y-66725714D01*
X172504761Y-66725714D01*
X172600000Y-66773333D01*
X172647619Y-66868571D01*
X172647619Y-67392380D01*
%TO.C,J19*%
X168761904Y-42047619D02*
X168761904Y-43047619D01*
X168523809Y-43047619D01*
X168380952Y-43000000D01*
X168285714Y-42904761D01*
X168238095Y-42809523D01*
X168190476Y-42619047D01*
X168190476Y-42476190D01*
X168238095Y-42285714D01*
X168285714Y-42190476D01*
X168380952Y-42095238D01*
X168523809Y-42047619D01*
X168761904Y-42047619D01*
X167809523Y-42714285D02*
X167095238Y-42714285D01*
X167523809Y-43142857D02*
X167809523Y-41857142D01*
X167190476Y-42285714D02*
X167904761Y-42285714D01*
X167476190Y-41857142D02*
X167190476Y-43142857D01*
%TO.C,J20*%
X162214285Y-18071428D02*
X161880952Y-18071428D01*
X161738095Y-17547619D02*
X162214285Y-17547619D01*
X162214285Y-18547619D01*
X161738095Y-18547619D01*
%TO.C,J9*%
X153761904Y-75500000D02*
X153666666Y-75452380D01*
X153523809Y-75452380D01*
X153380952Y-75500000D01*
X153285714Y-75595238D01*
X153238095Y-75690476D01*
X153190476Y-75880952D01*
X153190476Y-76023809D01*
X153238095Y-76214285D01*
X153285714Y-76309523D01*
X153380952Y-76404761D01*
X153523809Y-76452380D01*
X153619047Y-76452380D01*
X153761904Y-76404761D01*
X153809523Y-76357142D01*
X153809523Y-76023809D01*
X153619047Y-76023809D01*
X154190476Y-75785714D02*
X154904761Y-75785714D01*
X154476190Y-75357142D02*
X154190476Y-76642857D01*
X154809523Y-76214285D02*
X154095238Y-76214285D01*
X154523809Y-76642857D02*
X154809523Y-75357142D01*
%TO.C,J2*%
X105809523Y-76357142D02*
X105761904Y-76404761D01*
X105619047Y-76452380D01*
X105523809Y-76452380D01*
X105380952Y-76404761D01*
X105285714Y-76309523D01*
X105238095Y-76214285D01*
X105190476Y-76023809D01*
X105190476Y-75880952D01*
X105238095Y-75690476D01*
X105285714Y-75595238D01*
X105380952Y-75500000D01*
X105523809Y-75452380D01*
X105619047Y-75452380D01*
X105761904Y-75500000D01*
X105809523Y-75547619D01*
X106190476Y-75785714D02*
X106904761Y-75785714D01*
X106476190Y-75357142D02*
X106190476Y-76642857D01*
X106809523Y-76214285D02*
X106095238Y-76214285D01*
X106523809Y-76642857D02*
X106809523Y-75357142D01*
%TO.C,J18*%
X174261904Y-17547619D02*
X174261904Y-18547619D01*
X174023809Y-18547619D01*
X173880952Y-18500000D01*
X173785714Y-18404761D01*
X173738095Y-18309523D01*
X173690476Y-18119047D01*
X173690476Y-17976190D01*
X173738095Y-17785714D01*
X173785714Y-17690476D01*
X173880952Y-17595238D01*
X174023809Y-17547619D01*
X174261904Y-17547619D01*
%TO.C,J22*%
X144357142Y-42571428D02*
X144690476Y-42571428D01*
X144690476Y-42047619D02*
X144690476Y-43047619D01*
X144214285Y-43047619D01*
X143880952Y-42714285D02*
X143166666Y-42714285D01*
X143595238Y-43142857D02*
X143880952Y-41857142D01*
X143261904Y-42285714D02*
X143976190Y-42285714D01*
X143547619Y-41857142D02*
X143261904Y-43142857D01*
%TO.C,J10*%
D11*
X164960000Y-95020000D02*
X164960000Y-109960000D01*
X155050000Y-109950000D01*
X155040000Y-95020000D01*
X160000000Y-90060000D01*
X164960000Y-95020000D01*
%TO.C,J5*%
X128960000Y-95020000D02*
X128960000Y-109960000D01*
X119050000Y-109950000D01*
X119040000Y-95020000D01*
X124000000Y-90060000D01*
X128960000Y-95020000D01*
%TO.C,J12*%
X176960000Y-95020000D02*
X176960000Y-109960000D01*
X167050000Y-109950000D01*
X167040000Y-95020000D01*
X172000000Y-90060000D01*
X176960000Y-95020000D01*
%TO.C,J26*%
D12*
X124910000Y-36540000D02*
X124910000Y-46410000D01*
X115090000Y-46400000D01*
X115090000Y-36540000D01*
X120000000Y-31630000D01*
X124910000Y-36540000D01*
%TO.C,J7*%
D11*
X146960000Y-86990000D02*
X142000000Y-91940000D01*
X137040000Y-86990000D01*
X137040000Y-77040000D01*
X146960000Y-77040000D01*
X146960000Y-86990000D01*
%TO.C,J28*%
D12*
X105910000Y-28960000D02*
X101000000Y-33870000D01*
X96090000Y-28960000D01*
X96090000Y-14090000D01*
X105910000Y-14090000D01*
X105910000Y-28960000D01*
%TO.C,J13*%
D11*
X189960000Y-95020000D02*
X189960000Y-109960000D01*
X180050000Y-109950000D01*
X180040000Y-95020000D01*
X185000000Y-90060000D01*
X189960000Y-95020000D01*
%TO.C,J23*%
D12*
X142910000Y-28960000D02*
X138000000Y-33870000D01*
X133090000Y-28960000D01*
X133090000Y-14090000D01*
X142910000Y-14090000D01*
X142910000Y-28960000D01*
%TO.C,J4*%
D11*
X122960000Y-86990000D02*
X118000000Y-91940000D01*
X113040000Y-86990000D01*
X113040000Y-77040000D01*
X122960000Y-77040000D01*
X122960000Y-86990000D01*
%TO.C,J24*%
D12*
X136910000Y-36540000D02*
X136910000Y-46410000D01*
X127090000Y-46400000D01*
X127090000Y-36540000D01*
X132000000Y-31630000D01*
X136910000Y-36540000D01*
%TO.C,J3*%
D11*
X116960000Y-95020000D02*
X116960000Y-109960000D01*
X107050000Y-109950000D01*
X107040000Y-95020000D01*
X112000000Y-90060000D01*
X116960000Y-95020000D01*
%TO.C,J6*%
X140960000Y-95020000D02*
X140960000Y-109960000D01*
X131050000Y-109950000D01*
X131040000Y-95020000D01*
X136000000Y-90060000D01*
X140960000Y-95020000D01*
%TO.C,J8*%
X152960000Y-95020000D02*
X152960000Y-109960000D01*
X143050000Y-109950000D01*
X143040000Y-95020000D01*
X148000000Y-90060000D01*
X152960000Y-95020000D01*
%TO.C,J1*%
X104960000Y-95020000D02*
X104960000Y-109960000D01*
X95050000Y-109950000D01*
X95040000Y-95020000D01*
X100000000Y-90060000D01*
X104960000Y-95020000D01*
%TO.C,J11*%
X170960000Y-86990000D02*
X166000000Y-91940000D01*
X161040000Y-86990000D01*
X161040000Y-77040000D01*
X170960000Y-77040000D01*
X170960000Y-86990000D01*
D13*
%TO.C,J15*%
X125470000Y-68330000D02*
X125470000Y-65670000D01*
X125470000Y-68330000D02*
X161090000Y-68330000D01*
X124200000Y-68330000D02*
X122870000Y-68330000D01*
X122870000Y-68330000D02*
X122870000Y-67000000D01*
X125470000Y-65670000D02*
X161090000Y-65670000D01*
X161090000Y-68330000D02*
X161090000Y-65670000D01*
%TO.C,J17*%
D12*
X184910000Y-36540000D02*
X184910000Y-46410000D01*
X175090000Y-46400000D01*
X175090000Y-36540000D01*
X180000000Y-31630000D01*
X184910000Y-36540000D01*
%TO.C,J16*%
X190910000Y-28960000D02*
X186000000Y-33870000D01*
X181090000Y-28960000D01*
X181090000Y-14090000D01*
X190910000Y-14090000D01*
X190910000Y-28960000D01*
%TO.C,J25*%
X130910000Y-28960000D02*
X126000000Y-33870000D01*
X121090000Y-28960000D01*
X121090000Y-14090000D01*
X130910000Y-14090000D01*
X130910000Y-28960000D01*
%TO.C,J21*%
X154910000Y-28960000D02*
X150000000Y-33870000D01*
X145090000Y-28960000D01*
X145090000Y-14090000D01*
X154910000Y-14090000D01*
X154910000Y-28960000D01*
%TO.C,J27*%
X118910000Y-28960000D02*
X114000000Y-33870000D01*
X109090000Y-28960000D01*
X109090000Y-14090000D01*
X118910000Y-14090000D01*
X118910000Y-28960000D01*
D13*
%TO.C,J14*%
X176330000Y-68270000D02*
X176330000Y-68330000D01*
X173670000Y-67000000D02*
X173670000Y-65670000D01*
X173670000Y-65670000D02*
X175000000Y-65670000D01*
X173670000Y-68270000D02*
X176330000Y-68270000D01*
X173670000Y-68330000D02*
X176330000Y-68330000D01*
X173670000Y-68270000D02*
X173670000Y-68330000D01*
%TO.C,J19*%
D12*
X172910000Y-36540000D02*
X172910000Y-46410000D01*
X163090000Y-46400000D01*
X163090000Y-36540000D01*
X168000000Y-31630000D01*
X172910000Y-36540000D01*
%TO.C,J20*%
X166910000Y-28960000D02*
X162000000Y-33870000D01*
X157090000Y-28960000D01*
X157090000Y-14090000D01*
X166910000Y-14090000D01*
X166910000Y-28960000D01*
%TO.C,J9*%
D11*
X158960000Y-86990000D02*
X154000000Y-91940000D01*
X149040000Y-86990000D01*
X149040000Y-77040000D01*
X158960000Y-77040000D01*
X158960000Y-86990000D01*
%TO.C,J2*%
X110960000Y-86990000D02*
X106000000Y-91940000D01*
X101040000Y-86990000D01*
X101040000Y-77040000D01*
X110960000Y-77040000D01*
X110960000Y-86990000D01*
%TO.C,J18*%
D12*
X178910000Y-28960000D02*
X174000000Y-33870000D01*
X169090000Y-28960000D01*
X169090000Y-14090000D01*
X178910000Y-14090000D01*
X178910000Y-28960000D01*
%TO.C,J22*%
X148910000Y-36540000D02*
X148910000Y-46410000D01*
X139090000Y-46400000D01*
X139090000Y-36540000D01*
X144000000Y-31630000D01*
X148910000Y-36540000D01*
D13*
%TO.C,J29*%
X160100000Y-57990000D02*
X127020000Y-57990000D01*
X160100000Y-55330000D02*
X160100000Y-57990000D01*
X162700000Y-55330000D02*
X162700000Y-56660000D01*
X160100000Y-55330000D02*
X127020000Y-55330000D01*
X127020000Y-55330000D02*
X127020000Y-57990000D01*
X161370000Y-55330000D02*
X162700000Y-55330000D01*
%TD*%
M02*
