%TF.GenerationSoftware,KiCad,Pcbnew,(6.0.5)*%
%TF.CreationDate,2022-08-17T09:38:04+01:00*%
%TF.ProjectId,PicoMIDIRouter,5069636f-4d49-4444-9952-6f757465722e,rev?*%
%TF.SameCoordinates,Original*%
%TF.FileFunction,Legend,Bot*%
%TF.FilePolarity,Positive*%
%FSLAX46Y46*%
G04 Gerber Fmt 4.6, Leading zero omitted, Abs format (unit mm)*
G04 Created by KiCad (PCBNEW (6.0.5)) date 2022-08-17 09:38:04*
%MOMM*%
%LPD*%
G01*
G04 APERTURE LIST*
%ADD10C,2.499360*%
G04 APERTURE END LIST*
D10*
%TO.C,J12*%
X137002800Y-142501920D03*
X137000260Y-150000000D03*
X137002800Y-157498080D03*
X134500900Y-145003820D03*
X134500900Y-154996180D03*
%TD*%
%TO.C,J1*%
X62997200Y-57498080D03*
X62999740Y-50000000D03*
X62997200Y-42501920D03*
X65499100Y-54996180D03*
X65499100Y-45003820D03*
%TD*%
%TO.C,J11*%
X137002800Y-122501920D03*
X137000260Y-130000000D03*
X137002800Y-137498080D03*
X134500900Y-125003820D03*
X134500900Y-134996180D03*
%TD*%
%TO.C,J7*%
X137002800Y-102501920D03*
X137000260Y-110000000D03*
X137002800Y-117498080D03*
X134500900Y-105003820D03*
X134500900Y-114996180D03*
%TD*%
%TO.C,J6*%
X137002800Y-82501920D03*
X137000260Y-90000000D03*
X137002800Y-97498080D03*
X134500900Y-85003820D03*
X134500900Y-94996180D03*
%TD*%
%TO.C,J8*%
X62997200Y-117498080D03*
X62999740Y-110000000D03*
X62997200Y-102501920D03*
X65499100Y-114996180D03*
X65499100Y-105003820D03*
%TD*%
%TO.C,J2*%
X62997200Y-77498080D03*
X62999740Y-70000000D03*
X62997200Y-62501920D03*
X65499100Y-74996180D03*
X65499100Y-65003820D03*
%TD*%
%TO.C,J3*%
X62997200Y-97498080D03*
X62999740Y-90000000D03*
X62997200Y-82501920D03*
X65499100Y-94996180D03*
X65499100Y-85003820D03*
%TD*%
%TO.C,J9*%
X62997200Y-137498080D03*
X62999740Y-130000000D03*
X62997200Y-122501920D03*
X65499100Y-134996180D03*
X65499100Y-125003820D03*
%TD*%
%TO.C,J4*%
X137002800Y-42501920D03*
X137000260Y-50000000D03*
X137002800Y-57498080D03*
X134500900Y-45003820D03*
X134500900Y-54996180D03*
%TD*%
%TO.C,J10*%
X62997200Y-157498080D03*
X62999740Y-150000000D03*
X62997200Y-142501920D03*
X65499100Y-154996180D03*
X65499100Y-145003820D03*
%TD*%
%TO.C,J5*%
X137002800Y-62501920D03*
X137000260Y-70000000D03*
X137002800Y-77498080D03*
X134500900Y-65003820D03*
X134500900Y-74996180D03*
%TD*%
M02*
