%TF.GenerationSoftware,KiCad,Pcbnew,(6.0.5)*%
%TF.CreationDate,2022-08-17T09:38:04+01:00*%
%TF.ProjectId,PicoMIDIRouter,5069636f-4d49-4444-9952-6f757465722e,rev?*%
%TF.SameCoordinates,Original*%
%TF.FileFunction,Copper,L1,Top*%
%TF.FilePolarity,Positive*%
%FSLAX46Y46*%
G04 Gerber Fmt 4.6, Leading zero omitted, Abs format (unit mm)*
G04 Created by KiCad (PCBNEW (6.0.5)) date 2022-08-17 09:38:04*
%MOMM*%
%LPD*%
G01*
G04 APERTURE LIST*
%TA.AperFunction,ComponentPad*%
%ADD10C,1.600000*%
%TD*%
%TA.AperFunction,WasherPad*%
%ADD11R,4.000000X2.500000*%
%TD*%
%TA.AperFunction,ComponentPad*%
%ADD12C,2.499360*%
%TD*%
%TA.AperFunction,ComponentPad*%
%ADD13O,1.600000X1.600000*%
%TD*%
%TA.AperFunction,ComponentPad*%
%ADD14R,1.600000X1.600000*%
%TD*%
%TA.AperFunction,ComponentPad*%
%ADD15O,1.700000X1.700000*%
%TD*%
%TA.AperFunction,SMDPad,CuDef*%
%ADD16R,3.500000X1.700000*%
%TD*%
%TA.AperFunction,ComponentPad*%
%ADD17R,1.700000X1.700000*%
%TD*%
%TA.AperFunction,SMDPad,CuDef*%
%ADD18R,1.700000X3.500000*%
%TD*%
%TA.AperFunction,Conductor*%
%ADD19C,0.800000*%
%TD*%
%TA.AperFunction,Conductor*%
%ADD20C,0.600000*%
%TD*%
G04 APERTURE END LIST*
D10*
%TO.P,C6,1*%
%TO.N,GND*%
X107696000Y-146558000D03*
%TO.P,C6,2*%
%TO.N,+3V3*%
X112696000Y-146558000D03*
%TD*%
D11*
%TO.P,J12,*%
%TO.N,*%
X146197700Y-155001260D03*
X146197700Y-144998740D03*
D12*
%TO.P,J12,1*%
%TO.N,unconnected-(J12-Pad1)*%
X137002800Y-142501920D03*
%TO.P,J12,2*%
%TO.N,GND*%
X137000260Y-150000000D03*
%TO.P,J12,3*%
%TO.N,unconnected-(J12-Pad3)*%
X137002800Y-157498080D03*
%TO.P,J12,4*%
%TO.N,Net-(J12-Pad4)*%
X134500900Y-145003820D03*
%TO.P,J12,5*%
%TO.N,Net-(J12-Pad5)*%
X134500900Y-154996180D03*
%TD*%
D11*
%TO.P,J1,*%
%TO.N,*%
X53802300Y-55001260D03*
X53802300Y-44998740D03*
D12*
%TO.P,J1,1*%
%TO.N,unconnected-(J1-Pad1)*%
X62997200Y-57498080D03*
%TO.P,J1,2*%
%TO.N,unconnected-(J1-Pad2)*%
X62999740Y-50000000D03*
%TO.P,J1,3*%
%TO.N,unconnected-(J1-Pad3)*%
X62997200Y-42501920D03*
%TO.P,J1,4*%
%TO.N,Net-(J1-Pad4)*%
X65499100Y-54996180D03*
%TO.P,J1,5*%
%TO.N,Net-(D1-Pad2)*%
X65499100Y-45003820D03*
%TD*%
D10*
%TO.P,R5,1*%
%TO.N,Net-(J4-Pad5)*%
X126500000Y-55000000D03*
D13*
%TO.P,R5,2*%
%TO.N,/TX0*%
X126500000Y-47380000D03*
%TD*%
D10*
%TO.P,R3,1*%
%TO.N,Net-(J3-Pad4)*%
X72000000Y-94000000D03*
D13*
%TO.P,R3,2*%
%TO.N,Net-(D3-Pad1)*%
X72000000Y-86380000D03*
%TD*%
D10*
%TO.P,R10,1*%
%TO.N,+3V3*%
X96000000Y-115500000D03*
D13*
%TO.P,R10,2*%
%TO.N,/PIO_RX0*%
X96000000Y-123120000D03*
%TD*%
D10*
%TO.P,R9,1*%
%TO.N,+3V3*%
X116500000Y-131500000D03*
D13*
%TO.P,R9,2*%
%TO.N,/RX1*%
X116500000Y-139120000D03*
%TD*%
D14*
%TO.P,D6,1,K*%
%TO.N,Net-(D6-Pad1)*%
X76000000Y-146500000D03*
D13*
%TO.P,D6,2,A*%
%TO.N,Net-(D6-Pad2)*%
X76000000Y-154120000D03*
%TD*%
D10*
%TO.P,R8,1*%
%TO.N,+3V3*%
X116500000Y-115500000D03*
D13*
%TO.P,R8,2*%
%TO.N,/RX0*%
X116500000Y-123120000D03*
%TD*%
D14*
%TO.P,D1,1,K*%
%TO.N,Net-(D1-Pad1)*%
X76000000Y-46500000D03*
D13*
%TO.P,D1,2,A*%
%TO.N,Net-(D1-Pad2)*%
X76000000Y-54120000D03*
%TD*%
D10*
%TO.P,R21,1*%
%TO.N,Net-(J11-Pad4)*%
X122500000Y-139000000D03*
D13*
%TO.P,R21,2*%
%TO.N,+3V3*%
X122500000Y-131380000D03*
%TD*%
D10*
%TO.P,R20,1*%
%TO.N,+3V3*%
X116500000Y-147500000D03*
D13*
%TO.P,R20,2*%
%TO.N,/PIO_RX3*%
X116500000Y-155120000D03*
%TD*%
D10*
%TO.P,R2,1*%
%TO.N,Net-(J2-Pad4)*%
X72000000Y-74000000D03*
D13*
%TO.P,R2,2*%
%TO.N,Net-(D2-Pad1)*%
X72000000Y-66380000D03*
%TD*%
D10*
%TO.P,R13,1*%
%TO.N,Net-(J7-Pad4)*%
X122500000Y-123000000D03*
D13*
%TO.P,R13,2*%
%TO.N,+3V3*%
X122500000Y-115380000D03*
%TD*%
D10*
%TO.P,R23,1*%
%TO.N,Net-(J12-Pad4)*%
X122500000Y-154500000D03*
D13*
%TO.P,R23,2*%
%TO.N,+3V3*%
X122500000Y-146880000D03*
%TD*%
D10*
%TO.P,R16,1*%
%TO.N,Net-(J9-Pad4)*%
X72000000Y-134000000D03*
D13*
%TO.P,R16,2*%
%TO.N,Net-(D5-Pad1)*%
X72000000Y-126380000D03*
%TD*%
D11*
%TO.P,J11,*%
%TO.N,*%
X146197700Y-135001260D03*
X146197700Y-124998740D03*
D12*
%TO.P,J11,1*%
%TO.N,unconnected-(J11-Pad1)*%
X137002800Y-122501920D03*
%TO.P,J11,2*%
%TO.N,GND*%
X137000260Y-130000000D03*
%TO.P,J11,3*%
%TO.N,unconnected-(J11-Pad3)*%
X137002800Y-137498080D03*
%TO.P,J11,4*%
%TO.N,Net-(J11-Pad4)*%
X134500900Y-125003820D03*
%TO.P,J11,5*%
%TO.N,Net-(J11-Pad5)*%
X134500900Y-134996180D03*
%TD*%
D10*
%TO.P,R12,1*%
%TO.N,Net-(J6-Pad5)*%
X126500000Y-95000000D03*
D13*
%TO.P,R12,2*%
%TO.N,/PIO_TX0*%
X126500000Y-87380000D03*
%TD*%
D10*
%TO.P,R14,1*%
%TO.N,Net-(J7-Pad5)*%
X128000000Y-123000000D03*
D13*
%TO.P,R14,2*%
%TO.N,/PIO_TX1*%
X128000000Y-115380000D03*
%TD*%
D14*
%TO.P,U6,1*%
%TO.N,Net-(D6-Pad1)*%
X105000000Y-150000000D03*
D13*
%TO.P,U6,2*%
%TO.N,Net-(D6-Pad2)*%
X105000000Y-152540000D03*
%TO.P,U6,3*%
%TO.N,unconnected-(U6-Pad3)*%
X105000000Y-155080000D03*
%TO.P,U6,4*%
%TO.N,/PIO_RX3*%
X112620000Y-155080000D03*
%TO.P,U6,5*%
%TO.N,GND*%
X112620000Y-152540000D03*
%TO.P,U6,6*%
%TO.N,+3V3*%
X112620000Y-150000000D03*
%TD*%
D10*
%TO.P,R1,1*%
%TO.N,Net-(J1-Pad4)*%
X72000000Y-54000000D03*
D13*
%TO.P,R1,2*%
%TO.N,Net-(D1-Pad1)*%
X72000000Y-46380000D03*
%TD*%
D14*
%TO.P,D4,1,K*%
%TO.N,Net-(D4-Pad1)*%
X76000000Y-106500000D03*
D13*
%TO.P,D4,2,A*%
%TO.N,Net-(D4-Pad2)*%
X76000000Y-114120000D03*
%TD*%
D11*
%TO.P,J7,*%
%TO.N,*%
X146197700Y-115001260D03*
X146197700Y-104998740D03*
D12*
%TO.P,J7,1*%
%TO.N,unconnected-(J7-Pad1)*%
X137002800Y-102501920D03*
%TO.P,J7,2*%
%TO.N,GND*%
X137000260Y-110000000D03*
%TO.P,J7,3*%
%TO.N,unconnected-(J7-Pad3)*%
X137002800Y-117498080D03*
%TO.P,J7,4*%
%TO.N,Net-(J7-Pad4)*%
X134500900Y-105003820D03*
%TO.P,J7,5*%
%TO.N,Net-(J7-Pad5)*%
X134500900Y-114996180D03*
%TD*%
D14*
%TO.P,D2,1,K*%
%TO.N,Net-(D2-Pad1)*%
X76000000Y-66500000D03*
D13*
%TO.P,D2,2,A*%
%TO.N,Net-(D2-Pad2)*%
X76000000Y-74120000D03*
%TD*%
D14*
%TO.P,U1,1*%
%TO.N,Net-(D1-Pad1)*%
X105000000Y-118000000D03*
D13*
%TO.P,U1,2*%
%TO.N,Net-(D1-Pad2)*%
X105000000Y-120540000D03*
%TO.P,U1,3*%
%TO.N,unconnected-(U1-Pad3)*%
X105000000Y-123080000D03*
%TO.P,U1,4*%
%TO.N,/RX0*%
X112620000Y-123080000D03*
%TO.P,U1,5*%
%TO.N,GND*%
X112620000Y-120540000D03*
%TO.P,U1,6*%
%TO.N,+3V3*%
X112620000Y-118000000D03*
%TD*%
D11*
%TO.P,J6,*%
%TO.N,*%
X146197700Y-95001260D03*
X146197700Y-84998740D03*
D12*
%TO.P,J6,1*%
%TO.N,unconnected-(J6-Pad1)*%
X137002800Y-82501920D03*
%TO.P,J6,2*%
%TO.N,GND*%
X137000260Y-90000000D03*
%TO.P,J6,3*%
%TO.N,unconnected-(J6-Pad3)*%
X137002800Y-97498080D03*
%TO.P,J6,4*%
%TO.N,Net-(J6-Pad4)*%
X134500900Y-85003820D03*
%TO.P,J6,5*%
%TO.N,Net-(J6-Pad5)*%
X134500900Y-94996180D03*
%TD*%
D14*
%TO.P,D3,1,K*%
%TO.N,Net-(D3-Pad1)*%
X76000000Y-86500000D03*
D13*
%TO.P,D3,2,A*%
%TO.N,Net-(D3-Pad2)*%
X76000000Y-94120000D03*
%TD*%
D10*
%TO.P,R24,1*%
%TO.N,Net-(J12-Pad5)*%
X128000000Y-154500000D03*
D13*
%TO.P,R24,2*%
%TO.N,/PIO_TX3*%
X128000000Y-146880000D03*
%TD*%
D15*
%TO.P,U7,1,GPIO0*%
%TO.N,/TX0*%
X91186000Y-40894000D03*
D16*
X90286000Y-40894000D03*
D15*
%TO.P,U7,2,GPIO1*%
%TO.N,/RX0*%
X91186000Y-43434000D03*
D16*
X90286000Y-43434000D03*
%TO.P,U7,3,GND*%
%TO.N,GND*%
X90286000Y-45974000D03*
D17*
X91186000Y-45974000D03*
D15*
%TO.P,U7,4,GPIO2*%
%TO.N,unconnected-(U7-Pad4)*%
X91186000Y-48514000D03*
D16*
X90286000Y-48514000D03*
%TO.P,U7,5,GPIO3*%
%TO.N,unconnected-(U7-Pad5)*%
X90286000Y-51054000D03*
D15*
X91186000Y-51054000D03*
%TO.P,U7,6,GPIO4*%
%TO.N,/TX1*%
X91186000Y-53594000D03*
D16*
X90286000Y-53594000D03*
%TO.P,U7,7,GPIO5*%
%TO.N,/RX1*%
X90286000Y-56134000D03*
D15*
X91186000Y-56134000D03*
D17*
%TO.P,U7,8,GND*%
%TO.N,GND*%
X91186000Y-58674000D03*
D16*
X90286000Y-58674000D03*
D15*
%TO.P,U7,9,GPIO6*%
%TO.N,/PIO_RX0*%
X91186000Y-61214000D03*
D16*
X90286000Y-61214000D03*
D15*
%TO.P,U7,10,GPIO7*%
%TO.N,/PIO_RX1*%
X91186000Y-63754000D03*
D16*
X90286000Y-63754000D03*
%TO.P,U7,11,GPIO8*%
%TO.N,/PIO_RX2*%
X90286000Y-66294000D03*
D15*
X91186000Y-66294000D03*
%TO.P,U7,12,GPIO9*%
%TO.N,/PIO_RX3*%
X91186000Y-68834000D03*
D16*
X90286000Y-68834000D03*
%TO.P,U7,13,GND*%
%TO.N,GND*%
X90286000Y-71374000D03*
D17*
X91186000Y-71374000D03*
D16*
%TO.P,U7,14,GPIO10*%
%TO.N,/PIO_TX0*%
X90286000Y-73914000D03*
D15*
X91186000Y-73914000D03*
D16*
%TO.P,U7,15,GPIO11*%
%TO.N,/PIO_TX1*%
X90286000Y-76454000D03*
D15*
X91186000Y-76454000D03*
D16*
%TO.P,U7,16,GPIO12*%
%TO.N,/PIO_TX2*%
X90286000Y-78994000D03*
D15*
X91186000Y-78994000D03*
D16*
%TO.P,U7,17,GPIO13*%
%TO.N,/PIO_TX3*%
X90286000Y-81534000D03*
D15*
X91186000Y-81534000D03*
D17*
%TO.P,U7,18,GND*%
%TO.N,GND*%
X91186000Y-84074000D03*
D16*
X90286000Y-84074000D03*
%TO.P,U7,19,GPIO14*%
%TO.N,unconnected-(U7-Pad19)*%
X90286000Y-86614000D03*
D15*
X91186000Y-86614000D03*
D16*
%TO.P,U7,20,GPIO15*%
%TO.N,unconnected-(U7-Pad20)*%
X90286000Y-89154000D03*
D15*
X91186000Y-89154000D03*
D16*
%TO.P,U7,21,GPIO16*%
%TO.N,unconnected-(U7-Pad21)*%
X109866000Y-89154000D03*
D15*
X108966000Y-89154000D03*
D16*
%TO.P,U7,22,GPIO17*%
%TO.N,unconnected-(U7-Pad22)*%
X109866000Y-86614000D03*
D15*
X108966000Y-86614000D03*
D16*
%TO.P,U7,23,GND*%
%TO.N,GND*%
X109866000Y-84074000D03*
D17*
X108966000Y-84074000D03*
D16*
%TO.P,U7,24,GPIO18*%
%TO.N,unconnected-(U7-Pad24)*%
X109866000Y-81534000D03*
D15*
X108966000Y-81534000D03*
%TO.P,U7,25,GPIO19*%
%TO.N,unconnected-(U7-Pad25)*%
X108966000Y-78994000D03*
D16*
X109866000Y-78994000D03*
%TO.P,U7,26,GPIO20*%
%TO.N,unconnected-(U7-Pad26)*%
X109866000Y-76454000D03*
D15*
X108966000Y-76454000D03*
%TO.P,U7,27,GPIO21*%
%TO.N,unconnected-(U7-Pad27)*%
X108966000Y-73914000D03*
D16*
X109866000Y-73914000D03*
D17*
%TO.P,U7,28,GND*%
%TO.N,GND*%
X108966000Y-71374000D03*
D16*
X109866000Y-71374000D03*
%TO.P,U7,29,GPIO22*%
%TO.N,unconnected-(U7-Pad29)*%
X109866000Y-68834000D03*
D15*
X108966000Y-68834000D03*
%TO.P,U7,30,RUN*%
%TO.N,unconnected-(U7-Pad30)*%
X108966000Y-66294000D03*
D16*
X109866000Y-66294000D03*
%TO.P,U7,31,GPIO26_ADC0*%
%TO.N,unconnected-(U7-Pad31)*%
X109866000Y-63754000D03*
D15*
X108966000Y-63754000D03*
%TO.P,U7,32,GPIO27_ADC1*%
%TO.N,unconnected-(U7-Pad32)*%
X108966000Y-61214000D03*
D16*
X109866000Y-61214000D03*
%TO.P,U7,33,AGND*%
%TO.N,unconnected-(U7-Pad33)*%
X109866000Y-58674000D03*
D17*
X108966000Y-58674000D03*
D16*
%TO.P,U7,34,GPIO28_ADC2*%
%TO.N,unconnected-(U7-Pad34)*%
X109866000Y-56134000D03*
D15*
X108966000Y-56134000D03*
D16*
%TO.P,U7,35,ADC_VREF*%
%TO.N,unconnected-(U7-Pad35)*%
X109866000Y-53594000D03*
D15*
X108966000Y-53594000D03*
%TO.P,U7,36,3V3*%
%TO.N,+3V3*%
X108966000Y-51054000D03*
D16*
X109866000Y-51054000D03*
D15*
%TO.P,U7,37,3V3_EN*%
%TO.N,unconnected-(U7-Pad37)*%
X108966000Y-48514000D03*
D16*
X109866000Y-48514000D03*
%TO.P,U7,38,GND*%
%TO.N,GND*%
X109866000Y-45974000D03*
D17*
X108966000Y-45974000D03*
D16*
%TO.P,U7,39,VSYS*%
%TO.N,unconnected-(U7-Pad39)*%
X109866000Y-43434000D03*
D15*
X108966000Y-43434000D03*
D16*
%TO.P,U7,40,VBUS*%
%TO.N,unconnected-(U7-Pad40)*%
X109866000Y-40894000D03*
D15*
X108966000Y-40894000D03*
D18*
%TO.P,U7,41,SWCLK*%
%TO.N,unconnected-(U7-Pad41)*%
X97536000Y-89824000D03*
D15*
X97536000Y-88924000D03*
D18*
%TO.P,U7,42,GND*%
%TO.N,unconnected-(U7-Pad42)*%
X100076000Y-89824000D03*
D17*
X100076000Y-88924000D03*
D18*
%TO.P,U7,43,SWDIO*%
%TO.N,unconnected-(U7-Pad43)*%
X102616000Y-89824000D03*
D15*
X102616000Y-88924000D03*
%TD*%
D14*
%TO.P,U4,1*%
%TO.N,Net-(D4-Pad1)*%
X84500000Y-134000000D03*
D13*
%TO.P,U4,2*%
%TO.N,Net-(D4-Pad2)*%
X84500000Y-136540000D03*
%TO.P,U4,3*%
%TO.N,unconnected-(U4-Pad3)*%
X84500000Y-139080000D03*
%TO.P,U4,4*%
%TO.N,/PIO_RX1*%
X92120000Y-139080000D03*
%TO.P,U4,5*%
%TO.N,GND*%
X92120000Y-136540000D03*
%TO.P,U4,6*%
%TO.N,+3V3*%
X92120000Y-134000000D03*
%TD*%
D10*
%TO.P,R18,1*%
%TO.N,+3V3*%
X96000000Y-131500000D03*
D13*
%TO.P,R18,2*%
%TO.N,/PIO_RX1*%
X96000000Y-139120000D03*
%TD*%
D10*
%TO.P,C5,1*%
%TO.N,GND*%
X87162000Y-146558000D03*
%TO.P,C5,2*%
%TO.N,+3V3*%
X92162000Y-146558000D03*
%TD*%
%TO.P,R4,1*%
%TO.N,Net-(J4-Pad4)*%
X122500000Y-47500000D03*
D13*
%TO.P,R4,2*%
%TO.N,+3V3*%
X122500000Y-55120000D03*
%TD*%
D14*
%TO.P,D5,1,K*%
%TO.N,Net-(D5-Pad1)*%
X76000000Y-126500000D03*
D13*
%TO.P,D5,2,A*%
%TO.N,Net-(D5-Pad2)*%
X76000000Y-134120000D03*
%TD*%
D10*
%TO.P,C3,1*%
%TO.N,GND*%
X87162000Y-114554000D03*
%TO.P,C3,2*%
%TO.N,+3V3*%
X92162000Y-114554000D03*
%TD*%
D14*
%TO.P,U5,1*%
%TO.N,Net-(D5-Pad1)*%
X84500000Y-150000000D03*
D13*
%TO.P,U5,2*%
%TO.N,Net-(D5-Pad2)*%
X84500000Y-152540000D03*
%TO.P,U5,3*%
%TO.N,unconnected-(U5-Pad3)*%
X84500000Y-155080000D03*
%TO.P,U5,4*%
%TO.N,/PIO_RX2*%
X92120000Y-155080000D03*
%TO.P,U5,5*%
%TO.N,GND*%
X92120000Y-152540000D03*
%TO.P,U5,6*%
%TO.N,+3V3*%
X92120000Y-150000000D03*
%TD*%
D11*
%TO.P,J8,*%
%TO.N,*%
X53802300Y-104998740D03*
X53802300Y-115001260D03*
D12*
%TO.P,J8,1*%
%TO.N,unconnected-(J8-Pad1)*%
X62997200Y-117498080D03*
%TO.P,J8,2*%
%TO.N,unconnected-(J8-Pad2)*%
X62999740Y-110000000D03*
%TO.P,J8,3*%
%TO.N,unconnected-(J8-Pad3)*%
X62997200Y-102501920D03*
%TO.P,J8,4*%
%TO.N,Net-(J8-Pad4)*%
X65499100Y-114996180D03*
%TO.P,J8,5*%
%TO.N,Net-(D4-Pad2)*%
X65499100Y-105003820D03*
%TD*%
D14*
%TO.P,U3,1*%
%TO.N,Net-(D3-Pad1)*%
X84500000Y-118000000D03*
D13*
%TO.P,U3,2*%
%TO.N,Net-(D3-Pad2)*%
X84500000Y-120540000D03*
%TO.P,U3,3*%
%TO.N,unconnected-(U3-Pad3)*%
X84500000Y-123080000D03*
%TO.P,U3,4*%
%TO.N,/PIO_RX0*%
X92120000Y-123080000D03*
%TO.P,U3,5*%
%TO.N,GND*%
X92120000Y-120540000D03*
%TO.P,U3,6*%
%TO.N,+3V3*%
X92120000Y-118000000D03*
%TD*%
D10*
%TO.P,R7,1*%
%TO.N,Net-(J5-Pad5)*%
X126500000Y-75000000D03*
D13*
%TO.P,R7,2*%
%TO.N,/TX1*%
X126500000Y-67380000D03*
%TD*%
D11*
%TO.P,J2,*%
%TO.N,*%
X53802300Y-64998740D03*
X53802300Y-75001260D03*
D12*
%TO.P,J2,1*%
%TO.N,unconnected-(J2-Pad1)*%
X62997200Y-77498080D03*
%TO.P,J2,2*%
%TO.N,unconnected-(J2-Pad2)*%
X62999740Y-70000000D03*
%TO.P,J2,3*%
%TO.N,unconnected-(J2-Pad3)*%
X62997200Y-62501920D03*
%TO.P,J2,4*%
%TO.N,Net-(J2-Pad4)*%
X65499100Y-74996180D03*
%TO.P,J2,5*%
%TO.N,Net-(D2-Pad2)*%
X65499100Y-65003820D03*
%TD*%
D11*
%TO.P,J3,*%
%TO.N,*%
X53802300Y-95001260D03*
X53802300Y-84998740D03*
D12*
%TO.P,J3,1*%
%TO.N,unconnected-(J3-Pad1)*%
X62997200Y-97498080D03*
%TO.P,J3,2*%
%TO.N,unconnected-(J3-Pad2)*%
X62999740Y-90000000D03*
%TO.P,J3,3*%
%TO.N,unconnected-(J3-Pad3)*%
X62997200Y-82501920D03*
%TO.P,J3,4*%
%TO.N,Net-(J3-Pad4)*%
X65499100Y-94996180D03*
%TO.P,J3,5*%
%TO.N,Net-(D3-Pad2)*%
X65499100Y-85003820D03*
%TD*%
D10*
%TO.P,R15,1*%
%TO.N,Net-(J8-Pad4)*%
X72000000Y-114000000D03*
D13*
%TO.P,R15,2*%
%TO.N,Net-(D4-Pad1)*%
X72000000Y-106380000D03*
%TD*%
D10*
%TO.P,R6,1*%
%TO.N,Net-(J5-Pad4)*%
X122500000Y-67500000D03*
D13*
%TO.P,R6,2*%
%TO.N,+3V3*%
X122500000Y-75120000D03*
%TD*%
D10*
%TO.P,C4,1*%
%TO.N,GND*%
X87162000Y-130556000D03*
%TO.P,C4,2*%
%TO.N,+3V3*%
X92162000Y-130556000D03*
%TD*%
D11*
%TO.P,J9,*%
%TO.N,*%
X53802300Y-135001260D03*
X53802300Y-124998740D03*
D12*
%TO.P,J9,1*%
%TO.N,unconnected-(J9-Pad1)*%
X62997200Y-137498080D03*
%TO.P,J9,2*%
%TO.N,unconnected-(J9-Pad2)*%
X62999740Y-130000000D03*
%TO.P,J9,3*%
%TO.N,unconnected-(J9-Pad3)*%
X62997200Y-122501920D03*
%TO.P,J9,4*%
%TO.N,Net-(J9-Pad4)*%
X65499100Y-134996180D03*
%TO.P,J9,5*%
%TO.N,Net-(D5-Pad2)*%
X65499100Y-125003820D03*
%TD*%
D11*
%TO.P,J4,*%
%TO.N,*%
X146197700Y-44998740D03*
X146197700Y-55001260D03*
D12*
%TO.P,J4,1*%
%TO.N,unconnected-(J4-Pad1)*%
X137002800Y-42501920D03*
%TO.P,J4,2*%
%TO.N,GND*%
X137000260Y-50000000D03*
%TO.P,J4,3*%
%TO.N,unconnected-(J4-Pad3)*%
X137002800Y-57498080D03*
%TO.P,J4,4*%
%TO.N,Net-(J4-Pad4)*%
X134500900Y-45003820D03*
%TO.P,J4,5*%
%TO.N,Net-(J4-Pad5)*%
X134500900Y-54996180D03*
%TD*%
D10*
%TO.P,C1,1*%
%TO.N,GND*%
X107736000Y-114554000D03*
%TO.P,C1,2*%
%TO.N,+3V3*%
X112736000Y-114554000D03*
%TD*%
%TO.P,C2,1*%
%TO.N,GND*%
X107736000Y-130302000D03*
%TO.P,C2,2*%
%TO.N,+3V3*%
X112736000Y-130302000D03*
%TD*%
%TO.P,R22,1*%
%TO.N,Net-(J11-Pad5)*%
X128000000Y-139000000D03*
D13*
%TO.P,R22,2*%
%TO.N,/PIO_TX2*%
X128000000Y-131380000D03*
%TD*%
D14*
%TO.P,U2,1*%
%TO.N,Net-(D2-Pad1)*%
X105000000Y-134000000D03*
D13*
%TO.P,U2,2*%
%TO.N,Net-(D2-Pad2)*%
X105000000Y-136540000D03*
%TO.P,U2,3*%
%TO.N,unconnected-(U2-Pad3)*%
X105000000Y-139080000D03*
%TO.P,U2,4*%
%TO.N,/RX1*%
X112620000Y-139080000D03*
%TO.P,U2,5*%
%TO.N,GND*%
X112620000Y-136540000D03*
%TO.P,U2,6*%
%TO.N,+3V3*%
X112620000Y-134000000D03*
%TD*%
D10*
%TO.P,R11,1*%
%TO.N,Net-(J6-Pad4)*%
X122500000Y-87500000D03*
D13*
%TO.P,R11,2*%
%TO.N,+3V3*%
X122500000Y-95120000D03*
%TD*%
D10*
%TO.P,R19,1*%
%TO.N,+3V3*%
X96000000Y-147500000D03*
D13*
%TO.P,R19,2*%
%TO.N,/PIO_RX2*%
X96000000Y-155120000D03*
%TD*%
D11*
%TO.P,J10,*%
%TO.N,*%
X53802300Y-144998740D03*
X53802300Y-155001260D03*
D12*
%TO.P,J10,1*%
%TO.N,unconnected-(J10-Pad1)*%
X62997200Y-157498080D03*
%TO.P,J10,2*%
%TO.N,unconnected-(J10-Pad2)*%
X62999740Y-150000000D03*
%TO.P,J10,3*%
%TO.N,unconnected-(J10-Pad3)*%
X62997200Y-142501920D03*
%TO.P,J10,4*%
%TO.N,Net-(J10-Pad4)*%
X65499100Y-154996180D03*
%TO.P,J10,5*%
%TO.N,Net-(D6-Pad2)*%
X65499100Y-145003820D03*
%TD*%
D11*
%TO.P,J5,*%
%TO.N,*%
X146197700Y-75001260D03*
X146197700Y-64998740D03*
D12*
%TO.P,J5,1*%
%TO.N,unconnected-(J5-Pad1)*%
X137002800Y-62501920D03*
%TO.P,J5,2*%
%TO.N,GND*%
X137000260Y-70000000D03*
%TO.P,J5,3*%
%TO.N,unconnected-(J5-Pad3)*%
X137002800Y-77498080D03*
%TO.P,J5,4*%
%TO.N,Net-(J5-Pad4)*%
X134500900Y-65003820D03*
%TO.P,J5,5*%
%TO.N,Net-(J5-Pad5)*%
X134500900Y-74996180D03*
%TD*%
D10*
%TO.P,R17,1*%
%TO.N,Net-(J10-Pad4)*%
X72000000Y-154000000D03*
D13*
%TO.P,R17,2*%
%TO.N,Net-(D6-Pad1)*%
X72000000Y-146380000D03*
%TD*%
D19*
%TO.N,+3V3*%
X110230000Y-120390000D02*
X110230000Y-127502000D01*
X114664000Y-118000000D02*
X116500000Y-116164000D01*
X110240000Y-144102000D02*
X110066000Y-144102000D01*
X116500000Y-132166000D02*
X116500000Y-131500000D01*
X110066000Y-144102000D02*
X110236000Y-144272000D01*
X94852000Y-118000000D02*
X96000000Y-116852000D01*
X92162000Y-142788000D02*
X92162000Y-146558000D01*
X89408000Y-136712000D02*
X92120000Y-134000000D01*
X92162000Y-130556000D02*
X89408000Y-127802000D01*
X92120000Y-130598000D02*
X92162000Y-130556000D01*
X112620000Y-134000000D02*
X114666000Y-134000000D01*
X96012000Y-131512000D02*
X96000000Y-131500000D01*
D20*
X117120000Y-146880000D02*
X116500000Y-147500000D01*
D19*
X112736000Y-130302000D02*
X110230000Y-127796000D01*
X116586000Y-148336000D02*
X116586000Y-147586000D01*
X112620000Y-150000000D02*
X114922000Y-150000000D01*
X112620000Y-118000000D02*
X110230000Y-120390000D01*
X116500000Y-116164000D02*
X116500000Y-115500000D01*
D20*
X122746000Y-115380000D02*
X122500000Y-115380000D01*
D19*
X92120000Y-118000000D02*
X94852000Y-118000000D01*
X112620000Y-118000000D02*
X114664000Y-118000000D01*
X114666000Y-134000000D02*
X116500000Y-132166000D01*
X112620000Y-146634000D02*
X112696000Y-146558000D01*
X112736000Y-114554000D02*
X112736000Y-117884000D01*
X92120000Y-118000000D02*
X92120000Y-114596000D01*
X96012000Y-147512000D02*
X96000000Y-147500000D01*
X92120000Y-134000000D02*
X94600000Y-134000000D01*
D20*
X122866000Y-115500000D02*
X122746000Y-115380000D01*
D19*
X89408000Y-139954000D02*
X92202000Y-142748000D01*
X110230000Y-127796000D02*
X110230000Y-127502000D01*
X94348000Y-150000000D02*
X96012000Y-148336000D01*
X122380000Y-131500000D02*
X122500000Y-131380000D01*
X112620000Y-134000000D02*
X112620000Y-130418000D01*
X89408000Y-127802000D02*
X89408000Y-120712000D01*
X92120000Y-150000000D02*
X92120000Y-146600000D01*
D20*
X92120000Y-146600000D02*
X92162000Y-146558000D01*
D19*
X116500000Y-115500000D02*
X122866000Y-115500000D01*
X116586000Y-147586000D02*
X116500000Y-147500000D01*
X92202000Y-142748000D02*
X92162000Y-142788000D01*
X112696000Y-146558000D02*
X110240000Y-144102000D01*
X89408000Y-139954000D02*
X89408000Y-136712000D01*
X110236000Y-136384000D02*
X110236000Y-144272000D01*
X112620000Y-130418000D02*
X112736000Y-130302000D01*
X89408000Y-120712000D02*
X92120000Y-118000000D01*
X116500000Y-131500000D02*
X122380000Y-131500000D01*
X114922000Y-150000000D02*
X116586000Y-148336000D01*
X96012000Y-132588000D02*
X96012000Y-131512000D01*
X112620000Y-134000000D02*
X110236000Y-136384000D01*
X112620000Y-150000000D02*
X112620000Y-146634000D01*
X92120000Y-134000000D02*
X92120000Y-130598000D01*
D20*
X122500000Y-146880000D02*
X117120000Y-146880000D01*
D19*
X99398000Y-144102000D02*
X110066000Y-144102000D01*
X94600000Y-134000000D02*
X96012000Y-132588000D01*
D20*
X112736000Y-117884000D02*
X112620000Y-118000000D01*
D19*
X96000000Y-116852000D02*
X96000000Y-115500000D01*
X96000000Y-147500000D02*
X99398000Y-144102000D01*
X92120000Y-150000000D02*
X94348000Y-150000000D01*
X96012000Y-148336000D02*
X96012000Y-147512000D01*
D20*
%TO.N,Net-(D1-Pad1)*%
X78740000Y-49022000D02*
X78740000Y-63500000D01*
X85344000Y-70104000D02*
X85344000Y-90932000D01*
X76000000Y-46500000D02*
X76218000Y-46500000D01*
X72000000Y-46380000D02*
X75880000Y-46380000D01*
X78740000Y-63500000D02*
X85344000Y-70104000D01*
X76218000Y-46500000D02*
X78740000Y-49022000D01*
X85344000Y-90932000D02*
X105000000Y-110588000D01*
X105000000Y-110588000D02*
X105000000Y-118000000D01*
%TO.N,Net-(D1-Pad2)*%
X103776000Y-120540000D02*
X102616000Y-119380000D01*
X102616000Y-111252000D02*
X83566000Y-92202000D01*
X105000000Y-120540000D02*
X103776000Y-120540000D01*
X83566000Y-70358000D02*
X76000000Y-62792000D01*
X102616000Y-119380000D02*
X102616000Y-111252000D01*
X83566000Y-92202000D02*
X83566000Y-70358000D01*
X72172000Y-50292000D02*
X70787280Y-50292000D01*
X76000000Y-54120000D02*
X72172000Y-50292000D01*
X70787280Y-50292000D02*
X65499100Y-45003820D01*
X76000000Y-62792000D02*
X76000000Y-54120000D01*
%TO.N,Net-(D2-Pad1)*%
X105000000Y-133956000D02*
X100838000Y-129794000D01*
X77422000Y-66500000D02*
X76000000Y-66500000D01*
X80518000Y-91694000D02*
X80518000Y-69596000D01*
X72000000Y-66380000D02*
X75880000Y-66380000D01*
X80518000Y-69596000D02*
X77422000Y-66500000D01*
X100838000Y-112014000D02*
X80518000Y-91694000D01*
X100838000Y-129794000D02*
X100838000Y-112014000D01*
X105000000Y-134000000D02*
X105000000Y-133956000D01*
%TO.N,Net-(D2-Pad2)*%
X99314000Y-131985370D02*
X103868630Y-136540000D01*
X77851000Y-84455000D02*
X77851000Y-91059000D01*
X76000000Y-82604000D02*
X77851000Y-84455000D01*
X103868630Y-136540000D02*
X105000000Y-136540000D01*
X72238000Y-70358000D02*
X70853280Y-70358000D01*
X76000000Y-74120000D02*
X76000000Y-82604000D01*
X99314000Y-112522000D02*
X99314000Y-131985370D01*
X70853280Y-70358000D02*
X65499100Y-65003820D01*
X77851000Y-91059000D02*
X99314000Y-112522000D01*
X76000000Y-74120000D02*
X72238000Y-70358000D01*
%TO.N,Net-(D3-Pad1)*%
X72000000Y-86380000D02*
X75880000Y-86380000D01*
X75880000Y-86380000D02*
X76000000Y-86500000D01*
X84500000Y-118000000D02*
X84500000Y-99740000D01*
X76000000Y-91240000D02*
X84201000Y-99441000D01*
X76000000Y-86500000D02*
X76000000Y-91240000D01*
X84500000Y-99740000D02*
X84201000Y-99441000D01*
%TO.N,Net-(D3-Pad2)*%
X76000000Y-102924000D02*
X76000000Y-94120000D01*
X83202000Y-120540000D02*
X80645000Y-117983000D01*
X72558000Y-90678000D02*
X71173280Y-90678000D01*
X80645000Y-117983000D02*
X80645000Y-107569000D01*
X80645000Y-107569000D02*
X76000000Y-102924000D01*
X76000000Y-94120000D02*
X72558000Y-90678000D01*
X84500000Y-120540000D02*
X83202000Y-120540000D01*
X71173280Y-90678000D02*
X65499100Y-85003820D01*
%TO.N,Net-(D4-Pad1)*%
X75946000Y-117094000D02*
X75946000Y-119888000D01*
X72000000Y-106380000D02*
X75880000Y-106380000D01*
X84592000Y-133594000D02*
X84592000Y-128534000D01*
X77978000Y-115062000D02*
X75946000Y-117094000D01*
X77978000Y-113284000D02*
X76000000Y-111306000D01*
X75946000Y-119888000D02*
X84592000Y-128534000D01*
X76000000Y-111306000D02*
X76000000Y-106500000D01*
X77978000Y-113284000D02*
X77978000Y-115062000D01*
%TO.N,Net-(D4-Pad2)*%
X74296000Y-120778000D02*
X80518000Y-127000000D01*
X76000000Y-114120000D02*
X72370000Y-110490000D01*
X70985280Y-110490000D02*
X65499100Y-105003820D01*
X76000000Y-114120000D02*
X74296000Y-115824000D01*
X74296000Y-115824000D02*
X74296000Y-120778000D01*
X80518000Y-127000000D02*
X80518000Y-133350000D01*
X72370000Y-110490000D02*
X70985280Y-110490000D01*
X83708000Y-136540000D02*
X84500000Y-136540000D01*
X80518000Y-133350000D02*
X83708000Y-136540000D01*
%TO.N,Net-(D5-Pad1)*%
X72000000Y-126380000D02*
X75880000Y-126380000D01*
X83706000Y-150000000D02*
X80645000Y-146939000D01*
X80645000Y-146939000D02*
X80645000Y-135763000D01*
X80645000Y-135763000D02*
X76000000Y-131118000D01*
X75880000Y-126380000D02*
X76000000Y-126500000D01*
X84500000Y-150000000D02*
X83706000Y-150000000D01*
X76000000Y-131118000D02*
X76000000Y-126500000D01*
%TO.N,Net-(D5-Pad2)*%
X72182000Y-130302000D02*
X70797280Y-130302000D01*
X76000000Y-134120000D02*
X72182000Y-130302000D01*
X84500000Y-152540000D02*
X82182000Y-152540000D01*
X82182000Y-152540000D02*
X78486000Y-148844000D01*
X76000000Y-142294000D02*
X76000000Y-134120000D01*
X78486000Y-148844000D02*
X78486000Y-144780000D01*
X70797280Y-130302000D02*
X65499100Y-125003820D01*
X78486000Y-144780000D02*
X76000000Y-142294000D01*
%TO.N,Net-(D6-Pad1)*%
X76000000Y-146500000D02*
X76000000Y-150676000D01*
X72332000Y-146500000D02*
X76000000Y-146500000D01*
X83566000Y-157734000D02*
X96774000Y-157734000D01*
X105000000Y-150000000D02*
X104508000Y-150000000D01*
X72000000Y-146168000D02*
X72332000Y-146500000D01*
X104508000Y-150000000D02*
X96774000Y-157734000D01*
X83058000Y-157734000D02*
X83566000Y-157734000D01*
X76000000Y-150676000D02*
X83058000Y-157734000D01*
%TO.N,Net-(D6-Pad2)*%
X76000000Y-154120000D02*
X72248000Y-150368000D01*
X70863280Y-150368000D02*
X65499100Y-145003820D01*
X72248000Y-150368000D02*
X70863280Y-150368000D01*
X98282000Y-159258000D02*
X81788000Y-159258000D01*
X76000000Y-154120000D02*
X81138000Y-159258000D01*
X105000000Y-152540000D02*
X98282000Y-159258000D01*
X81138000Y-159258000D02*
X81788000Y-159258000D01*
%TO.N,Net-(J1-Pad4)*%
X71003820Y-54996180D02*
X72000000Y-54000000D01*
X65499100Y-54996180D02*
X71003820Y-54996180D01*
%TO.N,Net-(J2-Pad4)*%
X71003820Y-74996180D02*
X72000000Y-74000000D01*
X65499100Y-74996180D02*
X71003820Y-74996180D01*
%TO.N,Net-(J3-Pad4)*%
X65499100Y-94996180D02*
X71003820Y-94996180D01*
X71003820Y-94996180D02*
X72000000Y-94000000D01*
%TO.N,Net-(J4-Pad4)*%
X129720720Y-49784000D02*
X124968000Y-49784000D01*
X134500900Y-45003820D02*
X129720720Y-49784000D01*
X124968000Y-49784000D02*
X122682000Y-47498000D01*
%TO.N,Net-(J4-Pad5)*%
X126492000Y-55118000D02*
X134379080Y-55118000D01*
X134379080Y-55118000D02*
X134500900Y-54996180D01*
%TO.N,Net-(J5-Pad4)*%
X129400720Y-70104000D02*
X125476000Y-70104000D01*
X122500000Y-67500000D02*
X125104000Y-70104000D01*
X134500900Y-65003820D02*
X129400720Y-70104000D01*
X125476000Y-70104000D02*
X124968000Y-70104000D01*
X125104000Y-70104000D02*
X125476000Y-70104000D01*
%TO.N,Net-(J5-Pad5)*%
X126500000Y-75000000D02*
X134497080Y-75000000D01*
%TO.N,Net-(J6-Pad4)*%
X122500000Y-87500000D02*
X125170000Y-90170000D01*
X129334720Y-90170000D02*
X134500900Y-85003820D01*
X125170000Y-90170000D02*
X129334720Y-90170000D01*
%TO.N,Net-(J6-Pad5)*%
X126500000Y-95000000D02*
X126496000Y-95000000D01*
X126499820Y-94996180D02*
X134500900Y-94996180D01*
X126496000Y-95000000D02*
X126499820Y-94996180D01*
%TO.N,Net-(J7-Pad5)*%
X134500900Y-118991100D02*
X134500900Y-114996180D01*
X130492000Y-123000000D02*
X134500900Y-118991100D01*
X128000000Y-123000000D02*
X130492000Y-123000000D01*
%TO.N,Net-(J8-Pad4)*%
X71003820Y-114996180D02*
X72000000Y-114000000D01*
X65499100Y-114996180D02*
X71003820Y-114996180D01*
%TO.N,Net-(J9-Pad4)*%
X71003820Y-134996180D02*
X72000000Y-134000000D01*
X65499100Y-134996180D02*
X71003820Y-134996180D01*
%TO.N,Net-(J10-Pad4)*%
X65499100Y-154996180D02*
X71003820Y-154996180D01*
X71003820Y-154996180D02*
X72000000Y-154000000D01*
%TO.N,Net-(J11-Pad5)*%
X130497080Y-139000000D02*
X134500900Y-134996180D01*
X128000000Y-139000000D02*
X130497080Y-139000000D01*
%TO.N,Net-(J12-Pad5)*%
X128000000Y-154500000D02*
X134004720Y-154500000D01*
X134004720Y-154500000D02*
X134500900Y-154996180D01*
%TO.N,/TX0*%
X123824000Y-44704000D02*
X126500000Y-47380000D01*
X92710000Y-40894000D02*
X95504000Y-43688000D01*
X108458000Y-92964000D02*
X110998000Y-92964000D01*
X91186000Y-40894000D02*
X92710000Y-40894000D01*
X117094000Y-63246000D02*
X117094000Y-46228000D01*
X110998000Y-92964000D02*
X113538000Y-90424000D01*
X117094000Y-46228000D02*
X118618000Y-44704000D01*
X95504000Y-43688000D02*
X95504000Y-44958000D01*
X106553000Y-91059000D02*
X108458000Y-92964000D01*
X113538000Y-90424000D02*
X113538000Y-66802000D01*
X95504000Y-44958000D02*
X106553000Y-56007000D01*
X118618000Y-44704000D02*
X123824000Y-44704000D01*
X113538000Y-66802000D02*
X117094000Y-63246000D01*
X106553000Y-56007000D02*
X106553000Y-91059000D01*
%TO.N,/RX0*%
X112660000Y-123120000D02*
X112620000Y-123080000D01*
X116500000Y-123120000D02*
X112660000Y-123120000D01*
%TO.N,/TX1*%
X91186000Y-53594000D02*
X102362000Y-53594000D01*
X115570000Y-90424000D02*
X115570000Y-67310000D01*
X118110000Y-64770000D02*
X123890000Y-64770000D01*
X102362000Y-53594000D02*
X105410000Y-56642000D01*
X107696000Y-94234000D02*
X111760000Y-94234000D01*
X123890000Y-64770000D02*
X126500000Y-67380000D01*
X115570000Y-67310000D02*
X118110000Y-64770000D01*
X105410000Y-91948000D02*
X107696000Y-94234000D01*
X111760000Y-94234000D02*
X115570000Y-90424000D01*
X105410000Y-56642000D02*
X105410000Y-91948000D01*
%TO.N,/RX1*%
X116460000Y-139080000D02*
X116500000Y-139120000D01*
X112620000Y-139080000D02*
X116460000Y-139080000D01*
%TO.N,/PIO_RX0*%
X95960000Y-123080000D02*
X96000000Y-123120000D01*
X92120000Y-123080000D02*
X95960000Y-123080000D01*
%TO.N,/PIO_RX1*%
X92120000Y-139020000D02*
X92220000Y-139120000D01*
X92120000Y-139080000D02*
X92120000Y-139020000D01*
X92220000Y-139120000D02*
X96000000Y-139120000D01*
%TO.N,/PIO_RX2*%
X95960000Y-155080000D02*
X96000000Y-155120000D01*
X92120000Y-155080000D02*
X95960000Y-155080000D01*
%TO.N,/PIO_RX3*%
X116460000Y-155080000D02*
X116500000Y-155120000D01*
X112620000Y-155080000D02*
X116460000Y-155080000D01*
%TO.N,/PIO_TX0*%
X104394000Y-93218000D02*
X104394000Y-85852000D01*
X117348000Y-91186000D02*
X113030000Y-95504000D01*
X106680000Y-95504000D02*
X104394000Y-93218000D01*
X119126000Y-84582000D02*
X117348000Y-86360000D01*
X92456000Y-73914000D02*
X91186000Y-73914000D01*
X117348000Y-86360000D02*
X117348000Y-91186000D01*
X123702000Y-84582000D02*
X119126000Y-84582000D01*
X126500000Y-87380000D02*
X123702000Y-84582000D01*
X113030000Y-95504000D02*
X106680000Y-95504000D01*
X104394000Y-85852000D02*
X92456000Y-73914000D01*
%TO.N,/PIO_TX1*%
X95758000Y-80518000D02*
X91694000Y-76454000D01*
X95758000Y-92964000D02*
X95758000Y-80518000D01*
X101854000Y-99060000D02*
X95758000Y-92964000D01*
X128000000Y-115380000D02*
X128000000Y-105394000D01*
X121666000Y-99060000D02*
X101854000Y-99060000D01*
X128000000Y-105394000D02*
X121666000Y-99060000D01*
X91694000Y-76454000D02*
X91186000Y-76454000D01*
%TO.N,/PIO_TX2*%
X94488000Y-94234000D02*
X100838000Y-100584000D01*
X94488000Y-81534000D02*
X94488000Y-94234000D01*
X100838000Y-100584000D02*
X120904000Y-100584000D01*
X120904000Y-100584000D02*
X125984000Y-105664000D01*
X91948000Y-78994000D02*
X94488000Y-81534000D01*
X125984000Y-129364000D02*
X128000000Y-131380000D01*
X125984000Y-105664000D02*
X125984000Y-129364000D01*
X91186000Y-78994000D02*
X91948000Y-78994000D01*
%TO.N,/PIO_TX3*%
X119634000Y-101854000D02*
X99314000Y-101854000D01*
X91948000Y-81534000D02*
X91186000Y-81534000D01*
X124714000Y-106934000D02*
X119634000Y-101854000D01*
X93218000Y-95758000D02*
X93218000Y-82804000D01*
X128000000Y-146880000D02*
X124714000Y-143594000D01*
X93218000Y-82804000D02*
X91948000Y-81534000D01*
X124714000Y-143594000D02*
X124714000Y-106934000D01*
X99314000Y-101854000D02*
X93218000Y-95758000D01*
%TD*%
M02*
