%TF.GenerationSoftware,KiCad,Pcbnew,(6.0.5)*%
%TF.CreationDate,2022-08-17T09:38:04+01:00*%
%TF.ProjectId,PicoMIDIRouter,5069636f-4d49-4444-9952-6f757465722e,rev?*%
%TF.SameCoordinates,Original*%
%TF.FileFunction,Soldermask,Bot*%
%TF.FilePolarity,Negative*%
%FSLAX46Y46*%
G04 Gerber Fmt 4.6, Leading zero omitted, Abs format (unit mm)*
G04 Created by KiCad (PCBNEW (6.0.5)) date 2022-08-17 09:38:04*
%MOMM*%
%LPD*%
G01*
G04 APERTURE LIST*
%ADD10C,1.600000*%
%ADD11R,4.000000X2.500000*%
%ADD12C,2.499360*%
%ADD13O,1.600000X1.600000*%
%ADD14R,1.600000X1.600000*%
%ADD15C,2.500000*%
%ADD16O,1.500000X1.500000*%
%ADD17O,1.800000X1.800000*%
%ADD18O,1.700000X1.700000*%
%ADD19R,1.700000X1.700000*%
G04 APERTURE END LIST*
D10*
%TO.C,C6*%
X107696000Y-146558000D03*
X112696000Y-146558000D03*
%TD*%
D11*
%TO.C,J12*%
X146197700Y-155001260D03*
X146197700Y-144998740D03*
D12*
X137002800Y-142501920D03*
X137000260Y-150000000D03*
X137002800Y-157498080D03*
X134500900Y-145003820D03*
X134500900Y-154996180D03*
%TD*%
D11*
%TO.C,J1*%
X53802300Y-55001260D03*
X53802300Y-44998740D03*
D12*
X62997200Y-57498080D03*
X62999740Y-50000000D03*
X62997200Y-42501920D03*
X65499100Y-54996180D03*
X65499100Y-45003820D03*
%TD*%
D10*
%TO.C,R5*%
X126500000Y-55000000D03*
D13*
X126500000Y-47380000D03*
%TD*%
D10*
%TO.C,R3*%
X72000000Y-94000000D03*
D13*
X72000000Y-86380000D03*
%TD*%
D10*
%TO.C,R10*%
X96000000Y-115500000D03*
D13*
X96000000Y-123120000D03*
%TD*%
D10*
%TO.C,R9*%
X116500000Y-131500000D03*
D13*
X116500000Y-139120000D03*
%TD*%
D14*
%TO.C,D6*%
X76000000Y-146500000D03*
D13*
X76000000Y-154120000D03*
%TD*%
D10*
%TO.C,R8*%
X116500000Y-115500000D03*
D13*
X116500000Y-123120000D03*
%TD*%
D14*
%TO.C,D1*%
X76000000Y-46500000D03*
D13*
X76000000Y-54120000D03*
%TD*%
D10*
%TO.C,R21*%
X122500000Y-139000000D03*
D13*
X122500000Y-131380000D03*
%TD*%
D10*
%TO.C,R20*%
X116500000Y-147500000D03*
D13*
X116500000Y-155120000D03*
%TD*%
D15*
%TO.C,H2*%
X75000000Y-158362000D03*
%TD*%
D10*
%TO.C,R2*%
X72000000Y-74000000D03*
D13*
X72000000Y-66380000D03*
%TD*%
D10*
%TO.C,R13*%
X122500000Y-123000000D03*
D13*
X122500000Y-115380000D03*
%TD*%
D10*
%TO.C,R23*%
X122500000Y-154500000D03*
D13*
X122500000Y-146880000D03*
%TD*%
D10*
%TO.C,R16*%
X72000000Y-134000000D03*
D13*
X72000000Y-126380000D03*
%TD*%
D11*
%TO.C,J11*%
X146197700Y-135001260D03*
X146197700Y-124998740D03*
D12*
X137002800Y-122501920D03*
X137000260Y-130000000D03*
X137002800Y-137498080D03*
X134500900Y-125003820D03*
X134500900Y-134996180D03*
%TD*%
D10*
%TO.C,R12*%
X126500000Y-95000000D03*
D13*
X126500000Y-87380000D03*
%TD*%
D10*
%TO.C,R14*%
X128000000Y-123000000D03*
D13*
X128000000Y-115380000D03*
%TD*%
D14*
%TO.C,U6*%
X105000000Y-150000000D03*
D13*
X105000000Y-152540000D03*
X105000000Y-155080000D03*
X112620000Y-155080000D03*
X112620000Y-152540000D03*
X112620000Y-150000000D03*
%TD*%
D10*
%TO.C,R1*%
X72000000Y-54000000D03*
D13*
X72000000Y-46380000D03*
%TD*%
D14*
%TO.C,D4*%
X76000000Y-106500000D03*
D13*
X76000000Y-114120000D03*
%TD*%
D11*
%TO.C,J7*%
X146197700Y-115001260D03*
X146197700Y-104998740D03*
D12*
X137002800Y-102501920D03*
X137000260Y-110000000D03*
X137002800Y-117498080D03*
X134500900Y-105003820D03*
X134500900Y-114996180D03*
%TD*%
D14*
%TO.C,D2*%
X76000000Y-66500000D03*
D13*
X76000000Y-74120000D03*
%TD*%
D14*
%TO.C,U1*%
X105000000Y-118000000D03*
D13*
X105000000Y-120540000D03*
X105000000Y-123080000D03*
X112620000Y-123080000D03*
X112620000Y-120540000D03*
X112620000Y-118000000D03*
%TD*%
D11*
%TO.C,J6*%
X146197700Y-95001260D03*
X146197700Y-84998740D03*
D12*
X137002800Y-82501920D03*
X137000260Y-90000000D03*
X137002800Y-97498080D03*
X134500900Y-85003820D03*
X134500900Y-94996180D03*
%TD*%
D14*
%TO.C,D3*%
X76000000Y-86500000D03*
D13*
X76000000Y-94120000D03*
%TD*%
D10*
%TO.C,R24*%
X128000000Y-154500000D03*
D13*
X128000000Y-146880000D03*
%TD*%
D16*
%TO.C,U7*%
X102501000Y-44054000D03*
D17*
X97351000Y-41024000D03*
D16*
X97651000Y-44054000D03*
D17*
X102801000Y-41024000D03*
D18*
X91186000Y-40894000D03*
X91186000Y-43434000D03*
D19*
X91186000Y-45974000D03*
D18*
X91186000Y-48514000D03*
X91186000Y-51054000D03*
X91186000Y-53594000D03*
X91186000Y-56134000D03*
D19*
X91186000Y-58674000D03*
D18*
X91186000Y-61214000D03*
X91186000Y-63754000D03*
X91186000Y-66294000D03*
X91186000Y-68834000D03*
D19*
X91186000Y-71374000D03*
D18*
X91186000Y-73914000D03*
X91186000Y-76454000D03*
X91186000Y-78994000D03*
X91186000Y-81534000D03*
D19*
X91186000Y-84074000D03*
D18*
X91186000Y-86614000D03*
X91186000Y-89154000D03*
X108966000Y-89154000D03*
X108966000Y-86614000D03*
D19*
X108966000Y-84074000D03*
D18*
X108966000Y-81534000D03*
X108966000Y-78994000D03*
X108966000Y-76454000D03*
X108966000Y-73914000D03*
D19*
X108966000Y-71374000D03*
D18*
X108966000Y-68834000D03*
X108966000Y-66294000D03*
X108966000Y-63754000D03*
X108966000Y-61214000D03*
D19*
X108966000Y-58674000D03*
D18*
X108966000Y-56134000D03*
X108966000Y-53594000D03*
X108966000Y-51054000D03*
X108966000Y-48514000D03*
D19*
X108966000Y-45974000D03*
D18*
X108966000Y-43434000D03*
X108966000Y-40894000D03*
X97536000Y-88924000D03*
D19*
X100076000Y-88924000D03*
D18*
X102616000Y-88924000D03*
%TD*%
D14*
%TO.C,U4*%
X84500000Y-134000000D03*
D13*
X84500000Y-136540000D03*
X84500000Y-139080000D03*
X92120000Y-139080000D03*
X92120000Y-136540000D03*
X92120000Y-134000000D03*
%TD*%
D15*
%TO.C,H4*%
X125000000Y-158362000D03*
%TD*%
D10*
%TO.C,R18*%
X96000000Y-131500000D03*
D13*
X96000000Y-139120000D03*
%TD*%
D10*
%TO.C,C5*%
X87162000Y-146558000D03*
X92162000Y-146558000D03*
%TD*%
%TO.C,R4*%
X122500000Y-47500000D03*
D13*
X122500000Y-55120000D03*
%TD*%
D14*
%TO.C,D5*%
X76000000Y-126500000D03*
D13*
X76000000Y-134120000D03*
%TD*%
D10*
%TO.C,C3*%
X87162000Y-114554000D03*
X92162000Y-114554000D03*
%TD*%
D14*
%TO.C,U5*%
X84500000Y-150000000D03*
D13*
X84500000Y-152540000D03*
X84500000Y-155080000D03*
X92120000Y-155080000D03*
X92120000Y-152540000D03*
X92120000Y-150000000D03*
%TD*%
D11*
%TO.C,J8*%
X53802300Y-104998740D03*
X53802300Y-115001260D03*
D12*
X62997200Y-117498080D03*
X62999740Y-110000000D03*
X62997200Y-102501920D03*
X65499100Y-114996180D03*
X65499100Y-105003820D03*
%TD*%
D14*
%TO.C,U3*%
X84500000Y-118000000D03*
D13*
X84500000Y-120540000D03*
X84500000Y-123080000D03*
X92120000Y-123080000D03*
X92120000Y-120540000D03*
X92120000Y-118000000D03*
%TD*%
D10*
%TO.C,R7*%
X126500000Y-75000000D03*
D13*
X126500000Y-67380000D03*
%TD*%
D15*
%TO.C,H1*%
X75000000Y-41862000D03*
%TD*%
D11*
%TO.C,J2*%
X53802300Y-64998740D03*
X53802300Y-75001260D03*
D12*
X62997200Y-77498080D03*
X62999740Y-70000000D03*
X62997200Y-62501920D03*
X65499100Y-74996180D03*
X65499100Y-65003820D03*
%TD*%
D15*
%TO.C,H3*%
X125000000Y-41862000D03*
%TD*%
D11*
%TO.C,J3*%
X53802300Y-95001260D03*
X53802300Y-84998740D03*
D12*
X62997200Y-97498080D03*
X62999740Y-90000000D03*
X62997200Y-82501920D03*
X65499100Y-94996180D03*
X65499100Y-85003820D03*
%TD*%
D10*
%TO.C,R15*%
X72000000Y-114000000D03*
D13*
X72000000Y-106380000D03*
%TD*%
D10*
%TO.C,R6*%
X122500000Y-67500000D03*
D13*
X122500000Y-75120000D03*
%TD*%
D10*
%TO.C,C4*%
X87162000Y-130556000D03*
X92162000Y-130556000D03*
%TD*%
D11*
%TO.C,J9*%
X53802300Y-135001260D03*
X53802300Y-124998740D03*
D12*
X62997200Y-137498080D03*
X62999740Y-130000000D03*
X62997200Y-122501920D03*
X65499100Y-134996180D03*
X65499100Y-125003820D03*
%TD*%
D11*
%TO.C,J4*%
X146197700Y-44998740D03*
X146197700Y-55001260D03*
D12*
X137002800Y-42501920D03*
X137000260Y-50000000D03*
X137002800Y-57498080D03*
X134500900Y-45003820D03*
X134500900Y-54996180D03*
%TD*%
D10*
%TO.C,C1*%
X107736000Y-114554000D03*
X112736000Y-114554000D03*
%TD*%
%TO.C,C2*%
X107736000Y-130302000D03*
X112736000Y-130302000D03*
%TD*%
%TO.C,R22*%
X128000000Y-139000000D03*
D13*
X128000000Y-131380000D03*
%TD*%
D14*
%TO.C,U2*%
X105000000Y-134000000D03*
D13*
X105000000Y-136540000D03*
X105000000Y-139080000D03*
X112620000Y-139080000D03*
X112620000Y-136540000D03*
X112620000Y-134000000D03*
%TD*%
D10*
%TO.C,R11*%
X122500000Y-87500000D03*
D13*
X122500000Y-95120000D03*
%TD*%
D10*
%TO.C,R19*%
X96000000Y-147500000D03*
D13*
X96000000Y-155120000D03*
%TD*%
D11*
%TO.C,J10*%
X53802300Y-144998740D03*
X53802300Y-155001260D03*
D12*
X62997200Y-157498080D03*
X62999740Y-150000000D03*
X62997200Y-142501920D03*
X65499100Y-154996180D03*
X65499100Y-145003820D03*
%TD*%
D11*
%TO.C,J5*%
X146197700Y-75001260D03*
X146197700Y-64998740D03*
D12*
X137002800Y-62501920D03*
X137000260Y-70000000D03*
X137002800Y-77498080D03*
X134500900Y-65003820D03*
X134500900Y-74996180D03*
%TD*%
D10*
%TO.C,R17*%
X72000000Y-154000000D03*
D13*
X72000000Y-146380000D03*
%TD*%
M02*
