M48
; DRILL file {KiCad (6.0.5)} date Wed Aug 17 09:38:07 2022
; FORMAT={-:-/ absolute / inch / decimal}
; #@! TF.CreationDate,2022-08-17T09:38:07+01:00
; #@! TF.GenerationSoftware,Kicad,Pcbnew,(6.0.5)
; #@! TF.FileFunction,MixedPlating,1,2
FMAT,2
INCH
; #@! TA.AperFunction,Plated,PTH,ComponentDrill
T1C0.0315
; #@! TA.AperFunction,Plated,PTH,ComponentDrill
T2C0.0402
; #@! TA.AperFunction,Plated,PTH,ComponentDrill
T3C0.0550
; #@! TA.AperFunction,NonPlated,NPTH,ComponentDrill
T4C0.0550
; #@! TA.AperFunction,NonPlated,NPTH,ComponentDrill
T5C0.0591
; #@! TA.AperFunction,NonPlated,NPTH,ComponentDrill
T6C0.0709
; #@! TA.AperFunction,NonPlated,NPTH,ComponentDrill
T7C0.0984
%
G90
G05
T1
X2.8346Y-1.826
X2.8346Y-2.126
X2.8346Y-2.6134
X2.8346Y-2.9134
X2.8346Y-3.4008
X2.8346Y-3.7008
X2.8346Y-4.1882
X2.8346Y-4.4882
X2.8346Y-4.9756
X2.8346Y-5.2756
X2.8346Y-5.763
X2.8346Y-6.063
X2.9921Y-1.8307
X2.9921Y-2.1307
X2.9921Y-2.6181
X2.9921Y-2.9181
X2.9921Y-3.4055
X2.9921Y-3.7055
X2.9921Y-4.1929
X2.9921Y-4.4929
X2.9921Y-4.9803
X2.9921Y-5.2803
X2.9921Y-5.7677
X2.9921Y-6.0677
X3.3268Y-4.6457
X3.3268Y-4.7457
X3.3268Y-4.8457
X3.3268Y-5.2756
X3.3268Y-5.3756
X3.3268Y-5.4756
X3.3268Y-5.9055
X3.3268Y-6.0055
X3.3268Y-6.1055
X3.4316Y-4.51
X3.4316Y-5.14
X3.4316Y-5.77
X3.6268Y-4.6457
X3.6268Y-4.7457
X3.6268Y-4.8457
X3.6268Y-5.2756
X3.6268Y-5.3756
X3.6268Y-5.4756
X3.6268Y-5.9055
X3.6268Y-6.0055
X3.6268Y-6.1055
X3.6284Y-4.51
X3.6284Y-5.14
X3.6284Y-5.77
X3.7795Y-4.5472
X3.7795Y-4.8472
X3.7795Y-5.1772
X3.7795Y-5.4772
X3.7795Y-5.8071
X3.7795Y-6.1071
X4.1339Y-4.6457
X4.1339Y-4.7457
X4.1339Y-4.8457
X4.1339Y-5.2756
X4.1339Y-5.3756
X4.1339Y-5.4756
X4.1339Y-5.9055
X4.1339Y-6.0055
X4.1339Y-6.1055
X4.24Y-5.77
X4.2416Y-4.51
X4.2416Y-5.13
X4.4339Y-4.6457
X4.4339Y-4.7457
X4.4339Y-4.8457
X4.4339Y-5.2756
X4.4339Y-5.3756
X4.4339Y-5.4756
X4.4339Y-5.9055
X4.4339Y-6.0055
X4.4339Y-6.1055
X4.4369Y-5.77
X4.4384Y-4.51
X4.4384Y-5.13
X4.5866Y-4.5472
X4.5866Y-4.8472
X4.5866Y-5.1772
X4.5866Y-5.4772
X4.5866Y-5.8071
X4.5866Y-6.1071
X4.8228Y-1.8701
X4.8228Y-2.1701
X4.8228Y-2.6575
X4.8228Y-2.9575
X4.8228Y-3.4449
X4.8228Y-3.7449
X4.8228Y-4.5425
X4.8228Y-4.8425
X4.8228Y-5.1724
X4.8228Y-5.4724
X4.8228Y-5.7827
X4.8228Y-6.0827
X4.9803Y-1.8654
X4.9803Y-2.1654
X4.9803Y-2.6528
X4.9803Y-2.9528
X4.9803Y-3.4402
X4.9803Y-3.7402
X5.0394Y-4.5425
X5.0394Y-4.8425
X5.0394Y-5.1724
X5.0394Y-5.4724
X5.0394Y-5.7827
X5.0394Y-6.0827
T2
X3.59Y-1.61
X3.59Y-1.71
X3.59Y-1.81
X3.59Y-1.91
X3.59Y-2.01
X3.59Y-2.11
X3.59Y-2.21
X3.59Y-2.31
X3.59Y-2.41
X3.59Y-2.51
X3.59Y-2.61
X3.59Y-2.71
X3.59Y-2.81
X3.59Y-2.91
X3.59Y-3.01
X3.59Y-3.11
X3.59Y-3.21
X3.59Y-3.31
X3.59Y-3.41
X3.59Y-3.51
X3.84Y-3.5009
X3.94Y-3.5009
X4.04Y-3.5009
X4.29Y-1.61
X4.29Y-1.71
X4.29Y-1.81
X4.29Y-1.91
X4.29Y-2.01
X4.29Y-2.11
X4.29Y-2.21
X4.29Y-2.31
X4.29Y-2.41
X4.29Y-2.51
X4.29Y-2.61
X4.29Y-2.71
X4.29Y-2.81
X4.29Y-2.91
X4.29Y-3.01
X4.29Y-3.11
X4.29Y-3.21
X4.29Y-3.31
X4.29Y-3.41
X4.29Y-3.51
T3
X2.4802Y-1.6733
X2.4802Y-2.2637
X2.4802Y-2.4607
X2.4802Y-3.0511
X2.4802Y-3.2481
X2.4802Y-3.8385
X2.4802Y-4.0355
X2.4802Y-4.6259
X2.4802Y-4.8229
X2.4802Y-5.4133
X2.4802Y-5.6103
X2.4802Y-6.2007
X2.4803Y-1.9685
X2.4803Y-2.7559
X2.4803Y-3.5433
X2.4803Y-4.3307
X2.4803Y-5.1181
X2.4803Y-5.9055
X2.5787Y-1.7718
X2.5787Y-2.1652
X2.5787Y-2.5592
X2.5787Y-2.9526
X2.5787Y-3.3466
X2.5787Y-3.74
X2.5787Y-4.134
X2.5787Y-4.5274
X2.5787Y-4.9214
X2.5787Y-5.3148
X2.5787Y-5.7088
X2.5787Y-6.1022
X5.2953Y-1.7718
X5.2953Y-2.1652
X5.2953Y-2.5592
X5.2953Y-2.9526
X5.2953Y-3.3466
X5.2953Y-3.74
X5.2953Y-4.134
X5.2953Y-4.5274
X5.2953Y-4.9214
X5.2953Y-5.3148
X5.2953Y-5.7088
X5.2953Y-6.1022
X5.3937Y-1.9685
X5.3937Y-2.7559
X5.3937Y-3.5433
X5.3937Y-4.3307
X5.3937Y-5.1181
X5.3937Y-5.9055
X5.3938Y-1.6733
X5.3938Y-2.2637
X5.3938Y-2.4607
X5.3938Y-3.0511
X5.3938Y-3.2481
X5.3938Y-3.8385
X5.3938Y-4.0355
X5.3938Y-4.6259
X5.3938Y-4.8229
X5.3938Y-5.4133
X5.3938Y-5.6103
X5.3938Y-6.2007
T4
X2.0867Y-1.7716
X2.0867Y-2.1654
X2.0867Y-2.559
X2.0867Y-2.9528
X2.0867Y-3.3464
X2.0867Y-3.7402
X2.0867Y-4.1338
X2.0867Y-4.5276
X2.0867Y-4.9212
X2.0867Y-5.315
X2.0867Y-5.7086
X2.0867Y-6.1024
X5.7873Y-1.7716
X5.7873Y-2.1654
X5.7873Y-2.559
X5.7873Y-2.9528
X5.7873Y-3.3464
X5.7873Y-3.7402
X5.7873Y-4.1338
X5.7873Y-4.5276
X5.7873Y-4.9212
X5.7873Y-5.315
X5.7873Y-5.7086
X5.7873Y-6.1024
T5
X3.8445Y-1.7344
X4.0355Y-1.7344
T6
X3.8327Y-1.6151
X4.0473Y-1.6151
T7
X2.9528Y-1.6481
X2.9528Y-6.2347
X4.9213Y-1.6481
X4.9213Y-6.2347
T0
M30
