M48
; DRILL file {KiCad 8.0.7} date 2025-03-14T17:48:07+0000
; FORMAT={-:-/ absolute / inch / decimal}
; #@! TF.CreationDate,2025-03-14T17:48:07+00:00
; #@! TF.GenerationSoftware,Kicad,Pcbnew,8.0.7
; #@! TF.FileFunction,MixedPlating,1,2
FMAT,2
INCH
; #@! TA.AperFunction,Plated,PTH,ViaDrill
T1C0.0118
; #@! TA.AperFunction,Plated,PTH,ComponentDrill
T2C0.0157
; #@! TA.AperFunction,Plated,PTH,ComponentDrill
T3C0.0315
; #@! TA.AperFunction,Plated,PTH,ComponentDrill
T4C0.0394
; #@! TA.AperFunction,Plated,PTH,ComponentDrill
T5C0.0433
; #@! TA.AperFunction,Plated,PTH,ComponentDrill
T6C0.0550
; #@! TA.AperFunction,NonPlated,NPTH,ComponentDrill
T7C0.0472
; #@! TA.AperFunction,NonPlated,NPTH,ComponentDrill
T8C0.0550
%
G90
G05
T1
X2.061Y-3.9409
X2.0689Y-2.4439
X2.0689Y-3.2106
X2.314Y-3.9429
X2.4547Y-2.9537
X2.5591Y-2.1959
X2.561Y-2.377
X2.7461Y-2.5167
X2.7549Y-3.0571
X3.0404Y-2.5217
X3.1575Y-2.4518
X3.3317Y-3.0699
X3.3612Y-3.9705
X3.4449Y-2.1634
X3.4577Y-3.0679
X3.4961Y-2.7352
X3.4961Y-2.8396
X3.5128Y-3.9016
X3.5138Y-3.751
X3.5138Y-3.8268
X3.5541Y-3.9783
X3.6811Y-2.8356
X3.687Y-2.7352
X3.6909Y-3.8642
X3.6929Y-3.7825
X3.6939Y-3.6191
X3.6939Y-3.7028
X3.9469Y-2.497
X4.0295Y-2.0522
T3
X2.7844Y-2.6469
X2.7844Y-2.9469
X2.81Y-3.2339
X2.81Y-3.5339
X2.81Y-3.6496
X2.81Y-3.9496
X2.9085Y-2.6463
X2.9085Y-2.9463
X2.9331Y-2.291
X2.9331Y-2.3895
X3.0533Y-2.7215
X3.0533Y-2.8215
X3.0533Y-2.9215
X3.1781Y-2.5915
X3.3533Y-2.7215
X3.3533Y-2.8215
X3.3533Y-2.9215
X3.375Y-2.5915
X3.3957Y-2.291
X3.3957Y-2.3895
X3.5108Y-2.6427
X3.5108Y-2.9427
X3.6732Y-2.2913
X3.6732Y-2.4882
T4
X2.5906Y-2.0472
X2.6906Y-2.0472
X2.7906Y-2.0472
X3.061Y-3.1526
X3.061Y-3.2526
X3.061Y-3.3526
X3.061Y-3.4526
X3.061Y-3.5526
X3.061Y-3.6526
X3.061Y-3.7526
X3.061Y-3.8526
X3.061Y-3.9526
X3.2185Y-3.1526
X3.2185Y-3.2526
X3.2185Y-3.3526
X3.2185Y-3.4526
X3.2185Y-3.5526
X3.2185Y-3.6526
X3.2185Y-3.7526
X3.2185Y-3.8526
X3.2185Y-3.9526
X3.6211Y-2.0541
X3.7211Y-2.0541
X3.8185Y-3.1526
X3.8185Y-3.2526
X3.8185Y-3.3526
X3.8185Y-3.4526
X3.8185Y-3.5526
X3.8185Y-3.6526
X3.8185Y-3.7526
X3.8185Y-3.8526
X3.8185Y-3.9526
X3.976Y-3.1526
X3.976Y-3.2526
X3.976Y-3.3526
X3.976Y-3.4526
X3.976Y-3.5526
X3.976Y-3.6526
X3.976Y-3.7526
X3.976Y-3.8526
X3.976Y-3.9526
X4.2185Y-2.2526
X4.2185Y-2.3526
X4.2185Y-2.4526
X4.2185Y-2.5526
X4.2185Y-2.6526
X4.2185Y-2.7526
X4.2185Y-2.8526
X4.2185Y-2.9526
X4.2185Y-3.0526
X4.2185Y-3.1526
X4.2185Y-3.2526
X4.2185Y-3.3526
X4.2185Y-3.4526
X4.2185Y-3.5526
X4.2185Y-3.6526
X4.3185Y-2.0526
X4.3185Y-2.1526
X4.3185Y-2.2526
X4.3185Y-2.3526
X4.3185Y-2.4526
X4.3185Y-2.5526
X4.3185Y-2.6526
X4.3185Y-2.7526
X4.3185Y-2.8526
X4.3185Y-2.9526
X4.3185Y-3.0526
X4.3185Y-3.1526
X4.3185Y-3.2526
X4.3185Y-3.3526
X4.3185Y-3.4526
X4.3185Y-3.5526
X4.3185Y-3.6526
X4.3185Y-3.7526
X4.3185Y-3.8526
X4.3185Y-3.9526
X4.4185Y-2.0526
X4.4185Y-2.1526
X4.4185Y-2.2526
X4.4185Y-2.3526
X4.4185Y-2.4526
X4.4185Y-2.5526
X4.4185Y-2.6526
X4.4185Y-2.7526
X4.4185Y-2.8526
X4.4185Y-2.9526
X4.4185Y-3.0526
X4.4185Y-3.1526
X4.4185Y-3.2526
X4.4185Y-3.3526
X4.4185Y-3.4526
X4.4185Y-3.5526
X4.4185Y-3.6526
X4.4185Y-3.7526
X4.4185Y-3.8526
X4.4185Y-3.9526
X4.5185Y-2.0526
X4.5185Y-2.1526
X4.5185Y-2.2526
X4.5185Y-2.3526
X4.5185Y-2.4526
X4.5185Y-2.5526
X4.5185Y-2.6526
X4.5185Y-2.7526
X4.5185Y-2.8526
X4.5185Y-2.9526
X4.5185Y-3.0526
X4.5185Y-3.1526
X4.5185Y-3.2526
X4.5185Y-3.3526
X4.5185Y-3.4526
X4.5185Y-3.5526
X4.5185Y-3.6526
X4.5185Y-3.7526
X4.5185Y-3.8526
X4.5185Y-3.9526
X4.6185Y-2.0526
X4.6185Y-2.1526
X4.6185Y-2.2526
X4.6185Y-2.3526
X4.6185Y-2.4526
X4.6185Y-2.5526
X4.6185Y-2.6526
X4.6185Y-2.7526
X4.6185Y-2.8526
X4.6185Y-2.9526
X4.6185Y-3.0526
X4.6185Y-3.1526
X4.6185Y-3.2526
X4.6185Y-3.3526
X4.6185Y-3.4526
X4.6185Y-3.5526
X4.6185Y-3.6526
X4.6185Y-3.7526
X4.6185Y-3.8526
X4.6185Y-3.9526
X4.7185Y-2.0526
X4.7185Y-2.1526
X4.7185Y-2.2526
X4.7185Y-2.3526
X4.7185Y-2.4526
X4.7185Y-2.5526
X4.7185Y-2.6526
X4.7185Y-2.7526
X4.7185Y-2.8526
X4.7185Y-2.9526
X4.7185Y-3.0526
X4.7185Y-3.1526
X4.7185Y-3.2526
X4.7185Y-3.3526
X4.7185Y-3.4526
X4.7185Y-3.5526
X4.7185Y-3.6526
X4.7185Y-3.7526
X4.7185Y-3.8526
X4.7185Y-3.9526
X4.8185Y-2.0526
X4.8185Y-2.1526
X4.8185Y-2.2526
X4.8185Y-2.3526
X4.8185Y-2.4526
X4.8185Y-2.5526
X4.8185Y-2.6526
X4.8185Y-2.7526
X4.8185Y-2.8526
X4.8185Y-2.9526
X4.8185Y-3.0526
X4.8185Y-3.1526
X4.8185Y-3.2526
X4.8185Y-3.3526
X4.8185Y-3.4526
X4.8185Y-3.5526
X4.8185Y-3.6526
X4.8185Y-3.7526
X4.8185Y-3.8526
X4.8185Y-3.9526
X4.9185Y-2.0526
X4.9185Y-2.1526
X4.9185Y-2.2526
X4.9185Y-2.3526
X4.9185Y-2.4526
X4.9185Y-2.5526
X4.9185Y-2.6526
X4.9185Y-2.7526
X4.9185Y-2.8526
X4.9185Y-2.9526
X4.9185Y-3.0526
X4.9185Y-3.1526
X4.9185Y-3.2526
X4.9185Y-3.3526
X4.9185Y-3.4526
X4.9185Y-3.5526
X4.9185Y-3.6526
X4.9185Y-3.7526
X4.9185Y-3.8526
X4.9185Y-3.9526
X5.0185Y-2.0526
X5.0185Y-2.1526
X5.0185Y-2.2526
X5.0185Y-2.3526
X5.0185Y-2.4526
X5.0185Y-2.5526
X5.0185Y-2.6526
X5.0185Y-2.7526
X5.0185Y-2.8526
X5.0185Y-2.9526
X5.0185Y-3.0526
X5.0185Y-3.1526
X5.0185Y-3.2526
X5.0185Y-3.3526
X5.0185Y-3.4526
X5.0185Y-3.5526
X5.0185Y-3.6526
X5.0185Y-3.7526
X5.0185Y-3.8526
X5.0185Y-3.9526
X5.1185Y-2.0526
X5.1185Y-2.1526
X5.1185Y-2.2526
X5.1185Y-2.3526
X5.1185Y-2.4526
X5.1185Y-2.5526
X5.1185Y-2.6526
X5.1185Y-2.7526
X5.1185Y-2.8526
X5.1185Y-2.9526
X5.1185Y-3.0526
X5.1185Y-3.1526
X5.1185Y-3.2526
X5.1185Y-3.3526
X5.1185Y-3.4526
X5.1185Y-3.5526
X5.1185Y-3.6526
X5.1185Y-3.7526
X5.1185Y-3.8526
X5.1185Y-3.9526
X5.2185Y-2.0526
X5.2185Y-2.1526
X5.2185Y-2.2526
X5.2185Y-2.3526
X5.2185Y-2.4526
X5.2185Y-2.5526
X5.2185Y-2.6526
X5.2185Y-2.7526
X5.2185Y-2.8526
X5.2185Y-2.9526
X5.2185Y-3.0526
X5.2185Y-3.1526
X5.2185Y-3.2526
X5.2185Y-3.3526
X5.2185Y-3.4526
X5.2185Y-3.5526
X5.2185Y-3.6526
X5.2185Y-3.7526
X5.2185Y-3.8526
X5.2185Y-3.9526
X5.3185Y-2.0526
X5.3185Y-2.1526
X5.3185Y-2.2526
X5.3185Y-2.3526
X5.3185Y-2.4526
X5.3185Y-2.5526
X5.3185Y-2.6526
X5.3185Y-2.7526
X5.3185Y-2.8526
X5.3185Y-2.9526
X5.3185Y-3.0526
X5.3185Y-3.1526
X5.3185Y-3.2526
X5.3185Y-3.3526
X5.3185Y-3.4526
X5.3185Y-3.5526
X5.3185Y-3.6526
X5.3185Y-3.7526
X5.3185Y-3.8526
X5.3185Y-3.9526
X5.4185Y-2.0526
X5.4185Y-2.1526
X5.4185Y-2.2526
X5.4185Y-2.3526
X5.4185Y-2.4526
X5.4185Y-2.5526
X5.4185Y-2.6526
X5.4185Y-2.7526
X5.4185Y-2.8526
X5.4185Y-2.9526
X5.4185Y-3.0526
X5.4185Y-3.1526
X5.4185Y-3.2526
X5.4185Y-3.3526
X5.4185Y-3.4526
X5.4185Y-3.5526
X5.4185Y-3.6526
X5.4185Y-3.7526
X5.4185Y-3.8526
X5.4185Y-3.9526
X5.5185Y-2.0526
X5.5185Y-2.1526
X5.5185Y-2.2526
X5.5185Y-2.3526
X5.5185Y-2.4526
X5.5185Y-2.5526
X5.5185Y-2.6526
X5.5185Y-2.7526
X5.5185Y-2.8526
X5.5185Y-2.9526
X5.5185Y-3.0526
X5.5185Y-3.1526
X5.5185Y-3.2526
X5.5185Y-3.3526
X5.5185Y-3.4526
X5.5185Y-3.5526
X5.5185Y-3.6526
X5.5185Y-3.7526
X5.5185Y-3.8526
X5.5185Y-3.9526
X5.6185Y-2.0526
X5.6185Y-2.1526
X5.6185Y-2.2526
X5.6185Y-2.3526
X5.6185Y-2.4526
X5.6185Y-2.5526
X5.6185Y-2.6526
X5.6185Y-2.7526
X5.6185Y-2.8526
X5.6185Y-2.9526
X5.6185Y-3.0526
X5.6185Y-3.1526
X5.6185Y-3.2526
X5.6185Y-3.3526
X5.6185Y-3.4526
X5.6185Y-3.5526
X5.6185Y-3.6526
X5.6185Y-3.7526
X5.6185Y-3.8526
X5.6185Y-3.9526
X5.7185Y-2.0526
X5.7185Y-2.1526
X5.7185Y-2.2526
X5.7185Y-2.3526
X5.7185Y-2.4526
X5.7185Y-2.5526
X5.7185Y-2.6526
X5.7185Y-2.7526
X5.7185Y-2.8526
X5.7185Y-2.9526
X5.7185Y-3.0526
X5.7185Y-3.1526
X5.7185Y-3.2526
X5.7185Y-3.3526
X5.7185Y-3.4526
X5.7185Y-3.5526
X5.7185Y-3.6526
X5.7185Y-3.7526
X5.7185Y-3.8526
X5.7185Y-3.9526
X5.8185Y-2.0526
X5.8185Y-2.1526
X5.8185Y-2.2526
X5.8185Y-2.3526
X5.8185Y-2.4526
X5.8185Y-2.5526
X5.8185Y-2.6526
X5.8185Y-2.7526
X5.8185Y-2.8526
X5.8185Y-2.9526
X5.8185Y-3.0526
X5.8185Y-3.1526
X5.8185Y-3.2526
X5.8185Y-3.3526
X5.8185Y-3.4526
X5.8185Y-3.5526
X5.8185Y-3.6526
X5.8185Y-3.7526
X5.8185Y-3.8526
X5.8185Y-3.9526
T5
X3.053Y-2.1171
X3.153Y-2.1171
X3.253Y-2.1171
T6
X2.4365Y-2.5119
X2.4365Y-3.1023
X2.4366Y-2.8071
X2.4483Y-3.2993
X2.4483Y-3.8897
X2.4484Y-3.5945
X2.535Y-2.6104
X2.535Y-3.0038
X2.5468Y-3.3978
X2.5468Y-3.7912
T7
X2.0472Y-2.6102
X2.0472Y-3.0039
X2.0472Y-3.3976
X2.0472Y-3.7913
X2.1457Y-2.6102
X2.1457Y-3.0039
X2.1457Y-3.3976
X2.1457Y-3.7913
X2.3425Y-2.8071
X2.3425Y-3.5945
T8
X2.043Y-2.6102
X2.043Y-3.004
X2.0548Y-3.3976
X2.0548Y-3.7914
T2
G00X2.1457Y-2.7874
M15
G01X2.1457Y-2.8268
M16
G05
G00X2.1457Y-3.5748
M15
G01X2.1457Y-3.6142
M16
G05
G00X2.3622Y-2.6102
M15
G01X2.3228Y-2.6102
M16
G05
G00X2.3228Y-3.0039
M15
G01X2.3622Y-3.0039
M16
G05
G00X2.3622Y-3.3976
M15
G01X2.3228Y-3.3976
M16
G05
G00X2.3228Y-3.7913
M15
G01X2.3622Y-3.7913
M16
G05
T3
G00X2.3563Y-2.7087
M15
G01X2.3287Y-2.7087
M16
G05
G00X2.3287Y-2.9055
M15
G01X2.3563Y-2.9055
M16
G05
G00X2.3563Y-3.4961
M15
G01X2.3287Y-3.4961
M16
G05
G00X2.3287Y-3.6929
M15
G01X2.3563Y-3.6929
M16
G05
T4
G00X2.1339Y-2.1218
M15
G01X2.1339Y-2.2005
M16
G05
G00X2.2126Y-2.3462
M15
G01X2.2913Y-2.3462
M16
G05
G00X2.3701Y-2.1218
M15
G01X2.3701Y-2.2005
M16
G05
M30
