%TF.GenerationSoftware,KiCad,Pcbnew,8.0.7*%
%TF.CreationDate,2025-03-14T17:48:08+00:00*%
%TF.ProjectId,WaveshareZeroMIDIProto,57617665-7368-4617-9265-5a65726f4d49,rev?*%
%TF.SameCoordinates,Original*%
%TF.FileFunction,Copper,L1,Top*%
%TF.FilePolarity,Positive*%
%FSLAX46Y46*%
G04 Gerber Fmt 4.6, Leading zero omitted, Abs format (unit mm)*
G04 Created by KiCad (PCBNEW 8.0.7) date 2025-03-14 17:48:08*
%MOMM*%
%LPD*%
G01*
G04 APERTURE LIST*
G04 Aperture macros list*
%AMRoundRect*
0 Rectangle with rounded corners*
0 $1 Rounding radius*
0 $2 $3 $4 $5 $6 $7 $8 $9 X,Y pos of 4 corners*
0 Add a 4 corners polygon primitive as box body*
4,1,4,$2,$3,$4,$5,$6,$7,$8,$9,$2,$3,0*
0 Add four circle primitives for the rounded corners*
1,1,$1+$1,$2,$3*
1,1,$1+$1,$4,$5*
1,1,$1+$1,$6,$7*
1,1,$1+$1,$8,$9*
0 Add four rect primitives between the rounded corners*
20,1,$1+$1,$2,$3,$4,$5,0*
20,1,$1+$1,$4,$5,$6,$7,0*
20,1,$1+$1,$6,$7,$8,$9,0*
20,1,$1+$1,$8,$9,$2,$3,0*%
G04 Aperture macros list end*
%TA.AperFunction,ComponentPad*%
%ADD10O,1.700000X1.700000*%
%TD*%
%TA.AperFunction,ComponentPad*%
%ADD11O,2.500000X1.600000*%
%TD*%
%TA.AperFunction,ComponentPad*%
%ADD12O,2.200000X1.200000*%
%TD*%
%TA.AperFunction,ComponentPad*%
%ADD13O,1.200000X2.200000*%
%TD*%
%TA.AperFunction,ComponentPad*%
%ADD14O,2.300000X1.600000*%
%TD*%
%TA.AperFunction,ComponentPad*%
%ADD15R,1.600000X1.600000*%
%TD*%
%TA.AperFunction,ComponentPad*%
%ADD16C,1.600000*%
%TD*%
%TA.AperFunction,ComponentPad*%
%ADD17R,1.700000X1.700000*%
%TD*%
%TA.AperFunction,ComponentPad*%
%ADD18O,1.600000X1.600000*%
%TD*%
%TA.AperFunction,ComponentPad*%
%ADD19R,3.500000X3.500000*%
%TD*%
%TA.AperFunction,ComponentPad*%
%ADD20RoundRect,0.750000X-0.750000X-1.000000X0.750000X-1.000000X0.750000X1.000000X-0.750000X1.000000X0*%
%TD*%
%TA.AperFunction,ComponentPad*%
%ADD21RoundRect,0.875000X-0.875000X-0.875000X0.875000X-0.875000X0.875000X0.875000X-0.875000X0.875000X0*%
%TD*%
%TA.AperFunction,WasherPad*%
%ADD22C,2.499360*%
%TD*%
%TA.AperFunction,ComponentPad*%
%ADD23C,2.499360*%
%TD*%
%TA.AperFunction,SMDPad,CuDef*%
%ADD24R,1.000000X1.500000*%
%TD*%
%TA.AperFunction,ComponentPad*%
%ADD25R,1.905000X2.000000*%
%TD*%
%TA.AperFunction,ComponentPad*%
%ADD26O,1.905000X2.000000*%
%TD*%
%TA.AperFunction,ViaPad*%
%ADD27C,0.600000*%
%TD*%
%TA.AperFunction,Conductor*%
%ADD28C,0.400000*%
%TD*%
%TA.AperFunction,Conductor*%
%ADD29C,0.600000*%
%TD*%
G04 APERTURE END LIST*
D10*
%TO.P,,1,Pin_15*%
%TO.N,N/C*%
X135090000Y-74995000D03*
%TD*%
%TO.P,,1,Pin_15*%
%TO.N,N/C*%
X137630000Y-59755000D03*
%TD*%
%TO.P,,1,Pin_15*%
%TO.N,N/C*%
X135090000Y-82615000D03*
%TD*%
%TO.P,,1,Pin_15*%
%TO.N,N/C*%
X117310000Y-57215000D03*
%TD*%
%TO.P,,1,Pin_15*%
%TO.N,N/C*%
X142710000Y-57215000D03*
%TD*%
%TO.P,,1,Pin_15*%
%TO.N,N/C*%
X137630000Y-62295000D03*
%TD*%
%TO.P,,1,Pin_15*%
%TO.N,N/C*%
X132550000Y-74995000D03*
%TD*%
%TO.P,,1,Pin_15*%
%TO.N,N/C*%
X127470000Y-82615000D03*
%TD*%
%TO.P,,1,Pin_15*%
%TO.N,N/C*%
X114770000Y-74995000D03*
%TD*%
%TO.P,,1,Pin_15*%
%TO.N,N/C*%
X142710000Y-64835000D03*
%TD*%
%TO.P,,1,Pin_15*%
%TO.N,N/C*%
X124930000Y-80075000D03*
%TD*%
%TO.P,,1,Pin_15*%
%TO.N,N/C*%
X117310000Y-92775000D03*
%TD*%
%TO.P,,1,Pin_15*%
%TO.N,N/C*%
X132550000Y-67375000D03*
%TD*%
%TO.P,,1,Pin_15*%
%TO.N,N/C*%
X135090000Y-87695000D03*
%TD*%
%TO.P,,1,Pin_15*%
%TO.N,N/C*%
X140170000Y-74995000D03*
%TD*%
%TO.P,,1,Pin_15*%
%TO.N,N/C*%
X117310000Y-74995000D03*
%TD*%
%TO.P,,1,Pin_15*%
%TO.N,N/C*%
X124930000Y-82615000D03*
%TD*%
%TO.P,,1,Pin_15*%
%TO.N,N/C*%
X140170000Y-57215000D03*
%TD*%
%TO.P,,1,Pin_15*%
%TO.N,N/C*%
X137630000Y-85155000D03*
%TD*%
%TO.P,,1,Pin_15*%
%TO.N,N/C*%
X119850000Y-85155000D03*
%TD*%
%TO.P,,1,Pin_15*%
%TO.N,N/C*%
X112230000Y-77535000D03*
%TD*%
%TO.P,,1,Pin_15*%
%TO.N,N/C*%
X124930000Y-67375000D03*
%TD*%
%TO.P,,1,Pin_15*%
%TO.N,N/C*%
X112230000Y-54675000D03*
%TD*%
%TO.P,,1,Pin_15*%
%TO.N,N/C*%
X145250000Y-85155000D03*
%TD*%
%TO.P,,1,Pin_15*%
%TO.N,N/C*%
X137630000Y-80075000D03*
%TD*%
D11*
%TO.P,J2,TN*%
%TO.N,N/C*%
X59500000Y-73800000D03*
D12*
%TO.P,J2,T*%
%TO.N,Net-(D1-A)*%
X59500000Y-76300000D03*
D13*
%TO.P,J2,S*%
%TO.N,unconnected-(J2-PadS)*%
X54500000Y-71300000D03*
D14*
%TO.P,J2,RN*%
%TO.N,N/C*%
X59500000Y-68800000D03*
D12*
%TO.P,J2,R*%
%TO.N,Net-(J2-PadR)*%
X59500000Y-66300000D03*
%TD*%
D10*
%TO.P,,1,Pin_15*%
%TO.N,N/C*%
X147790000Y-85155000D03*
%TD*%
D15*
%TO.P,C3,1*%
%TO.N,+5V*%
X86250000Y-58192621D03*
D16*
%TO.P,C3,2*%
%TO.N,GND*%
X86250000Y-60692621D03*
%TD*%
D10*
%TO.P,,1,Pin_15*%
%TO.N,N/C*%
X145250000Y-92775000D03*
%TD*%
%TO.P,,1,Pin_15*%
%TO.N,N/C*%
X147790000Y-59755000D03*
%TD*%
%TO.P,,1,Pin_15*%
%TO.N,N/C*%
X142710000Y-67375000D03*
%TD*%
%TO.P,,1,Pin_15*%
%TO.N,N/C*%
X117310000Y-54675000D03*
%TD*%
%TO.P,,1,Pin_15*%
%TO.N,N/C*%
X124930000Y-74995000D03*
%TD*%
%TO.P,,1,Pin_15*%
%TO.N,N/C*%
X122390000Y-90235000D03*
%TD*%
%TO.P,,1,Pin_15*%
%TO.N,N/C*%
X119850000Y-80075000D03*
%TD*%
%TO.P,,1,Pin_15*%
%TO.N,N/C*%
X114770000Y-77535000D03*
%TD*%
%TO.P,,1,Pin_15*%
%TO.N,N/C*%
X147790000Y-69915000D03*
%TD*%
%TO.P,,1,Pin_15*%
%TO.N,N/C*%
X122390000Y-57215000D03*
%TD*%
%TO.P,,1,Pin_15*%
%TO.N,N/C*%
X114770000Y-92775000D03*
%TD*%
%TO.P,,1,Pin_15*%
%TO.N,N/C*%
X112230000Y-62295000D03*
%TD*%
%TO.P,,1,Pin_15*%
%TO.N,N/C*%
X119850000Y-87695000D03*
%TD*%
D17*
%TO.P,J9,1,Pin_1*%
%TO.N,/TX*%
X81750000Y-100395000D03*
D10*
%TO.P,J9,2,Pin_2*%
%TO.N,/RX*%
X81750000Y-97855000D03*
%TO.P,J9,3,Pin_3*%
%TO.N,Net-(J10-Pin_3)*%
X81750000Y-95315000D03*
%TO.P,J9,4,Pin_4*%
%TO.N,Net-(J10-Pin_4)*%
X81750000Y-92775000D03*
%TO.P,J9,5,Pin_5*%
%TO.N,Net-(J10-Pin_5)*%
X81750000Y-90235000D03*
%TO.P,J9,6,Pin_6*%
%TO.N,Net-(J10-Pin_6)*%
X81750000Y-87695000D03*
%TO.P,J9,7,Pin_7*%
%TO.N,Net-(J10-Pin_7)*%
X81750000Y-85155000D03*
%TO.P,J9,8,Pin_8*%
%TO.N,Net-(J10-Pin_8)*%
X81750000Y-82615000D03*
%TO.P,J9,9,Pin_9*%
%TO.N,Net-(J10-Pin_9)*%
X81750000Y-80075000D03*
%TD*%
D16*
%TO.P,R4,1*%
%TO.N,+3V3*%
X89175000Y-67125000D03*
D18*
%TO.P,R4,2*%
%TO.N,/RX*%
X89175000Y-74745000D03*
%TD*%
D10*
%TO.P,,1,Pin_15*%
%TO.N,N/C*%
X147790000Y-54675000D03*
%TD*%
%TO.P,,1,Pin_15*%
%TO.N,N/C*%
X127470000Y-80075000D03*
%TD*%
%TO.P,,1,Pin_15*%
%TO.N,N/C*%
X130010000Y-87695000D03*
%TD*%
%TO.P,,1,Pin_15*%
%TO.N,N/C*%
X119850000Y-90235000D03*
%TD*%
D17*
%TO.P,J5,1,Pin_1*%
%TO.N,+5V*%
X91975000Y-52175000D03*
D10*
%TO.P,J5,2,Pin_2*%
%TO.N,GND*%
X94515000Y-52175000D03*
%TD*%
%TO.P,,1,Pin_15*%
%TO.N,N/C*%
X109690000Y-87695000D03*
%TD*%
%TO.P,,1,Pin_15*%
%TO.N,N/C*%
X109690000Y-82615000D03*
%TD*%
%TO.P,,1,Pin_15*%
%TO.N,N/C*%
X122390000Y-82615000D03*
%TD*%
%TO.P,,1,Pin_15*%
%TO.N,N/C*%
X109690000Y-77535000D03*
%TD*%
%TO.P,,1,Pin_15*%
%TO.N,N/C*%
X140170000Y-54675000D03*
%TD*%
%TO.P,,1,Pin_15*%
%TO.N,N/C*%
X124930000Y-69915000D03*
%TD*%
%TO.P,,1,Pin_15*%
%TO.N,N/C*%
X122390000Y-77535000D03*
%TD*%
%TO.P,J15,1,Pin_1*%
%TO.N,GND*%
X147790000Y-97855000D03*
%TO.P,J15,2,Pin_2*%
X145250000Y-97855000D03*
%TO.P,J15,3,Pin_3*%
X142710000Y-97855000D03*
%TO.P,J15,4,Pin_4*%
X140170000Y-97855000D03*
%TO.P,J15,5,Pin_5*%
X137630000Y-97855000D03*
%TO.P,J15,6,Pin_6*%
X135090000Y-97855000D03*
%TO.P,J15,7,Pin_7*%
X132550000Y-97855000D03*
%TO.P,J15,8,Pin_8*%
X130010000Y-97855000D03*
%TO.P,J15,9,Pin_9*%
X127470000Y-97855000D03*
%TO.P,J15,10,Pin_10*%
X124930000Y-97855000D03*
%TO.P,J15,11,Pin_11*%
X122390000Y-97855000D03*
%TO.P,J15,12,Pin_12*%
X119850000Y-97855000D03*
%TO.P,J15,13,Pin_13*%
X117310000Y-97855000D03*
%TO.P,J15,14,Pin_14*%
X114770000Y-97855000D03*
%TO.P,J15,15,Pin_15*%
X112230000Y-97855000D03*
%TO.P,J15,16,Pin_16*%
X109690000Y-97855000D03*
%TD*%
%TO.P,,1,Pin_15*%
%TO.N,N/C*%
X112230000Y-72455000D03*
%TD*%
%TO.P,,1,Pin_15*%
%TO.N,N/C*%
X135090000Y-59755000D03*
%TD*%
%TO.P,,1,Pin_15*%
%TO.N,N/C*%
X130010000Y-59755000D03*
%TD*%
%TO.P,,1,Pin_15*%
%TO.N,N/C*%
X127470000Y-67375000D03*
%TD*%
%TO.P,,1,Pin_15*%
%TO.N,N/C*%
X147790000Y-62295000D03*
%TD*%
%TO.P,,1,Pin_15*%
%TO.N,N/C*%
X112230000Y-87695000D03*
%TD*%
%TO.P,,1,Pin_15*%
%TO.N,N/C*%
X109690000Y-92775000D03*
%TD*%
%TO.P,,1,Pin_15*%
%TO.N,N/C*%
X135090000Y-69915000D03*
%TD*%
%TO.P,,1,Pin_15*%
%TO.N,N/C*%
X119850000Y-74995000D03*
%TD*%
%TO.P,,1,Pin_15*%
%TO.N,N/C*%
X109690000Y-69915000D03*
%TD*%
%TO.P,,1,Pin_15*%
%TO.N,N/C*%
X130010000Y-77535000D03*
%TD*%
%TO.P,,1,Pin_15*%
%TO.N,N/C*%
X117310000Y-90235000D03*
%TD*%
%TO.P,,1,Pin_15*%
%TO.N,N/C*%
X142710000Y-69915000D03*
%TD*%
D15*
%TO.P,D1,1,K*%
%TO.N,Net-(D1-K)*%
X73875000Y-67215000D03*
D18*
%TO.P,D1,2,A*%
%TO.N,Net-(D1-A)*%
X73875000Y-74835000D03*
%TD*%
D10*
%TO.P,,1,Pin_15*%
%TO.N,N/C*%
X132550000Y-59755000D03*
%TD*%
%TO.P,,1,Pin_15*%
%TO.N,N/C*%
X140170000Y-77535000D03*
%TD*%
%TO.P,,1,Pin_15*%
%TO.N,N/C*%
X114770000Y-62295000D03*
%TD*%
D12*
%TO.P,J1,R*%
%TO.N,Net-(J1-PadR)*%
X59500000Y-86300000D03*
D14*
%TO.P,J1,RN*%
%TO.N,N/C*%
X59500000Y-88800000D03*
D13*
%TO.P,J1,S*%
%TO.N,GND*%
X54500000Y-91300000D03*
D12*
%TO.P,J1,T*%
%TO.N,Net-(J1-PadT)*%
X59500000Y-96300000D03*
D11*
%TO.P,J1,TN*%
%TO.N,N/C*%
X59500000Y-93800000D03*
%TD*%
D10*
%TO.P,,1,Pin_15*%
%TO.N,N/C*%
X117310000Y-82615000D03*
%TD*%
D17*
%TO.P,J10,1,Pin_1*%
%TO.N,/TX*%
X77750000Y-100395000D03*
D10*
%TO.P,J10,2,Pin_2*%
%TO.N,/RX*%
X77750000Y-97855000D03*
%TO.P,J10,3,Pin_3*%
%TO.N,Net-(J10-Pin_3)*%
X77750000Y-95315000D03*
%TO.P,J10,4,Pin_4*%
%TO.N,Net-(J10-Pin_4)*%
X77750000Y-92775000D03*
%TO.P,J10,5,Pin_5*%
%TO.N,Net-(J10-Pin_5)*%
X77750000Y-90235000D03*
%TO.P,J10,6,Pin_6*%
%TO.N,Net-(J10-Pin_6)*%
X77750000Y-87695000D03*
%TO.P,J10,7,Pin_7*%
%TO.N,Net-(J10-Pin_7)*%
X77750000Y-85155000D03*
%TO.P,J10,8,Pin_8*%
%TO.N,Net-(J10-Pin_8)*%
X77750000Y-82615000D03*
%TO.P,J10,9,Pin_9*%
%TO.N,Net-(J10-Pin_9)*%
X77750000Y-80075000D03*
%TD*%
%TO.P,,1,Pin_15*%
%TO.N,N/C*%
X114770000Y-59755000D03*
%TD*%
%TO.P,,1,Pin_15*%
%TO.N,N/C*%
X145250000Y-57215000D03*
%TD*%
%TO.P,,1,Pin_15*%
%TO.N,N/C*%
X112230000Y-64835000D03*
%TD*%
%TO.P,,1,Pin_15*%
%TO.N,N/C*%
X112230000Y-67375000D03*
%TD*%
%TO.P,,1,Pin_15*%
%TO.N,N/C*%
X142710000Y-82615000D03*
%TD*%
%TO.P,,1,Pin_15*%
%TO.N,N/C*%
X135090000Y-64835000D03*
%TD*%
%TO.P,,1,Pin_15*%
%TO.N,N/C*%
X147790000Y-87695000D03*
%TD*%
%TO.P,,1,Pin_15*%
%TO.N,N/C*%
X140170000Y-87695000D03*
%TD*%
%TO.P,,1,Pin_15*%
%TO.N,N/C*%
X119850000Y-82615000D03*
%TD*%
D16*
%TO.P,R2,1*%
%TO.N,Net-(J1-PadR)*%
X71375000Y-89760000D03*
D18*
%TO.P,R2,2*%
%TO.N,+3V3*%
X71375000Y-82140000D03*
%TD*%
D10*
%TO.P,,1,Pin_15*%
%TO.N,N/C*%
X132550000Y-64835000D03*
%TD*%
%TO.P,,1,Pin_15*%
%TO.N,N/C*%
X145250000Y-64835000D03*
%TD*%
%TO.P,,1,Pin_15*%
%TO.N,N/C*%
X147790000Y-77535000D03*
%TD*%
%TO.P,,1,Pin_15*%
%TO.N,N/C*%
X137630000Y-57215000D03*
%TD*%
%TO.P,,1,Pin_15*%
%TO.N,N/C*%
X135090000Y-90235000D03*
%TD*%
%TO.P,,1,Pin_15*%
%TO.N,N/C*%
X122390000Y-64835000D03*
%TD*%
%TO.P,,1,Pin_15*%
%TO.N,N/C*%
X109690000Y-64835000D03*
%TD*%
%TO.P,,1,Pin_15*%
%TO.N,N/C*%
X112230000Y-74995000D03*
%TD*%
%TO.P,,1,Pin_15*%
%TO.N,N/C*%
X130010000Y-57215000D03*
%TD*%
%TO.P,,1,Pin_15*%
%TO.N,N/C*%
X114770000Y-85155000D03*
%TD*%
%TO.P,,1,Pin_15*%
%TO.N,N/C*%
X147790000Y-72455000D03*
%TD*%
D15*
%TO.P,U1,1*%
%TO.N,Net-(D1-K)*%
X77555000Y-69125000D03*
D18*
%TO.P,U1,2*%
%TO.N,Net-(D1-A)*%
X77555000Y-71665000D03*
%TO.P,U1,3*%
%TO.N,unconnected-(U1-Pad3)*%
X77555000Y-74205000D03*
%TO.P,U1,4*%
%TO.N,/RX*%
X85175000Y-74205000D03*
%TO.P,U1,5*%
%TO.N,GND*%
X85175000Y-71665000D03*
%TO.P,U1,6*%
%TO.N,+3V3*%
X85175000Y-69125000D03*
%TD*%
D10*
%TO.P,,1,Pin_15*%
%TO.N,N/C*%
X135090000Y-92775000D03*
%TD*%
%TO.P,,1,Pin_15*%
%TO.N,N/C*%
X122390000Y-80075000D03*
%TD*%
%TO.P,,1,Pin_15*%
%TO.N,N/C*%
X112230000Y-82615000D03*
%TD*%
%TO.P,,1,Pin_15*%
%TO.N,N/C*%
X145250000Y-82615000D03*
%TD*%
%TO.P,,1,Pin_15*%
%TO.N,N/C*%
X130010000Y-92775000D03*
%TD*%
%TO.P,,1,Pin_15*%
%TO.N,N/C*%
X117310000Y-87695000D03*
%TD*%
%TO.P,,1,Pin_15*%
%TO.N,N/C*%
X112230000Y-57215000D03*
%TD*%
%TO.P,,1,Pin_15*%
%TO.N,N/C*%
X142710000Y-62295000D03*
%TD*%
%TO.P,,1,Pin_15*%
%TO.N,N/C*%
X127470000Y-69915000D03*
%TD*%
%TO.P,,1,Pin_15*%
%TO.N,N/C*%
X109690000Y-85155000D03*
%TD*%
%TO.P,,1,Pin_15*%
%TO.N,N/C*%
X137630000Y-74995000D03*
%TD*%
D19*
%TO.P,J12,1*%
%TO.N,Net-(SW1-A)*%
X60200000Y-54892500D03*
D20*
%TO.P,J12,2*%
%TO.N,GND*%
X54200000Y-54892500D03*
D21*
%TO.P,J12,3*%
%TO.N,N/C*%
X57200000Y-59592500D03*
%TD*%
D10*
%TO.P,,1,Pin_15*%
%TO.N,N/C*%
X124930000Y-87695000D03*
%TD*%
D16*
%TO.P,C1,1*%
%TO.N,+3V3*%
X80725000Y-65825000D03*
%TO.P,C1,2*%
%TO.N,GND*%
X85725000Y-65825000D03*
%TD*%
D10*
%TO.P,,1,Pin_15*%
%TO.N,N/C*%
X114770000Y-72455000D03*
%TD*%
%TO.P,,1,Pin_15*%
%TO.N,N/C*%
X122390000Y-67375000D03*
%TD*%
%TO.P,,1,Pin_15*%
%TO.N,N/C*%
X130010000Y-80075000D03*
%TD*%
%TO.P,,1,Pin_15*%
%TO.N,N/C*%
X137630000Y-77535000D03*
%TD*%
%TO.P,,1,Pin_15*%
%TO.N,N/C*%
X135090000Y-80075000D03*
%TD*%
%TO.P,,1,Pin_15*%
%TO.N,N/C*%
X140170000Y-90235000D03*
%TD*%
%TO.P,,1,Pin_15*%
%TO.N,N/C*%
X140170000Y-62295000D03*
%TD*%
%TO.P,,1,Pin_15*%
%TO.N,N/C*%
X137630000Y-54675000D03*
%TD*%
%TO.P,,1,Pin_15*%
%TO.N,N/C*%
X124930000Y-72455000D03*
%TD*%
%TO.P,,1,Pin_15*%
%TO.N,N/C*%
X132550000Y-87695000D03*
%TD*%
D15*
%TO.P,C2,1*%
%TO.N,Net-(JP1-A)*%
X74500000Y-58192621D03*
D16*
%TO.P,C2,2*%
%TO.N,GND*%
X74500000Y-60692621D03*
%TD*%
D10*
%TO.P,,1,Pin_15*%
%TO.N,N/C*%
X130010000Y-62295000D03*
%TD*%
%TO.P,,1,Pin_15*%
%TO.N,N/C*%
X147790000Y-90235000D03*
%TD*%
D17*
%TO.P,J7,1,Pin_1*%
%TO.N,+5V*%
X100990000Y-100395000D03*
D10*
%TO.P,J7,2,Pin_2*%
%TO.N,GND*%
X100990000Y-97855000D03*
%TO.P,J7,3,Pin_3*%
%TO.N,+3V3*%
X100990000Y-95315000D03*
%TO.P,J7,4,Pin_4*%
%TO.N,Net-(J11-Pin_1)*%
X100990000Y-92775000D03*
%TO.P,J7,5,Pin_5*%
%TO.N,Net-(J11-Pin_2)*%
X100990000Y-90235000D03*
%TO.P,J7,6,Pin_6*%
%TO.N,Net-(J11-Pin_3)*%
X100990000Y-87695000D03*
%TO.P,J7,7,Pin_7*%
%TO.N,Net-(J11-Pin_4)*%
X100990000Y-85155000D03*
%TO.P,J7,8,Pin_8*%
%TO.N,Net-(J11-Pin_5)*%
X100990000Y-82615000D03*
%TO.P,J7,9,Pin_9*%
%TO.N,Net-(J11-Pin_6)*%
X100990000Y-80075000D03*
%TD*%
%TO.P,,1,Pin_15*%
%TO.N,N/C*%
X147790000Y-64835000D03*
%TD*%
%TO.P,,1,Pin_15*%
%TO.N,N/C*%
X124930000Y-59755000D03*
%TD*%
%TO.P,,1,Pin_15*%
%TO.N,N/C*%
X114770000Y-64835000D03*
%TD*%
%TO.P,,1,Pin_15*%
%TO.N,N/C*%
X142710000Y-92775000D03*
%TD*%
D17*
%TO.P,J8,1,Pin_1*%
%TO.N,+5V*%
X96990000Y-100395000D03*
D10*
%TO.P,J8,2,Pin_2*%
%TO.N,GND*%
X96990000Y-97855000D03*
%TO.P,J8,3,Pin_3*%
%TO.N,+3V3*%
X96990000Y-95315000D03*
%TO.P,J8,4,Pin_4*%
%TO.N,Net-(J11-Pin_1)*%
X96990000Y-92775000D03*
%TO.P,J8,5,Pin_5*%
%TO.N,Net-(J11-Pin_2)*%
X96990000Y-90235000D03*
%TO.P,J8,6,Pin_6*%
%TO.N,Net-(J11-Pin_3)*%
X96990000Y-87695000D03*
%TO.P,J8,7,Pin_7*%
%TO.N,Net-(J11-Pin_4)*%
X96990000Y-85155000D03*
%TO.P,J8,8,Pin_8*%
%TO.N,Net-(J11-Pin_5)*%
X96990000Y-82615000D03*
%TO.P,J8,9,Pin_9*%
%TO.N,Net-(J11-Pin_6)*%
X96990000Y-80075000D03*
%TD*%
%TO.P,,1,Pin_15*%
%TO.N,N/C*%
X137630000Y-72455000D03*
%TD*%
%TO.P,,1,Pin_15*%
%TO.N,N/C*%
X109690000Y-57215000D03*
%TD*%
%TO.P,,1,Pin_15*%
%TO.N,N/C*%
X109690000Y-54675000D03*
%TD*%
D22*
%TO.P,J4,*%
%TO.N,*%
X52192300Y-86298740D03*
X52192300Y-96301260D03*
D23*
%TO.P,J4,1*%
%TO.N,unconnected-(J4-Pad1)*%
X62187200Y-98798080D03*
%TO.P,J4,2*%
%TO.N,GND*%
X62189740Y-91300000D03*
%TO.P,J4,3*%
%TO.N,unconnected-(J4-Pad3)*%
X62187200Y-83801920D03*
%TO.P,J4,4*%
%TO.N,Net-(J1-PadR)*%
X64689100Y-96296180D03*
%TO.P,J4,5*%
%TO.N,Net-(J1-PadT)*%
X64689100Y-86303820D03*
%TD*%
D10*
%TO.P,,1,Pin_15*%
%TO.N,N/C*%
X119850000Y-67375000D03*
%TD*%
%TO.P,,1,Pin_15*%
%TO.N,N/C*%
X147790000Y-67375000D03*
%TD*%
D16*
%TO.P,R1,1*%
%TO.N,Net-(J2-PadR)*%
X70725000Y-74850000D03*
D18*
%TO.P,R1,2*%
%TO.N,Net-(D1-K)*%
X70725000Y-67230000D03*
%TD*%
D10*
%TO.P,,1,Pin_15*%
%TO.N,N/C*%
X124930000Y-85155000D03*
%TD*%
%TO.P,,1,Pin_15*%
%TO.N,N/C*%
X130010000Y-74995000D03*
%TD*%
D16*
%TO.P,C4,1*%
%TO.N,+5V*%
X93300000Y-58200000D03*
%TO.P,C4,2*%
%TO.N,GND*%
X93300000Y-63200000D03*
%TD*%
D10*
%TO.P,,1,Pin_15*%
%TO.N,N/C*%
X109690000Y-67375000D03*
%TD*%
%TO.P,,1,Pin_15*%
%TO.N,N/C*%
X112230000Y-92775000D03*
%TD*%
%TO.P,,1,Pin_15*%
%TO.N,N/C*%
X130010000Y-64835000D03*
%TD*%
%TO.P,,1,Pin_15*%
%TO.N,N/C*%
X119850000Y-59755000D03*
%TD*%
%TO.P,,1,Pin_15*%
%TO.N,N/C*%
X142710000Y-59755000D03*
%TD*%
%TO.P,,1,Pin_15*%
%TO.N,N/C*%
X147790000Y-74995000D03*
%TD*%
%TO.P,,1,Pin_15*%
%TO.N,N/C*%
X119850000Y-57215000D03*
%TD*%
%TO.P,,1,Pin_15*%
%TO.N,N/C*%
X124930000Y-92775000D03*
%TD*%
%TO.P,,1,Pin_15*%
%TO.N,N/C*%
X145250000Y-77535000D03*
%TD*%
%TO.P,,1,Pin_15*%
%TO.N,N/C*%
X124930000Y-64835000D03*
%TD*%
%TO.P,,1,Pin_15*%
%TO.N,N/C*%
X135090000Y-54675000D03*
%TD*%
%TO.P,,1,Pin_15*%
%TO.N,N/C*%
X132550000Y-82615000D03*
%TD*%
%TO.P,,1,Pin_15*%
%TO.N,N/C*%
X114770000Y-54675000D03*
%TD*%
%TO.P,,1,Pin_15*%
%TO.N,N/C*%
X135090000Y-72455000D03*
%TD*%
%TO.P,,1,Pin_15*%
%TO.N,N/C*%
X140170000Y-92775000D03*
%TD*%
%TO.P,,1,Pin_15*%
%TO.N,N/C*%
X117310000Y-62295000D03*
%TD*%
%TO.P,,1,Pin_15*%
%TO.N,N/C*%
X119850000Y-64835000D03*
%TD*%
%TO.P,,1,Pin_15*%
%TO.N,N/C*%
X117310000Y-67375000D03*
%TD*%
%TO.P,,1,Pin_15*%
%TO.N,N/C*%
X137630000Y-67375000D03*
%TD*%
%TO.P,,1,Pin_15*%
%TO.N,N/C*%
X137630000Y-69915000D03*
%TD*%
%TO.P,,1,Pin_15*%
%TO.N,N/C*%
X109690000Y-90235000D03*
%TD*%
%TO.P,,1,Pin_15*%
%TO.N,N/C*%
X145250000Y-67375000D03*
%TD*%
%TO.P,,1,Pin_15*%
%TO.N,N/C*%
X127470000Y-77535000D03*
%TD*%
%TO.P,,1,Pin_15*%
%TO.N,N/C*%
X122390000Y-87695000D03*
%TD*%
%TO.P,,1,Pin_15*%
%TO.N,N/C*%
X122390000Y-62295000D03*
%TD*%
%TO.P,,1,Pin_15*%
%TO.N,N/C*%
X117310000Y-80075000D03*
%TD*%
%TO.P,,1,Pin_15*%
%TO.N,N/C*%
X112230000Y-80075000D03*
%TD*%
%TO.P,,1,Pin_15*%
%TO.N,N/C*%
X132550000Y-77535000D03*
%TD*%
%TO.P,,1,Pin_15*%
%TO.N,N/C*%
X124930000Y-77535000D03*
%TD*%
%TO.P,J13,1,Pin_1*%
%TO.N,+5V*%
X147790000Y-100395000D03*
%TO.P,J13,2,Pin_2*%
X145250000Y-100395000D03*
%TO.P,J13,3,Pin_3*%
X142710000Y-100395000D03*
%TO.P,J13,4,Pin_4*%
X140170000Y-100395000D03*
%TO.P,J13,5,Pin_5*%
X137630000Y-100395000D03*
%TO.P,J13,6,Pin_6*%
X135090000Y-100395000D03*
%TO.P,J13,7,Pin_7*%
X132550000Y-100395000D03*
%TO.P,J13,8,Pin_8*%
X130010000Y-100395000D03*
%TO.P,J13,9,Pin_9*%
X127470000Y-100395000D03*
%TO.P,J13,10,Pin_10*%
X124930000Y-100395000D03*
%TO.P,J13,11,Pin_11*%
X122390000Y-100395000D03*
%TO.P,J13,12,Pin_12*%
X119850000Y-100395000D03*
%TO.P,J13,13,Pin_13*%
X117310000Y-100395000D03*
%TO.P,J13,14,Pin_14*%
X114770000Y-100395000D03*
%TO.P,J13,15,Pin_15*%
X112230000Y-100395000D03*
%TO.P,J13,16,Pin_16*%
X109690000Y-100395000D03*
%TD*%
%TO.P,,1,Pin_15*%
%TO.N,N/C*%
X117310000Y-69915000D03*
%TD*%
%TO.P,,1,Pin_15*%
%TO.N,N/C*%
X122390000Y-85155000D03*
%TD*%
%TO.P,,1,Pin_15*%
%TO.N,N/C*%
X132550000Y-54675000D03*
%TD*%
%TO.P,,1,Pin_15*%
%TO.N,N/C*%
X119850000Y-77535000D03*
%TD*%
%TO.P,,1,Pin_15*%
%TO.N,N/C*%
X114770000Y-69915000D03*
%TD*%
%TO.P,,1,Pin_15*%
%TO.N,N/C*%
X127470000Y-74995000D03*
%TD*%
%TO.P,,1,Pin_15*%
%TO.N,N/C*%
X127470000Y-72455000D03*
%TD*%
%TO.P,,1,Pin_15*%
%TO.N,N/C*%
X130010000Y-54675000D03*
%TD*%
%TO.P,,1,Pin_15*%
%TO.N,N/C*%
X135090000Y-67375000D03*
%TD*%
%TO.P,,1,Pin_15*%
%TO.N,N/C*%
X132550000Y-90235000D03*
%TD*%
%TO.P,J6,1,Pin_1*%
%TO.N,/TX*%
X107150000Y-77535000D03*
%TO.P,J6,2,Pin_2*%
%TO.N,/RX*%
X107150000Y-74995000D03*
%TO.P,J6,3,Pin_3*%
%TO.N,Net-(J10-Pin_3)*%
X107150000Y-72455000D03*
%TO.P,J6,4,Pin_4*%
%TO.N,Net-(J10-Pin_4)*%
X107150000Y-69915000D03*
%TO.P,J6,5,Pin_5*%
%TO.N,Net-(J10-Pin_5)*%
X107150000Y-67375000D03*
%TO.P,J6,6,Pin_6*%
%TO.N,Net-(J10-Pin_6)*%
X107150000Y-64835000D03*
%TO.P,J6,7,Pin_7*%
%TO.N,Net-(J10-Pin_7)*%
X107150000Y-62295000D03*
%TO.P,J6,8,Pin_8*%
%TO.N,Net-(J10-Pin_8)*%
X107150000Y-59755000D03*
%TO.P,J6,9,Pin_9*%
%TO.N,Net-(J10-Pin_9)*%
X107150000Y-57215000D03*
%TD*%
%TO.P,,1,Pin_15*%
%TO.N,N/C*%
X112230000Y-69915000D03*
%TD*%
%TO.P,,1,Pin_15*%
%TO.N,N/C*%
X147790000Y-92775000D03*
%TD*%
%TO.P,,1,Pin_15*%
%TO.N,N/C*%
X142710000Y-54675000D03*
%TD*%
%TO.P,,1,Pin_15*%
%TO.N,N/C*%
X137630000Y-82615000D03*
%TD*%
%TO.P,,1,Pin_15*%
%TO.N,N/C*%
X145250000Y-74995000D03*
%TD*%
%TO.P,,1,Pin_15*%
%TO.N,N/C*%
X127470000Y-59755000D03*
%TD*%
%TO.P,,1,Pin_15*%
%TO.N,N/C*%
X142710000Y-72455000D03*
%TD*%
%TO.P,,1,Pin_15*%
%TO.N,N/C*%
X114770000Y-87695000D03*
%TD*%
%TO.P,,1,Pin_15*%
%TO.N,N/C*%
X117310000Y-59755000D03*
%TD*%
%TO.P,,1,Pin_15*%
%TO.N,N/C*%
X132550000Y-62295000D03*
%TD*%
%TO.P,,1,Pin_15*%
%TO.N,N/C*%
X112230000Y-90235000D03*
%TD*%
%TO.P,,1,Pin_15*%
%TO.N,N/C*%
X114770000Y-67375000D03*
%TD*%
%TO.P,,1,Pin_15*%
%TO.N,N/C*%
X124930000Y-54675000D03*
%TD*%
%TO.P,,1,Pin_15*%
%TO.N,N/C*%
X114770000Y-57215000D03*
%TD*%
%TO.P,,1,Pin_15*%
%TO.N,N/C*%
X119850000Y-62295000D03*
%TD*%
D16*
%TO.P,R3,1*%
%TO.N,Net-(J1-PadT)*%
X71375000Y-92700000D03*
D18*
%TO.P,R3,2*%
%TO.N,/TX*%
X71375000Y-100320000D03*
%TD*%
D10*
%TO.P,,1,Pin_15*%
%TO.N,N/C*%
X130010000Y-72455000D03*
%TD*%
%TO.P,,1,Pin_15*%
%TO.N,N/C*%
X147790000Y-82615000D03*
%TD*%
%TO.P,,1,Pin_15*%
%TO.N,N/C*%
X137630000Y-90235000D03*
%TD*%
%TO.P,,1,Pin_15*%
%TO.N,N/C*%
X117310000Y-77535000D03*
%TD*%
%TO.P,,1,Pin_15*%
%TO.N,N/C*%
X109690000Y-80075000D03*
%TD*%
%TO.P,,1,Pin_15*%
%TO.N,N/C*%
X135090000Y-85155000D03*
%TD*%
%TO.P,,1,Pin_15*%
%TO.N,N/C*%
X130010000Y-67375000D03*
%TD*%
%TO.P,,1,Pin_15*%
%TO.N,N/C*%
X122390000Y-54675000D03*
%TD*%
D17*
%TO.P,SW1,1,A*%
%TO.N,Net-(SW1-A)*%
X65800000Y-52000000D03*
D10*
%TO.P,SW1,2,B*%
%TO.N,Net-(JP1-A)*%
X68340000Y-52000000D03*
%TO.P,SW1,3*%
%TO.N,N/C*%
X70880000Y-52000000D03*
%TD*%
%TO.P,,1,Pin_15*%
%TO.N,N/C*%
X145250000Y-62295000D03*
%TD*%
%TO.P,,1,Pin_15*%
%TO.N,N/C*%
X145250000Y-80075000D03*
%TD*%
%TO.P,,1,Pin_15*%
%TO.N,N/C*%
X142710000Y-77535000D03*
%TD*%
%TO.P,,1,Pin_15*%
%TO.N,N/C*%
X137630000Y-64835000D03*
%TD*%
%TO.P,,1,Pin_15*%
%TO.N,N/C*%
X124930000Y-62295000D03*
%TD*%
%TO.P,,1,Pin_15*%
%TO.N,N/C*%
X127470000Y-57215000D03*
%TD*%
%TO.P,,1,Pin_15*%
%TO.N,N/C*%
X140170000Y-72455000D03*
%TD*%
%TO.P,,1,Pin_15*%
%TO.N,N/C*%
X145250000Y-72455000D03*
%TD*%
%TO.P,,1,Pin_15*%
%TO.N,N/C*%
X122390000Y-59755000D03*
%TD*%
%TO.P,,1,Pin_15*%
%TO.N,N/C*%
X140170000Y-82615000D03*
%TD*%
%TO.P,,1,Pin_15*%
%TO.N,N/C*%
X132550000Y-57215000D03*
%TD*%
%TO.P,,1,Pin_15*%
%TO.N,N/C*%
X112230000Y-59755000D03*
%TD*%
%TO.P,,1,Pin_15*%
%TO.N,N/C*%
X145250000Y-90235000D03*
%TD*%
%TO.P,,1,Pin_15*%
%TO.N,N/C*%
X142710000Y-85155000D03*
%TD*%
%TO.P,,1,Pin_15*%
%TO.N,N/C*%
X142710000Y-80075000D03*
%TD*%
%TO.P,,1,Pin_15*%
%TO.N,N/C*%
X140170000Y-69915000D03*
%TD*%
%TO.P,,1,Pin_15*%
%TO.N,N/C*%
X145250000Y-59755000D03*
%TD*%
%TO.P,,1,Pin_15*%
%TO.N,N/C*%
X112230000Y-85155000D03*
%TD*%
%TO.P,,1,Pin_15*%
%TO.N,N/C*%
X109690000Y-62295000D03*
%TD*%
%TO.P,,1,Pin_15*%
%TO.N,N/C*%
X140170000Y-64835000D03*
%TD*%
%TO.P,,1,Pin_15*%
%TO.N,N/C*%
X147790000Y-80075000D03*
%TD*%
%TO.P,,1,Pin_15*%
%TO.N,N/C*%
X130010000Y-82615000D03*
%TD*%
%TO.P,,1,Pin_15*%
%TO.N,N/C*%
X122390000Y-74995000D03*
%TD*%
%TO.P,,1,Pin_15*%
%TO.N,N/C*%
X114770000Y-90235000D03*
%TD*%
%TO.P,,1,Pin_15*%
%TO.N,N/C*%
X130010000Y-85155000D03*
%TD*%
D24*
%TO.P,JP1,1,A*%
%TO.N,Net-(JP1-A)*%
X79550000Y-59250000D03*
%TO.P,JP1,2,B*%
%TO.N,+5V*%
X80850000Y-59250000D03*
%TD*%
D10*
%TO.P,,1,Pin_15*%
%TO.N,N/C*%
X127470000Y-62295000D03*
%TD*%
%TO.P,,1,Pin_15*%
%TO.N,N/C*%
X127470000Y-64835000D03*
%TD*%
%TO.P,,1,Pin_15*%
%TO.N,N/C*%
X135090000Y-77535000D03*
%TD*%
%TO.P,,1,Pin_15*%
%TO.N,N/C*%
X142710000Y-90235000D03*
%TD*%
%TO.P,,1,Pin_15*%
%TO.N,N/C*%
X119850000Y-72455000D03*
%TD*%
%TO.P,,1,Pin_15*%
%TO.N,N/C*%
X127470000Y-85155000D03*
%TD*%
%TO.P,J16,1,Pin_1*%
%TO.N,GND*%
X147790000Y-52135000D03*
%TO.P,J16,2,Pin_2*%
X145250000Y-52135000D03*
%TO.P,J16,3,Pin_3*%
X142710000Y-52135000D03*
%TO.P,J16,4,Pin_4*%
X140170000Y-52135000D03*
%TO.P,J16,5,Pin_5*%
X137630000Y-52135000D03*
%TO.P,J16,6,Pin_6*%
X135090000Y-52135000D03*
%TO.P,J16,7,Pin_7*%
X132550000Y-52135000D03*
%TO.P,J16,8,Pin_8*%
X130010000Y-52135000D03*
%TO.P,J16,9,Pin_9*%
X127470000Y-52135000D03*
%TO.P,J16,10,Pin_10*%
X124930000Y-52135000D03*
%TO.P,J16,11,Pin_11*%
X122390000Y-52135000D03*
%TO.P,J16,12,Pin_12*%
X119850000Y-52135000D03*
%TO.P,J16,13,Pin_13*%
X117310000Y-52135000D03*
%TO.P,J16,14,Pin_14*%
X114770000Y-52135000D03*
%TO.P,J16,15,Pin_15*%
X112230000Y-52135000D03*
%TO.P,J16,16,Pin_16*%
X109690000Y-52135000D03*
%TD*%
%TO.P,,1,Pin_15*%
%TO.N,N/C*%
X122390000Y-69915000D03*
%TD*%
%TO.P,,1,Pin_15*%
%TO.N,N/C*%
X132550000Y-85155000D03*
%TD*%
%TO.P,,1,Pin_15*%
%TO.N,N/C*%
X119850000Y-54675000D03*
%TD*%
%TO.P,,1,Pin_15*%
%TO.N,N/C*%
X135090000Y-62295000D03*
%TD*%
%TO.P,,1,Pin_15*%
%TO.N,N/C*%
X119850000Y-92775000D03*
%TD*%
%TO.P,,1,Pin_15*%
%TO.N,N/C*%
X127470000Y-54675000D03*
%TD*%
%TO.P,,1,Pin_15*%
%TO.N,N/C*%
X142710000Y-87695000D03*
%TD*%
%TO.P,,1,Pin_15*%
%TO.N,N/C*%
X140170000Y-59755000D03*
%TD*%
%TO.P,,1,Pin_15*%
%TO.N,N/C*%
X117310000Y-85155000D03*
%TD*%
%TO.P,,1,Pin_15*%
%TO.N,N/C*%
X130010000Y-69915000D03*
%TD*%
%TO.P,,1,Pin_15*%
%TO.N,N/C*%
X127470000Y-90235000D03*
%TD*%
%TO.P,,1,Pin_15*%
%TO.N,N/C*%
X147790000Y-57215000D03*
%TD*%
%TO.P,,1,Pin_15*%
%TO.N,N/C*%
X127470000Y-92775000D03*
%TD*%
%TO.P,J14,1,Pin_1*%
%TO.N,+3V3*%
X147790000Y-95315000D03*
%TO.P,J14,2,Pin_2*%
X145250000Y-95315000D03*
%TO.P,J14,3,Pin_3*%
X142710000Y-95315000D03*
%TO.P,J14,4,Pin_4*%
X140170000Y-95315000D03*
%TO.P,J14,5,Pin_5*%
X137630000Y-95315000D03*
%TO.P,J14,6,Pin_6*%
X135090000Y-95315000D03*
%TO.P,J14,7,Pin_7*%
X132550000Y-95315000D03*
%TO.P,J14,8,Pin_8*%
X130010000Y-95315000D03*
%TO.P,J14,9,Pin_9*%
X127470000Y-95315000D03*
%TO.P,J14,10,Pin_10*%
X124930000Y-95315000D03*
%TO.P,J14,11,Pin_11*%
X122390000Y-95315000D03*
%TO.P,J14,12,Pin_12*%
X119850000Y-95315000D03*
%TO.P,J14,13,Pin_13*%
X117310000Y-95315000D03*
%TO.P,J14,14,Pin_14*%
X114770000Y-95315000D03*
%TO.P,J14,15,Pin_15*%
X112230000Y-95315000D03*
%TO.P,J14,16,Pin_16*%
X109690000Y-95315000D03*
%TD*%
%TO.P,,1,Pin_15*%
%TO.N,N/C*%
X140170000Y-67375000D03*
%TD*%
%TO.P,,1,Pin_15*%
%TO.N,N/C*%
X132550000Y-69915000D03*
%TD*%
%TO.P,,1,Pin_15*%
%TO.N,N/C*%
X145250000Y-69915000D03*
%TD*%
%TO.P,,1,Pin_15*%
%TO.N,N/C*%
X122390000Y-72455000D03*
%TD*%
%TO.P,,1,Pin_15*%
%TO.N,N/C*%
X132550000Y-72455000D03*
%TD*%
%TO.P,,1,Pin_15*%
%TO.N,N/C*%
X140170000Y-80075000D03*
%TD*%
%TO.P,,1,Pin_15*%
%TO.N,N/C*%
X124930000Y-90235000D03*
%TD*%
D25*
%TO.P,U2,1,IN*%
%TO.N,Net-(JP1-A)*%
X77545000Y-53775000D03*
D26*
%TO.P,U2,2,GND*%
%TO.N,GND*%
X80085000Y-53775000D03*
%TO.P,U2,3,OUT*%
%TO.N,+5V*%
X82625000Y-53775000D03*
%TD*%
D10*
%TO.P,,1,Pin_15*%
%TO.N,N/C*%
X114770000Y-80075000D03*
%TD*%
%TO.P,,1,Pin_15*%
%TO.N,N/C*%
X127470000Y-87695000D03*
%TD*%
%TO.P,,1,Pin_15*%
%TO.N,N/C*%
X114770000Y-82615000D03*
%TD*%
%TO.P,,1,Pin_15*%
%TO.N,N/C*%
X109690000Y-74995000D03*
%TD*%
%TO.P,,1,Pin_15*%
%TO.N,N/C*%
X142710000Y-74995000D03*
%TD*%
%TO.P,,1,Pin_15*%
%TO.N,N/C*%
X135090000Y-57215000D03*
%TD*%
%TO.P,,1,Pin_15*%
%TO.N,N/C*%
X137630000Y-92775000D03*
%TD*%
%TO.P,,1,Pin_15*%
%TO.N,N/C*%
X132550000Y-92775000D03*
%TD*%
%TO.P,,1,Pin_15*%
%TO.N,N/C*%
X109690000Y-72455000D03*
%TD*%
%TO.P,,1,Pin_15*%
%TO.N,N/C*%
X130010000Y-90235000D03*
%TD*%
%TO.P,,1,Pin_15*%
%TO.N,N/C*%
X140170000Y-85155000D03*
%TD*%
%TO.P,,1,Pin_15*%
%TO.N,N/C*%
X119850000Y-69915000D03*
%TD*%
%TO.P,,1,Pin_15*%
%TO.N,N/C*%
X122390000Y-92775000D03*
%TD*%
%TO.P,,1,Pin_15*%
%TO.N,N/C*%
X137630000Y-87695000D03*
%TD*%
%TO.P,J11,1,Pin_1*%
%TO.N,Net-(J11-Pin_1)*%
X107150000Y-92775000D03*
%TO.P,J11,2,Pin_2*%
%TO.N,Net-(J11-Pin_2)*%
X107150000Y-90235000D03*
%TO.P,J11,3,Pin_3*%
%TO.N,Net-(J11-Pin_3)*%
X107150000Y-87695000D03*
%TO.P,J11,4,Pin_4*%
%TO.N,Net-(J11-Pin_4)*%
X107150000Y-85155000D03*
%TO.P,J11,5,Pin_5*%
%TO.N,Net-(J11-Pin_5)*%
X107150000Y-82615000D03*
%TO.P,J11,6,Pin_6*%
%TO.N,Net-(J11-Pin_6)*%
X107150000Y-80075000D03*
%TD*%
%TO.P,,1,Pin_15*%
%TO.N,N/C*%
X145250000Y-87695000D03*
%TD*%
%TO.P,,1,Pin_15*%
%TO.N,N/C*%
X117310000Y-64835000D03*
%TD*%
%TO.P,,1,Pin_15*%
%TO.N,N/C*%
X145250000Y-54675000D03*
%TD*%
%TO.P,,1,Pin_15*%
%TO.N,N/C*%
X117310000Y-72455000D03*
%TD*%
%TO.P,,1,Pin_15*%
%TO.N,N/C*%
X124930000Y-57215000D03*
%TD*%
%TO.P,,1,Pin_15*%
%TO.N,N/C*%
X132550000Y-80075000D03*
%TD*%
%TO.P,,1,Pin_15*%
%TO.N,N/C*%
X109690000Y-59755000D03*
%TD*%
D22*
%TO.P,J3,*%
%TO.N,*%
X51892300Y-66298740D03*
X51892300Y-76301260D03*
D23*
%TO.P,J3,1*%
%TO.N,unconnected-(J3-Pad1)*%
X61887200Y-78798080D03*
%TO.P,J3,2*%
%TO.N,unconnected-(J3-Pad2)*%
X61889740Y-71300000D03*
%TO.P,J3,3*%
%TO.N,unconnected-(J3-Pad3)*%
X61887200Y-63801920D03*
%TO.P,J3,4*%
%TO.N,Net-(J2-PadR)*%
X64389100Y-76296180D03*
%TO.P,J3,5*%
%TO.N,Net-(D1-A)*%
X64389100Y-66303820D03*
%TD*%
D27*
%TO.N,GND*%
X87825000Y-77925000D03*
X84625000Y-77975000D03*
X89250000Y-95275000D03*
X87500000Y-54950000D03*
X93650000Y-69475000D03*
X69975000Y-77650000D03*
X77225000Y-64050000D03*
X52350000Y-100100000D03*
X58775000Y-100150000D03*
X80200000Y-62275000D03*
X62350000Y-75025000D03*
X90275000Y-101050000D03*
X89250000Y-97200000D03*
X89225000Y-99100000D03*
X93825000Y-91925000D03*
X102350000Y-52125000D03*
X88800000Y-72125000D03*
X52550000Y-81550000D03*
X52550000Y-62075000D03*
X93500000Y-72025000D03*
X65050000Y-60375000D03*
X69750000Y-63925000D03*
X93825000Y-94050000D03*
X93750000Y-98150000D03*
X65000000Y-55775000D03*
X100250000Y-63425000D03*
X93800000Y-96075000D03*
X85375000Y-100850000D03*
X88800000Y-69475000D03*
%TD*%
D28*
%TO.N,Net-(D1-A)*%
X61100000Y-65700000D02*
X60125000Y-64725000D01*
X73730280Y-74835000D02*
X64595280Y-65700000D01*
X64595280Y-65700000D02*
X61100000Y-65700000D01*
X73875000Y-74835000D02*
X73730280Y-74835000D01*
X60125000Y-64725000D02*
X58375000Y-64725000D01*
%TO.N,Net-(J2-PadR)*%
X65835280Y-70710280D02*
X65075000Y-69950000D01*
X65835280Y-74850000D02*
X65835280Y-70710280D01*
X61425000Y-66300000D02*
X65075000Y-69950000D01*
X65835280Y-74850000D02*
X64389100Y-76296180D01*
X67025000Y-74850000D02*
X65835280Y-74850000D01*
X67025000Y-74850000D02*
X66645280Y-74850000D01*
X70725000Y-74850000D02*
X67025000Y-74850000D01*
%TO.N,Net-(J1-PadT)*%
X62359920Y-96300000D02*
X59500000Y-96300000D01*
X64372420Y-98312500D02*
X62359920Y-96300000D01*
X68212500Y-98312500D02*
X64372420Y-98312500D01*
X71375000Y-92700000D02*
X71375000Y-95150000D01*
X71375000Y-95150000D02*
X68212500Y-98312500D01*
%TO.N,Net-(J1-PadR)*%
X64689100Y-89764100D02*
X61225000Y-86300000D01*
X64689100Y-90075000D02*
X64689100Y-89764100D01*
X59500000Y-86300000D02*
X61225000Y-86300000D01*
X64689100Y-90075000D02*
X64689100Y-96296180D01*
X64689100Y-89864100D02*
X64689100Y-90075000D01*
X71375000Y-89760000D02*
X64793200Y-89760000D01*
X64793200Y-89760000D02*
X64689100Y-89864100D01*
%TO.N,/RX*%
X99453705Y-74995000D02*
X107150000Y-74995000D01*
X92625000Y-81823705D02*
X99453705Y-74995000D01*
X92625000Y-86980000D02*
X92625000Y-81823705D01*
X81750000Y-97855000D02*
X92625000Y-86980000D01*
%TO.N,Net-(J10-Pin_3)*%
X101145177Y-72455000D02*
X107150000Y-72455000D01*
X92025000Y-81575177D02*
X101145177Y-72455000D01*
X92025000Y-85040000D02*
X92025000Y-81575177D01*
X81750000Y-95315000D02*
X92025000Y-85040000D01*
%TO.N,Net-(J10-Pin_4)*%
X102836649Y-69915000D02*
X107150000Y-69915000D01*
X81750000Y-92775000D02*
X91400825Y-83124175D01*
X91400825Y-83124175D02*
X91400825Y-81350825D01*
X91400825Y-81350825D02*
X102836649Y-69915000D01*
%TO.N,Net-(J10-Pin_5)*%
X90801561Y-81183439D02*
X81750000Y-90235000D01*
X90801561Y-81101561D02*
X90801561Y-81183439D01*
%TO.N,Net-(J10-Pin_9)*%
X81750000Y-80075000D02*
X77750000Y-80075000D01*
X88434010Y-80075000D02*
X81750000Y-80075000D01*
%TO.N,Net-(J10-Pin_8)*%
X81750000Y-82615000D02*
X77750000Y-82615000D01*
X86742538Y-82615000D02*
X81750000Y-82615000D01*
%TO.N,Net-(J10-Pin_7)*%
X81750000Y-85155000D02*
X77750000Y-85155000D01*
X105000000Y-65206066D02*
X85051066Y-85155000D01*
X85051066Y-85155000D02*
X81750000Y-85155000D01*
X105000000Y-64445000D02*
X105000000Y-65206066D01*
X107150000Y-62295000D02*
X105000000Y-64445000D01*
%TO.N,Net-(J10-Pin_6)*%
X81750000Y-87695000D02*
X77750000Y-87695000D01*
X83359594Y-87695000D02*
X81750000Y-87695000D01*
%TO.N,Net-(J10-Pin_5)*%
X81750000Y-90235000D02*
X77750000Y-90235000D01*
X90801561Y-81101561D02*
X104528122Y-67375000D01*
%TO.N,Net-(J10-Pin_4)*%
X81750000Y-92775000D02*
X77750000Y-92775000D01*
%TO.N,Net-(J10-Pin_3)*%
X81750000Y-95315000D02*
X77750000Y-95315000D01*
%TO.N,/TX*%
X71450000Y-100395000D02*
X71375000Y-100320000D01*
X77750000Y-100395000D02*
X71450000Y-100395000D01*
X81750000Y-100395000D02*
X77750000Y-100395000D01*
%TO.N,/RX*%
X77750000Y-97855000D02*
X81750000Y-97855000D01*
X75210000Y-97855000D02*
X77750000Y-97855000D01*
%TO.N,/TX*%
X93225000Y-89260050D02*
X82090050Y-100395000D01*
X82090050Y-100395000D02*
X81750000Y-100395000D01*
X97762233Y-77535000D02*
X93225000Y-82072233D01*
X93225000Y-82072233D02*
X93225000Y-89260050D01*
X107150000Y-77535000D02*
X97762233Y-77535000D01*
D29*
%TO.N,GND*%
X96990000Y-97855000D02*
X147790000Y-97855000D01*
D28*
%TO.N,+3V3*%
X71375000Y-80350000D02*
X74800000Y-76925000D01*
X81875000Y-65825000D02*
X85175000Y-69125000D01*
X71375000Y-82140000D02*
X71375000Y-80350000D01*
D29*
X87175000Y-67125000D02*
X85175000Y-69125000D01*
D28*
X74800000Y-76925000D02*
X77375000Y-76925000D01*
D29*
X89175000Y-67125000D02*
X87175000Y-67125000D01*
D28*
X77375000Y-76925000D02*
X85175000Y-69125000D01*
D29*
X96990000Y-95315000D02*
X147790000Y-95315000D01*
D28*
X80725000Y-65825000D02*
X81875000Y-65825000D01*
D29*
%TO.N,Net-(JP1-A)*%
X77450000Y-58192621D02*
X78492621Y-58192621D01*
X68340000Y-55290000D02*
X71242621Y-58192621D01*
X78492621Y-58192621D02*
X79550000Y-59250000D01*
X68340000Y-52000000D02*
X68340000Y-55290000D01*
X71242621Y-58192621D02*
X74500000Y-58192621D01*
X77545000Y-58097621D02*
X77450000Y-58192621D01*
X74500000Y-58192621D02*
X77450000Y-58192621D01*
X77545000Y-53775000D02*
X77545000Y-58097621D01*
%TO.N,+5V*%
X93292621Y-58192621D02*
X93300000Y-58200000D01*
X82625000Y-53775000D02*
X82625000Y-58117621D01*
X96990000Y-100395000D02*
X147790000Y-100395000D01*
X82625000Y-58117621D02*
X82700000Y-58192621D01*
X84225000Y-52175000D02*
X82625000Y-53775000D01*
X91975000Y-52175000D02*
X84225000Y-52175000D01*
X81907379Y-58192621D02*
X80850000Y-59250000D01*
X86250000Y-58192621D02*
X82700000Y-58192621D01*
X82700000Y-58192621D02*
X81907379Y-58192621D01*
X86250000Y-58192621D02*
X93292621Y-58192621D01*
D28*
%TO.N,Net-(D1-K)*%
X75645000Y-67215000D02*
X77555000Y-69125000D01*
X70725000Y-67230000D02*
X73860000Y-67230000D01*
X73860000Y-67230000D02*
X73875000Y-67215000D01*
X73875000Y-67215000D02*
X75645000Y-67215000D01*
%TO.N,Net-(D1-A)*%
X77555000Y-71665000D02*
X74385000Y-74835000D01*
X57125000Y-73925000D02*
X59500000Y-76300000D01*
X57125000Y-65975000D02*
X57125000Y-73925000D01*
X74385000Y-74835000D02*
X73875000Y-74835000D01*
X58375000Y-64725000D02*
X57125000Y-65975000D01*
%TO.N,Net-(J1-PadR)*%
X59500000Y-86600000D02*
X60032740Y-86600000D01*
%TO.N,Net-(J1-PadT)*%
X65199100Y-86303820D02*
X69615877Y-86303820D01*
X72575000Y-89262943D02*
X72575000Y-91500000D01*
X72575000Y-91500000D02*
X71375000Y-92700000D01*
X69615877Y-86303820D02*
X72575000Y-89262943D01*
%TO.N,Net-(J2-PadR)*%
X59500000Y-66300000D02*
X61425000Y-66300000D01*
X59500000Y-66600000D02*
X60032740Y-66600000D01*
%TO.N,Net-(J10-Pin_6)*%
X107150000Y-64835000D02*
X106219594Y-64835000D01*
X106219594Y-64835000D02*
X83359594Y-87695000D01*
%TO.N,/RX*%
X84520000Y-74205000D02*
X81200000Y-77525000D01*
X85175000Y-74205000D02*
X88635000Y-74205000D01*
X73225000Y-95870000D02*
X75210000Y-97855000D01*
X85175000Y-74205000D02*
X84520000Y-74205000D01*
X73225000Y-80075000D02*
X73225000Y-95870000D01*
X81200000Y-77525000D02*
X75775000Y-77525000D01*
X88635000Y-74205000D02*
X89175000Y-74745000D01*
X75775000Y-77525000D02*
X73225000Y-80075000D01*
%TO.N,Net-(J10-Pin_8)*%
X86742538Y-82615000D02*
X104328769Y-65028769D01*
X104328769Y-62576231D02*
X107150000Y-59755000D01*
X104328769Y-65028769D02*
X104328769Y-62576231D01*
%TO.N,Net-(J10-Pin_9)*%
X88434010Y-80075000D02*
X103728769Y-64780241D01*
X103728769Y-64780241D02*
X103728769Y-60636231D01*
X103728769Y-60636231D02*
X107150000Y-57215000D01*
%TO.N,Net-(J10-Pin_5)*%
X104528122Y-67375000D02*
X107150000Y-67375000D01*
%TO.N,Net-(J11-Pin_4)*%
X96990000Y-85155000D02*
X107150000Y-85155000D01*
%TO.N,Net-(J11-Pin_6)*%
X96990000Y-80075000D02*
X107150000Y-80075000D01*
%TO.N,Net-(J11-Pin_1)*%
X96990000Y-92775000D02*
X107150000Y-92775000D01*
%TO.N,Net-(J11-Pin_5)*%
X96990000Y-82615000D02*
X107150000Y-82615000D01*
%TO.N,Net-(J11-Pin_3)*%
X96990000Y-87695000D02*
X107150000Y-87695000D01*
%TO.N,Net-(J11-Pin_2)*%
X96990000Y-90235000D02*
X107150000Y-90235000D01*
D29*
%TO.N,Net-(SW1-A)*%
X65800000Y-52000000D02*
X63092500Y-52000000D01*
X63092500Y-52000000D02*
X60200000Y-54892500D01*
%TD*%
%TA.AperFunction,Conductor*%
%TO.N,GND*%
G36*
X99904348Y-96135185D02*
G01*
X99938884Y-96168376D01*
X99951508Y-96186405D01*
X100118597Y-96353493D01*
X100118603Y-96353498D01*
X100304594Y-96483730D01*
X100348219Y-96538307D01*
X100355413Y-96607805D01*
X100323890Y-96670160D01*
X100304595Y-96686880D01*
X100118922Y-96816890D01*
X100118920Y-96816891D01*
X99951891Y-96983920D01*
X99951886Y-96983926D01*
X99816400Y-97177420D01*
X99816399Y-97177422D01*
X99716570Y-97391507D01*
X99716567Y-97391513D01*
X99659364Y-97604999D01*
X99659364Y-97605000D01*
X100556988Y-97605000D01*
X100524075Y-97662007D01*
X100490000Y-97789174D01*
X100490000Y-97920826D01*
X100524075Y-98047993D01*
X100556988Y-98105000D01*
X99659364Y-98105000D01*
X99716567Y-98318486D01*
X99716570Y-98318492D01*
X99816399Y-98532578D01*
X99951894Y-98726082D01*
X100073946Y-98848134D01*
X100107431Y-98909457D01*
X100102447Y-98979149D01*
X100060575Y-99035082D01*
X100029598Y-99051997D01*
X99897671Y-99101202D01*
X99897664Y-99101206D01*
X99782455Y-99187452D01*
X99782452Y-99187455D01*
X99696206Y-99302664D01*
X99696202Y-99302671D01*
X99645910Y-99437513D01*
X99645909Y-99437517D01*
X99640937Y-99483757D01*
X99614201Y-99548306D01*
X99556809Y-99588154D01*
X99517649Y-99594500D01*
X98462351Y-99594500D01*
X98395312Y-99574815D01*
X98349557Y-99522011D01*
X98339061Y-99483752D01*
X98334091Y-99437516D01*
X98283797Y-99302671D01*
X98283793Y-99302664D01*
X98197547Y-99187455D01*
X98197544Y-99187452D01*
X98082335Y-99101206D01*
X98082328Y-99101202D01*
X97950401Y-99051997D01*
X97894467Y-99010126D01*
X97870050Y-98944662D01*
X97884902Y-98876389D01*
X97906053Y-98848133D01*
X98028108Y-98726078D01*
X98163600Y-98532578D01*
X98263429Y-98318492D01*
X98263432Y-98318486D01*
X98320636Y-98105000D01*
X97423012Y-98105000D01*
X97455925Y-98047993D01*
X97490000Y-97920826D01*
X97490000Y-97789174D01*
X97455925Y-97662007D01*
X97423012Y-97605000D01*
X98320636Y-97605000D01*
X98320635Y-97604999D01*
X98263432Y-97391513D01*
X98263429Y-97391507D01*
X98163600Y-97177422D01*
X98163599Y-97177420D01*
X98028113Y-96983926D01*
X98028108Y-96983920D01*
X97861078Y-96816890D01*
X97675405Y-96686879D01*
X97631780Y-96632302D01*
X97624588Y-96562804D01*
X97656110Y-96500449D01*
X97675406Y-96483730D01*
X97814106Y-96386611D01*
X97861401Y-96353495D01*
X98028495Y-96186401D01*
X98041116Y-96168375D01*
X98095693Y-96124752D01*
X98142691Y-96115500D01*
X99837309Y-96115500D01*
X99904348Y-96135185D01*
G37*
%TD.AperFunction*%
%TA.AperFunction,Conductor*%
G36*
X108604348Y-96135185D02*
G01*
X108638884Y-96168376D01*
X108651508Y-96186405D01*
X108818597Y-96353493D01*
X108818603Y-96353498D01*
X109004594Y-96483730D01*
X109048219Y-96538307D01*
X109055413Y-96607805D01*
X109023890Y-96670160D01*
X109004595Y-96686880D01*
X108818922Y-96816890D01*
X108818920Y-96816891D01*
X108651891Y-96983920D01*
X108651886Y-96983926D01*
X108516400Y-97177420D01*
X108516399Y-97177422D01*
X108416570Y-97391507D01*
X108416567Y-97391513D01*
X108359364Y-97604999D01*
X108359364Y-97605000D01*
X109256988Y-97605000D01*
X109224075Y-97662007D01*
X109190000Y-97789174D01*
X109190000Y-97920826D01*
X109224075Y-98047993D01*
X109256988Y-98105000D01*
X108359364Y-98105000D01*
X108416567Y-98318486D01*
X108416570Y-98318492D01*
X108516399Y-98532578D01*
X108651894Y-98726082D01*
X108818917Y-98893105D01*
X109004595Y-99023119D01*
X109048219Y-99077696D01*
X109055412Y-99147195D01*
X109023890Y-99209549D01*
X109004595Y-99226269D01*
X108818594Y-99356508D01*
X108651508Y-99523594D01*
X108638884Y-99541624D01*
X108584307Y-99585248D01*
X108537309Y-99594500D01*
X102462351Y-99594500D01*
X102395312Y-99574815D01*
X102349557Y-99522011D01*
X102339061Y-99483752D01*
X102334091Y-99437516D01*
X102283797Y-99302671D01*
X102283793Y-99302664D01*
X102197547Y-99187455D01*
X102197544Y-99187452D01*
X102082335Y-99101206D01*
X102082328Y-99101202D01*
X101950401Y-99051997D01*
X101894467Y-99010126D01*
X101870050Y-98944662D01*
X101884902Y-98876389D01*
X101906053Y-98848133D01*
X102028108Y-98726078D01*
X102163600Y-98532578D01*
X102263429Y-98318492D01*
X102263432Y-98318486D01*
X102320636Y-98105000D01*
X101423012Y-98105000D01*
X101455925Y-98047993D01*
X101490000Y-97920826D01*
X101490000Y-97789174D01*
X101455925Y-97662007D01*
X101423012Y-97605000D01*
X102320636Y-97605000D01*
X102320635Y-97604999D01*
X102263432Y-97391513D01*
X102263429Y-97391507D01*
X102163600Y-97177422D01*
X102163599Y-97177420D01*
X102028113Y-96983926D01*
X102028108Y-96983920D01*
X101861078Y-96816890D01*
X101675405Y-96686879D01*
X101631780Y-96632302D01*
X101624588Y-96562804D01*
X101656110Y-96500449D01*
X101675406Y-96483730D01*
X101814106Y-96386611D01*
X101861401Y-96353495D01*
X102028495Y-96186401D01*
X102041116Y-96168375D01*
X102095693Y-96124752D01*
X102142691Y-96115500D01*
X108537309Y-96115500D01*
X108604348Y-96135185D01*
G37*
%TD.AperFunction*%
%TA.AperFunction,Conductor*%
G36*
X111764075Y-97662007D02*
G01*
X111730000Y-97789174D01*
X111730000Y-97920826D01*
X111764075Y-98047993D01*
X111796988Y-98105000D01*
X110123012Y-98105000D01*
X110155925Y-98047993D01*
X110190000Y-97920826D01*
X110190000Y-97789174D01*
X110155925Y-97662007D01*
X110123012Y-97605000D01*
X111796988Y-97605000D01*
X111764075Y-97662007D01*
G37*
%TD.AperFunction*%
%TA.AperFunction,Conductor*%
G36*
X114304075Y-97662007D02*
G01*
X114270000Y-97789174D01*
X114270000Y-97920826D01*
X114304075Y-98047993D01*
X114336988Y-98105000D01*
X112663012Y-98105000D01*
X112695925Y-98047993D01*
X112730000Y-97920826D01*
X112730000Y-97789174D01*
X112695925Y-97662007D01*
X112663012Y-97605000D01*
X114336988Y-97605000D01*
X114304075Y-97662007D01*
G37*
%TD.AperFunction*%
%TA.AperFunction,Conductor*%
G36*
X116844075Y-97662007D02*
G01*
X116810000Y-97789174D01*
X116810000Y-97920826D01*
X116844075Y-98047993D01*
X116876988Y-98105000D01*
X115203012Y-98105000D01*
X115235925Y-98047993D01*
X115270000Y-97920826D01*
X115270000Y-97789174D01*
X115235925Y-97662007D01*
X115203012Y-97605000D01*
X116876988Y-97605000D01*
X116844075Y-97662007D01*
G37*
%TD.AperFunction*%
%TA.AperFunction,Conductor*%
G36*
X119384075Y-97662007D02*
G01*
X119350000Y-97789174D01*
X119350000Y-97920826D01*
X119384075Y-98047993D01*
X119416988Y-98105000D01*
X117743012Y-98105000D01*
X117775925Y-98047993D01*
X117810000Y-97920826D01*
X117810000Y-97789174D01*
X117775925Y-97662007D01*
X117743012Y-97605000D01*
X119416988Y-97605000D01*
X119384075Y-97662007D01*
G37*
%TD.AperFunction*%
%TA.AperFunction,Conductor*%
G36*
X121924075Y-97662007D02*
G01*
X121890000Y-97789174D01*
X121890000Y-97920826D01*
X121924075Y-98047993D01*
X121956988Y-98105000D01*
X120283012Y-98105000D01*
X120315925Y-98047993D01*
X120350000Y-97920826D01*
X120350000Y-97789174D01*
X120315925Y-97662007D01*
X120283012Y-97605000D01*
X121956988Y-97605000D01*
X121924075Y-97662007D01*
G37*
%TD.AperFunction*%
%TA.AperFunction,Conductor*%
G36*
X124464075Y-97662007D02*
G01*
X124430000Y-97789174D01*
X124430000Y-97920826D01*
X124464075Y-98047993D01*
X124496988Y-98105000D01*
X122823012Y-98105000D01*
X122855925Y-98047993D01*
X122890000Y-97920826D01*
X122890000Y-97789174D01*
X122855925Y-97662007D01*
X122823012Y-97605000D01*
X124496988Y-97605000D01*
X124464075Y-97662007D01*
G37*
%TD.AperFunction*%
%TA.AperFunction,Conductor*%
G36*
X127004075Y-97662007D02*
G01*
X126970000Y-97789174D01*
X126970000Y-97920826D01*
X127004075Y-98047993D01*
X127036988Y-98105000D01*
X125363012Y-98105000D01*
X125395925Y-98047993D01*
X125430000Y-97920826D01*
X125430000Y-97789174D01*
X125395925Y-97662007D01*
X125363012Y-97605000D01*
X127036988Y-97605000D01*
X127004075Y-97662007D01*
G37*
%TD.AperFunction*%
%TA.AperFunction,Conductor*%
G36*
X129544075Y-97662007D02*
G01*
X129510000Y-97789174D01*
X129510000Y-97920826D01*
X129544075Y-98047993D01*
X129576988Y-98105000D01*
X127903012Y-98105000D01*
X127935925Y-98047993D01*
X127970000Y-97920826D01*
X127970000Y-97789174D01*
X127935925Y-97662007D01*
X127903012Y-97605000D01*
X129576988Y-97605000D01*
X129544075Y-97662007D01*
G37*
%TD.AperFunction*%
%TA.AperFunction,Conductor*%
G36*
X132084075Y-97662007D02*
G01*
X132050000Y-97789174D01*
X132050000Y-97920826D01*
X132084075Y-98047993D01*
X132116988Y-98105000D01*
X130443012Y-98105000D01*
X130475925Y-98047993D01*
X130510000Y-97920826D01*
X130510000Y-97789174D01*
X130475925Y-97662007D01*
X130443012Y-97605000D01*
X132116988Y-97605000D01*
X132084075Y-97662007D01*
G37*
%TD.AperFunction*%
%TA.AperFunction,Conductor*%
G36*
X134624075Y-97662007D02*
G01*
X134590000Y-97789174D01*
X134590000Y-97920826D01*
X134624075Y-98047993D01*
X134656988Y-98105000D01*
X132983012Y-98105000D01*
X133015925Y-98047993D01*
X133050000Y-97920826D01*
X133050000Y-97789174D01*
X133015925Y-97662007D01*
X132983012Y-97605000D01*
X134656988Y-97605000D01*
X134624075Y-97662007D01*
G37*
%TD.AperFunction*%
%TA.AperFunction,Conductor*%
G36*
X137164075Y-97662007D02*
G01*
X137130000Y-97789174D01*
X137130000Y-97920826D01*
X137164075Y-98047993D01*
X137196988Y-98105000D01*
X135523012Y-98105000D01*
X135555925Y-98047993D01*
X135590000Y-97920826D01*
X135590000Y-97789174D01*
X135555925Y-97662007D01*
X135523012Y-97605000D01*
X137196988Y-97605000D01*
X137164075Y-97662007D01*
G37*
%TD.AperFunction*%
%TA.AperFunction,Conductor*%
G36*
X139704075Y-97662007D02*
G01*
X139670000Y-97789174D01*
X139670000Y-97920826D01*
X139704075Y-98047993D01*
X139736988Y-98105000D01*
X138063012Y-98105000D01*
X138095925Y-98047993D01*
X138130000Y-97920826D01*
X138130000Y-97789174D01*
X138095925Y-97662007D01*
X138063012Y-97605000D01*
X139736988Y-97605000D01*
X139704075Y-97662007D01*
G37*
%TD.AperFunction*%
%TA.AperFunction,Conductor*%
G36*
X142244075Y-97662007D02*
G01*
X142210000Y-97789174D01*
X142210000Y-97920826D01*
X142244075Y-98047993D01*
X142276988Y-98105000D01*
X140603012Y-98105000D01*
X140635925Y-98047993D01*
X140670000Y-97920826D01*
X140670000Y-97789174D01*
X140635925Y-97662007D01*
X140603012Y-97605000D01*
X142276988Y-97605000D01*
X142244075Y-97662007D01*
G37*
%TD.AperFunction*%
%TA.AperFunction,Conductor*%
G36*
X144784075Y-97662007D02*
G01*
X144750000Y-97789174D01*
X144750000Y-97920826D01*
X144784075Y-98047993D01*
X144816988Y-98105000D01*
X143143012Y-98105000D01*
X143175925Y-98047993D01*
X143210000Y-97920826D01*
X143210000Y-97789174D01*
X143175925Y-97662007D01*
X143143012Y-97605000D01*
X144816988Y-97605000D01*
X144784075Y-97662007D01*
G37*
%TD.AperFunction*%
%TA.AperFunction,Conductor*%
G36*
X147324075Y-97662007D02*
G01*
X147290000Y-97789174D01*
X147290000Y-97920826D01*
X147324075Y-98047993D01*
X147356988Y-98105000D01*
X145683012Y-98105000D01*
X145715925Y-98047993D01*
X145750000Y-97920826D01*
X145750000Y-97789174D01*
X145715925Y-97662007D01*
X145683012Y-97605000D01*
X147356988Y-97605000D01*
X147324075Y-97662007D01*
G37*
%TD.AperFunction*%
%TA.AperFunction,Conductor*%
G36*
X84854920Y-71419394D02*
G01*
X84802259Y-71510606D01*
X84775000Y-71612339D01*
X84775000Y-71717661D01*
X84802259Y-71819394D01*
X84854920Y-71910606D01*
X84859314Y-71915000D01*
X83896128Y-71915000D01*
X83948730Y-72111317D01*
X83948734Y-72111326D01*
X84044865Y-72317482D01*
X84175342Y-72503820D01*
X84336179Y-72664657D01*
X84522518Y-72795134D01*
X84522520Y-72795135D01*
X84580865Y-72822342D01*
X84633305Y-72868514D01*
X84652457Y-72935707D01*
X84632242Y-73002589D01*
X84580867Y-73047105D01*
X84522268Y-73074431D01*
X84522264Y-73074433D01*
X84335858Y-73204954D01*
X84174954Y-73365858D01*
X84044432Y-73552265D01*
X84044431Y-73552267D01*
X83948261Y-73758503D01*
X83946764Y-73764089D01*
X83914672Y-73819669D01*
X80946162Y-76788181D01*
X80884839Y-76821666D01*
X80858481Y-76824500D01*
X78765519Y-76824500D01*
X78698480Y-76804815D01*
X78652725Y-76752011D01*
X78642781Y-76682853D01*
X78671806Y-76619297D01*
X78677838Y-76612819D01*
X79957795Y-75332862D01*
X83839338Y-71451317D01*
X83900659Y-71417834D01*
X83927017Y-71415000D01*
X84859314Y-71415000D01*
X84854920Y-71419394D01*
G37*
%TD.AperFunction*%
%TA.AperFunction,Conductor*%
G36*
X111764075Y-51942007D02*
G01*
X111730000Y-52069174D01*
X111730000Y-52200826D01*
X111764075Y-52327993D01*
X111796988Y-52385000D01*
X110123012Y-52385000D01*
X110155925Y-52327993D01*
X110190000Y-52200826D01*
X110190000Y-52069174D01*
X110155925Y-51942007D01*
X110123012Y-51885000D01*
X111796988Y-51885000D01*
X111764075Y-51942007D01*
G37*
%TD.AperFunction*%
%TA.AperFunction,Conductor*%
G36*
X114304075Y-51942007D02*
G01*
X114270000Y-52069174D01*
X114270000Y-52200826D01*
X114304075Y-52327993D01*
X114336988Y-52385000D01*
X112663012Y-52385000D01*
X112695925Y-52327993D01*
X112730000Y-52200826D01*
X112730000Y-52069174D01*
X112695925Y-51942007D01*
X112663012Y-51885000D01*
X114336988Y-51885000D01*
X114304075Y-51942007D01*
G37*
%TD.AperFunction*%
%TA.AperFunction,Conductor*%
G36*
X116844075Y-51942007D02*
G01*
X116810000Y-52069174D01*
X116810000Y-52200826D01*
X116844075Y-52327993D01*
X116876988Y-52385000D01*
X115203012Y-52385000D01*
X115235925Y-52327993D01*
X115270000Y-52200826D01*
X115270000Y-52069174D01*
X115235925Y-51942007D01*
X115203012Y-51885000D01*
X116876988Y-51885000D01*
X116844075Y-51942007D01*
G37*
%TD.AperFunction*%
%TA.AperFunction,Conductor*%
G36*
X119384075Y-51942007D02*
G01*
X119350000Y-52069174D01*
X119350000Y-52200826D01*
X119384075Y-52327993D01*
X119416988Y-52385000D01*
X117743012Y-52385000D01*
X117775925Y-52327993D01*
X117810000Y-52200826D01*
X117810000Y-52069174D01*
X117775925Y-51942007D01*
X117743012Y-51885000D01*
X119416988Y-51885000D01*
X119384075Y-51942007D01*
G37*
%TD.AperFunction*%
%TA.AperFunction,Conductor*%
G36*
X121924075Y-51942007D02*
G01*
X121890000Y-52069174D01*
X121890000Y-52200826D01*
X121924075Y-52327993D01*
X121956988Y-52385000D01*
X120283012Y-52385000D01*
X120315925Y-52327993D01*
X120350000Y-52200826D01*
X120350000Y-52069174D01*
X120315925Y-51942007D01*
X120283012Y-51885000D01*
X121956988Y-51885000D01*
X121924075Y-51942007D01*
G37*
%TD.AperFunction*%
%TA.AperFunction,Conductor*%
G36*
X124464075Y-51942007D02*
G01*
X124430000Y-52069174D01*
X124430000Y-52200826D01*
X124464075Y-52327993D01*
X124496988Y-52385000D01*
X122823012Y-52385000D01*
X122855925Y-52327993D01*
X122890000Y-52200826D01*
X122890000Y-52069174D01*
X122855925Y-51942007D01*
X122823012Y-51885000D01*
X124496988Y-51885000D01*
X124464075Y-51942007D01*
G37*
%TD.AperFunction*%
%TA.AperFunction,Conductor*%
G36*
X127004075Y-51942007D02*
G01*
X126970000Y-52069174D01*
X126970000Y-52200826D01*
X127004075Y-52327993D01*
X127036988Y-52385000D01*
X125363012Y-52385000D01*
X125395925Y-52327993D01*
X125430000Y-52200826D01*
X125430000Y-52069174D01*
X125395925Y-51942007D01*
X125363012Y-51885000D01*
X127036988Y-51885000D01*
X127004075Y-51942007D01*
G37*
%TD.AperFunction*%
%TA.AperFunction,Conductor*%
G36*
X129544075Y-51942007D02*
G01*
X129510000Y-52069174D01*
X129510000Y-52200826D01*
X129544075Y-52327993D01*
X129576988Y-52385000D01*
X127903012Y-52385000D01*
X127935925Y-52327993D01*
X127970000Y-52200826D01*
X127970000Y-52069174D01*
X127935925Y-51942007D01*
X127903012Y-51885000D01*
X129576988Y-51885000D01*
X129544075Y-51942007D01*
G37*
%TD.AperFunction*%
%TA.AperFunction,Conductor*%
G36*
X132084075Y-51942007D02*
G01*
X132050000Y-52069174D01*
X132050000Y-52200826D01*
X132084075Y-52327993D01*
X132116988Y-52385000D01*
X130443012Y-52385000D01*
X130475925Y-52327993D01*
X130510000Y-52200826D01*
X130510000Y-52069174D01*
X130475925Y-51942007D01*
X130443012Y-51885000D01*
X132116988Y-51885000D01*
X132084075Y-51942007D01*
G37*
%TD.AperFunction*%
%TA.AperFunction,Conductor*%
G36*
X134624075Y-51942007D02*
G01*
X134590000Y-52069174D01*
X134590000Y-52200826D01*
X134624075Y-52327993D01*
X134656988Y-52385000D01*
X132983012Y-52385000D01*
X133015925Y-52327993D01*
X133050000Y-52200826D01*
X133050000Y-52069174D01*
X133015925Y-51942007D01*
X132983012Y-51885000D01*
X134656988Y-51885000D01*
X134624075Y-51942007D01*
G37*
%TD.AperFunction*%
%TA.AperFunction,Conductor*%
G36*
X137164075Y-51942007D02*
G01*
X137130000Y-52069174D01*
X137130000Y-52200826D01*
X137164075Y-52327993D01*
X137196988Y-52385000D01*
X135523012Y-52385000D01*
X135555925Y-52327993D01*
X135590000Y-52200826D01*
X135590000Y-52069174D01*
X135555925Y-51942007D01*
X135523012Y-51885000D01*
X137196988Y-51885000D01*
X137164075Y-51942007D01*
G37*
%TD.AperFunction*%
%TA.AperFunction,Conductor*%
G36*
X139704075Y-51942007D02*
G01*
X139670000Y-52069174D01*
X139670000Y-52200826D01*
X139704075Y-52327993D01*
X139736988Y-52385000D01*
X138063012Y-52385000D01*
X138095925Y-52327993D01*
X138130000Y-52200826D01*
X138130000Y-52069174D01*
X138095925Y-51942007D01*
X138063012Y-51885000D01*
X139736988Y-51885000D01*
X139704075Y-51942007D01*
G37*
%TD.AperFunction*%
%TA.AperFunction,Conductor*%
G36*
X142244075Y-51942007D02*
G01*
X142210000Y-52069174D01*
X142210000Y-52200826D01*
X142244075Y-52327993D01*
X142276988Y-52385000D01*
X140603012Y-52385000D01*
X140635925Y-52327993D01*
X140670000Y-52200826D01*
X140670000Y-52069174D01*
X140635925Y-51942007D01*
X140603012Y-51885000D01*
X142276988Y-51885000D01*
X142244075Y-51942007D01*
G37*
%TD.AperFunction*%
%TA.AperFunction,Conductor*%
G36*
X144784075Y-51942007D02*
G01*
X144750000Y-52069174D01*
X144750000Y-52200826D01*
X144784075Y-52327993D01*
X144816988Y-52385000D01*
X143143012Y-52385000D01*
X143175925Y-52327993D01*
X143210000Y-52200826D01*
X143210000Y-52069174D01*
X143175925Y-51942007D01*
X143143012Y-51885000D01*
X144816988Y-51885000D01*
X144784075Y-51942007D01*
G37*
%TD.AperFunction*%
%TA.AperFunction,Conductor*%
G36*
X147324075Y-51942007D02*
G01*
X147290000Y-52069174D01*
X147290000Y-52200826D01*
X147324075Y-52327993D01*
X147356988Y-52385000D01*
X145683012Y-52385000D01*
X145715925Y-52327993D01*
X145750000Y-52200826D01*
X145750000Y-52069174D01*
X145715925Y-51942007D01*
X145683012Y-51885000D01*
X147356988Y-51885000D01*
X147324075Y-51942007D01*
G37*
%TD.AperFunction*%
%TA.AperFunction,Conductor*%
G36*
X64676936Y-50520185D02*
G01*
X64722691Y-50572989D01*
X64732635Y-50642147D01*
X64703610Y-50705703D01*
X64684208Y-50723766D01*
X64592455Y-50792452D01*
X64592452Y-50792455D01*
X64506206Y-50907664D01*
X64506202Y-50907671D01*
X64455910Y-51042513D01*
X64455909Y-51042517D01*
X64450937Y-51088757D01*
X64424201Y-51153306D01*
X64366809Y-51193154D01*
X64327649Y-51199500D01*
X63013653Y-51199500D01*
X62859010Y-51230260D01*
X62859002Y-51230262D01*
X62713324Y-51290604D01*
X62713314Y-51290609D01*
X62582211Y-51378210D01*
X62582207Y-51378213D01*
X61354739Y-52605681D01*
X61293416Y-52639166D01*
X61267058Y-52642000D01*
X58402129Y-52642000D01*
X58402123Y-52642001D01*
X58342516Y-52648408D01*
X58207671Y-52698702D01*
X58207664Y-52698706D01*
X58092455Y-52784952D01*
X58092452Y-52784955D01*
X58006206Y-52900164D01*
X58006202Y-52900171D01*
X57955908Y-53035017D01*
X57949501Y-53094616D01*
X57949500Y-53094635D01*
X57949500Y-56690370D01*
X57949501Y-56690376D01*
X57955908Y-56749983D01*
X58006202Y-56884828D01*
X58006206Y-56884835D01*
X58092452Y-57000044D01*
X58092455Y-57000047D01*
X58207664Y-57086293D01*
X58207673Y-57086298D01*
X58254937Y-57103926D01*
X58310871Y-57145796D01*
X58335289Y-57211260D01*
X58320438Y-57279533D01*
X58271033Y-57328939D01*
X58205028Y-57343933D01*
X58168657Y-57342001D01*
X58168628Y-57342000D01*
X58168622Y-57342000D01*
X56231378Y-57342000D01*
X56231370Y-57342000D01*
X56231347Y-57342001D01*
X56178756Y-57344795D01*
X56178755Y-57344795D01*
X55948878Y-57389254D01*
X55948876Y-57389254D01*
X55948874Y-57389255D01*
X55874933Y-57417159D01*
X55729810Y-57471925D01*
X55527868Y-57590429D01*
X55527861Y-57590434D01*
X55348858Y-57741356D01*
X55348856Y-57741358D01*
X55197934Y-57920361D01*
X55197929Y-57920368D01*
X55079425Y-58122310D01*
X55029920Y-58253493D01*
X54996755Y-58341374D01*
X54996754Y-58341376D01*
X54996754Y-58341378D01*
X54952295Y-58571255D01*
X54952295Y-58571256D01*
X54949501Y-58623847D01*
X54949500Y-58623886D01*
X54949500Y-60561113D01*
X54949501Y-60561144D01*
X54952295Y-60613743D01*
X54952295Y-60613744D01*
X54987060Y-60793498D01*
X54996755Y-60843626D01*
X55025283Y-60919220D01*
X55079425Y-61062689D01*
X55197929Y-61264631D01*
X55197934Y-61264638D01*
X55348856Y-61443641D01*
X55348858Y-61443643D01*
X55527861Y-61594565D01*
X55527868Y-61594570D01*
X55729810Y-61713074D01*
X55948874Y-61795745D01*
X56178759Y-61840205D01*
X56231378Y-61843000D01*
X56231386Y-61843000D01*
X58168614Y-61843000D01*
X58168622Y-61843000D01*
X58221241Y-61840205D01*
X58451126Y-61795745D01*
X58670190Y-61713074D01*
X58872132Y-61594570D01*
X59051142Y-61443642D01*
X59068043Y-61423597D01*
X59202065Y-61264638D01*
X59202065Y-61264637D01*
X59202070Y-61264632D01*
X59320574Y-61062690D01*
X59403245Y-60843626D01*
X59447705Y-60613741D01*
X59450500Y-60561122D01*
X59450500Y-58623878D01*
X59447705Y-58571259D01*
X59403245Y-58341374D01*
X59320574Y-58122310D01*
X59202070Y-57920368D01*
X59202065Y-57920361D01*
X59051143Y-57741358D01*
X59051141Y-57741356D01*
X58872138Y-57590434D01*
X58872131Y-57590429D01*
X58670189Y-57471925D01*
X58572513Y-57435064D01*
X58451126Y-57389255D01*
X58451121Y-57389254D01*
X58451116Y-57389252D01*
X58448470Y-57388740D01*
X58447451Y-57388213D01*
X58446050Y-57387817D01*
X58446130Y-57387531D01*
X58386392Y-57356677D01*
X58351503Y-57296141D01*
X58354881Y-57226353D01*
X58395452Y-57169470D01*
X58460337Y-57143552D01*
X58472009Y-57142999D01*
X61997872Y-57142999D01*
X62057483Y-57136591D01*
X62192331Y-57086296D01*
X62307546Y-57000046D01*
X62393796Y-56884831D01*
X62444091Y-56749983D01*
X62450500Y-56690373D01*
X62450499Y-53825439D01*
X62470184Y-53758401D01*
X62486818Y-53737759D01*
X63387759Y-52836819D01*
X63449082Y-52803334D01*
X63475440Y-52800500D01*
X64327649Y-52800500D01*
X64394688Y-52820185D01*
X64440443Y-52872989D01*
X64450939Y-52911248D01*
X64455908Y-52957483D01*
X64506202Y-53092328D01*
X64506206Y-53092335D01*
X64592452Y-53207544D01*
X64592455Y-53207547D01*
X64707664Y-53293793D01*
X64707671Y-53293797D01*
X64842517Y-53344091D01*
X64842516Y-53344091D01*
X64849444Y-53344835D01*
X64902127Y-53350500D01*
X66697872Y-53350499D01*
X66757483Y-53344091D01*
X66892331Y-53293796D01*
X67007546Y-53207546D01*
X67093796Y-53092331D01*
X67142810Y-52960916D01*
X67184681Y-52904984D01*
X67250145Y-52880566D01*
X67318418Y-52895417D01*
X67346670Y-52916566D01*
X67468599Y-53038495D01*
X67486622Y-53051115D01*
X67530247Y-53105689D01*
X67539500Y-53152690D01*
X67539500Y-55368846D01*
X67570261Y-55523489D01*
X67570264Y-55523501D01*
X67630602Y-55669172D01*
X67630609Y-55669185D01*
X67718210Y-55800288D01*
X67718213Y-55800292D01*
X70620832Y-58702910D01*
X70732332Y-58814410D01*
X70732333Y-58814411D01*
X70863435Y-58902011D01*
X70863448Y-58902018D01*
X71009119Y-58962356D01*
X71009124Y-58962358D01*
X71163774Y-58993120D01*
X71163777Y-58993121D01*
X71163779Y-58993121D01*
X73083023Y-58993121D01*
X73150062Y-59012806D01*
X73195817Y-59065610D01*
X73203266Y-59092755D01*
X73204124Y-59092553D01*
X73205907Y-59100100D01*
X73256202Y-59234949D01*
X73256206Y-59234956D01*
X73342452Y-59350165D01*
X73342455Y-59350168D01*
X73457664Y-59436414D01*
X73457671Y-59436418D01*
X73502618Y-59453182D01*
X73592517Y-59486712D01*
X73652127Y-59493121D01*
X73652153Y-59493120D01*
X73655453Y-59493299D01*
X73655372Y-59494804D01*
X73716672Y-59512733D01*
X73762483Y-59565488D01*
X73770016Y-59609085D01*
X74453553Y-60292621D01*
X74447339Y-60292621D01*
X74345606Y-60319880D01*
X74254394Y-60372541D01*
X74179920Y-60447015D01*
X74127259Y-60538227D01*
X74100000Y-60639960D01*
X74100000Y-60646173D01*
X73420974Y-59967147D01*
X73420973Y-59967147D01*
X73369868Y-60040133D01*
X73369866Y-60040137D01*
X73273734Y-60246294D01*
X73273730Y-60246303D01*
X73214860Y-60466010D01*
X73214858Y-60466021D01*
X73195034Y-60692618D01*
X73195034Y-60692623D01*
X73214858Y-60919220D01*
X73214860Y-60919231D01*
X73273730Y-61138938D01*
X73273735Y-61138952D01*
X73369863Y-61345099D01*
X73420974Y-61418093D01*
X74100000Y-60739067D01*
X74100000Y-60745282D01*
X74127259Y-60847015D01*
X74179920Y-60938227D01*
X74254394Y-61012701D01*
X74345606Y-61065362D01*
X74447339Y-61092621D01*
X74453553Y-61092621D01*
X73774526Y-61771646D01*
X73847513Y-61822753D01*
X73847521Y-61822757D01*
X74053668Y-61918885D01*
X74053682Y-61918890D01*
X74273389Y-61977760D01*
X74273400Y-61977762D01*
X74499998Y-61997587D01*
X74500002Y-61997587D01*
X74726599Y-61977762D01*
X74726610Y-61977760D01*
X74946317Y-61918890D01*
X74946331Y-61918885D01*
X75152478Y-61822757D01*
X75225471Y-61771645D01*
X74546447Y-61092621D01*
X74552661Y-61092621D01*
X74654394Y-61065362D01*
X74745606Y-61012701D01*
X74820080Y-60938227D01*
X74872741Y-60847015D01*
X74900000Y-60745282D01*
X74900000Y-60739068D01*
X75579024Y-61418092D01*
X75630136Y-61345099D01*
X75726264Y-61138952D01*
X75726269Y-61138938D01*
X75785139Y-60919231D01*
X75785141Y-60919220D01*
X75804966Y-60692623D01*
X75804966Y-60692618D01*
X75785141Y-60466021D01*
X75785139Y-60466010D01*
X75726269Y-60246303D01*
X75726264Y-60246289D01*
X75630136Y-60040142D01*
X75630132Y-60040134D01*
X75579025Y-59967147D01*
X74900000Y-60646172D01*
X74900000Y-60639960D01*
X74872741Y-60538227D01*
X74820080Y-60447015D01*
X74745606Y-60372541D01*
X74654394Y-60319880D01*
X74552661Y-60292621D01*
X74546445Y-60292621D01*
X75230646Y-59608421D01*
X75240492Y-59559428D01*
X75289107Y-59509245D01*
X75344633Y-59494602D01*
X75344576Y-59493521D01*
X75344571Y-59493475D01*
X75344573Y-59493474D01*
X75344564Y-59493297D01*
X75347857Y-59493120D01*
X75347872Y-59493120D01*
X75407483Y-59486712D01*
X75542331Y-59436417D01*
X75657546Y-59350167D01*
X75743796Y-59234952D01*
X75794091Y-59100104D01*
X75794091Y-59100102D01*
X75795874Y-59092559D01*
X75798146Y-59093095D01*
X75820429Y-59039309D01*
X75877823Y-58999464D01*
X75916976Y-58993121D01*
X77371158Y-58993121D01*
X77528842Y-58993121D01*
X78109681Y-58993121D01*
X78176720Y-59012806D01*
X78197362Y-59029440D01*
X78513181Y-59345259D01*
X78546666Y-59406582D01*
X78549500Y-59432940D01*
X78549500Y-60047870D01*
X78549501Y-60047876D01*
X78555908Y-60107483D01*
X78606202Y-60242328D01*
X78606206Y-60242335D01*
X78692452Y-60357544D01*
X78692455Y-60357547D01*
X78807664Y-60443793D01*
X78807671Y-60443797D01*
X78942517Y-60494091D01*
X78942516Y-60494091D01*
X78949444Y-60494835D01*
X79002127Y-60500500D01*
X80097872Y-60500499D01*
X80157483Y-60494091D01*
X80157485Y-60494090D01*
X80157487Y-60494090D01*
X80165031Y-60492308D01*
X80165377Y-60493775D01*
X80226342Y-60489408D01*
X80241378Y-60493822D01*
X80242513Y-60494089D01*
X80242517Y-60494091D01*
X80302127Y-60500500D01*
X81397872Y-60500499D01*
X81457483Y-60494091D01*
X81592331Y-60443796D01*
X81707546Y-60357546D01*
X81793796Y-60242331D01*
X81844091Y-60107483D01*
X81850500Y-60047873D01*
X81850499Y-59432939D01*
X81870183Y-59365901D01*
X81886818Y-59345259D01*
X82202638Y-59029440D01*
X82263961Y-58995955D01*
X82290319Y-58993121D01*
X82621158Y-58993121D01*
X84833023Y-58993121D01*
X84900062Y-59012806D01*
X84945817Y-59065610D01*
X84953266Y-59092755D01*
X84954124Y-59092553D01*
X84955907Y-59100100D01*
X85006202Y-59234949D01*
X85006206Y-59234956D01*
X85092452Y-59350165D01*
X85092455Y-59350168D01*
X85207664Y-59436414D01*
X85207671Y-59436418D01*
X85252618Y-59453182D01*
X85342517Y-59486712D01*
X85402127Y-59493121D01*
X85402153Y-59493120D01*
X85405453Y-59493299D01*
X85405372Y-59494804D01*
X85466672Y-59512733D01*
X85512483Y-59565488D01*
X85520016Y-59609085D01*
X86203553Y-60292621D01*
X86197339Y-60292621D01*
X86095606Y-60319880D01*
X86004394Y-60372541D01*
X85929920Y-60447015D01*
X85877259Y-60538227D01*
X85850000Y-60639960D01*
X85850000Y-60646173D01*
X85170974Y-59967147D01*
X85170973Y-59967147D01*
X85119868Y-60040133D01*
X85119866Y-60040137D01*
X85023734Y-60246294D01*
X85023730Y-60246303D01*
X84964860Y-60466010D01*
X84964858Y-60466021D01*
X84945034Y-60692618D01*
X84945034Y-60692623D01*
X84964858Y-60919220D01*
X84964860Y-60919231D01*
X85023730Y-61138938D01*
X85023735Y-61138952D01*
X85119863Y-61345099D01*
X85170974Y-61418093D01*
X85850000Y-60739067D01*
X85850000Y-60745282D01*
X85877259Y-60847015D01*
X85929920Y-60938227D01*
X86004394Y-61012701D01*
X86095606Y-61065362D01*
X86197339Y-61092621D01*
X86203553Y-61092621D01*
X85524526Y-61771646D01*
X85597513Y-61822753D01*
X85597521Y-61822757D01*
X85803668Y-61918885D01*
X85803682Y-61918890D01*
X86023389Y-61977760D01*
X86023400Y-61977762D01*
X86249998Y-61997587D01*
X86250002Y-61997587D01*
X86476599Y-61977762D01*
X86476610Y-61977760D01*
X86696317Y-61918890D01*
X86696331Y-61918885D01*
X86902478Y-61822757D01*
X86975471Y-61771645D01*
X86296447Y-61092621D01*
X86302661Y-61092621D01*
X86404394Y-61065362D01*
X86495606Y-61012701D01*
X86570080Y-60938227D01*
X86622741Y-60847015D01*
X86650000Y-60745282D01*
X86650000Y-60739068D01*
X87329024Y-61418092D01*
X87380136Y-61345099D01*
X87476264Y-61138952D01*
X87476269Y-61138938D01*
X87535139Y-60919231D01*
X87535141Y-60919220D01*
X87554966Y-60692623D01*
X87554966Y-60692618D01*
X87535141Y-60466021D01*
X87535139Y-60466010D01*
X87476269Y-60246303D01*
X87476264Y-60246289D01*
X87380136Y-60040142D01*
X87380132Y-60040134D01*
X87329025Y-59967147D01*
X86650000Y-60646172D01*
X86650000Y-60639960D01*
X86622741Y-60538227D01*
X86570080Y-60447015D01*
X86495606Y-60372541D01*
X86404394Y-60319880D01*
X86302661Y-60292621D01*
X86296445Y-60292621D01*
X86980646Y-59608421D01*
X86990492Y-59559428D01*
X87039107Y-59509245D01*
X87094633Y-59494602D01*
X87094576Y-59493521D01*
X87094571Y-59493475D01*
X87094573Y-59493474D01*
X87094564Y-59493297D01*
X87097857Y-59493120D01*
X87097872Y-59493120D01*
X87157483Y-59486712D01*
X87292331Y-59436417D01*
X87407546Y-59350167D01*
X87493796Y-59234952D01*
X87544091Y-59100104D01*
X87544091Y-59100102D01*
X87545874Y-59092559D01*
X87548146Y-59093095D01*
X87570429Y-59039309D01*
X87627823Y-58999464D01*
X87666976Y-58993121D01*
X92203517Y-58993121D01*
X92270556Y-59012806D01*
X92296119Y-59035315D01*
X92296124Y-59035311D01*
X92296190Y-59035377D01*
X92298509Y-59037419D01*
X92299952Y-59039139D01*
X92460858Y-59200045D01*
X92460861Y-59200047D01*
X92647266Y-59330568D01*
X92853504Y-59426739D01*
X92853509Y-59426740D01*
X92853511Y-59426741D01*
X92889612Y-59436414D01*
X93073308Y-59485635D01*
X93235230Y-59499801D01*
X93299998Y-59505468D01*
X93300000Y-59505468D01*
X93300002Y-59505468D01*
X93356673Y-59500509D01*
X93526692Y-59485635D01*
X93746496Y-59426739D01*
X93952734Y-59330568D01*
X94139139Y-59200047D01*
X94300047Y-59039139D01*
X94430568Y-58852734D01*
X94526739Y-58646496D01*
X94585635Y-58426692D01*
X94605468Y-58200000D01*
X94585635Y-57973308D01*
X94526739Y-57753504D01*
X94430568Y-57547266D01*
X94300047Y-57360861D01*
X94300045Y-57360858D01*
X94139141Y-57199954D01*
X93952734Y-57069432D01*
X93952732Y-57069431D01*
X93746497Y-56973261D01*
X93746488Y-56973258D01*
X93526697Y-56914366D01*
X93526693Y-56914365D01*
X93526692Y-56914365D01*
X93526691Y-56914364D01*
X93526686Y-56914364D01*
X93300002Y-56894532D01*
X93299998Y-56894532D01*
X93073313Y-56914364D01*
X93073302Y-56914366D01*
X92853511Y-56973258D01*
X92853502Y-56973261D01*
X92647267Y-57069431D01*
X92647265Y-57069432D01*
X92460858Y-57199954D01*
X92305011Y-57355802D01*
X92243688Y-57389287D01*
X92217330Y-57392121D01*
X87666977Y-57392121D01*
X87599938Y-57372436D01*
X87554183Y-57319632D01*
X87546733Y-57292486D01*
X87545876Y-57292689D01*
X87544092Y-57285141D01*
X87493797Y-57150292D01*
X87493793Y-57150285D01*
X87407547Y-57035076D01*
X87407544Y-57035073D01*
X87292335Y-56948827D01*
X87292328Y-56948823D01*
X87157482Y-56898529D01*
X87157483Y-56898529D01*
X87097883Y-56892122D01*
X87097881Y-56892121D01*
X87097873Y-56892121D01*
X87097864Y-56892121D01*
X85402129Y-56892121D01*
X85402123Y-56892122D01*
X85342516Y-56898529D01*
X85207671Y-56948823D01*
X85207664Y-56948827D01*
X85092455Y-57035073D01*
X85092452Y-57035076D01*
X85006206Y-57150285D01*
X85006202Y-57150292D01*
X84955908Y-57285138D01*
X84954126Y-57292683D01*
X84951853Y-57292146D01*
X84929571Y-57345933D01*
X84872177Y-57385778D01*
X84833024Y-57392121D01*
X83549500Y-57392121D01*
X83482461Y-57372436D01*
X83436706Y-57319632D01*
X83425500Y-57268121D01*
X83425500Y-55100089D01*
X83445185Y-55033050D01*
X83476609Y-54999775D01*
X83571566Y-54930786D01*
X83733286Y-54769066D01*
X83867717Y-54584038D01*
X83971548Y-54380258D01*
X84025208Y-54215110D01*
X84042221Y-54162749D01*
X84042221Y-54162748D01*
X84042222Y-54162745D01*
X84078000Y-53936854D01*
X84078000Y-53613146D01*
X84066134Y-53538229D01*
X84075088Y-53468937D01*
X84100926Y-53431151D01*
X84307078Y-53225000D01*
X84520259Y-53011819D01*
X84581582Y-52978334D01*
X84607940Y-52975500D01*
X90502649Y-52975500D01*
X90569688Y-52995185D01*
X90615443Y-53047989D01*
X90625939Y-53086248D01*
X90630908Y-53132483D01*
X90681202Y-53267328D01*
X90681206Y-53267335D01*
X90767452Y-53382544D01*
X90767455Y-53382547D01*
X90882664Y-53468793D01*
X90882671Y-53468797D01*
X91017517Y-53519091D01*
X91017516Y-53519091D01*
X91024444Y-53519835D01*
X91077127Y-53525500D01*
X92872872Y-53525499D01*
X92932483Y-53519091D01*
X93067331Y-53468796D01*
X93182546Y-53382546D01*
X93268796Y-53267331D01*
X93318002Y-53135401D01*
X93359872Y-53079468D01*
X93425337Y-53055050D01*
X93493610Y-53069901D01*
X93521865Y-53091053D01*
X93643917Y-53213105D01*
X93837421Y-53348600D01*
X94051507Y-53448429D01*
X94051516Y-53448433D01*
X94265000Y-53505634D01*
X94265000Y-52608012D01*
X94322007Y-52640925D01*
X94449174Y-52675000D01*
X94580826Y-52675000D01*
X94707993Y-52640925D01*
X94765000Y-52608012D01*
X94765000Y-53505633D01*
X94978483Y-53448433D01*
X94978492Y-53448429D01*
X95192578Y-53348600D01*
X95386082Y-53213105D01*
X95553105Y-53046082D01*
X95688600Y-52852578D01*
X95788429Y-52638492D01*
X95788432Y-52638486D01*
X95845636Y-52425000D01*
X94948012Y-52425000D01*
X94980925Y-52367993D01*
X95015000Y-52240826D01*
X95015000Y-52109174D01*
X94980925Y-51982007D01*
X94948012Y-51925000D01*
X95845636Y-51925000D01*
X95845635Y-51924999D01*
X95788432Y-51711513D01*
X95788429Y-51711507D01*
X95688600Y-51497422D01*
X95688599Y-51497420D01*
X95553113Y-51303926D01*
X95553108Y-51303920D01*
X95386082Y-51136894D01*
X95192578Y-51001399D01*
X94978492Y-50901570D01*
X94978486Y-50901567D01*
X94765000Y-50844364D01*
X94765000Y-51741988D01*
X94707993Y-51709075D01*
X94580826Y-51675000D01*
X94449174Y-51675000D01*
X94322007Y-51709075D01*
X94265000Y-51741988D01*
X94265000Y-50844364D01*
X94264999Y-50844364D01*
X94051513Y-50901567D01*
X94051507Y-50901570D01*
X93837422Y-51001399D01*
X93837420Y-51001400D01*
X93643926Y-51136886D01*
X93521865Y-51258947D01*
X93460542Y-51292431D01*
X93390850Y-51287447D01*
X93334917Y-51245575D01*
X93318002Y-51214598D01*
X93268797Y-51082671D01*
X93268793Y-51082664D01*
X93182547Y-50967455D01*
X93182544Y-50967452D01*
X93067335Y-50881206D01*
X93067328Y-50881202D01*
X92932482Y-50830908D01*
X92932483Y-50830908D01*
X92872883Y-50824501D01*
X92872881Y-50824500D01*
X92872873Y-50824500D01*
X92872864Y-50824500D01*
X91077129Y-50824500D01*
X91077123Y-50824501D01*
X91017516Y-50830908D01*
X90882671Y-50881202D01*
X90882664Y-50881206D01*
X90767455Y-50967452D01*
X90767452Y-50967455D01*
X90681206Y-51082664D01*
X90681202Y-51082671D01*
X90630910Y-51217513D01*
X90630909Y-51217517D01*
X90625937Y-51263757D01*
X90599201Y-51328306D01*
X90541809Y-51368154D01*
X90502649Y-51374500D01*
X84146153Y-51374500D01*
X83991510Y-51405260D01*
X83991502Y-51405262D01*
X83845824Y-51465604D01*
X83845814Y-51465609D01*
X83714711Y-51553210D01*
X83714707Y-51553213D01*
X83003358Y-52264562D01*
X82942035Y-52298047D01*
X82896279Y-52299354D01*
X82739359Y-52274500D01*
X82739354Y-52274500D01*
X82510646Y-52274500D01*
X82470188Y-52280908D01*
X82284753Y-52310278D01*
X82284750Y-52310278D01*
X82067244Y-52380950D01*
X81863461Y-52484783D01*
X81797550Y-52532671D01*
X81678434Y-52619214D01*
X81678432Y-52619216D01*
X81678431Y-52619216D01*
X81516716Y-52780931D01*
X81516709Y-52780940D01*
X81455007Y-52865864D01*
X81399677Y-52908530D01*
X81330063Y-52914508D01*
X81268269Y-52881901D01*
X81254372Y-52865863D01*
X81192907Y-52781263D01*
X81192902Y-52781257D01*
X81031242Y-52619597D01*
X80846276Y-52485211D01*
X80642568Y-52381417D01*
X80425124Y-52310765D01*
X80335000Y-52296490D01*
X80335000Y-53284252D01*
X80297292Y-53262482D01*
X80157409Y-53225000D01*
X80012591Y-53225000D01*
X79872708Y-53262482D01*
X79835000Y-53284252D01*
X79835000Y-52296490D01*
X79834999Y-52296490D01*
X79744875Y-52310765D01*
X79527431Y-52381417D01*
X79323719Y-52485213D01*
X79140939Y-52618010D01*
X79075132Y-52641490D01*
X79007079Y-52625664D01*
X78958384Y-52575558D01*
X78951875Y-52561033D01*
X78941296Y-52532669D01*
X78941295Y-52532667D01*
X78941293Y-52532664D01*
X78855047Y-52417455D01*
X78855044Y-52417452D01*
X78739835Y-52331206D01*
X78739828Y-52331202D01*
X78604982Y-52280908D01*
X78604983Y-52280908D01*
X78545383Y-52274501D01*
X78545381Y-52274500D01*
X78545373Y-52274500D01*
X78545364Y-52274500D01*
X76544629Y-52274500D01*
X76544623Y-52274501D01*
X76485016Y-52280908D01*
X76350171Y-52331202D01*
X76350164Y-52331206D01*
X76234955Y-52417452D01*
X76234952Y-52417455D01*
X76148706Y-52532664D01*
X76148702Y-52532671D01*
X76098408Y-52667517D01*
X76092001Y-52727116D01*
X76092000Y-52727135D01*
X76092000Y-54822870D01*
X76092001Y-54822876D01*
X76098408Y-54882483D01*
X76148702Y-55017328D01*
X76148706Y-55017335D01*
X76234952Y-55132544D01*
X76234955Y-55132547D01*
X76350164Y-55218793D01*
X76350171Y-55218797D01*
X76395118Y-55235561D01*
X76485017Y-55269091D01*
X76544627Y-55275500D01*
X76620500Y-55275499D01*
X76687538Y-55295183D01*
X76733294Y-55347986D01*
X76744500Y-55399499D01*
X76744500Y-57268121D01*
X76724815Y-57335160D01*
X76672011Y-57380915D01*
X76620500Y-57392121D01*
X75916977Y-57392121D01*
X75849938Y-57372436D01*
X75804183Y-57319632D01*
X75796733Y-57292486D01*
X75795876Y-57292689D01*
X75794092Y-57285141D01*
X75743797Y-57150292D01*
X75743793Y-57150285D01*
X75657547Y-57035076D01*
X75657544Y-57035073D01*
X75542335Y-56948827D01*
X75542328Y-56948823D01*
X75407482Y-56898529D01*
X75407483Y-56898529D01*
X75347883Y-56892122D01*
X75347881Y-56892121D01*
X75347873Y-56892121D01*
X75347864Y-56892121D01*
X73652129Y-56892121D01*
X73652123Y-56892122D01*
X73592516Y-56898529D01*
X73457671Y-56948823D01*
X73457664Y-56948827D01*
X73342455Y-57035073D01*
X73342452Y-57035076D01*
X73256206Y-57150285D01*
X73256202Y-57150292D01*
X73205908Y-57285138D01*
X73204126Y-57292683D01*
X73201853Y-57292146D01*
X73179571Y-57345933D01*
X73122177Y-57385778D01*
X73083024Y-57392121D01*
X71625561Y-57392121D01*
X71558522Y-57372436D01*
X71537880Y-57355802D01*
X69176819Y-54994741D01*
X69143334Y-54933418D01*
X69140500Y-54907060D01*
X69140500Y-53152690D01*
X69160185Y-53085651D01*
X69193375Y-53051116D01*
X69211401Y-53038495D01*
X69378495Y-52871401D01*
X69508425Y-52685842D01*
X69563002Y-52642217D01*
X69632500Y-52635023D01*
X69694855Y-52666546D01*
X69711575Y-52685842D01*
X69841500Y-52871395D01*
X69841505Y-52871401D01*
X70008599Y-53038495D01*
X70088748Y-53094616D01*
X70202165Y-53174032D01*
X70202167Y-53174033D01*
X70202170Y-53174035D01*
X70416337Y-53273903D01*
X70644592Y-53335063D01*
X70821034Y-53350500D01*
X70879999Y-53355659D01*
X70880000Y-53355659D01*
X70880001Y-53355659D01*
X70938966Y-53350500D01*
X71115408Y-53335063D01*
X71343663Y-53273903D01*
X71557830Y-53174035D01*
X71751401Y-53038495D01*
X71918495Y-52871401D01*
X72054035Y-52677830D01*
X72153903Y-52463663D01*
X72215063Y-52235408D01*
X72235659Y-52000000D01*
X72215063Y-51764592D01*
X72153903Y-51536337D01*
X72054035Y-51322171D01*
X72048425Y-51314158D01*
X71918494Y-51128597D01*
X71751402Y-50961506D01*
X71751395Y-50961501D01*
X71751249Y-50961399D01*
X71674518Y-50907671D01*
X71557834Y-50825967D01*
X71557830Y-50825965D01*
X71485968Y-50792455D01*
X71366790Y-50736881D01*
X71314352Y-50690710D01*
X71295200Y-50623516D01*
X71315416Y-50556635D01*
X71368581Y-50511300D01*
X71419196Y-50500500D01*
X149375500Y-50500500D01*
X149442539Y-50520185D01*
X149488294Y-50572989D01*
X149499500Y-50624500D01*
X149499500Y-101950500D01*
X149479815Y-102017539D01*
X149427011Y-102063294D01*
X149375500Y-102074500D01*
X50624500Y-102074500D01*
X50557461Y-102054815D01*
X50511706Y-102002011D01*
X50500500Y-101950500D01*
X50500500Y-97334111D01*
X50520185Y-97267072D01*
X50572989Y-97221317D01*
X50642147Y-97211373D01*
X50705703Y-97240398D01*
X50731886Y-97272109D01*
X50742178Y-97289936D01*
X50905729Y-97495023D01*
X51098021Y-97673443D01*
X51314756Y-97821211D01*
X51314761Y-97821213D01*
X51314762Y-97821214D01*
X51314763Y-97821215D01*
X51440281Y-97881660D01*
X51551090Y-97935023D01*
X51551091Y-97935023D01*
X51551094Y-97935025D01*
X51801756Y-98012344D01*
X51801757Y-98012344D01*
X51801760Y-98012345D01*
X52061134Y-98051439D01*
X52061139Y-98051439D01*
X52061142Y-98051440D01*
X52061143Y-98051440D01*
X52323457Y-98051440D01*
X52323458Y-98051440D01*
X52323465Y-98051439D01*
X52582839Y-98012345D01*
X52582840Y-98012344D01*
X52582844Y-98012344D01*
X52833506Y-97935025D01*
X53069844Y-97821211D01*
X53286579Y-97673443D01*
X53478871Y-97495023D01*
X53642422Y-97289936D01*
X53773580Y-97062764D01*
X53787352Y-97027670D01*
X53830166Y-96972458D01*
X53896035Y-96949156D01*
X53964046Y-96965164D01*
X53971672Y-96969870D01*
X54017513Y-97000500D01*
X54097137Y-97053703D01*
X54251918Y-97117816D01*
X54416228Y-97150499D01*
X54416232Y-97150500D01*
X54416233Y-97150500D01*
X54583768Y-97150500D01*
X54583769Y-97150499D01*
X54748082Y-97117816D01*
X54902863Y-97053703D01*
X55042162Y-96960626D01*
X55160626Y-96842162D01*
X55253703Y-96702863D01*
X55317816Y-96548082D01*
X55350500Y-96383767D01*
X55350500Y-96216233D01*
X55317816Y-96051918D01*
X55253703Y-95897137D01*
X55221059Y-95848282D01*
X55160626Y-95757837D01*
X55042162Y-95639373D01*
X54902860Y-95546295D01*
X54748082Y-95482184D01*
X54748074Y-95482182D01*
X54583771Y-95449500D01*
X54583767Y-95449500D01*
X54416233Y-95449500D01*
X54416228Y-95449500D01*
X54251925Y-95482182D01*
X54251917Y-95482184D01*
X54097140Y-95546295D01*
X53970887Y-95630654D01*
X53904209Y-95651531D01*
X53836829Y-95633046D01*
X53790140Y-95581067D01*
X53786574Y-95572866D01*
X53773580Y-95539756D01*
X53642422Y-95312584D01*
X53478871Y-95107497D01*
X53286579Y-94929077D01*
X53069844Y-94781309D01*
X53069840Y-94781307D01*
X53069837Y-94781305D01*
X53069836Y-94781304D01*
X52833508Y-94667496D01*
X52833510Y-94667496D01*
X52582845Y-94590176D01*
X52582839Y-94590174D01*
X52323465Y-94551080D01*
X52323458Y-94551080D01*
X52061142Y-94551080D01*
X52061134Y-94551080D01*
X51801760Y-94590174D01*
X51801754Y-94590176D01*
X51551090Y-94667496D01*
X51314763Y-94781304D01*
X51314762Y-94781305D01*
X51098020Y-94929077D01*
X50905731Y-95107495D01*
X50905729Y-95107497D01*
X50742178Y-95312583D01*
X50731886Y-95330410D01*
X50681318Y-95378625D01*
X50612711Y-95391846D01*
X50547847Y-95365877D01*
X50507319Y-95308962D01*
X50500500Y-95268408D01*
X50500500Y-94124500D01*
X50520185Y-94057461D01*
X50572989Y-94011706D01*
X50624500Y-94000500D01*
X51088693Y-94000500D01*
X51088694Y-94000499D01*
X51146682Y-93988964D01*
X51262658Y-93965896D01*
X51262661Y-93965894D01*
X51262666Y-93965894D01*
X51426547Y-93898013D01*
X51574035Y-93799464D01*
X51699464Y-93674035D01*
X51798013Y-93526547D01*
X51865894Y-93362666D01*
X51900500Y-93188691D01*
X51900500Y-93100000D01*
X51900500Y-93034108D01*
X51900500Y-91886571D01*
X53400000Y-91886571D01*
X53427085Y-92057584D01*
X53480591Y-92222257D01*
X53559195Y-92376524D01*
X53660967Y-92516602D01*
X53783397Y-92639032D01*
X53923475Y-92740804D01*
X54077744Y-92819408D01*
X54242415Y-92872914D01*
X54242414Y-92872914D01*
X54249999Y-92874115D01*
X54750000Y-92874115D01*
X54757584Y-92872914D01*
X54922255Y-92819408D01*
X55076524Y-92740804D01*
X55216602Y-92639032D01*
X55339032Y-92516602D01*
X55440804Y-92376524D01*
X55519408Y-92222257D01*
X55572914Y-92057584D01*
X55600000Y-91886571D01*
X55600000Y-91550000D01*
X54750000Y-91550000D01*
X54750000Y-92874115D01*
X54249999Y-92874115D01*
X54250000Y-92874114D01*
X54250000Y-91550000D01*
X53400000Y-91550000D01*
X53400000Y-91886571D01*
X51900500Y-91886571D01*
X51900500Y-90713428D01*
X53400000Y-90713428D01*
X53400000Y-91050000D01*
X54250000Y-91050000D01*
X54250000Y-90760218D01*
X54300000Y-90760218D01*
X54300000Y-91839782D01*
X54330448Y-91913291D01*
X54386709Y-91969552D01*
X54460218Y-92000000D01*
X54539782Y-92000000D01*
X54613291Y-91969552D01*
X54669552Y-91913291D01*
X54700000Y-91839782D01*
X54700000Y-91050000D01*
X54750000Y-91050000D01*
X55600000Y-91050000D01*
X55600000Y-90713428D01*
X55572914Y-90542415D01*
X55519408Y-90377742D01*
X55440804Y-90223475D01*
X55339032Y-90083397D01*
X55216602Y-89960967D01*
X55076524Y-89859195D01*
X54922257Y-89780591D01*
X54757589Y-89727087D01*
X54757581Y-89727085D01*
X54750000Y-89725884D01*
X54750000Y-91050000D01*
X54700000Y-91050000D01*
X54700000Y-90760218D01*
X54669552Y-90686709D01*
X54613291Y-90630448D01*
X54539782Y-90600000D01*
X54460218Y-90600000D01*
X54386709Y-90630448D01*
X54330448Y-90686709D01*
X54300000Y-90760218D01*
X54250000Y-90760218D01*
X54250000Y-89725884D01*
X54249999Y-89725884D01*
X54242418Y-89727085D01*
X54242410Y-89727087D01*
X54077742Y-89780591D01*
X53923475Y-89859195D01*
X53783397Y-89960967D01*
X53660967Y-90083397D01*
X53559195Y-90223475D01*
X53480591Y-90377742D01*
X53427085Y-90542415D01*
X53400000Y-90713428D01*
X51900500Y-90713428D01*
X51900500Y-89434108D01*
X51900500Y-89411309D01*
X51900500Y-89411306D01*
X51900499Y-89411304D01*
X51865896Y-89237341D01*
X51865893Y-89237332D01*
X51798016Y-89073459D01*
X51798009Y-89073446D01*
X51699464Y-88925965D01*
X51699461Y-88925961D01*
X51574038Y-88800538D01*
X51574034Y-88800535D01*
X51426553Y-88701990D01*
X51426540Y-88701983D01*
X51262667Y-88634106D01*
X51262658Y-88634103D01*
X51088694Y-88599500D01*
X51088691Y-88599500D01*
X51065892Y-88599500D01*
X50624500Y-88599500D01*
X50557461Y-88579815D01*
X50511706Y-88527011D01*
X50500500Y-88475500D01*
X50500500Y-87331591D01*
X50520185Y-87264552D01*
X50572989Y-87218797D01*
X50642147Y-87208853D01*
X50705703Y-87237878D01*
X50731886Y-87269589D01*
X50742178Y-87287416D01*
X50905729Y-87492503D01*
X51098021Y-87670923D01*
X51314756Y-87818691D01*
X51314761Y-87818693D01*
X51314762Y-87818694D01*
X51314763Y-87818695D01*
X51440281Y-87879140D01*
X51551090Y-87932503D01*
X51551091Y-87932503D01*
X51551094Y-87932505D01*
X51801756Y-88009824D01*
X51801757Y-88009824D01*
X51801760Y-88009825D01*
X52061134Y-88048919D01*
X52061139Y-88048919D01*
X52061142Y-88048920D01*
X52061143Y-88048920D01*
X52323457Y-88048920D01*
X52323458Y-88048920D01*
X52323465Y-88048919D01*
X52582839Y-88009825D01*
X52582840Y-88009824D01*
X52582844Y-88009824D01*
X52833506Y-87932505D01*
X53069844Y-87818691D01*
X53286579Y-87670923D01*
X53478871Y-87492503D01*
X53642422Y-87287416D01*
X53773580Y-87060244D01*
X53786569Y-87027147D01*
X53829382Y-86971934D01*
X53895252Y-86948632D01*
X53963263Y-86964640D01*
X53970888Y-86969346D01*
X53979073Y-86974815D01*
X54097137Y-87053703D01*
X54097138Y-87053703D01*
X54097139Y-87053704D01*
X54112928Y-87060244D01*
X54251918Y-87117816D01*
X54416228Y-87150499D01*
X54416232Y-87150500D01*
X54416233Y-87150500D01*
X54583768Y-87150500D01*
X54583769Y-87150499D01*
X54748082Y-87117816D01*
X54902863Y-87053703D01*
X55042162Y-86960626D01*
X55160626Y-86842162D01*
X55253703Y-86702863D01*
X55317816Y-86548082D01*
X55350500Y-86383767D01*
X55350500Y-86216233D01*
X55317816Y-86051918D01*
X55253703Y-85897137D01*
X55203195Y-85821546D01*
X55160626Y-85757837D01*
X55042162Y-85639373D01*
X54902860Y-85546295D01*
X54748082Y-85482184D01*
X54748074Y-85482182D01*
X54583771Y-85449500D01*
X54583767Y-85449500D01*
X54416233Y-85449500D01*
X54416228Y-85449500D01*
X54251925Y-85482182D01*
X54251917Y-85482184D01*
X54097140Y-85546295D01*
X53971671Y-85630130D01*
X53904993Y-85651007D01*
X53837613Y-85632522D01*
X53790924Y-85580543D01*
X53787353Y-85572329D01*
X53781368Y-85557080D01*
X53773580Y-85537236D01*
X53642422Y-85310064D01*
X53478871Y-85104977D01*
X53286579Y-84926557D01*
X53069844Y-84778789D01*
X53069840Y-84778787D01*
X53069837Y-84778785D01*
X53069836Y-84778784D01*
X52833508Y-84664976D01*
X52833510Y-84664976D01*
X52582845Y-84587656D01*
X52582839Y-84587654D01*
X52323465Y-84548560D01*
X52323458Y-84548560D01*
X52061142Y-84548560D01*
X52061134Y-84548560D01*
X51801760Y-84587654D01*
X51801754Y-84587656D01*
X51551090Y-84664976D01*
X51314763Y-84778784D01*
X51314762Y-84778785D01*
X51098020Y-84926557D01*
X50905731Y-85104975D01*
X50905729Y-85104977D01*
X50742178Y-85310063D01*
X50731886Y-85327890D01*
X50681318Y-85376105D01*
X50612711Y-85389326D01*
X50547847Y-85363357D01*
X50507319Y-85306442D01*
X50500500Y-85265888D01*
X50500500Y-77681595D01*
X50520185Y-77614556D01*
X50572989Y-77568801D01*
X50642147Y-77558857D01*
X50705703Y-77587882D01*
X50708825Y-77590682D01*
X50798021Y-77673443D01*
X51014756Y-77821211D01*
X51014761Y-77821213D01*
X51014762Y-77821214D01*
X51014763Y-77821215D01*
X51118306Y-77871078D01*
X51251090Y-77935023D01*
X51251091Y-77935023D01*
X51251094Y-77935025D01*
X51501756Y-78012344D01*
X51501757Y-78012344D01*
X51501760Y-78012345D01*
X51761134Y-78051439D01*
X51761139Y-78051439D01*
X51761142Y-78051440D01*
X51761143Y-78051440D01*
X52023457Y-78051440D01*
X52023458Y-78051440D01*
X52057162Y-78046360D01*
X52282839Y-78012345D01*
X52282840Y-78012344D01*
X52282844Y-78012344D01*
X52533506Y-77935025D01*
X52769844Y-77821211D01*
X52986579Y-77673443D01*
X53178871Y-77495023D01*
X53342422Y-77289936D01*
X53473580Y-77062764D01*
X53569414Y-76818581D01*
X53570079Y-76815669D01*
X53570601Y-76814735D01*
X53570782Y-76814149D01*
X53570907Y-76814187D01*
X53604185Y-76754689D01*
X53665845Y-76721828D01*
X53735482Y-76727520D01*
X53790988Y-76769957D01*
X53794073Y-76774365D01*
X53839373Y-76842161D01*
X53839376Y-76842165D01*
X53957837Y-76960626D01*
X54050494Y-77022537D01*
X54097137Y-77053703D01*
X54251918Y-77117816D01*
X54416228Y-77150499D01*
X54416232Y-77150500D01*
X54416233Y-77150500D01*
X54583768Y-77150500D01*
X54583769Y-77150499D01*
X54748082Y-77117816D01*
X54902863Y-77053703D01*
X55042162Y-76960626D01*
X55160626Y-76842162D01*
X55253703Y-76702863D01*
X55317816Y-76548082D01*
X55350500Y-76383767D01*
X55350500Y-76216233D01*
X55317816Y-76051918D01*
X55253703Y-75897137D01*
X55182243Y-75790190D01*
X55160626Y-75757837D01*
X55042162Y-75639373D01*
X54902860Y-75546295D01*
X54748082Y-75482184D01*
X54748074Y-75482182D01*
X54583771Y-75449500D01*
X54583767Y-75449500D01*
X54416233Y-75449500D01*
X54416228Y-75449500D01*
X54251925Y-75482182D01*
X54251917Y-75482184D01*
X54097139Y-75546295D01*
X53957837Y-75639373D01*
X53839376Y-75757834D01*
X53793644Y-75826277D01*
X53740031Y-75871081D01*
X53670706Y-75879788D01*
X53607679Y-75849633D01*
X53570960Y-75790190D01*
X53569649Y-75784967D01*
X53569413Y-75783936D01*
X53535817Y-75698334D01*
X53473580Y-75539756D01*
X53473579Y-75539755D01*
X53473580Y-75539755D01*
X53369086Y-75358768D01*
X53342422Y-75312584D01*
X53178871Y-75107497D01*
X52986579Y-74929077D01*
X52769844Y-74781309D01*
X52769840Y-74781307D01*
X52769837Y-74781305D01*
X52769836Y-74781304D01*
X52533508Y-74667496D01*
X52533510Y-74667496D01*
X52282845Y-74590176D01*
X52282839Y-74590174D01*
X52023465Y-74551080D01*
X52023458Y-74551080D01*
X51761142Y-74551080D01*
X51761134Y-74551080D01*
X51501760Y-74590174D01*
X51501754Y-74590176D01*
X51251090Y-74667496D01*
X51014763Y-74781304D01*
X51014762Y-74781305D01*
X50798020Y-74929077D01*
X50752087Y-74971697D01*
X50708839Y-75011824D01*
X50646309Y-75042992D01*
X50576852Y-75035405D01*
X50522523Y-74991471D01*
X50500572Y-74925140D01*
X50500500Y-74920925D01*
X50500500Y-74124500D01*
X50520185Y-74057461D01*
X50572989Y-74011706D01*
X50624500Y-74000500D01*
X51088693Y-74000500D01*
X51088694Y-74000499D01*
X51121385Y-73993996D01*
X56424499Y-73993996D01*
X56451418Y-74129322D01*
X56451421Y-74129332D01*
X56504222Y-74256807D01*
X56580887Y-74371545D01*
X56580888Y-74371546D01*
X57952812Y-75743469D01*
X57986297Y-75804792D01*
X57981429Y-75872854D01*
X57981633Y-75872921D01*
X57981366Y-75873742D01*
X57981313Y-75874484D01*
X57980232Y-75877229D01*
X57926597Y-76042302D01*
X57899500Y-76213389D01*
X57899500Y-76386610D01*
X57916905Y-76496506D01*
X57926598Y-76557701D01*
X57980127Y-76722445D01*
X58058768Y-76876788D01*
X58160586Y-77016928D01*
X58283072Y-77139414D01*
X58423212Y-77241232D01*
X58577555Y-77319873D01*
X58742299Y-77373402D01*
X58913389Y-77400500D01*
X58913390Y-77400500D01*
X60086610Y-77400500D01*
X60086611Y-77400500D01*
X60257701Y-77373402D01*
X60422445Y-77319873D01*
X60576788Y-77241232D01*
X60716928Y-77139414D01*
X60839414Y-77016928D01*
X60941232Y-76876788D01*
X61019873Y-76722445D01*
X61073402Y-76557701D01*
X61100500Y-76386611D01*
X61100500Y-76213389D01*
X61073402Y-76042299D01*
X61019873Y-75877555D01*
X60941232Y-75723212D01*
X60839414Y-75583072D01*
X60716928Y-75460586D01*
X60576788Y-75358768D01*
X60422445Y-75280127D01*
X60375744Y-75264952D01*
X60318071Y-75225516D01*
X60290873Y-75161157D01*
X60302788Y-75092311D01*
X60350032Y-75040835D01*
X60375743Y-75029093D01*
X60449219Y-75005220D01*
X60631610Y-74912287D01*
X60737987Y-74835000D01*
X60797213Y-74791971D01*
X60797215Y-74791968D01*
X60797219Y-74791966D01*
X60941966Y-74647219D01*
X60941968Y-74647215D01*
X60941971Y-74647213D01*
X61005448Y-74559843D01*
X61062287Y-74481610D01*
X61155220Y-74299219D01*
X61218477Y-74104534D01*
X61250500Y-73902352D01*
X61250500Y-73697648D01*
X61247012Y-73675623D01*
X61218477Y-73495465D01*
X61174500Y-73360118D01*
X61155220Y-73300781D01*
X61155218Y-73300778D01*
X61155218Y-73300776D01*
X61108138Y-73208377D01*
X61062287Y-73118390D01*
X61048563Y-73099500D01*
X61044975Y-73094561D01*
X61021495Y-73028755D01*
X61037321Y-72960701D01*
X61087426Y-72912006D01*
X61155905Y-72898131D01*
X61199092Y-72909955D01*
X61248534Y-72933765D01*
X61499196Y-73011084D01*
X61499197Y-73011084D01*
X61499200Y-73011085D01*
X61758574Y-73050179D01*
X61758579Y-73050179D01*
X61758582Y-73050180D01*
X61758583Y-73050180D01*
X62020897Y-73050180D01*
X62020898Y-73050180D01*
X62041293Y-73047106D01*
X62280279Y-73011085D01*
X62280280Y-73011084D01*
X62280284Y-73011084D01*
X62530946Y-72933765D01*
X62767284Y-72819951D01*
X62984019Y-72672183D01*
X63176311Y-72493763D01*
X63339862Y-72288676D01*
X63471020Y-72061504D01*
X63539660Y-71886611D01*
X63566854Y-71817323D01*
X63583531Y-71744252D01*
X63625225Y-71561582D01*
X63626237Y-71548082D01*
X63644828Y-71300004D01*
X63644828Y-71299995D01*
X63625226Y-71038427D01*
X63625225Y-71038422D01*
X63625225Y-71038418D01*
X63576710Y-70825861D01*
X63566854Y-70782676D01*
X63495489Y-70600842D01*
X63471020Y-70538496D01*
X63471019Y-70538495D01*
X63471020Y-70538495D01*
X63406002Y-70425882D01*
X63339862Y-70311324D01*
X63176311Y-70106237D01*
X62984019Y-69927817D01*
X62767284Y-69780049D01*
X62767280Y-69780047D01*
X62767277Y-69780045D01*
X62767276Y-69780044D01*
X62530948Y-69666236D01*
X62530950Y-69666236D01*
X62280285Y-69588916D01*
X62280279Y-69588914D01*
X62020905Y-69549820D01*
X62020898Y-69549820D01*
X61758582Y-69549820D01*
X61758574Y-69549820D01*
X61499200Y-69588914D01*
X61499194Y-69588916D01*
X61248536Y-69666234D01*
X61045276Y-69764118D01*
X60976334Y-69775469D01*
X60912200Y-69747746D01*
X60873235Y-69689751D01*
X60871810Y-69619896D01*
X60891154Y-69579516D01*
X60962287Y-69481610D01*
X61055220Y-69299219D01*
X61118477Y-69104534D01*
X61150500Y-68902352D01*
X61150500Y-68697648D01*
X61118477Y-68495466D01*
X61105894Y-68456741D01*
X61074646Y-68360568D01*
X61055220Y-68300781D01*
X61055218Y-68300778D01*
X61055218Y-68300776D01*
X61006090Y-68204358D01*
X60962287Y-68118390D01*
X60936336Y-68082671D01*
X60841971Y-67952786D01*
X60697213Y-67808028D01*
X60531613Y-67687715D01*
X60531612Y-67687714D01*
X60531610Y-67687713D01*
X60383086Y-67612036D01*
X60349220Y-67594780D01*
X60325744Y-67587152D01*
X60268069Y-67547713D01*
X60240873Y-67483354D01*
X60252789Y-67414508D01*
X60300034Y-67363033D01*
X60325740Y-67351294D01*
X60422445Y-67319873D01*
X60576788Y-67241232D01*
X60716928Y-67139414D01*
X60819524Y-67036818D01*
X60880847Y-67003334D01*
X60907205Y-67000500D01*
X61083481Y-67000500D01*
X61150520Y-67020185D01*
X61171162Y-67036819D01*
X65098461Y-70964118D01*
X65131946Y-71025441D01*
X65134780Y-71051799D01*
X65134780Y-74508481D01*
X65115095Y-74575520D01*
X65098458Y-74596165D01*
X65084589Y-74610033D01*
X65023265Y-74643516D01*
X64960361Y-74640840D01*
X64815529Y-74596165D01*
X64779645Y-74585096D01*
X64779639Y-74585094D01*
X64520265Y-74546000D01*
X64520258Y-74546000D01*
X64257942Y-74546000D01*
X64257934Y-74546000D01*
X63998560Y-74585094D01*
X63998554Y-74585096D01*
X63747890Y-74662416D01*
X63511563Y-74776224D01*
X63511562Y-74776225D01*
X63294820Y-74923997D01*
X63102531Y-75102415D01*
X63102529Y-75102417D01*
X62938978Y-75307504D01*
X62807820Y-75534675D01*
X62711985Y-75778856D01*
X62653614Y-76034602D01*
X62653613Y-76034607D01*
X62634012Y-76296175D01*
X62634012Y-76296184D01*
X62653613Y-76557752D01*
X62653614Y-76557757D01*
X62653614Y-76557761D01*
X62653615Y-76557762D01*
X62658773Y-76580362D01*
X62711985Y-76813503D01*
X62809112Y-77060977D01*
X62815281Y-77130574D01*
X62782843Y-77192457D01*
X62722098Y-77226980D01*
X62652332Y-77223181D01*
X62639883Y-77217999D01*
X62528408Y-77164316D01*
X62528410Y-77164316D01*
X62277745Y-77086996D01*
X62277739Y-77086994D01*
X62018365Y-77047900D01*
X62018358Y-77047900D01*
X61756042Y-77047900D01*
X61756034Y-77047900D01*
X61496660Y-77086994D01*
X61496654Y-77086996D01*
X61245990Y-77164316D01*
X61009663Y-77278124D01*
X61009662Y-77278125D01*
X60792920Y-77425897D01*
X60600631Y-77604315D01*
X60600629Y-77604317D01*
X60437078Y-77809404D01*
X60305920Y-78036575D01*
X60210085Y-78280756D01*
X60151714Y-78536502D01*
X60151713Y-78536507D01*
X60132112Y-78798075D01*
X60132112Y-78798084D01*
X60151713Y-79059652D01*
X60151714Y-79059657D01*
X60210085Y-79315403D01*
X60305920Y-79559584D01*
X60305919Y-79559584D01*
X60389070Y-79703604D01*
X60437078Y-79786756D01*
X60600629Y-79991843D01*
X60792921Y-80170263D01*
X61009656Y-80318031D01*
X61009661Y-80318033D01*
X61009662Y-80318034D01*
X61009663Y-80318035D01*
X61126575Y-80374336D01*
X61245990Y-80431843D01*
X61245991Y-80431843D01*
X61245994Y-80431845D01*
X61496656Y-80509164D01*
X61496657Y-80509164D01*
X61496660Y-80509165D01*
X61756034Y-80548259D01*
X61756039Y-80548259D01*
X61756042Y-80548260D01*
X61756043Y-80548260D01*
X62018357Y-80548260D01*
X62018358Y-80548260D01*
X62018365Y-80548259D01*
X62277739Y-80509165D01*
X62277740Y-80509164D01*
X62277744Y-80509164D01*
X62528406Y-80431845D01*
X62764744Y-80318031D01*
X62981479Y-80170263D01*
X63173771Y-79991843D01*
X63337322Y-79786756D01*
X63468480Y-79559584D01*
X63544751Y-79365248D01*
X63564314Y-79315403D01*
X63589832Y-79203599D01*
X63622685Y-79059662D01*
X63622686Y-79059652D01*
X63642288Y-78798084D01*
X63642288Y-78798075D01*
X63622686Y-78536507D01*
X63622685Y-78536502D01*
X63622685Y-78536498D01*
X63566053Y-78288377D01*
X63564314Y-78280756D01*
X63472320Y-78046360D01*
X63468480Y-78036576D01*
X63468479Y-78036574D01*
X63467187Y-78033282D01*
X63461018Y-77963686D01*
X63493456Y-77901802D01*
X63554201Y-77867279D01*
X63623967Y-77871078D01*
X63636406Y-77876255D01*
X63747894Y-77929945D01*
X63998556Y-78007264D01*
X63998557Y-78007264D01*
X63998560Y-78007265D01*
X64257934Y-78046359D01*
X64257939Y-78046359D01*
X64257942Y-78046360D01*
X64257943Y-78046360D01*
X64520257Y-78046360D01*
X64520258Y-78046360D01*
X64520265Y-78046359D01*
X64779639Y-78007265D01*
X64779640Y-78007264D01*
X64779644Y-78007264D01*
X65030306Y-77929945D01*
X65266644Y-77816131D01*
X65483379Y-77668363D01*
X65675671Y-77489943D01*
X65839222Y-77284856D01*
X65970380Y-77057684D01*
X66032275Y-76899977D01*
X66066214Y-76813503D01*
X66085839Y-76727520D01*
X66124585Y-76557762D01*
X66124590Y-76557697D01*
X66144188Y-76296184D01*
X66144188Y-76296175D01*
X66124586Y-76034607D01*
X66124585Y-76034602D01*
X66124585Y-76034598D01*
X66066214Y-75778859D01*
X66048202Y-75732967D01*
X66042034Y-75663373D01*
X66074471Y-75601490D01*
X66075922Y-75600013D01*
X66089121Y-75586815D01*
X66150446Y-75553333D01*
X66176799Y-75550500D01*
X66576287Y-75550500D01*
X66956007Y-75550500D01*
X69563327Y-75550500D01*
X69630366Y-75570185D01*
X69664902Y-75603377D01*
X69724954Y-75689141D01*
X69885858Y-75850045D01*
X69885861Y-75850047D01*
X70072266Y-75980568D01*
X70278504Y-76076739D01*
X70498308Y-76135635D01*
X70660230Y-76149801D01*
X70724998Y-76155468D01*
X70725000Y-76155468D01*
X70725002Y-76155468D01*
X70781673Y-76150509D01*
X70951692Y-76135635D01*
X71171496Y-76076739D01*
X71377734Y-75980568D01*
X71564139Y-75850047D01*
X71725047Y-75689139D01*
X71855568Y-75502734D01*
X71951739Y-75296496D01*
X72010635Y-75076692D01*
X72030468Y-74850000D01*
X72029155Y-74834997D01*
X72024014Y-74776229D01*
X72010635Y-74623308D01*
X71951739Y-74403504D01*
X71937549Y-74373075D01*
X71927057Y-74303999D01*
X71955576Y-74240214D01*
X72014052Y-74201974D01*
X72083919Y-74201419D01*
X72137612Y-74232989D01*
X72542328Y-74637705D01*
X72575813Y-74699028D01*
X72578175Y-74736192D01*
X72569532Y-74834997D01*
X72569532Y-74835001D01*
X72589364Y-75061686D01*
X72589366Y-75061697D01*
X72648258Y-75281488D01*
X72648261Y-75281497D01*
X72744431Y-75487732D01*
X72744432Y-75487734D01*
X72874954Y-75674141D01*
X73035858Y-75835045D01*
X73057283Y-75850047D01*
X73222266Y-75965568D01*
X73428504Y-76061739D01*
X73648308Y-76120635D01*
X73810230Y-76134801D01*
X73874998Y-76140468D01*
X73875000Y-76140468D01*
X73875002Y-76140468D01*
X73931673Y-76135509D01*
X74101692Y-76120635D01*
X74321496Y-76061739D01*
X74527734Y-75965568D01*
X74714139Y-75835047D01*
X74875047Y-75674139D01*
X75005568Y-75487734D01*
X75101739Y-75281496D01*
X75149723Y-75102415D01*
X75156308Y-75077841D01*
X75188400Y-75022255D01*
X76041881Y-74168774D01*
X76103202Y-74135291D01*
X76172894Y-74140275D01*
X76228827Y-74182147D01*
X76253088Y-74245649D01*
X76269364Y-74431687D01*
X76269366Y-74431697D01*
X76328258Y-74651488D01*
X76328261Y-74651497D01*
X76424431Y-74857732D01*
X76424432Y-74857734D01*
X76554954Y-75044141D01*
X76715858Y-75205045D01*
X76715861Y-75205047D01*
X76902266Y-75335568D01*
X77108504Y-75431739D01*
X77328308Y-75490635D01*
X77514348Y-75506911D01*
X77579416Y-75532363D01*
X77620395Y-75588954D01*
X77624273Y-75658716D01*
X77591221Y-75718120D01*
X77121162Y-76188181D01*
X77059839Y-76221666D01*
X77033481Y-76224500D01*
X74731003Y-76224500D01*
X74622590Y-76246065D01*
X74622589Y-76246065D01*
X74595671Y-76251420D01*
X74553464Y-76268903D01*
X74553463Y-76268903D01*
X74468193Y-76304222D01*
X74468191Y-76304223D01*
X74371259Y-76368992D01*
X74353457Y-76380886D01*
X74353451Y-76380891D01*
X70830888Y-79903453D01*
X70830887Y-79903454D01*
X70754224Y-80018190D01*
X70701421Y-80145666D01*
X70701420Y-80145672D01*
X70696529Y-80170262D01*
X70696529Y-80170263D01*
X70674500Y-80281004D01*
X70674500Y-80978326D01*
X70654815Y-81045365D01*
X70621624Y-81079901D01*
X70535863Y-81139951D01*
X70374951Y-81300862D01*
X70244432Y-81487265D01*
X70244431Y-81487267D01*
X70148261Y-81693502D01*
X70148258Y-81693511D01*
X70089366Y-81913302D01*
X70089364Y-81913313D01*
X70069532Y-82139998D01*
X70069532Y-82140001D01*
X70089364Y-82366686D01*
X70089366Y-82366697D01*
X70148258Y-82586488D01*
X70148261Y-82586497D01*
X70244431Y-82792732D01*
X70244432Y-82792734D01*
X70374954Y-82979141D01*
X70535858Y-83140045D01*
X70535861Y-83140047D01*
X70722266Y-83270568D01*
X70928504Y-83366739D01*
X71148308Y-83425635D01*
X71310230Y-83439801D01*
X71374998Y-83445468D01*
X71375000Y-83445468D01*
X71375002Y-83445468D01*
X71431673Y-83440509D01*
X71601692Y-83425635D01*
X71821496Y-83366739D01*
X72027734Y-83270568D01*
X72214139Y-83140047D01*
X72233983Y-83120203D01*
X72312819Y-83041368D01*
X72374142Y-83007883D01*
X72443834Y-83012867D01*
X72499767Y-83054739D01*
X72524184Y-83120203D01*
X72524500Y-83129049D01*
X72524500Y-87922423D01*
X72504815Y-87989462D01*
X72452011Y-88035217D01*
X72382853Y-88045161D01*
X72319297Y-88016136D01*
X72312819Y-88010104D01*
X70062422Y-85759707D01*
X69947684Y-85683042D01*
X69820209Y-85630241D01*
X69820199Y-85630238D01*
X69684873Y-85603320D01*
X69684871Y-85603320D01*
X69684870Y-85603320D01*
X66377192Y-85603320D01*
X66310153Y-85583635D01*
X66269805Y-85541320D01*
X66253456Y-85513003D01*
X66139222Y-85315144D01*
X65975671Y-85110057D01*
X65783379Y-84931637D01*
X65566644Y-84783869D01*
X65566640Y-84783867D01*
X65566637Y-84783865D01*
X65566636Y-84783864D01*
X65330308Y-84670056D01*
X65330310Y-84670056D01*
X65079645Y-84592736D01*
X65079639Y-84592734D01*
X64820265Y-84553640D01*
X64820258Y-84553640D01*
X64557942Y-84553640D01*
X64557934Y-84553640D01*
X64298560Y-84592734D01*
X64298554Y-84592736D01*
X64047896Y-84670054D01*
X64047894Y-84670055D01*
X63970413Y-84707368D01*
X63936416Y-84723740D01*
X63867474Y-84735091D01*
X63803340Y-84707368D01*
X63764375Y-84649373D01*
X63762950Y-84579518D01*
X63767187Y-84566716D01*
X63768476Y-84563429D01*
X63768480Y-84563424D01*
X63864314Y-84319241D01*
X63922685Y-84063502D01*
X63928450Y-83986575D01*
X63942288Y-83801924D01*
X63942288Y-83801915D01*
X63922686Y-83540347D01*
X63922685Y-83540342D01*
X63922685Y-83540338D01*
X63883436Y-83368377D01*
X63864314Y-83284596D01*
X63783491Y-83078664D01*
X63768480Y-83040416D01*
X63768479Y-83040415D01*
X63768480Y-83040415D01*
X63670284Y-82870336D01*
X63637322Y-82813244D01*
X63473771Y-82608157D01*
X63281479Y-82429737D01*
X63064744Y-82281969D01*
X63064740Y-82281967D01*
X63064737Y-82281965D01*
X63064736Y-82281964D01*
X62828408Y-82168156D01*
X62828410Y-82168156D01*
X62577745Y-82090836D01*
X62577739Y-82090834D01*
X62318365Y-82051740D01*
X62318358Y-82051740D01*
X62056042Y-82051740D01*
X62056034Y-82051740D01*
X61796660Y-82090834D01*
X61796654Y-82090836D01*
X61545990Y-82168156D01*
X61309663Y-82281964D01*
X61309662Y-82281965D01*
X61092920Y-82429737D01*
X60900631Y-82608155D01*
X60900629Y-82608157D01*
X60737078Y-82813244D01*
X60605920Y-83040415D01*
X60510085Y-83284596D01*
X60451714Y-83540342D01*
X60451713Y-83540347D01*
X60432112Y-83801915D01*
X60432112Y-83801924D01*
X60451713Y-84063492D01*
X60451714Y-84063497D01*
X60510085Y-84319243D01*
X60605920Y-84563424D01*
X60605919Y-84563424D01*
X60679771Y-84691337D01*
X60737078Y-84790596D01*
X60900629Y-84995683D01*
X61092921Y-85174103D01*
X61309656Y-85321871D01*
X61422490Y-85376208D01*
X61474347Y-85423029D01*
X61492660Y-85490456D01*
X61471613Y-85557080D01*
X61417887Y-85601748D01*
X61348540Y-85610279D01*
X61344496Y-85609545D01*
X61293994Y-85599500D01*
X61293993Y-85599500D01*
X60907205Y-85599500D01*
X60840166Y-85579815D01*
X60819524Y-85563182D01*
X60769345Y-85513003D01*
X60716928Y-85460586D01*
X60576788Y-85358768D01*
X60422445Y-85280127D01*
X60257701Y-85226598D01*
X60257699Y-85226597D01*
X60257698Y-85226597D01*
X60126271Y-85205781D01*
X60086611Y-85199500D01*
X58913389Y-85199500D01*
X58873728Y-85205781D01*
X58742302Y-85226597D01*
X58577552Y-85280128D01*
X58423211Y-85358768D01*
X58343256Y-85416859D01*
X58283072Y-85460586D01*
X58283070Y-85460588D01*
X58283069Y-85460588D01*
X58160588Y-85583069D01*
X58160588Y-85583070D01*
X58160586Y-85583072D01*
X58134728Y-85618663D01*
X58058768Y-85723211D01*
X57980128Y-85877552D01*
X57926597Y-86042302D01*
X57899500Y-86213389D01*
X57899500Y-86386610D01*
X57920779Y-86520965D01*
X57926598Y-86557701D01*
X57980127Y-86722445D01*
X58058768Y-86876788D01*
X58160586Y-87016928D01*
X58283072Y-87139414D01*
X58423212Y-87241232D01*
X58577555Y-87319873D01*
X58674254Y-87351292D01*
X58731927Y-87390728D01*
X58759126Y-87455087D01*
X58747212Y-87523933D01*
X58699968Y-87575409D01*
X58674256Y-87587152D01*
X58650777Y-87594781D01*
X58468386Y-87687715D01*
X58302786Y-87808028D01*
X58158028Y-87952786D01*
X58037715Y-88118386D01*
X57944781Y-88300776D01*
X57881522Y-88495465D01*
X57849500Y-88697648D01*
X57849500Y-88902351D01*
X57881522Y-89104534D01*
X57944781Y-89299223D01*
X57977583Y-89363599D01*
X58028935Y-89464383D01*
X58037715Y-89481613D01*
X58158028Y-89647213D01*
X58302786Y-89791971D01*
X58400557Y-89863004D01*
X58468390Y-89912287D01*
X58563930Y-89960967D01*
X58650776Y-90005218D01*
X58650778Y-90005218D01*
X58650781Y-90005220D01*
X58755137Y-90039127D01*
X58845465Y-90068477D01*
X58913552Y-90079261D01*
X59047648Y-90100500D01*
X59047649Y-90100500D01*
X59952351Y-90100500D01*
X59952352Y-90100500D01*
X60154534Y-90068477D01*
X60349219Y-90005220D01*
X60531610Y-89912287D01*
X60624590Y-89844732D01*
X60697213Y-89791971D01*
X60697215Y-89791968D01*
X60697219Y-89791966D01*
X60841966Y-89647219D01*
X60841966Y-89647218D01*
X60841970Y-89647215D01*
X60841971Y-89647213D01*
X60907389Y-89557171D01*
X60962287Y-89481610D01*
X61055220Y-89299219D01*
X61118477Y-89104534D01*
X61150500Y-88902352D01*
X61150500Y-88697648D01*
X61140435Y-88634103D01*
X61118477Y-88495465D01*
X61055218Y-88300776D01*
X60987071Y-88167032D01*
X60962287Y-88118390D01*
X60954556Y-88107749D01*
X60841971Y-87952786D01*
X60697213Y-87808028D01*
X60531613Y-87687715D01*
X60531612Y-87687714D01*
X60531610Y-87687713D01*
X60428834Y-87635346D01*
X60349220Y-87594780D01*
X60325744Y-87587152D01*
X60268069Y-87547713D01*
X60240873Y-87483354D01*
X60252789Y-87414508D01*
X60300034Y-87363033D01*
X60325740Y-87351294D01*
X60422445Y-87319873D01*
X60576788Y-87241232D01*
X60716928Y-87139414D01*
X60807664Y-87048677D01*
X60868983Y-87015195D01*
X60938675Y-87020179D01*
X60983023Y-87048680D01*
X63952281Y-90017938D01*
X63985766Y-90079261D01*
X63988600Y-90105619D01*
X63988600Y-90453583D01*
X63968915Y-90520622D01*
X63916111Y-90566377D01*
X63846953Y-90576321D01*
X63783397Y-90547296D01*
X63757213Y-90515583D01*
X63639444Y-90311603D01*
X63591637Y-90251654D01*
X62827901Y-91015389D01*
X62808743Y-90969136D01*
X62732301Y-90854732D01*
X62635008Y-90757439D01*
X62520604Y-90680997D01*
X62474347Y-90661837D01*
X63238677Y-89897509D01*
X63067026Y-89780480D01*
X63067025Y-89780479D01*
X62830764Y-89666703D01*
X62830766Y-89666703D01*
X62580180Y-89589407D01*
X62580174Y-89589406D01*
X62320865Y-89550320D01*
X62058614Y-89550320D01*
X61799305Y-89589406D01*
X61799299Y-89589407D01*
X61548714Y-89666703D01*
X61312454Y-89780479D01*
X61312446Y-89780484D01*
X61140801Y-89897509D01*
X61905130Y-90661837D01*
X61858876Y-90680997D01*
X61744472Y-90757439D01*
X61647179Y-90854732D01*
X61570737Y-90969136D01*
X61551577Y-91015390D01*
X60787842Y-90251655D01*
X60740033Y-90311606D01*
X60608914Y-90538711D01*
X60513105Y-90782826D01*
X60513102Y-90782838D01*
X60490697Y-90880999D01*
X60456588Y-90941977D01*
X60394926Y-90974835D01*
X60325289Y-90969140D01*
X60269786Y-90926700D01*
X60255245Y-90900860D01*
X60253703Y-90897137D01*
X60160626Y-90757837D01*
X60042162Y-90639373D01*
X59902860Y-90546295D01*
X59748082Y-90482184D01*
X59748074Y-90482182D01*
X59583771Y-90449500D01*
X59583767Y-90449500D01*
X59416233Y-90449500D01*
X59416228Y-90449500D01*
X59251925Y-90482182D01*
X59251917Y-90482184D01*
X59097139Y-90546295D01*
X58957837Y-90639373D01*
X58839373Y-90757837D01*
X58746295Y-90897139D01*
X58682184Y-91051917D01*
X58682182Y-91051925D01*
X58649500Y-91216228D01*
X58649500Y-91383771D01*
X58682182Y-91548074D01*
X58682184Y-91548082D01*
X58746295Y-91702860D01*
X58839373Y-91842162D01*
X58957837Y-91960626D01*
X59014520Y-91998500D01*
X59097137Y-92053703D01*
X59097138Y-92053703D01*
X59097139Y-92053704D01*
X59125009Y-92065248D01*
X59251918Y-92117816D01*
X59363330Y-92139977D01*
X59416228Y-92150499D01*
X59416232Y-92150500D01*
X59416233Y-92150500D01*
X59583768Y-92150500D01*
X59583769Y-92150499D01*
X59748082Y-92117816D01*
X59902863Y-92053703D01*
X60042162Y-91960626D01*
X60160626Y-91842162D01*
X60253703Y-91702863D01*
X60254908Y-91699954D01*
X60255244Y-91699144D01*
X60256572Y-91697495D01*
X60256578Y-91697485D01*
X60256579Y-91697486D01*
X60299083Y-91644739D01*
X60365377Y-91622672D01*
X60433076Y-91639949D01*
X60480688Y-91691085D01*
X60490697Y-91719000D01*
X60513102Y-91817161D01*
X60513105Y-91817173D01*
X60608914Y-92061288D01*
X60740035Y-92288396D01*
X60787841Y-92348344D01*
X61551577Y-91584608D01*
X61570737Y-91630864D01*
X61647179Y-91745268D01*
X61744472Y-91842561D01*
X61858876Y-91919003D01*
X61905130Y-91938161D01*
X61140801Y-92702489D01*
X61312453Y-92819519D01*
X61312454Y-92819520D01*
X61548715Y-92933296D01*
X61548713Y-92933296D01*
X61799299Y-93010592D01*
X61799305Y-93010593D01*
X62058614Y-93049679D01*
X62058621Y-93049680D01*
X62320859Y-93049680D01*
X62320865Y-93049679D01*
X62580174Y-93010593D01*
X62580180Y-93010592D01*
X62830765Y-92933296D01*
X63067025Y-92819520D01*
X63067035Y-92819513D01*
X63238677Y-92702489D01*
X62474349Y-91938162D01*
X62520604Y-91919003D01*
X62635008Y-91842561D01*
X62732301Y-91745268D01*
X62808743Y-91630864D01*
X62827902Y-91584609D01*
X63591636Y-92348344D01*
X63591637Y-92348343D01*
X63639440Y-92288402D01*
X63639447Y-92288391D01*
X63757213Y-92084416D01*
X63807780Y-92036200D01*
X63876387Y-92022977D01*
X63941252Y-92048945D01*
X63981780Y-92105860D01*
X63988600Y-92146416D01*
X63988600Y-94613054D01*
X63968915Y-94680093D01*
X63918402Y-94724774D01*
X63811560Y-94776226D01*
X63594820Y-94923997D01*
X63402531Y-95102415D01*
X63402529Y-95102417D01*
X63238978Y-95307504D01*
X63107820Y-95534675D01*
X63029725Y-95733659D01*
X62986909Y-95788873D01*
X62921039Y-95812174D01*
X62853029Y-95796163D01*
X62826616Y-95776038D01*
X62806465Y-95755887D01*
X62691727Y-95679222D01*
X62564252Y-95626421D01*
X62564242Y-95626418D01*
X62428916Y-95599500D01*
X62428914Y-95599500D01*
X62428913Y-95599500D01*
X60907205Y-95599500D01*
X60840166Y-95579815D01*
X60819524Y-95563182D01*
X60783596Y-95527254D01*
X60716928Y-95460586D01*
X60576788Y-95358768D01*
X60568076Y-95354329D01*
X60422449Y-95280129D01*
X60422448Y-95280128D01*
X60422445Y-95280127D01*
X60375744Y-95264952D01*
X60318071Y-95225516D01*
X60290873Y-95161157D01*
X60302788Y-95092311D01*
X60350032Y-95040835D01*
X60375743Y-95029093D01*
X60449219Y-95005220D01*
X60631610Y-94912287D01*
X60774488Y-94808481D01*
X60797213Y-94791971D01*
X60797215Y-94791968D01*
X60797219Y-94791966D01*
X60941966Y-94647219D01*
X60941968Y-94647215D01*
X60941971Y-94647213D01*
X61004155Y-94561623D01*
X61062287Y-94481610D01*
X61155220Y-94299219D01*
X61218477Y-94104534D01*
X61250500Y-93902352D01*
X61250500Y-93697648D01*
X61247737Y-93680203D01*
X61218477Y-93495465D01*
X61175325Y-93362658D01*
X61155220Y-93300781D01*
X61155218Y-93300778D01*
X61155218Y-93300776D01*
X61121503Y-93234607D01*
X61062287Y-93118390D01*
X61012366Y-93049679D01*
X60941971Y-92952786D01*
X60797213Y-92808028D01*
X60631613Y-92687715D01*
X60631612Y-92687714D01*
X60631610Y-92687713D01*
X60574653Y-92658691D01*
X60449223Y-92594781D01*
X60254534Y-92531522D01*
X60079995Y-92503878D01*
X60052352Y-92499500D01*
X58947648Y-92499500D01*
X58923329Y-92503351D01*
X58745465Y-92531522D01*
X58550776Y-92594781D01*
X58368386Y-92687715D01*
X58202786Y-92808028D01*
X58058028Y-92952786D01*
X57937715Y-93118386D01*
X57844781Y-93300776D01*
X57781522Y-93495465D01*
X57749500Y-93697648D01*
X57749500Y-93902351D01*
X57781522Y-94104534D01*
X57844781Y-94299223D01*
X57908691Y-94424653D01*
X57918345Y-94443599D01*
X57937715Y-94481613D01*
X58058028Y-94647213D01*
X58202786Y-94791971D01*
X58284508Y-94851344D01*
X58368390Y-94912287D01*
X58550781Y-95005220D01*
X58624252Y-95029092D01*
X58681928Y-95068530D01*
X58709126Y-95132888D01*
X58697211Y-95201735D01*
X58649967Y-95253210D01*
X58624254Y-95264953D01*
X58613622Y-95268408D01*
X58577550Y-95280128D01*
X58423211Y-95358768D01*
X58388490Y-95383995D01*
X58283072Y-95460586D01*
X58283070Y-95460588D01*
X58283069Y-95460588D01*
X58160588Y-95583069D01*
X58160588Y-95583070D01*
X58160586Y-95583072D01*
X58136545Y-95616162D01*
X58058768Y-95723211D01*
X57980128Y-95877552D01*
X57926597Y-96042302D01*
X57911886Y-96135185D01*
X57899500Y-96213389D01*
X57899500Y-96386611D01*
X57926598Y-96557701D01*
X57973764Y-96702863D01*
X57980128Y-96722447D01*
X58028053Y-96816505D01*
X58058768Y-96876788D01*
X58160586Y-97016928D01*
X58283072Y-97139414D01*
X58423212Y-97241232D01*
X58577555Y-97319873D01*
X58742299Y-97373402D01*
X58913389Y-97400500D01*
X58913390Y-97400500D01*
X60086610Y-97400500D01*
X60086611Y-97400500D01*
X60257701Y-97373402D01*
X60422445Y-97319873D01*
X60576788Y-97241232D01*
X60716928Y-97139414D01*
X60819524Y-97036818D01*
X60880847Y-97003334D01*
X60907205Y-97000500D01*
X61342880Y-97000500D01*
X61409919Y-97020185D01*
X61455674Y-97072989D01*
X61465618Y-97142147D01*
X61436593Y-97205703D01*
X61396681Y-97236220D01*
X61309663Y-97278124D01*
X61309662Y-97278125D01*
X61092920Y-97425897D01*
X60900631Y-97604315D01*
X60900629Y-97604317D01*
X60737078Y-97809404D01*
X60605920Y-98036575D01*
X60510085Y-98280756D01*
X60451714Y-98536502D01*
X60451713Y-98536507D01*
X60432112Y-98798075D01*
X60432112Y-98798084D01*
X60451713Y-99059652D01*
X60451714Y-99059657D01*
X60510085Y-99315403D01*
X60605920Y-99559584D01*
X60605919Y-99559584D01*
X60668090Y-99667266D01*
X60737078Y-99786756D01*
X60900629Y-99991843D01*
X61092921Y-100170263D01*
X61309656Y-100318031D01*
X61309661Y-100318033D01*
X61309662Y-100318034D01*
X61309663Y-100318035D01*
X61428384Y-100375207D01*
X61545990Y-100431843D01*
X61545991Y-100431843D01*
X61545994Y-100431845D01*
X61796656Y-100509164D01*
X61796657Y-100509164D01*
X61796660Y-100509165D01*
X62056034Y-100548259D01*
X62056039Y-100548259D01*
X62056042Y-100548260D01*
X62056043Y-100548260D01*
X62318357Y-100548260D01*
X62318358Y-100548260D01*
X62328801Y-100546686D01*
X62577739Y-100509165D01*
X62577740Y-100509164D01*
X62577744Y-100509164D01*
X62828406Y-100431845D01*
X63021436Y-100338887D01*
X63064736Y-100318035D01*
X63064736Y-100318034D01*
X63064744Y-100318031D01*
X63281479Y-100170263D01*
X63473771Y-99991843D01*
X63637322Y-99786756D01*
X63768480Y-99559584D01*
X63848182Y-99356505D01*
X63864314Y-99315403D01*
X63888474Y-99209549D01*
X63922685Y-99059662D01*
X63922685Y-99059652D01*
X63923379Y-99055061D01*
X63924627Y-99055249D01*
X63947242Y-98995207D01*
X64003310Y-98953516D01*
X64073017Y-98948755D01*
X64093718Y-98955273D01*
X64168092Y-98986080D01*
X64168096Y-98986080D01*
X64168097Y-98986081D01*
X64303423Y-99013000D01*
X64303426Y-99013000D01*
X68281496Y-99013000D01*
X68372540Y-98994889D01*
X68416828Y-98986080D01*
X68506939Y-98948755D01*
X68544307Y-98933277D01*
X68544308Y-98933276D01*
X68544311Y-98933275D01*
X68659043Y-98856614D01*
X71919113Y-95596543D01*
X71940776Y-95564123D01*
X71946980Y-95554839D01*
X71995771Y-95481817D01*
X71995771Y-95481816D01*
X71995775Y-95481811D01*
X72036292Y-95383994D01*
X72048580Y-95354329D01*
X72053934Y-95327409D01*
X72075500Y-95218993D01*
X72075500Y-93861672D01*
X72095185Y-93794633D01*
X72128375Y-93760098D01*
X72214139Y-93700047D01*
X72240152Y-93674034D01*
X72312819Y-93601368D01*
X72374142Y-93567883D01*
X72443834Y-93572867D01*
X72499767Y-93614739D01*
X72524184Y-93680203D01*
X72524500Y-93689049D01*
X72524500Y-95801006D01*
X72524500Y-95938994D01*
X72524500Y-95938996D01*
X72524499Y-95938996D01*
X72551418Y-96074322D01*
X72551421Y-96074332D01*
X72604222Y-96201807D01*
X72680887Y-96316545D01*
X74763454Y-98399112D01*
X74878192Y-98475777D01*
X75005667Y-98528578D01*
X75005672Y-98528580D01*
X75005676Y-98528580D01*
X75005677Y-98528581D01*
X75141003Y-98555500D01*
X75141006Y-98555500D01*
X75141007Y-98555500D01*
X76527289Y-98555500D01*
X76594328Y-98575185D01*
X76628864Y-98608377D01*
X76711503Y-98726399D01*
X76711504Y-98726400D01*
X76711505Y-98726401D01*
X76833431Y-98848327D01*
X76866915Y-98909648D01*
X76861931Y-98979340D01*
X76820060Y-99035274D01*
X76789083Y-99052189D01*
X76657669Y-99101203D01*
X76657664Y-99101206D01*
X76542455Y-99187452D01*
X76542452Y-99187455D01*
X76456206Y-99302664D01*
X76456202Y-99302671D01*
X76405908Y-99437517D01*
X76399501Y-99497116D01*
X76399501Y-99497123D01*
X76399500Y-99497135D01*
X76399500Y-99570500D01*
X76379815Y-99637539D01*
X76327011Y-99683294D01*
X76275500Y-99694500D01*
X72589188Y-99694500D01*
X72522149Y-99674815D01*
X72487613Y-99641623D01*
X72375045Y-99480858D01*
X72214141Y-99319954D01*
X72027734Y-99189432D01*
X72027732Y-99189431D01*
X71821497Y-99093261D01*
X71821488Y-99093258D01*
X71601697Y-99034366D01*
X71601693Y-99034365D01*
X71601692Y-99034365D01*
X71601691Y-99034364D01*
X71601686Y-99034364D01*
X71375002Y-99014532D01*
X71374998Y-99014532D01*
X71148313Y-99034364D01*
X71148302Y-99034366D01*
X70928511Y-99093258D01*
X70928502Y-99093261D01*
X70722267Y-99189431D01*
X70722265Y-99189432D01*
X70535858Y-99319954D01*
X70374954Y-99480858D01*
X70244432Y-99667265D01*
X70244431Y-99667267D01*
X70148261Y-99873502D01*
X70148258Y-99873511D01*
X70089366Y-100093302D01*
X70089364Y-100093313D01*
X70069532Y-100319998D01*
X70069532Y-100320001D01*
X70089364Y-100546686D01*
X70089366Y-100546697D01*
X70148258Y-100766488D01*
X70148261Y-100766497D01*
X70244431Y-100972732D01*
X70244432Y-100972734D01*
X70374954Y-101159141D01*
X70535858Y-101320045D01*
X70535861Y-101320047D01*
X70722266Y-101450568D01*
X70928504Y-101546739D01*
X71148308Y-101605635D01*
X71310230Y-101619801D01*
X71374998Y-101625468D01*
X71375000Y-101625468D01*
X71375002Y-101625468D01*
X71431673Y-101620509D01*
X71601692Y-101605635D01*
X71821496Y-101546739D01*
X72027734Y-101450568D01*
X72214139Y-101320047D01*
X72375047Y-101159139D01*
X72382583Y-101148377D01*
X72437160Y-101104752D01*
X72484158Y-101095500D01*
X76275501Y-101095500D01*
X76342540Y-101115185D01*
X76388295Y-101167989D01*
X76399501Y-101219500D01*
X76399501Y-101292876D01*
X76405908Y-101352483D01*
X76456202Y-101487328D01*
X76456206Y-101487335D01*
X76542452Y-101602544D01*
X76542455Y-101602547D01*
X76657664Y-101688793D01*
X76657671Y-101688797D01*
X76792517Y-101739091D01*
X76792516Y-101739091D01*
X76799444Y-101739835D01*
X76852127Y-101745500D01*
X78647872Y-101745499D01*
X78707483Y-101739091D01*
X78842331Y-101688796D01*
X78957546Y-101602546D01*
X79043796Y-101487331D01*
X79094091Y-101352483D01*
X79100500Y-101292873D01*
X79100500Y-101219500D01*
X79120185Y-101152461D01*
X79172989Y-101106706D01*
X79224500Y-101095500D01*
X80275501Y-101095500D01*
X80342540Y-101115185D01*
X80388295Y-101167989D01*
X80399501Y-101219500D01*
X80399501Y-101292876D01*
X80405908Y-101352483D01*
X80456202Y-101487328D01*
X80456206Y-101487335D01*
X80542452Y-101602544D01*
X80542455Y-101602547D01*
X80657664Y-101688793D01*
X80657671Y-101688797D01*
X80792517Y-101739091D01*
X80792516Y-101739091D01*
X80799444Y-101739835D01*
X80852127Y-101745500D01*
X82647872Y-101745499D01*
X82707483Y-101739091D01*
X82842331Y-101688796D01*
X82957546Y-101602546D01*
X83043796Y-101487331D01*
X83094091Y-101352483D01*
X83100500Y-101292873D01*
X83100499Y-100426567D01*
X83120183Y-100359529D01*
X83136813Y-100338892D01*
X93769114Y-89706593D01*
X93808786Y-89647219D01*
X93845775Y-89591861D01*
X93884929Y-89497334D01*
X93898580Y-89464379D01*
X93918626Y-89363599D01*
X93925500Y-89329043D01*
X93925500Y-82413750D01*
X93945185Y-82346711D01*
X93961814Y-82326074D01*
X95601412Y-80686475D01*
X95662733Y-80652992D01*
X95732425Y-80657976D01*
X95788358Y-80699848D01*
X95801473Y-80721752D01*
X95815966Y-80752832D01*
X95882596Y-80847989D01*
X95951501Y-80946396D01*
X95951506Y-80946402D01*
X96118597Y-81113493D01*
X96118603Y-81113498D01*
X96304158Y-81243425D01*
X96347783Y-81298002D01*
X96354977Y-81367500D01*
X96323454Y-81429855D01*
X96304158Y-81446575D01*
X96118597Y-81576505D01*
X95951505Y-81743597D01*
X95815965Y-81937169D01*
X95815964Y-81937171D01*
X95716098Y-82151335D01*
X95716094Y-82151344D01*
X95654938Y-82379586D01*
X95654936Y-82379596D01*
X95634341Y-82614999D01*
X95634341Y-82615000D01*
X95654936Y-82850403D01*
X95654938Y-82850413D01*
X95716094Y-83078655D01*
X95716096Y-83078659D01*
X95716097Y-83078663D01*
X95744720Y-83140045D01*
X95815965Y-83292830D01*
X95815967Y-83292834D01*
X95882596Y-83387989D01*
X95951501Y-83486396D01*
X95951506Y-83486402D01*
X96118597Y-83653493D01*
X96118603Y-83653498D01*
X96304158Y-83783425D01*
X96347783Y-83838002D01*
X96354977Y-83907500D01*
X96323454Y-83969855D01*
X96304158Y-83986575D01*
X96118597Y-84116505D01*
X95951505Y-84283597D01*
X95815965Y-84477169D01*
X95815964Y-84477171D01*
X95716098Y-84691335D01*
X95716094Y-84691344D01*
X95654938Y-84919586D01*
X95654936Y-84919596D01*
X95634341Y-85154999D01*
X95634341Y-85155000D01*
X95654936Y-85390403D01*
X95654938Y-85390413D01*
X95716094Y-85618655D01*
X95716096Y-85618659D01*
X95716097Y-85618663D01*
X95796004Y-85790023D01*
X95815965Y-85832830D01*
X95815967Y-85832834D01*
X95882596Y-85927989D01*
X95951501Y-86026396D01*
X95951506Y-86026402D01*
X96118597Y-86193493D01*
X96118603Y-86193498D01*
X96304158Y-86323425D01*
X96347783Y-86378002D01*
X96354977Y-86447500D01*
X96323454Y-86509855D01*
X96304158Y-86526575D01*
X96118597Y-86656505D01*
X95951505Y-86823597D01*
X95815965Y-87017169D01*
X95815964Y-87017171D01*
X95716098Y-87231335D01*
X95716094Y-87231344D01*
X95654938Y-87459586D01*
X95654936Y-87459596D01*
X95634341Y-87694999D01*
X95634341Y-87695000D01*
X95654936Y-87930403D01*
X95654938Y-87930413D01*
X95716094Y-88158655D01*
X95716096Y-88158659D01*
X95716097Y-88158663D01*
X95782366Y-88300776D01*
X95815965Y-88372830D01*
X95815967Y-88372834D01*
X95887855Y-88475500D01*
X95951501Y-88566396D01*
X95951506Y-88566402D01*
X96118597Y-88733493D01*
X96118603Y-88733498D01*
X96304158Y-88863425D01*
X96347783Y-88918002D01*
X96354977Y-88987500D01*
X96323454Y-89049855D01*
X96304158Y-89066575D01*
X96118597Y-89196505D01*
X95951505Y-89363597D01*
X95815965Y-89557169D01*
X95815964Y-89557171D01*
X95716098Y-89771335D01*
X95716094Y-89771344D01*
X95654938Y-89999586D01*
X95654936Y-89999596D01*
X95634341Y-90234999D01*
X95634341Y-90235000D01*
X95654936Y-90470403D01*
X95654938Y-90470413D01*
X95716094Y-90698655D01*
X95716096Y-90698659D01*
X95716097Y-90698663D01*
X95796004Y-90870023D01*
X95815965Y-90912830D01*
X95815967Y-90912834D01*
X95913360Y-91051925D01*
X95951501Y-91106396D01*
X95951506Y-91106402D01*
X96118597Y-91273493D01*
X96118603Y-91273498D01*
X96304158Y-91403425D01*
X96347783Y-91458002D01*
X96354977Y-91527500D01*
X96323454Y-91589855D01*
X96304158Y-91606575D01*
X96118597Y-91736505D01*
X95951505Y-91903597D01*
X95815965Y-92097169D01*
X95815964Y-92097171D01*
X95716098Y-92311335D01*
X95716094Y-92311344D01*
X95654938Y-92539586D01*
X95654936Y-92539596D01*
X95634341Y-92774999D01*
X95634341Y-92775000D01*
X95654936Y-93010403D01*
X95654938Y-93010413D01*
X95716094Y-93238655D01*
X95716096Y-93238659D01*
X95716097Y-93238663D01*
X95773917Y-93362658D01*
X95815965Y-93452830D01*
X95815967Y-93452834D01*
X95924281Y-93607521D01*
X95951501Y-93646396D01*
X95951506Y-93646402D01*
X96118597Y-93813493D01*
X96118603Y-93813498D01*
X96304158Y-93943425D01*
X96347783Y-93998002D01*
X96354977Y-94067500D01*
X96323454Y-94129855D01*
X96304158Y-94146575D01*
X96118597Y-94276505D01*
X95951505Y-94443597D01*
X95815965Y-94637169D01*
X95815964Y-94637171D01*
X95716098Y-94851335D01*
X95716094Y-94851344D01*
X95654938Y-95079586D01*
X95654936Y-95079596D01*
X95634341Y-95314999D01*
X95634341Y-95315000D01*
X95654936Y-95550403D01*
X95654938Y-95550413D01*
X95716094Y-95778655D01*
X95716096Y-95778659D01*
X95716097Y-95778663D01*
X95785494Y-95927485D01*
X95815965Y-95992830D01*
X95815967Y-95992834D01*
X95951501Y-96186395D01*
X95951506Y-96186402D01*
X96118597Y-96353493D01*
X96118603Y-96353498D01*
X96304594Y-96483730D01*
X96348219Y-96538307D01*
X96355413Y-96607805D01*
X96323890Y-96670160D01*
X96304595Y-96686880D01*
X96118922Y-96816890D01*
X96118920Y-96816891D01*
X95951891Y-96983920D01*
X95951886Y-96983926D01*
X95816400Y-97177420D01*
X95816399Y-97177422D01*
X95716570Y-97391507D01*
X95716567Y-97391513D01*
X95659364Y-97604999D01*
X95659364Y-97605000D01*
X96556988Y-97605000D01*
X96524075Y-97662007D01*
X96490000Y-97789174D01*
X96490000Y-97920826D01*
X96524075Y-98047993D01*
X96556988Y-98105000D01*
X95659364Y-98105000D01*
X95716567Y-98318486D01*
X95716570Y-98318492D01*
X95816399Y-98532578D01*
X95951894Y-98726082D01*
X96073946Y-98848134D01*
X96107431Y-98909457D01*
X96102447Y-98979149D01*
X96060575Y-99035082D01*
X96029598Y-99051997D01*
X95897671Y-99101202D01*
X95897664Y-99101206D01*
X95782455Y-99187452D01*
X95782452Y-99187455D01*
X95696206Y-99302664D01*
X95696202Y-99302671D01*
X95645908Y-99437517D01*
X95639501Y-99497116D01*
X95639501Y-99497123D01*
X95639500Y-99497135D01*
X95639500Y-101292870D01*
X95639501Y-101292876D01*
X95645908Y-101352483D01*
X95696202Y-101487328D01*
X95696206Y-101487335D01*
X95782452Y-101602544D01*
X95782455Y-101602547D01*
X95897664Y-101688793D01*
X95897671Y-101688797D01*
X96032517Y-101739091D01*
X96032516Y-101739091D01*
X96039444Y-101739835D01*
X96092127Y-101745500D01*
X97887872Y-101745499D01*
X97947483Y-101739091D01*
X98082331Y-101688796D01*
X98197546Y-101602546D01*
X98283796Y-101487331D01*
X98334091Y-101352483D01*
X98339062Y-101306242D01*
X98365799Y-101241694D01*
X98423191Y-101201846D01*
X98462351Y-101195500D01*
X99517649Y-101195500D01*
X99584688Y-101215185D01*
X99630443Y-101267989D01*
X99640939Y-101306248D01*
X99645908Y-101352483D01*
X99696202Y-101487328D01*
X99696206Y-101487335D01*
X99782452Y-101602544D01*
X99782455Y-101602547D01*
X99897664Y-101688793D01*
X99897671Y-101688797D01*
X100032517Y-101739091D01*
X100032516Y-101739091D01*
X100039444Y-101739835D01*
X100092127Y-101745500D01*
X101887872Y-101745499D01*
X101947483Y-101739091D01*
X102082331Y-101688796D01*
X102197546Y-101602546D01*
X102283796Y-101487331D01*
X102334091Y-101352483D01*
X102339062Y-101306242D01*
X102365799Y-101241694D01*
X102423191Y-101201846D01*
X102462351Y-101195500D01*
X108537309Y-101195500D01*
X108604348Y-101215185D01*
X108638884Y-101248376D01*
X108651508Y-101266405D01*
X108737586Y-101352482D01*
X108818599Y-101433495D01*
X108915384Y-101501265D01*
X109012165Y-101569032D01*
X109012167Y-101569033D01*
X109012170Y-101569035D01*
X109226337Y-101668903D01*
X109454592Y-101730063D01*
X109631034Y-101745500D01*
X109689999Y-101750659D01*
X109690000Y-101750659D01*
X109690001Y-101750659D01*
X109748966Y-101745500D01*
X109925408Y-101730063D01*
X110153663Y-101668903D01*
X110367830Y-101569035D01*
X110561401Y-101433495D01*
X110728495Y-101266401D01*
X110741116Y-101248375D01*
X110795693Y-101204752D01*
X110842691Y-101195500D01*
X111077309Y-101195500D01*
X111144348Y-101215185D01*
X111178884Y-101248376D01*
X111191508Y-101266405D01*
X111277586Y-101352482D01*
X111358599Y-101433495D01*
X111455384Y-101501265D01*
X111552165Y-101569032D01*
X111552167Y-101569033D01*
X111552170Y-101569035D01*
X111766337Y-101668903D01*
X111994592Y-101730063D01*
X112171034Y-101745500D01*
X112229999Y-101750659D01*
X112230000Y-101750659D01*
X112230001Y-101750659D01*
X112288966Y-101745500D01*
X112465408Y-101730063D01*
X112693663Y-101668903D01*
X112907830Y-101569035D01*
X113101401Y-101433495D01*
X113268495Y-101266401D01*
X113281116Y-101248375D01*
X113335693Y-101204752D01*
X113382691Y-101195500D01*
X113617309Y-101195500D01*
X113684348Y-101215185D01*
X113718884Y-101248376D01*
X113731508Y-101266405D01*
X113817586Y-101352482D01*
X113898599Y-101433495D01*
X113995384Y-101501265D01*
X114092165Y-101569032D01*
X114092167Y-101569033D01*
X114092170Y-101569035D01*
X114306337Y-101668903D01*
X114534592Y-101730063D01*
X114711034Y-101745500D01*
X114769999Y-101750659D01*
X114770000Y-101750659D01*
X114770001Y-101750659D01*
X114828966Y-101745500D01*
X115005408Y-101730063D01*
X115233663Y-101668903D01*
X115447830Y-101569035D01*
X115641401Y-101433495D01*
X115808495Y-101266401D01*
X115821116Y-101248375D01*
X115875693Y-101204752D01*
X115922691Y-101195500D01*
X116157309Y-101195500D01*
X116224348Y-101215185D01*
X116258884Y-101248376D01*
X116271508Y-101266405D01*
X116357586Y-101352482D01*
X116438599Y-101433495D01*
X116535384Y-101501265D01*
X116632165Y-101569032D01*
X116632167Y-101569033D01*
X116632170Y-101569035D01*
X116846337Y-101668903D01*
X117074592Y-101730063D01*
X117251034Y-101745500D01*
X117309999Y-101750659D01*
X117310000Y-101750659D01*
X117310001Y-101750659D01*
X117368966Y-101745500D01*
X117545408Y-101730063D01*
X117773663Y-101668903D01*
X117987830Y-101569035D01*
X118181401Y-101433495D01*
X118348495Y-101266401D01*
X118361116Y-101248375D01*
X118415693Y-101204752D01*
X118462691Y-101195500D01*
X118697309Y-101195500D01*
X118764348Y-101215185D01*
X118798884Y-101248376D01*
X118811508Y-101266405D01*
X118897586Y-101352482D01*
X118978599Y-101433495D01*
X119075384Y-101501265D01*
X119172165Y-101569032D01*
X119172167Y-101569033D01*
X119172170Y-101569035D01*
X119386337Y-101668903D01*
X119614592Y-101730063D01*
X119791034Y-101745500D01*
X119849999Y-101750659D01*
X119850000Y-101750659D01*
X119850001Y-101750659D01*
X119908966Y-101745500D01*
X120085408Y-101730063D01*
X120313663Y-101668903D01*
X120527830Y-101569035D01*
X120721401Y-101433495D01*
X120888495Y-101266401D01*
X120901116Y-101248375D01*
X120955693Y-101204752D01*
X121002691Y-101195500D01*
X121237309Y-101195500D01*
X121304348Y-101215185D01*
X121338884Y-101248376D01*
X121351508Y-101266405D01*
X121437586Y-101352482D01*
X121518599Y-101433495D01*
X121615384Y-101501265D01*
X121712165Y-101569032D01*
X121712167Y-101569033D01*
X121712170Y-101569035D01*
X121926337Y-101668903D01*
X122154592Y-101730063D01*
X122331034Y-101745500D01*
X122389999Y-101750659D01*
X122390000Y-101750659D01*
X122390001Y-101750659D01*
X122448966Y-101745500D01*
X122625408Y-101730063D01*
X122853663Y-101668903D01*
X123067830Y-101569035D01*
X123261401Y-101433495D01*
X123428495Y-101266401D01*
X123441116Y-101248375D01*
X123495693Y-101204752D01*
X123542691Y-101195500D01*
X123777309Y-101195500D01*
X123844348Y-101215185D01*
X123878884Y-101248376D01*
X123891508Y-101266405D01*
X123977586Y-101352482D01*
X124058599Y-101433495D01*
X124155384Y-101501265D01*
X124252165Y-101569032D01*
X124252167Y-101569033D01*
X124252170Y-101569035D01*
X124466337Y-101668903D01*
X124694592Y-101730063D01*
X124871034Y-101745500D01*
X124929999Y-101750659D01*
X124930000Y-101750659D01*
X124930001Y-101750659D01*
X124988966Y-101745500D01*
X125165408Y-101730063D01*
X125393663Y-101668903D01*
X125607830Y-101569035D01*
X125801401Y-101433495D01*
X125968495Y-101266401D01*
X125981116Y-101248375D01*
X126035693Y-101204752D01*
X126082691Y-101195500D01*
X126317309Y-101195500D01*
X126384348Y-101215185D01*
X126418884Y-101248376D01*
X126431508Y-101266405D01*
X126517586Y-101352482D01*
X126598599Y-101433495D01*
X126695384Y-101501265D01*
X126792165Y-101569032D01*
X126792167Y-101569033D01*
X126792170Y-101569035D01*
X127006337Y-101668903D01*
X127234592Y-101730063D01*
X127411034Y-101745500D01*
X127469999Y-101750659D01*
X127470000Y-101750659D01*
X127470001Y-101750659D01*
X127528966Y-101745500D01*
X127705408Y-101730063D01*
X127933663Y-101668903D01*
X128147830Y-101569035D01*
X128341401Y-101433495D01*
X128508495Y-101266401D01*
X128521116Y-101248375D01*
X128575693Y-101204752D01*
X128622691Y-101195500D01*
X128857309Y-101195500D01*
X128924348Y-101215185D01*
X128958884Y-101248376D01*
X128971508Y-101266405D01*
X129057586Y-101352482D01*
X129138599Y-101433495D01*
X129235384Y-101501265D01*
X129332165Y-101569032D01*
X129332167Y-101569033D01*
X129332170Y-101569035D01*
X129546337Y-101668903D01*
X129774592Y-101730063D01*
X129951034Y-101745500D01*
X130009999Y-101750659D01*
X130010000Y-101750659D01*
X130010001Y-101750659D01*
X130068966Y-101745500D01*
X130245408Y-101730063D01*
X130473663Y-101668903D01*
X130687830Y-101569035D01*
X130881401Y-101433495D01*
X131048495Y-101266401D01*
X131061116Y-101248375D01*
X131115693Y-101204752D01*
X131162691Y-101195500D01*
X131397309Y-101195500D01*
X131464348Y-101215185D01*
X131498884Y-101248376D01*
X131511508Y-101266405D01*
X131597586Y-101352482D01*
X131678599Y-101433495D01*
X131775384Y-101501265D01*
X131872165Y-101569032D01*
X131872167Y-101569033D01*
X131872170Y-101569035D01*
X132086337Y-101668903D01*
X132314592Y-101730063D01*
X132491034Y-101745500D01*
X132549999Y-101750659D01*
X132550000Y-101750659D01*
X132550001Y-101750659D01*
X132608966Y-101745500D01*
X132785408Y-101730063D01*
X133013663Y-101668903D01*
X133227830Y-101569035D01*
X133421401Y-101433495D01*
X133588495Y-101266401D01*
X133601116Y-101248375D01*
X133655693Y-101204752D01*
X133702691Y-101195500D01*
X133937309Y-101195500D01*
X134004348Y-101215185D01*
X134038884Y-101248376D01*
X134051508Y-101266405D01*
X134137586Y-101352482D01*
X134218599Y-101433495D01*
X134315384Y-101501265D01*
X134412165Y-101569032D01*
X134412167Y-101569033D01*
X134412170Y-101569035D01*
X134626337Y-101668903D01*
X134854592Y-101730063D01*
X135031034Y-101745500D01*
X135089999Y-101750659D01*
X135090000Y-101750659D01*
X135090001Y-101750659D01*
X135148966Y-101745500D01*
X135325408Y-101730063D01*
X135553663Y-101668903D01*
X135767830Y-101569035D01*
X135961401Y-101433495D01*
X136128495Y-101266401D01*
X136141116Y-101248375D01*
X136195693Y-101204752D01*
X136242691Y-101195500D01*
X136477309Y-101195500D01*
X136544348Y-101215185D01*
X136578884Y-101248376D01*
X136591508Y-101266405D01*
X136677586Y-101352482D01*
X136758599Y-101433495D01*
X136855384Y-101501265D01*
X136952165Y-101569032D01*
X136952167Y-101569033D01*
X136952170Y-101569035D01*
X137166337Y-101668903D01*
X137394592Y-101730063D01*
X137571034Y-101745500D01*
X137629999Y-101750659D01*
X137630000Y-101750659D01*
X137630001Y-101750659D01*
X137688966Y-101745500D01*
X137865408Y-101730063D01*
X138093663Y-101668903D01*
X138307830Y-101569035D01*
X138501401Y-101433495D01*
X138668495Y-101266401D01*
X138681116Y-101248375D01*
X138735693Y-101204752D01*
X138782691Y-101195500D01*
X139017309Y-101195500D01*
X139084348Y-101215185D01*
X139118884Y-101248376D01*
X139131508Y-101266405D01*
X139217586Y-101352482D01*
X139298599Y-101433495D01*
X139395384Y-101501265D01*
X139492165Y-101569032D01*
X139492167Y-101569033D01*
X139492170Y-101569035D01*
X139706337Y-101668903D01*
X139934592Y-101730063D01*
X140111034Y-101745500D01*
X140169999Y-101750659D01*
X140170000Y-101750659D01*
X140170001Y-101750659D01*
X140228966Y-101745500D01*
X140405408Y-101730063D01*
X140633663Y-101668903D01*
X140847830Y-101569035D01*
X141041401Y-101433495D01*
X141208495Y-101266401D01*
X141221116Y-101248375D01*
X141275693Y-101204752D01*
X141322691Y-101195500D01*
X141557309Y-101195500D01*
X141624348Y-101215185D01*
X141658884Y-101248376D01*
X141671508Y-101266405D01*
X141757586Y-101352482D01*
X141838599Y-101433495D01*
X141935384Y-101501265D01*
X142032165Y-101569032D01*
X142032167Y-101569033D01*
X142032170Y-101569035D01*
X142246337Y-101668903D01*
X142474592Y-101730063D01*
X142651034Y-101745500D01*
X142709999Y-101750659D01*
X142710000Y-101750659D01*
X142710001Y-101750659D01*
X142768966Y-101745500D01*
X142945408Y-101730063D01*
X143173663Y-101668903D01*
X143387830Y-101569035D01*
X143581401Y-101433495D01*
X143748495Y-101266401D01*
X143761116Y-101248375D01*
X143815693Y-101204752D01*
X143862691Y-101195500D01*
X144097309Y-101195500D01*
X144164348Y-101215185D01*
X144198884Y-101248376D01*
X144211508Y-101266405D01*
X144297586Y-101352482D01*
X144378599Y-101433495D01*
X144475384Y-101501265D01*
X144572165Y-101569032D01*
X144572167Y-101569033D01*
X144572170Y-101569035D01*
X144786337Y-101668903D01*
X145014592Y-101730063D01*
X145191034Y-101745500D01*
X145249999Y-101750659D01*
X145250000Y-101750659D01*
X145250001Y-101750659D01*
X145308966Y-101745500D01*
X145485408Y-101730063D01*
X145713663Y-101668903D01*
X145927830Y-101569035D01*
X146121401Y-101433495D01*
X146288495Y-101266401D01*
X146301116Y-101248375D01*
X146355693Y-101204752D01*
X146402691Y-101195500D01*
X146637309Y-101195500D01*
X146704348Y-101215185D01*
X146738884Y-101248376D01*
X146751508Y-101266405D01*
X146837586Y-101352482D01*
X146918599Y-101433495D01*
X147015384Y-101501265D01*
X147112165Y-101569032D01*
X147112167Y-101569033D01*
X147112170Y-101569035D01*
X147326337Y-101668903D01*
X147554592Y-101730063D01*
X147731034Y-101745500D01*
X147789999Y-101750659D01*
X147790000Y-101750659D01*
X147790001Y-101750659D01*
X147848966Y-101745500D01*
X148025408Y-101730063D01*
X148253663Y-101668903D01*
X148467830Y-101569035D01*
X148661401Y-101433495D01*
X148828495Y-101266401D01*
X148964035Y-101072830D01*
X149063903Y-100858663D01*
X149125063Y-100630408D01*
X149145659Y-100395000D01*
X149125063Y-100159592D01*
X149063903Y-99931337D01*
X148964035Y-99717171D01*
X148940315Y-99683294D01*
X148828494Y-99523597D01*
X148661402Y-99356506D01*
X148661401Y-99356505D01*
X148475405Y-99226269D01*
X148431781Y-99171692D01*
X148424588Y-99102193D01*
X148456110Y-99039839D01*
X148475405Y-99023119D01*
X148661082Y-98893105D01*
X148828105Y-98726082D01*
X148963600Y-98532578D01*
X149063429Y-98318492D01*
X149063432Y-98318486D01*
X149120636Y-98105000D01*
X148223012Y-98105000D01*
X148255925Y-98047993D01*
X148290000Y-97920826D01*
X148290000Y-97789174D01*
X148255925Y-97662007D01*
X148223012Y-97605000D01*
X149120636Y-97605000D01*
X149120635Y-97604999D01*
X149063432Y-97391513D01*
X149063429Y-97391507D01*
X148963600Y-97177422D01*
X148963599Y-97177420D01*
X148828113Y-96983926D01*
X148828108Y-96983920D01*
X148661078Y-96816890D01*
X148475405Y-96686879D01*
X148431780Y-96632302D01*
X148424588Y-96562804D01*
X148456110Y-96500449D01*
X148475406Y-96483730D01*
X148614106Y-96386611D01*
X148661401Y-96353495D01*
X148828495Y-96186401D01*
X148964035Y-95992830D01*
X149063903Y-95778663D01*
X149125063Y-95550408D01*
X149145659Y-95315000D01*
X149125063Y-95079592D01*
X149063903Y-94851337D01*
X148964035Y-94637171D01*
X148947149Y-94613054D01*
X148828494Y-94443597D01*
X148661402Y-94276506D01*
X148661396Y-94276501D01*
X148475842Y-94146575D01*
X148432217Y-94091998D01*
X148425023Y-94022500D01*
X148456546Y-93960145D01*
X148475842Y-93943425D01*
X148534500Y-93902352D01*
X148661401Y-93813495D01*
X148828495Y-93646401D01*
X148964035Y-93452830D01*
X149063903Y-93238663D01*
X149125063Y-93010408D01*
X149145659Y-92775000D01*
X149125063Y-92539592D01*
X149063903Y-92311337D01*
X148964035Y-92097171D01*
X148958425Y-92089158D01*
X148828494Y-91903597D01*
X148661402Y-91736506D01*
X148661396Y-91736501D01*
X148475842Y-91606575D01*
X148432217Y-91551998D01*
X148425023Y-91482500D01*
X148456546Y-91420145D01*
X148475842Y-91403425D01*
X148525297Y-91368796D01*
X148661401Y-91273495D01*
X148828495Y-91106401D01*
X148964035Y-90912830D01*
X149063903Y-90698663D01*
X149125063Y-90470408D01*
X149145659Y-90235000D01*
X149125063Y-89999592D01*
X149069431Y-89791967D01*
X149063905Y-89771344D01*
X149063904Y-89771343D01*
X149063903Y-89771337D01*
X148964035Y-89557171D01*
X148958425Y-89549158D01*
X148828494Y-89363597D01*
X148661402Y-89196506D01*
X148661396Y-89196501D01*
X148475842Y-89066575D01*
X148432217Y-89011998D01*
X148425023Y-88942500D01*
X148456546Y-88880145D01*
X148475842Y-88863425D01*
X148498026Y-88847891D01*
X148661401Y-88733495D01*
X148828495Y-88566401D01*
X148964035Y-88372830D01*
X149063903Y-88158663D01*
X149125063Y-87930408D01*
X149145659Y-87695000D01*
X149145021Y-87687713D01*
X149130692Y-87523933D01*
X149125063Y-87459592D01*
X149063903Y-87231337D01*
X148964035Y-87017171D01*
X148963867Y-87016930D01*
X148828494Y-86823597D01*
X148661402Y-86656506D01*
X148661396Y-86656501D01*
X148475842Y-86526575D01*
X148432217Y-86471998D01*
X148425023Y-86402500D01*
X148456546Y-86340145D01*
X148475842Y-86323425D01*
X148503848Y-86303815D01*
X148661401Y-86193495D01*
X148828495Y-86026401D01*
X148964035Y-85832830D01*
X149063903Y-85618663D01*
X149125063Y-85390408D01*
X149145659Y-85155000D01*
X149125063Y-84919592D01*
X149072585Y-84723740D01*
X149063905Y-84691344D01*
X149063904Y-84691343D01*
X149063903Y-84691337D01*
X148964035Y-84477171D01*
X148958425Y-84469158D01*
X148828494Y-84283597D01*
X148661402Y-84116506D01*
X148661396Y-84116501D01*
X148475842Y-83986575D01*
X148432217Y-83931998D01*
X148425023Y-83862500D01*
X148456546Y-83800145D01*
X148475842Y-83783425D01*
X148498026Y-83767891D01*
X148661401Y-83653495D01*
X148828495Y-83486401D01*
X148964035Y-83292830D01*
X149063903Y-83078663D01*
X149125063Y-82850408D01*
X149145659Y-82615000D01*
X149143164Y-82586488D01*
X149134461Y-82487012D01*
X149125063Y-82379592D01*
X149063903Y-82151337D01*
X148964035Y-81937171D01*
X148958425Y-81929158D01*
X148828494Y-81743597D01*
X148661402Y-81576506D01*
X148661396Y-81576501D01*
X148475842Y-81446575D01*
X148432217Y-81391998D01*
X148425023Y-81322500D01*
X148456546Y-81260145D01*
X148475842Y-81243425D01*
X148623615Y-81139953D01*
X148661401Y-81113495D01*
X148828495Y-80946401D01*
X148964035Y-80752830D01*
X149063903Y-80538663D01*
X149125063Y-80310408D01*
X149145659Y-80075000D01*
X149125063Y-79839592D01*
X149063903Y-79611337D01*
X148964035Y-79397171D01*
X148958425Y-79389158D01*
X148828494Y-79203597D01*
X148661402Y-79036506D01*
X148661396Y-79036501D01*
X148475842Y-78906575D01*
X148432217Y-78851998D01*
X148425023Y-78782500D01*
X148456546Y-78720145D01*
X148475842Y-78703425D01*
X148500142Y-78686410D01*
X148661401Y-78573495D01*
X148828495Y-78406401D01*
X148964035Y-78212830D01*
X149063903Y-77998663D01*
X149125063Y-77770408D01*
X149145659Y-77535000D01*
X149125063Y-77299592D01*
X149063903Y-77071337D01*
X148964035Y-76857171D01*
X148958425Y-76849158D01*
X148828494Y-76663597D01*
X148661402Y-76496506D01*
X148661396Y-76496501D01*
X148475842Y-76366575D01*
X148432217Y-76311998D01*
X148425023Y-76242500D01*
X148456546Y-76180145D01*
X148475842Y-76163425D01*
X148599642Y-76076739D01*
X148661401Y-76033495D01*
X148828495Y-75866401D01*
X148964035Y-75672830D01*
X149063903Y-75458663D01*
X149125063Y-75230408D01*
X149145659Y-74995000D01*
X149125063Y-74759592D01*
X149063903Y-74531337D01*
X148964035Y-74317171D01*
X148958425Y-74309158D01*
X148828494Y-74123597D01*
X148661402Y-73956506D01*
X148661396Y-73956501D01*
X148475842Y-73826575D01*
X148432217Y-73771998D01*
X148425023Y-73702500D01*
X148456546Y-73640145D01*
X148475842Y-73623425D01*
X148560188Y-73564365D01*
X148661401Y-73493495D01*
X148828495Y-73326401D01*
X148964035Y-73132830D01*
X149063903Y-72918663D01*
X149125063Y-72690408D01*
X149145659Y-72455000D01*
X149125063Y-72219592D01*
X149063903Y-71991337D01*
X148964035Y-71777171D01*
X148958425Y-71769158D01*
X148828494Y-71583597D01*
X148661402Y-71416506D01*
X148661396Y-71416501D01*
X148475842Y-71286575D01*
X148432217Y-71231998D01*
X148425023Y-71162500D01*
X148456546Y-71100145D01*
X148475842Y-71083425D01*
X148498026Y-71067891D01*
X148661401Y-70953495D01*
X148828495Y-70786401D01*
X148964035Y-70592830D01*
X149063903Y-70378663D01*
X149125063Y-70150408D01*
X149145659Y-69915000D01*
X149125063Y-69679592D01*
X149063903Y-69451337D01*
X148964035Y-69237171D01*
X148958425Y-69229158D01*
X148828494Y-69043597D01*
X148661402Y-68876506D01*
X148661396Y-68876501D01*
X148475842Y-68746575D01*
X148432217Y-68691998D01*
X148425023Y-68622500D01*
X148456546Y-68560145D01*
X148475842Y-68543425D01*
X148498026Y-68527891D01*
X148661401Y-68413495D01*
X148828495Y-68246401D01*
X148964035Y-68052830D01*
X149063903Y-67838663D01*
X149125063Y-67610408D01*
X149145659Y-67375000D01*
X149125063Y-67139592D01*
X149063903Y-66911337D01*
X148964035Y-66697171D01*
X148958425Y-66689158D01*
X148828494Y-66503597D01*
X148661402Y-66336506D01*
X148661396Y-66336501D01*
X148475842Y-66206575D01*
X148432217Y-66151998D01*
X148425023Y-66082500D01*
X148456546Y-66020145D01*
X148475842Y-66003425D01*
X148560188Y-65944365D01*
X148661401Y-65873495D01*
X148828495Y-65706401D01*
X148964035Y-65512830D01*
X149063903Y-65298663D01*
X149125063Y-65070408D01*
X149145659Y-64835000D01*
X149125063Y-64599592D01*
X149063903Y-64371337D01*
X148964035Y-64157171D01*
X148958425Y-64149158D01*
X148828494Y-63963597D01*
X148661402Y-63796506D01*
X148661396Y-63796501D01*
X148475842Y-63666575D01*
X148432217Y-63611998D01*
X148425023Y-63542500D01*
X148456546Y-63480145D01*
X148475842Y-63463425D01*
X148631554Y-63354394D01*
X148661401Y-63333495D01*
X148828495Y-63166401D01*
X148964035Y-62972830D01*
X149063903Y-62758663D01*
X149125063Y-62530408D01*
X149145659Y-62295000D01*
X149144518Y-62281964D01*
X149130433Y-62120973D01*
X149125063Y-62059592D01*
X149063903Y-61831337D01*
X148964035Y-61617171D01*
X148958425Y-61609158D01*
X148828494Y-61423597D01*
X148661402Y-61256506D01*
X148661396Y-61256501D01*
X148475842Y-61126575D01*
X148432217Y-61071998D01*
X148425023Y-61002500D01*
X148456546Y-60940145D01*
X148475842Y-60923425D01*
X148498026Y-60907891D01*
X148661401Y-60793495D01*
X148828495Y-60626401D01*
X148964035Y-60432830D01*
X149063903Y-60218663D01*
X149125063Y-59990408D01*
X149145659Y-59755000D01*
X149125063Y-59519592D01*
X149063903Y-59291337D01*
X148964035Y-59077171D01*
X148958425Y-59069158D01*
X148828494Y-58883597D01*
X148661402Y-58716506D01*
X148661396Y-58716501D01*
X148475842Y-58586575D01*
X148432217Y-58531998D01*
X148425023Y-58462500D01*
X148456546Y-58400145D01*
X148475842Y-58383425D01*
X148535897Y-58341374D01*
X148661401Y-58253495D01*
X148828495Y-58086401D01*
X148964035Y-57892830D01*
X149063903Y-57678663D01*
X149125063Y-57450408D01*
X149145659Y-57215000D01*
X149125063Y-56979592D01*
X149063903Y-56751337D01*
X148964035Y-56537171D01*
X148958425Y-56529158D01*
X148828494Y-56343597D01*
X148661402Y-56176506D01*
X148661396Y-56176501D01*
X148475842Y-56046575D01*
X148432217Y-55991998D01*
X148425023Y-55922500D01*
X148456546Y-55860145D01*
X148475842Y-55843425D01*
X148537448Y-55800288D01*
X148661401Y-55713495D01*
X148828495Y-55546401D01*
X148964035Y-55352830D01*
X149063903Y-55138663D01*
X149125063Y-54910408D01*
X149145659Y-54675000D01*
X149125063Y-54439592D01*
X149063903Y-54211337D01*
X148964035Y-53997171D01*
X148958425Y-53989158D01*
X148828494Y-53803597D01*
X148661402Y-53636506D01*
X148661401Y-53636505D01*
X148475405Y-53506269D01*
X148431781Y-53451692D01*
X148424588Y-53382193D01*
X148456110Y-53319839D01*
X148475405Y-53303119D01*
X148661082Y-53173105D01*
X148828105Y-53006082D01*
X148963600Y-52812578D01*
X149063429Y-52598492D01*
X149063432Y-52598486D01*
X149120636Y-52385000D01*
X148223012Y-52385000D01*
X148255925Y-52327993D01*
X148290000Y-52200826D01*
X148290000Y-52069174D01*
X148255925Y-51942007D01*
X148223012Y-51885000D01*
X149120636Y-51885000D01*
X149120635Y-51884999D01*
X149063432Y-51671513D01*
X149063429Y-51671507D01*
X148963600Y-51457422D01*
X148963599Y-51457420D01*
X148828113Y-51263926D01*
X148828108Y-51263920D01*
X148661082Y-51096894D01*
X148467578Y-50961399D01*
X148253492Y-50861570D01*
X148253486Y-50861567D01*
X148040000Y-50804364D01*
X148040000Y-51701988D01*
X147982993Y-51669075D01*
X147855826Y-51635000D01*
X147724174Y-51635000D01*
X147597007Y-51669075D01*
X147540000Y-51701988D01*
X147540000Y-50804364D01*
X147539999Y-50804364D01*
X147326513Y-50861567D01*
X147326507Y-50861570D01*
X147112422Y-50961399D01*
X147112420Y-50961400D01*
X146918926Y-51096886D01*
X146918920Y-51096891D01*
X146751891Y-51263920D01*
X146751890Y-51263922D01*
X146621575Y-51450031D01*
X146566998Y-51493655D01*
X146497499Y-51500848D01*
X146435145Y-51469326D01*
X146418425Y-51450031D01*
X146288109Y-51263922D01*
X146288108Y-51263920D01*
X146121082Y-51096894D01*
X145927578Y-50961399D01*
X145713492Y-50861570D01*
X145713486Y-50861567D01*
X145500000Y-50804364D01*
X145500000Y-51701988D01*
X145442993Y-51669075D01*
X145315826Y-51635000D01*
X145184174Y-51635000D01*
X145057007Y-51669075D01*
X145000000Y-51701988D01*
X145000000Y-50804364D01*
X144999999Y-50804364D01*
X144786513Y-50861567D01*
X144786507Y-50861570D01*
X144572422Y-50961399D01*
X144572420Y-50961400D01*
X144378926Y-51096886D01*
X144378920Y-51096891D01*
X144211891Y-51263920D01*
X144211890Y-51263922D01*
X144081575Y-51450031D01*
X144026998Y-51493655D01*
X143957499Y-51500848D01*
X143895145Y-51469326D01*
X143878425Y-51450031D01*
X143748109Y-51263922D01*
X143748108Y-51263920D01*
X143581082Y-51096894D01*
X143387578Y-50961399D01*
X143173492Y-50861570D01*
X143173486Y-50861567D01*
X142960000Y-50804364D01*
X142960000Y-51701988D01*
X142902993Y-51669075D01*
X142775826Y-51635000D01*
X142644174Y-51635000D01*
X142517007Y-51669075D01*
X142460000Y-51701988D01*
X142460000Y-50804364D01*
X142459999Y-50804364D01*
X142246513Y-50861567D01*
X142246507Y-50861570D01*
X142032422Y-50961399D01*
X142032420Y-50961400D01*
X141838926Y-51096886D01*
X141838920Y-51096891D01*
X141671891Y-51263920D01*
X141671890Y-51263922D01*
X141541575Y-51450031D01*
X141486998Y-51493655D01*
X141417499Y-51500848D01*
X141355145Y-51469326D01*
X141338425Y-51450031D01*
X141208109Y-51263922D01*
X141208108Y-51263920D01*
X141041082Y-51096894D01*
X140847578Y-50961399D01*
X140633492Y-50861570D01*
X140633486Y-50861567D01*
X140420000Y-50804364D01*
X140420000Y-51701988D01*
X140362993Y-51669075D01*
X140235826Y-51635000D01*
X140104174Y-51635000D01*
X139977007Y-51669075D01*
X139920000Y-51701988D01*
X139920000Y-50804364D01*
X139919999Y-50804364D01*
X139706513Y-50861567D01*
X139706507Y-50861570D01*
X139492422Y-50961399D01*
X139492420Y-50961400D01*
X139298926Y-51096886D01*
X139298920Y-51096891D01*
X139131891Y-51263920D01*
X139131890Y-51263922D01*
X139001575Y-51450031D01*
X138946998Y-51493655D01*
X138877499Y-51500848D01*
X138815145Y-51469326D01*
X138798425Y-51450031D01*
X138668109Y-51263922D01*
X138668108Y-51263920D01*
X138501082Y-51096894D01*
X138307578Y-50961399D01*
X138093492Y-50861570D01*
X138093486Y-50861567D01*
X137880000Y-50804364D01*
X137880000Y-51701988D01*
X137822993Y-51669075D01*
X137695826Y-51635000D01*
X137564174Y-51635000D01*
X137437007Y-51669075D01*
X137380000Y-51701988D01*
X137380000Y-50804364D01*
X137379999Y-50804364D01*
X137166513Y-50861567D01*
X137166507Y-50861570D01*
X136952422Y-50961399D01*
X136952420Y-50961400D01*
X136758926Y-51096886D01*
X136758920Y-51096891D01*
X136591891Y-51263920D01*
X136591890Y-51263922D01*
X136461575Y-51450031D01*
X136406998Y-51493655D01*
X136337499Y-51500848D01*
X136275145Y-51469326D01*
X136258425Y-51450031D01*
X136128109Y-51263922D01*
X136128108Y-51263920D01*
X135961082Y-51096894D01*
X135767578Y-50961399D01*
X135553492Y-50861570D01*
X135553486Y-50861567D01*
X135340000Y-50804364D01*
X135340000Y-51701988D01*
X135282993Y-51669075D01*
X135155826Y-51635000D01*
X135024174Y-51635000D01*
X134897007Y-51669075D01*
X134840000Y-51701988D01*
X134840000Y-50804364D01*
X134839999Y-50804364D01*
X134626513Y-50861567D01*
X134626507Y-50861570D01*
X134412422Y-50961399D01*
X134412420Y-50961400D01*
X134218926Y-51096886D01*
X134218920Y-51096891D01*
X134051891Y-51263920D01*
X134051890Y-51263922D01*
X133921575Y-51450031D01*
X133866998Y-51493655D01*
X133797499Y-51500848D01*
X133735145Y-51469326D01*
X133718425Y-51450031D01*
X133588109Y-51263922D01*
X133588108Y-51263920D01*
X133421082Y-51096894D01*
X133227578Y-50961399D01*
X133013492Y-50861570D01*
X133013486Y-50861567D01*
X132800000Y-50804364D01*
X132800000Y-51701988D01*
X132742993Y-51669075D01*
X132615826Y-51635000D01*
X132484174Y-51635000D01*
X132357007Y-51669075D01*
X132300000Y-51701988D01*
X132300000Y-50804364D01*
X132299999Y-50804364D01*
X132086513Y-50861567D01*
X132086507Y-50861570D01*
X131872422Y-50961399D01*
X131872420Y-50961400D01*
X131678926Y-51096886D01*
X131678920Y-51096891D01*
X131511891Y-51263920D01*
X131511890Y-51263922D01*
X131381575Y-51450031D01*
X131326998Y-51493655D01*
X131257499Y-51500848D01*
X131195145Y-51469326D01*
X131178425Y-51450031D01*
X131048109Y-51263922D01*
X131048108Y-51263920D01*
X130881082Y-51096894D01*
X130687578Y-50961399D01*
X130473492Y-50861570D01*
X130473486Y-50861567D01*
X130260000Y-50804364D01*
X130260000Y-51701988D01*
X130202993Y-51669075D01*
X130075826Y-51635000D01*
X129944174Y-51635000D01*
X129817007Y-51669075D01*
X129760000Y-51701988D01*
X129760000Y-50804364D01*
X129759999Y-50804364D01*
X129546513Y-50861567D01*
X129546507Y-50861570D01*
X129332422Y-50961399D01*
X129332420Y-50961400D01*
X129138926Y-51096886D01*
X129138920Y-51096891D01*
X128971891Y-51263920D01*
X128971890Y-51263922D01*
X128841575Y-51450031D01*
X128786998Y-51493655D01*
X128717499Y-51500848D01*
X128655145Y-51469326D01*
X128638425Y-51450031D01*
X128508109Y-51263922D01*
X128508108Y-51263920D01*
X128341082Y-51096894D01*
X128147578Y-50961399D01*
X127933492Y-50861570D01*
X127933486Y-50861567D01*
X127720000Y-50804364D01*
X127720000Y-51701988D01*
X127662993Y-51669075D01*
X127535826Y-51635000D01*
X127404174Y-51635000D01*
X127277007Y-51669075D01*
X127220000Y-51701988D01*
X127220000Y-50804364D01*
X127219999Y-50804364D01*
X127006513Y-50861567D01*
X127006507Y-50861570D01*
X126792422Y-50961399D01*
X126792420Y-50961400D01*
X126598926Y-51096886D01*
X126598920Y-51096891D01*
X126431891Y-51263920D01*
X126431890Y-51263922D01*
X126301575Y-51450031D01*
X126246998Y-51493655D01*
X126177499Y-51500848D01*
X126115145Y-51469326D01*
X126098425Y-51450031D01*
X125968109Y-51263922D01*
X125968108Y-51263920D01*
X125801082Y-51096894D01*
X125607578Y-50961399D01*
X125393492Y-50861570D01*
X125393486Y-50861567D01*
X125180000Y-50804364D01*
X125180000Y-51701988D01*
X125122993Y-51669075D01*
X124995826Y-51635000D01*
X124864174Y-51635000D01*
X124737007Y-51669075D01*
X124680000Y-51701988D01*
X124680000Y-50804364D01*
X124679999Y-50804364D01*
X124466513Y-50861567D01*
X124466507Y-50861570D01*
X124252422Y-50961399D01*
X124252420Y-50961400D01*
X124058926Y-51096886D01*
X124058920Y-51096891D01*
X123891891Y-51263920D01*
X123891890Y-51263922D01*
X123761575Y-51450031D01*
X123706998Y-51493655D01*
X123637499Y-51500848D01*
X123575145Y-51469326D01*
X123558425Y-51450031D01*
X123428109Y-51263922D01*
X123428108Y-51263920D01*
X123261082Y-51096894D01*
X123067578Y-50961399D01*
X122853492Y-50861570D01*
X122853486Y-50861567D01*
X122640000Y-50804364D01*
X122640000Y-51701988D01*
X122582993Y-51669075D01*
X122455826Y-51635000D01*
X122324174Y-51635000D01*
X122197007Y-51669075D01*
X122140000Y-51701988D01*
X122140000Y-50804364D01*
X122139999Y-50804364D01*
X121926513Y-50861567D01*
X121926507Y-50861570D01*
X121712422Y-50961399D01*
X121712420Y-50961400D01*
X121518926Y-51096886D01*
X121518920Y-51096891D01*
X121351891Y-51263920D01*
X121351890Y-51263922D01*
X121221575Y-51450031D01*
X121166998Y-51493655D01*
X121097499Y-51500848D01*
X121035145Y-51469326D01*
X121018425Y-51450031D01*
X120888109Y-51263922D01*
X120888108Y-51263920D01*
X120721082Y-51096894D01*
X120527578Y-50961399D01*
X120313492Y-50861570D01*
X120313486Y-50861567D01*
X120100000Y-50804364D01*
X120100000Y-51701988D01*
X120042993Y-51669075D01*
X119915826Y-51635000D01*
X119784174Y-51635000D01*
X119657007Y-51669075D01*
X119600000Y-51701988D01*
X119600000Y-50804364D01*
X119599999Y-50804364D01*
X119386513Y-50861567D01*
X119386507Y-50861570D01*
X119172422Y-50961399D01*
X119172420Y-50961400D01*
X118978926Y-51096886D01*
X118978920Y-51096891D01*
X118811891Y-51263920D01*
X118811890Y-51263922D01*
X118681575Y-51450031D01*
X118626998Y-51493655D01*
X118557499Y-51500848D01*
X118495145Y-51469326D01*
X118478425Y-51450031D01*
X118348109Y-51263922D01*
X118348108Y-51263920D01*
X118181082Y-51096894D01*
X117987578Y-50961399D01*
X117773492Y-50861570D01*
X117773486Y-50861567D01*
X117560000Y-50804364D01*
X117560000Y-51701988D01*
X117502993Y-51669075D01*
X117375826Y-51635000D01*
X117244174Y-51635000D01*
X117117007Y-51669075D01*
X117060000Y-51701988D01*
X117060000Y-50804364D01*
X117059999Y-50804364D01*
X116846513Y-50861567D01*
X116846507Y-50861570D01*
X116632422Y-50961399D01*
X116632420Y-50961400D01*
X116438926Y-51096886D01*
X116438920Y-51096891D01*
X116271891Y-51263920D01*
X116271890Y-51263922D01*
X116141575Y-51450031D01*
X116086998Y-51493655D01*
X116017499Y-51500848D01*
X115955145Y-51469326D01*
X115938425Y-51450031D01*
X115808109Y-51263922D01*
X115808108Y-51263920D01*
X115641082Y-51096894D01*
X115447578Y-50961399D01*
X115233492Y-50861570D01*
X115233486Y-50861567D01*
X115020000Y-50804364D01*
X115020000Y-51701988D01*
X114962993Y-51669075D01*
X114835826Y-51635000D01*
X114704174Y-51635000D01*
X114577007Y-51669075D01*
X114520000Y-51701988D01*
X114520000Y-50804364D01*
X114519999Y-50804364D01*
X114306513Y-50861567D01*
X114306507Y-50861570D01*
X114092422Y-50961399D01*
X114092420Y-50961400D01*
X113898926Y-51096886D01*
X113898920Y-51096891D01*
X113731891Y-51263920D01*
X113731890Y-51263922D01*
X113601575Y-51450031D01*
X113546998Y-51493655D01*
X113477499Y-51500848D01*
X113415145Y-51469326D01*
X113398425Y-51450031D01*
X113268109Y-51263922D01*
X113268108Y-51263920D01*
X113101082Y-51096894D01*
X112907578Y-50961399D01*
X112693492Y-50861570D01*
X112693486Y-50861567D01*
X112480000Y-50804364D01*
X112480000Y-51701988D01*
X112422993Y-51669075D01*
X112295826Y-51635000D01*
X112164174Y-51635000D01*
X112037007Y-51669075D01*
X111980000Y-51701988D01*
X111980000Y-50804364D01*
X111979999Y-50804364D01*
X111766513Y-50861567D01*
X111766507Y-50861570D01*
X111552422Y-50961399D01*
X111552420Y-50961400D01*
X111358926Y-51096886D01*
X111358920Y-51096891D01*
X111191891Y-51263920D01*
X111191890Y-51263922D01*
X111061575Y-51450031D01*
X111006998Y-51493655D01*
X110937499Y-51500848D01*
X110875145Y-51469326D01*
X110858425Y-51450031D01*
X110728109Y-51263922D01*
X110728108Y-51263920D01*
X110561082Y-51096894D01*
X110367578Y-50961399D01*
X110153492Y-50861570D01*
X110153486Y-50861567D01*
X109940000Y-50804364D01*
X109940000Y-51701988D01*
X109882993Y-51669075D01*
X109755826Y-51635000D01*
X109624174Y-51635000D01*
X109497007Y-51669075D01*
X109440000Y-51701988D01*
X109440000Y-50804364D01*
X109439999Y-50804364D01*
X109226513Y-50861567D01*
X109226507Y-50861570D01*
X109012422Y-50961399D01*
X109012420Y-50961400D01*
X108818926Y-51096886D01*
X108818920Y-51096891D01*
X108651891Y-51263920D01*
X108651886Y-51263926D01*
X108516400Y-51457420D01*
X108516399Y-51457422D01*
X108416570Y-51671507D01*
X108416567Y-51671513D01*
X108359364Y-51884999D01*
X108359364Y-51885000D01*
X109256988Y-51885000D01*
X109224075Y-51942007D01*
X109190000Y-52069174D01*
X109190000Y-52200826D01*
X109224075Y-52327993D01*
X109256988Y-52385000D01*
X108359364Y-52385000D01*
X108416567Y-52598486D01*
X108416570Y-52598492D01*
X108516399Y-52812578D01*
X108651894Y-53006082D01*
X108818917Y-53173105D01*
X109004595Y-53303119D01*
X109048219Y-53357696D01*
X109055412Y-53427195D01*
X109023890Y-53489549D01*
X109004595Y-53506269D01*
X108818594Y-53636508D01*
X108651505Y-53803597D01*
X108515965Y-53997169D01*
X108515964Y-53997171D01*
X108416098Y-54211335D01*
X108416094Y-54211344D01*
X108354938Y-54439586D01*
X108354936Y-54439596D01*
X108334341Y-54674999D01*
X108334341Y-54675000D01*
X108354936Y-54910403D01*
X108354938Y-54910413D01*
X108416094Y-55138655D01*
X108416096Y-55138659D01*
X108416097Y-55138663D01*
X108485130Y-55286705D01*
X108515965Y-55352830D01*
X108515967Y-55352834D01*
X108624281Y-55507521D01*
X108651501Y-55546396D01*
X108651506Y-55546402D01*
X108818597Y-55713493D01*
X108818603Y-55713498D01*
X109004158Y-55843425D01*
X109047783Y-55898002D01*
X109054977Y-55967500D01*
X109023454Y-56029855D01*
X109004158Y-56046575D01*
X108818597Y-56176505D01*
X108651505Y-56343597D01*
X108521575Y-56529158D01*
X108466998Y-56572783D01*
X108397500Y-56579977D01*
X108335145Y-56548454D01*
X108318425Y-56529158D01*
X108188494Y-56343597D01*
X108021402Y-56176506D01*
X108021395Y-56176501D01*
X107827834Y-56040967D01*
X107827830Y-56040965D01*
X107827828Y-56040964D01*
X107613663Y-55941097D01*
X107613659Y-55941096D01*
X107613655Y-55941094D01*
X107385413Y-55879938D01*
X107385403Y-55879936D01*
X107150001Y-55859341D01*
X107149999Y-55859341D01*
X106914596Y-55879936D01*
X106914586Y-55879938D01*
X106686344Y-55941094D01*
X106686335Y-55941098D01*
X106472171Y-56040964D01*
X106472169Y-56040965D01*
X106278597Y-56176505D01*
X106111505Y-56343597D01*
X105975965Y-56537169D01*
X105975964Y-56537171D01*
X105876098Y-56751335D01*
X105876094Y-56751344D01*
X105814938Y-56979586D01*
X105814936Y-56979596D01*
X105794341Y-57214999D01*
X105794341Y-57215000D01*
X105814937Y-57450409D01*
X105814937Y-57450410D01*
X105819442Y-57467225D01*
X105817776Y-57537075D01*
X105787347Y-57586994D01*
X103184656Y-60189685D01*
X103107991Y-60304423D01*
X103055190Y-60431898D01*
X103055187Y-60431910D01*
X103029487Y-60561113D01*
X103029486Y-60561119D01*
X103028270Y-60567229D01*
X103028269Y-60567242D01*
X103028269Y-64438722D01*
X103008584Y-64505761D01*
X102991950Y-64526403D01*
X88180172Y-79338181D01*
X88118849Y-79371666D01*
X88092491Y-79374500D01*
X82972711Y-79374500D01*
X82905672Y-79354815D01*
X82871136Y-79321623D01*
X82788494Y-79203597D01*
X82621402Y-79036506D01*
X82621395Y-79036501D01*
X82427834Y-78900967D01*
X82427830Y-78900965D01*
X82427828Y-78900964D01*
X82213663Y-78801097D01*
X82213659Y-78801096D01*
X82213655Y-78801094D01*
X81985413Y-78739938D01*
X81985403Y-78739936D01*
X81750001Y-78719341D01*
X81749999Y-78719341D01*
X81514596Y-78739936D01*
X81514586Y-78739938D01*
X81286344Y-78801094D01*
X81286335Y-78801098D01*
X81072171Y-78900964D01*
X81072169Y-78900965D01*
X80878597Y-79036505D01*
X80711506Y-79203596D01*
X80628864Y-79321623D01*
X80574287Y-79365248D01*
X80527289Y-79374500D01*
X78972711Y-79374500D01*
X78905672Y-79354815D01*
X78871136Y-79321623D01*
X78788494Y-79203597D01*
X78621402Y-79036506D01*
X78621395Y-79036501D01*
X78427834Y-78900967D01*
X78427830Y-78900965D01*
X78427828Y-78900964D01*
X78213663Y-78801097D01*
X78213659Y-78801096D01*
X78213655Y-78801094D01*
X77985413Y-78739938D01*
X77985403Y-78739936D01*
X77750001Y-78719341D01*
X77749999Y-78719341D01*
X77514596Y-78739936D01*
X77514586Y-78739938D01*
X77286344Y-78801094D01*
X77286335Y-78801098D01*
X77072171Y-78900964D01*
X77072169Y-78900965D01*
X76878597Y-79036505D01*
X76711505Y-79203597D01*
X76575965Y-79397169D01*
X76575964Y-79397171D01*
X76476098Y-79611335D01*
X76476094Y-79611344D01*
X76414938Y-79839586D01*
X76414936Y-79839596D01*
X76394341Y-80074999D01*
X76394341Y-80075000D01*
X76414936Y-80310403D01*
X76414938Y-80310413D01*
X76476094Y-80538655D01*
X76476096Y-80538659D01*
X76476097Y-80538663D01*
X76516114Y-80624479D01*
X76575965Y-80752830D01*
X76575967Y-80752834D01*
X76642596Y-80847989D01*
X76711501Y-80946396D01*
X76711506Y-80946402D01*
X76878597Y-81113493D01*
X76878603Y-81113498D01*
X77064158Y-81243425D01*
X77107783Y-81298002D01*
X77114977Y-81367500D01*
X77083454Y-81429855D01*
X77064158Y-81446575D01*
X76878597Y-81576505D01*
X76711505Y-81743597D01*
X76575965Y-81937169D01*
X76575964Y-81937171D01*
X76476098Y-82151335D01*
X76476094Y-82151344D01*
X76414938Y-82379586D01*
X76414936Y-82379596D01*
X76394341Y-82614999D01*
X76394341Y-82615000D01*
X76414936Y-82850403D01*
X76414938Y-82850413D01*
X76476094Y-83078655D01*
X76476096Y-83078659D01*
X76476097Y-83078663D01*
X76504720Y-83140045D01*
X76575965Y-83292830D01*
X76575967Y-83292834D01*
X76642596Y-83387989D01*
X76711501Y-83486396D01*
X76711506Y-83486402D01*
X76878597Y-83653493D01*
X76878603Y-83653498D01*
X77064158Y-83783425D01*
X77107783Y-83838002D01*
X77114977Y-83907500D01*
X77083454Y-83969855D01*
X77064158Y-83986575D01*
X76878597Y-84116505D01*
X76711505Y-84283597D01*
X76575965Y-84477169D01*
X76575964Y-84477171D01*
X76476098Y-84691335D01*
X76476094Y-84691344D01*
X76414938Y-84919586D01*
X76414936Y-84919596D01*
X76394341Y-85154999D01*
X76394341Y-85155000D01*
X76414936Y-85390403D01*
X76414938Y-85390413D01*
X76476094Y-85618655D01*
X76476096Y-85618659D01*
X76476097Y-85618663D01*
X76556004Y-85790023D01*
X76575965Y-85832830D01*
X76575967Y-85832834D01*
X76642596Y-85927989D01*
X76711501Y-86026396D01*
X76711506Y-86026402D01*
X76878597Y-86193493D01*
X76878603Y-86193498D01*
X77064158Y-86323425D01*
X77107783Y-86378002D01*
X77114977Y-86447500D01*
X77083454Y-86509855D01*
X77064158Y-86526575D01*
X76878597Y-86656505D01*
X76711505Y-86823597D01*
X76575965Y-87017169D01*
X76575964Y-87017171D01*
X76476098Y-87231335D01*
X76476094Y-87231344D01*
X76414938Y-87459586D01*
X76414936Y-87459596D01*
X76394341Y-87694999D01*
X76394341Y-87695000D01*
X76414936Y-87930403D01*
X76414938Y-87930413D01*
X76476094Y-88158655D01*
X76476096Y-88158659D01*
X76476097Y-88158663D01*
X76542366Y-88300776D01*
X76575965Y-88372830D01*
X76575967Y-88372834D01*
X76647855Y-88475500D01*
X76711501Y-88566396D01*
X76711506Y-88566402D01*
X76878597Y-88733493D01*
X76878603Y-88733498D01*
X77064158Y-88863425D01*
X77107783Y-88918002D01*
X77114977Y-88987500D01*
X77083454Y-89049855D01*
X77064158Y-89066575D01*
X76878597Y-89196505D01*
X76711505Y-89363597D01*
X76575965Y-89557169D01*
X76575964Y-89557171D01*
X76476098Y-89771335D01*
X76476094Y-89771344D01*
X76414938Y-89999586D01*
X76414936Y-89999596D01*
X76394341Y-90234999D01*
X76394341Y-90235000D01*
X76414936Y-90470403D01*
X76414938Y-90470413D01*
X76476094Y-90698655D01*
X76476096Y-90698659D01*
X76476097Y-90698663D01*
X76556004Y-90870023D01*
X76575965Y-90912830D01*
X76575967Y-90912834D01*
X76673360Y-91051925D01*
X76711501Y-91106396D01*
X76711506Y-91106402D01*
X76878597Y-91273493D01*
X76878603Y-91273498D01*
X77064158Y-91403425D01*
X77107783Y-91458002D01*
X77114977Y-91527500D01*
X77083454Y-91589855D01*
X77064158Y-91606575D01*
X76878597Y-91736505D01*
X76711505Y-91903597D01*
X76575965Y-92097169D01*
X76575964Y-92097171D01*
X76476098Y-92311335D01*
X76476094Y-92311344D01*
X76414938Y-92539586D01*
X76414936Y-92539596D01*
X76394341Y-92774999D01*
X76394341Y-92775000D01*
X76414936Y-93010403D01*
X76414938Y-93010413D01*
X76476094Y-93238655D01*
X76476096Y-93238659D01*
X76476097Y-93238663D01*
X76533917Y-93362658D01*
X76575965Y-93452830D01*
X76575967Y-93452834D01*
X76684281Y-93607521D01*
X76711501Y-93646396D01*
X76711506Y-93646402D01*
X76878597Y-93813493D01*
X76878603Y-93813498D01*
X77064158Y-93943425D01*
X77107783Y-93998002D01*
X77114977Y-94067500D01*
X77083454Y-94129855D01*
X77064158Y-94146575D01*
X76878597Y-94276505D01*
X76711505Y-94443597D01*
X76575965Y-94637169D01*
X76575964Y-94637171D01*
X76476098Y-94851335D01*
X76476094Y-94851344D01*
X76414938Y-95079586D01*
X76414936Y-95079596D01*
X76394341Y-95314999D01*
X76394341Y-95315000D01*
X76414936Y-95550403D01*
X76414938Y-95550413D01*
X76476094Y-95778655D01*
X76476096Y-95778659D01*
X76476097Y-95778663D01*
X76545494Y-95927485D01*
X76575965Y-95992830D01*
X76575967Y-95992834D01*
X76711501Y-96186395D01*
X76711506Y-96186402D01*
X76878597Y-96353493D01*
X76878603Y-96353498D01*
X77064158Y-96483425D01*
X77107783Y-96538002D01*
X77114977Y-96607500D01*
X77083454Y-96669855D01*
X77064158Y-96686575D01*
X76878597Y-96816505D01*
X76711506Y-96983596D01*
X76628864Y-97101623D01*
X76574287Y-97145248D01*
X76527289Y-97154500D01*
X75551519Y-97154500D01*
X75484480Y-97134815D01*
X75463838Y-97118181D01*
X73961819Y-95616162D01*
X73928334Y-95554839D01*
X73925500Y-95528481D01*
X73925500Y-80416519D01*
X73945185Y-80349480D01*
X73961819Y-80328838D01*
X76028838Y-78261819D01*
X76090161Y-78228334D01*
X76116519Y-78225500D01*
X81268996Y-78225500D01*
X81360040Y-78207389D01*
X81404328Y-78198580D01*
X81473271Y-78170023D01*
X81531807Y-78145777D01*
X81531808Y-78145776D01*
X81531811Y-78145775D01*
X81646543Y-78069114D01*
X84365070Y-75350585D01*
X84426391Y-75317102D01*
X84496082Y-75322086D01*
X84517347Y-75333262D01*
X84517579Y-75332862D01*
X84522266Y-75335568D01*
X84728504Y-75431739D01*
X84948308Y-75490635D01*
X85110230Y-75504801D01*
X85174998Y-75510468D01*
X85175000Y-75510468D01*
X85175002Y-75510468D01*
X85231673Y-75505509D01*
X85401692Y-75490635D01*
X85621496Y-75431739D01*
X85827734Y-75335568D01*
X86014139Y-75205047D01*
X86175047Y-75044139D01*
X86225771Y-74971697D01*
X86235098Y-74958377D01*
X86289675Y-74914752D01*
X86336673Y-74905500D01*
X87776480Y-74905500D01*
X87843519Y-74925185D01*
X87889274Y-74977989D01*
X87896255Y-74997407D01*
X87948258Y-75191488D01*
X87948261Y-75191497D01*
X88044431Y-75397732D01*
X88044432Y-75397734D01*
X88174954Y-75584141D01*
X88335858Y-75745045D01*
X88335861Y-75745047D01*
X88522266Y-75875568D01*
X88728504Y-75971739D01*
X88948308Y-76030635D01*
X89110230Y-76044801D01*
X89174998Y-76050468D01*
X89175000Y-76050468D01*
X89175002Y-76050468D01*
X89231673Y-76045509D01*
X89401692Y-76030635D01*
X89621496Y-75971739D01*
X89827734Y-75875568D01*
X90014139Y-75745047D01*
X90175047Y-75584139D01*
X90305568Y-75397734D01*
X90401739Y-75191496D01*
X90460635Y-74971692D01*
X90480468Y-74745000D01*
X90479697Y-74736192D01*
X90473243Y-74662415D01*
X90460635Y-74518308D01*
X90401739Y-74298504D01*
X90305568Y-74092266D01*
X90175047Y-73905861D01*
X90175045Y-73905858D01*
X90014141Y-73744954D01*
X89827734Y-73614432D01*
X89827732Y-73614431D01*
X89621497Y-73518261D01*
X89621488Y-73518258D01*
X89401697Y-73459366D01*
X89401693Y-73459365D01*
X89401692Y-73459365D01*
X89401691Y-73459364D01*
X89401686Y-73459364D01*
X89175002Y-73439532D01*
X89174998Y-73439532D01*
X88948313Y-73459364D01*
X88948302Y-73459366D01*
X88775462Y-73505678D01*
X88719177Y-73507520D01*
X88703995Y-73504500D01*
X88703994Y-73504500D01*
X88703993Y-73504500D01*
X86336673Y-73504500D01*
X86269634Y-73484815D01*
X86235098Y-73451623D01*
X86175045Y-73365858D01*
X86014141Y-73204954D01*
X85827734Y-73074432D01*
X85827732Y-73074431D01*
X85816275Y-73069088D01*
X85769132Y-73047105D01*
X85716694Y-73000934D01*
X85697542Y-72933740D01*
X85717758Y-72866859D01*
X85769134Y-72822341D01*
X85827484Y-72795132D01*
X86013820Y-72664657D01*
X86174657Y-72503820D01*
X86305134Y-72317482D01*
X86401265Y-72111326D01*
X86401269Y-72111317D01*
X86453872Y-71915000D01*
X85490686Y-71915000D01*
X85495080Y-71910606D01*
X85547741Y-71819394D01*
X85575000Y-71717661D01*
X85575000Y-71612339D01*
X85547741Y-71510606D01*
X85495080Y-71419394D01*
X85490686Y-71415000D01*
X86453872Y-71415000D01*
X86453872Y-71414999D01*
X86401269Y-71218682D01*
X86401265Y-71218673D01*
X86305134Y-71012517D01*
X86174657Y-70826179D01*
X86013820Y-70665342D01*
X85827482Y-70534865D01*
X85769133Y-70507657D01*
X85716694Y-70461484D01*
X85697542Y-70394291D01*
X85717758Y-70327410D01*
X85769129Y-70282895D01*
X85827734Y-70255568D01*
X86014139Y-70125047D01*
X86175047Y-69964139D01*
X86305568Y-69777734D01*
X86401739Y-69571496D01*
X86460635Y-69351692D01*
X86480468Y-69125000D01*
X86471557Y-69023158D01*
X86485323Y-68954662D01*
X86507401Y-68924675D01*
X87470259Y-67961819D01*
X87531582Y-67928334D01*
X87557940Y-67925500D01*
X88084951Y-67925500D01*
X88151990Y-67945185D01*
X88172632Y-67961819D01*
X88335858Y-68125045D01*
X88335861Y-68125047D01*
X88522266Y-68255568D01*
X88728504Y-68351739D01*
X88948308Y-68410635D01*
X89110230Y-68424801D01*
X89174998Y-68430468D01*
X89175000Y-68430468D01*
X89175002Y-68430468D01*
X89231673Y-68425509D01*
X89401692Y-68410635D01*
X89621496Y-68351739D01*
X89827734Y-68255568D01*
X90014139Y-68125047D01*
X90175047Y-67964139D01*
X90305568Y-67777734D01*
X90401739Y-67571496D01*
X90460635Y-67351692D01*
X90480468Y-67125000D01*
X90479839Y-67117816D01*
X90471013Y-67016928D01*
X90460635Y-66898308D01*
X90401739Y-66678504D01*
X90305568Y-66472266D01*
X90184065Y-66298740D01*
X90175045Y-66285858D01*
X90014141Y-66124954D01*
X89827734Y-65994432D01*
X89827732Y-65994431D01*
X89621497Y-65898261D01*
X89621488Y-65898258D01*
X89401697Y-65839366D01*
X89401693Y-65839365D01*
X89401692Y-65839365D01*
X89401691Y-65839364D01*
X89401686Y-65839364D01*
X89175002Y-65819532D01*
X89174998Y-65819532D01*
X88948313Y-65839364D01*
X88948302Y-65839366D01*
X88728511Y-65898258D01*
X88728502Y-65898261D01*
X88522267Y-65994431D01*
X88522265Y-65994432D01*
X88335858Y-66124954D01*
X88172632Y-66288181D01*
X88111309Y-66321666D01*
X88084951Y-66324500D01*
X87098619Y-66324500D01*
X87031580Y-66304815D01*
X86985825Y-66252011D01*
X86975881Y-66182853D01*
X86978844Y-66168407D01*
X87010139Y-66051609D01*
X87010141Y-66051599D01*
X87029966Y-65825002D01*
X87029966Y-65824997D01*
X87010141Y-65598400D01*
X87010139Y-65598389D01*
X86951269Y-65378682D01*
X86951264Y-65378668D01*
X86855136Y-65172521D01*
X86855132Y-65172513D01*
X86804025Y-65099526D01*
X86125000Y-65778553D01*
X86125000Y-65772339D01*
X86097741Y-65670606D01*
X86045080Y-65579394D01*
X85970606Y-65504920D01*
X85879394Y-65452259D01*
X85777661Y-65425000D01*
X85771445Y-65425000D01*
X86450472Y-64745974D01*
X86377478Y-64694863D01*
X86171331Y-64598735D01*
X86171317Y-64598730D01*
X85951610Y-64539860D01*
X85951599Y-64539858D01*
X85725002Y-64520034D01*
X85724998Y-64520034D01*
X85498400Y-64539858D01*
X85498389Y-64539860D01*
X85278682Y-64598730D01*
X85278673Y-64598734D01*
X85072516Y-64694866D01*
X85072512Y-64694868D01*
X84999526Y-64745973D01*
X84999526Y-64745974D01*
X85678553Y-65425000D01*
X85672339Y-65425000D01*
X85570606Y-65452259D01*
X85479394Y-65504920D01*
X85404920Y-65579394D01*
X85352259Y-65670606D01*
X85325000Y-65772339D01*
X85325000Y-65778552D01*
X84645974Y-65099526D01*
X84645973Y-65099526D01*
X84594868Y-65172512D01*
X84594866Y-65172516D01*
X84498734Y-65378673D01*
X84498730Y-65378682D01*
X84439860Y-65598389D01*
X84439858Y-65598400D01*
X84420034Y-65824997D01*
X84420034Y-65825002D01*
X84439858Y-66051599D01*
X84439860Y-66051610D01*
X84498730Y-66271317D01*
X84498735Y-66271331D01*
X84594863Y-66477478D01*
X84645974Y-66550472D01*
X85325000Y-65871446D01*
X85325000Y-65877661D01*
X85352259Y-65979394D01*
X85404920Y-66070606D01*
X85479394Y-66145080D01*
X85570606Y-66197741D01*
X85672339Y-66225000D01*
X85678553Y-66225000D01*
X84999526Y-66904025D01*
X85072513Y-66955132D01*
X85072521Y-66955136D01*
X85278668Y-67051264D01*
X85278682Y-67051269D01*
X85498389Y-67110139D01*
X85498400Y-67110141D01*
X85724996Y-67129965D01*
X85728556Y-67129654D01*
X85730109Y-67129966D01*
X85730414Y-67129966D01*
X85730414Y-67130027D01*
X85797057Y-67143414D01*
X85847245Y-67192024D01*
X85863186Y-67260051D01*
X85839817Y-67325897D01*
X85827057Y-67340862D01*
X85375326Y-67792594D01*
X85314003Y-67826079D01*
X85276838Y-67828441D01*
X85175002Y-67819532D01*
X85174998Y-67819532D01*
X84943117Y-67839819D01*
X84874617Y-67826052D01*
X84844629Y-67803972D01*
X82321546Y-65280888D01*
X82321545Y-65280887D01*
X82206807Y-65204222D01*
X82079332Y-65151421D01*
X82079322Y-65151418D01*
X81943996Y-65124500D01*
X81943994Y-65124500D01*
X81943993Y-65124500D01*
X81886673Y-65124500D01*
X81819634Y-65104815D01*
X81785098Y-65071623D01*
X81725045Y-64985858D01*
X81564141Y-64824954D01*
X81377734Y-64694432D01*
X81377732Y-64694431D01*
X81171497Y-64598261D01*
X81171488Y-64598258D01*
X80951697Y-64539366D01*
X80951693Y-64539365D01*
X80951692Y-64539365D01*
X80951691Y-64539364D01*
X80951686Y-64539364D01*
X80725002Y-64519532D01*
X80724998Y-64519532D01*
X80498313Y-64539364D01*
X80498302Y-64539366D01*
X80278511Y-64598258D01*
X80278502Y-64598261D01*
X80072267Y-64694431D01*
X80072265Y-64694432D01*
X79885858Y-64824954D01*
X79724954Y-64985858D01*
X79594432Y-65172265D01*
X79594431Y-65172267D01*
X79498261Y-65378502D01*
X79498258Y-65378511D01*
X79439366Y-65598302D01*
X79439364Y-65598313D01*
X79419532Y-65824998D01*
X79419532Y-65825001D01*
X79439364Y-66051686D01*
X79439366Y-66051697D01*
X79498258Y-66271488D01*
X79498261Y-66271497D01*
X79594431Y-66477732D01*
X79594432Y-66477734D01*
X79724954Y-66664141D01*
X79885858Y-66825045D01*
X79910304Y-66842162D01*
X80072266Y-66955568D01*
X80278504Y-67051739D01*
X80278509Y-67051740D01*
X80278511Y-67051741D01*
X80310245Y-67060244D01*
X80498308Y-67110635D01*
X80660230Y-67124801D01*
X80724998Y-67130468D01*
X80725000Y-67130468D01*
X80725002Y-67130468D01*
X80787522Y-67124998D01*
X80951692Y-67110635D01*
X81171496Y-67051739D01*
X81377734Y-66955568D01*
X81564139Y-66825047D01*
X81636585Y-66752600D01*
X81697905Y-66719117D01*
X81767597Y-66724101D01*
X81811945Y-66752602D01*
X83853972Y-68794629D01*
X83887457Y-68855952D01*
X83889819Y-68893117D01*
X83869532Y-69124998D01*
X83869532Y-69125001D01*
X83889819Y-69356881D01*
X83876052Y-69425381D01*
X83853972Y-69455369D01*
X79068120Y-74241221D01*
X79006797Y-74274706D01*
X78937105Y-74269722D01*
X78881172Y-74227850D01*
X78856911Y-74164347D01*
X78840635Y-73978308D01*
X78785355Y-73771998D01*
X78781741Y-73758511D01*
X78781738Y-73758503D01*
X78685568Y-73552266D01*
X78555047Y-73365861D01*
X78555045Y-73365858D01*
X78394141Y-73204954D01*
X78207734Y-73074432D01*
X78207728Y-73074429D01*
X78180038Y-73061517D01*
X78149724Y-73047381D01*
X78097285Y-73001210D01*
X78078133Y-72934017D01*
X78098348Y-72867135D01*
X78149725Y-72822618D01*
X78155438Y-72819954D01*
X78207734Y-72795568D01*
X78394139Y-72665047D01*
X78555047Y-72504139D01*
X78685568Y-72317734D01*
X78781739Y-72111496D01*
X78840635Y-71891692D01*
X78860468Y-71665000D01*
X78840635Y-71438308D01*
X78781739Y-71218504D01*
X78685568Y-71012266D01*
X78555047Y-70825861D01*
X78555045Y-70825858D01*
X78394143Y-70664956D01*
X78375381Y-70651819D01*
X78369535Y-70647725D01*
X78325912Y-70593149D01*
X78318719Y-70523650D01*
X78350241Y-70461296D01*
X78410471Y-70425882D01*
X78427404Y-70422861D01*
X78462483Y-70419091D01*
X78597331Y-70368796D01*
X78712546Y-70282546D01*
X78798796Y-70167331D01*
X78849091Y-70032483D01*
X78855500Y-69972873D01*
X78855499Y-68277128D01*
X78849091Y-68217517D01*
X78814601Y-68125045D01*
X78798797Y-68082671D01*
X78798793Y-68082664D01*
X78712547Y-67967455D01*
X78712544Y-67967452D01*
X78597335Y-67881206D01*
X78597328Y-67881202D01*
X78462482Y-67830908D01*
X78462483Y-67830908D01*
X78402883Y-67824501D01*
X78402881Y-67824500D01*
X78402873Y-67824500D01*
X78402865Y-67824500D01*
X77296519Y-67824500D01*
X77229480Y-67804815D01*
X77208838Y-67788181D01*
X76091546Y-66670888D01*
X76091545Y-66670887D01*
X75976807Y-66594222D01*
X75849332Y-66541421D01*
X75849322Y-66541418D01*
X75713996Y-66514500D01*
X75713994Y-66514500D01*
X75713993Y-66514500D01*
X75299499Y-66514500D01*
X75232460Y-66494815D01*
X75186705Y-66442011D01*
X75175499Y-66390500D01*
X75175499Y-66367129D01*
X75175498Y-66367123D01*
X75175497Y-66367116D01*
X75169091Y-66307517D01*
X75168083Y-66304815D01*
X75118797Y-66172671D01*
X75118793Y-66172664D01*
X75032547Y-66057455D01*
X75032544Y-66057452D01*
X74917335Y-65971206D01*
X74917328Y-65971202D01*
X74782482Y-65920908D01*
X74782483Y-65920908D01*
X74722883Y-65914501D01*
X74722881Y-65914500D01*
X74722873Y-65914500D01*
X74722864Y-65914500D01*
X73027129Y-65914500D01*
X73027123Y-65914501D01*
X72967516Y-65920908D01*
X72832671Y-65971202D01*
X72832664Y-65971206D01*
X72717455Y-66057452D01*
X72717452Y-66057455D01*
X72631206Y-66172664D01*
X72631202Y-66172671D01*
X72580908Y-66307517D01*
X72574501Y-66367116D01*
X72574501Y-66367123D01*
X72574500Y-66367135D01*
X72574500Y-66405500D01*
X72554815Y-66472539D01*
X72502011Y-66518294D01*
X72450500Y-66529500D01*
X71886673Y-66529500D01*
X71819634Y-66509815D01*
X71785098Y-66476623D01*
X71725045Y-66390858D01*
X71564141Y-66229954D01*
X71377734Y-66099432D01*
X71377732Y-66099431D01*
X71171497Y-66003261D01*
X71171488Y-66003258D01*
X70951697Y-65944366D01*
X70951693Y-65944365D01*
X70951692Y-65944365D01*
X70951691Y-65944364D01*
X70951686Y-65944364D01*
X70725002Y-65924532D01*
X70724998Y-65924532D01*
X70498313Y-65944364D01*
X70498302Y-65944366D01*
X70278511Y-66003258D01*
X70278502Y-66003261D01*
X70072267Y-66099431D01*
X70072265Y-66099432D01*
X69885858Y-66229954D01*
X69724954Y-66390858D01*
X69594432Y-66577265D01*
X69594431Y-66577267D01*
X69498261Y-66783502D01*
X69498258Y-66783511D01*
X69439366Y-67003302D01*
X69439364Y-67003313D01*
X69419532Y-67229998D01*
X69419532Y-67230001D01*
X69439364Y-67456686D01*
X69439366Y-67456697D01*
X69498258Y-67676488D01*
X69498261Y-67676497D01*
X69594431Y-67882732D01*
X69594432Y-67882734D01*
X69724954Y-68069141D01*
X69885858Y-68230045D01*
X69885861Y-68230047D01*
X70072266Y-68360568D01*
X70278504Y-68456739D01*
X70278509Y-68456740D01*
X70278511Y-68456741D01*
X70331415Y-68470916D01*
X70498308Y-68515635D01*
X70660230Y-68529801D01*
X70724998Y-68535468D01*
X70725000Y-68535468D01*
X70725002Y-68535468D01*
X70781673Y-68530509D01*
X70951692Y-68515635D01*
X71171496Y-68456739D01*
X71377734Y-68360568D01*
X71564139Y-68230047D01*
X71725047Y-68069139D01*
X71785098Y-67983377D01*
X71839675Y-67939752D01*
X71886673Y-67930500D01*
X72450501Y-67930500D01*
X72517540Y-67950185D01*
X72563295Y-68002989D01*
X72574501Y-68054500D01*
X72574501Y-68062876D01*
X72580908Y-68122483D01*
X72631202Y-68257328D01*
X72631206Y-68257335D01*
X72717452Y-68372544D01*
X72717455Y-68372547D01*
X72832664Y-68458793D01*
X72832671Y-68458797D01*
X72967517Y-68509091D01*
X72967516Y-68509091D01*
X72974444Y-68509835D01*
X73027127Y-68515500D01*
X74722872Y-68515499D01*
X74782483Y-68509091D01*
X74917331Y-68458796D01*
X75032546Y-68372546D01*
X75118796Y-68257331D01*
X75169091Y-68122483D01*
X75175500Y-68062873D01*
X75175500Y-68039500D01*
X75195185Y-67972461D01*
X75247989Y-67926706D01*
X75299500Y-67915500D01*
X75303481Y-67915500D01*
X75370520Y-67935185D01*
X75391162Y-67951819D01*
X76218181Y-68778838D01*
X76251666Y-68840161D01*
X76254500Y-68866519D01*
X76254500Y-69972870D01*
X76254501Y-69972876D01*
X76260908Y-70032483D01*
X76311202Y-70167328D01*
X76311206Y-70167335D01*
X76397452Y-70282544D01*
X76397455Y-70282547D01*
X76512664Y-70368793D01*
X76512671Y-70368797D01*
X76557618Y-70385561D01*
X76647517Y-70419091D01*
X76682596Y-70422862D01*
X76747144Y-70449599D01*
X76786993Y-70506991D01*
X76789488Y-70576816D01*
X76753836Y-70636905D01*
X76740464Y-70647725D01*
X76715858Y-70664954D01*
X76554954Y-70825858D01*
X76424432Y-71012265D01*
X76424431Y-71012267D01*
X76328261Y-71218502D01*
X76328258Y-71218511D01*
X76269366Y-71438302D01*
X76269364Y-71438313D01*
X76249532Y-71664998D01*
X76249532Y-71665001D01*
X76269819Y-71896881D01*
X76256052Y-71965381D01*
X76233972Y-71995369D01*
X74587203Y-73642138D01*
X74525880Y-73675623D01*
X74456188Y-73670639D01*
X74447117Y-73666839D01*
X74386649Y-73638642D01*
X74321496Y-73608261D01*
X74321492Y-73608260D01*
X74321488Y-73608258D01*
X74101697Y-73549366D01*
X74101693Y-73549365D01*
X74101692Y-73549365D01*
X74101691Y-73549364D01*
X74101686Y-73549364D01*
X73875002Y-73529532D01*
X73874998Y-73529532D01*
X73648313Y-73549364D01*
X73648302Y-73549366D01*
X73549466Y-73575849D01*
X73479616Y-73574186D01*
X73429692Y-73543755D01*
X66173029Y-66287092D01*
X66139544Y-66225769D01*
X66137058Y-66208684D01*
X66126711Y-66070606D01*
X66124586Y-66042247D01*
X66124585Y-66042242D01*
X66124585Y-66042238D01*
X66085177Y-65869581D01*
X66066214Y-65786496D01*
X65971942Y-65546297D01*
X65970380Y-65542316D01*
X65970379Y-65542315D01*
X65970380Y-65542315D01*
X65902647Y-65425000D01*
X65839222Y-65315144D01*
X65675671Y-65110057D01*
X65483379Y-64931637D01*
X65266644Y-64783869D01*
X65266640Y-64783867D01*
X65266637Y-64783865D01*
X65266636Y-64783864D01*
X65030308Y-64670056D01*
X65030310Y-64670056D01*
X64779645Y-64592736D01*
X64779639Y-64592734D01*
X64520265Y-64553640D01*
X64520258Y-64553640D01*
X64257942Y-64553640D01*
X64257934Y-64553640D01*
X63998560Y-64592734D01*
X63998554Y-64592736D01*
X63747896Y-64670054D01*
X63747894Y-64670055D01*
X63670413Y-64707368D01*
X63636416Y-64723740D01*
X63567474Y-64735091D01*
X63503340Y-64707368D01*
X63464375Y-64649373D01*
X63462950Y-64579518D01*
X63467187Y-64566716D01*
X63468476Y-64563429D01*
X63468480Y-64563424D01*
X63564314Y-64319241D01*
X63622685Y-64063502D01*
X63622686Y-64063492D01*
X63642288Y-63801924D01*
X63642288Y-63801915D01*
X63622686Y-63540347D01*
X63622685Y-63540342D01*
X63622685Y-63540338D01*
X63589330Y-63394201D01*
X63564314Y-63284596D01*
X63531111Y-63199997D01*
X91995034Y-63199997D01*
X91995034Y-63200002D01*
X92014858Y-63426599D01*
X92014860Y-63426610D01*
X92073730Y-63646317D01*
X92073735Y-63646331D01*
X92169863Y-63852478D01*
X92220974Y-63925472D01*
X92900000Y-63246446D01*
X92900000Y-63252661D01*
X92927259Y-63354394D01*
X92979920Y-63445606D01*
X93054394Y-63520080D01*
X93145606Y-63572741D01*
X93247339Y-63600000D01*
X93253553Y-63600000D01*
X92574526Y-64279025D01*
X92647513Y-64330132D01*
X92647521Y-64330136D01*
X92853668Y-64426264D01*
X92853682Y-64426269D01*
X93073389Y-64485139D01*
X93073400Y-64485141D01*
X93299998Y-64504966D01*
X93300002Y-64504966D01*
X93526599Y-64485141D01*
X93526610Y-64485139D01*
X93746317Y-64426269D01*
X93746331Y-64426264D01*
X93952478Y-64330136D01*
X94025471Y-64279024D01*
X93346447Y-63600000D01*
X93352661Y-63600000D01*
X93454394Y-63572741D01*
X93545606Y-63520080D01*
X93620080Y-63445606D01*
X93672741Y-63354394D01*
X93700000Y-63252661D01*
X93700000Y-63246447D01*
X94379024Y-63925471D01*
X94430136Y-63852478D01*
X94526264Y-63646331D01*
X94526269Y-63646317D01*
X94585139Y-63426610D01*
X94585141Y-63426599D01*
X94604966Y-63200002D01*
X94604966Y-63199997D01*
X94585141Y-62973400D01*
X94585139Y-62973389D01*
X94526269Y-62753682D01*
X94526264Y-62753668D01*
X94430136Y-62547521D01*
X94430132Y-62547513D01*
X94379025Y-62474526D01*
X93700000Y-63153551D01*
X93700000Y-63147339D01*
X93672741Y-63045606D01*
X93620080Y-62954394D01*
X93545606Y-62879920D01*
X93454394Y-62827259D01*
X93352661Y-62800000D01*
X93346445Y-62800000D01*
X94025472Y-62120974D01*
X93952478Y-62069863D01*
X93746331Y-61973735D01*
X93746317Y-61973730D01*
X93526610Y-61914860D01*
X93526599Y-61914858D01*
X93300002Y-61895034D01*
X93299998Y-61895034D01*
X93073400Y-61914858D01*
X93073389Y-61914860D01*
X92853682Y-61973730D01*
X92853673Y-61973734D01*
X92647516Y-62069866D01*
X92647512Y-62069868D01*
X92574526Y-62120973D01*
X92574526Y-62120974D01*
X93253553Y-62800000D01*
X93247339Y-62800000D01*
X93145606Y-62827259D01*
X93054394Y-62879920D01*
X92979920Y-62954394D01*
X92927259Y-63045606D01*
X92900000Y-63147339D01*
X92900000Y-63153552D01*
X92220974Y-62474526D01*
X92220973Y-62474526D01*
X92169868Y-62547512D01*
X92169866Y-62547516D01*
X92073734Y-62753673D01*
X92073730Y-62753682D01*
X92014860Y-62973389D01*
X92014858Y-62973400D01*
X91995034Y-63199997D01*
X63531111Y-63199997D01*
X63501098Y-63123525D01*
X63468480Y-63040416D01*
X63468479Y-63040415D01*
X63468480Y-63040415D01*
X63375817Y-62879920D01*
X63337322Y-62813244D01*
X63173771Y-62608157D01*
X62981479Y-62429737D01*
X62764744Y-62281969D01*
X62764740Y-62281967D01*
X62764737Y-62281965D01*
X62764736Y-62281964D01*
X62528408Y-62168156D01*
X62528410Y-62168156D01*
X62277745Y-62090836D01*
X62277739Y-62090834D01*
X62018365Y-62051740D01*
X62018358Y-62051740D01*
X61756042Y-62051740D01*
X61756034Y-62051740D01*
X61496660Y-62090834D01*
X61496654Y-62090836D01*
X61245990Y-62168156D01*
X61009663Y-62281964D01*
X61009662Y-62281965D01*
X60792920Y-62429737D01*
X60600631Y-62608155D01*
X60600629Y-62608157D01*
X60437078Y-62813244D01*
X60305920Y-63040415D01*
X60210085Y-63284596D01*
X60151714Y-63540342D01*
X60151713Y-63540347D01*
X60132112Y-63801915D01*
X60132112Y-63801923D01*
X60138805Y-63891233D01*
X60124186Y-63959556D01*
X60074949Y-64009129D01*
X60015152Y-64024500D01*
X58306004Y-64024500D01*
X58170677Y-64051418D01*
X58170667Y-64051421D01*
X58043192Y-64104222D01*
X57928454Y-64180887D01*
X56580887Y-65528454D01*
X56504222Y-65643192D01*
X56451421Y-65770667D01*
X56451420Y-65770671D01*
X56451420Y-65770672D01*
X56426890Y-65893994D01*
X56424500Y-65906007D01*
X56424500Y-73856006D01*
X56424500Y-73993994D01*
X56424500Y-73993996D01*
X56424499Y-73993996D01*
X51121385Y-73993996D01*
X51146682Y-73988964D01*
X51262658Y-73965896D01*
X51262661Y-73965894D01*
X51262666Y-73965894D01*
X51426547Y-73898013D01*
X51574035Y-73799464D01*
X51699464Y-73674035D01*
X51798013Y-73526547D01*
X51865894Y-73362666D01*
X51873108Y-73326402D01*
X51900499Y-73188695D01*
X51900500Y-73188693D01*
X51900500Y-70713389D01*
X53399500Y-70713389D01*
X53399500Y-71886611D01*
X53403996Y-71915000D01*
X53425964Y-72053703D01*
X53426598Y-72057701D01*
X53480127Y-72222445D01*
X53558768Y-72376788D01*
X53660586Y-72516928D01*
X53783072Y-72639414D01*
X53923212Y-72741232D01*
X54077555Y-72819873D01*
X54242299Y-72873402D01*
X54413389Y-72900500D01*
X54413390Y-72900500D01*
X54586610Y-72900500D01*
X54586611Y-72900500D01*
X54757701Y-72873402D01*
X54922445Y-72819873D01*
X55076788Y-72741232D01*
X55216928Y-72639414D01*
X55339414Y-72516928D01*
X55441232Y-72376788D01*
X55519873Y-72222445D01*
X55573402Y-72057701D01*
X55600500Y-71886611D01*
X55600500Y-70713389D01*
X55573402Y-70542299D01*
X55519873Y-70377555D01*
X55441232Y-70223212D01*
X55339414Y-70083072D01*
X55216928Y-69960586D01*
X55076788Y-69858768D01*
X54922445Y-69780127D01*
X54757701Y-69726598D01*
X54757699Y-69726597D01*
X54757698Y-69726597D01*
X54626271Y-69705781D01*
X54586611Y-69699500D01*
X54413389Y-69699500D01*
X54373728Y-69705781D01*
X54242302Y-69726597D01*
X54242299Y-69726598D01*
X54077811Y-69780044D01*
X54077552Y-69780128D01*
X53923211Y-69858768D01*
X53849554Y-69912284D01*
X53783072Y-69960586D01*
X53783070Y-69960588D01*
X53783069Y-69960588D01*
X53660588Y-70083069D01*
X53660588Y-70083070D01*
X53660586Y-70083072D01*
X53647924Y-70100500D01*
X53558768Y-70223211D01*
X53480128Y-70377552D01*
X53426597Y-70542302D01*
X53407171Y-70664954D01*
X53399500Y-70713389D01*
X51900500Y-70713389D01*
X51900500Y-69411306D01*
X51900499Y-69411304D01*
X51865896Y-69237341D01*
X51865893Y-69237332D01*
X51865825Y-69237169D01*
X51834534Y-69161623D01*
X51798016Y-69073459D01*
X51798009Y-69073446D01*
X51699464Y-68925965D01*
X51699461Y-68925961D01*
X51574038Y-68800538D01*
X51574034Y-68800535D01*
X51426553Y-68701990D01*
X51426540Y-68701983D01*
X51262667Y-68634106D01*
X51262658Y-68634103D01*
X51088694Y-68599500D01*
X51088691Y-68599500D01*
X51065892Y-68599500D01*
X50624500Y-68599500D01*
X50557461Y-68579815D01*
X50511706Y-68527011D01*
X50500500Y-68475500D01*
X50500500Y-67679075D01*
X50520185Y-67612036D01*
X50572989Y-67566281D01*
X50642147Y-67556337D01*
X50705703Y-67585362D01*
X50708825Y-67588162D01*
X50798021Y-67670923D01*
X51014756Y-67818691D01*
X51014761Y-67818693D01*
X51014762Y-67818694D01*
X51014763Y-67818695D01*
X51087650Y-67853795D01*
X51251090Y-67932503D01*
X51251091Y-67932503D01*
X51251094Y-67932505D01*
X51501756Y-68009824D01*
X51501757Y-68009824D01*
X51501760Y-68009825D01*
X51761134Y-68048919D01*
X51761139Y-68048919D01*
X51761142Y-68048920D01*
X51761143Y-68048920D01*
X52023457Y-68048920D01*
X52023458Y-68048920D01*
X52023465Y-68048919D01*
X52282839Y-68009825D01*
X52282840Y-68009824D01*
X52282844Y-68009824D01*
X52533506Y-67932505D01*
X52726914Y-67839365D01*
X52769836Y-67818695D01*
X52769836Y-67818694D01*
X52769844Y-67818691D01*
X52986579Y-67670923D01*
X53178871Y-67492503D01*
X53342422Y-67287416D01*
X53473580Y-67060244D01*
X53545581Y-66876788D01*
X53569413Y-66816065D01*
X53569648Y-66815036D01*
X53569833Y-66814704D01*
X53570782Y-66811629D01*
X53571439Y-66811831D01*
X53603749Y-66754054D01*
X53665406Y-66721188D01*
X53735044Y-66726875D01*
X53790553Y-66769308D01*
X53793644Y-66773723D01*
X53839373Y-66842161D01*
X53839376Y-66842165D01*
X53957837Y-66960626D01*
X54046974Y-67020185D01*
X54097137Y-67053703D01*
X54251918Y-67117816D01*
X54380609Y-67143414D01*
X54416228Y-67150499D01*
X54416232Y-67150500D01*
X54416233Y-67150500D01*
X54583768Y-67150500D01*
X54583769Y-67150499D01*
X54748082Y-67117816D01*
X54902863Y-67053703D01*
X55042162Y-66960626D01*
X55160626Y-66842162D01*
X55253703Y-66702863D01*
X55317816Y-66548082D01*
X55350500Y-66383767D01*
X55350500Y-66216233D01*
X55317816Y-66051918D01*
X55268227Y-65932201D01*
X55253704Y-65897139D01*
X55237904Y-65873493D01*
X55221533Y-65848991D01*
X55160626Y-65757837D01*
X55042162Y-65639373D01*
X54902860Y-65546295D01*
X54748082Y-65482184D01*
X54748074Y-65482182D01*
X54583771Y-65449500D01*
X54583767Y-65449500D01*
X54416233Y-65449500D01*
X54416228Y-65449500D01*
X54251925Y-65482182D01*
X54251917Y-65482184D01*
X54097139Y-65546295D01*
X53957837Y-65639373D01*
X53839376Y-65757834D01*
X53794073Y-65825635D01*
X53740460Y-65870439D01*
X53671135Y-65879146D01*
X53608108Y-65848991D01*
X53571389Y-65789548D01*
X53570079Y-65784334D01*
X53569412Y-65781411D01*
X53497585Y-65598400D01*
X53473580Y-65537236D01*
X53473579Y-65537235D01*
X53473580Y-65537235D01*
X53424518Y-65452259D01*
X53342422Y-65310064D01*
X53178871Y-65104977D01*
X52986579Y-64926557D01*
X52769844Y-64778789D01*
X52769840Y-64778787D01*
X52769837Y-64778785D01*
X52769836Y-64778784D01*
X52533508Y-64664976D01*
X52533510Y-64664976D01*
X52282845Y-64587656D01*
X52282839Y-64587654D01*
X52023465Y-64548560D01*
X52023458Y-64548560D01*
X51761142Y-64548560D01*
X51761134Y-64548560D01*
X51501760Y-64587654D01*
X51501754Y-64587656D01*
X51251090Y-64664976D01*
X51014763Y-64778784D01*
X51014762Y-64778785D01*
X50798020Y-64926557D01*
X50738857Y-64981452D01*
X50708839Y-65009304D01*
X50646309Y-65040472D01*
X50576852Y-65032885D01*
X50522523Y-64988951D01*
X50500572Y-64922620D01*
X50500500Y-64918405D01*
X50500500Y-53828303D01*
X52200000Y-53828303D01*
X52200000Y-54642500D01*
X53700000Y-54642500D01*
X53700000Y-55142500D01*
X52200001Y-55142500D01*
X52200001Y-55956697D01*
X52210400Y-56088832D01*
X52265377Y-56307019D01*
X52358428Y-56511874D01*
X52358431Y-56511880D01*
X52486559Y-56696823D01*
X52486569Y-56696835D01*
X52645664Y-56855930D01*
X52645676Y-56855940D01*
X52830619Y-56984068D01*
X52830625Y-56984071D01*
X53035480Y-57077122D01*
X53253667Y-57132099D01*
X53385810Y-57142499D01*
X53949999Y-57142499D01*
X53950000Y-57142498D01*
X53950000Y-56325512D01*
X54007007Y-56358425D01*
X54134174Y-56392500D01*
X54265826Y-56392500D01*
X54392993Y-56358425D01*
X54450000Y-56325512D01*
X54450000Y-57142499D01*
X55014182Y-57142499D01*
X55014197Y-57142498D01*
X55146332Y-57132099D01*
X55364519Y-57077122D01*
X55569374Y-56984071D01*
X55569380Y-56984068D01*
X55754323Y-56855940D01*
X55754335Y-56855930D01*
X55913430Y-56696835D01*
X55913440Y-56696823D01*
X56041568Y-56511880D01*
X56041571Y-56511874D01*
X56134622Y-56307019D01*
X56189599Y-56088832D01*
X56199999Y-55956696D01*
X56200000Y-55956684D01*
X56200000Y-55142500D01*
X54700000Y-55142500D01*
X54700000Y-54642500D01*
X56199999Y-54642500D01*
X56199999Y-53828317D01*
X56199998Y-53828302D01*
X56189599Y-53696167D01*
X56134622Y-53477980D01*
X56041571Y-53273125D01*
X56041568Y-53273119D01*
X55913440Y-53088176D01*
X55913430Y-53088164D01*
X55754335Y-52929069D01*
X55754323Y-52929059D01*
X55569380Y-52800931D01*
X55569374Y-52800928D01*
X55364519Y-52707877D01*
X55146332Y-52652900D01*
X55014196Y-52642500D01*
X54450000Y-52642500D01*
X54450000Y-53459488D01*
X54392993Y-53426575D01*
X54265826Y-53392500D01*
X54134174Y-53392500D01*
X54007007Y-53426575D01*
X53950000Y-53459488D01*
X53950000Y-52642500D01*
X53385817Y-52642500D01*
X53385802Y-52642501D01*
X53253667Y-52652900D01*
X53035480Y-52707877D01*
X52830625Y-52800928D01*
X52830619Y-52800931D01*
X52645676Y-52929059D01*
X52645664Y-52929069D01*
X52486569Y-53088164D01*
X52486559Y-53088176D01*
X52358431Y-53273119D01*
X52358428Y-53273125D01*
X52265377Y-53477980D01*
X52210400Y-53696167D01*
X52200000Y-53828303D01*
X50500500Y-53828303D01*
X50500500Y-50624500D01*
X50520185Y-50557461D01*
X50572989Y-50511706D01*
X50624500Y-50500500D01*
X64609897Y-50500500D01*
X64676936Y-50520185D01*
G37*
%TD.AperFunction*%
%TA.AperFunction,Conductor*%
G36*
X80335000Y-55253508D02*
G01*
X80425128Y-55239234D01*
X80642570Y-55168582D01*
X80846276Y-55064788D01*
X81031242Y-54930402D01*
X81192905Y-54768739D01*
X81254371Y-54684137D01*
X81309701Y-54641470D01*
X81379314Y-54635491D01*
X81441109Y-54668096D01*
X81455007Y-54684134D01*
X81516714Y-54769066D01*
X81678434Y-54930786D01*
X81773388Y-54999774D01*
X81816051Y-55055100D01*
X81824500Y-55100089D01*
X81824500Y-57291159D01*
X81804815Y-57358198D01*
X81752011Y-57403953D01*
X81724691Y-57412776D01*
X81673889Y-57422881D01*
X81673881Y-57422883D01*
X81528203Y-57483225D01*
X81528193Y-57483230D01*
X81397090Y-57570831D01*
X81397086Y-57570834D01*
X81004739Y-57963181D01*
X80943416Y-57996666D01*
X80917058Y-57999500D01*
X80302129Y-57999500D01*
X80302123Y-57999501D01*
X80242520Y-58005908D01*
X80234974Y-58007692D01*
X80234628Y-58006230D01*
X80173622Y-58010584D01*
X80158600Y-58006172D01*
X80157482Y-58005908D01*
X80097883Y-57999501D01*
X80097881Y-57999500D01*
X80097873Y-57999500D01*
X80097865Y-57999500D01*
X79482940Y-57999500D01*
X79415901Y-57979815D01*
X79395259Y-57963181D01*
X79002913Y-57570834D01*
X79002909Y-57570831D01*
X78871806Y-57483230D01*
X78871793Y-57483223D01*
X78726122Y-57422885D01*
X78726110Y-57422882D01*
X78571466Y-57392121D01*
X78571463Y-57392121D01*
X78469500Y-57392121D01*
X78402461Y-57372436D01*
X78356706Y-57319632D01*
X78345500Y-57268121D01*
X78345500Y-55399499D01*
X78365185Y-55332460D01*
X78417989Y-55286705D01*
X78469500Y-55275499D01*
X78545371Y-55275499D01*
X78545372Y-55275499D01*
X78604983Y-55269091D01*
X78739831Y-55218796D01*
X78855046Y-55132546D01*
X78941296Y-55017331D01*
X78951872Y-54988974D01*
X78993740Y-54933041D01*
X79059204Y-54908622D01*
X79127477Y-54923472D01*
X79140940Y-54931988D01*
X79323723Y-55064788D01*
X79527429Y-55168582D01*
X79744871Y-55239234D01*
X79835000Y-55253509D01*
X79835000Y-54265747D01*
X79872708Y-54287518D01*
X80012591Y-54325000D01*
X80157409Y-54325000D01*
X80297292Y-54287518D01*
X80335000Y-54265747D01*
X80335000Y-55253508D01*
G37*
%TD.AperFunction*%
%TD*%
M02*
