%TF.GenerationSoftware,KiCad,Pcbnew,(6.0.5)*%
%TF.CreationDate,2023-01-23T15:27:26+00:00*%
%TF.ProjectId,ButtonKeyboard,42757474-6f6e-44b6-9579-626f6172642e,rev?*%
%TF.SameCoordinates,Original*%
%TF.FileFunction,Legend,Top*%
%TF.FilePolarity,Positive*%
%FSLAX46Y46*%
G04 Gerber Fmt 4.6, Leading zero omitted, Abs format (unit mm)*
G04 Created by KiCad (PCBNEW (6.0.5)) date 2023-01-23 15:27:26*
%MOMM*%
%LPD*%
G01*
G04 APERTURE LIST*
%ADD10C,0.150000*%
%ADD11C,0.100000*%
%ADD12C,0.300000*%
%ADD13C,0.120000*%
G04 APERTURE END LIST*
D10*
X107514857Y-71545380D02*
X107705333Y-71545380D01*
X107800571Y-71593000D01*
X107895809Y-71688238D01*
X107943428Y-71878714D01*
X107943428Y-72212047D01*
X107895809Y-72402523D01*
X107800571Y-72497761D01*
X107705333Y-72545380D01*
X107514857Y-72545380D01*
X107419619Y-72497761D01*
X107324380Y-72402523D01*
X107276761Y-72212047D01*
X107276761Y-71878714D01*
X107324380Y-71688238D01*
X107419619Y-71593000D01*
X107514857Y-71545380D01*
X108372000Y-71878714D02*
X108372000Y-72545380D01*
X108372000Y-71973952D02*
X108419619Y-71926333D01*
X108514857Y-71878714D01*
X108657714Y-71878714D01*
X108752952Y-71926333D01*
X108800571Y-72021571D01*
X108800571Y-72545380D01*
X109419619Y-72545380D02*
X109324380Y-72497761D01*
X109276761Y-72402523D01*
X109276761Y-71545380D01*
X109705333Y-71878714D02*
X109943428Y-72545380D01*
X110181523Y-71878714D02*
X109943428Y-72545380D01*
X109848190Y-72783476D01*
X109800571Y-72831095D01*
X109705333Y-72878714D01*
X111752952Y-71878714D02*
X111752952Y-72545380D01*
X111324380Y-71878714D02*
X111324380Y-72402523D01*
X111372000Y-72497761D01*
X111467238Y-72545380D01*
X111610095Y-72545380D01*
X111705333Y-72497761D01*
X111752952Y-72450142D01*
X112181523Y-72497761D02*
X112276761Y-72545380D01*
X112467238Y-72545380D01*
X112562476Y-72497761D01*
X112610095Y-72402523D01*
X112610095Y-72354904D01*
X112562476Y-72259666D01*
X112467238Y-72212047D01*
X112324380Y-72212047D01*
X112229142Y-72164428D01*
X112181523Y-72069190D01*
X112181523Y-72021571D01*
X112229142Y-71926333D01*
X112324380Y-71878714D01*
X112467238Y-71878714D01*
X112562476Y-71926333D01*
X113419619Y-72497761D02*
X113324380Y-72545380D01*
X113133904Y-72545380D01*
X113038666Y-72497761D01*
X112991047Y-72402523D01*
X112991047Y-72021571D01*
X113038666Y-71926333D01*
X113133904Y-71878714D01*
X113324380Y-71878714D01*
X113419619Y-71926333D01*
X113467238Y-72021571D01*
X113467238Y-72116809D01*
X112991047Y-72212047D01*
X114800571Y-72545380D02*
X114705333Y-72497761D01*
X114657714Y-72450142D01*
X114610095Y-72354904D01*
X114610095Y-72069190D01*
X114657714Y-71973952D01*
X114705333Y-71926333D01*
X114800571Y-71878714D01*
X114943428Y-71878714D01*
X115038666Y-71926333D01*
X115086285Y-71973952D01*
X115133904Y-72069190D01*
X115133904Y-72354904D01*
X115086285Y-72450142D01*
X115038666Y-72497761D01*
X114943428Y-72545380D01*
X114800571Y-72545380D01*
X115562476Y-71878714D02*
X115562476Y-72545380D01*
X115562476Y-71973952D02*
X115610095Y-71926333D01*
X115705333Y-71878714D01*
X115848190Y-71878714D01*
X115943428Y-71926333D01*
X115991047Y-72021571D01*
X115991047Y-72545380D01*
X116848190Y-72497761D02*
X116752952Y-72545380D01*
X116562476Y-72545380D01*
X116467238Y-72497761D01*
X116419619Y-72402523D01*
X116419619Y-72021571D01*
X116467238Y-71926333D01*
X116562476Y-71878714D01*
X116752952Y-71878714D01*
X116848190Y-71926333D01*
X116895809Y-72021571D01*
X116895809Y-72116809D01*
X116419619Y-72212047D01*
X118229142Y-72545380D02*
X118133904Y-72497761D01*
X118086285Y-72450142D01*
X118038666Y-72354904D01*
X118038666Y-72069190D01*
X118086285Y-71973952D01*
X118133904Y-71926333D01*
X118229142Y-71878714D01*
X118372000Y-71878714D01*
X118467238Y-71926333D01*
X118514857Y-71973952D01*
X118562476Y-72069190D01*
X118562476Y-72354904D01*
X118514857Y-72450142D01*
X118467238Y-72497761D01*
X118372000Y-72545380D01*
X118229142Y-72545380D01*
X118848190Y-71878714D02*
X119229142Y-71878714D01*
X118991047Y-72545380D02*
X118991047Y-71688238D01*
X119038666Y-71593000D01*
X119133904Y-71545380D01*
X119229142Y-71545380D01*
X120276761Y-72259666D02*
X120752952Y-72259666D01*
X120181523Y-72545380D02*
X120514857Y-71545380D01*
X120848190Y-72545380D01*
X121181523Y-72545380D02*
X121181523Y-71878714D01*
X121181523Y-72069190D02*
X121229142Y-71973952D01*
X121276761Y-71926333D01*
X121372000Y-71878714D01*
X121467238Y-71878714D01*
X122229142Y-72545380D02*
X122229142Y-71545380D01*
X122229142Y-72497761D02*
X122133904Y-72545380D01*
X121943428Y-72545380D01*
X121848190Y-72497761D01*
X121800571Y-72450142D01*
X121752952Y-72354904D01*
X121752952Y-72069190D01*
X121800571Y-71973952D01*
X121848190Y-71926333D01*
X121943428Y-71878714D01*
X122133904Y-71878714D01*
X122229142Y-71926333D01*
X123133904Y-71878714D02*
X123133904Y-72545380D01*
X122705333Y-71878714D02*
X122705333Y-72402523D01*
X122752952Y-72497761D01*
X122848190Y-72545380D01*
X122991047Y-72545380D01*
X123086285Y-72497761D01*
X123133904Y-72450142D01*
X123610095Y-72545380D02*
X123610095Y-71878714D01*
X123610095Y-71545380D02*
X123562476Y-71593000D01*
X123610095Y-71640619D01*
X123657714Y-71593000D01*
X123610095Y-71545380D01*
X123610095Y-71640619D01*
X124086285Y-71878714D02*
X124086285Y-72545380D01*
X124086285Y-71973952D02*
X124133904Y-71926333D01*
X124229142Y-71878714D01*
X124372000Y-71878714D01*
X124467238Y-71926333D01*
X124514857Y-72021571D01*
X124514857Y-72545380D01*
X125133904Y-72545380D02*
X125038666Y-72497761D01*
X124991047Y-72450142D01*
X124943428Y-72354904D01*
X124943428Y-72069190D01*
X124991047Y-71973952D01*
X125038666Y-71926333D01*
X125133904Y-71878714D01*
X125276761Y-71878714D01*
X125372000Y-71926333D01*
X125419619Y-71973952D01*
X125467238Y-72069190D01*
X125467238Y-72354904D01*
X125419619Y-72450142D01*
X125372000Y-72497761D01*
X125276761Y-72545380D01*
X125133904Y-72545380D01*
X126657714Y-72545380D02*
X126657714Y-71545380D01*
X127229142Y-72545380D01*
X127229142Y-71545380D01*
X128133904Y-72545380D02*
X128133904Y-72021571D01*
X128086285Y-71926333D01*
X127991047Y-71878714D01*
X127800571Y-71878714D01*
X127705333Y-71926333D01*
X128133904Y-72497761D02*
X128038666Y-72545380D01*
X127800571Y-72545380D01*
X127705333Y-72497761D01*
X127657714Y-72402523D01*
X127657714Y-72307285D01*
X127705333Y-72212047D01*
X127800571Y-72164428D01*
X128038666Y-72164428D01*
X128133904Y-72116809D01*
X128610095Y-71878714D02*
X128610095Y-72545380D01*
X128610095Y-71973952D02*
X128657714Y-71926333D01*
X128752952Y-71878714D01*
X128895809Y-71878714D01*
X128991047Y-71926333D01*
X129038666Y-72021571D01*
X129038666Y-72545380D01*
X129657714Y-72545380D02*
X129562476Y-72497761D01*
X129514857Y-72450142D01*
X129467238Y-72354904D01*
X129467238Y-72069190D01*
X129514857Y-71973952D01*
X129562476Y-71926333D01*
X129657714Y-71878714D01*
X129800571Y-71878714D01*
X129895809Y-71926333D01*
X129943428Y-71973952D01*
X129991047Y-72069190D01*
X129991047Y-72354904D01*
X129943428Y-72450142D01*
X129895809Y-72497761D01*
X129800571Y-72545380D01*
X129657714Y-72545380D01*
X130467238Y-72497761D02*
X130467238Y-72545380D01*
X130419619Y-72640619D01*
X130372000Y-72688238D01*
X110752952Y-73155380D02*
X111419619Y-73155380D01*
X110991047Y-74155380D01*
X112229142Y-73488714D02*
X112229142Y-74155380D01*
X111991047Y-73107761D02*
X111752952Y-73822047D01*
X112372000Y-73822047D01*
X112752952Y-74155380D02*
X112752952Y-73155380D01*
X112752952Y-73631571D02*
X113324380Y-73631571D01*
X113324380Y-74155380D02*
X113324380Y-73155380D01*
X114372000Y-74060142D02*
X114324380Y-74107761D01*
X114181523Y-74155380D01*
X114086285Y-74155380D01*
X113943428Y-74107761D01*
X113848190Y-74012523D01*
X113800571Y-73917285D01*
X113752952Y-73726809D01*
X113752952Y-73583952D01*
X113800571Y-73393476D01*
X113848190Y-73298238D01*
X113943428Y-73203000D01*
X114086285Y-73155380D01*
X114181523Y-73155380D01*
X114324380Y-73203000D01*
X114372000Y-73250619D01*
X115324380Y-74155380D02*
X114752952Y-74155380D01*
X115038666Y-74155380D02*
X115038666Y-73155380D01*
X114943428Y-73298238D01*
X114848190Y-73393476D01*
X114752952Y-73441095D01*
X115657714Y-73155380D02*
X116276761Y-73155380D01*
X115943428Y-73536333D01*
X116086285Y-73536333D01*
X116181523Y-73583952D01*
X116229142Y-73631571D01*
X116276761Y-73726809D01*
X116276761Y-73964904D01*
X116229142Y-74060142D01*
X116181523Y-74107761D01*
X116086285Y-74155380D01*
X115800571Y-74155380D01*
X115705333Y-74107761D01*
X115657714Y-74060142D01*
X116848190Y-73583952D02*
X116752952Y-73536333D01*
X116705333Y-73488714D01*
X116657714Y-73393476D01*
X116657714Y-73345857D01*
X116705333Y-73250619D01*
X116752952Y-73203000D01*
X116848190Y-73155380D01*
X117038666Y-73155380D01*
X117133904Y-73203000D01*
X117181523Y-73250619D01*
X117229142Y-73345857D01*
X117229142Y-73393476D01*
X117181523Y-73488714D01*
X117133904Y-73536333D01*
X117038666Y-73583952D01*
X116848190Y-73583952D01*
X116752952Y-73631571D01*
X116705333Y-73679190D01*
X116657714Y-73774428D01*
X116657714Y-73964904D01*
X116705333Y-74060142D01*
X116752952Y-74107761D01*
X116848190Y-74155380D01*
X117038666Y-74155380D01*
X117133904Y-74107761D01*
X117181523Y-74060142D01*
X117229142Y-73964904D01*
X117229142Y-73774428D01*
X117181523Y-73679190D01*
X117133904Y-73631571D01*
X117038666Y-73583952D01*
X118562476Y-74155380D02*
X118467238Y-74107761D01*
X118419619Y-74060142D01*
X118372000Y-73964904D01*
X118372000Y-73679190D01*
X118419619Y-73583952D01*
X118467238Y-73536333D01*
X118562476Y-73488714D01*
X118705333Y-73488714D01*
X118800571Y-73536333D01*
X118848190Y-73583952D01*
X118895809Y-73679190D01*
X118895809Y-73964904D01*
X118848190Y-74060142D01*
X118800571Y-74107761D01*
X118705333Y-74155380D01*
X118562476Y-74155380D01*
X119324380Y-74155380D02*
X119324380Y-73488714D01*
X119324380Y-73679190D02*
X119372000Y-73583952D01*
X119419619Y-73536333D01*
X119514857Y-73488714D01*
X119610095Y-73488714D01*
X120705333Y-74155380D02*
X120705333Y-73155380D01*
X120943428Y-73155380D01*
X121086285Y-73203000D01*
X121181523Y-73298238D01*
X121229142Y-73393476D01*
X121276761Y-73583952D01*
X121276761Y-73726809D01*
X121229142Y-73917285D01*
X121181523Y-74012523D01*
X121086285Y-74107761D01*
X120943428Y-74155380D01*
X120705333Y-74155380D01*
X121705333Y-74155380D02*
X121705333Y-73488714D01*
X121705333Y-73155380D02*
X121657714Y-73203000D01*
X121705333Y-73250619D01*
X121752952Y-73203000D01*
X121705333Y-73155380D01*
X121705333Y-73250619D01*
X122181523Y-74155380D02*
X122181523Y-73488714D01*
X122181523Y-73679190D02*
X122229142Y-73583952D01*
X122276761Y-73536333D01*
X122372000Y-73488714D01*
X122467238Y-73488714D01*
X123181523Y-74107761D02*
X123086285Y-74155380D01*
X122895809Y-74155380D01*
X122800571Y-74107761D01*
X122752952Y-74012523D01*
X122752952Y-73631571D01*
X122800571Y-73536333D01*
X122895809Y-73488714D01*
X123086285Y-73488714D01*
X123181523Y-73536333D01*
X123229142Y-73631571D01*
X123229142Y-73726809D01*
X122752952Y-73822047D01*
X124086285Y-74107761D02*
X123991047Y-74155380D01*
X123800571Y-74155380D01*
X123705333Y-74107761D01*
X123657714Y-74060142D01*
X123610095Y-73964904D01*
X123610095Y-73679190D01*
X123657714Y-73583952D01*
X123705333Y-73536333D01*
X123800571Y-73488714D01*
X123991047Y-73488714D01*
X124086285Y-73536333D01*
X124372000Y-73488714D02*
X124752952Y-73488714D01*
X124514857Y-73155380D02*
X124514857Y-74012523D01*
X124562476Y-74107761D01*
X124657714Y-74155380D01*
X124752952Y-74155380D01*
X125848190Y-74155380D02*
X125848190Y-73155380D01*
X126514857Y-73155380D02*
X126705333Y-73155380D01*
X126800571Y-73203000D01*
X126895809Y-73298238D01*
X126943428Y-73488714D01*
X126943428Y-73822047D01*
X126895809Y-74012523D01*
X126800571Y-74107761D01*
X126705333Y-74155380D01*
X126514857Y-74155380D01*
X126419619Y-74107761D01*
X126324380Y-74012523D01*
X126276761Y-73822047D01*
X126276761Y-73488714D01*
X126324380Y-73298238D01*
X126419619Y-73203000D01*
X126514857Y-73155380D01*
D11*
X159296666Y-61646857D02*
X159410952Y-61684952D01*
X159449047Y-61723047D01*
X159487142Y-61799238D01*
X159487142Y-61913523D01*
X159449047Y-61989714D01*
X159410952Y-62027809D01*
X159334761Y-62065904D01*
X159030000Y-62065904D01*
X159030000Y-61265904D01*
X159296666Y-61265904D01*
X159372857Y-61304000D01*
X159410952Y-61342095D01*
X159449047Y-61418285D01*
X159449047Y-61494476D01*
X159410952Y-61570666D01*
X159372857Y-61608761D01*
X159296666Y-61646857D01*
X159030000Y-61646857D01*
X160172857Y-61532571D02*
X160172857Y-62065904D01*
X159830000Y-61532571D02*
X159830000Y-61951619D01*
X159868095Y-62027809D01*
X159944285Y-62065904D01*
X160058571Y-62065904D01*
X160134761Y-62027809D01*
X160172857Y-61989714D01*
X160439523Y-61532571D02*
X160744285Y-61532571D01*
X160553809Y-61265904D02*
X160553809Y-61951619D01*
X160591904Y-62027809D01*
X160668095Y-62065904D01*
X160744285Y-62065904D01*
X160896666Y-61532571D02*
X161201428Y-61532571D01*
X161010952Y-61265904D02*
X161010952Y-61951619D01*
X161049047Y-62027809D01*
X161125238Y-62065904D01*
X161201428Y-62065904D01*
X161582380Y-62065904D02*
X161506190Y-62027809D01*
X161468095Y-61989714D01*
X161430000Y-61913523D01*
X161430000Y-61684952D01*
X161468095Y-61608761D01*
X161506190Y-61570666D01*
X161582380Y-61532571D01*
X161696666Y-61532571D01*
X161772857Y-61570666D01*
X161810952Y-61608761D01*
X161849047Y-61684952D01*
X161849047Y-61913523D01*
X161810952Y-61989714D01*
X161772857Y-62027809D01*
X161696666Y-62065904D01*
X161582380Y-62065904D01*
X162191904Y-61532571D02*
X162191904Y-62065904D01*
X162191904Y-61608761D02*
X162230000Y-61570666D01*
X162306190Y-61532571D01*
X162420476Y-61532571D01*
X162496666Y-61570666D01*
X162534761Y-61646857D01*
X162534761Y-62065904D01*
X163525238Y-62065904D02*
X163525238Y-61265904D01*
X163982380Y-62065904D02*
X163639523Y-61608761D01*
X163982380Y-61265904D02*
X163525238Y-61723047D01*
X164630000Y-62027809D02*
X164553809Y-62065904D01*
X164401428Y-62065904D01*
X164325238Y-62027809D01*
X164287142Y-61951619D01*
X164287142Y-61646857D01*
X164325238Y-61570666D01*
X164401428Y-61532571D01*
X164553809Y-61532571D01*
X164630000Y-61570666D01*
X164668095Y-61646857D01*
X164668095Y-61723047D01*
X164287142Y-61799238D01*
X164934761Y-61532571D02*
X165125238Y-62065904D01*
X165315714Y-61532571D02*
X165125238Y-62065904D01*
X165049047Y-62256380D01*
X165010952Y-62294476D01*
X164934761Y-62332571D01*
X165620476Y-62065904D02*
X165620476Y-61265904D01*
X165620476Y-61570666D02*
X165696666Y-61532571D01*
X165849047Y-61532571D01*
X165925238Y-61570666D01*
X165963333Y-61608761D01*
X166001428Y-61684952D01*
X166001428Y-61913523D01*
X165963333Y-61989714D01*
X165925238Y-62027809D01*
X165849047Y-62065904D01*
X165696666Y-62065904D01*
X165620476Y-62027809D01*
X166458571Y-62065904D02*
X166382380Y-62027809D01*
X166344285Y-61989714D01*
X166306190Y-61913523D01*
X166306190Y-61684952D01*
X166344285Y-61608761D01*
X166382380Y-61570666D01*
X166458571Y-61532571D01*
X166572857Y-61532571D01*
X166649047Y-61570666D01*
X166687142Y-61608761D01*
X166725238Y-61684952D01*
X166725238Y-61913523D01*
X166687142Y-61989714D01*
X166649047Y-62027809D01*
X166572857Y-62065904D01*
X166458571Y-62065904D01*
X167410952Y-62065904D02*
X167410952Y-61646857D01*
X167372857Y-61570666D01*
X167296666Y-61532571D01*
X167144285Y-61532571D01*
X167068095Y-61570666D01*
X167410952Y-62027809D02*
X167334761Y-62065904D01*
X167144285Y-62065904D01*
X167068095Y-62027809D01*
X167030000Y-61951619D01*
X167030000Y-61875428D01*
X167068095Y-61799238D01*
X167144285Y-61761142D01*
X167334761Y-61761142D01*
X167410952Y-61723047D01*
X167791904Y-62065904D02*
X167791904Y-61532571D01*
X167791904Y-61684952D02*
X167830000Y-61608761D01*
X167868095Y-61570666D01*
X167944285Y-61532571D01*
X168020476Y-61532571D01*
X168630000Y-62065904D02*
X168630000Y-61265904D01*
X168630000Y-62027809D02*
X168553809Y-62065904D01*
X168401428Y-62065904D01*
X168325238Y-62027809D01*
X168287142Y-61989714D01*
X168249047Y-61913523D01*
X168249047Y-61684952D01*
X168287142Y-61608761D01*
X168325238Y-61570666D01*
X168401428Y-61532571D01*
X168553809Y-61532571D01*
X168630000Y-61570666D01*
X159677619Y-63353904D02*
X159677619Y-62553904D01*
X159677619Y-63315809D02*
X159601428Y-63353904D01*
X159449047Y-63353904D01*
X159372857Y-63315809D01*
X159334761Y-63277714D01*
X159296666Y-63201523D01*
X159296666Y-62972952D01*
X159334761Y-62896761D01*
X159372857Y-62858666D01*
X159449047Y-62820571D01*
X159601428Y-62820571D01*
X159677619Y-62858666D01*
X160058571Y-63353904D02*
X160058571Y-62820571D01*
X160058571Y-62553904D02*
X160020476Y-62592000D01*
X160058571Y-62630095D01*
X160096666Y-62592000D01*
X160058571Y-62553904D01*
X160058571Y-62630095D01*
X160363333Y-62820571D02*
X160553809Y-63353904D01*
X160744285Y-62820571D02*
X160553809Y-63353904D01*
X160477619Y-63544380D01*
X160439523Y-63582476D01*
X160363333Y-63620571D01*
X161353809Y-63315809D02*
X161277619Y-63353904D01*
X161125238Y-63353904D01*
X161049047Y-63315809D01*
X161010952Y-63239619D01*
X161010952Y-62934857D01*
X161049047Y-62858666D01*
X161125238Y-62820571D01*
X161277619Y-62820571D01*
X161353809Y-62858666D01*
X161391904Y-62934857D01*
X161391904Y-63011047D01*
X161010952Y-63087238D01*
X161849047Y-63353904D02*
X161772857Y-63315809D01*
X161734761Y-63239619D01*
X161734761Y-62553904D01*
X162458571Y-63315809D02*
X162382380Y-63353904D01*
X162230000Y-63353904D01*
X162153809Y-63315809D01*
X162115714Y-63239619D01*
X162115714Y-62934857D01*
X162153809Y-62858666D01*
X162230000Y-62820571D01*
X162382380Y-62820571D01*
X162458571Y-62858666D01*
X162496666Y-62934857D01*
X162496666Y-63011047D01*
X162115714Y-63087238D01*
X163182380Y-63315809D02*
X163106190Y-63353904D01*
X162953809Y-63353904D01*
X162877619Y-63315809D01*
X162839523Y-63277714D01*
X162801428Y-63201523D01*
X162801428Y-62972952D01*
X162839523Y-62896761D01*
X162877619Y-62858666D01*
X162953809Y-62820571D01*
X163106190Y-62820571D01*
X163182380Y-62858666D01*
X163410952Y-62820571D02*
X163715714Y-62820571D01*
X163525238Y-62553904D02*
X163525238Y-63239619D01*
X163563333Y-63315809D01*
X163639523Y-63353904D01*
X163715714Y-63353904D01*
X163982380Y-63353904D02*
X163982380Y-62820571D01*
X163982380Y-62972952D02*
X164020476Y-62896761D01*
X164058571Y-62858666D01*
X164134761Y-62820571D01*
X164210952Y-62820571D01*
X164591904Y-63353904D02*
X164515714Y-63315809D01*
X164477619Y-63277714D01*
X164439523Y-63201523D01*
X164439523Y-62972952D01*
X164477619Y-62896761D01*
X164515714Y-62858666D01*
X164591904Y-62820571D01*
X164706190Y-62820571D01*
X164782380Y-62858666D01*
X164820476Y-62896761D01*
X164858571Y-62972952D01*
X164858571Y-63201523D01*
X164820476Y-63277714D01*
X164782380Y-63315809D01*
X164706190Y-63353904D01*
X164591904Y-63353904D01*
X165201428Y-63353904D02*
X165201428Y-62820571D01*
X165201428Y-62896761D02*
X165239523Y-62858666D01*
X165315714Y-62820571D01*
X165430000Y-62820571D01*
X165506190Y-62858666D01*
X165544285Y-62934857D01*
X165544285Y-63353904D01*
X165544285Y-62934857D02*
X165582380Y-62858666D01*
X165658571Y-62820571D01*
X165772857Y-62820571D01*
X165849047Y-62858666D01*
X165887142Y-62934857D01*
X165887142Y-63353904D01*
X166610952Y-62820571D02*
X166610952Y-63353904D01*
X166268095Y-62820571D02*
X166268095Y-63239619D01*
X166306190Y-63315809D01*
X166382380Y-63353904D01*
X166496666Y-63353904D01*
X166572857Y-63315809D01*
X166610952Y-63277714D01*
X166953809Y-63315809D02*
X167030000Y-63353904D01*
X167182380Y-63353904D01*
X167258571Y-63315809D01*
X167296666Y-63239619D01*
X167296666Y-63201523D01*
X167258571Y-63125333D01*
X167182380Y-63087238D01*
X167068095Y-63087238D01*
X166991904Y-63049142D01*
X166953809Y-62972952D01*
X166953809Y-62934857D01*
X166991904Y-62858666D01*
X167068095Y-62820571D01*
X167182380Y-62820571D01*
X167258571Y-62858666D01*
X167639523Y-63353904D02*
X167639523Y-62820571D01*
X167639523Y-62553904D02*
X167601428Y-62592000D01*
X167639523Y-62630095D01*
X167677619Y-62592000D01*
X167639523Y-62553904D01*
X167639523Y-62630095D01*
X168363333Y-63315809D02*
X168287142Y-63353904D01*
X168134761Y-63353904D01*
X168058571Y-63315809D01*
X168020476Y-63277714D01*
X167982380Y-63201523D01*
X167982380Y-62972952D01*
X168020476Y-62896761D01*
X168058571Y-62858666D01*
X168134761Y-62820571D01*
X168287142Y-62820571D01*
X168363333Y-62858666D01*
X160858571Y-64108571D02*
X161049047Y-64641904D01*
X161239523Y-64108571D01*
X161696666Y-63841904D02*
X161772857Y-63841904D01*
X161849047Y-63880000D01*
X161887142Y-63918095D01*
X161925238Y-63994285D01*
X161963333Y-64146666D01*
X161963333Y-64337142D01*
X161925238Y-64489523D01*
X161887142Y-64565714D01*
X161849047Y-64603809D01*
X161772857Y-64641904D01*
X161696666Y-64641904D01*
X161620476Y-64603809D01*
X161582380Y-64565714D01*
X161544285Y-64489523D01*
X161506190Y-64337142D01*
X161506190Y-64146666D01*
X161544285Y-63994285D01*
X161582380Y-63918095D01*
X161620476Y-63880000D01*
X161696666Y-63841904D01*
X162306190Y-64565714D02*
X162344285Y-64603809D01*
X162306190Y-64641904D01*
X162268095Y-64603809D01*
X162306190Y-64565714D01*
X162306190Y-64641904D01*
X163106190Y-64641904D02*
X162649047Y-64641904D01*
X162877619Y-64641904D02*
X162877619Y-63841904D01*
X162801428Y-63956190D01*
X162725238Y-64032380D01*
X162649047Y-64070476D01*
X164020476Y-63918095D02*
X164058571Y-63880000D01*
X164134761Y-63841904D01*
X164325238Y-63841904D01*
X164401428Y-63880000D01*
X164439523Y-63918095D01*
X164477619Y-63994285D01*
X164477619Y-64070476D01*
X164439523Y-64184761D01*
X163982380Y-64641904D01*
X164477619Y-64641904D01*
X164972857Y-63841904D02*
X165049047Y-63841904D01*
X165125238Y-63880000D01*
X165163333Y-63918095D01*
X165201428Y-63994285D01*
X165239523Y-64146666D01*
X165239523Y-64337142D01*
X165201428Y-64489523D01*
X165163333Y-64565714D01*
X165125238Y-64603809D01*
X165049047Y-64641904D01*
X164972857Y-64641904D01*
X164896666Y-64603809D01*
X164858571Y-64565714D01*
X164820476Y-64489523D01*
X164782380Y-64337142D01*
X164782380Y-64146666D01*
X164820476Y-63994285D01*
X164858571Y-63918095D01*
X164896666Y-63880000D01*
X164972857Y-63841904D01*
X165544285Y-63918095D02*
X165582380Y-63880000D01*
X165658571Y-63841904D01*
X165849047Y-63841904D01*
X165925238Y-63880000D01*
X165963333Y-63918095D01*
X166001428Y-63994285D01*
X166001428Y-64070476D01*
X165963333Y-64184761D01*
X165506190Y-64641904D01*
X166001428Y-64641904D01*
X166268095Y-63841904D02*
X166763333Y-63841904D01*
X166496666Y-64146666D01*
X166610952Y-64146666D01*
X166687142Y-64184761D01*
X166725238Y-64222857D01*
X166763333Y-64299047D01*
X166763333Y-64489523D01*
X166725238Y-64565714D01*
X166687142Y-64603809D01*
X166610952Y-64641904D01*
X166382380Y-64641904D01*
X166306190Y-64603809D01*
X166268095Y-64565714D01*
D10*
X170180000Y-109000000D02*
X170180000Y-118000000D01*
D12*
X140860047Y-106115809D02*
X139945761Y-106115809D01*
X140402904Y-106115809D02*
X140402904Y-104515809D01*
X140250523Y-104744380D01*
X140098142Y-104896761D01*
X139945761Y-104972952D01*
X149926714Y-104515809D02*
X150917190Y-104515809D01*
X150383857Y-105125333D01*
X150612428Y-105125333D01*
X150764809Y-105201523D01*
X150841000Y-105277714D01*
X150917190Y-105430095D01*
X150917190Y-105811047D01*
X150841000Y-105963428D01*
X150764809Y-106039619D01*
X150612428Y-106115809D01*
X150155285Y-106115809D01*
X150002904Y-106039619D01*
X149926714Y-105963428D01*
X160898142Y-104515809D02*
X160136238Y-104515809D01*
X160060047Y-105277714D01*
X160136238Y-105201523D01*
X160288619Y-105125333D01*
X160669571Y-105125333D01*
X160821952Y-105201523D01*
X160898142Y-105277714D01*
X160974333Y-105430095D01*
X160974333Y-105811047D01*
X160898142Y-105963428D01*
X160821952Y-106039619D01*
X160669571Y-106115809D01*
X160288619Y-106115809D01*
X160136238Y-106039619D01*
X160060047Y-105963428D01*
X144821952Y-107244190D02*
X144898142Y-107168000D01*
X145050523Y-107091809D01*
X145431476Y-107091809D01*
X145583857Y-107168000D01*
X145660047Y-107244190D01*
X145736238Y-107396571D01*
X145736238Y-107548952D01*
X145660047Y-107777523D01*
X144745761Y-108691809D01*
X145736238Y-108691809D01*
X155641000Y-107625142D02*
X155641000Y-108691809D01*
X155260047Y-107015619D02*
X154879095Y-108158476D01*
X155869571Y-108158476D01*
X165698142Y-107091809D02*
X165393380Y-107091809D01*
X165241000Y-107168000D01*
X165164809Y-107244190D01*
X165012428Y-107472761D01*
X164936238Y-107777523D01*
X164936238Y-108387047D01*
X165012428Y-108539428D01*
X165088619Y-108615619D01*
X165241000Y-108691809D01*
X165545761Y-108691809D01*
X165698142Y-108615619D01*
X165774333Y-108539428D01*
X165850523Y-108387047D01*
X165850523Y-108006095D01*
X165774333Y-107853714D01*
X165698142Y-107777523D01*
X165545761Y-107701333D01*
X165241000Y-107701333D01*
X165088619Y-107777523D01*
X165012428Y-107853714D01*
X164936238Y-108006095D01*
X176136238Y-107091809D02*
X177202904Y-107091809D01*
X176517190Y-108691809D01*
X109769952Y-104414190D02*
X109846142Y-104338000D01*
X109998523Y-104261809D01*
X110379476Y-104261809D01*
X110531857Y-104338000D01*
X110608047Y-104414190D01*
X110684238Y-104566571D01*
X110684238Y-104718952D01*
X110608047Y-104947523D01*
X109693761Y-105861809D01*
X110684238Y-105861809D01*
X120589000Y-104795142D02*
X120589000Y-105861809D01*
X120208047Y-104185619D02*
X119827095Y-105328476D01*
X120817571Y-105328476D01*
X105808047Y-108437809D02*
X104893761Y-108437809D01*
X105350904Y-108437809D02*
X105350904Y-106837809D01*
X105198523Y-107066380D01*
X105046142Y-107218761D01*
X104893761Y-107294952D01*
X114874714Y-106837809D02*
X115865190Y-106837809D01*
X115331857Y-107447333D01*
X115560428Y-107447333D01*
X115712809Y-107523523D01*
X115789000Y-107599714D01*
X115865190Y-107752095D01*
X115865190Y-108133047D01*
X115789000Y-108285428D01*
X115712809Y-108361619D01*
X115560428Y-108437809D01*
X115103285Y-108437809D01*
X114950904Y-108361619D01*
X114874714Y-108285428D01*
X125846142Y-106837809D02*
X125084238Y-106837809D01*
X125008047Y-107599714D01*
X125084238Y-107523523D01*
X125236619Y-107447333D01*
X125617571Y-107447333D01*
X125769952Y-107523523D01*
X125846142Y-107599714D01*
X125922333Y-107752095D01*
X125922333Y-108133047D01*
X125846142Y-108285428D01*
X125769952Y-108361619D01*
X125617571Y-108437809D01*
X125236619Y-108437809D01*
X125084238Y-108361619D01*
X125008047Y-108285428D01*
X135827095Y-106837809D02*
X135522333Y-106837809D01*
X135369952Y-106914000D01*
X135293761Y-106990190D01*
X135141380Y-107218761D01*
X135065190Y-107523523D01*
X135065190Y-108133047D01*
X135141380Y-108285428D01*
X135217571Y-108361619D01*
X135369952Y-108437809D01*
X135674714Y-108437809D01*
X135827095Y-108361619D01*
X135903285Y-108285428D01*
X135979476Y-108133047D01*
X135979476Y-107752095D01*
X135903285Y-107599714D01*
X135827095Y-107523523D01*
X135674714Y-107447333D01*
X135369952Y-107447333D01*
X135217571Y-107523523D01*
X135141380Y-107599714D01*
X135065190Y-107752095D01*
X104223428Y-85408571D02*
X104223428Y-84551428D01*
X104223428Y-84980000D02*
X105723428Y-84980000D01*
X105509142Y-84837142D01*
X105366285Y-84694285D01*
X105294857Y-84551428D01*
X105580571Y-87122857D02*
X105652000Y-87194285D01*
X105723428Y-87337142D01*
X105723428Y-87694285D01*
X105652000Y-87837142D01*
X105580571Y-87908571D01*
X105437714Y-87980000D01*
X105294857Y-87980000D01*
X105080571Y-87908571D01*
X104223428Y-87051428D01*
X104223428Y-87980000D01*
X105723428Y-89622857D02*
X105723428Y-90551428D01*
X105152000Y-90051428D01*
X105152000Y-90265714D01*
X105080571Y-90408571D01*
X105009142Y-90480000D01*
X104866285Y-90551428D01*
X104509142Y-90551428D01*
X104366285Y-90480000D01*
X104294857Y-90408571D01*
X104223428Y-90265714D01*
X104223428Y-89837142D01*
X104294857Y-89694285D01*
X104366285Y-89622857D01*
X105223428Y-92980000D02*
X104223428Y-92980000D01*
X105794857Y-92622857D02*
X104723428Y-92265714D01*
X104723428Y-93194285D01*
X105723428Y-95622857D02*
X105723428Y-94908571D01*
X105009142Y-94837142D01*
X105080571Y-94908571D01*
X105152000Y-95051428D01*
X105152000Y-95408571D01*
X105080571Y-95551428D01*
X105009142Y-95622857D01*
X104866285Y-95694285D01*
X104509142Y-95694285D01*
X104366285Y-95622857D01*
X104294857Y-95551428D01*
X104223428Y-95408571D01*
X104223428Y-95051428D01*
X104294857Y-94908571D01*
X104366285Y-94837142D01*
X105723428Y-98122857D02*
X105723428Y-97837142D01*
X105652000Y-97694285D01*
X105580571Y-97622857D01*
X105366285Y-97480000D01*
X105080571Y-97408571D01*
X104509142Y-97408571D01*
X104366285Y-97480000D01*
X104294857Y-97551428D01*
X104223428Y-97694285D01*
X104223428Y-97980000D01*
X104294857Y-98122857D01*
X104366285Y-98194285D01*
X104509142Y-98265714D01*
X104866285Y-98265714D01*
X105009142Y-98194285D01*
X105080571Y-98122857D01*
X105152000Y-97980000D01*
X105152000Y-97694285D01*
X105080571Y-97551428D01*
X105009142Y-97480000D01*
X104866285Y-97408571D01*
X105723428Y-99908571D02*
X105723428Y-100908571D01*
X104223428Y-100265714D01*
X105080571Y-102837142D02*
X105152000Y-102694285D01*
X105223428Y-102622857D01*
X105366285Y-102551428D01*
X105437714Y-102551428D01*
X105580571Y-102622857D01*
X105652000Y-102694285D01*
X105723428Y-102837142D01*
X105723428Y-103122857D01*
X105652000Y-103265714D01*
X105580571Y-103337142D01*
X105437714Y-103408571D01*
X105366285Y-103408571D01*
X105223428Y-103337142D01*
X105152000Y-103265714D01*
X105080571Y-103122857D01*
X105080571Y-102837142D01*
X105009142Y-102694285D01*
X104937714Y-102622857D01*
X104794857Y-102551428D01*
X104509142Y-102551428D01*
X104366285Y-102622857D01*
X104294857Y-102694285D01*
X104223428Y-102837142D01*
X104223428Y-103122857D01*
X104294857Y-103265714D01*
X104366285Y-103337142D01*
X104509142Y-103408571D01*
X104794857Y-103408571D01*
X104937714Y-103337142D01*
X105009142Y-103265714D01*
X105080571Y-103122857D01*
X164445142Y-80842857D02*
X164445142Y-79700000D01*
X164445142Y-77842857D02*
X164445142Y-76700000D01*
X164016571Y-74200000D02*
X165016571Y-74200000D01*
X163445142Y-74557142D02*
X164516571Y-74914285D01*
X164516571Y-73985714D01*
X163516571Y-72414285D02*
X163516571Y-71485714D01*
X164088000Y-71985714D01*
X164088000Y-71771428D01*
X164159428Y-71628571D01*
X164230857Y-71557142D01*
X164373714Y-71485714D01*
X164730857Y-71485714D01*
X164873714Y-71557142D01*
X164945142Y-71628571D01*
X165016571Y-71771428D01*
X165016571Y-72200000D01*
X164945142Y-72342857D01*
X164873714Y-72414285D01*
X104477428Y-72263428D02*
X104477428Y-71406285D01*
X104477428Y-71834857D02*
X105977428Y-71834857D01*
X105763142Y-71692000D01*
X105620285Y-71549142D01*
X105548857Y-71406285D01*
X105834571Y-73977714D02*
X105906000Y-74049142D01*
X105977428Y-74192000D01*
X105977428Y-74549142D01*
X105906000Y-74692000D01*
X105834571Y-74763428D01*
X105691714Y-74834857D01*
X105548857Y-74834857D01*
X105334571Y-74763428D01*
X104477428Y-73906285D01*
X104477428Y-74834857D01*
X105977428Y-76477714D02*
X105977428Y-77406285D01*
X105406000Y-76906285D01*
X105406000Y-77120571D01*
X105334571Y-77263428D01*
X105263142Y-77334857D01*
X105120285Y-77406285D01*
X104763142Y-77406285D01*
X104620285Y-77334857D01*
X104548857Y-77263428D01*
X104477428Y-77120571D01*
X104477428Y-76692000D01*
X104548857Y-76549142D01*
X104620285Y-76477714D01*
X105477428Y-79834857D02*
X104477428Y-79834857D01*
X106048857Y-79477714D02*
X104977428Y-79120571D01*
X104977428Y-80049142D01*
D10*
X101428857Y-64606142D02*
X101000285Y-64606142D01*
X100957428Y-65034714D01*
X101000285Y-64991857D01*
X101086000Y-64949000D01*
X101300285Y-64949000D01*
X101386000Y-64991857D01*
X101428857Y-65034714D01*
X101471714Y-65120428D01*
X101471714Y-65334714D01*
X101428857Y-65420428D01*
X101386000Y-65463285D01*
X101300285Y-65506142D01*
X101086000Y-65506142D01*
X101000285Y-65463285D01*
X100957428Y-65420428D01*
X101728857Y-64606142D02*
X102028857Y-65506142D01*
X102328857Y-64606142D01*
X103786000Y-64649000D02*
X103700285Y-64606142D01*
X103571714Y-64606142D01*
X103443142Y-64649000D01*
X103357428Y-64734714D01*
X103314571Y-64820428D01*
X103271714Y-64991857D01*
X103271714Y-65120428D01*
X103314571Y-65291857D01*
X103357428Y-65377571D01*
X103443142Y-65463285D01*
X103571714Y-65506142D01*
X103657428Y-65506142D01*
X103786000Y-65463285D01*
X103828857Y-65420428D01*
X103828857Y-65120428D01*
X103657428Y-65120428D01*
X104214571Y-65506142D02*
X104214571Y-64606142D01*
X104728857Y-65506142D01*
X104728857Y-64606142D01*
X105157428Y-65506142D02*
X105157428Y-64606142D01*
X105371714Y-64606142D01*
X105500285Y-64649000D01*
X105586000Y-64734714D01*
X105628857Y-64820428D01*
X105671714Y-64991857D01*
X105671714Y-65120428D01*
X105628857Y-65291857D01*
X105586000Y-65377571D01*
X105500285Y-65463285D01*
X105371714Y-65506142D01*
X105157428Y-65506142D01*
X106700285Y-65249000D02*
X107128857Y-65249000D01*
X106614571Y-65506142D02*
X106914571Y-64606142D01*
X107214571Y-65506142D01*
X107686000Y-64606142D02*
X107771714Y-64606142D01*
X107857428Y-64649000D01*
X107900285Y-64691857D01*
X107943142Y-64777571D01*
X107986000Y-64949000D01*
X107986000Y-65163285D01*
X107943142Y-65334714D01*
X107900285Y-65420428D01*
X107857428Y-65463285D01*
X107771714Y-65506142D01*
X107686000Y-65506142D01*
X107600285Y-65463285D01*
X107557428Y-65420428D01*
X107514571Y-65334714D01*
X107471714Y-65163285D01*
X107471714Y-64949000D01*
X107514571Y-64777571D01*
X107557428Y-64691857D01*
X107600285Y-64649000D01*
X107686000Y-64606142D01*
X109014571Y-65249000D02*
X109443142Y-65249000D01*
X108928857Y-65506142D02*
X109228857Y-64606142D01*
X109528857Y-65506142D01*
X110300285Y-65506142D02*
X109786000Y-65506142D01*
X110043142Y-65506142D02*
X110043142Y-64606142D01*
X109957428Y-64734714D01*
X109871714Y-64820428D01*
X109786000Y-64863285D01*
X111328857Y-65249000D02*
X111757428Y-65249000D01*
X111243142Y-65506142D02*
X111543142Y-64606142D01*
X111843142Y-65506142D01*
X112100285Y-64691857D02*
X112143142Y-64649000D01*
X112228857Y-64606142D01*
X112443142Y-64606142D01*
X112528857Y-64649000D01*
X112571714Y-64691857D01*
X112614571Y-64777571D01*
X112614571Y-64863285D01*
X112571714Y-64991857D01*
X112057428Y-65506142D01*
X112614571Y-65506142D01*
X113686000Y-65163285D02*
X114371714Y-65163285D01*
X115486000Y-65506142D02*
X115486000Y-64606142D01*
X115486000Y-65034714D02*
X116000285Y-65034714D01*
X116000285Y-65506142D02*
X116000285Y-64606142D01*
X116943142Y-65420428D02*
X116900285Y-65463285D01*
X116771714Y-65506142D01*
X116686000Y-65506142D01*
X116557428Y-65463285D01*
X116471714Y-65377571D01*
X116428857Y-65291857D01*
X116386000Y-65120428D01*
X116386000Y-64991857D01*
X116428857Y-64820428D01*
X116471714Y-64734714D01*
X116557428Y-64649000D01*
X116686000Y-64606142D01*
X116771714Y-64606142D01*
X116900285Y-64649000D01*
X116943142Y-64691857D01*
X117800285Y-65506142D02*
X117286000Y-65506142D01*
X117543142Y-65506142D02*
X117543142Y-64606142D01*
X117457428Y-64734714D01*
X117371714Y-64820428D01*
X117286000Y-64863285D01*
X118100285Y-64606142D02*
X118657428Y-64606142D01*
X118357428Y-64949000D01*
X118486000Y-64949000D01*
X118571714Y-64991857D01*
X118614571Y-65034714D01*
X118657428Y-65120428D01*
X118657428Y-65334714D01*
X118614571Y-65420428D01*
X118571714Y-65463285D01*
X118486000Y-65506142D01*
X118228857Y-65506142D01*
X118143142Y-65463285D01*
X118100285Y-65420428D01*
X119171714Y-64991857D02*
X119086000Y-64949000D01*
X119043142Y-64906142D01*
X119000285Y-64820428D01*
X119000285Y-64777571D01*
X119043142Y-64691857D01*
X119086000Y-64649000D01*
X119171714Y-64606142D01*
X119343142Y-64606142D01*
X119428857Y-64649000D01*
X119471714Y-64691857D01*
X119514571Y-64777571D01*
X119514571Y-64820428D01*
X119471714Y-64906142D01*
X119428857Y-64949000D01*
X119343142Y-64991857D01*
X119171714Y-64991857D01*
X119086000Y-65034714D01*
X119043142Y-65077571D01*
X119000285Y-65163285D01*
X119000285Y-65334714D01*
X119043142Y-65420428D01*
X119086000Y-65463285D01*
X119171714Y-65506142D01*
X119343142Y-65506142D01*
X119428857Y-65463285D01*
X119471714Y-65420428D01*
X119514571Y-65334714D01*
X119514571Y-65163285D01*
X119471714Y-65077571D01*
X119428857Y-65034714D01*
X119343142Y-64991857D01*
X101386000Y-67504142D02*
X100957428Y-67504142D01*
X100914571Y-67932714D01*
X100957428Y-67889857D01*
X101043142Y-67847000D01*
X101257428Y-67847000D01*
X101343142Y-67889857D01*
X101386000Y-67932714D01*
X101428857Y-68018428D01*
X101428857Y-68232714D01*
X101386000Y-68318428D01*
X101343142Y-68361285D01*
X101257428Y-68404142D01*
X101043142Y-68404142D01*
X100957428Y-68361285D01*
X100914571Y-68318428D01*
X101686000Y-67504142D02*
X101986000Y-68404142D01*
X102286000Y-67504142D01*
X103743142Y-67547000D02*
X103657428Y-67504142D01*
X103528857Y-67504142D01*
X103400285Y-67547000D01*
X103314571Y-67632714D01*
X103271714Y-67718428D01*
X103228857Y-67889857D01*
X103228857Y-68018428D01*
X103271714Y-68189857D01*
X103314571Y-68275571D01*
X103400285Y-68361285D01*
X103528857Y-68404142D01*
X103614571Y-68404142D01*
X103743142Y-68361285D01*
X103786000Y-68318428D01*
X103786000Y-68018428D01*
X103614571Y-68018428D01*
X104171714Y-68404142D02*
X104171714Y-67504142D01*
X104686000Y-68404142D01*
X104686000Y-67504142D01*
X105114571Y-68404142D02*
X105114571Y-67504142D01*
X105328857Y-67504142D01*
X105457428Y-67547000D01*
X105543142Y-67632714D01*
X105586000Y-67718428D01*
X105628857Y-67889857D01*
X105628857Y-68018428D01*
X105586000Y-68189857D01*
X105543142Y-68275571D01*
X105457428Y-68361285D01*
X105328857Y-68404142D01*
X105114571Y-68404142D01*
X106571714Y-67504142D02*
X107086000Y-67504142D01*
X106828857Y-68404142D02*
X106828857Y-67504142D01*
X107300285Y-67504142D02*
X107900285Y-68404142D01*
X107900285Y-67504142D02*
X107300285Y-68404142D01*
X109443142Y-68404142D02*
X109143142Y-67975571D01*
X108928857Y-68404142D02*
X108928857Y-67504142D01*
X109271714Y-67504142D01*
X109357428Y-67547000D01*
X109400285Y-67589857D01*
X109443142Y-67675571D01*
X109443142Y-67804142D01*
X109400285Y-67889857D01*
X109357428Y-67932714D01*
X109271714Y-67975571D01*
X108928857Y-67975571D01*
X109743142Y-67504142D02*
X110343142Y-68404142D01*
X110343142Y-67504142D02*
X109743142Y-68404142D01*
X111371714Y-68404142D02*
X111371714Y-67504142D01*
X111885999Y-68404142D01*
X111885999Y-67504142D01*
X112957428Y-67461285D02*
X112185999Y-68618428D01*
X113771714Y-68318428D02*
X113728857Y-68361285D01*
X113600285Y-68404142D01*
X113514571Y-68404142D01*
X113385999Y-68361285D01*
X113300285Y-68275571D01*
X113257428Y-68189857D01*
X113214571Y-68018428D01*
X113214571Y-67889857D01*
X113257428Y-67718428D01*
X113300285Y-67632714D01*
X113385999Y-67547000D01*
X113514571Y-67504142D01*
X113600285Y-67504142D01*
X113728857Y-67547000D01*
X113771714Y-67589857D01*
X114843142Y-68061285D02*
X115528857Y-68061285D01*
X116643142Y-67504142D02*
X116643142Y-68232714D01*
X116685999Y-68318428D01*
X116728857Y-68361285D01*
X116814571Y-68404142D01*
X116985999Y-68404142D01*
X117071714Y-68361285D01*
X117114571Y-68318428D01*
X117157428Y-68232714D01*
X117157428Y-67504142D01*
X117543142Y-68147000D02*
X117971714Y-68147000D01*
X117457428Y-68404142D02*
X117757428Y-67504142D01*
X118057428Y-68404142D01*
X118871714Y-68404142D02*
X118571714Y-67975571D01*
X118357428Y-68404142D02*
X118357428Y-67504142D01*
X118700285Y-67504142D01*
X118785999Y-67547000D01*
X118828857Y-67589857D01*
X118871714Y-67675571D01*
X118871714Y-67804142D01*
X118828857Y-67889857D01*
X118785999Y-67932714D01*
X118700285Y-67975571D01*
X118357428Y-67975571D01*
X119128857Y-67504142D02*
X119643142Y-67504142D01*
X119385999Y-68404142D02*
X119385999Y-67504142D01*
X162052000Y-73152000D02*
X157734000Y-73152000D01*
X157734000Y-73152000D02*
X157734000Y-65532000D01*
X157734000Y-65532000D02*
X162052000Y-65532000D01*
X162052000Y-65532000D02*
X162052000Y-73152000D01*
X170180000Y-93000000D02*
X170180000Y-101000000D01*
%TO.C,C1*%
X156942380Y-72787619D02*
X156942380Y-73359047D01*
X156942380Y-73073333D02*
X155942380Y-73073333D01*
X156085238Y-73168571D01*
X156180476Y-73263809D01*
X156228095Y-73359047D01*
X155942380Y-72168571D02*
X155942380Y-72073333D01*
X155990000Y-71978095D01*
X156037619Y-71930476D01*
X156132857Y-71882857D01*
X156323333Y-71835238D01*
X156561428Y-71835238D01*
X156751904Y-71882857D01*
X156847142Y-71930476D01*
X156894761Y-71978095D01*
X156942380Y-72073333D01*
X156942380Y-72168571D01*
X156894761Y-72263809D01*
X156847142Y-72311428D01*
X156751904Y-72359047D01*
X156561428Y-72406666D01*
X156323333Y-72406666D01*
X156132857Y-72359047D01*
X156037619Y-72311428D01*
X155990000Y-72263809D01*
X155942380Y-72168571D01*
X155942380Y-71216190D02*
X155942380Y-71120952D01*
X155990000Y-71025714D01*
X156037619Y-70978095D01*
X156132857Y-70930476D01*
X156323333Y-70882857D01*
X156561428Y-70882857D01*
X156751904Y-70930476D01*
X156847142Y-70978095D01*
X156894761Y-71025714D01*
X156942380Y-71120952D01*
X156942380Y-71216190D01*
X156894761Y-71311428D01*
X156847142Y-71359047D01*
X156751904Y-71406666D01*
X156561428Y-71454285D01*
X156323333Y-71454285D01*
X156132857Y-71406666D01*
X156037619Y-71359047D01*
X155990000Y-71311428D01*
X155942380Y-71216190D01*
X156275714Y-70454285D02*
X156942380Y-70454285D01*
X156370952Y-70454285D02*
X156323333Y-70406666D01*
X156275714Y-70311428D01*
X156275714Y-70168571D01*
X156323333Y-70073333D01*
X156418571Y-70025714D01*
X156942380Y-70025714D01*
X156418571Y-69216190D02*
X156418571Y-69549523D01*
X156942380Y-69549523D02*
X155942380Y-69549523D01*
X155942380Y-69073333D01*
%TO.C,U1*%
X138470095Y-70064380D02*
X139136761Y-70064380D01*
X138708190Y-71064380D01*
X139946285Y-70397714D02*
X139946285Y-71064380D01*
X139708190Y-70016761D02*
X139470095Y-70731047D01*
X140089142Y-70731047D01*
X140470095Y-71064380D02*
X140470095Y-70064380D01*
X140470095Y-70540571D02*
X141041523Y-70540571D01*
X141041523Y-71064380D02*
X141041523Y-70064380D01*
X142089142Y-70969142D02*
X142041523Y-71016761D01*
X141898666Y-71064380D01*
X141803428Y-71064380D01*
X141660571Y-71016761D01*
X141565333Y-70921523D01*
X141517714Y-70826285D01*
X141470095Y-70635809D01*
X141470095Y-70492952D01*
X141517714Y-70302476D01*
X141565333Y-70207238D01*
X141660571Y-70112000D01*
X141803428Y-70064380D01*
X141898666Y-70064380D01*
X142041523Y-70112000D01*
X142089142Y-70159619D01*
X143041523Y-71064380D02*
X142470095Y-71064380D01*
X142755809Y-71064380D02*
X142755809Y-70064380D01*
X142660571Y-70207238D01*
X142565333Y-70302476D01*
X142470095Y-70350095D01*
X143374857Y-70064380D02*
X143993904Y-70064380D01*
X143660571Y-70445333D01*
X143803428Y-70445333D01*
X143898666Y-70492952D01*
X143946285Y-70540571D01*
X143993904Y-70635809D01*
X143993904Y-70873904D01*
X143946285Y-70969142D01*
X143898666Y-71016761D01*
X143803428Y-71064380D01*
X143517714Y-71064380D01*
X143422476Y-71016761D01*
X143374857Y-70969142D01*
X144565333Y-70492952D02*
X144470095Y-70445333D01*
X144422476Y-70397714D01*
X144374857Y-70302476D01*
X144374857Y-70254857D01*
X144422476Y-70159619D01*
X144470095Y-70112000D01*
X144565333Y-70064380D01*
X144755809Y-70064380D01*
X144851047Y-70112000D01*
X144898666Y-70159619D01*
X144946285Y-70254857D01*
X144946285Y-70302476D01*
X144898666Y-70397714D01*
X144851047Y-70445333D01*
X144755809Y-70492952D01*
X144565333Y-70492952D01*
X144470095Y-70540571D01*
X144422476Y-70588190D01*
X144374857Y-70683428D01*
X144374857Y-70873904D01*
X144422476Y-70969142D01*
X144470095Y-71016761D01*
X144565333Y-71064380D01*
X144755809Y-71064380D01*
X144851047Y-71016761D01*
X144898666Y-70969142D01*
X144946285Y-70873904D01*
X144946285Y-70683428D01*
X144898666Y-70588190D01*
X144851047Y-70540571D01*
X144755809Y-70492952D01*
%TO.C,J5*%
X166738095Y-105562380D02*
X166404761Y-105086190D01*
X166166666Y-105562380D02*
X166166666Y-104562380D01*
X166547619Y-104562380D01*
X166642857Y-104610000D01*
X166690476Y-104657619D01*
X166738095Y-104752857D01*
X166738095Y-104895714D01*
X166690476Y-104990952D01*
X166642857Y-105038571D01*
X166547619Y-105086190D01*
X166166666Y-105086190D01*
X167357142Y-104562380D02*
X167547619Y-104562380D01*
X167642857Y-104610000D01*
X167738095Y-104705238D01*
X167785714Y-104895714D01*
X167785714Y-105229047D01*
X167738095Y-105419523D01*
X167642857Y-105514761D01*
X167547619Y-105562380D01*
X167357142Y-105562380D01*
X167261904Y-105514761D01*
X167166666Y-105419523D01*
X167119047Y-105229047D01*
X167119047Y-104895714D01*
X167166666Y-104705238D01*
X167261904Y-104610000D01*
X167357142Y-104562380D01*
X168119047Y-104562380D02*
X168357142Y-105562380D01*
X168547619Y-104848095D01*
X168738095Y-105562380D01*
X168976190Y-104562380D01*
X169309523Y-105514761D02*
X169452380Y-105562380D01*
X169690476Y-105562380D01*
X169785714Y-105514761D01*
X169833333Y-105467142D01*
X169880952Y-105371904D01*
X169880952Y-105276666D01*
X169833333Y-105181428D01*
X169785714Y-105133809D01*
X169690476Y-105086190D01*
X169500000Y-105038571D01*
X169404761Y-104990952D01*
X169357142Y-104943333D01*
X169309523Y-104848095D01*
X169309523Y-104752857D01*
X169357142Y-104657619D01*
X169404761Y-104610000D01*
X169500000Y-104562380D01*
X169738095Y-104562380D01*
X169880952Y-104610000D01*
%TO.C,A1*%
X158043619Y-67445142D02*
X159043619Y-67445142D01*
X158043619Y-68016571D01*
X159043619Y-68016571D01*
X158043619Y-68921333D02*
X158567428Y-68921333D01*
X158662666Y-68873714D01*
X158710285Y-68778476D01*
X158710285Y-68588000D01*
X158662666Y-68492761D01*
X158091238Y-68921333D02*
X158043619Y-68826095D01*
X158043619Y-68588000D01*
X158091238Y-68492761D01*
X158186476Y-68445142D01*
X158281714Y-68445142D01*
X158376952Y-68492761D01*
X158424571Y-68588000D01*
X158424571Y-68826095D01*
X158472190Y-68921333D01*
X158710285Y-69397523D02*
X158043619Y-69397523D01*
X158615047Y-69397523D02*
X158662666Y-69445142D01*
X158710285Y-69540380D01*
X158710285Y-69683238D01*
X158662666Y-69778476D01*
X158567428Y-69826095D01*
X158043619Y-69826095D01*
X158043619Y-70445142D02*
X158091238Y-70349904D01*
X158138857Y-70302285D01*
X158234095Y-70254666D01*
X158519809Y-70254666D01*
X158615047Y-70302285D01*
X158662666Y-70349904D01*
X158710285Y-70445142D01*
X158710285Y-70588000D01*
X158662666Y-70683238D01*
X158615047Y-70730857D01*
X158519809Y-70778476D01*
X158234095Y-70778476D01*
X158138857Y-70730857D01*
X158091238Y-70683238D01*
X158043619Y-70588000D01*
X158043619Y-70445142D01*
%TO.C,D1*%
X108823333Y-79954380D02*
X108251904Y-79954380D01*
X108537619Y-79954380D02*
X108537619Y-78954380D01*
X108442380Y-79097238D01*
X108347142Y-79192476D01*
X108251904Y-79240095D01*
X109251904Y-79954380D02*
X109251904Y-78954380D01*
X109823333Y-79954380D01*
X109823333Y-78954380D01*
X110347142Y-79954380D02*
X110537619Y-79954380D01*
X110632857Y-79906761D01*
X110680476Y-79859142D01*
X110775714Y-79716285D01*
X110823333Y-79525809D01*
X110823333Y-79144857D01*
X110775714Y-79049619D01*
X110728095Y-79002000D01*
X110632857Y-78954380D01*
X110442380Y-78954380D01*
X110347142Y-79002000D01*
X110299523Y-79049619D01*
X110251904Y-79144857D01*
X110251904Y-79382952D01*
X110299523Y-79478190D01*
X110347142Y-79525809D01*
X110442380Y-79573428D01*
X110632857Y-79573428D01*
X110728095Y-79525809D01*
X110775714Y-79478190D01*
X110823333Y-79382952D01*
X111775714Y-79954380D02*
X111204285Y-79954380D01*
X111490000Y-79954380D02*
X111490000Y-78954380D01*
X111394761Y-79097238D01*
X111299523Y-79192476D01*
X111204285Y-79240095D01*
X112632857Y-79287714D02*
X112632857Y-79954380D01*
X112394761Y-78906761D02*
X112156666Y-79621047D01*
X112775714Y-79621047D01*
%TO.C,J4*%
X166904761Y-82307142D02*
X166857142Y-82354761D01*
X166714285Y-82402380D01*
X166619047Y-82402380D01*
X166476190Y-82354761D01*
X166380952Y-82259523D01*
X166333333Y-82164285D01*
X166285714Y-81973809D01*
X166285714Y-81830952D01*
X166333333Y-81640476D01*
X166380952Y-81545238D01*
X166476190Y-81450000D01*
X166619047Y-81402380D01*
X166714285Y-81402380D01*
X166857142Y-81450000D01*
X166904761Y-81497619D01*
X167523809Y-81402380D02*
X167714285Y-81402380D01*
X167809523Y-81450000D01*
X167904761Y-81545238D01*
X167952380Y-81735714D01*
X167952380Y-82069047D01*
X167904761Y-82259523D01*
X167809523Y-82354761D01*
X167714285Y-82402380D01*
X167523809Y-82402380D01*
X167428571Y-82354761D01*
X167333333Y-82259523D01*
X167285714Y-82069047D01*
X167285714Y-81735714D01*
X167333333Y-81545238D01*
X167428571Y-81450000D01*
X167523809Y-81402380D01*
X168857142Y-82402380D02*
X168380952Y-82402380D01*
X168380952Y-81402380D01*
X169142857Y-82354761D02*
X169285714Y-82402380D01*
X169523809Y-82402380D01*
X169619047Y-82354761D01*
X169666666Y-82307142D01*
X169714285Y-82211904D01*
X169714285Y-82116666D01*
X169666666Y-82021428D01*
X169619047Y-81973809D01*
X169523809Y-81926190D01*
X169333333Y-81878571D01*
X169238095Y-81830952D01*
X169190476Y-81783333D01*
X169142857Y-81688095D01*
X169142857Y-81592857D01*
X169190476Y-81497619D01*
X169238095Y-81450000D01*
X169333333Y-81402380D01*
X169571428Y-81402380D01*
X169714285Y-81450000D01*
%TO.C,J3*%
X100904761Y-82307142D02*
X100857142Y-82354761D01*
X100714285Y-82402380D01*
X100619047Y-82402380D01*
X100476190Y-82354761D01*
X100380952Y-82259523D01*
X100333333Y-82164285D01*
X100285714Y-81973809D01*
X100285714Y-81830952D01*
X100333333Y-81640476D01*
X100380952Y-81545238D01*
X100476190Y-81450000D01*
X100619047Y-81402380D01*
X100714285Y-81402380D01*
X100857142Y-81450000D01*
X100904761Y-81497619D01*
X101523809Y-81402380D02*
X101714285Y-81402380D01*
X101809523Y-81450000D01*
X101904761Y-81545238D01*
X101952380Y-81735714D01*
X101952380Y-82069047D01*
X101904761Y-82259523D01*
X101809523Y-82354761D01*
X101714285Y-82402380D01*
X101523809Y-82402380D01*
X101428571Y-82354761D01*
X101333333Y-82259523D01*
X101285714Y-82069047D01*
X101285714Y-81735714D01*
X101333333Y-81545238D01*
X101428571Y-81450000D01*
X101523809Y-81402380D01*
X102857142Y-82402380D02*
X102380952Y-82402380D01*
X102380952Y-81402380D01*
X103142857Y-82354761D02*
X103285714Y-82402380D01*
X103523809Y-82402380D01*
X103619047Y-82354761D01*
X103666666Y-82307142D01*
X103714285Y-82211904D01*
X103714285Y-82116666D01*
X103666666Y-82021428D01*
X103619047Y-81973809D01*
X103523809Y-81926190D01*
X103333333Y-81878571D01*
X103238095Y-81830952D01*
X103190476Y-81783333D01*
X103142857Y-81688095D01*
X103142857Y-81592857D01*
X103190476Y-81497619D01*
X103238095Y-81450000D01*
X103333333Y-81402380D01*
X103571428Y-81402380D01*
X103714285Y-81450000D01*
%TO.C,J2*%
X100738095Y-105562380D02*
X100404761Y-105086190D01*
X100166666Y-105562380D02*
X100166666Y-104562380D01*
X100547619Y-104562380D01*
X100642857Y-104610000D01*
X100690476Y-104657619D01*
X100738095Y-104752857D01*
X100738095Y-104895714D01*
X100690476Y-104990952D01*
X100642857Y-105038571D01*
X100547619Y-105086190D01*
X100166666Y-105086190D01*
X101357142Y-104562380D02*
X101547619Y-104562380D01*
X101642857Y-104610000D01*
X101738095Y-104705238D01*
X101785714Y-104895714D01*
X101785714Y-105229047D01*
X101738095Y-105419523D01*
X101642857Y-105514761D01*
X101547619Y-105562380D01*
X101357142Y-105562380D01*
X101261904Y-105514761D01*
X101166666Y-105419523D01*
X101119047Y-105229047D01*
X101119047Y-104895714D01*
X101166666Y-104705238D01*
X101261904Y-104610000D01*
X101357142Y-104562380D01*
X102119047Y-104562380D02*
X102357142Y-105562380D01*
X102547619Y-104848095D01*
X102738095Y-105562380D01*
X102976190Y-104562380D01*
X103309523Y-105514761D02*
X103452380Y-105562380D01*
X103690476Y-105562380D01*
X103785714Y-105514761D01*
X103833333Y-105467142D01*
X103880952Y-105371904D01*
X103880952Y-105276666D01*
X103833333Y-105181428D01*
X103785714Y-105133809D01*
X103690476Y-105086190D01*
X103500000Y-105038571D01*
X103404761Y-104990952D01*
X103357142Y-104943333D01*
X103309523Y-104848095D01*
X103309523Y-104752857D01*
X103357142Y-104657619D01*
X103404761Y-104610000D01*
X103500000Y-104562380D01*
X103738095Y-104562380D01*
X103880952Y-104610000D01*
D13*
%TO.C,C1*%
X154915000Y-74360000D02*
X155360000Y-74360000D01*
X152620000Y-68120000D02*
X153065000Y-68120000D01*
X155360000Y-74360000D02*
X155360000Y-68120000D01*
X152620000Y-74360000D02*
X152620000Y-68120000D01*
X154915000Y-68120000D02*
X155360000Y-68120000D01*
X152620000Y-74360000D02*
X153065000Y-74360000D01*
%TO.C,SW7*%
X140960000Y-95510000D02*
X139460000Y-95510000D01*
X136960000Y-96760000D02*
X136960000Y-101260000D01*
X143460000Y-101260000D02*
X143460000Y-96760000D01*
X139460000Y-102510000D02*
X140960000Y-102510000D01*
%TO.C,D11*%
X156840000Y-88190000D02*
X159080000Y-88190000D01*
X156840000Y-87470000D02*
X159080000Y-87470000D01*
X156840000Y-87350000D02*
X159080000Y-87350000D01*
X159080000Y-88190000D02*
X159080000Y-83950000D01*
X156840000Y-83950000D02*
X156840000Y-88190000D01*
X156840000Y-87590000D02*
X159080000Y-87590000D01*
X157960000Y-83300000D02*
X157960000Y-83950000D01*
X157960000Y-88840000D02*
X157960000Y-88190000D01*
X159080000Y-83950000D02*
X156840000Y-83950000D01*
%TO.C,D10*%
X151840000Y-87350000D02*
X154080000Y-87350000D01*
X154080000Y-83950000D02*
X151840000Y-83950000D01*
X152960000Y-88840000D02*
X152960000Y-88190000D01*
X152960000Y-83300000D02*
X152960000Y-83950000D01*
X151840000Y-83950000D02*
X151840000Y-88190000D01*
X151840000Y-87470000D02*
X154080000Y-87470000D01*
X151840000Y-88190000D02*
X154080000Y-88190000D01*
X154080000Y-88190000D02*
X154080000Y-83950000D01*
X151840000Y-87590000D02*
X154080000Y-87590000D01*
%TO.C,U1*%
X151655000Y-72590000D02*
X151655000Y-70940000D01*
X131215000Y-72590000D02*
X151655000Y-72590000D01*
X151655000Y-68940000D02*
X151655000Y-67290000D01*
X131215000Y-67290000D02*
X131215000Y-72590000D01*
X151655000Y-67290000D02*
X131215000Y-67290000D01*
X151655000Y-68940000D02*
G75*
G03*
X151655000Y-70940000I0J-1000000D01*
G01*
%TO.C,SW13*%
X174460000Y-117510000D02*
X175960000Y-117510000D01*
X171960000Y-111760000D02*
X171960000Y-116260000D01*
X178460000Y-116260000D02*
X178460000Y-111760000D01*
X175960000Y-110510000D02*
X174460000Y-110510000D01*
%TO.C,SW1*%
X104460000Y-117510000D02*
X105960000Y-117510000D01*
X108460000Y-116260000D02*
X108460000Y-111760000D01*
X105960000Y-110510000D02*
X104460000Y-110510000D01*
X101960000Y-111760000D02*
X101960000Y-116260000D01*
%TO.C,J5*%
X166670000Y-86270000D02*
X166670000Y-104110000D01*
X166670000Y-104110000D02*
X169330000Y-104110000D01*
X169330000Y-86270000D02*
X169330000Y-104110000D01*
X166670000Y-83670000D02*
X168000000Y-83670000D01*
X166670000Y-85000000D02*
X166670000Y-83670000D01*
X166670000Y-86270000D02*
X169330000Y-86270000D01*
%TO.C,SW3*%
X118460000Y-116260000D02*
X118460000Y-111760000D01*
X114460000Y-117510000D02*
X115960000Y-117510000D01*
X111960000Y-111760000D02*
X111960000Y-116260000D01*
X115960000Y-110510000D02*
X114460000Y-110510000D01*
%TO.C,D5*%
X129080000Y-83950000D02*
X126840000Y-83950000D01*
X126840000Y-87590000D02*
X129080000Y-87590000D01*
X126840000Y-87470000D02*
X129080000Y-87470000D01*
X126840000Y-87350000D02*
X129080000Y-87350000D01*
X126840000Y-88190000D02*
X129080000Y-88190000D01*
X127960000Y-83300000D02*
X127960000Y-83950000D01*
X127960000Y-88840000D02*
X127960000Y-88190000D01*
X126840000Y-83950000D02*
X126840000Y-88190000D01*
X129080000Y-88190000D02*
X129080000Y-83950000D01*
%TO.C,D12*%
X164080000Y-83950000D02*
X161840000Y-83950000D01*
X161840000Y-83950000D02*
X161840000Y-88190000D01*
X161840000Y-87470000D02*
X164080000Y-87470000D01*
X162960000Y-88840000D02*
X162960000Y-88190000D01*
X161840000Y-87350000D02*
X164080000Y-87350000D01*
X161840000Y-88190000D02*
X164080000Y-88190000D01*
X164080000Y-88190000D02*
X164080000Y-83950000D01*
X162960000Y-83300000D02*
X162960000Y-83950000D01*
X161840000Y-87590000D02*
X164080000Y-87590000D01*
%TO.C,D2*%
X112960000Y-88840000D02*
X112960000Y-88190000D01*
X111840000Y-87350000D02*
X114080000Y-87350000D01*
X111840000Y-87590000D02*
X114080000Y-87590000D01*
X111840000Y-88190000D02*
X114080000Y-88190000D01*
X114080000Y-88190000D02*
X114080000Y-83950000D01*
X111840000Y-87470000D02*
X114080000Y-87470000D01*
X111840000Y-83950000D02*
X111840000Y-88190000D01*
X112960000Y-83300000D02*
X112960000Y-83950000D01*
X114080000Y-83950000D02*
X111840000Y-83950000D01*
%TO.C,SW9*%
X149460000Y-102510000D02*
X150960000Y-102510000D01*
X150960000Y-95510000D02*
X149460000Y-95510000D01*
X146960000Y-96760000D02*
X146960000Y-101260000D01*
X153460000Y-101260000D02*
X153460000Y-96760000D01*
%TO.C,A1*%
X121270000Y-75730000D02*
X118730000Y-75730000D01*
X116060000Y-78400000D02*
X118730000Y-78400000D01*
X121270000Y-75730000D02*
X156830000Y-75730000D01*
X159500000Y-78400000D02*
X159500000Y-60360000D01*
X118730000Y-63030000D02*
X118730000Y-60360000D01*
X118730000Y-75730000D02*
X118730000Y-78400000D01*
X159500000Y-60360000D02*
X116060000Y-60360000D01*
X156830000Y-75730000D02*
X156830000Y-78400000D01*
X121270000Y-75730000D02*
X121270000Y-78400000D01*
X121270000Y-78400000D02*
X159500000Y-78400000D01*
X156830000Y-63030000D02*
X156830000Y-60360000D01*
X118730000Y-63030000D02*
X156830000Y-63030000D01*
X116060000Y-60360000D02*
X116060000Y-78400000D01*
%TO.C,SW6*%
X138460000Y-116260000D02*
X138460000Y-111760000D01*
X135960000Y-110510000D02*
X134460000Y-110510000D01*
X134460000Y-117510000D02*
X135960000Y-117510000D01*
X131960000Y-111760000D02*
X131960000Y-116260000D01*
%TO.C,SW10*%
X155960000Y-110510000D02*
X154460000Y-110510000D01*
X151960000Y-111760000D02*
X151960000Y-116260000D01*
X158460000Y-116260000D02*
X158460000Y-111760000D01*
X154460000Y-117510000D02*
X155960000Y-117510000D01*
%TO.C,J1*%
X103270000Y-60670000D02*
X113490000Y-60670000D01*
X103270000Y-63330000D02*
X103270000Y-60670000D01*
X113490000Y-63330000D02*
X113490000Y-60670000D01*
X103270000Y-63330000D02*
X113490000Y-63330000D01*
X102000000Y-63330000D02*
X100670000Y-63330000D01*
X100670000Y-63330000D02*
X100670000Y-62000000D01*
%TO.C,SW8*%
X145960000Y-110510000D02*
X144460000Y-110510000D01*
X141960000Y-111760000D02*
X141960000Y-116260000D01*
X148460000Y-116260000D02*
X148460000Y-111760000D01*
X144460000Y-117510000D02*
X145960000Y-117510000D01*
%TO.C,D9*%
X146840000Y-87470000D02*
X149080000Y-87470000D01*
X147960000Y-83300000D02*
X147960000Y-83950000D01*
X147960000Y-88840000D02*
X147960000Y-88190000D01*
X146840000Y-87350000D02*
X149080000Y-87350000D01*
X146840000Y-88190000D02*
X149080000Y-88190000D01*
X149080000Y-83950000D02*
X146840000Y-83950000D01*
X146840000Y-87590000D02*
X149080000Y-87590000D01*
X149080000Y-88190000D02*
X149080000Y-83950000D01*
X146840000Y-83950000D02*
X146840000Y-88190000D01*
%TO.C,D8*%
X141840000Y-83950000D02*
X141840000Y-88190000D01*
X142960000Y-83300000D02*
X142960000Y-83950000D01*
X144080000Y-88190000D02*
X144080000Y-83950000D01*
X144080000Y-83950000D02*
X141840000Y-83950000D01*
X141840000Y-88190000D02*
X144080000Y-88190000D01*
X141840000Y-87590000D02*
X144080000Y-87590000D01*
X141840000Y-87350000D02*
X144080000Y-87350000D01*
X142960000Y-88840000D02*
X142960000Y-88190000D01*
X141840000Y-87470000D02*
X144080000Y-87470000D01*
%TO.C,D3*%
X116840000Y-88190000D02*
X119080000Y-88190000D01*
X119080000Y-88190000D02*
X119080000Y-83950000D01*
X116840000Y-83950000D02*
X116840000Y-88190000D01*
X117960000Y-83300000D02*
X117960000Y-83950000D01*
X116840000Y-87470000D02*
X119080000Y-87470000D01*
X117960000Y-88840000D02*
X117960000Y-88190000D01*
X116840000Y-87350000D02*
X119080000Y-87350000D01*
X119080000Y-83950000D02*
X116840000Y-83950000D01*
X116840000Y-87590000D02*
X119080000Y-87590000D01*
%TO.C,SW12*%
X161960000Y-111760000D02*
X161960000Y-116260000D01*
X164460000Y-117510000D02*
X165960000Y-117510000D01*
X165960000Y-110510000D02*
X164460000Y-110510000D01*
X168460000Y-116260000D02*
X168460000Y-111760000D01*
%TO.C,D1*%
X109080000Y-88190000D02*
X109080000Y-83950000D01*
X106840000Y-83950000D02*
X106840000Y-88190000D01*
X107960000Y-88840000D02*
X107960000Y-88190000D01*
X106840000Y-87350000D02*
X109080000Y-87350000D01*
X107960000Y-83300000D02*
X107960000Y-83950000D01*
X106840000Y-87590000D02*
X109080000Y-87590000D01*
X106840000Y-87470000D02*
X109080000Y-87470000D01*
X109080000Y-83950000D02*
X106840000Y-83950000D01*
X106840000Y-88190000D02*
X109080000Y-88190000D01*
%TO.C,D6*%
X132960000Y-83300000D02*
X132960000Y-83950000D01*
X131840000Y-88190000D02*
X134080000Y-88190000D01*
X131840000Y-83950000D02*
X131840000Y-88190000D01*
X134080000Y-88190000D02*
X134080000Y-83950000D01*
X131840000Y-87590000D02*
X134080000Y-87590000D01*
X131840000Y-87350000D02*
X134080000Y-87350000D01*
X131840000Y-87470000D02*
X134080000Y-87470000D01*
X132960000Y-88840000D02*
X132960000Y-88190000D01*
X134080000Y-83950000D02*
X131840000Y-83950000D01*
%TO.C,J4*%
X166670000Y-72000000D02*
X166670000Y-70670000D01*
X166670000Y-73270000D02*
X169330000Y-73270000D01*
X166670000Y-80950000D02*
X169330000Y-80950000D01*
X169330000Y-73270000D02*
X169330000Y-80950000D01*
X166670000Y-73270000D02*
X166670000Y-80950000D01*
X166670000Y-70670000D02*
X168000000Y-70670000D01*
%TO.C,J3*%
X100670000Y-73270000D02*
X100670000Y-80950000D01*
X100670000Y-72000000D02*
X100670000Y-70670000D01*
X100670000Y-70670000D02*
X102000000Y-70670000D01*
X100670000Y-73270000D02*
X103330000Y-73270000D01*
X103330000Y-73270000D02*
X103330000Y-80950000D01*
X100670000Y-80950000D02*
X103330000Y-80950000D01*
%TO.C,SW5*%
X121960000Y-111760000D02*
X121960000Y-116260000D01*
X128460000Y-116260000D02*
X128460000Y-111760000D01*
X124460000Y-117510000D02*
X125960000Y-117510000D01*
X125960000Y-110510000D02*
X124460000Y-110510000D01*
%TO.C,SW4*%
X123460000Y-101260000D02*
X123460000Y-96760000D01*
X120960000Y-95510000D02*
X119460000Y-95510000D01*
X116960000Y-96760000D02*
X116960000Y-101260000D01*
X119460000Y-102510000D02*
X120960000Y-102510000D01*
%TO.C,D13*%
X175620000Y-100950000D02*
X173380000Y-100950000D01*
X173380000Y-104350000D02*
X175620000Y-104350000D01*
X173380000Y-100950000D02*
X173380000Y-105190000D01*
X175620000Y-105190000D02*
X175620000Y-100950000D01*
X173380000Y-105190000D02*
X175620000Y-105190000D01*
X173380000Y-104470000D02*
X175620000Y-104470000D01*
X173380000Y-104590000D02*
X175620000Y-104590000D01*
X174500000Y-100300000D02*
X174500000Y-100950000D01*
X174500000Y-105840000D02*
X174500000Y-105190000D01*
%TO.C,D7*%
X136840000Y-83950000D02*
X136840000Y-88190000D01*
X137960000Y-83300000D02*
X137960000Y-83950000D01*
X136840000Y-87350000D02*
X139080000Y-87350000D01*
X139080000Y-83950000D02*
X136840000Y-83950000D01*
X137960000Y-88840000D02*
X137960000Y-88190000D01*
X136840000Y-88190000D02*
X139080000Y-88190000D01*
X139080000Y-88190000D02*
X139080000Y-83950000D01*
X136840000Y-87590000D02*
X139080000Y-87590000D01*
X136840000Y-87470000D02*
X139080000Y-87470000D01*
%TO.C,SW11*%
X163460000Y-101260000D02*
X163460000Y-96760000D01*
X156960000Y-96760000D02*
X156960000Y-101260000D01*
X160960000Y-95510000D02*
X159460000Y-95510000D01*
X159460000Y-102510000D02*
X160960000Y-102510000D01*
%TO.C,D4*%
X121840000Y-88190000D02*
X124080000Y-88190000D01*
X122960000Y-88840000D02*
X122960000Y-88190000D01*
X124080000Y-83950000D02*
X121840000Y-83950000D01*
X121840000Y-83950000D02*
X121840000Y-88190000D01*
X121840000Y-87350000D02*
X124080000Y-87350000D01*
X121840000Y-87590000D02*
X124080000Y-87590000D01*
X124080000Y-88190000D02*
X124080000Y-83950000D01*
X122960000Y-83300000D02*
X122960000Y-83950000D01*
X121840000Y-87470000D02*
X124080000Y-87470000D01*
%TO.C,J2*%
X100670000Y-104110000D02*
X103330000Y-104110000D01*
X100670000Y-83670000D02*
X102000000Y-83670000D01*
X100670000Y-85000000D02*
X100670000Y-83670000D01*
X100670000Y-86270000D02*
X100670000Y-104110000D01*
X103330000Y-86270000D02*
X103330000Y-104110000D01*
X100670000Y-86270000D02*
X103330000Y-86270000D01*
%TO.C,SW2*%
X106960000Y-96760000D02*
X106960000Y-101260000D01*
X109460000Y-102510000D02*
X110960000Y-102510000D01*
X110960000Y-95510000D02*
X109460000Y-95510000D01*
X113460000Y-101260000D02*
X113460000Y-96760000D01*
%TD*%
M02*
