G04 #@! TF.GenerationSoftware,KiCad,Pcbnew,7.0.9*
G04 #@! TF.CreationDate,2023-11-24T14:11:12+00:00*
G04 #@! TF.ProjectId,RPi-Zero-MIDI,5250692d-5a65-4726-9f2d-4d4944492e6b,rev?*
G04 #@! TF.SameCoordinates,Original*
G04 #@! TF.FileFunction,Legend,Top*
G04 #@! TF.FilePolarity,Positive*
%FSLAX46Y46*%
G04 Gerber Fmt 4.6, Leading zero omitted, Abs format (unit mm)*
G04 Created by KiCad (PCBNEW 7.0.9) date 2023-11-24 14:11:12*
%MOMM*%
%LPD*%
G01*
G04 APERTURE LIST*
%ADD10C,0.150000*%
%ADD11C,0.120000*%
G04 APERTURE END LIST*
D10*
X122584819Y-94103808D02*
X121584819Y-94103808D01*
X122584819Y-93627618D02*
X121584819Y-93627618D01*
X121584819Y-93627618D02*
X122584819Y-93056190D01*
X122584819Y-93056190D02*
X121584819Y-93056190D01*
X110330952Y-82304819D02*
X110330952Y-81304819D01*
X110330952Y-81781009D02*
X110902380Y-81781009D01*
X110902380Y-82304819D02*
X110902380Y-81304819D01*
X111902380Y-82304819D02*
X111330952Y-82304819D01*
X111616666Y-82304819D02*
X111616666Y-81304819D01*
X111616666Y-81304819D02*
X111521428Y-81447676D01*
X111521428Y-81447676D02*
X111426190Y-81542914D01*
X111426190Y-81542914D02*
X111330952Y-81590533D01*
X112854761Y-82304819D02*
X112283333Y-82304819D01*
X112569047Y-82304819D02*
X112569047Y-81304819D01*
X112569047Y-81304819D02*
X112473809Y-81447676D01*
X112473809Y-81447676D02*
X112378571Y-81542914D01*
X112378571Y-81542914D02*
X112283333Y-81590533D01*
X113759523Y-82304819D02*
X113283333Y-82304819D01*
X113283333Y-82304819D02*
X113283333Y-81304819D01*
X114616666Y-82304819D02*
X114045238Y-82304819D01*
X114330952Y-82304819D02*
X114330952Y-81304819D01*
X114330952Y-81304819D02*
X114235714Y-81447676D01*
X114235714Y-81447676D02*
X114140476Y-81542914D01*
X114140476Y-81542914D02*
X114045238Y-81590533D01*
X139753333Y-81344819D02*
X140419999Y-81344819D01*
X140419999Y-81344819D02*
X139991428Y-82344819D01*
X141229523Y-81678152D02*
X141229523Y-82344819D01*
X140991428Y-81297200D02*
X140753333Y-82011485D01*
X140753333Y-82011485D02*
X141372380Y-82011485D01*
X141753333Y-82344819D02*
X141753333Y-81344819D01*
X141753333Y-81821009D02*
X142324761Y-81821009D01*
X142324761Y-82344819D02*
X142324761Y-81344819D01*
X143372380Y-82249580D02*
X143324761Y-82297200D01*
X143324761Y-82297200D02*
X143181904Y-82344819D01*
X143181904Y-82344819D02*
X143086666Y-82344819D01*
X143086666Y-82344819D02*
X142943809Y-82297200D01*
X142943809Y-82297200D02*
X142848571Y-82201961D01*
X142848571Y-82201961D02*
X142800952Y-82106723D01*
X142800952Y-82106723D02*
X142753333Y-81916247D01*
X142753333Y-81916247D02*
X142753333Y-81773390D01*
X142753333Y-81773390D02*
X142800952Y-81582914D01*
X142800952Y-81582914D02*
X142848571Y-81487676D01*
X142848571Y-81487676D02*
X142943809Y-81392438D01*
X142943809Y-81392438D02*
X143086666Y-81344819D01*
X143086666Y-81344819D02*
X143181904Y-81344819D01*
X143181904Y-81344819D02*
X143324761Y-81392438D01*
X143324761Y-81392438D02*
X143372380Y-81440057D01*
X143658095Y-81344819D02*
X144229523Y-81344819D01*
X143943809Y-82344819D02*
X143943809Y-81344819D01*
X145086666Y-82344819D02*
X144515238Y-82344819D01*
X144800952Y-82344819D02*
X144800952Y-81344819D01*
X144800952Y-81344819D02*
X144705714Y-81487676D01*
X144705714Y-81487676D02*
X144610476Y-81582914D01*
X144610476Y-81582914D02*
X144515238Y-81630533D01*
X145943809Y-81678152D02*
X145943809Y-82344819D01*
X145705714Y-81297200D02*
X145467619Y-82011485D01*
X145467619Y-82011485D02*
X146086666Y-82011485D01*
X102788152Y-82861904D02*
X103454819Y-82861904D01*
X102407200Y-83099999D02*
X103121485Y-83338094D01*
X103121485Y-83338094D02*
X103121485Y-82719047D01*
X102454819Y-82433332D02*
X102454819Y-81766666D01*
X102454819Y-81766666D02*
X103454819Y-82195237D01*
X102454819Y-81195237D02*
X102454819Y-81099999D01*
X102454819Y-81099999D02*
X102502438Y-81004761D01*
X102502438Y-81004761D02*
X102550057Y-80957142D01*
X102550057Y-80957142D02*
X102645295Y-80909523D01*
X102645295Y-80909523D02*
X102835771Y-80861904D01*
X102835771Y-80861904D02*
X103073866Y-80861904D01*
X103073866Y-80861904D02*
X103264342Y-80909523D01*
X103264342Y-80909523D02*
X103359580Y-80957142D01*
X103359580Y-80957142D02*
X103407200Y-81004761D01*
X103407200Y-81004761D02*
X103454819Y-81099999D01*
X103454819Y-81099999D02*
X103454819Y-81195237D01*
X103454819Y-81195237D02*
X103407200Y-81290475D01*
X103407200Y-81290475D02*
X103359580Y-81338094D01*
X103359580Y-81338094D02*
X103264342Y-81385713D01*
X103264342Y-81385713D02*
X103073866Y-81433332D01*
X103073866Y-81433332D02*
X102835771Y-81433332D01*
X102835771Y-81433332D02*
X102645295Y-81385713D01*
X102645295Y-81385713D02*
X102550057Y-81338094D01*
X102550057Y-81338094D02*
X102502438Y-81290475D01*
X102502438Y-81290475D02*
X102454819Y-81195237D01*
X121560057Y-82958094D02*
X121512438Y-82910475D01*
X121512438Y-82910475D02*
X121464819Y-82815237D01*
X121464819Y-82815237D02*
X121464819Y-82577142D01*
X121464819Y-82577142D02*
X121512438Y-82481904D01*
X121512438Y-82481904D02*
X121560057Y-82434285D01*
X121560057Y-82434285D02*
X121655295Y-82386666D01*
X121655295Y-82386666D02*
X121750533Y-82386666D01*
X121750533Y-82386666D02*
X121893390Y-82434285D01*
X121893390Y-82434285D02*
X122464819Y-83005713D01*
X122464819Y-83005713D02*
X122464819Y-82386666D01*
X121560057Y-82005713D02*
X121512438Y-81958094D01*
X121512438Y-81958094D02*
X121464819Y-81862856D01*
X121464819Y-81862856D02*
X121464819Y-81624761D01*
X121464819Y-81624761D02*
X121512438Y-81529523D01*
X121512438Y-81529523D02*
X121560057Y-81481904D01*
X121560057Y-81481904D02*
X121655295Y-81434285D01*
X121655295Y-81434285D02*
X121750533Y-81434285D01*
X121750533Y-81434285D02*
X121893390Y-81481904D01*
X121893390Y-81481904D02*
X122464819Y-82053332D01*
X122464819Y-82053332D02*
X122464819Y-81434285D01*
X121464819Y-80815237D02*
X121464819Y-80719999D01*
X121464819Y-80719999D02*
X121512438Y-80624761D01*
X121512438Y-80624761D02*
X121560057Y-80577142D01*
X121560057Y-80577142D02*
X121655295Y-80529523D01*
X121655295Y-80529523D02*
X121845771Y-80481904D01*
X121845771Y-80481904D02*
X122083866Y-80481904D01*
X122083866Y-80481904D02*
X122274342Y-80529523D01*
X122274342Y-80529523D02*
X122369580Y-80577142D01*
X122369580Y-80577142D02*
X122417200Y-80624761D01*
X122417200Y-80624761D02*
X122464819Y-80719999D01*
X122464819Y-80719999D02*
X122464819Y-80815237D01*
X122464819Y-80815237D02*
X122417200Y-80910475D01*
X122417200Y-80910475D02*
X122369580Y-80958094D01*
X122369580Y-80958094D02*
X122274342Y-81005713D01*
X122274342Y-81005713D02*
X122083866Y-81053332D01*
X122083866Y-81053332D02*
X121845771Y-81053332D01*
X121845771Y-81053332D02*
X121655295Y-81005713D01*
X121655295Y-81005713D02*
X121560057Y-80958094D01*
X121560057Y-80958094D02*
X121512438Y-80910475D01*
X121512438Y-80910475D02*
X121464819Y-80815237D01*
X157430057Y-82958094D02*
X157382438Y-82910475D01*
X157382438Y-82910475D02*
X157334819Y-82815237D01*
X157334819Y-82815237D02*
X157334819Y-82577142D01*
X157334819Y-82577142D02*
X157382438Y-82481904D01*
X157382438Y-82481904D02*
X157430057Y-82434285D01*
X157430057Y-82434285D02*
X157525295Y-82386666D01*
X157525295Y-82386666D02*
X157620533Y-82386666D01*
X157620533Y-82386666D02*
X157763390Y-82434285D01*
X157763390Y-82434285D02*
X158334819Y-83005713D01*
X158334819Y-83005713D02*
X158334819Y-82386666D01*
X157430057Y-82005713D02*
X157382438Y-81958094D01*
X157382438Y-81958094D02*
X157334819Y-81862856D01*
X157334819Y-81862856D02*
X157334819Y-81624761D01*
X157334819Y-81624761D02*
X157382438Y-81529523D01*
X157382438Y-81529523D02*
X157430057Y-81481904D01*
X157430057Y-81481904D02*
X157525295Y-81434285D01*
X157525295Y-81434285D02*
X157620533Y-81434285D01*
X157620533Y-81434285D02*
X157763390Y-81481904D01*
X157763390Y-81481904D02*
X158334819Y-82053332D01*
X158334819Y-82053332D02*
X158334819Y-81434285D01*
X157334819Y-80815237D02*
X157334819Y-80719999D01*
X157334819Y-80719999D02*
X157382438Y-80624761D01*
X157382438Y-80624761D02*
X157430057Y-80577142D01*
X157430057Y-80577142D02*
X157525295Y-80529523D01*
X157525295Y-80529523D02*
X157715771Y-80481904D01*
X157715771Y-80481904D02*
X157953866Y-80481904D01*
X157953866Y-80481904D02*
X158144342Y-80529523D01*
X158144342Y-80529523D02*
X158239580Y-80577142D01*
X158239580Y-80577142D02*
X158287200Y-80624761D01*
X158287200Y-80624761D02*
X158334819Y-80719999D01*
X158334819Y-80719999D02*
X158334819Y-80815237D01*
X158334819Y-80815237D02*
X158287200Y-80910475D01*
X158287200Y-80910475D02*
X158239580Y-80958094D01*
X158239580Y-80958094D02*
X158144342Y-81005713D01*
X158144342Y-81005713D02*
X157953866Y-81053332D01*
X157953866Y-81053332D02*
X157715771Y-81053332D01*
X157715771Y-81053332D02*
X157525295Y-81005713D01*
X157525295Y-81005713D02*
X157430057Y-80958094D01*
X157430057Y-80958094D02*
X157382438Y-80910475D01*
X157382438Y-80910475D02*
X157334819Y-80815237D01*
X153800057Y-82928094D02*
X153752438Y-82880475D01*
X153752438Y-82880475D02*
X153704819Y-82785237D01*
X153704819Y-82785237D02*
X153704819Y-82547142D01*
X153704819Y-82547142D02*
X153752438Y-82451904D01*
X153752438Y-82451904D02*
X153800057Y-82404285D01*
X153800057Y-82404285D02*
X153895295Y-82356666D01*
X153895295Y-82356666D02*
X153990533Y-82356666D01*
X153990533Y-82356666D02*
X154133390Y-82404285D01*
X154133390Y-82404285D02*
X154704819Y-82975713D01*
X154704819Y-82975713D02*
X154704819Y-82356666D01*
X153800057Y-81975713D02*
X153752438Y-81928094D01*
X153752438Y-81928094D02*
X153704819Y-81832856D01*
X153704819Y-81832856D02*
X153704819Y-81594761D01*
X153704819Y-81594761D02*
X153752438Y-81499523D01*
X153752438Y-81499523D02*
X153800057Y-81451904D01*
X153800057Y-81451904D02*
X153895295Y-81404285D01*
X153895295Y-81404285D02*
X153990533Y-81404285D01*
X153990533Y-81404285D02*
X154133390Y-81451904D01*
X154133390Y-81451904D02*
X154704819Y-82023332D01*
X154704819Y-82023332D02*
X154704819Y-81404285D01*
X153704819Y-80785237D02*
X153704819Y-80689999D01*
X153704819Y-80689999D02*
X153752438Y-80594761D01*
X153752438Y-80594761D02*
X153800057Y-80547142D01*
X153800057Y-80547142D02*
X153895295Y-80499523D01*
X153895295Y-80499523D02*
X154085771Y-80451904D01*
X154085771Y-80451904D02*
X154323866Y-80451904D01*
X154323866Y-80451904D02*
X154514342Y-80499523D01*
X154514342Y-80499523D02*
X154609580Y-80547142D01*
X154609580Y-80547142D02*
X154657200Y-80594761D01*
X154657200Y-80594761D02*
X154704819Y-80689999D01*
X154704819Y-80689999D02*
X154704819Y-80785237D01*
X154704819Y-80785237D02*
X154657200Y-80880475D01*
X154657200Y-80880475D02*
X154609580Y-80928094D01*
X154609580Y-80928094D02*
X154514342Y-80975713D01*
X154514342Y-80975713D02*
X154323866Y-81023332D01*
X154323866Y-81023332D02*
X154085771Y-81023332D01*
X154085771Y-81023332D02*
X153895295Y-80975713D01*
X153895295Y-80975713D02*
X153800057Y-80928094D01*
X153800057Y-80928094D02*
X153752438Y-80880475D01*
X153752438Y-80880475D02*
X153704819Y-80785237D01*
X128650057Y-82908094D02*
X128602438Y-82860475D01*
X128602438Y-82860475D02*
X128554819Y-82765237D01*
X128554819Y-82765237D02*
X128554819Y-82527142D01*
X128554819Y-82527142D02*
X128602438Y-82431904D01*
X128602438Y-82431904D02*
X128650057Y-82384285D01*
X128650057Y-82384285D02*
X128745295Y-82336666D01*
X128745295Y-82336666D02*
X128840533Y-82336666D01*
X128840533Y-82336666D02*
X128983390Y-82384285D01*
X128983390Y-82384285D02*
X129554819Y-82955713D01*
X129554819Y-82955713D02*
X129554819Y-82336666D01*
X128650057Y-81955713D02*
X128602438Y-81908094D01*
X128602438Y-81908094D02*
X128554819Y-81812856D01*
X128554819Y-81812856D02*
X128554819Y-81574761D01*
X128554819Y-81574761D02*
X128602438Y-81479523D01*
X128602438Y-81479523D02*
X128650057Y-81431904D01*
X128650057Y-81431904D02*
X128745295Y-81384285D01*
X128745295Y-81384285D02*
X128840533Y-81384285D01*
X128840533Y-81384285D02*
X128983390Y-81431904D01*
X128983390Y-81431904D02*
X129554819Y-82003332D01*
X129554819Y-82003332D02*
X129554819Y-81384285D01*
X128554819Y-80765237D02*
X128554819Y-80669999D01*
X128554819Y-80669999D02*
X128602438Y-80574761D01*
X128602438Y-80574761D02*
X128650057Y-80527142D01*
X128650057Y-80527142D02*
X128745295Y-80479523D01*
X128745295Y-80479523D02*
X128935771Y-80431904D01*
X128935771Y-80431904D02*
X129173866Y-80431904D01*
X129173866Y-80431904D02*
X129364342Y-80479523D01*
X129364342Y-80479523D02*
X129459580Y-80527142D01*
X129459580Y-80527142D02*
X129507200Y-80574761D01*
X129507200Y-80574761D02*
X129554819Y-80669999D01*
X129554819Y-80669999D02*
X129554819Y-80765237D01*
X129554819Y-80765237D02*
X129507200Y-80860475D01*
X129507200Y-80860475D02*
X129459580Y-80908094D01*
X129459580Y-80908094D02*
X129364342Y-80955713D01*
X129364342Y-80955713D02*
X129173866Y-81003332D01*
X129173866Y-81003332D02*
X128935771Y-81003332D01*
X128935771Y-81003332D02*
X128745295Y-80955713D01*
X128745295Y-80955713D02*
X128650057Y-80908094D01*
X128650057Y-80908094D02*
X128602438Y-80860475D01*
X128602438Y-80860475D02*
X128554819Y-80765237D01*
X125280057Y-82928094D02*
X125232438Y-82880475D01*
X125232438Y-82880475D02*
X125184819Y-82785237D01*
X125184819Y-82785237D02*
X125184819Y-82547142D01*
X125184819Y-82547142D02*
X125232438Y-82451904D01*
X125232438Y-82451904D02*
X125280057Y-82404285D01*
X125280057Y-82404285D02*
X125375295Y-82356666D01*
X125375295Y-82356666D02*
X125470533Y-82356666D01*
X125470533Y-82356666D02*
X125613390Y-82404285D01*
X125613390Y-82404285D02*
X126184819Y-82975713D01*
X126184819Y-82975713D02*
X126184819Y-82356666D01*
X125280057Y-81975713D02*
X125232438Y-81928094D01*
X125232438Y-81928094D02*
X125184819Y-81832856D01*
X125184819Y-81832856D02*
X125184819Y-81594761D01*
X125184819Y-81594761D02*
X125232438Y-81499523D01*
X125232438Y-81499523D02*
X125280057Y-81451904D01*
X125280057Y-81451904D02*
X125375295Y-81404285D01*
X125375295Y-81404285D02*
X125470533Y-81404285D01*
X125470533Y-81404285D02*
X125613390Y-81451904D01*
X125613390Y-81451904D02*
X126184819Y-82023332D01*
X126184819Y-82023332D02*
X126184819Y-81404285D01*
X125184819Y-80785237D02*
X125184819Y-80689999D01*
X125184819Y-80689999D02*
X125232438Y-80594761D01*
X125232438Y-80594761D02*
X125280057Y-80547142D01*
X125280057Y-80547142D02*
X125375295Y-80499523D01*
X125375295Y-80499523D02*
X125565771Y-80451904D01*
X125565771Y-80451904D02*
X125803866Y-80451904D01*
X125803866Y-80451904D02*
X125994342Y-80499523D01*
X125994342Y-80499523D02*
X126089580Y-80547142D01*
X126089580Y-80547142D02*
X126137200Y-80594761D01*
X126137200Y-80594761D02*
X126184819Y-80689999D01*
X126184819Y-80689999D02*
X126184819Y-80785237D01*
X126184819Y-80785237D02*
X126137200Y-80880475D01*
X126137200Y-80880475D02*
X126089580Y-80928094D01*
X126089580Y-80928094D02*
X125994342Y-80975713D01*
X125994342Y-80975713D02*
X125803866Y-81023332D01*
X125803866Y-81023332D02*
X125565771Y-81023332D01*
X125565771Y-81023332D02*
X125375295Y-80975713D01*
X125375295Y-80975713D02*
X125280057Y-80928094D01*
X125280057Y-80928094D02*
X125232438Y-80880475D01*
X125232438Y-80880475D02*
X125184819Y-80785237D01*
X156664819Y-95483332D02*
X156664819Y-94911904D01*
X157664819Y-95197618D02*
X156664819Y-95197618D01*
X157664819Y-94578570D02*
X156664819Y-94578570D01*
X157141009Y-94578570D02*
X157141009Y-94007142D01*
X157664819Y-94007142D02*
X156664819Y-94007142D01*
X157664819Y-92959523D02*
X157188628Y-93292856D01*
X157664819Y-93530951D02*
X156664819Y-93530951D01*
X156664819Y-93530951D02*
X156664819Y-93149999D01*
X156664819Y-93149999D02*
X156712438Y-93054761D01*
X156712438Y-93054761D02*
X156760057Y-93007142D01*
X156760057Y-93007142D02*
X156855295Y-92959523D01*
X156855295Y-92959523D02*
X156998152Y-92959523D01*
X156998152Y-92959523D02*
X157093390Y-93007142D01*
X157093390Y-93007142D02*
X157141009Y-93054761D01*
X157141009Y-93054761D02*
X157188628Y-93149999D01*
X157188628Y-93149999D02*
X157188628Y-93530951D01*
X156664819Y-92530951D02*
X157474342Y-92530951D01*
X157474342Y-92530951D02*
X157569580Y-92483332D01*
X157569580Y-92483332D02*
X157617200Y-92435713D01*
X157617200Y-92435713D02*
X157664819Y-92340475D01*
X157664819Y-92340475D02*
X157664819Y-92149999D01*
X157664819Y-92149999D02*
X157617200Y-92054761D01*
X157617200Y-92054761D02*
X157569580Y-92007142D01*
X157569580Y-92007142D02*
X157474342Y-91959523D01*
X157474342Y-91959523D02*
X156664819Y-91959523D01*
X139224819Y-94529999D02*
X139224819Y-94339523D01*
X139224819Y-94339523D02*
X139272438Y-94244285D01*
X139272438Y-94244285D02*
X139367676Y-94149047D01*
X139367676Y-94149047D02*
X139558152Y-94101428D01*
X139558152Y-94101428D02*
X139891485Y-94101428D01*
X139891485Y-94101428D02*
X140081961Y-94149047D01*
X140081961Y-94149047D02*
X140177200Y-94244285D01*
X140177200Y-94244285D02*
X140224819Y-94339523D01*
X140224819Y-94339523D02*
X140224819Y-94529999D01*
X140224819Y-94529999D02*
X140177200Y-94625237D01*
X140177200Y-94625237D02*
X140081961Y-94720475D01*
X140081961Y-94720475D02*
X139891485Y-94768094D01*
X139891485Y-94768094D02*
X139558152Y-94768094D01*
X139558152Y-94768094D02*
X139367676Y-94720475D01*
X139367676Y-94720475D02*
X139272438Y-94625237D01*
X139272438Y-94625237D02*
X139224819Y-94529999D01*
X139224819Y-93672856D02*
X140034342Y-93672856D01*
X140034342Y-93672856D02*
X140129580Y-93625237D01*
X140129580Y-93625237D02*
X140177200Y-93577618D01*
X140177200Y-93577618D02*
X140224819Y-93482380D01*
X140224819Y-93482380D02*
X140224819Y-93291904D01*
X140224819Y-93291904D02*
X140177200Y-93196666D01*
X140177200Y-93196666D02*
X140129580Y-93149047D01*
X140129580Y-93149047D02*
X140034342Y-93101428D01*
X140034342Y-93101428D02*
X139224819Y-93101428D01*
X139224819Y-92768094D02*
X139224819Y-92196666D01*
X140224819Y-92482380D02*
X139224819Y-92482380D01*
X118884819Y-83916666D02*
X118884819Y-84488094D01*
X118884819Y-84202380D02*
X117884819Y-84202380D01*
X117884819Y-84202380D02*
X118027676Y-84297618D01*
X118027676Y-84297618D02*
X118122914Y-84392856D01*
X118122914Y-84392856D02*
X118170533Y-84488094D01*
X118884819Y-83488094D02*
X117884819Y-83488094D01*
X117884819Y-83488094D02*
X118884819Y-82916666D01*
X118884819Y-82916666D02*
X117884819Y-82916666D01*
X118884819Y-82392856D02*
X118884819Y-82202380D01*
X118884819Y-82202380D02*
X118837200Y-82107142D01*
X118837200Y-82107142D02*
X118789580Y-82059523D01*
X118789580Y-82059523D02*
X118646723Y-81964285D01*
X118646723Y-81964285D02*
X118456247Y-81916666D01*
X118456247Y-81916666D02*
X118075295Y-81916666D01*
X118075295Y-81916666D02*
X117980057Y-81964285D01*
X117980057Y-81964285D02*
X117932438Y-82011904D01*
X117932438Y-82011904D02*
X117884819Y-82107142D01*
X117884819Y-82107142D02*
X117884819Y-82297618D01*
X117884819Y-82297618D02*
X117932438Y-82392856D01*
X117932438Y-82392856D02*
X117980057Y-82440475D01*
X117980057Y-82440475D02*
X118075295Y-82488094D01*
X118075295Y-82488094D02*
X118313390Y-82488094D01*
X118313390Y-82488094D02*
X118408628Y-82440475D01*
X118408628Y-82440475D02*
X118456247Y-82392856D01*
X118456247Y-82392856D02*
X118503866Y-82297618D01*
X118503866Y-82297618D02*
X118503866Y-82107142D01*
X118503866Y-82107142D02*
X118456247Y-82011904D01*
X118456247Y-82011904D02*
X118408628Y-81964285D01*
X118408628Y-81964285D02*
X118313390Y-81916666D01*
X118884819Y-80964285D02*
X118884819Y-81535713D01*
X118884819Y-81249999D02*
X117884819Y-81249999D01*
X117884819Y-81249999D02*
X118027676Y-81345237D01*
X118027676Y-81345237D02*
X118122914Y-81440475D01*
X118122914Y-81440475D02*
X118170533Y-81535713D01*
X118218152Y-80107142D02*
X118884819Y-80107142D01*
X117837200Y-80345237D02*
X118551485Y-80583332D01*
X118551485Y-80583332D02*
X118551485Y-79964285D01*
X106569580Y-81788570D02*
X106617200Y-81740951D01*
X106617200Y-81740951D02*
X106664819Y-81788570D01*
X106664819Y-81788570D02*
X106617200Y-81836189D01*
X106617200Y-81836189D02*
X106569580Y-81788570D01*
X106569580Y-81788570D02*
X106664819Y-81788570D01*
X106664819Y-80788571D02*
X106664819Y-81359999D01*
X106664819Y-81074285D02*
X105664819Y-81074285D01*
X105664819Y-81074285D02*
X105807676Y-81169523D01*
X105807676Y-81169523D02*
X105902914Y-81264761D01*
X105902914Y-81264761D02*
X105950533Y-81359999D01*
X105998152Y-79931428D02*
X106664819Y-79931428D01*
X105998152Y-80359999D02*
X106521961Y-80359999D01*
X106521961Y-80359999D02*
X106617200Y-80312380D01*
X106617200Y-80312380D02*
X106664819Y-80217142D01*
X106664819Y-80217142D02*
X106664819Y-80074285D01*
X106664819Y-80074285D02*
X106617200Y-79979047D01*
X106617200Y-79979047D02*
X106569580Y-79931428D01*
X132429580Y-81528570D02*
X132477200Y-81480951D01*
X132477200Y-81480951D02*
X132524819Y-81528570D01*
X132524819Y-81528570D02*
X132477200Y-81576189D01*
X132477200Y-81576189D02*
X132429580Y-81528570D01*
X132429580Y-81528570D02*
X132524819Y-81528570D01*
X132524819Y-80528571D02*
X132524819Y-81099999D01*
X132524819Y-80814285D02*
X131524819Y-80814285D01*
X131524819Y-80814285D02*
X131667676Y-80909523D01*
X131667676Y-80909523D02*
X131762914Y-81004761D01*
X131762914Y-81004761D02*
X131810533Y-81099999D01*
X131858152Y-79671428D02*
X132524819Y-79671428D01*
X131858152Y-80099999D02*
X132381961Y-80099999D01*
X132381961Y-80099999D02*
X132477200Y-80052380D01*
X132477200Y-80052380D02*
X132524819Y-79957142D01*
X132524819Y-79957142D02*
X132524819Y-79814285D01*
X132524819Y-79814285D02*
X132477200Y-79719047D01*
X132477200Y-79719047D02*
X132429580Y-79671428D01*
D11*
X109000000Y-87800000D02*
X121000000Y-87800000D01*
X109000000Y-98800000D02*
X109000000Y-87800000D01*
X110500000Y-98800000D02*
X109000000Y-98800000D01*
X110500000Y-100000000D02*
X110500000Y-98800000D01*
X112000000Y-100000000D02*
X110500000Y-100000000D01*
X112000000Y-101800000D02*
X112000000Y-100000000D01*
X113000000Y-98800000D02*
X113000000Y-101800000D01*
X117000000Y-98800000D02*
X113000000Y-98800000D01*
X117000000Y-101800000D02*
X117000000Y-98800000D01*
X118000000Y-100000000D02*
X118000000Y-101800000D01*
X118000000Y-101800000D02*
X112000000Y-101800000D01*
X119500000Y-98800000D02*
X119500000Y-100000000D01*
X119500000Y-100000000D02*
X118000000Y-100000000D01*
X121000000Y-87800000D02*
X121000000Y-98800000D01*
X121000000Y-98800000D02*
X119500000Y-98800000D01*
X108230000Y-83070000D02*
X108230000Y-84720000D01*
X108230000Y-84720000D02*
X115970000Y-84720000D01*
X108170000Y-76930000D02*
X108170000Y-87210000D01*
X108170000Y-87210000D02*
X116030000Y-87210000D01*
X115970000Y-79420000D02*
X108230000Y-79420000D01*
X115970000Y-84720000D02*
X115970000Y-79420000D01*
X116030000Y-87210000D02*
X116030000Y-76930000D01*
X116030000Y-76930000D02*
X108170000Y-76930000D01*
X108230000Y-79420000D02*
X108230000Y-81070000D01*
X108230000Y-83070000D02*
G75*
G03*
X108230000Y-81070000I0J1000000D01*
G01*
X134070000Y-76900000D02*
X134070000Y-87180000D01*
X152090000Y-76900000D02*
X134070000Y-76900000D01*
X152090000Y-87180000D02*
X152090000Y-76900000D01*
X134130000Y-79390000D02*
X134130000Y-81040000D01*
X134130000Y-84690000D02*
X152030000Y-84690000D01*
X152030000Y-84690000D02*
X152030000Y-79390000D01*
X134130000Y-83040000D02*
X134130000Y-84690000D01*
X134070000Y-87180000D02*
X152090000Y-87180000D01*
X152030000Y-79390000D02*
X134130000Y-79390000D01*
X134130000Y-83040000D02*
G75*
G03*
X134130000Y-81040000I0J1000000D01*
G01*
X101580000Y-85300000D02*
X101910000Y-85300000D01*
X104320000Y-78760000D02*
X104320000Y-85300000D01*
X101580000Y-78760000D02*
X101580000Y-85300000D01*
X101910000Y-78760000D02*
X101580000Y-78760000D01*
X103990000Y-78760000D02*
X104320000Y-78760000D01*
X104320000Y-85300000D02*
X103990000Y-85300000D01*
X123430000Y-78690000D02*
X123100000Y-78690000D01*
X120690000Y-85230000D02*
X120690000Y-78690000D01*
X123430000Y-85230000D02*
X123430000Y-78690000D01*
X123100000Y-85230000D02*
X123430000Y-85230000D01*
X121020000Y-85230000D02*
X120690000Y-85230000D01*
X120690000Y-78690000D02*
X121020000Y-78690000D01*
X159150000Y-78530000D02*
X158820000Y-78530000D01*
X156410000Y-85070000D02*
X156410000Y-78530000D01*
X159150000Y-85070000D02*
X159150000Y-78530000D01*
X158820000Y-85070000D02*
X159150000Y-85070000D01*
X156740000Y-85070000D02*
X156410000Y-85070000D01*
X156410000Y-78530000D02*
X156740000Y-78530000D01*
X155600000Y-78580000D02*
X155270000Y-78580000D01*
X152860000Y-85120000D02*
X152860000Y-78580000D01*
X155600000Y-85120000D02*
X155600000Y-78580000D01*
X155270000Y-85120000D02*
X155600000Y-85120000D01*
X153190000Y-85120000D02*
X152860000Y-85120000D01*
X152860000Y-78580000D02*
X153190000Y-78580000D01*
X130320000Y-78630000D02*
X129990000Y-78630000D01*
X127580000Y-85170000D02*
X127580000Y-78630000D01*
X130320000Y-85170000D02*
X130320000Y-78630000D01*
X129990000Y-85170000D02*
X130320000Y-85170000D01*
X127910000Y-85170000D02*
X127580000Y-85170000D01*
X127580000Y-78630000D02*
X127910000Y-78630000D01*
X126930000Y-78660000D02*
X126600000Y-78660000D01*
X124190000Y-85200000D02*
X124190000Y-78660000D01*
X126930000Y-85200000D02*
X126930000Y-78660000D01*
X126600000Y-85200000D02*
X126930000Y-85200000D01*
X124520000Y-85200000D02*
X124190000Y-85200000D01*
X124190000Y-78660000D02*
X124520000Y-78660000D01*
X144000000Y-87800000D02*
X156000000Y-87800000D01*
X144000000Y-98800000D02*
X144000000Y-87800000D01*
X145500000Y-98800000D02*
X144000000Y-98800000D01*
X145500000Y-100000000D02*
X145500000Y-98800000D01*
X147000000Y-100000000D02*
X145500000Y-100000000D01*
X147000000Y-101800000D02*
X147000000Y-100000000D01*
X148000000Y-98800000D02*
X148000000Y-101800000D01*
X152000000Y-98800000D02*
X148000000Y-98800000D01*
X152000000Y-101800000D02*
X152000000Y-98800000D01*
X153000000Y-100000000D02*
X153000000Y-101800000D01*
X153000000Y-101800000D02*
X147000000Y-101800000D01*
X154500000Y-98800000D02*
X154500000Y-100000000D01*
X154500000Y-100000000D02*
X153000000Y-100000000D01*
X156000000Y-87800000D02*
X156000000Y-98800000D01*
X156000000Y-98800000D02*
X154500000Y-98800000D01*
X126500000Y-87800000D02*
X138500000Y-87800000D01*
X126500000Y-98800000D02*
X126500000Y-87800000D01*
X128000000Y-98800000D02*
X126500000Y-98800000D01*
X128000000Y-100000000D02*
X128000000Y-98800000D01*
X129500000Y-100000000D02*
X128000000Y-100000000D01*
X129500000Y-101800000D02*
X129500000Y-100000000D01*
X130500000Y-98800000D02*
X130500000Y-101800000D01*
X134500000Y-98800000D02*
X130500000Y-98800000D01*
X134500000Y-101800000D02*
X134500000Y-98800000D01*
X135500000Y-100000000D02*
X135500000Y-101800000D01*
X135500000Y-101800000D02*
X129500000Y-101800000D01*
X137000000Y-98800000D02*
X137000000Y-100000000D01*
X137000000Y-100000000D02*
X135500000Y-100000000D01*
X138500000Y-87800000D02*
X138500000Y-98800000D01*
X138500000Y-98800000D02*
X137000000Y-98800000D01*
X119550000Y-84170000D02*
X119550000Y-79930000D01*
X119550000Y-80650000D02*
X117310000Y-80650000D01*
X119550000Y-80530000D02*
X117310000Y-80530000D01*
X117310000Y-84170000D02*
X119550000Y-84170000D01*
X119550000Y-80770000D02*
X117310000Y-80770000D01*
X118430000Y-79280000D02*
X118430000Y-79930000D01*
X119550000Y-79930000D02*
X117310000Y-79930000D01*
X117310000Y-79930000D02*
X117310000Y-84170000D01*
X118430000Y-84820000D02*
X118430000Y-84170000D01*
X107315000Y-83040000D02*
X107330000Y-83040000D01*
X105190000Y-78500000D02*
X105205000Y-78500000D01*
X105190000Y-83040000D02*
X105205000Y-83040000D01*
X107315000Y-78500000D02*
X107330000Y-78500000D01*
X105190000Y-83040000D02*
X105190000Y-78500000D01*
X107330000Y-83040000D02*
X107330000Y-78500000D01*
X131150000Y-78280000D02*
X131150000Y-82820000D01*
X133290000Y-78280000D02*
X133290000Y-82820000D01*
X131165000Y-82820000D02*
X131150000Y-82820000D01*
X133290000Y-78280000D02*
X133275000Y-78280000D01*
X133290000Y-82820000D02*
X133275000Y-82820000D01*
X131165000Y-78280000D02*
X131150000Y-78280000D01*
M02*
