M48
; DRILL file {KiCad (6.0.5)} date Mon Jan  2 11:49:06 2023
; FORMAT={-:-/ absolute / inch / decimal}
; #@! TF.CreationDate,2023-01-02T11:49:06+00:00
; #@! TF.GenerationSoftware,Kicad,Pcbnew,(6.0.5)
; #@! TF.FileFunction,MixedPlating,1,2
FMAT,2
INCH
; #@! TA.AperFunction,Plated,PTH,ComponentDrill
T1C0.0157
; #@! TA.AperFunction,Plated,PTH,ComponentDrill
T2C0.0315
; #@! TA.AperFunction,Plated,PTH,ComponentDrill
T3C0.0394
; #@! TA.AperFunction,Plated,PTH,ComponentDrill
T4C0.0400
; #@! TA.AperFunction,Plated,PTH,ComponentDrill
T5C0.0550
; #@! TA.AperFunction,Plated,PTH,ComponentDrill
T6C0.1200
; #@! TA.AperFunction,NonPlated,NPTH,ComponentDrill
T7C0.0472
; #@! TA.AperFunction,NonPlated,NPTH,ComponentDrill
T8C0.0550
%
G90
G05
T2
X5.22Y-3.486
X5.22Y-3.616
X5.2206Y-3.7374
X5.2206Y-4.0374
X5.225Y-4.295
X5.225Y-4.43
X5.225Y-4.57
X5.225Y-4.71
X5.3206Y-3.7374
X5.3206Y-4.0374
X5.3266Y-4.16
X5.4206Y-3.7374
X5.4206Y-4.0374
X5.52Y-3.486
X5.52Y-3.616
X5.5206Y-3.7374
X5.5206Y-4.0374
X5.5234Y-4.16
X5.525Y-4.295
X5.525Y-4.43
X5.525Y-4.57
X5.525Y-4.71
T3
X4.5443Y-2.9465
X4.5443Y-3.0425
X4.6443Y-2.9465
X4.6443Y-3.0425
X4.7443Y-2.9465
X4.7443Y-3.0425
X5.11Y-2.779
X5.21Y-2.779
X5.31Y-2.779
X5.41Y-2.779
X5.47Y-5.0719
X5.49Y-3.169
X5.4902Y-3.2689
X5.4902Y-3.3689
X5.51Y-2.779
X5.57Y-5.0719
X5.59Y-3.169
X5.5902Y-3.2689
X5.5902Y-3.3689
X5.61Y-2.779
X5.67Y-5.0719
X5.69Y-3.169
X5.69Y-3.269
X5.69Y-3.369
X5.69Y-3.469
X5.69Y-3.569
X5.69Y-3.669
X5.69Y-3.769
X5.69Y-3.969
X5.69Y-4.069
X5.69Y-4.169
X5.69Y-4.269
X5.69Y-4.369
X5.69Y-4.469
X5.69Y-4.569
X5.69Y-4.669
X5.71Y-2.779
X5.77Y-5.0719
X5.79Y-3.169
X5.79Y-3.269
X5.79Y-3.369
X5.79Y-3.469
X5.79Y-3.569
X5.79Y-3.669
X5.79Y-3.769
X5.79Y-3.969
X5.79Y-4.069
X5.79Y-4.169
X5.79Y-4.269
X5.79Y-4.369
X5.79Y-4.469
X5.79Y-4.569
X5.79Y-4.669
X5.81Y-2.779
X5.87Y-5.0719
X5.89Y-3.169
X5.89Y-3.269
X5.89Y-3.369
X5.89Y-3.469
X5.89Y-3.569
X5.89Y-3.669
X5.89Y-3.769
X5.89Y-3.969
X5.89Y-4.069
X5.89Y-4.169
X5.89Y-4.269
X5.89Y-4.369
X5.89Y-4.469
X5.89Y-4.569
X5.89Y-4.669
X5.91Y-2.779
X5.97Y-5.0719
X5.989Y-3.869
X5.99Y-3.169
X5.99Y-3.269
X5.99Y-3.369
X5.99Y-3.469
X5.99Y-3.569
X5.99Y-3.669
X5.99Y-3.769
X5.99Y-3.969
X5.99Y-4.069
X5.99Y-4.169
X5.99Y-4.269
X5.99Y-4.369
X5.99Y-4.469
X5.99Y-4.569
X6.01Y-2.779
X6.07Y-5.0719
X6.089Y-3.869
X6.09Y-3.169
X6.09Y-3.269
X6.09Y-3.369
X6.09Y-3.469
X6.09Y-3.569
X6.09Y-3.669
X6.09Y-3.769
X6.09Y-3.969
X6.09Y-4.069
X6.09Y-4.169
X6.09Y-4.269
X6.09Y-4.369
X6.09Y-4.469
X6.09Y-4.569
X6.17Y-2.779
X6.17Y-5.0719
X6.189Y-3.869
X6.19Y-3.169
X6.19Y-3.269
X6.19Y-3.369
X6.19Y-3.469
X6.19Y-3.569
X6.19Y-3.669
X6.19Y-3.769
X6.19Y-3.969
X6.19Y-4.069
X6.19Y-4.169
X6.19Y-4.269
X6.19Y-4.369
X6.19Y-4.469
X6.19Y-4.569
X6.27Y-2.779
X6.289Y-3.869
X6.29Y-3.169
X6.29Y-3.269
X6.29Y-3.369
X6.29Y-3.469
X6.29Y-3.569
X6.29Y-3.669
X6.29Y-3.769
X6.29Y-3.969
X6.29Y-4.069
X6.29Y-4.169
X6.29Y-4.269
X6.29Y-4.369
X6.29Y-4.469
X6.29Y-4.569
X6.29Y-4.669
X6.37Y-2.779
X6.37Y-5.0719
X6.389Y-3.869
X6.39Y-3.169
X6.39Y-3.269
X6.39Y-3.369
X6.39Y-3.469
X6.39Y-3.569
X6.39Y-3.669
X6.39Y-3.769
X6.39Y-3.969
X6.39Y-4.069
X6.39Y-4.169
X6.39Y-4.269
X6.39Y-4.369
X6.39Y-4.469
X6.39Y-4.569
X6.39Y-4.669
X6.47Y-2.779
X6.47Y-5.0719
X6.489Y-3.869
X6.49Y-3.169
X6.49Y-3.269
X6.49Y-3.369
X6.49Y-3.469
X6.49Y-3.569
X6.49Y-3.669
X6.49Y-3.769
X6.49Y-3.969
X6.49Y-4.069
X6.49Y-4.169
X6.49Y-4.269
X6.49Y-4.369
X6.49Y-4.469
X6.49Y-4.569
X6.49Y-4.669
X6.57Y-2.779
X6.57Y-5.0719
X6.589Y-3.869
X6.59Y-3.169
X6.59Y-3.269
X6.59Y-3.369
X6.59Y-3.469
X6.59Y-3.569
X6.59Y-3.669
X6.59Y-3.769
X6.59Y-3.969
X6.59Y-4.069
X6.59Y-4.169
X6.59Y-4.269
X6.59Y-4.369
X6.59Y-4.469
X6.59Y-4.569
X6.59Y-4.669
X6.67Y-2.779
X6.67Y-5.0719
X6.689Y-3.869
X6.69Y-3.169
X6.69Y-3.269
X6.69Y-3.369
X6.69Y-3.469
X6.69Y-3.569
X6.69Y-3.669
X6.69Y-3.769
X6.69Y-3.969
X6.69Y-4.069
X6.69Y-4.169
X6.69Y-4.269
X6.69Y-4.369
X6.69Y-4.469
X6.69Y-4.569
X6.69Y-4.669
X6.77Y-2.779
X6.77Y-5.0719
X6.789Y-3.869
X6.79Y-3.169
X6.79Y-3.269
X6.79Y-3.369
X6.79Y-3.469
X6.79Y-3.569
X6.79Y-3.669
X6.79Y-3.769
X6.79Y-3.969
X6.79Y-4.069
X6.79Y-4.169
X6.79Y-4.269
X6.79Y-4.369
X6.79Y-4.469
X6.79Y-4.569
X6.79Y-4.669
X6.87Y-2.779
X6.87Y-5.0719
T4
X5.11Y-2.975
X5.21Y-2.975
X5.31Y-2.975
X5.41Y-2.975
X5.47Y-4.875
X5.51Y-2.975
X5.57Y-4.875
X5.61Y-2.975
X5.67Y-4.875
X5.71Y-2.975
X5.77Y-4.875
X5.81Y-2.975
X5.87Y-4.875
X5.91Y-2.975
X5.97Y-4.875
X6.01Y-2.975
X6.07Y-4.875
X6.17Y-2.975
X6.17Y-4.875
X6.27Y-2.975
X6.37Y-2.975
X6.37Y-4.875
X6.47Y-2.975
X6.47Y-4.875
X6.57Y-2.975
X6.57Y-4.875
X6.67Y-2.975
X6.67Y-4.875
X6.77Y-2.975
X6.77Y-4.875
X6.87Y-2.975
X6.87Y-4.875
T5
X4.8399Y-3.289
X4.8399Y-3.8794
X4.8399Y-4.0665
X4.8399Y-4.6569
X4.84Y-3.5842
X4.84Y-4.3617
X4.9384Y-3.3875
X4.9384Y-3.7809
X4.9384Y-4.165
X4.9384Y-4.5584
T6
X4.92Y-4.875
X4.97Y-2.975
X6.97Y-3.575
X6.97Y-4.675
T7
X4.4486Y-3.3898
X4.4486Y-3.7835
X4.4486Y-4.1634
X4.4486Y-4.5571
X4.547Y-3.3898
X4.547Y-3.7835
X4.547Y-4.1634
X4.547Y-4.5571
X4.7439Y-3.5866
X4.7439Y-4.3602
T8
X4.4464Y-3.3873
X4.4464Y-3.7811
X4.4464Y-4.1648
X4.4464Y-4.5586
T1
G00X4.547Y-3.5669
M15
G01X4.547Y-3.6063
M16
G05
G00X4.547Y-4.3406
M15
G01X4.547Y-4.3799
M16
G05
G00X4.7635Y-3.3898
M15
G01X4.7242Y-3.3898
M16
G05
G00X4.7635Y-3.4882
M15
G01X4.7242Y-3.4882
M16
G05
G00X4.7242Y-3.685
M15
G01X4.7635Y-3.685
M16
G05
G00X4.7242Y-3.7835
M15
G01X4.7635Y-3.7835
M16
G05
G00X4.7635Y-4.1634
M15
G01X4.7242Y-4.1634
M16
G05
G00X4.7635Y-4.2618
M15
G01X4.7242Y-4.2618
M16
G05
G00X4.7242Y-4.4587
M15
G01X4.7635Y-4.4587
M16
G05
G00X4.7242Y-4.5571
M15
G01X4.7635Y-4.5571
M16
G05
T0
M30
