%TF.GenerationSoftware,KiCad,Pcbnew,(6.0.5)*%
%TF.CreationDate,2023-03-15T21:31:39+00:00*%
%TF.ProjectId,XiaoMIDIInterface,5869616f-4d49-4444-9949-6e7465726661,rev?*%
%TF.SameCoordinates,Original*%
%TF.FileFunction,Legend,Top*%
%TF.FilePolarity,Positive*%
%FSLAX46Y46*%
G04 Gerber Fmt 4.6, Leading zero omitted, Abs format (unit mm)*
G04 Created by KiCad (PCBNEW (6.0.5)) date 2023-03-15 21:31:39*
%MOMM*%
%LPD*%
G01*
G04 APERTURE LIST*
%ADD10C,0.150000*%
%ADD11C,0.100000*%
%ADD12C,0.304800*%
%ADD13C,0.152400*%
%ADD14C,0.120000*%
%ADD15C,0.127000*%
%ADD16C,2.499360*%
G04 APERTURE END LIST*
D10*
X94964285Y-64417380D02*
X95630952Y-65417380D01*
X95630952Y-64417380D02*
X94964285Y-65417380D01*
X96011904Y-65417380D02*
X96011904Y-64750714D01*
X96011904Y-64417380D02*
X95964285Y-64465000D01*
X96011904Y-64512619D01*
X96059523Y-64465000D01*
X96011904Y-64417380D01*
X96011904Y-64512619D01*
X96916666Y-65417380D02*
X96916666Y-64893571D01*
X96869047Y-64798333D01*
X96773809Y-64750714D01*
X96583333Y-64750714D01*
X96488095Y-64798333D01*
X96916666Y-65369761D02*
X96821428Y-65417380D01*
X96583333Y-65417380D01*
X96488095Y-65369761D01*
X96440476Y-65274523D01*
X96440476Y-65179285D01*
X96488095Y-65084047D01*
X96583333Y-65036428D01*
X96821428Y-65036428D01*
X96916666Y-64988809D01*
X97535714Y-65417380D02*
X97440476Y-65369761D01*
X97392857Y-65322142D01*
X97345238Y-65226904D01*
X97345238Y-64941190D01*
X97392857Y-64845952D01*
X97440476Y-64798333D01*
X97535714Y-64750714D01*
X97678571Y-64750714D01*
X97773809Y-64798333D01*
X97821428Y-64845952D01*
X97869047Y-64941190D01*
X97869047Y-65226904D01*
X97821428Y-65322142D01*
X97773809Y-65369761D01*
X97678571Y-65417380D01*
X97535714Y-65417380D01*
X99059523Y-65417380D02*
X99059523Y-64417380D01*
X99392857Y-65131666D01*
X99726190Y-64417380D01*
X99726190Y-65417380D01*
X100202380Y-65417380D02*
X100202380Y-64417380D01*
X100678571Y-65417380D02*
X100678571Y-64417380D01*
X100916666Y-64417380D01*
X101059523Y-64465000D01*
X101154761Y-64560238D01*
X101202380Y-64655476D01*
X101250000Y-64845952D01*
X101250000Y-64988809D01*
X101202380Y-65179285D01*
X101154761Y-65274523D01*
X101059523Y-65369761D01*
X100916666Y-65417380D01*
X100678571Y-65417380D01*
X101678571Y-65417380D02*
X101678571Y-64417380D01*
X102916666Y-65417380D02*
X102916666Y-64417380D01*
X103297619Y-64417380D01*
X103392857Y-64465000D01*
X103440476Y-64512619D01*
X103488095Y-64607857D01*
X103488095Y-64750714D01*
X103440476Y-64845952D01*
X103392857Y-64893571D01*
X103297619Y-64941190D01*
X102916666Y-64941190D01*
X103916666Y-65417380D02*
X103916666Y-64750714D01*
X103916666Y-64941190D02*
X103964285Y-64845952D01*
X104011904Y-64798333D01*
X104107142Y-64750714D01*
X104202380Y-64750714D01*
X104678571Y-65417380D02*
X104583333Y-65369761D01*
X104535714Y-65322142D01*
X104488095Y-65226904D01*
X104488095Y-64941190D01*
X104535714Y-64845952D01*
X104583333Y-64798333D01*
X104678571Y-64750714D01*
X104821428Y-64750714D01*
X104916666Y-64798333D01*
X104964285Y-64845952D01*
X105011904Y-64941190D01*
X105011904Y-65226904D01*
X104964285Y-65322142D01*
X104916666Y-65369761D01*
X104821428Y-65417380D01*
X104678571Y-65417380D01*
X105297619Y-64750714D02*
X105678571Y-64750714D01*
X105440476Y-64417380D02*
X105440476Y-65274523D01*
X105488095Y-65369761D01*
X105583333Y-65417380D01*
X105678571Y-65417380D01*
X106154761Y-65417380D02*
X106059523Y-65369761D01*
X106011904Y-65322142D01*
X105964285Y-65226904D01*
X105964285Y-64941190D01*
X106011904Y-64845952D01*
X106059523Y-64798333D01*
X106154761Y-64750714D01*
X106297619Y-64750714D01*
X106392857Y-64798333D01*
X106440476Y-64845952D01*
X106488095Y-64941190D01*
X106488095Y-65226904D01*
X106440476Y-65322142D01*
X106392857Y-65369761D01*
X106297619Y-65417380D01*
X106154761Y-65417380D01*
X95559523Y-67027380D02*
X95559523Y-66027380D01*
X95559523Y-66979761D02*
X95464285Y-67027380D01*
X95273809Y-67027380D01*
X95178571Y-66979761D01*
X95130952Y-66932142D01*
X95083333Y-66836904D01*
X95083333Y-66551190D01*
X95130952Y-66455952D01*
X95178571Y-66408333D01*
X95273809Y-66360714D01*
X95464285Y-66360714D01*
X95559523Y-66408333D01*
X96035714Y-67027380D02*
X96035714Y-66360714D01*
X96035714Y-66027380D02*
X95988095Y-66075000D01*
X96035714Y-66122619D01*
X96083333Y-66075000D01*
X96035714Y-66027380D01*
X96035714Y-66122619D01*
X96416666Y-66360714D02*
X96654761Y-67027380D01*
X96892857Y-66360714D02*
X96654761Y-67027380D01*
X96559523Y-67265476D01*
X96511904Y-67313095D01*
X96416666Y-67360714D01*
X97654761Y-66979761D02*
X97559523Y-67027380D01*
X97369047Y-67027380D01*
X97273809Y-66979761D01*
X97226190Y-66884523D01*
X97226190Y-66503571D01*
X97273809Y-66408333D01*
X97369047Y-66360714D01*
X97559523Y-66360714D01*
X97654761Y-66408333D01*
X97702380Y-66503571D01*
X97702380Y-66598809D01*
X97226190Y-66694047D01*
X98273809Y-67027380D02*
X98178571Y-66979761D01*
X98130952Y-66884523D01*
X98130952Y-66027380D01*
X99035714Y-66979761D02*
X98940476Y-67027380D01*
X98750000Y-67027380D01*
X98654761Y-66979761D01*
X98607142Y-66884523D01*
X98607142Y-66503571D01*
X98654761Y-66408333D01*
X98750000Y-66360714D01*
X98940476Y-66360714D01*
X99035714Y-66408333D01*
X99083333Y-66503571D01*
X99083333Y-66598809D01*
X98607142Y-66694047D01*
X99940476Y-66979761D02*
X99845238Y-67027380D01*
X99654761Y-67027380D01*
X99559523Y-66979761D01*
X99511904Y-66932142D01*
X99464285Y-66836904D01*
X99464285Y-66551190D01*
X99511904Y-66455952D01*
X99559523Y-66408333D01*
X99654761Y-66360714D01*
X99845238Y-66360714D01*
X99940476Y-66408333D01*
X100226190Y-66360714D02*
X100607142Y-66360714D01*
X100369047Y-66027380D02*
X100369047Y-66884523D01*
X100416666Y-66979761D01*
X100511904Y-67027380D01*
X100607142Y-67027380D01*
X100940476Y-67027380D02*
X100940476Y-66360714D01*
X100940476Y-66551190D02*
X100988095Y-66455952D01*
X101035714Y-66408333D01*
X101130952Y-66360714D01*
X101226190Y-66360714D01*
X101702380Y-67027380D02*
X101607142Y-66979761D01*
X101559523Y-66932142D01*
X101511904Y-66836904D01*
X101511904Y-66551190D01*
X101559523Y-66455952D01*
X101607142Y-66408333D01*
X101702380Y-66360714D01*
X101845238Y-66360714D01*
X101940476Y-66408333D01*
X101988095Y-66455952D01*
X102035714Y-66551190D01*
X102035714Y-66836904D01*
X101988095Y-66932142D01*
X101940476Y-66979761D01*
X101845238Y-67027380D01*
X101702380Y-67027380D01*
X102464285Y-67027380D02*
X102464285Y-66360714D01*
X102464285Y-66455952D02*
X102511904Y-66408333D01*
X102607142Y-66360714D01*
X102750000Y-66360714D01*
X102845238Y-66408333D01*
X102892857Y-66503571D01*
X102892857Y-67027380D01*
X102892857Y-66503571D02*
X102940476Y-66408333D01*
X103035714Y-66360714D01*
X103178571Y-66360714D01*
X103273809Y-66408333D01*
X103321428Y-66503571D01*
X103321428Y-67027380D01*
X104226190Y-66360714D02*
X104226190Y-67027380D01*
X103797619Y-66360714D02*
X103797619Y-66884523D01*
X103845238Y-66979761D01*
X103940476Y-67027380D01*
X104083333Y-67027380D01*
X104178571Y-66979761D01*
X104226190Y-66932142D01*
X104654761Y-66979761D02*
X104750000Y-67027380D01*
X104940476Y-67027380D01*
X105035714Y-66979761D01*
X105083333Y-66884523D01*
X105083333Y-66836904D01*
X105035714Y-66741666D01*
X104940476Y-66694047D01*
X104797619Y-66694047D01*
X104702380Y-66646428D01*
X104654761Y-66551190D01*
X104654761Y-66503571D01*
X104702380Y-66408333D01*
X104797619Y-66360714D01*
X104940476Y-66360714D01*
X105035714Y-66408333D01*
X105511904Y-67027380D02*
X105511904Y-66360714D01*
X105511904Y-66027380D02*
X105464285Y-66075000D01*
X105511904Y-66122619D01*
X105559523Y-66075000D01*
X105511904Y-66027380D01*
X105511904Y-66122619D01*
X106416666Y-66979761D02*
X106321428Y-67027380D01*
X106130952Y-67027380D01*
X106035714Y-66979761D01*
X105988095Y-66932142D01*
X105940476Y-66836904D01*
X105940476Y-66551190D01*
X105988095Y-66455952D01*
X106035714Y-66408333D01*
X106130952Y-66360714D01*
X106321428Y-66360714D01*
X106416666Y-66408333D01*
X97035714Y-67970714D02*
X97273809Y-68637380D01*
X97511904Y-67970714D01*
X98083333Y-67637380D02*
X98178571Y-67637380D01*
X98273809Y-67685000D01*
X98321428Y-67732619D01*
X98369047Y-67827857D01*
X98416666Y-68018333D01*
X98416666Y-68256428D01*
X98369047Y-68446904D01*
X98321428Y-68542142D01*
X98273809Y-68589761D01*
X98178571Y-68637380D01*
X98083333Y-68637380D01*
X97988095Y-68589761D01*
X97940476Y-68542142D01*
X97892857Y-68446904D01*
X97845238Y-68256428D01*
X97845238Y-68018333D01*
X97892857Y-67827857D01*
X97940476Y-67732619D01*
X97988095Y-67685000D01*
X98083333Y-67637380D01*
X98845238Y-68542142D02*
X98892857Y-68589761D01*
X98845238Y-68637380D01*
X98797619Y-68589761D01*
X98845238Y-68542142D01*
X98845238Y-68637380D01*
X99845238Y-68637380D02*
X99273809Y-68637380D01*
X99559523Y-68637380D02*
X99559523Y-67637380D01*
X99464285Y-67780238D01*
X99369047Y-67875476D01*
X99273809Y-67923095D01*
X100988095Y-67732619D02*
X101035714Y-67685000D01*
X101130952Y-67637380D01*
X101369047Y-67637380D01*
X101464285Y-67685000D01*
X101511904Y-67732619D01*
X101559523Y-67827857D01*
X101559523Y-67923095D01*
X101511904Y-68065952D01*
X100940476Y-68637380D01*
X101559523Y-68637380D01*
X102178571Y-67637380D02*
X102273809Y-67637380D01*
X102369047Y-67685000D01*
X102416666Y-67732619D01*
X102464285Y-67827857D01*
X102511904Y-68018333D01*
X102511904Y-68256428D01*
X102464285Y-68446904D01*
X102416666Y-68542142D01*
X102369047Y-68589761D01*
X102273809Y-68637380D01*
X102178571Y-68637380D01*
X102083333Y-68589761D01*
X102035714Y-68542142D01*
X101988095Y-68446904D01*
X101940476Y-68256428D01*
X101940476Y-68018333D01*
X101988095Y-67827857D01*
X102035714Y-67732619D01*
X102083333Y-67685000D01*
X102178571Y-67637380D01*
X102892857Y-67732619D02*
X102940476Y-67685000D01*
X103035714Y-67637380D01*
X103273809Y-67637380D01*
X103369047Y-67685000D01*
X103416666Y-67732619D01*
X103464285Y-67827857D01*
X103464285Y-67923095D01*
X103416666Y-68065952D01*
X102845238Y-68637380D01*
X103464285Y-68637380D01*
X103797619Y-67637380D02*
X104416666Y-67637380D01*
X104083333Y-68018333D01*
X104226190Y-68018333D01*
X104321428Y-68065952D01*
X104369047Y-68113571D01*
X104416666Y-68208809D01*
X104416666Y-68446904D01*
X104369047Y-68542142D01*
X104321428Y-68589761D01*
X104226190Y-68637380D01*
X103940476Y-68637380D01*
X103845238Y-68589761D01*
X103797619Y-68542142D01*
X87166666Y-53072380D02*
X87785714Y-53072380D01*
X87452380Y-53453333D01*
X87595238Y-53453333D01*
X87690476Y-53500952D01*
X87738095Y-53548571D01*
X87785714Y-53643809D01*
X87785714Y-53881904D01*
X87738095Y-53977142D01*
X87690476Y-54024761D01*
X87595238Y-54072380D01*
X87309523Y-54072380D01*
X87214285Y-54024761D01*
X87166666Y-53977142D01*
D11*
X106809523Y-50532380D02*
X107304761Y-50532380D01*
X107038095Y-50913333D01*
X107152380Y-50913333D01*
X107228571Y-50960952D01*
X107266666Y-51008571D01*
X107304761Y-51103809D01*
X107304761Y-51341904D01*
X107266666Y-51437142D01*
X107228571Y-51484761D01*
X107152380Y-51532380D01*
X106923809Y-51532380D01*
X106847619Y-51484761D01*
X106809523Y-51437142D01*
X107533333Y-50532380D02*
X107800000Y-51532380D01*
X108066666Y-50532380D01*
X108257142Y-50532380D02*
X108752380Y-50532380D01*
X108485714Y-50913333D01*
X108600000Y-50913333D01*
X108676190Y-50960952D01*
X108714285Y-51008571D01*
X108752380Y-51103809D01*
X108752380Y-51341904D01*
X108714285Y-51437142D01*
X108676190Y-51484761D01*
X108600000Y-51532380D01*
X108371428Y-51532380D01*
X108295238Y-51484761D01*
X108257142Y-51437142D01*
D10*
X87452380Y-45452380D02*
X87547619Y-45452380D01*
X87642857Y-45500000D01*
X87690476Y-45547619D01*
X87738095Y-45642857D01*
X87785714Y-45833333D01*
X87785714Y-46071428D01*
X87738095Y-46261904D01*
X87690476Y-46357142D01*
X87642857Y-46404761D01*
X87547619Y-46452380D01*
X87452380Y-46452380D01*
X87357142Y-46404761D01*
X87309523Y-46357142D01*
X87261904Y-46261904D01*
X87214285Y-46071428D01*
X87214285Y-45833333D01*
X87261904Y-45642857D01*
X87309523Y-45547619D01*
X87357142Y-45500000D01*
X87452380Y-45452380D01*
X114809523Y-56612380D02*
X115000000Y-56612380D01*
X115095238Y-56564761D01*
X115142857Y-56517142D01*
X115238095Y-56374285D01*
X115285714Y-56183809D01*
X115285714Y-55802857D01*
X115238095Y-55707619D01*
X115190476Y-55660000D01*
X115095238Y-55612380D01*
X114904761Y-55612380D01*
X114809523Y-55660000D01*
X114761904Y-55707619D01*
X114714285Y-55802857D01*
X114714285Y-56040952D01*
X114761904Y-56136190D01*
X114809523Y-56183809D01*
X114904761Y-56231428D01*
X115095238Y-56231428D01*
X115190476Y-56183809D01*
X115238095Y-56136190D01*
X115285714Y-56040952D01*
D11*
X92706428Y-48136428D02*
X92506428Y-47850714D01*
X92363571Y-48136428D02*
X92363571Y-47536428D01*
X92592142Y-47536428D01*
X92649285Y-47565000D01*
X92677857Y-47593571D01*
X92706428Y-47650714D01*
X92706428Y-47736428D01*
X92677857Y-47793571D01*
X92649285Y-47822142D01*
X92592142Y-47850714D01*
X92363571Y-47850714D01*
X92963571Y-47822142D02*
X93163571Y-47822142D01*
X93249285Y-48136428D02*
X92963571Y-48136428D01*
X92963571Y-47536428D01*
X93249285Y-47536428D01*
X93477857Y-48107857D02*
X93563571Y-48136428D01*
X93706428Y-48136428D01*
X93763571Y-48107857D01*
X93792142Y-48079285D01*
X93820714Y-48022142D01*
X93820714Y-47965000D01*
X93792142Y-47907857D01*
X93763571Y-47879285D01*
X93706428Y-47850714D01*
X93592142Y-47822142D01*
X93535000Y-47793571D01*
X93506428Y-47765000D01*
X93477857Y-47707857D01*
X93477857Y-47650714D01*
X93506428Y-47593571D01*
X93535000Y-47565000D01*
X93592142Y-47536428D01*
X93735000Y-47536428D01*
X93820714Y-47565000D01*
X94077857Y-47822142D02*
X94277857Y-47822142D01*
X94363571Y-48136428D02*
X94077857Y-48136428D01*
X94077857Y-47536428D01*
X94363571Y-47536428D01*
X94535000Y-47536428D02*
X94877857Y-47536428D01*
X94706428Y-48136428D02*
X94706428Y-47536428D01*
D10*
X87785714Y-48992380D02*
X87214285Y-48992380D01*
X87500000Y-48992380D02*
X87500000Y-47992380D01*
X87404761Y-48135238D01*
X87309523Y-48230476D01*
X87214285Y-48278095D01*
X115238095Y-65772380D02*
X114761904Y-65772380D01*
X114714285Y-66248571D01*
X114761904Y-66200952D01*
X114857142Y-66153333D01*
X115095238Y-66153333D01*
X115190476Y-66200952D01*
X115238095Y-66248571D01*
X115285714Y-66343809D01*
X115285714Y-66581904D01*
X115238095Y-66677142D01*
X115190476Y-66724761D01*
X115095238Y-66772380D01*
X114857142Y-66772380D01*
X114761904Y-66724761D01*
X114714285Y-66677142D01*
X114904761Y-58580952D02*
X114809523Y-58533333D01*
X114761904Y-58485714D01*
X114714285Y-58390476D01*
X114714285Y-58342857D01*
X114761904Y-58247619D01*
X114809523Y-58200000D01*
X114904761Y-58152380D01*
X115095238Y-58152380D01*
X115190476Y-58200000D01*
X115238095Y-58247619D01*
X115285714Y-58342857D01*
X115285714Y-58390476D01*
X115238095Y-58485714D01*
X115190476Y-58533333D01*
X115095238Y-58580952D01*
X114904761Y-58580952D01*
X114809523Y-58628571D01*
X114761904Y-58676190D01*
X114714285Y-58771428D01*
X114714285Y-58961904D01*
X114761904Y-59057142D01*
X114809523Y-59104761D01*
X114904761Y-59152380D01*
X115095238Y-59152380D01*
X115190476Y-59104761D01*
X115238095Y-59057142D01*
X115285714Y-58961904D01*
X115285714Y-58771428D01*
X115238095Y-58676190D01*
X115190476Y-58628571D01*
X115095238Y-58580952D01*
X114714285Y-73487619D02*
X114761904Y-73440000D01*
X114857142Y-73392380D01*
X115095238Y-73392380D01*
X115190476Y-73440000D01*
X115238095Y-73487619D01*
X115285714Y-73582857D01*
X115285714Y-73678095D01*
X115238095Y-73820952D01*
X114666666Y-74392380D01*
X115285714Y-74392380D01*
X115190476Y-68645714D02*
X115190476Y-69312380D01*
X114952380Y-68264761D02*
X114714285Y-68979047D01*
X115333333Y-68979047D01*
X114666666Y-70852380D02*
X115285714Y-70852380D01*
X114952380Y-71233333D01*
X115095238Y-71233333D01*
X115190476Y-71280952D01*
X115238095Y-71328571D01*
X115285714Y-71423809D01*
X115285714Y-71661904D01*
X115238095Y-71757142D01*
X115190476Y-71804761D01*
X115095238Y-71852380D01*
X114809523Y-71852380D01*
X114714285Y-71804761D01*
X114666666Y-71757142D01*
D11*
X100522857Y-79242857D02*
X100608571Y-79271428D01*
X100751428Y-79271428D01*
X100808571Y-79242857D01*
X100837142Y-79214285D01*
X100865714Y-79157142D01*
X100865714Y-79100000D01*
X100837142Y-79042857D01*
X100808571Y-79014285D01*
X100751428Y-78985714D01*
X100637142Y-78957142D01*
X100580000Y-78928571D01*
X100551428Y-78900000D01*
X100522857Y-78842857D01*
X100522857Y-78785714D01*
X100551428Y-78728571D01*
X100580000Y-78700000D01*
X100637142Y-78671428D01*
X100780000Y-78671428D01*
X100865714Y-78700000D01*
X101065714Y-78671428D02*
X101208571Y-79271428D01*
X101322857Y-78842857D01*
X101437142Y-79271428D01*
X101580000Y-78671428D01*
X102151428Y-79214285D02*
X102122857Y-79242857D01*
X102037142Y-79271428D01*
X101980000Y-79271428D01*
X101894285Y-79242857D01*
X101837142Y-79185714D01*
X101808571Y-79128571D01*
X101780000Y-79014285D01*
X101780000Y-78928571D01*
X101808571Y-78814285D01*
X101837142Y-78757142D01*
X101894285Y-78700000D01*
X101980000Y-78671428D01*
X102037142Y-78671428D01*
X102122857Y-78700000D01*
X102151428Y-78728571D01*
X102694285Y-79271428D02*
X102408571Y-79271428D01*
X102408571Y-78671428D01*
X102894285Y-79271428D02*
X102894285Y-78671428D01*
X103237142Y-79271428D02*
X102980000Y-78928571D01*
X103237142Y-78671428D02*
X102894285Y-79014285D01*
D10*
X115285714Y-76932380D02*
X114714285Y-76932380D01*
X115000000Y-76932380D02*
X115000000Y-75932380D01*
X114904761Y-76075238D01*
X114809523Y-76170476D01*
X114714285Y-76218095D01*
X114666666Y-60692380D02*
X115333333Y-60692380D01*
X114904761Y-61692380D01*
D11*
X100922142Y-47565000D02*
X100865000Y-47536428D01*
X100779285Y-47536428D01*
X100693571Y-47565000D01*
X100636428Y-47622142D01*
X100607857Y-47679285D01*
X100579285Y-47793571D01*
X100579285Y-47879285D01*
X100607857Y-47993571D01*
X100636428Y-48050714D01*
X100693571Y-48107857D01*
X100779285Y-48136428D01*
X100836428Y-48136428D01*
X100922142Y-48107857D01*
X100950714Y-48079285D01*
X100950714Y-47879285D01*
X100836428Y-47879285D01*
X101207857Y-48136428D02*
X101207857Y-47536428D01*
X101550714Y-48136428D01*
X101550714Y-47536428D01*
X101836428Y-48136428D02*
X101836428Y-47536428D01*
X101979285Y-47536428D01*
X102065000Y-47565000D01*
X102122142Y-47622142D01*
X102150714Y-47679285D01*
X102179285Y-47793571D01*
X102179285Y-47879285D01*
X102150714Y-47993571D01*
X102122142Y-48050714D01*
X102065000Y-48107857D01*
X101979285Y-48136428D01*
X101836428Y-48136428D01*
D10*
X113109523Y-78452380D02*
X112633333Y-78452380D01*
X112585714Y-78928571D01*
X112633333Y-78880952D01*
X112728571Y-78833333D01*
X112966666Y-78833333D01*
X113061904Y-78880952D01*
X113109523Y-78928571D01*
X113157142Y-79023809D01*
X113157142Y-79261904D01*
X113109523Y-79357142D01*
X113061904Y-79404761D01*
X112966666Y-79452380D01*
X112728571Y-79452380D01*
X112633333Y-79404761D01*
X112585714Y-79357142D01*
X113442857Y-78452380D02*
X113776190Y-79452380D01*
X114109523Y-78452380D01*
D11*
X98882857Y-78700000D02*
X98825714Y-78671428D01*
X98740000Y-78671428D01*
X98654285Y-78700000D01*
X98597142Y-78757142D01*
X98568571Y-78814285D01*
X98540000Y-78928571D01*
X98540000Y-79014285D01*
X98568571Y-79128571D01*
X98597142Y-79185714D01*
X98654285Y-79242857D01*
X98740000Y-79271428D01*
X98797142Y-79271428D01*
X98882857Y-79242857D01*
X98911428Y-79214285D01*
X98911428Y-79014285D01*
X98797142Y-79014285D01*
X99168571Y-79271428D02*
X99168571Y-78671428D01*
X99511428Y-79271428D01*
X99511428Y-78671428D01*
X99797142Y-79271428D02*
X99797142Y-78671428D01*
X99940000Y-78671428D01*
X100025714Y-78700000D01*
X100082857Y-78757142D01*
X100111428Y-78814285D01*
X100140000Y-78928571D01*
X100140000Y-79014285D01*
X100111428Y-79128571D01*
X100082857Y-79185714D01*
X100025714Y-79242857D01*
X99940000Y-79271428D01*
X99797142Y-79271428D01*
X92277857Y-45567857D02*
X92363571Y-45596428D01*
X92506428Y-45596428D01*
X92563571Y-45567857D01*
X92592142Y-45539285D01*
X92620714Y-45482142D01*
X92620714Y-45425000D01*
X92592142Y-45367857D01*
X92563571Y-45339285D01*
X92506428Y-45310714D01*
X92392142Y-45282142D01*
X92335000Y-45253571D01*
X92306428Y-45225000D01*
X92277857Y-45167857D01*
X92277857Y-45110714D01*
X92306428Y-45053571D01*
X92335000Y-45025000D01*
X92392142Y-44996428D01*
X92535000Y-44996428D01*
X92620714Y-45025000D01*
X92820714Y-44996428D02*
X92963571Y-45596428D01*
X93077857Y-45167857D01*
X93192142Y-45596428D01*
X93335000Y-44996428D01*
X93563571Y-45596428D02*
X93563571Y-44996428D01*
X93706428Y-44996428D01*
X93792142Y-45025000D01*
X93849285Y-45082142D01*
X93877857Y-45139285D01*
X93906428Y-45253571D01*
X93906428Y-45339285D01*
X93877857Y-45453571D01*
X93849285Y-45510714D01*
X93792142Y-45567857D01*
X93706428Y-45596428D01*
X93563571Y-45596428D01*
X94163571Y-45596428D02*
X94163571Y-44996428D01*
X94563571Y-44996428D02*
X94677857Y-44996428D01*
X94735000Y-45025000D01*
X94792142Y-45082142D01*
X94820714Y-45196428D01*
X94820714Y-45396428D01*
X94792142Y-45510714D01*
X94735000Y-45567857D01*
X94677857Y-45596428D01*
X94563571Y-45596428D01*
X94506428Y-45567857D01*
X94449285Y-45510714D01*
X94420714Y-45396428D01*
X94420714Y-45196428D01*
X94449285Y-45082142D01*
X94506428Y-45025000D01*
X94563571Y-44996428D01*
X107190476Y-48040000D02*
X107114285Y-47992380D01*
X107000000Y-47992380D01*
X106885714Y-48040000D01*
X106809523Y-48135238D01*
X106771428Y-48230476D01*
X106733333Y-48420952D01*
X106733333Y-48563809D01*
X106771428Y-48754285D01*
X106809523Y-48849523D01*
X106885714Y-48944761D01*
X107000000Y-48992380D01*
X107076190Y-48992380D01*
X107190476Y-48944761D01*
X107228571Y-48897142D01*
X107228571Y-48563809D01*
X107076190Y-48563809D01*
X107571428Y-48992380D02*
X107571428Y-47992380D01*
X108028571Y-48992380D01*
X108028571Y-47992380D01*
X108409523Y-48992380D02*
X108409523Y-47992380D01*
X108600000Y-47992380D01*
X108714285Y-48040000D01*
X108790476Y-48135238D01*
X108828571Y-48230476D01*
X108866666Y-48420952D01*
X108866666Y-48563809D01*
X108828571Y-48754285D01*
X108790476Y-48849523D01*
X108714285Y-48944761D01*
X108600000Y-48992380D01*
X108409523Y-48992380D01*
D10*
X107609523Y-56652380D02*
X107800000Y-56652380D01*
X107895238Y-56604761D01*
X107942857Y-56557142D01*
X108038095Y-56414285D01*
X108085714Y-56223809D01*
X108085714Y-55842857D01*
X108038095Y-55747619D01*
X107990476Y-55700000D01*
X107895238Y-55652380D01*
X107704761Y-55652380D01*
X107609523Y-55700000D01*
X107561904Y-55747619D01*
X107514285Y-55842857D01*
X107514285Y-56080952D01*
X107561904Y-56176190D01*
X107609523Y-56223809D01*
X107704761Y-56271428D01*
X107895238Y-56271428D01*
X107990476Y-56223809D01*
X108038095Y-56176190D01*
X108085714Y-56080952D01*
X87690476Y-60692380D02*
X87500000Y-60692380D01*
X87404761Y-60740000D01*
X87357142Y-60787619D01*
X87261904Y-60930476D01*
X87214285Y-61120952D01*
X87214285Y-61501904D01*
X87261904Y-61597142D01*
X87309523Y-61644761D01*
X87404761Y-61692380D01*
X87595238Y-61692380D01*
X87690476Y-61644761D01*
X87738095Y-61597142D01*
X87785714Y-61501904D01*
X87785714Y-61263809D01*
X87738095Y-61168571D01*
X87690476Y-61120952D01*
X87595238Y-61073333D01*
X87404761Y-61073333D01*
X87309523Y-61120952D01*
X87261904Y-61168571D01*
X87214285Y-61263809D01*
X107704761Y-58580952D02*
X107609523Y-58533333D01*
X107561904Y-58485714D01*
X107514285Y-58390476D01*
X107514285Y-58342857D01*
X107561904Y-58247619D01*
X107609523Y-58200000D01*
X107704761Y-58152380D01*
X107895238Y-58152380D01*
X107990476Y-58200000D01*
X108038095Y-58247619D01*
X108085714Y-58342857D01*
X108085714Y-58390476D01*
X108038095Y-58485714D01*
X107990476Y-58533333D01*
X107895238Y-58580952D01*
X107704761Y-58580952D01*
X107609523Y-58628571D01*
X107561904Y-58676190D01*
X107514285Y-58771428D01*
X107514285Y-58961904D01*
X107561904Y-59057142D01*
X107609523Y-59104761D01*
X107704761Y-59152380D01*
X107895238Y-59152380D01*
X107990476Y-59104761D01*
X108038095Y-59057142D01*
X108085714Y-58961904D01*
X108085714Y-58771428D01*
X108038095Y-58676190D01*
X107990476Y-58628571D01*
X107895238Y-58580952D01*
X87690476Y-55945714D02*
X87690476Y-56612380D01*
X87452380Y-55564761D02*
X87214285Y-56279047D01*
X87833333Y-56279047D01*
X115190476Y-63232380D02*
X115000000Y-63232380D01*
X114904761Y-63280000D01*
X114857142Y-63327619D01*
X114761904Y-63470476D01*
X114714285Y-63660952D01*
X114714285Y-64041904D01*
X114761904Y-64137142D01*
X114809523Y-64184761D01*
X114904761Y-64232380D01*
X115095238Y-64232380D01*
X115190476Y-64184761D01*
X115238095Y-64137142D01*
X115285714Y-64041904D01*
X115285714Y-63803809D01*
X115238095Y-63708571D01*
X115190476Y-63660952D01*
X115095238Y-63613333D01*
X114904761Y-63613333D01*
X114809523Y-63660952D01*
X114761904Y-63708571D01*
X114714285Y-63803809D01*
X107609523Y-54152380D02*
X107038095Y-54152380D01*
X107323809Y-54152380D02*
X107323809Y-53152380D01*
X107228571Y-53295238D01*
X107133333Y-53390476D01*
X107038095Y-53438095D01*
X108228571Y-53152380D02*
X108323809Y-53152380D01*
X108419047Y-53200000D01*
X108466666Y-53247619D01*
X108514285Y-53342857D01*
X108561904Y-53533333D01*
X108561904Y-53771428D01*
X108514285Y-53961904D01*
X108466666Y-54057142D01*
X108419047Y-54104761D01*
X108323809Y-54152380D01*
X108228571Y-54152380D01*
X108133333Y-54104761D01*
X108085714Y-54057142D01*
X108038095Y-53961904D01*
X107990476Y-53771428D01*
X107990476Y-53533333D01*
X108038095Y-53342857D01*
X108085714Y-53247619D01*
X108133333Y-53200000D01*
X108228571Y-53152380D01*
X96176190Y-53552380D02*
X96842857Y-54552380D01*
X96842857Y-53552380D02*
X96176190Y-54552380D01*
X97223809Y-54552380D02*
X97223809Y-53552380D01*
X97652380Y-54266666D02*
X98128571Y-54266666D01*
X97557142Y-54552380D02*
X97890476Y-53552380D01*
X98223809Y-54552380D01*
X98747619Y-53552380D02*
X98938095Y-53552380D01*
X99033333Y-53600000D01*
X99128571Y-53695238D01*
X99176190Y-53885714D01*
X99176190Y-54219047D01*
X99128571Y-54409523D01*
X99033333Y-54504761D01*
X98938095Y-54552380D01*
X98747619Y-54552380D01*
X98652380Y-54504761D01*
X98557142Y-54409523D01*
X98509523Y-54219047D01*
X98509523Y-53885714D01*
X98557142Y-53695238D01*
X98652380Y-53600000D01*
X98747619Y-53552380D01*
X87214285Y-50627619D02*
X87261904Y-50580000D01*
X87357142Y-50532380D01*
X87595238Y-50532380D01*
X87690476Y-50580000D01*
X87738095Y-50627619D01*
X87785714Y-50722857D01*
X87785714Y-50818095D01*
X87738095Y-50960952D01*
X87166666Y-51532380D01*
X87785714Y-51532380D01*
X109898095Y-78500000D02*
X109802857Y-78452380D01*
X109660000Y-78452380D01*
X109517142Y-78500000D01*
X109421904Y-78595238D01*
X109374285Y-78690476D01*
X109326666Y-78880952D01*
X109326666Y-79023809D01*
X109374285Y-79214285D01*
X109421904Y-79309523D01*
X109517142Y-79404761D01*
X109660000Y-79452380D01*
X109755238Y-79452380D01*
X109898095Y-79404761D01*
X109945714Y-79357142D01*
X109945714Y-79023809D01*
X109755238Y-79023809D01*
X110374285Y-79452380D02*
X110374285Y-78452380D01*
X110945714Y-79452380D01*
X110945714Y-78452380D01*
X111421904Y-79452380D02*
X111421904Y-78452380D01*
X111660000Y-78452380D01*
X111802857Y-78500000D01*
X111898095Y-78595238D01*
X111945714Y-78690476D01*
X111993333Y-78880952D01*
X111993333Y-79023809D01*
X111945714Y-79214285D01*
X111898095Y-79309523D01*
X111802857Y-79404761D01*
X111660000Y-79452380D01*
X111421904Y-79452380D01*
X114952380Y-78472380D02*
X115047619Y-78472380D01*
X115142857Y-78520000D01*
X115190476Y-78567619D01*
X115238095Y-78662857D01*
X115285714Y-78853333D01*
X115285714Y-79091428D01*
X115238095Y-79281904D01*
X115190476Y-79377142D01*
X115142857Y-79424761D01*
X115047619Y-79472380D01*
X114952380Y-79472380D01*
X114857142Y-79424761D01*
X114809523Y-79377142D01*
X114761904Y-79281904D01*
X114714285Y-79091428D01*
X114714285Y-78853333D01*
X114761904Y-78662857D01*
X114809523Y-78567619D01*
X114857142Y-78520000D01*
X114952380Y-78472380D01*
D11*
X100579285Y-45567857D02*
X100665000Y-45596428D01*
X100807857Y-45596428D01*
X100865000Y-45567857D01*
X100893571Y-45539285D01*
X100922142Y-45482142D01*
X100922142Y-45425000D01*
X100893571Y-45367857D01*
X100865000Y-45339285D01*
X100807857Y-45310714D01*
X100693571Y-45282142D01*
X100636428Y-45253571D01*
X100607857Y-45225000D01*
X100579285Y-45167857D01*
X100579285Y-45110714D01*
X100607857Y-45053571D01*
X100636428Y-45025000D01*
X100693571Y-44996428D01*
X100836428Y-44996428D01*
X100922142Y-45025000D01*
X101122142Y-44996428D02*
X101265000Y-45596428D01*
X101379285Y-45167857D01*
X101493571Y-45596428D01*
X101636428Y-44996428D01*
X102207857Y-45539285D02*
X102179285Y-45567857D01*
X102093571Y-45596428D01*
X102036428Y-45596428D01*
X101950714Y-45567857D01*
X101893571Y-45510714D01*
X101865000Y-45453571D01*
X101836428Y-45339285D01*
X101836428Y-45253571D01*
X101865000Y-45139285D01*
X101893571Y-45082142D01*
X101950714Y-45025000D01*
X102036428Y-44996428D01*
X102093571Y-44996428D01*
X102179285Y-45025000D01*
X102207857Y-45053571D01*
X102750714Y-45596428D02*
X102465000Y-45596428D01*
X102465000Y-44996428D01*
X102950714Y-45596428D02*
X102950714Y-44996428D01*
X103293571Y-45596428D02*
X103036428Y-45253571D01*
X103293571Y-44996428D02*
X102950714Y-45339285D01*
X95528571Y-79242857D02*
X95614285Y-79271428D01*
X95757142Y-79271428D01*
X95814285Y-79242857D01*
X95842857Y-79214285D01*
X95871428Y-79157142D01*
X95871428Y-79100000D01*
X95842857Y-79042857D01*
X95814285Y-79014285D01*
X95757142Y-78985714D01*
X95642857Y-78957142D01*
X95585714Y-78928571D01*
X95557142Y-78900000D01*
X95528571Y-78842857D01*
X95528571Y-78785714D01*
X95557142Y-78728571D01*
X95585714Y-78700000D01*
X95642857Y-78671428D01*
X95785714Y-78671428D01*
X95871428Y-78700000D01*
X96071428Y-78671428D02*
X96214285Y-79271428D01*
X96328571Y-78842857D01*
X96442857Y-79271428D01*
X96585714Y-78671428D01*
X96814285Y-79271428D02*
X96814285Y-78671428D01*
X96957142Y-78671428D01*
X97042857Y-78700000D01*
X97100000Y-78757142D01*
X97128571Y-78814285D01*
X97157142Y-78928571D01*
X97157142Y-79014285D01*
X97128571Y-79128571D01*
X97100000Y-79185714D01*
X97042857Y-79242857D01*
X96957142Y-79271428D01*
X96814285Y-79271428D01*
X97414285Y-79271428D02*
X97414285Y-78671428D01*
X97814285Y-78671428D02*
X97928571Y-78671428D01*
X97985714Y-78700000D01*
X98042857Y-78757142D01*
X98071428Y-78871428D01*
X98071428Y-79071428D01*
X98042857Y-79185714D01*
X97985714Y-79242857D01*
X97928571Y-79271428D01*
X97814285Y-79271428D01*
X97757142Y-79242857D01*
X97700000Y-79185714D01*
X97671428Y-79071428D01*
X97671428Y-78871428D01*
X97700000Y-78757142D01*
X97757142Y-78700000D01*
X97814285Y-78671428D01*
D10*
X87738095Y-58152380D02*
X87261904Y-58152380D01*
X87214285Y-58628571D01*
X87261904Y-58580952D01*
X87357142Y-58533333D01*
X87595238Y-58533333D01*
X87690476Y-58580952D01*
X87738095Y-58628571D01*
X87785714Y-58723809D01*
X87785714Y-58961904D01*
X87738095Y-59057142D01*
X87690476Y-59104761D01*
X87595238Y-59152380D01*
X87357142Y-59152380D01*
X87261904Y-59104761D01*
X87214285Y-59057142D01*
X107466666Y-60692380D02*
X108133333Y-60692380D01*
X107704761Y-61692380D01*
X114809523Y-54072380D02*
X114238095Y-54072380D01*
X114523809Y-54072380D02*
X114523809Y-53072380D01*
X114428571Y-53215238D01*
X114333333Y-53310476D01*
X114238095Y-53358095D01*
X115428571Y-53072380D02*
X115523809Y-53072380D01*
X115619047Y-53120000D01*
X115666666Y-53167619D01*
X115714285Y-53262857D01*
X115761904Y-53453333D01*
X115761904Y-53691428D01*
X115714285Y-53881904D01*
X115666666Y-53977142D01*
X115619047Y-54024761D01*
X115523809Y-54072380D01*
X115428571Y-54072380D01*
X115333333Y-54024761D01*
X115285714Y-53977142D01*
X115238095Y-53881904D01*
X115190476Y-53691428D01*
X115190476Y-53453333D01*
X115238095Y-53262857D01*
X115285714Y-53167619D01*
X115333333Y-53120000D01*
X115428571Y-53072380D01*
X107609523Y-45452380D02*
X107133333Y-45452380D01*
X107085714Y-45928571D01*
X107133333Y-45880952D01*
X107228571Y-45833333D01*
X107466666Y-45833333D01*
X107561904Y-45880952D01*
X107609523Y-45928571D01*
X107657142Y-46023809D01*
X107657142Y-46261904D01*
X107609523Y-46357142D01*
X107561904Y-46404761D01*
X107466666Y-46452380D01*
X107228571Y-46452380D01*
X107133333Y-46404761D01*
X107085714Y-46357142D01*
X107942857Y-45452380D02*
X108276190Y-46452380D01*
X108609523Y-45452380D01*
%TO.C,*%
%TO.C,J15*%
X97992857Y-84104761D02*
X98135714Y-84152380D01*
X98373809Y-84152380D01*
X98469047Y-84104761D01*
X98516666Y-84057142D01*
X98564285Y-83961904D01*
X98564285Y-83866666D01*
X98516666Y-83771428D01*
X98469047Y-83723809D01*
X98373809Y-83676190D01*
X98183333Y-83628571D01*
X98088095Y-83580952D01*
X98040476Y-83533333D01*
X97992857Y-83438095D01*
X97992857Y-83342857D01*
X98040476Y-83247619D01*
X98088095Y-83200000D01*
X98183333Y-83152380D01*
X98421428Y-83152380D01*
X98564285Y-83200000D01*
X98897619Y-83152380D02*
X99135714Y-84152380D01*
X99326190Y-83438095D01*
X99516666Y-84152380D01*
X99754761Y-83152380D01*
X100135714Y-84152380D02*
X100135714Y-83152380D01*
X100373809Y-83152380D01*
X100516666Y-83200000D01*
X100611904Y-83295238D01*
X100659523Y-83390476D01*
X100707142Y-83580952D01*
X100707142Y-83723809D01*
X100659523Y-83914285D01*
X100611904Y-84009523D01*
X100516666Y-84104761D01*
X100373809Y-84152380D01*
X100135714Y-84152380D01*
%TO.C,*%
%TO.C,U1*%
X99776380Y-76219047D02*
X98776380Y-76219047D01*
X99252571Y-76219047D02*
X99252571Y-75647619D01*
X99776380Y-75647619D02*
X98776380Y-75647619D01*
X99776380Y-74647619D02*
X99776380Y-75219047D01*
X99776380Y-74933333D02*
X98776380Y-74933333D01*
X98919238Y-75028571D01*
X99014476Y-75123809D01*
X99062095Y-75219047D01*
X99776380Y-73695238D02*
X99776380Y-74266666D01*
X99776380Y-73980952D02*
X98776380Y-73980952D01*
X98919238Y-74076190D01*
X99014476Y-74171428D01*
X99062095Y-74266666D01*
X99776380Y-72790476D02*
X99776380Y-73266666D01*
X98776380Y-73266666D01*
X99776380Y-71933333D02*
X99776380Y-72504761D01*
X99776380Y-72219047D02*
X98776380Y-72219047D01*
X98919238Y-72314285D01*
X99014476Y-72409523D01*
X99062095Y-72504761D01*
%TO.C,*%
D12*
%TO.C,J1*%
X81414428Y-79923285D02*
X79890428Y-79923285D01*
X81414428Y-79197571D02*
X79890428Y-79197571D01*
X81414428Y-78326714D01*
X79890428Y-78326714D01*
D10*
%TO.C,*%
%TO.C,R1*%
X86687904Y-76775619D02*
X86735523Y-76728000D01*
X86830761Y-76680380D01*
X87068857Y-76680380D01*
X87164095Y-76728000D01*
X87211714Y-76775619D01*
X87259333Y-76870857D01*
X87259333Y-76966095D01*
X87211714Y-77108952D01*
X86640285Y-77680380D01*
X87259333Y-77680380D01*
X87640285Y-76775619D02*
X87687904Y-76728000D01*
X87783142Y-76680380D01*
X88021238Y-76680380D01*
X88116476Y-76728000D01*
X88164095Y-76775619D01*
X88211714Y-76870857D01*
X88211714Y-76966095D01*
X88164095Y-77108952D01*
X87592666Y-77680380D01*
X88211714Y-77680380D01*
X88830761Y-76680380D02*
X88926000Y-76680380D01*
X89021238Y-76728000D01*
X89068857Y-76775619D01*
X89116476Y-76870857D01*
X89164095Y-77061333D01*
X89164095Y-77299428D01*
X89116476Y-77489904D01*
X89068857Y-77585142D01*
X89021238Y-77632761D01*
X88926000Y-77680380D01*
X88830761Y-77680380D01*
X88735523Y-77632761D01*
X88687904Y-77585142D01*
X88640285Y-77489904D01*
X88592666Y-77299428D01*
X88592666Y-77061333D01*
X88640285Y-76870857D01*
X88687904Y-76775619D01*
X88735523Y-76728000D01*
X88830761Y-76680380D01*
%TO.C,*%
%TO.C,J11*%
X109684476Y-84152380D02*
X109684476Y-83152380D01*
X110065428Y-83152380D01*
X110160666Y-83200000D01*
X110208285Y-83247619D01*
X110255904Y-83342857D01*
X110255904Y-83485714D01*
X110208285Y-83580952D01*
X110160666Y-83628571D01*
X110065428Y-83676190D01*
X109684476Y-83676190D01*
X110874952Y-83152380D02*
X111065428Y-83152380D01*
X111160666Y-83200000D01*
X111255904Y-83295238D01*
X111303523Y-83485714D01*
X111303523Y-83819047D01*
X111255904Y-84009523D01*
X111160666Y-84104761D01*
X111065428Y-84152380D01*
X110874952Y-84152380D01*
X110779714Y-84104761D01*
X110684476Y-84009523D01*
X110636857Y-83819047D01*
X110636857Y-83485714D01*
X110684476Y-83295238D01*
X110779714Y-83200000D01*
X110874952Y-83152380D01*
X111636857Y-83152380D02*
X111874952Y-84152380D01*
X112065428Y-83438095D01*
X112255904Y-84152380D01*
X112494000Y-83152380D01*
X112874952Y-83628571D02*
X113208285Y-83628571D01*
X113351142Y-84152380D02*
X112874952Y-84152380D01*
X112874952Y-83152380D01*
X113351142Y-83152380D01*
X114351142Y-84152380D02*
X114017809Y-83676190D01*
X113779714Y-84152380D02*
X113779714Y-83152380D01*
X114160666Y-83152380D01*
X114255904Y-83200000D01*
X114303523Y-83247619D01*
X114351142Y-83342857D01*
X114351142Y-83485714D01*
X114303523Y-83580952D01*
X114255904Y-83628571D01*
X114160666Y-83676190D01*
X113779714Y-83676190D01*
%TO.C,*%
%TO.C,J8*%
X116309523Y-45452380D02*
X115833333Y-45452380D01*
X115785714Y-45928571D01*
X115833333Y-45880952D01*
X115928571Y-45833333D01*
X116166666Y-45833333D01*
X116261904Y-45880952D01*
X116309523Y-45928571D01*
X116357142Y-46023809D01*
X116357142Y-46261904D01*
X116309523Y-46357142D01*
X116261904Y-46404761D01*
X116166666Y-46452380D01*
X115928571Y-46452380D01*
X115833333Y-46404761D01*
X115785714Y-46357142D01*
X116642857Y-45452380D02*
X116976190Y-46452380D01*
X117309523Y-45452380D01*
%TO.C,*%
D13*
%TO.C,SW1*%
X86749380Y-84159619D02*
X86410714Y-83675809D01*
X86168809Y-84159619D02*
X86168809Y-83143619D01*
X86555857Y-83143619D01*
X86652619Y-83192000D01*
X86701000Y-83240380D01*
X86749380Y-83337142D01*
X86749380Y-83482285D01*
X86701000Y-83579047D01*
X86652619Y-83627428D01*
X86555857Y-83675809D01*
X86168809Y-83675809D01*
X87184809Y-83627428D02*
X87523476Y-83627428D01*
X87668619Y-84159619D02*
X87184809Y-84159619D01*
X87184809Y-83143619D01*
X87668619Y-83143619D01*
X88055666Y-84111238D02*
X88200809Y-84159619D01*
X88442714Y-84159619D01*
X88539476Y-84111238D01*
X88587857Y-84062857D01*
X88636238Y-83966095D01*
X88636238Y-83869333D01*
X88587857Y-83772571D01*
X88539476Y-83724190D01*
X88442714Y-83675809D01*
X88249190Y-83627428D01*
X88152428Y-83579047D01*
X88104047Y-83530666D01*
X88055666Y-83433904D01*
X88055666Y-83337142D01*
X88104047Y-83240380D01*
X88152428Y-83192000D01*
X88249190Y-83143619D01*
X88491095Y-83143619D01*
X88636238Y-83192000D01*
X89071666Y-83627428D02*
X89410333Y-83627428D01*
X89555476Y-84159619D02*
X89071666Y-84159619D01*
X89071666Y-83143619D01*
X89555476Y-83143619D01*
X89845761Y-83143619D02*
X90426333Y-83143619D01*
X90136047Y-84159619D02*
X90136047Y-83143619D01*
D10*
%TO.C,C1*%
X109752380Y-75447619D02*
X109752380Y-76019047D01*
X109752380Y-75733333D02*
X108752380Y-75733333D01*
X108895238Y-75828571D01*
X108990476Y-75923809D01*
X109038095Y-76019047D01*
X108752380Y-74828571D02*
X108752380Y-74733333D01*
X108800000Y-74638095D01*
X108847619Y-74590476D01*
X108942857Y-74542857D01*
X109133333Y-74495238D01*
X109371428Y-74495238D01*
X109561904Y-74542857D01*
X109657142Y-74590476D01*
X109704761Y-74638095D01*
X109752380Y-74733333D01*
X109752380Y-74828571D01*
X109704761Y-74923809D01*
X109657142Y-74971428D01*
X109561904Y-75019047D01*
X109371428Y-75066666D01*
X109133333Y-75066666D01*
X108942857Y-75019047D01*
X108847619Y-74971428D01*
X108800000Y-74923809D01*
X108752380Y-74828571D01*
X108752380Y-73876190D02*
X108752380Y-73780952D01*
X108800000Y-73685714D01*
X108847619Y-73638095D01*
X108942857Y-73590476D01*
X109133333Y-73542857D01*
X109371428Y-73542857D01*
X109561904Y-73590476D01*
X109657142Y-73638095D01*
X109704761Y-73685714D01*
X109752380Y-73780952D01*
X109752380Y-73876190D01*
X109704761Y-73971428D01*
X109657142Y-74019047D01*
X109561904Y-74066666D01*
X109371428Y-74114285D01*
X109133333Y-74114285D01*
X108942857Y-74066666D01*
X108847619Y-74019047D01*
X108800000Y-73971428D01*
X108752380Y-73876190D01*
X109085714Y-73114285D02*
X109752380Y-73114285D01*
X109180952Y-73114285D02*
X109133333Y-73066666D01*
X109085714Y-72971428D01*
X109085714Y-72828571D01*
X109133333Y-72733333D01*
X109228571Y-72685714D01*
X109752380Y-72685714D01*
X109228571Y-71876190D02*
X109228571Y-72209523D01*
X109752380Y-72209523D02*
X108752380Y-72209523D01*
X108752380Y-71733333D01*
%TO.C,*%
%TO.C,R4*%
X81556380Y-57600476D02*
X81556380Y-58171904D01*
X81556380Y-57886190D02*
X80556380Y-57886190D01*
X80699238Y-57981428D01*
X80794476Y-58076666D01*
X80842095Y-58171904D01*
X80556380Y-56981428D02*
X80556380Y-56886190D01*
X80604000Y-56790952D01*
X80651619Y-56743333D01*
X80746857Y-56695714D01*
X80937333Y-56648095D01*
X81175428Y-56648095D01*
X81365904Y-56695714D01*
X81461142Y-56743333D01*
X81508761Y-56790952D01*
X81556380Y-56886190D01*
X81556380Y-56981428D01*
X81508761Y-57076666D01*
X81461142Y-57124285D01*
X81365904Y-57171904D01*
X81175428Y-57219523D01*
X80937333Y-57219523D01*
X80746857Y-57171904D01*
X80651619Y-57124285D01*
X80604000Y-57076666D01*
X80556380Y-56981428D01*
%TO.C,*%
%TO.C,J9*%
X115261904Y-50532380D02*
X115880952Y-50532380D01*
X115547619Y-50913333D01*
X115690476Y-50913333D01*
X115785714Y-50960952D01*
X115833333Y-51008571D01*
X115880952Y-51103809D01*
X115880952Y-51341904D01*
X115833333Y-51437142D01*
X115785714Y-51484761D01*
X115690476Y-51532380D01*
X115404761Y-51532380D01*
X115309523Y-51484761D01*
X115261904Y-51437142D01*
X116166666Y-50532380D02*
X116500000Y-51532380D01*
X116833333Y-50532380D01*
X117071428Y-50532380D02*
X117690476Y-50532380D01*
X117357142Y-50913333D01*
X117500000Y-50913333D01*
X117595238Y-50960952D01*
X117642857Y-51008571D01*
X117690476Y-51103809D01*
X117690476Y-51341904D01*
X117642857Y-51437142D01*
X117595238Y-51484761D01*
X117500000Y-51532380D01*
X117214285Y-51532380D01*
X117119047Y-51484761D01*
X117071428Y-51437142D01*
%TO.C,*%
%TO.C,R2*%
X87034095Y-69713714D02*
X87034095Y-70380380D01*
X86796000Y-69332761D02*
X86557904Y-70047047D01*
X87176952Y-70047047D01*
X87462666Y-69380380D02*
X88129333Y-69380380D01*
X87700761Y-70380380D01*
X88700761Y-69380380D02*
X88796000Y-69380380D01*
X88891238Y-69428000D01*
X88938857Y-69475619D01*
X88986476Y-69570857D01*
X89034095Y-69761333D01*
X89034095Y-69999428D01*
X88986476Y-70189904D01*
X88938857Y-70285142D01*
X88891238Y-70332761D01*
X88796000Y-70380380D01*
X88700761Y-70380380D01*
X88605523Y-70332761D01*
X88557904Y-70285142D01*
X88510285Y-70189904D01*
X88462666Y-69999428D01*
X88462666Y-69761333D01*
X88510285Y-69570857D01*
X88557904Y-69475619D01*
X88605523Y-69428000D01*
X88700761Y-69380380D01*
%TO.C,*%
%TO.C,R3*%
X87090476Y-65338380D02*
X87709523Y-65338380D01*
X87376190Y-65719333D01*
X87519047Y-65719333D01*
X87614285Y-65766952D01*
X87661904Y-65814571D01*
X87709523Y-65909809D01*
X87709523Y-66147904D01*
X87661904Y-66243142D01*
X87614285Y-66290761D01*
X87519047Y-66338380D01*
X87233333Y-66338380D01*
X87138095Y-66290761D01*
X87090476Y-66243142D01*
X88042857Y-65338380D02*
X88661904Y-65338380D01*
X88328571Y-65719333D01*
X88471428Y-65719333D01*
X88566666Y-65766952D01*
X88614285Y-65814571D01*
X88661904Y-65909809D01*
X88661904Y-66147904D01*
X88614285Y-66243142D01*
X88566666Y-66290761D01*
X88471428Y-66338380D01*
X88185714Y-66338380D01*
X88090476Y-66290761D01*
X88042857Y-66243142D01*
%TO.C,*%
D12*
%TO.C,J2*%
X80365428Y-50524000D02*
X80365428Y-50233714D01*
X80438000Y-50088571D01*
X80583142Y-49943428D01*
X80873428Y-49870857D01*
X81381428Y-49870857D01*
X81671714Y-49943428D01*
X81816857Y-50088571D01*
X81889428Y-50233714D01*
X81889428Y-50524000D01*
X81816857Y-50669142D01*
X81671714Y-50814285D01*
X81381428Y-50886857D01*
X80873428Y-50886857D01*
X80583142Y-50814285D01*
X80438000Y-50669142D01*
X80365428Y-50524000D01*
X80365428Y-49217714D02*
X81599142Y-49217714D01*
X81744285Y-49145142D01*
X81816857Y-49072571D01*
X81889428Y-48927428D01*
X81889428Y-48637142D01*
X81816857Y-48492000D01*
X81744285Y-48419428D01*
X81599142Y-48346857D01*
X80365428Y-48346857D01*
X80365428Y-47838857D02*
X80365428Y-46968000D01*
X81889428Y-47403428D02*
X80365428Y-47403428D01*
D10*
%TO.C,*%
%TO.C,J10*%
X115738095Y-48200000D02*
X115642857Y-48152380D01*
X115500000Y-48152380D01*
X115357142Y-48200000D01*
X115261904Y-48295238D01*
X115214285Y-48390476D01*
X115166666Y-48580952D01*
X115166666Y-48723809D01*
X115214285Y-48914285D01*
X115261904Y-49009523D01*
X115357142Y-49104761D01*
X115500000Y-49152380D01*
X115595238Y-49152380D01*
X115738095Y-49104761D01*
X115785714Y-49057142D01*
X115785714Y-48723809D01*
X115595238Y-48723809D01*
X116214285Y-49152380D02*
X116214285Y-48152380D01*
X116785714Y-49152380D01*
X116785714Y-48152380D01*
X117261904Y-49152380D02*
X117261904Y-48152380D01*
X117500000Y-48152380D01*
X117642857Y-48200000D01*
X117738095Y-48295238D01*
X117785714Y-48390476D01*
X117833333Y-48580952D01*
X117833333Y-48723809D01*
X117785714Y-48914285D01*
X117738095Y-49009523D01*
X117642857Y-49104761D01*
X117500000Y-49152380D01*
X117261904Y-49152380D01*
%TO.C,*%
D14*
%TO.C,J15*%
X98070000Y-82830000D02*
X98070000Y-80170000D01*
X95470000Y-82830000D02*
X95470000Y-81500000D01*
X98070000Y-82830000D02*
X103210000Y-82830000D01*
X96800000Y-82830000D02*
X95470000Y-82830000D01*
X103210000Y-82830000D02*
X103210000Y-80170000D01*
X98070000Y-80170000D02*
X103210000Y-80170000D01*
%TO.C,J13*%
X105240000Y-44670000D02*
X106570000Y-44670000D01*
X103910000Y-62570000D02*
X106570000Y-62570000D01*
X103910000Y-47270000D02*
X103910000Y-62570000D01*
X103910000Y-47270000D02*
X106570000Y-47270000D01*
X106570000Y-47270000D02*
X106570000Y-62570000D01*
X106570000Y-44670000D02*
X106570000Y-46000000D01*
%TO.C,J12*%
X91330000Y-47270000D02*
X91330000Y-62570000D01*
X91330000Y-44670000D02*
X91330000Y-46000000D01*
X88670000Y-47270000D02*
X91330000Y-47270000D01*
X88670000Y-47270000D02*
X88670000Y-62570000D01*
X88670000Y-62570000D02*
X91330000Y-62570000D01*
X90000000Y-44670000D02*
X91330000Y-44670000D01*
%TO.C,U1*%
X96674000Y-77774000D02*
X101974000Y-77774000D01*
X101974000Y-77774000D02*
X101974000Y-70034000D01*
X96674000Y-70034000D02*
X96674000Y-77774000D01*
X94184000Y-77834000D02*
X104464000Y-77834000D01*
X98324000Y-70034000D02*
X96674000Y-70034000D01*
X104464000Y-69974000D02*
X94184000Y-69974000D01*
X94184000Y-69974000D02*
X94184000Y-77834000D01*
X101974000Y-70034000D02*
X100324000Y-70034000D01*
X104464000Y-77834000D02*
X104464000Y-69974000D01*
X98324000Y-70034000D02*
G75*
G03*
X100324000Y-70034000I1000000J0D01*
G01*
D12*
%TO.C,J1*%
X78499220Y-65000780D02*
X78999600Y-65501160D01*
X78499220Y-82999220D02*
X61499000Y-82999220D01*
X60000400Y-63499640D02*
X60500780Y-63499640D01*
X78499220Y-68500900D02*
X76500240Y-68500900D01*
X78499220Y-75998980D02*
X76500240Y-75998980D01*
X61499000Y-65501160D02*
X61001160Y-65501160D01*
X76500240Y-68500900D02*
X76500240Y-72001020D01*
X60500780Y-65000780D02*
X61001160Y-65000780D01*
X78499220Y-72001020D02*
X76500240Y-72001020D01*
X78499220Y-65000780D02*
X61499000Y-65000780D01*
X60749700Y-65000780D02*
X60749700Y-84500360D01*
X78999600Y-72498860D02*
X78999600Y-75501140D01*
X78999600Y-72498860D02*
X78499220Y-72001020D01*
X78999600Y-82498840D02*
X78999600Y-80499860D01*
X61001160Y-65000780D02*
X61001160Y-84500360D01*
X78999600Y-80499860D02*
X78999600Y-79999480D01*
X60500780Y-84500360D02*
X60500780Y-82999220D01*
X61499000Y-82999220D02*
X61499000Y-82498840D01*
X61001160Y-84500360D02*
X60500780Y-84500360D01*
X76500240Y-79499100D02*
X76500240Y-75998980D01*
X78499220Y-82999220D02*
X78999600Y-82498840D01*
X60500780Y-82999220D02*
X60500780Y-65000780D01*
X78999600Y-65501160D02*
X78999600Y-68000520D01*
X60500780Y-82999220D02*
X60000400Y-82999220D01*
X61001160Y-82498840D02*
X61499000Y-82498840D01*
X78499220Y-79499100D02*
X76500240Y-79499100D01*
X78999600Y-79999480D02*
X78499220Y-79499100D01*
X60500780Y-63499640D02*
X60500780Y-65000780D01*
X61499000Y-65000780D02*
X61499000Y-65501160D01*
X60000400Y-82999220D02*
X60000400Y-63499640D01*
X78999600Y-75501140D02*
X78499220Y-75998980D01*
X60249320Y-63499640D02*
X60249320Y-82999220D01*
X78999600Y-68000520D02*
X78499220Y-68500900D01*
D14*
%TO.C,R1*%
X84640000Y-78570000D02*
X91180000Y-78570000D01*
X84640000Y-75830000D02*
X91180000Y-75830000D01*
X91180000Y-78570000D02*
X91180000Y-78240000D01*
X84640000Y-76160000D02*
X84640000Y-75830000D01*
X91180000Y-75830000D02*
X91180000Y-76160000D01*
X84640000Y-78240000D02*
X84640000Y-78570000D01*
%TO.C,J11*%
X113200000Y-80204000D02*
X114530000Y-80204000D01*
X114530000Y-80204000D02*
X114530000Y-81534000D01*
X111930000Y-82864000D02*
X109330000Y-82864000D01*
X109330000Y-80204000D02*
X109330000Y-82864000D01*
X111930000Y-80204000D02*
X109330000Y-80204000D01*
X111930000Y-80204000D02*
X111930000Y-82864000D01*
%TO.C,J6*%
X61700000Y-80000000D02*
X61700000Y-78500000D01*
X60500000Y-69500000D02*
X61700000Y-69500000D01*
X58700000Y-77000000D02*
X58700000Y-71000000D01*
X61700000Y-68000000D02*
X72700000Y-68000000D01*
X61700000Y-72000000D02*
X58700000Y-72000000D01*
X61700000Y-78500000D02*
X60500000Y-78500000D01*
X58700000Y-71000000D02*
X60500000Y-71000000D01*
X61700000Y-69500000D02*
X61700000Y-68000000D01*
X72700000Y-80000000D02*
X61700000Y-80000000D01*
X61700000Y-76000000D02*
X61700000Y-72000000D01*
X58700000Y-76000000D02*
X61700000Y-76000000D01*
X60500000Y-77000000D02*
X58700000Y-77000000D01*
X72700000Y-68000000D02*
X72700000Y-80000000D01*
X60500000Y-71000000D02*
X60500000Y-69500000D01*
X60500000Y-78500000D02*
X60500000Y-77000000D01*
%TO.C,J4*%
X111650000Y-44670000D02*
X111650000Y-46000000D01*
X108990000Y-47270000D02*
X111650000Y-47270000D01*
X110320000Y-44670000D02*
X111650000Y-44670000D01*
X111650000Y-47270000D02*
X111650000Y-62570000D01*
X108990000Y-47270000D02*
X108990000Y-62570000D01*
X108990000Y-62570000D02*
X111650000Y-62570000D01*
%TO.C,J8*%
X121270000Y-47330000D02*
X159430000Y-47330000D01*
X121270000Y-47330000D02*
X121270000Y-44670000D01*
X118670000Y-47330000D02*
X118670000Y-46000000D01*
X159430000Y-47330000D02*
X159430000Y-44670000D01*
X121270000Y-44670000D02*
X159430000Y-44670000D01*
X120000000Y-47330000D02*
X118670000Y-47330000D01*
%TO.C,J3*%
X86250000Y-44670000D02*
X86250000Y-46000000D01*
X84920000Y-44670000D02*
X86250000Y-44670000D01*
X86250000Y-47270000D02*
X86250000Y-62570000D01*
X83590000Y-47270000D02*
X86250000Y-47270000D01*
X83590000Y-62570000D02*
X86250000Y-62570000D01*
X83590000Y-47270000D02*
X83590000Y-62570000D01*
D15*
%TO.C,SW1*%
X91200000Y-82800000D02*
X85200000Y-82800000D01*
X85200000Y-79800000D02*
X91200000Y-79800000D01*
D14*
%TO.C,C1*%
X105875000Y-76920000D02*
X105430000Y-76920000D01*
X108170000Y-76920000D02*
X107725000Y-76920000D01*
X105875000Y-70680000D02*
X105430000Y-70680000D01*
X105430000Y-70680000D02*
X105430000Y-76920000D01*
X108170000Y-70680000D02*
X107725000Y-70680000D01*
X108170000Y-70680000D02*
X108170000Y-76920000D01*
%TO.C,J14*%
X95095000Y-43995000D02*
X96425000Y-43995000D01*
X95095000Y-49195000D02*
X100295000Y-49195000D01*
X95095000Y-45325000D02*
X95095000Y-43995000D01*
X95095000Y-46595000D02*
X97695000Y-46595000D01*
X97695000Y-46595000D02*
X97695000Y-43995000D01*
X97695000Y-43995000D02*
X100295000Y-43995000D01*
X95095000Y-46595000D02*
X95095000Y-49195000D01*
X100295000Y-43995000D02*
X100295000Y-49195000D01*
%TO.C,R4*%
X82570000Y-60680000D02*
X82240000Y-60680000D01*
X82570000Y-54140000D02*
X82570000Y-60680000D01*
X79830000Y-60680000D02*
X80160000Y-60680000D01*
X82240000Y-54140000D02*
X82570000Y-54140000D01*
X80160000Y-54140000D02*
X79830000Y-54140000D01*
X79830000Y-54140000D02*
X79830000Y-60680000D01*
%TO.C,D1*%
X85780000Y-74820000D02*
X90020000Y-74820000D01*
X90670000Y-73700000D02*
X90020000Y-73700000D01*
X90020000Y-74820000D02*
X90020000Y-72580000D01*
X86380000Y-72580000D02*
X86380000Y-74820000D01*
X86500000Y-72580000D02*
X86500000Y-74820000D01*
X85780000Y-72580000D02*
X85780000Y-74820000D01*
X85130000Y-73700000D02*
X85780000Y-73700000D01*
X86620000Y-72580000D02*
X86620000Y-74820000D01*
X90020000Y-72580000D02*
X85780000Y-72580000D01*
%TO.C,J9*%
X120000000Y-52410000D02*
X118670000Y-52410000D01*
X121270000Y-52410000D02*
X159430000Y-52410000D01*
X121270000Y-49750000D02*
X159430000Y-49750000D01*
X121270000Y-52410000D02*
X121270000Y-49750000D01*
X159430000Y-52410000D02*
X159430000Y-49750000D01*
X118670000Y-52410000D02*
X118670000Y-51080000D01*
%TO.C,R2*%
X84640000Y-70840000D02*
X84640000Y-71170000D01*
X84640000Y-71170000D02*
X91180000Y-71170000D01*
X91180000Y-71170000D02*
X91180000Y-70840000D01*
X91180000Y-68430000D02*
X91180000Y-68760000D01*
X84640000Y-68430000D02*
X91180000Y-68430000D01*
X84640000Y-68760000D02*
X84640000Y-68430000D01*
%TO.C,J5*%
X58700000Y-51000000D02*
X60500000Y-51000000D01*
X61700000Y-52000000D02*
X58700000Y-52000000D01*
X60500000Y-57000000D02*
X58700000Y-57000000D01*
X61700000Y-58500000D02*
X60500000Y-58500000D01*
X61700000Y-60000000D02*
X61700000Y-58500000D01*
X58700000Y-57000000D02*
X58700000Y-51000000D01*
X61700000Y-48000000D02*
X72700000Y-48000000D01*
X72700000Y-60000000D02*
X61700000Y-60000000D01*
X60500000Y-49500000D02*
X61700000Y-49500000D01*
X72700000Y-48000000D02*
X72700000Y-60000000D01*
X61700000Y-49500000D02*
X61700000Y-48000000D01*
X61700000Y-56000000D02*
X61700000Y-52000000D01*
X60500000Y-58500000D02*
X60500000Y-57000000D01*
X58700000Y-56000000D02*
X61700000Y-56000000D01*
X60500000Y-51000000D02*
X60500000Y-49500000D01*
%TO.C,R3*%
X84630000Y-67170000D02*
X91170000Y-67170000D01*
X84630000Y-64760000D02*
X84630000Y-64430000D01*
X91170000Y-64430000D02*
X91170000Y-64760000D01*
X84630000Y-66840000D02*
X84630000Y-67170000D01*
X84630000Y-64430000D02*
X91170000Y-64430000D01*
X91170000Y-67170000D02*
X91170000Y-66840000D01*
%TO.C,J7*%
X116130000Y-54890000D02*
X118790000Y-54890000D01*
X116130000Y-52290000D02*
X117460000Y-52290000D01*
X118790000Y-54890000D02*
X118790000Y-80350000D01*
X116130000Y-80350000D02*
X118790000Y-80350000D01*
X116130000Y-54890000D02*
X116130000Y-80350000D01*
X116130000Y-53620000D02*
X116130000Y-52290000D01*
D12*
%TO.C,J2*%
X61001160Y-64500360D02*
X60500780Y-64500360D01*
X78999600Y-52498860D02*
X78999600Y-55501140D01*
X78499220Y-45000780D02*
X61499000Y-45000780D01*
X78999600Y-62498840D02*
X78999600Y-60499860D01*
X61001160Y-62498840D02*
X61499000Y-62498840D01*
X78499220Y-62999220D02*
X78999600Y-62498840D01*
X78499220Y-52001020D02*
X76500240Y-52001020D01*
X60500780Y-45000780D02*
X61001160Y-45000780D01*
X60249320Y-43499640D02*
X60249320Y-62999220D01*
X76500240Y-59499100D02*
X76500240Y-55998980D01*
X78999600Y-60499860D02*
X78999600Y-59999480D01*
X78499220Y-48500900D02*
X76500240Y-48500900D01*
X60500780Y-43499640D02*
X60500780Y-45000780D01*
X78999600Y-52498860D02*
X78499220Y-52001020D01*
X78999600Y-48000520D02*
X78499220Y-48500900D01*
X60500780Y-62999220D02*
X60500780Y-45000780D01*
X78999600Y-59999480D02*
X78499220Y-59499100D01*
X60749700Y-45000780D02*
X60749700Y-64500360D01*
X60500780Y-64500360D02*
X60500780Y-62999220D01*
X78499220Y-45000780D02*
X78999600Y-45501160D01*
X78999600Y-55501140D02*
X78499220Y-55998980D01*
X78499220Y-62999220D02*
X61499000Y-62999220D01*
X61001160Y-45000780D02*
X61001160Y-64500360D01*
X60500780Y-62999220D02*
X60000400Y-62999220D01*
X61499000Y-45000780D02*
X61499000Y-45501160D01*
X61499000Y-45501160D02*
X61001160Y-45501160D01*
X61499000Y-62999220D02*
X61499000Y-62498840D01*
X78499220Y-55998980D02*
X76500240Y-55998980D01*
X60000400Y-43499640D02*
X60500780Y-43499640D01*
X78499220Y-59499100D02*
X76500240Y-59499100D01*
X60000400Y-62999220D02*
X60000400Y-43499640D01*
X78999600Y-45501160D02*
X78999600Y-48000520D01*
X76500240Y-48500900D02*
X76500240Y-52001020D01*
D14*
%TO.C,J10*%
X121270000Y-49870000D02*
X159430000Y-49870000D01*
X118670000Y-49870000D02*
X118670000Y-48540000D01*
X159430000Y-49870000D02*
X159430000Y-47210000D01*
X121270000Y-49870000D02*
X121270000Y-47210000D01*
X120000000Y-49870000D02*
X118670000Y-49870000D01*
X121270000Y-47210000D02*
X159430000Y-47210000D01*
%TD*%
D16*
%TO.C,J1*%
X62502300Y-68998740D03*
X62502300Y-79001260D03*
X72497200Y-81498080D03*
X72499740Y-74000000D03*
X72497200Y-66501920D03*
X74999100Y-78996180D03*
X74999100Y-69003820D03*
%TD*%
%TO.C,J2*%
X62502300Y-48998740D03*
X62502300Y-59001260D03*
X72497200Y-61498080D03*
X72499740Y-54000000D03*
X72497200Y-46501920D03*
X74999100Y-58996180D03*
X74999100Y-49003820D03*
%TD*%
M02*
