%TF.GenerationSoftware,KiCad,Pcbnew,(6.0.5)*%
%TF.CreationDate,2023-03-15T21:31:39+00:00*%
%TF.ProjectId,XiaoMIDIInterface,5869616f-4d49-4444-9949-6e7465726661,rev?*%
%TF.SameCoordinates,Original*%
%TF.FileFunction,Soldermask,Top*%
%TF.FilePolarity,Negative*%
%FSLAX46Y46*%
G04 Gerber Fmt 4.6, Leading zero omitted, Abs format (unit mm)*
G04 Created by KiCad (PCBNEW (6.0.5)) date 2023-03-15 21:31:39*
%MOMM*%
%LPD*%
G01*
G04 APERTURE LIST*
%ADD10C,1.700000*%
%ADD11R,1.700000X1.700000*%
%ADD12O,1.700000X1.700000*%
%ADD13R,1.600000X1.600000*%
%ADD14O,1.600000X1.600000*%
%ADD15C,2.499360*%
%ADD16C,1.600000*%
%ADD17O,2.200000X1.200000*%
%ADD18O,1.200000X2.200000*%
%ADD19C,2.250000*%
G04 APERTURE END LIST*
D10*
%TO.C,*%
X153020000Y-71348000D03*
%TD*%
%TO.C,*%
X127594600Y-66294000D03*
%TD*%
%TO.C,*%
X147940000Y-53568000D03*
%TD*%
%TO.C,*%
X153020000Y-81508000D03*
%TD*%
%TO.C,*%
X135240000Y-73914000D03*
%TD*%
D11*
%TO.C,J15*%
X96800000Y-81500000D03*
D12*
X99340000Y-81500000D03*
X101880000Y-81500000D03*
%TD*%
D11*
%TO.C,J13*%
X105240000Y-46000000D03*
D12*
X105240000Y-48540000D03*
X105240000Y-51080000D03*
X105240000Y-53620000D03*
X105240000Y-56160000D03*
X105240000Y-58700000D03*
X105240000Y-61240000D03*
%TD*%
D11*
%TO.C,J12*%
X90000000Y-46000000D03*
D12*
X90000000Y-48540000D03*
X90000000Y-51080000D03*
X90000000Y-53620000D03*
X90000000Y-56160000D03*
X90000000Y-58700000D03*
X90000000Y-61240000D03*
%TD*%
D10*
%TO.C,*%
X155560000Y-61188000D03*
%TD*%
%TO.C,*%
X147940000Y-78968000D03*
%TD*%
%TO.C,*%
X140320000Y-71348000D03*
%TD*%
%TO.C,*%
X130160000Y-71374000D03*
%TD*%
%TO.C,*%
X122540000Y-53620000D03*
%TD*%
%TO.C,*%
X150480000Y-56108000D03*
%TD*%
%TO.C,*%
X153020000Y-61188000D03*
%TD*%
%TO.C,*%
X145400000Y-56108000D03*
%TD*%
%TO.C,*%
X122514600Y-66294000D03*
%TD*%
%TO.C,*%
X120000000Y-61214000D03*
%TD*%
%TO.C,*%
X153020000Y-73888000D03*
%TD*%
%TO.C,*%
X150480000Y-78968000D03*
%TD*%
%TO.C,*%
X120000000Y-63754000D03*
%TD*%
%TO.C,*%
X122540000Y-81534000D03*
%TD*%
%TO.C,*%
X127620000Y-71374000D03*
%TD*%
%TO.C,*%
X122540000Y-56134000D03*
%TD*%
%TO.C,*%
X137780000Y-53594000D03*
%TD*%
D13*
%TO.C,U1*%
X95514000Y-71364000D03*
D14*
X95514000Y-73904000D03*
X95514000Y-76444000D03*
X103134000Y-76444000D03*
X103134000Y-73904000D03*
X103134000Y-71364000D03*
%TD*%
D10*
%TO.C,*%
X135240000Y-63754000D03*
%TD*%
%TO.C,*%
X137780000Y-63754000D03*
%TD*%
%TO.C,*%
X158100000Y-68808000D03*
%TD*%
%TO.C,*%
X147940000Y-73888000D03*
%TD*%
D15*
%TO.C,J1*%
X62502300Y-68998740D03*
X62502300Y-79001260D03*
X72497200Y-81498080D03*
X72499740Y-74000000D03*
X72497200Y-66501920D03*
X74999100Y-78996180D03*
X74999100Y-69003820D03*
%TD*%
D10*
%TO.C,*%
X150480000Y-68808000D03*
%TD*%
%TO.C,*%
X145400000Y-63728000D03*
%TD*%
%TO.C,*%
X130160000Y-53594000D03*
%TD*%
%TO.C,*%
X127620000Y-58674000D03*
%TD*%
%TO.C,*%
X137780000Y-56134000D03*
%TD*%
%TO.C,*%
X153020000Y-76428000D03*
%TD*%
%TO.C,*%
X142860000Y-81508000D03*
%TD*%
%TO.C,*%
X147940000Y-71348000D03*
%TD*%
%TO.C,*%
X142860000Y-58648000D03*
%TD*%
%TO.C,*%
X130160000Y-56134000D03*
%TD*%
%TO.C,*%
X140320000Y-76428000D03*
%TD*%
%TO.C,*%
X120000000Y-68834000D03*
%TD*%
%TO.C,*%
X140320000Y-63728000D03*
%TD*%
%TO.C,*%
X142860000Y-53594000D03*
%TD*%
%TO.C,*%
X127620000Y-61214000D03*
%TD*%
%TO.C,*%
X122540000Y-71374000D03*
%TD*%
%TO.C,*%
X125080000Y-71374000D03*
%TD*%
D16*
%TO.C,R1*%
X84100000Y-77200000D03*
D14*
X91720000Y-77200000D03*
%TD*%
D10*
%TO.C,*%
X132700000Y-71374000D03*
%TD*%
%TO.C,*%
X125080000Y-68834000D03*
%TD*%
D11*
%TO.C,J11*%
X113200000Y-81534000D03*
D12*
X110660000Y-81530000D03*
%TD*%
D10*
%TO.C,*%
X135240000Y-78994000D03*
%TD*%
%TO.C,*%
X155560000Y-81508000D03*
%TD*%
%TO.C,*%
X135240000Y-68834000D03*
%TD*%
%TO.C,*%
X127620000Y-76454000D03*
%TD*%
%TO.C,*%
X158100000Y-56108000D03*
%TD*%
%TO.C,*%
X132700000Y-53594000D03*
%TD*%
%TO.C,*%
X147940000Y-58648000D03*
%TD*%
%TO.C,*%
X120000000Y-78994000D03*
%TD*%
%TO.C,*%
X135240000Y-71374000D03*
%TD*%
%TO.C,*%
X137754600Y-66294000D03*
%TD*%
%TO.C,*%
X153020000Y-58648000D03*
%TD*%
%TO.C,*%
X158100000Y-81508000D03*
%TD*%
%TO.C,*%
X137780000Y-81534000D03*
%TD*%
%TO.C,*%
X135240000Y-81534000D03*
%TD*%
%TO.C,*%
X122540000Y-78994000D03*
%TD*%
%TO.C,*%
X135214600Y-66294000D03*
%TD*%
%TO.C,*%
X155534600Y-66268000D03*
%TD*%
%TO.C,*%
X125080000Y-58674000D03*
%TD*%
%TO.C,*%
X140320000Y-81508000D03*
%TD*%
%TO.C,*%
X150480000Y-61188000D03*
%TD*%
%TO.C,*%
X122540000Y-73914000D03*
%TD*%
%TO.C,*%
X155560000Y-76428000D03*
%TD*%
%TO.C,*%
X132700000Y-78994000D03*
%TD*%
%TO.C,*%
X130160000Y-73914000D03*
%TD*%
%TO.C,*%
X132674600Y-66294000D03*
%TD*%
%TO.C,*%
X150480000Y-71348000D03*
%TD*%
%TO.C,*%
X145374600Y-66268000D03*
%TD*%
%TO.C,*%
X132700000Y-81534000D03*
%TD*%
%TO.C,*%
X150480000Y-73888000D03*
%TD*%
D17*
%TO.C,J6*%
X70000000Y-69000000D03*
X70000000Y-71500000D03*
D18*
X65000000Y-74000000D03*
D17*
X70000000Y-79000000D03*
X70000000Y-76500000D03*
%TD*%
D10*
%TO.C,*%
X120000000Y-58674000D03*
%TD*%
%TO.C,*%
X132700000Y-56134000D03*
%TD*%
%TO.C,*%
X145400000Y-73888000D03*
%TD*%
%TO.C,*%
X158100000Y-63728000D03*
%TD*%
%TO.C,*%
X145400000Y-53568000D03*
%TD*%
%TO.C,*%
X155560000Y-56108000D03*
%TD*%
D11*
%TO.C,J4*%
X110320000Y-46000000D03*
D12*
X110320000Y-48540000D03*
X110320000Y-51080000D03*
X110320000Y-53620000D03*
X110320000Y-56160000D03*
X110320000Y-58700000D03*
X110320000Y-61240000D03*
%TD*%
D10*
%TO.C,*%
X147940000Y-68808000D03*
%TD*%
%TO.C,*%
X122540000Y-76454000D03*
%TD*%
%TO.C,*%
X130134600Y-66294000D03*
%TD*%
%TO.C,*%
X140320000Y-58648000D03*
%TD*%
%TO.C,*%
X142860000Y-76428000D03*
%TD*%
%TO.C,*%
X142860000Y-68808000D03*
%TD*%
D11*
%TO.C,J8*%
X120000000Y-46000000D03*
D12*
X122540000Y-46000000D03*
X125080000Y-46000000D03*
X127620000Y-46000000D03*
X130160000Y-46000000D03*
X132700000Y-46000000D03*
X135240000Y-46000000D03*
X137780000Y-46000000D03*
X140320000Y-46000000D03*
X142860000Y-46000000D03*
X145400000Y-46000000D03*
X147940000Y-46000000D03*
X150480000Y-46000000D03*
X153020000Y-46000000D03*
X155560000Y-46000000D03*
X158100000Y-46000000D03*
%TD*%
D10*
%TO.C,*%
X127620000Y-73914000D03*
%TD*%
D11*
%TO.C,J3*%
X84920000Y-46000000D03*
D12*
X84920000Y-48540000D03*
X84920000Y-51080000D03*
X84920000Y-53620000D03*
X84920000Y-56160000D03*
X84920000Y-58700000D03*
X84920000Y-61240000D03*
%TD*%
D10*
%TO.C,*%
X145400000Y-76428000D03*
%TD*%
%TO.C,*%
X142860000Y-63728000D03*
%TD*%
D19*
%TO.C,SW1*%
X91450000Y-81300000D03*
X84950000Y-81300000D03*
%TD*%
D16*
%TO.C,C1*%
X106800000Y-71300000D03*
X106800000Y-76300000D03*
%TD*%
D10*
%TO.C,*%
X137780000Y-73914000D03*
%TD*%
%TO.C,*%
X140320000Y-68808000D03*
%TD*%
%TO.C,*%
X120000000Y-73914000D03*
%TD*%
%TO.C,*%
X145400000Y-71348000D03*
%TD*%
%TO.C,*%
X127620000Y-78994000D03*
%TD*%
%TO.C,*%
X125080000Y-78994000D03*
%TD*%
%TO.C,*%
X150480000Y-63728000D03*
%TD*%
%TO.C,*%
X132700000Y-61214000D03*
%TD*%
%TO.C,*%
X155560000Y-71348000D03*
%TD*%
%TO.C,*%
X145400000Y-68808000D03*
%TD*%
%TO.C,*%
X155560000Y-53568000D03*
%TD*%
%TO.C,*%
X158100000Y-58648000D03*
%TD*%
%TO.C,*%
X158100000Y-71348000D03*
%TD*%
D11*
%TO.C,J14*%
X96425000Y-45325000D03*
D12*
X98965000Y-45325000D03*
X96425000Y-47865000D03*
X98965000Y-47865000D03*
%TD*%
D10*
%TO.C,*%
X130160000Y-61214000D03*
%TD*%
D16*
%TO.C,R4*%
X81200000Y-53600000D03*
D14*
X81200000Y-61220000D03*
%TD*%
D10*
%TO.C,*%
X155560000Y-63728000D03*
%TD*%
D13*
%TO.C,D1*%
X84090000Y-73700000D03*
D14*
X91710000Y-73700000D03*
%TD*%
D10*
%TO.C,*%
X147940000Y-61188000D03*
%TD*%
%TO.C,*%
X140320000Y-56108000D03*
%TD*%
%TO.C,*%
X120000000Y-53620000D03*
%TD*%
%TO.C,*%
X158100000Y-73888000D03*
%TD*%
%TO.C,*%
X119974600Y-66294000D03*
%TD*%
%TO.C,*%
X145400000Y-78968000D03*
%TD*%
%TO.C,*%
X125054600Y-66294000D03*
%TD*%
%TO.C,*%
X147940000Y-63728000D03*
%TD*%
%TO.C,*%
X132700000Y-68834000D03*
%TD*%
D11*
%TO.C,J9*%
X120000000Y-51080000D03*
D12*
X122540000Y-51080000D03*
X125080000Y-51080000D03*
X127620000Y-51080000D03*
X130160000Y-51080000D03*
X132700000Y-51080000D03*
X135240000Y-51080000D03*
X137780000Y-51080000D03*
X140320000Y-51080000D03*
X142860000Y-51080000D03*
X145400000Y-51080000D03*
X147940000Y-51080000D03*
X150480000Y-51080000D03*
X153020000Y-51080000D03*
X155560000Y-51080000D03*
X158100000Y-51080000D03*
%TD*%
D10*
%TO.C,*%
X142860000Y-78968000D03*
%TD*%
%TO.C,*%
X150480000Y-53568000D03*
%TD*%
%TO.C,*%
X150480000Y-76428000D03*
%TD*%
%TO.C,*%
X122540000Y-63754000D03*
%TD*%
%TO.C,*%
X147940000Y-81508000D03*
%TD*%
%TO.C,*%
X137780000Y-76454000D03*
%TD*%
%TO.C,*%
X153020000Y-53568000D03*
%TD*%
%TO.C,*%
X147914600Y-66268000D03*
%TD*%
%TO.C,*%
X150480000Y-81508000D03*
%TD*%
%TO.C,*%
X120000000Y-76454000D03*
%TD*%
%TO.C,*%
X155560000Y-78968000D03*
%TD*%
%TO.C,*%
X155560000Y-73888000D03*
%TD*%
D16*
%TO.C,R2*%
X84100000Y-69800000D03*
D14*
X91720000Y-69800000D03*
%TD*%
D10*
%TO.C,*%
X158100000Y-53568000D03*
%TD*%
%TO.C,*%
X155560000Y-68808000D03*
%TD*%
%TO.C,*%
X137780000Y-68834000D03*
%TD*%
%TO.C,*%
X132700000Y-73914000D03*
%TD*%
%TO.C,*%
X137780000Y-71374000D03*
%TD*%
%TO.C,*%
X140320000Y-73888000D03*
%TD*%
%TO.C,*%
X147940000Y-56108000D03*
%TD*%
%TO.C,*%
X150454600Y-66268000D03*
%TD*%
%TO.C,*%
X132700000Y-76454000D03*
%TD*%
%TO.C,*%
X142860000Y-61188000D03*
%TD*%
D17*
%TO.C,J5*%
X70000000Y-49000000D03*
X70000000Y-51500000D03*
D18*
X65000000Y-54000000D03*
D17*
X70000000Y-59000000D03*
X70000000Y-56500000D03*
%TD*%
D10*
%TO.C,*%
X125080000Y-61214000D03*
%TD*%
%TO.C,*%
X158100000Y-76428000D03*
%TD*%
%TO.C,*%
X140320000Y-61188000D03*
%TD*%
%TO.C,*%
X127620000Y-56134000D03*
%TD*%
%TO.C,*%
X153020000Y-63728000D03*
%TD*%
%TO.C,*%
X130160000Y-81534000D03*
%TD*%
%TO.C,*%
X137780000Y-58674000D03*
%TD*%
%TO.C,*%
X135240000Y-56134000D03*
%TD*%
%TO.C,*%
X158100000Y-78968000D03*
%TD*%
%TO.C,*%
X130160000Y-76454000D03*
%TD*%
%TO.C,*%
X137780000Y-61214000D03*
%TD*%
D16*
%TO.C,R3*%
X84090000Y-65800000D03*
D14*
X91710000Y-65800000D03*
%TD*%
D10*
%TO.C,*%
X130160000Y-63754000D03*
%TD*%
D11*
%TO.C,J7*%
X117460000Y-53620000D03*
D12*
X117460000Y-56160000D03*
X117460000Y-58700000D03*
X117460000Y-61240000D03*
X117460000Y-63780000D03*
X117460000Y-66320000D03*
X117460000Y-68860000D03*
X117460000Y-71400000D03*
X117460000Y-73940000D03*
X117460000Y-76480000D03*
X117460000Y-79020000D03*
%TD*%
D10*
%TO.C,*%
X153020000Y-56108000D03*
%TD*%
%TO.C,*%
X125080000Y-73914000D03*
%TD*%
%TO.C,*%
X127620000Y-68834000D03*
%TD*%
%TO.C,*%
X142834600Y-66268000D03*
%TD*%
%TO.C,*%
X153020000Y-68808000D03*
%TD*%
%TO.C,*%
X120000000Y-81534000D03*
%TD*%
%TO.C,*%
X158100000Y-61188000D03*
%TD*%
%TO.C,*%
X125080000Y-81534000D03*
%TD*%
%TO.C,*%
X120000000Y-71374000D03*
%TD*%
%TO.C,*%
X127620000Y-81534000D03*
%TD*%
%TO.C,*%
X135240000Y-61214000D03*
%TD*%
%TO.C,*%
X130160000Y-78994000D03*
%TD*%
%TO.C,*%
X140294600Y-66268000D03*
%TD*%
%TO.C,*%
X125080000Y-56134000D03*
%TD*%
%TO.C,*%
X147940000Y-76428000D03*
%TD*%
%TO.C,*%
X127620000Y-53594000D03*
%TD*%
%TO.C,*%
X122540000Y-68834000D03*
%TD*%
%TO.C,*%
X125080000Y-63754000D03*
%TD*%
%TO.C,*%
X130160000Y-68834000D03*
%TD*%
%TO.C,*%
X145400000Y-61188000D03*
%TD*%
%TO.C,*%
X142860000Y-56108000D03*
%TD*%
%TO.C,*%
X142860000Y-71348000D03*
%TD*%
%TO.C,*%
X150480000Y-58648000D03*
%TD*%
%TO.C,*%
X120000000Y-56134000D03*
%TD*%
%TO.C,*%
X127620000Y-63754000D03*
%TD*%
D15*
%TO.C,J2*%
X62502300Y-48998740D03*
X62502300Y-59001260D03*
X72497200Y-61498080D03*
X72499740Y-54000000D03*
X72497200Y-46501920D03*
X74999100Y-58996180D03*
X74999100Y-49003820D03*
%TD*%
D10*
%TO.C,*%
X135240000Y-53594000D03*
%TD*%
%TO.C,*%
X140320000Y-53594000D03*
%TD*%
%TO.C,*%
X132700000Y-63754000D03*
%TD*%
%TO.C,*%
X130160000Y-58674000D03*
%TD*%
%TO.C,*%
X155560000Y-58648000D03*
%TD*%
%TO.C,*%
X140320000Y-78968000D03*
%TD*%
%TO.C,*%
X125080000Y-53594000D03*
%TD*%
%TO.C,*%
X137780000Y-78994000D03*
%TD*%
%TO.C,*%
X145400000Y-81508000D03*
%TD*%
%TO.C,*%
X153020000Y-78968000D03*
%TD*%
%TO.C,*%
X122540000Y-61214000D03*
%TD*%
%TO.C,*%
X158074600Y-66268000D03*
%TD*%
%TO.C,*%
X132700000Y-58674000D03*
%TD*%
%TO.C,*%
X125080000Y-76454000D03*
%TD*%
%TO.C,*%
X145400000Y-58648000D03*
%TD*%
%TO.C,*%
X142860000Y-73888000D03*
%TD*%
D11*
%TO.C,J10*%
X120000000Y-48540000D03*
D12*
X122540000Y-48540000D03*
X125080000Y-48540000D03*
X127620000Y-48540000D03*
X130160000Y-48540000D03*
X132700000Y-48540000D03*
X135240000Y-48540000D03*
X137780000Y-48540000D03*
X140320000Y-48540000D03*
X142860000Y-48540000D03*
X145400000Y-48540000D03*
X147940000Y-48540000D03*
X150480000Y-48540000D03*
X153020000Y-48540000D03*
X155560000Y-48540000D03*
X158100000Y-48540000D03*
%TD*%
D10*
%TO.C,*%
X135240000Y-58674000D03*
%TD*%
%TO.C,*%
X135240000Y-76454000D03*
%TD*%
%TO.C,*%
X122540000Y-58674000D03*
%TD*%
%TO.C,*%
X152994600Y-66268000D03*
%TD*%
M02*
