M48
; DRILL file {KiCad (6.0.5)} date Wed Jul 27 19:44:22 2022
; FORMAT={-:-/ absolute / inch / decimal}
; #@! TF.CreationDate,2022-07-27T19:44:22+01:00
; #@! TF.GenerationSoftware,Kicad,Pcbnew,(6.0.5)
; #@! TF.FileFunction,MixedPlating,1,2
FMAT,2
INCH
; #@! TA.AperFunction,Plated,PTH,ComponentDrill
T1C0.0315
; #@! TA.AperFunction,Plated,PTH,ComponentDrill
T2C0.0394
; #@! TA.AperFunction,Plated,PTH,ComponentDrill
T3C0.0433
; #@! TA.AperFunction,Plated,PTH,ComponentDrill
T4C0.0550
; #@! TA.AperFunction,Plated,PTH,ComponentDrill
T5C0.1024
; #@! TA.AperFunction,NonPlated,NPTH,ComponentDrill
T6C0.0550
; #@! TA.AperFunction,NonPlated,NPTH,ComponentDrill
T7C0.1063
%
G90
G05
T1
X8.694Y-4.2971
X8.694Y-4.4939
X8.734Y-4.7671
X8.734Y-4.9639
X8.904Y-4.5855
X8.9136Y-4.7559
X8.9136Y-4.8559
X8.9136Y-4.9559
X9.204Y-4.5855
X9.2136Y-4.7559
X9.2136Y-4.8559
X9.2136Y-4.9559
X9.384Y-4.6555
X9.384Y-4.9555
X9.544Y-4.6555
X9.544Y-4.9555
X9.704Y-4.6571
X9.704Y-4.8539
X9.844Y-4.6571
X9.844Y-4.8539
X9.974Y-4.6571
X9.974Y-4.8539
X10.094Y-4.5371
X10.094Y-4.7339
X10.204Y-4.5371
X10.204Y-4.7339
T2
X7.9935Y-4.0623
X8.0935Y-4.0623
X8.1935Y-4.0623
X8.2035Y-3.7886
X8.2035Y-3.8886
X8.2935Y-4.0623
X8.3035Y-3.7886
X8.3035Y-3.8886
X8.3935Y-4.0623
X8.4035Y-3.7886
X8.4035Y-3.8886
X8.4935Y-4.0623
X8.5035Y-3.7886
X8.5035Y-3.8886
X8.5185Y-4.3123
X8.5185Y-4.4123
X8.5185Y-4.5123
X8.5185Y-4.6123
X8.5185Y-4.7123
X8.5185Y-4.8123
X8.5185Y-4.9123
X8.5185Y-5.0123
X8.5185Y-5.1123
X8.6035Y-3.7886
X8.6035Y-3.8886
X8.7035Y-3.7886
X8.7035Y-3.8886
X8.8035Y-3.7886
X8.8035Y-3.8886
X8.9035Y-3.7886
X8.9035Y-3.8886
X8.925Y-4.0959
X8.925Y-4.1959
X8.925Y-4.2959
X8.925Y-4.3959
X9.0035Y-3.7886
X9.0035Y-3.8886
X9.1035Y-3.7886
X9.1035Y-3.8886
X9.2035Y-3.7886
X9.2035Y-3.8886
X9.3035Y-3.7886
X9.3035Y-3.8886
X9.4035Y-3.7886
X9.4035Y-3.8886
X9.5035Y-3.7886
X9.5035Y-3.8886
X9.6035Y-3.7886
X9.6035Y-3.8886
X9.7035Y-3.7886
X9.7035Y-3.8886
X9.8035Y-3.7886
X9.8035Y-3.8886
X9.9035Y-3.7886
X9.9035Y-3.8886
X9.9056Y-5.0501
X9.9056Y-5.6209
X10.0035Y-3.7886
X10.0035Y-3.8886
X10.004Y-5.0501
X10.1024Y-5.0501
X10.1024Y-5.6209
X10.1035Y-3.7886
X10.1035Y-3.8886
X10.344Y-4.5657
X10.344Y-4.6657
X10.344Y-4.8257
X10.344Y-4.9257
T3
X7.9761Y-5.3969
X7.9761Y-5.5741
X8.232Y-5.3969
X8.232Y-5.5741
X8.4061Y-5.3969
X8.4061Y-5.5741
X8.662Y-5.3969
X8.662Y-5.5741
T4
X8.8588Y-5.4075
X8.9573Y-5.309
X9.154Y-5.4074
X9.3507Y-5.309
X9.4492Y-5.4075
T5
X9.7835Y-5.3454
X10.2245Y-5.3454
T6
X8.9571Y-5.801
X9.3509Y-5.801
T7
X8.0118Y-3.8386
X8.0118Y-5.7677
X10.2953Y-3.8386
X10.2953Y-5.7677
T0
M30
