%TF.GenerationSoftware,KiCad,Pcbnew,(6.0.5)*%
%TF.CreationDate,2022-11-11T16:19:05+00:00*%
%TF.ProjectId,NanoMozziExperimentShield,4e616e6f-4d6f-47a7-9a69-457870657269,rev?*%
%TF.SameCoordinates,Original*%
%TF.FileFunction,Copper,L1,Top*%
%TF.FilePolarity,Positive*%
%FSLAX46Y46*%
G04 Gerber Fmt 4.6, Leading zero omitted, Abs format (unit mm)*
G04 Created by KiCad (PCBNEW (6.0.5)) date 2022-11-11 16:19:05*
%MOMM*%
%LPD*%
G01*
G04 APERTURE LIST*
G04 Aperture macros list*
%AMRoundRect*
0 Rectangle with rounded corners*
0 $1 Rounding radius*
0 $2 $3 $4 $5 $6 $7 $8 $9 X,Y pos of 4 corners*
0 Add a 4 corners polygon primitive as box body*
4,1,4,$2,$3,$4,$5,$6,$7,$8,$9,$2,$3,0*
0 Add four circle primitives for the rounded corners*
1,1,$1+$1,$2,$3*
1,1,$1+$1,$4,$5*
1,1,$1+$1,$6,$7*
1,1,$1+$1,$8,$9*
0 Add four rect primitives between the rounded corners*
20,1,$1+$1,$2,$3,$4,$5,0*
20,1,$1+$1,$4,$5,$6,$7,0*
20,1,$1+$1,$6,$7,$8,$9,0*
20,1,$1+$1,$8,$9,$2,$3,0*%
G04 Aperture macros list end*
%TA.AperFunction,ComponentPad*%
%ADD10R,1.600000X1.600000*%
%TD*%
%TA.AperFunction,ComponentPad*%
%ADD11O,1.600000X1.600000*%
%TD*%
%TA.AperFunction,WasherPad*%
%ADD12R,4.000000X2.500000*%
%TD*%
%TA.AperFunction,ComponentPad*%
%ADD13C,2.499360*%
%TD*%
%TA.AperFunction,ComponentPad*%
%ADD14R,1.700000X1.700000*%
%TD*%
%TA.AperFunction,ComponentPad*%
%ADD15O,1.700000X1.700000*%
%TD*%
%TA.AperFunction,ComponentPad*%
%ADD16C,1.600000*%
%TD*%
%TA.AperFunction,ComponentPad*%
%ADD17R,1.800000X1.800000*%
%TD*%
%TA.AperFunction,ComponentPad*%
%ADD18C,1.800000*%
%TD*%
%TA.AperFunction,ComponentPad*%
%ADD19RoundRect,0.750000X-0.750000X1.250000X-0.750000X-1.250000X0.750000X-1.250000X0.750000X1.250000X0*%
%TD*%
%TA.AperFunction,ComponentPad*%
%ADD20R,3.500000X3.500000*%
%TD*%
%TA.AperFunction,ComponentPad*%
%ADD21RoundRect,0.750000X-0.750000X-1.000000X0.750000X-1.000000X0.750000X1.000000X-0.750000X1.000000X0*%
%TD*%
%TA.AperFunction,ComponentPad*%
%ADD22RoundRect,0.875000X-0.875000X-0.875000X0.875000X-0.875000X0.875000X0.875000X-0.875000X0.875000X0*%
%TD*%
%TA.AperFunction,ComponentPad*%
%ADD23O,2.200000X1.200000*%
%TD*%
%TA.AperFunction,ComponentPad*%
%ADD24O,1.200000X2.200000*%
%TD*%
%TA.AperFunction,Conductor*%
%ADD25C,0.600000*%
%TD*%
%TA.AperFunction,Conductor*%
%ADD26C,0.800000*%
%TD*%
G04 APERTURE END LIST*
D10*
%TO.P,U1,1,NC*%
%TO.N,unconnected-(U1-Pad1)*%
X72370000Y-72000000D03*
D11*
%TO.P,U1,2,C1*%
%TO.N,Net-(D1-Pad1)*%
X72370000Y-74540000D03*
%TO.P,U1,3,C2*%
%TO.N,Net-(D1-Pad2)*%
X72370000Y-77080000D03*
%TO.P,U1,4,NC*%
%TO.N,unconnected-(U1-Pad4)*%
X72370000Y-79620000D03*
%TO.P,U1,5,GND*%
%TO.N,GND*%
X79990000Y-79620000D03*
%TO.P,U1,6,VO2*%
%TO.N,Net-(J2-Pad2)*%
X79990000Y-77080000D03*
%TO.P,U1,7,VO1*%
%TO.N,Net-(R4-Pad1)*%
X79990000Y-74540000D03*
%TO.P,U1,8,VCC*%
%TO.N,+5V*%
X79990000Y-72000000D03*
%TD*%
D12*
%TO.P,OUT1,*%
%TO.N,*%
X53302300Y-88498740D03*
X53302300Y-98501260D03*
D13*
%TO.P,OUT1,1*%
%TO.N,unconnected-(OUT1-Pad1)*%
X62497200Y-100998080D03*
%TO.P,OUT1,2*%
%TO.N,GND*%
X62499740Y-93500000D03*
%TO.P,OUT1,3*%
%TO.N,unconnected-(OUT1-Pad3)*%
X62497200Y-86001920D03*
%TO.P,OUT1,4*%
%TO.N,Net-(OUT1-Pad4)*%
X64999100Y-98496180D03*
%TO.P,OUT1,5*%
%TO.N,Net-(OUT1-Pad5)*%
X64999100Y-88503820D03*
%TD*%
D14*
%TO.P,J1,1,Pin_1*%
%TO.N,unconnected-(J1-Pad1)*%
X73500000Y-103000000D03*
D15*
%TO.P,J1,2,Pin_2*%
%TO.N,Net-(J1-Pad2)*%
X76040000Y-103000000D03*
%TO.P,J1,3,Pin_3*%
%TO.N,/D1*%
X78580000Y-103000000D03*
%TD*%
D16*
%TO.P,R7,1*%
%TO.N,GND*%
X104370000Y-57360000D03*
D11*
%TO.P,R7,2*%
%TO.N,Net-(C2-Pad1)*%
X111990000Y-57360000D03*
%TD*%
D16*
%TO.P,R1,1*%
%TO.N,+5V*%
X80000000Y-94500000D03*
D11*
%TO.P,R1,2*%
%TO.N,Net-(OUT1-Pad4)*%
X72380000Y-94500000D03*
%TD*%
D10*
%TO.P,C3,1*%
%TO.N,Net-(C2-Pad1)*%
X121500000Y-54322375D03*
D16*
%TO.P,C3,2*%
%TO.N,Net-(C3-Pad2)*%
X121500000Y-56822375D03*
%TD*%
D17*
%TO.P,RV4,1,1*%
%TO.N,+5V*%
X114000000Y-70000000D03*
D18*
%TO.P,RV4,2,2*%
%TO.N,/A3*%
X111500000Y-70000000D03*
%TO.P,RV4,3,3*%
%TO.N,GND*%
X109000000Y-70000000D03*
D19*
%TO.P,RV4,MP*%
%TO.N,N/C*%
X115900000Y-77000000D03*
X107100000Y-77000000D03*
%TD*%
D16*
%TO.P,R3,1*%
%TO.N,Net-(IN1-Pad4)*%
X72370000Y-64500000D03*
D11*
%TO.P,R3,2*%
%TO.N,Net-(D1-Pad1)*%
X79990000Y-64500000D03*
%TD*%
D16*
%TO.P,C5,1*%
%TO.N,VCC*%
X79260000Y-57510000D03*
%TO.P,C5,2*%
%TO.N,GND*%
X74260000Y-57510000D03*
%TD*%
D17*
%TO.P,RV1,1,1*%
%TO.N,+5V*%
X114000000Y-90000000D03*
D18*
%TO.P,RV1,2,2*%
%TO.N,/A0*%
X111500000Y-90000000D03*
%TO.P,RV1,3,3*%
%TO.N,GND*%
X109000000Y-90000000D03*
D19*
%TO.P,RV1,MP*%
%TO.N,N/C*%
X115900000Y-97000000D03*
X107100000Y-97000000D03*
%TD*%
D10*
%TO.P,C4,1*%
%TO.N,VCC*%
X67470000Y-53567349D03*
D16*
%TO.P,C4,2*%
%TO.N,GND*%
X67470000Y-57067349D03*
%TD*%
D12*
%TO.P,IN1,*%
%TO.N,*%
X53302300Y-68498740D03*
X53302300Y-78501260D03*
D13*
%TO.P,IN1,1*%
%TO.N,unconnected-(IN1-Pad1)*%
X62497200Y-80998080D03*
%TO.P,IN1,2*%
%TO.N,unconnected-(IN1-Pad2)*%
X62499740Y-73500000D03*
%TO.P,IN1,3*%
%TO.N,unconnected-(IN1-Pad3)*%
X62497200Y-66001920D03*
%TO.P,IN1,4*%
%TO.N,Net-(IN1-Pad4)*%
X64999100Y-78496180D03*
%TO.P,IN1,5*%
%TO.N,Net-(D1-Pad2)*%
X64999100Y-68503820D03*
%TD*%
D17*
%TO.P,RV2,1,1*%
%TO.N,+5V*%
X129000000Y-90000000D03*
D18*
%TO.P,RV2,2,2*%
%TO.N,/A1*%
X126500000Y-90000000D03*
%TO.P,RV2,3,3*%
%TO.N,GND*%
X124000000Y-90000000D03*
D19*
%TO.P,RV2,MP*%
%TO.N,N/C*%
X122100000Y-97000000D03*
X130900000Y-97000000D03*
%TD*%
D14*
%TO.P,J3,1,Pin_1*%
%TO.N,/D3*%
X89500000Y-54000000D03*
D15*
%TO.P,J3,2,Pin_2*%
%TO.N,Net-(J3-Pad2)*%
X92040000Y-54000000D03*
%TO.P,J3,3,Pin_3*%
%TO.N,/D9*%
X94580000Y-54000000D03*
%TD*%
D16*
%TO.P,R6,1*%
%TO.N,Net-(C2-Pad1)*%
X111990000Y-53610000D03*
D11*
%TO.P,R6,2*%
%TO.N,Net-(J3-Pad2)*%
X104370000Y-53610000D03*
%TD*%
D17*
%TO.P,RV3,1,1*%
%TO.N,+5V*%
X144000000Y-90000000D03*
D18*
%TO.P,RV3,2,2*%
%TO.N,/A2*%
X141500000Y-90000000D03*
%TO.P,RV3,3,3*%
%TO.N,GND*%
X139000000Y-90000000D03*
D19*
%TO.P,RV3,MP*%
%TO.N,N/C*%
X137100000Y-97000000D03*
X145900000Y-97000000D03*
%TD*%
D20*
%TO.P,J4,1*%
%TO.N,GND*%
X60200000Y-55302500D03*
D21*
%TO.P,J4,2*%
%TO.N,VCC*%
X54200000Y-55302500D03*
D22*
%TO.P,J4,3*%
%TO.N,N/C*%
X57200000Y-60002500D03*
%TD*%
D16*
%TO.P,R2,1*%
%TO.N,Net-(J1-Pad2)*%
X80000000Y-91000000D03*
D11*
%TO.P,R2,2*%
%TO.N,Net-(OUT1-Pad5)*%
X72380000Y-91000000D03*
%TD*%
D17*
%TO.P,RV5,1,1*%
%TO.N,+5V*%
X129000000Y-70000000D03*
D18*
%TO.P,RV5,2,2*%
%TO.N,/A6*%
X126500000Y-70000000D03*
%TO.P,RV5,3,3*%
%TO.N,GND*%
X124000000Y-70000000D03*
D19*
%TO.P,RV5,MP*%
%TO.N,N/C*%
X122100000Y-77000000D03*
X130900000Y-77000000D03*
%TD*%
D10*
%TO.P,D1,1,K*%
%TO.N,Net-(D1-Pad1)*%
X80000000Y-61000000D03*
D11*
%TO.P,D1,2,A*%
%TO.N,Net-(D1-Pad2)*%
X72380000Y-61000000D03*
%TD*%
D14*
%TO.P,J2,1,Pin_1*%
%TO.N,unconnected-(J2-Pad1)*%
X73500000Y-100460000D03*
D15*
%TO.P,J2,2,Pin_2*%
%TO.N,Net-(J2-Pad2)*%
X76040000Y-100460000D03*
%TO.P,J2,3,Pin_3*%
%TO.N,/D0*%
X78580000Y-100460000D03*
%TD*%
D17*
%TO.P,RV6,1,1*%
%TO.N,+5V*%
X144000000Y-70000000D03*
D18*
%TO.P,RV6,2,2*%
%TO.N,/A7*%
X141500000Y-70000000D03*
%TO.P,RV6,3,3*%
%TO.N,GND*%
X139000000Y-70000000D03*
D19*
%TO.P,RV6,MP*%
%TO.N,N/C*%
X137100000Y-77000000D03*
X145900000Y-77000000D03*
%TD*%
D16*
%TO.P,C2,1*%
%TO.N,Net-(C2-Pad1)*%
X116110000Y-53040000D03*
%TO.P,C2,2*%
%TO.N,GND*%
X116110000Y-58040000D03*
%TD*%
%TO.P,C1,1*%
%TO.N,+5V*%
X80030000Y-68070000D03*
%TO.P,C1,2*%
%TO.N,GND*%
X75030000Y-68070000D03*
%TD*%
%TO.P,R4,1*%
%TO.N,Net-(R4-Pad1)*%
X72370000Y-87500000D03*
D11*
%TO.P,R4,2*%
%TO.N,GND*%
X79990000Y-87500000D03*
%TD*%
D10*
%TO.P,A1,1,D1/TX*%
%TO.N,/D1*%
X85030000Y-62440000D03*
D11*
%TO.P,A1,2,D0/RX*%
%TO.N,/D0*%
X85030000Y-64980000D03*
%TO.P,A1,3,~{RESET}*%
%TO.N,unconnected-(A1-Pad3)*%
X85030000Y-67520000D03*
%TO.P,A1,4,GND*%
%TO.N,GND*%
X85030000Y-70060000D03*
%TO.P,A1,5,D2*%
%TO.N,/D2*%
X85030000Y-72600000D03*
%TO.P,A1,6,D3*%
%TO.N,/D3*%
X85030000Y-75140000D03*
%TO.P,A1,7,D4*%
%TO.N,/D4*%
X85030000Y-77680000D03*
%TO.P,A1,8,D5*%
%TO.N,/D5*%
X85030000Y-80220000D03*
%TO.P,A1,9,D6*%
%TO.N,/D6*%
X85030000Y-82760000D03*
%TO.P,A1,10,D7*%
%TO.N,/D7*%
X85030000Y-85300000D03*
%TO.P,A1,11,D8*%
%TO.N,/D8*%
X85030000Y-87840000D03*
%TO.P,A1,12,D9*%
%TO.N,/D9*%
X85030000Y-90380000D03*
%TO.P,A1,13,D10*%
%TO.N,/D10*%
X85030000Y-92920000D03*
%TO.P,A1,14,D11*%
%TO.N,/D11*%
X85030000Y-95460000D03*
%TO.P,A1,15,D12*%
%TO.N,/D12*%
X85030000Y-98000000D03*
%TO.P,A1,16,D13*%
%TO.N,/D13*%
X100270000Y-98000000D03*
%TO.P,A1,17,3V3*%
%TO.N,+3V3*%
X100270000Y-95460000D03*
%TO.P,A1,18,AREF*%
%TO.N,unconnected-(A1-Pad18)*%
X100270000Y-92920000D03*
%TO.P,A1,19,A0*%
%TO.N,/A0*%
X100270000Y-90380000D03*
%TO.P,A1,20,A1*%
%TO.N,/A1*%
X100270000Y-87840000D03*
%TO.P,A1,21,A2*%
%TO.N,/A2*%
X100270000Y-85300000D03*
%TO.P,A1,22,A3*%
%TO.N,/A3*%
X100270000Y-82760000D03*
%TO.P,A1,23,A4*%
%TO.N,/A4*%
X100270000Y-80220000D03*
%TO.P,A1,24,A5*%
%TO.N,/A5*%
X100270000Y-77680000D03*
%TO.P,A1,25,A6*%
%TO.N,/A6*%
X100270000Y-75140000D03*
%TO.P,A1,26,A7*%
%TO.N,/A7*%
X100270000Y-72600000D03*
%TO.P,A1,27,+5V*%
%TO.N,+5V*%
X100270000Y-70060000D03*
%TO.P,A1,28,~{RESET}*%
%TO.N,unconnected-(A1-Pad28)*%
X100270000Y-67520000D03*
%TO.P,A1,29,GND*%
%TO.N,GND*%
X100270000Y-64980000D03*
%TO.P,A1,30,VIN*%
%TO.N,VCC*%
X100270000Y-62440000D03*
%TD*%
D23*
%TO.P,J5,R*%
%TO.N,Net-(C3-Pad2)*%
X140500000Y-61980000D03*
%TO.P,J5,RN*%
%TO.N,N/C*%
X140500000Y-59480000D03*
D24*
%TO.P,J5,S*%
%TO.N,GND*%
X145500000Y-56980000D03*
D23*
%TO.P,J5,T*%
%TO.N,Net-(C3-Pad2)*%
X140500000Y-51980000D03*
%TO.P,J5,TN*%
%TO.N,N/C*%
X140500000Y-54480000D03*
%TD*%
D16*
%TO.P,R5,1*%
%TO.N,+5V*%
X72370000Y-84000000D03*
D11*
%TO.P,R5,2*%
%TO.N,Net-(J2-Pad2)*%
X79990000Y-84000000D03*
%TD*%
D25*
%TO.N,/D3*%
X89500000Y-54000000D02*
X89500000Y-72260000D01*
X86620000Y-75140000D02*
X85030000Y-75140000D01*
X89500000Y-72260000D02*
X86620000Y-75140000D01*
%TO.N,/D9*%
X90220000Y-90380000D02*
X85030000Y-90380000D01*
X94580000Y-86020000D02*
X90220000Y-90380000D01*
X94580000Y-54000000D02*
X94580000Y-86020000D01*
%TO.N,/A0*%
X106640000Y-92590000D02*
X104430000Y-90380000D01*
X108910000Y-92590000D02*
X106640000Y-92590000D01*
X111500000Y-90000000D02*
X108910000Y-92590000D01*
X104430000Y-90380000D02*
X100270000Y-90380000D01*
%TO.N,/A1*%
X124340000Y-87840000D02*
X100270000Y-87840000D01*
X126500000Y-90000000D02*
X124340000Y-87840000D01*
%TO.N,/A2*%
X138650000Y-85300000D02*
X100270000Y-85300000D01*
X141500000Y-90000000D02*
X141500000Y-88150000D01*
X141500000Y-88150000D02*
X138650000Y-85300000D01*
%TO.N,/A3*%
X108200000Y-82760000D02*
X111500000Y-79460000D01*
X100270000Y-82760000D02*
X108200000Y-82760000D01*
X111500000Y-79460000D02*
X111500000Y-70000000D01*
%TO.N,/A6*%
X126500000Y-68320000D02*
X126500000Y-70000000D01*
X125060000Y-66880000D02*
X126500000Y-68320000D01*
X109560000Y-66880000D02*
X125060000Y-66880000D01*
X100270000Y-75140000D02*
X108530000Y-66880000D01*
X108530000Y-66880000D02*
X109560000Y-66880000D01*
%TO.N,/A7*%
X100270000Y-72600000D02*
X107430000Y-65440000D01*
X107430000Y-65440000D02*
X108570000Y-65440000D01*
X138680000Y-65440000D02*
X141500000Y-68260000D01*
X141500000Y-68260000D02*
X141500000Y-70000000D01*
X108570000Y-65440000D02*
X138680000Y-65440000D01*
D26*
%TO.N,+5V*%
X80030000Y-68070000D02*
X80030000Y-71960000D01*
X80030000Y-71960000D02*
X79990000Y-72000000D01*
D25*
%TO.N,Net-(C2-Pad1)*%
X116110000Y-53040000D02*
X112560000Y-53040000D01*
X116110000Y-53040000D02*
X120217625Y-53040000D01*
X120217625Y-53040000D02*
X121500000Y-54322375D01*
X112560000Y-53040000D02*
X111990000Y-53610000D01*
X111990000Y-53610000D02*
X111990000Y-57360000D01*
%TO.N,Net-(C3-Pad2)*%
X140500000Y-61980000D02*
X139510000Y-61980000D01*
X139154750Y-51980000D02*
X134332375Y-56802375D01*
X134232375Y-57132375D02*
X134645000Y-57545000D01*
X139080000Y-61980000D02*
X140500000Y-61980000D01*
X134645000Y-57545000D02*
X139080000Y-61980000D01*
X133512375Y-56902375D02*
X133432375Y-56822375D01*
X134002375Y-56902375D02*
X133512375Y-56902375D01*
X134332375Y-56802375D02*
X134232375Y-56902375D01*
X133512375Y-56902375D02*
X134232375Y-56902375D01*
X140500000Y-51980000D02*
X139154750Y-51980000D01*
X134232375Y-56902375D02*
X134232375Y-57132375D01*
X133432375Y-56822375D02*
X121500000Y-56822375D01*
X134645000Y-57545000D02*
X134002375Y-56902375D01*
%TO.N,Net-(D1-Pad1)*%
X77660000Y-70660000D02*
X77660000Y-66830000D01*
X80000000Y-61000000D02*
X80000000Y-64490000D01*
X80000000Y-64490000D02*
X79990000Y-64500000D01*
X77660000Y-66830000D02*
X79990000Y-64500000D01*
X73780000Y-74540000D02*
X77660000Y-70660000D01*
X72370000Y-74540000D02*
X73780000Y-74540000D01*
%TO.N,Net-(D1-Pad2)*%
X69800000Y-70430000D02*
X69800000Y-74510000D01*
X72380000Y-61000000D02*
X74300000Y-62920000D01*
X72380000Y-61122920D02*
X72380000Y-61000000D01*
X74300000Y-62920000D02*
X74300000Y-65930000D01*
X64999100Y-68503820D02*
X72380000Y-61122920D01*
X74300000Y-65930000D02*
X69800000Y-70430000D01*
X69800000Y-74510000D02*
X72370000Y-77080000D01*
%TO.N,Net-(IN1-Pad4)*%
X72370000Y-66070000D02*
X72370000Y-64500000D01*
X64999100Y-73440900D02*
X64999100Y-78496180D01*
X64999100Y-73440900D02*
X72370000Y-66070000D01*
%TO.N,Net-(J1-Pad2)*%
X81990000Y-102720000D02*
X80360489Y-104349511D01*
X80000000Y-91000000D02*
X81990000Y-92990000D01*
X80360489Y-104349511D02*
X77389511Y-104349511D01*
X77389511Y-104349511D02*
X76040000Y-103000000D01*
X81990000Y-92990000D02*
X81990000Y-102720000D01*
%TO.N,Net-(J2-Pad2)*%
X79990000Y-77080000D02*
X77940000Y-79130000D01*
X76040000Y-87950000D02*
X76040000Y-100460000D01*
X79990000Y-84000000D02*
X76040000Y-87950000D01*
X77940000Y-81950000D02*
X79990000Y-84000000D01*
X77940000Y-79130000D02*
X77940000Y-81950000D01*
%TO.N,Net-(OUT1-Pad4)*%
X68995280Y-94500000D02*
X64999100Y-98496180D01*
X72380000Y-94500000D02*
X68995280Y-94500000D01*
%TO.N,Net-(OUT1-Pad5)*%
X64999100Y-88503820D02*
X67495280Y-91000000D01*
X67495280Y-91000000D02*
X72380000Y-91000000D01*
%TO.N,Net-(R4-Pad1)*%
X76310000Y-78220000D02*
X76310000Y-83560000D01*
X79990000Y-74540000D02*
X76310000Y-78220000D01*
X76310000Y-83560000D02*
X72370000Y-87500000D01*
D26*
%TO.N,VCC*%
X54200000Y-54010000D02*
X56350000Y-51860000D01*
X67470000Y-53567349D02*
X75317349Y-53567349D01*
X54200000Y-55302500D02*
X54200000Y-54010000D01*
X75317349Y-53567349D02*
X79260000Y-57510000D01*
X65762651Y-51860000D02*
X67470000Y-53567349D01*
X56350000Y-51860000D02*
X65762651Y-51860000D01*
D25*
%TO.N,Net-(J3-Pad2)*%
X102800000Y-52040000D02*
X104370000Y-53610000D01*
X92040000Y-54000000D02*
X94000000Y-52040000D01*
X94000000Y-52040000D02*
X102800000Y-52040000D01*
%TD*%
M02*
