%TF.GenerationSoftware,KiCad,Pcbnew,8.0.7*%
%TF.CreationDate,2025-09-11T21:50:55+01:00*%
%TF.ProjectId,ArduinoSP0256AAL2,41726475-696e-46f5-9350-303235364141,rev?*%
%TF.SameCoordinates,Original*%
%TF.FileFunction,Legend,Top*%
%TF.FilePolarity,Positive*%
%FSLAX46Y46*%
G04 Gerber Fmt 4.6, Leading zero omitted, Abs format (unit mm)*
G04 Created by KiCad (PCBNEW 8.0.7) date 2025-09-11 21:50:55*
%MOMM*%
%LPD*%
G01*
G04 APERTURE LIST*
%ADD10C,0.150000*%
%ADD11C,0.100000*%
%ADD12C,0.120000*%
G04 APERTURE END LIST*
D10*
X121247618Y-96954819D02*
X120914285Y-96478628D01*
X120676190Y-96954819D02*
X120676190Y-95954819D01*
X120676190Y-95954819D02*
X121057142Y-95954819D01*
X121057142Y-95954819D02*
X121152380Y-96002438D01*
X121152380Y-96002438D02*
X121199999Y-96050057D01*
X121199999Y-96050057D02*
X121247618Y-96145295D01*
X121247618Y-96145295D02*
X121247618Y-96288152D01*
X121247618Y-96288152D02*
X121199999Y-96383390D01*
X121199999Y-96383390D02*
X121152380Y-96431009D01*
X121152380Y-96431009D02*
X121057142Y-96478628D01*
X121057142Y-96478628D02*
X120676190Y-96478628D01*
X121676190Y-96431009D02*
X122009523Y-96431009D01*
X122152380Y-96954819D02*
X121676190Y-96954819D01*
X121676190Y-96954819D02*
X121676190Y-95954819D01*
X121676190Y-95954819D02*
X122152380Y-95954819D01*
X122533333Y-96907200D02*
X122676190Y-96954819D01*
X122676190Y-96954819D02*
X122914285Y-96954819D01*
X122914285Y-96954819D02*
X123009523Y-96907200D01*
X123009523Y-96907200D02*
X123057142Y-96859580D01*
X123057142Y-96859580D02*
X123104761Y-96764342D01*
X123104761Y-96764342D02*
X123104761Y-96669104D01*
X123104761Y-96669104D02*
X123057142Y-96573866D01*
X123057142Y-96573866D02*
X123009523Y-96526247D01*
X123009523Y-96526247D02*
X122914285Y-96478628D01*
X122914285Y-96478628D02*
X122723809Y-96431009D01*
X122723809Y-96431009D02*
X122628571Y-96383390D01*
X122628571Y-96383390D02*
X122580952Y-96335771D01*
X122580952Y-96335771D02*
X122533333Y-96240533D01*
X122533333Y-96240533D02*
X122533333Y-96145295D01*
X122533333Y-96145295D02*
X122580952Y-96050057D01*
X122580952Y-96050057D02*
X122628571Y-96002438D01*
X122628571Y-96002438D02*
X122723809Y-95954819D01*
X122723809Y-95954819D02*
X122961904Y-95954819D01*
X122961904Y-95954819D02*
X123104761Y-96002438D01*
X123533333Y-96431009D02*
X123866666Y-96431009D01*
X124009523Y-96954819D02*
X123533333Y-96954819D01*
X123533333Y-96954819D02*
X123533333Y-95954819D01*
X123533333Y-95954819D02*
X124009523Y-95954819D01*
X124295238Y-95954819D02*
X124866666Y-95954819D01*
X124580952Y-96954819D02*
X124580952Y-95954819D01*
D11*
X143363333Y-91102990D02*
X143296666Y-91064895D01*
X143296666Y-91064895D02*
X143196666Y-91064895D01*
X143196666Y-91064895D02*
X143096666Y-91102990D01*
X143096666Y-91102990D02*
X143030000Y-91179180D01*
X143030000Y-91179180D02*
X142996666Y-91255371D01*
X142996666Y-91255371D02*
X142963333Y-91407752D01*
X142963333Y-91407752D02*
X142963333Y-91522038D01*
X142963333Y-91522038D02*
X142996666Y-91674419D01*
X142996666Y-91674419D02*
X143030000Y-91750609D01*
X143030000Y-91750609D02*
X143096666Y-91826800D01*
X143096666Y-91826800D02*
X143196666Y-91864895D01*
X143196666Y-91864895D02*
X143263333Y-91864895D01*
X143263333Y-91864895D02*
X143363333Y-91826800D01*
X143363333Y-91826800D02*
X143396666Y-91788704D01*
X143396666Y-91788704D02*
X143396666Y-91522038D01*
X143396666Y-91522038D02*
X143263333Y-91522038D01*
D10*
X133827255Y-75204819D02*
X134017731Y-75204819D01*
X134017731Y-75204819D02*
X134112969Y-75252438D01*
X134112969Y-75252438D02*
X134208207Y-75347676D01*
X134208207Y-75347676D02*
X134255826Y-75538152D01*
X134255826Y-75538152D02*
X134255826Y-75871485D01*
X134255826Y-75871485D02*
X134208207Y-76061961D01*
X134208207Y-76061961D02*
X134112969Y-76157200D01*
X134112969Y-76157200D02*
X134017731Y-76204819D01*
X134017731Y-76204819D02*
X133827255Y-76204819D01*
X133827255Y-76204819D02*
X133732017Y-76157200D01*
X133732017Y-76157200D02*
X133636779Y-76061961D01*
X133636779Y-76061961D02*
X133589160Y-75871485D01*
X133589160Y-75871485D02*
X133589160Y-75538152D01*
X133589160Y-75538152D02*
X133636779Y-75347676D01*
X133636779Y-75347676D02*
X133732017Y-75252438D01*
X133732017Y-75252438D02*
X133827255Y-75204819D01*
X134636779Y-76157200D02*
X134779636Y-76204819D01*
X134779636Y-76204819D02*
X135017731Y-76204819D01*
X135017731Y-76204819D02*
X135112969Y-76157200D01*
X135112969Y-76157200D02*
X135160588Y-76109580D01*
X135160588Y-76109580D02*
X135208207Y-76014342D01*
X135208207Y-76014342D02*
X135208207Y-75919104D01*
X135208207Y-75919104D02*
X135160588Y-75823866D01*
X135160588Y-75823866D02*
X135112969Y-75776247D01*
X135112969Y-75776247D02*
X135017731Y-75728628D01*
X135017731Y-75728628D02*
X134827255Y-75681009D01*
X134827255Y-75681009D02*
X134732017Y-75633390D01*
X134732017Y-75633390D02*
X134684398Y-75585771D01*
X134684398Y-75585771D02*
X134636779Y-75490533D01*
X134636779Y-75490533D02*
X134636779Y-75395295D01*
X134636779Y-75395295D02*
X134684398Y-75300057D01*
X134684398Y-75300057D02*
X134732017Y-75252438D01*
X134732017Y-75252438D02*
X134827255Y-75204819D01*
X134827255Y-75204819D02*
X135065350Y-75204819D01*
X135065350Y-75204819D02*
X135208207Y-75252438D01*
X136208207Y-76109580D02*
X136160588Y-76157200D01*
X136160588Y-76157200D02*
X136017731Y-76204819D01*
X136017731Y-76204819D02*
X135922493Y-76204819D01*
X135922493Y-76204819D02*
X135779636Y-76157200D01*
X135779636Y-76157200D02*
X135684398Y-76061961D01*
X135684398Y-76061961D02*
X135636779Y-75966723D01*
X135636779Y-75966723D02*
X135589160Y-75776247D01*
X135589160Y-75776247D02*
X135589160Y-75633390D01*
X135589160Y-75633390D02*
X135636779Y-75442914D01*
X135636779Y-75442914D02*
X135684398Y-75347676D01*
X135684398Y-75347676D02*
X135779636Y-75252438D01*
X135779636Y-75252438D02*
X135922493Y-75204819D01*
X135922493Y-75204819D02*
X136017731Y-75204819D01*
X136017731Y-75204819D02*
X136160588Y-75252438D01*
X136160588Y-75252438D02*
X136208207Y-75300057D01*
X101985714Y-88509160D02*
X102461904Y-88509160D01*
X101890476Y-88794875D02*
X102223809Y-87794875D01*
X102223809Y-87794875D02*
X102557142Y-88794875D01*
X102890476Y-88794875D02*
X102890476Y-88128208D01*
X102890476Y-88318684D02*
X102938095Y-88223446D01*
X102938095Y-88223446D02*
X102985714Y-88175827D01*
X102985714Y-88175827D02*
X103080952Y-88128208D01*
X103080952Y-88128208D02*
X103176190Y-88128208D01*
X103938095Y-88794875D02*
X103938095Y-87794875D01*
X103938095Y-88747256D02*
X103842857Y-88794875D01*
X103842857Y-88794875D02*
X103652381Y-88794875D01*
X103652381Y-88794875D02*
X103557143Y-88747256D01*
X103557143Y-88747256D02*
X103509524Y-88699636D01*
X103509524Y-88699636D02*
X103461905Y-88604398D01*
X103461905Y-88604398D02*
X103461905Y-88318684D01*
X103461905Y-88318684D02*
X103509524Y-88223446D01*
X103509524Y-88223446D02*
X103557143Y-88175827D01*
X103557143Y-88175827D02*
X103652381Y-88128208D01*
X103652381Y-88128208D02*
X103842857Y-88128208D01*
X103842857Y-88128208D02*
X103938095Y-88175827D01*
X104842857Y-88128208D02*
X104842857Y-88794875D01*
X104414286Y-88128208D02*
X104414286Y-88652017D01*
X104414286Y-88652017D02*
X104461905Y-88747256D01*
X104461905Y-88747256D02*
X104557143Y-88794875D01*
X104557143Y-88794875D02*
X104700000Y-88794875D01*
X104700000Y-88794875D02*
X104795238Y-88747256D01*
X104795238Y-88747256D02*
X104842857Y-88699636D01*
X105319048Y-88794875D02*
X105319048Y-88128208D01*
X105319048Y-87794875D02*
X105271429Y-87842494D01*
X105271429Y-87842494D02*
X105319048Y-87890113D01*
X105319048Y-87890113D02*
X105366667Y-87842494D01*
X105366667Y-87842494D02*
X105319048Y-87794875D01*
X105319048Y-87794875D02*
X105319048Y-87890113D01*
X105795238Y-88128208D02*
X105795238Y-88794875D01*
X105795238Y-88223446D02*
X105842857Y-88175827D01*
X105842857Y-88175827D02*
X105938095Y-88128208D01*
X105938095Y-88128208D02*
X106080952Y-88128208D01*
X106080952Y-88128208D02*
X106176190Y-88175827D01*
X106176190Y-88175827D02*
X106223809Y-88271065D01*
X106223809Y-88271065D02*
X106223809Y-88794875D01*
X106842857Y-88794875D02*
X106747619Y-88747256D01*
X106747619Y-88747256D02*
X106700000Y-88699636D01*
X106700000Y-88699636D02*
X106652381Y-88604398D01*
X106652381Y-88604398D02*
X106652381Y-88318684D01*
X106652381Y-88318684D02*
X106700000Y-88223446D01*
X106700000Y-88223446D02*
X106747619Y-88175827D01*
X106747619Y-88175827D02*
X106842857Y-88128208D01*
X106842857Y-88128208D02*
X106985714Y-88128208D01*
X106985714Y-88128208D02*
X107080952Y-88175827D01*
X107080952Y-88175827D02*
X107128571Y-88223446D01*
X107128571Y-88223446D02*
X107176190Y-88318684D01*
X107176190Y-88318684D02*
X107176190Y-88604398D01*
X107176190Y-88604398D02*
X107128571Y-88699636D01*
X107128571Y-88699636D02*
X107080952Y-88747256D01*
X107080952Y-88747256D02*
X106985714Y-88794875D01*
X106985714Y-88794875D02*
X106842857Y-88794875D01*
X108319048Y-88747256D02*
X108461905Y-88794875D01*
X108461905Y-88794875D02*
X108700000Y-88794875D01*
X108700000Y-88794875D02*
X108795238Y-88747256D01*
X108795238Y-88747256D02*
X108842857Y-88699636D01*
X108842857Y-88699636D02*
X108890476Y-88604398D01*
X108890476Y-88604398D02*
X108890476Y-88509160D01*
X108890476Y-88509160D02*
X108842857Y-88413922D01*
X108842857Y-88413922D02*
X108795238Y-88366303D01*
X108795238Y-88366303D02*
X108700000Y-88318684D01*
X108700000Y-88318684D02*
X108509524Y-88271065D01*
X108509524Y-88271065D02*
X108414286Y-88223446D01*
X108414286Y-88223446D02*
X108366667Y-88175827D01*
X108366667Y-88175827D02*
X108319048Y-88080589D01*
X108319048Y-88080589D02*
X108319048Y-87985351D01*
X108319048Y-87985351D02*
X108366667Y-87890113D01*
X108366667Y-87890113D02*
X108414286Y-87842494D01*
X108414286Y-87842494D02*
X108509524Y-87794875D01*
X108509524Y-87794875D02*
X108747619Y-87794875D01*
X108747619Y-87794875D02*
X108890476Y-87842494D01*
X109319048Y-88794875D02*
X109319048Y-87794875D01*
X109319048Y-87794875D02*
X109700000Y-87794875D01*
X109700000Y-87794875D02*
X109795238Y-87842494D01*
X109795238Y-87842494D02*
X109842857Y-87890113D01*
X109842857Y-87890113D02*
X109890476Y-87985351D01*
X109890476Y-87985351D02*
X109890476Y-88128208D01*
X109890476Y-88128208D02*
X109842857Y-88223446D01*
X109842857Y-88223446D02*
X109795238Y-88271065D01*
X109795238Y-88271065D02*
X109700000Y-88318684D01*
X109700000Y-88318684D02*
X109319048Y-88318684D01*
X110509524Y-87794875D02*
X110604762Y-87794875D01*
X110604762Y-87794875D02*
X110700000Y-87842494D01*
X110700000Y-87842494D02*
X110747619Y-87890113D01*
X110747619Y-87890113D02*
X110795238Y-87985351D01*
X110795238Y-87985351D02*
X110842857Y-88175827D01*
X110842857Y-88175827D02*
X110842857Y-88413922D01*
X110842857Y-88413922D02*
X110795238Y-88604398D01*
X110795238Y-88604398D02*
X110747619Y-88699636D01*
X110747619Y-88699636D02*
X110700000Y-88747256D01*
X110700000Y-88747256D02*
X110604762Y-88794875D01*
X110604762Y-88794875D02*
X110509524Y-88794875D01*
X110509524Y-88794875D02*
X110414286Y-88747256D01*
X110414286Y-88747256D02*
X110366667Y-88699636D01*
X110366667Y-88699636D02*
X110319048Y-88604398D01*
X110319048Y-88604398D02*
X110271429Y-88413922D01*
X110271429Y-88413922D02*
X110271429Y-88175827D01*
X110271429Y-88175827D02*
X110319048Y-87985351D01*
X110319048Y-87985351D02*
X110366667Y-87890113D01*
X110366667Y-87890113D02*
X110414286Y-87842494D01*
X110414286Y-87842494D02*
X110509524Y-87794875D01*
X111223810Y-87890113D02*
X111271429Y-87842494D01*
X111271429Y-87842494D02*
X111366667Y-87794875D01*
X111366667Y-87794875D02*
X111604762Y-87794875D01*
X111604762Y-87794875D02*
X111700000Y-87842494D01*
X111700000Y-87842494D02*
X111747619Y-87890113D01*
X111747619Y-87890113D02*
X111795238Y-87985351D01*
X111795238Y-87985351D02*
X111795238Y-88080589D01*
X111795238Y-88080589D02*
X111747619Y-88223446D01*
X111747619Y-88223446D02*
X111176191Y-88794875D01*
X111176191Y-88794875D02*
X111795238Y-88794875D01*
X112700000Y-87794875D02*
X112223810Y-87794875D01*
X112223810Y-87794875D02*
X112176191Y-88271065D01*
X112176191Y-88271065D02*
X112223810Y-88223446D01*
X112223810Y-88223446D02*
X112319048Y-88175827D01*
X112319048Y-88175827D02*
X112557143Y-88175827D01*
X112557143Y-88175827D02*
X112652381Y-88223446D01*
X112652381Y-88223446D02*
X112700000Y-88271065D01*
X112700000Y-88271065D02*
X112747619Y-88366303D01*
X112747619Y-88366303D02*
X112747619Y-88604398D01*
X112747619Y-88604398D02*
X112700000Y-88699636D01*
X112700000Y-88699636D02*
X112652381Y-88747256D01*
X112652381Y-88747256D02*
X112557143Y-88794875D01*
X112557143Y-88794875D02*
X112319048Y-88794875D01*
X112319048Y-88794875D02*
X112223810Y-88747256D01*
X112223810Y-88747256D02*
X112176191Y-88699636D01*
X113604762Y-87794875D02*
X113414286Y-87794875D01*
X113414286Y-87794875D02*
X113319048Y-87842494D01*
X113319048Y-87842494D02*
X113271429Y-87890113D01*
X113271429Y-87890113D02*
X113176191Y-88032970D01*
X113176191Y-88032970D02*
X113128572Y-88223446D01*
X113128572Y-88223446D02*
X113128572Y-88604398D01*
X113128572Y-88604398D02*
X113176191Y-88699636D01*
X113176191Y-88699636D02*
X113223810Y-88747256D01*
X113223810Y-88747256D02*
X113319048Y-88794875D01*
X113319048Y-88794875D02*
X113509524Y-88794875D01*
X113509524Y-88794875D02*
X113604762Y-88747256D01*
X113604762Y-88747256D02*
X113652381Y-88699636D01*
X113652381Y-88699636D02*
X113700000Y-88604398D01*
X113700000Y-88604398D02*
X113700000Y-88366303D01*
X113700000Y-88366303D02*
X113652381Y-88271065D01*
X113652381Y-88271065D02*
X113604762Y-88223446D01*
X113604762Y-88223446D02*
X113509524Y-88175827D01*
X113509524Y-88175827D02*
X113319048Y-88175827D01*
X113319048Y-88175827D02*
X113223810Y-88223446D01*
X113223810Y-88223446D02*
X113176191Y-88271065D01*
X113176191Y-88271065D02*
X113128572Y-88366303D01*
X114080953Y-88509160D02*
X114557143Y-88509160D01*
X113985715Y-88794875D02*
X114319048Y-87794875D01*
X114319048Y-87794875D02*
X114652381Y-88794875D01*
X114985715Y-88413922D02*
X115747620Y-88413922D01*
X116176191Y-88509160D02*
X116652381Y-88509160D01*
X116080953Y-88794875D02*
X116414286Y-87794875D01*
X116414286Y-87794875D02*
X116747619Y-88794875D01*
X117557143Y-88794875D02*
X117080953Y-88794875D01*
X117080953Y-88794875D02*
X117080953Y-87794875D01*
X117842858Y-87890113D02*
X117890477Y-87842494D01*
X117890477Y-87842494D02*
X117985715Y-87794875D01*
X117985715Y-87794875D02*
X118223810Y-87794875D01*
X118223810Y-87794875D02*
X118319048Y-87842494D01*
X118319048Y-87842494D02*
X118366667Y-87890113D01*
X118366667Y-87890113D02*
X118414286Y-87985351D01*
X118414286Y-87985351D02*
X118414286Y-88080589D01*
X118414286Y-88080589D02*
X118366667Y-88223446D01*
X118366667Y-88223446D02*
X117795239Y-88794875D01*
X117795239Y-88794875D02*
X118414286Y-88794875D01*
X105009523Y-90404819D02*
X105009523Y-89404819D01*
X105009523Y-90357200D02*
X104914285Y-90404819D01*
X104914285Y-90404819D02*
X104723809Y-90404819D01*
X104723809Y-90404819D02*
X104628571Y-90357200D01*
X104628571Y-90357200D02*
X104580952Y-90309580D01*
X104580952Y-90309580D02*
X104533333Y-90214342D01*
X104533333Y-90214342D02*
X104533333Y-89928628D01*
X104533333Y-89928628D02*
X104580952Y-89833390D01*
X104580952Y-89833390D02*
X104628571Y-89785771D01*
X104628571Y-89785771D02*
X104723809Y-89738152D01*
X104723809Y-89738152D02*
X104914285Y-89738152D01*
X104914285Y-89738152D02*
X105009523Y-89785771D01*
X105485714Y-90404819D02*
X105485714Y-89738152D01*
X105485714Y-89404819D02*
X105438095Y-89452438D01*
X105438095Y-89452438D02*
X105485714Y-89500057D01*
X105485714Y-89500057D02*
X105533333Y-89452438D01*
X105533333Y-89452438D02*
X105485714Y-89404819D01*
X105485714Y-89404819D02*
X105485714Y-89500057D01*
X105866666Y-89738152D02*
X106104761Y-90404819D01*
X106342856Y-89738152D02*
X106104761Y-90404819D01*
X106104761Y-90404819D02*
X106009523Y-90642914D01*
X106009523Y-90642914D02*
X105961904Y-90690533D01*
X105961904Y-90690533D02*
X105866666Y-90738152D01*
X107104761Y-90357200D02*
X107009523Y-90404819D01*
X107009523Y-90404819D02*
X106819047Y-90404819D01*
X106819047Y-90404819D02*
X106723809Y-90357200D01*
X106723809Y-90357200D02*
X106676190Y-90261961D01*
X106676190Y-90261961D02*
X106676190Y-89881009D01*
X106676190Y-89881009D02*
X106723809Y-89785771D01*
X106723809Y-89785771D02*
X106819047Y-89738152D01*
X106819047Y-89738152D02*
X107009523Y-89738152D01*
X107009523Y-89738152D02*
X107104761Y-89785771D01*
X107104761Y-89785771D02*
X107152380Y-89881009D01*
X107152380Y-89881009D02*
X107152380Y-89976247D01*
X107152380Y-89976247D02*
X106676190Y-90071485D01*
X107723809Y-90404819D02*
X107628571Y-90357200D01*
X107628571Y-90357200D02*
X107580952Y-90261961D01*
X107580952Y-90261961D02*
X107580952Y-89404819D01*
X108485714Y-90357200D02*
X108390476Y-90404819D01*
X108390476Y-90404819D02*
X108200000Y-90404819D01*
X108200000Y-90404819D02*
X108104762Y-90357200D01*
X108104762Y-90357200D02*
X108057143Y-90261961D01*
X108057143Y-90261961D02*
X108057143Y-89881009D01*
X108057143Y-89881009D02*
X108104762Y-89785771D01*
X108104762Y-89785771D02*
X108200000Y-89738152D01*
X108200000Y-89738152D02*
X108390476Y-89738152D01*
X108390476Y-89738152D02*
X108485714Y-89785771D01*
X108485714Y-89785771D02*
X108533333Y-89881009D01*
X108533333Y-89881009D02*
X108533333Y-89976247D01*
X108533333Y-89976247D02*
X108057143Y-90071485D01*
X109390476Y-90357200D02*
X109295238Y-90404819D01*
X109295238Y-90404819D02*
X109104762Y-90404819D01*
X109104762Y-90404819D02*
X109009524Y-90357200D01*
X109009524Y-90357200D02*
X108961905Y-90309580D01*
X108961905Y-90309580D02*
X108914286Y-90214342D01*
X108914286Y-90214342D02*
X108914286Y-89928628D01*
X108914286Y-89928628D02*
X108961905Y-89833390D01*
X108961905Y-89833390D02*
X109009524Y-89785771D01*
X109009524Y-89785771D02*
X109104762Y-89738152D01*
X109104762Y-89738152D02*
X109295238Y-89738152D01*
X109295238Y-89738152D02*
X109390476Y-89785771D01*
X109676191Y-89738152D02*
X110057143Y-89738152D01*
X109819048Y-89404819D02*
X109819048Y-90261961D01*
X109819048Y-90261961D02*
X109866667Y-90357200D01*
X109866667Y-90357200D02*
X109961905Y-90404819D01*
X109961905Y-90404819D02*
X110057143Y-90404819D01*
X110390477Y-90404819D02*
X110390477Y-89738152D01*
X110390477Y-89928628D02*
X110438096Y-89833390D01*
X110438096Y-89833390D02*
X110485715Y-89785771D01*
X110485715Y-89785771D02*
X110580953Y-89738152D01*
X110580953Y-89738152D02*
X110676191Y-89738152D01*
X111152382Y-90404819D02*
X111057144Y-90357200D01*
X111057144Y-90357200D02*
X111009525Y-90309580D01*
X111009525Y-90309580D02*
X110961906Y-90214342D01*
X110961906Y-90214342D02*
X110961906Y-89928628D01*
X110961906Y-89928628D02*
X111009525Y-89833390D01*
X111009525Y-89833390D02*
X111057144Y-89785771D01*
X111057144Y-89785771D02*
X111152382Y-89738152D01*
X111152382Y-89738152D02*
X111295239Y-89738152D01*
X111295239Y-89738152D02*
X111390477Y-89785771D01*
X111390477Y-89785771D02*
X111438096Y-89833390D01*
X111438096Y-89833390D02*
X111485715Y-89928628D01*
X111485715Y-89928628D02*
X111485715Y-90214342D01*
X111485715Y-90214342D02*
X111438096Y-90309580D01*
X111438096Y-90309580D02*
X111390477Y-90357200D01*
X111390477Y-90357200D02*
X111295239Y-90404819D01*
X111295239Y-90404819D02*
X111152382Y-90404819D01*
X111914287Y-90404819D02*
X111914287Y-89738152D01*
X111914287Y-89833390D02*
X111961906Y-89785771D01*
X111961906Y-89785771D02*
X112057144Y-89738152D01*
X112057144Y-89738152D02*
X112200001Y-89738152D01*
X112200001Y-89738152D02*
X112295239Y-89785771D01*
X112295239Y-89785771D02*
X112342858Y-89881009D01*
X112342858Y-89881009D02*
X112342858Y-90404819D01*
X112342858Y-89881009D02*
X112390477Y-89785771D01*
X112390477Y-89785771D02*
X112485715Y-89738152D01*
X112485715Y-89738152D02*
X112628572Y-89738152D01*
X112628572Y-89738152D02*
X112723811Y-89785771D01*
X112723811Y-89785771D02*
X112771430Y-89881009D01*
X112771430Y-89881009D02*
X112771430Y-90404819D01*
X113676191Y-89738152D02*
X113676191Y-90404819D01*
X113247620Y-89738152D02*
X113247620Y-90261961D01*
X113247620Y-90261961D02*
X113295239Y-90357200D01*
X113295239Y-90357200D02*
X113390477Y-90404819D01*
X113390477Y-90404819D02*
X113533334Y-90404819D01*
X113533334Y-90404819D02*
X113628572Y-90357200D01*
X113628572Y-90357200D02*
X113676191Y-90309580D01*
X114104763Y-90357200D02*
X114200001Y-90404819D01*
X114200001Y-90404819D02*
X114390477Y-90404819D01*
X114390477Y-90404819D02*
X114485715Y-90357200D01*
X114485715Y-90357200D02*
X114533334Y-90261961D01*
X114533334Y-90261961D02*
X114533334Y-90214342D01*
X114533334Y-90214342D02*
X114485715Y-90119104D01*
X114485715Y-90119104D02*
X114390477Y-90071485D01*
X114390477Y-90071485D02*
X114247620Y-90071485D01*
X114247620Y-90071485D02*
X114152382Y-90023866D01*
X114152382Y-90023866D02*
X114104763Y-89928628D01*
X114104763Y-89928628D02*
X114104763Y-89881009D01*
X114104763Y-89881009D02*
X114152382Y-89785771D01*
X114152382Y-89785771D02*
X114247620Y-89738152D01*
X114247620Y-89738152D02*
X114390477Y-89738152D01*
X114390477Y-89738152D02*
X114485715Y-89785771D01*
X114961906Y-90404819D02*
X114961906Y-89738152D01*
X114961906Y-89404819D02*
X114914287Y-89452438D01*
X114914287Y-89452438D02*
X114961906Y-89500057D01*
X114961906Y-89500057D02*
X115009525Y-89452438D01*
X115009525Y-89452438D02*
X114961906Y-89404819D01*
X114961906Y-89404819D02*
X114961906Y-89500057D01*
X115866667Y-90357200D02*
X115771429Y-90404819D01*
X115771429Y-90404819D02*
X115580953Y-90404819D01*
X115580953Y-90404819D02*
X115485715Y-90357200D01*
X115485715Y-90357200D02*
X115438096Y-90309580D01*
X115438096Y-90309580D02*
X115390477Y-90214342D01*
X115390477Y-90214342D02*
X115390477Y-89928628D01*
X115390477Y-89928628D02*
X115438096Y-89833390D01*
X115438096Y-89833390D02*
X115485715Y-89785771D01*
X115485715Y-89785771D02*
X115580953Y-89738152D01*
X115580953Y-89738152D02*
X115771429Y-89738152D01*
X115771429Y-89738152D02*
X115866667Y-89785771D01*
X106485714Y-91348096D02*
X106723809Y-92014763D01*
X106723809Y-92014763D02*
X106961904Y-91348096D01*
X107533333Y-91014763D02*
X107628571Y-91014763D01*
X107628571Y-91014763D02*
X107723809Y-91062382D01*
X107723809Y-91062382D02*
X107771428Y-91110001D01*
X107771428Y-91110001D02*
X107819047Y-91205239D01*
X107819047Y-91205239D02*
X107866666Y-91395715D01*
X107866666Y-91395715D02*
X107866666Y-91633810D01*
X107866666Y-91633810D02*
X107819047Y-91824286D01*
X107819047Y-91824286D02*
X107771428Y-91919524D01*
X107771428Y-91919524D02*
X107723809Y-91967144D01*
X107723809Y-91967144D02*
X107628571Y-92014763D01*
X107628571Y-92014763D02*
X107533333Y-92014763D01*
X107533333Y-92014763D02*
X107438095Y-91967144D01*
X107438095Y-91967144D02*
X107390476Y-91919524D01*
X107390476Y-91919524D02*
X107342857Y-91824286D01*
X107342857Y-91824286D02*
X107295238Y-91633810D01*
X107295238Y-91633810D02*
X107295238Y-91395715D01*
X107295238Y-91395715D02*
X107342857Y-91205239D01*
X107342857Y-91205239D02*
X107390476Y-91110001D01*
X107390476Y-91110001D02*
X107438095Y-91062382D01*
X107438095Y-91062382D02*
X107533333Y-91014763D01*
X108295238Y-91919524D02*
X108342857Y-91967144D01*
X108342857Y-91967144D02*
X108295238Y-92014763D01*
X108295238Y-92014763D02*
X108247619Y-91967144D01*
X108247619Y-91967144D02*
X108295238Y-91919524D01*
X108295238Y-91919524D02*
X108295238Y-92014763D01*
X109295237Y-92014763D02*
X108723809Y-92014763D01*
X109009523Y-92014763D02*
X109009523Y-91014763D01*
X109009523Y-91014763D02*
X108914285Y-91157620D01*
X108914285Y-91157620D02*
X108819047Y-91252858D01*
X108819047Y-91252858D02*
X108723809Y-91300477D01*
X110438095Y-91110001D02*
X110485714Y-91062382D01*
X110485714Y-91062382D02*
X110580952Y-91014763D01*
X110580952Y-91014763D02*
X110819047Y-91014763D01*
X110819047Y-91014763D02*
X110914285Y-91062382D01*
X110914285Y-91062382D02*
X110961904Y-91110001D01*
X110961904Y-91110001D02*
X111009523Y-91205239D01*
X111009523Y-91205239D02*
X111009523Y-91300477D01*
X111009523Y-91300477D02*
X110961904Y-91443334D01*
X110961904Y-91443334D02*
X110390476Y-92014763D01*
X110390476Y-92014763D02*
X111009523Y-92014763D01*
X111628571Y-91014763D02*
X111723809Y-91014763D01*
X111723809Y-91014763D02*
X111819047Y-91062382D01*
X111819047Y-91062382D02*
X111866666Y-91110001D01*
X111866666Y-91110001D02*
X111914285Y-91205239D01*
X111914285Y-91205239D02*
X111961904Y-91395715D01*
X111961904Y-91395715D02*
X111961904Y-91633810D01*
X111961904Y-91633810D02*
X111914285Y-91824286D01*
X111914285Y-91824286D02*
X111866666Y-91919524D01*
X111866666Y-91919524D02*
X111819047Y-91967144D01*
X111819047Y-91967144D02*
X111723809Y-92014763D01*
X111723809Y-92014763D02*
X111628571Y-92014763D01*
X111628571Y-92014763D02*
X111533333Y-91967144D01*
X111533333Y-91967144D02*
X111485714Y-91919524D01*
X111485714Y-91919524D02*
X111438095Y-91824286D01*
X111438095Y-91824286D02*
X111390476Y-91633810D01*
X111390476Y-91633810D02*
X111390476Y-91395715D01*
X111390476Y-91395715D02*
X111438095Y-91205239D01*
X111438095Y-91205239D02*
X111485714Y-91110001D01*
X111485714Y-91110001D02*
X111533333Y-91062382D01*
X111533333Y-91062382D02*
X111628571Y-91014763D01*
X112342857Y-91110001D02*
X112390476Y-91062382D01*
X112390476Y-91062382D02*
X112485714Y-91014763D01*
X112485714Y-91014763D02*
X112723809Y-91014763D01*
X112723809Y-91014763D02*
X112819047Y-91062382D01*
X112819047Y-91062382D02*
X112866666Y-91110001D01*
X112866666Y-91110001D02*
X112914285Y-91205239D01*
X112914285Y-91205239D02*
X112914285Y-91300477D01*
X112914285Y-91300477D02*
X112866666Y-91443334D01*
X112866666Y-91443334D02*
X112295238Y-92014763D01*
X112295238Y-92014763D02*
X112914285Y-92014763D01*
X113819047Y-91014763D02*
X113342857Y-91014763D01*
X113342857Y-91014763D02*
X113295238Y-91490953D01*
X113295238Y-91490953D02*
X113342857Y-91443334D01*
X113342857Y-91443334D02*
X113438095Y-91395715D01*
X113438095Y-91395715D02*
X113676190Y-91395715D01*
X113676190Y-91395715D02*
X113771428Y-91443334D01*
X113771428Y-91443334D02*
X113819047Y-91490953D01*
X113819047Y-91490953D02*
X113866666Y-91586191D01*
X113866666Y-91586191D02*
X113866666Y-91824286D01*
X113866666Y-91824286D02*
X113819047Y-91919524D01*
X113819047Y-91919524D02*
X113771428Y-91967144D01*
X113771428Y-91967144D02*
X113676190Y-92014763D01*
X113676190Y-92014763D02*
X113438095Y-92014763D01*
X113438095Y-92014763D02*
X113342857Y-91967144D01*
X113342857Y-91967144D02*
X113295238Y-91919524D01*
D11*
X144786666Y-91064895D02*
X145020000Y-91864895D01*
X145020000Y-91864895D02*
X145253333Y-91064895D01*
X145886666Y-91788704D02*
X145853333Y-91826800D01*
X145853333Y-91826800D02*
X145753333Y-91864895D01*
X145753333Y-91864895D02*
X145686666Y-91864895D01*
X145686666Y-91864895D02*
X145586666Y-91826800D01*
X145586666Y-91826800D02*
X145520000Y-91750609D01*
X145520000Y-91750609D02*
X145486666Y-91674419D01*
X145486666Y-91674419D02*
X145453333Y-91522038D01*
X145453333Y-91522038D02*
X145453333Y-91407752D01*
X145453333Y-91407752D02*
X145486666Y-91255371D01*
X145486666Y-91255371D02*
X145520000Y-91179180D01*
X145520000Y-91179180D02*
X145586666Y-91102990D01*
X145586666Y-91102990D02*
X145686666Y-91064895D01*
X145686666Y-91064895D02*
X145753333Y-91064895D01*
X145753333Y-91064895D02*
X145853333Y-91102990D01*
X145853333Y-91102990D02*
X145886666Y-91141085D01*
X146586666Y-91788704D02*
X146553333Y-91826800D01*
X146553333Y-91826800D02*
X146453333Y-91864895D01*
X146453333Y-91864895D02*
X146386666Y-91864895D01*
X146386666Y-91864895D02*
X146286666Y-91826800D01*
X146286666Y-91826800D02*
X146220000Y-91750609D01*
X146220000Y-91750609D02*
X146186666Y-91674419D01*
X146186666Y-91674419D02*
X146153333Y-91522038D01*
X146153333Y-91522038D02*
X146153333Y-91407752D01*
X146153333Y-91407752D02*
X146186666Y-91255371D01*
X146186666Y-91255371D02*
X146220000Y-91179180D01*
X146220000Y-91179180D02*
X146286666Y-91102990D01*
X146286666Y-91102990D02*
X146386666Y-91064895D01*
X146386666Y-91064895D02*
X146453333Y-91064895D01*
X146453333Y-91064895D02*
X146553333Y-91102990D01*
X146553333Y-91102990D02*
X146586666Y-91141085D01*
X134833333Y-91064895D02*
X135266666Y-91064895D01*
X135266666Y-91064895D02*
X135033333Y-91369657D01*
X135033333Y-91369657D02*
X135133333Y-91369657D01*
X135133333Y-91369657D02*
X135199999Y-91407752D01*
X135199999Y-91407752D02*
X135233333Y-91445847D01*
X135233333Y-91445847D02*
X135266666Y-91522038D01*
X135266666Y-91522038D02*
X135266666Y-91712514D01*
X135266666Y-91712514D02*
X135233333Y-91788704D01*
X135233333Y-91788704D02*
X135199999Y-91826800D01*
X135199999Y-91826800D02*
X135133333Y-91864895D01*
X135133333Y-91864895D02*
X134933333Y-91864895D01*
X134933333Y-91864895D02*
X134866666Y-91826800D01*
X134866666Y-91826800D02*
X134833333Y-91788704D01*
X135466666Y-91064895D02*
X135700000Y-91864895D01*
X135700000Y-91864895D02*
X135933333Y-91064895D01*
X136100000Y-91064895D02*
X136533333Y-91064895D01*
X136533333Y-91064895D02*
X136300000Y-91369657D01*
X136300000Y-91369657D02*
X136400000Y-91369657D01*
X136400000Y-91369657D02*
X136466666Y-91407752D01*
X136466666Y-91407752D02*
X136500000Y-91445847D01*
X136500000Y-91445847D02*
X136533333Y-91522038D01*
X136533333Y-91522038D02*
X136533333Y-91712514D01*
X136533333Y-91712514D02*
X136500000Y-91788704D01*
X136500000Y-91788704D02*
X136466666Y-91826800D01*
X136466666Y-91826800D02*
X136400000Y-91864895D01*
X136400000Y-91864895D02*
X136200000Y-91864895D01*
X136200000Y-91864895D02*
X136133333Y-91826800D01*
X136133333Y-91826800D02*
X136100000Y-91788704D01*
X139564895Y-53871428D02*
X138764895Y-53871428D01*
X138764895Y-53871428D02*
X138764895Y-53680952D01*
X138764895Y-53680952D02*
X138802990Y-53566666D01*
X138802990Y-53566666D02*
X138879180Y-53490476D01*
X138879180Y-53490476D02*
X138955371Y-53452381D01*
X138955371Y-53452381D02*
X139107752Y-53414285D01*
X139107752Y-53414285D02*
X139222038Y-53414285D01*
X139222038Y-53414285D02*
X139374419Y-53452381D01*
X139374419Y-53452381D02*
X139450609Y-53490476D01*
X139450609Y-53490476D02*
X139526800Y-53566666D01*
X139526800Y-53566666D02*
X139564895Y-53680952D01*
X139564895Y-53680952D02*
X139564895Y-53871428D01*
X139564895Y-52652381D02*
X139564895Y-53109524D01*
X139564895Y-52880952D02*
X138764895Y-52880952D01*
X138764895Y-52880952D02*
X138879180Y-52957143D01*
X138879180Y-52957143D02*
X138955371Y-53033333D01*
X138955371Y-53033333D02*
X138993466Y-53109524D01*
X138764895Y-52157142D02*
X138764895Y-52080952D01*
X138764895Y-52080952D02*
X138802990Y-52004761D01*
X138802990Y-52004761D02*
X138841085Y-51966666D01*
X138841085Y-51966666D02*
X138917276Y-51928571D01*
X138917276Y-51928571D02*
X139069657Y-51890476D01*
X139069657Y-51890476D02*
X139260133Y-51890476D01*
X139260133Y-51890476D02*
X139412514Y-51928571D01*
X139412514Y-51928571D02*
X139488704Y-51966666D01*
X139488704Y-51966666D02*
X139526800Y-52004761D01*
X139526800Y-52004761D02*
X139564895Y-52080952D01*
X139564895Y-52080952D02*
X139564895Y-52157142D01*
X139564895Y-52157142D02*
X139526800Y-52233333D01*
X139526800Y-52233333D02*
X139488704Y-52271428D01*
X139488704Y-52271428D02*
X139412514Y-52309523D01*
X139412514Y-52309523D02*
X139260133Y-52347619D01*
X139260133Y-52347619D02*
X139069657Y-52347619D01*
X139069657Y-52347619D02*
X138917276Y-52309523D01*
X138917276Y-52309523D02*
X138841085Y-52271428D01*
X138841085Y-52271428D02*
X138802990Y-52233333D01*
X138802990Y-52233333D02*
X138764895Y-52157142D01*
X137966667Y-91064895D02*
X137633333Y-91064895D01*
X137633333Y-91064895D02*
X137600000Y-91445847D01*
X137600000Y-91445847D02*
X137633333Y-91407752D01*
X137633333Y-91407752D02*
X137700000Y-91369657D01*
X137700000Y-91369657D02*
X137866667Y-91369657D01*
X137866667Y-91369657D02*
X137933333Y-91407752D01*
X137933333Y-91407752D02*
X137966667Y-91445847D01*
X137966667Y-91445847D02*
X138000000Y-91522038D01*
X138000000Y-91522038D02*
X138000000Y-91712514D01*
X138000000Y-91712514D02*
X137966667Y-91788704D01*
X137966667Y-91788704D02*
X137933333Y-91826800D01*
X137933333Y-91826800D02*
X137866667Y-91864895D01*
X137866667Y-91864895D02*
X137700000Y-91864895D01*
X137700000Y-91864895D02*
X137633333Y-91826800D01*
X137633333Y-91826800D02*
X137600000Y-91788704D01*
X138200000Y-91064895D02*
X138433334Y-91864895D01*
X138433334Y-91864895D02*
X138666667Y-91064895D01*
D10*
X123353697Y-76157200D02*
X123496554Y-76204819D01*
X123496554Y-76204819D02*
X123734649Y-76204819D01*
X123734649Y-76204819D02*
X123829887Y-76157200D01*
X123829887Y-76157200D02*
X123877506Y-76109580D01*
X123877506Y-76109580D02*
X123925125Y-76014342D01*
X123925125Y-76014342D02*
X123925125Y-75919104D01*
X123925125Y-75919104D02*
X123877506Y-75823866D01*
X123877506Y-75823866D02*
X123829887Y-75776247D01*
X123829887Y-75776247D02*
X123734649Y-75728628D01*
X123734649Y-75728628D02*
X123544173Y-75681009D01*
X123544173Y-75681009D02*
X123448935Y-75633390D01*
X123448935Y-75633390D02*
X123401316Y-75585771D01*
X123401316Y-75585771D02*
X123353697Y-75490533D01*
X123353697Y-75490533D02*
X123353697Y-75395295D01*
X123353697Y-75395295D02*
X123401316Y-75300057D01*
X123401316Y-75300057D02*
X123448935Y-75252438D01*
X123448935Y-75252438D02*
X123544173Y-75204819D01*
X123544173Y-75204819D02*
X123782268Y-75204819D01*
X123782268Y-75204819D02*
X123925125Y-75252438D01*
X124353697Y-76204819D02*
X124353697Y-75204819D01*
X125306077Y-75204819D02*
X124829887Y-75204819D01*
X124829887Y-75204819D02*
X124782268Y-75681009D01*
X124782268Y-75681009D02*
X124829887Y-75633390D01*
X124829887Y-75633390D02*
X124925125Y-75585771D01*
X124925125Y-75585771D02*
X125163220Y-75585771D01*
X125163220Y-75585771D02*
X125258458Y-75633390D01*
X125258458Y-75633390D02*
X125306077Y-75681009D01*
X125306077Y-75681009D02*
X125353696Y-75776247D01*
X125353696Y-75776247D02*
X125353696Y-76014342D01*
X125353696Y-76014342D02*
X125306077Y-76109580D01*
X125306077Y-76109580D02*
X125258458Y-76157200D01*
X125258458Y-76157200D02*
X125163220Y-76204819D01*
X125163220Y-76204819D02*
X124925125Y-76204819D01*
X124925125Y-76204819D02*
X124829887Y-76157200D01*
X124829887Y-76157200D02*
X124782268Y-76109580D01*
X125687030Y-75204819D02*
X126306077Y-75204819D01*
X126306077Y-75204819D02*
X125972744Y-75585771D01*
X125972744Y-75585771D02*
X126115601Y-75585771D01*
X126115601Y-75585771D02*
X126210839Y-75633390D01*
X126210839Y-75633390D02*
X126258458Y-75681009D01*
X126258458Y-75681009D02*
X126306077Y-75776247D01*
X126306077Y-75776247D02*
X126306077Y-76014342D01*
X126306077Y-76014342D02*
X126258458Y-76109580D01*
X126258458Y-76109580D02*
X126210839Y-76157200D01*
X126210839Y-76157200D02*
X126115601Y-76204819D01*
X126115601Y-76204819D02*
X125829887Y-76204819D01*
X125829887Y-76204819D02*
X125734649Y-76157200D01*
X125734649Y-76157200D02*
X125687030Y-76109580D01*
X127210839Y-75204819D02*
X126734649Y-75204819D01*
X126734649Y-75204819D02*
X126687030Y-75681009D01*
X126687030Y-75681009D02*
X126734649Y-75633390D01*
X126734649Y-75633390D02*
X126829887Y-75585771D01*
X126829887Y-75585771D02*
X127067982Y-75585771D01*
X127067982Y-75585771D02*
X127163220Y-75633390D01*
X127163220Y-75633390D02*
X127210839Y-75681009D01*
X127210839Y-75681009D02*
X127258458Y-75776247D01*
X127258458Y-75776247D02*
X127258458Y-76014342D01*
X127258458Y-76014342D02*
X127210839Y-76109580D01*
X127210839Y-76109580D02*
X127163220Y-76157200D01*
X127163220Y-76157200D02*
X127067982Y-76204819D01*
X127067982Y-76204819D02*
X126829887Y-76204819D01*
X126829887Y-76204819D02*
X126734649Y-76157200D01*
X126734649Y-76157200D02*
X126687030Y-76109580D01*
X128210839Y-76204819D02*
X127639411Y-76204819D01*
X127925125Y-76204819D02*
X127925125Y-75204819D01*
X127925125Y-75204819D02*
X127829887Y-75347676D01*
X127829887Y-75347676D02*
X127734649Y-75442914D01*
X127734649Y-75442914D02*
X127639411Y-75490533D01*
D11*
X140823333Y-91102990D02*
X140756666Y-91064895D01*
X140756666Y-91064895D02*
X140656666Y-91064895D01*
X140656666Y-91064895D02*
X140556666Y-91102990D01*
X140556666Y-91102990D02*
X140490000Y-91179180D01*
X140490000Y-91179180D02*
X140456666Y-91255371D01*
X140456666Y-91255371D02*
X140423333Y-91407752D01*
X140423333Y-91407752D02*
X140423333Y-91522038D01*
X140423333Y-91522038D02*
X140456666Y-91674419D01*
X140456666Y-91674419D02*
X140490000Y-91750609D01*
X140490000Y-91750609D02*
X140556666Y-91826800D01*
X140556666Y-91826800D02*
X140656666Y-91864895D01*
X140656666Y-91864895D02*
X140723333Y-91864895D01*
X140723333Y-91864895D02*
X140823333Y-91826800D01*
X140823333Y-91826800D02*
X140856666Y-91788704D01*
X140856666Y-91788704D02*
X140856666Y-91522038D01*
X140856666Y-91522038D02*
X140723333Y-91522038D01*
X126664895Y-53871428D02*
X125864895Y-53871428D01*
X125864895Y-53871428D02*
X125864895Y-53680952D01*
X125864895Y-53680952D02*
X125902990Y-53566666D01*
X125902990Y-53566666D02*
X125979180Y-53490476D01*
X125979180Y-53490476D02*
X126055371Y-53452381D01*
X126055371Y-53452381D02*
X126207752Y-53414285D01*
X126207752Y-53414285D02*
X126322038Y-53414285D01*
X126322038Y-53414285D02*
X126474419Y-53452381D01*
X126474419Y-53452381D02*
X126550609Y-53490476D01*
X126550609Y-53490476D02*
X126626800Y-53566666D01*
X126626800Y-53566666D02*
X126664895Y-53680952D01*
X126664895Y-53680952D02*
X126664895Y-53871428D01*
X126664895Y-52652381D02*
X126664895Y-53109524D01*
X126664895Y-52880952D02*
X125864895Y-52880952D01*
X125864895Y-52880952D02*
X125979180Y-52957143D01*
X125979180Y-52957143D02*
X126055371Y-53033333D01*
X126055371Y-53033333D02*
X126093466Y-53109524D01*
X125864895Y-52385714D02*
X125864895Y-51890476D01*
X125864895Y-51890476D02*
X126169657Y-52157142D01*
X126169657Y-52157142D02*
X126169657Y-52042857D01*
X126169657Y-52042857D02*
X126207752Y-51966666D01*
X126207752Y-51966666D02*
X126245847Y-51928571D01*
X126245847Y-51928571D02*
X126322038Y-51890476D01*
X126322038Y-51890476D02*
X126512514Y-51890476D01*
X126512514Y-51890476D02*
X126588704Y-51928571D01*
X126588704Y-51928571D02*
X126626800Y-51966666D01*
X126626800Y-51966666D02*
X126664895Y-52042857D01*
X126664895Y-52042857D02*
X126664895Y-52271428D01*
X126664895Y-52271428D02*
X126626800Y-52347619D01*
X126626800Y-52347619D02*
X126588704Y-52385714D01*
X150610000Y-91636323D02*
X150943333Y-91636323D01*
X150543333Y-91864895D02*
X150776667Y-91064895D01*
X150776667Y-91064895D02*
X151010000Y-91864895D01*
X151376667Y-91064895D02*
X151443333Y-91064895D01*
X151443333Y-91064895D02*
X151510000Y-91102990D01*
X151510000Y-91102990D02*
X151543333Y-91141085D01*
X151543333Y-91141085D02*
X151576667Y-91217276D01*
X151576667Y-91217276D02*
X151610000Y-91369657D01*
X151610000Y-91369657D02*
X151610000Y-91560133D01*
X151610000Y-91560133D02*
X151576667Y-91712514D01*
X151576667Y-91712514D02*
X151543333Y-91788704D01*
X151543333Y-91788704D02*
X151510000Y-91826800D01*
X151510000Y-91826800D02*
X151443333Y-91864895D01*
X151443333Y-91864895D02*
X151376667Y-91864895D01*
X151376667Y-91864895D02*
X151310000Y-91826800D01*
X151310000Y-91826800D02*
X151276667Y-91788704D01*
X151276667Y-91788704D02*
X151243333Y-91712514D01*
X151243333Y-91712514D02*
X151210000Y-91560133D01*
X151210000Y-91560133D02*
X151210000Y-91369657D01*
X151210000Y-91369657D02*
X151243333Y-91217276D01*
X151243333Y-91217276D02*
X151276667Y-91141085D01*
X151276667Y-91141085D02*
X151310000Y-91102990D01*
X151310000Y-91102990D02*
X151376667Y-91064895D01*
X152943333Y-91636323D02*
X153276666Y-91636323D01*
X152876666Y-91864895D02*
X153110000Y-91064895D01*
X153110000Y-91064895D02*
X153343333Y-91864895D01*
X153943333Y-91864895D02*
X153543333Y-91864895D01*
X153743333Y-91864895D02*
X153743333Y-91064895D01*
X153743333Y-91064895D02*
X153676666Y-91179180D01*
X153676666Y-91179180D02*
X153610000Y-91255371D01*
X153610000Y-91255371D02*
X153543333Y-91293466D01*
X155276666Y-91636323D02*
X155609999Y-91636323D01*
X155209999Y-91864895D02*
X155443333Y-91064895D01*
X155443333Y-91064895D02*
X155676666Y-91864895D01*
X155876666Y-91141085D02*
X155909999Y-91102990D01*
X155909999Y-91102990D02*
X155976666Y-91064895D01*
X155976666Y-91064895D02*
X156143333Y-91064895D01*
X156143333Y-91064895D02*
X156209999Y-91102990D01*
X156209999Y-91102990D02*
X156243333Y-91141085D01*
X156243333Y-91141085D02*
X156276666Y-91217276D01*
X156276666Y-91217276D02*
X156276666Y-91293466D01*
X156276666Y-91293466D02*
X156243333Y-91407752D01*
X156243333Y-91407752D02*
X155843333Y-91864895D01*
X155843333Y-91864895D02*
X156276666Y-91864895D01*
X157609999Y-91636323D02*
X157943332Y-91636323D01*
X157543332Y-91864895D02*
X157776666Y-91064895D01*
X157776666Y-91064895D02*
X158009999Y-91864895D01*
X158176666Y-91064895D02*
X158609999Y-91064895D01*
X158609999Y-91064895D02*
X158376666Y-91369657D01*
X158376666Y-91369657D02*
X158476666Y-91369657D01*
X158476666Y-91369657D02*
X158543332Y-91407752D01*
X158543332Y-91407752D02*
X158576666Y-91445847D01*
X158576666Y-91445847D02*
X158609999Y-91522038D01*
X158609999Y-91522038D02*
X158609999Y-91712514D01*
X158609999Y-91712514D02*
X158576666Y-91788704D01*
X158576666Y-91788704D02*
X158543332Y-91826800D01*
X158543332Y-91826800D02*
X158476666Y-91864895D01*
X158476666Y-91864895D02*
X158276666Y-91864895D01*
X158276666Y-91864895D02*
X158209999Y-91826800D01*
X158209999Y-91826800D02*
X158176666Y-91788704D01*
D10*
X134853809Y-101724819D02*
X134853809Y-100724819D01*
X134853809Y-100724819D02*
X135234761Y-100724819D01*
X135234761Y-100724819D02*
X135329999Y-100772438D01*
X135329999Y-100772438D02*
X135377618Y-100820057D01*
X135377618Y-100820057D02*
X135425237Y-100915295D01*
X135425237Y-100915295D02*
X135425237Y-101058152D01*
X135425237Y-101058152D02*
X135377618Y-101153390D01*
X135377618Y-101153390D02*
X135329999Y-101201009D01*
X135329999Y-101201009D02*
X135234761Y-101248628D01*
X135234761Y-101248628D02*
X134853809Y-101248628D01*
X135996666Y-101724819D02*
X135901428Y-101677200D01*
X135901428Y-101677200D02*
X135853809Y-101629580D01*
X135853809Y-101629580D02*
X135806190Y-101534342D01*
X135806190Y-101534342D02*
X135806190Y-101248628D01*
X135806190Y-101248628D02*
X135853809Y-101153390D01*
X135853809Y-101153390D02*
X135901428Y-101105771D01*
X135901428Y-101105771D02*
X135996666Y-101058152D01*
X135996666Y-101058152D02*
X136139523Y-101058152D01*
X136139523Y-101058152D02*
X136234761Y-101105771D01*
X136234761Y-101105771D02*
X136282380Y-101153390D01*
X136282380Y-101153390D02*
X136329999Y-101248628D01*
X136329999Y-101248628D02*
X136329999Y-101534342D01*
X136329999Y-101534342D02*
X136282380Y-101629580D01*
X136282380Y-101629580D02*
X136234761Y-101677200D01*
X136234761Y-101677200D02*
X136139523Y-101724819D01*
X136139523Y-101724819D02*
X135996666Y-101724819D01*
X136663333Y-101058152D02*
X136853809Y-101724819D01*
X136853809Y-101724819D02*
X137044285Y-101248628D01*
X137044285Y-101248628D02*
X137234761Y-101724819D01*
X137234761Y-101724819D02*
X137425237Y-101058152D01*
X138187142Y-101677200D02*
X138091904Y-101724819D01*
X138091904Y-101724819D02*
X137901428Y-101724819D01*
X137901428Y-101724819D02*
X137806190Y-101677200D01*
X137806190Y-101677200D02*
X137758571Y-101581961D01*
X137758571Y-101581961D02*
X137758571Y-101201009D01*
X137758571Y-101201009D02*
X137806190Y-101105771D01*
X137806190Y-101105771D02*
X137901428Y-101058152D01*
X137901428Y-101058152D02*
X138091904Y-101058152D01*
X138091904Y-101058152D02*
X138187142Y-101105771D01*
X138187142Y-101105771D02*
X138234761Y-101201009D01*
X138234761Y-101201009D02*
X138234761Y-101296247D01*
X138234761Y-101296247D02*
X137758571Y-101391485D01*
X138663333Y-101724819D02*
X138663333Y-101058152D01*
X138663333Y-101248628D02*
X138710952Y-101153390D01*
X138710952Y-101153390D02*
X138758571Y-101105771D01*
X138758571Y-101105771D02*
X138853809Y-101058152D01*
X138853809Y-101058152D02*
X138949047Y-101058152D01*
X154840476Y-101439104D02*
X155316666Y-101439104D01*
X154745238Y-101724819D02*
X155078571Y-100724819D01*
X155078571Y-100724819D02*
X155411904Y-101724819D01*
X155745238Y-101058152D02*
X155745238Y-101724819D01*
X155745238Y-101153390D02*
X155792857Y-101105771D01*
X155792857Y-101105771D02*
X155888095Y-101058152D01*
X155888095Y-101058152D02*
X156030952Y-101058152D01*
X156030952Y-101058152D02*
X156126190Y-101105771D01*
X156126190Y-101105771D02*
X156173809Y-101201009D01*
X156173809Y-101201009D02*
X156173809Y-101724819D01*
X157078571Y-101724819D02*
X157078571Y-101201009D01*
X157078571Y-101201009D02*
X157030952Y-101105771D01*
X157030952Y-101105771D02*
X156935714Y-101058152D01*
X156935714Y-101058152D02*
X156745238Y-101058152D01*
X156745238Y-101058152D02*
X156650000Y-101105771D01*
X157078571Y-101677200D02*
X156983333Y-101724819D01*
X156983333Y-101724819D02*
X156745238Y-101724819D01*
X156745238Y-101724819D02*
X156650000Y-101677200D01*
X156650000Y-101677200D02*
X156602381Y-101581961D01*
X156602381Y-101581961D02*
X156602381Y-101486723D01*
X156602381Y-101486723D02*
X156650000Y-101391485D01*
X156650000Y-101391485D02*
X156745238Y-101343866D01*
X156745238Y-101343866D02*
X156983333Y-101343866D01*
X156983333Y-101343866D02*
X157078571Y-101296247D01*
X157697619Y-101724819D02*
X157602381Y-101677200D01*
X157602381Y-101677200D02*
X157554762Y-101581961D01*
X157554762Y-101581961D02*
X157554762Y-100724819D01*
X158221429Y-101724819D02*
X158126191Y-101677200D01*
X158126191Y-101677200D02*
X158078572Y-101629580D01*
X158078572Y-101629580D02*
X158030953Y-101534342D01*
X158030953Y-101534342D02*
X158030953Y-101248628D01*
X158030953Y-101248628D02*
X158078572Y-101153390D01*
X158078572Y-101153390D02*
X158126191Y-101105771D01*
X158126191Y-101105771D02*
X158221429Y-101058152D01*
X158221429Y-101058152D02*
X158364286Y-101058152D01*
X158364286Y-101058152D02*
X158459524Y-101105771D01*
X158459524Y-101105771D02*
X158507143Y-101153390D01*
X158507143Y-101153390D02*
X158554762Y-101248628D01*
X158554762Y-101248628D02*
X158554762Y-101534342D01*
X158554762Y-101534342D02*
X158507143Y-101629580D01*
X158507143Y-101629580D02*
X158459524Y-101677200D01*
X158459524Y-101677200D02*
X158364286Y-101724819D01*
X158364286Y-101724819D02*
X158221429Y-101724819D01*
X159411905Y-101058152D02*
X159411905Y-101867676D01*
X159411905Y-101867676D02*
X159364286Y-101962914D01*
X159364286Y-101962914D02*
X159316667Y-102010533D01*
X159316667Y-102010533D02*
X159221429Y-102058152D01*
X159221429Y-102058152D02*
X159078572Y-102058152D01*
X159078572Y-102058152D02*
X158983334Y-102010533D01*
X159411905Y-101677200D02*
X159316667Y-101724819D01*
X159316667Y-101724819D02*
X159126191Y-101724819D01*
X159126191Y-101724819D02*
X159030953Y-101677200D01*
X159030953Y-101677200D02*
X158983334Y-101629580D01*
X158983334Y-101629580D02*
X158935715Y-101534342D01*
X158935715Y-101534342D02*
X158935715Y-101248628D01*
X158935715Y-101248628D02*
X158983334Y-101153390D01*
X158983334Y-101153390D02*
X159030953Y-101105771D01*
X159030953Y-101105771D02*
X159126191Y-101058152D01*
X159126191Y-101058152D02*
X159316667Y-101058152D01*
X159316667Y-101058152D02*
X159411905Y-101105771D01*
X125868857Y-45844819D02*
X125868857Y-44844819D01*
X125868857Y-44844819D02*
X126106952Y-44844819D01*
X126106952Y-44844819D02*
X126249809Y-44892438D01*
X126249809Y-44892438D02*
X126345047Y-44987676D01*
X126345047Y-44987676D02*
X126392666Y-45082914D01*
X126392666Y-45082914D02*
X126440285Y-45273390D01*
X126440285Y-45273390D02*
X126440285Y-45416247D01*
X126440285Y-45416247D02*
X126392666Y-45606723D01*
X126392666Y-45606723D02*
X126345047Y-45701961D01*
X126345047Y-45701961D02*
X126249809Y-45797200D01*
X126249809Y-45797200D02*
X126106952Y-45844819D01*
X126106952Y-45844819D02*
X125868857Y-45844819D01*
X126868857Y-45844819D02*
X126868857Y-45178152D01*
X126868857Y-44844819D02*
X126821238Y-44892438D01*
X126821238Y-44892438D02*
X126868857Y-44940057D01*
X126868857Y-44940057D02*
X126916476Y-44892438D01*
X126916476Y-44892438D02*
X126868857Y-44844819D01*
X126868857Y-44844819D02*
X126868857Y-44940057D01*
X127773618Y-45178152D02*
X127773618Y-45987676D01*
X127773618Y-45987676D02*
X127725999Y-46082914D01*
X127725999Y-46082914D02*
X127678380Y-46130533D01*
X127678380Y-46130533D02*
X127583142Y-46178152D01*
X127583142Y-46178152D02*
X127440285Y-46178152D01*
X127440285Y-46178152D02*
X127345047Y-46130533D01*
X127773618Y-45797200D02*
X127678380Y-45844819D01*
X127678380Y-45844819D02*
X127487904Y-45844819D01*
X127487904Y-45844819D02*
X127392666Y-45797200D01*
X127392666Y-45797200D02*
X127345047Y-45749580D01*
X127345047Y-45749580D02*
X127297428Y-45654342D01*
X127297428Y-45654342D02*
X127297428Y-45368628D01*
X127297428Y-45368628D02*
X127345047Y-45273390D01*
X127345047Y-45273390D02*
X127392666Y-45225771D01*
X127392666Y-45225771D02*
X127487904Y-45178152D01*
X127487904Y-45178152D02*
X127678380Y-45178152D01*
X127678380Y-45178152D02*
X127773618Y-45225771D01*
X128249809Y-45844819D02*
X128249809Y-45178152D01*
X128249809Y-44844819D02*
X128202190Y-44892438D01*
X128202190Y-44892438D02*
X128249809Y-44940057D01*
X128249809Y-44940057D02*
X128297428Y-44892438D01*
X128297428Y-44892438D02*
X128249809Y-44844819D01*
X128249809Y-44844819D02*
X128249809Y-44940057D01*
X128583142Y-45178152D02*
X128964094Y-45178152D01*
X128725999Y-44844819D02*
X128725999Y-45701961D01*
X128725999Y-45701961D02*
X128773618Y-45797200D01*
X128773618Y-45797200D02*
X128868856Y-45844819D01*
X128868856Y-45844819D02*
X128964094Y-45844819D01*
X129725999Y-45844819D02*
X129725999Y-45321009D01*
X129725999Y-45321009D02*
X129678380Y-45225771D01*
X129678380Y-45225771D02*
X129583142Y-45178152D01*
X129583142Y-45178152D02*
X129392666Y-45178152D01*
X129392666Y-45178152D02*
X129297428Y-45225771D01*
X129725999Y-45797200D02*
X129630761Y-45844819D01*
X129630761Y-45844819D02*
X129392666Y-45844819D01*
X129392666Y-45844819D02*
X129297428Y-45797200D01*
X129297428Y-45797200D02*
X129249809Y-45701961D01*
X129249809Y-45701961D02*
X129249809Y-45606723D01*
X129249809Y-45606723D02*
X129297428Y-45511485D01*
X129297428Y-45511485D02*
X129392666Y-45463866D01*
X129392666Y-45463866D02*
X129630761Y-45463866D01*
X129630761Y-45463866D02*
X129725999Y-45416247D01*
X130345047Y-45844819D02*
X130249809Y-45797200D01*
X130249809Y-45797200D02*
X130202190Y-45701961D01*
X130202190Y-45701961D02*
X130202190Y-44844819D01*
X131440285Y-44797200D02*
X130583143Y-46082914D01*
X131773619Y-45844819D02*
X131773619Y-44844819D01*
X131773619Y-44844819D02*
X132154571Y-44844819D01*
X132154571Y-44844819D02*
X132249809Y-44892438D01*
X132249809Y-44892438D02*
X132297428Y-44940057D01*
X132297428Y-44940057D02*
X132345047Y-45035295D01*
X132345047Y-45035295D02*
X132345047Y-45178152D01*
X132345047Y-45178152D02*
X132297428Y-45273390D01*
X132297428Y-45273390D02*
X132249809Y-45321009D01*
X132249809Y-45321009D02*
X132154571Y-45368628D01*
X132154571Y-45368628D02*
X131773619Y-45368628D01*
X132678381Y-44844819D02*
X132916476Y-45844819D01*
X132916476Y-45844819D02*
X133106952Y-45130533D01*
X133106952Y-45130533D02*
X133297428Y-45844819D01*
X133297428Y-45844819D02*
X133535524Y-44844819D01*
X133916476Y-45844819D02*
X133916476Y-44844819D01*
X133916476Y-44844819D02*
X134249809Y-45559104D01*
X134249809Y-45559104D02*
X134583142Y-44844819D01*
X134583142Y-44844819D02*
X134583142Y-45844819D01*
X150252857Y-45844819D02*
X150252857Y-44844819D01*
X150252857Y-44844819D02*
X150490952Y-44844819D01*
X150490952Y-44844819D02*
X150633809Y-44892438D01*
X150633809Y-44892438D02*
X150729047Y-44987676D01*
X150729047Y-44987676D02*
X150776666Y-45082914D01*
X150776666Y-45082914D02*
X150824285Y-45273390D01*
X150824285Y-45273390D02*
X150824285Y-45416247D01*
X150824285Y-45416247D02*
X150776666Y-45606723D01*
X150776666Y-45606723D02*
X150729047Y-45701961D01*
X150729047Y-45701961D02*
X150633809Y-45797200D01*
X150633809Y-45797200D02*
X150490952Y-45844819D01*
X150490952Y-45844819D02*
X150252857Y-45844819D01*
X151252857Y-45844819D02*
X151252857Y-45178152D01*
X151252857Y-44844819D02*
X151205238Y-44892438D01*
X151205238Y-44892438D02*
X151252857Y-44940057D01*
X151252857Y-44940057D02*
X151300476Y-44892438D01*
X151300476Y-44892438D02*
X151252857Y-44844819D01*
X151252857Y-44844819D02*
X151252857Y-44940057D01*
X152157618Y-45178152D02*
X152157618Y-45987676D01*
X152157618Y-45987676D02*
X152109999Y-46082914D01*
X152109999Y-46082914D02*
X152062380Y-46130533D01*
X152062380Y-46130533D02*
X151967142Y-46178152D01*
X151967142Y-46178152D02*
X151824285Y-46178152D01*
X151824285Y-46178152D02*
X151729047Y-46130533D01*
X152157618Y-45797200D02*
X152062380Y-45844819D01*
X152062380Y-45844819D02*
X151871904Y-45844819D01*
X151871904Y-45844819D02*
X151776666Y-45797200D01*
X151776666Y-45797200D02*
X151729047Y-45749580D01*
X151729047Y-45749580D02*
X151681428Y-45654342D01*
X151681428Y-45654342D02*
X151681428Y-45368628D01*
X151681428Y-45368628D02*
X151729047Y-45273390D01*
X151729047Y-45273390D02*
X151776666Y-45225771D01*
X151776666Y-45225771D02*
X151871904Y-45178152D01*
X151871904Y-45178152D02*
X152062380Y-45178152D01*
X152062380Y-45178152D02*
X152157618Y-45225771D01*
X152633809Y-45844819D02*
X152633809Y-45178152D01*
X152633809Y-44844819D02*
X152586190Y-44892438D01*
X152586190Y-44892438D02*
X152633809Y-44940057D01*
X152633809Y-44940057D02*
X152681428Y-44892438D01*
X152681428Y-44892438D02*
X152633809Y-44844819D01*
X152633809Y-44844819D02*
X152633809Y-44940057D01*
X152967142Y-45178152D02*
X153348094Y-45178152D01*
X153109999Y-44844819D02*
X153109999Y-45701961D01*
X153109999Y-45701961D02*
X153157618Y-45797200D01*
X153157618Y-45797200D02*
X153252856Y-45844819D01*
X153252856Y-45844819D02*
X153348094Y-45844819D01*
X154109999Y-45844819D02*
X154109999Y-45321009D01*
X154109999Y-45321009D02*
X154062380Y-45225771D01*
X154062380Y-45225771D02*
X153967142Y-45178152D01*
X153967142Y-45178152D02*
X153776666Y-45178152D01*
X153776666Y-45178152D02*
X153681428Y-45225771D01*
X154109999Y-45797200D02*
X154014761Y-45844819D01*
X154014761Y-45844819D02*
X153776666Y-45844819D01*
X153776666Y-45844819D02*
X153681428Y-45797200D01*
X153681428Y-45797200D02*
X153633809Y-45701961D01*
X153633809Y-45701961D02*
X153633809Y-45606723D01*
X153633809Y-45606723D02*
X153681428Y-45511485D01*
X153681428Y-45511485D02*
X153776666Y-45463866D01*
X153776666Y-45463866D02*
X154014761Y-45463866D01*
X154014761Y-45463866D02*
X154109999Y-45416247D01*
X154729047Y-45844819D02*
X154633809Y-45797200D01*
X154633809Y-45797200D02*
X154586190Y-45701961D01*
X154586190Y-45701961D02*
X154586190Y-44844819D01*
X155824285Y-44797200D02*
X154967143Y-46082914D01*
X156157619Y-45844819D02*
X156157619Y-44844819D01*
X156157619Y-44844819D02*
X156538571Y-44844819D01*
X156538571Y-44844819D02*
X156633809Y-44892438D01*
X156633809Y-44892438D02*
X156681428Y-44940057D01*
X156681428Y-44940057D02*
X156729047Y-45035295D01*
X156729047Y-45035295D02*
X156729047Y-45178152D01*
X156729047Y-45178152D02*
X156681428Y-45273390D01*
X156681428Y-45273390D02*
X156633809Y-45321009D01*
X156633809Y-45321009D02*
X156538571Y-45368628D01*
X156538571Y-45368628D02*
X156157619Y-45368628D01*
X157062381Y-44844819D02*
X157300476Y-45844819D01*
X157300476Y-45844819D02*
X157490952Y-45130533D01*
X157490952Y-45130533D02*
X157681428Y-45844819D01*
X157681428Y-45844819D02*
X157919524Y-44844819D01*
X158300476Y-45844819D02*
X158300476Y-44844819D01*
X158300476Y-44844819D02*
X158633809Y-45559104D01*
X158633809Y-45559104D02*
X158967142Y-44844819D01*
X158967142Y-44844819D02*
X158967142Y-45844819D01*
X151071429Y-85659580D02*
X151119048Y-85707200D01*
X151119048Y-85707200D02*
X151071429Y-85754819D01*
X151071429Y-85754819D02*
X151023810Y-85707200D01*
X151023810Y-85707200D02*
X151071429Y-85659580D01*
X151071429Y-85659580D02*
X151071429Y-85754819D01*
X152071428Y-85754819D02*
X151500000Y-85754819D01*
X151785714Y-85754819D02*
X151785714Y-84754819D01*
X151785714Y-84754819D02*
X151690476Y-84897676D01*
X151690476Y-84897676D02*
X151595238Y-84992914D01*
X151595238Y-84992914D02*
X151500000Y-85040533D01*
X152928571Y-85088152D02*
X152928571Y-85754819D01*
X152500000Y-85088152D02*
X152500000Y-85611961D01*
X152500000Y-85611961D02*
X152547619Y-85707200D01*
X152547619Y-85707200D02*
X152642857Y-85754819D01*
X152642857Y-85754819D02*
X152785714Y-85754819D01*
X152785714Y-85754819D02*
X152880952Y-85707200D01*
X152880952Y-85707200D02*
X152928571Y-85659580D01*
X136627381Y-64657200D02*
X136770238Y-64704819D01*
X136770238Y-64704819D02*
X137008333Y-64704819D01*
X137008333Y-64704819D02*
X137103571Y-64657200D01*
X137103571Y-64657200D02*
X137151190Y-64609580D01*
X137151190Y-64609580D02*
X137198809Y-64514342D01*
X137198809Y-64514342D02*
X137198809Y-64419104D01*
X137198809Y-64419104D02*
X137151190Y-64323866D01*
X137151190Y-64323866D02*
X137103571Y-64276247D01*
X137103571Y-64276247D02*
X137008333Y-64228628D01*
X137008333Y-64228628D02*
X136817857Y-64181009D01*
X136817857Y-64181009D02*
X136722619Y-64133390D01*
X136722619Y-64133390D02*
X136675000Y-64085771D01*
X136675000Y-64085771D02*
X136627381Y-63990533D01*
X136627381Y-63990533D02*
X136627381Y-63895295D01*
X136627381Y-63895295D02*
X136675000Y-63800057D01*
X136675000Y-63800057D02*
X136722619Y-63752438D01*
X136722619Y-63752438D02*
X136817857Y-63704819D01*
X136817857Y-63704819D02*
X137055952Y-63704819D01*
X137055952Y-63704819D02*
X137198809Y-63752438D01*
X137627381Y-64704819D02*
X137627381Y-63704819D01*
X137627381Y-63704819D02*
X138008333Y-63704819D01*
X138008333Y-63704819D02*
X138103571Y-63752438D01*
X138103571Y-63752438D02*
X138151190Y-63800057D01*
X138151190Y-63800057D02*
X138198809Y-63895295D01*
X138198809Y-63895295D02*
X138198809Y-64038152D01*
X138198809Y-64038152D02*
X138151190Y-64133390D01*
X138151190Y-64133390D02*
X138103571Y-64181009D01*
X138103571Y-64181009D02*
X138008333Y-64228628D01*
X138008333Y-64228628D02*
X137627381Y-64228628D01*
X138817857Y-63704819D02*
X138913095Y-63704819D01*
X138913095Y-63704819D02*
X139008333Y-63752438D01*
X139008333Y-63752438D02*
X139055952Y-63800057D01*
X139055952Y-63800057D02*
X139103571Y-63895295D01*
X139103571Y-63895295D02*
X139151190Y-64085771D01*
X139151190Y-64085771D02*
X139151190Y-64323866D01*
X139151190Y-64323866D02*
X139103571Y-64514342D01*
X139103571Y-64514342D02*
X139055952Y-64609580D01*
X139055952Y-64609580D02*
X139008333Y-64657200D01*
X139008333Y-64657200D02*
X138913095Y-64704819D01*
X138913095Y-64704819D02*
X138817857Y-64704819D01*
X138817857Y-64704819D02*
X138722619Y-64657200D01*
X138722619Y-64657200D02*
X138675000Y-64609580D01*
X138675000Y-64609580D02*
X138627381Y-64514342D01*
X138627381Y-64514342D02*
X138579762Y-64323866D01*
X138579762Y-64323866D02*
X138579762Y-64085771D01*
X138579762Y-64085771D02*
X138627381Y-63895295D01*
X138627381Y-63895295D02*
X138675000Y-63800057D01*
X138675000Y-63800057D02*
X138722619Y-63752438D01*
X138722619Y-63752438D02*
X138817857Y-63704819D01*
X139532143Y-63800057D02*
X139579762Y-63752438D01*
X139579762Y-63752438D02*
X139675000Y-63704819D01*
X139675000Y-63704819D02*
X139913095Y-63704819D01*
X139913095Y-63704819D02*
X140008333Y-63752438D01*
X140008333Y-63752438D02*
X140055952Y-63800057D01*
X140055952Y-63800057D02*
X140103571Y-63895295D01*
X140103571Y-63895295D02*
X140103571Y-63990533D01*
X140103571Y-63990533D02*
X140055952Y-64133390D01*
X140055952Y-64133390D02*
X139484524Y-64704819D01*
X139484524Y-64704819D02*
X140103571Y-64704819D01*
X141008333Y-63704819D02*
X140532143Y-63704819D01*
X140532143Y-63704819D02*
X140484524Y-64181009D01*
X140484524Y-64181009D02*
X140532143Y-64133390D01*
X140532143Y-64133390D02*
X140627381Y-64085771D01*
X140627381Y-64085771D02*
X140865476Y-64085771D01*
X140865476Y-64085771D02*
X140960714Y-64133390D01*
X140960714Y-64133390D02*
X141008333Y-64181009D01*
X141008333Y-64181009D02*
X141055952Y-64276247D01*
X141055952Y-64276247D02*
X141055952Y-64514342D01*
X141055952Y-64514342D02*
X141008333Y-64609580D01*
X141008333Y-64609580D02*
X140960714Y-64657200D01*
X140960714Y-64657200D02*
X140865476Y-64704819D01*
X140865476Y-64704819D02*
X140627381Y-64704819D01*
X140627381Y-64704819D02*
X140532143Y-64657200D01*
X140532143Y-64657200D02*
X140484524Y-64609580D01*
X141913095Y-63704819D02*
X141722619Y-63704819D01*
X141722619Y-63704819D02*
X141627381Y-63752438D01*
X141627381Y-63752438D02*
X141579762Y-63800057D01*
X141579762Y-63800057D02*
X141484524Y-63942914D01*
X141484524Y-63942914D02*
X141436905Y-64133390D01*
X141436905Y-64133390D02*
X141436905Y-64514342D01*
X141436905Y-64514342D02*
X141484524Y-64609580D01*
X141484524Y-64609580D02*
X141532143Y-64657200D01*
X141532143Y-64657200D02*
X141627381Y-64704819D01*
X141627381Y-64704819D02*
X141817857Y-64704819D01*
X141817857Y-64704819D02*
X141913095Y-64657200D01*
X141913095Y-64657200D02*
X141960714Y-64609580D01*
X141960714Y-64609580D02*
X142008333Y-64514342D01*
X142008333Y-64514342D02*
X142008333Y-64276247D01*
X142008333Y-64276247D02*
X141960714Y-64181009D01*
X141960714Y-64181009D02*
X141913095Y-64133390D01*
X141913095Y-64133390D02*
X141817857Y-64085771D01*
X141817857Y-64085771D02*
X141627381Y-64085771D01*
X141627381Y-64085771D02*
X141532143Y-64133390D01*
X141532143Y-64133390D02*
X141484524Y-64181009D01*
X141484524Y-64181009D02*
X141436905Y-64276247D01*
X142389286Y-64419104D02*
X142865476Y-64419104D01*
X142294048Y-64704819D02*
X142627381Y-63704819D01*
X142627381Y-63704819D02*
X142960714Y-64704819D01*
X143294048Y-64323866D02*
X144055953Y-64323866D01*
X144484524Y-64419104D02*
X144960714Y-64419104D01*
X144389286Y-64704819D02*
X144722619Y-63704819D01*
X144722619Y-63704819D02*
X145055952Y-64704819D01*
X145865476Y-64704819D02*
X145389286Y-64704819D01*
X145389286Y-64704819D02*
X145389286Y-63704819D01*
X146151191Y-63800057D02*
X146198810Y-63752438D01*
X146198810Y-63752438D02*
X146294048Y-63704819D01*
X146294048Y-63704819D02*
X146532143Y-63704819D01*
X146532143Y-63704819D02*
X146627381Y-63752438D01*
X146627381Y-63752438D02*
X146675000Y-63800057D01*
X146675000Y-63800057D02*
X146722619Y-63895295D01*
X146722619Y-63895295D02*
X146722619Y-63990533D01*
X146722619Y-63990533D02*
X146675000Y-64133390D01*
X146675000Y-64133390D02*
X146103572Y-64704819D01*
X146103572Y-64704819D02*
X146722619Y-64704819D01*
X111932200Y-69903570D02*
X111979819Y-69760713D01*
X111979819Y-69760713D02*
X111979819Y-69522618D01*
X111979819Y-69522618D02*
X111932200Y-69427380D01*
X111932200Y-69427380D02*
X111884580Y-69379761D01*
X111884580Y-69379761D02*
X111789342Y-69332142D01*
X111789342Y-69332142D02*
X111694104Y-69332142D01*
X111694104Y-69332142D02*
X111598866Y-69379761D01*
X111598866Y-69379761D02*
X111551247Y-69427380D01*
X111551247Y-69427380D02*
X111503628Y-69522618D01*
X111503628Y-69522618D02*
X111456009Y-69713094D01*
X111456009Y-69713094D02*
X111408390Y-69808332D01*
X111408390Y-69808332D02*
X111360771Y-69855951D01*
X111360771Y-69855951D02*
X111265533Y-69903570D01*
X111265533Y-69903570D02*
X111170295Y-69903570D01*
X111170295Y-69903570D02*
X111075057Y-69855951D01*
X111075057Y-69855951D02*
X111027438Y-69808332D01*
X111027438Y-69808332D02*
X110979819Y-69713094D01*
X110979819Y-69713094D02*
X110979819Y-69474999D01*
X110979819Y-69474999D02*
X111027438Y-69332142D01*
X111979819Y-68903570D02*
X110979819Y-68903570D01*
X110979819Y-67951190D02*
X110979819Y-68427380D01*
X110979819Y-68427380D02*
X111456009Y-68474999D01*
X111456009Y-68474999D02*
X111408390Y-68427380D01*
X111408390Y-68427380D02*
X111360771Y-68332142D01*
X111360771Y-68332142D02*
X111360771Y-68094047D01*
X111360771Y-68094047D02*
X111408390Y-67998809D01*
X111408390Y-67998809D02*
X111456009Y-67951190D01*
X111456009Y-67951190D02*
X111551247Y-67903571D01*
X111551247Y-67903571D02*
X111789342Y-67903571D01*
X111789342Y-67903571D02*
X111884580Y-67951190D01*
X111884580Y-67951190D02*
X111932200Y-67998809D01*
X111932200Y-67998809D02*
X111979819Y-68094047D01*
X111979819Y-68094047D02*
X111979819Y-68332142D01*
X111979819Y-68332142D02*
X111932200Y-68427380D01*
X111932200Y-68427380D02*
X111884580Y-68474999D01*
X110979819Y-67570237D02*
X110979819Y-66951190D01*
X110979819Y-66951190D02*
X111360771Y-67284523D01*
X111360771Y-67284523D02*
X111360771Y-67141666D01*
X111360771Y-67141666D02*
X111408390Y-67046428D01*
X111408390Y-67046428D02*
X111456009Y-66998809D01*
X111456009Y-66998809D02*
X111551247Y-66951190D01*
X111551247Y-66951190D02*
X111789342Y-66951190D01*
X111789342Y-66951190D02*
X111884580Y-66998809D01*
X111884580Y-66998809D02*
X111932200Y-67046428D01*
X111932200Y-67046428D02*
X111979819Y-67141666D01*
X111979819Y-67141666D02*
X111979819Y-67427380D01*
X111979819Y-67427380D02*
X111932200Y-67522618D01*
X111932200Y-67522618D02*
X111884580Y-67570237D01*
X110979819Y-66046428D02*
X110979819Y-66522618D01*
X110979819Y-66522618D02*
X111456009Y-66570237D01*
X111456009Y-66570237D02*
X111408390Y-66522618D01*
X111408390Y-66522618D02*
X111360771Y-66427380D01*
X111360771Y-66427380D02*
X111360771Y-66189285D01*
X111360771Y-66189285D02*
X111408390Y-66094047D01*
X111408390Y-66094047D02*
X111456009Y-66046428D01*
X111456009Y-66046428D02*
X111551247Y-65998809D01*
X111551247Y-65998809D02*
X111789342Y-65998809D01*
X111789342Y-65998809D02*
X111884580Y-66046428D01*
X111884580Y-66046428D02*
X111932200Y-66094047D01*
X111932200Y-66094047D02*
X111979819Y-66189285D01*
X111979819Y-66189285D02*
X111979819Y-66427380D01*
X111979819Y-66427380D02*
X111932200Y-66522618D01*
X111932200Y-66522618D02*
X111884580Y-66570237D01*
X111979819Y-65046428D02*
X111979819Y-65617856D01*
X111979819Y-65332142D02*
X110979819Y-65332142D01*
X110979819Y-65332142D02*
X111122676Y-65427380D01*
X111122676Y-65427380D02*
X111217914Y-65522618D01*
X111217914Y-65522618D02*
X111265533Y-65617856D01*
X114629887Y-68157200D02*
X114772744Y-68204819D01*
X114772744Y-68204819D02*
X115010839Y-68204819D01*
X115010839Y-68204819D02*
X115106077Y-68157200D01*
X115106077Y-68157200D02*
X115153696Y-68109580D01*
X115153696Y-68109580D02*
X115201315Y-68014342D01*
X115201315Y-68014342D02*
X115201315Y-67919104D01*
X115201315Y-67919104D02*
X115153696Y-67823866D01*
X115153696Y-67823866D02*
X115106077Y-67776247D01*
X115106077Y-67776247D02*
X115010839Y-67728628D01*
X115010839Y-67728628D02*
X114820363Y-67681009D01*
X114820363Y-67681009D02*
X114725125Y-67633390D01*
X114725125Y-67633390D02*
X114677506Y-67585771D01*
X114677506Y-67585771D02*
X114629887Y-67490533D01*
X114629887Y-67490533D02*
X114629887Y-67395295D01*
X114629887Y-67395295D02*
X114677506Y-67300057D01*
X114677506Y-67300057D02*
X114725125Y-67252438D01*
X114725125Y-67252438D02*
X114820363Y-67204819D01*
X114820363Y-67204819D02*
X115058458Y-67204819D01*
X115058458Y-67204819D02*
X115201315Y-67252438D01*
X116201315Y-68109580D02*
X116153696Y-68157200D01*
X116153696Y-68157200D02*
X116010839Y-68204819D01*
X116010839Y-68204819D02*
X115915601Y-68204819D01*
X115915601Y-68204819D02*
X115772744Y-68157200D01*
X115772744Y-68157200D02*
X115677506Y-68061961D01*
X115677506Y-68061961D02*
X115629887Y-67966723D01*
X115629887Y-67966723D02*
X115582268Y-67776247D01*
X115582268Y-67776247D02*
X115582268Y-67633390D01*
X115582268Y-67633390D02*
X115629887Y-67442914D01*
X115629887Y-67442914D02*
X115677506Y-67347676D01*
X115677506Y-67347676D02*
X115772744Y-67252438D01*
X115772744Y-67252438D02*
X115915601Y-67204819D01*
X115915601Y-67204819D02*
X116010839Y-67204819D01*
X116010839Y-67204819D02*
X116153696Y-67252438D01*
X116153696Y-67252438D02*
X116201315Y-67300057D01*
X117106077Y-68204819D02*
X116629887Y-68204819D01*
X116629887Y-68204819D02*
X116629887Y-67204819D01*
X114248934Y-75729580D02*
X114201315Y-75777200D01*
X114201315Y-75777200D02*
X114058458Y-75824819D01*
X114058458Y-75824819D02*
X113963220Y-75824819D01*
X113963220Y-75824819D02*
X113820363Y-75777200D01*
X113820363Y-75777200D02*
X113725125Y-75681961D01*
X113725125Y-75681961D02*
X113677506Y-75586723D01*
X113677506Y-75586723D02*
X113629887Y-75396247D01*
X113629887Y-75396247D02*
X113629887Y-75253390D01*
X113629887Y-75253390D02*
X113677506Y-75062914D01*
X113677506Y-75062914D02*
X113725125Y-74967676D01*
X113725125Y-74967676D02*
X113820363Y-74872438D01*
X113820363Y-74872438D02*
X113963220Y-74824819D01*
X113963220Y-74824819D02*
X114058458Y-74824819D01*
X114058458Y-74824819D02*
X114201315Y-74872438D01*
X114201315Y-74872438D02*
X114248934Y-74920057D01*
X115153696Y-75824819D02*
X114677506Y-75824819D01*
X114677506Y-75824819D02*
X114677506Y-74824819D01*
X115487030Y-75824819D02*
X115487030Y-74824819D01*
X116058458Y-75824819D02*
X115629887Y-75253390D01*
X116058458Y-74824819D02*
X115487030Y-75396247D01*
X116677506Y-74824819D02*
X116772744Y-74824819D01*
X116772744Y-74824819D02*
X116867982Y-74872438D01*
X116867982Y-74872438D02*
X116915601Y-74920057D01*
X116915601Y-74920057D02*
X116963220Y-75015295D01*
X116963220Y-75015295D02*
X117010839Y-75205771D01*
X117010839Y-75205771D02*
X117010839Y-75443866D01*
X117010839Y-75443866D02*
X116963220Y-75634342D01*
X116963220Y-75634342D02*
X116915601Y-75729580D01*
X116915601Y-75729580D02*
X116867982Y-75777200D01*
X116867982Y-75777200D02*
X116772744Y-75824819D01*
X116772744Y-75824819D02*
X116677506Y-75824819D01*
X116677506Y-75824819D02*
X116582268Y-75777200D01*
X116582268Y-75777200D02*
X116534649Y-75729580D01*
X116534649Y-75729580D02*
X116487030Y-75634342D01*
X116487030Y-75634342D02*
X116439411Y-75443866D01*
X116439411Y-75443866D02*
X116439411Y-75205771D01*
X116439411Y-75205771D02*
X116487030Y-75015295D01*
X116487030Y-75015295D02*
X116534649Y-74920057D01*
X116534649Y-74920057D02*
X116582268Y-74872438D01*
X116582268Y-74872438D02*
X116677506Y-74824819D01*
X114582268Y-65617200D02*
X114725125Y-65664819D01*
X114725125Y-65664819D02*
X114963220Y-65664819D01*
X114963220Y-65664819D02*
X115058458Y-65617200D01*
X115058458Y-65617200D02*
X115106077Y-65569580D01*
X115106077Y-65569580D02*
X115153696Y-65474342D01*
X115153696Y-65474342D02*
X115153696Y-65379104D01*
X115153696Y-65379104D02*
X115106077Y-65283866D01*
X115106077Y-65283866D02*
X115058458Y-65236247D01*
X115058458Y-65236247D02*
X114963220Y-65188628D01*
X114963220Y-65188628D02*
X114772744Y-65141009D01*
X114772744Y-65141009D02*
X114677506Y-65093390D01*
X114677506Y-65093390D02*
X114629887Y-65045771D01*
X114629887Y-65045771D02*
X114582268Y-64950533D01*
X114582268Y-64950533D02*
X114582268Y-64855295D01*
X114582268Y-64855295D02*
X114629887Y-64760057D01*
X114629887Y-64760057D02*
X114677506Y-64712438D01*
X114677506Y-64712438D02*
X114772744Y-64664819D01*
X114772744Y-64664819D02*
X115010839Y-64664819D01*
X115010839Y-64664819D02*
X115153696Y-64712438D01*
X115582268Y-65664819D02*
X115582268Y-64664819D01*
X115582268Y-64664819D02*
X115820363Y-64664819D01*
X115820363Y-64664819D02*
X115963220Y-64712438D01*
X115963220Y-64712438D02*
X116058458Y-64807676D01*
X116058458Y-64807676D02*
X116106077Y-64902914D01*
X116106077Y-64902914D02*
X116153696Y-65093390D01*
X116153696Y-65093390D02*
X116153696Y-65236247D01*
X116153696Y-65236247D02*
X116106077Y-65426723D01*
X116106077Y-65426723D02*
X116058458Y-65521961D01*
X116058458Y-65521961D02*
X115963220Y-65617200D01*
X115963220Y-65617200D02*
X115820363Y-65664819D01*
X115820363Y-65664819D02*
X115582268Y-65664819D01*
X116534649Y-65379104D02*
X117010839Y-65379104D01*
X116439411Y-65664819D02*
X116772744Y-64664819D01*
X116772744Y-64664819D02*
X117106077Y-65664819D01*
X114248934Y-70649580D02*
X114201315Y-70697200D01*
X114201315Y-70697200D02*
X114058458Y-70744819D01*
X114058458Y-70744819D02*
X113963220Y-70744819D01*
X113963220Y-70744819D02*
X113820363Y-70697200D01*
X113820363Y-70697200D02*
X113725125Y-70601961D01*
X113725125Y-70601961D02*
X113677506Y-70506723D01*
X113677506Y-70506723D02*
X113629887Y-70316247D01*
X113629887Y-70316247D02*
X113629887Y-70173390D01*
X113629887Y-70173390D02*
X113677506Y-69982914D01*
X113677506Y-69982914D02*
X113725125Y-69887676D01*
X113725125Y-69887676D02*
X113820363Y-69792438D01*
X113820363Y-69792438D02*
X113963220Y-69744819D01*
X113963220Y-69744819D02*
X114058458Y-69744819D01*
X114058458Y-69744819D02*
X114201315Y-69792438D01*
X114201315Y-69792438D02*
X114248934Y-69840057D01*
X115153696Y-70744819D02*
X114677506Y-70744819D01*
X114677506Y-70744819D02*
X114677506Y-69744819D01*
X115487030Y-70744819D02*
X115487030Y-69744819D01*
X116058458Y-70744819D02*
X115629887Y-70173390D01*
X116058458Y-69744819D02*
X115487030Y-70316247D01*
X116439411Y-69840057D02*
X116487030Y-69792438D01*
X116487030Y-69792438D02*
X116582268Y-69744819D01*
X116582268Y-69744819D02*
X116820363Y-69744819D01*
X116820363Y-69744819D02*
X116915601Y-69792438D01*
X116915601Y-69792438D02*
X116963220Y-69840057D01*
X116963220Y-69840057D02*
X117010839Y-69935295D01*
X117010839Y-69935295D02*
X117010839Y-70030533D01*
X117010839Y-70030533D02*
X116963220Y-70173390D01*
X116963220Y-70173390D02*
X116391792Y-70744819D01*
X116391792Y-70744819D02*
X117010839Y-70744819D01*
X114915601Y-62172438D02*
X114820363Y-62124819D01*
X114820363Y-62124819D02*
X114677506Y-62124819D01*
X114677506Y-62124819D02*
X114534649Y-62172438D01*
X114534649Y-62172438D02*
X114439411Y-62267676D01*
X114439411Y-62267676D02*
X114391792Y-62362914D01*
X114391792Y-62362914D02*
X114344173Y-62553390D01*
X114344173Y-62553390D02*
X114344173Y-62696247D01*
X114344173Y-62696247D02*
X114391792Y-62886723D01*
X114391792Y-62886723D02*
X114439411Y-62981961D01*
X114439411Y-62981961D02*
X114534649Y-63077200D01*
X114534649Y-63077200D02*
X114677506Y-63124819D01*
X114677506Y-63124819D02*
X114772744Y-63124819D01*
X114772744Y-63124819D02*
X114915601Y-63077200D01*
X114915601Y-63077200D02*
X114963220Y-63029580D01*
X114963220Y-63029580D02*
X114963220Y-62696247D01*
X114963220Y-62696247D02*
X114772744Y-62696247D01*
X115391792Y-63124819D02*
X115391792Y-62124819D01*
X115391792Y-62124819D02*
X115963220Y-63124819D01*
X115963220Y-63124819D02*
X115963220Y-62124819D01*
X116439411Y-63124819D02*
X116439411Y-62124819D01*
X116439411Y-62124819D02*
X116677506Y-62124819D01*
X116677506Y-62124819D02*
X116820363Y-62172438D01*
X116820363Y-62172438D02*
X116915601Y-62267676D01*
X116915601Y-62267676D02*
X116963220Y-62362914D01*
X116963220Y-62362914D02*
X117010839Y-62553390D01*
X117010839Y-62553390D02*
X117010839Y-62696247D01*
X117010839Y-62696247D02*
X116963220Y-62886723D01*
X116963220Y-62886723D02*
X116915601Y-62981961D01*
X116915601Y-62981961D02*
X116820363Y-63077200D01*
X116820363Y-63077200D02*
X116677506Y-63124819D01*
X116677506Y-63124819D02*
X116439411Y-63124819D01*
X114248934Y-73189580D02*
X114201315Y-73237200D01*
X114201315Y-73237200D02*
X114058458Y-73284819D01*
X114058458Y-73284819D02*
X113963220Y-73284819D01*
X113963220Y-73284819D02*
X113820363Y-73237200D01*
X113820363Y-73237200D02*
X113725125Y-73141961D01*
X113725125Y-73141961D02*
X113677506Y-73046723D01*
X113677506Y-73046723D02*
X113629887Y-72856247D01*
X113629887Y-72856247D02*
X113629887Y-72713390D01*
X113629887Y-72713390D02*
X113677506Y-72522914D01*
X113677506Y-72522914D02*
X113725125Y-72427676D01*
X113725125Y-72427676D02*
X113820363Y-72332438D01*
X113820363Y-72332438D02*
X113963220Y-72284819D01*
X113963220Y-72284819D02*
X114058458Y-72284819D01*
X114058458Y-72284819D02*
X114201315Y-72332438D01*
X114201315Y-72332438D02*
X114248934Y-72380057D01*
X115153696Y-73284819D02*
X114677506Y-73284819D01*
X114677506Y-73284819D02*
X114677506Y-72284819D01*
X115487030Y-73284819D02*
X115487030Y-72284819D01*
X116058458Y-73284819D02*
X115629887Y-72713390D01*
X116058458Y-72284819D02*
X115487030Y-72856247D01*
X117010839Y-73284819D02*
X116439411Y-73284819D01*
X116725125Y-73284819D02*
X116725125Y-72284819D01*
X116725125Y-72284819D02*
X116629887Y-72427676D01*
X116629887Y-72427676D02*
X116534649Y-72522914D01*
X116534649Y-72522914D02*
X116439411Y-72570533D01*
X114915602Y-59584819D02*
X115248935Y-60584819D01*
X115248935Y-60584819D02*
X115582268Y-59584819D01*
X115915602Y-60584819D02*
X115915602Y-59584819D01*
X116391792Y-60584819D02*
X116391792Y-59584819D01*
X116391792Y-59584819D02*
X116963220Y-60584819D01*
X116963220Y-60584819D02*
X116963220Y-59584819D01*
X142710714Y-86054819D02*
X142139286Y-86054819D01*
X142425000Y-86054819D02*
X142425000Y-85054819D01*
X142425000Y-85054819D02*
X142329762Y-85197676D01*
X142329762Y-85197676D02*
X142234524Y-85292914D01*
X142234524Y-85292914D02*
X142139286Y-85340533D01*
X143139286Y-86054819D02*
X143139286Y-85054819D01*
X143710714Y-86054819D02*
X143282143Y-85483390D01*
X143710714Y-85054819D02*
X143139286Y-85626247D01*
X125096429Y-83979819D02*
X125715476Y-83979819D01*
X125715476Y-83979819D02*
X125382143Y-84360771D01*
X125382143Y-84360771D02*
X125525000Y-84360771D01*
X125525000Y-84360771D02*
X125620238Y-84408390D01*
X125620238Y-84408390D02*
X125667857Y-84456009D01*
X125667857Y-84456009D02*
X125715476Y-84551247D01*
X125715476Y-84551247D02*
X125715476Y-84789342D01*
X125715476Y-84789342D02*
X125667857Y-84884580D01*
X125667857Y-84884580D02*
X125620238Y-84932200D01*
X125620238Y-84932200D02*
X125525000Y-84979819D01*
X125525000Y-84979819D02*
X125239286Y-84979819D01*
X125239286Y-84979819D02*
X125144048Y-84932200D01*
X125144048Y-84932200D02*
X125096429Y-84884580D01*
X126144048Y-84884580D02*
X126191667Y-84932200D01*
X126191667Y-84932200D02*
X126144048Y-84979819D01*
X126144048Y-84979819D02*
X126096429Y-84932200D01*
X126096429Y-84932200D02*
X126144048Y-84884580D01*
X126144048Y-84884580D02*
X126144048Y-84979819D01*
X127096428Y-83979819D02*
X126620238Y-83979819D01*
X126620238Y-83979819D02*
X126572619Y-84456009D01*
X126572619Y-84456009D02*
X126620238Y-84408390D01*
X126620238Y-84408390D02*
X126715476Y-84360771D01*
X126715476Y-84360771D02*
X126953571Y-84360771D01*
X126953571Y-84360771D02*
X127048809Y-84408390D01*
X127048809Y-84408390D02*
X127096428Y-84456009D01*
X127096428Y-84456009D02*
X127144047Y-84551247D01*
X127144047Y-84551247D02*
X127144047Y-84789342D01*
X127144047Y-84789342D02*
X127096428Y-84884580D01*
X127096428Y-84884580D02*
X127048809Y-84932200D01*
X127048809Y-84932200D02*
X126953571Y-84979819D01*
X126953571Y-84979819D02*
X126715476Y-84979819D01*
X126715476Y-84979819D02*
X126620238Y-84932200D01*
X126620238Y-84932200D02*
X126572619Y-84884580D01*
X127477381Y-83979819D02*
X128144047Y-83979819D01*
X128144047Y-83979819D02*
X127715476Y-84979819D01*
X128572619Y-84979819D02*
X128763095Y-84979819D01*
X128763095Y-84979819D02*
X128858333Y-84932200D01*
X128858333Y-84932200D02*
X128905952Y-84884580D01*
X128905952Y-84884580D02*
X129001190Y-84741723D01*
X129001190Y-84741723D02*
X129048809Y-84551247D01*
X129048809Y-84551247D02*
X129048809Y-84170295D01*
X129048809Y-84170295D02*
X129001190Y-84075057D01*
X129001190Y-84075057D02*
X128953571Y-84027438D01*
X128953571Y-84027438D02*
X128858333Y-83979819D01*
X128858333Y-83979819D02*
X128667857Y-83979819D01*
X128667857Y-83979819D02*
X128572619Y-84027438D01*
X128572619Y-84027438D02*
X128525000Y-84075057D01*
X128525000Y-84075057D02*
X128477381Y-84170295D01*
X128477381Y-84170295D02*
X128477381Y-84408390D01*
X128477381Y-84408390D02*
X128525000Y-84503628D01*
X128525000Y-84503628D02*
X128572619Y-84551247D01*
X128572619Y-84551247D02*
X128667857Y-84598866D01*
X128667857Y-84598866D02*
X128858333Y-84598866D01*
X128858333Y-84598866D02*
X128953571Y-84551247D01*
X128953571Y-84551247D02*
X129001190Y-84503628D01*
X129001190Y-84503628D02*
X129048809Y-84408390D01*
X129953571Y-83979819D02*
X129477381Y-83979819D01*
X129477381Y-83979819D02*
X129429762Y-84456009D01*
X129429762Y-84456009D02*
X129477381Y-84408390D01*
X129477381Y-84408390D02*
X129572619Y-84360771D01*
X129572619Y-84360771D02*
X129810714Y-84360771D01*
X129810714Y-84360771D02*
X129905952Y-84408390D01*
X129905952Y-84408390D02*
X129953571Y-84456009D01*
X129953571Y-84456009D02*
X130001190Y-84551247D01*
X130001190Y-84551247D02*
X130001190Y-84789342D01*
X130001190Y-84789342D02*
X129953571Y-84884580D01*
X129953571Y-84884580D02*
X129905952Y-84932200D01*
X129905952Y-84932200D02*
X129810714Y-84979819D01*
X129810714Y-84979819D02*
X129572619Y-84979819D01*
X129572619Y-84979819D02*
X129477381Y-84932200D01*
X129477381Y-84932200D02*
X129429762Y-84884580D01*
X130858333Y-84313152D02*
X130858333Y-84979819D01*
X130620238Y-83932200D02*
X130382143Y-84646485D01*
X130382143Y-84646485D02*
X131001190Y-84646485D01*
X131858333Y-83979819D02*
X131382143Y-83979819D01*
X131382143Y-83979819D02*
X131334524Y-84456009D01*
X131334524Y-84456009D02*
X131382143Y-84408390D01*
X131382143Y-84408390D02*
X131477381Y-84360771D01*
X131477381Y-84360771D02*
X131715476Y-84360771D01*
X131715476Y-84360771D02*
X131810714Y-84408390D01*
X131810714Y-84408390D02*
X131858333Y-84456009D01*
X131858333Y-84456009D02*
X131905952Y-84551247D01*
X131905952Y-84551247D02*
X131905952Y-84789342D01*
X131905952Y-84789342D02*
X131858333Y-84884580D01*
X131858333Y-84884580D02*
X131810714Y-84932200D01*
X131810714Y-84932200D02*
X131715476Y-84979819D01*
X131715476Y-84979819D02*
X131477381Y-84979819D01*
X131477381Y-84979819D02*
X131382143Y-84932200D01*
X131382143Y-84932200D02*
X131334524Y-84884580D01*
X151096429Y-88884580D02*
X151144048Y-88932200D01*
X151144048Y-88932200D02*
X151096429Y-88979819D01*
X151096429Y-88979819D02*
X151048810Y-88932200D01*
X151048810Y-88932200D02*
X151096429Y-88884580D01*
X151096429Y-88884580D02*
X151096429Y-88979819D01*
X152096428Y-88979819D02*
X151525000Y-88979819D01*
X151810714Y-88979819D02*
X151810714Y-87979819D01*
X151810714Y-87979819D02*
X151715476Y-88122676D01*
X151715476Y-88122676D02*
X151620238Y-88217914D01*
X151620238Y-88217914D02*
X151525000Y-88265533D01*
X152953571Y-88313152D02*
X152953571Y-88979819D01*
X152525000Y-88313152D02*
X152525000Y-88836961D01*
X152525000Y-88836961D02*
X152572619Y-88932200D01*
X152572619Y-88932200D02*
X152667857Y-88979819D01*
X152667857Y-88979819D02*
X152810714Y-88979819D01*
X152810714Y-88979819D02*
X152905952Y-88932200D01*
X152905952Y-88932200D02*
X152953571Y-88884580D01*
X142846429Y-75384580D02*
X142894048Y-75432200D01*
X142894048Y-75432200D02*
X142846429Y-75479819D01*
X142846429Y-75479819D02*
X142798810Y-75432200D01*
X142798810Y-75432200D02*
X142846429Y-75384580D01*
X142846429Y-75384580D02*
X142846429Y-75479819D01*
X143846428Y-75479819D02*
X143275000Y-75479819D01*
X143560714Y-75479819D02*
X143560714Y-74479819D01*
X143560714Y-74479819D02*
X143465476Y-74622676D01*
X143465476Y-74622676D02*
X143370238Y-74717914D01*
X143370238Y-74717914D02*
X143275000Y-74765533D01*
X144703571Y-74813152D02*
X144703571Y-75479819D01*
X144275000Y-74813152D02*
X144275000Y-75336961D01*
X144275000Y-75336961D02*
X144322619Y-75432200D01*
X144322619Y-75432200D02*
X144417857Y-75479819D01*
X144417857Y-75479819D02*
X144560714Y-75479819D01*
X144560714Y-75479819D02*
X144655952Y-75432200D01*
X144655952Y-75432200D02*
X144703571Y-75384580D01*
X142685714Y-89254819D02*
X142114286Y-89254819D01*
X142400000Y-89254819D02*
X142400000Y-88254819D01*
X142400000Y-88254819D02*
X142304762Y-88397676D01*
X142304762Y-88397676D02*
X142209524Y-88492914D01*
X142209524Y-88492914D02*
X142114286Y-88540533D01*
X143114286Y-89254819D02*
X143114286Y-88254819D01*
X143685714Y-89254819D02*
X143257143Y-88683390D01*
X143685714Y-88254819D02*
X143114286Y-88826247D01*
X151633333Y-76204819D02*
X151061905Y-76204819D01*
X151347619Y-76204819D02*
X151347619Y-75204819D01*
X151347619Y-75204819D02*
X151252381Y-75347676D01*
X151252381Y-75347676D02*
X151157143Y-75442914D01*
X151157143Y-75442914D02*
X151061905Y-75490533D01*
X152490476Y-75538152D02*
X152490476Y-76204819D01*
X152061905Y-75538152D02*
X152061905Y-76061961D01*
X152061905Y-76061961D02*
X152109524Y-76157200D01*
X152109524Y-76157200D02*
X152204762Y-76204819D01*
X152204762Y-76204819D02*
X152347619Y-76204819D01*
X152347619Y-76204819D02*
X152442857Y-76157200D01*
X152442857Y-76157200D02*
X152490476Y-76109580D01*
D12*
%TO.C,JP2*%
X124775000Y-94100000D02*
X124775000Y-93500000D01*
X125475000Y-92800000D02*
X126875000Y-92800000D01*
X126875000Y-94800000D02*
X125475000Y-94800000D01*
X127575000Y-93500000D02*
X127575000Y-94100000D01*
X124775000Y-93500000D02*
G75*
G02*
X125475000Y-92800000I699999J1D01*
G01*
X125475000Y-94800000D02*
G75*
G02*
X124775000Y-94100000I-1J699999D01*
G01*
X126875000Y-92800000D02*
G75*
G02*
X127575000Y-93500000I0J-700000D01*
G01*
X127575000Y-94100000D02*
G75*
G02*
X126875000Y-94800000I-700000J0D01*
G01*
%TO.C,J10*%
X121370000Y-92470000D02*
X122700000Y-92470000D01*
X121370000Y-93800000D02*
X121370000Y-92470000D01*
X121370000Y-95070000D02*
X121370000Y-95130000D01*
X121370000Y-95070000D02*
X124030000Y-95070000D01*
X121370000Y-95130000D02*
X124030000Y-95130000D01*
X124030000Y-95070000D02*
X124030000Y-95130000D01*
%TO.C,J1*%
X126610000Y-96130000D02*
X127940000Y-96130000D01*
X126610000Y-97460000D02*
X126610000Y-96130000D01*
X129210000Y-96130000D02*
X147050000Y-96130000D01*
X129210000Y-98790000D02*
X129210000Y-96130000D01*
X129210000Y-98790000D02*
X147050000Y-98790000D01*
X147050000Y-98790000D02*
X147050000Y-96130000D01*
%TO.C,J3*%
X149470000Y-96130000D02*
X150800000Y-96130000D01*
X149470000Y-97460000D02*
X149470000Y-96130000D01*
X152070000Y-96130000D02*
X164830000Y-96130000D01*
X152070000Y-98790000D02*
X152070000Y-96130000D01*
X152070000Y-98790000D02*
X164830000Y-98790000D01*
X164830000Y-98790000D02*
X164830000Y-96130000D01*
%TO.C,J2*%
X117466000Y-47870000D02*
X118796000Y-47870000D01*
X117466000Y-49200000D02*
X117466000Y-47870000D01*
X120066000Y-47870000D02*
X142986000Y-47870000D01*
X120066000Y-50530000D02*
X120066000Y-47870000D01*
X120066000Y-50530000D02*
X142986000Y-50530000D01*
X142986000Y-50530000D02*
X142986000Y-47870000D01*
%TO.C,J4*%
X144390000Y-47870000D02*
X145720000Y-47870000D01*
X144390000Y-49200000D02*
X144390000Y-47870000D01*
X146990000Y-47870000D02*
X164830000Y-47870000D01*
X146990000Y-50530000D02*
X146990000Y-47870000D01*
X146990000Y-50530000D02*
X164830000Y-50530000D01*
X164830000Y-50530000D02*
X164830000Y-47870000D01*
%TO.C,C2*%
X148880000Y-84575000D02*
X148880000Y-84130000D01*
X148880000Y-86870000D02*
X148880000Y-86425000D01*
X155120000Y-84130000D02*
X148880000Y-84130000D01*
X155120000Y-84575000D02*
X155120000Y-84130000D01*
X155120000Y-86870000D02*
X148880000Y-86870000D01*
X155120000Y-86870000D02*
X155120000Y-86425000D01*
%TO.C,U1*%
X124825000Y-55295000D02*
X124825000Y-73195000D01*
X124825000Y-73195000D02*
X160625000Y-73195000D01*
X124885000Y-57785000D02*
X124885000Y-63245000D01*
X124885000Y-65245000D02*
X124885000Y-70705000D01*
X124885000Y-70705000D02*
X160565000Y-70705000D01*
X160565000Y-57785000D02*
X124885000Y-57785000D01*
X160565000Y-70705000D02*
X160565000Y-57785000D01*
X160625000Y-55295000D02*
X124825000Y-55295000D01*
X160625000Y-73195000D02*
X160625000Y-55295000D01*
X124885000Y-63245000D02*
G75*
G02*
X124885000Y-65245000I0J-1000000D01*
G01*
%TO.C,U2*%
X100300000Y-52750000D02*
X121300000Y-52750000D01*
X121300000Y-82750000D01*
X100300000Y-82750000D01*
X100300000Y-52750000D01*
%TO.C,R2*%
X139540000Y-84130000D02*
X146080000Y-84130000D01*
X139540000Y-84460000D02*
X139540000Y-84130000D01*
X139540000Y-86540000D02*
X139540000Y-86870000D01*
X139540000Y-86870000D02*
X146080000Y-86870000D01*
X146080000Y-84130000D02*
X146080000Y-84460000D01*
X146080000Y-86870000D02*
X146080000Y-86540000D01*
%TO.C,J5*%
X156375000Y-77000000D02*
X167375000Y-77000000D01*
X156375000Y-89000000D02*
X156375000Y-77000000D01*
X167375000Y-77000000D02*
X167375000Y-78500000D01*
X167375000Y-78500000D02*
X168575000Y-78500000D01*
X167375000Y-81000000D02*
X167375000Y-85000000D01*
X167375000Y-85000000D02*
X170375000Y-85000000D01*
X167375000Y-87500000D02*
X167375000Y-89000000D01*
X167375000Y-89000000D02*
X156375000Y-89000000D01*
X168575000Y-78500000D02*
X168575000Y-80000000D01*
X168575000Y-80000000D02*
X170375000Y-80000000D01*
X168575000Y-86000000D02*
X168575000Y-87500000D01*
X168575000Y-87500000D02*
X167375000Y-87500000D01*
X170375000Y-80000000D02*
X170375000Y-86000000D01*
X170375000Y-81000000D02*
X167375000Y-81000000D01*
X170375000Y-86000000D02*
X168575000Y-86000000D01*
%TO.C,X1*%
X121860000Y-78990000D02*
X121860000Y-91140000D01*
X121860000Y-91140000D02*
X134010000Y-91140000D01*
X134010000Y-78240000D02*
X122610000Y-78240000D01*
X134760000Y-90390000D02*
X134760000Y-78990000D01*
X121860000Y-78990000D02*
G75*
G02*
X122610000Y-78240000I750000J0D01*
G01*
X134010000Y-78240000D02*
G75*
G02*
X134760000Y-78990000I0J-750000D01*
G01*
X134760000Y-90390000D02*
G75*
G02*
X134010000Y-91140000I-750000J0D01*
G01*
%TO.C,JP1*%
X128850000Y-74750000D02*
X132950000Y-74750000D01*
X128850000Y-76750000D02*
X128850000Y-74750000D01*
X132950000Y-74750000D02*
X132950000Y-76750000D01*
X132950000Y-76750000D02*
X128850000Y-76750000D01*
%TO.C,J6*%
X127626000Y-51570000D02*
X127626000Y-54230000D01*
X135306000Y-51570000D02*
X127626000Y-51570000D01*
X135306000Y-51570000D02*
X135306000Y-54230000D01*
X135306000Y-54230000D02*
X127626000Y-54230000D01*
X136576000Y-51570000D02*
X137906000Y-51570000D01*
X137906000Y-51570000D02*
X137906000Y-52900000D01*
%TO.C,C1*%
X148880000Y-87875000D02*
X148880000Y-87430000D01*
X148880000Y-90170000D02*
X148880000Y-89725000D01*
X155120000Y-87430000D02*
X148880000Y-87430000D01*
X155120000Y-87875000D02*
X155120000Y-87430000D01*
X155120000Y-90170000D02*
X148880000Y-90170000D01*
X155120000Y-90170000D02*
X155120000Y-89725000D01*
%TO.C,J9*%
X134230000Y-95130000D02*
X134230000Y-93800000D01*
X135560000Y-95130000D02*
X134230000Y-95130000D01*
X136830000Y-92470000D02*
X147050000Y-92470000D01*
X136830000Y-95130000D02*
X136830000Y-92470000D01*
X136830000Y-95130000D02*
X147050000Y-95130000D01*
X147050000Y-95130000D02*
X147050000Y-92470000D01*
%TO.C,C4*%
X140780000Y-74275000D02*
X140780000Y-73830000D01*
X140780000Y-76570000D02*
X140780000Y-76125000D01*
X147020000Y-73830000D02*
X140780000Y-73830000D01*
X147020000Y-74275000D02*
X147020000Y-73830000D01*
X147020000Y-76570000D02*
X140780000Y-76570000D01*
X147020000Y-76570000D02*
X147020000Y-76125000D01*
%TO.C,J8*%
X159630000Y-51570000D02*
X159630000Y-54230000D01*
X162230000Y-51570000D02*
X159630000Y-51570000D01*
X162230000Y-51570000D02*
X162230000Y-54230000D01*
X162230000Y-54230000D02*
X159630000Y-54230000D01*
X163500000Y-51570000D02*
X164830000Y-51570000D01*
X164830000Y-51570000D02*
X164830000Y-52900000D01*
%TO.C,R1*%
X139540000Y-87430000D02*
X146080000Y-87430000D01*
X139540000Y-87760000D02*
X139540000Y-87430000D01*
X139540000Y-89840000D02*
X139540000Y-90170000D01*
X139540000Y-90170000D02*
X146080000Y-90170000D01*
X146080000Y-87430000D02*
X146080000Y-87760000D01*
X146080000Y-90170000D02*
X146080000Y-89840000D01*
%TO.C,J7*%
X149470000Y-95130000D02*
X149470000Y-93800000D01*
X150800000Y-95130000D02*
X149470000Y-95130000D01*
X152070000Y-92470000D02*
X159750000Y-92470000D01*
X152070000Y-95130000D02*
X152070000Y-92470000D01*
X152070000Y-95130000D02*
X159750000Y-95130000D01*
X159750000Y-95130000D02*
X159750000Y-92470000D01*
%TO.C,C3*%
X148520000Y-80170000D02*
X154980000Y-80170000D01*
X148520000Y-80210000D02*
X154980000Y-80210000D01*
X148520000Y-80250000D02*
X154980000Y-80250000D01*
X148522000Y-80130000D02*
X154978000Y-80130000D01*
X148523000Y-80090000D02*
X154977000Y-80090000D01*
X148526000Y-80050000D02*
X154974000Y-80050000D01*
X148528000Y-80010000D02*
X150710000Y-80010000D01*
X148532000Y-79970000D02*
X150710000Y-79970000D01*
X148535000Y-79930000D02*
X150710000Y-79930000D01*
X148539000Y-79890000D02*
X150710000Y-79890000D01*
X148544000Y-79850000D02*
X150710000Y-79850000D01*
X148549000Y-79810000D02*
X150710000Y-79810000D01*
X148555000Y-79770000D02*
X150710000Y-79770000D01*
X148561000Y-79730000D02*
X150710000Y-79730000D01*
X148568000Y-79690000D02*
X150710000Y-79690000D01*
X148575000Y-79650000D02*
X150710000Y-79650000D01*
X148583000Y-79610000D02*
X150710000Y-79610000D01*
X148591000Y-79570000D02*
X150710000Y-79570000D01*
X148600000Y-79529000D02*
X150710000Y-79529000D01*
X148609000Y-79489000D02*
X150710000Y-79489000D01*
X148619000Y-79449000D02*
X150710000Y-79449000D01*
X148629000Y-79409000D02*
X150710000Y-79409000D01*
X148640000Y-79369000D02*
X150710000Y-79369000D01*
X148652000Y-79329000D02*
X150710000Y-79329000D01*
X148664000Y-79289000D02*
X150710000Y-79289000D01*
X148676000Y-79249000D02*
X150710000Y-79249000D01*
X148689000Y-79209000D02*
X150710000Y-79209000D01*
X148703000Y-79169000D02*
X150710000Y-79169000D01*
X148717000Y-79129000D02*
X150710000Y-79129000D01*
X148732000Y-79089000D02*
X150710000Y-79089000D01*
X148748000Y-79049000D02*
X150710000Y-79049000D01*
X148764000Y-79009000D02*
X150710000Y-79009000D01*
X148780000Y-78969000D02*
X150710000Y-78969000D01*
X148798000Y-78929000D02*
X150710000Y-78929000D01*
X148816000Y-78889000D02*
X150710000Y-78889000D01*
X148834000Y-78849000D02*
X150710000Y-78849000D01*
X148854000Y-78809000D02*
X150710000Y-78809000D01*
X148874000Y-78769000D02*
X150710000Y-78769000D01*
X148894000Y-78729000D02*
X150710000Y-78729000D01*
X148916000Y-78689000D02*
X150710000Y-78689000D01*
X148938000Y-78649000D02*
X150710000Y-78649000D01*
X148960000Y-78609000D02*
X150710000Y-78609000D01*
X148984000Y-78569000D02*
X150710000Y-78569000D01*
X149008000Y-78529000D02*
X150710000Y-78529000D01*
X149034000Y-78489000D02*
X150710000Y-78489000D01*
X149060000Y-78449000D02*
X150710000Y-78449000D01*
X149086000Y-78409000D02*
X150710000Y-78409000D01*
X149114000Y-78369000D02*
X150710000Y-78369000D01*
X149143000Y-78329000D02*
X150710000Y-78329000D01*
X149172000Y-78289000D02*
X150710000Y-78289000D01*
X149202000Y-78249000D02*
X150710000Y-78249000D01*
X149234000Y-78209000D02*
X150710000Y-78209000D01*
X149266000Y-78169000D02*
X150710000Y-78169000D01*
X149300000Y-78129000D02*
X150710000Y-78129000D01*
X149334000Y-78089000D02*
X150710000Y-78089000D01*
X149370000Y-78049000D02*
X150710000Y-78049000D01*
X149407000Y-78009000D02*
X150710000Y-78009000D01*
X149445000Y-77969000D02*
X150710000Y-77969000D01*
X149485000Y-77929000D02*
X154015000Y-77929000D01*
X149526000Y-77889000D02*
X153974000Y-77889000D01*
X149568000Y-77849000D02*
X153932000Y-77849000D01*
X149596000Y-83435241D02*
X150226000Y-83435241D01*
X149613000Y-77809000D02*
X153887000Y-77809000D01*
X149658000Y-77769000D02*
X153842000Y-77769000D01*
X149706000Y-77729000D02*
X153794000Y-77729000D01*
X149755000Y-77689000D02*
X153745000Y-77689000D01*
X149806000Y-77649000D02*
X153694000Y-77649000D01*
X149860000Y-77609000D02*
X153640000Y-77609000D01*
X149911000Y-83750241D02*
X149911000Y-83120241D01*
X149916000Y-77569000D02*
X153584000Y-77569000D01*
X149974000Y-77529000D02*
X153526000Y-77529000D01*
X150036000Y-77489000D02*
X153464000Y-77489000D01*
X150100000Y-77449000D02*
X153400000Y-77449000D01*
X150169000Y-77409000D02*
X153331000Y-77409000D01*
X150241000Y-77369000D02*
X153259000Y-77369000D01*
X150318000Y-77329000D02*
X153182000Y-77329000D01*
X150400000Y-77289000D02*
X153100000Y-77289000D01*
X150488000Y-77249000D02*
X153012000Y-77249000D01*
X150585000Y-77209000D02*
X152915000Y-77209000D01*
X150691000Y-77169000D02*
X152809000Y-77169000D01*
X150810000Y-77129000D02*
X152690000Y-77129000D01*
X150948000Y-77089000D02*
X152552000Y-77089000D01*
X151117000Y-77049000D02*
X152383000Y-77049000D01*
X151348000Y-77009000D02*
X152152000Y-77009000D01*
X152790000Y-77969000D02*
X154055000Y-77969000D01*
X152790000Y-78009000D02*
X154093000Y-78009000D01*
X152790000Y-78049000D02*
X154130000Y-78049000D01*
X152790000Y-78089000D02*
X154166000Y-78089000D01*
X152790000Y-78129000D02*
X154200000Y-78129000D01*
X152790000Y-78169000D02*
X154234000Y-78169000D01*
X152790000Y-78209000D02*
X154266000Y-78209000D01*
X152790000Y-78249000D02*
X154298000Y-78249000D01*
X152790000Y-78289000D02*
X154328000Y-78289000D01*
X152790000Y-78329000D02*
X154357000Y-78329000D01*
X152790000Y-78369000D02*
X154386000Y-78369000D01*
X152790000Y-78409000D02*
X154414000Y-78409000D01*
X152790000Y-78449000D02*
X154440000Y-78449000D01*
X152790000Y-78489000D02*
X154466000Y-78489000D01*
X152790000Y-78529000D02*
X154492000Y-78529000D01*
X152790000Y-78569000D02*
X154516000Y-78569000D01*
X152790000Y-78609000D02*
X154540000Y-78609000D01*
X152790000Y-78649000D02*
X154562000Y-78649000D01*
X152790000Y-78689000D02*
X154584000Y-78689000D01*
X152790000Y-78729000D02*
X154606000Y-78729000D01*
X152790000Y-78769000D02*
X154626000Y-78769000D01*
X152790000Y-78809000D02*
X154646000Y-78809000D01*
X152790000Y-78849000D02*
X154666000Y-78849000D01*
X152790000Y-78889000D02*
X154684000Y-78889000D01*
X152790000Y-78929000D02*
X154702000Y-78929000D01*
X152790000Y-78969000D02*
X154720000Y-78969000D01*
X152790000Y-79009000D02*
X154736000Y-79009000D01*
X152790000Y-79049000D02*
X154752000Y-79049000D01*
X152790000Y-79089000D02*
X154768000Y-79089000D01*
X152790000Y-79129000D02*
X154783000Y-79129000D01*
X152790000Y-79169000D02*
X154797000Y-79169000D01*
X152790000Y-79209000D02*
X154811000Y-79209000D01*
X152790000Y-79249000D02*
X154824000Y-79249000D01*
X152790000Y-79289000D02*
X154836000Y-79289000D01*
X152790000Y-79329000D02*
X154848000Y-79329000D01*
X152790000Y-79369000D02*
X154860000Y-79369000D01*
X152790000Y-79409000D02*
X154871000Y-79409000D01*
X152790000Y-79449000D02*
X154881000Y-79449000D01*
X152790000Y-79489000D02*
X154891000Y-79489000D01*
X152790000Y-79529000D02*
X154900000Y-79529000D01*
X152790000Y-79570000D02*
X154909000Y-79570000D01*
X152790000Y-79610000D02*
X154917000Y-79610000D01*
X152790000Y-79650000D02*
X154925000Y-79650000D01*
X152790000Y-79690000D02*
X154932000Y-79690000D01*
X152790000Y-79730000D02*
X154939000Y-79730000D01*
X152790000Y-79770000D02*
X154945000Y-79770000D01*
X152790000Y-79810000D02*
X154951000Y-79810000D01*
X152790000Y-79850000D02*
X154956000Y-79850000D01*
X152790000Y-79890000D02*
X154961000Y-79890000D01*
X152790000Y-79930000D02*
X154965000Y-79930000D01*
X152790000Y-79970000D02*
X154968000Y-79970000D01*
X152790000Y-80010000D02*
X154972000Y-80010000D01*
X155020000Y-80250000D02*
G75*
G02*
X148480000Y-80250000I-3270000J0D01*
G01*
X148480000Y-80250000D02*
G75*
G02*
X155020000Y-80250000I3270000J0D01*
G01*
%TD*%
M02*
