%TF.GenerationSoftware,KiCad,Pcbnew,(6.0.5)*%
%TF.CreationDate,2022-08-29T14:43:18+01:00*%
%TF.ProjectId,PicoMIDISplitter,5069636f-4d49-4444-9953-706c69747465,rev?*%
%TF.SameCoordinates,Original*%
%TF.FileFunction,Legend,Top*%
%TF.FilePolarity,Positive*%
%FSLAX46Y46*%
G04 Gerber Fmt 4.6, Leading zero omitted, Abs format (unit mm)*
G04 Created by KiCad (PCBNEW (6.0.5)) date 2022-08-29 14:43:18*
%MOMM*%
%LPD*%
G01*
G04 APERTURE LIST*
%ADD10C,0.150000*%
%ADD11C,0.304800*%
%ADD12C,0.120000*%
%ADD13C,2.499360*%
%ADD14R,2.500000X4.000000*%
%ADD15R,4.000000X2.500000*%
G04 APERTURE END LIST*
D10*
X67561628Y-44079780D02*
X67561628Y-43079780D01*
X67942580Y-43079780D01*
X68037819Y-43127400D01*
X68085438Y-43175019D01*
X68133057Y-43270257D01*
X68133057Y-43413114D01*
X68085438Y-43508352D01*
X68037819Y-43555971D01*
X67942580Y-43603590D01*
X67561628Y-43603590D01*
X68561628Y-44079780D02*
X68561628Y-43413114D01*
X68561628Y-43079780D02*
X68514009Y-43127400D01*
X68561628Y-43175019D01*
X68609247Y-43127400D01*
X68561628Y-43079780D01*
X68561628Y-43175019D01*
X69466390Y-44032161D02*
X69371152Y-44079780D01*
X69180676Y-44079780D01*
X69085438Y-44032161D01*
X69037819Y-43984542D01*
X68990200Y-43889304D01*
X68990200Y-43603590D01*
X69037819Y-43508352D01*
X69085438Y-43460733D01*
X69180676Y-43413114D01*
X69371152Y-43413114D01*
X69466390Y-43460733D01*
X70037819Y-44079780D02*
X69942580Y-44032161D01*
X69894961Y-43984542D01*
X69847342Y-43889304D01*
X69847342Y-43603590D01*
X69894961Y-43508352D01*
X69942580Y-43460733D01*
X70037819Y-43413114D01*
X70180676Y-43413114D01*
X70275914Y-43460733D01*
X70323533Y-43508352D01*
X70371152Y-43603590D01*
X70371152Y-43889304D01*
X70323533Y-43984542D01*
X70275914Y-44032161D01*
X70180676Y-44079780D01*
X70037819Y-44079780D01*
X71561628Y-44079780D02*
X71561628Y-43079780D01*
X71894961Y-43794066D01*
X72228295Y-43079780D01*
X72228295Y-44079780D01*
X72704485Y-44079780D02*
X72704485Y-43079780D01*
X73180676Y-44079780D02*
X73180676Y-43079780D01*
X73418771Y-43079780D01*
X73561628Y-43127400D01*
X73656866Y-43222638D01*
X73704485Y-43317876D01*
X73752104Y-43508352D01*
X73752104Y-43651209D01*
X73704485Y-43841685D01*
X73656866Y-43936923D01*
X73561628Y-44032161D01*
X73418771Y-44079780D01*
X73180676Y-44079780D01*
X74180676Y-44079780D02*
X74180676Y-43079780D01*
X75371152Y-44032161D02*
X75514009Y-44079780D01*
X75752104Y-44079780D01*
X75847342Y-44032161D01*
X75894961Y-43984542D01*
X75942580Y-43889304D01*
X75942580Y-43794066D01*
X75894961Y-43698828D01*
X75847342Y-43651209D01*
X75752104Y-43603590D01*
X75561628Y-43555971D01*
X75466390Y-43508352D01*
X75418771Y-43460733D01*
X75371152Y-43365495D01*
X75371152Y-43270257D01*
X75418771Y-43175019D01*
X75466390Y-43127400D01*
X75561628Y-43079780D01*
X75799723Y-43079780D01*
X75942580Y-43127400D01*
X76371152Y-43413114D02*
X76371152Y-44413114D01*
X76371152Y-43460733D02*
X76466390Y-43413114D01*
X76656866Y-43413114D01*
X76752104Y-43460733D01*
X76799723Y-43508352D01*
X76847342Y-43603590D01*
X76847342Y-43889304D01*
X76799723Y-43984542D01*
X76752104Y-44032161D01*
X76656866Y-44079780D01*
X76466390Y-44079780D01*
X76371152Y-44032161D01*
X77418771Y-44079780D02*
X77323533Y-44032161D01*
X77275914Y-43936923D01*
X77275914Y-43079780D01*
X77799723Y-44079780D02*
X77799723Y-43413114D01*
X77799723Y-43079780D02*
X77752104Y-43127400D01*
X77799723Y-43175019D01*
X77847342Y-43127400D01*
X77799723Y-43079780D01*
X77799723Y-43175019D01*
X78133057Y-43413114D02*
X78514009Y-43413114D01*
X78275914Y-43079780D02*
X78275914Y-43936923D01*
X78323533Y-44032161D01*
X78418771Y-44079780D01*
X78514009Y-44079780D01*
X78704485Y-43413114D02*
X79085438Y-43413114D01*
X78847342Y-43079780D02*
X78847342Y-43936923D01*
X78894961Y-44032161D01*
X78990200Y-44079780D01*
X79085438Y-44079780D01*
X79799723Y-44032161D02*
X79704485Y-44079780D01*
X79514009Y-44079780D01*
X79418771Y-44032161D01*
X79371152Y-43936923D01*
X79371152Y-43555971D01*
X79418771Y-43460733D01*
X79514009Y-43413114D01*
X79704485Y-43413114D01*
X79799723Y-43460733D01*
X79847342Y-43555971D01*
X79847342Y-43651209D01*
X79371152Y-43746447D01*
X80275914Y-44079780D02*
X80275914Y-43413114D01*
X80275914Y-43603590D02*
X80323533Y-43508352D01*
X80371152Y-43460733D01*
X80466390Y-43413114D01*
X80561628Y-43413114D01*
X68799723Y-45689780D02*
X68799723Y-44689780D01*
X68799723Y-45642161D02*
X68704485Y-45689780D01*
X68514009Y-45689780D01*
X68418771Y-45642161D01*
X68371152Y-45594542D01*
X68323533Y-45499304D01*
X68323533Y-45213590D01*
X68371152Y-45118352D01*
X68418771Y-45070733D01*
X68514009Y-45023114D01*
X68704485Y-45023114D01*
X68799723Y-45070733D01*
X69275914Y-45689780D02*
X69275914Y-45023114D01*
X69275914Y-44689780D02*
X69228295Y-44737400D01*
X69275914Y-44785019D01*
X69323533Y-44737400D01*
X69275914Y-44689780D01*
X69275914Y-44785019D01*
X69656866Y-45023114D02*
X69894961Y-45689780D01*
X70133057Y-45023114D02*
X69894961Y-45689780D01*
X69799723Y-45927876D01*
X69752104Y-45975495D01*
X69656866Y-46023114D01*
X70894961Y-45642161D02*
X70799723Y-45689780D01*
X70609247Y-45689780D01*
X70514009Y-45642161D01*
X70466390Y-45546923D01*
X70466390Y-45165971D01*
X70514009Y-45070733D01*
X70609247Y-45023114D01*
X70799723Y-45023114D01*
X70894961Y-45070733D01*
X70942580Y-45165971D01*
X70942580Y-45261209D01*
X70466390Y-45356447D01*
X71514009Y-45689780D02*
X71418771Y-45642161D01*
X71371152Y-45546923D01*
X71371152Y-44689780D01*
X72275914Y-45642161D02*
X72180676Y-45689780D01*
X71990200Y-45689780D01*
X71894961Y-45642161D01*
X71847342Y-45546923D01*
X71847342Y-45165971D01*
X71894961Y-45070733D01*
X71990200Y-45023114D01*
X72180676Y-45023114D01*
X72275914Y-45070733D01*
X72323533Y-45165971D01*
X72323533Y-45261209D01*
X71847342Y-45356447D01*
X73180676Y-45642161D02*
X73085438Y-45689780D01*
X72894961Y-45689780D01*
X72799723Y-45642161D01*
X72752104Y-45594542D01*
X72704485Y-45499304D01*
X72704485Y-45213590D01*
X72752104Y-45118352D01*
X72799723Y-45070733D01*
X72894961Y-45023114D01*
X73085438Y-45023114D01*
X73180676Y-45070733D01*
X73466390Y-45023114D02*
X73847342Y-45023114D01*
X73609247Y-44689780D02*
X73609247Y-45546923D01*
X73656866Y-45642161D01*
X73752104Y-45689780D01*
X73847342Y-45689780D01*
X74180676Y-45689780D02*
X74180676Y-45023114D01*
X74180676Y-45213590D02*
X74228295Y-45118352D01*
X74275914Y-45070733D01*
X74371152Y-45023114D01*
X74466390Y-45023114D01*
X74942580Y-45689780D02*
X74847342Y-45642161D01*
X74799723Y-45594542D01*
X74752104Y-45499304D01*
X74752104Y-45213590D01*
X74799723Y-45118352D01*
X74847342Y-45070733D01*
X74942580Y-45023114D01*
X75085438Y-45023114D01*
X75180676Y-45070733D01*
X75228295Y-45118352D01*
X75275914Y-45213590D01*
X75275914Y-45499304D01*
X75228295Y-45594542D01*
X75180676Y-45642161D01*
X75085438Y-45689780D01*
X74942580Y-45689780D01*
X75704485Y-45689780D02*
X75704485Y-45023114D01*
X75704485Y-45118352D02*
X75752104Y-45070733D01*
X75847342Y-45023114D01*
X75990200Y-45023114D01*
X76085438Y-45070733D01*
X76133057Y-45165971D01*
X76133057Y-45689780D01*
X76133057Y-45165971D02*
X76180676Y-45070733D01*
X76275914Y-45023114D01*
X76418771Y-45023114D01*
X76514009Y-45070733D01*
X76561628Y-45165971D01*
X76561628Y-45689780D01*
X77466390Y-45023114D02*
X77466390Y-45689780D01*
X77037819Y-45023114D02*
X77037819Y-45546923D01*
X77085438Y-45642161D01*
X77180676Y-45689780D01*
X77323533Y-45689780D01*
X77418771Y-45642161D01*
X77466390Y-45594542D01*
X77894961Y-45642161D02*
X77990200Y-45689780D01*
X78180676Y-45689780D01*
X78275914Y-45642161D01*
X78323533Y-45546923D01*
X78323533Y-45499304D01*
X78275914Y-45404066D01*
X78180676Y-45356447D01*
X78037819Y-45356447D01*
X77942580Y-45308828D01*
X77894961Y-45213590D01*
X77894961Y-45165971D01*
X77942580Y-45070733D01*
X78037819Y-45023114D01*
X78180676Y-45023114D01*
X78275914Y-45070733D01*
X78752104Y-45689780D02*
X78752104Y-45023114D01*
X78752104Y-44689780D02*
X78704485Y-44737400D01*
X78752104Y-44785019D01*
X78799723Y-44737400D01*
X78752104Y-44689780D01*
X78752104Y-44785019D01*
X79656866Y-45642161D02*
X79561628Y-45689780D01*
X79371152Y-45689780D01*
X79275914Y-45642161D01*
X79228295Y-45594542D01*
X79180676Y-45499304D01*
X79180676Y-45213590D01*
X79228295Y-45118352D01*
X79275914Y-45070733D01*
X79371152Y-45023114D01*
X79561628Y-45023114D01*
X79656866Y-45070733D01*
X70275914Y-46633114D02*
X70514009Y-47299780D01*
X70752104Y-46633114D01*
X71323533Y-46299780D02*
X71418771Y-46299780D01*
X71514009Y-46347400D01*
X71561628Y-46395019D01*
X71609247Y-46490257D01*
X71656866Y-46680733D01*
X71656866Y-46918828D01*
X71609247Y-47109304D01*
X71561628Y-47204542D01*
X71514009Y-47252161D01*
X71418771Y-47299780D01*
X71323533Y-47299780D01*
X71228295Y-47252161D01*
X71180676Y-47204542D01*
X71133057Y-47109304D01*
X71085438Y-46918828D01*
X71085438Y-46680733D01*
X71133057Y-46490257D01*
X71180676Y-46395019D01*
X71228295Y-46347400D01*
X71323533Y-46299780D01*
X72085438Y-47204542D02*
X72133057Y-47252161D01*
X72085438Y-47299780D01*
X72037819Y-47252161D01*
X72085438Y-47204542D01*
X72085438Y-47299780D01*
X73085438Y-47299780D02*
X72514009Y-47299780D01*
X72799723Y-47299780D02*
X72799723Y-46299780D01*
X72704485Y-46442638D01*
X72609247Y-46537876D01*
X72514009Y-46585495D01*
X74228295Y-46395019D02*
X74275914Y-46347400D01*
X74371152Y-46299780D01*
X74609247Y-46299780D01*
X74704485Y-46347400D01*
X74752104Y-46395019D01*
X74799723Y-46490257D01*
X74799723Y-46585495D01*
X74752104Y-46728352D01*
X74180676Y-47299780D01*
X74799723Y-47299780D01*
X75418771Y-46299780D02*
X75514009Y-46299780D01*
X75609247Y-46347400D01*
X75656866Y-46395019D01*
X75704485Y-46490257D01*
X75752104Y-46680733D01*
X75752104Y-46918828D01*
X75704485Y-47109304D01*
X75656866Y-47204542D01*
X75609247Y-47252161D01*
X75514009Y-47299780D01*
X75418771Y-47299780D01*
X75323533Y-47252161D01*
X75275914Y-47204542D01*
X75228295Y-47109304D01*
X75180676Y-46918828D01*
X75180676Y-46680733D01*
X75228295Y-46490257D01*
X75275914Y-46395019D01*
X75323533Y-46347400D01*
X75418771Y-46299780D01*
X76133057Y-46395019D02*
X76180676Y-46347400D01*
X76275914Y-46299780D01*
X76514009Y-46299780D01*
X76609247Y-46347400D01*
X76656866Y-46395019D01*
X76704485Y-46490257D01*
X76704485Y-46585495D01*
X76656866Y-46728352D01*
X76085438Y-47299780D01*
X76704485Y-47299780D01*
X77085438Y-46395019D02*
X77133057Y-46347400D01*
X77228295Y-46299780D01*
X77466390Y-46299780D01*
X77561628Y-46347400D01*
X77609247Y-46395019D01*
X77656866Y-46490257D01*
X77656866Y-46585495D01*
X77609247Y-46728352D01*
X77037819Y-47299780D01*
X77656866Y-47299780D01*
%TO.C,U5*%
X120791552Y-47813380D02*
X120791552Y-46813380D01*
X120791552Y-47289571D02*
X121362980Y-47289571D01*
X121362980Y-47813380D02*
X121362980Y-46813380D01*
X122362980Y-47813380D02*
X121791552Y-47813380D01*
X122077266Y-47813380D02*
X122077266Y-46813380D01*
X121982028Y-46956238D01*
X121886790Y-47051476D01*
X121791552Y-47099095D01*
X123315361Y-47813380D02*
X122743933Y-47813380D01*
X123029647Y-47813380D02*
X123029647Y-46813380D01*
X122934409Y-46956238D01*
X122839171Y-47051476D01*
X122743933Y-47099095D01*
X124220123Y-47813380D02*
X123743933Y-47813380D01*
X123743933Y-46813380D01*
X125077266Y-47813380D02*
X124505838Y-47813380D01*
X124791552Y-47813380D02*
X124791552Y-46813380D01*
X124696314Y-46956238D01*
X124601076Y-47051476D01*
X124505838Y-47099095D01*
%TO.C,R20*%
X128436714Y-48031304D02*
X129103380Y-48031304D01*
X128055761Y-48269400D02*
X128770047Y-48507495D01*
X128770047Y-47888447D01*
X128103380Y-47602733D02*
X128103380Y-46936066D01*
X129103380Y-47364638D01*
X128103380Y-46364638D02*
X128103380Y-46269400D01*
X128151000Y-46174161D01*
X128198619Y-46126542D01*
X128293857Y-46078923D01*
X128484333Y-46031304D01*
X128722428Y-46031304D01*
X128912904Y-46078923D01*
X129008142Y-46126542D01*
X129055761Y-46174161D01*
X129103380Y-46269400D01*
X129103380Y-46364638D01*
X129055761Y-46459876D01*
X129008142Y-46507495D01*
X128912904Y-46555114D01*
X128722428Y-46602733D01*
X128484333Y-46602733D01*
X128293857Y-46555114D01*
X128198619Y-46507495D01*
X128151000Y-46459876D01*
X128103380Y-46364638D01*
%TO.C,R19*%
X115068504Y-117225819D02*
X115116123Y-117178200D01*
X115211361Y-117130580D01*
X115449457Y-117130580D01*
X115544695Y-117178200D01*
X115592314Y-117225819D01*
X115639933Y-117321057D01*
X115639933Y-117416295D01*
X115592314Y-117559152D01*
X115020885Y-118130580D01*
X115639933Y-118130580D01*
X116020885Y-117225819D02*
X116068504Y-117178200D01*
X116163742Y-117130580D01*
X116401838Y-117130580D01*
X116497076Y-117178200D01*
X116544695Y-117225819D01*
X116592314Y-117321057D01*
X116592314Y-117416295D01*
X116544695Y-117559152D01*
X115973266Y-118130580D01*
X116592314Y-118130580D01*
X117211361Y-117130580D02*
X117306600Y-117130580D01*
X117401838Y-117178200D01*
X117449457Y-117225819D01*
X117497076Y-117321057D01*
X117544695Y-117511533D01*
X117544695Y-117749628D01*
X117497076Y-117940104D01*
X117449457Y-118035342D01*
X117401838Y-118082961D01*
X117306600Y-118130580D01*
X117211361Y-118130580D01*
X117116123Y-118082961D01*
X117068504Y-118035342D01*
X117020885Y-117940104D01*
X116973266Y-117749628D01*
X116973266Y-117511533D01*
X117020885Y-117321057D01*
X117068504Y-117225819D01*
X117116123Y-117178200D01*
X117211361Y-117130580D01*
%TO.C,U3*%
X114168780Y-108170266D02*
X114168780Y-107503600D01*
X115168780Y-107932171D01*
X114502114Y-106694076D02*
X115168780Y-106694076D01*
X114121161Y-106932171D02*
X114835447Y-107170266D01*
X114835447Y-106551219D01*
X115168780Y-106170266D02*
X114168780Y-106170266D01*
X114644971Y-106170266D02*
X114644971Y-105598838D01*
X115168780Y-105598838D02*
X114168780Y-105598838D01*
X115073542Y-104551219D02*
X115121161Y-104598838D01*
X115168780Y-104741695D01*
X115168780Y-104836933D01*
X115121161Y-104979790D01*
X115025923Y-105075028D01*
X114930685Y-105122647D01*
X114740209Y-105170266D01*
X114597352Y-105170266D01*
X114406876Y-105122647D01*
X114311638Y-105075028D01*
X114216400Y-104979790D01*
X114168780Y-104836933D01*
X114168780Y-104741695D01*
X114216400Y-104598838D01*
X114264019Y-104551219D01*
X114168780Y-104265504D02*
X114168780Y-103694076D01*
X115168780Y-103979790D02*
X114168780Y-103979790D01*
X115168780Y-102836933D02*
X115168780Y-103408361D01*
X115168780Y-103122647D02*
X114168780Y-103122647D01*
X114311638Y-103217885D01*
X114406876Y-103313123D01*
X114454495Y-103408361D01*
X114502114Y-101979790D02*
X115168780Y-101979790D01*
X114121161Y-102217885D02*
X114835447Y-102455980D01*
X114835447Y-101836933D01*
%TO.C,U2*%
X99325180Y-108246466D02*
X99325180Y-107579800D01*
X100325180Y-108008371D01*
X99658514Y-106770276D02*
X100325180Y-106770276D01*
X99277561Y-107008371D02*
X99991847Y-107246466D01*
X99991847Y-106627419D01*
X100325180Y-106246466D02*
X99325180Y-106246466D01*
X99801371Y-106246466D02*
X99801371Y-105675038D01*
X100325180Y-105675038D02*
X99325180Y-105675038D01*
X100229942Y-104627419D02*
X100277561Y-104675038D01*
X100325180Y-104817895D01*
X100325180Y-104913133D01*
X100277561Y-105055990D01*
X100182323Y-105151228D01*
X100087085Y-105198847D01*
X99896609Y-105246466D01*
X99753752Y-105246466D01*
X99563276Y-105198847D01*
X99468038Y-105151228D01*
X99372800Y-105055990D01*
X99325180Y-104913133D01*
X99325180Y-104817895D01*
X99372800Y-104675038D01*
X99420419Y-104627419D01*
X99325180Y-104341704D02*
X99325180Y-103770276D01*
X100325180Y-104055990D02*
X99325180Y-104055990D01*
X100325180Y-102913133D02*
X100325180Y-103484561D01*
X100325180Y-103198847D02*
X99325180Y-103198847D01*
X99468038Y-103294085D01*
X99563276Y-103389323D01*
X99610895Y-103484561D01*
X99658514Y-102055990D02*
X100325180Y-102055990D01*
X99277561Y-102294085D02*
X99991847Y-102532180D01*
X99991847Y-101913133D01*
%TO.C,U1*%
X84694780Y-108043266D02*
X84694780Y-107376600D01*
X85694780Y-107805171D01*
X85028114Y-106567076D02*
X85694780Y-106567076D01*
X84647161Y-106805171D02*
X85361447Y-107043266D01*
X85361447Y-106424219D01*
X85694780Y-106043266D02*
X84694780Y-106043266D01*
X85170971Y-106043266D02*
X85170971Y-105471838D01*
X85694780Y-105471838D02*
X84694780Y-105471838D01*
X85599542Y-104424219D02*
X85647161Y-104471838D01*
X85694780Y-104614695D01*
X85694780Y-104709933D01*
X85647161Y-104852790D01*
X85551923Y-104948028D01*
X85456685Y-104995647D01*
X85266209Y-105043266D01*
X85123352Y-105043266D01*
X84932876Y-104995647D01*
X84837638Y-104948028D01*
X84742400Y-104852790D01*
X84694780Y-104709933D01*
X84694780Y-104614695D01*
X84742400Y-104471838D01*
X84790019Y-104424219D01*
X84694780Y-104138504D02*
X84694780Y-103567076D01*
X85694780Y-103852790D02*
X84694780Y-103852790D01*
X85694780Y-102709933D02*
X85694780Y-103281361D01*
X85694780Y-102995647D02*
X84694780Y-102995647D01*
X84837638Y-103090885D01*
X84932876Y-103186123D01*
X84980495Y-103281361D01*
X85028114Y-101852790D02*
X85694780Y-101852790D01*
X84647161Y-102090885D02*
X85361447Y-102328980D01*
X85361447Y-101709933D01*
%TO.C,R12*%
X124573019Y-122402695D02*
X124525400Y-122355076D01*
X124477780Y-122259838D01*
X124477780Y-122021742D01*
X124525400Y-121926504D01*
X124573019Y-121878885D01*
X124668257Y-121831266D01*
X124763495Y-121831266D01*
X124906352Y-121878885D01*
X125477780Y-122450314D01*
X125477780Y-121831266D01*
X124573019Y-121450314D02*
X124525400Y-121402695D01*
X124477780Y-121307457D01*
X124477780Y-121069361D01*
X124525400Y-120974123D01*
X124573019Y-120926504D01*
X124668257Y-120878885D01*
X124763495Y-120878885D01*
X124906352Y-120926504D01*
X125477780Y-121497933D01*
X125477780Y-120878885D01*
X124477780Y-120259838D02*
X124477780Y-120164600D01*
X124525400Y-120069361D01*
X124573019Y-120021742D01*
X124668257Y-119974123D01*
X124858733Y-119926504D01*
X125096828Y-119926504D01*
X125287304Y-119974123D01*
X125382542Y-120021742D01*
X125430161Y-120069361D01*
X125477780Y-120164600D01*
X125477780Y-120259838D01*
X125430161Y-120355076D01*
X125382542Y-120402695D01*
X125287304Y-120450314D01*
X125096828Y-120497933D01*
X124858733Y-120497933D01*
X124668257Y-120450314D01*
X124573019Y-120402695D01*
X124525400Y-120355076D01*
X124477780Y-120259838D01*
%TO.C,R11*%
X74547619Y-133453495D02*
X74500000Y-133405876D01*
X74452380Y-133310638D01*
X74452380Y-133072542D01*
X74500000Y-132977304D01*
X74547619Y-132929685D01*
X74642857Y-132882066D01*
X74738095Y-132882066D01*
X74880952Y-132929685D01*
X75452380Y-133501114D01*
X75452380Y-132882066D01*
X74547619Y-132501114D02*
X74500000Y-132453495D01*
X74452380Y-132358257D01*
X74452380Y-132120161D01*
X74500000Y-132024923D01*
X74547619Y-131977304D01*
X74642857Y-131929685D01*
X74738095Y-131929685D01*
X74880952Y-131977304D01*
X75452380Y-132548733D01*
X75452380Y-131929685D01*
X74452380Y-131310638D02*
X74452380Y-131215400D01*
X74500000Y-131120161D01*
X74547619Y-131072542D01*
X74642857Y-131024923D01*
X74833333Y-130977304D01*
X75071428Y-130977304D01*
X75261904Y-131024923D01*
X75357142Y-131072542D01*
X75404761Y-131120161D01*
X75452380Y-131215400D01*
X75452380Y-131310638D01*
X75404761Y-131405876D01*
X75357142Y-131453495D01*
X75261904Y-131501114D01*
X75071428Y-131548733D01*
X74833333Y-131548733D01*
X74642857Y-131501114D01*
X74547619Y-131453495D01*
X74500000Y-131405876D01*
X74452380Y-131310638D01*
%TO.C,R10*%
X92995904Y-117124219D02*
X93043523Y-117076600D01*
X93138761Y-117028980D01*
X93376857Y-117028980D01*
X93472095Y-117076600D01*
X93519714Y-117124219D01*
X93567333Y-117219457D01*
X93567333Y-117314695D01*
X93519714Y-117457552D01*
X92948285Y-118028980D01*
X93567333Y-118028980D01*
X93948285Y-117124219D02*
X93995904Y-117076600D01*
X94091142Y-117028980D01*
X94329238Y-117028980D01*
X94424476Y-117076600D01*
X94472095Y-117124219D01*
X94519714Y-117219457D01*
X94519714Y-117314695D01*
X94472095Y-117457552D01*
X93900666Y-118028980D01*
X94519714Y-118028980D01*
X95138761Y-117028980D02*
X95234000Y-117028980D01*
X95329238Y-117076600D01*
X95376857Y-117124219D01*
X95424476Y-117219457D01*
X95472095Y-117409933D01*
X95472095Y-117648028D01*
X95424476Y-117838504D01*
X95376857Y-117933742D01*
X95329238Y-117981361D01*
X95234000Y-118028980D01*
X95138761Y-118028980D01*
X95043523Y-117981361D01*
X94995904Y-117933742D01*
X94948285Y-117838504D01*
X94900666Y-117648028D01*
X94900666Y-117409933D01*
X94948285Y-117219457D01*
X94995904Y-117124219D01*
X95043523Y-117076600D01*
X95138761Y-117028980D01*
%TO.C,R6*%
X124420619Y-133422695D02*
X124373000Y-133375076D01*
X124325380Y-133279838D01*
X124325380Y-133041742D01*
X124373000Y-132946504D01*
X124420619Y-132898885D01*
X124515857Y-132851266D01*
X124611095Y-132851266D01*
X124753952Y-132898885D01*
X125325380Y-133470314D01*
X125325380Y-132851266D01*
X124420619Y-132470314D02*
X124373000Y-132422695D01*
X124325380Y-132327457D01*
X124325380Y-132089361D01*
X124373000Y-131994123D01*
X124420619Y-131946504D01*
X124515857Y-131898885D01*
X124611095Y-131898885D01*
X124753952Y-131946504D01*
X125325380Y-132517933D01*
X125325380Y-131898885D01*
X124325380Y-131279838D02*
X124325380Y-131184600D01*
X124373000Y-131089361D01*
X124420619Y-131041742D01*
X124515857Y-130994123D01*
X124706333Y-130946504D01*
X124944428Y-130946504D01*
X125134904Y-130994123D01*
X125230142Y-131041742D01*
X125277761Y-131089361D01*
X125325380Y-131184600D01*
X125325380Y-131279838D01*
X125277761Y-131375076D01*
X125230142Y-131422695D01*
X125134904Y-131470314D01*
X124944428Y-131517933D01*
X124706333Y-131517933D01*
X124515857Y-131470314D01*
X124420619Y-131422695D01*
X124373000Y-131375076D01*
X124325380Y-131279838D01*
%TO.C,R18*%
X124573019Y-58851895D02*
X124525400Y-58804276D01*
X124477780Y-58709038D01*
X124477780Y-58470942D01*
X124525400Y-58375704D01*
X124573019Y-58328085D01*
X124668257Y-58280466D01*
X124763495Y-58280466D01*
X124906352Y-58328085D01*
X125477780Y-58899514D01*
X125477780Y-58280466D01*
X124573019Y-57899514D02*
X124525400Y-57851895D01*
X124477780Y-57756657D01*
X124477780Y-57518561D01*
X124525400Y-57423323D01*
X124573019Y-57375704D01*
X124668257Y-57328085D01*
X124763495Y-57328085D01*
X124906352Y-57375704D01*
X125477780Y-57947133D01*
X125477780Y-57328085D01*
X124477780Y-56709038D02*
X124477780Y-56613800D01*
X124525400Y-56518561D01*
X124573019Y-56470942D01*
X124668257Y-56423323D01*
X124858733Y-56375704D01*
X125096828Y-56375704D01*
X125287304Y-56423323D01*
X125382542Y-56470942D01*
X125430161Y-56518561D01*
X125477780Y-56613800D01*
X125477780Y-56709038D01*
X125430161Y-56804276D01*
X125382542Y-56851895D01*
X125287304Y-56899514D01*
X125096828Y-56947133D01*
X124858733Y-56947133D01*
X124668257Y-56899514D01*
X124573019Y-56851895D01*
X124525400Y-56804276D01*
X124477780Y-56709038D01*
%TO.C,R17*%
X124496819Y-79851895D02*
X124449200Y-79804276D01*
X124401580Y-79709038D01*
X124401580Y-79470942D01*
X124449200Y-79375704D01*
X124496819Y-79328085D01*
X124592057Y-79280466D01*
X124687295Y-79280466D01*
X124830152Y-79328085D01*
X125401580Y-79899514D01*
X125401580Y-79280466D01*
X124496819Y-78899514D02*
X124449200Y-78851895D01*
X124401580Y-78756657D01*
X124401580Y-78518561D01*
X124449200Y-78423323D01*
X124496819Y-78375704D01*
X124592057Y-78328085D01*
X124687295Y-78328085D01*
X124830152Y-78375704D01*
X125401580Y-78947133D01*
X125401580Y-78328085D01*
X124401580Y-77709038D02*
X124401580Y-77613800D01*
X124449200Y-77518561D01*
X124496819Y-77470942D01*
X124592057Y-77423323D01*
X124782533Y-77375704D01*
X125020628Y-77375704D01*
X125211104Y-77423323D01*
X125306342Y-77470942D01*
X125353961Y-77518561D01*
X125401580Y-77613800D01*
X125401580Y-77709038D01*
X125353961Y-77804276D01*
X125306342Y-77851895D01*
X125211104Y-77899514D01*
X125020628Y-77947133D01*
X124782533Y-77947133D01*
X124592057Y-77899514D01*
X124496819Y-77851895D01*
X124449200Y-77804276D01*
X124401580Y-77709038D01*
%TO.C,R5*%
X74598419Y-122453495D02*
X74550800Y-122405876D01*
X74503180Y-122310638D01*
X74503180Y-122072542D01*
X74550800Y-121977304D01*
X74598419Y-121929685D01*
X74693657Y-121882066D01*
X74788895Y-121882066D01*
X74931752Y-121929685D01*
X75503180Y-122501114D01*
X75503180Y-121882066D01*
X74598419Y-121501114D02*
X74550800Y-121453495D01*
X74503180Y-121358257D01*
X74503180Y-121120161D01*
X74550800Y-121024923D01*
X74598419Y-120977304D01*
X74693657Y-120929685D01*
X74788895Y-120929685D01*
X74931752Y-120977304D01*
X75503180Y-121548733D01*
X75503180Y-120929685D01*
X74503180Y-120310638D02*
X74503180Y-120215400D01*
X74550800Y-120120161D01*
X74598419Y-120072542D01*
X74693657Y-120024923D01*
X74884133Y-119977304D01*
X75122228Y-119977304D01*
X75312704Y-120024923D01*
X75407942Y-120072542D01*
X75455561Y-120120161D01*
X75503180Y-120215400D01*
X75503180Y-120310638D01*
X75455561Y-120405876D01*
X75407942Y-120453495D01*
X75312704Y-120501114D01*
X75122228Y-120548733D01*
X74884133Y-120548733D01*
X74693657Y-120501114D01*
X74598419Y-120453495D01*
X74550800Y-120405876D01*
X74503180Y-120310638D01*
%TO.C,R4*%
X82277104Y-117124219D02*
X82324723Y-117076600D01*
X82419961Y-117028980D01*
X82658057Y-117028980D01*
X82753295Y-117076600D01*
X82800914Y-117124219D01*
X82848533Y-117219457D01*
X82848533Y-117314695D01*
X82800914Y-117457552D01*
X82229485Y-118028980D01*
X82848533Y-118028980D01*
X83229485Y-117124219D02*
X83277104Y-117076600D01*
X83372342Y-117028980D01*
X83610438Y-117028980D01*
X83705676Y-117076600D01*
X83753295Y-117124219D01*
X83800914Y-117219457D01*
X83800914Y-117314695D01*
X83753295Y-117457552D01*
X83181866Y-118028980D01*
X83800914Y-118028980D01*
X84419961Y-117028980D02*
X84515200Y-117028980D01*
X84610438Y-117076600D01*
X84658057Y-117124219D01*
X84705676Y-117219457D01*
X84753295Y-117409933D01*
X84753295Y-117648028D01*
X84705676Y-117838504D01*
X84658057Y-117933742D01*
X84610438Y-117981361D01*
X84515200Y-118028980D01*
X84419961Y-118028980D01*
X84324723Y-117981361D01*
X84277104Y-117933742D01*
X84229485Y-117838504D01*
X84181866Y-117648028D01*
X84181866Y-117409933D01*
X84229485Y-117219457D01*
X84277104Y-117124219D01*
X84324723Y-117076600D01*
X84419961Y-117028980D01*
%TO.C,R9*%
X74573019Y-90428095D02*
X74525400Y-90380476D01*
X74477780Y-90285238D01*
X74477780Y-90047142D01*
X74525400Y-89951904D01*
X74573019Y-89904285D01*
X74668257Y-89856666D01*
X74763495Y-89856666D01*
X74906352Y-89904285D01*
X75477780Y-90475714D01*
X75477780Y-89856666D01*
X74573019Y-89475714D02*
X74525400Y-89428095D01*
X74477780Y-89332857D01*
X74477780Y-89094761D01*
X74525400Y-88999523D01*
X74573019Y-88951904D01*
X74668257Y-88904285D01*
X74763495Y-88904285D01*
X74906352Y-88951904D01*
X75477780Y-89523333D01*
X75477780Y-88904285D01*
X74477780Y-88285238D02*
X74477780Y-88190000D01*
X74525400Y-88094761D01*
X74573019Y-88047142D01*
X74668257Y-87999523D01*
X74858733Y-87951904D01*
X75096828Y-87951904D01*
X75287304Y-87999523D01*
X75382542Y-88047142D01*
X75430161Y-88094761D01*
X75477780Y-88190000D01*
X75477780Y-88285238D01*
X75430161Y-88380476D01*
X75382542Y-88428095D01*
X75287304Y-88475714D01*
X75096828Y-88523333D01*
X74858733Y-88523333D01*
X74668257Y-88475714D01*
X74573019Y-88428095D01*
X74525400Y-88380476D01*
X74477780Y-88285238D01*
%TO.C,R8*%
X74573019Y-69453495D02*
X74525400Y-69405876D01*
X74477780Y-69310638D01*
X74477780Y-69072542D01*
X74525400Y-68977304D01*
X74573019Y-68929685D01*
X74668257Y-68882066D01*
X74763495Y-68882066D01*
X74906352Y-68929685D01*
X75477780Y-69501114D01*
X75477780Y-68882066D01*
X74573019Y-68501114D02*
X74525400Y-68453495D01*
X74477780Y-68358257D01*
X74477780Y-68120161D01*
X74525400Y-68024923D01*
X74573019Y-67977304D01*
X74668257Y-67929685D01*
X74763495Y-67929685D01*
X74906352Y-67977304D01*
X75477780Y-68548733D01*
X75477780Y-67929685D01*
X74477780Y-67310638D02*
X74477780Y-67215400D01*
X74525400Y-67120161D01*
X74573019Y-67072542D01*
X74668257Y-67024923D01*
X74858733Y-66977304D01*
X75096828Y-66977304D01*
X75287304Y-67024923D01*
X75382542Y-67072542D01*
X75430161Y-67120161D01*
X75477780Y-67215400D01*
X75477780Y-67310638D01*
X75430161Y-67405876D01*
X75382542Y-67453495D01*
X75287304Y-67501114D01*
X75096828Y-67548733D01*
X74858733Y-67548733D01*
X74668257Y-67501114D01*
X74573019Y-67453495D01*
X74525400Y-67405876D01*
X74477780Y-67310638D01*
%TO.C,R16*%
X124674619Y-100953495D02*
X124627000Y-100905876D01*
X124579380Y-100810638D01*
X124579380Y-100572542D01*
X124627000Y-100477304D01*
X124674619Y-100429685D01*
X124769857Y-100382066D01*
X124865095Y-100382066D01*
X125007952Y-100429685D01*
X125579380Y-101001114D01*
X125579380Y-100382066D01*
X124674619Y-100001114D02*
X124627000Y-99953495D01*
X124579380Y-99858257D01*
X124579380Y-99620161D01*
X124627000Y-99524923D01*
X124674619Y-99477304D01*
X124769857Y-99429685D01*
X124865095Y-99429685D01*
X125007952Y-99477304D01*
X125579380Y-100048733D01*
X125579380Y-99429685D01*
X124579380Y-98810638D02*
X124579380Y-98715400D01*
X124627000Y-98620161D01*
X124674619Y-98572542D01*
X124769857Y-98524923D01*
X124960333Y-98477304D01*
X125198428Y-98477304D01*
X125388904Y-98524923D01*
X125484142Y-98572542D01*
X125531761Y-98620161D01*
X125579380Y-98715400D01*
X125579380Y-98810638D01*
X125531761Y-98905876D01*
X125484142Y-98953495D01*
X125388904Y-99001114D01*
X125198428Y-99048733D01*
X124960333Y-99048733D01*
X124769857Y-99001114D01*
X124674619Y-98953495D01*
X124627000Y-98905876D01*
X124579380Y-98810638D01*
%TO.C,R15*%
X124623819Y-69453495D02*
X124576200Y-69405876D01*
X124528580Y-69310638D01*
X124528580Y-69072542D01*
X124576200Y-68977304D01*
X124623819Y-68929685D01*
X124719057Y-68882066D01*
X124814295Y-68882066D01*
X124957152Y-68929685D01*
X125528580Y-69501114D01*
X125528580Y-68882066D01*
X124623819Y-68501114D02*
X124576200Y-68453495D01*
X124528580Y-68358257D01*
X124528580Y-68120161D01*
X124576200Y-68024923D01*
X124623819Y-67977304D01*
X124719057Y-67929685D01*
X124814295Y-67929685D01*
X124957152Y-67977304D01*
X125528580Y-68548733D01*
X125528580Y-67929685D01*
X124528580Y-67310638D02*
X124528580Y-67215400D01*
X124576200Y-67120161D01*
X124623819Y-67072542D01*
X124719057Y-67024923D01*
X124909533Y-66977304D01*
X125147628Y-66977304D01*
X125338104Y-67024923D01*
X125433342Y-67072542D01*
X125480961Y-67120161D01*
X125528580Y-67215400D01*
X125528580Y-67310638D01*
X125480961Y-67405876D01*
X125433342Y-67453495D01*
X125338104Y-67501114D01*
X125147628Y-67548733D01*
X124909533Y-67548733D01*
X124719057Y-67501114D01*
X124623819Y-67453495D01*
X124576200Y-67405876D01*
X124528580Y-67310638D01*
%TO.C,R3*%
X74573019Y-79928095D02*
X74525400Y-79880476D01*
X74477780Y-79785238D01*
X74477780Y-79547142D01*
X74525400Y-79451904D01*
X74573019Y-79404285D01*
X74668257Y-79356666D01*
X74763495Y-79356666D01*
X74906352Y-79404285D01*
X75477780Y-79975714D01*
X75477780Y-79356666D01*
X74573019Y-78975714D02*
X74525400Y-78928095D01*
X74477780Y-78832857D01*
X74477780Y-78594761D01*
X74525400Y-78499523D01*
X74573019Y-78451904D01*
X74668257Y-78404285D01*
X74763495Y-78404285D01*
X74906352Y-78451904D01*
X75477780Y-79023333D01*
X75477780Y-78404285D01*
X74477780Y-77785238D02*
X74477780Y-77690000D01*
X74525400Y-77594761D01*
X74573019Y-77547142D01*
X74668257Y-77499523D01*
X74858733Y-77451904D01*
X75096828Y-77451904D01*
X75287304Y-77499523D01*
X75382542Y-77547142D01*
X75430161Y-77594761D01*
X75477780Y-77690000D01*
X75477780Y-77785238D01*
X75430161Y-77880476D01*
X75382542Y-77928095D01*
X75287304Y-77975714D01*
X75096828Y-78023333D01*
X74858733Y-78023333D01*
X74668257Y-77975714D01*
X74573019Y-77928095D01*
X74525400Y-77880476D01*
X74477780Y-77785238D01*
%TO.C,R2*%
X74522219Y-59080495D02*
X74474600Y-59032876D01*
X74426980Y-58937638D01*
X74426980Y-58699542D01*
X74474600Y-58604304D01*
X74522219Y-58556685D01*
X74617457Y-58509066D01*
X74712695Y-58509066D01*
X74855552Y-58556685D01*
X75426980Y-59128114D01*
X75426980Y-58509066D01*
X74522219Y-58128114D02*
X74474600Y-58080495D01*
X74426980Y-57985257D01*
X74426980Y-57747161D01*
X74474600Y-57651923D01*
X74522219Y-57604304D01*
X74617457Y-57556685D01*
X74712695Y-57556685D01*
X74855552Y-57604304D01*
X75426980Y-58175733D01*
X75426980Y-57556685D01*
X74426980Y-56937638D02*
X74426980Y-56842400D01*
X74474600Y-56747161D01*
X74522219Y-56699542D01*
X74617457Y-56651923D01*
X74807933Y-56604304D01*
X75046028Y-56604304D01*
X75236504Y-56651923D01*
X75331742Y-56699542D01*
X75379361Y-56747161D01*
X75426980Y-56842400D01*
X75426980Y-56937638D01*
X75379361Y-57032876D01*
X75331742Y-57080495D01*
X75236504Y-57128114D01*
X75046028Y-57175733D01*
X74807933Y-57175733D01*
X74617457Y-57128114D01*
X74522219Y-57080495D01*
X74474600Y-57032876D01*
X74426980Y-56937638D01*
%TO.C,R1*%
X74623819Y-100953495D02*
X74576200Y-100905876D01*
X74528580Y-100810638D01*
X74528580Y-100572542D01*
X74576200Y-100477304D01*
X74623819Y-100429685D01*
X74719057Y-100382066D01*
X74814295Y-100382066D01*
X74957152Y-100429685D01*
X75528580Y-101001114D01*
X75528580Y-100382066D01*
X74623819Y-100001114D02*
X74576200Y-99953495D01*
X74528580Y-99858257D01*
X74528580Y-99620161D01*
X74576200Y-99524923D01*
X74623819Y-99477304D01*
X74719057Y-99429685D01*
X74814295Y-99429685D01*
X74957152Y-99477304D01*
X75528580Y-100048733D01*
X75528580Y-99429685D01*
X74528580Y-98810638D02*
X74528580Y-98715400D01*
X74576200Y-98620161D01*
X74623819Y-98572542D01*
X74719057Y-98524923D01*
X74909533Y-98477304D01*
X75147628Y-98477304D01*
X75338104Y-98524923D01*
X75433342Y-98572542D01*
X75480961Y-98620161D01*
X75528580Y-98715400D01*
X75528580Y-98810638D01*
X75480961Y-98905876D01*
X75433342Y-98953495D01*
X75338104Y-99001114D01*
X75147628Y-99048733D01*
X74909533Y-99048733D01*
X74719057Y-99001114D01*
X74623819Y-98953495D01*
X74576200Y-98905876D01*
X74528580Y-98810638D01*
%TO.C,R7*%
X74547619Y-111497295D02*
X74500000Y-111449676D01*
X74452380Y-111354438D01*
X74452380Y-111116342D01*
X74500000Y-111021104D01*
X74547619Y-110973485D01*
X74642857Y-110925866D01*
X74738095Y-110925866D01*
X74880952Y-110973485D01*
X75452380Y-111544914D01*
X75452380Y-110925866D01*
X74547619Y-110544914D02*
X74500000Y-110497295D01*
X74452380Y-110402057D01*
X74452380Y-110163961D01*
X74500000Y-110068723D01*
X74547619Y-110021104D01*
X74642857Y-109973485D01*
X74738095Y-109973485D01*
X74880952Y-110021104D01*
X75452380Y-110592533D01*
X75452380Y-109973485D01*
X74452380Y-109354438D02*
X74452380Y-109259200D01*
X74500000Y-109163961D01*
X74547619Y-109116342D01*
X74642857Y-109068723D01*
X74833333Y-109021104D01*
X75071428Y-109021104D01*
X75261904Y-109068723D01*
X75357142Y-109116342D01*
X75404761Y-109163961D01*
X75452380Y-109259200D01*
X75452380Y-109354438D01*
X75404761Y-109449676D01*
X75357142Y-109497295D01*
X75261904Y-109544914D01*
X75071428Y-109592533D01*
X74833333Y-109592533D01*
X74642857Y-109544914D01*
X74547619Y-109497295D01*
X74500000Y-109449676D01*
X74452380Y-109354438D01*
%TO.C,R14*%
X124522219Y-90453495D02*
X124474600Y-90405876D01*
X124426980Y-90310638D01*
X124426980Y-90072542D01*
X124474600Y-89977304D01*
X124522219Y-89929685D01*
X124617457Y-89882066D01*
X124712695Y-89882066D01*
X124855552Y-89929685D01*
X125426980Y-90501114D01*
X125426980Y-89882066D01*
X124522219Y-89501114D02*
X124474600Y-89453495D01*
X124426980Y-89358257D01*
X124426980Y-89120161D01*
X124474600Y-89024923D01*
X124522219Y-88977304D01*
X124617457Y-88929685D01*
X124712695Y-88929685D01*
X124855552Y-88977304D01*
X125426980Y-89548733D01*
X125426980Y-88929685D01*
X124426980Y-88310638D02*
X124426980Y-88215400D01*
X124474600Y-88120161D01*
X124522219Y-88072542D01*
X124617457Y-88024923D01*
X124807933Y-87977304D01*
X125046028Y-87977304D01*
X125236504Y-88024923D01*
X125331742Y-88072542D01*
X125379361Y-88120161D01*
X125426980Y-88215400D01*
X125426980Y-88310638D01*
X125379361Y-88405876D01*
X125331742Y-88453495D01*
X125236504Y-88501114D01*
X125046028Y-88548733D01*
X124807933Y-88548733D01*
X124617457Y-88501114D01*
X124522219Y-88453495D01*
X124474600Y-88405876D01*
X124426980Y-88310638D01*
%TO.C,R13*%
X124496819Y-111598895D02*
X124449200Y-111551276D01*
X124401580Y-111456038D01*
X124401580Y-111217942D01*
X124449200Y-111122704D01*
X124496819Y-111075085D01*
X124592057Y-111027466D01*
X124687295Y-111027466D01*
X124830152Y-111075085D01*
X125401580Y-111646514D01*
X125401580Y-111027466D01*
X124496819Y-110646514D02*
X124449200Y-110598895D01*
X124401580Y-110503657D01*
X124401580Y-110265561D01*
X124449200Y-110170323D01*
X124496819Y-110122704D01*
X124592057Y-110075085D01*
X124687295Y-110075085D01*
X124830152Y-110122704D01*
X125401580Y-110694133D01*
X125401580Y-110075085D01*
X124401580Y-109456038D02*
X124401580Y-109360800D01*
X124449200Y-109265561D01*
X124496819Y-109217942D01*
X124592057Y-109170323D01*
X124782533Y-109122704D01*
X125020628Y-109122704D01*
X125211104Y-109170323D01*
X125306342Y-109217942D01*
X125353961Y-109265561D01*
X125401580Y-109360800D01*
X125401580Y-109456038D01*
X125353961Y-109551276D01*
X125306342Y-109598895D01*
X125211104Y-109646514D01*
X125020628Y-109694133D01*
X124782533Y-109694133D01*
X124592057Y-109646514D01*
X124496819Y-109598895D01*
X124449200Y-109551276D01*
X124401580Y-109456038D01*
%TO.C,D1*%
X103470342Y-116010580D02*
X102898914Y-116010580D01*
X103184628Y-116010580D02*
X103184628Y-115010580D01*
X103089390Y-115153438D01*
X102994152Y-115248676D01*
X102898914Y-115296295D01*
X103898914Y-116010580D02*
X103898914Y-115010580D01*
X104470342Y-116010580D01*
X104470342Y-115010580D01*
X105375104Y-115343914D02*
X105375104Y-116010580D01*
X105137009Y-114962961D02*
X104898914Y-115677247D01*
X105517961Y-115677247D01*
X106422723Y-116010580D02*
X105851295Y-116010580D01*
X106137009Y-116010580D02*
X106137009Y-115010580D01*
X106041771Y-115153438D01*
X105946533Y-115248676D01*
X105851295Y-115296295D01*
X107279866Y-115343914D02*
X107279866Y-116010580D01*
X107041771Y-114962961D02*
X106803676Y-115677247D01*
X107422723Y-115677247D01*
X107946533Y-115439152D02*
X107851295Y-115391533D01*
X107803676Y-115343914D01*
X107756057Y-115248676D01*
X107756057Y-115201057D01*
X107803676Y-115105819D01*
X107851295Y-115058200D01*
X107946533Y-115010580D01*
X108137009Y-115010580D01*
X108232247Y-115058200D01*
X108279866Y-115105819D01*
X108327485Y-115201057D01*
X108327485Y-115248676D01*
X108279866Y-115343914D01*
X108232247Y-115391533D01*
X108137009Y-115439152D01*
X107946533Y-115439152D01*
X107851295Y-115486771D01*
X107803676Y-115534390D01*
X107756057Y-115629628D01*
X107756057Y-115820104D01*
X107803676Y-115915342D01*
X107851295Y-115962961D01*
X107946533Y-116010580D01*
X108137009Y-116010580D01*
X108232247Y-115962961D01*
X108279866Y-115915342D01*
X108327485Y-115820104D01*
X108327485Y-115629628D01*
X108279866Y-115534390D01*
X108232247Y-115486771D01*
X108137009Y-115439152D01*
%TO.C,C2*%
X107538780Y-107440219D02*
X107538780Y-108011647D01*
X107538780Y-107725933D02*
X106538780Y-107725933D01*
X106681638Y-107821171D01*
X106776876Y-107916409D01*
X106824495Y-108011647D01*
X106538780Y-106821171D02*
X106538780Y-106725933D01*
X106586400Y-106630695D01*
X106634019Y-106583076D01*
X106729257Y-106535457D01*
X106919733Y-106487838D01*
X107157828Y-106487838D01*
X107348304Y-106535457D01*
X107443542Y-106583076D01*
X107491161Y-106630695D01*
X107538780Y-106725933D01*
X107538780Y-106821171D01*
X107491161Y-106916409D01*
X107443542Y-106964028D01*
X107348304Y-107011647D01*
X107157828Y-107059266D01*
X106919733Y-107059266D01*
X106729257Y-107011647D01*
X106634019Y-106964028D01*
X106586400Y-106916409D01*
X106538780Y-106821171D01*
X106538780Y-105868790D02*
X106538780Y-105773552D01*
X106586400Y-105678314D01*
X106634019Y-105630695D01*
X106729257Y-105583076D01*
X106919733Y-105535457D01*
X107157828Y-105535457D01*
X107348304Y-105583076D01*
X107443542Y-105630695D01*
X107491161Y-105678314D01*
X107538780Y-105773552D01*
X107538780Y-105868790D01*
X107491161Y-105964028D01*
X107443542Y-106011647D01*
X107348304Y-106059266D01*
X107157828Y-106106885D01*
X106919733Y-106106885D01*
X106729257Y-106059266D01*
X106634019Y-106011647D01*
X106586400Y-105964028D01*
X106538780Y-105868790D01*
X106872114Y-105106885D02*
X107538780Y-105106885D01*
X106967352Y-105106885D02*
X106919733Y-105059266D01*
X106872114Y-104964028D01*
X106872114Y-104821171D01*
X106919733Y-104725933D01*
X107014971Y-104678314D01*
X107538780Y-104678314D01*
X107014971Y-103868790D02*
X107014971Y-104202123D01*
X107538780Y-104202123D02*
X106538780Y-104202123D01*
X106538780Y-103725933D01*
%TO.C,C1*%
X92959180Y-107541819D02*
X92959180Y-108113247D01*
X92959180Y-107827533D02*
X91959180Y-107827533D01*
X92102038Y-107922771D01*
X92197276Y-108018009D01*
X92244895Y-108113247D01*
X91959180Y-106922771D02*
X91959180Y-106827533D01*
X92006800Y-106732295D01*
X92054419Y-106684676D01*
X92149657Y-106637057D01*
X92340133Y-106589438D01*
X92578228Y-106589438D01*
X92768704Y-106637057D01*
X92863942Y-106684676D01*
X92911561Y-106732295D01*
X92959180Y-106827533D01*
X92959180Y-106922771D01*
X92911561Y-107018009D01*
X92863942Y-107065628D01*
X92768704Y-107113247D01*
X92578228Y-107160866D01*
X92340133Y-107160866D01*
X92149657Y-107113247D01*
X92054419Y-107065628D01*
X92006800Y-107018009D01*
X91959180Y-106922771D01*
X91959180Y-105970390D02*
X91959180Y-105875152D01*
X92006800Y-105779914D01*
X92054419Y-105732295D01*
X92149657Y-105684676D01*
X92340133Y-105637057D01*
X92578228Y-105637057D01*
X92768704Y-105684676D01*
X92863942Y-105732295D01*
X92911561Y-105779914D01*
X92959180Y-105875152D01*
X92959180Y-105970390D01*
X92911561Y-106065628D01*
X92863942Y-106113247D01*
X92768704Y-106160866D01*
X92578228Y-106208485D01*
X92340133Y-106208485D01*
X92149657Y-106160866D01*
X92054419Y-106113247D01*
X92006800Y-106065628D01*
X91959180Y-105970390D01*
X92292514Y-105208485D02*
X92959180Y-105208485D01*
X92387752Y-105208485D02*
X92340133Y-105160866D01*
X92292514Y-105065628D01*
X92292514Y-104922771D01*
X92340133Y-104827533D01*
X92435371Y-104779914D01*
X92959180Y-104779914D01*
X92435371Y-103970390D02*
X92435371Y-104303723D01*
X92959180Y-104303723D02*
X91959180Y-104303723D01*
X91959180Y-103827533D01*
%TO.C,C3*%
X121621180Y-92759019D02*
X121621180Y-93330447D01*
X121621180Y-93044733D02*
X120621180Y-93044733D01*
X120764038Y-93139971D01*
X120859276Y-93235209D01*
X120906895Y-93330447D01*
X120621180Y-92139971D02*
X120621180Y-92044733D01*
X120668800Y-91949495D01*
X120716419Y-91901876D01*
X120811657Y-91854257D01*
X121002133Y-91806638D01*
X121240228Y-91806638D01*
X121430704Y-91854257D01*
X121525942Y-91901876D01*
X121573561Y-91949495D01*
X121621180Y-92044733D01*
X121621180Y-92139971D01*
X121573561Y-92235209D01*
X121525942Y-92282828D01*
X121430704Y-92330447D01*
X121240228Y-92378066D01*
X121002133Y-92378066D01*
X120811657Y-92330447D01*
X120716419Y-92282828D01*
X120668800Y-92235209D01*
X120621180Y-92139971D01*
X120621180Y-91187590D02*
X120621180Y-91092352D01*
X120668800Y-90997114D01*
X120716419Y-90949495D01*
X120811657Y-90901876D01*
X121002133Y-90854257D01*
X121240228Y-90854257D01*
X121430704Y-90901876D01*
X121525942Y-90949495D01*
X121573561Y-90997114D01*
X121621180Y-91092352D01*
X121621180Y-91187590D01*
X121573561Y-91282828D01*
X121525942Y-91330447D01*
X121430704Y-91378066D01*
X121240228Y-91425685D01*
X121002133Y-91425685D01*
X120811657Y-91378066D01*
X120716419Y-91330447D01*
X120668800Y-91282828D01*
X120621180Y-91187590D01*
X120954514Y-90425685D02*
X121621180Y-90425685D01*
X121049752Y-90425685D02*
X121002133Y-90378066D01*
X120954514Y-90282828D01*
X120954514Y-90139971D01*
X121002133Y-90044733D01*
X121097371Y-89997114D01*
X121621180Y-89997114D01*
X121097371Y-89187590D02*
X121097371Y-89520923D01*
X121621180Y-89520923D02*
X120621180Y-89520923D01*
X120621180Y-89044733D01*
%TO.C,C4*%
X117393980Y-55217819D02*
X117393980Y-55789247D01*
X117393980Y-55503533D02*
X116393980Y-55503533D01*
X116536838Y-55598771D01*
X116632076Y-55694009D01*
X116679695Y-55789247D01*
X116393980Y-54598771D02*
X116393980Y-54503533D01*
X116441600Y-54408295D01*
X116489219Y-54360676D01*
X116584457Y-54313057D01*
X116774933Y-54265438D01*
X117013028Y-54265438D01*
X117203504Y-54313057D01*
X117298742Y-54360676D01*
X117346361Y-54408295D01*
X117393980Y-54503533D01*
X117393980Y-54598771D01*
X117346361Y-54694009D01*
X117298742Y-54741628D01*
X117203504Y-54789247D01*
X117013028Y-54836866D01*
X116774933Y-54836866D01*
X116584457Y-54789247D01*
X116489219Y-54741628D01*
X116441600Y-54694009D01*
X116393980Y-54598771D01*
X116393980Y-53646390D02*
X116393980Y-53551152D01*
X116441600Y-53455914D01*
X116489219Y-53408295D01*
X116584457Y-53360676D01*
X116774933Y-53313057D01*
X117013028Y-53313057D01*
X117203504Y-53360676D01*
X117298742Y-53408295D01*
X117346361Y-53455914D01*
X117393980Y-53551152D01*
X117393980Y-53646390D01*
X117346361Y-53741628D01*
X117298742Y-53789247D01*
X117203504Y-53836866D01*
X117013028Y-53884485D01*
X116774933Y-53884485D01*
X116584457Y-53836866D01*
X116489219Y-53789247D01*
X116441600Y-53741628D01*
X116393980Y-53646390D01*
X116727314Y-52884485D02*
X117393980Y-52884485D01*
X116822552Y-52884485D02*
X116774933Y-52836866D01*
X116727314Y-52741628D01*
X116727314Y-52598771D01*
X116774933Y-52503533D01*
X116870171Y-52455914D01*
X117393980Y-52455914D01*
X116870171Y-51646390D02*
X116870171Y-51979723D01*
X117393980Y-51979723D02*
X116393980Y-51979723D01*
X116393980Y-51503533D01*
%TO.C,U4*%
X98619047Y-68611380D02*
X98619047Y-67611380D01*
X99000000Y-67611380D01*
X99095238Y-67659000D01*
X99142857Y-67706619D01*
X99190476Y-67801857D01*
X99190476Y-67944714D01*
X99142857Y-68039952D01*
X99095238Y-68087571D01*
X99000000Y-68135190D01*
X98619047Y-68135190D01*
X99619047Y-68611380D02*
X99619047Y-67944714D01*
X99619047Y-67611380D02*
X99571428Y-67659000D01*
X99619047Y-67706619D01*
X99666666Y-67659000D01*
X99619047Y-67611380D01*
X99619047Y-67706619D01*
X100523809Y-68563761D02*
X100428571Y-68611380D01*
X100238095Y-68611380D01*
X100142857Y-68563761D01*
X100095238Y-68516142D01*
X100047619Y-68420904D01*
X100047619Y-68135190D01*
X100095238Y-68039952D01*
X100142857Y-67992333D01*
X100238095Y-67944714D01*
X100428571Y-67944714D01*
X100523809Y-67992333D01*
X101095238Y-68611380D02*
X101000000Y-68563761D01*
X100952380Y-68516142D01*
X100904761Y-68420904D01*
X100904761Y-68135190D01*
X100952380Y-68039952D01*
X101000000Y-67992333D01*
X101095238Y-67944714D01*
X101238095Y-67944714D01*
X101333333Y-67992333D01*
X101380952Y-68039952D01*
X101428571Y-68135190D01*
X101428571Y-68420904D01*
X101380952Y-68516142D01*
X101333333Y-68563761D01*
X101238095Y-68611380D01*
X101095238Y-68611380D01*
X85843722Y-77820592D02*
X85762910Y-77847529D01*
X85682097Y-77928341D01*
X85628223Y-78036091D01*
X85628223Y-78143841D01*
X85655160Y-78224653D01*
X85735972Y-78359340D01*
X85816784Y-78440152D01*
X85951471Y-78520964D01*
X86032284Y-78547902D01*
X86140033Y-78547902D01*
X86247783Y-78494027D01*
X86301658Y-78440152D01*
X86355532Y-78332402D01*
X86355532Y-78278528D01*
X86166971Y-78089966D01*
X86059221Y-78197715D01*
X86651844Y-78089966D02*
X86086158Y-77524280D01*
X86301658Y-77308781D01*
X86382470Y-77281844D01*
X86436345Y-77281844D01*
X86517157Y-77308781D01*
X86597969Y-77389593D01*
X86624906Y-77470406D01*
X86624906Y-77524280D01*
X86597969Y-77605093D01*
X86382470Y-77820592D01*
X87513841Y-77227969D02*
X87190592Y-77551218D01*
X87352216Y-77389593D02*
X86786531Y-76823908D01*
X86813468Y-76958595D01*
X86813468Y-77066345D01*
X86786531Y-77147157D01*
X88052589Y-76689221D02*
X87729340Y-77012470D01*
X87890964Y-76850845D02*
X87325279Y-76285160D01*
X87352216Y-76419847D01*
X87352216Y-76527597D01*
X87325279Y-76608409D01*
X112151597Y-60740964D02*
X112420971Y-60471590D01*
X112259346Y-60956463D02*
X111882223Y-60202216D01*
X112636470Y-60579340D01*
X112582595Y-59555719D02*
X112501783Y-59582656D01*
X112420971Y-59663468D01*
X112367096Y-59771218D01*
X112367096Y-59878967D01*
X112394033Y-59959780D01*
X112474845Y-60094467D01*
X112555658Y-60175279D01*
X112690345Y-60256091D01*
X112771157Y-60283028D01*
X112878906Y-60283028D01*
X112986656Y-60229154D01*
X113040531Y-60175279D01*
X113094406Y-60067529D01*
X113094406Y-60013654D01*
X112905844Y-59825093D01*
X112798094Y-59932842D01*
X113390717Y-59825093D02*
X112825032Y-59259407D01*
X113713966Y-59501844D01*
X113148280Y-58936158D01*
X113983340Y-59232470D02*
X113417654Y-58666784D01*
X113552341Y-58532097D01*
X113660091Y-58478223D01*
X113767841Y-58478223D01*
X113848653Y-58505160D01*
X113983340Y-58585972D01*
X114064152Y-58666784D01*
X114144964Y-58801471D01*
X114171902Y-58882284D01*
X114171902Y-58990033D01*
X114118027Y-59097783D01*
X113983340Y-59232470D01*
X112086158Y-85198155D02*
X112005346Y-85225093D01*
X111924534Y-85305905D01*
X111870659Y-85413654D01*
X111870659Y-85521404D01*
X111897597Y-85602216D01*
X111978409Y-85736903D01*
X112059221Y-85817715D01*
X112193908Y-85898528D01*
X112274720Y-85925465D01*
X112382470Y-85925465D01*
X112490219Y-85871590D01*
X112544094Y-85817715D01*
X112597969Y-85709966D01*
X112597969Y-85656091D01*
X112409407Y-85467529D01*
X112301658Y-85575279D01*
X112894280Y-85467529D02*
X112328595Y-84901844D01*
X113217529Y-85144280D01*
X112651844Y-84578595D01*
X113486903Y-84874906D02*
X112921218Y-84309221D01*
X113055905Y-84174534D01*
X113163654Y-84120659D01*
X113271404Y-84120659D01*
X113352216Y-84147597D01*
X113486903Y-84228409D01*
X113567715Y-84309221D01*
X113648528Y-84443908D01*
X113675465Y-84524720D01*
X113675465Y-84632470D01*
X113621590Y-84740219D01*
X113486903Y-84874906D01*
X111953129Y-42527309D02*
X112707377Y-42904433D01*
X112330253Y-42150186D01*
X112976751Y-42042436D02*
X113084500Y-41988561D01*
X113138375Y-41988561D01*
X113219187Y-42015499D01*
X113299999Y-42096311D01*
X113326937Y-42177123D01*
X113326937Y-42230998D01*
X113300000Y-42311810D01*
X113084500Y-42527309D01*
X112518815Y-41961624D01*
X112707377Y-41773062D01*
X112788189Y-41746125D01*
X112842064Y-41746125D01*
X112922876Y-41773062D01*
X112976751Y-41826937D01*
X113003688Y-41907749D01*
X113003688Y-41961624D01*
X112976751Y-42042436D01*
X112788189Y-42230998D01*
X113084500Y-41395938D02*
X113542436Y-41853874D01*
X113623248Y-41880812D01*
X113677123Y-41880812D01*
X113757935Y-41853874D01*
X113865685Y-41746125D01*
X113892622Y-41665312D01*
X113892622Y-41611438D01*
X113865685Y-41530625D01*
X113407749Y-41072690D01*
X114188934Y-41369001D02*
X114296683Y-41315126D01*
X114431370Y-41180439D01*
X114458308Y-41099627D01*
X114458308Y-41045752D01*
X114431370Y-40964940D01*
X114377496Y-40911065D01*
X114296683Y-40884128D01*
X114242809Y-40884128D01*
X114161996Y-40911065D01*
X114027309Y-40991877D01*
X113946497Y-41018815D01*
X113892622Y-41018815D01*
X113811810Y-40991877D01*
X113757935Y-40938003D01*
X113730998Y-40857190D01*
X113730998Y-40803316D01*
X113757935Y-40722503D01*
X113892622Y-40587816D01*
X114000372Y-40533942D01*
X112086158Y-47098155D02*
X112005346Y-47125093D01*
X111924534Y-47205905D01*
X111870659Y-47313654D01*
X111870659Y-47421404D01*
X111897597Y-47502216D01*
X111978409Y-47636903D01*
X112059221Y-47717715D01*
X112193908Y-47798528D01*
X112274720Y-47825465D01*
X112382470Y-47825465D01*
X112490219Y-47771590D01*
X112544094Y-47717715D01*
X112597969Y-47609966D01*
X112597969Y-47556091D01*
X112409407Y-47367529D01*
X112301658Y-47475279D01*
X112894280Y-47367529D02*
X112328595Y-46801844D01*
X113217529Y-47044280D01*
X112651844Y-46478595D01*
X113486903Y-46774906D02*
X112921218Y-46209221D01*
X113055905Y-46074534D01*
X113163654Y-46020659D01*
X113271404Y-46020659D01*
X113352216Y-46047597D01*
X113486903Y-46128409D01*
X113567715Y-46209221D01*
X113648528Y-46343908D01*
X113675465Y-46424720D01*
X113675465Y-46532470D01*
X113621590Y-46640219D01*
X113486903Y-46774906D01*
X85989722Y-82900592D02*
X85908910Y-82927529D01*
X85828097Y-83008341D01*
X85774223Y-83116091D01*
X85774223Y-83223841D01*
X85801160Y-83304653D01*
X85881972Y-83439340D01*
X85962784Y-83520152D01*
X86097471Y-83600964D01*
X86178284Y-83627902D01*
X86286033Y-83627902D01*
X86393783Y-83574027D01*
X86447658Y-83520152D01*
X86501532Y-83412402D01*
X86501532Y-83358528D01*
X86312971Y-83169966D01*
X86205221Y-83277715D01*
X86797844Y-83169966D02*
X86232158Y-82604280D01*
X86447658Y-82388781D01*
X86528470Y-82361844D01*
X86582345Y-82361844D01*
X86663157Y-82388781D01*
X86743969Y-82469593D01*
X86770906Y-82550406D01*
X86770906Y-82604280D01*
X86743969Y-82685093D01*
X86528470Y-82900592D01*
X87659841Y-82307969D02*
X87336592Y-82631218D01*
X87498216Y-82469593D02*
X86932531Y-81903908D01*
X86959468Y-82038595D01*
X86959468Y-82146345D01*
X86932531Y-82227157D01*
X87282717Y-81553722D02*
X87632903Y-81203536D01*
X87659841Y-81607597D01*
X87740653Y-81526784D01*
X87821465Y-81499847D01*
X87875340Y-81499847D01*
X87956152Y-81526784D01*
X88090839Y-81661471D01*
X88117776Y-81742284D01*
X88117776Y-81796158D01*
X88090839Y-81876971D01*
X87929215Y-82038595D01*
X87848402Y-82065532D01*
X87794528Y-82065532D01*
X112149988Y-55602373D02*
X112419362Y-55332999D01*
X112257737Y-55817872D02*
X111880614Y-55063625D01*
X112634861Y-55440749D01*
X112823423Y-55252187D02*
X112257737Y-54686502D01*
X112392424Y-54551815D01*
X112500174Y-54497940D01*
X112607923Y-54497940D01*
X112688736Y-54524877D01*
X112823423Y-54605689D01*
X112904235Y-54686502D01*
X112985047Y-54821189D01*
X113011984Y-54902001D01*
X113011984Y-55009750D01*
X112958110Y-55117500D01*
X112823423Y-55252187D01*
X113658482Y-54309378D02*
X113658482Y-54363253D01*
X113604607Y-54471002D01*
X113550732Y-54524877D01*
X113442983Y-54578752D01*
X113335233Y-54578752D01*
X113254421Y-54551815D01*
X113119734Y-54471002D01*
X113038922Y-54390190D01*
X112958110Y-54255503D01*
X112931172Y-54174691D01*
X112931172Y-54066941D01*
X112985047Y-53959192D01*
X113038922Y-53905317D01*
X113146671Y-53851442D01*
X113200546Y-53851442D01*
X113873981Y-54309378D02*
X114304980Y-53878380D01*
X113739294Y-53204945D02*
X114493541Y-53582068D01*
X114116418Y-52827821D01*
X115193914Y-52881696D02*
X114735978Y-52800884D01*
X114870665Y-53204945D02*
X114304980Y-52639259D01*
X114520479Y-52423760D01*
X114601291Y-52396823D01*
X114655166Y-52396823D01*
X114735978Y-52423760D01*
X114816790Y-52504572D01*
X114843728Y-52585384D01*
X114843728Y-52639259D01*
X114816790Y-52720071D01*
X114601291Y-52935571D01*
X115140039Y-52342948D02*
X115328601Y-52154386D01*
X115705724Y-52369885D02*
X115436350Y-52639259D01*
X114870665Y-52073574D01*
X115140039Y-51804200D01*
X115840411Y-51642575D02*
X115651850Y-51831137D01*
X115948161Y-52127449D02*
X115382476Y-51561763D01*
X115651850Y-51292389D01*
X86513096Y-54691218D02*
X86432284Y-54718155D01*
X86351471Y-54798967D01*
X86297597Y-54906717D01*
X86297597Y-55014467D01*
X86324534Y-55095279D01*
X86405346Y-55229966D01*
X86486158Y-55310778D01*
X86620845Y-55391590D01*
X86701658Y-55418528D01*
X86809407Y-55418528D01*
X86917157Y-55364653D01*
X86971032Y-55310778D01*
X87024906Y-55203028D01*
X87024906Y-55149154D01*
X86836345Y-54960592D01*
X86728595Y-55068341D01*
X87321218Y-54960592D02*
X86755532Y-54394906D01*
X86971032Y-54179407D01*
X87051844Y-54152470D01*
X87105719Y-54152470D01*
X87186531Y-54179407D01*
X87267343Y-54260219D01*
X87294280Y-54341032D01*
X87294280Y-54394906D01*
X87267343Y-54475719D01*
X87051844Y-54691218D01*
X87752216Y-53775346D02*
X88129340Y-54152470D01*
X87402030Y-53694534D02*
X87671404Y-54233282D01*
X88021590Y-53883096D01*
X86613096Y-64821218D02*
X86532284Y-64848155D01*
X86451471Y-64928967D01*
X86397597Y-65036717D01*
X86397597Y-65144467D01*
X86424534Y-65225279D01*
X86505346Y-65359966D01*
X86586158Y-65440778D01*
X86720845Y-65521590D01*
X86801658Y-65548528D01*
X86909407Y-65548528D01*
X87017157Y-65494653D01*
X87071032Y-65440778D01*
X87124906Y-65333028D01*
X87124906Y-65279154D01*
X86936345Y-65090592D01*
X86828595Y-65198341D01*
X87421218Y-65090592D02*
X86855532Y-64524906D01*
X87071032Y-64309407D01*
X87151844Y-64282470D01*
X87205719Y-64282470D01*
X87286531Y-64309407D01*
X87367343Y-64390219D01*
X87394280Y-64471032D01*
X87394280Y-64524906D01*
X87367343Y-64605719D01*
X87151844Y-64821218D01*
X87367343Y-64013096D02*
X87744467Y-63635972D01*
X88067715Y-64444094D01*
X85989722Y-90520592D02*
X85908910Y-90547529D01*
X85828097Y-90628341D01*
X85774223Y-90736091D01*
X85774223Y-90843841D01*
X85801160Y-90924653D01*
X85881972Y-91059340D01*
X85962784Y-91140152D01*
X86097471Y-91220964D01*
X86178284Y-91247902D01*
X86286033Y-91247902D01*
X86393783Y-91194027D01*
X86447658Y-91140152D01*
X86501532Y-91032402D01*
X86501532Y-90978528D01*
X86312971Y-90789966D01*
X86205221Y-90897715D01*
X86797844Y-90789966D02*
X86232158Y-90224280D01*
X86447658Y-90008781D01*
X86528470Y-89981844D01*
X86582345Y-89981844D01*
X86663157Y-90008781D01*
X86743969Y-90089593D01*
X86770906Y-90170406D01*
X86770906Y-90224280D01*
X86743969Y-90305093D01*
X86528470Y-90520592D01*
X87659841Y-89927969D02*
X87336592Y-90251218D01*
X87498216Y-90089593D02*
X86932531Y-89523908D01*
X86959468Y-89658595D01*
X86959468Y-89766345D01*
X86932531Y-89847157D01*
X87605966Y-88850473D02*
X87336592Y-89119847D01*
X87579028Y-89416158D01*
X87579028Y-89362284D01*
X87605966Y-89281471D01*
X87740653Y-89146784D01*
X87821465Y-89119847D01*
X87875340Y-89119847D01*
X87956152Y-89146784D01*
X88090839Y-89281471D01*
X88117776Y-89362284D01*
X88117776Y-89416158D01*
X88090839Y-89496971D01*
X87956152Y-89631658D01*
X87875340Y-89658595D01*
X87821465Y-89658595D01*
X112097722Y-87980592D02*
X112016910Y-88007529D01*
X111936097Y-88088341D01*
X111882223Y-88196091D01*
X111882223Y-88303841D01*
X111909160Y-88384653D01*
X111989972Y-88519340D01*
X112070784Y-88600152D01*
X112205471Y-88680964D01*
X112286284Y-88707902D01*
X112394033Y-88707902D01*
X112501783Y-88654027D01*
X112555658Y-88600152D01*
X112609532Y-88492402D01*
X112609532Y-88438528D01*
X112420971Y-88249966D01*
X112313221Y-88357715D01*
X112905844Y-88249966D02*
X112340158Y-87684280D01*
X112555658Y-87468781D01*
X112636470Y-87441844D01*
X112690345Y-87441844D01*
X112771157Y-87468781D01*
X112851969Y-87549593D01*
X112878906Y-87630406D01*
X112878906Y-87684280D01*
X112851969Y-87765093D01*
X112636470Y-87980592D01*
X113767841Y-87387969D02*
X113444592Y-87711218D01*
X113606216Y-87549593D02*
X113040531Y-86983908D01*
X113067468Y-87118595D01*
X113067468Y-87226345D01*
X113040531Y-87307157D01*
X113390717Y-86633722D02*
X113767841Y-86256598D01*
X114091089Y-87064720D01*
X112097722Y-65120592D02*
X112016910Y-65147529D01*
X111936097Y-65228341D01*
X111882223Y-65336091D01*
X111882223Y-65443841D01*
X111909160Y-65524653D01*
X111989972Y-65659340D01*
X112070784Y-65740152D01*
X112205471Y-65820964D01*
X112286284Y-65847902D01*
X112394033Y-65847902D01*
X112501783Y-65794027D01*
X112555658Y-65740152D01*
X112609532Y-65632402D01*
X112609532Y-65578528D01*
X112420971Y-65389966D01*
X112313221Y-65497715D01*
X112905844Y-65389966D02*
X112340158Y-64824280D01*
X112555658Y-64608781D01*
X112636470Y-64581844D01*
X112690345Y-64581844D01*
X112771157Y-64608781D01*
X112851969Y-64689593D01*
X112878906Y-64770406D01*
X112878906Y-64824280D01*
X112851969Y-64905093D01*
X112636470Y-65120592D01*
X112932781Y-64339407D02*
X112932781Y-64285532D01*
X112959719Y-64204720D01*
X113094406Y-64070033D01*
X113175218Y-64043096D01*
X113229093Y-64043096D01*
X113309905Y-64070033D01*
X113363780Y-64123908D01*
X113417654Y-64231658D01*
X113417654Y-64878155D01*
X113767841Y-64527969D01*
X113687028Y-63477410D02*
X113579279Y-63585160D01*
X113552341Y-63665972D01*
X113552341Y-63719847D01*
X113579279Y-63854534D01*
X113660091Y-63989221D01*
X113875590Y-64204720D01*
X113956402Y-64231658D01*
X114010277Y-64231658D01*
X114091089Y-64204720D01*
X114198839Y-64096971D01*
X114225776Y-64016158D01*
X114225776Y-63962284D01*
X114198839Y-63881471D01*
X114064152Y-63746784D01*
X113983340Y-63719847D01*
X113929465Y-63719847D01*
X113848653Y-63746784D01*
X113740903Y-63854534D01*
X113713966Y-63935346D01*
X113713966Y-63989221D01*
X113740903Y-64070033D01*
X111633131Y-49977108D02*
X111983317Y-49626922D01*
X112010255Y-50030983D01*
X112091067Y-49950170D01*
X112171879Y-49923233D01*
X112225754Y-49923233D01*
X112306566Y-49950170D01*
X112441253Y-50084857D01*
X112468190Y-50165670D01*
X112468190Y-50219544D01*
X112441253Y-50300357D01*
X112279629Y-50461981D01*
X112198816Y-50488918D01*
X112144942Y-50488918D01*
X112144942Y-49465297D02*
X112899189Y-49842421D01*
X112522065Y-49088174D01*
X112656752Y-48953487D02*
X113006938Y-48603300D01*
X113033876Y-49007361D01*
X113114688Y-48926549D01*
X113195500Y-48899612D01*
X113249375Y-48899612D01*
X113330187Y-48926549D01*
X113464874Y-49061236D01*
X113491812Y-49142048D01*
X113491812Y-49195923D01*
X113464874Y-49276735D01*
X113303250Y-49438360D01*
X113222438Y-49465297D01*
X113168563Y-49465297D01*
X113734248Y-49115111D02*
X114165247Y-48684112D01*
X113949748Y-48199239D02*
X114138309Y-48010677D01*
X114515433Y-48226177D02*
X114246059Y-48495551D01*
X113680374Y-47929865D01*
X113949748Y-47660491D01*
X114757870Y-47983740D02*
X114192184Y-47418055D01*
X115081118Y-47660491D01*
X114515433Y-47094806D01*
X111889847Y-52490592D02*
X112240033Y-52140406D01*
X112266971Y-52544467D01*
X112347783Y-52463654D01*
X112428595Y-52436717D01*
X112482470Y-52436717D01*
X112563282Y-52463654D01*
X112697969Y-52598341D01*
X112724906Y-52679154D01*
X112724906Y-52733028D01*
X112697969Y-52813841D01*
X112536345Y-52975465D01*
X112455532Y-53002402D01*
X112401658Y-53002402D01*
X112401658Y-51978781D02*
X113155905Y-52355905D01*
X112778781Y-51601658D01*
X112913468Y-51466971D02*
X113263654Y-51116784D01*
X113290592Y-51520845D01*
X113371404Y-51440033D01*
X113452216Y-51413096D01*
X113506091Y-51413096D01*
X113586903Y-51440033D01*
X113721590Y-51574720D01*
X113748528Y-51655532D01*
X113748528Y-51709407D01*
X113721590Y-51790219D01*
X113559966Y-51951844D01*
X113479154Y-51978781D01*
X113425279Y-51978781D01*
X86513096Y-67391218D02*
X86432284Y-67418155D01*
X86351471Y-67498967D01*
X86297597Y-67606717D01*
X86297597Y-67714467D01*
X86324534Y-67795279D01*
X86405346Y-67929966D01*
X86486158Y-68010778D01*
X86620845Y-68091590D01*
X86701658Y-68118528D01*
X86809407Y-68118528D01*
X86917157Y-68064653D01*
X86971032Y-68010778D01*
X87024906Y-67903028D01*
X87024906Y-67849154D01*
X86836345Y-67660592D01*
X86728595Y-67768341D01*
X87321218Y-67660592D02*
X86755532Y-67094906D01*
X86971032Y-66879407D01*
X87051844Y-66852470D01*
X87105719Y-66852470D01*
X87186531Y-66879407D01*
X87267343Y-66960219D01*
X87294280Y-67041032D01*
X87294280Y-67094906D01*
X87267343Y-67175719D01*
X87051844Y-67391218D01*
X87644467Y-66690845D02*
X87563654Y-66717783D01*
X87509780Y-66717783D01*
X87428967Y-66690845D01*
X87402030Y-66663908D01*
X87375093Y-66583096D01*
X87375093Y-66529221D01*
X87402030Y-66448409D01*
X87509780Y-66340659D01*
X87590592Y-66313722D01*
X87644467Y-66313722D01*
X87725279Y-66340659D01*
X87752216Y-66367597D01*
X87779154Y-66448409D01*
X87779154Y-66502284D01*
X87752216Y-66583096D01*
X87644467Y-66690845D01*
X87617529Y-66771658D01*
X87617529Y-66825532D01*
X87644467Y-66906345D01*
X87752216Y-67014094D01*
X87833028Y-67041032D01*
X87886903Y-67041032D01*
X87967715Y-67014094D01*
X88075465Y-66906345D01*
X88102402Y-66825532D01*
X88102402Y-66771658D01*
X88075465Y-66690845D01*
X87967715Y-66583096D01*
X87886903Y-66556158D01*
X87833028Y-66556158D01*
X87752216Y-66583096D01*
X112097722Y-90520592D02*
X112016910Y-90547529D01*
X111936097Y-90628341D01*
X111882223Y-90736091D01*
X111882223Y-90843841D01*
X111909160Y-90924653D01*
X111989972Y-91059340D01*
X112070784Y-91140152D01*
X112205471Y-91220964D01*
X112286284Y-91247902D01*
X112394033Y-91247902D01*
X112501783Y-91194027D01*
X112555658Y-91140152D01*
X112609532Y-91032402D01*
X112609532Y-90978528D01*
X112420971Y-90789966D01*
X112313221Y-90897715D01*
X112905844Y-90789966D02*
X112340158Y-90224280D01*
X112555658Y-90008781D01*
X112636470Y-89981844D01*
X112690345Y-89981844D01*
X112771157Y-90008781D01*
X112851969Y-90089593D01*
X112878906Y-90170406D01*
X112878906Y-90224280D01*
X112851969Y-90305093D01*
X112636470Y-90520592D01*
X113767841Y-89927969D02*
X113444592Y-90251218D01*
X113606216Y-90089593D02*
X113040531Y-89523908D01*
X113067468Y-89658595D01*
X113067468Y-89766345D01*
X113040531Y-89847157D01*
X113687028Y-88877410D02*
X113579279Y-88985160D01*
X113552341Y-89065972D01*
X113552341Y-89119847D01*
X113579279Y-89254534D01*
X113660091Y-89389221D01*
X113875590Y-89604720D01*
X113956402Y-89631658D01*
X114010277Y-89631658D01*
X114091089Y-89604720D01*
X114198839Y-89496971D01*
X114225776Y-89416158D01*
X114225776Y-89362284D01*
X114198839Y-89281471D01*
X114064152Y-89146784D01*
X113983340Y-89119847D01*
X113929465Y-89119847D01*
X113848653Y-89146784D01*
X113740903Y-89254534D01*
X113713966Y-89335346D01*
X113713966Y-89389221D01*
X113740903Y-89470033D01*
X112086158Y-72498155D02*
X112005346Y-72525093D01*
X111924534Y-72605905D01*
X111870659Y-72713654D01*
X111870659Y-72821404D01*
X111897597Y-72902216D01*
X111978409Y-73036903D01*
X112059221Y-73117715D01*
X112193908Y-73198528D01*
X112274720Y-73225465D01*
X112382470Y-73225465D01*
X112490219Y-73171590D01*
X112544094Y-73117715D01*
X112597969Y-73009966D01*
X112597969Y-72956091D01*
X112409407Y-72767529D01*
X112301658Y-72875279D01*
X112894280Y-72767529D02*
X112328595Y-72201844D01*
X113217529Y-72444280D01*
X112651844Y-71878595D01*
X113486903Y-72174906D02*
X112921218Y-71609221D01*
X113055905Y-71474534D01*
X113163654Y-71420659D01*
X113271404Y-71420659D01*
X113352216Y-71447597D01*
X113486903Y-71528409D01*
X113567715Y-71609221D01*
X113648528Y-71743908D01*
X113675465Y-71824720D01*
X113675465Y-71932470D01*
X113621590Y-72040219D01*
X113486903Y-72174906D01*
X86486158Y-59798155D02*
X86405346Y-59825093D01*
X86324534Y-59905905D01*
X86270659Y-60013654D01*
X86270659Y-60121404D01*
X86297597Y-60202216D01*
X86378409Y-60336903D01*
X86459221Y-60417715D01*
X86593908Y-60498528D01*
X86674720Y-60525465D01*
X86782470Y-60525465D01*
X86890219Y-60471590D01*
X86944094Y-60417715D01*
X86997969Y-60309966D01*
X86997969Y-60256091D01*
X86809407Y-60067529D01*
X86701658Y-60175279D01*
X87294280Y-60067529D02*
X86728595Y-59501844D01*
X87617529Y-59744280D01*
X87051844Y-59178595D01*
X87886903Y-59474906D02*
X87321218Y-58909221D01*
X87455905Y-58774534D01*
X87563654Y-58720659D01*
X87671404Y-58720659D01*
X87752216Y-58747597D01*
X87886903Y-58828409D01*
X87967715Y-58909221D01*
X88048528Y-59043908D01*
X88075465Y-59124720D01*
X88075465Y-59232470D01*
X88021590Y-59340219D01*
X87886903Y-59474906D01*
X112097722Y-57246592D02*
X112016910Y-57273529D01*
X111936097Y-57354341D01*
X111882223Y-57462091D01*
X111882223Y-57569841D01*
X111909160Y-57650653D01*
X111989972Y-57785340D01*
X112070784Y-57866152D01*
X112205471Y-57946964D01*
X112286284Y-57973902D01*
X112394033Y-57973902D01*
X112501783Y-57920027D01*
X112555658Y-57866152D01*
X112609532Y-57758402D01*
X112609532Y-57704528D01*
X112420971Y-57515966D01*
X112313221Y-57623715D01*
X112905844Y-57515966D02*
X112340158Y-56950280D01*
X112555658Y-56734781D01*
X112636470Y-56707844D01*
X112690345Y-56707844D01*
X112771157Y-56734781D01*
X112851969Y-56815593D01*
X112878906Y-56896406D01*
X112878906Y-56950280D01*
X112851969Y-57031093D01*
X112636470Y-57246592D01*
X112932781Y-56465407D02*
X112932781Y-56411532D01*
X112959719Y-56330720D01*
X113094406Y-56196033D01*
X113175218Y-56169096D01*
X113229093Y-56169096D01*
X113309905Y-56196033D01*
X113363780Y-56249908D01*
X113417654Y-56357658D01*
X113417654Y-57004155D01*
X113767841Y-56653969D01*
X113767841Y-56007471D02*
X113687028Y-56034409D01*
X113633154Y-56034409D01*
X113552341Y-56007471D01*
X113525404Y-55980534D01*
X113498467Y-55899722D01*
X113498467Y-55845847D01*
X113525404Y-55765035D01*
X113633154Y-55657285D01*
X113713966Y-55630348D01*
X113767841Y-55630348D01*
X113848653Y-55657285D01*
X113875590Y-55684223D01*
X113902528Y-55765035D01*
X113902528Y-55818910D01*
X113875590Y-55899722D01*
X113767841Y-56007471D01*
X113740903Y-56088284D01*
X113740903Y-56142158D01*
X113767841Y-56222971D01*
X113875590Y-56330720D01*
X113956402Y-56357658D01*
X114010277Y-56357658D01*
X114091089Y-56330720D01*
X114198839Y-56222971D01*
X114225776Y-56142158D01*
X114225776Y-56088284D01*
X114198839Y-56007471D01*
X114091089Y-55899722D01*
X114010277Y-55872784D01*
X113956402Y-55872784D01*
X113875590Y-55899722D01*
X86513096Y-69931218D02*
X86432284Y-69958155D01*
X86351471Y-70038967D01*
X86297597Y-70146717D01*
X86297597Y-70254467D01*
X86324534Y-70335279D01*
X86405346Y-70469966D01*
X86486158Y-70550778D01*
X86620845Y-70631590D01*
X86701658Y-70658528D01*
X86809407Y-70658528D01*
X86917157Y-70604653D01*
X86971032Y-70550778D01*
X87024906Y-70443028D01*
X87024906Y-70389154D01*
X86836345Y-70200592D01*
X86728595Y-70308341D01*
X87321218Y-70200592D02*
X86755532Y-69634906D01*
X86971032Y-69419407D01*
X87051844Y-69392470D01*
X87105719Y-69392470D01*
X87186531Y-69419407D01*
X87267343Y-69500219D01*
X87294280Y-69581032D01*
X87294280Y-69634906D01*
X87267343Y-69715719D01*
X87051844Y-69931218D01*
X87913841Y-69607969D02*
X88021590Y-69500219D01*
X88048528Y-69419407D01*
X88048528Y-69365532D01*
X88021590Y-69230845D01*
X87940778Y-69096158D01*
X87725279Y-68880659D01*
X87644467Y-68853722D01*
X87590592Y-68853722D01*
X87509780Y-68880659D01*
X87402030Y-68988409D01*
X87375093Y-69069221D01*
X87375093Y-69123096D01*
X87402030Y-69203908D01*
X87536717Y-69338595D01*
X87617529Y-69365532D01*
X87671404Y-69365532D01*
X87752216Y-69338595D01*
X87859966Y-69230845D01*
X87886903Y-69150033D01*
X87886903Y-69096158D01*
X87859966Y-69015346D01*
X86513096Y-57231218D02*
X86432284Y-57258155D01*
X86351471Y-57338967D01*
X86297597Y-57446717D01*
X86297597Y-57554467D01*
X86324534Y-57635279D01*
X86405346Y-57769966D01*
X86486158Y-57850778D01*
X86620845Y-57931590D01*
X86701658Y-57958528D01*
X86809407Y-57958528D01*
X86917157Y-57904653D01*
X86971032Y-57850778D01*
X87024906Y-57743028D01*
X87024906Y-57689154D01*
X86836345Y-57500592D01*
X86728595Y-57608341D01*
X87321218Y-57500592D02*
X86755532Y-56934906D01*
X86971032Y-56719407D01*
X87051844Y-56692470D01*
X87105719Y-56692470D01*
X87186531Y-56719407D01*
X87267343Y-56800219D01*
X87294280Y-56881032D01*
X87294280Y-56934906D01*
X87267343Y-57015719D01*
X87051844Y-57231218D01*
X87590592Y-56099847D02*
X87321218Y-56369221D01*
X87563654Y-56665532D01*
X87563654Y-56611658D01*
X87590592Y-56530845D01*
X87725279Y-56396158D01*
X87806091Y-56369221D01*
X87859966Y-56369221D01*
X87940778Y-56396158D01*
X88075465Y-56530845D01*
X88102402Y-56611658D01*
X88102402Y-56665532D01*
X88075465Y-56746345D01*
X87940778Y-56881032D01*
X87859966Y-56907969D01*
X87806091Y-56907969D01*
X86513096Y-41991218D02*
X86432284Y-42018155D01*
X86351471Y-42098967D01*
X86297597Y-42206717D01*
X86297597Y-42314467D01*
X86324534Y-42395279D01*
X86405346Y-42529966D01*
X86486158Y-42610778D01*
X86620845Y-42691590D01*
X86701658Y-42718528D01*
X86809407Y-42718528D01*
X86917157Y-42664653D01*
X86971032Y-42610778D01*
X87024906Y-42503028D01*
X87024906Y-42449154D01*
X86836345Y-42260592D01*
X86728595Y-42368341D01*
X87321218Y-42260592D02*
X86755532Y-41694906D01*
X86971032Y-41479407D01*
X87051844Y-41452470D01*
X87105719Y-41452470D01*
X87186531Y-41479407D01*
X87267343Y-41560219D01*
X87294280Y-41641032D01*
X87294280Y-41694906D01*
X87267343Y-41775719D01*
X87051844Y-41991218D01*
X87428967Y-41021471D02*
X87482842Y-40967597D01*
X87563654Y-40940659D01*
X87617529Y-40940659D01*
X87698341Y-40967597D01*
X87833028Y-41048409D01*
X87967715Y-41183096D01*
X88048528Y-41317783D01*
X88075465Y-41398595D01*
X88075465Y-41452470D01*
X88048528Y-41533282D01*
X87994653Y-41587157D01*
X87913841Y-41614094D01*
X87859966Y-41614094D01*
X87779154Y-41587157D01*
X87644467Y-41506345D01*
X87509780Y-41371658D01*
X87428967Y-41236971D01*
X87402030Y-41156158D01*
X87402030Y-41102284D01*
X87428967Y-41021471D01*
X86513096Y-52151218D02*
X86432284Y-52178155D01*
X86351471Y-52258967D01*
X86297597Y-52366717D01*
X86297597Y-52474467D01*
X86324534Y-52555279D01*
X86405346Y-52689966D01*
X86486158Y-52770778D01*
X86620845Y-52851590D01*
X86701658Y-52878528D01*
X86809407Y-52878528D01*
X86917157Y-52824653D01*
X86971032Y-52770778D01*
X87024906Y-52663028D01*
X87024906Y-52609154D01*
X86836345Y-52420592D01*
X86728595Y-52528341D01*
X87321218Y-52420592D02*
X86755532Y-51854906D01*
X86971032Y-51639407D01*
X87051844Y-51612470D01*
X87105719Y-51612470D01*
X87186531Y-51639407D01*
X87267343Y-51720219D01*
X87294280Y-51801032D01*
X87294280Y-51854906D01*
X87267343Y-51935719D01*
X87051844Y-52151218D01*
X87267343Y-51343096D02*
X87617529Y-50992910D01*
X87644467Y-51396971D01*
X87725279Y-51316158D01*
X87806091Y-51289221D01*
X87859966Y-51289221D01*
X87940778Y-51316158D01*
X88075465Y-51450845D01*
X88102402Y-51531658D01*
X88102402Y-51585532D01*
X88075465Y-51666345D01*
X87913841Y-51827969D01*
X87833028Y-51854906D01*
X87779154Y-51854906D01*
X86486158Y-85198155D02*
X86405346Y-85225093D01*
X86324534Y-85305905D01*
X86270659Y-85413654D01*
X86270659Y-85521404D01*
X86297597Y-85602216D01*
X86378409Y-85736903D01*
X86459221Y-85817715D01*
X86593908Y-85898528D01*
X86674720Y-85925465D01*
X86782470Y-85925465D01*
X86890219Y-85871590D01*
X86944094Y-85817715D01*
X86997969Y-85709966D01*
X86997969Y-85656091D01*
X86809407Y-85467529D01*
X86701658Y-85575279D01*
X87294280Y-85467529D02*
X86728595Y-84901844D01*
X87617529Y-85144280D01*
X87051844Y-84578595D01*
X87886903Y-84874906D02*
X87321218Y-84309221D01*
X87455905Y-84174534D01*
X87563654Y-84120659D01*
X87671404Y-84120659D01*
X87752216Y-84147597D01*
X87886903Y-84228409D01*
X87967715Y-84309221D01*
X88048528Y-84443908D01*
X88075465Y-84524720D01*
X88075465Y-84632470D01*
X88021590Y-84740219D01*
X87886903Y-84874906D01*
X86486158Y-47098155D02*
X86405346Y-47125093D01*
X86324534Y-47205905D01*
X86270659Y-47313654D01*
X86270659Y-47421404D01*
X86297597Y-47502216D01*
X86378409Y-47636903D01*
X86459221Y-47717715D01*
X86593908Y-47798528D01*
X86674720Y-47825465D01*
X86782470Y-47825465D01*
X86890219Y-47771590D01*
X86944094Y-47717715D01*
X86997969Y-47609966D01*
X86997969Y-47556091D01*
X86809407Y-47367529D01*
X86701658Y-47475279D01*
X87294280Y-47367529D02*
X86728595Y-46801844D01*
X87617529Y-47044280D01*
X87051844Y-46478595D01*
X87886903Y-46774906D02*
X87321218Y-46209221D01*
X87455905Y-46074534D01*
X87563654Y-46020659D01*
X87671404Y-46020659D01*
X87752216Y-46047597D01*
X87886903Y-46128409D01*
X87967715Y-46209221D01*
X88048528Y-46343908D01*
X88075465Y-46424720D01*
X88075465Y-46532470D01*
X88021590Y-46640219D01*
X87886903Y-46774906D01*
X112097722Y-77820592D02*
X112016910Y-77847529D01*
X111936097Y-77928341D01*
X111882223Y-78036091D01*
X111882223Y-78143841D01*
X111909160Y-78224653D01*
X111989972Y-78359340D01*
X112070784Y-78440152D01*
X112205471Y-78520964D01*
X112286284Y-78547902D01*
X112394033Y-78547902D01*
X112501783Y-78494027D01*
X112555658Y-78440152D01*
X112609532Y-78332402D01*
X112609532Y-78278528D01*
X112420971Y-78089966D01*
X112313221Y-78197715D01*
X112905844Y-78089966D02*
X112340158Y-77524280D01*
X112555658Y-77308781D01*
X112636470Y-77281844D01*
X112690345Y-77281844D01*
X112771157Y-77308781D01*
X112851969Y-77389593D01*
X112878906Y-77470406D01*
X112878906Y-77524280D01*
X112851969Y-77605093D01*
X112636470Y-77820592D01*
X112932781Y-77039407D02*
X112932781Y-76985532D01*
X112959719Y-76904720D01*
X113094406Y-76770033D01*
X113175218Y-76743096D01*
X113229093Y-76743096D01*
X113309905Y-76770033D01*
X113363780Y-76823908D01*
X113417654Y-76931658D01*
X113417654Y-77578155D01*
X113767841Y-77227969D01*
X113552341Y-76312097D02*
X113606216Y-76258223D01*
X113687028Y-76231285D01*
X113740903Y-76231285D01*
X113821715Y-76258223D01*
X113956402Y-76339035D01*
X114091089Y-76473722D01*
X114171902Y-76608409D01*
X114198839Y-76689221D01*
X114198839Y-76743096D01*
X114171902Y-76823908D01*
X114118027Y-76877783D01*
X114037215Y-76904720D01*
X113983340Y-76904720D01*
X113902528Y-76877783D01*
X113767841Y-76796971D01*
X113633154Y-76662284D01*
X113552341Y-76527597D01*
X113525404Y-76446784D01*
X113525404Y-76392910D01*
X113552341Y-76312097D01*
X112097722Y-80360592D02*
X112016910Y-80387529D01*
X111936097Y-80468341D01*
X111882223Y-80576091D01*
X111882223Y-80683841D01*
X111909160Y-80764653D01*
X111989972Y-80899340D01*
X112070784Y-80980152D01*
X112205471Y-81060964D01*
X112286284Y-81087902D01*
X112394033Y-81087902D01*
X112501783Y-81034027D01*
X112555658Y-80980152D01*
X112609532Y-80872402D01*
X112609532Y-80818528D01*
X112420971Y-80629966D01*
X112313221Y-80737715D01*
X112905844Y-80629966D02*
X112340158Y-80064280D01*
X112555658Y-79848781D01*
X112636470Y-79821844D01*
X112690345Y-79821844D01*
X112771157Y-79848781D01*
X112851969Y-79929593D01*
X112878906Y-80010406D01*
X112878906Y-80064280D01*
X112851969Y-80145093D01*
X112636470Y-80360592D01*
X113767841Y-79767969D02*
X113444592Y-80091218D01*
X113606216Y-79929593D02*
X113040531Y-79363908D01*
X113067468Y-79498595D01*
X113067468Y-79606345D01*
X113040531Y-79687157D01*
X114037215Y-79498595D02*
X114144964Y-79390845D01*
X114171902Y-79310033D01*
X114171902Y-79256158D01*
X114144964Y-79121471D01*
X114064152Y-78986784D01*
X113848653Y-78771285D01*
X113767841Y-78744348D01*
X113713966Y-78744348D01*
X113633154Y-78771285D01*
X113525404Y-78879035D01*
X113498467Y-78959847D01*
X113498467Y-79013722D01*
X113525404Y-79094534D01*
X113660091Y-79229221D01*
X113740903Y-79256158D01*
X113794778Y-79256158D01*
X113875590Y-79229221D01*
X113983340Y-79121471D01*
X114010277Y-79040659D01*
X114010277Y-78986784D01*
X113983340Y-78905972D01*
X86413096Y-49611218D02*
X86332284Y-49638155D01*
X86251471Y-49718967D01*
X86197597Y-49826717D01*
X86197597Y-49934467D01*
X86224534Y-50015279D01*
X86305346Y-50149966D01*
X86386158Y-50230778D01*
X86520845Y-50311590D01*
X86601658Y-50338528D01*
X86709407Y-50338528D01*
X86817157Y-50284653D01*
X86871032Y-50230778D01*
X86924906Y-50123028D01*
X86924906Y-50069154D01*
X86736345Y-49880592D01*
X86628595Y-49988341D01*
X87221218Y-49880592D02*
X86655532Y-49314906D01*
X86871032Y-49099407D01*
X86951844Y-49072470D01*
X87005719Y-49072470D01*
X87086531Y-49099407D01*
X87167343Y-49180219D01*
X87194280Y-49261032D01*
X87194280Y-49314906D01*
X87167343Y-49395719D01*
X86951844Y-49611218D01*
X87248155Y-48830033D02*
X87248155Y-48776158D01*
X87275093Y-48695346D01*
X87409780Y-48560659D01*
X87490592Y-48533722D01*
X87544467Y-48533722D01*
X87625279Y-48560659D01*
X87679154Y-48614534D01*
X87733028Y-48722284D01*
X87733028Y-49368781D01*
X88083215Y-49018595D01*
X112097722Y-82900592D02*
X112016910Y-82927529D01*
X111936097Y-83008341D01*
X111882223Y-83116091D01*
X111882223Y-83223841D01*
X111909160Y-83304653D01*
X111989972Y-83439340D01*
X112070784Y-83520152D01*
X112205471Y-83600964D01*
X112286284Y-83627902D01*
X112394033Y-83627902D01*
X112501783Y-83574027D01*
X112555658Y-83520152D01*
X112609532Y-83412402D01*
X112609532Y-83358528D01*
X112420971Y-83169966D01*
X112313221Y-83277715D01*
X112905844Y-83169966D02*
X112340158Y-82604280D01*
X112555658Y-82388781D01*
X112636470Y-82361844D01*
X112690345Y-82361844D01*
X112771157Y-82388781D01*
X112851969Y-82469593D01*
X112878906Y-82550406D01*
X112878906Y-82604280D01*
X112851969Y-82685093D01*
X112636470Y-82900592D01*
X113767841Y-82307969D02*
X113444592Y-82631218D01*
X113606216Y-82469593D02*
X113040531Y-81903908D01*
X113067468Y-82038595D01*
X113067468Y-82146345D01*
X113040531Y-82227157D01*
X113767841Y-81661471D02*
X113687028Y-81688409D01*
X113633154Y-81688409D01*
X113552341Y-81661471D01*
X113525404Y-81634534D01*
X113498467Y-81553722D01*
X113498467Y-81499847D01*
X113525404Y-81419035D01*
X113633154Y-81311285D01*
X113713966Y-81284348D01*
X113767841Y-81284348D01*
X113848653Y-81311285D01*
X113875590Y-81338223D01*
X113902528Y-81419035D01*
X113902528Y-81472910D01*
X113875590Y-81553722D01*
X113767841Y-81661471D01*
X113740903Y-81742284D01*
X113740903Y-81796158D01*
X113767841Y-81876971D01*
X113875590Y-81984720D01*
X113956402Y-82011658D01*
X114010277Y-82011658D01*
X114091089Y-81984720D01*
X114198839Y-81876971D01*
X114225776Y-81796158D01*
X114225776Y-81742284D01*
X114198839Y-81661471D01*
X114091089Y-81553722D01*
X114010277Y-81526784D01*
X113956402Y-81526784D01*
X113875590Y-81553722D01*
X86513096Y-62311218D02*
X86432284Y-62338155D01*
X86351471Y-62418967D01*
X86297597Y-62526717D01*
X86297597Y-62634467D01*
X86324534Y-62715279D01*
X86405346Y-62849966D01*
X86486158Y-62930778D01*
X86620845Y-63011590D01*
X86701658Y-63038528D01*
X86809407Y-63038528D01*
X86917157Y-62984653D01*
X86971032Y-62930778D01*
X87024906Y-62823028D01*
X87024906Y-62769154D01*
X86836345Y-62580592D01*
X86728595Y-62688341D01*
X87321218Y-62580592D02*
X86755532Y-62014906D01*
X86971032Y-61799407D01*
X87051844Y-61772470D01*
X87105719Y-61772470D01*
X87186531Y-61799407D01*
X87267343Y-61880219D01*
X87294280Y-61961032D01*
X87294280Y-62014906D01*
X87267343Y-62095719D01*
X87051844Y-62311218D01*
X87563654Y-61206784D02*
X87455905Y-61314534D01*
X87428967Y-61395346D01*
X87428967Y-61449221D01*
X87455905Y-61583908D01*
X87536717Y-61718595D01*
X87752216Y-61934094D01*
X87833028Y-61961032D01*
X87886903Y-61961032D01*
X87967715Y-61934094D01*
X88075465Y-61826345D01*
X88102402Y-61745532D01*
X88102402Y-61691658D01*
X88075465Y-61610845D01*
X87940778Y-61476158D01*
X87859966Y-61449221D01*
X87806091Y-61449221D01*
X87725279Y-61476158D01*
X87617529Y-61583908D01*
X87590592Y-61664720D01*
X87590592Y-61718595D01*
X87617529Y-61799407D01*
X112097722Y-75290592D02*
X112016910Y-75317529D01*
X111936097Y-75398341D01*
X111882223Y-75506091D01*
X111882223Y-75613841D01*
X111909160Y-75694653D01*
X111989972Y-75829340D01*
X112070784Y-75910152D01*
X112205471Y-75990964D01*
X112286284Y-76017902D01*
X112394033Y-76017902D01*
X112501783Y-75964027D01*
X112555658Y-75910152D01*
X112609532Y-75802402D01*
X112609532Y-75748528D01*
X112420971Y-75559966D01*
X112313221Y-75667715D01*
X112905844Y-75559966D02*
X112340158Y-74994280D01*
X112555658Y-74778781D01*
X112636470Y-74751844D01*
X112690345Y-74751844D01*
X112771157Y-74778781D01*
X112851969Y-74859593D01*
X112878906Y-74940406D01*
X112878906Y-74994280D01*
X112851969Y-75075093D01*
X112636470Y-75290592D01*
X112932781Y-74509407D02*
X112932781Y-74455532D01*
X112959719Y-74374720D01*
X113094406Y-74240033D01*
X113175218Y-74213096D01*
X113229093Y-74213096D01*
X113309905Y-74240033D01*
X113363780Y-74293908D01*
X113417654Y-74401658D01*
X113417654Y-75048155D01*
X113767841Y-74697969D01*
X114306589Y-74159221D02*
X113983340Y-74482470D01*
X114144964Y-74320845D02*
X113579279Y-73755160D01*
X113606216Y-73889847D01*
X113606216Y-73997597D01*
X113579279Y-74078409D01*
X112097722Y-70200592D02*
X112016910Y-70227529D01*
X111936097Y-70308341D01*
X111882223Y-70416091D01*
X111882223Y-70523841D01*
X111909160Y-70604653D01*
X111989972Y-70739340D01*
X112070784Y-70820152D01*
X112205471Y-70900964D01*
X112286284Y-70927902D01*
X112394033Y-70927902D01*
X112501783Y-70874027D01*
X112555658Y-70820152D01*
X112609532Y-70712402D01*
X112609532Y-70658528D01*
X112420971Y-70469966D01*
X112313221Y-70577715D01*
X112905844Y-70469966D02*
X112340158Y-69904280D01*
X112555658Y-69688781D01*
X112636470Y-69661844D01*
X112690345Y-69661844D01*
X112771157Y-69688781D01*
X112851969Y-69769593D01*
X112878906Y-69850406D01*
X112878906Y-69904280D01*
X112851969Y-69985093D01*
X112636470Y-70200592D01*
X112932781Y-69419407D02*
X112932781Y-69365532D01*
X112959719Y-69284720D01*
X113094406Y-69150033D01*
X113175218Y-69123096D01*
X113229093Y-69123096D01*
X113309905Y-69150033D01*
X113363780Y-69203908D01*
X113417654Y-69311658D01*
X113417654Y-69958155D01*
X113767841Y-69607969D01*
X113471529Y-68880659D02*
X113471529Y-68826784D01*
X113498467Y-68745972D01*
X113633154Y-68611285D01*
X113713966Y-68584348D01*
X113767841Y-68584348D01*
X113848653Y-68611285D01*
X113902528Y-68665160D01*
X113956402Y-68772910D01*
X113956402Y-69419407D01*
X114306589Y-69069221D01*
X86486158Y-72498155D02*
X86405346Y-72525093D01*
X86324534Y-72605905D01*
X86270659Y-72713654D01*
X86270659Y-72821404D01*
X86297597Y-72902216D01*
X86378409Y-73036903D01*
X86459221Y-73117715D01*
X86593908Y-73198528D01*
X86674720Y-73225465D01*
X86782470Y-73225465D01*
X86890219Y-73171590D01*
X86944094Y-73117715D01*
X86997969Y-73009966D01*
X86997969Y-72956091D01*
X86809407Y-72767529D01*
X86701658Y-72875279D01*
X87294280Y-72767529D02*
X86728595Y-72201844D01*
X87617529Y-72444280D01*
X87051844Y-71878595D01*
X87886903Y-72174906D02*
X87321218Y-71609221D01*
X87455905Y-71474534D01*
X87563654Y-71420659D01*
X87671404Y-71420659D01*
X87752216Y-71447597D01*
X87886903Y-71528409D01*
X87967715Y-71609221D01*
X88048528Y-71743908D01*
X88075465Y-71824720D01*
X88075465Y-71932470D01*
X88021590Y-72040219D01*
X87886903Y-72174906D01*
X85943722Y-87980592D02*
X85862910Y-88007529D01*
X85782097Y-88088341D01*
X85728223Y-88196091D01*
X85728223Y-88303841D01*
X85755160Y-88384653D01*
X85835972Y-88519340D01*
X85916784Y-88600152D01*
X86051471Y-88680964D01*
X86132284Y-88707902D01*
X86240033Y-88707902D01*
X86347783Y-88654027D01*
X86401658Y-88600152D01*
X86455532Y-88492402D01*
X86455532Y-88438528D01*
X86266971Y-88249966D01*
X86159221Y-88357715D01*
X86751844Y-88249966D02*
X86186158Y-87684280D01*
X86401658Y-87468781D01*
X86482470Y-87441844D01*
X86536345Y-87441844D01*
X86617157Y-87468781D01*
X86697969Y-87549593D01*
X86724906Y-87630406D01*
X86724906Y-87684280D01*
X86697969Y-87765093D01*
X86482470Y-87980592D01*
X87613841Y-87387969D02*
X87290592Y-87711218D01*
X87452216Y-87549593D02*
X86886531Y-86983908D01*
X86913468Y-87118595D01*
X86913468Y-87226345D01*
X86886531Y-87307157D01*
X87721590Y-86525972D02*
X88098714Y-86903096D01*
X87371404Y-86445160D02*
X87640778Y-86983908D01*
X87990964Y-86633722D01*
X111920473Y-45069966D02*
X112674720Y-45447089D01*
X112297597Y-44692842D01*
X112997969Y-45069966D02*
X113105719Y-45016091D01*
X113240406Y-44881404D01*
X113267343Y-44800592D01*
X113267343Y-44746717D01*
X113240406Y-44665905D01*
X113186531Y-44612030D01*
X113105719Y-44585093D01*
X113051844Y-44585093D01*
X112971032Y-44612030D01*
X112836345Y-44692842D01*
X112755532Y-44719780D01*
X112701658Y-44719780D01*
X112620845Y-44692842D01*
X112566971Y-44638967D01*
X112540033Y-44558155D01*
X112540033Y-44504280D01*
X112566971Y-44423468D01*
X112701658Y-44288781D01*
X112809407Y-44234906D01*
X113428967Y-44154094D02*
X113698341Y-44423468D01*
X112944094Y-44046345D02*
X113428967Y-44154094D01*
X113321218Y-43669221D01*
X114021590Y-44046345D02*
X114129340Y-43992470D01*
X114264027Y-43857783D01*
X114290964Y-43776971D01*
X114290964Y-43723096D01*
X114264027Y-43642284D01*
X114210152Y-43588409D01*
X114129340Y-43561471D01*
X114075465Y-43561471D01*
X113994653Y-43588409D01*
X113859966Y-43669221D01*
X113779154Y-43696158D01*
X113725279Y-43696158D01*
X113644467Y-43669221D01*
X113590592Y-43615346D01*
X113563654Y-43534534D01*
X113563654Y-43480659D01*
X113590592Y-43399847D01*
X113725279Y-43265160D01*
X113833028Y-43211285D01*
X85843722Y-80360592D02*
X85762910Y-80387529D01*
X85682097Y-80468341D01*
X85628223Y-80576091D01*
X85628223Y-80683841D01*
X85655160Y-80764653D01*
X85735972Y-80899340D01*
X85816784Y-80980152D01*
X85951471Y-81060964D01*
X86032284Y-81087902D01*
X86140033Y-81087902D01*
X86247783Y-81034027D01*
X86301658Y-80980152D01*
X86355532Y-80872402D01*
X86355532Y-80818528D01*
X86166971Y-80629966D01*
X86059221Y-80737715D01*
X86651844Y-80629966D02*
X86086158Y-80064280D01*
X86301658Y-79848781D01*
X86382470Y-79821844D01*
X86436345Y-79821844D01*
X86517157Y-79848781D01*
X86597969Y-79929593D01*
X86624906Y-80010406D01*
X86624906Y-80064280D01*
X86597969Y-80145093D01*
X86382470Y-80360592D01*
X87513841Y-79767969D02*
X87190592Y-80091218D01*
X87352216Y-79929593D02*
X86786531Y-79363908D01*
X86813468Y-79498595D01*
X86813468Y-79606345D01*
X86786531Y-79687157D01*
X87217529Y-79040659D02*
X87217529Y-78986784D01*
X87244467Y-78905972D01*
X87379154Y-78771285D01*
X87459966Y-78744348D01*
X87513841Y-78744348D01*
X87594653Y-78771285D01*
X87648528Y-78825160D01*
X87702402Y-78932910D01*
X87702402Y-79579407D01*
X88052589Y-79229221D01*
X86413096Y-44521218D02*
X86332284Y-44548155D01*
X86251471Y-44628967D01*
X86197597Y-44736717D01*
X86197597Y-44844467D01*
X86224534Y-44925279D01*
X86305346Y-45059966D01*
X86386158Y-45140778D01*
X86520845Y-45221590D01*
X86601658Y-45248528D01*
X86709407Y-45248528D01*
X86817157Y-45194653D01*
X86871032Y-45140778D01*
X86924906Y-45033028D01*
X86924906Y-44979154D01*
X86736345Y-44790592D01*
X86628595Y-44898341D01*
X87221218Y-44790592D02*
X86655532Y-44224906D01*
X86871032Y-44009407D01*
X86951844Y-43982470D01*
X87005719Y-43982470D01*
X87086531Y-44009407D01*
X87167343Y-44090219D01*
X87194280Y-44171032D01*
X87194280Y-44224906D01*
X87167343Y-44305719D01*
X86951844Y-44521218D01*
X88083215Y-43928595D02*
X87759966Y-44251844D01*
X87921590Y-44090219D02*
X87355905Y-43524534D01*
X87382842Y-43659221D01*
X87382842Y-43766971D01*
X87355905Y-43847783D01*
X85989722Y-75280592D02*
X85908910Y-75307529D01*
X85828097Y-75388341D01*
X85774223Y-75496091D01*
X85774223Y-75603841D01*
X85801160Y-75684653D01*
X85881972Y-75819340D01*
X85962784Y-75900152D01*
X86097471Y-75980964D01*
X86178284Y-76007902D01*
X86286033Y-76007902D01*
X86393783Y-75954027D01*
X86447658Y-75900152D01*
X86501532Y-75792402D01*
X86501532Y-75738528D01*
X86312971Y-75549966D01*
X86205221Y-75657715D01*
X86797844Y-75549966D02*
X86232158Y-74984280D01*
X86447658Y-74768781D01*
X86528470Y-74741844D01*
X86582345Y-74741844D01*
X86663157Y-74768781D01*
X86743969Y-74849593D01*
X86770906Y-74930406D01*
X86770906Y-74984280D01*
X86743969Y-75065093D01*
X86528470Y-75280592D01*
X87659841Y-74687969D02*
X87336592Y-75011218D01*
X87498216Y-74849593D02*
X86932531Y-74283908D01*
X86959468Y-74418595D01*
X86959468Y-74526345D01*
X86932531Y-74607157D01*
X87444341Y-73772097D02*
X87498216Y-73718223D01*
X87579028Y-73691285D01*
X87632903Y-73691285D01*
X87713715Y-73718223D01*
X87848402Y-73799035D01*
X87983089Y-73933722D01*
X88063902Y-74068409D01*
X88090839Y-74149221D01*
X88090839Y-74203096D01*
X88063902Y-74283908D01*
X88010027Y-74337783D01*
X87929215Y-74364720D01*
X87875340Y-74364720D01*
X87794528Y-74337783D01*
X87659841Y-74256971D01*
X87525154Y-74122284D01*
X87444341Y-73987597D01*
X87417404Y-73906784D01*
X87417404Y-73852910D01*
X87444341Y-73772097D01*
X112838375Y-67943435D02*
X112380439Y-67862622D01*
X112515126Y-68266683D02*
X111949441Y-67700998D01*
X112164940Y-67485499D01*
X112245752Y-67458561D01*
X112299627Y-67458561D01*
X112380439Y-67485499D01*
X112461251Y-67566311D01*
X112488189Y-67647123D01*
X112488189Y-67700998D01*
X112461251Y-67781810D01*
X112245752Y-67997309D01*
X112515126Y-67135312D02*
X112973062Y-67593248D01*
X113053874Y-67620186D01*
X113107749Y-67620186D01*
X113188561Y-67593248D01*
X113296311Y-67485499D01*
X113323248Y-67404687D01*
X113323248Y-67350812D01*
X113296311Y-67270000D01*
X112838375Y-66812064D01*
X113673435Y-67108375D02*
X113107749Y-66542690D01*
X113996683Y-66785126D01*
X113430998Y-66219441D01*
X112097722Y-62590592D02*
X112016910Y-62617529D01*
X111936097Y-62698341D01*
X111882223Y-62806091D01*
X111882223Y-62913841D01*
X111909160Y-62994653D01*
X111989972Y-63129340D01*
X112070784Y-63210152D01*
X112205471Y-63290964D01*
X112286284Y-63317902D01*
X112394033Y-63317902D01*
X112501783Y-63264027D01*
X112555658Y-63210152D01*
X112609532Y-63102402D01*
X112609532Y-63048528D01*
X112420971Y-62859966D01*
X112313221Y-62967715D01*
X112905844Y-62859966D02*
X112340158Y-62294280D01*
X112555658Y-62078781D01*
X112636470Y-62051844D01*
X112690345Y-62051844D01*
X112771157Y-62078781D01*
X112851969Y-62159593D01*
X112878906Y-62240406D01*
X112878906Y-62294280D01*
X112851969Y-62375093D01*
X112636470Y-62590592D01*
X112932781Y-61809407D02*
X112932781Y-61755532D01*
X112959719Y-61674720D01*
X113094406Y-61540033D01*
X113175218Y-61513096D01*
X113229093Y-61513096D01*
X113309905Y-61540033D01*
X113363780Y-61593908D01*
X113417654Y-61701658D01*
X113417654Y-62348155D01*
X113767841Y-61997969D01*
X113390717Y-61243722D02*
X113767841Y-60866598D01*
X114091089Y-61674720D01*
D11*
%TO.C,J10*%
X121314028Y-134707085D02*
X119790028Y-134707085D01*
X121314028Y-133981371D02*
X119790028Y-133981371D01*
X121314028Y-133110514D01*
X119790028Y-133110514D01*
D10*
%TO.C,H1*%
X58476190Y-44416380D02*
X58476190Y-43416380D01*
X58809523Y-44130666D01*
X59142857Y-43416380D01*
X59142857Y-44416380D01*
X59571428Y-43511619D02*
X59619047Y-43464000D01*
X59714285Y-43416380D01*
X59952380Y-43416380D01*
X60047619Y-43464000D01*
X60095238Y-43511619D01*
X60142857Y-43606857D01*
X60142857Y-43702095D01*
X60095238Y-43844952D01*
X59523809Y-44416380D01*
X60142857Y-44416380D01*
X60571428Y-44321142D02*
X60619047Y-44368761D01*
X60571428Y-44416380D01*
X60523809Y-44368761D01*
X60571428Y-44321142D01*
X60571428Y-44416380D01*
X61523809Y-43416380D02*
X61047619Y-43416380D01*
X61000000Y-43892571D01*
X61047619Y-43844952D01*
X61142857Y-43797333D01*
X61380952Y-43797333D01*
X61476190Y-43844952D01*
X61523809Y-43892571D01*
X61571428Y-43987809D01*
X61571428Y-44225904D01*
X61523809Y-44321142D01*
X61476190Y-44368761D01*
X61380952Y-44416380D01*
X61142857Y-44416380D01*
X61047619Y-44368761D01*
X61000000Y-44321142D01*
D11*
%TO.C,J9*%
X128165428Y-62830285D02*
X128165428Y-62540000D01*
X128238000Y-62394857D01*
X128383142Y-62249714D01*
X128673428Y-62177142D01*
X129181428Y-62177142D01*
X129471714Y-62249714D01*
X129616857Y-62394857D01*
X129689428Y-62540000D01*
X129689428Y-62830285D01*
X129616857Y-62975428D01*
X129471714Y-63120571D01*
X129181428Y-63193142D01*
X128673428Y-63193142D01*
X128383142Y-63120571D01*
X128238000Y-62975428D01*
X128165428Y-62830285D01*
X128165428Y-61524000D02*
X129399142Y-61524000D01*
X129544285Y-61451428D01*
X129616857Y-61378857D01*
X129689428Y-61233714D01*
X129689428Y-60943428D01*
X129616857Y-60798285D01*
X129544285Y-60725714D01*
X129399142Y-60653142D01*
X128165428Y-60653142D01*
X128165428Y-60145142D02*
X128165428Y-59274285D01*
X129689428Y-59709714D02*
X128165428Y-59709714D01*
X128818571Y-57387428D02*
X128746000Y-57532571D01*
X128673428Y-57605142D01*
X128528285Y-57677714D01*
X128455714Y-57677714D01*
X128310571Y-57605142D01*
X128238000Y-57532571D01*
X128165428Y-57387428D01*
X128165428Y-57097142D01*
X128238000Y-56952000D01*
X128310571Y-56879428D01*
X128455714Y-56806857D01*
X128528285Y-56806857D01*
X128673428Y-56879428D01*
X128746000Y-56952000D01*
X128818571Y-57097142D01*
X128818571Y-57387428D01*
X128891142Y-57532571D01*
X128963714Y-57605142D01*
X129108857Y-57677714D01*
X129399142Y-57677714D01*
X129544285Y-57605142D01*
X129616857Y-57532571D01*
X129689428Y-57387428D01*
X129689428Y-57097142D01*
X129616857Y-56952000D01*
X129544285Y-56879428D01*
X129399142Y-56806857D01*
X129108857Y-56806857D01*
X128963714Y-56879428D01*
X128891142Y-56952000D01*
X128818571Y-57097142D01*
%TO.C,J8*%
X128165428Y-82830285D02*
X128165428Y-82540000D01*
X128238000Y-82394857D01*
X128383142Y-82249714D01*
X128673428Y-82177142D01*
X129181428Y-82177142D01*
X129471714Y-82249714D01*
X129616857Y-82394857D01*
X129689428Y-82540000D01*
X129689428Y-82830285D01*
X129616857Y-82975428D01*
X129471714Y-83120571D01*
X129181428Y-83193142D01*
X128673428Y-83193142D01*
X128383142Y-83120571D01*
X128238000Y-82975428D01*
X128165428Y-82830285D01*
X128165428Y-81524000D02*
X129399142Y-81524000D01*
X129544285Y-81451428D01*
X129616857Y-81378857D01*
X129689428Y-81233714D01*
X129689428Y-80943428D01*
X129616857Y-80798285D01*
X129544285Y-80725714D01*
X129399142Y-80653142D01*
X128165428Y-80653142D01*
X128165428Y-80145142D02*
X128165428Y-79274285D01*
X129689428Y-79709714D02*
X128165428Y-79709714D01*
X128165428Y-77750285D02*
X128165428Y-76734285D01*
X129689428Y-77387428D01*
%TO.C,J7*%
X128165428Y-102830285D02*
X128165428Y-102540000D01*
X128238000Y-102394857D01*
X128383142Y-102249714D01*
X128673428Y-102177142D01*
X129181428Y-102177142D01*
X129471714Y-102249714D01*
X129616857Y-102394857D01*
X129689428Y-102540000D01*
X129689428Y-102830285D01*
X129616857Y-102975428D01*
X129471714Y-103120571D01*
X129181428Y-103193142D01*
X128673428Y-103193142D01*
X128383142Y-103120571D01*
X128238000Y-102975428D01*
X128165428Y-102830285D01*
X128165428Y-101524000D02*
X129399142Y-101524000D01*
X129544285Y-101451428D01*
X129616857Y-101378857D01*
X129689428Y-101233714D01*
X129689428Y-100943428D01*
X129616857Y-100798285D01*
X129544285Y-100725714D01*
X129399142Y-100653142D01*
X128165428Y-100653142D01*
X128165428Y-100145142D02*
X128165428Y-99274285D01*
X129689428Y-99709714D02*
X128165428Y-99709714D01*
X128165428Y-96952000D02*
X128165428Y-97242285D01*
X128238000Y-97387428D01*
X128310571Y-97460000D01*
X128528285Y-97605142D01*
X128818571Y-97677714D01*
X129399142Y-97677714D01*
X129544285Y-97605142D01*
X129616857Y-97532571D01*
X129689428Y-97387428D01*
X129689428Y-97097142D01*
X129616857Y-96952000D01*
X129544285Y-96879428D01*
X129399142Y-96806857D01*
X129036285Y-96806857D01*
X128891142Y-96879428D01*
X128818571Y-96952000D01*
X128746000Y-97097142D01*
X128746000Y-97387428D01*
X128818571Y-97532571D01*
X128891142Y-97605142D01*
X129036285Y-97677714D01*
%TO.C,J4*%
X78210228Y-135788400D02*
X78210228Y-135498114D01*
X78282800Y-135352971D01*
X78427942Y-135207828D01*
X78718228Y-135135257D01*
X79226228Y-135135257D01*
X79516514Y-135207828D01*
X79661657Y-135352971D01*
X79734228Y-135498114D01*
X79734228Y-135788400D01*
X79661657Y-135933542D01*
X79516514Y-136078685D01*
X79226228Y-136151257D01*
X78718228Y-136151257D01*
X78427942Y-136078685D01*
X78282800Y-135933542D01*
X78210228Y-135788400D01*
X78210228Y-134482114D02*
X79443942Y-134482114D01*
X79589085Y-134409542D01*
X79661657Y-134336971D01*
X79734228Y-134191828D01*
X79734228Y-133901542D01*
X79661657Y-133756400D01*
X79589085Y-133683828D01*
X79443942Y-133611257D01*
X78210228Y-133611257D01*
X78210228Y-133103257D02*
X78210228Y-132232400D01*
X79734228Y-132667828D02*
X78210228Y-132667828D01*
D10*
%TO.C,H2*%
X58476190Y-136416380D02*
X58476190Y-135416380D01*
X58809523Y-136130666D01*
X59142857Y-135416380D01*
X59142857Y-136416380D01*
X59571428Y-135511619D02*
X59619047Y-135464000D01*
X59714285Y-135416380D01*
X59952380Y-135416380D01*
X60047619Y-135464000D01*
X60095238Y-135511619D01*
X60142857Y-135606857D01*
X60142857Y-135702095D01*
X60095238Y-135844952D01*
X59523809Y-136416380D01*
X60142857Y-136416380D01*
X60571428Y-136321142D02*
X60619047Y-136368761D01*
X60571428Y-136416380D01*
X60523809Y-136368761D01*
X60571428Y-136321142D01*
X60571428Y-136416380D01*
X61523809Y-135416380D02*
X61047619Y-135416380D01*
X61000000Y-135892571D01*
X61047619Y-135844952D01*
X61142857Y-135797333D01*
X61380952Y-135797333D01*
X61476190Y-135844952D01*
X61523809Y-135892571D01*
X61571428Y-135987809D01*
X61571428Y-136225904D01*
X61523809Y-136321142D01*
X61476190Y-136368761D01*
X61380952Y-136416380D01*
X61142857Y-136416380D01*
X61047619Y-136368761D01*
X61000000Y-136321142D01*
D11*
%TO.C,J2*%
X70165428Y-62830285D02*
X70165428Y-62540000D01*
X70238000Y-62394857D01*
X70383142Y-62249714D01*
X70673428Y-62177142D01*
X71181428Y-62177142D01*
X71471714Y-62249714D01*
X71616857Y-62394857D01*
X71689428Y-62540000D01*
X71689428Y-62830285D01*
X71616857Y-62975428D01*
X71471714Y-63120571D01*
X71181428Y-63193142D01*
X70673428Y-63193142D01*
X70383142Y-63120571D01*
X70238000Y-62975428D01*
X70165428Y-62830285D01*
X70165428Y-61524000D02*
X71399142Y-61524000D01*
X71544285Y-61451428D01*
X71616857Y-61378857D01*
X71689428Y-61233714D01*
X71689428Y-60943428D01*
X71616857Y-60798285D01*
X71544285Y-60725714D01*
X71399142Y-60653142D01*
X70165428Y-60653142D01*
X70165428Y-60145142D02*
X70165428Y-59274285D01*
X71689428Y-59709714D02*
X70165428Y-59709714D01*
X71689428Y-56806857D02*
X71689428Y-57677714D01*
X71689428Y-57242285D02*
X70165428Y-57242285D01*
X70383142Y-57387428D01*
X70528285Y-57532571D01*
X70600857Y-57677714D01*
%TO.C,J5*%
X70165428Y-122830285D02*
X70165428Y-122540000D01*
X70238000Y-122394857D01*
X70383142Y-122249714D01*
X70673428Y-122177142D01*
X71181428Y-122177142D01*
X71471714Y-122249714D01*
X71616857Y-122394857D01*
X71689428Y-122540000D01*
X71689428Y-122830285D01*
X71616857Y-122975428D01*
X71471714Y-123120571D01*
X71181428Y-123193142D01*
X70673428Y-123193142D01*
X70383142Y-123120571D01*
X70238000Y-122975428D01*
X70165428Y-122830285D01*
X70165428Y-121524000D02*
X71399142Y-121524000D01*
X71544285Y-121451428D01*
X71616857Y-121378857D01*
X71689428Y-121233714D01*
X71689428Y-120943428D01*
X71616857Y-120798285D01*
X71544285Y-120725714D01*
X71399142Y-120653142D01*
X70165428Y-120653142D01*
X70165428Y-120145142D02*
X70165428Y-119274285D01*
X71689428Y-119709714D02*
X70165428Y-119709714D01*
X70673428Y-116952000D02*
X71689428Y-116952000D01*
X70092857Y-117314857D02*
X71181428Y-117677714D01*
X71181428Y-116734285D01*
%TO.C,J3*%
X70165428Y-82830285D02*
X70165428Y-82540000D01*
X70238000Y-82394857D01*
X70383142Y-82249714D01*
X70673428Y-82177142D01*
X71181428Y-82177142D01*
X71471714Y-82249714D01*
X71616857Y-82394857D01*
X71689428Y-82540000D01*
X71689428Y-82830285D01*
X71616857Y-82975428D01*
X71471714Y-83120571D01*
X71181428Y-83193142D01*
X70673428Y-83193142D01*
X70383142Y-83120571D01*
X70238000Y-82975428D01*
X70165428Y-82830285D01*
X70165428Y-81524000D02*
X71399142Y-81524000D01*
X71544285Y-81451428D01*
X71616857Y-81378857D01*
X71689428Y-81233714D01*
X71689428Y-80943428D01*
X71616857Y-80798285D01*
X71544285Y-80725714D01*
X71399142Y-80653142D01*
X70165428Y-80653142D01*
X70165428Y-80145142D02*
X70165428Y-79274285D01*
X71689428Y-79709714D02*
X70165428Y-79709714D01*
X70310571Y-77677714D02*
X70238000Y-77605142D01*
X70165428Y-77460000D01*
X70165428Y-77097142D01*
X70238000Y-76952000D01*
X70310571Y-76879428D01*
X70455714Y-76806857D01*
X70600857Y-76806857D01*
X70818571Y-76879428D01*
X71689428Y-77750285D01*
X71689428Y-76806857D01*
D10*
%TO.C,H3*%
X138476190Y-44416380D02*
X138476190Y-43416380D01*
X138809523Y-44130666D01*
X139142857Y-43416380D01*
X139142857Y-44416380D01*
X139571428Y-43511619D02*
X139619047Y-43464000D01*
X139714285Y-43416380D01*
X139952380Y-43416380D01*
X140047619Y-43464000D01*
X140095238Y-43511619D01*
X140142857Y-43606857D01*
X140142857Y-43702095D01*
X140095238Y-43844952D01*
X139523809Y-44416380D01*
X140142857Y-44416380D01*
X140571428Y-44321142D02*
X140619047Y-44368761D01*
X140571428Y-44416380D01*
X140523809Y-44368761D01*
X140571428Y-44321142D01*
X140571428Y-44416380D01*
X141523809Y-43416380D02*
X141047619Y-43416380D01*
X141000000Y-43892571D01*
X141047619Y-43844952D01*
X141142857Y-43797333D01*
X141380952Y-43797333D01*
X141476190Y-43844952D01*
X141523809Y-43892571D01*
X141571428Y-43987809D01*
X141571428Y-44225904D01*
X141523809Y-44321142D01*
X141476190Y-44368761D01*
X141380952Y-44416380D01*
X141142857Y-44416380D01*
X141047619Y-44368761D01*
X141000000Y-44321142D01*
%TO.C,H4*%
X138476190Y-136416380D02*
X138476190Y-135416380D01*
X138809523Y-136130666D01*
X139142857Y-135416380D01*
X139142857Y-136416380D01*
X139571428Y-135511619D02*
X139619047Y-135464000D01*
X139714285Y-135416380D01*
X139952380Y-135416380D01*
X140047619Y-135464000D01*
X140095238Y-135511619D01*
X140142857Y-135606857D01*
X140142857Y-135702095D01*
X140095238Y-135844952D01*
X139523809Y-136416380D01*
X140142857Y-136416380D01*
X140571428Y-136321142D02*
X140619047Y-136368761D01*
X140571428Y-136416380D01*
X140523809Y-136368761D01*
X140571428Y-136321142D01*
X140571428Y-136416380D01*
X141523809Y-135416380D02*
X141047619Y-135416380D01*
X141000000Y-135892571D01*
X141047619Y-135844952D01*
X141142857Y-135797333D01*
X141380952Y-135797333D01*
X141476190Y-135844952D01*
X141523809Y-135892571D01*
X141571428Y-135987809D01*
X141571428Y-136225904D01*
X141523809Y-136321142D01*
X141476190Y-136368761D01*
X141380952Y-136416380D01*
X141142857Y-136416380D01*
X141047619Y-136368761D01*
X141000000Y-136321142D01*
D11*
%TO.C,J1*%
X70211028Y-102804685D02*
X70211028Y-102514400D01*
X70283600Y-102369257D01*
X70428742Y-102224114D01*
X70719028Y-102151542D01*
X71227028Y-102151542D01*
X71517314Y-102224114D01*
X71662457Y-102369257D01*
X71735028Y-102514400D01*
X71735028Y-102804685D01*
X71662457Y-102949828D01*
X71517314Y-103094971D01*
X71227028Y-103167542D01*
X70719028Y-103167542D01*
X70428742Y-103094971D01*
X70283600Y-102949828D01*
X70211028Y-102804685D01*
X70211028Y-101498400D02*
X71444742Y-101498400D01*
X71589885Y-101425828D01*
X71662457Y-101353257D01*
X71735028Y-101208114D01*
X71735028Y-100917828D01*
X71662457Y-100772685D01*
X71589885Y-100700114D01*
X71444742Y-100627542D01*
X70211028Y-100627542D01*
X70211028Y-100119542D02*
X70211028Y-99248685D01*
X71735028Y-99684114D02*
X70211028Y-99684114D01*
X70211028Y-97724685D02*
X70211028Y-96781257D01*
X70791600Y-97289257D01*
X70791600Y-97071542D01*
X70864171Y-96926400D01*
X70936742Y-96853828D01*
X71081885Y-96781257D01*
X71444742Y-96781257D01*
X71589885Y-96853828D01*
X71662457Y-96926400D01*
X71735028Y-97071542D01*
X71735028Y-97506971D01*
X71662457Y-97652114D01*
X71589885Y-97724685D01*
%TO.C,J6*%
X128165428Y-122830285D02*
X128165428Y-122540000D01*
X128238000Y-122394857D01*
X128383142Y-122249714D01*
X128673428Y-122177142D01*
X129181428Y-122177142D01*
X129471714Y-122249714D01*
X129616857Y-122394857D01*
X129689428Y-122540000D01*
X129689428Y-122830285D01*
X129616857Y-122975428D01*
X129471714Y-123120571D01*
X129181428Y-123193142D01*
X128673428Y-123193142D01*
X128383142Y-123120571D01*
X128238000Y-122975428D01*
X128165428Y-122830285D01*
X128165428Y-121524000D02*
X129399142Y-121524000D01*
X129544285Y-121451428D01*
X129616857Y-121378857D01*
X129689428Y-121233714D01*
X129689428Y-120943428D01*
X129616857Y-120798285D01*
X129544285Y-120725714D01*
X129399142Y-120653142D01*
X128165428Y-120653142D01*
X128165428Y-120145142D02*
X128165428Y-119274285D01*
X129689428Y-119709714D02*
X128165428Y-119709714D01*
X128165428Y-116879428D02*
X128165428Y-117605142D01*
X128891142Y-117677714D01*
X128818571Y-117605142D01*
X128746000Y-117460000D01*
X128746000Y-117097142D01*
X128818571Y-116952000D01*
X128891142Y-116879428D01*
X129036285Y-116806857D01*
X129399142Y-116806857D01*
X129544285Y-116879428D01*
X129616857Y-116952000D01*
X129689428Y-117097142D01*
X129689428Y-117460000D01*
X129616857Y-117605142D01*
X129544285Y-117677714D01*
D12*
%TO.C,U5*%
X118776200Y-44711000D02*
X118776200Y-46361000D01*
X126516200Y-44711000D02*
X118776200Y-44711000D01*
X118776200Y-50011000D02*
X126516200Y-50011000D01*
X126516200Y-50011000D02*
X126516200Y-44711000D01*
X118776200Y-48361000D02*
X118776200Y-50011000D01*
X118776200Y-48361000D02*
G75*
G03*
X118776200Y-46361000I0J1000000D01*
G01*
%TO.C,R20*%
X129995600Y-43999400D02*
X129665600Y-43999400D01*
X127255600Y-50539400D02*
X127255600Y-43999400D01*
X129995600Y-50539400D02*
X129995600Y-43999400D01*
X129665600Y-50539400D02*
X129995600Y-50539400D01*
X127585600Y-50539400D02*
X127255600Y-50539400D01*
X127255600Y-43999400D02*
X127585600Y-43999400D01*
%TO.C,R19*%
X113062000Y-116308200D02*
X113062000Y-116638200D01*
X119602000Y-119048200D02*
X113062000Y-119048200D01*
X119602000Y-116308200D02*
X113062000Y-116308200D01*
X119602000Y-116638200D02*
X119602000Y-116308200D01*
X119602000Y-118718200D02*
X119602000Y-119048200D01*
X113062000Y-119048200D02*
X113062000Y-118718200D01*
%TO.C,U3*%
X113716400Y-95870800D02*
G75*
G03*
X115716400Y-95870800I1000000J0D01*
G01*
X117366400Y-113770800D02*
X117366400Y-95870800D01*
X109576400Y-95810800D02*
X109576400Y-113830800D01*
X113716400Y-95870800D02*
X112066400Y-95870800D01*
X112066400Y-113770800D02*
X117366400Y-113770800D01*
X112066400Y-95870800D02*
X112066400Y-113770800D01*
X117366400Y-95870800D02*
X115716400Y-95870800D01*
X109576400Y-113830800D02*
X119856400Y-113830800D01*
X119856400Y-113830800D02*
X119856400Y-95810800D01*
X119856400Y-95810800D02*
X109576400Y-95810800D01*
%TO.C,U2*%
X104845000Y-95810800D02*
X94565000Y-95810800D01*
X104845000Y-113830800D02*
X104845000Y-95810800D01*
X94565000Y-113830800D02*
X104845000Y-113830800D01*
X102355000Y-95870800D02*
X100705000Y-95870800D01*
X97055000Y-95870800D02*
X97055000Y-113770800D01*
X97055000Y-113770800D02*
X102355000Y-113770800D01*
X98705000Y-95870800D02*
X97055000Y-95870800D01*
X94565000Y-95810800D02*
X94565000Y-113830800D01*
X102355000Y-113770800D02*
X102355000Y-95870800D01*
X98705000Y-95870800D02*
G75*
G03*
X100705000Y-95870800I1000000J0D01*
G01*
%TO.C,U1*%
X90341600Y-95810800D02*
X80061600Y-95810800D01*
X90341600Y-113830800D02*
X90341600Y-95810800D01*
X80061600Y-113830800D02*
X90341600Y-113830800D01*
X87851600Y-95870800D02*
X86201600Y-95870800D01*
X82551600Y-95870800D02*
X82551600Y-113770800D01*
X82551600Y-113770800D02*
X87851600Y-113770800D01*
X84201600Y-95870800D02*
X82551600Y-95870800D01*
X80061600Y-95810800D02*
X80061600Y-113830800D01*
X87851600Y-113770800D02*
X87851600Y-95870800D01*
X84201600Y-95870800D02*
G75*
G03*
X86201600Y-95870800I1000000J0D01*
G01*
%TO.C,R12*%
X126370000Y-117920000D02*
X126040000Y-117920000D01*
X123630000Y-124460000D02*
X123630000Y-117920000D01*
X126370000Y-124460000D02*
X126370000Y-117920000D01*
X126040000Y-124460000D02*
X126370000Y-124460000D01*
X123960000Y-124460000D02*
X123630000Y-124460000D01*
X123630000Y-117920000D02*
X123960000Y-117920000D01*
%TO.C,R11*%
X76370000Y-128920000D02*
X76040000Y-128920000D01*
X73630000Y-135460000D02*
X73630000Y-128920000D01*
X76370000Y-135460000D02*
X76370000Y-128920000D01*
X76040000Y-135460000D02*
X76370000Y-135460000D01*
X73960000Y-135460000D02*
X73630000Y-135460000D01*
X73630000Y-128920000D02*
X73960000Y-128920000D01*
%TO.C,R10*%
X97427800Y-118972000D02*
X97427800Y-118642000D01*
X90887800Y-116232000D02*
X97427800Y-116232000D01*
X90887800Y-118972000D02*
X97427800Y-118972000D01*
X90887800Y-118642000D02*
X90887800Y-118972000D01*
X90887800Y-116562000D02*
X90887800Y-116232000D01*
X97427800Y-116232000D02*
X97427800Y-116562000D01*
%TO.C,R6*%
X123630000Y-135480000D02*
X123960000Y-135480000D01*
X126370000Y-128940000D02*
X126370000Y-135480000D01*
X123630000Y-128940000D02*
X123630000Y-135480000D01*
X123960000Y-128940000D02*
X123630000Y-128940000D01*
X126040000Y-128940000D02*
X126370000Y-128940000D01*
X126370000Y-135480000D02*
X126040000Y-135480000D01*
%TO.C,R18*%
X126370000Y-54420000D02*
X126040000Y-54420000D01*
X123630000Y-60960000D02*
X123630000Y-54420000D01*
X126370000Y-60960000D02*
X126370000Y-54420000D01*
X126040000Y-60960000D02*
X126370000Y-60960000D01*
X123960000Y-60960000D02*
X123630000Y-60960000D01*
X123630000Y-54420000D02*
X123960000Y-54420000D01*
%TO.C,R17*%
X126370000Y-75420000D02*
X126040000Y-75420000D01*
X123630000Y-81960000D02*
X123630000Y-75420000D01*
X126370000Y-81960000D02*
X126370000Y-75420000D01*
X126040000Y-81960000D02*
X126370000Y-81960000D01*
X123960000Y-81960000D02*
X123630000Y-81960000D01*
X123630000Y-75420000D02*
X123960000Y-75420000D01*
%TO.C,R5*%
X76370000Y-117920000D02*
X76040000Y-117920000D01*
X73630000Y-124460000D02*
X73630000Y-117920000D01*
X76370000Y-124460000D02*
X76370000Y-117920000D01*
X76040000Y-124460000D02*
X76370000Y-124460000D01*
X73960000Y-124460000D02*
X73630000Y-124460000D01*
X73630000Y-117920000D02*
X73960000Y-117920000D01*
%TO.C,R4*%
X86734400Y-118946600D02*
X86734400Y-118616600D01*
X80194400Y-116206600D02*
X86734400Y-116206600D01*
X80194400Y-118946600D02*
X86734400Y-118946600D01*
X80194400Y-118616600D02*
X80194400Y-118946600D01*
X80194400Y-116536600D02*
X80194400Y-116206600D01*
X86734400Y-116206600D02*
X86734400Y-116536600D01*
%TO.C,R9*%
X76370000Y-85920000D02*
X76040000Y-85920000D01*
X73630000Y-92460000D02*
X73630000Y-85920000D01*
X76370000Y-92460000D02*
X76370000Y-85920000D01*
X76040000Y-92460000D02*
X76370000Y-92460000D01*
X73960000Y-92460000D02*
X73630000Y-92460000D01*
X73630000Y-85920000D02*
X73960000Y-85920000D01*
%TO.C,R8*%
X73630000Y-64920000D02*
X73960000Y-64920000D01*
X73960000Y-71460000D02*
X73630000Y-71460000D01*
X76040000Y-71460000D02*
X76370000Y-71460000D01*
X76370000Y-71460000D02*
X76370000Y-64920000D01*
X73630000Y-71460000D02*
X73630000Y-64920000D01*
X76370000Y-64920000D02*
X76040000Y-64920000D01*
%TO.C,R16*%
X126370000Y-96420000D02*
X126040000Y-96420000D01*
X123630000Y-102960000D02*
X123630000Y-96420000D01*
X126370000Y-102960000D02*
X126370000Y-96420000D01*
X126040000Y-102960000D02*
X126370000Y-102960000D01*
X123960000Y-102960000D02*
X123630000Y-102960000D01*
X123630000Y-96420000D02*
X123960000Y-96420000D01*
%TO.C,R15*%
X126370000Y-64920000D02*
X126040000Y-64920000D01*
X123630000Y-71460000D02*
X123630000Y-64920000D01*
X126370000Y-71460000D02*
X126370000Y-64920000D01*
X126040000Y-71460000D02*
X126370000Y-71460000D01*
X123960000Y-71460000D02*
X123630000Y-71460000D01*
X123630000Y-64920000D02*
X123960000Y-64920000D01*
%TO.C,R3*%
X76370000Y-75420000D02*
X76040000Y-75420000D01*
X73630000Y-81960000D02*
X73630000Y-75420000D01*
X76370000Y-81960000D02*
X76370000Y-75420000D01*
X76040000Y-81960000D02*
X76370000Y-81960000D01*
X73960000Y-81960000D02*
X73630000Y-81960000D01*
X73630000Y-75420000D02*
X73960000Y-75420000D01*
%TO.C,R2*%
X76370000Y-54420000D02*
X76040000Y-54420000D01*
X73630000Y-60960000D02*
X73630000Y-54420000D01*
X76370000Y-60960000D02*
X76370000Y-54420000D01*
X76040000Y-60960000D02*
X76370000Y-60960000D01*
X73960000Y-60960000D02*
X73630000Y-60960000D01*
X73630000Y-54420000D02*
X73960000Y-54420000D01*
%TO.C,R1*%
X76370000Y-96420000D02*
X76040000Y-96420000D01*
X73630000Y-102960000D02*
X73630000Y-96420000D01*
X76370000Y-102960000D02*
X76370000Y-96420000D01*
X76040000Y-102960000D02*
X76370000Y-102960000D01*
X73960000Y-102960000D02*
X73630000Y-102960000D01*
X73630000Y-96420000D02*
X73960000Y-96420000D01*
%TO.C,R7*%
X73630000Y-113580000D02*
X73960000Y-113580000D01*
X76370000Y-107040000D02*
X76370000Y-113580000D01*
X73630000Y-107040000D02*
X73630000Y-113580000D01*
X73960000Y-107040000D02*
X73630000Y-107040000D01*
X76040000Y-107040000D02*
X76370000Y-107040000D01*
X76370000Y-113580000D02*
X76040000Y-113580000D01*
%TO.C,R14*%
X126370000Y-85920000D02*
X126040000Y-85920000D01*
X123630000Y-92460000D02*
X123630000Y-85920000D01*
X126370000Y-92460000D02*
X126370000Y-85920000D01*
X126040000Y-92460000D02*
X126370000Y-92460000D01*
X123960000Y-92460000D02*
X123630000Y-92460000D01*
X123630000Y-85920000D02*
X123960000Y-85920000D01*
%TO.C,R13*%
X123630000Y-113580000D02*
X123960000Y-113580000D01*
X126370000Y-107040000D02*
X126370000Y-113580000D01*
X123630000Y-107040000D02*
X123630000Y-113580000D01*
X123960000Y-107040000D02*
X123630000Y-107040000D01*
X126040000Y-107040000D02*
X126370000Y-107040000D01*
X126370000Y-113580000D02*
X126040000Y-113580000D01*
%TO.C,D1*%
X103493200Y-118798200D02*
X107733200Y-118798200D01*
X107013200Y-118798200D02*
X107013200Y-116558200D01*
X107133200Y-118798200D02*
X107133200Y-116558200D01*
X103493200Y-116558200D02*
X103493200Y-118798200D01*
X106893200Y-118798200D02*
X106893200Y-116558200D01*
X108383200Y-117678200D02*
X107733200Y-117678200D01*
X107733200Y-118798200D02*
X107733200Y-116558200D01*
X107733200Y-116558200D02*
X103493200Y-116558200D01*
X102843200Y-117678200D02*
X103493200Y-117678200D01*
%TO.C,C2*%
X108481800Y-103137200D02*
X105741800Y-103137200D01*
X108481800Y-95897200D02*
X108481800Y-103137200D01*
X105741800Y-95897200D02*
X105741800Y-103137200D01*
X108481800Y-95897200D02*
X105741800Y-95897200D01*
%TO.C,C1*%
X93851400Y-96075000D02*
X91111400Y-96075000D01*
X91111400Y-96075000D02*
X91111400Y-103315000D01*
X93851400Y-96075000D02*
X93851400Y-103315000D01*
X93851400Y-103315000D02*
X91111400Y-103315000D01*
%TO.C,C3*%
X117298800Y-94831400D02*
X120038800Y-94831400D01*
X120038800Y-94831400D02*
X120038800Y-87591400D01*
X117298800Y-94831400D02*
X117298800Y-87591400D01*
X117298800Y-87591400D02*
X120038800Y-87591400D01*
%TO.C,C4*%
X118083000Y-43878000D02*
X115343000Y-43878000D01*
X115343000Y-43878000D02*
X115343000Y-51118000D01*
X118083000Y-43878000D02*
X118083000Y-51118000D01*
X118083000Y-51118000D02*
X115343000Y-51118000D01*
%TO.C,U4*%
X110500000Y-70900000D02*
X110500000Y-71300000D01*
X89500000Y-42900000D02*
X89500000Y-43300000D01*
X89500000Y-45500000D02*
X89500000Y-45900000D01*
X110500000Y-76000000D02*
X110500000Y-76400000D01*
X96300000Y-91500000D02*
X89500000Y-91500000D01*
X110500000Y-65800000D02*
X110500000Y-66200000D01*
X110500000Y-88700000D02*
X110500000Y-89100000D01*
X110500000Y-42900000D02*
X110500000Y-43300000D01*
X92507000Y-43167000D02*
X92507000Y-40500000D01*
X110500000Y-60700000D02*
X110500000Y-61100000D01*
X89500000Y-40500000D02*
X110500000Y-40500000D01*
X89500000Y-86100000D02*
X89500000Y-86500000D01*
X89500000Y-63300000D02*
X89500000Y-63700000D01*
X89500000Y-88700000D02*
X89500000Y-89100000D01*
X89500000Y-50600000D02*
X89500000Y-51000000D01*
X89500000Y-60700000D02*
X89500000Y-61100000D01*
X110500000Y-63300000D02*
X110500000Y-63700000D01*
X110500000Y-91500000D02*
X103700000Y-91500000D01*
X110500000Y-50600000D02*
X110500000Y-51000000D01*
X89500000Y-73400000D02*
X89500000Y-73800000D01*
X89500000Y-43167000D02*
X92507000Y-43167000D01*
X89500000Y-58200000D02*
X89500000Y-58600000D01*
X89500000Y-70900000D02*
X89500000Y-71300000D01*
X98500000Y-91500000D02*
X98900000Y-91500000D01*
X89500000Y-53100000D02*
X89500000Y-53500000D01*
X110500000Y-45500000D02*
X110500000Y-45900000D01*
X89500000Y-81100000D02*
X89500000Y-81500000D01*
X101100000Y-91500000D02*
X101500000Y-91500000D01*
X110500000Y-53100000D02*
X110500000Y-53500000D01*
X89500000Y-76000000D02*
X89500000Y-76400000D01*
X110500000Y-68300000D02*
X110500000Y-68700000D01*
X89500000Y-55600000D02*
X89500000Y-56000000D01*
X89500000Y-65800000D02*
X89500000Y-66200000D01*
X89500000Y-83600000D02*
X89500000Y-84000000D01*
X89500000Y-78500000D02*
X89500000Y-78900000D01*
X110500000Y-73400000D02*
X110500000Y-73800000D01*
X110500000Y-55600000D02*
X110500000Y-56000000D01*
X110500000Y-83600000D02*
X110500000Y-84000000D01*
X110500000Y-58200000D02*
X110500000Y-58600000D01*
X89500000Y-40500000D02*
X89500000Y-40800000D01*
X110500000Y-86100000D02*
X110500000Y-86500000D01*
X110500000Y-78500000D02*
X110500000Y-78900000D01*
X110500000Y-48000000D02*
X110500000Y-48400000D01*
X89500000Y-68300000D02*
X89500000Y-68700000D01*
X110500000Y-40500000D02*
X110500000Y-40800000D01*
X89500000Y-48000000D02*
X89500000Y-48400000D01*
X110500000Y-81100000D02*
X110500000Y-81500000D01*
D11*
%TO.C,J10*%
X101000780Y-138750300D02*
X120500360Y-138750300D01*
X118999220Y-138999220D02*
X101000780Y-138999220D01*
X99499640Y-139250680D02*
X118999220Y-139250680D01*
X101000780Y-121000780D02*
X101000780Y-138001000D01*
X101000780Y-121000780D02*
X101501160Y-120500400D01*
X101501160Y-120500400D02*
X104000520Y-120500400D01*
X104000520Y-120500400D02*
X104500900Y-121000780D01*
X104500900Y-121000780D02*
X104500900Y-122999760D01*
X104500900Y-122999760D02*
X108001020Y-122999760D01*
X118999220Y-121000780D02*
X118999220Y-138001000D01*
X118999220Y-121000780D02*
X118498840Y-120500400D01*
X118498840Y-120500400D02*
X116499860Y-120500400D01*
X116499860Y-120500400D02*
X115999480Y-120500400D01*
X115999480Y-120500400D02*
X115499100Y-121000780D01*
X115499100Y-121000780D02*
X115499100Y-122999760D01*
X115499100Y-122999760D02*
X111998980Y-122999760D01*
X108498860Y-120500400D02*
X108001020Y-121000780D01*
X108001020Y-121000780D02*
X108001020Y-122999760D01*
X108498860Y-120500400D02*
X111501140Y-120500400D01*
X111501140Y-120500400D02*
X111998980Y-121000780D01*
X111998980Y-121000780D02*
X111998980Y-122999760D01*
X120500360Y-138999220D02*
X118999220Y-138999220D01*
X118999220Y-138999220D02*
X118999220Y-139499600D01*
X118999220Y-139499600D02*
X99499640Y-139499600D01*
X99499640Y-138999220D02*
X101000780Y-138999220D01*
X101000780Y-138999220D02*
X101000780Y-138498840D01*
X101000780Y-138498840D02*
X120500360Y-138498840D01*
X118999220Y-138001000D02*
X118498840Y-138001000D01*
X101000780Y-138001000D02*
X101501160Y-138001000D01*
X118498840Y-138498840D02*
X118498840Y-138001000D01*
X101501160Y-138001000D02*
X101501160Y-138498840D01*
X99499640Y-139499600D02*
X99499640Y-138999220D01*
X120500360Y-138498840D02*
X120500360Y-138999220D01*
%TO.C,J9*%
X148750300Y-68999220D02*
X148750300Y-49499640D01*
X148999220Y-51000780D02*
X148999220Y-68999220D01*
X149250680Y-70500360D02*
X149250680Y-51000780D01*
X131000780Y-68999220D02*
X148001000Y-68999220D01*
X131000780Y-68999220D02*
X130500400Y-68498840D01*
X130500400Y-68498840D02*
X130500400Y-65999480D01*
X130500400Y-65999480D02*
X131000780Y-65499100D01*
X131000780Y-65499100D02*
X132999760Y-65499100D01*
X132999760Y-65499100D02*
X132999760Y-61998980D01*
X131000780Y-51000780D02*
X148001000Y-51000780D01*
X131000780Y-51000780D02*
X130500400Y-51501160D01*
X130500400Y-51501160D02*
X130500400Y-53500140D01*
X130500400Y-53500140D02*
X130500400Y-54000520D01*
X130500400Y-54000520D02*
X131000780Y-54500900D01*
X131000780Y-54500900D02*
X132999760Y-54500900D01*
X132999760Y-54500900D02*
X132999760Y-58001020D01*
X130500400Y-61501140D02*
X131000780Y-61998980D01*
X131000780Y-61998980D02*
X132999760Y-61998980D01*
X130500400Y-61501140D02*
X130500400Y-58498860D01*
X130500400Y-58498860D02*
X131000780Y-58001020D01*
X131000780Y-58001020D02*
X132999760Y-58001020D01*
X148999220Y-49499640D02*
X148999220Y-51000780D01*
X148999220Y-51000780D02*
X149499600Y-51000780D01*
X149499600Y-51000780D02*
X149499600Y-70500360D01*
X148999220Y-70500360D02*
X148999220Y-68999220D01*
X148999220Y-68999220D02*
X148498840Y-68999220D01*
X148498840Y-68999220D02*
X148498840Y-49499640D01*
X148001000Y-51000780D02*
X148001000Y-51501160D01*
X148001000Y-68999220D02*
X148001000Y-68498840D01*
X148498840Y-51501160D02*
X148001000Y-51501160D01*
X148001000Y-68498840D02*
X148498840Y-68498840D01*
X149499600Y-70500360D02*
X148999220Y-70500360D01*
X148498840Y-49499640D02*
X148999220Y-49499640D01*
%TO.C,J8*%
X148750300Y-88999220D02*
X148750300Y-69499640D01*
X148999220Y-71000780D02*
X148999220Y-88999220D01*
X149250680Y-90500360D02*
X149250680Y-71000780D01*
X131000780Y-88999220D02*
X148001000Y-88999220D01*
X131000780Y-88999220D02*
X130500400Y-88498840D01*
X130500400Y-88498840D02*
X130500400Y-85999480D01*
X130500400Y-85999480D02*
X131000780Y-85499100D01*
X131000780Y-85499100D02*
X132999760Y-85499100D01*
X132999760Y-85499100D02*
X132999760Y-81998980D01*
X131000780Y-71000780D02*
X148001000Y-71000780D01*
X131000780Y-71000780D02*
X130500400Y-71501160D01*
X130500400Y-71501160D02*
X130500400Y-73500140D01*
X130500400Y-73500140D02*
X130500400Y-74000520D01*
X130500400Y-74000520D02*
X131000780Y-74500900D01*
X131000780Y-74500900D02*
X132999760Y-74500900D01*
X132999760Y-74500900D02*
X132999760Y-78001020D01*
X130500400Y-81501140D02*
X131000780Y-81998980D01*
X131000780Y-81998980D02*
X132999760Y-81998980D01*
X130500400Y-81501140D02*
X130500400Y-78498860D01*
X130500400Y-78498860D02*
X131000780Y-78001020D01*
X131000780Y-78001020D02*
X132999760Y-78001020D01*
X148999220Y-69499640D02*
X148999220Y-71000780D01*
X148999220Y-71000780D02*
X149499600Y-71000780D01*
X149499600Y-71000780D02*
X149499600Y-90500360D01*
X148999220Y-90500360D02*
X148999220Y-88999220D01*
X148999220Y-88999220D02*
X148498840Y-88999220D01*
X148498840Y-88999220D02*
X148498840Y-69499640D01*
X148001000Y-71000780D02*
X148001000Y-71501160D01*
X148001000Y-88999220D02*
X148001000Y-88498840D01*
X148498840Y-71501160D02*
X148001000Y-71501160D01*
X148001000Y-88498840D02*
X148498840Y-88498840D01*
X149499600Y-90500360D02*
X148999220Y-90500360D01*
X148498840Y-69499640D02*
X148999220Y-69499640D01*
%TO.C,J7*%
X148750300Y-108999220D02*
X148750300Y-89499640D01*
X148999220Y-91000780D02*
X148999220Y-108999220D01*
X149250680Y-110500360D02*
X149250680Y-91000780D01*
X131000780Y-108999220D02*
X148001000Y-108999220D01*
X131000780Y-108999220D02*
X130500400Y-108498840D01*
X130500400Y-108498840D02*
X130500400Y-105999480D01*
X130500400Y-105999480D02*
X131000780Y-105499100D01*
X131000780Y-105499100D02*
X132999760Y-105499100D01*
X132999760Y-105499100D02*
X132999760Y-101998980D01*
X131000780Y-91000780D02*
X148001000Y-91000780D01*
X131000780Y-91000780D02*
X130500400Y-91501160D01*
X130500400Y-91501160D02*
X130500400Y-93500140D01*
X130500400Y-93500140D02*
X130500400Y-94000520D01*
X130500400Y-94000520D02*
X131000780Y-94500900D01*
X131000780Y-94500900D02*
X132999760Y-94500900D01*
X132999760Y-94500900D02*
X132999760Y-98001020D01*
X130500400Y-101501140D02*
X131000780Y-101998980D01*
X131000780Y-101998980D02*
X132999760Y-101998980D01*
X130500400Y-101501140D02*
X130500400Y-98498860D01*
X130500400Y-98498860D02*
X131000780Y-98001020D01*
X131000780Y-98001020D02*
X132999760Y-98001020D01*
X148999220Y-89499640D02*
X148999220Y-91000780D01*
X148999220Y-91000780D02*
X149499600Y-91000780D01*
X149499600Y-91000780D02*
X149499600Y-110500360D01*
X148999220Y-110500360D02*
X148999220Y-108999220D01*
X148999220Y-108999220D02*
X148498840Y-108999220D01*
X148498840Y-108999220D02*
X148498840Y-89499640D01*
X148001000Y-91000780D02*
X148001000Y-91501160D01*
X148001000Y-108999220D02*
X148001000Y-108498840D01*
X148498840Y-91501160D02*
X148001000Y-91501160D01*
X148001000Y-108498840D02*
X148498840Y-108498840D01*
X149499600Y-110500360D02*
X148999220Y-110500360D01*
X148498840Y-89499640D02*
X148999220Y-89499640D01*
%TO.C,J4*%
X98915220Y-138945620D02*
X80916780Y-138945620D01*
X95915480Y-120446800D02*
X95415100Y-120947180D01*
X80916780Y-138445240D02*
X100416360Y-138445240D01*
X100416360Y-138945620D02*
X98915220Y-138945620D01*
X98414840Y-138445240D02*
X98414840Y-137947400D01*
X83916520Y-120446800D02*
X84416900Y-120947180D01*
X84416900Y-120947180D02*
X84416900Y-122946160D01*
X80916780Y-120947180D02*
X80916780Y-137947400D01*
X98915220Y-120947180D02*
X98915220Y-137947400D01*
X91417140Y-120446800D02*
X91914980Y-120947180D01*
X80916780Y-138945620D02*
X80916780Y-138445240D01*
X98915220Y-139446000D02*
X79415640Y-139446000D01*
X96415860Y-120446800D02*
X95915480Y-120446800D01*
X95415100Y-122946160D02*
X91914980Y-122946160D01*
X87917020Y-120947180D02*
X87917020Y-122946160D01*
X98915220Y-120947180D02*
X98414840Y-120446800D01*
X91914980Y-120947180D02*
X91914980Y-122946160D01*
X88414860Y-120446800D02*
X87917020Y-120947180D01*
X80916780Y-120947180D02*
X81417160Y-120446800D01*
X98915220Y-137947400D02*
X98414840Y-137947400D01*
X100416360Y-138445240D02*
X100416360Y-138945620D01*
X79415640Y-139197080D02*
X98915220Y-139197080D01*
X84416900Y-122946160D02*
X87917020Y-122946160D01*
X98915220Y-138945620D02*
X98915220Y-139446000D01*
X81417160Y-120446800D02*
X83916520Y-120446800D01*
X98414840Y-120446800D02*
X96415860Y-120446800D01*
X81417160Y-137947400D02*
X81417160Y-138445240D01*
X80916780Y-137947400D02*
X81417160Y-137947400D01*
X80916780Y-138696700D02*
X100416360Y-138696700D01*
X95415100Y-120947180D02*
X95415100Y-122946160D01*
X79415640Y-139446000D02*
X79415640Y-138945620D01*
X88414860Y-120446800D02*
X91417140Y-120446800D01*
X79415640Y-138945620D02*
X80916780Y-138945620D01*
%TO.C,J2*%
X68999220Y-51000780D02*
X69499600Y-51501160D01*
X68999220Y-51000780D02*
X51999000Y-51000780D01*
X50749320Y-49499640D02*
X50749320Y-68999220D01*
X69499600Y-58498860D02*
X68999220Y-58001020D01*
X51999000Y-68999220D02*
X51999000Y-68498840D01*
X51000780Y-70500360D02*
X51000780Y-68999220D01*
X51000780Y-51000780D02*
X51501160Y-51000780D01*
X69499600Y-51501160D02*
X69499600Y-54000520D01*
X50500400Y-49499640D02*
X51000780Y-49499640D01*
X69499600Y-54000520D02*
X68999220Y-54500900D01*
X51000780Y-68999220D02*
X50500400Y-68999220D01*
X69499600Y-68498840D02*
X69499600Y-66499860D01*
X51249700Y-51000780D02*
X51249700Y-70500360D01*
X51501160Y-70500360D02*
X51000780Y-70500360D01*
X68999220Y-58001020D02*
X67000240Y-58001020D01*
X51999000Y-51501160D02*
X51501160Y-51501160D01*
X51501160Y-68498840D02*
X51999000Y-68498840D01*
X51000780Y-49499640D02*
X51000780Y-51000780D01*
X68999220Y-68999220D02*
X69499600Y-68498840D01*
X51999000Y-51000780D02*
X51999000Y-51501160D01*
X67000240Y-65499100D02*
X67000240Y-61998980D01*
X68999220Y-61998980D02*
X67000240Y-61998980D01*
X69499600Y-61501140D02*
X68999220Y-61998980D01*
X51501160Y-51000780D02*
X51501160Y-70500360D01*
X67000240Y-54500900D02*
X67000240Y-58001020D01*
X50500400Y-68999220D02*
X50500400Y-49499640D01*
X69499600Y-58498860D02*
X69499600Y-61501140D01*
X68999220Y-65499100D02*
X67000240Y-65499100D01*
X68999220Y-54500900D02*
X67000240Y-54500900D01*
X69499600Y-65999480D02*
X68999220Y-65499100D01*
X68999220Y-68999220D02*
X51999000Y-68999220D01*
X69499600Y-66499860D02*
X69499600Y-65999480D01*
X51000780Y-68999220D02*
X51000780Y-51000780D01*
%TO.C,J5*%
X51000780Y-128999220D02*
X51000780Y-111000780D01*
X51999000Y-128999220D02*
X51999000Y-128498840D01*
X68999220Y-111000780D02*
X51999000Y-111000780D01*
X67000240Y-114500900D02*
X67000240Y-118001020D01*
X51501160Y-128498840D02*
X51999000Y-128498840D01*
X51999000Y-111000780D02*
X51999000Y-111501160D01*
X51000780Y-128999220D02*
X50500400Y-128999220D01*
X50500400Y-109499640D02*
X51000780Y-109499640D01*
X50749320Y-109499640D02*
X50749320Y-128999220D01*
X68999220Y-128999220D02*
X51999000Y-128999220D01*
X69499600Y-121501140D02*
X68999220Y-121998980D01*
X51000780Y-109499640D02*
X51000780Y-111000780D01*
X69499600Y-128498840D02*
X69499600Y-126499860D01*
X69499600Y-125999480D02*
X68999220Y-125499100D01*
X68999220Y-111000780D02*
X69499600Y-111501160D01*
X51501160Y-111000780D02*
X51501160Y-130500360D01*
X68999220Y-121998980D02*
X67000240Y-121998980D01*
X69499600Y-114000520D02*
X68999220Y-114500900D01*
X68999220Y-125499100D02*
X67000240Y-125499100D01*
X69499600Y-118498860D02*
X69499600Y-121501140D01*
X51249700Y-111000780D02*
X51249700Y-130500360D01*
X68999220Y-128999220D02*
X69499600Y-128498840D01*
X69499600Y-118498860D02*
X68999220Y-118001020D01*
X50500400Y-128999220D02*
X50500400Y-109499640D01*
X67000240Y-125499100D02*
X67000240Y-121998980D01*
X51501160Y-130500360D02*
X51000780Y-130500360D01*
X68999220Y-118001020D02*
X67000240Y-118001020D01*
X69499600Y-126499860D02*
X69499600Y-125999480D01*
X51999000Y-111501160D02*
X51501160Y-111501160D01*
X51000780Y-130500360D02*
X51000780Y-128999220D01*
X69499600Y-111501160D02*
X69499600Y-114000520D01*
X68999220Y-114500900D02*
X67000240Y-114500900D01*
X51000780Y-111000780D02*
X51501160Y-111000780D01*
%TO.C,J3*%
X68999220Y-85499100D02*
X67000240Y-85499100D01*
X69499600Y-81501140D02*
X68999220Y-81998980D01*
X67000240Y-74500900D02*
X67000240Y-78001020D01*
X51000780Y-69499640D02*
X51000780Y-71000780D01*
X69499600Y-85999480D02*
X68999220Y-85499100D01*
X68999220Y-88999220D02*
X51999000Y-88999220D01*
X51501160Y-88498840D02*
X51999000Y-88498840D01*
X51501160Y-90500360D02*
X51000780Y-90500360D01*
X69499600Y-86499860D02*
X69499600Y-85999480D01*
X68999220Y-71000780D02*
X69499600Y-71501160D01*
X51000780Y-71000780D02*
X51501160Y-71000780D01*
X69499600Y-88498840D02*
X69499600Y-86499860D01*
X67000240Y-85499100D02*
X67000240Y-81998980D01*
X69499600Y-74000520D02*
X68999220Y-74500900D01*
X51000780Y-88999220D02*
X50500400Y-88999220D01*
X50500400Y-88999220D02*
X50500400Y-69499640D01*
X68999220Y-88999220D02*
X69499600Y-88498840D01*
X51999000Y-88999220D02*
X51999000Y-88498840D01*
X51999000Y-71000780D02*
X51999000Y-71501160D01*
X69499600Y-78498860D02*
X68999220Y-78001020D01*
X50749320Y-69499640D02*
X50749320Y-88999220D01*
X51000780Y-88999220D02*
X51000780Y-71000780D01*
X50500400Y-69499640D02*
X51000780Y-69499640D01*
X51999000Y-71501160D02*
X51501160Y-71501160D01*
X68999220Y-81998980D02*
X67000240Y-81998980D01*
X51249700Y-71000780D02*
X51249700Y-90500360D01*
X69499600Y-78498860D02*
X69499600Y-81501140D01*
X51501160Y-71000780D02*
X51501160Y-90500360D01*
X68999220Y-78001020D02*
X67000240Y-78001020D01*
X69499600Y-71501160D02*
X69499600Y-74000520D01*
X68999220Y-74500900D02*
X67000240Y-74500900D01*
X68999220Y-71000780D02*
X51999000Y-71000780D01*
X51000780Y-90500360D02*
X51000780Y-88999220D01*
%TO.C,J1*%
X52044600Y-91475560D02*
X51546760Y-91475560D01*
X69044820Y-101973380D02*
X67045840Y-101973380D01*
X69044820Y-108973620D02*
X52044600Y-108973620D01*
X69545200Y-98473260D02*
X69545200Y-101475540D01*
X51295300Y-90975180D02*
X51295300Y-110474760D01*
X51546760Y-90975180D02*
X51546760Y-110474760D01*
X67045840Y-105473500D02*
X67045840Y-101973380D01*
X69545200Y-101475540D02*
X69044820Y-101973380D01*
X69545200Y-106474260D02*
X69545200Y-105973880D01*
X51546760Y-108473240D02*
X52044600Y-108473240D01*
X52044600Y-108973620D02*
X52044600Y-108473240D01*
X69545200Y-98473260D02*
X69044820Y-97975420D01*
X50794920Y-89474040D02*
X50794920Y-108973620D01*
X69044820Y-90975180D02*
X69545200Y-91475560D01*
X51546760Y-110474760D02*
X51046380Y-110474760D01*
X52044600Y-90975180D02*
X52044600Y-91475560D01*
X67045840Y-94475300D02*
X67045840Y-97975420D01*
X69545200Y-105973880D02*
X69044820Y-105473500D01*
X51046380Y-89474040D02*
X51046380Y-90975180D01*
X51046380Y-108973620D02*
X51046380Y-90975180D01*
X69545200Y-108473240D02*
X69545200Y-106474260D01*
X69044820Y-90975180D02*
X52044600Y-90975180D01*
X69044820Y-108973620D02*
X69545200Y-108473240D01*
X69545200Y-91475560D02*
X69545200Y-93974920D01*
X69044820Y-105473500D02*
X67045840Y-105473500D01*
X51046380Y-90975180D02*
X51546760Y-90975180D01*
X51046380Y-108973620D02*
X50546000Y-108973620D01*
X69044820Y-97975420D02*
X67045840Y-97975420D01*
X50546000Y-89474040D02*
X51046380Y-89474040D01*
X50546000Y-108973620D02*
X50546000Y-89474040D01*
X69545200Y-93974920D02*
X69044820Y-94475300D01*
X69044820Y-94475300D02*
X67045840Y-94475300D01*
X51046380Y-110474760D02*
X51046380Y-108973620D01*
%TO.C,J6*%
X130500400Y-113500140D02*
X130500400Y-114000520D01*
X149499600Y-130500360D02*
X148999220Y-130500360D01*
X131000780Y-128999220D02*
X148001000Y-128999220D01*
X148001000Y-128498840D02*
X148498840Y-128498840D01*
X148999220Y-111000780D02*
X148999220Y-128999220D01*
X148999220Y-109499640D02*
X148999220Y-111000780D01*
X130500400Y-125999480D02*
X131000780Y-125499100D01*
X149499600Y-111000780D02*
X149499600Y-130500360D01*
X130500400Y-114000520D02*
X131000780Y-114500900D01*
X131000780Y-111000780D02*
X130500400Y-111501160D01*
X148001000Y-111000780D02*
X148001000Y-111501160D01*
X148999220Y-111000780D02*
X149499600Y-111000780D01*
X130500400Y-111501160D02*
X130500400Y-113500140D01*
X148999220Y-128999220D02*
X148498840Y-128999220D01*
X132999760Y-125499100D02*
X132999760Y-121998980D01*
X148999220Y-130500360D02*
X148999220Y-128999220D01*
X149250680Y-130500360D02*
X149250680Y-111000780D01*
X131000780Y-114500900D02*
X132999760Y-114500900D01*
X131000780Y-128999220D02*
X130500400Y-128498840D01*
X148750300Y-128999220D02*
X148750300Y-109499640D01*
X148498840Y-111501160D02*
X148001000Y-111501160D01*
X148001000Y-128999220D02*
X148001000Y-128498840D01*
X132999760Y-114500900D02*
X132999760Y-118001020D01*
X131000780Y-118001020D02*
X132999760Y-118001020D01*
X131000780Y-111000780D02*
X148001000Y-111000780D01*
X131000780Y-121998980D02*
X132999760Y-121998980D01*
X148498840Y-128999220D02*
X148498840Y-109499640D01*
X148498840Y-109499640D02*
X148999220Y-109499640D01*
X130500400Y-121501140D02*
X130500400Y-118498860D01*
X130500400Y-121501140D02*
X131000780Y-121998980D01*
X131000780Y-125499100D02*
X132999760Y-125499100D01*
X130500400Y-118498860D02*
X131000780Y-118001020D01*
X130500400Y-128498840D02*
X130500400Y-125999480D01*
%TD*%
D13*
%TO.C,J10*%
X102501920Y-127002800D03*
X114996180Y-124500900D03*
X110000000Y-127000260D03*
X117498080Y-127002800D03*
X105003820Y-124500900D03*
D14*
X115001260Y-136197700D03*
X104998740Y-136197700D03*
%TD*%
D13*
%TO.C,J9*%
X137002800Y-67498080D03*
X134500900Y-55003820D03*
X137000260Y-60000000D03*
X137002800Y-52501920D03*
X134500900Y-64996180D03*
D15*
X146197700Y-54998740D03*
X146197700Y-65001260D03*
%TD*%
D13*
%TO.C,J8*%
X137002800Y-87498080D03*
X134500900Y-75003820D03*
X137000260Y-80000000D03*
X137002800Y-72501920D03*
X134500900Y-84996180D03*
D15*
X146197700Y-74998740D03*
X146197700Y-85001260D03*
%TD*%
D13*
%TO.C,J7*%
X137002800Y-107498080D03*
X134500900Y-95003820D03*
X137000260Y-100000000D03*
X137002800Y-92501920D03*
X134500900Y-104996180D03*
D15*
X146197700Y-94998740D03*
X146197700Y-105001260D03*
%TD*%
D14*
%TO.C,J4*%
X84914740Y-136144100D03*
X94917260Y-136144100D03*
D13*
X97414080Y-126949200D03*
X89916000Y-126946660D03*
X82417920Y-126949200D03*
X94912180Y-124447300D03*
X84919820Y-124447300D03*
%TD*%
D15*
%TO.C,J2*%
X53802300Y-65001260D03*
X53802300Y-54998740D03*
D13*
X62997200Y-67498080D03*
X62999740Y-60000000D03*
X62997200Y-52501920D03*
X65499100Y-64996180D03*
X65499100Y-55003820D03*
%TD*%
D15*
%TO.C,J5*%
X53802300Y-114998740D03*
X53802300Y-125001260D03*
D13*
X62997200Y-127498080D03*
X62999740Y-120000000D03*
X62997200Y-112501920D03*
X65499100Y-124996180D03*
X65499100Y-115003820D03*
%TD*%
D15*
%TO.C,J3*%
X53802300Y-85001260D03*
X53802300Y-74998740D03*
D13*
X62997200Y-87498080D03*
X62999740Y-80000000D03*
X62997200Y-72501920D03*
X65499100Y-84996180D03*
X65499100Y-75003820D03*
%TD*%
D15*
%TO.C,J1*%
X53847900Y-104975660D03*
X53847900Y-94973140D03*
D13*
X63042800Y-107472480D03*
X63045340Y-99974400D03*
X63042800Y-92476320D03*
X65544700Y-104970580D03*
X65544700Y-94978220D03*
%TD*%
D15*
%TO.C,J6*%
X146197700Y-114998740D03*
X146197700Y-125001260D03*
D13*
X137002800Y-112501920D03*
X137000260Y-120000000D03*
X137002800Y-127498080D03*
X134500900Y-115003820D03*
X134500900Y-124996180D03*
%TD*%
M02*
