%TF.GenerationSoftware,KiCad,Pcbnew,(6.0.5)*%
%TF.CreationDate,2022-08-29T14:43:18+01:00*%
%TF.ProjectId,PicoMIDISplitter,5069636f-4d49-4444-9953-706c69747465,rev?*%
%TF.SameCoordinates,Original*%
%TF.FileFunction,Copper,L1,Top*%
%TF.FilePolarity,Positive*%
%FSLAX46Y46*%
G04 Gerber Fmt 4.6, Leading zero omitted, Abs format (unit mm)*
G04 Created by KiCad (PCBNEW (6.0.5)) date 2022-08-29 14:43:18*
%MOMM*%
%LPD*%
G01*
G04 APERTURE LIST*
%TA.AperFunction,ComponentPad*%
%ADD10R,1.600000X1.600000*%
%TD*%
%TA.AperFunction,ComponentPad*%
%ADD11O,1.600000X1.600000*%
%TD*%
%TA.AperFunction,ComponentPad*%
%ADD12C,1.600000*%
%TD*%
%TA.AperFunction,ComponentPad*%
%ADD13O,1.700000X1.700000*%
%TD*%
%TA.AperFunction,SMDPad,CuDef*%
%ADD14R,3.500000X1.700000*%
%TD*%
%TA.AperFunction,ComponentPad*%
%ADD15R,1.700000X1.700000*%
%TD*%
%TA.AperFunction,SMDPad,CuDef*%
%ADD16R,1.700000X3.500000*%
%TD*%
%TA.AperFunction,ComponentPad*%
%ADD17C,2.499360*%
%TD*%
%TA.AperFunction,WasherPad*%
%ADD18R,2.500000X4.000000*%
%TD*%
%TA.AperFunction,WasherPad*%
%ADD19R,4.000000X2.500000*%
%TD*%
%TA.AperFunction,Conductor*%
%ADD20C,0.600000*%
%TD*%
%TA.AperFunction,Conductor*%
%ADD21C,0.800000*%
%TD*%
%TA.AperFunction,Conductor*%
%ADD22C,0.254000*%
%TD*%
G04 APERTURE END LIST*
D10*
%TO.P,U5,1*%
%TO.N,Net-(D1-Pad1)*%
X120106200Y-51171000D03*
D11*
%TO.P,U5,2*%
%TO.N,Net-(D1-Pad2)*%
X122646200Y-51171000D03*
%TO.P,U5,3*%
%TO.N,unconnected-(U5-Pad3)*%
X125186200Y-51171000D03*
%TO.P,U5,4*%
%TO.N,/RX0*%
X125186200Y-43551000D03*
%TO.P,U5,5*%
%TO.N,GND*%
X122646200Y-43551000D03*
%TO.P,U5,6*%
%TO.N,+3V3*%
X120106200Y-43551000D03*
%TD*%
D12*
%TO.P,R20,1*%
%TO.N,+3V3*%
X128625600Y-51079400D03*
D11*
%TO.P,R20,2*%
%TO.N,/RX0*%
X128625600Y-43459400D03*
%TD*%
D12*
%TO.P,R19,1*%
%TO.N,Net-(J10-Pad4)*%
X120142000Y-117678200D03*
D11*
%TO.P,R19,2*%
%TO.N,Net-(D1-Pad1)*%
X112522000Y-117678200D03*
%TD*%
%TO.P,U3,14,VCC*%
%TO.N,+5V*%
X118526400Y-97200800D03*
%TO.P,U3,13*%
%TO.N,Net-(U3-Pad13)*%
X118526400Y-99740800D03*
%TO.P,U3,12*%
%TO.N,Net-(R13-Pad1)*%
X118526400Y-102280800D03*
%TO.P,U3,11*%
%TO.N,Net-(U3-Pad11)*%
X118526400Y-104820800D03*
%TO.P,U3,10*%
%TO.N,Net-(R14-Pad1)*%
X118526400Y-107360800D03*
%TO.P,U3,9*%
%TO.N,Net-(U3-Pad6)*%
X118526400Y-109900800D03*
%TO.P,U3,8*%
%TO.N,Net-(R15-Pad1)*%
X118526400Y-112440800D03*
%TO.P,U3,7,GND*%
%TO.N,GND*%
X110906400Y-112440800D03*
%TO.P,U3,6*%
%TO.N,Net-(U3-Pad6)*%
X110906400Y-109900800D03*
%TO.P,U3,5*%
%TO.N,/PIO_TX7*%
X110906400Y-107360800D03*
%TO.P,U3,4*%
%TO.N,Net-(U3-Pad11)*%
X110906400Y-104820800D03*
%TO.P,U3,3*%
%TO.N,/PIO_TX6*%
X110906400Y-102280800D03*
%TO.P,U3,2*%
%TO.N,Net-(U3-Pad13)*%
X110906400Y-99740800D03*
D10*
%TO.P,U3,1*%
%TO.N,/PIO_TX5*%
X110906400Y-97200800D03*
%TD*%
%TO.P,U2,1*%
%TO.N,/TX0*%
X95895000Y-97200800D03*
D11*
%TO.P,U2,2*%
%TO.N,Net-(U2-Pad13)*%
X95895000Y-99740800D03*
%TO.P,U2,3*%
%TO.N,/PIO_TX3*%
X95895000Y-102280800D03*
%TO.P,U2,4*%
%TO.N,Net-(U2-Pad11)*%
X95895000Y-104820800D03*
%TO.P,U2,5*%
%TO.N,/PIO_TX4*%
X95895000Y-107360800D03*
%TO.P,U2,6*%
%TO.N,Net-(U2-Pad6)*%
X95895000Y-109900800D03*
%TO.P,U2,7,GND*%
%TO.N,GND*%
X95895000Y-112440800D03*
%TO.P,U2,8*%
%TO.N,Net-(R6-Pad1)*%
X103515000Y-112440800D03*
%TO.P,U2,9*%
%TO.N,Net-(U2-Pad6)*%
X103515000Y-109900800D03*
%TO.P,U2,10*%
%TO.N,Net-(R5-Pad1)*%
X103515000Y-107360800D03*
%TO.P,U2,11*%
%TO.N,Net-(U2-Pad11)*%
X103515000Y-104820800D03*
%TO.P,U2,12*%
%TO.N,Net-(R4-Pad1)*%
X103515000Y-102280800D03*
%TO.P,U2,13*%
%TO.N,Net-(U2-Pad13)*%
X103515000Y-99740800D03*
%TO.P,U2,14,VCC*%
%TO.N,+5V*%
X103515000Y-97200800D03*
%TD*%
D10*
%TO.P,U1,1*%
%TO.N,/PIO_TX0*%
X81391600Y-97200800D03*
D11*
%TO.P,U1,2*%
%TO.N,Net-(U1-Pad13)*%
X81391600Y-99740800D03*
%TO.P,U1,3*%
%TO.N,/PIO_TX1*%
X81391600Y-102280800D03*
%TO.P,U1,4*%
%TO.N,Net-(U1-Pad11)*%
X81391600Y-104820800D03*
%TO.P,U1,5*%
%TO.N,/PIO_TX2*%
X81391600Y-107360800D03*
%TO.P,U1,6*%
%TO.N,Net-(U1-Pad6)*%
X81391600Y-109900800D03*
%TO.P,U1,7,GND*%
%TO.N,GND*%
X81391600Y-112440800D03*
%TO.P,U1,8*%
%TO.N,Net-(R1-Pad1)*%
X89011600Y-112440800D03*
%TO.P,U1,9*%
%TO.N,Net-(U1-Pad6)*%
X89011600Y-109900800D03*
%TO.P,U1,10*%
%TO.N,Net-(U1-Pad10)*%
X89011600Y-107360800D03*
%TO.P,U1,11*%
%TO.N,Net-(U1-Pad11)*%
X89011600Y-104820800D03*
%TO.P,U1,12*%
%TO.N,Net-(R2-Pad1)*%
X89011600Y-102280800D03*
%TO.P,U1,13*%
%TO.N,Net-(U1-Pad13)*%
X89011600Y-99740800D03*
%TO.P,U1,14,VCC*%
%TO.N,+5V*%
X89011600Y-97200800D03*
%TD*%
D12*
%TO.P,R12,1*%
%TO.N,+5V*%
X125000000Y-125000000D03*
D11*
%TO.P,R12,2*%
%TO.N,Net-(J6-Pad4)*%
X125000000Y-117380000D03*
%TD*%
D12*
%TO.P,R11,1*%
%TO.N,+5V*%
X75000000Y-136000000D03*
D11*
%TO.P,R11,2*%
%TO.N,Net-(J5-Pad4)*%
X75000000Y-128380000D03*
%TD*%
D12*
%TO.P,R10,1*%
%TO.N,+5V*%
X90347800Y-117602000D03*
D11*
%TO.P,R10,2*%
%TO.N,Net-(J4-Pad4)*%
X97967800Y-117602000D03*
%TD*%
D12*
%TO.P,R6,1*%
%TO.N,Net-(R6-Pad1)*%
X125000000Y-128400000D03*
D11*
%TO.P,R6,2*%
%TO.N,Net-(J6-Pad5)*%
X125000000Y-136020000D03*
%TD*%
D12*
%TO.P,R18,1*%
%TO.N,+5V*%
X125000000Y-61500000D03*
D11*
%TO.P,R18,2*%
%TO.N,Net-(J9-Pad4)*%
X125000000Y-53880000D03*
%TD*%
D12*
%TO.P,R17,1*%
%TO.N,+5V*%
X125000000Y-82500000D03*
D11*
%TO.P,R17,2*%
%TO.N,Net-(J8-Pad4)*%
X125000000Y-74880000D03*
%TD*%
D12*
%TO.P,R5,1*%
%TO.N,Net-(R5-Pad1)*%
X75000000Y-125000000D03*
D11*
%TO.P,R5,2*%
%TO.N,Net-(J5-Pad5)*%
X75000000Y-117380000D03*
%TD*%
D12*
%TO.P,R4,1*%
%TO.N,Net-(R4-Pad1)*%
X79654400Y-117576600D03*
D11*
%TO.P,R4,2*%
%TO.N,Net-(J4-Pad5)*%
X87274400Y-117576600D03*
%TD*%
D12*
%TO.P,R9,1*%
%TO.N,+5V*%
X75000000Y-93000000D03*
D11*
%TO.P,R9,2*%
%TO.N,Net-(J3-Pad4)*%
X75000000Y-85380000D03*
%TD*%
%TO.P,R8,2*%
%TO.N,Net-(J2-Pad4)*%
X75000000Y-64380000D03*
D12*
%TO.P,R8,1*%
%TO.N,+5V*%
X75000000Y-72000000D03*
%TD*%
%TO.P,R16,1*%
%TO.N,+5V*%
X125000000Y-103500000D03*
D11*
%TO.P,R16,2*%
%TO.N,Net-(J7-Pad4)*%
X125000000Y-95880000D03*
%TD*%
D12*
%TO.P,R15,1*%
%TO.N,Net-(R15-Pad1)*%
X125000000Y-72000000D03*
D11*
%TO.P,R15,2*%
%TO.N,Net-(J9-Pad5)*%
X125000000Y-64380000D03*
%TD*%
D12*
%TO.P,R3,1*%
%TO.N,Net-(U1-Pad10)*%
X75000000Y-82500000D03*
D11*
%TO.P,R3,2*%
%TO.N,Net-(J3-Pad5)*%
X75000000Y-74880000D03*
%TD*%
D12*
%TO.P,R2,1*%
%TO.N,Net-(R2-Pad1)*%
X75000000Y-61500000D03*
D11*
%TO.P,R2,2*%
%TO.N,Net-(J2-Pad5)*%
X75000000Y-53880000D03*
%TD*%
D12*
%TO.P,R1,1*%
%TO.N,Net-(R1-Pad1)*%
X75000000Y-103500000D03*
D11*
%TO.P,R1,2*%
%TO.N,Net-(J1-Pad5)*%
X75000000Y-95880000D03*
%TD*%
D12*
%TO.P,R7,1*%
%TO.N,+5V*%
X75000000Y-106500000D03*
D11*
%TO.P,R7,2*%
%TO.N,Net-(J1-Pad4)*%
X75000000Y-114120000D03*
%TD*%
D12*
%TO.P,R14,1*%
%TO.N,Net-(R14-Pad1)*%
X125000000Y-93000000D03*
D11*
%TO.P,R14,2*%
%TO.N,Net-(J8-Pad5)*%
X125000000Y-85380000D03*
%TD*%
D12*
%TO.P,R13,1*%
%TO.N,Net-(R13-Pad1)*%
X125000000Y-106500000D03*
D11*
%TO.P,R13,2*%
%TO.N,Net-(J7-Pad5)*%
X125000000Y-114120000D03*
%TD*%
D10*
%TO.P,D1,1,K*%
%TO.N,Net-(D1-Pad1)*%
X109423200Y-117678200D03*
D11*
%TO.P,D1,2,A*%
%TO.N,Net-(D1-Pad2)*%
X101803200Y-117678200D03*
%TD*%
D12*
%TO.P,C2,2*%
%TO.N,GND*%
X107111800Y-102017200D03*
%TO.P,C2,1*%
%TO.N,+5V*%
X107111800Y-97017200D03*
%TD*%
%TO.P,C1,1*%
%TO.N,+5V*%
X92481400Y-97195000D03*
%TO.P,C1,2*%
%TO.N,GND*%
X92481400Y-102195000D03*
%TD*%
%TO.P,C3,1*%
%TO.N,+5V*%
X118668800Y-93711400D03*
%TO.P,C3,2*%
%TO.N,GND*%
X118668800Y-88711400D03*
%TD*%
%TO.P,C4,1*%
%TO.N,GND*%
X116713000Y-44998000D03*
%TO.P,C4,2*%
%TO.N,+3V3*%
X116713000Y-49998000D03*
%TD*%
D13*
%TO.P,U4,1,GPIO0*%
%TO.N,/TX0*%
X91110000Y-41870000D03*
D14*
X90210000Y-41870000D03*
D13*
%TO.P,U4,2,GPIO1*%
%TO.N,/RX0*%
X91110000Y-44410000D03*
D14*
X90210000Y-44410000D03*
%TO.P,U4,3,GND*%
%TO.N,GND*%
X90210000Y-46950000D03*
D15*
X91110000Y-46950000D03*
D13*
%TO.P,U4,4,GPIO2*%
%TO.N,unconnected-(U4-Pad4)*%
X91110000Y-49490000D03*
D14*
X90210000Y-49490000D03*
D13*
%TO.P,U4,5,GPIO3*%
%TO.N,unconnected-(U4-Pad5)*%
X91110000Y-52030000D03*
D14*
X90210000Y-52030000D03*
D13*
%TO.P,U4,6,GPIO4*%
%TO.N,/TX1*%
X91110000Y-54570000D03*
D14*
X90210000Y-54570000D03*
%TO.P,U4,7,GPIO5*%
%TO.N,/RX1*%
X90210000Y-57110000D03*
D13*
X91110000Y-57110000D03*
D15*
%TO.P,U4,8,GND*%
%TO.N,GND*%
X91110000Y-59650000D03*
D14*
X90210000Y-59650000D03*
%TO.P,U4,9,GPIO6*%
%TO.N,/PIO_TX0*%
X90210000Y-62190000D03*
D13*
X91110000Y-62190000D03*
%TO.P,U4,10,GPIO7*%
%TO.N,/PIO_TX1*%
X91110000Y-64730000D03*
D14*
X90210000Y-64730000D03*
%TO.P,U4,11,GPIO8*%
%TO.N,/PIO_TX2*%
X90210000Y-67270000D03*
D13*
X91110000Y-67270000D03*
%TO.P,U4,12,GPIO9*%
%TO.N,/PIO_TX3*%
X91110000Y-69810000D03*
D14*
X90210000Y-69810000D03*
D15*
%TO.P,U4,13,GND*%
%TO.N,GND*%
X91110000Y-72350000D03*
D14*
X90210000Y-72350000D03*
%TO.P,U4,14,GPIO10*%
%TO.N,/PIO_TX4*%
X90210000Y-74890000D03*
D13*
X91110000Y-74890000D03*
%TO.P,U4,15,GPIO11*%
%TO.N,/PIO_TX5*%
X91110000Y-77430000D03*
D14*
X90210000Y-77430000D03*
%TO.P,U4,16,GPIO12*%
%TO.N,/PIO_TX6*%
X90210000Y-79970000D03*
D13*
X91110000Y-79970000D03*
D14*
%TO.P,U4,17,GPIO13*%
%TO.N,/PIO_TX7*%
X90210000Y-82510000D03*
D13*
X91110000Y-82510000D03*
D14*
%TO.P,U4,18,GND*%
%TO.N,GND*%
X90210000Y-85050000D03*
D15*
X91110000Y-85050000D03*
D13*
%TO.P,U4,19,GPIO14*%
%TO.N,unconnected-(U4-Pad19)*%
X91110000Y-87590000D03*
D14*
X90210000Y-87590000D03*
%TO.P,U4,20,GPIO15*%
%TO.N,unconnected-(U4-Pad20)*%
X90210000Y-90130000D03*
D13*
X91110000Y-90130000D03*
D14*
%TO.P,U4,21,GPIO16*%
%TO.N,unconnected-(U4-Pad21)*%
X109790000Y-90130000D03*
D13*
X108890000Y-90130000D03*
D14*
%TO.P,U4,22,GPIO17*%
%TO.N,unconnected-(U4-Pad22)*%
X109790000Y-87590000D03*
D13*
X108890000Y-87590000D03*
D14*
%TO.P,U4,23,GND*%
%TO.N,GND*%
X109790000Y-85050000D03*
D15*
X108890000Y-85050000D03*
D13*
%TO.P,U4,24,GPIO18*%
%TO.N,unconnected-(U4-Pad24)*%
X108890000Y-82510000D03*
D14*
X109790000Y-82510000D03*
%TO.P,U4,25,GPIO19*%
%TO.N,unconnected-(U4-Pad25)*%
X109790000Y-79970000D03*
D13*
X108890000Y-79970000D03*
D14*
%TO.P,U4,26,GPIO20*%
%TO.N,unconnected-(U4-Pad26)*%
X109790000Y-77430000D03*
D13*
X108890000Y-77430000D03*
%TO.P,U4,27,GPIO21*%
%TO.N,unconnected-(U4-Pad27)*%
X108890000Y-74890000D03*
D14*
X109790000Y-74890000D03*
D15*
%TO.P,U4,28,GND*%
%TO.N,GND*%
X108890000Y-72350000D03*
D14*
X109790000Y-72350000D03*
D13*
%TO.P,U4,29,GPIO22*%
%TO.N,unconnected-(U4-Pad29)*%
X108890000Y-69810000D03*
D14*
X109790000Y-69810000D03*
%TO.P,U4,30,RUN*%
%TO.N,unconnected-(U4-Pad30)*%
X109790000Y-67270000D03*
D13*
X108890000Y-67270000D03*
%TO.P,U4,31,GPIO26_ADC0*%
%TO.N,unconnected-(U4-Pad31)*%
X108890000Y-64730000D03*
D14*
X109790000Y-64730000D03*
D13*
%TO.P,U4,32,GPIO27_ADC1*%
%TO.N,unconnected-(U4-Pad32)*%
X108890000Y-62190000D03*
D14*
X109790000Y-62190000D03*
%TO.P,U4,33,AGND*%
%TO.N,unconnected-(U4-Pad33)*%
X109790000Y-59650000D03*
D15*
X108890000Y-59650000D03*
D14*
%TO.P,U4,34,GPIO28_ADC2*%
%TO.N,unconnected-(U4-Pad34)*%
X109790000Y-57110000D03*
D13*
X108890000Y-57110000D03*
D14*
%TO.P,U4,35,ADC_VREF*%
%TO.N,unconnected-(U4-Pad35)*%
X109790000Y-54570000D03*
D13*
X108890000Y-54570000D03*
%TO.P,U4,36,3V3*%
%TO.N,+3V3*%
X108890000Y-52030000D03*
D14*
X109790000Y-52030000D03*
%TO.P,U4,37,3V3_EN*%
%TO.N,unconnected-(U4-Pad37)*%
X109790000Y-49490000D03*
D13*
X108890000Y-49490000D03*
D14*
%TO.P,U4,38,GND*%
%TO.N,GND*%
X109790000Y-46950000D03*
D15*
X108890000Y-46950000D03*
D14*
%TO.P,U4,39,VSYS*%
%TO.N,unconnected-(U4-Pad39)*%
X109790000Y-44410000D03*
D13*
X108890000Y-44410000D03*
%TO.P,U4,40,VBUS*%
%TO.N,+5V*%
X108890000Y-41870000D03*
D14*
X109790000Y-41870000D03*
D16*
%TO.P,U4,41,SWCLK*%
%TO.N,unconnected-(U4-Pad41)*%
X97460000Y-90800000D03*
D13*
X97460000Y-89900000D03*
D15*
%TO.P,U4,42,GND*%
%TO.N,unconnected-(U4-Pad42)*%
X100000000Y-89900000D03*
D16*
X100000000Y-90800000D03*
D13*
%TO.P,U4,43,SWDIO*%
%TO.N,unconnected-(U4-Pad43)*%
X102540000Y-89900000D03*
D16*
X102540000Y-90800000D03*
%TD*%
D17*
%TO.P,J10,3*%
%TO.N,unconnected-(J10-Pad3)*%
X102501920Y-127002800D03*
%TO.P,J10,4*%
%TO.N,Net-(J10-Pad4)*%
X114996180Y-124500900D03*
%TO.P,J10,2*%
%TO.N,unconnected-(J10-Pad2)*%
X110000000Y-127000260D03*
%TO.P,J10,1*%
%TO.N,unconnected-(J10-Pad1)*%
X117498080Y-127002800D03*
%TO.P,J10,5*%
%TO.N,Net-(D1-Pad2)*%
X105003820Y-124500900D03*
D18*
%TO.P,J10,*%
%TO.N,*%
X115001260Y-136197700D03*
X104998740Y-136197700D03*
%TD*%
D17*
%TO.P,J9,3*%
%TO.N,unconnected-(J9-Pad3)*%
X137002800Y-67498080D03*
%TO.P,J9,4*%
%TO.N,Net-(J9-Pad4)*%
X134500900Y-55003820D03*
%TO.P,J9,2*%
%TO.N,GND*%
X137000260Y-60000000D03*
%TO.P,J9,1*%
%TO.N,unconnected-(J9-Pad1)*%
X137002800Y-52501920D03*
%TO.P,J9,5*%
%TO.N,Net-(J9-Pad5)*%
X134500900Y-64996180D03*
D19*
%TO.P,J9,*%
%TO.N,*%
X146197700Y-54998740D03*
X146197700Y-65001260D03*
%TD*%
D17*
%TO.P,J8,3*%
%TO.N,unconnected-(J8-Pad3)*%
X137002800Y-87498080D03*
%TO.P,J8,4*%
%TO.N,Net-(J8-Pad4)*%
X134500900Y-75003820D03*
%TO.P,J8,2*%
%TO.N,GND*%
X137000260Y-80000000D03*
%TO.P,J8,1*%
%TO.N,unconnected-(J8-Pad1)*%
X137002800Y-72501920D03*
%TO.P,J8,5*%
%TO.N,Net-(J8-Pad5)*%
X134500900Y-84996180D03*
D19*
%TO.P,J8,*%
%TO.N,*%
X146197700Y-74998740D03*
X146197700Y-85001260D03*
%TD*%
D17*
%TO.P,J7,3*%
%TO.N,unconnected-(J7-Pad3)*%
X137002800Y-107498080D03*
%TO.P,J7,4*%
%TO.N,Net-(J7-Pad4)*%
X134500900Y-95003820D03*
%TO.P,J7,2*%
%TO.N,GND*%
X137000260Y-100000000D03*
%TO.P,J7,1*%
%TO.N,unconnected-(J7-Pad1)*%
X137002800Y-92501920D03*
%TO.P,J7,5*%
%TO.N,Net-(J7-Pad5)*%
X134500900Y-104996180D03*
D19*
%TO.P,J7,*%
%TO.N,*%
X146197700Y-94998740D03*
X146197700Y-105001260D03*
%TD*%
D18*
%TO.P,J4,*%
%TO.N,*%
X84914740Y-136144100D03*
X94917260Y-136144100D03*
D17*
%TO.P,J4,1*%
%TO.N,unconnected-(J4-Pad1)*%
X97414080Y-126949200D03*
%TO.P,J4,2*%
%TO.N,GND*%
X89916000Y-126946660D03*
%TO.P,J4,3*%
%TO.N,unconnected-(J4-Pad3)*%
X82417920Y-126949200D03*
%TO.P,J4,4*%
%TO.N,Net-(J4-Pad4)*%
X94912180Y-124447300D03*
%TO.P,J4,5*%
%TO.N,Net-(J4-Pad5)*%
X84919820Y-124447300D03*
%TD*%
D19*
%TO.P,J2,*%
%TO.N,*%
X53802300Y-65001260D03*
X53802300Y-54998740D03*
D17*
%TO.P,J2,1*%
%TO.N,unconnected-(J2-Pad1)*%
X62997200Y-67498080D03*
%TO.P,J2,2*%
%TO.N,GND*%
X62999740Y-60000000D03*
%TO.P,J2,3*%
%TO.N,unconnected-(J2-Pad3)*%
X62997200Y-52501920D03*
%TO.P,J2,4*%
%TO.N,Net-(J2-Pad4)*%
X65499100Y-64996180D03*
%TO.P,J2,5*%
%TO.N,Net-(J2-Pad5)*%
X65499100Y-55003820D03*
%TD*%
D19*
%TO.P,J5,*%
%TO.N,*%
X53802300Y-114998740D03*
X53802300Y-125001260D03*
D17*
%TO.P,J5,1*%
%TO.N,unconnected-(J5-Pad1)*%
X62997200Y-127498080D03*
%TO.P,J5,2*%
%TO.N,GND*%
X62999740Y-120000000D03*
%TO.P,J5,3*%
%TO.N,unconnected-(J5-Pad3)*%
X62997200Y-112501920D03*
%TO.P,J5,4*%
%TO.N,Net-(J5-Pad4)*%
X65499100Y-124996180D03*
%TO.P,J5,5*%
%TO.N,Net-(J5-Pad5)*%
X65499100Y-115003820D03*
%TD*%
D19*
%TO.P,J3,*%
%TO.N,*%
X53802300Y-85001260D03*
X53802300Y-74998740D03*
D17*
%TO.P,J3,1*%
%TO.N,unconnected-(J3-Pad1)*%
X62997200Y-87498080D03*
%TO.P,J3,2*%
%TO.N,GND*%
X62999740Y-80000000D03*
%TO.P,J3,3*%
%TO.N,unconnected-(J3-Pad3)*%
X62997200Y-72501920D03*
%TO.P,J3,4*%
%TO.N,Net-(J3-Pad4)*%
X65499100Y-84996180D03*
%TO.P,J3,5*%
%TO.N,Net-(J3-Pad5)*%
X65499100Y-75003820D03*
%TD*%
D19*
%TO.P,J1,*%
%TO.N,*%
X53847900Y-104975660D03*
X53847900Y-94973140D03*
D17*
%TO.P,J1,1*%
%TO.N,unconnected-(J1-Pad1)*%
X63042800Y-107472480D03*
%TO.P,J1,2*%
%TO.N,GND*%
X63045340Y-99974400D03*
%TO.P,J1,3*%
%TO.N,unconnected-(J1-Pad3)*%
X63042800Y-92476320D03*
%TO.P,J1,4*%
%TO.N,Net-(J1-Pad4)*%
X65544700Y-104970580D03*
%TO.P,J1,5*%
%TO.N,Net-(J1-Pad5)*%
X65544700Y-94978220D03*
%TD*%
D19*
%TO.P,J6,*%
%TO.N,*%
X146197700Y-114998740D03*
X146197700Y-125001260D03*
D17*
%TO.P,J6,1*%
%TO.N,unconnected-(J6-Pad1)*%
X137002800Y-112501920D03*
%TO.P,J6,2*%
%TO.N,GND*%
X137000260Y-120000000D03*
%TO.P,J6,3*%
%TO.N,unconnected-(J6-Pad3)*%
X137002800Y-127498080D03*
%TO.P,J6,4*%
%TO.N,Net-(J6-Pad4)*%
X134500900Y-115003820D03*
%TO.P,J6,5*%
%TO.N,Net-(J6-Pad5)*%
X134500900Y-124996180D03*
%TD*%
D20*
%TO.N,Net-(J2-Pad5)*%
X73876180Y-55003820D02*
X75000000Y-53880000D01*
X65499100Y-55003820D02*
X73876180Y-55003820D01*
%TO.N,Net-(R2-Pad1)*%
X76638400Y-61500000D02*
X79273400Y-64135000D01*
X75000000Y-61500000D02*
X76638400Y-61500000D01*
X79273400Y-113207800D02*
X79273400Y-64135000D01*
%TO.N,Net-(J2-Pad4)*%
X65499100Y-64996180D02*
X74383820Y-64996180D01*
X74383820Y-64996180D02*
X75000000Y-64380000D01*
D21*
%TO.N,+5V*%
X72850000Y-69850000D02*
X75000000Y-72000000D01*
X61391800Y-69850000D02*
X72850000Y-69850000D01*
X59486800Y-71755000D02*
X61391800Y-69850000D01*
X59486800Y-89357200D02*
X59486800Y-71755000D01*
D20*
%TO.N,Net-(J3-Pad4)*%
X74616180Y-84996180D02*
X75000000Y-85380000D01*
X65499100Y-84996180D02*
X74616180Y-84996180D01*
D21*
%TO.N,+5V*%
X71401271Y-89401271D02*
X75000000Y-93000000D01*
X59530871Y-89401271D02*
X71401271Y-89401271D01*
X59486800Y-89357200D02*
X59530871Y-89401271D01*
D20*
%TO.N,Net-(J1-Pad5)*%
X74098220Y-94978220D02*
X75000000Y-95880000D01*
X65544700Y-94978220D02*
X74098220Y-94978220D01*
%TO.N,Net-(R1-Pad1)*%
X83628940Y-115925600D02*
X87113740Y-112440800D01*
X87113740Y-112440800D02*
X89011600Y-112440800D01*
X77089000Y-114731800D02*
X78282800Y-115925600D01*
X78282800Y-115925600D02*
X83628940Y-115925600D01*
X77089000Y-105589000D02*
X77089000Y-114731800D01*
X75000000Y-103500000D02*
X77089000Y-105589000D01*
D21*
%TO.N,+5V*%
X70862000Y-102362000D02*
X75000000Y-106500000D01*
X59486800Y-102362000D02*
X70862000Y-102362000D01*
D20*
%TO.N,Net-(J1-Pad4)*%
X75000000Y-112084000D02*
X75000000Y-114120000D01*
X67886580Y-104970580D02*
X75000000Y-112084000D01*
X65544700Y-104970580D02*
X67886580Y-104970580D01*
%TO.N,Net-(J5-Pad5)*%
X72623820Y-115003820D02*
X65499100Y-115003820D01*
X75000000Y-117380000D02*
X72623820Y-115003820D01*
%TO.N,Net-(R5-Pad1)*%
X77218090Y-125000000D02*
X78147445Y-124070645D01*
X86614000Y-115604090D02*
X78147445Y-124070645D01*
X75000000Y-125000000D02*
X77218090Y-125000000D01*
X97298710Y-115604090D02*
X86614000Y-115604090D01*
X101307900Y-111594900D02*
X97298710Y-115604090D01*
X101307900Y-108089700D02*
X101307900Y-111594900D01*
X103515000Y-107360800D02*
X102036800Y-107360800D01*
X102036800Y-107360800D02*
X101307900Y-108089700D01*
%TO.N,Net-(R4-Pad1)*%
X99872800Y-104292400D02*
X101884400Y-102280800D01*
X99872800Y-111010140D02*
X99872800Y-104292400D01*
X96132370Y-114750570D02*
X99872800Y-111010140D01*
X101884400Y-102280800D02*
X103515000Y-102280800D01*
X83337400Y-117576600D02*
X86163430Y-114750570D01*
X86163430Y-114750570D02*
X96132370Y-114750570D01*
X79654400Y-117576600D02*
X83337400Y-117576600D01*
%TO.N,Net-(R6-Pad1)*%
X102595600Y-112440800D02*
X99923600Y-115112800D01*
X99923600Y-127838200D02*
X101854000Y-129768600D01*
X101854000Y-129768600D02*
X123631400Y-129768600D01*
X103515000Y-112440800D02*
X102595600Y-112440800D01*
X99923600Y-115112800D02*
X99923600Y-127838200D01*
X123631400Y-129768600D02*
X125000000Y-128400000D01*
D21*
%TO.N,+5V*%
X100954600Y-94462600D02*
X103515000Y-97023000D01*
X95213800Y-94462600D02*
X100954600Y-94462600D01*
X92481400Y-97195000D02*
X95213800Y-94462600D01*
D20*
%TO.N,Net-(U2-Pad13)*%
X95895000Y-99740800D02*
X103515000Y-99740800D01*
%TO.N,Net-(R2-Pad1)*%
X80213200Y-114147600D02*
X79273400Y-113207800D01*
X85928200Y-105364200D02*
X85928200Y-111212220D01*
X85928200Y-111212220D02*
X82992820Y-114147600D01*
X89011600Y-102280800D02*
X85928200Y-105364200D01*
X82992820Y-114147600D02*
X80213200Y-114147600D01*
%TO.N,Net-(J5-Pad4)*%
X71616180Y-124996180D02*
X75000000Y-128380000D01*
X65499100Y-124996180D02*
X71616180Y-124996180D01*
D21*
%TO.N,+5V*%
X75000000Y-131591200D02*
X75000000Y-136000000D01*
X74879200Y-131470400D02*
X75000000Y-131591200D01*
X129959100Y-125336300D02*
X129622800Y-125000000D01*
X129622800Y-125000000D02*
X125000000Y-125000000D01*
X129959100Y-125336300D02*
X131114800Y-126492000D01*
D20*
%TO.N,Net-(J7-Pad5)*%
X125000000Y-114120000D02*
X134123820Y-104996180D01*
%TO.N,Net-(R13-Pad1)*%
X122003700Y-105758100D02*
X122745600Y-106500000D01*
X118526400Y-102280800D02*
X122003700Y-105758100D01*
X122745600Y-106500000D02*
X125000000Y-106500000D01*
D21*
%TO.N,+5V*%
X126188800Y-102311200D02*
X141147800Y-102311200D01*
X125000000Y-103500000D02*
X126188800Y-102311200D01*
X124825600Y-103500000D02*
X125000000Y-103500000D01*
X118526400Y-97200800D02*
X124825600Y-103500000D01*
D20*
%TO.N,Net-(J7-Pad4)*%
X133624720Y-95880000D02*
X134500900Y-95003820D01*
X125000000Y-95880000D02*
X133624720Y-95880000D01*
%TO.N,Net-(J8-Pad5)*%
X134117080Y-85380000D02*
X134500900Y-84996180D01*
X125000000Y-85380000D02*
X134117080Y-85380000D01*
D21*
%TO.N,+5V*%
X125000000Y-82500000D02*
X141123200Y-82500000D01*
X141147800Y-63525400D02*
X141147800Y-82524600D01*
D20*
%TO.N,Net-(J8-Pad4)*%
X125000000Y-74880000D02*
X134377080Y-74880000D01*
%TO.N,Net-(R15-Pad1)*%
X116382800Y-110297200D02*
X116382800Y-79324200D01*
X118526400Y-112440800D02*
X116382800Y-110297200D01*
X116382800Y-79324200D02*
X123707000Y-72000000D01*
X123707000Y-72000000D02*
X125000000Y-72000000D01*
%TO.N,Net-(J9-Pad5)*%
X133884720Y-64380000D02*
X134500900Y-64996180D01*
X125000000Y-64380000D02*
X133884720Y-64380000D01*
D21*
%TO.N,+5V*%
X136702800Y-63525400D02*
X134677400Y-61500000D01*
X134677400Y-61500000D02*
X125000000Y-61500000D01*
X141147800Y-63525400D02*
X136702800Y-63525400D01*
D22*
%TO.N,/RX0*%
X121747200Y-46990000D02*
X125186200Y-43551000D01*
X115874800Y-46990000D02*
X121747200Y-46990000D01*
X114525311Y-45640511D02*
X115874800Y-46990000D01*
X106175289Y-45640511D02*
X114525311Y-45640511D01*
X103839000Y-47976800D02*
X106175289Y-45640511D01*
X96774000Y-47976800D02*
X103839000Y-47976800D01*
X93207200Y-44410000D02*
X96774000Y-47976800D01*
X91110000Y-44410000D02*
X93207200Y-44410000D01*
X128534000Y-43551000D02*
X128625600Y-43459400D01*
X125186200Y-43551000D02*
X128534000Y-43551000D01*
D21*
%TO.N,+3V3*%
X116713000Y-49998000D02*
X114681000Y-52030000D01*
X114681000Y-52030000D02*
X108890000Y-52030000D01*
D20*
%TO.N,Net-(D1-Pad1)*%
X120106200Y-52232800D02*
X120106200Y-51171000D01*
X113021991Y-59317009D02*
X120106200Y-52232800D01*
X113021991Y-116958991D02*
X113021991Y-59317009D01*
X113131600Y-117068600D02*
X113021991Y-116958991D01*
X112522000Y-117678200D02*
X113131600Y-117068600D01*
%TO.N,Net-(D1-Pad2)*%
X114731800Y-60172600D02*
X122646200Y-52258200D01*
X114731800Y-119507000D02*
X114731800Y-60172600D01*
X109737900Y-124500900D02*
X114731800Y-119507000D01*
X122646200Y-52258200D02*
X122646200Y-51171000D01*
X105003820Y-124500900D02*
X109737900Y-124500900D01*
%TO.N,Net-(J6-Pad4)*%
X132258320Y-117246400D02*
X134500900Y-115003820D01*
X125552200Y-117246400D02*
X132258320Y-117246400D01*
%TO.N,Net-(J9-Pad4)*%
X126022220Y-55003820D02*
X125272800Y-54254400D01*
X134500900Y-55003820D02*
X126022220Y-55003820D01*
D21*
%TO.N,+5V*%
X118668800Y-93711400D02*
X118668800Y-97058400D01*
D20*
%TO.N,/PIO_TX0*%
X81391600Y-95646400D02*
X81391600Y-97200800D01*
X82308700Y-94729300D02*
X81391600Y-95646400D01*
X82308700Y-68922900D02*
X82308700Y-94729300D01*
X91110000Y-62190000D02*
X89041600Y-62190000D01*
X89041600Y-62190000D02*
X82308700Y-68922900D01*
%TO.N,/PIO_TX4*%
X94711600Y-107183000D02*
X95895000Y-107183000D01*
X90805000Y-103276400D02*
X94711600Y-107183000D01*
X90805000Y-96545400D02*
X90805000Y-103276400D01*
X86715600Y-92456000D02*
X90805000Y-96545400D01*
X86715600Y-77217378D02*
X86715600Y-92456000D01*
X87579889Y-76353089D02*
X86715600Y-77217378D01*
X89042978Y-74890000D02*
X87579889Y-76353089D01*
%TO.N,/PIO_TX1*%
X83822500Y-69950478D02*
X89042978Y-64730000D01*
X83822500Y-99849900D02*
X83822500Y-69950478D01*
X89042978Y-64730000D02*
X91110000Y-64730000D01*
X81391600Y-102280800D02*
X83822500Y-99849900D01*
%TO.N,/PIO_TX2*%
X89042978Y-67270000D02*
X91110000Y-67270000D01*
X81422000Y-107391200D02*
X81813400Y-107391200D01*
X81813400Y-107391200D02*
X85242400Y-103962200D01*
X85242400Y-71070578D02*
X89042978Y-67270000D01*
X81391600Y-107360800D02*
X81422000Y-107391200D01*
X85242400Y-103962200D02*
X85242400Y-71070578D01*
%TO.N,/PIO_TX4*%
X91110000Y-74890000D02*
X89042978Y-74890000D01*
%TO.N,/PIO_TX6*%
X105629700Y-85051900D02*
X100547800Y-79970000D01*
X105676700Y-85051900D02*
X105629700Y-85051900D01*
X100547800Y-79970000D02*
X91110000Y-79970000D01*
X105676700Y-93566346D02*
X105676700Y-85051900D01*
X109016800Y-96906445D02*
X105676700Y-93566346D01*
X109016800Y-100391200D02*
X109016800Y-96906445D01*
X110906400Y-102280800D02*
X109016800Y-100391200D01*
%TO.N,/PIO_TX5*%
X107035600Y-93330000D02*
X110906400Y-97200800D01*
X107035600Y-83616800D02*
X107035600Y-93330000D01*
X100848800Y-77430000D02*
X107035600Y-83616800D01*
X91110000Y-77430000D02*
X100848800Y-77430000D01*
%TO.N,/PIO_TX7*%
X108224400Y-107360800D02*
X110906400Y-107360800D01*
X104343200Y-94742000D02*
X105283000Y-95681800D01*
X100518600Y-82510000D02*
X104343200Y-86334600D01*
X104343200Y-86334600D02*
X104343200Y-94742000D01*
X105283000Y-104419400D02*
X108224400Y-107360800D01*
X91110000Y-82510000D02*
X100518600Y-82510000D01*
X105283000Y-95681800D02*
X105283000Y-104419400D01*
%TO.N,Net-(U1-Pad10)*%
X79258080Y-115072080D02*
X79753940Y-115072080D01*
X78181200Y-113995200D02*
X79258080Y-115072080D01*
X78181200Y-113499340D02*
X78181200Y-113995200D01*
X78181200Y-83947000D02*
X78181200Y-113499340D01*
X76835000Y-82600800D02*
X78181200Y-83947000D01*
X75107800Y-82600800D02*
X76835000Y-82600800D01*
X83275400Y-115072080D02*
X79753940Y-115072080D01*
X87172800Y-111174680D02*
X83275400Y-115072080D01*
X87172800Y-107924600D02*
X87172800Y-111174680D01*
X89011600Y-107360800D02*
X87736600Y-107360800D01*
X87736600Y-107360800D02*
X87172800Y-107924600D01*
%TO.N,Net-(J4-Pad5)*%
X87274400Y-122230320D02*
X87010460Y-122494260D01*
X87274400Y-117576600D02*
X87274400Y-122230320D01*
X87010460Y-122494260D02*
X87376000Y-122128720D01*
X85003820Y-124500900D02*
X87010460Y-122494260D01*
%TO.N,+5V*%
X92456000Y-131165600D02*
X92151200Y-131470400D01*
D21*
X92456000Y-119710200D02*
X92456000Y-131165600D01*
X92151200Y-131470400D02*
X74879200Y-131470400D01*
X92862400Y-131470400D02*
X92151200Y-131470400D01*
X90347800Y-117602000D02*
X92456000Y-119710200D01*
D20*
%TO.N,Net-(J4-Pad4)*%
X94912180Y-124447300D02*
X97967800Y-121391680D01*
X97967800Y-121391680D02*
X97967800Y-117602000D01*
%TO.N,Net-(J3-Pad5)*%
X65499100Y-75003820D02*
X75084780Y-75003820D01*
X75084780Y-75003820D02*
X75107800Y-74980800D01*
D21*
%TO.N,+5V*%
X59486800Y-102362000D02*
X59486800Y-89357200D01*
D20*
%TO.N,Net-(D1-Pad2)*%
X101803200Y-121300280D02*
X105003820Y-124500900D01*
X101803200Y-117678200D02*
X101803200Y-121300280D01*
%TO.N,Net-(J10-Pad4)*%
X120142000Y-119355080D02*
X114996180Y-124500900D01*
X120142000Y-117678200D02*
X120142000Y-119355080D01*
%TO.N,Net-(D1-Pad1)*%
X109423200Y-117678200D02*
X112522000Y-117678200D01*
D21*
%TO.N,+5V*%
X141147800Y-50342800D02*
X141147800Y-63525400D01*
X141147800Y-83007200D02*
X141147800Y-102311200D01*
X141147800Y-102311200D02*
X141147800Y-128041400D01*
X131114800Y-126492000D02*
X131114800Y-131470400D01*
X137718800Y-131470400D02*
X131114800Y-131470400D01*
X131114800Y-131470400D02*
X92862400Y-131470400D01*
X74879200Y-131470400D02*
X63042800Y-131470400D01*
X59486800Y-127914400D02*
X59486800Y-102362000D01*
X63042800Y-131470400D02*
X59486800Y-127914400D01*
X141147800Y-128041400D02*
X137718800Y-131470400D01*
X132675000Y-41870000D02*
X141147800Y-50342800D01*
X108890000Y-41870000D02*
X132675000Y-41870000D01*
%TD*%
M02*
