%TF.GenerationSoftware,KiCad,Pcbnew,8.0.7*%
%TF.CreationDate,2025-05-28T21:32:16+01:00*%
%TF.ProjectId,ArduinoAtari,41726475-696e-46f4-9174-6172692e6b69,rev?*%
%TF.SameCoordinates,Original*%
%TF.FileFunction,Legend,Top*%
%TF.FilePolarity,Positive*%
%FSLAX46Y46*%
G04 Gerber Fmt 4.6, Leading zero omitted, Abs format (unit mm)*
G04 Created by KiCad (PCBNEW 8.0.7) date 2025-05-28 21:32:16*
%MOMM*%
%LPD*%
G01*
G04 APERTURE LIST*
%ADD10C,0.150000*%
%ADD11C,0.120000*%
G04 APERTURE END LIST*
D10*
X126622493Y-66820015D02*
X126622493Y-67534300D01*
X126622493Y-67534300D02*
X126574874Y-67677157D01*
X126574874Y-67677157D02*
X126479636Y-67772396D01*
X126479636Y-67772396D02*
X126336779Y-67820015D01*
X126336779Y-67820015D02*
X126241541Y-67820015D01*
X127289160Y-66820015D02*
X127479636Y-66820015D01*
X127479636Y-66820015D02*
X127574874Y-66867634D01*
X127574874Y-66867634D02*
X127670112Y-66962872D01*
X127670112Y-66962872D02*
X127717731Y-67153348D01*
X127717731Y-67153348D02*
X127717731Y-67486681D01*
X127717731Y-67486681D02*
X127670112Y-67677157D01*
X127670112Y-67677157D02*
X127574874Y-67772396D01*
X127574874Y-67772396D02*
X127479636Y-67820015D01*
X127479636Y-67820015D02*
X127289160Y-67820015D01*
X127289160Y-67820015D02*
X127193922Y-67772396D01*
X127193922Y-67772396D02*
X127098684Y-67677157D01*
X127098684Y-67677157D02*
X127051065Y-67486681D01*
X127051065Y-67486681D02*
X127051065Y-67153348D01*
X127051065Y-67153348D02*
X127098684Y-66962872D01*
X127098684Y-66962872D02*
X127193922Y-66867634D01*
X127193922Y-66867634D02*
X127289160Y-66820015D01*
X128336779Y-67343824D02*
X128336779Y-67820015D01*
X128003446Y-66820015D02*
X128336779Y-67343824D01*
X128336779Y-67343824D02*
X128670112Y-66820015D01*
X128955827Y-67772396D02*
X129098684Y-67820015D01*
X129098684Y-67820015D02*
X129336779Y-67820015D01*
X129336779Y-67820015D02*
X129432017Y-67772396D01*
X129432017Y-67772396D02*
X129479636Y-67724776D01*
X129479636Y-67724776D02*
X129527255Y-67629538D01*
X129527255Y-67629538D02*
X129527255Y-67534300D01*
X129527255Y-67534300D02*
X129479636Y-67439062D01*
X129479636Y-67439062D02*
X129432017Y-67391443D01*
X129432017Y-67391443D02*
X129336779Y-67343824D01*
X129336779Y-67343824D02*
X129146303Y-67296205D01*
X129146303Y-67296205D02*
X129051065Y-67248586D01*
X129051065Y-67248586D02*
X129003446Y-67200967D01*
X129003446Y-67200967D02*
X128955827Y-67105729D01*
X128955827Y-67105729D02*
X128955827Y-67010491D01*
X128955827Y-67010491D02*
X129003446Y-66915253D01*
X129003446Y-66915253D02*
X129051065Y-66867634D01*
X129051065Y-66867634D02*
X129146303Y-66820015D01*
X129146303Y-66820015D02*
X129384398Y-66820015D01*
X129384398Y-66820015D02*
X129527255Y-66867634D01*
X129812970Y-66820015D02*
X130384398Y-66820015D01*
X130098684Y-67820015D02*
X130098684Y-66820015D01*
X130717732Y-67820015D02*
X130717732Y-66820015D01*
X131765350Y-67724776D02*
X131717731Y-67772396D01*
X131717731Y-67772396D02*
X131574874Y-67820015D01*
X131574874Y-67820015D02*
X131479636Y-67820015D01*
X131479636Y-67820015D02*
X131336779Y-67772396D01*
X131336779Y-67772396D02*
X131241541Y-67677157D01*
X131241541Y-67677157D02*
X131193922Y-67581919D01*
X131193922Y-67581919D02*
X131146303Y-67391443D01*
X131146303Y-67391443D02*
X131146303Y-67248586D01*
X131146303Y-67248586D02*
X131193922Y-67058110D01*
X131193922Y-67058110D02*
X131241541Y-66962872D01*
X131241541Y-66962872D02*
X131336779Y-66867634D01*
X131336779Y-66867634D02*
X131479636Y-66820015D01*
X131479636Y-66820015D02*
X131574874Y-66820015D01*
X131574874Y-66820015D02*
X131717731Y-66867634D01*
X131717731Y-66867634D02*
X131765350Y-66915253D01*
X132193922Y-67820015D02*
X132193922Y-66820015D01*
X132765350Y-67820015D02*
X132336779Y-67248586D01*
X132765350Y-66820015D02*
X132193922Y-67391443D01*
X134479636Y-67820015D02*
X133908208Y-67820015D01*
X134193922Y-67820015D02*
X134193922Y-66820015D01*
X134193922Y-66820015D02*
X134098684Y-66962872D01*
X134098684Y-66962872D02*
X134003446Y-67058110D01*
X134003446Y-67058110D02*
X133908208Y-67105729D01*
X126336779Y-68429959D02*
X126336779Y-69239482D01*
X126336779Y-69239482D02*
X126384398Y-69334720D01*
X126384398Y-69334720D02*
X126432017Y-69382340D01*
X126432017Y-69382340D02*
X126527255Y-69429959D01*
X126527255Y-69429959D02*
X126717731Y-69429959D01*
X126717731Y-69429959D02*
X126812969Y-69382340D01*
X126812969Y-69382340D02*
X126860588Y-69334720D01*
X126860588Y-69334720D02*
X126908207Y-69239482D01*
X126908207Y-69239482D02*
X126908207Y-68429959D01*
X128146303Y-69429959D02*
X128146303Y-68429959D01*
X128146303Y-68429959D02*
X128384398Y-68429959D01*
X128384398Y-68429959D02*
X128527255Y-68477578D01*
X128527255Y-68477578D02*
X128622493Y-68572816D01*
X128622493Y-68572816D02*
X128670112Y-68668054D01*
X128670112Y-68668054D02*
X128717731Y-68858530D01*
X128717731Y-68858530D02*
X128717731Y-69001387D01*
X128717731Y-69001387D02*
X128670112Y-69191863D01*
X128670112Y-69191863D02*
X128622493Y-69287101D01*
X128622493Y-69287101D02*
X128527255Y-69382340D01*
X128527255Y-69382340D02*
X128384398Y-69429959D01*
X128384398Y-69429959D02*
X128146303Y-69429959D01*
X129670112Y-69429959D02*
X129098684Y-69429959D01*
X129384398Y-69429959D02*
X129384398Y-68429959D01*
X129384398Y-68429959D02*
X129289160Y-68572816D01*
X129289160Y-68572816D02*
X129193922Y-68668054D01*
X129193922Y-68668054D02*
X129098684Y-68715673D01*
X130622493Y-69429959D02*
X130051065Y-69429959D01*
X130336779Y-69429959D02*
X130336779Y-68429959D01*
X130336779Y-68429959D02*
X130241541Y-68572816D01*
X130241541Y-68572816D02*
X130146303Y-68668054D01*
X130146303Y-68668054D02*
X130051065Y-68715673D01*
X126336779Y-71039903D02*
X126336779Y-70039903D01*
X126336779Y-70039903D02*
X126574874Y-70039903D01*
X126574874Y-70039903D02*
X126717731Y-70087522D01*
X126717731Y-70087522D02*
X126812969Y-70182760D01*
X126812969Y-70182760D02*
X126860588Y-70277998D01*
X126860588Y-70277998D02*
X126908207Y-70468474D01*
X126908207Y-70468474D02*
X126908207Y-70611331D01*
X126908207Y-70611331D02*
X126860588Y-70801807D01*
X126860588Y-70801807D02*
X126812969Y-70897045D01*
X126812969Y-70897045D02*
X126717731Y-70992284D01*
X126717731Y-70992284D02*
X126574874Y-71039903D01*
X126574874Y-71039903D02*
X126336779Y-71039903D01*
X128098684Y-71039903D02*
X128098684Y-70039903D01*
X128098684Y-70039903D02*
X128336779Y-70039903D01*
X128336779Y-70039903D02*
X128479636Y-70087522D01*
X128479636Y-70087522D02*
X128574874Y-70182760D01*
X128574874Y-70182760D02*
X128622493Y-70277998D01*
X128622493Y-70277998D02*
X128670112Y-70468474D01*
X128670112Y-70468474D02*
X128670112Y-70611331D01*
X128670112Y-70611331D02*
X128622493Y-70801807D01*
X128622493Y-70801807D02*
X128574874Y-70897045D01*
X128574874Y-70897045D02*
X128479636Y-70992284D01*
X128479636Y-70992284D02*
X128336779Y-71039903D01*
X128336779Y-71039903D02*
X128098684Y-71039903D01*
X129622493Y-71039903D02*
X129051065Y-71039903D01*
X129336779Y-71039903D02*
X129336779Y-70039903D01*
X129336779Y-70039903D02*
X129241541Y-70182760D01*
X129241541Y-70182760D02*
X129146303Y-70277998D01*
X129146303Y-70277998D02*
X129051065Y-70325617D01*
X130241541Y-70039903D02*
X130336779Y-70039903D01*
X130336779Y-70039903D02*
X130432017Y-70087522D01*
X130432017Y-70087522D02*
X130479636Y-70135141D01*
X130479636Y-70135141D02*
X130527255Y-70230379D01*
X130527255Y-70230379D02*
X130574874Y-70420855D01*
X130574874Y-70420855D02*
X130574874Y-70658950D01*
X130574874Y-70658950D02*
X130527255Y-70849426D01*
X130527255Y-70849426D02*
X130479636Y-70944664D01*
X130479636Y-70944664D02*
X130432017Y-70992284D01*
X130432017Y-70992284D02*
X130336779Y-71039903D01*
X130336779Y-71039903D02*
X130241541Y-71039903D01*
X130241541Y-71039903D02*
X130146303Y-70992284D01*
X130146303Y-70992284D02*
X130098684Y-70944664D01*
X130098684Y-70944664D02*
X130051065Y-70849426D01*
X130051065Y-70849426D02*
X130003446Y-70658950D01*
X130003446Y-70658950D02*
X130003446Y-70420855D01*
X130003446Y-70420855D02*
X130051065Y-70230379D01*
X130051065Y-70230379D02*
X130098684Y-70135141D01*
X130098684Y-70135141D02*
X130146303Y-70087522D01*
X130146303Y-70087522D02*
X130241541Y-70039903D01*
X126812969Y-72649847D02*
X126336779Y-72649847D01*
X126336779Y-72649847D02*
X126336779Y-71649847D01*
X127908208Y-72649847D02*
X127908208Y-71649847D01*
X127908208Y-71649847D02*
X128146303Y-71649847D01*
X128146303Y-71649847D02*
X128289160Y-71697466D01*
X128289160Y-71697466D02*
X128384398Y-71792704D01*
X128384398Y-71792704D02*
X128432017Y-71887942D01*
X128432017Y-71887942D02*
X128479636Y-72078418D01*
X128479636Y-72078418D02*
X128479636Y-72221275D01*
X128479636Y-72221275D02*
X128432017Y-72411751D01*
X128432017Y-72411751D02*
X128384398Y-72506989D01*
X128384398Y-72506989D02*
X128289160Y-72602228D01*
X128289160Y-72602228D02*
X128146303Y-72649847D01*
X128146303Y-72649847D02*
X127908208Y-72649847D01*
X128955827Y-72649847D02*
X129146303Y-72649847D01*
X129146303Y-72649847D02*
X129241541Y-72602228D01*
X129241541Y-72602228D02*
X129289160Y-72554608D01*
X129289160Y-72554608D02*
X129384398Y-72411751D01*
X129384398Y-72411751D02*
X129432017Y-72221275D01*
X129432017Y-72221275D02*
X129432017Y-71840323D01*
X129432017Y-71840323D02*
X129384398Y-71745085D01*
X129384398Y-71745085D02*
X129336779Y-71697466D01*
X129336779Y-71697466D02*
X129241541Y-71649847D01*
X129241541Y-71649847D02*
X129051065Y-71649847D01*
X129051065Y-71649847D02*
X128955827Y-71697466D01*
X128955827Y-71697466D02*
X128908208Y-71745085D01*
X128908208Y-71745085D02*
X128860589Y-71840323D01*
X128860589Y-71840323D02*
X128860589Y-72078418D01*
X128860589Y-72078418D02*
X128908208Y-72173656D01*
X128908208Y-72173656D02*
X128955827Y-72221275D01*
X128955827Y-72221275D02*
X129051065Y-72268894D01*
X129051065Y-72268894D02*
X129241541Y-72268894D01*
X129241541Y-72268894D02*
X129336779Y-72221275D01*
X129336779Y-72221275D02*
X129384398Y-72173656D01*
X129384398Y-72173656D02*
X129432017Y-72078418D01*
X126908207Y-74259791D02*
X126574874Y-73783600D01*
X126336779Y-74259791D02*
X126336779Y-73259791D01*
X126336779Y-73259791D02*
X126717731Y-73259791D01*
X126717731Y-73259791D02*
X126812969Y-73307410D01*
X126812969Y-73307410D02*
X126860588Y-73355029D01*
X126860588Y-73355029D02*
X126908207Y-73450267D01*
X126908207Y-73450267D02*
X126908207Y-73593124D01*
X126908207Y-73593124D02*
X126860588Y-73688362D01*
X126860588Y-73688362D02*
X126812969Y-73735981D01*
X126812969Y-73735981D02*
X126717731Y-73783600D01*
X126717731Y-73783600D02*
X126336779Y-73783600D01*
X128098684Y-74259791D02*
X128098684Y-73259791D01*
X128098684Y-73259791D02*
X128336779Y-73259791D01*
X128336779Y-73259791D02*
X128479636Y-73307410D01*
X128479636Y-73307410D02*
X128574874Y-73402648D01*
X128574874Y-73402648D02*
X128622493Y-73497886D01*
X128622493Y-73497886D02*
X128670112Y-73688362D01*
X128670112Y-73688362D02*
X128670112Y-73831219D01*
X128670112Y-73831219D02*
X128622493Y-74021695D01*
X128622493Y-74021695D02*
X128574874Y-74116933D01*
X128574874Y-74116933D02*
X128479636Y-74212172D01*
X128479636Y-74212172D02*
X128336779Y-74259791D01*
X128336779Y-74259791D02*
X128098684Y-74259791D01*
X129241541Y-73688362D02*
X129146303Y-73640743D01*
X129146303Y-73640743D02*
X129098684Y-73593124D01*
X129098684Y-73593124D02*
X129051065Y-73497886D01*
X129051065Y-73497886D02*
X129051065Y-73450267D01*
X129051065Y-73450267D02*
X129098684Y-73355029D01*
X129098684Y-73355029D02*
X129146303Y-73307410D01*
X129146303Y-73307410D02*
X129241541Y-73259791D01*
X129241541Y-73259791D02*
X129432017Y-73259791D01*
X129432017Y-73259791D02*
X129527255Y-73307410D01*
X129527255Y-73307410D02*
X129574874Y-73355029D01*
X129574874Y-73355029D02*
X129622493Y-73450267D01*
X129622493Y-73450267D02*
X129622493Y-73497886D01*
X129622493Y-73497886D02*
X129574874Y-73593124D01*
X129574874Y-73593124D02*
X129527255Y-73640743D01*
X129527255Y-73640743D02*
X129432017Y-73688362D01*
X129432017Y-73688362D02*
X129241541Y-73688362D01*
X129241541Y-73688362D02*
X129146303Y-73735981D01*
X129146303Y-73735981D02*
X129098684Y-73783600D01*
X129098684Y-73783600D02*
X129051065Y-73878838D01*
X129051065Y-73878838D02*
X129051065Y-74069314D01*
X129051065Y-74069314D02*
X129098684Y-74164552D01*
X129098684Y-74164552D02*
X129146303Y-74212172D01*
X129146303Y-74212172D02*
X129241541Y-74259791D01*
X129241541Y-74259791D02*
X129432017Y-74259791D01*
X129432017Y-74259791D02*
X129527255Y-74212172D01*
X129527255Y-74212172D02*
X129574874Y-74164552D01*
X129574874Y-74164552D02*
X129622493Y-74069314D01*
X129622493Y-74069314D02*
X129622493Y-73878838D01*
X129622493Y-73878838D02*
X129574874Y-73783600D01*
X129574874Y-73783600D02*
X129527255Y-73735981D01*
X129527255Y-73735981D02*
X129432017Y-73688362D01*
X126193922Y-74869735D02*
X126765350Y-74869735D01*
X126479636Y-75869735D02*
X126479636Y-74869735D01*
X127860589Y-75869735D02*
X127860589Y-74869735D01*
X127860589Y-74869735D02*
X128098684Y-74869735D01*
X128098684Y-74869735D02*
X128241541Y-74917354D01*
X128241541Y-74917354D02*
X128336779Y-75012592D01*
X128336779Y-75012592D02*
X128384398Y-75107830D01*
X128384398Y-75107830D02*
X128432017Y-75298306D01*
X128432017Y-75298306D02*
X128432017Y-75441163D01*
X128432017Y-75441163D02*
X128384398Y-75631639D01*
X128384398Y-75631639D02*
X128336779Y-75726877D01*
X128336779Y-75726877D02*
X128241541Y-75822116D01*
X128241541Y-75822116D02*
X128098684Y-75869735D01*
X128098684Y-75869735D02*
X127860589Y-75869735D01*
X129384398Y-75869735D02*
X128812970Y-75869735D01*
X129098684Y-75869735D02*
X129098684Y-74869735D01*
X129098684Y-74869735D02*
X129003446Y-75012592D01*
X129003446Y-75012592D02*
X128908208Y-75107830D01*
X128908208Y-75107830D02*
X128812970Y-75155449D01*
X129765351Y-74964973D02*
X129812970Y-74917354D01*
X129812970Y-74917354D02*
X129908208Y-74869735D01*
X129908208Y-74869735D02*
X130146303Y-74869735D01*
X130146303Y-74869735D02*
X130241541Y-74917354D01*
X130241541Y-74917354D02*
X130289160Y-74964973D01*
X130289160Y-74964973D02*
X130336779Y-75060211D01*
X130336779Y-75060211D02*
X130336779Y-75155449D01*
X130336779Y-75155449D02*
X130289160Y-75298306D01*
X130289160Y-75298306D02*
X129717732Y-75869735D01*
X129717732Y-75869735D02*
X130336779Y-75869735D01*
X126289160Y-77193964D02*
X126765350Y-77193964D01*
X126193922Y-77479679D02*
X126527255Y-76479679D01*
X126527255Y-76479679D02*
X126860588Y-77479679D01*
X127908208Y-77193964D02*
X128384398Y-77193964D01*
X127812970Y-77479679D02*
X128146303Y-76479679D01*
X128146303Y-76479679D02*
X128479636Y-77479679D01*
X129003446Y-76479679D02*
X129098684Y-76479679D01*
X129098684Y-76479679D02*
X129193922Y-76527298D01*
X129193922Y-76527298D02*
X129241541Y-76574917D01*
X129241541Y-76574917D02*
X129289160Y-76670155D01*
X129289160Y-76670155D02*
X129336779Y-76860631D01*
X129336779Y-76860631D02*
X129336779Y-77098726D01*
X129336779Y-77098726D02*
X129289160Y-77289202D01*
X129289160Y-77289202D02*
X129241541Y-77384440D01*
X129241541Y-77384440D02*
X129193922Y-77432060D01*
X129193922Y-77432060D02*
X129098684Y-77479679D01*
X129098684Y-77479679D02*
X129003446Y-77479679D01*
X129003446Y-77479679D02*
X128908208Y-77432060D01*
X128908208Y-77432060D02*
X128860589Y-77384440D01*
X128860589Y-77384440D02*
X128812970Y-77289202D01*
X128812970Y-77289202D02*
X128765351Y-77098726D01*
X128765351Y-77098726D02*
X128765351Y-76860631D01*
X128765351Y-76860631D02*
X128812970Y-76670155D01*
X128812970Y-76670155D02*
X128860589Y-76574917D01*
X128860589Y-76574917D02*
X128908208Y-76527298D01*
X128908208Y-76527298D02*
X129003446Y-76479679D01*
X126670112Y-78565813D02*
X126812969Y-78613432D01*
X126812969Y-78613432D02*
X126860588Y-78661051D01*
X126860588Y-78661051D02*
X126908207Y-78756289D01*
X126908207Y-78756289D02*
X126908207Y-78899146D01*
X126908207Y-78899146D02*
X126860588Y-78994384D01*
X126860588Y-78994384D02*
X126812969Y-79042004D01*
X126812969Y-79042004D02*
X126717731Y-79089623D01*
X126717731Y-79089623D02*
X126336779Y-79089623D01*
X126336779Y-79089623D02*
X126336779Y-78089623D01*
X126336779Y-78089623D02*
X126670112Y-78089623D01*
X126670112Y-78089623D02*
X126765350Y-78137242D01*
X126765350Y-78137242D02*
X126812969Y-78184861D01*
X126812969Y-78184861D02*
X126860588Y-78280099D01*
X126860588Y-78280099D02*
X126860588Y-78375337D01*
X126860588Y-78375337D02*
X126812969Y-78470575D01*
X126812969Y-78470575D02*
X126765350Y-78518194D01*
X126765350Y-78518194D02*
X126670112Y-78565813D01*
X126670112Y-78565813D02*
X126336779Y-78565813D01*
X128051065Y-78803908D02*
X128527255Y-78803908D01*
X127955827Y-79089623D02*
X128289160Y-78089623D01*
X128289160Y-78089623D02*
X128622493Y-79089623D01*
X129479636Y-79089623D02*
X128908208Y-79089623D01*
X129193922Y-79089623D02*
X129193922Y-78089623D01*
X129193922Y-78089623D02*
X129098684Y-78232480D01*
X129098684Y-78232480D02*
X129003446Y-78327718D01*
X129003446Y-78327718D02*
X128908208Y-78375337D01*
X160269524Y-93259875D02*
X160269524Y-92259875D01*
X160269524Y-92259875D02*
X160507619Y-92259875D01*
X160507619Y-92259875D02*
X160650476Y-92307494D01*
X160650476Y-92307494D02*
X160745714Y-92402732D01*
X160745714Y-92402732D02*
X160793333Y-92497970D01*
X160793333Y-92497970D02*
X160840952Y-92688446D01*
X160840952Y-92688446D02*
X160840952Y-92831303D01*
X160840952Y-92831303D02*
X160793333Y-93021779D01*
X160793333Y-93021779D02*
X160745714Y-93117017D01*
X160745714Y-93117017D02*
X160650476Y-93212256D01*
X160650476Y-93212256D02*
X160507619Y-93259875D01*
X160507619Y-93259875D02*
X160269524Y-93259875D01*
X161221905Y-92974160D02*
X161698095Y-92974160D01*
X161126667Y-93259875D02*
X161460000Y-92259875D01*
X161460000Y-92259875D02*
X161793333Y-93259875D01*
X160245714Y-94584104D02*
X160721904Y-94584104D01*
X160150476Y-94869819D02*
X160483809Y-93869819D01*
X160483809Y-93869819D02*
X160817142Y-94869819D01*
X161626666Y-93869819D02*
X161150476Y-93869819D01*
X161150476Y-93869819D02*
X161102857Y-94346009D01*
X161102857Y-94346009D02*
X161150476Y-94298390D01*
X161150476Y-94298390D02*
X161245714Y-94250771D01*
X161245714Y-94250771D02*
X161483809Y-94250771D01*
X161483809Y-94250771D02*
X161579047Y-94298390D01*
X161579047Y-94298390D02*
X161626666Y-94346009D01*
X161626666Y-94346009D02*
X161674285Y-94441247D01*
X161674285Y-94441247D02*
X161674285Y-94679342D01*
X161674285Y-94679342D02*
X161626666Y-94774580D01*
X161626666Y-94774580D02*
X161579047Y-94822200D01*
X161579047Y-94822200D02*
X161483809Y-94869819D01*
X161483809Y-94869819D02*
X161245714Y-94869819D01*
X161245714Y-94869819D02*
X161150476Y-94822200D01*
X161150476Y-94822200D02*
X161102857Y-94774580D01*
X134321905Y-93869819D02*
X134940952Y-93869819D01*
X134940952Y-93869819D02*
X134607619Y-94250771D01*
X134607619Y-94250771D02*
X134750476Y-94250771D01*
X134750476Y-94250771D02*
X134845714Y-94298390D01*
X134845714Y-94298390D02*
X134893333Y-94346009D01*
X134893333Y-94346009D02*
X134940952Y-94441247D01*
X134940952Y-94441247D02*
X134940952Y-94679342D01*
X134940952Y-94679342D02*
X134893333Y-94774580D01*
X134893333Y-94774580D02*
X134845714Y-94822200D01*
X134845714Y-94822200D02*
X134750476Y-94869819D01*
X134750476Y-94869819D02*
X134464762Y-94869819D01*
X134464762Y-94869819D02*
X134369524Y-94822200D01*
X134369524Y-94822200D02*
X134321905Y-94774580D01*
X135226667Y-93869819D02*
X135560000Y-94869819D01*
X135560000Y-94869819D02*
X135893333Y-93869819D01*
X136131429Y-93869819D02*
X136750476Y-93869819D01*
X136750476Y-93869819D02*
X136417143Y-94250771D01*
X136417143Y-94250771D02*
X136560000Y-94250771D01*
X136560000Y-94250771D02*
X136655238Y-94298390D01*
X136655238Y-94298390D02*
X136702857Y-94346009D01*
X136702857Y-94346009D02*
X136750476Y-94441247D01*
X136750476Y-94441247D02*
X136750476Y-94679342D01*
X136750476Y-94679342D02*
X136702857Y-94774580D01*
X136702857Y-94774580D02*
X136655238Y-94822200D01*
X136655238Y-94822200D02*
X136560000Y-94869819D01*
X136560000Y-94869819D02*
X136274286Y-94869819D01*
X136274286Y-94869819D02*
X136179048Y-94822200D01*
X136179048Y-94822200D02*
X136131429Y-94774580D01*
X127741714Y-53039819D02*
X127741714Y-52039819D01*
X127741714Y-52039819D02*
X127979809Y-52039819D01*
X127979809Y-52039819D02*
X128122666Y-52087438D01*
X128122666Y-52087438D02*
X128217904Y-52182676D01*
X128217904Y-52182676D02*
X128265523Y-52277914D01*
X128265523Y-52277914D02*
X128313142Y-52468390D01*
X128313142Y-52468390D02*
X128313142Y-52611247D01*
X128313142Y-52611247D02*
X128265523Y-52801723D01*
X128265523Y-52801723D02*
X128217904Y-52896961D01*
X128217904Y-52896961D02*
X128122666Y-52992200D01*
X128122666Y-52992200D02*
X127979809Y-53039819D01*
X127979809Y-53039819D02*
X127741714Y-53039819D01*
X129265523Y-53039819D02*
X128694095Y-53039819D01*
X128979809Y-53039819D02*
X128979809Y-52039819D01*
X128979809Y-52039819D02*
X128884571Y-52182676D01*
X128884571Y-52182676D02*
X128789333Y-52277914D01*
X128789333Y-52277914D02*
X128694095Y-52325533D01*
X129598857Y-52039819D02*
X130217904Y-52039819D01*
X130217904Y-52039819D02*
X129884571Y-52420771D01*
X129884571Y-52420771D02*
X130027428Y-52420771D01*
X130027428Y-52420771D02*
X130122666Y-52468390D01*
X130122666Y-52468390D02*
X130170285Y-52516009D01*
X130170285Y-52516009D02*
X130217904Y-52611247D01*
X130217904Y-52611247D02*
X130217904Y-52849342D01*
X130217904Y-52849342D02*
X130170285Y-52944580D01*
X130170285Y-52944580D02*
X130122666Y-52992200D01*
X130122666Y-52992200D02*
X130027428Y-53039819D01*
X130027428Y-53039819D02*
X129741714Y-53039819D01*
X129741714Y-53039819D02*
X129646476Y-52992200D01*
X129646476Y-52992200D02*
X129598857Y-52944580D01*
X162761905Y-53039819D02*
X162761905Y-52039819D01*
X162761905Y-52039819D02*
X163000000Y-52039819D01*
X163000000Y-52039819D02*
X163142857Y-52087438D01*
X163142857Y-52087438D02*
X163238095Y-52182676D01*
X163238095Y-52182676D02*
X163285714Y-52277914D01*
X163285714Y-52277914D02*
X163333333Y-52468390D01*
X163333333Y-52468390D02*
X163333333Y-52611247D01*
X163333333Y-52611247D02*
X163285714Y-52801723D01*
X163285714Y-52801723D02*
X163238095Y-52896961D01*
X163238095Y-52896961D02*
X163142857Y-52992200D01*
X163142857Y-52992200D02*
X163000000Y-53039819D01*
X163000000Y-53039819D02*
X162761905Y-53039819D01*
X163952381Y-52039819D02*
X164047619Y-52039819D01*
X164047619Y-52039819D02*
X164142857Y-52087438D01*
X164142857Y-52087438D02*
X164190476Y-52135057D01*
X164190476Y-52135057D02*
X164238095Y-52230295D01*
X164238095Y-52230295D02*
X164285714Y-52420771D01*
X164285714Y-52420771D02*
X164285714Y-52658866D01*
X164285714Y-52658866D02*
X164238095Y-52849342D01*
X164238095Y-52849342D02*
X164190476Y-52944580D01*
X164190476Y-52944580D02*
X164142857Y-52992200D01*
X164142857Y-52992200D02*
X164047619Y-53039819D01*
X164047619Y-53039819D02*
X163952381Y-53039819D01*
X163952381Y-53039819D02*
X163857143Y-52992200D01*
X163857143Y-52992200D02*
X163809524Y-52944580D01*
X163809524Y-52944580D02*
X163761905Y-52849342D01*
X163761905Y-52849342D02*
X163714286Y-52658866D01*
X163714286Y-52658866D02*
X163714286Y-52420771D01*
X163714286Y-52420771D02*
X163761905Y-52230295D01*
X163761905Y-52230295D02*
X163809524Y-52135057D01*
X163809524Y-52135057D02*
X163857143Y-52087438D01*
X163857143Y-52087438D02*
X163952381Y-52039819D01*
X163333333Y-54649763D02*
X163000000Y-54173572D01*
X162761905Y-54649763D02*
X162761905Y-53649763D01*
X162761905Y-53649763D02*
X163142857Y-53649763D01*
X163142857Y-53649763D02*
X163238095Y-53697382D01*
X163238095Y-53697382D02*
X163285714Y-53745001D01*
X163285714Y-53745001D02*
X163333333Y-53840239D01*
X163333333Y-53840239D02*
X163333333Y-53983096D01*
X163333333Y-53983096D02*
X163285714Y-54078334D01*
X163285714Y-54078334D02*
X163238095Y-54125953D01*
X163238095Y-54125953D02*
X163142857Y-54173572D01*
X163142857Y-54173572D02*
X162761905Y-54173572D01*
X163666667Y-53649763D02*
X164333333Y-54649763D01*
X164333333Y-53649763D02*
X163666667Y-54649763D01*
X118388800Y-52289160D02*
X118341180Y-52432017D01*
X118341180Y-52432017D02*
X118341180Y-52670112D01*
X118341180Y-52670112D02*
X118388800Y-52765350D01*
X118388800Y-52765350D02*
X118436419Y-52812969D01*
X118436419Y-52812969D02*
X118531657Y-52860588D01*
X118531657Y-52860588D02*
X118626895Y-52860588D01*
X118626895Y-52860588D02*
X118722133Y-52812969D01*
X118722133Y-52812969D02*
X118769752Y-52765350D01*
X118769752Y-52765350D02*
X118817371Y-52670112D01*
X118817371Y-52670112D02*
X118864990Y-52479636D01*
X118864990Y-52479636D02*
X118912609Y-52384398D01*
X118912609Y-52384398D02*
X118960228Y-52336779D01*
X118960228Y-52336779D02*
X119055466Y-52289160D01*
X119055466Y-52289160D02*
X119150704Y-52289160D01*
X119150704Y-52289160D02*
X119245942Y-52336779D01*
X119245942Y-52336779D02*
X119293561Y-52384398D01*
X119293561Y-52384398D02*
X119341180Y-52479636D01*
X119341180Y-52479636D02*
X119341180Y-52717731D01*
X119341180Y-52717731D02*
X119293561Y-52860588D01*
X118436419Y-53860588D02*
X118388800Y-53812969D01*
X118388800Y-53812969D02*
X118341180Y-53670112D01*
X118341180Y-53670112D02*
X118341180Y-53574874D01*
X118341180Y-53574874D02*
X118388800Y-53432017D01*
X118388800Y-53432017D02*
X118484038Y-53336779D01*
X118484038Y-53336779D02*
X118579276Y-53289160D01*
X118579276Y-53289160D02*
X118769752Y-53241541D01*
X118769752Y-53241541D02*
X118912609Y-53241541D01*
X118912609Y-53241541D02*
X119103085Y-53289160D01*
X119103085Y-53289160D02*
X119198323Y-53336779D01*
X119198323Y-53336779D02*
X119293561Y-53432017D01*
X119293561Y-53432017D02*
X119341180Y-53574874D01*
X119341180Y-53574874D02*
X119341180Y-53670112D01*
X119341180Y-53670112D02*
X119293561Y-53812969D01*
X119293561Y-53812969D02*
X119245942Y-53860588D01*
X118341180Y-54765350D02*
X118341180Y-54289160D01*
X118341180Y-54289160D02*
X119341180Y-54289160D01*
X160221905Y-53039819D02*
X160221905Y-52039819D01*
X160221905Y-52039819D02*
X160460000Y-52039819D01*
X160460000Y-52039819D02*
X160602857Y-52087438D01*
X160602857Y-52087438D02*
X160698095Y-52182676D01*
X160698095Y-52182676D02*
X160745714Y-52277914D01*
X160745714Y-52277914D02*
X160793333Y-52468390D01*
X160793333Y-52468390D02*
X160793333Y-52611247D01*
X160793333Y-52611247D02*
X160745714Y-52801723D01*
X160745714Y-52801723D02*
X160698095Y-52896961D01*
X160698095Y-52896961D02*
X160602857Y-52992200D01*
X160602857Y-52992200D02*
X160460000Y-53039819D01*
X160460000Y-53039819D02*
X160221905Y-53039819D01*
X161745714Y-53039819D02*
X161174286Y-53039819D01*
X161460000Y-53039819D02*
X161460000Y-52039819D01*
X161460000Y-52039819D02*
X161364762Y-52182676D01*
X161364762Y-52182676D02*
X161269524Y-52277914D01*
X161269524Y-52277914D02*
X161174286Y-52325533D01*
X160198095Y-53649763D02*
X160769523Y-53649763D01*
X160483809Y-54649763D02*
X160483809Y-53649763D01*
X161007619Y-53649763D02*
X161674285Y-54649763D01*
X161674285Y-53649763D02*
X161007619Y-54649763D01*
X144981905Y-53039819D02*
X144981905Y-52039819D01*
X144981905Y-52039819D02*
X145220000Y-52039819D01*
X145220000Y-52039819D02*
X145362857Y-52087438D01*
X145362857Y-52087438D02*
X145458095Y-52182676D01*
X145458095Y-52182676D02*
X145505714Y-52277914D01*
X145505714Y-52277914D02*
X145553333Y-52468390D01*
X145553333Y-52468390D02*
X145553333Y-52611247D01*
X145553333Y-52611247D02*
X145505714Y-52801723D01*
X145505714Y-52801723D02*
X145458095Y-52896961D01*
X145458095Y-52896961D02*
X145362857Y-52992200D01*
X145362857Y-52992200D02*
X145220000Y-53039819D01*
X145220000Y-53039819D02*
X144981905Y-53039819D01*
X145886667Y-52039819D02*
X146553333Y-52039819D01*
X146553333Y-52039819D02*
X146124762Y-53039819D01*
X130890474Y-58609160D02*
X131366664Y-58609160D01*
X130795236Y-58894875D02*
X131128569Y-57894875D01*
X131128569Y-57894875D02*
X131461902Y-58894875D01*
X131652379Y-58228208D02*
X132033331Y-58228208D01*
X131795236Y-57894875D02*
X131795236Y-58752017D01*
X131795236Y-58752017D02*
X131842855Y-58847256D01*
X131842855Y-58847256D02*
X131938093Y-58894875D01*
X131938093Y-58894875D02*
X132033331Y-58894875D01*
X132795236Y-58894875D02*
X132795236Y-58371065D01*
X132795236Y-58371065D02*
X132747617Y-58275827D01*
X132747617Y-58275827D02*
X132652379Y-58228208D01*
X132652379Y-58228208D02*
X132461903Y-58228208D01*
X132461903Y-58228208D02*
X132366665Y-58275827D01*
X132795236Y-58847256D02*
X132699998Y-58894875D01*
X132699998Y-58894875D02*
X132461903Y-58894875D01*
X132461903Y-58894875D02*
X132366665Y-58847256D01*
X132366665Y-58847256D02*
X132319046Y-58752017D01*
X132319046Y-58752017D02*
X132319046Y-58656779D01*
X132319046Y-58656779D02*
X132366665Y-58561541D01*
X132366665Y-58561541D02*
X132461903Y-58513922D01*
X132461903Y-58513922D02*
X132699998Y-58513922D01*
X132699998Y-58513922D02*
X132795236Y-58466303D01*
X133271427Y-58894875D02*
X133271427Y-58228208D01*
X133271427Y-58418684D02*
X133319046Y-58323446D01*
X133319046Y-58323446D02*
X133366665Y-58275827D01*
X133366665Y-58275827D02*
X133461903Y-58228208D01*
X133461903Y-58228208D02*
X133557141Y-58228208D01*
X133890475Y-58894875D02*
X133890475Y-58228208D01*
X133890475Y-57894875D02*
X133842856Y-57942494D01*
X133842856Y-57942494D02*
X133890475Y-57990113D01*
X133890475Y-57990113D02*
X133938094Y-57942494D01*
X133938094Y-57942494D02*
X133890475Y-57894875D01*
X133890475Y-57894875D02*
X133890475Y-57990113D01*
X135699998Y-58799636D02*
X135652379Y-58847256D01*
X135652379Y-58847256D02*
X135509522Y-58894875D01*
X135509522Y-58894875D02*
X135414284Y-58894875D01*
X135414284Y-58894875D02*
X135271427Y-58847256D01*
X135271427Y-58847256D02*
X135176189Y-58752017D01*
X135176189Y-58752017D02*
X135128570Y-58656779D01*
X135128570Y-58656779D02*
X135080951Y-58466303D01*
X135080951Y-58466303D02*
X135080951Y-58323446D01*
X135080951Y-58323446D02*
X135128570Y-58132970D01*
X135128570Y-58132970D02*
X135176189Y-58037732D01*
X135176189Y-58037732D02*
X135271427Y-57942494D01*
X135271427Y-57942494D02*
X135414284Y-57894875D01*
X135414284Y-57894875D02*
X135509522Y-57894875D01*
X135509522Y-57894875D02*
X135652379Y-57942494D01*
X135652379Y-57942494D02*
X135699998Y-57990113D01*
X136271427Y-58894875D02*
X136176189Y-58847256D01*
X136176189Y-58847256D02*
X136128570Y-58799636D01*
X136128570Y-58799636D02*
X136080951Y-58704398D01*
X136080951Y-58704398D02*
X136080951Y-58418684D01*
X136080951Y-58418684D02*
X136128570Y-58323446D01*
X136128570Y-58323446D02*
X136176189Y-58275827D01*
X136176189Y-58275827D02*
X136271427Y-58228208D01*
X136271427Y-58228208D02*
X136414284Y-58228208D01*
X136414284Y-58228208D02*
X136509522Y-58275827D01*
X136509522Y-58275827D02*
X136557141Y-58323446D01*
X136557141Y-58323446D02*
X136604760Y-58418684D01*
X136604760Y-58418684D02*
X136604760Y-58704398D01*
X136604760Y-58704398D02*
X136557141Y-58799636D01*
X136557141Y-58799636D02*
X136509522Y-58847256D01*
X136509522Y-58847256D02*
X136414284Y-58894875D01*
X136414284Y-58894875D02*
X136271427Y-58894875D01*
X137033332Y-58228208D02*
X137033332Y-58894875D01*
X137033332Y-58323446D02*
X137080951Y-58275827D01*
X137080951Y-58275827D02*
X137176189Y-58228208D01*
X137176189Y-58228208D02*
X137319046Y-58228208D01*
X137319046Y-58228208D02*
X137414284Y-58275827D01*
X137414284Y-58275827D02*
X137461903Y-58371065D01*
X137461903Y-58371065D02*
X137461903Y-58894875D01*
X137795237Y-58228208D02*
X138176189Y-58228208D01*
X137938094Y-57894875D02*
X137938094Y-58752017D01*
X137938094Y-58752017D02*
X137985713Y-58847256D01*
X137985713Y-58847256D02*
X138080951Y-58894875D01*
X138080951Y-58894875D02*
X138176189Y-58894875D01*
X138509523Y-58894875D02*
X138509523Y-58228208D01*
X138509523Y-58418684D02*
X138557142Y-58323446D01*
X138557142Y-58323446D02*
X138604761Y-58275827D01*
X138604761Y-58275827D02*
X138699999Y-58228208D01*
X138699999Y-58228208D02*
X138795237Y-58228208D01*
X139271428Y-58894875D02*
X139176190Y-58847256D01*
X139176190Y-58847256D02*
X139128571Y-58799636D01*
X139128571Y-58799636D02*
X139080952Y-58704398D01*
X139080952Y-58704398D02*
X139080952Y-58418684D01*
X139080952Y-58418684D02*
X139128571Y-58323446D01*
X139128571Y-58323446D02*
X139176190Y-58275827D01*
X139176190Y-58275827D02*
X139271428Y-58228208D01*
X139271428Y-58228208D02*
X139414285Y-58228208D01*
X139414285Y-58228208D02*
X139509523Y-58275827D01*
X139509523Y-58275827D02*
X139557142Y-58323446D01*
X139557142Y-58323446D02*
X139604761Y-58418684D01*
X139604761Y-58418684D02*
X139604761Y-58704398D01*
X139604761Y-58704398D02*
X139557142Y-58799636D01*
X139557142Y-58799636D02*
X139509523Y-58847256D01*
X139509523Y-58847256D02*
X139414285Y-58894875D01*
X139414285Y-58894875D02*
X139271428Y-58894875D01*
X140176190Y-58894875D02*
X140080952Y-58847256D01*
X140080952Y-58847256D02*
X140033333Y-58752017D01*
X140033333Y-58752017D02*
X140033333Y-57894875D01*
X140700000Y-58894875D02*
X140604762Y-58847256D01*
X140604762Y-58847256D02*
X140557143Y-58752017D01*
X140557143Y-58752017D02*
X140557143Y-57894875D01*
X141461905Y-58847256D02*
X141366667Y-58894875D01*
X141366667Y-58894875D02*
X141176191Y-58894875D01*
X141176191Y-58894875D02*
X141080953Y-58847256D01*
X141080953Y-58847256D02*
X141033334Y-58752017D01*
X141033334Y-58752017D02*
X141033334Y-58371065D01*
X141033334Y-58371065D02*
X141080953Y-58275827D01*
X141080953Y-58275827D02*
X141176191Y-58228208D01*
X141176191Y-58228208D02*
X141366667Y-58228208D01*
X141366667Y-58228208D02*
X141461905Y-58275827D01*
X141461905Y-58275827D02*
X141509524Y-58371065D01*
X141509524Y-58371065D02*
X141509524Y-58466303D01*
X141509524Y-58466303D02*
X141033334Y-58561541D01*
X141938096Y-58894875D02*
X141938096Y-58228208D01*
X141938096Y-58418684D02*
X141985715Y-58323446D01*
X141985715Y-58323446D02*
X142033334Y-58275827D01*
X142033334Y-58275827D02*
X142128572Y-58228208D01*
X142128572Y-58228208D02*
X142223810Y-58228208D01*
X143271430Y-58847256D02*
X143414287Y-58894875D01*
X143414287Y-58894875D02*
X143652382Y-58894875D01*
X143652382Y-58894875D02*
X143747620Y-58847256D01*
X143747620Y-58847256D02*
X143795239Y-58799636D01*
X143795239Y-58799636D02*
X143842858Y-58704398D01*
X143842858Y-58704398D02*
X143842858Y-58609160D01*
X143842858Y-58609160D02*
X143795239Y-58513922D01*
X143795239Y-58513922D02*
X143747620Y-58466303D01*
X143747620Y-58466303D02*
X143652382Y-58418684D01*
X143652382Y-58418684D02*
X143461906Y-58371065D01*
X143461906Y-58371065D02*
X143366668Y-58323446D01*
X143366668Y-58323446D02*
X143319049Y-58275827D01*
X143319049Y-58275827D02*
X143271430Y-58180589D01*
X143271430Y-58180589D02*
X143271430Y-58085351D01*
X143271430Y-58085351D02*
X143319049Y-57990113D01*
X143319049Y-57990113D02*
X143366668Y-57942494D01*
X143366668Y-57942494D02*
X143461906Y-57894875D01*
X143461906Y-57894875D02*
X143700001Y-57894875D01*
X143700001Y-57894875D02*
X143842858Y-57942494D01*
X144271430Y-58894875D02*
X144271430Y-57894875D01*
X144700001Y-58894875D02*
X144700001Y-58371065D01*
X144700001Y-58371065D02*
X144652382Y-58275827D01*
X144652382Y-58275827D02*
X144557144Y-58228208D01*
X144557144Y-58228208D02*
X144414287Y-58228208D01*
X144414287Y-58228208D02*
X144319049Y-58275827D01*
X144319049Y-58275827D02*
X144271430Y-58323446D01*
X145176192Y-58894875D02*
X145176192Y-58228208D01*
X145176192Y-57894875D02*
X145128573Y-57942494D01*
X145128573Y-57942494D02*
X145176192Y-57990113D01*
X145176192Y-57990113D02*
X145223811Y-57942494D01*
X145223811Y-57942494D02*
X145176192Y-57894875D01*
X145176192Y-57894875D02*
X145176192Y-57990113D01*
X146033334Y-58847256D02*
X145938096Y-58894875D01*
X145938096Y-58894875D02*
X145747620Y-58894875D01*
X145747620Y-58894875D02*
X145652382Y-58847256D01*
X145652382Y-58847256D02*
X145604763Y-58752017D01*
X145604763Y-58752017D02*
X145604763Y-58371065D01*
X145604763Y-58371065D02*
X145652382Y-58275827D01*
X145652382Y-58275827D02*
X145747620Y-58228208D01*
X145747620Y-58228208D02*
X145938096Y-58228208D01*
X145938096Y-58228208D02*
X146033334Y-58275827D01*
X146033334Y-58275827D02*
X146080953Y-58371065D01*
X146080953Y-58371065D02*
X146080953Y-58466303D01*
X146080953Y-58466303D02*
X145604763Y-58561541D01*
X146652382Y-58894875D02*
X146557144Y-58847256D01*
X146557144Y-58847256D02*
X146509525Y-58752017D01*
X146509525Y-58752017D02*
X146509525Y-57894875D01*
X147461906Y-58894875D02*
X147461906Y-57894875D01*
X147461906Y-58847256D02*
X147366668Y-58894875D01*
X147366668Y-58894875D02*
X147176192Y-58894875D01*
X147176192Y-58894875D02*
X147080954Y-58847256D01*
X147080954Y-58847256D02*
X147033335Y-58799636D01*
X147033335Y-58799636D02*
X146985716Y-58704398D01*
X146985716Y-58704398D02*
X146985716Y-58418684D01*
X146985716Y-58418684D02*
X147033335Y-58323446D01*
X147033335Y-58323446D02*
X147080954Y-58275827D01*
X147080954Y-58275827D02*
X147176192Y-58228208D01*
X147176192Y-58228208D02*
X147366668Y-58228208D01*
X147366668Y-58228208D02*
X147461906Y-58275827D01*
X134009523Y-60504819D02*
X134009523Y-59504819D01*
X134009523Y-60457200D02*
X133914285Y-60504819D01*
X133914285Y-60504819D02*
X133723809Y-60504819D01*
X133723809Y-60504819D02*
X133628571Y-60457200D01*
X133628571Y-60457200D02*
X133580952Y-60409580D01*
X133580952Y-60409580D02*
X133533333Y-60314342D01*
X133533333Y-60314342D02*
X133533333Y-60028628D01*
X133533333Y-60028628D02*
X133580952Y-59933390D01*
X133580952Y-59933390D02*
X133628571Y-59885771D01*
X133628571Y-59885771D02*
X133723809Y-59838152D01*
X133723809Y-59838152D02*
X133914285Y-59838152D01*
X133914285Y-59838152D02*
X134009523Y-59885771D01*
X134485714Y-60504819D02*
X134485714Y-59838152D01*
X134485714Y-59504819D02*
X134438095Y-59552438D01*
X134438095Y-59552438D02*
X134485714Y-59600057D01*
X134485714Y-59600057D02*
X134533333Y-59552438D01*
X134533333Y-59552438D02*
X134485714Y-59504819D01*
X134485714Y-59504819D02*
X134485714Y-59600057D01*
X134866666Y-59838152D02*
X135104761Y-60504819D01*
X135342856Y-59838152D02*
X135104761Y-60504819D01*
X135104761Y-60504819D02*
X135009523Y-60742914D01*
X135009523Y-60742914D02*
X134961904Y-60790533D01*
X134961904Y-60790533D02*
X134866666Y-60838152D01*
X136104761Y-60457200D02*
X136009523Y-60504819D01*
X136009523Y-60504819D02*
X135819047Y-60504819D01*
X135819047Y-60504819D02*
X135723809Y-60457200D01*
X135723809Y-60457200D02*
X135676190Y-60361961D01*
X135676190Y-60361961D02*
X135676190Y-59981009D01*
X135676190Y-59981009D02*
X135723809Y-59885771D01*
X135723809Y-59885771D02*
X135819047Y-59838152D01*
X135819047Y-59838152D02*
X136009523Y-59838152D01*
X136009523Y-59838152D02*
X136104761Y-59885771D01*
X136104761Y-59885771D02*
X136152380Y-59981009D01*
X136152380Y-59981009D02*
X136152380Y-60076247D01*
X136152380Y-60076247D02*
X135676190Y-60171485D01*
X136723809Y-60504819D02*
X136628571Y-60457200D01*
X136628571Y-60457200D02*
X136580952Y-60361961D01*
X136580952Y-60361961D02*
X136580952Y-59504819D01*
X137485714Y-60457200D02*
X137390476Y-60504819D01*
X137390476Y-60504819D02*
X137200000Y-60504819D01*
X137200000Y-60504819D02*
X137104762Y-60457200D01*
X137104762Y-60457200D02*
X137057143Y-60361961D01*
X137057143Y-60361961D02*
X137057143Y-59981009D01*
X137057143Y-59981009D02*
X137104762Y-59885771D01*
X137104762Y-59885771D02*
X137200000Y-59838152D01*
X137200000Y-59838152D02*
X137390476Y-59838152D01*
X137390476Y-59838152D02*
X137485714Y-59885771D01*
X137485714Y-59885771D02*
X137533333Y-59981009D01*
X137533333Y-59981009D02*
X137533333Y-60076247D01*
X137533333Y-60076247D02*
X137057143Y-60171485D01*
X138390476Y-60457200D02*
X138295238Y-60504819D01*
X138295238Y-60504819D02*
X138104762Y-60504819D01*
X138104762Y-60504819D02*
X138009524Y-60457200D01*
X138009524Y-60457200D02*
X137961905Y-60409580D01*
X137961905Y-60409580D02*
X137914286Y-60314342D01*
X137914286Y-60314342D02*
X137914286Y-60028628D01*
X137914286Y-60028628D02*
X137961905Y-59933390D01*
X137961905Y-59933390D02*
X138009524Y-59885771D01*
X138009524Y-59885771D02*
X138104762Y-59838152D01*
X138104762Y-59838152D02*
X138295238Y-59838152D01*
X138295238Y-59838152D02*
X138390476Y-59885771D01*
X138676191Y-59838152D02*
X139057143Y-59838152D01*
X138819048Y-59504819D02*
X138819048Y-60361961D01*
X138819048Y-60361961D02*
X138866667Y-60457200D01*
X138866667Y-60457200D02*
X138961905Y-60504819D01*
X138961905Y-60504819D02*
X139057143Y-60504819D01*
X139390477Y-60504819D02*
X139390477Y-59838152D01*
X139390477Y-60028628D02*
X139438096Y-59933390D01*
X139438096Y-59933390D02*
X139485715Y-59885771D01*
X139485715Y-59885771D02*
X139580953Y-59838152D01*
X139580953Y-59838152D02*
X139676191Y-59838152D01*
X140152382Y-60504819D02*
X140057144Y-60457200D01*
X140057144Y-60457200D02*
X140009525Y-60409580D01*
X140009525Y-60409580D02*
X139961906Y-60314342D01*
X139961906Y-60314342D02*
X139961906Y-60028628D01*
X139961906Y-60028628D02*
X140009525Y-59933390D01*
X140009525Y-59933390D02*
X140057144Y-59885771D01*
X140057144Y-59885771D02*
X140152382Y-59838152D01*
X140152382Y-59838152D02*
X140295239Y-59838152D01*
X140295239Y-59838152D02*
X140390477Y-59885771D01*
X140390477Y-59885771D02*
X140438096Y-59933390D01*
X140438096Y-59933390D02*
X140485715Y-60028628D01*
X140485715Y-60028628D02*
X140485715Y-60314342D01*
X140485715Y-60314342D02*
X140438096Y-60409580D01*
X140438096Y-60409580D02*
X140390477Y-60457200D01*
X140390477Y-60457200D02*
X140295239Y-60504819D01*
X140295239Y-60504819D02*
X140152382Y-60504819D01*
X140914287Y-60504819D02*
X140914287Y-59838152D01*
X140914287Y-59933390D02*
X140961906Y-59885771D01*
X140961906Y-59885771D02*
X141057144Y-59838152D01*
X141057144Y-59838152D02*
X141200001Y-59838152D01*
X141200001Y-59838152D02*
X141295239Y-59885771D01*
X141295239Y-59885771D02*
X141342858Y-59981009D01*
X141342858Y-59981009D02*
X141342858Y-60504819D01*
X141342858Y-59981009D02*
X141390477Y-59885771D01*
X141390477Y-59885771D02*
X141485715Y-59838152D01*
X141485715Y-59838152D02*
X141628572Y-59838152D01*
X141628572Y-59838152D02*
X141723811Y-59885771D01*
X141723811Y-59885771D02*
X141771430Y-59981009D01*
X141771430Y-59981009D02*
X141771430Y-60504819D01*
X142676191Y-59838152D02*
X142676191Y-60504819D01*
X142247620Y-59838152D02*
X142247620Y-60361961D01*
X142247620Y-60361961D02*
X142295239Y-60457200D01*
X142295239Y-60457200D02*
X142390477Y-60504819D01*
X142390477Y-60504819D02*
X142533334Y-60504819D01*
X142533334Y-60504819D02*
X142628572Y-60457200D01*
X142628572Y-60457200D02*
X142676191Y-60409580D01*
X143104763Y-60457200D02*
X143200001Y-60504819D01*
X143200001Y-60504819D02*
X143390477Y-60504819D01*
X143390477Y-60504819D02*
X143485715Y-60457200D01*
X143485715Y-60457200D02*
X143533334Y-60361961D01*
X143533334Y-60361961D02*
X143533334Y-60314342D01*
X143533334Y-60314342D02*
X143485715Y-60219104D01*
X143485715Y-60219104D02*
X143390477Y-60171485D01*
X143390477Y-60171485D02*
X143247620Y-60171485D01*
X143247620Y-60171485D02*
X143152382Y-60123866D01*
X143152382Y-60123866D02*
X143104763Y-60028628D01*
X143104763Y-60028628D02*
X143104763Y-59981009D01*
X143104763Y-59981009D02*
X143152382Y-59885771D01*
X143152382Y-59885771D02*
X143247620Y-59838152D01*
X143247620Y-59838152D02*
X143390477Y-59838152D01*
X143390477Y-59838152D02*
X143485715Y-59885771D01*
X143961906Y-60504819D02*
X143961906Y-59838152D01*
X143961906Y-59504819D02*
X143914287Y-59552438D01*
X143914287Y-59552438D02*
X143961906Y-59600057D01*
X143961906Y-59600057D02*
X144009525Y-59552438D01*
X144009525Y-59552438D02*
X143961906Y-59504819D01*
X143961906Y-59504819D02*
X143961906Y-59600057D01*
X144866667Y-60457200D02*
X144771429Y-60504819D01*
X144771429Y-60504819D02*
X144580953Y-60504819D01*
X144580953Y-60504819D02*
X144485715Y-60457200D01*
X144485715Y-60457200D02*
X144438096Y-60409580D01*
X144438096Y-60409580D02*
X144390477Y-60314342D01*
X144390477Y-60314342D02*
X144390477Y-60028628D01*
X144390477Y-60028628D02*
X144438096Y-59933390D01*
X144438096Y-59933390D02*
X144485715Y-59885771D01*
X144485715Y-59885771D02*
X144580953Y-59838152D01*
X144580953Y-59838152D02*
X144771429Y-59838152D01*
X144771429Y-59838152D02*
X144866667Y-59885771D01*
X135485714Y-61448096D02*
X135723809Y-62114763D01*
X135723809Y-62114763D02*
X135961904Y-61448096D01*
X136533333Y-61114763D02*
X136628571Y-61114763D01*
X136628571Y-61114763D02*
X136723809Y-61162382D01*
X136723809Y-61162382D02*
X136771428Y-61210001D01*
X136771428Y-61210001D02*
X136819047Y-61305239D01*
X136819047Y-61305239D02*
X136866666Y-61495715D01*
X136866666Y-61495715D02*
X136866666Y-61733810D01*
X136866666Y-61733810D02*
X136819047Y-61924286D01*
X136819047Y-61924286D02*
X136771428Y-62019524D01*
X136771428Y-62019524D02*
X136723809Y-62067144D01*
X136723809Y-62067144D02*
X136628571Y-62114763D01*
X136628571Y-62114763D02*
X136533333Y-62114763D01*
X136533333Y-62114763D02*
X136438095Y-62067144D01*
X136438095Y-62067144D02*
X136390476Y-62019524D01*
X136390476Y-62019524D02*
X136342857Y-61924286D01*
X136342857Y-61924286D02*
X136295238Y-61733810D01*
X136295238Y-61733810D02*
X136295238Y-61495715D01*
X136295238Y-61495715D02*
X136342857Y-61305239D01*
X136342857Y-61305239D02*
X136390476Y-61210001D01*
X136390476Y-61210001D02*
X136438095Y-61162382D01*
X136438095Y-61162382D02*
X136533333Y-61114763D01*
X137295238Y-62019524D02*
X137342857Y-62067144D01*
X137342857Y-62067144D02*
X137295238Y-62114763D01*
X137295238Y-62114763D02*
X137247619Y-62067144D01*
X137247619Y-62067144D02*
X137295238Y-62019524D01*
X137295238Y-62019524D02*
X137295238Y-62114763D01*
X137676190Y-61114763D02*
X138295237Y-61114763D01*
X138295237Y-61114763D02*
X137961904Y-61495715D01*
X137961904Y-61495715D02*
X138104761Y-61495715D01*
X138104761Y-61495715D02*
X138199999Y-61543334D01*
X138199999Y-61543334D02*
X138247618Y-61590953D01*
X138247618Y-61590953D02*
X138295237Y-61686191D01*
X138295237Y-61686191D02*
X138295237Y-61924286D01*
X138295237Y-61924286D02*
X138247618Y-62019524D01*
X138247618Y-62019524D02*
X138199999Y-62067144D01*
X138199999Y-62067144D02*
X138104761Y-62114763D01*
X138104761Y-62114763D02*
X137819047Y-62114763D01*
X137819047Y-62114763D02*
X137723809Y-62067144D01*
X137723809Y-62067144D02*
X137676190Y-62019524D01*
X139438095Y-61210001D02*
X139485714Y-61162382D01*
X139485714Y-61162382D02*
X139580952Y-61114763D01*
X139580952Y-61114763D02*
X139819047Y-61114763D01*
X139819047Y-61114763D02*
X139914285Y-61162382D01*
X139914285Y-61162382D02*
X139961904Y-61210001D01*
X139961904Y-61210001D02*
X140009523Y-61305239D01*
X140009523Y-61305239D02*
X140009523Y-61400477D01*
X140009523Y-61400477D02*
X139961904Y-61543334D01*
X139961904Y-61543334D02*
X139390476Y-62114763D01*
X139390476Y-62114763D02*
X140009523Y-62114763D01*
X140628571Y-61114763D02*
X140723809Y-61114763D01*
X140723809Y-61114763D02*
X140819047Y-61162382D01*
X140819047Y-61162382D02*
X140866666Y-61210001D01*
X140866666Y-61210001D02*
X140914285Y-61305239D01*
X140914285Y-61305239D02*
X140961904Y-61495715D01*
X140961904Y-61495715D02*
X140961904Y-61733810D01*
X140961904Y-61733810D02*
X140914285Y-61924286D01*
X140914285Y-61924286D02*
X140866666Y-62019524D01*
X140866666Y-62019524D02*
X140819047Y-62067144D01*
X140819047Y-62067144D02*
X140723809Y-62114763D01*
X140723809Y-62114763D02*
X140628571Y-62114763D01*
X140628571Y-62114763D02*
X140533333Y-62067144D01*
X140533333Y-62067144D02*
X140485714Y-62019524D01*
X140485714Y-62019524D02*
X140438095Y-61924286D01*
X140438095Y-61924286D02*
X140390476Y-61733810D01*
X140390476Y-61733810D02*
X140390476Y-61495715D01*
X140390476Y-61495715D02*
X140438095Y-61305239D01*
X140438095Y-61305239D02*
X140485714Y-61210001D01*
X140485714Y-61210001D02*
X140533333Y-61162382D01*
X140533333Y-61162382D02*
X140628571Y-61114763D01*
X141342857Y-61210001D02*
X141390476Y-61162382D01*
X141390476Y-61162382D02*
X141485714Y-61114763D01*
X141485714Y-61114763D02*
X141723809Y-61114763D01*
X141723809Y-61114763D02*
X141819047Y-61162382D01*
X141819047Y-61162382D02*
X141866666Y-61210001D01*
X141866666Y-61210001D02*
X141914285Y-61305239D01*
X141914285Y-61305239D02*
X141914285Y-61400477D01*
X141914285Y-61400477D02*
X141866666Y-61543334D01*
X141866666Y-61543334D02*
X141295238Y-62114763D01*
X141295238Y-62114763D02*
X141914285Y-62114763D01*
X142819047Y-61114763D02*
X142342857Y-61114763D01*
X142342857Y-61114763D02*
X142295238Y-61590953D01*
X142295238Y-61590953D02*
X142342857Y-61543334D01*
X142342857Y-61543334D02*
X142438095Y-61495715D01*
X142438095Y-61495715D02*
X142676190Y-61495715D01*
X142676190Y-61495715D02*
X142771428Y-61543334D01*
X142771428Y-61543334D02*
X142819047Y-61590953D01*
X142819047Y-61590953D02*
X142866666Y-61686191D01*
X142866666Y-61686191D02*
X142866666Y-61924286D01*
X142866666Y-61924286D02*
X142819047Y-62019524D01*
X142819047Y-62019524D02*
X142771428Y-62067144D01*
X142771428Y-62067144D02*
X142676190Y-62114763D01*
X142676190Y-62114763D02*
X142438095Y-62114763D01*
X142438095Y-62114763D02*
X142342857Y-62067144D01*
X142342857Y-62067144D02*
X142295238Y-62019524D01*
X137909523Y-93869819D02*
X137433333Y-93869819D01*
X137433333Y-93869819D02*
X137385714Y-94346009D01*
X137385714Y-94346009D02*
X137433333Y-94298390D01*
X137433333Y-94298390D02*
X137528571Y-94250771D01*
X137528571Y-94250771D02*
X137766666Y-94250771D01*
X137766666Y-94250771D02*
X137861904Y-94298390D01*
X137861904Y-94298390D02*
X137909523Y-94346009D01*
X137909523Y-94346009D02*
X137957142Y-94441247D01*
X137957142Y-94441247D02*
X137957142Y-94679342D01*
X137957142Y-94679342D02*
X137909523Y-94774580D01*
X137909523Y-94774580D02*
X137861904Y-94822200D01*
X137861904Y-94822200D02*
X137766666Y-94869819D01*
X137766666Y-94869819D02*
X137528571Y-94869819D01*
X137528571Y-94869819D02*
X137433333Y-94822200D01*
X137433333Y-94822200D02*
X137385714Y-94774580D01*
X138242857Y-93869819D02*
X138576190Y-94869819D01*
X138576190Y-94869819D02*
X138909523Y-93869819D01*
X144386667Y-93869819D02*
X144720000Y-94869819D01*
X144720000Y-94869819D02*
X145053333Y-93869819D01*
X145958095Y-94774580D02*
X145910476Y-94822200D01*
X145910476Y-94822200D02*
X145767619Y-94869819D01*
X145767619Y-94869819D02*
X145672381Y-94869819D01*
X145672381Y-94869819D02*
X145529524Y-94822200D01*
X145529524Y-94822200D02*
X145434286Y-94726961D01*
X145434286Y-94726961D02*
X145386667Y-94631723D01*
X145386667Y-94631723D02*
X145339048Y-94441247D01*
X145339048Y-94441247D02*
X145339048Y-94298390D01*
X145339048Y-94298390D02*
X145386667Y-94107914D01*
X145386667Y-94107914D02*
X145434286Y-94012676D01*
X145434286Y-94012676D02*
X145529524Y-93917438D01*
X145529524Y-93917438D02*
X145672381Y-93869819D01*
X145672381Y-93869819D02*
X145767619Y-93869819D01*
X145767619Y-93869819D02*
X145910476Y-93917438D01*
X145910476Y-93917438D02*
X145958095Y-93965057D01*
X146958095Y-94774580D02*
X146910476Y-94822200D01*
X146910476Y-94822200D02*
X146767619Y-94869819D01*
X146767619Y-94869819D02*
X146672381Y-94869819D01*
X146672381Y-94869819D02*
X146529524Y-94822200D01*
X146529524Y-94822200D02*
X146434286Y-94726961D01*
X146434286Y-94726961D02*
X146386667Y-94631723D01*
X146386667Y-94631723D02*
X146339048Y-94441247D01*
X146339048Y-94441247D02*
X146339048Y-94298390D01*
X146339048Y-94298390D02*
X146386667Y-94107914D01*
X146386667Y-94107914D02*
X146434286Y-94012676D01*
X146434286Y-94012676D02*
X146529524Y-93917438D01*
X146529524Y-93917438D02*
X146672381Y-93869819D01*
X146672381Y-93869819D02*
X146767619Y-93869819D01*
X146767619Y-93869819D02*
X146910476Y-93917438D01*
X146910476Y-93917438D02*
X146958095Y-93965057D01*
X142853696Y-66820015D02*
X142853696Y-67534300D01*
X142853696Y-67534300D02*
X142806077Y-67677157D01*
X142806077Y-67677157D02*
X142710839Y-67772396D01*
X142710839Y-67772396D02*
X142567982Y-67820015D01*
X142567982Y-67820015D02*
X142472744Y-67820015D01*
X143520363Y-66820015D02*
X143710839Y-66820015D01*
X143710839Y-66820015D02*
X143806077Y-66867634D01*
X143806077Y-66867634D02*
X143901315Y-66962872D01*
X143901315Y-66962872D02*
X143948934Y-67153348D01*
X143948934Y-67153348D02*
X143948934Y-67486681D01*
X143948934Y-67486681D02*
X143901315Y-67677157D01*
X143901315Y-67677157D02*
X143806077Y-67772396D01*
X143806077Y-67772396D02*
X143710839Y-67820015D01*
X143710839Y-67820015D02*
X143520363Y-67820015D01*
X143520363Y-67820015D02*
X143425125Y-67772396D01*
X143425125Y-67772396D02*
X143329887Y-67677157D01*
X143329887Y-67677157D02*
X143282268Y-67486681D01*
X143282268Y-67486681D02*
X143282268Y-67153348D01*
X143282268Y-67153348D02*
X143329887Y-66962872D01*
X143329887Y-66962872D02*
X143425125Y-66867634D01*
X143425125Y-66867634D02*
X143520363Y-66820015D01*
X144567982Y-67343824D02*
X144567982Y-67820015D01*
X144234649Y-66820015D02*
X144567982Y-67343824D01*
X144567982Y-67343824D02*
X144901315Y-66820015D01*
X145187030Y-67772396D02*
X145329887Y-67820015D01*
X145329887Y-67820015D02*
X145567982Y-67820015D01*
X145567982Y-67820015D02*
X145663220Y-67772396D01*
X145663220Y-67772396D02*
X145710839Y-67724776D01*
X145710839Y-67724776D02*
X145758458Y-67629538D01*
X145758458Y-67629538D02*
X145758458Y-67534300D01*
X145758458Y-67534300D02*
X145710839Y-67439062D01*
X145710839Y-67439062D02*
X145663220Y-67391443D01*
X145663220Y-67391443D02*
X145567982Y-67343824D01*
X145567982Y-67343824D02*
X145377506Y-67296205D01*
X145377506Y-67296205D02*
X145282268Y-67248586D01*
X145282268Y-67248586D02*
X145234649Y-67200967D01*
X145234649Y-67200967D02*
X145187030Y-67105729D01*
X145187030Y-67105729D02*
X145187030Y-67010491D01*
X145187030Y-67010491D02*
X145234649Y-66915253D01*
X145234649Y-66915253D02*
X145282268Y-66867634D01*
X145282268Y-66867634D02*
X145377506Y-66820015D01*
X145377506Y-66820015D02*
X145615601Y-66820015D01*
X145615601Y-66820015D02*
X145758458Y-66867634D01*
X146044173Y-66820015D02*
X146615601Y-66820015D01*
X146329887Y-67820015D02*
X146329887Y-66820015D01*
X146948935Y-67820015D02*
X146948935Y-66820015D01*
X147996553Y-67724776D02*
X147948934Y-67772396D01*
X147948934Y-67772396D02*
X147806077Y-67820015D01*
X147806077Y-67820015D02*
X147710839Y-67820015D01*
X147710839Y-67820015D02*
X147567982Y-67772396D01*
X147567982Y-67772396D02*
X147472744Y-67677157D01*
X147472744Y-67677157D02*
X147425125Y-67581919D01*
X147425125Y-67581919D02*
X147377506Y-67391443D01*
X147377506Y-67391443D02*
X147377506Y-67248586D01*
X147377506Y-67248586D02*
X147425125Y-67058110D01*
X147425125Y-67058110D02*
X147472744Y-66962872D01*
X147472744Y-66962872D02*
X147567982Y-66867634D01*
X147567982Y-66867634D02*
X147710839Y-66820015D01*
X147710839Y-66820015D02*
X147806077Y-66820015D01*
X147806077Y-66820015D02*
X147948934Y-66867634D01*
X147948934Y-66867634D02*
X147996553Y-66915253D01*
X148425125Y-67820015D02*
X148425125Y-66820015D01*
X148996553Y-67820015D02*
X148567982Y-67248586D01*
X148996553Y-66820015D02*
X148425125Y-67391443D01*
X150139411Y-66915253D02*
X150187030Y-66867634D01*
X150187030Y-66867634D02*
X150282268Y-66820015D01*
X150282268Y-66820015D02*
X150520363Y-66820015D01*
X150520363Y-66820015D02*
X150615601Y-66867634D01*
X150615601Y-66867634D02*
X150663220Y-66915253D01*
X150663220Y-66915253D02*
X150710839Y-67010491D01*
X150710839Y-67010491D02*
X150710839Y-67105729D01*
X150710839Y-67105729D02*
X150663220Y-67248586D01*
X150663220Y-67248586D02*
X150091792Y-67820015D01*
X150091792Y-67820015D02*
X150710839Y-67820015D01*
X147377506Y-68429959D02*
X147377506Y-69239482D01*
X147377506Y-69239482D02*
X147425125Y-69334720D01*
X147425125Y-69334720D02*
X147472744Y-69382340D01*
X147472744Y-69382340D02*
X147567982Y-69429959D01*
X147567982Y-69429959D02*
X147758458Y-69429959D01*
X147758458Y-69429959D02*
X147853696Y-69382340D01*
X147853696Y-69382340D02*
X147901315Y-69334720D01*
X147901315Y-69334720D02*
X147948934Y-69239482D01*
X147948934Y-69239482D02*
X147948934Y-68429959D01*
X149187030Y-69429959D02*
X149187030Y-68429959D01*
X149187030Y-68429959D02*
X149425125Y-68429959D01*
X149425125Y-68429959D02*
X149567982Y-68477578D01*
X149567982Y-68477578D02*
X149663220Y-68572816D01*
X149663220Y-68572816D02*
X149710839Y-68668054D01*
X149710839Y-68668054D02*
X149758458Y-68858530D01*
X149758458Y-68858530D02*
X149758458Y-69001387D01*
X149758458Y-69001387D02*
X149710839Y-69191863D01*
X149710839Y-69191863D02*
X149663220Y-69287101D01*
X149663220Y-69287101D02*
X149567982Y-69382340D01*
X149567982Y-69382340D02*
X149425125Y-69429959D01*
X149425125Y-69429959D02*
X149187030Y-69429959D01*
X150615601Y-68429959D02*
X150425125Y-68429959D01*
X150425125Y-68429959D02*
X150329887Y-68477578D01*
X150329887Y-68477578D02*
X150282268Y-68525197D01*
X150282268Y-68525197D02*
X150187030Y-68668054D01*
X150187030Y-68668054D02*
X150139411Y-68858530D01*
X150139411Y-68858530D02*
X150139411Y-69239482D01*
X150139411Y-69239482D02*
X150187030Y-69334720D01*
X150187030Y-69334720D02*
X150234649Y-69382340D01*
X150234649Y-69382340D02*
X150329887Y-69429959D01*
X150329887Y-69429959D02*
X150520363Y-69429959D01*
X150520363Y-69429959D02*
X150615601Y-69382340D01*
X150615601Y-69382340D02*
X150663220Y-69334720D01*
X150663220Y-69334720D02*
X150710839Y-69239482D01*
X150710839Y-69239482D02*
X150710839Y-69001387D01*
X150710839Y-69001387D02*
X150663220Y-68906149D01*
X150663220Y-68906149D02*
X150615601Y-68858530D01*
X150615601Y-68858530D02*
X150520363Y-68810911D01*
X150520363Y-68810911D02*
X150329887Y-68810911D01*
X150329887Y-68810911D02*
X150234649Y-68858530D01*
X150234649Y-68858530D02*
X150187030Y-68906149D01*
X150187030Y-68906149D02*
X150139411Y-69001387D01*
X147425125Y-71039903D02*
X147425125Y-70039903D01*
X147425125Y-70039903D02*
X147663220Y-70039903D01*
X147663220Y-70039903D02*
X147806077Y-70087522D01*
X147806077Y-70087522D02*
X147901315Y-70182760D01*
X147901315Y-70182760D02*
X147948934Y-70277998D01*
X147948934Y-70277998D02*
X147996553Y-70468474D01*
X147996553Y-70468474D02*
X147996553Y-70611331D01*
X147996553Y-70611331D02*
X147948934Y-70801807D01*
X147948934Y-70801807D02*
X147901315Y-70897045D01*
X147901315Y-70897045D02*
X147806077Y-70992284D01*
X147806077Y-70992284D02*
X147663220Y-71039903D01*
X147663220Y-71039903D02*
X147425125Y-71039903D01*
X149187030Y-71039903D02*
X149187030Y-70039903D01*
X149187030Y-70039903D02*
X149425125Y-70039903D01*
X149425125Y-70039903D02*
X149567982Y-70087522D01*
X149567982Y-70087522D02*
X149663220Y-70182760D01*
X149663220Y-70182760D02*
X149710839Y-70277998D01*
X149710839Y-70277998D02*
X149758458Y-70468474D01*
X149758458Y-70468474D02*
X149758458Y-70611331D01*
X149758458Y-70611331D02*
X149710839Y-70801807D01*
X149710839Y-70801807D02*
X149663220Y-70897045D01*
X149663220Y-70897045D02*
X149567982Y-70992284D01*
X149567982Y-70992284D02*
X149425125Y-71039903D01*
X149425125Y-71039903D02*
X149187030Y-71039903D01*
X150663220Y-70039903D02*
X150187030Y-70039903D01*
X150187030Y-70039903D02*
X150139411Y-70516093D01*
X150139411Y-70516093D02*
X150187030Y-70468474D01*
X150187030Y-70468474D02*
X150282268Y-70420855D01*
X150282268Y-70420855D02*
X150520363Y-70420855D01*
X150520363Y-70420855D02*
X150615601Y-70468474D01*
X150615601Y-70468474D02*
X150663220Y-70516093D01*
X150663220Y-70516093D02*
X150710839Y-70611331D01*
X150710839Y-70611331D02*
X150710839Y-70849426D01*
X150710839Y-70849426D02*
X150663220Y-70944664D01*
X150663220Y-70944664D02*
X150615601Y-70992284D01*
X150615601Y-70992284D02*
X150520363Y-71039903D01*
X150520363Y-71039903D02*
X150282268Y-71039903D01*
X150282268Y-71039903D02*
X150187030Y-70992284D01*
X150187030Y-70992284D02*
X150139411Y-70944664D01*
X148091791Y-72649847D02*
X147615601Y-72649847D01*
X147615601Y-72649847D02*
X147615601Y-71649847D01*
X149187030Y-72649847D02*
X149187030Y-71649847D01*
X149187030Y-71649847D02*
X149425125Y-71649847D01*
X149425125Y-71649847D02*
X149567982Y-71697466D01*
X149567982Y-71697466D02*
X149663220Y-71792704D01*
X149663220Y-71792704D02*
X149710839Y-71887942D01*
X149710839Y-71887942D02*
X149758458Y-72078418D01*
X149758458Y-72078418D02*
X149758458Y-72221275D01*
X149758458Y-72221275D02*
X149710839Y-72411751D01*
X149710839Y-72411751D02*
X149663220Y-72506989D01*
X149663220Y-72506989D02*
X149567982Y-72602228D01*
X149567982Y-72602228D02*
X149425125Y-72649847D01*
X149425125Y-72649847D02*
X149187030Y-72649847D01*
X150615601Y-71983180D02*
X150615601Y-72649847D01*
X150377506Y-71602228D02*
X150139411Y-72316513D01*
X150139411Y-72316513D02*
X150758458Y-72316513D01*
X147996553Y-74259791D02*
X147663220Y-73783600D01*
X147425125Y-74259791D02*
X147425125Y-73259791D01*
X147425125Y-73259791D02*
X147806077Y-73259791D01*
X147806077Y-73259791D02*
X147901315Y-73307410D01*
X147901315Y-73307410D02*
X147948934Y-73355029D01*
X147948934Y-73355029D02*
X147996553Y-73450267D01*
X147996553Y-73450267D02*
X147996553Y-73593124D01*
X147996553Y-73593124D02*
X147948934Y-73688362D01*
X147948934Y-73688362D02*
X147901315Y-73735981D01*
X147901315Y-73735981D02*
X147806077Y-73783600D01*
X147806077Y-73783600D02*
X147425125Y-73783600D01*
X149187030Y-74259791D02*
X149187030Y-73259791D01*
X149187030Y-73259791D02*
X149425125Y-73259791D01*
X149425125Y-73259791D02*
X149567982Y-73307410D01*
X149567982Y-73307410D02*
X149663220Y-73402648D01*
X149663220Y-73402648D02*
X149710839Y-73497886D01*
X149710839Y-73497886D02*
X149758458Y-73688362D01*
X149758458Y-73688362D02*
X149758458Y-73831219D01*
X149758458Y-73831219D02*
X149710839Y-74021695D01*
X149710839Y-74021695D02*
X149663220Y-74116933D01*
X149663220Y-74116933D02*
X149567982Y-74212172D01*
X149567982Y-74212172D02*
X149425125Y-74259791D01*
X149425125Y-74259791D02*
X149187030Y-74259791D01*
X150091792Y-73259791D02*
X150710839Y-73259791D01*
X150710839Y-73259791D02*
X150377506Y-73640743D01*
X150377506Y-73640743D02*
X150520363Y-73640743D01*
X150520363Y-73640743D02*
X150615601Y-73688362D01*
X150615601Y-73688362D02*
X150663220Y-73735981D01*
X150663220Y-73735981D02*
X150710839Y-73831219D01*
X150710839Y-73831219D02*
X150710839Y-74069314D01*
X150710839Y-74069314D02*
X150663220Y-74164552D01*
X150663220Y-74164552D02*
X150615601Y-74212172D01*
X150615601Y-74212172D02*
X150520363Y-74259791D01*
X150520363Y-74259791D02*
X150234649Y-74259791D01*
X150234649Y-74259791D02*
X150139411Y-74212172D01*
X150139411Y-74212172D02*
X150091792Y-74164552D01*
X147520363Y-74869735D02*
X148091791Y-74869735D01*
X147806077Y-75869735D02*
X147806077Y-74869735D01*
X149187030Y-75869735D02*
X149187030Y-74869735D01*
X149187030Y-74869735D02*
X149425125Y-74869735D01*
X149425125Y-74869735D02*
X149567982Y-74917354D01*
X149567982Y-74917354D02*
X149663220Y-75012592D01*
X149663220Y-75012592D02*
X149710839Y-75107830D01*
X149710839Y-75107830D02*
X149758458Y-75298306D01*
X149758458Y-75298306D02*
X149758458Y-75441163D01*
X149758458Y-75441163D02*
X149710839Y-75631639D01*
X149710839Y-75631639D02*
X149663220Y-75726877D01*
X149663220Y-75726877D02*
X149567982Y-75822116D01*
X149567982Y-75822116D02*
X149425125Y-75869735D01*
X149425125Y-75869735D02*
X149187030Y-75869735D01*
X150139411Y-74964973D02*
X150187030Y-74917354D01*
X150187030Y-74917354D02*
X150282268Y-74869735D01*
X150282268Y-74869735D02*
X150520363Y-74869735D01*
X150520363Y-74869735D02*
X150615601Y-74917354D01*
X150615601Y-74917354D02*
X150663220Y-74964973D01*
X150663220Y-74964973D02*
X150710839Y-75060211D01*
X150710839Y-75060211D02*
X150710839Y-75155449D01*
X150710839Y-75155449D02*
X150663220Y-75298306D01*
X150663220Y-75298306D02*
X150091792Y-75869735D01*
X150091792Y-75869735D02*
X150710839Y-75869735D01*
X147663220Y-77193964D02*
X148139410Y-77193964D01*
X147567982Y-77479679D02*
X147901315Y-76479679D01*
X147901315Y-76479679D02*
X148234648Y-77479679D01*
X149282268Y-77193964D02*
X149758458Y-77193964D01*
X149187030Y-77479679D02*
X149520363Y-76479679D01*
X149520363Y-76479679D02*
X149853696Y-77479679D01*
X150139411Y-76574917D02*
X150187030Y-76527298D01*
X150187030Y-76527298D02*
X150282268Y-76479679D01*
X150282268Y-76479679D02*
X150520363Y-76479679D01*
X150520363Y-76479679D02*
X150615601Y-76527298D01*
X150615601Y-76527298D02*
X150663220Y-76574917D01*
X150663220Y-76574917D02*
X150710839Y-76670155D01*
X150710839Y-76670155D02*
X150710839Y-76765393D01*
X150710839Y-76765393D02*
X150663220Y-76908250D01*
X150663220Y-76908250D02*
X150091792Y-77479679D01*
X150091792Y-77479679D02*
X150710839Y-77479679D01*
X147901315Y-78565813D02*
X148044172Y-78613432D01*
X148044172Y-78613432D02*
X148091791Y-78661051D01*
X148091791Y-78661051D02*
X148139410Y-78756289D01*
X148139410Y-78756289D02*
X148139410Y-78899146D01*
X148139410Y-78899146D02*
X148091791Y-78994384D01*
X148091791Y-78994384D02*
X148044172Y-79042004D01*
X148044172Y-79042004D02*
X147948934Y-79089623D01*
X147948934Y-79089623D02*
X147567982Y-79089623D01*
X147567982Y-79089623D02*
X147567982Y-78089623D01*
X147567982Y-78089623D02*
X147901315Y-78089623D01*
X147901315Y-78089623D02*
X147996553Y-78137242D01*
X147996553Y-78137242D02*
X148044172Y-78184861D01*
X148044172Y-78184861D02*
X148091791Y-78280099D01*
X148091791Y-78280099D02*
X148091791Y-78375337D01*
X148091791Y-78375337D02*
X148044172Y-78470575D01*
X148044172Y-78470575D02*
X147996553Y-78518194D01*
X147996553Y-78518194D02*
X147901315Y-78565813D01*
X147901315Y-78565813D02*
X147567982Y-78565813D01*
X149282268Y-78803908D02*
X149758458Y-78803908D01*
X149187030Y-79089623D02*
X149520363Y-78089623D01*
X149520363Y-78089623D02*
X149853696Y-79089623D01*
X150091792Y-78089623D02*
X150710839Y-78089623D01*
X150710839Y-78089623D02*
X150377506Y-78470575D01*
X150377506Y-78470575D02*
X150520363Y-78470575D01*
X150520363Y-78470575D02*
X150615601Y-78518194D01*
X150615601Y-78518194D02*
X150663220Y-78565813D01*
X150663220Y-78565813D02*
X150710839Y-78661051D01*
X150710839Y-78661051D02*
X150710839Y-78899146D01*
X150710839Y-78899146D02*
X150663220Y-78994384D01*
X150663220Y-78994384D02*
X150615601Y-79042004D01*
X150615601Y-79042004D02*
X150520363Y-79089623D01*
X150520363Y-79089623D02*
X150234649Y-79089623D01*
X150234649Y-79089623D02*
X150139411Y-79042004D01*
X150139411Y-79042004D02*
X150091792Y-78994384D01*
X120928800Y-52289160D02*
X120881180Y-52432017D01*
X120881180Y-52432017D02*
X120881180Y-52670112D01*
X120881180Y-52670112D02*
X120928800Y-52765350D01*
X120928800Y-52765350D02*
X120976419Y-52812969D01*
X120976419Y-52812969D02*
X121071657Y-52860588D01*
X121071657Y-52860588D02*
X121166895Y-52860588D01*
X121166895Y-52860588D02*
X121262133Y-52812969D01*
X121262133Y-52812969D02*
X121309752Y-52765350D01*
X121309752Y-52765350D02*
X121357371Y-52670112D01*
X121357371Y-52670112D02*
X121404990Y-52479636D01*
X121404990Y-52479636D02*
X121452609Y-52384398D01*
X121452609Y-52384398D02*
X121500228Y-52336779D01*
X121500228Y-52336779D02*
X121595466Y-52289160D01*
X121595466Y-52289160D02*
X121690704Y-52289160D01*
X121690704Y-52289160D02*
X121785942Y-52336779D01*
X121785942Y-52336779D02*
X121833561Y-52384398D01*
X121833561Y-52384398D02*
X121881180Y-52479636D01*
X121881180Y-52479636D02*
X121881180Y-52717731D01*
X121881180Y-52717731D02*
X121833561Y-52860588D01*
X120881180Y-53289160D02*
X121881180Y-53289160D01*
X121881180Y-53289160D02*
X121881180Y-53527255D01*
X121881180Y-53527255D02*
X121833561Y-53670112D01*
X121833561Y-53670112D02*
X121738323Y-53765350D01*
X121738323Y-53765350D02*
X121643085Y-53812969D01*
X121643085Y-53812969D02*
X121452609Y-53860588D01*
X121452609Y-53860588D02*
X121309752Y-53860588D01*
X121309752Y-53860588D02*
X121119276Y-53812969D01*
X121119276Y-53812969D02*
X121024038Y-53765350D01*
X121024038Y-53765350D02*
X120928800Y-53670112D01*
X120928800Y-53670112D02*
X120881180Y-53527255D01*
X120881180Y-53527255D02*
X120881180Y-53289160D01*
X121166895Y-54241541D02*
X121166895Y-54717731D01*
X120881180Y-54146303D02*
X121881180Y-54479636D01*
X121881180Y-54479636D02*
X120881180Y-54812969D01*
X141148095Y-93917438D02*
X141052857Y-93869819D01*
X141052857Y-93869819D02*
X140910000Y-93869819D01*
X140910000Y-93869819D02*
X140767143Y-93917438D01*
X140767143Y-93917438D02*
X140671905Y-94012676D01*
X140671905Y-94012676D02*
X140624286Y-94107914D01*
X140624286Y-94107914D02*
X140576667Y-94298390D01*
X140576667Y-94298390D02*
X140576667Y-94441247D01*
X140576667Y-94441247D02*
X140624286Y-94631723D01*
X140624286Y-94631723D02*
X140671905Y-94726961D01*
X140671905Y-94726961D02*
X140767143Y-94822200D01*
X140767143Y-94822200D02*
X140910000Y-94869819D01*
X140910000Y-94869819D02*
X141005238Y-94869819D01*
X141005238Y-94869819D02*
X141148095Y-94822200D01*
X141148095Y-94822200D02*
X141195714Y-94774580D01*
X141195714Y-94774580D02*
X141195714Y-94441247D01*
X141195714Y-94441247D02*
X141005238Y-94441247D01*
X141624286Y-94869819D02*
X141624286Y-93869819D01*
X141624286Y-93869819D02*
X142195714Y-94869819D01*
X142195714Y-94869819D02*
X142195714Y-93869819D01*
X142671905Y-94869819D02*
X142671905Y-93869819D01*
X142671905Y-93869819D02*
X142910000Y-93869819D01*
X142910000Y-93869819D02*
X143052857Y-93917438D01*
X143052857Y-93917438D02*
X143148095Y-94012676D01*
X143148095Y-94012676D02*
X143195714Y-94107914D01*
X143195714Y-94107914D02*
X143243333Y-94298390D01*
X143243333Y-94298390D02*
X143243333Y-94441247D01*
X143243333Y-94441247D02*
X143195714Y-94631723D01*
X143195714Y-94631723D02*
X143148095Y-94726961D01*
X143148095Y-94726961D02*
X143052857Y-94822200D01*
X143052857Y-94822200D02*
X142910000Y-94869819D01*
X142910000Y-94869819D02*
X142671905Y-94869819D01*
X163404761Y-93164636D02*
X163357142Y-93212256D01*
X163357142Y-93212256D02*
X163214285Y-93259875D01*
X163214285Y-93259875D02*
X163119047Y-93259875D01*
X163119047Y-93259875D02*
X162976190Y-93212256D01*
X162976190Y-93212256D02*
X162880952Y-93117017D01*
X162880952Y-93117017D02*
X162833333Y-93021779D01*
X162833333Y-93021779D02*
X162785714Y-92831303D01*
X162785714Y-92831303D02*
X162785714Y-92688446D01*
X162785714Y-92688446D02*
X162833333Y-92497970D01*
X162833333Y-92497970D02*
X162880952Y-92402732D01*
X162880952Y-92402732D02*
X162976190Y-92307494D01*
X162976190Y-92307494D02*
X163119047Y-92259875D01*
X163119047Y-92259875D02*
X163214285Y-92259875D01*
X163214285Y-92259875D02*
X163357142Y-92307494D01*
X163357142Y-92307494D02*
X163404761Y-92355113D01*
X164309523Y-93259875D02*
X163833333Y-93259875D01*
X163833333Y-93259875D02*
X163833333Y-92259875D01*
X162785714Y-94584104D02*
X163261904Y-94584104D01*
X162690476Y-94869819D02*
X163023809Y-93869819D01*
X163023809Y-93869819D02*
X163357142Y-94869819D01*
X164166666Y-93869819D02*
X163690476Y-93869819D01*
X163690476Y-93869819D02*
X163642857Y-94346009D01*
X163642857Y-94346009D02*
X163690476Y-94298390D01*
X163690476Y-94298390D02*
X163785714Y-94250771D01*
X163785714Y-94250771D02*
X164023809Y-94250771D01*
X164023809Y-94250771D02*
X164119047Y-94298390D01*
X164119047Y-94298390D02*
X164166666Y-94346009D01*
X164166666Y-94346009D02*
X164214285Y-94441247D01*
X164214285Y-94441247D02*
X164214285Y-94679342D01*
X164214285Y-94679342D02*
X164166666Y-94774580D01*
X164166666Y-94774580D02*
X164119047Y-94822200D01*
X164119047Y-94822200D02*
X164023809Y-94869819D01*
X164023809Y-94869819D02*
X163785714Y-94869819D01*
X163785714Y-94869819D02*
X163690476Y-94822200D01*
X163690476Y-94822200D02*
X163642857Y-94774580D01*
X144379819Y-80990476D02*
X144379819Y-81561904D01*
X144379819Y-81276190D02*
X143379819Y-81276190D01*
X143379819Y-81276190D02*
X143522676Y-81371428D01*
X143522676Y-81371428D02*
X143617914Y-81466666D01*
X143617914Y-81466666D02*
X143665533Y-81561904D01*
X144379819Y-80561904D02*
X143379819Y-80561904D01*
X144379819Y-79990476D02*
X143808390Y-80419047D01*
X143379819Y-79990476D02*
X143951247Y-80561904D01*
X143808390Y-79419047D02*
X143760771Y-79514285D01*
X143760771Y-79514285D02*
X143713152Y-79561904D01*
X143713152Y-79561904D02*
X143617914Y-79609523D01*
X143617914Y-79609523D02*
X143570295Y-79609523D01*
X143570295Y-79609523D02*
X143475057Y-79561904D01*
X143475057Y-79561904D02*
X143427438Y-79514285D01*
X143427438Y-79514285D02*
X143379819Y-79419047D01*
X143379819Y-79419047D02*
X143379819Y-79228571D01*
X143379819Y-79228571D02*
X143427438Y-79133333D01*
X143427438Y-79133333D02*
X143475057Y-79085714D01*
X143475057Y-79085714D02*
X143570295Y-79038095D01*
X143570295Y-79038095D02*
X143617914Y-79038095D01*
X143617914Y-79038095D02*
X143713152Y-79085714D01*
X143713152Y-79085714D02*
X143760771Y-79133333D01*
X143760771Y-79133333D02*
X143808390Y-79228571D01*
X143808390Y-79228571D02*
X143808390Y-79419047D01*
X143808390Y-79419047D02*
X143856009Y-79514285D01*
X143856009Y-79514285D02*
X143903628Y-79561904D01*
X143903628Y-79561904D02*
X143998866Y-79609523D01*
X143998866Y-79609523D02*
X144189342Y-79609523D01*
X144189342Y-79609523D02*
X144284580Y-79561904D01*
X144284580Y-79561904D02*
X144332200Y-79514285D01*
X144332200Y-79514285D02*
X144379819Y-79419047D01*
X144379819Y-79419047D02*
X144379819Y-79228571D01*
X144379819Y-79228571D02*
X144332200Y-79133333D01*
X144332200Y-79133333D02*
X144284580Y-79085714D01*
X144284580Y-79085714D02*
X144189342Y-79038095D01*
X144189342Y-79038095D02*
X143998866Y-79038095D01*
X143998866Y-79038095D02*
X143903628Y-79085714D01*
X143903628Y-79085714D02*
X143856009Y-79133333D01*
X143856009Y-79133333D02*
X143808390Y-79228571D01*
X141029819Y-80990476D02*
X141029819Y-81561904D01*
X141029819Y-81276190D02*
X140029819Y-81276190D01*
X140029819Y-81276190D02*
X140172676Y-81371428D01*
X140172676Y-81371428D02*
X140267914Y-81466666D01*
X140267914Y-81466666D02*
X140315533Y-81561904D01*
X141029819Y-80561904D02*
X140029819Y-80561904D01*
X141029819Y-79990476D02*
X140458390Y-80419047D01*
X140029819Y-79990476D02*
X140601247Y-80561904D01*
X140458390Y-79419047D02*
X140410771Y-79514285D01*
X140410771Y-79514285D02*
X140363152Y-79561904D01*
X140363152Y-79561904D02*
X140267914Y-79609523D01*
X140267914Y-79609523D02*
X140220295Y-79609523D01*
X140220295Y-79609523D02*
X140125057Y-79561904D01*
X140125057Y-79561904D02*
X140077438Y-79514285D01*
X140077438Y-79514285D02*
X140029819Y-79419047D01*
X140029819Y-79419047D02*
X140029819Y-79228571D01*
X140029819Y-79228571D02*
X140077438Y-79133333D01*
X140077438Y-79133333D02*
X140125057Y-79085714D01*
X140125057Y-79085714D02*
X140220295Y-79038095D01*
X140220295Y-79038095D02*
X140267914Y-79038095D01*
X140267914Y-79038095D02*
X140363152Y-79085714D01*
X140363152Y-79085714D02*
X140410771Y-79133333D01*
X140410771Y-79133333D02*
X140458390Y-79228571D01*
X140458390Y-79228571D02*
X140458390Y-79419047D01*
X140458390Y-79419047D02*
X140506009Y-79514285D01*
X140506009Y-79514285D02*
X140553628Y-79561904D01*
X140553628Y-79561904D02*
X140648866Y-79609523D01*
X140648866Y-79609523D02*
X140839342Y-79609523D01*
X140839342Y-79609523D02*
X140934580Y-79561904D01*
X140934580Y-79561904D02*
X140982200Y-79514285D01*
X140982200Y-79514285D02*
X141029819Y-79419047D01*
X141029819Y-79419047D02*
X141029819Y-79228571D01*
X141029819Y-79228571D02*
X140982200Y-79133333D01*
X140982200Y-79133333D02*
X140934580Y-79085714D01*
X140934580Y-79085714D02*
X140839342Y-79038095D01*
X140839342Y-79038095D02*
X140648866Y-79038095D01*
X140648866Y-79038095D02*
X140553628Y-79085714D01*
X140553628Y-79085714D02*
X140506009Y-79133333D01*
X140506009Y-79133333D02*
X140458390Y-79228571D01*
X137504819Y-80990476D02*
X137504819Y-81561904D01*
X137504819Y-81276190D02*
X136504819Y-81276190D01*
X136504819Y-81276190D02*
X136647676Y-81371428D01*
X136647676Y-81371428D02*
X136742914Y-81466666D01*
X136742914Y-81466666D02*
X136790533Y-81561904D01*
X137504819Y-80561904D02*
X136504819Y-80561904D01*
X137504819Y-79990476D02*
X136933390Y-80419047D01*
X136504819Y-79990476D02*
X137076247Y-80561904D01*
X136933390Y-79419047D02*
X136885771Y-79514285D01*
X136885771Y-79514285D02*
X136838152Y-79561904D01*
X136838152Y-79561904D02*
X136742914Y-79609523D01*
X136742914Y-79609523D02*
X136695295Y-79609523D01*
X136695295Y-79609523D02*
X136600057Y-79561904D01*
X136600057Y-79561904D02*
X136552438Y-79514285D01*
X136552438Y-79514285D02*
X136504819Y-79419047D01*
X136504819Y-79419047D02*
X136504819Y-79228571D01*
X136504819Y-79228571D02*
X136552438Y-79133333D01*
X136552438Y-79133333D02*
X136600057Y-79085714D01*
X136600057Y-79085714D02*
X136695295Y-79038095D01*
X136695295Y-79038095D02*
X136742914Y-79038095D01*
X136742914Y-79038095D02*
X136838152Y-79085714D01*
X136838152Y-79085714D02*
X136885771Y-79133333D01*
X136885771Y-79133333D02*
X136933390Y-79228571D01*
X136933390Y-79228571D02*
X136933390Y-79419047D01*
X136933390Y-79419047D02*
X136981009Y-79514285D01*
X136981009Y-79514285D02*
X137028628Y-79561904D01*
X137028628Y-79561904D02*
X137123866Y-79609523D01*
X137123866Y-79609523D02*
X137314342Y-79609523D01*
X137314342Y-79609523D02*
X137409580Y-79561904D01*
X137409580Y-79561904D02*
X137457200Y-79514285D01*
X137457200Y-79514285D02*
X137504819Y-79419047D01*
X137504819Y-79419047D02*
X137504819Y-79228571D01*
X137504819Y-79228571D02*
X137457200Y-79133333D01*
X137457200Y-79133333D02*
X137409580Y-79085714D01*
X137409580Y-79085714D02*
X137314342Y-79038095D01*
X137314342Y-79038095D02*
X137123866Y-79038095D01*
X137123866Y-79038095D02*
X137028628Y-79085714D01*
X137028628Y-79085714D02*
X136981009Y-79133333D01*
X136981009Y-79133333D02*
X136933390Y-79228571D01*
X134079819Y-80940476D02*
X134079819Y-81511904D01*
X134079819Y-81226190D02*
X133079819Y-81226190D01*
X133079819Y-81226190D02*
X133222676Y-81321428D01*
X133222676Y-81321428D02*
X133317914Y-81416666D01*
X133317914Y-81416666D02*
X133365533Y-81511904D01*
X134079819Y-80511904D02*
X133079819Y-80511904D01*
X134079819Y-79940476D02*
X133508390Y-80369047D01*
X133079819Y-79940476D02*
X133651247Y-80511904D01*
X133508390Y-79369047D02*
X133460771Y-79464285D01*
X133460771Y-79464285D02*
X133413152Y-79511904D01*
X133413152Y-79511904D02*
X133317914Y-79559523D01*
X133317914Y-79559523D02*
X133270295Y-79559523D01*
X133270295Y-79559523D02*
X133175057Y-79511904D01*
X133175057Y-79511904D02*
X133127438Y-79464285D01*
X133127438Y-79464285D02*
X133079819Y-79369047D01*
X133079819Y-79369047D02*
X133079819Y-79178571D01*
X133079819Y-79178571D02*
X133127438Y-79083333D01*
X133127438Y-79083333D02*
X133175057Y-79035714D01*
X133175057Y-79035714D02*
X133270295Y-78988095D01*
X133270295Y-78988095D02*
X133317914Y-78988095D01*
X133317914Y-78988095D02*
X133413152Y-79035714D01*
X133413152Y-79035714D02*
X133460771Y-79083333D01*
X133460771Y-79083333D02*
X133508390Y-79178571D01*
X133508390Y-79178571D02*
X133508390Y-79369047D01*
X133508390Y-79369047D02*
X133556009Y-79464285D01*
X133556009Y-79464285D02*
X133603628Y-79511904D01*
X133603628Y-79511904D02*
X133698866Y-79559523D01*
X133698866Y-79559523D02*
X133889342Y-79559523D01*
X133889342Y-79559523D02*
X133984580Y-79511904D01*
X133984580Y-79511904D02*
X134032200Y-79464285D01*
X134032200Y-79464285D02*
X134079819Y-79369047D01*
X134079819Y-79369047D02*
X134079819Y-79178571D01*
X134079819Y-79178571D02*
X134032200Y-79083333D01*
X134032200Y-79083333D02*
X133984580Y-79035714D01*
X133984580Y-79035714D02*
X133889342Y-78988095D01*
X133889342Y-78988095D02*
X133698866Y-78988095D01*
X133698866Y-78988095D02*
X133603628Y-79035714D01*
X133603628Y-79035714D02*
X133556009Y-79083333D01*
X133556009Y-79083333D02*
X133508390Y-79178571D01*
X143479819Y-90138095D02*
X143479819Y-90328571D01*
X143479819Y-90328571D02*
X143527438Y-90423809D01*
X143527438Y-90423809D02*
X143575057Y-90471428D01*
X143575057Y-90471428D02*
X143717914Y-90566666D01*
X143717914Y-90566666D02*
X143908390Y-90614285D01*
X143908390Y-90614285D02*
X144289342Y-90614285D01*
X144289342Y-90614285D02*
X144384580Y-90566666D01*
X144384580Y-90566666D02*
X144432200Y-90519047D01*
X144432200Y-90519047D02*
X144479819Y-90423809D01*
X144479819Y-90423809D02*
X144479819Y-90233333D01*
X144479819Y-90233333D02*
X144432200Y-90138095D01*
X144432200Y-90138095D02*
X144384580Y-90090476D01*
X144384580Y-90090476D02*
X144289342Y-90042857D01*
X144289342Y-90042857D02*
X144051247Y-90042857D01*
X144051247Y-90042857D02*
X143956009Y-90090476D01*
X143956009Y-90090476D02*
X143908390Y-90138095D01*
X143908390Y-90138095D02*
X143860771Y-90233333D01*
X143860771Y-90233333D02*
X143860771Y-90423809D01*
X143860771Y-90423809D02*
X143908390Y-90519047D01*
X143908390Y-90519047D02*
X143956009Y-90566666D01*
X143956009Y-90566666D02*
X144051247Y-90614285D01*
X143908390Y-89471428D02*
X143860771Y-89566666D01*
X143860771Y-89566666D02*
X143813152Y-89614285D01*
X143813152Y-89614285D02*
X143717914Y-89661904D01*
X143717914Y-89661904D02*
X143670295Y-89661904D01*
X143670295Y-89661904D02*
X143575057Y-89614285D01*
X143575057Y-89614285D02*
X143527438Y-89566666D01*
X143527438Y-89566666D02*
X143479819Y-89471428D01*
X143479819Y-89471428D02*
X143479819Y-89280952D01*
X143479819Y-89280952D02*
X143527438Y-89185714D01*
X143527438Y-89185714D02*
X143575057Y-89138095D01*
X143575057Y-89138095D02*
X143670295Y-89090476D01*
X143670295Y-89090476D02*
X143717914Y-89090476D01*
X143717914Y-89090476D02*
X143813152Y-89138095D01*
X143813152Y-89138095D02*
X143860771Y-89185714D01*
X143860771Y-89185714D02*
X143908390Y-89280952D01*
X143908390Y-89280952D02*
X143908390Y-89471428D01*
X143908390Y-89471428D02*
X143956009Y-89566666D01*
X143956009Y-89566666D02*
X144003628Y-89614285D01*
X144003628Y-89614285D02*
X144098866Y-89661904D01*
X144098866Y-89661904D02*
X144289342Y-89661904D01*
X144289342Y-89661904D02*
X144384580Y-89614285D01*
X144384580Y-89614285D02*
X144432200Y-89566666D01*
X144432200Y-89566666D02*
X144479819Y-89471428D01*
X144479819Y-89471428D02*
X144479819Y-89280952D01*
X144479819Y-89280952D02*
X144432200Y-89185714D01*
X144432200Y-89185714D02*
X144384580Y-89138095D01*
X144384580Y-89138095D02*
X144289342Y-89090476D01*
X144289342Y-89090476D02*
X144098866Y-89090476D01*
X144098866Y-89090476D02*
X144003628Y-89138095D01*
X144003628Y-89138095D02*
X143956009Y-89185714D01*
X143956009Y-89185714D02*
X143908390Y-89280952D01*
X143813152Y-88661904D02*
X144479819Y-88661904D01*
X143908390Y-88661904D02*
X143860771Y-88614285D01*
X143860771Y-88614285D02*
X143813152Y-88519047D01*
X143813152Y-88519047D02*
X143813152Y-88376190D01*
X143813152Y-88376190D02*
X143860771Y-88280952D01*
X143860771Y-88280952D02*
X143956009Y-88233333D01*
X143956009Y-88233333D02*
X144479819Y-88233333D01*
X139929819Y-90138095D02*
X139929819Y-90328571D01*
X139929819Y-90328571D02*
X139977438Y-90423809D01*
X139977438Y-90423809D02*
X140025057Y-90471428D01*
X140025057Y-90471428D02*
X140167914Y-90566666D01*
X140167914Y-90566666D02*
X140358390Y-90614285D01*
X140358390Y-90614285D02*
X140739342Y-90614285D01*
X140739342Y-90614285D02*
X140834580Y-90566666D01*
X140834580Y-90566666D02*
X140882200Y-90519047D01*
X140882200Y-90519047D02*
X140929819Y-90423809D01*
X140929819Y-90423809D02*
X140929819Y-90233333D01*
X140929819Y-90233333D02*
X140882200Y-90138095D01*
X140882200Y-90138095D02*
X140834580Y-90090476D01*
X140834580Y-90090476D02*
X140739342Y-90042857D01*
X140739342Y-90042857D02*
X140501247Y-90042857D01*
X140501247Y-90042857D02*
X140406009Y-90090476D01*
X140406009Y-90090476D02*
X140358390Y-90138095D01*
X140358390Y-90138095D02*
X140310771Y-90233333D01*
X140310771Y-90233333D02*
X140310771Y-90423809D01*
X140310771Y-90423809D02*
X140358390Y-90519047D01*
X140358390Y-90519047D02*
X140406009Y-90566666D01*
X140406009Y-90566666D02*
X140501247Y-90614285D01*
X140358390Y-89471428D02*
X140310771Y-89566666D01*
X140310771Y-89566666D02*
X140263152Y-89614285D01*
X140263152Y-89614285D02*
X140167914Y-89661904D01*
X140167914Y-89661904D02*
X140120295Y-89661904D01*
X140120295Y-89661904D02*
X140025057Y-89614285D01*
X140025057Y-89614285D02*
X139977438Y-89566666D01*
X139977438Y-89566666D02*
X139929819Y-89471428D01*
X139929819Y-89471428D02*
X139929819Y-89280952D01*
X139929819Y-89280952D02*
X139977438Y-89185714D01*
X139977438Y-89185714D02*
X140025057Y-89138095D01*
X140025057Y-89138095D02*
X140120295Y-89090476D01*
X140120295Y-89090476D02*
X140167914Y-89090476D01*
X140167914Y-89090476D02*
X140263152Y-89138095D01*
X140263152Y-89138095D02*
X140310771Y-89185714D01*
X140310771Y-89185714D02*
X140358390Y-89280952D01*
X140358390Y-89280952D02*
X140358390Y-89471428D01*
X140358390Y-89471428D02*
X140406009Y-89566666D01*
X140406009Y-89566666D02*
X140453628Y-89614285D01*
X140453628Y-89614285D02*
X140548866Y-89661904D01*
X140548866Y-89661904D02*
X140739342Y-89661904D01*
X140739342Y-89661904D02*
X140834580Y-89614285D01*
X140834580Y-89614285D02*
X140882200Y-89566666D01*
X140882200Y-89566666D02*
X140929819Y-89471428D01*
X140929819Y-89471428D02*
X140929819Y-89280952D01*
X140929819Y-89280952D02*
X140882200Y-89185714D01*
X140882200Y-89185714D02*
X140834580Y-89138095D01*
X140834580Y-89138095D02*
X140739342Y-89090476D01*
X140739342Y-89090476D02*
X140548866Y-89090476D01*
X140548866Y-89090476D02*
X140453628Y-89138095D01*
X140453628Y-89138095D02*
X140406009Y-89185714D01*
X140406009Y-89185714D02*
X140358390Y-89280952D01*
X140263152Y-88661904D02*
X140929819Y-88661904D01*
X140358390Y-88661904D02*
X140310771Y-88614285D01*
X140310771Y-88614285D02*
X140263152Y-88519047D01*
X140263152Y-88519047D02*
X140263152Y-88376190D01*
X140263152Y-88376190D02*
X140310771Y-88280952D01*
X140310771Y-88280952D02*
X140406009Y-88233333D01*
X140406009Y-88233333D02*
X140929819Y-88233333D01*
X133004819Y-90088095D02*
X133004819Y-90278571D01*
X133004819Y-90278571D02*
X133052438Y-90373809D01*
X133052438Y-90373809D02*
X133100057Y-90421428D01*
X133100057Y-90421428D02*
X133242914Y-90516666D01*
X133242914Y-90516666D02*
X133433390Y-90564285D01*
X133433390Y-90564285D02*
X133814342Y-90564285D01*
X133814342Y-90564285D02*
X133909580Y-90516666D01*
X133909580Y-90516666D02*
X133957200Y-90469047D01*
X133957200Y-90469047D02*
X134004819Y-90373809D01*
X134004819Y-90373809D02*
X134004819Y-90183333D01*
X134004819Y-90183333D02*
X133957200Y-90088095D01*
X133957200Y-90088095D02*
X133909580Y-90040476D01*
X133909580Y-90040476D02*
X133814342Y-89992857D01*
X133814342Y-89992857D02*
X133576247Y-89992857D01*
X133576247Y-89992857D02*
X133481009Y-90040476D01*
X133481009Y-90040476D02*
X133433390Y-90088095D01*
X133433390Y-90088095D02*
X133385771Y-90183333D01*
X133385771Y-90183333D02*
X133385771Y-90373809D01*
X133385771Y-90373809D02*
X133433390Y-90469047D01*
X133433390Y-90469047D02*
X133481009Y-90516666D01*
X133481009Y-90516666D02*
X133576247Y-90564285D01*
X133433390Y-89421428D02*
X133385771Y-89516666D01*
X133385771Y-89516666D02*
X133338152Y-89564285D01*
X133338152Y-89564285D02*
X133242914Y-89611904D01*
X133242914Y-89611904D02*
X133195295Y-89611904D01*
X133195295Y-89611904D02*
X133100057Y-89564285D01*
X133100057Y-89564285D02*
X133052438Y-89516666D01*
X133052438Y-89516666D02*
X133004819Y-89421428D01*
X133004819Y-89421428D02*
X133004819Y-89230952D01*
X133004819Y-89230952D02*
X133052438Y-89135714D01*
X133052438Y-89135714D02*
X133100057Y-89088095D01*
X133100057Y-89088095D02*
X133195295Y-89040476D01*
X133195295Y-89040476D02*
X133242914Y-89040476D01*
X133242914Y-89040476D02*
X133338152Y-89088095D01*
X133338152Y-89088095D02*
X133385771Y-89135714D01*
X133385771Y-89135714D02*
X133433390Y-89230952D01*
X133433390Y-89230952D02*
X133433390Y-89421428D01*
X133433390Y-89421428D02*
X133481009Y-89516666D01*
X133481009Y-89516666D02*
X133528628Y-89564285D01*
X133528628Y-89564285D02*
X133623866Y-89611904D01*
X133623866Y-89611904D02*
X133814342Y-89611904D01*
X133814342Y-89611904D02*
X133909580Y-89564285D01*
X133909580Y-89564285D02*
X133957200Y-89516666D01*
X133957200Y-89516666D02*
X134004819Y-89421428D01*
X134004819Y-89421428D02*
X134004819Y-89230952D01*
X134004819Y-89230952D02*
X133957200Y-89135714D01*
X133957200Y-89135714D02*
X133909580Y-89088095D01*
X133909580Y-89088095D02*
X133814342Y-89040476D01*
X133814342Y-89040476D02*
X133623866Y-89040476D01*
X133623866Y-89040476D02*
X133528628Y-89088095D01*
X133528628Y-89088095D02*
X133481009Y-89135714D01*
X133481009Y-89135714D02*
X133433390Y-89230952D01*
X133338152Y-88611904D02*
X134004819Y-88611904D01*
X133433390Y-88611904D02*
X133385771Y-88564285D01*
X133385771Y-88564285D02*
X133338152Y-88469047D01*
X133338152Y-88469047D02*
X133338152Y-88326190D01*
X133338152Y-88326190D02*
X133385771Y-88230952D01*
X133385771Y-88230952D02*
X133481009Y-88183333D01*
X133481009Y-88183333D02*
X134004819Y-88183333D01*
X136429819Y-90013095D02*
X136429819Y-90203571D01*
X136429819Y-90203571D02*
X136477438Y-90298809D01*
X136477438Y-90298809D02*
X136525057Y-90346428D01*
X136525057Y-90346428D02*
X136667914Y-90441666D01*
X136667914Y-90441666D02*
X136858390Y-90489285D01*
X136858390Y-90489285D02*
X137239342Y-90489285D01*
X137239342Y-90489285D02*
X137334580Y-90441666D01*
X137334580Y-90441666D02*
X137382200Y-90394047D01*
X137382200Y-90394047D02*
X137429819Y-90298809D01*
X137429819Y-90298809D02*
X137429819Y-90108333D01*
X137429819Y-90108333D02*
X137382200Y-90013095D01*
X137382200Y-90013095D02*
X137334580Y-89965476D01*
X137334580Y-89965476D02*
X137239342Y-89917857D01*
X137239342Y-89917857D02*
X137001247Y-89917857D01*
X137001247Y-89917857D02*
X136906009Y-89965476D01*
X136906009Y-89965476D02*
X136858390Y-90013095D01*
X136858390Y-90013095D02*
X136810771Y-90108333D01*
X136810771Y-90108333D02*
X136810771Y-90298809D01*
X136810771Y-90298809D02*
X136858390Y-90394047D01*
X136858390Y-90394047D02*
X136906009Y-90441666D01*
X136906009Y-90441666D02*
X137001247Y-90489285D01*
X136858390Y-89346428D02*
X136810771Y-89441666D01*
X136810771Y-89441666D02*
X136763152Y-89489285D01*
X136763152Y-89489285D02*
X136667914Y-89536904D01*
X136667914Y-89536904D02*
X136620295Y-89536904D01*
X136620295Y-89536904D02*
X136525057Y-89489285D01*
X136525057Y-89489285D02*
X136477438Y-89441666D01*
X136477438Y-89441666D02*
X136429819Y-89346428D01*
X136429819Y-89346428D02*
X136429819Y-89155952D01*
X136429819Y-89155952D02*
X136477438Y-89060714D01*
X136477438Y-89060714D02*
X136525057Y-89013095D01*
X136525057Y-89013095D02*
X136620295Y-88965476D01*
X136620295Y-88965476D02*
X136667914Y-88965476D01*
X136667914Y-88965476D02*
X136763152Y-89013095D01*
X136763152Y-89013095D02*
X136810771Y-89060714D01*
X136810771Y-89060714D02*
X136858390Y-89155952D01*
X136858390Y-89155952D02*
X136858390Y-89346428D01*
X136858390Y-89346428D02*
X136906009Y-89441666D01*
X136906009Y-89441666D02*
X136953628Y-89489285D01*
X136953628Y-89489285D02*
X137048866Y-89536904D01*
X137048866Y-89536904D02*
X137239342Y-89536904D01*
X137239342Y-89536904D02*
X137334580Y-89489285D01*
X137334580Y-89489285D02*
X137382200Y-89441666D01*
X137382200Y-89441666D02*
X137429819Y-89346428D01*
X137429819Y-89346428D02*
X137429819Y-89155952D01*
X137429819Y-89155952D02*
X137382200Y-89060714D01*
X137382200Y-89060714D02*
X137334580Y-89013095D01*
X137334580Y-89013095D02*
X137239342Y-88965476D01*
X137239342Y-88965476D02*
X137048866Y-88965476D01*
X137048866Y-88965476D02*
X136953628Y-89013095D01*
X136953628Y-89013095D02*
X136906009Y-89060714D01*
X136906009Y-89060714D02*
X136858390Y-89155952D01*
X136763152Y-88536904D02*
X137429819Y-88536904D01*
X136858390Y-88536904D02*
X136810771Y-88489285D01*
X136810771Y-88489285D02*
X136763152Y-88394047D01*
X136763152Y-88394047D02*
X136763152Y-88251190D01*
X136763152Y-88251190D02*
X136810771Y-88155952D01*
X136810771Y-88155952D02*
X136906009Y-88108333D01*
X136906009Y-88108333D02*
X137429819Y-88108333D01*
X124114819Y-73593333D02*
X124829104Y-73593333D01*
X124829104Y-73593333D02*
X124971961Y-73640952D01*
X124971961Y-73640952D02*
X125067200Y-73736190D01*
X125067200Y-73736190D02*
X125114819Y-73879047D01*
X125114819Y-73879047D02*
X125114819Y-73974285D01*
X124114819Y-72640952D02*
X124114819Y-73117142D01*
X124114819Y-73117142D02*
X124591009Y-73164761D01*
X124591009Y-73164761D02*
X124543390Y-73117142D01*
X124543390Y-73117142D02*
X124495771Y-73021904D01*
X124495771Y-73021904D02*
X124495771Y-72783809D01*
X124495771Y-72783809D02*
X124543390Y-72688571D01*
X124543390Y-72688571D02*
X124591009Y-72640952D01*
X124591009Y-72640952D02*
X124686247Y-72593333D01*
X124686247Y-72593333D02*
X124924342Y-72593333D01*
X124924342Y-72593333D02*
X125019580Y-72640952D01*
X125019580Y-72640952D02*
X125067200Y-72688571D01*
X125067200Y-72688571D02*
X125114819Y-72783809D01*
X125114819Y-72783809D02*
X125114819Y-73021904D01*
X125114819Y-73021904D02*
X125067200Y-73117142D01*
X125067200Y-73117142D02*
X125019580Y-73164761D01*
X151834819Y-73733333D02*
X152549104Y-73733333D01*
X152549104Y-73733333D02*
X152691961Y-73780952D01*
X152691961Y-73780952D02*
X152787200Y-73876190D01*
X152787200Y-73876190D02*
X152834819Y-74019047D01*
X152834819Y-74019047D02*
X152834819Y-74114285D01*
X151834819Y-72828571D02*
X151834819Y-73019047D01*
X151834819Y-73019047D02*
X151882438Y-73114285D01*
X151882438Y-73114285D02*
X151930057Y-73161904D01*
X151930057Y-73161904D02*
X152072914Y-73257142D01*
X152072914Y-73257142D02*
X152263390Y-73304761D01*
X152263390Y-73304761D02*
X152644342Y-73304761D01*
X152644342Y-73304761D02*
X152739580Y-73257142D01*
X152739580Y-73257142D02*
X152787200Y-73209523D01*
X152787200Y-73209523D02*
X152834819Y-73114285D01*
X152834819Y-73114285D02*
X152834819Y-72923809D01*
X152834819Y-72923809D02*
X152787200Y-72828571D01*
X152787200Y-72828571D02*
X152739580Y-72780952D01*
X152739580Y-72780952D02*
X152644342Y-72733333D01*
X152644342Y-72733333D02*
X152406247Y-72733333D01*
X152406247Y-72733333D02*
X152311009Y-72780952D01*
X152311009Y-72780952D02*
X152263390Y-72828571D01*
X152263390Y-72828571D02*
X152215771Y-72923809D01*
X152215771Y-72923809D02*
X152215771Y-73114285D01*
X152215771Y-73114285D02*
X152263390Y-73209523D01*
X152263390Y-73209523D02*
X152311009Y-73257142D01*
X152311009Y-73257142D02*
X152406247Y-73304761D01*
D11*
%TO.C,R4*%
X142630000Y-83460000D02*
X142630000Y-76920000D01*
X142960000Y-83460000D02*
X142630000Y-83460000D01*
X145040000Y-83460000D02*
X145370000Y-83460000D01*
X145370000Y-83460000D02*
X145370000Y-76920000D01*
X142630000Y-76920000D02*
X142960000Y-76920000D01*
X145370000Y-76920000D02*
X145040000Y-76920000D01*
%TO.C,R3*%
X139130000Y-83460000D02*
X139130000Y-76920000D01*
X139460000Y-83460000D02*
X139130000Y-83460000D01*
X141540000Y-83460000D02*
X141870000Y-83460000D01*
X141870000Y-83460000D02*
X141870000Y-76920000D01*
X139130000Y-76920000D02*
X139460000Y-76920000D01*
X141870000Y-76920000D02*
X141540000Y-76920000D01*
%TO.C,R2*%
X135630000Y-83460000D02*
X135630000Y-76920000D01*
X135960000Y-83460000D02*
X135630000Y-83460000D01*
X138040000Y-83460000D02*
X138370000Y-83460000D01*
X138370000Y-83460000D02*
X138370000Y-76920000D01*
X135630000Y-76920000D02*
X135960000Y-76920000D01*
X138370000Y-76920000D02*
X138040000Y-76920000D01*
%TO.C,R1*%
X132130000Y-83460000D02*
X132130000Y-76920000D01*
X132460000Y-83460000D02*
X132130000Y-83460000D01*
X134540000Y-83460000D02*
X134870000Y-83460000D01*
X134870000Y-83460000D02*
X134870000Y-76920000D01*
X132130000Y-76920000D02*
X132460000Y-76920000D01*
X134870000Y-76920000D02*
X134540000Y-76920000D01*
%TO.C,C4*%
X145370000Y-85880000D02*
X142630000Y-85880000D01*
X145370000Y-85880000D02*
X145370000Y-93120000D01*
X142630000Y-85880000D02*
X142630000Y-93120000D01*
X145370000Y-93120000D02*
X142630000Y-93120000D01*
%TO.C,C3*%
X141870000Y-85880000D02*
X139130000Y-85880000D01*
X141870000Y-85880000D02*
X141870000Y-93120000D01*
X139130000Y-85880000D02*
X139130000Y-93120000D01*
X141870000Y-93120000D02*
X139130000Y-93120000D01*
%TO.C,C2*%
X134870000Y-85880000D02*
X132130000Y-85880000D01*
X134870000Y-85880000D02*
X134870000Y-93120000D01*
X132130000Y-85880000D02*
X132130000Y-93120000D01*
X134870000Y-93120000D02*
X132130000Y-93120000D01*
%TO.C,C1*%
X138370000Y-85880000D02*
X135630000Y-85880000D01*
X138370000Y-85880000D02*
X138370000Y-93120000D01*
X135630000Y-85880000D02*
X135630000Y-93120000D01*
X138370000Y-93120000D02*
X135630000Y-93120000D01*
%TO.C,J1*%
X126610000Y-96130000D02*
X127940000Y-96130000D01*
X126610000Y-97460000D02*
X126610000Y-96130000D01*
X129210000Y-96130000D02*
X147050000Y-96130000D01*
X129210000Y-98790000D02*
X129210000Y-96130000D01*
X129210000Y-98790000D02*
X147050000Y-98790000D01*
X147050000Y-98790000D02*
X147050000Y-96130000D01*
%TO.C,J3*%
X149470000Y-96130000D02*
X150800000Y-96130000D01*
X149470000Y-97460000D02*
X149470000Y-96130000D01*
X152070000Y-96130000D02*
X164830000Y-96130000D01*
X152070000Y-98790000D02*
X152070000Y-96130000D01*
X152070000Y-98790000D02*
X164830000Y-98790000D01*
X164830000Y-98790000D02*
X164830000Y-96130000D01*
%TO.C,J2*%
X117466000Y-47870000D02*
X118796000Y-47870000D01*
X117466000Y-49200000D02*
X117466000Y-47870000D01*
X120066000Y-47870000D02*
X142986000Y-47870000D01*
X120066000Y-50530000D02*
X120066000Y-47870000D01*
X120066000Y-50530000D02*
X142986000Y-50530000D01*
X142986000Y-50530000D02*
X142986000Y-47870000D01*
%TO.C,J4*%
X144390000Y-47870000D02*
X145720000Y-47870000D01*
X144390000Y-49200000D02*
X144390000Y-47870000D01*
X146990000Y-47870000D02*
X164830000Y-47870000D01*
X146990000Y-50530000D02*
X146990000Y-47870000D01*
X146990000Y-50530000D02*
X164830000Y-50530000D01*
X164830000Y-50530000D02*
X164830000Y-47870000D01*
%TO.C,J5*%
X111380000Y-57775000D02*
X123720000Y-57775000D01*
X123720000Y-57775000D02*
X123720000Y-88745000D01*
X123720000Y-88745000D02*
X111380000Y-88745000D01*
X124181325Y-67720000D02*
X124614338Y-67470000D01*
X124614338Y-67470000D02*
X124614338Y-67970000D01*
X124614338Y-67970000D02*
X124181325Y-67720000D01*
%TO.C,J6*%
X152425662Y-78690000D02*
X152858675Y-78940000D01*
X152425662Y-79190000D02*
X152425662Y-78690000D01*
X152858675Y-78940000D02*
X152425662Y-79190000D01*
X153320000Y-57915000D02*
X165660000Y-57915000D01*
X153320000Y-88885000D02*
X153320000Y-57915000D01*
X165660000Y-88885000D02*
X153320000Y-88885000D01*
%TD*%
M02*
