M48
; DRILL file {KiCad 8.0.7} date 2025-05-28T21:32:17+0100
; FORMAT={-:-/ absolute / inch / decimal}
; #@! TF.CreationDate,2025-05-28T21:32:17+01:00
; #@! TF.GenerationSoftware,Kicad,Pcbnew,8.0.7
; #@! TF.FileFunction,MixedPlating,1,2
FMAT,2
INCH
; #@! TA.AperFunction,Plated,PTH,ViaDrill
T1C0.0157
; #@! TA.AperFunction,Plated,PTH,ComponentDrill
T2C0.0315
; #@! TA.AperFunction,Plated,PTH,ComponentDrill
T3C0.0394
; #@! TA.AperFunction,Plated,PTH,ComponentDrill
T4C0.1260
; #@! TA.AperFunction,NonPlated,NPTH,ComponentDrill
T5C0.1260
%
G90
G05
T1
X4.7618Y-3.7224
X4.8945Y-2.3323
X5.0974Y-3.7667
X5.2884Y-3.7657
X5.3169Y-2.8685
X5.6937Y-2.5594
X5.7094Y-2.1165
X5.8366Y-3.3012
X6.1073Y-3.5541
X6.2352Y-3.7156
X6.2685Y-2.5488
X6.272Y-3.2961
X6.2854Y-2.0551
X6.4378Y-3.6933
X6.4559Y-2.0551
X6.463Y-3.3004
T2
X5.2559Y-3.0071
X5.2559Y-3.3071
X5.2559Y-3.4252
X5.2559Y-3.622
X5.3937Y-3.0071
X5.3937Y-3.3071
X5.3937Y-3.4252
X5.3937Y-3.622
X5.5315Y-3.0071
X5.5315Y-3.3071
X5.5315Y-3.4252
X5.5315Y-3.622
X5.6693Y-3.0071
X5.6693Y-3.3071
X5.6693Y-3.4252
X5.6693Y-3.622
T3
X4.677Y-1.937
X4.6858Y-2.7207
X4.6858Y-2.8297
X4.6858Y-2.9388
X4.6858Y-3.0478
X4.777Y-1.937
X4.7976Y-2.6661
X4.7976Y-2.7752
X4.7976Y-2.8843
X4.7976Y-2.9933
X4.7976Y-3.1024
X4.877Y-1.937
X4.977Y-1.937
X5.037Y-3.837
X5.077Y-1.937
X5.137Y-3.837
X5.177Y-1.937
X5.237Y-3.837
X5.277Y-1.937
X5.337Y-3.837
X5.377Y-1.937
X5.437Y-3.837
X5.477Y-1.937
X5.537Y-3.837
X5.577Y-1.937
X5.637Y-3.837
X5.737Y-1.937
X5.737Y-3.837
X5.837Y-1.937
X5.937Y-1.937
X5.937Y-3.837
X6.037Y-1.937
X6.037Y-3.837
X6.1094Y-2.6717
X6.1094Y-2.7807
X6.1094Y-2.8898
X6.1094Y-2.9988
X6.1094Y-3.1079
X6.137Y-1.937
X6.137Y-3.837
X6.2213Y-2.7262
X6.2213Y-2.8352
X6.2213Y-2.9443
X6.2213Y-3.0533
X6.237Y-1.937
X6.237Y-3.837
X6.337Y-1.937
X6.337Y-3.837
X6.437Y-1.937
X6.437Y-3.837
T4
X4.7417Y-2.3921
X4.7417Y-3.3764
X6.1654Y-2.3976
X6.1654Y-3.3819
T5
X4.487Y-3.837
X4.537Y-1.937
M30
