G04 #@! TF.GenerationSoftware,KiCad,Pcbnew,(6.0.5)*
G04 #@! TF.CreationDate,2022-12-20T10:26:33+00:00*
G04 #@! TF.ProjectId,RPi-V1-MiniDexed-IOBoard,5250692d-5631-42d4-9d69-6e6944657865,rev?*
G04 #@! TF.SameCoordinates,Original*
G04 #@! TF.FileFunction,Profile,NP*
%FSLAX46Y46*%
G04 Gerber Fmt 4.6, Leading zero omitted, Abs format (unit mm)*
G04 Created by KiCad (PCBNEW (6.0.5)) date 2022-12-20 10:26:33*
%MOMM*%
%LPD*%
G01*
G04 APERTURE LIST*
G04 #@! TA.AperFunction,Profile*
%ADD10C,0.150000*%
G04 #@! TD*
G04 #@! TA.AperFunction,Profile*
%ADD11C,0.120000*%
G04 #@! TD*
G04 APERTURE END LIST*
D10*
X143500000Y-162350000D02*
X143500000Y-155430000D01*
X228500000Y-125000000D02*
X143500000Y-125000000D01*
X228500000Y-181000000D02*
X228500000Y-157000000D01*
X143500000Y-181000000D02*
X228500000Y-181000000D01*
X217500000Y-142000000D02*
X228500000Y-142000000D01*
X228500000Y-142000000D02*
X228500000Y-125000000D01*
X228500000Y-157000000D02*
X217500000Y-157000000D01*
X143500000Y-125000000D02*
X143500000Y-142430000D01*
X217500000Y-157000000D02*
X217500000Y-142000000D01*
X143500000Y-175350000D02*
X143500000Y-181000000D01*
D11*
X144500000Y-146730000D02*
X143500000Y-146730000D01*
X144500000Y-151130000D02*
X143500000Y-151130000D01*
X143500000Y-146730000D02*
X143500000Y-142430000D01*
X144900000Y-150730000D02*
X144900000Y-147130000D01*
X143500000Y-151130000D02*
X143500000Y-155430000D01*
X144900000Y-147130000D02*
G75*
G03*
X144500000Y-146730000I-400002J-2D01*
G01*
X144500000Y-151130000D02*
G75*
G03*
X144900000Y-150730000I0J400000D01*
G01*
X143500000Y-171050000D02*
X143500000Y-175350000D01*
X144500000Y-171050000D02*
X143500000Y-171050000D01*
X144900000Y-170650000D02*
X144900000Y-167050000D01*
X144500000Y-166650000D02*
X143500000Y-166650000D01*
X143500000Y-166650000D02*
X143500000Y-162350000D01*
X144500000Y-171050000D02*
G75*
G03*
X144900000Y-170650000I0J400000D01*
G01*
X144900000Y-167050000D02*
G75*
G03*
X144500000Y-166650000I-400002J-2D01*
G01*
M02*
