M48
; DRILL file KiCad 10.0.5 date 2026-08-06T14:08:41
; FORMAT={-:-/ absolute / metric / decimal}
; #@! TF.CreationDate,2026-08-06T14:08:41+01:00
; #@! TF.GenerationSoftware,Kicad,Pcbnew,10.0.5
; #@! TF.FileFunction,MixedPlating,1,2
FMAT,2
METRIC
; #@! TA.AperFunction,Plated,PTH,ViaDrill
T1C0.400
; #@! TA.AperFunction,Plated,PTH,ComponentDrill
T2C0.600
; #@! TA.AperFunction,Plated,PTH,ComponentDrill
T3C0.800
; #@! TA.AperFunction,Plated,PTH,ComponentDrill
T4C0.850
; #@! TA.AperFunction,Plated,PTH,ComponentDrill
T5C1.000
; #@! TA.AperFunction,Plated,PTH,ComponentDrill
T6C1.300
; #@! TA.AperFunction,Plated,PTH,ComponentDrill
T7C3.200
%
G90
G05
T1
X51.257Y-93.802
X51.511Y-83.896
X56.82Y-70.917
X59.36Y-60.173
X61.595Y-82.144
X61.646Y-85.065
X63.348Y-83.845
X65.049Y-82.601
X65.71Y-53.873
X66.065Y-81.331
X66.954Y-80.01
X67.742Y-78.74
X68.732Y-77.521
X69.583Y-76.264
X70.079Y-67.285
X70.104Y-73.965
X70.79Y-88.925
X71.018Y-94.869
X72.136Y-74.974
X73.228Y-88.976
X73.406Y-94.92
X74.651Y-73.66
X75.895Y-89.002
X75.997Y-94.844
X77.216Y-72.346
X78.384Y-88.824
X78.486Y-94.844
X79.731Y-71.12
X79.934Y-59.995
X80.188Y-64.821
X81.026Y-94.869
X81.051Y-88.9
X82.372Y-69.894
X83.515Y-88.875
X83.515Y-94.92
X84.823Y-68.694
X86.03Y-53.492
X86.081Y-89.002
X86.131Y-95.098
X87.363Y-67.424
X94.818Y-93.167
X95.301Y-85.014
X97.638Y-81.28
X97.714Y-84.328
X97.765Y-72.339
X98.933Y-63.627
X101.93Y-81.153
X102.565Y-53.518
X102.743Y-63.983
X102.768Y-60.401
X104.14Y-95.244
X105.334Y-95.987
X105.664Y-82.525
X107.086Y-71.907
X107.366Y-61.671
X108.737Y-74.752
X108.814Y-79.223
X110.312Y-84.861
X110.446Y-90.333
X111.023Y-62.967
T3
X122.0Y-62.0
X122.0Y-65.0
X122.0Y-68.0
X122.0Y-71.0
X122.0Y-74.0
X122.0Y-77.0
X122.0Y-80.0
X122.0Y-83.0
X129.62Y-62.0
X129.62Y-65.0
X129.62Y-68.0
X129.62Y-71.0
X129.62Y-74.0
X129.62Y-77.0
X129.62Y-80.0
X129.62Y-83.0
T4
X54.167Y-70.754
X54.167Y-75.754
T5
X51.803Y-100.0
X54.343Y-100.0
X56.883Y-100.0
X58.42Y-86.36
X58.42Y-88.9
X59.423Y-100.0
X59.487Y-70.053
X59.487Y-72.593
X59.487Y-75.133
X59.487Y-77.673
X59.487Y-80.213
X61.963Y-100.0
X64.503Y-100.0
X67.043Y-100.0
X69.583Y-100.0
X72.123Y-100.0
X74.663Y-100.0
X77.203Y-100.0
X79.743Y-100.0
X82.283Y-100.0
X84.823Y-100.0
X87.363Y-100.0
X89.903Y-100.0
X91.44Y-66.04
X91.44Y-68.58
X91.44Y-71.12
X91.44Y-73.66
X91.44Y-76.2
X91.44Y-78.74
X91.44Y-81.28
X91.44Y-83.82
X91.44Y-86.36
X91.44Y-88.9
X92.443Y-97.46
X92.443Y-100.0
X93.98Y-66.04
X93.98Y-68.58
X93.98Y-71.12
X93.98Y-73.66
X93.98Y-76.2
X93.98Y-78.74
X93.98Y-81.28
X93.98Y-83.82
X93.98Y-86.36
X93.98Y-88.9
X94.983Y-97.46
X94.983Y-100.0
X96.52Y-66.04
X96.52Y-68.58
X96.52Y-86.36
X96.52Y-88.9
X97.523Y-97.46
X97.523Y-100.0
X99.06Y-66.04
X99.06Y-68.58
X99.06Y-86.36
X99.06Y-88.9
X100.063Y-97.46
X100.063Y-100.0
X101.6Y-66.04
X101.6Y-68.58
X101.6Y-86.36
X101.6Y-88.9
X102.603Y-97.46
X102.603Y-100.0
X104.14Y-66.04
X104.14Y-68.58
X104.14Y-86.36
X104.14Y-88.9
X105.143Y-97.46
X105.143Y-100.0
X106.68Y-66.04
X106.68Y-68.58
X106.68Y-86.36
X106.68Y-88.9
X107.683Y-97.46
X107.683Y-100.0
X109.22Y-66.04
X109.22Y-68.58
X109.22Y-86.36
X109.22Y-88.9
X110.223Y-97.46
X110.223Y-100.0
X111.76Y-66.04
X111.76Y-68.58
X111.76Y-71.12
X111.76Y-73.66
X111.76Y-76.2
X111.76Y-78.74
X111.76Y-81.28
X111.76Y-83.82
X111.76Y-86.36
X111.76Y-88.9
X112.763Y-97.46
X112.763Y-100.0
X114.3Y-66.04
X114.3Y-68.58
X114.3Y-71.12
X114.3Y-73.66
X114.3Y-76.2
X114.3Y-78.74
X114.3Y-81.28
X114.3Y-83.82
X114.3Y-86.36
X114.3Y-88.9
X115.303Y-97.46
X115.303Y-100.0
X117.843Y-100.0
X120.383Y-100.0
X122.923Y-100.0
X125.463Y-100.0
X128.003Y-100.0
X130.543Y-100.0
X133.083Y-100.0
X135.623Y-100.0
X136.5Y-68.5
X136.5Y-70.79
X136.5Y-73.08
X136.5Y-75.37
X136.5Y-77.66
X138.163Y-100.0
X139.04Y-67.355
X139.04Y-69.645
X139.04Y-71.935
X139.04Y-74.225
X139.04Y-76.515
X140.703Y-100.0
X141.58Y-68.5
X141.58Y-70.79
X141.58Y-73.08
X141.58Y-75.37
X141.58Y-77.66
X143.243Y-100.0
X145.783Y-100.0
X148.323Y-100.0
T6
X92.56Y-58.42
X99.06Y-58.42
X106.68Y-58.42
X113.18Y-58.42
T7
X139.04Y-60.315
X139.04Y-85.315
T2
G00X51.117Y-69.754
M15
G01X51.817Y-69.754
M16
G05
G00X51.817Y-76.754
M15
G01X51.117Y-76.754
M16
G05
M30
