G04 #@! TF.GenerationSoftware,KiCad,Pcbnew,(6.0.5)*
G04 #@! TF.CreationDate,2022-12-29T14:07:14+00:00*
G04 #@! TF.ProjectId,PicoTX816-RPiHat,5069636f-5458-4383-9136-2d5250694861,rev?*
G04 #@! TF.SameCoordinates,Original*
G04 #@! TF.FileFunction,Legend,Bot*
G04 #@! TF.FilePolarity,Positive*
%FSLAX46Y46*%
G04 Gerber Fmt 4.6, Leading zero omitted, Abs format (unit mm)*
G04 Created by KiCad (PCBNEW (6.0.5)) date 2022-12-29 14:07:14*
%MOMM*%
%LPD*%
G01*
G04 APERTURE LIST*
%ADD10C,0.150000*%
%ADD11C,0.120000*%
%ADD12C,0.304800*%
%ADD13R,2.500000X4.000000*%
%ADD14C,2.499360*%
G04 APERTURE END LIST*
D10*
X207596095Y-101430380D02*
X207596095Y-100430380D01*
X207215142Y-100430380D01*
X207119904Y-100478000D01*
X207072285Y-100525619D01*
X207024666Y-100620857D01*
X207024666Y-100763714D01*
X207072285Y-100858952D01*
X207119904Y-100906571D01*
X207215142Y-100954190D01*
X207596095Y-100954190D01*
X206072285Y-101430380D02*
X206643714Y-101430380D01*
X206358000Y-101430380D02*
X206358000Y-100430380D01*
X206453238Y-100573238D01*
X206548476Y-100668476D01*
X206643714Y-100716095D01*
D11*
X257960000Y-94900000D02*
X257960000Y-100100000D01*
X209640000Y-100100000D02*
X257960000Y-100100000D01*
X207040000Y-98770000D02*
X207040000Y-100100000D01*
X207040000Y-94900000D02*
X207040000Y-97500000D01*
X207040000Y-100100000D02*
X208370000Y-100100000D01*
X207040000Y-97500000D02*
X209640000Y-97500000D01*
X209640000Y-97500000D02*
X209640000Y-100100000D01*
X207040000Y-94900000D02*
X257960000Y-94900000D01*
D12*
X193839640Y-60569320D02*
X213339220Y-60569320D01*
X213339220Y-60820780D02*
X213339220Y-60320400D01*
X195841160Y-79319600D02*
X198340520Y-79319600D01*
X213339220Y-61819000D02*
X212838840Y-61819000D01*
X212838840Y-79319600D02*
X210839860Y-79319600D01*
X214840360Y-60820780D02*
X213339220Y-60820780D01*
X210339480Y-79319600D02*
X209839100Y-78819220D01*
X202838860Y-79319600D02*
X205841140Y-79319600D01*
X195340780Y-61069700D02*
X214840360Y-61069700D01*
X209839100Y-78819220D02*
X209839100Y-76820240D01*
X212838840Y-61321160D02*
X212838840Y-61819000D01*
X202341020Y-78819220D02*
X202341020Y-76820240D01*
X198840900Y-76820240D02*
X202341020Y-76820240D01*
X198340520Y-79319600D02*
X198840900Y-78819220D01*
X195340780Y-61819000D02*
X195841160Y-61819000D01*
X195340780Y-61321160D02*
X214840360Y-61321160D01*
X193839640Y-60320400D02*
X193839640Y-60820780D01*
X206338980Y-78819220D02*
X206338980Y-76820240D01*
X195340780Y-60820780D02*
X195340780Y-61321160D01*
X214840360Y-61321160D02*
X214840360Y-60820780D01*
X202838860Y-79319600D02*
X202341020Y-78819220D01*
X213339220Y-60320400D02*
X193839640Y-60320400D01*
X205841140Y-79319600D02*
X206338980Y-78819220D01*
X195841160Y-61819000D02*
X195841160Y-61321160D01*
X213339220Y-78819220D02*
X213339220Y-61819000D01*
X195340780Y-78819220D02*
X195340780Y-61819000D01*
X213339220Y-78819220D02*
X212838840Y-79319600D01*
X193839640Y-60820780D02*
X195340780Y-60820780D01*
X210839860Y-79319600D02*
X210339480Y-79319600D01*
X209839100Y-76820240D02*
X206338980Y-76820240D01*
X195340780Y-78819220D02*
X195841160Y-79319600D01*
X198840900Y-78819220D02*
X198840900Y-76820240D01*
X213339220Y-60820780D02*
X195340780Y-60820780D01*
X185929220Y-78819220D02*
X185929220Y-61819000D01*
X178431140Y-79319600D02*
X178928980Y-78819220D01*
X170930520Y-79319600D02*
X171430900Y-78819220D01*
X185929220Y-60820780D02*
X185929220Y-60320400D01*
X166429640Y-60820780D02*
X167930780Y-60820780D01*
X168431160Y-61819000D02*
X168431160Y-61321160D01*
X182929480Y-79319600D02*
X182429100Y-78819220D01*
X174931020Y-78819220D02*
X174931020Y-76820240D01*
X167930780Y-61069700D02*
X187430360Y-61069700D01*
X187430360Y-60820780D02*
X185929220Y-60820780D01*
X167930780Y-78819220D02*
X168431160Y-79319600D01*
X171430900Y-76820240D02*
X174931020Y-76820240D01*
X185428840Y-79319600D02*
X183429860Y-79319600D01*
X166429640Y-60320400D02*
X166429640Y-60820780D01*
X166429640Y-60569320D02*
X185929220Y-60569320D01*
X167930780Y-60820780D02*
X167930780Y-61321160D01*
X168431160Y-79319600D02*
X170930520Y-79319600D01*
X175428860Y-79319600D02*
X178431140Y-79319600D01*
X178928980Y-78819220D02*
X178928980Y-76820240D01*
X185929220Y-78819220D02*
X185428840Y-79319600D01*
X167930780Y-61819000D02*
X168431160Y-61819000D01*
X167930780Y-61321160D02*
X187430360Y-61321160D01*
X185929220Y-61819000D02*
X185428840Y-61819000D01*
X187430360Y-61321160D02*
X187430360Y-60820780D01*
X167930780Y-78819220D02*
X167930780Y-61819000D01*
X182429100Y-78819220D02*
X182429100Y-76820240D01*
X183429860Y-79319600D02*
X182929480Y-79319600D01*
X182429100Y-76820240D02*
X178928980Y-76820240D01*
X185929220Y-60320400D02*
X166429640Y-60320400D01*
X175428860Y-79319600D02*
X174931020Y-78819220D01*
X171430900Y-78819220D02*
X171430900Y-76820240D01*
X185428840Y-61321160D02*
X185428840Y-61819000D01*
X185929220Y-60820780D02*
X167930780Y-60820780D01*
D13*
X199338740Y-63622300D03*
X209341260Y-63622300D03*
D14*
X211838080Y-72817200D03*
X204340000Y-72819740D03*
X196841920Y-72817200D03*
X209336180Y-75319100D03*
X199343820Y-75319100D03*
D13*
X181931260Y-63622300D03*
X171928740Y-63622300D03*
D14*
X184428080Y-72817200D03*
X176930000Y-72819740D03*
X169431920Y-72817200D03*
X181926180Y-75319100D03*
X171933820Y-75319100D03*
M02*
