M48
; DRILL file {KiCad (6.0.5)} date Thu Dec 29 14:07:16 2022
; FORMAT={-:-/ absolute / inch / decimal}
; #@! TF.CreationDate,2022-12-29T14:07:16+00:00
; #@! TF.GenerationSoftware,Kicad,Pcbnew,(6.0.5)
; #@! TF.FileFunction,MixedPlating,1,2
FMAT,2
INCH
; #@! TA.AperFunction,Plated,PTH,ViaDrill
T1C0.0236
; #@! TA.AperFunction,Plated,PTH,ComponentDrill
T2C0.0315
; #@! TA.AperFunction,Plated,PTH,ComponentDrill
T3C0.0394
; #@! TA.AperFunction,Plated,PTH,ComponentDrill
T4C0.0402
; #@! TA.AperFunction,Plated,PTH,ComponentDrill
T5C0.0550
; #@! TA.AperFunction,NonPlated,NPTH,ComponentDrill
T6C0.0550
; #@! TA.AperFunction,NonPlated,NPTH,ComponentDrill
T7C0.0591
; #@! TA.AperFunction,NonPlated,NPTH,ComponentDrill
T8C0.0709
; #@! TA.AperFunction,NonPlated,NPTH,ComponentDrill
T9C0.1063
%
G90
G05
T1
X8.6705Y-4.3543
X8.7638Y-4.5335
X9.8799Y-4.7156
X9.8799Y-4.8061
X9.8878Y-4.2963
X9.8888Y-4.3917
T2
X6.8614Y-3.3457
X6.8614Y-3.4783
X6.8614Y-3.5783
X6.8614Y-3.6783
X6.8626Y-3.228
X6.8638Y-3.8205
X7.1614Y-3.3457
X7.1614Y-3.4783
X7.1614Y-3.5783
X7.1614Y-3.6783
X7.1626Y-3.228
X7.1638Y-3.8205
X7.2894Y-3.4799
X7.2894Y-3.6768
X7.4303Y-2.8169
X7.4303Y-3.1169
X7.5197Y-4.4488
X7.5197Y-4.6457
X7.5831Y-2.8142
X7.5831Y-3.1142
X7.6378Y-4.4488
X7.6378Y-4.6457
X7.6417Y-3.9518
X7.7559Y-4.4488
X7.7559Y-4.6457
X7.8386Y-3.9518
X7.874Y-4.4488
X7.874Y-4.6457
X7.9921Y-4.4488
X7.9921Y-4.6457
X8.2768Y-5.1736
X8.2768Y-5.3705
X8.4112Y-5.1752
X8.4112Y-5.4752
X8.5112Y-5.1752
X8.5112Y-5.4752
X8.6112Y-5.1752
X8.6112Y-5.4752
X8.7112Y-5.1752
X8.7112Y-5.4752
X8.8112Y-5.1752
X8.8112Y-5.4752
X8.9112Y-5.1752
X8.9112Y-5.4752
X9.0112Y-5.1752
X9.0112Y-5.4752
X9.2866Y-5.1724
X9.2866Y-5.3693
X9.4289Y-5.174
X9.4289Y-5.474
X9.5289Y-5.174
X9.5289Y-5.474
X9.6289Y-5.174
X9.6289Y-5.474
X9.7289Y-5.174
X9.7289Y-5.474
X9.8289Y-5.174
X9.8289Y-5.474
X9.9098Y-2.4551
X9.9098Y-2.652
X9.9289Y-5.174
X9.9289Y-5.474
X10.0289Y-5.174
X10.0289Y-5.474
X10.1289Y-5.174
X10.1289Y-5.474
T3
X6.6535Y-4.1339
X6.6535Y-4.2339
X6.6535Y-4.3339
X6.6535Y-4.4339
X6.6535Y-4.5339
X7.4974Y-4.7913
X7.5423Y-4.0722
X7.5423Y-4.2687
X7.5974Y-4.7913
X7.6423Y-4.0722
X7.6423Y-4.2687
X7.7423Y-4.0722
X7.7423Y-4.2687
X7.8199Y-4.7943
X7.8423Y-4.0722
X7.8423Y-4.2687
X7.9083Y-3.3465
X7.9083Y-6.1024
X7.9199Y-4.7943
X8.0083Y-3.3465
X8.0083Y-6.1024
X8.1083Y-3.3465
X8.1083Y-6.1024
X8.2035Y-3.7886
X8.2035Y-3.8886
X8.2083Y-3.3465
X8.2083Y-6.1024
X8.3035Y-3.7886
X8.3035Y-3.8886
X8.3083Y-3.3465
X8.3083Y-6.1024
X8.4035Y-3.7886
X8.4035Y-3.8886
X8.4083Y-3.3465
X8.4083Y-6.1024
X8.5035Y-3.7886
X8.5035Y-3.8886
X8.5083Y-3.3465
X8.5083Y-6.1024
X8.6035Y-3.7886
X8.6035Y-3.8886
X8.6083Y-3.3465
X8.6083Y-6.1024
X8.7035Y-3.7886
X8.7035Y-3.8886
X8.7083Y-3.3465
X8.7083Y-6.1024
X8.7356Y-2.9785
X8.8035Y-3.7886
X8.8035Y-3.8886
X8.8083Y-3.3465
X8.8083Y-6.1024
X8.8356Y-2.9785
X8.9035Y-3.7886
X8.9035Y-3.8886
X8.9083Y-3.3465
X8.9083Y-6.1024
X8.9356Y-2.9785
X9.0035Y-3.7886
X9.0035Y-3.8886
X9.0083Y-3.3465
X9.0083Y-6.1024
X9.0356Y-2.9785
X9.1035Y-3.7886
X9.1035Y-3.8886
X9.1083Y-3.3465
X9.1083Y-6.1024
X9.1356Y-2.9785
X9.2035Y-3.7886
X9.2035Y-3.8886
X9.2083Y-3.3465
X9.2083Y-6.1024
X9.2356Y-2.9785
X9.3035Y-3.7886
X9.3035Y-3.8886
X9.3083Y-3.3465
X9.3083Y-6.1024
X9.3356Y-2.9785
X9.4035Y-3.7886
X9.4035Y-3.8886
X9.4083Y-3.3465
X9.4083Y-6.1024
X9.4356Y-2.9785
X9.5035Y-3.7886
X9.5035Y-3.8886
X9.5083Y-3.3465
X9.5083Y-6.1024
X9.5356Y-2.9785
X9.6035Y-3.7886
X9.6035Y-3.8886
X9.6083Y-3.3465
X9.6083Y-6.1024
X9.7035Y-3.7886
X9.7035Y-3.8886
X9.7083Y-3.3465
X9.7083Y-6.1024
X9.7856Y-2.4535
X9.7856Y-2.5535
X9.7856Y-2.6535
X9.7856Y-2.7535
X9.7856Y-2.8535
X9.7856Y-2.9535
X9.8035Y-3.7886
X9.8035Y-3.8886
X9.8083Y-3.3465
X9.8083Y-6.1024
X9.9035Y-3.7886
X9.9035Y-3.8886
X10.0035Y-3.7886
X10.0035Y-3.8886
X10.1035Y-3.7886
X10.1035Y-3.8886
T4
X8.2177Y-4.2
X8.2177Y-4.9
X8.3177Y-4.2
X8.3177Y-4.9
X8.4177Y-4.2
X8.4177Y-4.9
X8.5177Y-4.2
X8.5177Y-4.9
X8.6177Y-4.2
X8.6177Y-4.9
X8.7177Y-4.2
X8.7177Y-4.9
X8.8177Y-4.2
X8.8177Y-4.9
X8.9177Y-4.2
X8.9177Y-4.9
X9.0177Y-4.2
X9.0177Y-4.9
X9.1177Y-4.2
X9.1177Y-4.9
X9.2177Y-4.2
X9.2177Y-4.9
X9.3177Y-4.2
X9.3177Y-4.9
X9.4177Y-4.2
X9.4177Y-4.9
X9.5177Y-4.2
X9.5177Y-4.9
X9.6177Y-4.2
X9.6177Y-4.9
X9.7177Y-4.2
X9.7177Y-4.9
X9.8177Y-4.2
X9.8177Y-4.9
X9.9177Y-4.2
X9.9177Y-4.9
X10.0177Y-4.2
X10.0177Y-4.9
X10.1087Y-4.45
X10.1087Y-4.55
X10.1087Y-4.65
X10.1177Y-4.2
X10.1177Y-4.9
T5
X6.6705Y-2.8668
X6.769Y-2.9653
X6.9657Y-2.8669
X7.1624Y-2.9653
X7.2609Y-2.8668
X7.7497Y-2.8668
X7.8482Y-2.9653
X8.0449Y-2.8669
X8.2416Y-2.9653
X8.3401Y-2.8668
T6
X6.7688Y-2.4733
X7.1626Y-2.4733
X7.848Y-2.4733
X8.2418Y-2.4733
T7
X8.3421Y-4.4545
X8.3421Y-4.6455
T8
X8.2228Y-4.4427
X8.2228Y-4.6573
T9
X7.4803Y-2.5591
X7.4803Y-6.1024
X8.0118Y-3.8386
X8.0118Y-5.7677
X10.2362Y-2.5591
X10.2362Y-6.1024
X10.2953Y-3.8386
X10.2953Y-5.7677
T0
M30
