%TF.GenerationSoftware,KiCad,Pcbnew,8.0.7*%
%TF.CreationDate,2025-02-23T13:29:02+00:00*%
%TF.ProjectId,WaveshareZeroKrell,57617665-7368-4617-9265-5a65726f4b72,rev?*%
%TF.SameCoordinates,Original*%
%TF.FileFunction,Soldermask,Top*%
%TF.FilePolarity,Negative*%
%FSLAX46Y46*%
G04 Gerber Fmt 4.6, Leading zero omitted, Abs format (unit mm)*
G04 Created by KiCad (PCBNEW 8.0.7) date 2025-02-23 13:29:02*
%MOMM*%
%LPD*%
G01*
G04 APERTURE LIST*
G04 Aperture macros list*
%AMRoundRect*
0 Rectangle with rounded corners*
0 $1 Rounding radius*
0 $2 $3 $4 $5 $6 $7 $8 $9 X,Y pos of 4 corners*
0 Add a 4 corners polygon primitive as box body*
4,1,4,$2,$3,$4,$5,$6,$7,$8,$9,$2,$3,0*
0 Add four circle primitives for the rounded corners*
1,1,$1+$1,$2,$3*
1,1,$1+$1,$4,$5*
1,1,$1+$1,$6,$7*
1,1,$1+$1,$8,$9*
0 Add four rect primitives between the rounded corners*
20,1,$1+$1,$2,$3,$4,$5,0*
20,1,$1+$1,$4,$5,$6,$7,0*
20,1,$1+$1,$6,$7,$8,$9,0*
20,1,$1+$1,$8,$9,$2,$3,0*%
G04 Aperture macros list end*
%ADD10O,1.700000X1.700000*%
%ADD11R,1.930000X1.830000*%
%ADD12C,2.130000*%
%ADD13R,1.700000X1.700000*%
%ADD14C,2.700000*%
%ADD15C,1.600000*%
%ADD16O,1.600000X1.600000*%
%ADD17R,1.600000X1.600000*%
%ADD18C,1.200000*%
%ADD19O,2.200000X1.200000*%
%ADD20O,2.300000X1.600000*%
%ADD21O,1.200000X2.200000*%
%ADD22O,2.500000X1.600000*%
%ADD23R,2.400000X2.400000*%
%ADD24C,2.400000*%
%ADD25R,1.800000X1.800000*%
%ADD26C,1.800000*%
%ADD27RoundRect,0.750000X-0.750000X1.250000X-0.750000X-1.250000X0.750000X-1.250000X0.750000X1.250000X0*%
%ADD28RoundRect,0.450000X-0.450000X-0.450000X0.450000X-0.450000X0.450000X0.450000X-0.450000X0.450000X0*%
G04 APERTURE END LIST*
D10*
%TO.C,J1*%
X59540000Y-61000000D03*
X59540000Y-63540000D03*
X59540000Y-66080000D03*
X59540000Y-68620000D03*
%TD*%
%TO.C,J2*%
X57000000Y-61000000D03*
X57000000Y-63540000D03*
X57000000Y-66080000D03*
X57000000Y-68620000D03*
X57000000Y-71160000D03*
%TD*%
D11*
%TO.C,J5*%
X80000000Y-144000000D03*
D12*
X80000000Y-132600000D03*
X80000000Y-140900000D03*
%TD*%
D13*
%TO.C,J7*%
X103475000Y-76890000D03*
D10*
X103475000Y-74350000D03*
X103475000Y-71810000D03*
X103475000Y-69270000D03*
X103475000Y-66730000D03*
X103475000Y-64190000D03*
X103475000Y-61650000D03*
%TD*%
%TO.C,U1*%
X69800000Y-109145000D03*
X69800000Y-106605000D03*
X69800000Y-104065000D03*
X69800000Y-101525000D03*
X69800000Y-98985000D03*
X69800000Y-96445000D03*
X69800000Y-93905000D03*
X69800000Y-91365000D03*
X69800000Y-88825000D03*
X52020000Y-88825000D03*
X52020000Y-91365000D03*
X52020000Y-93905000D03*
X52020000Y-96445000D03*
X52020000Y-98985000D03*
X52020000Y-101525000D03*
X52020000Y-104065000D03*
X52020000Y-106605000D03*
X52020000Y-109145000D03*
%TD*%
D14*
%TO.C,MK1*%
X53000000Y-53000000D03*
%TD*%
D13*
%TO.C,J4*%
X69350000Y-143850000D03*
D10*
X66810000Y-143850000D03*
%TD*%
D14*
%TO.C,MK2*%
X107000000Y-53000000D03*
%TD*%
D15*
%TO.C,R1*%
X95825000Y-144185000D03*
D16*
X95825000Y-136565000D03*
%TD*%
D15*
%TO.C,R2*%
X56375000Y-125335000D03*
D16*
X56375000Y-117715000D03*
%TD*%
D17*
%TO.C,C2*%
X69357380Y-136700000D03*
D15*
X66857380Y-136700000D03*
%TD*%
%TO.C,R6*%
X88600000Y-136710000D03*
D16*
X88600000Y-144330000D03*
%TD*%
D14*
%TO.C,MK4*%
X107000000Y-143000000D03*
%TD*%
%TO.C,MK3*%
X53000000Y-143000000D03*
%TD*%
D15*
%TO.C,R5*%
X75640000Y-127175000D03*
D16*
X83260000Y-127175000D03*
%TD*%
D15*
%TO.C,C3*%
X88575000Y-133175000D03*
X93575000Y-133175000D03*
%TD*%
%TO.C,R3*%
X53250000Y-125335000D03*
D16*
X53250000Y-117715000D03*
%TD*%
D17*
%TO.C,D12*%
X83150000Y-121165000D03*
D16*
X75530000Y-121165000D03*
%TD*%
D18*
%TO.C,J3*%
X54500000Y-128500000D03*
X52000000Y-128500000D03*
X59500000Y-133500000D03*
X54500000Y-138500000D03*
X52000000Y-138500000D03*
D19*
X59500000Y-128500000D03*
D20*
X59500000Y-131000000D03*
D21*
X54500000Y-133500000D03*
D19*
X59500000Y-138500000D03*
D22*
X59500000Y-136000000D03*
%TD*%
D23*
%TO.C,C1*%
X99750000Y-102775000D03*
D24*
X104750000Y-102775000D03*
%TD*%
D18*
%TO.C,J6*%
X105500000Y-138500000D03*
X108000000Y-138500000D03*
X100500000Y-133500000D03*
X105500000Y-128500000D03*
X108000000Y-128500000D03*
D19*
X100500000Y-138500000D03*
D20*
X100500000Y-136000000D03*
D21*
X105500000Y-133500000D03*
D19*
X100500000Y-128500000D03*
D22*
X100500000Y-131000000D03*
%TD*%
D17*
%TO.C,D1*%
X92700000Y-136615000D03*
D16*
X92700000Y-144235000D03*
%TD*%
D15*
%TO.C,C5*%
X81250000Y-78550000D03*
X76250000Y-78550000D03*
%TD*%
D17*
%TO.C,U2*%
X100025000Y-120250000D03*
D16*
X100025000Y-122790000D03*
X100025000Y-125330000D03*
X107645000Y-125330000D03*
X107645000Y-122790000D03*
X107645000Y-120250000D03*
%TD*%
D15*
%TO.C,R4*%
X107660000Y-113375000D03*
D16*
X100040000Y-113375000D03*
%TD*%
D17*
%TO.C,D13*%
X75565000Y-124225000D03*
D16*
X83185000Y-124225000D03*
%TD*%
D15*
%TO.C,C4*%
X107700000Y-116625000D03*
X102700000Y-116625000D03*
%TD*%
D25*
%TO.C,RV1*%
X77500000Y-82000000D03*
D26*
X80000000Y-82000000D03*
X82500000Y-82000000D03*
D27*
X84400000Y-89000000D03*
X75600000Y-89000000D03*
%TD*%
D28*
%TO.C,D3*%
X89710000Y-115740000D03*
D26*
X91488000Y-114216000D03*
X93012000Y-115740000D03*
X94536000Y-114216000D03*
%TD*%
D28*
%TO.C,D11*%
X65470000Y-81740000D03*
D26*
X67248000Y-80216000D03*
X68772000Y-81740000D03*
X70296000Y-80216000D03*
%TD*%
D28*
%TO.C,D10*%
X65470000Y-67740000D03*
D26*
X67248000Y-66216000D03*
X68772000Y-67740000D03*
X70296000Y-66216000D03*
%TD*%
D28*
%TO.C,D7*%
X89710000Y-81740000D03*
D26*
X91488000Y-80216000D03*
X93012000Y-81740000D03*
X94536000Y-80216000D03*
%TD*%
D28*
%TO.C,D4*%
X77590000Y-108740000D03*
D26*
X79368000Y-107216000D03*
X80892000Y-108740000D03*
X82416000Y-107216000D03*
%TD*%
D28*
%TO.C,D5*%
X65470000Y-115740000D03*
D26*
X67248000Y-114216000D03*
X68772000Y-115740000D03*
X70296000Y-114216000D03*
%TD*%
D28*
%TO.C,D9*%
X77590000Y-60740000D03*
D26*
X79368000Y-59216000D03*
X80892000Y-60740000D03*
X82416000Y-59216000D03*
%TD*%
D28*
%TO.C,D6*%
X65470000Y-129740000D03*
D26*
X67248000Y-128216000D03*
X68772000Y-129740000D03*
X70296000Y-128216000D03*
%TD*%
D28*
%TO.C,D2*%
X89710000Y-129740000D03*
D26*
X91488000Y-128216000D03*
X93012000Y-129740000D03*
X94536000Y-128216000D03*
%TD*%
D25*
%TO.C,RV2*%
X77500000Y-130000000D03*
D26*
X80000000Y-130000000D03*
X82500000Y-130000000D03*
D27*
X84400000Y-137000000D03*
X75600000Y-137000000D03*
%TD*%
D28*
%TO.C,D8*%
X89710000Y-67740000D03*
D26*
X91488000Y-66216000D03*
X93012000Y-67740000D03*
X94536000Y-66216000D03*
%TD*%
M02*
