M48
; DRILL file {KiCad 8.0.7} date 2025-02-23T13:29:04+0000
; FORMAT={-:-/ absolute / inch / decimal}
; #@! TF.CreationDate,2025-02-23T13:29:04+00:00
; #@! TF.GenerationSoftware,Kicad,Pcbnew,8.0.7
; #@! TF.FileFunction,MixedPlating,1,2
FMAT,2
INCH
; #@! TA.AperFunction,Plated,PTH,ViaDrill
T1C0.0118
; #@! TA.AperFunction,Plated,PTH,ComponentDrill
T2C0.0157
; #@! TA.AperFunction,Plated,PTH,ComponentDrill
T3C0.0315
; #@! TA.AperFunction,Plated,PTH,ComponentDrill
T4C0.0354
; #@! TA.AperFunction,Plated,PTH,ComponentDrill
T5C0.0394
; #@! TA.AperFunction,Plated,PTH,ComponentDrill
T6C0.0472
; #@! TA.AperFunction,Plated,PTH,ComponentDrill
T7C0.0480
; #@! TA.AperFunction,Plated,PTH,ComponentDrill
T8C0.0559
; #@! TA.AperFunction,Plated,PTH,ComponentDrill
T9C0.0563
; #@! TA.AperFunction,Plated,PTH,ComponentDrill
T10C0.0709
; #@! TA.AperFunction,NonPlated,NPTH,ComponentDrill
T11C0.0472
; #@! TA.AperFunction,NonPlated,NPTH,ComponentDrill
T12C0.1063
%
G90
G05
T1
X2.0187Y-3.0394
X2.0197Y-3.3199
X2.0354Y-4.7461
X2.1014Y-4.5187
X2.1053Y-2.2598
X2.1053Y-4.3602
X2.1467Y-2.2904
X2.1526Y-4.565
X2.1535Y-4.2205
X2.1604Y-4.8622
X2.1939Y-4.4252
X2.2156Y-4.7165
X2.2717Y-3.9144
X2.2726Y-3.7864
X2.2776Y-4.3386
X2.2815Y-3.0443
X2.2815Y-3.3189
X2.313Y-4.6368
X2.3179Y-2.2411
X2.3327Y-2.8051
X2.3346Y-4.8317
X2.4094Y-4.4852
X2.437Y-2.0906
X2.4518Y-2.3169
X2.4774Y-2.2165
X2.4823Y-4.623
X2.4862Y-4.7569
X2.4951Y-2.6634
X2.5443Y-3.7874
X2.5443Y-3.9104
X2.5719Y-4.0896
X2.5748Y-4.314
X2.5787Y-4.7569
X2.5846Y-2.2992
X2.5945Y-4.8671
X2.6043Y-2.9075
X2.7756Y-4.3612
X2.8022Y-2.7756
X2.8051Y-5.1644
X2.811Y-3.9459
X2.8159Y-4.4439
X2.8159Y-4.8228
X2.8169Y-3.7451
X2.8179Y-4.6319
X2.8189Y-3.2953
X2.8199Y-3.44
X2.8209Y-4.9547
X2.8228Y-3.0925
X2.8248Y-2.9124
X2.8907Y-2.4734
X2.9203Y-5.1673
X2.9213Y-3.9341
X2.9213Y-5.2766
X2.9242Y-4.6339
X2.9262Y-4.8228
X2.9281Y-4.3415
X2.9331Y-3.3051
X2.9331Y-4.4823
X2.94Y-4.0778
X2.9488Y-3.7933
X2.9754Y-2.9104
X2.9774Y-2.6063
X2.9783Y-2.7392
X3.0295Y-5.2815
X3.0472Y-3.6437
X3.0591Y-4.8907
X3.1024Y-3.9104
X3.1132Y-4.3671
X3.1171Y-4.752
X3.124Y-4.6339
X3.1594Y-4.4902
X3.1604Y-4.0531
X3.1654Y-2.0925
X3.1663Y-5.0295
X3.2224Y-5.3465
X3.251Y-4.4154
X3.2854Y-3.6447
X3.3041Y-4.6299
X3.313Y-4.3258
X3.3209Y-2.7382
X3.3356Y-2.5591
X3.3356Y-3.2569
X3.3583Y-4.7618
X3.3642Y-3.8553
X3.3642Y-5.0974
X3.3642Y-5.1939
X3.375Y-4.5344
X3.4154Y-5.3268
X3.435Y-2.4567
X3.436Y-4.4636
X3.4488Y-3.1762
X3.4744Y-3.5256
X3.4843Y-2.872
X3.4852Y-5.0344
X3.5374Y-2.2638
X3.5404Y-4.7667
X3.5492Y-3.6142
X3.5955Y-2.7254
X3.5984Y-4.6043
X3.6447Y-3.0148
X3.6535Y-2.8701
X3.6732Y-5.5915
X3.7037Y-4.8898
X3.7224Y-4.6191
X3.7234Y-4.3996
X3.7254Y-3.4557
X3.7274Y-3.2992
X3.7579Y-4.1073
X3.7648Y-2.7795
X3.7894Y-4.9715
X3.7923Y-4.7707
X3.7933Y-5.189
X3.8159Y-5.5984
X3.8238Y-4.5827
X3.8494Y-5.3868
X3.8563Y-3.9469
X3.8642Y-3.124
X3.8642Y-3.7165
X3.8652Y-2.9931
X3.8681Y-4.4006
X3.8701Y-3.3671
X3.8819Y-4.2175
X3.8829Y-2.0886
X3.9085Y-5.5118
X3.9262Y-4.6644
X3.9537Y-3.2795
X3.9941Y-3.7205
X3.9941Y-3.9469
X4.0177Y-4.7736
X4.0955Y-4.9547
X4.122Y-4.7126
X4.1732Y-4.5226
X4.2343Y-3.5059
X4.2352Y-4.2815
X4.2717Y-2.753
X4.2726Y-2.3425
T3
X2.0965Y-4.6344
X2.0965Y-4.9344
X2.2195Y-4.6344
X2.2195Y-4.9344
X2.6322Y-5.3819
X2.7306Y-5.3819
X2.9736Y-4.7703
X2.975Y-4.8907
X2.978Y-5.0069
X3.002Y-3.0925
X3.1988Y-3.0925
X3.2736Y-4.7703
X3.275Y-4.8907
X3.278Y-5.0069
X3.4872Y-5.2431
X3.4882Y-5.3823
X3.4882Y-5.6823
X3.6496Y-5.3785
X3.6496Y-5.6785
X3.6841Y-5.2431
X3.7726Y-5.3766
X3.7726Y-5.6766
X3.938Y-4.7343
X3.938Y-4.8343
X3.938Y-4.9343
X3.9386Y-4.4636
X4.0433Y-4.5915
X4.238Y-4.7343
X4.238Y-4.8343
X4.238Y-4.9343
X4.2386Y-4.4636
X4.2402Y-4.5915
T4
X2.5776Y-2.6669
X2.5776Y-3.2181
X2.5776Y-4.5567
X2.5776Y-5.1079
X2.6476Y-2.6069
X2.6476Y-3.1581
X2.6476Y-4.4967
X2.6476Y-5.0479
X2.7076Y-2.6669
X2.7076Y-3.2181
X2.7076Y-4.5567
X2.7076Y-5.1079
X2.7676Y-2.6069
X2.7676Y-3.1581
X2.7676Y-4.4967
X2.7676Y-5.0479
X3.0547Y-2.3913
X3.0547Y-4.2811
X3.1247Y-2.3313
X3.1247Y-4.2211
X3.1847Y-2.3913
X3.1847Y-4.2811
X3.2447Y-2.3313
X3.2447Y-4.2211
X3.5319Y-2.6669
X3.5319Y-3.2181
X3.5319Y-4.5567
X3.5319Y-5.1079
X3.6019Y-2.6069
X3.6019Y-3.1581
X3.6019Y-4.4967
X3.6019Y-5.0479
X3.6619Y-2.6669
X3.6619Y-3.2181
X3.6619Y-4.5567
X3.6619Y-5.1079
X3.7219Y-2.6069
X3.7219Y-3.1581
X3.7219Y-4.4967
X3.7219Y-5.0479
T5
X2.048Y-3.497
X2.048Y-3.597
X2.048Y-3.697
X2.048Y-3.797
X2.048Y-3.897
X2.048Y-3.997
X2.048Y-4.097
X2.048Y-4.197
X2.048Y-4.297
X2.2441Y-2.4016
X2.2441Y-2.5016
X2.2441Y-2.6016
X2.2441Y-2.7016
X2.2441Y-2.8016
X2.3441Y-2.4016
X2.3441Y-2.5016
X2.3441Y-2.6016
X2.3441Y-2.7016
X2.6303Y-5.6634
X2.7303Y-5.6634
X2.748Y-3.497
X2.748Y-3.597
X2.748Y-3.697
X2.748Y-3.797
X2.748Y-3.897
X2.748Y-3.997
X2.748Y-4.097
X2.748Y-4.197
X2.748Y-4.297
X3.0512Y-3.2283
X3.0512Y-5.1181
X3.1496Y-3.2283
X3.1496Y-5.1181
X3.248Y-3.2283
X3.248Y-5.1181
X4.0738Y-2.4272
X4.0738Y-2.5272
X4.0738Y-2.6272
X4.0738Y-2.7272
X4.0738Y-2.8272
X4.0738Y-2.9272
X4.0738Y-3.0272
T6
X3.9272Y-4.0463
X4.124Y-4.0463
T7
X3.1496Y-5.6693
T8
X3.1496Y-5.5472
T9
X3.1496Y-5.2205
T11
X2.0472Y-5.0591
X2.0472Y-5.4528
X2.1457Y-5.0591
X2.1457Y-5.4528
X2.3425Y-5.2559
X3.9567Y-5.2559
X4.1535Y-5.0591
X4.1535Y-5.4528
X4.252Y-5.0591
X4.252Y-5.4528
T12
X2.0866Y-2.0866
X2.0866Y-5.6299
X4.2126Y-2.0866
X4.2126Y-5.6299
T2
G00X2.1457Y-5.2362
M15
G01X2.1457Y-5.2756
M16
G05
G00X2.3622Y-5.0591
M15
G01X2.3228Y-5.0591
M16
G05
G00X2.3228Y-5.4528
M15
G01X2.3622Y-5.4528
M16
G05
G00X3.9764Y-5.0591
M15
G01X3.937Y-5.0591
M16
G05
G00X3.937Y-5.4528
M15
G01X3.9764Y-5.4528
M16
G05
G00X4.1535Y-5.2756
M15
G01X4.1535Y-5.2362
M16
G05
T3
G00X2.3563Y-5.1575
M15
G01X2.3287Y-5.1575
M16
G05
G00X2.3287Y-5.3543
M15
G01X2.3563Y-5.3543
M16
G05
G00X3.9705Y-5.1575
M15
G01X3.9429Y-5.1575
M16
G05
G00X3.9429Y-5.3543
M15
G01X3.9705Y-5.3543
M16
G05
T10
G00X2.9764Y-3.498
M15
G01X2.9764Y-3.5098
M16
G05
G00X2.9764Y-5.3878
M15
G01X2.9764Y-5.3996
M16
G05
G00X3.3228Y-3.498
M15
G01X3.3228Y-3.5098
M16
G05
G00X3.3228Y-5.3878
M15
G01X3.3228Y-5.3996
M16
G05
M30
