%TF.GenerationSoftware,KiCad,Pcbnew,7.0.9*%
%TF.CreationDate,2024-01-02T14:05:00+00:00*%
%TF.ProjectId,ArduinoEEPROMProg,41726475-696e-46f4-9545-50524f4d5072,rev?*%
%TF.SameCoordinates,Original*%
%TF.FileFunction,Copper,L1,Top*%
%TF.FilePolarity,Positive*%
%FSLAX46Y46*%
G04 Gerber Fmt 4.6, Leading zero omitted, Abs format (unit mm)*
G04 Created by KiCad (PCBNEW 7.0.9) date 2024-01-02 14:05:00*
%MOMM*%
%LPD*%
G01*
G04 APERTURE LIST*
%TA.AperFunction,ComponentPad*%
%ADD10R,1.700000X1.700000*%
%TD*%
%TA.AperFunction,ComponentPad*%
%ADD11O,1.700000X1.700000*%
%TD*%
%TA.AperFunction,ComponentPad*%
%ADD12C,1.600000*%
%TD*%
%TA.AperFunction,ComponentPad*%
%ADD13R,1.440000X2.000000*%
%TD*%
%TA.AperFunction,ComponentPad*%
%ADD14O,1.440000X2.000000*%
%TD*%
%TA.AperFunction,ComponentPad*%
%ADD15R,1.600000X1.600000*%
%TD*%
%TA.AperFunction,ComponentPad*%
%ADD16O,1.600000X1.600000*%
%TD*%
%TA.AperFunction,Conductor*%
%ADD17C,0.200000*%
%TD*%
%TA.AperFunction,Conductor*%
%ADD18C,0.800000*%
%TD*%
G04 APERTURE END LIST*
D10*
%TO.P,J3,1,Pin_1*%
%TO.N,unconnected-(J3-Pin_1-Pad1)*%
X150800000Y-97460000D03*
D11*
%TO.P,J3,2,Pin_2*%
%TO.N,unconnected-(J3-Pin_2-Pad2)*%
X153340000Y-97460000D03*
%TO.P,J3,3,Pin_3*%
%TO.N,unconnected-(J3-Pin_3-Pad3)*%
X155880000Y-97460000D03*
%TO.P,J3,4,Pin_4*%
%TO.N,unconnected-(J3-Pin_4-Pad4)*%
X158420000Y-97460000D03*
%TO.P,J3,5,Pin_5*%
%TO.N,unconnected-(J3-Pin_5-Pad5)*%
X160960000Y-97460000D03*
%TO.P,J3,6,Pin_6*%
%TO.N,unconnected-(J3-Pin_6-Pad6)*%
X163500000Y-97460000D03*
%TD*%
D10*
%TO.P,J1,1,Pin_1*%
%TO.N,unconnected-(J1-Pin_1-Pad1)*%
X127940000Y-97460000D03*
D11*
%TO.P,J1,2,Pin_2*%
%TO.N,unconnected-(J1-Pin_2-Pad2)*%
X130480000Y-97460000D03*
%TO.P,J1,3,Pin_3*%
%TO.N,unconnected-(J1-Pin_3-Pad3)*%
X133020000Y-97460000D03*
%TO.P,J1,4,Pin_4*%
%TO.N,+3.3V*%
X135560000Y-97460000D03*
%TO.P,J1,5,Pin_5*%
%TO.N,+5V*%
X138100000Y-97460000D03*
%TO.P,J1,6,Pin_6*%
%TO.N,GND*%
X140640000Y-97460000D03*
%TO.P,J1,7,Pin_7*%
X143180000Y-97460000D03*
%TO.P,J1,8,Pin_8*%
%TO.N,VCC*%
X145720000Y-97460000D03*
%TD*%
D10*
%TO.P,J4,1,Pin_1*%
%TO.N,/D2*%
X145720000Y-49200000D03*
D11*
%TO.P,J4,2,Pin_2*%
%TO.N,/D1*%
X148260000Y-49200000D03*
%TO.P,J4,3,Pin_3*%
%TO.N,/D0*%
X150800000Y-49200000D03*
%TO.P,J4,4,Pin_4*%
%TO.N,/S_LATCH*%
X153340000Y-49200000D03*
%TO.P,J4,5,Pin_5*%
%TO.N,/S_CLK*%
X155880000Y-49200000D03*
%TO.P,J4,6,Pin_6*%
%TO.N,/S_DATA*%
X158420000Y-49200000D03*
%TO.P,J4,7,Pin_7*%
%TO.N,unconnected-(J4-Pin_7-Pad7)*%
X160960000Y-49200000D03*
%TO.P,J4,8,Pin_8*%
%TO.N,unconnected-(J4-Pin_8-Pad8)*%
X163500000Y-49200000D03*
%TD*%
D10*
%TO.P,J2,1,Pin_1*%
%TO.N,unconnected-(J2-Pin_1-Pad1)*%
X118796000Y-49200000D03*
D11*
%TO.P,J2,2,Pin_2*%
%TO.N,unconnected-(J2-Pin_2-Pad2)*%
X121336000Y-49200000D03*
%TO.P,J2,3,Pin_3*%
%TO.N,unconnected-(J2-Pin_3-Pad3)*%
X123876000Y-49200000D03*
%TO.P,J2,4,Pin_4*%
%TO.N,GND*%
X126416000Y-49200000D03*
%TO.P,J2,5,Pin_5*%
%TO.N,/OE{slash}WE*%
X128956000Y-49200000D03*
%TO.P,J2,6,Pin_6*%
%TO.N,/D7*%
X131496000Y-49200000D03*
%TO.P,J2,7,Pin_7*%
%TO.N,/D6*%
X134036000Y-49200000D03*
%TO.P,J2,8,Pin_8*%
%TO.N,/D5*%
X136576000Y-49200000D03*
%TO.P,J2,9,Pin_9*%
%TO.N,/D4*%
X139116000Y-49200000D03*
%TO.P,J2,10,Pin_10*%
%TO.N,/D3*%
X141656000Y-49200000D03*
%TD*%
D12*
%TO.P,C3,1*%
%TO.N,+5V*%
X163230000Y-89460000D03*
%TO.P,C3,2*%
%TO.N,GND*%
X163230000Y-84460000D03*
%TD*%
D13*
%TO.P,U3,1,A14*%
%TO.N,Net-(J5-Pin_2)*%
X112350000Y-72922500D03*
D14*
%TO.P,U3,2,A12*%
%TO.N,Net-(U2-QE)*%
X114890000Y-72922500D03*
%TO.P,U3,3,A7*%
%TO.N,Net-(U1-QH)*%
X117430000Y-72922500D03*
%TO.P,U3,4,A6*%
%TO.N,Net-(U1-QG)*%
X119970000Y-72922500D03*
%TO.P,U3,5,A5*%
%TO.N,Net-(U1-QF)*%
X122510000Y-72922500D03*
%TO.P,U3,6,A4*%
%TO.N,Net-(U1-QE)*%
X125050000Y-72922500D03*
%TO.P,U3,7,A3*%
%TO.N,Net-(U1-QD)*%
X127590000Y-72922500D03*
%TO.P,U3,8,A2*%
%TO.N,Net-(U1-QC)*%
X130130000Y-72922500D03*
%TO.P,U3,9,A1*%
%TO.N,Net-(U1-QB)*%
X132670000Y-72922500D03*
%TO.P,U3,10,A0*%
%TO.N,Net-(U1-QA)*%
X135210000Y-72922500D03*
%TO.P,U3,11,D0*%
%TO.N,/D0*%
X137750000Y-72922500D03*
%TO.P,U3,12,D1*%
%TO.N,/D1*%
X140290000Y-72922500D03*
%TO.P,U3,13,D2*%
%TO.N,/D2*%
X142830000Y-72922500D03*
%TO.P,U3,14,GND*%
%TO.N,GND*%
X145370000Y-72922500D03*
%TO.P,U3,15,D3*%
%TO.N,/D3*%
X145370000Y-57682500D03*
%TO.P,U3,16,D4*%
%TO.N,/D4*%
X142830000Y-57682500D03*
%TO.P,U3,17,D5*%
%TO.N,/D5*%
X140290000Y-57682500D03*
%TO.P,U3,18,D6*%
%TO.N,/D6*%
X137750000Y-57682500D03*
%TO.P,U3,19,D7*%
%TO.N,/D7*%
X135210000Y-57682500D03*
%TO.P,U3,20,~{CS}*%
%TO.N,GND*%
X132670000Y-57682500D03*
%TO.P,U3,21,A10*%
%TO.N,Net-(U2-QC)*%
X130130000Y-57682500D03*
%TO.P,U3,22,~{OE}*%
%TO.N,Net-(J7-Pin_2)*%
X127590000Y-57682500D03*
%TO.P,U3,23,A11*%
%TO.N,Net-(U2-QD)*%
X125050000Y-57682500D03*
%TO.P,U3,24,A9*%
%TO.N,Net-(U2-QB)*%
X122510000Y-57682500D03*
%TO.P,U3,25,A8*%
%TO.N,Net-(U2-QA)*%
X119970000Y-57682500D03*
%TO.P,U3,26,A13*%
%TO.N,Net-(U2-QF)*%
X117430000Y-57682500D03*
%TO.P,U3,27,~{WE}*%
%TO.N,Net-(J6-Pin_2)*%
X114890000Y-57682500D03*
%TO.P,U3,28,VCC*%
%TO.N,+5V*%
X112350000Y-57682500D03*
%TD*%
D15*
%TO.P,U2,1,QB*%
%TO.N,Net-(U2-QB)*%
X159730000Y-81780000D03*
D16*
%TO.P,U2,2,QC*%
%TO.N,Net-(U2-QC)*%
X157190000Y-81780000D03*
%TO.P,U2,3,QD*%
%TO.N,Net-(U2-QD)*%
X154650000Y-81780000D03*
%TO.P,U2,4,QE*%
%TO.N,Net-(U2-QE)*%
X152110000Y-81780000D03*
%TO.P,U2,5,QF*%
%TO.N,Net-(U2-QF)*%
X149570000Y-81780000D03*
%TO.P,U2,6,QG*%
%TO.N,Net-(J5-Pin_1)*%
X147030000Y-81780000D03*
%TO.P,U2,7,QH*%
%TO.N,Net-(J7-Pin_1)*%
X144490000Y-81780000D03*
%TO.P,U2,8,GND*%
%TO.N,GND*%
X141950000Y-81780000D03*
%TO.P,U2,9,QH'*%
%TO.N,unconnected-(U2-QH'-Pad9)*%
X141950000Y-89400000D03*
%TO.P,U2,10,~{SRCLR}*%
%TO.N,+5V*%
X144490000Y-89400000D03*
%TO.P,U2,11,SRCLK*%
%TO.N,/S_CLK*%
X147030000Y-89400000D03*
%TO.P,U2,12,RCLK*%
%TO.N,/S_LATCH*%
X149570000Y-89400000D03*
%TO.P,U2,13,~{OE}*%
%TO.N,GND*%
X152110000Y-89400000D03*
%TO.P,U2,14,SER*%
%TO.N,Net-(U1-QH')*%
X154650000Y-89400000D03*
%TO.P,U2,15,QA*%
%TO.N,Net-(U2-QA)*%
X157190000Y-89400000D03*
%TO.P,U2,16,VCC*%
%TO.N,+5V*%
X159730000Y-89400000D03*
%TD*%
D10*
%TO.P,J5,1,Pin_1*%
%TO.N,Net-(J5-Pin_1)*%
X156270000Y-64510000D03*
D11*
%TO.P,J5,2,Pin_2*%
%TO.N,Net-(J5-Pin_2)*%
X158810000Y-64510000D03*
%TO.P,J5,3,Pin_3*%
%TO.N,+5V*%
X161350000Y-64510000D03*
%TD*%
D15*
%TO.P,U1,1,QB*%
%TO.N,Net-(U1-QB)*%
X133765000Y-81780000D03*
D16*
%TO.P,U1,2,QC*%
%TO.N,Net-(U1-QC)*%
X131225000Y-81780000D03*
%TO.P,U1,3,QD*%
%TO.N,Net-(U1-QD)*%
X128685000Y-81780000D03*
%TO.P,U1,4,QE*%
%TO.N,Net-(U1-QE)*%
X126145000Y-81780000D03*
%TO.P,U1,5,QF*%
%TO.N,Net-(U1-QF)*%
X123605000Y-81780000D03*
%TO.P,U1,6,QG*%
%TO.N,Net-(U1-QG)*%
X121065000Y-81780000D03*
%TO.P,U1,7,QH*%
%TO.N,Net-(U1-QH)*%
X118525000Y-81780000D03*
%TO.P,U1,8,GND*%
%TO.N,GND*%
X115985000Y-81780000D03*
%TO.P,U1,9,QH'*%
%TO.N,Net-(U1-QH')*%
X115985000Y-89400000D03*
%TO.P,U1,10,~{SRCLR}*%
%TO.N,+5V*%
X118525000Y-89400000D03*
%TO.P,U1,11,SRCLK*%
%TO.N,/S_CLK*%
X121065000Y-89400000D03*
%TO.P,U1,12,RCLK*%
%TO.N,/S_LATCH*%
X123605000Y-89400000D03*
%TO.P,U1,13,~{OE}*%
%TO.N,GND*%
X126145000Y-89400000D03*
%TO.P,U1,14,SER*%
%TO.N,/S_DATA*%
X128685000Y-89400000D03*
%TO.P,U1,15,QA*%
%TO.N,Net-(U1-QA)*%
X131225000Y-89400000D03*
%TO.P,U1,16,VCC*%
%TO.N,+5V*%
X133765000Y-89400000D03*
%TD*%
D12*
%TO.P,C1,1*%
%TO.N,+5V*%
X111710000Y-51340000D03*
%TO.P,C1,2*%
%TO.N,GND*%
X106710000Y-51340000D03*
%TD*%
%TO.P,C2,1*%
%TO.N,+5V*%
X137010000Y-89420000D03*
%TO.P,C2,2*%
%TO.N,GND*%
X137010000Y-84420000D03*
%TD*%
D10*
%TO.P,J7,1,Pin_1*%
%TO.N,Net-(J7-Pin_1)*%
X156270000Y-55210000D03*
D11*
%TO.P,J7,2,Pin_2*%
%TO.N,Net-(J7-Pin_2)*%
X158810000Y-55210000D03*
%TO.P,J7,3,Pin_3*%
%TO.N,/OE{slash}WE*%
X161350000Y-55210000D03*
%TD*%
D10*
%TO.P,J6,1,Pin_1*%
%TO.N,/OE{slash}WE*%
X156270000Y-59860000D03*
D11*
%TO.P,J6,2,Pin_2*%
%TO.N,Net-(J6-Pin_2)*%
X158810000Y-59860000D03*
%TO.P,J6,3,Pin_3*%
%TO.N,Net-(J5-Pin_1)*%
X161350000Y-59860000D03*
%TD*%
D17*
%TO.N,Net-(J7-Pin_2)*%
X158810000Y-52695686D02*
X158810000Y-55210000D01*
X156824314Y-50710000D02*
X158810000Y-52695686D01*
X152840000Y-50710000D02*
X156824314Y-50710000D01*
X150916346Y-47690000D02*
X152090000Y-48863654D01*
X152090000Y-48863654D02*
X152090000Y-49960000D01*
X125170000Y-52000000D02*
X125170000Y-48330000D01*
X127590000Y-54420000D02*
X125170000Y-52000000D01*
X125170000Y-48330000D02*
X125810000Y-47690000D01*
X152090000Y-49960000D02*
X152840000Y-50710000D01*
X127590000Y-57682500D02*
X127590000Y-54420000D01*
X125810000Y-47690000D02*
X150916346Y-47690000D01*
D18*
%TO.N,+5V*%
X138050000Y-93890000D02*
X138100000Y-93940000D01*
X159730000Y-91140000D02*
X159730000Y-89400000D01*
X136990000Y-89400000D02*
X137010000Y-89420000D01*
X144340000Y-93890000D02*
X145940000Y-93890000D01*
X156220000Y-93890000D02*
X156980000Y-93890000D01*
X145940000Y-93890000D02*
X156220000Y-93890000D01*
X112350000Y-51980000D02*
X111710000Y-51340000D01*
X108340000Y-89520000D02*
X110465000Y-91645000D01*
X112710000Y-93890000D02*
X118450000Y-93890000D01*
X138100000Y-93940000D02*
X138100000Y-97460000D01*
X138050000Y-93890000D02*
X138630000Y-93890000D01*
X118450000Y-93890000D02*
X133720000Y-93890000D01*
X110465000Y-91645000D02*
X112710000Y-93890000D01*
X133765000Y-89400000D02*
X136990000Y-89400000D01*
X118525000Y-89400000D02*
X118525000Y-93815000D01*
D17*
X138100000Y-94420000D02*
X138630000Y-93890000D01*
D18*
X138630000Y-93890000D02*
X144340000Y-93890000D01*
X159730000Y-89400000D02*
X163170000Y-89400000D01*
X133765000Y-89400000D02*
X133765000Y-93845000D01*
X144490000Y-93740000D02*
X144490000Y-89400000D01*
X112350000Y-57682500D02*
X112287500Y-57682500D01*
X156980000Y-93890000D02*
X159730000Y-91140000D01*
X144340000Y-93890000D02*
X144490000Y-93740000D01*
X133765000Y-93845000D02*
X133720000Y-93890000D01*
X112350000Y-57682500D02*
X112350000Y-51980000D01*
X118525000Y-93815000D02*
X118450000Y-93890000D01*
X112287500Y-57682500D02*
X108340000Y-61630000D01*
X163170000Y-89400000D02*
X163230000Y-89460000D01*
X108340000Y-61630000D02*
X108340000Y-89520000D01*
X133720000Y-93890000D02*
X138050000Y-93890000D01*
D17*
%TO.N,/OE{slash}WE*%
X161350000Y-55210000D02*
X156700000Y-59860000D01*
X156700000Y-59860000D02*
X156270000Y-59860000D01*
%TO.N,/D7*%
X135210000Y-52914000D02*
X131496000Y-49200000D01*
X135210000Y-57682500D02*
X135210000Y-52914000D01*
%TO.N,/D6*%
X137750000Y-57682500D02*
X137750000Y-52914000D01*
X137750000Y-52914000D02*
X134036000Y-49200000D01*
%TO.N,/D5*%
X140290000Y-57682500D02*
X140290000Y-52914000D01*
X140290000Y-52914000D02*
X136576000Y-49200000D01*
%TO.N,/D4*%
X142830000Y-57682500D02*
X142830000Y-52914000D01*
X142830000Y-52914000D02*
X139116000Y-49200000D01*
%TO.N,/D3*%
X145370000Y-52914000D02*
X141656000Y-49200000D01*
X145370000Y-57682500D02*
X145370000Y-52914000D01*
%TO.N,/D2*%
X142830000Y-72922500D02*
X142830000Y-74330000D01*
X144100000Y-75600000D02*
X146074314Y-75600000D01*
X146074314Y-75600000D02*
X147810000Y-73864314D01*
X147810000Y-73864314D02*
X147810000Y-51290000D01*
X147810000Y-51290000D02*
X145720000Y-49200000D01*
X142830000Y-74330000D02*
X144100000Y-75600000D01*
%TO.N,/D1*%
X146240000Y-76000000D02*
X148215686Y-74024314D01*
X140290000Y-72922500D02*
X143367500Y-76000000D01*
X148260000Y-74024314D02*
X148260000Y-49200000D01*
X143367500Y-76000000D02*
X146240000Y-76000000D01*
X148215686Y-74024314D02*
X148260000Y-74024314D01*
%TO.N,/D0*%
X137750000Y-72922500D02*
X141227500Y-76400000D01*
X146450000Y-76400000D02*
X148660000Y-74190000D01*
X141227500Y-76400000D02*
X146450000Y-76400000D01*
X148660000Y-74190000D02*
X148660000Y-51340000D01*
X148660000Y-51340000D02*
X150800000Y-49200000D01*
%TO.N,/S_LATCH*%
X153340000Y-49200000D02*
X154830000Y-47710000D01*
X159700000Y-50212282D02*
X164340000Y-54852282D01*
X158950000Y-47710000D02*
X159700000Y-48460000D01*
X151570000Y-87400000D02*
X149570000Y-89400000D01*
X154830000Y-47710000D02*
X158950000Y-47710000D01*
X164340000Y-54852282D02*
X164340000Y-81794364D01*
X158734365Y-87400000D02*
X151570000Y-87400000D01*
X164340000Y-81794364D02*
X158734365Y-87400000D01*
X159700000Y-48460000D02*
X159700000Y-50212282D01*
%TO.N,/S_CLK*%
X160162032Y-51240000D02*
X163601016Y-54678984D01*
X155880000Y-49200000D02*
X157920000Y-51240000D01*
X163940000Y-81540000D02*
X163290000Y-82190000D01*
X163290000Y-82190000D02*
X158480000Y-87000000D01*
X163601016Y-54678984D02*
X163940000Y-55017968D01*
X149430000Y-87000000D02*
X147030000Y-89400000D01*
X158480000Y-87000000D02*
X149430000Y-87000000D01*
X163940000Y-55017968D02*
X163940000Y-81540000D01*
X157920000Y-51240000D02*
X160162032Y-51240000D01*
%TO.N,Net-(J5-Pin_1)*%
X156700000Y-64510000D02*
X156270000Y-64510000D01*
X147030000Y-79805686D02*
X147030000Y-81780000D01*
X154540000Y-66240000D02*
X154540000Y-72295686D01*
X156270000Y-64510000D02*
X154540000Y-66240000D01*
X154540000Y-72295686D02*
X147030000Y-79805686D01*
X161350000Y-59860000D02*
X156700000Y-64510000D01*
%TO.N,Net-(J5-Pin_2)*%
X149370000Y-83460000D02*
X152250000Y-83460000D01*
X112350000Y-83160000D02*
X115790000Y-86600000D01*
X154940000Y-72461372D02*
X154940000Y-71860000D01*
X153360000Y-74041372D02*
X154595686Y-72805686D01*
X152250000Y-83460000D02*
X153360000Y-82350000D01*
X154940000Y-68380000D02*
X158810000Y-64510000D01*
X153360000Y-82350000D02*
X153360000Y-74041372D01*
X154595686Y-72805686D02*
X154940000Y-72461372D01*
X115790000Y-86600000D02*
X146230000Y-86600000D01*
X146230000Y-86600000D02*
X149370000Y-83460000D01*
X112350000Y-72922500D02*
X112350000Y-83160000D01*
X154940000Y-71860000D02*
X154940000Y-68380000D01*
%TO.N,Net-(J7-Pin_1)*%
X144490000Y-81780000D02*
X154140000Y-72130000D01*
X154140000Y-57340000D02*
X156270000Y-55210000D01*
X154140000Y-72130000D02*
X154140000Y-57340000D01*
%TO.N,Net-(U2-QE)*%
X112750000Y-75062500D02*
X114890000Y-72922500D01*
X150830000Y-83060000D02*
X149000000Y-83060000D01*
X115955686Y-86200000D02*
X112750000Y-82994314D01*
X112750000Y-82994314D02*
X112750000Y-75062500D01*
X152110000Y-81780000D02*
X150830000Y-83060000D01*
X149000000Y-83060000D02*
X145860000Y-86200000D01*
X145860000Y-86200000D02*
X115955686Y-86200000D01*
X114890000Y-72922500D02*
X114890000Y-72450000D01*
X114890000Y-72922500D02*
X114885000Y-72927500D01*
%TO.N,Net-(U2-QF)*%
X114610000Y-84220000D02*
X113190000Y-82800000D01*
X145550000Y-85800000D02*
X143710000Y-85800000D01*
X113150000Y-76810000D02*
X116130000Y-73830000D01*
X116130000Y-58982500D02*
X117430000Y-57682500D01*
X116130000Y-73830000D02*
X116130000Y-58982500D01*
X113190000Y-76850000D02*
X113150000Y-76810000D01*
X114610000Y-84288628D02*
X114610000Y-84220000D01*
X149570000Y-81780000D02*
X145550000Y-85800000D01*
X116121372Y-85800000D02*
X114610000Y-84288628D01*
X113190000Y-82800000D02*
X113190000Y-76850000D01*
X143710000Y-85800000D02*
X116121372Y-85800000D01*
%TD*%
%TA.AperFunction,Conductor*%
%TO.N,GND*%
G36*
X142720507Y-97250156D02*
G01*
X142680000Y-97388111D01*
X142680000Y-97531889D01*
X142720507Y-97669844D01*
X142746314Y-97710000D01*
X141073686Y-97710000D01*
X141099493Y-97669844D01*
X141140000Y-97531889D01*
X141140000Y-97388111D01*
X141099493Y-97250156D01*
X141073686Y-97210000D01*
X142746314Y-97210000D01*
X142720507Y-97250156D01*
G37*
%TD.AperFunction*%
%TA.AperFunction,Conductor*%
G36*
X162861481Y-54808868D02*
G01*
X162893450Y-54831967D01*
X163295181Y-55233698D01*
X163328666Y-55295021D01*
X163331500Y-55321379D01*
X163331500Y-81236589D01*
X163311815Y-81303628D01*
X163295181Y-81324270D01*
X158264270Y-86355181D01*
X158202947Y-86388666D01*
X158176589Y-86391500D01*
X149473953Y-86391500D01*
X149465854Y-86390969D01*
X149443873Y-86388075D01*
X149430001Y-86386249D01*
X149429999Y-86386249D01*
X149271150Y-86407161D01*
X149271145Y-86407163D01*
X149123128Y-86468473D01*
X149123123Y-86468476D01*
X149029465Y-86540343D01*
X149027929Y-86541522D01*
X149027925Y-86541525D01*
X149009762Y-86555461D01*
X148996010Y-86566015D01*
X148973996Y-86594703D01*
X148968645Y-86600805D01*
X147470314Y-88099135D01*
X147408991Y-88132620D01*
X147350540Y-88131229D01*
X147258092Y-88106458D01*
X147258088Y-88106457D01*
X147258087Y-88106457D01*
X147258086Y-88106456D01*
X147258081Y-88106456D01*
X147030002Y-88086502D01*
X147029998Y-88086502D01*
X146801918Y-88106456D01*
X146801910Y-88106457D01*
X146580761Y-88165714D01*
X146580750Y-88165718D01*
X146373254Y-88262475D01*
X146373252Y-88262476D01*
X146344688Y-88282477D01*
X146185700Y-88393802D01*
X146185698Y-88393803D01*
X146185695Y-88393806D01*
X146023806Y-88555695D01*
X146023803Y-88555698D01*
X146023802Y-88555700D01*
X146009798Y-88575700D01*
X145892476Y-88743251D01*
X145872382Y-88786345D01*
X145826209Y-88838784D01*
X145759016Y-88857936D01*
X145692135Y-88837720D01*
X145647618Y-88786345D01*
X145627523Y-88743251D01*
X145496198Y-88555700D01*
X145334300Y-88393802D01*
X145146749Y-88262477D01*
X145146745Y-88262475D01*
X144939249Y-88165718D01*
X144939238Y-88165714D01*
X144718089Y-88106457D01*
X144718081Y-88106456D01*
X144490002Y-88086502D01*
X144489998Y-88086502D01*
X144261918Y-88106456D01*
X144261910Y-88106457D01*
X144040761Y-88165714D01*
X144040750Y-88165718D01*
X143833254Y-88262475D01*
X143833252Y-88262476D01*
X143804688Y-88282477D01*
X143645700Y-88393802D01*
X143645698Y-88393803D01*
X143645695Y-88393806D01*
X143483806Y-88555695D01*
X143483803Y-88555698D01*
X143483802Y-88555700D01*
X143469798Y-88575700D01*
X143352476Y-88743251D01*
X143332382Y-88786345D01*
X143286209Y-88838784D01*
X143219016Y-88857936D01*
X143152135Y-88837720D01*
X143107618Y-88786345D01*
X143087523Y-88743251D01*
X142956198Y-88555700D01*
X142794300Y-88393802D01*
X142606749Y-88262477D01*
X142606745Y-88262475D01*
X142399249Y-88165718D01*
X142399238Y-88165714D01*
X142178089Y-88106457D01*
X142178081Y-88106456D01*
X141950002Y-88086502D01*
X141949998Y-88086502D01*
X141721918Y-88106456D01*
X141721910Y-88106457D01*
X141500761Y-88165714D01*
X141500750Y-88165718D01*
X141293254Y-88262475D01*
X141293252Y-88262476D01*
X141264688Y-88282477D01*
X141105700Y-88393802D01*
X141105698Y-88393803D01*
X141105695Y-88393806D01*
X140943806Y-88555695D01*
X140943803Y-88555698D01*
X140943802Y-88555700D01*
X140861767Y-88672856D01*
X140812476Y-88743252D01*
X140812475Y-88743254D01*
X140715718Y-88950750D01*
X140715714Y-88950761D01*
X140656457Y-89171910D01*
X140656456Y-89171918D01*
X140636502Y-89399998D01*
X140636502Y-89400001D01*
X140656456Y-89628081D01*
X140656457Y-89628089D01*
X140715714Y-89849238D01*
X140715718Y-89849249D01*
X140810486Y-90052479D01*
X140812477Y-90056749D01*
X140943802Y-90244300D01*
X141105700Y-90406198D01*
X141293251Y-90537523D01*
X141336144Y-90557524D01*
X141500750Y-90634281D01*
X141500752Y-90634281D01*
X141500757Y-90634284D01*
X141721913Y-90693543D01*
X141884832Y-90707796D01*
X141949998Y-90713498D01*
X141950000Y-90713498D01*
X141950002Y-90713498D01*
X142007021Y-90708509D01*
X142178087Y-90693543D01*
X142399243Y-90634284D01*
X142606749Y-90537523D01*
X142794300Y-90406198D01*
X142956198Y-90244300D01*
X143087523Y-90056749D01*
X143107618Y-90013655D01*
X143153790Y-89961215D01*
X143220983Y-89942063D01*
X143287864Y-89962278D01*
X143332382Y-90013655D01*
X143352477Y-90056749D01*
X143483802Y-90244300D01*
X143483806Y-90244304D01*
X143545181Y-90305679D01*
X143578666Y-90367002D01*
X143581500Y-90393360D01*
X143581500Y-92857500D01*
X143561815Y-92924539D01*
X143509011Y-92970294D01*
X143457500Y-92981500D01*
X138075404Y-92981500D01*
X138072160Y-92981415D01*
X138002190Y-92977748D01*
X138002189Y-92977748D01*
X138002188Y-92977748D01*
X137988142Y-92979973D01*
X137968743Y-92981500D01*
X134797500Y-92981500D01*
X134730461Y-92961815D01*
X134684706Y-92909011D01*
X134673500Y-92857500D01*
X134673500Y-90432500D01*
X134693185Y-90365461D01*
X134745989Y-90319706D01*
X134797500Y-90308500D01*
X135996640Y-90308500D01*
X136063679Y-90328185D01*
X136084321Y-90344819D01*
X136165700Y-90426198D01*
X136353251Y-90557523D01*
X136439032Y-90597523D01*
X136560750Y-90654281D01*
X136560752Y-90654281D01*
X136560757Y-90654284D01*
X136781913Y-90713543D01*
X136944832Y-90727796D01*
X137009998Y-90733498D01*
X137010000Y-90733498D01*
X137010002Y-90733498D01*
X137067021Y-90728509D01*
X137238087Y-90713543D01*
X137459243Y-90654284D01*
X137666749Y-90557523D01*
X137854300Y-90426198D01*
X138016198Y-90264300D01*
X138147523Y-90076749D01*
X138244284Y-89869243D01*
X138303543Y-89648087D01*
X138323498Y-89420000D01*
X138303543Y-89191913D01*
X138244284Y-88970757D01*
X138147523Y-88763251D01*
X138016198Y-88575700D01*
X137854300Y-88413802D01*
X137666749Y-88282477D01*
X137666745Y-88282475D01*
X137459249Y-88185718D01*
X137459238Y-88185714D01*
X137238089Y-88126457D01*
X137238081Y-88126456D01*
X137010002Y-88106502D01*
X137009998Y-88106502D01*
X136781918Y-88126456D01*
X136781910Y-88126457D01*
X136560761Y-88185714D01*
X136560750Y-88185718D01*
X136353254Y-88282475D01*
X136353252Y-88282476D01*
X136353251Y-88282477D01*
X136165700Y-88413802D01*
X136165698Y-88413803D01*
X136165695Y-88413806D01*
X136124321Y-88455181D01*
X136062998Y-88488666D01*
X136036640Y-88491500D01*
X134758360Y-88491500D01*
X134691321Y-88471815D01*
X134670679Y-88455181D01*
X134609304Y-88393806D01*
X134609300Y-88393802D01*
X134421749Y-88262477D01*
X134421745Y-88262475D01*
X134214249Y-88165718D01*
X134214238Y-88165714D01*
X133993089Y-88106457D01*
X133993081Y-88106456D01*
X133765002Y-88086502D01*
X133764998Y-88086502D01*
X133536918Y-88106456D01*
X133536910Y-88106457D01*
X133315761Y-88165714D01*
X133315750Y-88165718D01*
X133108254Y-88262475D01*
X133108252Y-88262476D01*
X133079688Y-88282477D01*
X132920700Y-88393802D01*
X132920698Y-88393803D01*
X132920695Y-88393806D01*
X132758806Y-88555695D01*
X132758803Y-88555698D01*
X132758802Y-88555700D01*
X132744798Y-88575700D01*
X132627476Y-88743251D01*
X132607382Y-88786345D01*
X132561209Y-88838784D01*
X132494016Y-88857936D01*
X132427135Y-88837720D01*
X132382618Y-88786345D01*
X132362523Y-88743251D01*
X132231198Y-88555700D01*
X132069300Y-88393802D01*
X131881749Y-88262477D01*
X131881745Y-88262475D01*
X131674249Y-88165718D01*
X131674238Y-88165714D01*
X131453089Y-88106457D01*
X131453081Y-88106456D01*
X131225002Y-88086502D01*
X131224998Y-88086502D01*
X130996918Y-88106456D01*
X130996910Y-88106457D01*
X130775761Y-88165714D01*
X130775750Y-88165718D01*
X130568254Y-88262475D01*
X130568252Y-88262476D01*
X130539688Y-88282477D01*
X130380700Y-88393802D01*
X130380698Y-88393803D01*
X130380695Y-88393806D01*
X130218806Y-88555695D01*
X130218803Y-88555698D01*
X130218802Y-88555700D01*
X130204798Y-88575700D01*
X130087476Y-88743251D01*
X130067382Y-88786345D01*
X130021209Y-88838784D01*
X129954016Y-88857936D01*
X129887135Y-88837720D01*
X129842618Y-88786345D01*
X129822523Y-88743251D01*
X129691198Y-88555700D01*
X129529300Y-88393802D01*
X129341749Y-88262477D01*
X129341745Y-88262475D01*
X129134249Y-88165718D01*
X129134238Y-88165714D01*
X128913089Y-88106457D01*
X128913081Y-88106456D01*
X128685002Y-88086502D01*
X128684998Y-88086502D01*
X128456918Y-88106456D01*
X128456910Y-88106457D01*
X128235761Y-88165714D01*
X128235750Y-88165718D01*
X128028254Y-88262475D01*
X128028252Y-88262476D01*
X127999688Y-88282477D01*
X127840700Y-88393802D01*
X127840698Y-88393803D01*
X127840695Y-88393806D01*
X127678806Y-88555695D01*
X127678803Y-88555698D01*
X127678802Y-88555700D01*
X127596767Y-88672856D01*
X127547476Y-88743252D01*
X127547474Y-88743256D01*
X127522691Y-88796402D01*
X127476518Y-88848841D01*
X127409324Y-88867992D01*
X127342444Y-88847775D01*
X127297927Y-88796399D01*
X127275133Y-88747517D01*
X127144657Y-88561179D01*
X126983820Y-88400342D01*
X126797482Y-88269865D01*
X126591328Y-88173734D01*
X126395000Y-88121127D01*
X126395000Y-89084314D01*
X126383045Y-89072359D01*
X126270148Y-89014835D01*
X126176481Y-89000000D01*
X126113519Y-89000000D01*
X126019852Y-89014835D01*
X125906955Y-89072359D01*
X125895000Y-89084314D01*
X125895000Y-88121127D01*
X125698671Y-88173734D01*
X125492517Y-88269865D01*
X125306179Y-88400342D01*
X125145342Y-88561179D01*
X125014865Y-88747517D01*
X124992071Y-88796401D01*
X124945898Y-88848840D01*
X124878705Y-88867992D01*
X124811824Y-88847776D01*
X124767307Y-88796401D01*
X124742523Y-88743251D01*
X124611198Y-88555700D01*
X124449300Y-88393802D01*
X124261749Y-88262477D01*
X124261745Y-88262475D01*
X124054249Y-88165718D01*
X124054238Y-88165714D01*
X123833089Y-88106457D01*
X123833081Y-88106456D01*
X123605002Y-88086502D01*
X123604998Y-88086502D01*
X123376918Y-88106456D01*
X123376910Y-88106457D01*
X123155761Y-88165714D01*
X123155750Y-88165718D01*
X122948254Y-88262475D01*
X122948252Y-88262476D01*
X122919688Y-88282477D01*
X122760700Y-88393802D01*
X122760698Y-88393803D01*
X122760695Y-88393806D01*
X122598806Y-88555695D01*
X122598803Y-88555698D01*
X122598802Y-88555700D01*
X122584798Y-88575700D01*
X122467476Y-88743251D01*
X122447382Y-88786345D01*
X122401209Y-88838784D01*
X122334016Y-88857936D01*
X122267135Y-88837720D01*
X122222618Y-88786345D01*
X122202523Y-88743251D01*
X122071198Y-88555700D01*
X121909300Y-88393802D01*
X121721749Y-88262477D01*
X121721745Y-88262475D01*
X121514249Y-88165718D01*
X121514238Y-88165714D01*
X121293089Y-88106457D01*
X121293081Y-88106456D01*
X121065002Y-88086502D01*
X121064998Y-88086502D01*
X120836918Y-88106456D01*
X120836910Y-88106457D01*
X120615761Y-88165714D01*
X120615750Y-88165718D01*
X120408254Y-88262475D01*
X120408252Y-88262476D01*
X120379688Y-88282477D01*
X120220700Y-88393802D01*
X120220698Y-88393803D01*
X120220695Y-88393806D01*
X120058806Y-88555695D01*
X120058803Y-88555698D01*
X120058802Y-88555700D01*
X120044798Y-88575700D01*
X119927476Y-88743251D01*
X119907382Y-88786345D01*
X119861209Y-88838784D01*
X119794016Y-88857936D01*
X119727135Y-88837720D01*
X119682618Y-88786345D01*
X119662523Y-88743251D01*
X119531198Y-88555700D01*
X119369300Y-88393802D01*
X119181749Y-88262477D01*
X119181745Y-88262475D01*
X118974249Y-88165718D01*
X118974238Y-88165714D01*
X118753089Y-88106457D01*
X118753081Y-88106456D01*
X118525002Y-88086502D01*
X118524998Y-88086502D01*
X118296918Y-88106456D01*
X118296910Y-88106457D01*
X118075761Y-88165714D01*
X118075750Y-88165718D01*
X117868254Y-88262475D01*
X117868252Y-88262476D01*
X117839688Y-88282477D01*
X117680700Y-88393802D01*
X117680698Y-88393803D01*
X117680695Y-88393806D01*
X117518806Y-88555695D01*
X117518803Y-88555698D01*
X117518802Y-88555700D01*
X117504798Y-88575700D01*
X117387476Y-88743251D01*
X117367382Y-88786345D01*
X117321209Y-88838784D01*
X117254016Y-88857936D01*
X117187135Y-88837720D01*
X117142618Y-88786345D01*
X117122523Y-88743251D01*
X116991198Y-88555700D01*
X116829300Y-88393802D01*
X116641749Y-88262477D01*
X116641745Y-88262475D01*
X116434249Y-88165718D01*
X116434238Y-88165714D01*
X116213089Y-88106457D01*
X116213081Y-88106456D01*
X115985002Y-88086502D01*
X115984998Y-88086502D01*
X115756918Y-88106456D01*
X115756910Y-88106457D01*
X115535761Y-88165714D01*
X115535750Y-88165718D01*
X115328254Y-88262475D01*
X115328252Y-88262476D01*
X115299688Y-88282477D01*
X115140700Y-88393802D01*
X115140698Y-88393803D01*
X115140695Y-88393806D01*
X114978806Y-88555695D01*
X114978803Y-88555698D01*
X114978802Y-88555700D01*
X114896767Y-88672856D01*
X114847476Y-88743252D01*
X114847475Y-88743254D01*
X114750718Y-88950750D01*
X114750714Y-88950761D01*
X114691457Y-89171910D01*
X114691456Y-89171918D01*
X114671502Y-89399998D01*
X114671502Y-89400001D01*
X114691456Y-89628081D01*
X114691457Y-89628089D01*
X114750714Y-89849238D01*
X114750718Y-89849249D01*
X114845486Y-90052479D01*
X114847477Y-90056749D01*
X114978802Y-90244300D01*
X115140700Y-90406198D01*
X115328251Y-90537523D01*
X115371144Y-90557524D01*
X115535750Y-90634281D01*
X115535752Y-90634281D01*
X115535757Y-90634284D01*
X115756913Y-90693543D01*
X115919832Y-90707796D01*
X115984998Y-90713498D01*
X115985000Y-90713498D01*
X115985002Y-90713498D01*
X116042021Y-90708509D01*
X116213087Y-90693543D01*
X116434243Y-90634284D01*
X116641749Y-90537523D01*
X116829300Y-90406198D01*
X116991198Y-90244300D01*
X117122523Y-90056749D01*
X117142618Y-90013655D01*
X117188790Y-89961215D01*
X117255983Y-89942063D01*
X117322864Y-89962278D01*
X117367382Y-90013655D01*
X117387477Y-90056749D01*
X117518802Y-90244300D01*
X117518806Y-90244304D01*
X117580181Y-90305679D01*
X117613666Y-90367002D01*
X117616500Y-90393360D01*
X117616500Y-92857500D01*
X117596815Y-92924539D01*
X117544011Y-92970294D01*
X117492500Y-92981500D01*
X113137675Y-92981500D01*
X113070636Y-92961815D01*
X113049994Y-92945181D01*
X109284819Y-89180006D01*
X109251334Y-89118683D01*
X109248500Y-89092325D01*
X109248500Y-62057674D01*
X109268185Y-61990635D01*
X109284814Y-61969998D01*
X112042813Y-59211998D01*
X112104134Y-59178515D01*
X112158084Y-59178789D01*
X112184428Y-59184803D01*
X112371694Y-59193213D01*
X112405335Y-59194724D01*
X112405335Y-59194723D01*
X112405339Y-59194724D01*
X112624472Y-59165040D01*
X112834783Y-59096706D01*
X113029513Y-58991918D01*
X113202402Y-58854043D01*
X113347895Y-58687513D01*
X113461314Y-58497681D01*
X113501255Y-58391256D01*
X113543239Y-58335411D01*
X113608753Y-58311127D01*
X113676995Y-58326118D01*
X113726300Y-58375624D01*
X113733436Y-58391248D01*
X113735183Y-58395901D01*
X113735184Y-58395904D01*
X113735186Y-58395909D01*
X113786036Y-58501500D01*
X113831131Y-58595141D01*
X113831133Y-58595145D01*
X113961107Y-58774039D01*
X113961113Y-58774047D01*
X114093686Y-58900799D01*
X114120947Y-58926863D01*
X114173211Y-58961362D01*
X114305495Y-59048683D01*
X114305497Y-59048684D01*
X114305499Y-59048685D01*
X114508838Y-59135596D01*
X114724428Y-59184803D01*
X114910363Y-59193153D01*
X114945335Y-59194724D01*
X114945335Y-59194723D01*
X114945339Y-59194724D01*
X115164472Y-59165040D01*
X115359185Y-59101773D01*
X115429022Y-59099779D01*
X115488855Y-59135859D01*
X115519684Y-59198560D01*
X115521500Y-59219705D01*
X115521500Y-71388551D01*
X115501815Y-71455590D01*
X115449011Y-71501345D01*
X115379853Y-71511289D01*
X115348766Y-71502573D01*
X115290148Y-71477519D01*
X115271162Y-71469404D01*
X115271157Y-71469402D01*
X115271151Y-71469401D01*
X115055572Y-71420197D01*
X114834664Y-71410275D01*
X114615527Y-71439960D01*
X114615522Y-71439961D01*
X114405215Y-71508294D01*
X114210485Y-71613083D01*
X114037600Y-71750954D01*
X113892105Y-71917486D01*
X113892104Y-71917488D01*
X113808947Y-72056669D01*
X113757665Y-72104122D01*
X113688867Y-72116317D01*
X113624398Y-72089382D01*
X113584726Y-72031868D01*
X113578500Y-71993069D01*
X113578500Y-71873862D01*
X113578499Y-71873845D01*
X113574491Y-71836575D01*
X113571989Y-71813299D01*
X113520889Y-71676296D01*
X113433261Y-71559239D01*
X113316204Y-71471611D01*
X113310279Y-71469401D01*
X113179203Y-71420511D01*
X113118654Y-71414000D01*
X113118638Y-71414000D01*
X111581362Y-71414000D01*
X111581345Y-71414000D01*
X111520797Y-71420511D01*
X111520795Y-71420511D01*
X111383795Y-71471611D01*
X111266739Y-71559239D01*
X111179111Y-71676295D01*
X111128011Y-71813295D01*
X111128011Y-71813297D01*
X111121500Y-71873845D01*
X111121500Y-73971154D01*
X111128011Y-74031702D01*
X111128011Y-74031704D01*
X111170663Y-74146054D01*
X111179111Y-74168704D01*
X111266739Y-74285761D01*
X111383796Y-74373389D01*
X111520799Y-74424489D01*
X111548050Y-74427418D01*
X111581345Y-74430999D01*
X111581362Y-74431000D01*
X111617500Y-74431000D01*
X111684539Y-74450685D01*
X111730294Y-74503489D01*
X111741500Y-74555000D01*
X111741500Y-83116054D01*
X111740969Y-83124156D01*
X111736250Y-83159999D01*
X111736250Y-83160003D01*
X111741132Y-83197089D01*
X111741134Y-83197105D01*
X111743997Y-83218850D01*
X111757161Y-83318849D01*
X111757163Y-83318854D01*
X111818473Y-83466871D01*
X111818476Y-83466877D01*
X111856729Y-83516728D01*
X111891523Y-83562072D01*
X111891525Y-83562074D01*
X111891526Y-83562075D01*
X111916012Y-83593986D01*
X111944698Y-83615998D01*
X111950794Y-83621343D01*
X115328655Y-86999204D01*
X115333996Y-87005294D01*
X115343927Y-87018236D01*
X115356010Y-87033984D01*
X115356011Y-87033985D01*
X115356013Y-87033987D01*
X115379828Y-87052261D01*
X115386284Y-87057215D01*
X115386308Y-87057235D01*
X115462167Y-87115443D01*
X115483124Y-87131524D01*
X115483126Y-87131524D01*
X115483128Y-87131526D01*
X115557136Y-87162181D01*
X115631149Y-87192838D01*
X115710574Y-87203294D01*
X115789999Y-87213751D01*
X115790000Y-87213751D01*
X115790001Y-87213751D01*
X115825853Y-87209031D01*
X115833954Y-87208500D01*
X146186054Y-87208500D01*
X146194151Y-87209030D01*
X146219527Y-87212371D01*
X146229999Y-87213750D01*
X146230000Y-87213750D01*
X146230001Y-87213750D01*
X146265846Y-87209031D01*
X146267961Y-87208752D01*
X146267974Y-87208751D01*
X146269881Y-87208500D01*
X146269885Y-87208500D01*
X146351002Y-87197820D01*
X146369457Y-87195391D01*
X146388851Y-87192838D01*
X146388856Y-87192836D01*
X146536876Y-87131524D01*
X146632072Y-87058477D01*
X146632073Y-87058475D01*
X146640164Y-87052267D01*
X146640171Y-87052261D01*
X146663983Y-87033990D01*
X146663982Y-87033990D01*
X146663987Y-87033987D01*
X146686010Y-87005285D01*
X146691338Y-86999209D01*
X149585730Y-84104819D01*
X149647053Y-84071334D01*
X149673411Y-84068500D01*
X152206054Y-84068500D01*
X152214151Y-84069030D01*
X152231648Y-84071334D01*
X152249999Y-84073750D01*
X152250000Y-84073750D01*
X152250001Y-84073750D01*
X152285846Y-84069031D01*
X152287961Y-84068752D01*
X152287974Y-84068751D01*
X152289881Y-84068500D01*
X152289885Y-84068500D01*
X152371002Y-84057820D01*
X152389457Y-84055391D01*
X152408851Y-84052838D01*
X152452314Y-84034835D01*
X152556876Y-83991524D01*
X152652072Y-83918477D01*
X152652073Y-83918475D01*
X152660164Y-83912267D01*
X152660171Y-83912261D01*
X152683983Y-83893990D01*
X152683982Y-83893990D01*
X152683987Y-83893987D01*
X152706010Y-83865285D01*
X152711338Y-83859209D01*
X153719571Y-82850976D01*
X153780892Y-82817493D01*
X153850584Y-82822477D01*
X153878368Y-82837080D01*
X153993251Y-82917523D01*
X154048445Y-82943260D01*
X154200750Y-83014281D01*
X154200752Y-83014281D01*
X154200757Y-83014284D01*
X154421913Y-83073543D01*
X154584832Y-83087796D01*
X154649998Y-83093498D01*
X154650000Y-83093498D01*
X154650002Y-83093498D01*
X154711654Y-83088104D01*
X154878087Y-83073543D01*
X155099243Y-83014284D01*
X155306749Y-82917523D01*
X155494300Y-82786198D01*
X155656198Y-82624300D01*
X155787523Y-82436749D01*
X155807618Y-82393655D01*
X155853790Y-82341215D01*
X155920983Y-82322063D01*
X155987864Y-82342278D01*
X156032382Y-82393655D01*
X156052477Y-82436749D01*
X156183802Y-82624300D01*
X156345700Y-82786198D01*
X156533251Y-82917523D01*
X156588445Y-82943260D01*
X156740750Y-83014281D01*
X156740752Y-83014281D01*
X156740757Y-83014284D01*
X156961913Y-83073543D01*
X157124832Y-83087796D01*
X157189998Y-83093498D01*
X157190000Y-83093498D01*
X157190002Y-83093498D01*
X157251654Y-83088104D01*
X157418087Y-83073543D01*
X157639243Y-83014284D01*
X157846749Y-82917523D01*
X158034300Y-82786198D01*
X158196198Y-82624300D01*
X158201566Y-82616632D01*
X158256139Y-82573008D01*
X158325637Y-82565813D01*
X158387993Y-82597333D01*
X158423409Y-82657562D01*
X158426430Y-82674498D01*
X158428011Y-82689202D01*
X158428011Y-82689204D01*
X158464189Y-82786198D01*
X158479111Y-82826204D01*
X158566739Y-82943261D01*
X158683796Y-83030889D01*
X158820799Y-83081989D01*
X158848050Y-83084918D01*
X158881345Y-83088499D01*
X158881362Y-83088500D01*
X160578638Y-83088500D01*
X160578654Y-83088499D01*
X160605692Y-83085591D01*
X160639201Y-83081989D01*
X160776204Y-83030889D01*
X160893261Y-82943261D01*
X160980889Y-82826204D01*
X161031989Y-82689201D01*
X161035591Y-82655692D01*
X161038499Y-82628654D01*
X161038500Y-82628637D01*
X161038500Y-80931362D01*
X161038499Y-80931345D01*
X161035157Y-80900270D01*
X161031989Y-80870799D01*
X160980889Y-80733796D01*
X160893261Y-80616739D01*
X160776204Y-80529111D01*
X160639203Y-80478011D01*
X160578654Y-80471500D01*
X160578638Y-80471500D01*
X158881362Y-80471500D01*
X158881345Y-80471500D01*
X158820797Y-80478011D01*
X158820795Y-80478011D01*
X158683795Y-80529111D01*
X158566739Y-80616739D01*
X158479111Y-80733795D01*
X158428011Y-80870795D01*
X158428011Y-80870797D01*
X158426430Y-80885501D01*
X158399691Y-80950052D01*
X158342298Y-80989899D01*
X158272473Y-80992392D01*
X158212384Y-80956738D01*
X158201574Y-80943379D01*
X158196198Y-80935700D01*
X158034300Y-80773802D01*
X157846749Y-80642477D01*
X157846745Y-80642475D01*
X157639249Y-80545718D01*
X157639238Y-80545714D01*
X157418089Y-80486457D01*
X157418081Y-80486456D01*
X157190002Y-80466502D01*
X157189998Y-80466502D01*
X156961918Y-80486456D01*
X156961910Y-80486457D01*
X156740761Y-80545714D01*
X156740750Y-80545718D01*
X156533254Y-80642475D01*
X156533252Y-80642476D01*
X156533251Y-80642477D01*
X156345700Y-80773802D01*
X156345698Y-80773803D01*
X156345695Y-80773806D01*
X156183806Y-80935695D01*
X156052476Y-81123251D01*
X156032382Y-81166345D01*
X155986209Y-81218784D01*
X155919016Y-81237936D01*
X155852135Y-81217720D01*
X155807618Y-81166345D01*
X155787523Y-81123251D01*
X155656198Y-80935700D01*
X155494300Y-80773802D01*
X155306749Y-80642477D01*
X155306745Y-80642475D01*
X155099249Y-80545718D01*
X155099238Y-80545714D01*
X154878089Y-80486457D01*
X154878081Y-80486456D01*
X154650002Y-80466502D01*
X154649998Y-80466502D01*
X154421918Y-80486456D01*
X154421910Y-80486457D01*
X154200761Y-80545714D01*
X154200754Y-80545717D01*
X154144903Y-80571760D01*
X154075825Y-80582251D01*
X154012042Y-80553730D01*
X153973803Y-80495252D01*
X153968500Y-80459377D01*
X153968500Y-74344783D01*
X153988185Y-74277744D01*
X154004819Y-74257102D01*
X155054164Y-73207757D01*
X155089421Y-73172500D01*
X155339203Y-72922716D01*
X155345292Y-72917376D01*
X155373987Y-72895359D01*
X155393318Y-72870164D01*
X155393324Y-72870159D01*
X155398476Y-72863444D01*
X155398478Y-72863443D01*
X155471524Y-72768248D01*
X155532838Y-72620222D01*
X155553751Y-72461372D01*
X155549030Y-72425516D01*
X155548500Y-72417418D01*
X155548500Y-68683410D01*
X155568185Y-68616371D01*
X155584814Y-68595734D01*
X158326640Y-65853907D01*
X158387961Y-65820424D01*
X158454584Y-65824309D01*
X158475365Y-65831444D01*
X158697431Y-65868500D01*
X158922569Y-65868500D01*
X159144635Y-65831444D01*
X159357574Y-65758342D01*
X159555576Y-65651189D01*
X159733240Y-65512906D01*
X159885722Y-65347268D01*
X159976193Y-65208790D01*
X160029338Y-65163437D01*
X160098569Y-65154013D01*
X160161905Y-65183515D01*
X160183804Y-65208787D01*
X160274278Y-65347268D01*
X160274283Y-65347273D01*
X160274284Y-65347276D01*
X160426756Y-65512902D01*
X160426760Y-65512906D01*
X160604424Y-65651189D01*
X160604425Y-65651189D01*
X160604427Y-65651191D01*
X160731135Y-65719761D01*
X160802426Y-65758342D01*
X161015365Y-65831444D01*
X161237431Y-65868500D01*
X161462569Y-65868500D01*
X161684635Y-65831444D01*
X161897574Y-65758342D01*
X162095576Y-65651189D01*
X162273240Y-65512906D01*
X162425722Y-65347268D01*
X162548860Y-65158791D01*
X162639296Y-64952616D01*
X162694564Y-64734368D01*
X162713156Y-64510000D01*
X162694564Y-64285632D01*
X162639296Y-64067384D01*
X162548860Y-63861209D01*
X162532706Y-63836484D01*
X162425723Y-63672734D01*
X162425715Y-63672723D01*
X162273243Y-63507097D01*
X162273238Y-63507092D01*
X162095577Y-63368812D01*
X162095572Y-63368808D01*
X161897580Y-63261661D01*
X161897577Y-63261659D01*
X161897574Y-63261658D01*
X161897571Y-63261657D01*
X161897569Y-63261656D01*
X161684637Y-63188556D01*
X161462569Y-63151500D01*
X161237431Y-63151500D01*
X161015362Y-63188556D01*
X160802430Y-63261656D01*
X160802419Y-63261661D01*
X160604427Y-63368808D01*
X160604422Y-63368812D01*
X160426761Y-63507092D01*
X160426756Y-63507097D01*
X160274284Y-63672723D01*
X160274276Y-63672734D01*
X160183808Y-63811206D01*
X160130662Y-63856562D01*
X160061431Y-63865986D01*
X159998095Y-63836484D01*
X159976192Y-63811206D01*
X159885723Y-63672734D01*
X159885715Y-63672723D01*
X159733243Y-63507097D01*
X159733238Y-63507092D01*
X159555577Y-63368812D01*
X159555572Y-63368808D01*
X159357580Y-63261661D01*
X159357577Y-63261659D01*
X159357574Y-63261658D01*
X159357571Y-63261657D01*
X159357569Y-63261656D01*
X159139784Y-63186890D01*
X159140317Y-63185336D01*
X159086460Y-63153516D01*
X159055069Y-63091095D01*
X159062409Y-63021612D01*
X159089375Y-62981173D01*
X160866640Y-61203907D01*
X160927961Y-61170424D01*
X160994584Y-61174309D01*
X161015365Y-61181444D01*
X161237431Y-61218500D01*
X161462569Y-61218500D01*
X161684635Y-61181444D01*
X161897574Y-61108342D01*
X162095576Y-61001189D01*
X162273240Y-60862906D01*
X162425722Y-60697268D01*
X162548860Y-60508791D01*
X162639296Y-60302616D01*
X162694564Y-60084368D01*
X162713156Y-59860000D01*
X162694564Y-59635632D01*
X162639296Y-59417384D01*
X162548860Y-59211209D01*
X162540380Y-59198230D01*
X162474972Y-59098115D01*
X162425722Y-59022732D01*
X162425719Y-59022729D01*
X162425715Y-59022723D01*
X162273243Y-58857097D01*
X162273238Y-58857092D01*
X162095577Y-58718812D01*
X162095572Y-58718808D01*
X161897580Y-58611661D01*
X161897577Y-58611659D01*
X161897574Y-58611658D01*
X161897571Y-58611657D01*
X161897569Y-58611656D01*
X161684637Y-58538556D01*
X161462569Y-58501500D01*
X161237431Y-58501500D01*
X161015362Y-58538556D01*
X160802430Y-58611656D01*
X160802419Y-58611661D01*
X160604427Y-58718808D01*
X160604422Y-58718812D01*
X160426761Y-58857092D01*
X160426756Y-58857097D01*
X160274284Y-59022723D01*
X160274276Y-59022734D01*
X160183808Y-59161206D01*
X160130662Y-59206562D01*
X160061431Y-59215986D01*
X159998095Y-59186484D01*
X159976192Y-59161206D01*
X159902678Y-59048685D01*
X159885722Y-59022732D01*
X159885719Y-59022729D01*
X159885715Y-59022723D01*
X159733243Y-58857097D01*
X159733238Y-58857092D01*
X159555577Y-58718812D01*
X159555572Y-58718808D01*
X159357580Y-58611661D01*
X159357577Y-58611659D01*
X159357574Y-58611658D01*
X159357571Y-58611657D01*
X159357569Y-58611656D01*
X159139784Y-58536890D01*
X159140317Y-58535336D01*
X159086460Y-58503516D01*
X159055069Y-58441095D01*
X159062409Y-58371612D01*
X159089375Y-58331173D01*
X160866640Y-56553907D01*
X160927961Y-56520424D01*
X160994584Y-56524309D01*
X161015365Y-56531444D01*
X161237431Y-56568500D01*
X161462569Y-56568500D01*
X161684635Y-56531444D01*
X161897574Y-56458342D01*
X162095576Y-56351189D01*
X162273240Y-56212906D01*
X162425722Y-56047268D01*
X162548860Y-55858791D01*
X162639296Y-55652616D01*
X162694564Y-55434368D01*
X162708183Y-55270017D01*
X162713156Y-55210005D01*
X162713156Y-55209994D01*
X162694565Y-54985640D01*
X162694564Y-54985636D01*
X162694564Y-54985632D01*
X162694561Y-54985619D01*
X162685564Y-54950089D01*
X162688188Y-54880268D01*
X162728144Y-54822951D01*
X162792745Y-54796334D01*
X162861481Y-54808868D01*
G37*
%TD.AperFunction*%
%TA.AperFunction,Conductor*%
G36*
X126395000Y-90678872D02*
G01*
X126591317Y-90626269D01*
X126591326Y-90626265D01*
X126797482Y-90530134D01*
X126983820Y-90399657D01*
X127144657Y-90238820D01*
X127275133Y-90052483D01*
X127297927Y-90003600D01*
X127344098Y-89951160D01*
X127411292Y-89932007D01*
X127478173Y-89952221D01*
X127522691Y-90003596D01*
X127547477Y-90056749D01*
X127678802Y-90244300D01*
X127840700Y-90406198D01*
X128028251Y-90537523D01*
X128071144Y-90557524D01*
X128235750Y-90634281D01*
X128235752Y-90634281D01*
X128235757Y-90634284D01*
X128456913Y-90693543D01*
X128619832Y-90707796D01*
X128684998Y-90713498D01*
X128685000Y-90713498D01*
X128685002Y-90713498D01*
X128742021Y-90708509D01*
X128913087Y-90693543D01*
X129134243Y-90634284D01*
X129341749Y-90537523D01*
X129529300Y-90406198D01*
X129691198Y-90244300D01*
X129822523Y-90056749D01*
X129842618Y-90013655D01*
X129888790Y-89961215D01*
X129955983Y-89942063D01*
X130022864Y-89962278D01*
X130067382Y-90013655D01*
X130087477Y-90056749D01*
X130218802Y-90244300D01*
X130380700Y-90406198D01*
X130568251Y-90537523D01*
X130611144Y-90557524D01*
X130775750Y-90634281D01*
X130775752Y-90634281D01*
X130775757Y-90634284D01*
X130996913Y-90693543D01*
X131159832Y-90707796D01*
X131224998Y-90713498D01*
X131225000Y-90713498D01*
X131225002Y-90713498D01*
X131282021Y-90708509D01*
X131453087Y-90693543D01*
X131674243Y-90634284D01*
X131881749Y-90537523D01*
X132069300Y-90406198D01*
X132231198Y-90244300D01*
X132362523Y-90056749D01*
X132382618Y-90013655D01*
X132428790Y-89961215D01*
X132495983Y-89942063D01*
X132562864Y-89962278D01*
X132607382Y-90013655D01*
X132627477Y-90056749D01*
X132758802Y-90244300D01*
X132758806Y-90244304D01*
X132820181Y-90305679D01*
X132853666Y-90367002D01*
X132856500Y-90393360D01*
X132856500Y-92857500D01*
X132836815Y-92924539D01*
X132784011Y-92970294D01*
X132732500Y-92981500D01*
X119557500Y-92981500D01*
X119490461Y-92961815D01*
X119444706Y-92909011D01*
X119433500Y-92857500D01*
X119433500Y-90393360D01*
X119453185Y-90326321D01*
X119469819Y-90305679D01*
X119471198Y-90304300D01*
X119531198Y-90244300D01*
X119662523Y-90056749D01*
X119682618Y-90013655D01*
X119728790Y-89961215D01*
X119795983Y-89942063D01*
X119862864Y-89962278D01*
X119907382Y-90013655D01*
X119927477Y-90056749D01*
X120058802Y-90244300D01*
X120220700Y-90406198D01*
X120408251Y-90537523D01*
X120451144Y-90557524D01*
X120615750Y-90634281D01*
X120615752Y-90634281D01*
X120615757Y-90634284D01*
X120836913Y-90693543D01*
X120999832Y-90707796D01*
X121064998Y-90713498D01*
X121065000Y-90713498D01*
X121065002Y-90713498D01*
X121122021Y-90708509D01*
X121293087Y-90693543D01*
X121514243Y-90634284D01*
X121721749Y-90537523D01*
X121909300Y-90406198D01*
X122071198Y-90244300D01*
X122202523Y-90056749D01*
X122222618Y-90013655D01*
X122268790Y-89961215D01*
X122335983Y-89942063D01*
X122402864Y-89962278D01*
X122447382Y-90013655D01*
X122467477Y-90056749D01*
X122598802Y-90244300D01*
X122760700Y-90406198D01*
X122948251Y-90537523D01*
X122991144Y-90557524D01*
X123155750Y-90634281D01*
X123155752Y-90634281D01*
X123155757Y-90634284D01*
X123376913Y-90693543D01*
X123539832Y-90707796D01*
X123604998Y-90713498D01*
X123605000Y-90713498D01*
X123605002Y-90713498D01*
X123662021Y-90708509D01*
X123833087Y-90693543D01*
X124054243Y-90634284D01*
X124261749Y-90537523D01*
X124449300Y-90406198D01*
X124611198Y-90244300D01*
X124742523Y-90056749D01*
X124767307Y-90003598D01*
X124813479Y-89951159D01*
X124880672Y-89932007D01*
X124947553Y-89952222D01*
X124992071Y-90003599D01*
X125014864Y-90052479D01*
X125014865Y-90052481D01*
X125145342Y-90238820D01*
X125306179Y-90399657D01*
X125492517Y-90530134D01*
X125698673Y-90626265D01*
X125698682Y-90626269D01*
X125894999Y-90678872D01*
X125895000Y-90678871D01*
X125895000Y-89715686D01*
X125906955Y-89727641D01*
X126019852Y-89785165D01*
X126113519Y-89800000D01*
X126176481Y-89800000D01*
X126270148Y-89785165D01*
X126383045Y-89727641D01*
X126395000Y-89715686D01*
X126395000Y-90678872D01*
G37*
%TD.AperFunction*%
%TA.AperFunction,Conductor*%
G36*
X152360000Y-90678872D02*
G01*
X152556317Y-90626269D01*
X152556326Y-90626265D01*
X152762482Y-90530134D01*
X152948820Y-90399657D01*
X153109657Y-90238820D01*
X153240133Y-90052483D01*
X153262927Y-90003600D01*
X153309098Y-89951160D01*
X153376292Y-89932007D01*
X153443173Y-89952221D01*
X153487691Y-90003596D01*
X153512477Y-90056749D01*
X153643802Y-90244300D01*
X153805700Y-90406198D01*
X153993251Y-90537523D01*
X154036144Y-90557524D01*
X154200750Y-90634281D01*
X154200752Y-90634281D01*
X154200757Y-90634284D01*
X154421913Y-90693543D01*
X154584832Y-90707796D01*
X154649998Y-90713498D01*
X154650000Y-90713498D01*
X154650002Y-90713498D01*
X154707021Y-90708509D01*
X154878087Y-90693543D01*
X155099243Y-90634284D01*
X155306749Y-90537523D01*
X155494300Y-90406198D01*
X155656198Y-90244300D01*
X155787523Y-90056749D01*
X155807618Y-90013655D01*
X155853790Y-89961215D01*
X155920983Y-89942063D01*
X155987864Y-89962278D01*
X156032382Y-90013655D01*
X156052477Y-90056749D01*
X156183802Y-90244300D01*
X156345700Y-90406198D01*
X156533251Y-90537523D01*
X156576144Y-90557524D01*
X156740750Y-90634281D01*
X156740752Y-90634281D01*
X156740757Y-90634284D01*
X156961913Y-90693543D01*
X157124832Y-90707796D01*
X157189998Y-90713498D01*
X157190000Y-90713498D01*
X157190002Y-90713498D01*
X157247021Y-90708509D01*
X157418087Y-90693543D01*
X157639243Y-90634284D01*
X157846749Y-90537523D01*
X158034300Y-90406198D01*
X158196198Y-90244300D01*
X158327523Y-90056749D01*
X158347618Y-90013655D01*
X158393790Y-89961215D01*
X158460983Y-89942063D01*
X158527864Y-89962278D01*
X158572382Y-90013655D01*
X158592477Y-90056749D01*
X158723802Y-90244300D01*
X158723806Y-90244304D01*
X158785181Y-90305679D01*
X158818666Y-90367002D01*
X158821500Y-90393360D01*
X158821500Y-90712325D01*
X158801815Y-90779364D01*
X158785181Y-90800006D01*
X156640006Y-92945181D01*
X156578683Y-92978666D01*
X156552325Y-92981500D01*
X145522500Y-92981500D01*
X145455461Y-92961815D01*
X145409706Y-92909011D01*
X145398500Y-92857500D01*
X145398500Y-90393360D01*
X145418185Y-90326321D01*
X145434819Y-90305679D01*
X145436198Y-90304300D01*
X145496198Y-90244300D01*
X145627523Y-90056749D01*
X145647618Y-90013655D01*
X145693790Y-89961215D01*
X145760983Y-89942063D01*
X145827864Y-89962278D01*
X145872382Y-90013655D01*
X145892477Y-90056749D01*
X146023802Y-90244300D01*
X146185700Y-90406198D01*
X146373251Y-90537523D01*
X146416144Y-90557524D01*
X146580750Y-90634281D01*
X146580752Y-90634281D01*
X146580757Y-90634284D01*
X146801913Y-90693543D01*
X146964832Y-90707796D01*
X147029998Y-90713498D01*
X147030000Y-90713498D01*
X147030002Y-90713498D01*
X147087021Y-90708509D01*
X147258087Y-90693543D01*
X147479243Y-90634284D01*
X147686749Y-90537523D01*
X147874300Y-90406198D01*
X148036198Y-90244300D01*
X148167523Y-90056749D01*
X148187618Y-90013655D01*
X148233790Y-89961215D01*
X148300983Y-89942063D01*
X148367864Y-89962278D01*
X148412382Y-90013655D01*
X148432477Y-90056749D01*
X148563802Y-90244300D01*
X148725700Y-90406198D01*
X148913251Y-90537523D01*
X148956144Y-90557524D01*
X149120750Y-90634281D01*
X149120752Y-90634281D01*
X149120757Y-90634284D01*
X149341913Y-90693543D01*
X149504832Y-90707796D01*
X149569998Y-90713498D01*
X149570000Y-90713498D01*
X149570002Y-90713498D01*
X149627021Y-90708509D01*
X149798087Y-90693543D01*
X150019243Y-90634284D01*
X150226749Y-90537523D01*
X150414300Y-90406198D01*
X150576198Y-90244300D01*
X150707523Y-90056749D01*
X150732307Y-90003598D01*
X150778479Y-89951159D01*
X150845672Y-89932007D01*
X150912553Y-89952222D01*
X150957071Y-90003599D01*
X150979864Y-90052479D01*
X150979865Y-90052481D01*
X151110342Y-90238820D01*
X151271179Y-90399657D01*
X151457517Y-90530134D01*
X151663673Y-90626265D01*
X151663682Y-90626269D01*
X151859999Y-90678872D01*
X151860000Y-90678871D01*
X151860000Y-89715686D01*
X151871955Y-89727641D01*
X151984852Y-89785165D01*
X152078519Y-89800000D01*
X152141481Y-89800000D01*
X152235148Y-89785165D01*
X152348045Y-89727641D01*
X152360000Y-89715686D01*
X152360000Y-90678872D01*
G37*
%TD.AperFunction*%
%TA.AperFunction,Conductor*%
G36*
X151635671Y-50374854D02*
G01*
X151649719Y-50388787D01*
X151650266Y-50388241D01*
X151656009Y-50393984D01*
X151684698Y-50415998D01*
X151690794Y-50421343D01*
X152378655Y-51109204D01*
X152383996Y-51115294D01*
X152392022Y-51125754D01*
X152406012Y-51143987D01*
X152437921Y-51168472D01*
X152437925Y-51168474D01*
X152437928Y-51168477D01*
X152533123Y-51241523D01*
X152533124Y-51241524D01*
X152553865Y-51250115D01*
X152681150Y-51302838D01*
X152800115Y-51318500D01*
X152800120Y-51318500D01*
X152801905Y-51318735D01*
X152801923Y-51318737D01*
X152825369Y-51321823D01*
X152839999Y-51323750D01*
X152840000Y-51323750D01*
X152840001Y-51323750D01*
X152850472Y-51322371D01*
X152875848Y-51319030D01*
X152883946Y-51318500D01*
X156520903Y-51318500D01*
X156587942Y-51338185D01*
X156608584Y-51354819D01*
X158165181Y-52911416D01*
X158198666Y-52972739D01*
X158201500Y-52999097D01*
X158201500Y-53920740D01*
X158181815Y-53987779D01*
X158136519Y-54029794D01*
X158064427Y-54068809D01*
X158064422Y-54068812D01*
X157886761Y-54207092D01*
X157823548Y-54275760D01*
X157763661Y-54311750D01*
X157693823Y-54309649D01*
X157636207Y-54270124D01*
X157616138Y-54235110D01*
X157570889Y-54113796D01*
X157537214Y-54068812D01*
X157483261Y-53996739D01*
X157366204Y-53909111D01*
X157229203Y-53858011D01*
X157168654Y-53851500D01*
X157168638Y-53851500D01*
X155371362Y-53851500D01*
X155371345Y-53851500D01*
X155310797Y-53858011D01*
X155310795Y-53858011D01*
X155173795Y-53909111D01*
X155056739Y-53996739D01*
X154969111Y-54113795D01*
X154918011Y-54250795D01*
X154918011Y-54250797D01*
X154911500Y-54311345D01*
X154911500Y-55656588D01*
X154891815Y-55723627D01*
X154875181Y-55744269D01*
X153740801Y-56878649D01*
X153734698Y-56884000D01*
X153706013Y-56906012D01*
X153681521Y-56937929D01*
X153608478Y-57033119D01*
X153585058Y-57089662D01*
X153547162Y-57181149D01*
X153547162Y-57181150D01*
X153530957Y-57304241D01*
X153530955Y-57304254D01*
X153526250Y-57340000D01*
X153530969Y-57375843D01*
X153531500Y-57383945D01*
X153531500Y-71826588D01*
X153511815Y-71893627D01*
X153495181Y-71914269D01*
X144930314Y-80479135D01*
X144868991Y-80512620D01*
X144810540Y-80511229D01*
X144718092Y-80486458D01*
X144718088Y-80486457D01*
X144718087Y-80486457D01*
X144718086Y-80486456D01*
X144718081Y-80486456D01*
X144490002Y-80466502D01*
X144489998Y-80466502D01*
X144261918Y-80486456D01*
X144261910Y-80486457D01*
X144040761Y-80545714D01*
X144040750Y-80545718D01*
X143833254Y-80642475D01*
X143833252Y-80642476D01*
X143833251Y-80642477D01*
X143645700Y-80773802D01*
X143645698Y-80773803D01*
X143645695Y-80773806D01*
X143483806Y-80935695D01*
X143483803Y-80935698D01*
X143483802Y-80935700D01*
X143444106Y-80992392D01*
X143352476Y-81123252D01*
X143352474Y-81123256D01*
X143327691Y-81176402D01*
X143281518Y-81228841D01*
X143214324Y-81247992D01*
X143147444Y-81227775D01*
X143102927Y-81176399D01*
X143080133Y-81127517D01*
X142949657Y-80941179D01*
X142788820Y-80780342D01*
X142602482Y-80649865D01*
X142396328Y-80553734D01*
X142200000Y-80501127D01*
X142200000Y-81464314D01*
X142188045Y-81452359D01*
X142075148Y-81394835D01*
X141981481Y-81380000D01*
X141918519Y-81380000D01*
X141824852Y-81394835D01*
X141711955Y-81452359D01*
X141700000Y-81464314D01*
X141700000Y-80501127D01*
X141503671Y-80553734D01*
X141297517Y-80649865D01*
X141111179Y-80780342D01*
X140950342Y-80941179D01*
X140819865Y-81127517D01*
X140723734Y-81333673D01*
X140723730Y-81333682D01*
X140671127Y-81529999D01*
X140671128Y-81530000D01*
X141634314Y-81530000D01*
X141622359Y-81541955D01*
X141564835Y-81654852D01*
X141545014Y-81780000D01*
X141564835Y-81905148D01*
X141622359Y-82018045D01*
X141634314Y-82030000D01*
X140671128Y-82030000D01*
X140723730Y-82226317D01*
X140723734Y-82226326D01*
X140819865Y-82432482D01*
X140950342Y-82618820D01*
X141111179Y-82779657D01*
X141297517Y-82910134D01*
X141503673Y-83006265D01*
X141503682Y-83006269D01*
X141699999Y-83058872D01*
X141700000Y-83058871D01*
X141700000Y-82095686D01*
X141711955Y-82107641D01*
X141824852Y-82165165D01*
X141918519Y-82180000D01*
X141981481Y-82180000D01*
X142075148Y-82165165D01*
X142188045Y-82107641D01*
X142200000Y-82095686D01*
X142200000Y-83058872D01*
X142396317Y-83006269D01*
X142396326Y-83006265D01*
X142602482Y-82910134D01*
X142788820Y-82779657D01*
X142949657Y-82618820D01*
X143080133Y-82432483D01*
X143102927Y-82383600D01*
X143149098Y-82331160D01*
X143216292Y-82312007D01*
X143283173Y-82332221D01*
X143327691Y-82383596D01*
X143352477Y-82436749D01*
X143483802Y-82624300D01*
X143645700Y-82786198D01*
X143833251Y-82917523D01*
X143888445Y-82943260D01*
X144040750Y-83014281D01*
X144040752Y-83014281D01*
X144040757Y-83014284D01*
X144261913Y-83073543D01*
X144424832Y-83087796D01*
X144489998Y-83093498D01*
X144490000Y-83093498D01*
X144490002Y-83093498D01*
X144551654Y-83088104D01*
X144718087Y-83073543D01*
X144939243Y-83014284D01*
X145146749Y-82917523D01*
X145334300Y-82786198D01*
X145496198Y-82624300D01*
X145627523Y-82436749D01*
X145647618Y-82393655D01*
X145693790Y-82341215D01*
X145760983Y-82322063D01*
X145827864Y-82342278D01*
X145872382Y-82393655D01*
X145892477Y-82436749D01*
X146023802Y-82624300D01*
X146185700Y-82786198D01*
X146373251Y-82917523D01*
X146428445Y-82943260D01*
X146580750Y-83014281D01*
X146580752Y-83014281D01*
X146580757Y-83014284D01*
X146801913Y-83073543D01*
X146964832Y-83087796D01*
X147029998Y-83093498D01*
X147029999Y-83093498D01*
X147029999Y-83093497D01*
X147030000Y-83093498D01*
X147091648Y-83088104D01*
X147160147Y-83101870D01*
X147210330Y-83150485D01*
X147226264Y-83218513D01*
X147202889Y-83284357D01*
X147190136Y-83299313D01*
X145334270Y-85155181D01*
X145272947Y-85188666D01*
X145246589Y-85191500D01*
X138279276Y-85191500D01*
X138212237Y-85171815D01*
X138166482Y-85119011D01*
X138156538Y-85049853D01*
X138166894Y-85015095D01*
X138236265Y-84866326D01*
X138236269Y-84866317D01*
X138295139Y-84646610D01*
X138295141Y-84646599D01*
X138314966Y-84420002D01*
X138314966Y-84419997D01*
X138295141Y-84193400D01*
X138295139Y-84193389D01*
X138236269Y-83973682D01*
X138236265Y-83973673D01*
X138140133Y-83767516D01*
X138140131Y-83767512D01*
X138089025Y-83694526D01*
X137407953Y-84375598D01*
X137395165Y-84294852D01*
X137337641Y-84181955D01*
X137248045Y-84092359D01*
X137135148Y-84034835D01*
X137054400Y-84022046D01*
X137735472Y-83340974D01*
X137735471Y-83340973D01*
X137662483Y-83289866D01*
X137662481Y-83289865D01*
X137456326Y-83193734D01*
X137456317Y-83193730D01*
X137236610Y-83134860D01*
X137236599Y-83134858D01*
X137010002Y-83115034D01*
X137009998Y-83115034D01*
X136783400Y-83134858D01*
X136783389Y-83134860D01*
X136563682Y-83193730D01*
X136563673Y-83193734D01*
X136357513Y-83289868D01*
X136284527Y-83340972D01*
X136284526Y-83340973D01*
X136965600Y-84022046D01*
X136884852Y-84034835D01*
X136771955Y-84092359D01*
X136682359Y-84181955D01*
X136624835Y-84294852D01*
X136612046Y-84375600D01*
X135930973Y-83694527D01*
X135879868Y-83767513D01*
X135783734Y-83973673D01*
X135783730Y-83973682D01*
X135724860Y-84193389D01*
X135724858Y-84193400D01*
X135705034Y-84419997D01*
X135705034Y-84420002D01*
X135724858Y-84646599D01*
X135724860Y-84646610D01*
X135783730Y-84866317D01*
X135783734Y-84866326D01*
X135853106Y-85015095D01*
X135863598Y-85084173D01*
X135835078Y-85147957D01*
X135776602Y-85186196D01*
X135740724Y-85191500D01*
X116424783Y-85191500D01*
X116357744Y-85171815D01*
X116337102Y-85155181D01*
X115191829Y-84009908D01*
X115164950Y-83969683D01*
X115141524Y-83913125D01*
X115102349Y-83862071D01*
X115068477Y-83817928D01*
X115067525Y-83816687D01*
X115067521Y-83816682D01*
X115043985Y-83786011D01*
X115030837Y-83775922D01*
X115015293Y-83763995D01*
X115009203Y-83758654D01*
X113834819Y-82584270D01*
X113801334Y-82522947D01*
X113798500Y-82496589D01*
X113798500Y-81529999D01*
X114706127Y-81529999D01*
X114706128Y-81530000D01*
X115669314Y-81530000D01*
X115657359Y-81541955D01*
X115599835Y-81654852D01*
X115580014Y-81780000D01*
X115599835Y-81905148D01*
X115657359Y-82018045D01*
X115669314Y-82030000D01*
X114706128Y-82030000D01*
X114758730Y-82226317D01*
X114758734Y-82226326D01*
X114854865Y-82432482D01*
X114985342Y-82618820D01*
X115146179Y-82779657D01*
X115332517Y-82910134D01*
X115538673Y-83006265D01*
X115538682Y-83006269D01*
X115734999Y-83058872D01*
X115735000Y-83058871D01*
X115735000Y-82095686D01*
X115746955Y-82107641D01*
X115859852Y-82165165D01*
X115953519Y-82180000D01*
X116016481Y-82180000D01*
X116110148Y-82165165D01*
X116223045Y-82107641D01*
X116235000Y-82095686D01*
X116235000Y-83058872D01*
X116431317Y-83006269D01*
X116431326Y-83006265D01*
X116637482Y-82910134D01*
X116823820Y-82779657D01*
X116984657Y-82618820D01*
X117115133Y-82432483D01*
X117137927Y-82383600D01*
X117184098Y-82331160D01*
X117251292Y-82312007D01*
X117318173Y-82332221D01*
X117362691Y-82383596D01*
X117387477Y-82436749D01*
X117518802Y-82624300D01*
X117680700Y-82786198D01*
X117868251Y-82917523D01*
X117923445Y-82943260D01*
X118075750Y-83014281D01*
X118075752Y-83014281D01*
X118075757Y-83014284D01*
X118296913Y-83073543D01*
X118459832Y-83087796D01*
X118524998Y-83093498D01*
X118525000Y-83093498D01*
X118525002Y-83093498D01*
X118586654Y-83088104D01*
X118753087Y-83073543D01*
X118974243Y-83014284D01*
X119181749Y-82917523D01*
X119369300Y-82786198D01*
X119531198Y-82624300D01*
X119662523Y-82436749D01*
X119682618Y-82393655D01*
X119728790Y-82341215D01*
X119795983Y-82322063D01*
X119862864Y-82342278D01*
X119907382Y-82393655D01*
X119927477Y-82436749D01*
X120058802Y-82624300D01*
X120220700Y-82786198D01*
X120408251Y-82917523D01*
X120463445Y-82943260D01*
X120615750Y-83014281D01*
X120615752Y-83014281D01*
X120615757Y-83014284D01*
X120836913Y-83073543D01*
X120999832Y-83087796D01*
X121064998Y-83093498D01*
X121065000Y-83093498D01*
X121065002Y-83093498D01*
X121126654Y-83088104D01*
X121293087Y-83073543D01*
X121514243Y-83014284D01*
X121721749Y-82917523D01*
X121909300Y-82786198D01*
X122071198Y-82624300D01*
X122202523Y-82436749D01*
X122222618Y-82393655D01*
X122268790Y-82341215D01*
X122335983Y-82322063D01*
X122402864Y-82342278D01*
X122447382Y-82393655D01*
X122467477Y-82436749D01*
X122598802Y-82624300D01*
X122760700Y-82786198D01*
X122948251Y-82917523D01*
X123003445Y-82943260D01*
X123155750Y-83014281D01*
X123155752Y-83014281D01*
X123155757Y-83014284D01*
X123376913Y-83073543D01*
X123539832Y-83087796D01*
X123604998Y-83093498D01*
X123605000Y-83093498D01*
X123605002Y-83093498D01*
X123666654Y-83088104D01*
X123833087Y-83073543D01*
X124054243Y-83014284D01*
X124261749Y-82917523D01*
X124449300Y-82786198D01*
X124611198Y-82624300D01*
X124742523Y-82436749D01*
X124762618Y-82393655D01*
X124808790Y-82341215D01*
X124875983Y-82322063D01*
X124942864Y-82342278D01*
X124987382Y-82393655D01*
X125007477Y-82436749D01*
X125138802Y-82624300D01*
X125300700Y-82786198D01*
X125488251Y-82917523D01*
X125543445Y-82943260D01*
X125695750Y-83014281D01*
X125695752Y-83014281D01*
X125695757Y-83014284D01*
X125916913Y-83073543D01*
X126079832Y-83087796D01*
X126144998Y-83093498D01*
X126145000Y-83093498D01*
X126145002Y-83093498D01*
X126206654Y-83088104D01*
X126373087Y-83073543D01*
X126594243Y-83014284D01*
X126801749Y-82917523D01*
X126989300Y-82786198D01*
X127151198Y-82624300D01*
X127282523Y-82436749D01*
X127302618Y-82393655D01*
X127348790Y-82341215D01*
X127415983Y-82322063D01*
X127482864Y-82342278D01*
X127527382Y-82393655D01*
X127547477Y-82436749D01*
X127678802Y-82624300D01*
X127840700Y-82786198D01*
X128028251Y-82917523D01*
X128083445Y-82943260D01*
X128235750Y-83014281D01*
X128235752Y-83014281D01*
X128235757Y-83014284D01*
X128456913Y-83073543D01*
X128619832Y-83087796D01*
X128684998Y-83093498D01*
X128685000Y-83093498D01*
X128685002Y-83093498D01*
X128746654Y-83088104D01*
X128913087Y-83073543D01*
X129134243Y-83014284D01*
X129341749Y-82917523D01*
X129529300Y-82786198D01*
X129691198Y-82624300D01*
X129822523Y-82436749D01*
X129842618Y-82393655D01*
X129888790Y-82341215D01*
X129955983Y-82322063D01*
X130022864Y-82342278D01*
X130067382Y-82393655D01*
X130087477Y-82436749D01*
X130218802Y-82624300D01*
X130380700Y-82786198D01*
X130568251Y-82917523D01*
X130623445Y-82943260D01*
X130775750Y-83014281D01*
X130775752Y-83014281D01*
X130775757Y-83014284D01*
X130996913Y-83073543D01*
X131159832Y-83087796D01*
X131224998Y-83093498D01*
X131225000Y-83093498D01*
X131225002Y-83093498D01*
X131286654Y-83088104D01*
X131453087Y-83073543D01*
X131674243Y-83014284D01*
X131881749Y-82917523D01*
X132069300Y-82786198D01*
X132231198Y-82624300D01*
X132236566Y-82616632D01*
X132291139Y-82573008D01*
X132360637Y-82565813D01*
X132422993Y-82597333D01*
X132458409Y-82657562D01*
X132461430Y-82674498D01*
X132463011Y-82689202D01*
X132463011Y-82689204D01*
X132499189Y-82786198D01*
X132514111Y-82826204D01*
X132601739Y-82943261D01*
X132718796Y-83030889D01*
X132855799Y-83081989D01*
X132883050Y-83084918D01*
X132916345Y-83088499D01*
X132916362Y-83088500D01*
X134613638Y-83088500D01*
X134613654Y-83088499D01*
X134640692Y-83085591D01*
X134674201Y-83081989D01*
X134811204Y-83030889D01*
X134928261Y-82943261D01*
X135015889Y-82826204D01*
X135066989Y-82689201D01*
X135070591Y-82655692D01*
X135073499Y-82628654D01*
X135073500Y-82628637D01*
X135073500Y-80931362D01*
X135073499Y-80931345D01*
X135070157Y-80900270D01*
X135066989Y-80870799D01*
X135015889Y-80733796D01*
X134928261Y-80616739D01*
X134811204Y-80529111D01*
X134674203Y-80478011D01*
X134613654Y-80471500D01*
X134613638Y-80471500D01*
X132916362Y-80471500D01*
X132916345Y-80471500D01*
X132855797Y-80478011D01*
X132855795Y-80478011D01*
X132718795Y-80529111D01*
X132601739Y-80616739D01*
X132514111Y-80733795D01*
X132463011Y-80870795D01*
X132463011Y-80870797D01*
X132461430Y-80885501D01*
X132434691Y-80950052D01*
X132377298Y-80989899D01*
X132307473Y-80992392D01*
X132247384Y-80956738D01*
X132236574Y-80943379D01*
X132231198Y-80935700D01*
X132069300Y-80773802D01*
X131881749Y-80642477D01*
X131881745Y-80642475D01*
X131674249Y-80545718D01*
X131674238Y-80545714D01*
X131453089Y-80486457D01*
X131453081Y-80486456D01*
X131225002Y-80466502D01*
X131224998Y-80466502D01*
X130996918Y-80486456D01*
X130996910Y-80486457D01*
X130775761Y-80545714D01*
X130775750Y-80545718D01*
X130568254Y-80642475D01*
X130568252Y-80642476D01*
X130568251Y-80642477D01*
X130380700Y-80773802D01*
X130380698Y-80773803D01*
X130380695Y-80773806D01*
X130218806Y-80935695D01*
X130087476Y-81123251D01*
X130067382Y-81166345D01*
X130021209Y-81218784D01*
X129954016Y-81237936D01*
X129887135Y-81217720D01*
X129842618Y-81166345D01*
X129822523Y-81123251D01*
X129691198Y-80935700D01*
X129529300Y-80773802D01*
X129341749Y-80642477D01*
X129341745Y-80642475D01*
X129134249Y-80545718D01*
X129134238Y-80545714D01*
X128913089Y-80486457D01*
X128913081Y-80486456D01*
X128685002Y-80466502D01*
X128684998Y-80466502D01*
X128456918Y-80486456D01*
X128456910Y-80486457D01*
X128235761Y-80545714D01*
X128235750Y-80545718D01*
X128028254Y-80642475D01*
X128028252Y-80642476D01*
X128028251Y-80642477D01*
X127840700Y-80773802D01*
X127840698Y-80773803D01*
X127840695Y-80773806D01*
X127678806Y-80935695D01*
X127547476Y-81123251D01*
X127527382Y-81166345D01*
X127481209Y-81218784D01*
X127414016Y-81237936D01*
X127347135Y-81217720D01*
X127302618Y-81166345D01*
X127282523Y-81123251D01*
X127151198Y-80935700D01*
X126989300Y-80773802D01*
X126801749Y-80642477D01*
X126801745Y-80642475D01*
X126594249Y-80545718D01*
X126594238Y-80545714D01*
X126373089Y-80486457D01*
X126373081Y-80486456D01*
X126145002Y-80466502D01*
X126144998Y-80466502D01*
X125916918Y-80486456D01*
X125916910Y-80486457D01*
X125695761Y-80545714D01*
X125695750Y-80545718D01*
X125488254Y-80642475D01*
X125488252Y-80642476D01*
X125488251Y-80642477D01*
X125300700Y-80773802D01*
X125300698Y-80773803D01*
X125300695Y-80773806D01*
X125138806Y-80935695D01*
X125007476Y-81123251D01*
X124987382Y-81166345D01*
X124941209Y-81218784D01*
X124874016Y-81237936D01*
X124807135Y-81217720D01*
X124762618Y-81166345D01*
X124742523Y-81123251D01*
X124611198Y-80935700D01*
X124449300Y-80773802D01*
X124261749Y-80642477D01*
X124261745Y-80642475D01*
X124054249Y-80545718D01*
X124054238Y-80545714D01*
X123833089Y-80486457D01*
X123833081Y-80486456D01*
X123605002Y-80466502D01*
X123604998Y-80466502D01*
X123376918Y-80486456D01*
X123376910Y-80486457D01*
X123155761Y-80545714D01*
X123155750Y-80545718D01*
X122948254Y-80642475D01*
X122948252Y-80642476D01*
X122948251Y-80642477D01*
X122760700Y-80773802D01*
X122760698Y-80773803D01*
X122760695Y-80773806D01*
X122598806Y-80935695D01*
X122467476Y-81123251D01*
X122447382Y-81166345D01*
X122401209Y-81218784D01*
X122334016Y-81237936D01*
X122267135Y-81217720D01*
X122222618Y-81166345D01*
X122202523Y-81123251D01*
X122071198Y-80935700D01*
X121909300Y-80773802D01*
X121721749Y-80642477D01*
X121721745Y-80642475D01*
X121514249Y-80545718D01*
X121514238Y-80545714D01*
X121293089Y-80486457D01*
X121293081Y-80486456D01*
X121065002Y-80466502D01*
X121064998Y-80466502D01*
X120836918Y-80486456D01*
X120836910Y-80486457D01*
X120615761Y-80545714D01*
X120615750Y-80545718D01*
X120408254Y-80642475D01*
X120408252Y-80642476D01*
X120408251Y-80642477D01*
X120220700Y-80773802D01*
X120220698Y-80773803D01*
X120220695Y-80773806D01*
X120058806Y-80935695D01*
X119927476Y-81123251D01*
X119907382Y-81166345D01*
X119861209Y-81218784D01*
X119794016Y-81237936D01*
X119727135Y-81217720D01*
X119682618Y-81166345D01*
X119662523Y-81123251D01*
X119531198Y-80935700D01*
X119369300Y-80773802D01*
X119181749Y-80642477D01*
X119181745Y-80642475D01*
X118974249Y-80545718D01*
X118974238Y-80545714D01*
X118753089Y-80486457D01*
X118753081Y-80486456D01*
X118525002Y-80466502D01*
X118524998Y-80466502D01*
X118296918Y-80486456D01*
X118296910Y-80486457D01*
X118075761Y-80545714D01*
X118075750Y-80545718D01*
X117868254Y-80642475D01*
X117868252Y-80642476D01*
X117868251Y-80642477D01*
X117680700Y-80773802D01*
X117680698Y-80773803D01*
X117680695Y-80773806D01*
X117518806Y-80935695D01*
X117518803Y-80935698D01*
X117518802Y-80935700D01*
X117479106Y-80992392D01*
X117387476Y-81123252D01*
X117387474Y-81123256D01*
X117362691Y-81176402D01*
X117316518Y-81228841D01*
X117249324Y-81247992D01*
X117182444Y-81227775D01*
X117137927Y-81176399D01*
X117115133Y-81127517D01*
X116984657Y-80941179D01*
X116823820Y-80780342D01*
X116637482Y-80649865D01*
X116431328Y-80553734D01*
X116235000Y-80501127D01*
X116235000Y-81464314D01*
X116223045Y-81452359D01*
X116110148Y-81394835D01*
X116016481Y-81380000D01*
X115953519Y-81380000D01*
X115859852Y-81394835D01*
X115746955Y-81452359D01*
X115735000Y-81464314D01*
X115735000Y-80501127D01*
X115538671Y-80553734D01*
X115332517Y-80649865D01*
X115146179Y-80780342D01*
X114985342Y-80941179D01*
X114854865Y-81127517D01*
X114758734Y-81333673D01*
X114758730Y-81333682D01*
X114706127Y-81529999D01*
X113798500Y-81529999D01*
X113798500Y-77073410D01*
X113818185Y-77006371D01*
X113834814Y-76985734D01*
X116529202Y-74291345D01*
X116535293Y-74286003D01*
X116563987Y-74263987D01*
X116575748Y-74248659D01*
X116632173Y-74207455D01*
X116701918Y-74203297D01*
X116742437Y-74220655D01*
X116845495Y-74288683D01*
X116845497Y-74288684D01*
X116845499Y-74288685D01*
X117048838Y-74375596D01*
X117264428Y-74424803D01*
X117450363Y-74433153D01*
X117485335Y-74434724D01*
X117485335Y-74434723D01*
X117485339Y-74434724D01*
X117704472Y-74405040D01*
X117914783Y-74336706D01*
X118109513Y-74231918D01*
X118282402Y-74094043D01*
X118427895Y-73927513D01*
X118541314Y-73737681D01*
X118581255Y-73631256D01*
X118623239Y-73575411D01*
X118688753Y-73551127D01*
X118756995Y-73566118D01*
X118806300Y-73615624D01*
X118813436Y-73631248D01*
X118815183Y-73635901D01*
X118815184Y-73635904D01*
X118815186Y-73635909D01*
X118862414Y-73733979D01*
X118911131Y-73835141D01*
X118911133Y-73835145D01*
X119041107Y-74014039D01*
X119041113Y-74014047D01*
X119183435Y-74150120D01*
X119200947Y-74166863D01*
X119256142Y-74203297D01*
X119385495Y-74288683D01*
X119385497Y-74288684D01*
X119385499Y-74288685D01*
X119588838Y-74375596D01*
X119804428Y-74424803D01*
X119990363Y-74433153D01*
X120025335Y-74434724D01*
X120025335Y-74434723D01*
X120025339Y-74434724D01*
X120244472Y-74405040D01*
X120454783Y-74336706D01*
X120649513Y-74231918D01*
X120822402Y-74094043D01*
X120967895Y-73927513D01*
X121081314Y-73737681D01*
X121121255Y-73631256D01*
X121163239Y-73575411D01*
X121228753Y-73551127D01*
X121296995Y-73566118D01*
X121346300Y-73615624D01*
X121353436Y-73631248D01*
X121355183Y-73635901D01*
X121355184Y-73635904D01*
X121355186Y-73635909D01*
X121402414Y-73733979D01*
X121451131Y-73835141D01*
X121451133Y-73835145D01*
X121581107Y-74014039D01*
X121581113Y-74014047D01*
X121723435Y-74150120D01*
X121740947Y-74166863D01*
X121796142Y-74203297D01*
X121925495Y-74288683D01*
X121925497Y-74288684D01*
X121925499Y-74288685D01*
X122128838Y-74375596D01*
X122344428Y-74424803D01*
X122530363Y-74433153D01*
X122565335Y-74434724D01*
X122565335Y-74434723D01*
X122565339Y-74434724D01*
X122784472Y-74405040D01*
X122994783Y-74336706D01*
X123189513Y-74231918D01*
X123362402Y-74094043D01*
X123507895Y-73927513D01*
X123621314Y-73737681D01*
X123661255Y-73631256D01*
X123703239Y-73575411D01*
X123768753Y-73551127D01*
X123836995Y-73566118D01*
X123886300Y-73615624D01*
X123893436Y-73631248D01*
X123895183Y-73635901D01*
X123895184Y-73635904D01*
X123895186Y-73635909D01*
X123942414Y-73733979D01*
X123991131Y-73835141D01*
X123991133Y-73835145D01*
X124121107Y-74014039D01*
X124121113Y-74014047D01*
X124263435Y-74150120D01*
X124280947Y-74166863D01*
X124336142Y-74203297D01*
X124465495Y-74288683D01*
X124465497Y-74288684D01*
X124465499Y-74288685D01*
X124668838Y-74375596D01*
X124884428Y-74424803D01*
X125070363Y-74433153D01*
X125105335Y-74434724D01*
X125105335Y-74434723D01*
X125105339Y-74434724D01*
X125324472Y-74405040D01*
X125534783Y-74336706D01*
X125729513Y-74231918D01*
X125902402Y-74094043D01*
X126047895Y-73927513D01*
X126161314Y-73737681D01*
X126201255Y-73631256D01*
X126243239Y-73575411D01*
X126308753Y-73551127D01*
X126376995Y-73566118D01*
X126426300Y-73615624D01*
X126433436Y-73631248D01*
X126435183Y-73635901D01*
X126435184Y-73635904D01*
X126435186Y-73635909D01*
X126482414Y-73733979D01*
X126531131Y-73835141D01*
X126531133Y-73835145D01*
X126661107Y-74014039D01*
X126661113Y-74014047D01*
X126803435Y-74150120D01*
X126820947Y-74166863D01*
X126876142Y-74203297D01*
X127005495Y-74288683D01*
X127005497Y-74288684D01*
X127005499Y-74288685D01*
X127208838Y-74375596D01*
X127424428Y-74424803D01*
X127610363Y-74433153D01*
X127645335Y-74434724D01*
X127645335Y-74434723D01*
X127645339Y-74434724D01*
X127864472Y-74405040D01*
X128074783Y-74336706D01*
X128269513Y-74231918D01*
X128442402Y-74094043D01*
X128587895Y-73927513D01*
X128701314Y-73737681D01*
X128741255Y-73631256D01*
X128783239Y-73575411D01*
X128848753Y-73551127D01*
X128916995Y-73566118D01*
X128966300Y-73615624D01*
X128973436Y-73631248D01*
X128975183Y-73635901D01*
X128975184Y-73635904D01*
X128975186Y-73635909D01*
X129022414Y-73733979D01*
X129071131Y-73835141D01*
X129071133Y-73835145D01*
X129201107Y-74014039D01*
X129201113Y-74014047D01*
X129343435Y-74150120D01*
X129360947Y-74166863D01*
X129416142Y-74203297D01*
X129545495Y-74288683D01*
X129545497Y-74288684D01*
X129545499Y-74288685D01*
X129748838Y-74375596D01*
X129964428Y-74424803D01*
X130150363Y-74433153D01*
X130185335Y-74434724D01*
X130185335Y-74434723D01*
X130185339Y-74434724D01*
X130404472Y-74405040D01*
X130614783Y-74336706D01*
X130809513Y-74231918D01*
X130982402Y-74094043D01*
X131127895Y-73927513D01*
X131241314Y-73737681D01*
X131281255Y-73631256D01*
X131323239Y-73575411D01*
X131388753Y-73551127D01*
X131456995Y-73566118D01*
X131506300Y-73615624D01*
X131513436Y-73631248D01*
X131515183Y-73635901D01*
X131515184Y-73635904D01*
X131515186Y-73635909D01*
X131562414Y-73733979D01*
X131611131Y-73835141D01*
X131611133Y-73835145D01*
X131741107Y-74014039D01*
X131741113Y-74014047D01*
X131883435Y-74150120D01*
X131900947Y-74166863D01*
X131956142Y-74203297D01*
X132085495Y-74288683D01*
X132085497Y-74288684D01*
X132085499Y-74288685D01*
X132288838Y-74375596D01*
X132504428Y-74424803D01*
X132690363Y-74433153D01*
X132725335Y-74434724D01*
X132725335Y-74434723D01*
X132725339Y-74434724D01*
X132944472Y-74405040D01*
X133154783Y-74336706D01*
X133349513Y-74231918D01*
X133522402Y-74094043D01*
X133667895Y-73927513D01*
X133781314Y-73737681D01*
X133821255Y-73631256D01*
X133863239Y-73575411D01*
X133928753Y-73551127D01*
X133996995Y-73566118D01*
X134046300Y-73615624D01*
X134053436Y-73631248D01*
X134055183Y-73635901D01*
X134055184Y-73635904D01*
X134055186Y-73635909D01*
X134102414Y-73733979D01*
X134151131Y-73835141D01*
X134151133Y-73835145D01*
X134281107Y-74014039D01*
X134281113Y-74014047D01*
X134423435Y-74150120D01*
X134440947Y-74166863D01*
X134496142Y-74203297D01*
X134625495Y-74288683D01*
X134625497Y-74288684D01*
X134625499Y-74288685D01*
X134828838Y-74375596D01*
X135044428Y-74424803D01*
X135230363Y-74433153D01*
X135265335Y-74434724D01*
X135265335Y-74434723D01*
X135265339Y-74434724D01*
X135484472Y-74405040D01*
X135694783Y-74336706D01*
X135889513Y-74231918D01*
X136062402Y-74094043D01*
X136207895Y-73927513D01*
X136321314Y-73737681D01*
X136361255Y-73631256D01*
X136403239Y-73575411D01*
X136468753Y-73551127D01*
X136536995Y-73566118D01*
X136586300Y-73615624D01*
X136593436Y-73631248D01*
X136595183Y-73635901D01*
X136595184Y-73635904D01*
X136595186Y-73635909D01*
X136642414Y-73733979D01*
X136691131Y-73835141D01*
X136691133Y-73835145D01*
X136821107Y-74014039D01*
X136821113Y-74014047D01*
X136963435Y-74150120D01*
X136980947Y-74166863D01*
X137036142Y-74203297D01*
X137165495Y-74288683D01*
X137165497Y-74288684D01*
X137165499Y-74288685D01*
X137368838Y-74375596D01*
X137584428Y-74424803D01*
X137770363Y-74433153D01*
X137805335Y-74434724D01*
X137805335Y-74434723D01*
X137805339Y-74434724D01*
X138024472Y-74405040D01*
X138214501Y-74343295D01*
X138284338Y-74341301D01*
X138340497Y-74373546D01*
X140766155Y-76799204D01*
X140771496Y-76805294D01*
X140781427Y-76818236D01*
X140793510Y-76833984D01*
X140793511Y-76833985D01*
X140793513Y-76833987D01*
X140817328Y-76852261D01*
X140823784Y-76857215D01*
X140823808Y-76857235D01*
X140899667Y-76915443D01*
X140920624Y-76931524D01*
X140920626Y-76931524D01*
X140920628Y-76931526D01*
X140994636Y-76962181D01*
X141068649Y-76992838D01*
X141148074Y-77003294D01*
X141227499Y-77013751D01*
X141227500Y-77013751D01*
X141227501Y-77013751D01*
X141263353Y-77009031D01*
X141271454Y-77008500D01*
X146406054Y-77008500D01*
X146414151Y-77009030D01*
X146439527Y-77012371D01*
X146449999Y-77013750D01*
X146450000Y-77013750D01*
X146450001Y-77013750D01*
X146485846Y-77009031D01*
X146487961Y-77008752D01*
X146487974Y-77008751D01*
X146489881Y-77008500D01*
X146489885Y-77008500D01*
X146571002Y-76997820D01*
X146589457Y-76995391D01*
X146608851Y-76992838D01*
X146608856Y-76992836D01*
X146756876Y-76931524D01*
X146852072Y-76858477D01*
X146852073Y-76858475D01*
X146860164Y-76852267D01*
X146860171Y-76852261D01*
X146883983Y-76833990D01*
X146883982Y-76833990D01*
X146883987Y-76833987D01*
X146906010Y-76805285D01*
X146911338Y-76799209D01*
X149059202Y-74651345D01*
X149065293Y-74646003D01*
X149093987Y-74623987D01*
X149112267Y-74600164D01*
X149118475Y-74592073D01*
X149118477Y-74592072D01*
X149191524Y-74496876D01*
X149252838Y-74348851D01*
X149261144Y-74285761D01*
X149268500Y-74229885D01*
X149268500Y-74229879D01*
X149273750Y-74190000D01*
X149269030Y-74154151D01*
X149268500Y-74146054D01*
X149268500Y-51643410D01*
X149288185Y-51576371D01*
X149304814Y-51555733D01*
X150316640Y-50543907D01*
X150377961Y-50510424D01*
X150444584Y-50514309D01*
X150465365Y-50521444D01*
X150687431Y-50558500D01*
X150912569Y-50558500D01*
X151134635Y-50521444D01*
X151347574Y-50448342D01*
X151501974Y-50364785D01*
X151570298Y-50350191D01*
X151635671Y-50374854D01*
G37*
%TD.AperFunction*%
%TA.AperFunction,Conductor*%
G36*
X144304539Y-48318185D02*
G01*
X144350294Y-48370989D01*
X144361500Y-48422500D01*
X144361500Y-50098654D01*
X144368011Y-50159202D01*
X144368011Y-50159204D01*
X144419111Y-50296204D01*
X144506739Y-50413261D01*
X144623796Y-50500889D01*
X144678906Y-50521444D01*
X144759490Y-50551501D01*
X144760799Y-50551989D01*
X144788050Y-50554918D01*
X144821345Y-50558499D01*
X144821362Y-50558500D01*
X146166589Y-50558500D01*
X146233628Y-50578185D01*
X146254270Y-50594819D01*
X147165181Y-51505730D01*
X147198666Y-51567053D01*
X147201500Y-51593411D01*
X147201500Y-73560903D01*
X147181815Y-73627942D01*
X147165181Y-73648584D01*
X145858584Y-74955181D01*
X145797261Y-74988666D01*
X145770903Y-74991500D01*
X144403411Y-74991500D01*
X144336372Y-74971815D01*
X144315730Y-74955181D01*
X143653778Y-74293229D01*
X143620293Y-74231906D01*
X143625277Y-74162214D01*
X143664149Y-74108599D01*
X143682398Y-74094046D01*
X143682399Y-74094045D01*
X143682402Y-74094043D01*
X143827895Y-73927513D01*
X143941314Y-73737681D01*
X143986304Y-73617804D01*
X144028289Y-73561957D01*
X144093803Y-73537673D01*
X144162046Y-73552664D01*
X144211350Y-73602170D01*
X144221928Y-73628387D01*
X144223172Y-73632898D01*
X144223178Y-73632913D01*
X144318456Y-73830762D01*
X144318462Y-73830772D01*
X144447534Y-74008424D01*
X144447540Y-74008431D01*
X144606269Y-74160190D01*
X144789543Y-74281168D01*
X144991479Y-74367479D01*
X144991482Y-74367480D01*
X145119999Y-74396813D01*
X145120000Y-74396813D01*
X145120000Y-73358001D01*
X145227685Y-73407180D01*
X145334237Y-73422500D01*
X145405763Y-73422500D01*
X145512315Y-73407180D01*
X145620000Y-73358001D01*
X145620000Y-74399775D01*
X145642567Y-74396720D01*
X145642572Y-74396718D01*
X145851430Y-74328857D01*
X146044808Y-74224796D01*
X146044811Y-74224794D01*
X146216504Y-74087874D01*
X146360984Y-73922502D01*
X146360990Y-73922494D01*
X146473621Y-73733984D01*
X146473623Y-73733979D01*
X146550788Y-73528376D01*
X146550788Y-73528375D01*
X146590000Y-73312305D01*
X146590000Y-73172500D01*
X145803686Y-73172500D01*
X145829493Y-73132344D01*
X145870000Y-72994389D01*
X145870000Y-72850611D01*
X145829493Y-72712656D01*
X145803686Y-72672500D01*
X146590000Y-72672500D01*
X146590000Y-72587719D01*
X146589999Y-72587715D01*
X146575246Y-72423779D01*
X146516826Y-72212099D01*
X146516821Y-72212086D01*
X146421543Y-72014237D01*
X146421537Y-72014227D01*
X146292465Y-71836575D01*
X146292459Y-71836568D01*
X146133730Y-71684809D01*
X145950456Y-71563831D01*
X145748522Y-71477521D01*
X145748516Y-71477519D01*
X145620000Y-71448186D01*
X145620000Y-72486998D01*
X145512315Y-72437820D01*
X145405763Y-72422500D01*
X145334237Y-72422500D01*
X145227685Y-72437820D01*
X145120000Y-72486998D01*
X145120000Y-71445223D01*
X145097424Y-71448281D01*
X145097421Y-71448282D01*
X144888569Y-71516142D01*
X144695191Y-71620203D01*
X144695188Y-71620205D01*
X144523495Y-71757125D01*
X144379015Y-71922497D01*
X144379009Y-71922505D01*
X144266378Y-72111015D01*
X144266377Y-72111017D01*
X144222624Y-72227595D01*
X144180638Y-72283442D01*
X144115124Y-72307725D01*
X144046881Y-72292733D01*
X143997577Y-72243227D01*
X143987000Y-72217012D01*
X143984814Y-72209091D01*
X143888867Y-72009856D01*
X143821756Y-71917486D01*
X143758892Y-71830960D01*
X143758886Y-71830952D01*
X143599054Y-71678138D01*
X143599053Y-71678137D01*
X143551538Y-71646773D01*
X143414504Y-71556316D01*
X143320511Y-71516142D01*
X143211162Y-71469404D01*
X143211155Y-71469402D01*
X143211151Y-71469401D01*
X142995572Y-71420197D01*
X142774664Y-71410275D01*
X142555527Y-71439960D01*
X142555522Y-71439961D01*
X142345215Y-71508294D01*
X142150485Y-71613083D01*
X141977600Y-71750954D01*
X141832107Y-71917483D01*
X141718686Y-72107319D01*
X141678745Y-72213741D01*
X141636759Y-72269589D01*
X141571245Y-72293872D01*
X141503003Y-72278880D01*
X141453698Y-72229374D01*
X141446560Y-72213744D01*
X141444816Y-72209101D01*
X141444814Y-72209091D01*
X141348867Y-72009856D01*
X141281756Y-71917486D01*
X141218892Y-71830960D01*
X141218886Y-71830952D01*
X141059054Y-71678138D01*
X141059053Y-71678137D01*
X141011538Y-71646773D01*
X140874504Y-71556316D01*
X140780511Y-71516142D01*
X140671162Y-71469404D01*
X140671155Y-71469402D01*
X140671151Y-71469401D01*
X140455572Y-71420197D01*
X140234664Y-71410275D01*
X140015527Y-71439960D01*
X140015522Y-71439961D01*
X139805215Y-71508294D01*
X139610485Y-71613083D01*
X139437600Y-71750954D01*
X139292107Y-71917483D01*
X139178686Y-72107319D01*
X139138745Y-72213741D01*
X139096759Y-72269589D01*
X139031245Y-72293872D01*
X138963003Y-72278880D01*
X138913698Y-72229374D01*
X138906560Y-72213744D01*
X138904816Y-72209101D01*
X138904814Y-72209091D01*
X138808867Y-72009856D01*
X138741756Y-71917486D01*
X138678892Y-71830960D01*
X138678886Y-71830952D01*
X138519054Y-71678138D01*
X138519053Y-71678137D01*
X138471538Y-71646773D01*
X138334504Y-71556316D01*
X138240511Y-71516142D01*
X138131162Y-71469404D01*
X138131155Y-71469402D01*
X138131151Y-71469401D01*
X137915572Y-71420197D01*
X137694664Y-71410275D01*
X137475527Y-71439960D01*
X137475522Y-71439961D01*
X137265215Y-71508294D01*
X137070485Y-71613083D01*
X136897600Y-71750954D01*
X136752107Y-71917483D01*
X136638686Y-72107319D01*
X136598745Y-72213741D01*
X136556759Y-72269589D01*
X136491245Y-72293872D01*
X136423003Y-72278880D01*
X136373698Y-72229374D01*
X136366560Y-72213744D01*
X136364816Y-72209101D01*
X136364814Y-72209091D01*
X136268867Y-72009856D01*
X136201756Y-71917486D01*
X136138892Y-71830960D01*
X136138886Y-71830952D01*
X135979054Y-71678138D01*
X135979053Y-71678137D01*
X135931538Y-71646773D01*
X135794504Y-71556316D01*
X135700511Y-71516142D01*
X135591162Y-71469404D01*
X135591155Y-71469402D01*
X135591151Y-71469401D01*
X135375572Y-71420197D01*
X135154664Y-71410275D01*
X134935527Y-71439960D01*
X134935522Y-71439961D01*
X134725215Y-71508294D01*
X134530485Y-71613083D01*
X134357600Y-71750954D01*
X134212107Y-71917483D01*
X134098686Y-72107319D01*
X134058745Y-72213741D01*
X134016759Y-72269589D01*
X133951245Y-72293872D01*
X133883003Y-72278880D01*
X133833698Y-72229374D01*
X133826560Y-72213744D01*
X133824816Y-72209101D01*
X133824814Y-72209091D01*
X133728867Y-72009856D01*
X133661756Y-71917486D01*
X133598892Y-71830960D01*
X133598886Y-71830952D01*
X133439054Y-71678138D01*
X133439053Y-71678137D01*
X133391538Y-71646773D01*
X133254504Y-71556316D01*
X133160511Y-71516142D01*
X133051162Y-71469404D01*
X133051155Y-71469402D01*
X133051151Y-71469401D01*
X132835572Y-71420197D01*
X132614664Y-71410275D01*
X132395527Y-71439960D01*
X132395522Y-71439961D01*
X132185215Y-71508294D01*
X131990485Y-71613083D01*
X131817600Y-71750954D01*
X131672107Y-71917483D01*
X131558686Y-72107319D01*
X131518745Y-72213741D01*
X131476759Y-72269589D01*
X131411245Y-72293872D01*
X131343003Y-72278880D01*
X131293698Y-72229374D01*
X131286560Y-72213744D01*
X131284816Y-72209101D01*
X131284814Y-72209091D01*
X131188867Y-72009856D01*
X131121756Y-71917486D01*
X131058892Y-71830960D01*
X131058886Y-71830952D01*
X130899054Y-71678138D01*
X130899053Y-71678137D01*
X130851538Y-71646773D01*
X130714504Y-71556316D01*
X130620511Y-71516142D01*
X130511162Y-71469404D01*
X130511155Y-71469402D01*
X130511151Y-71469401D01*
X130295572Y-71420197D01*
X130074664Y-71410275D01*
X129855527Y-71439960D01*
X129855522Y-71439961D01*
X129645215Y-71508294D01*
X129450485Y-71613083D01*
X129277600Y-71750954D01*
X129132107Y-71917483D01*
X129018686Y-72107319D01*
X128978745Y-72213741D01*
X128936759Y-72269589D01*
X128871245Y-72293872D01*
X128803003Y-72278880D01*
X128753698Y-72229374D01*
X128746560Y-72213744D01*
X128744816Y-72209101D01*
X128744814Y-72209091D01*
X128648867Y-72009856D01*
X128581756Y-71917486D01*
X128518892Y-71830960D01*
X128518886Y-71830952D01*
X128359054Y-71678138D01*
X128359053Y-71678137D01*
X128311538Y-71646773D01*
X128174504Y-71556316D01*
X128080511Y-71516142D01*
X127971162Y-71469404D01*
X127971155Y-71469402D01*
X127971151Y-71469401D01*
X127755572Y-71420197D01*
X127534664Y-71410275D01*
X127315527Y-71439960D01*
X127315522Y-71439961D01*
X127105215Y-71508294D01*
X126910485Y-71613083D01*
X126737600Y-71750954D01*
X126592107Y-71917483D01*
X126478686Y-72107319D01*
X126438745Y-72213741D01*
X126396759Y-72269589D01*
X126331245Y-72293872D01*
X126263003Y-72278880D01*
X126213698Y-72229374D01*
X126206560Y-72213744D01*
X126204816Y-72209101D01*
X126204814Y-72209091D01*
X126108867Y-72009856D01*
X126041756Y-71917486D01*
X125978892Y-71830960D01*
X125978886Y-71830952D01*
X125819054Y-71678138D01*
X125819053Y-71678137D01*
X125771538Y-71646773D01*
X125634504Y-71556316D01*
X125540511Y-71516142D01*
X125431162Y-71469404D01*
X125431155Y-71469402D01*
X125431151Y-71469401D01*
X125215572Y-71420197D01*
X124994664Y-71410275D01*
X124775527Y-71439960D01*
X124775522Y-71439961D01*
X124565215Y-71508294D01*
X124370485Y-71613083D01*
X124197600Y-71750954D01*
X124052107Y-71917483D01*
X123938686Y-72107319D01*
X123898745Y-72213741D01*
X123856759Y-72269589D01*
X123791245Y-72293872D01*
X123723003Y-72278880D01*
X123673698Y-72229374D01*
X123666560Y-72213744D01*
X123664816Y-72209101D01*
X123664814Y-72209091D01*
X123568867Y-72009856D01*
X123501756Y-71917486D01*
X123438892Y-71830960D01*
X123438886Y-71830952D01*
X123279054Y-71678138D01*
X123279053Y-71678137D01*
X123231538Y-71646773D01*
X123094504Y-71556316D01*
X123000511Y-71516142D01*
X122891162Y-71469404D01*
X122891155Y-71469402D01*
X122891151Y-71469401D01*
X122675572Y-71420197D01*
X122454664Y-71410275D01*
X122235527Y-71439960D01*
X122235522Y-71439961D01*
X122025215Y-71508294D01*
X121830485Y-71613083D01*
X121657600Y-71750954D01*
X121512107Y-71917483D01*
X121398686Y-72107319D01*
X121358745Y-72213741D01*
X121316759Y-72269589D01*
X121251245Y-72293872D01*
X121183003Y-72278880D01*
X121133698Y-72229374D01*
X121126560Y-72213744D01*
X121124816Y-72209101D01*
X121124814Y-72209091D01*
X121028867Y-72009856D01*
X120961756Y-71917486D01*
X120898892Y-71830960D01*
X120898886Y-71830952D01*
X120739054Y-71678138D01*
X120739053Y-71678137D01*
X120691538Y-71646773D01*
X120554504Y-71556316D01*
X120460511Y-71516142D01*
X120351162Y-71469404D01*
X120351155Y-71469402D01*
X120351151Y-71469401D01*
X120135572Y-71420197D01*
X119914664Y-71410275D01*
X119695527Y-71439960D01*
X119695522Y-71439961D01*
X119485215Y-71508294D01*
X119290485Y-71613083D01*
X119117600Y-71750954D01*
X118972107Y-71917483D01*
X118858686Y-72107319D01*
X118818745Y-72213741D01*
X118776759Y-72269589D01*
X118711245Y-72293872D01*
X118643003Y-72278880D01*
X118593698Y-72229374D01*
X118586560Y-72213744D01*
X118584816Y-72209101D01*
X118584814Y-72209091D01*
X118488867Y-72009856D01*
X118421756Y-71917486D01*
X118358892Y-71830960D01*
X118358886Y-71830952D01*
X118199054Y-71678138D01*
X118199053Y-71678137D01*
X118151538Y-71646773D01*
X118014504Y-71556316D01*
X117920511Y-71516142D01*
X117811162Y-71469404D01*
X117811155Y-71469402D01*
X117811151Y-71469401D01*
X117595572Y-71420197D01*
X117374664Y-71410275D01*
X117155527Y-71439960D01*
X117155522Y-71439961D01*
X116945214Y-71508295D01*
X116945210Y-71508296D01*
X116921257Y-71521186D01*
X116852895Y-71535618D01*
X116787581Y-71510800D01*
X116746054Y-71454610D01*
X116738500Y-71411991D01*
X116738500Y-59285911D01*
X116758185Y-59218872D01*
X116774814Y-59198233D01*
X116841450Y-59131598D01*
X116902770Y-59098115D01*
X116972462Y-59103099D01*
X116977852Y-59105255D01*
X117048838Y-59135596D01*
X117264428Y-59184803D01*
X117450363Y-59193153D01*
X117485335Y-59194724D01*
X117485335Y-59194723D01*
X117485339Y-59194724D01*
X117704472Y-59165040D01*
X117914783Y-59096706D01*
X118109513Y-58991918D01*
X118282402Y-58854043D01*
X118427895Y-58687513D01*
X118541314Y-58497681D01*
X118581255Y-58391256D01*
X118623239Y-58335411D01*
X118688753Y-58311127D01*
X118756995Y-58326118D01*
X118806300Y-58375624D01*
X118813436Y-58391248D01*
X118815183Y-58395901D01*
X118815184Y-58395904D01*
X118815186Y-58395909D01*
X118866036Y-58501500D01*
X118911131Y-58595141D01*
X118911133Y-58595145D01*
X119041107Y-58774039D01*
X119041113Y-58774047D01*
X119173686Y-58900799D01*
X119200947Y-58926863D01*
X119253211Y-58961362D01*
X119385495Y-59048683D01*
X119385497Y-59048684D01*
X119385499Y-59048685D01*
X119588838Y-59135596D01*
X119804428Y-59184803D01*
X119990363Y-59193153D01*
X120025335Y-59194724D01*
X120025335Y-59194723D01*
X120025339Y-59194724D01*
X120244472Y-59165040D01*
X120454783Y-59096706D01*
X120649513Y-58991918D01*
X120822402Y-58854043D01*
X120967895Y-58687513D01*
X121081314Y-58497681D01*
X121121255Y-58391256D01*
X121163239Y-58335411D01*
X121228753Y-58311127D01*
X121296995Y-58326118D01*
X121346300Y-58375624D01*
X121353436Y-58391248D01*
X121355183Y-58395901D01*
X121355184Y-58395904D01*
X121355186Y-58395909D01*
X121406036Y-58501500D01*
X121451131Y-58595141D01*
X121451133Y-58595145D01*
X121581107Y-58774039D01*
X121581113Y-58774047D01*
X121713686Y-58900799D01*
X121740947Y-58926863D01*
X121793211Y-58961362D01*
X121925495Y-59048683D01*
X121925497Y-59048684D01*
X121925499Y-59048685D01*
X122128838Y-59135596D01*
X122344428Y-59184803D01*
X122530363Y-59193153D01*
X122565335Y-59194724D01*
X122565335Y-59194723D01*
X122565339Y-59194724D01*
X122784472Y-59165040D01*
X122994783Y-59096706D01*
X123189513Y-58991918D01*
X123362402Y-58854043D01*
X123507895Y-58687513D01*
X123621314Y-58497681D01*
X123661255Y-58391256D01*
X123703239Y-58335411D01*
X123768753Y-58311127D01*
X123836995Y-58326118D01*
X123886300Y-58375624D01*
X123893436Y-58391248D01*
X123895183Y-58395901D01*
X123895184Y-58395904D01*
X123895186Y-58395909D01*
X123946036Y-58501500D01*
X123991131Y-58595141D01*
X123991133Y-58595145D01*
X124121107Y-58774039D01*
X124121113Y-58774047D01*
X124253686Y-58900799D01*
X124280947Y-58926863D01*
X124333211Y-58961362D01*
X124465495Y-59048683D01*
X124465497Y-59048684D01*
X124465499Y-59048685D01*
X124668838Y-59135596D01*
X124884428Y-59184803D01*
X125070363Y-59193153D01*
X125105335Y-59194724D01*
X125105335Y-59194723D01*
X125105339Y-59194724D01*
X125324472Y-59165040D01*
X125534783Y-59096706D01*
X125729513Y-58991918D01*
X125902402Y-58854043D01*
X126047895Y-58687513D01*
X126161314Y-58497681D01*
X126201255Y-58391256D01*
X126243239Y-58335411D01*
X126308753Y-58311127D01*
X126376995Y-58326118D01*
X126426300Y-58375624D01*
X126433436Y-58391248D01*
X126435183Y-58395901D01*
X126435184Y-58395904D01*
X126435186Y-58395909D01*
X126486036Y-58501500D01*
X126531131Y-58595141D01*
X126531133Y-58595145D01*
X126661107Y-58774039D01*
X126661113Y-58774047D01*
X126793686Y-58900799D01*
X126820947Y-58926863D01*
X126873211Y-58961362D01*
X127005495Y-59048683D01*
X127005497Y-59048684D01*
X127005499Y-59048685D01*
X127208838Y-59135596D01*
X127424428Y-59184803D01*
X127610363Y-59193153D01*
X127645335Y-59194724D01*
X127645335Y-59194723D01*
X127645339Y-59194724D01*
X127864472Y-59165040D01*
X128074783Y-59096706D01*
X128269513Y-58991918D01*
X128442402Y-58854043D01*
X128587895Y-58687513D01*
X128701314Y-58497681D01*
X128741255Y-58391256D01*
X128783239Y-58335411D01*
X128848753Y-58311127D01*
X128916995Y-58326118D01*
X128966300Y-58375624D01*
X128973436Y-58391248D01*
X128975183Y-58395901D01*
X128975184Y-58395904D01*
X128975186Y-58395909D01*
X129026036Y-58501500D01*
X129071131Y-58595141D01*
X129071133Y-58595145D01*
X129201107Y-58774039D01*
X129201113Y-58774047D01*
X129333686Y-58900799D01*
X129360947Y-58926863D01*
X129413211Y-58961362D01*
X129545495Y-59048683D01*
X129545497Y-59048684D01*
X129545499Y-59048685D01*
X129748838Y-59135596D01*
X129964428Y-59184803D01*
X130150363Y-59193153D01*
X130185335Y-59194724D01*
X130185335Y-59194723D01*
X130185339Y-59194724D01*
X130404472Y-59165040D01*
X130614783Y-59096706D01*
X130809513Y-58991918D01*
X130982402Y-58854043D01*
X131127895Y-58687513D01*
X131241314Y-58497681D01*
X131286304Y-58377804D01*
X131328289Y-58321957D01*
X131393803Y-58297673D01*
X131462046Y-58312664D01*
X131511350Y-58362170D01*
X131521928Y-58388387D01*
X131523172Y-58392898D01*
X131523178Y-58392913D01*
X131618456Y-58590762D01*
X131618462Y-58590772D01*
X131747534Y-58768424D01*
X131747540Y-58768431D01*
X131906269Y-58920190D01*
X132089543Y-59041168D01*
X132291479Y-59127479D01*
X132291482Y-59127480D01*
X132419999Y-59156813D01*
X132420000Y-59156813D01*
X132420000Y-58118001D01*
X132527685Y-58167180D01*
X132634237Y-58182500D01*
X132705763Y-58182500D01*
X132812315Y-58167180D01*
X132920000Y-58118001D01*
X132920000Y-59159775D01*
X132942567Y-59156720D01*
X132942572Y-59156718D01*
X133151430Y-59088857D01*
X133344808Y-58984796D01*
X133344811Y-58984794D01*
X133516504Y-58847874D01*
X133660984Y-58682502D01*
X133660990Y-58682494D01*
X133773621Y-58493984D01*
X133773625Y-58493976D01*
X133817375Y-58377406D01*
X133859360Y-58321558D01*
X133924874Y-58297274D01*
X133993117Y-58312265D01*
X134042421Y-58361771D01*
X134052999Y-58387986D01*
X134055183Y-58395901D01*
X134055186Y-58395908D01*
X134151131Y-58595141D01*
X134151133Y-58595145D01*
X134281107Y-58774039D01*
X134281113Y-58774047D01*
X134413686Y-58900799D01*
X134440947Y-58926863D01*
X134493211Y-58961362D01*
X134625495Y-59048683D01*
X134625497Y-59048684D01*
X134625499Y-59048685D01*
X134828838Y-59135596D01*
X135044428Y-59184803D01*
X135230363Y-59193153D01*
X135265335Y-59194724D01*
X135265335Y-59194723D01*
X135265339Y-59194724D01*
X135484472Y-59165040D01*
X135694783Y-59096706D01*
X135889513Y-58991918D01*
X136062402Y-58854043D01*
X136207895Y-58687513D01*
X136321314Y-58497681D01*
X136361255Y-58391256D01*
X136403239Y-58335411D01*
X136468753Y-58311127D01*
X136536995Y-58326118D01*
X136586300Y-58375624D01*
X136593436Y-58391248D01*
X136595183Y-58395901D01*
X136595184Y-58395904D01*
X136595186Y-58395909D01*
X136646036Y-58501500D01*
X136691131Y-58595141D01*
X136691133Y-58595145D01*
X136821107Y-58774039D01*
X136821113Y-58774047D01*
X136953686Y-58900799D01*
X136980947Y-58926863D01*
X137033211Y-58961362D01*
X137165495Y-59048683D01*
X137165497Y-59048684D01*
X137165499Y-59048685D01*
X137368838Y-59135596D01*
X137584428Y-59184803D01*
X137770363Y-59193153D01*
X137805335Y-59194724D01*
X137805335Y-59194723D01*
X137805339Y-59194724D01*
X138024472Y-59165040D01*
X138234783Y-59096706D01*
X138429513Y-58991918D01*
X138602402Y-58854043D01*
X138747895Y-58687513D01*
X138861314Y-58497681D01*
X138901255Y-58391256D01*
X138943239Y-58335411D01*
X139008753Y-58311127D01*
X139076995Y-58326118D01*
X139126300Y-58375624D01*
X139133436Y-58391248D01*
X139135183Y-58395901D01*
X139135184Y-58395904D01*
X139135186Y-58395909D01*
X139186036Y-58501500D01*
X139231131Y-58595141D01*
X139231133Y-58595145D01*
X139361107Y-58774039D01*
X139361113Y-58774047D01*
X139493686Y-58900799D01*
X139520947Y-58926863D01*
X139573211Y-58961362D01*
X139705495Y-59048683D01*
X139705497Y-59048684D01*
X139705499Y-59048685D01*
X139908838Y-59135596D01*
X140124428Y-59184803D01*
X140310363Y-59193153D01*
X140345335Y-59194724D01*
X140345335Y-59194723D01*
X140345339Y-59194724D01*
X140564472Y-59165040D01*
X140774783Y-59096706D01*
X140969513Y-58991918D01*
X141142402Y-58854043D01*
X141287895Y-58687513D01*
X141401314Y-58497681D01*
X141441255Y-58391256D01*
X141483239Y-58335411D01*
X141548753Y-58311127D01*
X141616995Y-58326118D01*
X141666300Y-58375624D01*
X141673436Y-58391248D01*
X141675183Y-58395901D01*
X141675184Y-58395904D01*
X141675186Y-58395909D01*
X141726036Y-58501500D01*
X141771131Y-58595141D01*
X141771133Y-58595145D01*
X141901107Y-58774039D01*
X141901113Y-58774047D01*
X142033686Y-58900799D01*
X142060947Y-58926863D01*
X142113211Y-58961362D01*
X142245495Y-59048683D01*
X142245497Y-59048684D01*
X142245499Y-59048685D01*
X142448838Y-59135596D01*
X142664428Y-59184803D01*
X142850363Y-59193153D01*
X142885335Y-59194724D01*
X142885335Y-59194723D01*
X142885339Y-59194724D01*
X143104472Y-59165040D01*
X143314783Y-59096706D01*
X143509513Y-58991918D01*
X143682402Y-58854043D01*
X143827895Y-58687513D01*
X143941314Y-58497681D01*
X143981255Y-58391256D01*
X144023239Y-58335411D01*
X144088753Y-58311127D01*
X144156995Y-58326118D01*
X144206300Y-58375624D01*
X144213436Y-58391248D01*
X144215183Y-58395901D01*
X144215184Y-58395904D01*
X144215186Y-58395909D01*
X144266036Y-58501500D01*
X144311131Y-58595141D01*
X144311133Y-58595145D01*
X144441107Y-58774039D01*
X144441113Y-58774047D01*
X144573686Y-58900799D01*
X144600947Y-58926863D01*
X144653211Y-58961362D01*
X144785495Y-59048683D01*
X144785497Y-59048684D01*
X144785499Y-59048685D01*
X144988838Y-59135596D01*
X145204428Y-59184803D01*
X145390363Y-59193153D01*
X145425335Y-59194724D01*
X145425335Y-59194723D01*
X145425339Y-59194724D01*
X145644472Y-59165040D01*
X145854783Y-59096706D01*
X146049513Y-58991918D01*
X146222402Y-58854043D01*
X146367895Y-58687513D01*
X146481314Y-58497681D01*
X146559015Y-58290647D01*
X146592260Y-58107452D01*
X146598500Y-58073070D01*
X146598500Y-57347329D01*
X146598500Y-57347322D01*
X146583644Y-57182256D01*
X146583339Y-57181150D01*
X146524817Y-56969100D01*
X146524815Y-56969096D01*
X146524814Y-56969091D01*
X146428867Y-56769856D01*
X146361754Y-56677483D01*
X146298892Y-56590960D01*
X146298886Y-56590952D01*
X146139054Y-56438138D01*
X146139051Y-56438135D01*
X146034188Y-56368914D01*
X145989083Y-56315554D01*
X145978500Y-56265428D01*
X145978500Y-52957944D01*
X145979031Y-52949843D01*
X145983750Y-52914000D01*
X145978739Y-52875939D01*
X145978735Y-52875905D01*
X145978500Y-52874120D01*
X145978500Y-52874115D01*
X145962838Y-52755150D01*
X145902300Y-52608999D01*
X145901662Y-52607303D01*
X145826006Y-52508708D01*
X145803986Y-52480012D01*
X145791109Y-52470131D01*
X145775293Y-52457995D01*
X145769203Y-52452654D01*
X142997919Y-49681370D01*
X142964434Y-49620047D01*
X142965395Y-49563248D01*
X143000561Y-49424380D01*
X143000563Y-49424371D01*
X143000564Y-49424368D01*
X143019156Y-49200000D01*
X143018883Y-49196706D01*
X143000565Y-48975640D01*
X143000563Y-48975628D01*
X142945296Y-48757385D01*
X142868387Y-48582049D01*
X142854860Y-48551209D01*
X142815079Y-48490320D01*
X142794893Y-48423432D01*
X142814073Y-48356247D01*
X142866531Y-48310096D01*
X142918889Y-48298500D01*
X144237500Y-48298500D01*
X144304539Y-48318185D01*
G37*
%TD.AperFunction*%
%TA.AperFunction,Conductor*%
G36*
X126666000Y-50530633D02*
G01*
X126879483Y-50473433D01*
X126879492Y-50473429D01*
X127093578Y-50373600D01*
X127287082Y-50238105D01*
X127454105Y-50071082D01*
X127580868Y-49890048D01*
X127635445Y-49846423D01*
X127704944Y-49839231D01*
X127767298Y-49870753D01*
X127786251Y-49893350D01*
X127880276Y-50037265D01*
X127880284Y-50037276D01*
X128032756Y-50202902D01*
X128032761Y-50202907D01*
X128077983Y-50238105D01*
X128210424Y-50341189D01*
X128210425Y-50341189D01*
X128210427Y-50341191D01*
X128307981Y-50393984D01*
X128408426Y-50448342D01*
X128621365Y-50521444D01*
X128843431Y-50558500D01*
X129068569Y-50558500D01*
X129290635Y-50521444D01*
X129503574Y-50448342D01*
X129701576Y-50341189D01*
X129879240Y-50202906D01*
X130000594Y-50071082D01*
X130031715Y-50037276D01*
X130031715Y-50037275D01*
X130031722Y-50037268D01*
X130122193Y-49898790D01*
X130175338Y-49853437D01*
X130244569Y-49844013D01*
X130307905Y-49873515D01*
X130329804Y-49898787D01*
X130420278Y-50037268D01*
X130420283Y-50037273D01*
X130420284Y-50037276D01*
X130572756Y-50202902D01*
X130572761Y-50202907D01*
X130617983Y-50238105D01*
X130750424Y-50341189D01*
X130750425Y-50341189D01*
X130750427Y-50341191D01*
X130847981Y-50393984D01*
X130948426Y-50448342D01*
X131161365Y-50521444D01*
X131383431Y-50558500D01*
X131608569Y-50558500D01*
X131830635Y-50521444D01*
X131851412Y-50514310D01*
X131921209Y-50511157D01*
X131979360Y-50543909D01*
X134565181Y-53129730D01*
X134598666Y-53191053D01*
X134601500Y-53217411D01*
X134601500Y-56260781D01*
X134581815Y-56327820D01*
X134536263Y-56369973D01*
X134530494Y-56373077D01*
X134530486Y-56373082D01*
X134357600Y-56510954D01*
X134212107Y-56677483D01*
X134150748Y-56780181D01*
X134098686Y-56867319D01*
X134092426Y-56884000D01*
X134053695Y-56987196D01*
X134011709Y-57043043D01*
X133946195Y-57067326D01*
X133877952Y-57052334D01*
X133828648Y-57002828D01*
X133818068Y-56976604D01*
X133816822Y-56972089D01*
X133816821Y-56972086D01*
X133721543Y-56774237D01*
X133721537Y-56774227D01*
X133592465Y-56596575D01*
X133592459Y-56596568D01*
X133433730Y-56444809D01*
X133250456Y-56323831D01*
X133048522Y-56237521D01*
X133048516Y-56237519D01*
X132920000Y-56208186D01*
X132920000Y-57246998D01*
X132812315Y-57197820D01*
X132705763Y-57182500D01*
X132634237Y-57182500D01*
X132527685Y-57197820D01*
X132420000Y-57246998D01*
X132420000Y-56205223D01*
X132397424Y-56208281D01*
X132397421Y-56208282D01*
X132188569Y-56276142D01*
X131995191Y-56380203D01*
X131995188Y-56380205D01*
X131823495Y-56517125D01*
X131679015Y-56682497D01*
X131679009Y-56682505D01*
X131566378Y-56871015D01*
X131566377Y-56871017D01*
X131522624Y-56987595D01*
X131480638Y-57043442D01*
X131415124Y-57067725D01*
X131346881Y-57052733D01*
X131297577Y-57003227D01*
X131287000Y-56977012D01*
X131284814Y-56969091D01*
X131188867Y-56769856D01*
X131121754Y-56677483D01*
X131058892Y-56590960D01*
X131058886Y-56590952D01*
X130899054Y-56438138D01*
X130899053Y-56438137D01*
X130800501Y-56373083D01*
X130714504Y-56316316D01*
X130620511Y-56276142D01*
X130511162Y-56229404D01*
X130511155Y-56229402D01*
X130511151Y-56229401D01*
X130295572Y-56180197D01*
X130074664Y-56170275D01*
X129855527Y-56199960D01*
X129855522Y-56199961D01*
X129645215Y-56268294D01*
X129450485Y-56373083D01*
X129277600Y-56510954D01*
X129132107Y-56677483D01*
X129018686Y-56867319D01*
X128978745Y-56973741D01*
X128936759Y-57029589D01*
X128871245Y-57053872D01*
X128803003Y-57038880D01*
X128753698Y-56989374D01*
X128746560Y-56973744D01*
X128744816Y-56969100D01*
X128744814Y-56969091D01*
X128648867Y-56769856D01*
X128581754Y-56677483D01*
X128518892Y-56590960D01*
X128518886Y-56590952D01*
X128359054Y-56438138D01*
X128359051Y-56438135D01*
X128254188Y-56368914D01*
X128209083Y-56315554D01*
X128198500Y-56265428D01*
X128198500Y-54463945D01*
X128199031Y-54455843D01*
X128199773Y-54450211D01*
X128203750Y-54420000D01*
X128198500Y-54380120D01*
X128198500Y-54380115D01*
X128187623Y-54297498D01*
X128182839Y-54261156D01*
X128182838Y-54261154D01*
X128182838Y-54261150D01*
X128182132Y-54259444D01*
X128178550Y-54250797D01*
X128121525Y-54113126D01*
X128121523Y-54113123D01*
X128047235Y-54016308D01*
X128047215Y-54016284D01*
X128030598Y-53994629D01*
X128023987Y-53986013D01*
X128023985Y-53986011D01*
X128023984Y-53986010D01*
X128007939Y-53973699D01*
X127995293Y-53963995D01*
X127989203Y-53958654D01*
X125814819Y-51784270D01*
X125781334Y-51722947D01*
X125778500Y-51696589D01*
X125778500Y-50586930D01*
X125798185Y-50519891D01*
X125850989Y-50474136D01*
X125920147Y-50464192D01*
X125947184Y-50472248D01*
X125947428Y-50471581D01*
X125952516Y-50473433D01*
X126166000Y-50530634D01*
X126166000Y-49635501D01*
X126273685Y-49684680D01*
X126380237Y-49700000D01*
X126451763Y-49700000D01*
X126558315Y-49684680D01*
X126666000Y-49635501D01*
X126666000Y-50530633D01*
G37*
%TD.AperFunction*%
%TA.AperFunction,Conductor*%
G36*
X163484404Y-46755185D02*
G01*
X163505046Y-46771819D01*
X165928181Y-49194954D01*
X165961666Y-49256277D01*
X165964500Y-49282635D01*
X165964500Y-59315019D01*
X165961963Y-59334292D01*
X165964264Y-59360591D01*
X165964500Y-59365997D01*
X165964500Y-59373315D01*
X165965769Y-59380516D01*
X165966474Y-59385873D01*
X165967181Y-59393955D01*
X165971651Y-59403541D01*
X165978451Y-59411644D01*
X165978452Y-59411645D01*
X165979500Y-59412250D01*
X166005185Y-59431958D01*
X168468181Y-61894954D01*
X168501666Y-61956277D01*
X168504500Y-61982635D01*
X168504500Y-96107363D01*
X168484815Y-96174402D01*
X168468181Y-96195044D01*
X166018418Y-98644806D01*
X166003002Y-98656636D01*
X165986024Y-98676868D01*
X165982374Y-98680851D01*
X165977197Y-98686027D01*
X165972997Y-98692026D01*
X165969710Y-98696309D01*
X165964501Y-98702517D01*
X165960881Y-98712463D01*
X165959960Y-98722998D01*
X165960274Y-98724169D01*
X165964500Y-98756265D01*
X165964500Y-99234951D01*
X165964201Y-99241033D01*
X165952505Y-99359778D01*
X165947763Y-99383618D01*
X165917832Y-99482290D01*
X165915789Y-99489024D01*
X165906486Y-99511482D01*
X165854561Y-99608627D01*
X165841056Y-99628839D01*
X165771176Y-99713988D01*
X165753988Y-99731176D01*
X165668839Y-99801056D01*
X165648627Y-99814561D01*
X165551482Y-99866486D01*
X165529028Y-99875787D01*
X165487028Y-99888528D01*
X165423618Y-99907763D01*
X165399778Y-99912505D01*
X165281033Y-99924201D01*
X165274951Y-99924500D01*
X100765049Y-99924500D01*
X100758968Y-99924201D01*
X100640221Y-99912505D01*
X100616381Y-99907763D01*
X100599445Y-99902625D01*
X100510968Y-99875786D01*
X100488517Y-99866486D01*
X100391372Y-99814561D01*
X100371160Y-99801056D01*
X100286011Y-99731176D01*
X100268823Y-99713988D01*
X100198943Y-99628839D01*
X100185438Y-99608627D01*
X100133510Y-99511476D01*
X100124215Y-99489037D01*
X100092234Y-99383612D01*
X100087494Y-99359777D01*
X100075799Y-99241032D01*
X100075500Y-99234951D01*
X100075500Y-89472190D01*
X107427748Y-89472190D01*
X107431415Y-89542158D01*
X107431500Y-89545404D01*
X107431500Y-89567610D01*
X107433303Y-89584776D01*
X107433820Y-89589693D01*
X107434074Y-89592925D01*
X107437742Y-89662901D01*
X107441424Y-89676640D01*
X107444969Y-89695767D01*
X107446457Y-89709927D01*
X107452213Y-89727641D01*
X107468121Y-89776604D01*
X107469028Y-89779663D01*
X107474478Y-89800000D01*
X107487171Y-89847373D01*
X107493631Y-89860051D01*
X107501073Y-89878018D01*
X107505470Y-89891550D01*
X107505471Y-89891553D01*
X107505473Y-89891556D01*
X107540521Y-89952262D01*
X107542055Y-89955087D01*
X107571897Y-90013655D01*
X107573868Y-90017524D01*
X107573873Y-90017533D01*
X107582827Y-90028590D01*
X107593838Y-90044610D01*
X107600848Y-90056750D01*
X107600962Y-90056947D01*
X107647846Y-90109017D01*
X107649946Y-90111476D01*
X107663928Y-90128741D01*
X107663931Y-90128744D01*
X107679625Y-90144438D01*
X107681846Y-90146777D01*
X107728747Y-90198866D01*
X107740257Y-90207228D01*
X107755052Y-90219865D01*
X112010133Y-94474946D01*
X112022768Y-94489739D01*
X112031132Y-94501251D01*
X112031134Y-94501253D01*
X112083204Y-94548137D01*
X112085559Y-94550372D01*
X112101259Y-94566072D01*
X112118519Y-94580049D01*
X112120976Y-94582147D01*
X112159918Y-94617211D01*
X112173058Y-94629042D01*
X112185364Y-94636146D01*
X112201405Y-94647169D01*
X112212469Y-94656129D01*
X112238078Y-94669177D01*
X112274908Y-94687943D01*
X112277762Y-94689492D01*
X112338442Y-94724526D01*
X112338444Y-94724527D01*
X112351980Y-94728925D01*
X112369949Y-94736367D01*
X112382630Y-94742829D01*
X112450309Y-94760963D01*
X112453411Y-94761882D01*
X112520072Y-94783542D01*
X112530920Y-94784681D01*
X112534221Y-94785029D01*
X112553359Y-94788576D01*
X112567096Y-94792257D01*
X112567095Y-94792257D01*
X112572907Y-94792561D01*
X112637082Y-94795924D01*
X112640298Y-94796177D01*
X112662390Y-94798500D01*
X112684595Y-94798500D01*
X112687838Y-94798584D01*
X112757809Y-94802252D01*
X112771857Y-94800027D01*
X112791256Y-94798500D01*
X118368743Y-94798500D01*
X118388142Y-94800027D01*
X118402190Y-94802252D01*
X118472160Y-94798584D01*
X118475404Y-94798500D01*
X133638743Y-94798500D01*
X133658142Y-94800027D01*
X133672190Y-94802252D01*
X133742160Y-94798584D01*
X133745404Y-94798500D01*
X137067500Y-94798500D01*
X137134539Y-94818185D01*
X137180294Y-94870989D01*
X137191500Y-94922500D01*
X137191500Y-96392697D01*
X137171815Y-96459736D01*
X137158729Y-96476680D01*
X137024284Y-96622723D01*
X137024276Y-96622734D01*
X136933808Y-96761206D01*
X136880662Y-96806562D01*
X136811431Y-96815986D01*
X136748095Y-96786484D01*
X136726192Y-96761206D01*
X136635723Y-96622734D01*
X136635715Y-96622723D01*
X136483243Y-96457097D01*
X136483238Y-96457092D01*
X136305577Y-96318812D01*
X136305572Y-96318808D01*
X136107580Y-96211661D01*
X136107577Y-96211659D01*
X136107574Y-96211658D01*
X136107571Y-96211657D01*
X136107569Y-96211656D01*
X135894637Y-96138556D01*
X135672569Y-96101500D01*
X135447431Y-96101500D01*
X135225362Y-96138556D01*
X135012430Y-96211656D01*
X135012419Y-96211661D01*
X134814427Y-96318808D01*
X134814422Y-96318812D01*
X134636761Y-96457092D01*
X134636756Y-96457097D01*
X134484284Y-96622723D01*
X134484276Y-96622734D01*
X134393808Y-96761206D01*
X134340662Y-96806562D01*
X134271431Y-96815986D01*
X134208095Y-96786484D01*
X134186192Y-96761206D01*
X134095723Y-96622734D01*
X134095715Y-96622723D01*
X133943243Y-96457097D01*
X133943238Y-96457092D01*
X133765577Y-96318812D01*
X133765572Y-96318808D01*
X133567580Y-96211661D01*
X133567577Y-96211659D01*
X133567574Y-96211658D01*
X133567571Y-96211657D01*
X133567569Y-96211656D01*
X133354637Y-96138556D01*
X133132569Y-96101500D01*
X132907431Y-96101500D01*
X132685362Y-96138556D01*
X132472430Y-96211656D01*
X132472419Y-96211661D01*
X132274427Y-96318808D01*
X132274422Y-96318812D01*
X132096761Y-96457092D01*
X132096756Y-96457097D01*
X131944284Y-96622723D01*
X131944276Y-96622734D01*
X131853808Y-96761206D01*
X131800662Y-96806562D01*
X131731431Y-96815986D01*
X131668095Y-96786484D01*
X131646192Y-96761206D01*
X131555723Y-96622734D01*
X131555715Y-96622723D01*
X131403243Y-96457097D01*
X131403238Y-96457092D01*
X131225577Y-96318812D01*
X131225572Y-96318808D01*
X131027580Y-96211661D01*
X131027577Y-96211659D01*
X131027574Y-96211658D01*
X131027571Y-96211657D01*
X131027569Y-96211656D01*
X130814637Y-96138556D01*
X130592569Y-96101500D01*
X130367431Y-96101500D01*
X130145362Y-96138556D01*
X129932430Y-96211656D01*
X129932419Y-96211661D01*
X129734427Y-96318808D01*
X129734422Y-96318812D01*
X129556761Y-96457092D01*
X129493548Y-96525760D01*
X129433661Y-96561750D01*
X129363823Y-96559649D01*
X129306207Y-96520124D01*
X129286138Y-96485110D01*
X129240889Y-96363796D01*
X129207214Y-96318812D01*
X129153261Y-96246739D01*
X129036204Y-96159111D01*
X129035172Y-96158726D01*
X128899203Y-96108011D01*
X128838654Y-96101500D01*
X128838638Y-96101500D01*
X127041362Y-96101500D01*
X127041345Y-96101500D01*
X126980797Y-96108011D01*
X126980795Y-96108011D01*
X126843795Y-96159111D01*
X126726739Y-96246739D01*
X126639111Y-96363795D01*
X126588011Y-96500795D01*
X126588011Y-96500797D01*
X126581500Y-96561345D01*
X126581500Y-98358654D01*
X126588011Y-98419202D01*
X126588011Y-98419204D01*
X126639111Y-98556204D01*
X126726739Y-98673261D01*
X126843796Y-98760889D01*
X126980799Y-98811989D01*
X127008050Y-98814918D01*
X127041345Y-98818499D01*
X127041362Y-98818500D01*
X128838638Y-98818500D01*
X128838654Y-98818499D01*
X128865692Y-98815591D01*
X128899201Y-98811989D01*
X129036204Y-98760889D01*
X129153261Y-98673261D01*
X129240889Y-98556204D01*
X129286138Y-98434887D01*
X129328009Y-98378956D01*
X129393474Y-98354539D01*
X129461746Y-98369391D01*
X129493545Y-98394236D01*
X129556760Y-98462906D01*
X129734424Y-98601189D01*
X129734425Y-98601189D01*
X129734427Y-98601191D01*
X129794314Y-98633600D01*
X129932426Y-98708342D01*
X130145365Y-98781444D01*
X130367431Y-98818500D01*
X130592569Y-98818500D01*
X130814635Y-98781444D01*
X131027574Y-98708342D01*
X131225576Y-98601189D01*
X131403240Y-98462906D01*
X131524594Y-98331082D01*
X131555715Y-98297276D01*
X131555715Y-98297275D01*
X131555722Y-98297268D01*
X131646193Y-98158790D01*
X131699338Y-98113437D01*
X131768569Y-98104013D01*
X131831905Y-98133515D01*
X131853804Y-98158787D01*
X131944278Y-98297268D01*
X131944283Y-98297273D01*
X131944284Y-98297276D01*
X132070968Y-98434889D01*
X132096760Y-98462906D01*
X132274424Y-98601189D01*
X132274425Y-98601189D01*
X132274427Y-98601191D01*
X132334314Y-98633600D01*
X132472426Y-98708342D01*
X132685365Y-98781444D01*
X132907431Y-98818500D01*
X133132569Y-98818500D01*
X133354635Y-98781444D01*
X133567574Y-98708342D01*
X133765576Y-98601189D01*
X133943240Y-98462906D01*
X134064594Y-98331082D01*
X134095715Y-98297276D01*
X134095715Y-98297275D01*
X134095722Y-98297268D01*
X134186193Y-98158790D01*
X134239338Y-98113437D01*
X134308569Y-98104013D01*
X134371905Y-98133515D01*
X134393804Y-98158787D01*
X134484278Y-98297268D01*
X134484283Y-98297273D01*
X134484284Y-98297276D01*
X134610968Y-98434889D01*
X134636760Y-98462906D01*
X134814424Y-98601189D01*
X134814425Y-98601189D01*
X134814427Y-98601191D01*
X134874314Y-98633600D01*
X135012426Y-98708342D01*
X135225365Y-98781444D01*
X135447431Y-98818500D01*
X135672569Y-98818500D01*
X135894635Y-98781444D01*
X136107574Y-98708342D01*
X136305576Y-98601189D01*
X136483240Y-98462906D01*
X136604594Y-98331082D01*
X136635715Y-98297276D01*
X136635715Y-98297275D01*
X136635722Y-98297268D01*
X136726193Y-98158790D01*
X136779338Y-98113437D01*
X136848569Y-98104013D01*
X136911905Y-98133515D01*
X136933804Y-98158787D01*
X137024278Y-98297268D01*
X137024283Y-98297273D01*
X137024284Y-98297276D01*
X137150968Y-98434889D01*
X137176760Y-98462906D01*
X137354424Y-98601189D01*
X137354425Y-98601189D01*
X137354427Y-98601191D01*
X137414314Y-98633600D01*
X137552426Y-98708342D01*
X137765365Y-98781444D01*
X137987431Y-98818500D01*
X138212569Y-98818500D01*
X138434635Y-98781444D01*
X138647574Y-98708342D01*
X138845576Y-98601189D01*
X139023240Y-98462906D01*
X139144594Y-98331082D01*
X139175715Y-98297276D01*
X139175715Y-98297275D01*
X139175722Y-98297268D01*
X139269749Y-98153347D01*
X139322894Y-98107994D01*
X139392125Y-98098570D01*
X139455461Y-98128072D01*
X139475130Y-98150048D01*
X139601890Y-98331078D01*
X139768917Y-98498105D01*
X139962421Y-98633600D01*
X140176507Y-98733429D01*
X140176516Y-98733433D01*
X140390000Y-98790634D01*
X140390000Y-97895501D01*
X140497685Y-97944680D01*
X140604237Y-97960000D01*
X140675763Y-97960000D01*
X140782315Y-97944680D01*
X140890000Y-97895501D01*
X140890000Y-98790633D01*
X141103483Y-98733433D01*
X141103492Y-98733429D01*
X141317578Y-98633600D01*
X141511082Y-98498105D01*
X141678105Y-98331082D01*
X141808425Y-98144968D01*
X141863002Y-98101344D01*
X141932501Y-98094151D01*
X141994855Y-98125673D01*
X142011575Y-98144968D01*
X142141894Y-98331082D01*
X142308917Y-98498105D01*
X142502421Y-98633600D01*
X142716507Y-98733429D01*
X142716516Y-98733433D01*
X142930000Y-98790634D01*
X142930000Y-97895501D01*
X143037685Y-97944680D01*
X143144237Y-97960000D01*
X143215763Y-97960000D01*
X143322315Y-97944680D01*
X143430000Y-97895501D01*
X143430000Y-98790633D01*
X143643483Y-98733433D01*
X143643492Y-98733429D01*
X143857578Y-98633600D01*
X144051082Y-98498105D01*
X144218105Y-98331082D01*
X144344868Y-98150048D01*
X144399445Y-98106423D01*
X144468944Y-98099231D01*
X144531298Y-98130753D01*
X144550251Y-98153350D01*
X144644276Y-98297265D01*
X144644284Y-98297276D01*
X144770968Y-98434889D01*
X144796760Y-98462906D01*
X144974424Y-98601189D01*
X144974425Y-98601189D01*
X144974427Y-98601191D01*
X145034314Y-98633600D01*
X145172426Y-98708342D01*
X145385365Y-98781444D01*
X145607431Y-98818500D01*
X145832569Y-98818500D01*
X146054635Y-98781444D01*
X146267574Y-98708342D01*
X146465576Y-98601189D01*
X146643240Y-98462906D01*
X146739212Y-98358654D01*
X149441500Y-98358654D01*
X149448011Y-98419202D01*
X149448011Y-98419204D01*
X149499111Y-98556204D01*
X149586739Y-98673261D01*
X149703796Y-98760889D01*
X149840799Y-98811989D01*
X149868050Y-98814918D01*
X149901345Y-98818499D01*
X149901362Y-98818500D01*
X151698638Y-98818500D01*
X151698654Y-98818499D01*
X151725692Y-98815591D01*
X151759201Y-98811989D01*
X151896204Y-98760889D01*
X152013261Y-98673261D01*
X152100889Y-98556204D01*
X152146138Y-98434887D01*
X152188009Y-98378956D01*
X152253474Y-98354539D01*
X152321746Y-98369391D01*
X152353545Y-98394236D01*
X152416760Y-98462906D01*
X152594424Y-98601189D01*
X152594425Y-98601189D01*
X152594427Y-98601191D01*
X152654314Y-98633600D01*
X152792426Y-98708342D01*
X153005365Y-98781444D01*
X153227431Y-98818500D01*
X153452569Y-98818500D01*
X153674635Y-98781444D01*
X153887574Y-98708342D01*
X154085576Y-98601189D01*
X154263240Y-98462906D01*
X154384594Y-98331082D01*
X154415715Y-98297276D01*
X154415715Y-98297275D01*
X154415722Y-98297268D01*
X154506193Y-98158790D01*
X154559338Y-98113437D01*
X154628569Y-98104013D01*
X154691905Y-98133515D01*
X154713804Y-98158787D01*
X154804278Y-98297268D01*
X154804283Y-98297273D01*
X154804284Y-98297276D01*
X154930968Y-98434889D01*
X154956760Y-98462906D01*
X155134424Y-98601189D01*
X155134425Y-98601189D01*
X155134427Y-98601191D01*
X155194314Y-98633600D01*
X155332426Y-98708342D01*
X155545365Y-98781444D01*
X155767431Y-98818500D01*
X155992569Y-98818500D01*
X156214635Y-98781444D01*
X156427574Y-98708342D01*
X156625576Y-98601189D01*
X156803240Y-98462906D01*
X156924594Y-98331082D01*
X156955715Y-98297276D01*
X156955715Y-98297275D01*
X156955722Y-98297268D01*
X157046193Y-98158790D01*
X157099338Y-98113437D01*
X157168569Y-98104013D01*
X157231905Y-98133515D01*
X157253804Y-98158787D01*
X157344278Y-98297268D01*
X157344283Y-98297273D01*
X157344284Y-98297276D01*
X157470968Y-98434889D01*
X157496760Y-98462906D01*
X157674424Y-98601189D01*
X157674425Y-98601189D01*
X157674427Y-98601191D01*
X157734314Y-98633600D01*
X157872426Y-98708342D01*
X158085365Y-98781444D01*
X158307431Y-98818500D01*
X158532569Y-98818500D01*
X158754635Y-98781444D01*
X158967574Y-98708342D01*
X159165576Y-98601189D01*
X159343240Y-98462906D01*
X159464594Y-98331082D01*
X159495715Y-98297276D01*
X159495715Y-98297275D01*
X159495722Y-98297268D01*
X159586193Y-98158790D01*
X159639338Y-98113437D01*
X159708569Y-98104013D01*
X159771905Y-98133515D01*
X159793804Y-98158787D01*
X159884278Y-98297268D01*
X159884283Y-98297273D01*
X159884284Y-98297276D01*
X160010968Y-98434889D01*
X160036760Y-98462906D01*
X160214424Y-98601189D01*
X160214425Y-98601189D01*
X160214427Y-98601191D01*
X160274314Y-98633600D01*
X160412426Y-98708342D01*
X160625365Y-98781444D01*
X160847431Y-98818500D01*
X161072569Y-98818500D01*
X161294635Y-98781444D01*
X161507574Y-98708342D01*
X161705576Y-98601189D01*
X161883240Y-98462906D01*
X162004594Y-98331082D01*
X162035715Y-98297276D01*
X162035715Y-98297275D01*
X162035722Y-98297268D01*
X162126193Y-98158790D01*
X162179338Y-98113437D01*
X162248569Y-98104013D01*
X162311905Y-98133515D01*
X162333804Y-98158787D01*
X162424278Y-98297268D01*
X162424283Y-98297273D01*
X162424284Y-98297276D01*
X162550968Y-98434889D01*
X162576760Y-98462906D01*
X162754424Y-98601189D01*
X162754425Y-98601189D01*
X162754427Y-98601191D01*
X162814314Y-98633600D01*
X162952426Y-98708342D01*
X163165365Y-98781444D01*
X163387431Y-98818500D01*
X163612569Y-98818500D01*
X163834635Y-98781444D01*
X164047574Y-98708342D01*
X164245576Y-98601189D01*
X164423240Y-98462906D01*
X164544594Y-98331082D01*
X164575715Y-98297276D01*
X164575717Y-98297273D01*
X164575722Y-98297268D01*
X164698860Y-98108791D01*
X164789296Y-97902616D01*
X164844564Y-97684368D01*
X164863156Y-97460000D01*
X164844564Y-97235632D01*
X164789296Y-97017384D01*
X164698860Y-96811209D01*
X164682706Y-96786484D01*
X164575723Y-96622734D01*
X164575715Y-96622723D01*
X164423243Y-96457097D01*
X164423238Y-96457092D01*
X164245577Y-96318812D01*
X164245572Y-96318808D01*
X164047580Y-96211661D01*
X164047577Y-96211659D01*
X164047574Y-96211658D01*
X164047571Y-96211657D01*
X164047569Y-96211656D01*
X163834637Y-96138556D01*
X163612569Y-96101500D01*
X163387431Y-96101500D01*
X163165362Y-96138556D01*
X162952430Y-96211656D01*
X162952419Y-96211661D01*
X162754427Y-96318808D01*
X162754422Y-96318812D01*
X162576761Y-96457092D01*
X162576756Y-96457097D01*
X162424284Y-96622723D01*
X162424276Y-96622734D01*
X162333808Y-96761206D01*
X162280662Y-96806562D01*
X162211431Y-96815986D01*
X162148095Y-96786484D01*
X162126192Y-96761206D01*
X162035723Y-96622734D01*
X162035715Y-96622723D01*
X161883243Y-96457097D01*
X161883238Y-96457092D01*
X161705577Y-96318812D01*
X161705572Y-96318808D01*
X161507580Y-96211661D01*
X161507577Y-96211659D01*
X161507574Y-96211658D01*
X161507571Y-96211657D01*
X161507569Y-96211656D01*
X161294637Y-96138556D01*
X161072569Y-96101500D01*
X160847431Y-96101500D01*
X160625362Y-96138556D01*
X160412430Y-96211656D01*
X160412419Y-96211661D01*
X160214427Y-96318808D01*
X160214422Y-96318812D01*
X160036761Y-96457092D01*
X160036756Y-96457097D01*
X159884284Y-96622723D01*
X159884276Y-96622734D01*
X159793808Y-96761206D01*
X159740662Y-96806562D01*
X159671431Y-96815986D01*
X159608095Y-96786484D01*
X159586192Y-96761206D01*
X159495723Y-96622734D01*
X159495715Y-96622723D01*
X159343243Y-96457097D01*
X159343238Y-96457092D01*
X159165577Y-96318812D01*
X159165572Y-96318808D01*
X158967580Y-96211661D01*
X158967577Y-96211659D01*
X158967574Y-96211658D01*
X158967571Y-96211657D01*
X158967569Y-96211656D01*
X158754637Y-96138556D01*
X158532569Y-96101500D01*
X158307431Y-96101500D01*
X158085362Y-96138556D01*
X157872430Y-96211656D01*
X157872419Y-96211661D01*
X157674427Y-96318808D01*
X157674422Y-96318812D01*
X157496761Y-96457092D01*
X157496756Y-96457097D01*
X157344284Y-96622723D01*
X157344276Y-96622734D01*
X157253808Y-96761206D01*
X157200662Y-96806562D01*
X157131431Y-96815986D01*
X157068095Y-96786484D01*
X157046192Y-96761206D01*
X156955723Y-96622734D01*
X156955715Y-96622723D01*
X156803243Y-96457097D01*
X156803238Y-96457092D01*
X156625577Y-96318812D01*
X156625572Y-96318808D01*
X156427580Y-96211661D01*
X156427577Y-96211659D01*
X156427574Y-96211658D01*
X156427571Y-96211657D01*
X156427569Y-96211656D01*
X156214637Y-96138556D01*
X155992569Y-96101500D01*
X155767431Y-96101500D01*
X155545362Y-96138556D01*
X155332430Y-96211656D01*
X155332419Y-96211661D01*
X155134427Y-96318808D01*
X155134422Y-96318812D01*
X154956761Y-96457092D01*
X154956756Y-96457097D01*
X154804284Y-96622723D01*
X154804276Y-96622734D01*
X154713808Y-96761206D01*
X154660662Y-96806562D01*
X154591431Y-96815986D01*
X154528095Y-96786484D01*
X154506192Y-96761206D01*
X154415723Y-96622734D01*
X154415715Y-96622723D01*
X154263243Y-96457097D01*
X154263238Y-96457092D01*
X154085577Y-96318812D01*
X154085572Y-96318808D01*
X153887580Y-96211661D01*
X153887577Y-96211659D01*
X153887574Y-96211658D01*
X153887571Y-96211657D01*
X153887569Y-96211656D01*
X153674637Y-96138556D01*
X153452569Y-96101500D01*
X153227431Y-96101500D01*
X153005362Y-96138556D01*
X152792430Y-96211656D01*
X152792419Y-96211661D01*
X152594427Y-96318808D01*
X152594422Y-96318812D01*
X152416761Y-96457092D01*
X152353548Y-96525760D01*
X152293661Y-96561750D01*
X152223823Y-96559649D01*
X152166207Y-96520124D01*
X152146138Y-96485110D01*
X152100889Y-96363796D01*
X152067214Y-96318812D01*
X152013261Y-96246739D01*
X151896204Y-96159111D01*
X151895172Y-96158726D01*
X151759203Y-96108011D01*
X151698654Y-96101500D01*
X151698638Y-96101500D01*
X149901362Y-96101500D01*
X149901345Y-96101500D01*
X149840797Y-96108011D01*
X149840795Y-96108011D01*
X149703795Y-96159111D01*
X149586739Y-96246739D01*
X149499111Y-96363795D01*
X149448011Y-96500795D01*
X149448011Y-96500797D01*
X149441500Y-96561345D01*
X149441500Y-98358654D01*
X146739212Y-98358654D01*
X146764594Y-98331082D01*
X146795715Y-98297276D01*
X146795717Y-98297273D01*
X146795722Y-98297268D01*
X146918860Y-98108791D01*
X147009296Y-97902616D01*
X147064564Y-97684368D01*
X147083156Y-97460000D01*
X147064564Y-97235632D01*
X147009296Y-97017384D01*
X146918860Y-96811209D01*
X146902706Y-96786484D01*
X146795723Y-96622734D01*
X146795715Y-96622723D01*
X146643243Y-96457097D01*
X146643238Y-96457092D01*
X146465577Y-96318812D01*
X146465572Y-96318808D01*
X146267580Y-96211661D01*
X146267577Y-96211659D01*
X146267574Y-96211658D01*
X146267571Y-96211657D01*
X146267569Y-96211656D01*
X146054637Y-96138556D01*
X145832569Y-96101500D01*
X145607431Y-96101500D01*
X145385362Y-96138556D01*
X145172430Y-96211656D01*
X145172419Y-96211661D01*
X144974427Y-96318808D01*
X144974422Y-96318812D01*
X144796761Y-96457092D01*
X144796756Y-96457097D01*
X144644284Y-96622723D01*
X144644276Y-96622734D01*
X144550251Y-96766650D01*
X144497105Y-96812007D01*
X144427873Y-96821430D01*
X144364538Y-96791928D01*
X144344868Y-96769951D01*
X144218113Y-96588926D01*
X144218108Y-96588920D01*
X144051082Y-96421894D01*
X143857578Y-96286399D01*
X143643492Y-96186570D01*
X143643486Y-96186567D01*
X143430000Y-96129364D01*
X143430000Y-97024498D01*
X143322315Y-96975320D01*
X143215763Y-96960000D01*
X143144237Y-96960000D01*
X143037685Y-96975320D01*
X142930000Y-97024498D01*
X142930000Y-96129364D01*
X142929999Y-96129364D01*
X142716513Y-96186567D01*
X142716507Y-96186570D01*
X142502422Y-96286399D01*
X142502420Y-96286400D01*
X142308926Y-96421886D01*
X142308920Y-96421891D01*
X142141891Y-96588920D01*
X142141890Y-96588922D01*
X142011575Y-96775031D01*
X141956998Y-96818655D01*
X141887499Y-96825848D01*
X141825145Y-96794326D01*
X141808425Y-96775031D01*
X141678109Y-96588922D01*
X141678108Y-96588920D01*
X141511082Y-96421894D01*
X141317578Y-96286399D01*
X141103492Y-96186570D01*
X141103486Y-96186567D01*
X140890000Y-96129364D01*
X140890000Y-97024498D01*
X140782315Y-96975320D01*
X140675763Y-96960000D01*
X140604237Y-96960000D01*
X140497685Y-96975320D01*
X140390000Y-97024498D01*
X140390000Y-96129364D01*
X140389999Y-96129364D01*
X140176513Y-96186567D01*
X140176507Y-96186570D01*
X139962422Y-96286399D01*
X139962420Y-96286400D01*
X139768926Y-96421886D01*
X139768920Y-96421891D01*
X139601891Y-96588920D01*
X139601890Y-96588922D01*
X139475131Y-96769952D01*
X139420554Y-96813577D01*
X139351055Y-96820769D01*
X139288701Y-96789247D01*
X139269752Y-96766656D01*
X139175722Y-96622732D01*
X139175715Y-96622725D01*
X139175715Y-96622723D01*
X139041271Y-96476680D01*
X139010348Y-96414026D01*
X139008500Y-96392697D01*
X139008500Y-94922500D01*
X139028185Y-94855461D01*
X139080989Y-94809706D01*
X139132500Y-94798500D01*
X144258743Y-94798500D01*
X144278142Y-94800027D01*
X144292190Y-94802252D01*
X144362160Y-94798584D01*
X144365404Y-94798500D01*
X145892390Y-94798500D01*
X156172390Y-94798500D01*
X156898743Y-94798500D01*
X156918142Y-94800027D01*
X156932190Y-94802252D01*
X157002160Y-94798584D01*
X157005404Y-94798500D01*
X157027609Y-94798500D01*
X157027610Y-94798500D01*
X157049710Y-94796177D01*
X157052911Y-94795925D01*
X157122903Y-94792257D01*
X157136648Y-94788573D01*
X157155769Y-94785029D01*
X157169928Y-94783542D01*
X157236618Y-94761872D01*
X157239669Y-94760969D01*
X157307370Y-94742829D01*
X157320040Y-94736372D01*
X157338017Y-94728925D01*
X157351556Y-94724527D01*
X157412270Y-94689472D01*
X157415051Y-94687961D01*
X157477530Y-94656129D01*
X157488599Y-94647165D01*
X157504618Y-94636156D01*
X157516944Y-94629040D01*
X157569058Y-94582115D01*
X157571449Y-94580074D01*
X157588741Y-94566072D01*
X157604465Y-94550346D01*
X157606795Y-94548137D01*
X157658866Y-94501253D01*
X157667231Y-94489738D01*
X157679860Y-94474951D01*
X160314951Y-91839860D01*
X160329738Y-91827231D01*
X160341253Y-91818866D01*
X160388144Y-91766786D01*
X160390346Y-91764465D01*
X160406072Y-91748741D01*
X160420074Y-91731449D01*
X160422115Y-91729058D01*
X160469040Y-91676944D01*
X160476156Y-91664618D01*
X160487165Y-91648599D01*
X160496129Y-91637530D01*
X160527961Y-91575051D01*
X160529472Y-91572270D01*
X160564527Y-91511556D01*
X160568925Y-91498017D01*
X160576373Y-91480040D01*
X160582827Y-91467373D01*
X160582829Y-91467370D01*
X160600969Y-91399668D01*
X160601884Y-91396582D01*
X160623542Y-91329928D01*
X160625029Y-91315770D01*
X160628572Y-91296653D01*
X160632257Y-91282904D01*
X160635924Y-91212918D01*
X160636178Y-91209701D01*
X160638499Y-91187617D01*
X160638500Y-91187609D01*
X160638500Y-91165405D01*
X160638585Y-91162159D01*
X160642252Y-91092191D01*
X160640026Y-91078141D01*
X160638500Y-91058744D01*
X160638500Y-90432500D01*
X160658185Y-90365461D01*
X160710989Y-90319706D01*
X160762500Y-90308500D01*
X162176640Y-90308500D01*
X162243679Y-90328185D01*
X162264321Y-90344819D01*
X162385700Y-90466198D01*
X162573251Y-90597523D01*
X162652086Y-90634284D01*
X162780750Y-90694281D01*
X162780752Y-90694281D01*
X162780757Y-90694284D01*
X163001913Y-90753543D01*
X163164832Y-90767796D01*
X163229998Y-90773498D01*
X163230000Y-90773498D01*
X163230002Y-90773498D01*
X163287021Y-90768509D01*
X163458087Y-90753543D01*
X163679243Y-90694284D01*
X163886749Y-90597523D01*
X164074300Y-90466198D01*
X164236198Y-90304300D01*
X164367523Y-90116749D01*
X164464284Y-89909243D01*
X164523543Y-89688087D01*
X164543498Y-89460000D01*
X164543335Y-89458142D01*
X164537796Y-89394832D01*
X164523543Y-89231913D01*
X164464284Y-89010757D01*
X164436302Y-88950750D01*
X164388285Y-88847776D01*
X164367523Y-88803251D01*
X164236198Y-88615700D01*
X164074300Y-88453802D01*
X163886749Y-88322477D01*
X163886745Y-88322475D01*
X163679249Y-88225718D01*
X163679238Y-88225714D01*
X163458089Y-88166457D01*
X163458081Y-88166456D01*
X163230002Y-88146502D01*
X163229998Y-88146502D01*
X163001918Y-88166456D01*
X163001910Y-88166457D01*
X162780761Y-88225714D01*
X162780750Y-88225718D01*
X162573254Y-88322475D01*
X162573252Y-88322476D01*
X162573251Y-88322477D01*
X162385700Y-88453802D01*
X162385698Y-88453803D01*
X162385695Y-88453806D01*
X162384321Y-88455181D01*
X162383563Y-88455594D01*
X162381550Y-88457284D01*
X162381210Y-88456879D01*
X162322998Y-88488666D01*
X162296640Y-88491500D01*
X160723360Y-88491500D01*
X160656321Y-88471815D01*
X160635679Y-88455181D01*
X160574304Y-88393806D01*
X160574300Y-88393802D01*
X160386749Y-88262477D01*
X160386745Y-88262475D01*
X160179249Y-88165718D01*
X160179238Y-88165714D01*
X159958089Y-88106457D01*
X159958081Y-88106456D01*
X159730002Y-88086502D01*
X159729998Y-88086502D01*
X159501918Y-88106456D01*
X159501910Y-88106457D01*
X159280761Y-88165714D01*
X159280750Y-88165718D01*
X159073254Y-88262475D01*
X159073252Y-88262476D01*
X159044688Y-88282477D01*
X158885700Y-88393802D01*
X158885698Y-88393803D01*
X158885695Y-88393806D01*
X158723806Y-88555695D01*
X158723803Y-88555698D01*
X158723802Y-88555700D01*
X158709798Y-88575700D01*
X158592476Y-88743251D01*
X158572382Y-88786345D01*
X158526209Y-88838784D01*
X158459016Y-88857936D01*
X158392135Y-88837720D01*
X158347618Y-88786345D01*
X158327523Y-88743251D01*
X158196198Y-88555700D01*
X158034300Y-88393802D01*
X157875312Y-88282477D01*
X157846748Y-88262476D01*
X157809016Y-88244882D01*
X157756577Y-88198710D01*
X157737425Y-88131516D01*
X157757641Y-88064635D01*
X157810806Y-88019300D01*
X157861421Y-88008500D01*
X158690419Y-88008500D01*
X158698516Y-88009030D01*
X158723892Y-88012371D01*
X158734364Y-88013750D01*
X158734365Y-88013750D01*
X158734366Y-88013750D01*
X158770211Y-88009031D01*
X158772326Y-88008752D01*
X158772339Y-88008751D01*
X158774246Y-88008500D01*
X158774250Y-88008500D01*
X158855367Y-87997820D01*
X158873822Y-87995391D01*
X158893216Y-87992838D01*
X159041241Y-87931524D01*
X159136437Y-87858477D01*
X159136438Y-87858475D01*
X159144529Y-87852267D01*
X159144531Y-87852264D01*
X159168352Y-87833987D01*
X159190375Y-87805286D01*
X159195705Y-87799208D01*
X161906014Y-85088898D01*
X161967333Y-85055416D01*
X162037025Y-85060400D01*
X162092958Y-85102272D01*
X162096886Y-85108227D01*
X162150973Y-85185471D01*
X162150973Y-85185472D01*
X162832046Y-84504400D01*
X162844835Y-84585148D01*
X162902359Y-84698045D01*
X162991955Y-84787641D01*
X163104852Y-84845165D01*
X163185599Y-84857953D01*
X162504526Y-85539025D01*
X162504526Y-85539026D01*
X162577512Y-85590131D01*
X162577516Y-85590133D01*
X162783673Y-85686265D01*
X162783682Y-85686269D01*
X163003389Y-85745139D01*
X163003400Y-85745141D01*
X163229998Y-85764966D01*
X163230002Y-85764966D01*
X163456599Y-85745141D01*
X163456610Y-85745139D01*
X163676317Y-85686269D01*
X163676331Y-85686264D01*
X163882478Y-85590136D01*
X163955472Y-85539025D01*
X163274401Y-84857953D01*
X163355148Y-84845165D01*
X163468045Y-84787641D01*
X163557641Y-84698045D01*
X163615165Y-84585148D01*
X163627953Y-84504400D01*
X164309025Y-85185472D01*
X164360136Y-85112478D01*
X164456264Y-84906331D01*
X164456269Y-84906317D01*
X164515139Y-84686610D01*
X164515141Y-84686599D01*
X164534966Y-84460002D01*
X164534966Y-84459997D01*
X164515141Y-84233400D01*
X164515139Y-84233389D01*
X164456269Y-84013682D01*
X164456265Y-84013673D01*
X164360133Y-83807516D01*
X164360131Y-83807512D01*
X164309026Y-83734526D01*
X164309025Y-83734526D01*
X163627953Y-84415598D01*
X163615165Y-84334852D01*
X163557641Y-84221955D01*
X163468045Y-84132359D01*
X163355148Y-84074835D01*
X163274400Y-84062046D01*
X163955472Y-83380974D01*
X163955471Y-83380973D01*
X163878048Y-83326761D01*
X163879070Y-83325300D01*
X163836362Y-83280503D01*
X163823144Y-83211895D01*
X163849117Y-83147033D01*
X163858890Y-83136021D01*
X164739202Y-82255709D01*
X164745293Y-82250367D01*
X164773987Y-82228351D01*
X164793318Y-82203156D01*
X164793324Y-82203151D01*
X164798476Y-82196436D01*
X164798478Y-82196435D01*
X164871524Y-82101240D01*
X164932838Y-81953215D01*
X164935391Y-81933820D01*
X164948500Y-81834249D01*
X164948500Y-81834243D01*
X164953750Y-81794364D01*
X164949030Y-81758515D01*
X164948500Y-81750418D01*
X164948500Y-54896227D01*
X164949031Y-54888125D01*
X164950066Y-54880268D01*
X164953750Y-54852282D01*
X164948766Y-54814430D01*
X164948765Y-54814411D01*
X164946385Y-54796334D01*
X164932838Y-54693432D01*
X164926854Y-54678984D01*
X164923981Y-54672049D01*
X164871525Y-54545408D01*
X164871523Y-54545404D01*
X164798477Y-54450211D01*
X164775295Y-54420000D01*
X164773987Y-54418295D01*
X164773985Y-54418294D01*
X164773985Y-54418293D01*
X164760925Y-54408272D01*
X164745289Y-54396274D01*
X164739199Y-54390933D01*
X161100817Y-50752550D01*
X161067332Y-50691227D01*
X161072316Y-50621535D01*
X161114188Y-50565602D01*
X161168086Y-50542561D01*
X161294635Y-50521444D01*
X161507574Y-50448342D01*
X161705576Y-50341189D01*
X161883240Y-50202906D01*
X162004594Y-50071082D01*
X162035715Y-50037276D01*
X162035715Y-50037275D01*
X162035722Y-50037268D01*
X162126193Y-49898790D01*
X162179338Y-49853437D01*
X162248569Y-49844013D01*
X162311905Y-49873515D01*
X162333804Y-49898787D01*
X162424278Y-50037268D01*
X162424283Y-50037273D01*
X162424284Y-50037276D01*
X162576756Y-50202902D01*
X162576761Y-50202907D01*
X162621983Y-50238105D01*
X162754424Y-50341189D01*
X162754425Y-50341189D01*
X162754427Y-50341191D01*
X162851981Y-50393984D01*
X162952426Y-50448342D01*
X163165365Y-50521444D01*
X163387431Y-50558500D01*
X163612569Y-50558500D01*
X163834635Y-50521444D01*
X164047574Y-50448342D01*
X164245576Y-50341189D01*
X164423240Y-50202906D01*
X164544594Y-50071082D01*
X164575715Y-50037276D01*
X164575717Y-50037273D01*
X164575722Y-50037268D01*
X164698860Y-49848791D01*
X164789296Y-49642616D01*
X164844564Y-49424368D01*
X164863156Y-49200000D01*
X164862883Y-49196706D01*
X164844565Y-48975640D01*
X164844563Y-48975628D01*
X164789296Y-48757385D01*
X164712387Y-48582049D01*
X164698860Y-48551209D01*
X164682706Y-48526484D01*
X164614770Y-48422500D01*
X164575722Y-48362732D01*
X164575719Y-48362729D01*
X164575715Y-48362723D01*
X164423243Y-48197097D01*
X164423238Y-48197092D01*
X164245577Y-48058812D01*
X164245572Y-48058808D01*
X164047580Y-47951661D01*
X164047577Y-47951659D01*
X164047574Y-47951658D01*
X164047571Y-47951657D01*
X164047569Y-47951656D01*
X163834637Y-47878556D01*
X163612569Y-47841500D01*
X163387431Y-47841500D01*
X163165362Y-47878556D01*
X162952430Y-47951656D01*
X162952419Y-47951661D01*
X162754427Y-48058808D01*
X162754422Y-48058812D01*
X162576761Y-48197092D01*
X162576756Y-48197097D01*
X162424284Y-48362723D01*
X162424276Y-48362734D01*
X162333808Y-48501206D01*
X162280662Y-48546562D01*
X162211431Y-48555986D01*
X162148095Y-48526484D01*
X162126192Y-48501206D01*
X162068286Y-48412576D01*
X162035722Y-48362732D01*
X162035719Y-48362729D01*
X162035715Y-48362723D01*
X161883243Y-48197097D01*
X161883238Y-48197092D01*
X161705577Y-48058812D01*
X161705572Y-48058808D01*
X161507580Y-47951661D01*
X161507577Y-47951659D01*
X161507574Y-47951658D01*
X161507571Y-47951657D01*
X161507569Y-47951656D01*
X161294637Y-47878556D01*
X161072569Y-47841500D01*
X160847431Y-47841500D01*
X160625362Y-47878556D01*
X160412430Y-47951656D01*
X160412419Y-47951661D01*
X160263033Y-48032504D01*
X160194705Y-48047099D01*
X160129332Y-48022436D01*
X160128530Y-48021825D01*
X160105300Y-48004000D01*
X160099203Y-47998654D01*
X159411354Y-47310805D01*
X159406001Y-47304702D01*
X159395337Y-47290805D01*
X159383987Y-47276013D01*
X159383985Y-47276011D01*
X159383984Y-47276010D01*
X159352075Y-47251526D01*
X159352074Y-47251525D01*
X159352072Y-47251523D01*
X159306728Y-47216729D01*
X159256877Y-47178476D01*
X159256873Y-47178474D01*
X159108850Y-47117161D01*
X159089457Y-47114608D01*
X158987704Y-47101212D01*
X158987678Y-47101210D01*
X158950001Y-47096250D01*
X158949999Y-47096250D01*
X158939527Y-47097628D01*
X158914151Y-47100969D01*
X158906054Y-47101500D01*
X154873945Y-47101500D01*
X154865846Y-47100969D01*
X154830000Y-47096250D01*
X154829996Y-47096250D01*
X154793307Y-47101080D01*
X154793292Y-47101082D01*
X154790117Y-47101500D01*
X154790115Y-47101500D01*
X154690550Y-47114608D01*
X154671150Y-47117162D01*
X154671146Y-47117163D01*
X154584437Y-47153079D01*
X154523123Y-47178476D01*
X154453988Y-47231526D01*
X154427928Y-47251523D01*
X154427925Y-47251525D01*
X154422074Y-47256015D01*
X154396010Y-47276015D01*
X154373996Y-47304703D01*
X154368645Y-47310805D01*
X153823360Y-47856089D01*
X153762037Y-47889574D01*
X153695420Y-47885690D01*
X153674638Y-47878556D01*
X153452569Y-47841500D01*
X153227431Y-47841500D01*
X153005362Y-47878556D01*
X152792430Y-47951656D01*
X152792419Y-47951661D01*
X152594427Y-48058808D01*
X152594422Y-48058812D01*
X152428513Y-48187946D01*
X152363519Y-48213589D01*
X152294979Y-48200023D01*
X152264669Y-48177774D01*
X151377700Y-47290805D01*
X151372347Y-47284702D01*
X151365681Y-47276015D01*
X151350333Y-47256013D01*
X151350331Y-47256011D01*
X151350330Y-47256010D01*
X151318421Y-47231526D01*
X151318420Y-47231525D01*
X151318418Y-47231523D01*
X151273074Y-47196729D01*
X151223223Y-47158476D01*
X151223219Y-47158474D01*
X151075196Y-47097161D01*
X151055803Y-47094608D01*
X150954050Y-47081212D01*
X150954024Y-47081210D01*
X150916347Y-47076250D01*
X150916345Y-47076250D01*
X150905873Y-47077628D01*
X150880497Y-47080969D01*
X150872400Y-47081500D01*
X125853953Y-47081500D01*
X125845854Y-47080969D01*
X125823873Y-47078075D01*
X125810001Y-47076249D01*
X125809999Y-47076249D01*
X125651150Y-47097161D01*
X125651145Y-47097163D01*
X125503128Y-47158473D01*
X125503123Y-47158476D01*
X125409465Y-47230343D01*
X125407929Y-47231522D01*
X125407925Y-47231525D01*
X125407924Y-47231526D01*
X125376010Y-47256015D01*
X125353996Y-47284703D01*
X125348645Y-47290805D01*
X124770801Y-47868649D01*
X124764698Y-47874000D01*
X124736013Y-47896012D01*
X124711521Y-47927929D01*
X124678550Y-47970899D01*
X124622122Y-48012101D01*
X124552376Y-48016256D01*
X124521158Y-48004467D01*
X124478397Y-47981327D01*
X124423575Y-47951658D01*
X124423569Y-47951656D01*
X124210637Y-47878556D01*
X123988569Y-47841500D01*
X123763431Y-47841500D01*
X123541362Y-47878556D01*
X123328430Y-47951656D01*
X123328419Y-47951661D01*
X123130427Y-48058808D01*
X123130422Y-48058812D01*
X122952761Y-48197092D01*
X122952756Y-48197097D01*
X122800284Y-48362723D01*
X122800276Y-48362734D01*
X122709808Y-48501206D01*
X122656662Y-48546562D01*
X122587431Y-48555986D01*
X122524095Y-48526484D01*
X122502192Y-48501206D01*
X122444286Y-48412576D01*
X122411722Y-48362732D01*
X122411719Y-48362729D01*
X122411715Y-48362723D01*
X122259243Y-48197097D01*
X122259238Y-48197092D01*
X122081577Y-48058812D01*
X122081572Y-48058808D01*
X121883580Y-47951661D01*
X121883577Y-47951659D01*
X121883574Y-47951658D01*
X121883571Y-47951657D01*
X121883569Y-47951656D01*
X121670637Y-47878556D01*
X121448569Y-47841500D01*
X121223431Y-47841500D01*
X121001362Y-47878556D01*
X120788430Y-47951656D01*
X120788419Y-47951661D01*
X120590427Y-48058808D01*
X120590422Y-48058812D01*
X120412761Y-48197092D01*
X120349548Y-48265760D01*
X120289661Y-48301750D01*
X120219823Y-48299649D01*
X120162207Y-48260124D01*
X120142138Y-48225110D01*
X120096889Y-48103796D01*
X120063214Y-48058812D01*
X120009261Y-47986739D01*
X119892204Y-47899111D01*
X119866635Y-47889574D01*
X119755203Y-47848011D01*
X119694654Y-47841500D01*
X119694638Y-47841500D01*
X117897362Y-47841500D01*
X117897345Y-47841500D01*
X117836797Y-47848011D01*
X117836795Y-47848011D01*
X117699795Y-47899111D01*
X117582739Y-47986739D01*
X117495111Y-48103795D01*
X117444011Y-48240795D01*
X117444011Y-48240797D01*
X117437500Y-48301345D01*
X117437500Y-50098654D01*
X117444011Y-50159202D01*
X117444011Y-50159204D01*
X117495111Y-50296204D01*
X117582739Y-50413261D01*
X117699796Y-50500889D01*
X117754906Y-50521444D01*
X117835490Y-50551501D01*
X117836799Y-50551989D01*
X117864050Y-50554918D01*
X117897345Y-50558499D01*
X117897362Y-50558500D01*
X119694638Y-50558500D01*
X119694654Y-50558499D01*
X119721692Y-50555591D01*
X119755201Y-50551989D01*
X119756510Y-50551501D01*
X119780481Y-50542560D01*
X119892204Y-50500889D01*
X120009261Y-50413261D01*
X120096889Y-50296204D01*
X120142138Y-50174887D01*
X120184009Y-50118956D01*
X120249474Y-50094539D01*
X120317746Y-50109391D01*
X120349545Y-50134236D01*
X120412760Y-50202906D01*
X120590424Y-50341189D01*
X120590425Y-50341189D01*
X120590427Y-50341191D01*
X120687981Y-50393984D01*
X120788426Y-50448342D01*
X121001365Y-50521444D01*
X121223431Y-50558500D01*
X121448569Y-50558500D01*
X121670635Y-50521444D01*
X121883574Y-50448342D01*
X122081576Y-50341189D01*
X122259240Y-50202906D01*
X122380594Y-50071082D01*
X122411715Y-50037276D01*
X122411715Y-50037275D01*
X122411722Y-50037268D01*
X122502193Y-49898790D01*
X122555338Y-49853437D01*
X122624569Y-49844013D01*
X122687905Y-49873515D01*
X122709804Y-49898787D01*
X122800278Y-50037268D01*
X122800283Y-50037273D01*
X122800284Y-50037276D01*
X122952756Y-50202902D01*
X122952761Y-50202907D01*
X122997983Y-50238105D01*
X123130424Y-50341189D01*
X123130425Y-50341189D01*
X123130427Y-50341191D01*
X123227981Y-50393984D01*
X123328426Y-50448342D01*
X123541365Y-50521444D01*
X123763431Y-50558500D01*
X123988569Y-50558500D01*
X124210635Y-50521444D01*
X124397238Y-50457382D01*
X124467035Y-50454233D01*
X124527457Y-50489319D01*
X124559317Y-50551501D01*
X124561500Y-50574664D01*
X124561500Y-51956054D01*
X124560969Y-51964156D01*
X124556250Y-51999998D01*
X124561021Y-52036248D01*
X124561023Y-52036263D01*
X124566655Y-52079039D01*
X124577161Y-52158849D01*
X124577163Y-52158854D01*
X124638473Y-52306871D01*
X124638476Y-52306877D01*
X124668645Y-52346193D01*
X124711523Y-52402072D01*
X124711525Y-52402074D01*
X124711526Y-52402075D01*
X124736012Y-52433986D01*
X124764698Y-52455998D01*
X124770794Y-52461343D01*
X125977466Y-53668015D01*
X126945181Y-54635730D01*
X126978666Y-54697053D01*
X126981500Y-54723411D01*
X126981500Y-56260781D01*
X126961815Y-56327820D01*
X126916263Y-56369973D01*
X126910494Y-56373077D01*
X126910486Y-56373082D01*
X126737600Y-56510954D01*
X126592107Y-56677483D01*
X126478686Y-56867319D01*
X126438745Y-56973741D01*
X126396759Y-57029589D01*
X126331245Y-57053872D01*
X126263003Y-57038880D01*
X126213698Y-56989374D01*
X126206560Y-56973744D01*
X126204816Y-56969100D01*
X126204814Y-56969091D01*
X126108867Y-56769856D01*
X126041754Y-56677483D01*
X125978892Y-56590960D01*
X125978886Y-56590952D01*
X125819054Y-56438138D01*
X125819053Y-56438137D01*
X125720501Y-56373083D01*
X125634504Y-56316316D01*
X125540511Y-56276142D01*
X125431162Y-56229404D01*
X125431155Y-56229402D01*
X125431151Y-56229401D01*
X125215572Y-56180197D01*
X124994664Y-56170275D01*
X124775527Y-56199960D01*
X124775522Y-56199961D01*
X124565215Y-56268294D01*
X124370485Y-56373083D01*
X124197600Y-56510954D01*
X124052107Y-56677483D01*
X123938686Y-56867319D01*
X123898745Y-56973741D01*
X123856759Y-57029589D01*
X123791245Y-57053872D01*
X123723003Y-57038880D01*
X123673698Y-56989374D01*
X123666560Y-56973744D01*
X123664816Y-56969100D01*
X123664814Y-56969091D01*
X123568867Y-56769856D01*
X123501754Y-56677483D01*
X123438892Y-56590960D01*
X123438886Y-56590952D01*
X123279054Y-56438138D01*
X123279053Y-56438137D01*
X123180501Y-56373083D01*
X123094504Y-56316316D01*
X123000511Y-56276142D01*
X122891162Y-56229404D01*
X122891155Y-56229402D01*
X122891151Y-56229401D01*
X122675572Y-56180197D01*
X122454664Y-56170275D01*
X122235527Y-56199960D01*
X122235522Y-56199961D01*
X122025215Y-56268294D01*
X121830485Y-56373083D01*
X121657600Y-56510954D01*
X121512107Y-56677483D01*
X121398686Y-56867319D01*
X121358745Y-56973741D01*
X121316759Y-57029589D01*
X121251245Y-57053872D01*
X121183003Y-57038880D01*
X121133698Y-56989374D01*
X121126560Y-56973744D01*
X121124816Y-56969100D01*
X121124814Y-56969091D01*
X121028867Y-56769856D01*
X120961754Y-56677483D01*
X120898892Y-56590960D01*
X120898886Y-56590952D01*
X120739054Y-56438138D01*
X120739053Y-56438137D01*
X120640501Y-56373083D01*
X120554504Y-56316316D01*
X120460511Y-56276142D01*
X120351162Y-56229404D01*
X120351155Y-56229402D01*
X120351151Y-56229401D01*
X120135572Y-56180197D01*
X119914664Y-56170275D01*
X119695527Y-56199960D01*
X119695522Y-56199961D01*
X119485215Y-56268294D01*
X119290485Y-56373083D01*
X119117600Y-56510954D01*
X118972107Y-56677483D01*
X118858686Y-56867319D01*
X118818745Y-56973741D01*
X118776759Y-57029589D01*
X118711245Y-57053872D01*
X118643003Y-57038880D01*
X118593698Y-56989374D01*
X118586560Y-56973744D01*
X118584816Y-56969100D01*
X118584814Y-56969091D01*
X118488867Y-56769856D01*
X118421754Y-56677483D01*
X118358892Y-56590960D01*
X118358886Y-56590952D01*
X118199054Y-56438138D01*
X118199053Y-56438137D01*
X118100501Y-56373083D01*
X118014504Y-56316316D01*
X117920511Y-56276142D01*
X117811162Y-56229404D01*
X117811155Y-56229402D01*
X117811151Y-56229401D01*
X117595572Y-56180197D01*
X117374664Y-56170275D01*
X117155527Y-56199960D01*
X117155522Y-56199961D01*
X116945215Y-56268294D01*
X116750485Y-56373083D01*
X116577600Y-56510954D01*
X116432107Y-56677483D01*
X116318686Y-56867319D01*
X116278745Y-56973741D01*
X116236759Y-57029589D01*
X116171245Y-57053872D01*
X116103003Y-57038880D01*
X116053698Y-56989374D01*
X116046560Y-56973744D01*
X116044816Y-56969100D01*
X116044814Y-56969091D01*
X115948867Y-56769856D01*
X115881754Y-56677483D01*
X115818892Y-56590960D01*
X115818886Y-56590952D01*
X115659054Y-56438138D01*
X115659053Y-56438137D01*
X115560501Y-56373083D01*
X115474504Y-56316316D01*
X115380511Y-56276142D01*
X115271162Y-56229404D01*
X115271155Y-56229402D01*
X115271151Y-56229401D01*
X115055572Y-56180197D01*
X114834664Y-56170275D01*
X114615527Y-56199960D01*
X114615522Y-56199961D01*
X114405215Y-56268294D01*
X114210485Y-56373083D01*
X114037600Y-56510954D01*
X113892107Y-56677483D01*
X113778686Y-56867319D01*
X113738745Y-56973741D01*
X113696759Y-57029589D01*
X113631245Y-57053872D01*
X113563003Y-57038880D01*
X113513698Y-56989374D01*
X113506560Y-56973744D01*
X113504816Y-56969100D01*
X113504814Y-56969091D01*
X113408867Y-56769856D01*
X113282966Y-56596568D01*
X113282181Y-56595487D01*
X113258702Y-56529680D01*
X113258500Y-56522602D01*
X113258500Y-52061256D01*
X113260027Y-52041856D01*
X113260913Y-52036263D01*
X113262252Y-52027810D01*
X113258756Y-51961110D01*
X113258585Y-51957839D01*
X113258500Y-51954594D01*
X113258500Y-51932395D01*
X113258500Y-51932390D01*
X113256177Y-51910294D01*
X113255924Y-51907084D01*
X113252257Y-51837097D01*
X113248576Y-51823360D01*
X113245029Y-51804222D01*
X113244757Y-51801642D01*
X113243542Y-51790072D01*
X113221884Y-51723417D01*
X113220971Y-51720338D01*
X113202830Y-51652630D01*
X113196368Y-51639949D01*
X113188923Y-51621976D01*
X113184527Y-51608444D01*
X113149493Y-51547763D01*
X113147948Y-51544917D01*
X113116130Y-51482471D01*
X113107169Y-51471405D01*
X113096152Y-51455374D01*
X113089041Y-51443058D01*
X113089040Y-51443056D01*
X113077587Y-51430336D01*
X113054191Y-51404351D01*
X113023962Y-51341359D01*
X113022814Y-51332187D01*
X113021637Y-51318739D01*
X113003543Y-51111913D01*
X112944284Y-50890757D01*
X112847523Y-50683251D01*
X112716198Y-50495700D01*
X112554300Y-50333802D01*
X112366749Y-50202477D01*
X112366745Y-50202475D01*
X112159249Y-50105718D01*
X112159238Y-50105714D01*
X111938089Y-50046457D01*
X111938081Y-50046456D01*
X111710002Y-50026502D01*
X111709998Y-50026502D01*
X111481918Y-50046456D01*
X111481910Y-50046457D01*
X111260761Y-50105714D01*
X111260750Y-50105718D01*
X111053254Y-50202475D01*
X111053252Y-50202476D01*
X111002369Y-50238105D01*
X110865700Y-50333802D01*
X110865698Y-50333803D01*
X110865695Y-50333806D01*
X110703806Y-50495695D01*
X110703803Y-50495698D01*
X110703802Y-50495700D01*
X110685777Y-50521443D01*
X110572476Y-50683252D01*
X110572475Y-50683254D01*
X110475718Y-50890750D01*
X110475714Y-50890761D01*
X110416457Y-51111910D01*
X110416456Y-51111918D01*
X110396502Y-51339998D01*
X110396502Y-51340001D01*
X110416456Y-51568081D01*
X110416457Y-51568089D01*
X110475714Y-51789238D01*
X110475718Y-51789249D01*
X110570485Y-51992478D01*
X110572477Y-51996749D01*
X110703802Y-52184300D01*
X110865700Y-52346198D01*
X111053251Y-52477523D01*
X111178091Y-52535736D01*
X111260750Y-52574281D01*
X111260752Y-52574282D01*
X111260757Y-52574284D01*
X111260760Y-52574284D01*
X111260766Y-52574287D01*
X111319893Y-52590129D01*
X111349592Y-52598087D01*
X111409253Y-52634451D01*
X111439783Y-52697298D01*
X111441500Y-52717862D01*
X111441500Y-56528628D01*
X111421815Y-56595667D01*
X111410884Y-56610208D01*
X111394346Y-56629137D01*
X111352107Y-56677483D01*
X111238686Y-56867319D01*
X111160984Y-57074353D01*
X111160984Y-57074354D01*
X111121500Y-57291929D01*
X111121500Y-57512324D01*
X111101815Y-57579363D01*
X111085181Y-57600005D01*
X107755050Y-60930135D01*
X107740259Y-60942769D01*
X107728746Y-60951133D01*
X107681869Y-61003195D01*
X107679639Y-61005545D01*
X107663939Y-61021247D01*
X107663928Y-61021258D01*
X107649948Y-61038521D01*
X107647843Y-61040985D01*
X107600962Y-61093052D01*
X107600957Y-61093059D01*
X107593838Y-61105388D01*
X107582833Y-61121400D01*
X107573873Y-61132466D01*
X107573871Y-61132468D01*
X107542053Y-61194913D01*
X107540505Y-61197765D01*
X107505471Y-61258445D01*
X107501071Y-61271988D01*
X107493630Y-61289951D01*
X107487171Y-61302628D01*
X107487169Y-61302634D01*
X107475876Y-61344777D01*
X107469031Y-61370324D01*
X107468115Y-61373416D01*
X107446457Y-61440074D01*
X107446457Y-61440077D01*
X107444970Y-61454223D01*
X107441427Y-61473344D01*
X107437742Y-61487097D01*
X107434074Y-61557073D01*
X107433820Y-61560304D01*
X107431500Y-61582392D01*
X107431500Y-61604594D01*
X107431415Y-61607839D01*
X107427748Y-61677809D01*
X107429973Y-61691856D01*
X107431500Y-61711256D01*
X107431500Y-89438743D01*
X107429973Y-89458140D01*
X107427748Y-89472190D01*
X100075500Y-89472190D01*
X100075500Y-51340002D01*
X105405034Y-51340002D01*
X105424858Y-51566599D01*
X105424860Y-51566610D01*
X105483730Y-51786317D01*
X105483734Y-51786326D01*
X105579865Y-51992481D01*
X105579866Y-51992483D01*
X105630973Y-52065471D01*
X105630974Y-52065472D01*
X106312046Y-51384399D01*
X106324835Y-51465148D01*
X106382359Y-51578045D01*
X106471955Y-51667641D01*
X106584852Y-51725165D01*
X106665599Y-51737953D01*
X105984526Y-52419025D01*
X105984526Y-52419026D01*
X106057512Y-52470131D01*
X106057516Y-52470133D01*
X106263673Y-52566265D01*
X106263682Y-52566269D01*
X106483389Y-52625139D01*
X106483400Y-52625141D01*
X106709998Y-52644966D01*
X106710002Y-52644966D01*
X106936599Y-52625141D01*
X106936610Y-52625139D01*
X107156317Y-52566269D01*
X107156331Y-52566264D01*
X107362478Y-52470136D01*
X107435472Y-52419025D01*
X106754401Y-51737953D01*
X106835148Y-51725165D01*
X106948045Y-51667641D01*
X107037641Y-51578045D01*
X107095165Y-51465148D01*
X107107953Y-51384400D01*
X107789025Y-52065472D01*
X107840136Y-51992478D01*
X107936264Y-51786331D01*
X107936269Y-51786317D01*
X107995139Y-51566610D01*
X107995141Y-51566599D01*
X108014966Y-51340002D01*
X108014966Y-51339997D01*
X107995141Y-51113400D01*
X107995139Y-51113389D01*
X107936269Y-50893682D01*
X107936265Y-50893673D01*
X107840133Y-50687516D01*
X107840131Y-50687512D01*
X107789026Y-50614526D01*
X107789025Y-50614526D01*
X107107953Y-51295598D01*
X107095165Y-51214852D01*
X107037641Y-51101955D01*
X106948045Y-51012359D01*
X106835148Y-50954835D01*
X106754400Y-50942046D01*
X107435472Y-50260974D01*
X107435471Y-50260973D01*
X107362483Y-50209866D01*
X107362481Y-50209865D01*
X107156326Y-50113734D01*
X107156317Y-50113730D01*
X106936610Y-50054860D01*
X106936599Y-50054858D01*
X106710002Y-50035034D01*
X106709998Y-50035034D01*
X106483400Y-50054858D01*
X106483389Y-50054860D01*
X106263682Y-50113730D01*
X106263673Y-50113734D01*
X106057513Y-50209868D01*
X105984527Y-50260972D01*
X105984526Y-50260973D01*
X106665600Y-50942046D01*
X106584852Y-50954835D01*
X106471955Y-51012359D01*
X106382359Y-51101955D01*
X106324835Y-51214852D01*
X106312046Y-51295599D01*
X105630973Y-50614526D01*
X105630972Y-50614527D01*
X105579868Y-50687513D01*
X105483734Y-50893673D01*
X105483730Y-50893682D01*
X105424860Y-51113389D01*
X105424858Y-51113400D01*
X105405034Y-51339997D01*
X105405034Y-51340002D01*
X100075500Y-51340002D01*
X100075500Y-47425048D01*
X100075799Y-47418967D01*
X100087494Y-47300222D01*
X100092234Y-47276389D01*
X100124216Y-47170959D01*
X100133508Y-47148526D01*
X100185442Y-47051365D01*
X100198938Y-47031166D01*
X100268827Y-46946006D01*
X100286006Y-46928827D01*
X100371166Y-46858938D01*
X100391365Y-46845442D01*
X100488526Y-46793508D01*
X100510959Y-46784216D01*
X100616389Y-46752234D01*
X100640220Y-46747494D01*
X100670605Y-46744501D01*
X100758968Y-46735799D01*
X100765049Y-46735500D01*
X100786531Y-46735500D01*
X163417365Y-46735500D01*
X163484404Y-46755185D01*
G37*
%TD.AperFunction*%
%TD*%
M02*
