M48
; DRILL file {KiCad 7.0.9} date Tue Jan  2 14:05:02 2024
; FORMAT={-:-/ absolute / inch / decimal}
; #@! TF.CreationDate,2024-01-02T14:05:02+00:00
; #@! TF.GenerationSoftware,Kicad,Pcbnew,7.0.9
; #@! TF.FileFunction,MixedPlating,1,2
FMAT,2
INCH
; #@! TA.AperFunction,Plated,PTH,ComponentDrill
T1C0.0315
; #@! TA.AperFunction,Plated,PTH,ComponentDrill
T2C0.0394
; #@! TA.AperFunction,NonPlated,NPTH,ComponentDrill
T3C0.1260
%
G90
G05
T1
X4.2012Y-2.0213
X4.398Y-2.0213
X4.5663Y-3.2197
X4.5663Y-3.5197
X4.6663Y-3.2197
X4.6663Y-3.5197
X4.7663Y-3.2197
X4.7663Y-3.5197
X4.8663Y-3.2197
X4.8663Y-3.5197
X4.9663Y-3.2197
X4.9663Y-3.5197
X5.0663Y-3.2197
X5.0663Y-3.5197
X5.1663Y-3.2197
X5.1663Y-3.5197
X5.2663Y-3.2197
X5.2663Y-3.5197
X5.3941Y-3.3236
X5.3941Y-3.5205
X5.5886Y-3.2197
X5.5886Y-3.5197
X5.6886Y-3.2197
X5.6886Y-3.5197
X5.7886Y-3.2197
X5.7886Y-3.5197
X5.8886Y-3.2197
X5.8886Y-3.5197
X5.9886Y-3.2197
X5.9886Y-3.5197
X6.0886Y-3.2197
X6.0886Y-3.5197
X6.1886Y-3.2197
X6.1886Y-3.5197
X6.2886Y-3.2197
X6.2886Y-3.5197
X6.4264Y-3.3252
X6.4264Y-3.522
T2
X4.4232Y-2.271
X4.4232Y-2.871
X4.5232Y-2.271
X4.5232Y-2.871
X4.6232Y-2.271
X4.6232Y-2.871
X4.677Y-1.937
X4.7232Y-2.271
X4.7232Y-2.871
X4.777Y-1.937
X4.8232Y-2.271
X4.8232Y-2.871
X4.877Y-1.937
X4.9232Y-2.271
X4.9232Y-2.871
X4.977Y-1.937
X5.0232Y-2.271
X5.0232Y-2.871
X5.037Y-3.837
X5.077Y-1.937
X5.1232Y-2.271
X5.1232Y-2.871
X5.137Y-3.837
X5.177Y-1.937
X5.2232Y-2.271
X5.2232Y-2.871
X5.237Y-3.837
X5.277Y-1.937
X5.3232Y-2.271
X5.3232Y-2.871
X5.337Y-3.837
X5.377Y-1.937
X5.4232Y-2.271
X5.4232Y-2.871
X5.437Y-3.837
X5.477Y-1.937
X5.5232Y-2.271
X5.5232Y-2.871
X5.537Y-3.837
X5.577Y-1.937
X5.6232Y-2.271
X5.6232Y-2.871
X5.637Y-3.837
X5.7232Y-2.271
X5.7232Y-2.871
X5.737Y-1.937
X5.737Y-3.837
X5.837Y-1.937
X5.937Y-1.937
X5.937Y-3.837
X6.037Y-1.937
X6.037Y-3.837
X6.137Y-1.937
X6.137Y-3.837
X6.1524Y-2.1736
X6.1524Y-2.3567
X6.1524Y-2.5398
X6.237Y-1.937
X6.237Y-3.837
X6.2524Y-2.1736
X6.2524Y-2.3567
X6.2524Y-2.5398
X6.337Y-1.937
X6.337Y-3.837
X6.3524Y-2.1736
X6.3524Y-2.3567
X6.3524Y-2.5398
X6.437Y-1.937
X6.437Y-3.837
T3
X4.487Y-3.837
X4.537Y-1.937
X6.537Y-2.537
X6.537Y-3.637
T0
M30
