%TF.GenerationSoftware,KiCad,Pcbnew,7.0.9*%
%TF.CreationDate,2024-01-02T14:05:00+00:00*%
%TF.ProjectId,ArduinoEEPROMProg,41726475-696e-46f4-9545-50524f4d5072,rev?*%
%TF.SameCoordinates,Original*%
%TF.FileFunction,Legend,Top*%
%TF.FilePolarity,Positive*%
%FSLAX46Y46*%
G04 Gerber Fmt 4.6, Leading zero omitted, Abs format (unit mm)*
G04 Created by KiCad (PCBNEW 7.0.9) date 2024-01-02 14:05:00*
%MOMM*%
%LPD*%
G01*
G04 APERTURE LIST*
%ADD10C,0.150000*%
%ADD11C,0.100000*%
%ADD12C,0.120000*%
G04 APERTURE END LIST*
D10*
X102964104Y-97178095D02*
X102964104Y-96701905D01*
X103249819Y-97273333D02*
X102249819Y-96940000D01*
X102249819Y-96940000D02*
X103249819Y-96606667D01*
X103249819Y-96273333D02*
X102583152Y-96273333D01*
X102773628Y-96273333D02*
X102678390Y-96225714D01*
X102678390Y-96225714D02*
X102630771Y-96178095D01*
X102630771Y-96178095D02*
X102583152Y-96082857D01*
X102583152Y-96082857D02*
X102583152Y-95987619D01*
X103249819Y-95225714D02*
X102249819Y-95225714D01*
X103202200Y-95225714D02*
X103249819Y-95320952D01*
X103249819Y-95320952D02*
X103249819Y-95511428D01*
X103249819Y-95511428D02*
X103202200Y-95606666D01*
X103202200Y-95606666D02*
X103154580Y-95654285D01*
X103154580Y-95654285D02*
X103059342Y-95701904D01*
X103059342Y-95701904D02*
X102773628Y-95701904D01*
X102773628Y-95701904D02*
X102678390Y-95654285D01*
X102678390Y-95654285D02*
X102630771Y-95606666D01*
X102630771Y-95606666D02*
X102583152Y-95511428D01*
X102583152Y-95511428D02*
X102583152Y-95320952D01*
X102583152Y-95320952D02*
X102630771Y-95225714D01*
X102583152Y-94320952D02*
X103249819Y-94320952D01*
X102583152Y-94749523D02*
X103106961Y-94749523D01*
X103106961Y-94749523D02*
X103202200Y-94701904D01*
X103202200Y-94701904D02*
X103249819Y-94606666D01*
X103249819Y-94606666D02*
X103249819Y-94463809D01*
X103249819Y-94463809D02*
X103202200Y-94368571D01*
X103202200Y-94368571D02*
X103154580Y-94320952D01*
X103249819Y-93844761D02*
X102583152Y-93844761D01*
X102249819Y-93844761D02*
X102297438Y-93892380D01*
X102297438Y-93892380D02*
X102345057Y-93844761D01*
X102345057Y-93844761D02*
X102297438Y-93797142D01*
X102297438Y-93797142D02*
X102249819Y-93844761D01*
X102249819Y-93844761D02*
X102345057Y-93844761D01*
X102583152Y-93368571D02*
X103249819Y-93368571D01*
X102678390Y-93368571D02*
X102630771Y-93320952D01*
X102630771Y-93320952D02*
X102583152Y-93225714D01*
X102583152Y-93225714D02*
X102583152Y-93082857D01*
X102583152Y-93082857D02*
X102630771Y-92987619D01*
X102630771Y-92987619D02*
X102726009Y-92940000D01*
X102726009Y-92940000D02*
X103249819Y-92940000D01*
X103249819Y-92320952D02*
X103202200Y-92416190D01*
X103202200Y-92416190D02*
X103154580Y-92463809D01*
X103154580Y-92463809D02*
X103059342Y-92511428D01*
X103059342Y-92511428D02*
X102773628Y-92511428D01*
X102773628Y-92511428D02*
X102678390Y-92463809D01*
X102678390Y-92463809D02*
X102630771Y-92416190D01*
X102630771Y-92416190D02*
X102583152Y-92320952D01*
X102583152Y-92320952D02*
X102583152Y-92178095D01*
X102583152Y-92178095D02*
X102630771Y-92082857D01*
X102630771Y-92082857D02*
X102678390Y-92035238D01*
X102678390Y-92035238D02*
X102773628Y-91987619D01*
X102773628Y-91987619D02*
X103059342Y-91987619D01*
X103059342Y-91987619D02*
X103154580Y-92035238D01*
X103154580Y-92035238D02*
X103202200Y-92082857D01*
X103202200Y-92082857D02*
X103249819Y-92178095D01*
X103249819Y-92178095D02*
X103249819Y-92320952D01*
X103630771Y-90511428D02*
X103583152Y-90559047D01*
X103583152Y-90559047D02*
X103440295Y-90654285D01*
X103440295Y-90654285D02*
X103345057Y-90701904D01*
X103345057Y-90701904D02*
X103202200Y-90749523D01*
X103202200Y-90749523D02*
X102964104Y-90797142D01*
X102964104Y-90797142D02*
X102773628Y-90797142D01*
X102773628Y-90797142D02*
X102535533Y-90749523D01*
X102535533Y-90749523D02*
X102392676Y-90701904D01*
X102392676Y-90701904D02*
X102297438Y-90654285D01*
X102297438Y-90654285D02*
X102154580Y-90559047D01*
X102154580Y-90559047D02*
X102106961Y-90511428D01*
X102726009Y-90130475D02*
X102726009Y-89797142D01*
X103249819Y-89654285D02*
X103249819Y-90130475D01*
X103249819Y-90130475D02*
X102249819Y-90130475D01*
X102249819Y-90130475D02*
X102249819Y-89654285D01*
X103630771Y-89320951D02*
X103583152Y-89273332D01*
X103583152Y-89273332D02*
X103440295Y-89178094D01*
X103440295Y-89178094D02*
X103345057Y-89130475D01*
X103345057Y-89130475D02*
X103202200Y-89082856D01*
X103202200Y-89082856D02*
X102964104Y-89035237D01*
X102964104Y-89035237D02*
X102773628Y-89035237D01*
X102773628Y-89035237D02*
X102535533Y-89082856D01*
X102535533Y-89082856D02*
X102392676Y-89130475D01*
X102392676Y-89130475D02*
X102297438Y-89178094D01*
X102297438Y-89178094D02*
X102154580Y-89273332D01*
X102154580Y-89273332D02*
X102106961Y-89320951D01*
X102726009Y-88559046D02*
X102726009Y-88225713D01*
X103249819Y-88082856D02*
X103249819Y-88559046D01*
X103249819Y-88559046D02*
X102249819Y-88559046D01*
X102249819Y-88559046D02*
X102249819Y-88082856D01*
X103249819Y-87654284D02*
X102249819Y-87654284D01*
X102249819Y-87654284D02*
X102249819Y-87273332D01*
X102249819Y-87273332D02*
X102297438Y-87178094D01*
X102297438Y-87178094D02*
X102345057Y-87130475D01*
X102345057Y-87130475D02*
X102440295Y-87082856D01*
X102440295Y-87082856D02*
X102583152Y-87082856D01*
X102583152Y-87082856D02*
X102678390Y-87130475D01*
X102678390Y-87130475D02*
X102726009Y-87178094D01*
X102726009Y-87178094D02*
X102773628Y-87273332D01*
X102773628Y-87273332D02*
X102773628Y-87654284D01*
X103249819Y-86082856D02*
X102773628Y-86416189D01*
X103249819Y-86654284D02*
X102249819Y-86654284D01*
X102249819Y-86654284D02*
X102249819Y-86273332D01*
X102249819Y-86273332D02*
X102297438Y-86178094D01*
X102297438Y-86178094D02*
X102345057Y-86130475D01*
X102345057Y-86130475D02*
X102440295Y-86082856D01*
X102440295Y-86082856D02*
X102583152Y-86082856D01*
X102583152Y-86082856D02*
X102678390Y-86130475D01*
X102678390Y-86130475D02*
X102726009Y-86178094D01*
X102726009Y-86178094D02*
X102773628Y-86273332D01*
X102773628Y-86273332D02*
X102773628Y-86654284D01*
X102249819Y-85463808D02*
X102249819Y-85273332D01*
X102249819Y-85273332D02*
X102297438Y-85178094D01*
X102297438Y-85178094D02*
X102392676Y-85082856D01*
X102392676Y-85082856D02*
X102583152Y-85035237D01*
X102583152Y-85035237D02*
X102916485Y-85035237D01*
X102916485Y-85035237D02*
X103106961Y-85082856D01*
X103106961Y-85082856D02*
X103202200Y-85178094D01*
X103202200Y-85178094D02*
X103249819Y-85273332D01*
X103249819Y-85273332D02*
X103249819Y-85463808D01*
X103249819Y-85463808D02*
X103202200Y-85559046D01*
X103202200Y-85559046D02*
X103106961Y-85654284D01*
X103106961Y-85654284D02*
X102916485Y-85701903D01*
X102916485Y-85701903D02*
X102583152Y-85701903D01*
X102583152Y-85701903D02*
X102392676Y-85654284D01*
X102392676Y-85654284D02*
X102297438Y-85559046D01*
X102297438Y-85559046D02*
X102249819Y-85463808D01*
X103249819Y-84606665D02*
X102249819Y-84606665D01*
X102249819Y-84606665D02*
X102964104Y-84273332D01*
X102964104Y-84273332D02*
X102249819Y-83939999D01*
X102249819Y-83939999D02*
X103249819Y-83939999D01*
X103249819Y-82701903D02*
X102249819Y-82701903D01*
X102249819Y-82701903D02*
X102249819Y-82320951D01*
X102249819Y-82320951D02*
X102297438Y-82225713D01*
X102297438Y-82225713D02*
X102345057Y-82178094D01*
X102345057Y-82178094D02*
X102440295Y-82130475D01*
X102440295Y-82130475D02*
X102583152Y-82130475D01*
X102583152Y-82130475D02*
X102678390Y-82178094D01*
X102678390Y-82178094D02*
X102726009Y-82225713D01*
X102726009Y-82225713D02*
X102773628Y-82320951D01*
X102773628Y-82320951D02*
X102773628Y-82701903D01*
X103249819Y-81701903D02*
X102583152Y-81701903D01*
X102773628Y-81701903D02*
X102678390Y-81654284D01*
X102678390Y-81654284D02*
X102630771Y-81606665D01*
X102630771Y-81606665D02*
X102583152Y-81511427D01*
X102583152Y-81511427D02*
X102583152Y-81416189D01*
X103249819Y-80939998D02*
X103202200Y-81035236D01*
X103202200Y-81035236D02*
X103154580Y-81082855D01*
X103154580Y-81082855D02*
X103059342Y-81130474D01*
X103059342Y-81130474D02*
X102773628Y-81130474D01*
X102773628Y-81130474D02*
X102678390Y-81082855D01*
X102678390Y-81082855D02*
X102630771Y-81035236D01*
X102630771Y-81035236D02*
X102583152Y-80939998D01*
X102583152Y-80939998D02*
X102583152Y-80797141D01*
X102583152Y-80797141D02*
X102630771Y-80701903D01*
X102630771Y-80701903D02*
X102678390Y-80654284D01*
X102678390Y-80654284D02*
X102773628Y-80606665D01*
X102773628Y-80606665D02*
X103059342Y-80606665D01*
X103059342Y-80606665D02*
X103154580Y-80654284D01*
X103154580Y-80654284D02*
X103202200Y-80701903D01*
X103202200Y-80701903D02*
X103249819Y-80797141D01*
X103249819Y-80797141D02*
X103249819Y-80939998D01*
X102583152Y-79749522D02*
X103392676Y-79749522D01*
X103392676Y-79749522D02*
X103487914Y-79797141D01*
X103487914Y-79797141D02*
X103535533Y-79844760D01*
X103535533Y-79844760D02*
X103583152Y-79939998D01*
X103583152Y-79939998D02*
X103583152Y-80082855D01*
X103583152Y-80082855D02*
X103535533Y-80178093D01*
X103202200Y-79749522D02*
X103249819Y-79844760D01*
X103249819Y-79844760D02*
X103249819Y-80035236D01*
X103249819Y-80035236D02*
X103202200Y-80130474D01*
X103202200Y-80130474D02*
X103154580Y-80178093D01*
X103154580Y-80178093D02*
X103059342Y-80225712D01*
X103059342Y-80225712D02*
X102773628Y-80225712D01*
X102773628Y-80225712D02*
X102678390Y-80178093D01*
X102678390Y-80178093D02*
X102630771Y-80130474D01*
X102630771Y-80130474D02*
X102583152Y-80035236D01*
X102583152Y-80035236D02*
X102583152Y-79844760D01*
X102583152Y-79844760D02*
X102630771Y-79749522D01*
X104859819Y-93630476D02*
X103859819Y-93630476D01*
X104812200Y-93630476D02*
X104859819Y-93725714D01*
X104859819Y-93725714D02*
X104859819Y-93916190D01*
X104859819Y-93916190D02*
X104812200Y-94011428D01*
X104812200Y-94011428D02*
X104764580Y-94059047D01*
X104764580Y-94059047D02*
X104669342Y-94106666D01*
X104669342Y-94106666D02*
X104383628Y-94106666D01*
X104383628Y-94106666D02*
X104288390Y-94059047D01*
X104288390Y-94059047D02*
X104240771Y-94011428D01*
X104240771Y-94011428D02*
X104193152Y-93916190D01*
X104193152Y-93916190D02*
X104193152Y-93725714D01*
X104193152Y-93725714D02*
X104240771Y-93630476D01*
X104859819Y-93154285D02*
X104193152Y-93154285D01*
X103859819Y-93154285D02*
X103907438Y-93201904D01*
X103907438Y-93201904D02*
X103955057Y-93154285D01*
X103955057Y-93154285D02*
X103907438Y-93106666D01*
X103907438Y-93106666D02*
X103859819Y-93154285D01*
X103859819Y-93154285D02*
X103955057Y-93154285D01*
X104193152Y-92773333D02*
X104859819Y-92535238D01*
X104193152Y-92297143D02*
X104859819Y-92535238D01*
X104859819Y-92535238D02*
X105097914Y-92630476D01*
X105097914Y-92630476D02*
X105145533Y-92678095D01*
X105145533Y-92678095D02*
X105193152Y-92773333D01*
X104812200Y-91535238D02*
X104859819Y-91630476D01*
X104859819Y-91630476D02*
X104859819Y-91820952D01*
X104859819Y-91820952D02*
X104812200Y-91916190D01*
X104812200Y-91916190D02*
X104716961Y-91963809D01*
X104716961Y-91963809D02*
X104336009Y-91963809D01*
X104336009Y-91963809D02*
X104240771Y-91916190D01*
X104240771Y-91916190D02*
X104193152Y-91820952D01*
X104193152Y-91820952D02*
X104193152Y-91630476D01*
X104193152Y-91630476D02*
X104240771Y-91535238D01*
X104240771Y-91535238D02*
X104336009Y-91487619D01*
X104336009Y-91487619D02*
X104431247Y-91487619D01*
X104431247Y-91487619D02*
X104526485Y-91963809D01*
X104859819Y-90916190D02*
X104812200Y-91011428D01*
X104812200Y-91011428D02*
X104716961Y-91059047D01*
X104716961Y-91059047D02*
X103859819Y-91059047D01*
X104812200Y-90154285D02*
X104859819Y-90249523D01*
X104859819Y-90249523D02*
X104859819Y-90439999D01*
X104859819Y-90439999D02*
X104812200Y-90535237D01*
X104812200Y-90535237D02*
X104716961Y-90582856D01*
X104716961Y-90582856D02*
X104336009Y-90582856D01*
X104336009Y-90582856D02*
X104240771Y-90535237D01*
X104240771Y-90535237D02*
X104193152Y-90439999D01*
X104193152Y-90439999D02*
X104193152Y-90249523D01*
X104193152Y-90249523D02*
X104240771Y-90154285D01*
X104240771Y-90154285D02*
X104336009Y-90106666D01*
X104336009Y-90106666D02*
X104431247Y-90106666D01*
X104431247Y-90106666D02*
X104526485Y-90582856D01*
X104812200Y-89249523D02*
X104859819Y-89344761D01*
X104859819Y-89344761D02*
X104859819Y-89535237D01*
X104859819Y-89535237D02*
X104812200Y-89630475D01*
X104812200Y-89630475D02*
X104764580Y-89678094D01*
X104764580Y-89678094D02*
X104669342Y-89725713D01*
X104669342Y-89725713D02*
X104383628Y-89725713D01*
X104383628Y-89725713D02*
X104288390Y-89678094D01*
X104288390Y-89678094D02*
X104240771Y-89630475D01*
X104240771Y-89630475D02*
X104193152Y-89535237D01*
X104193152Y-89535237D02*
X104193152Y-89344761D01*
X104193152Y-89344761D02*
X104240771Y-89249523D01*
X104193152Y-88963808D02*
X104193152Y-88582856D01*
X103859819Y-88820951D02*
X104716961Y-88820951D01*
X104716961Y-88820951D02*
X104812200Y-88773332D01*
X104812200Y-88773332D02*
X104859819Y-88678094D01*
X104859819Y-88678094D02*
X104859819Y-88582856D01*
X104859819Y-88249522D02*
X104193152Y-88249522D01*
X104383628Y-88249522D02*
X104288390Y-88201903D01*
X104288390Y-88201903D02*
X104240771Y-88154284D01*
X104240771Y-88154284D02*
X104193152Y-88059046D01*
X104193152Y-88059046D02*
X104193152Y-87963808D01*
X104859819Y-87487617D02*
X104812200Y-87582855D01*
X104812200Y-87582855D02*
X104764580Y-87630474D01*
X104764580Y-87630474D02*
X104669342Y-87678093D01*
X104669342Y-87678093D02*
X104383628Y-87678093D01*
X104383628Y-87678093D02*
X104288390Y-87630474D01*
X104288390Y-87630474D02*
X104240771Y-87582855D01*
X104240771Y-87582855D02*
X104193152Y-87487617D01*
X104193152Y-87487617D02*
X104193152Y-87344760D01*
X104193152Y-87344760D02*
X104240771Y-87249522D01*
X104240771Y-87249522D02*
X104288390Y-87201903D01*
X104288390Y-87201903D02*
X104383628Y-87154284D01*
X104383628Y-87154284D02*
X104669342Y-87154284D01*
X104669342Y-87154284D02*
X104764580Y-87201903D01*
X104764580Y-87201903D02*
X104812200Y-87249522D01*
X104812200Y-87249522D02*
X104859819Y-87344760D01*
X104859819Y-87344760D02*
X104859819Y-87487617D01*
X104859819Y-86725712D02*
X104193152Y-86725712D01*
X104288390Y-86725712D02*
X104240771Y-86678093D01*
X104240771Y-86678093D02*
X104193152Y-86582855D01*
X104193152Y-86582855D02*
X104193152Y-86439998D01*
X104193152Y-86439998D02*
X104240771Y-86344760D01*
X104240771Y-86344760D02*
X104336009Y-86297141D01*
X104336009Y-86297141D02*
X104859819Y-86297141D01*
X104336009Y-86297141D02*
X104240771Y-86249522D01*
X104240771Y-86249522D02*
X104193152Y-86154284D01*
X104193152Y-86154284D02*
X104193152Y-86011427D01*
X104193152Y-86011427D02*
X104240771Y-85916188D01*
X104240771Y-85916188D02*
X104336009Y-85868569D01*
X104336009Y-85868569D02*
X104859819Y-85868569D01*
X104193152Y-84963808D02*
X104859819Y-84963808D01*
X104193152Y-85392379D02*
X104716961Y-85392379D01*
X104716961Y-85392379D02*
X104812200Y-85344760D01*
X104812200Y-85344760D02*
X104859819Y-85249522D01*
X104859819Y-85249522D02*
X104859819Y-85106665D01*
X104859819Y-85106665D02*
X104812200Y-85011427D01*
X104812200Y-85011427D02*
X104764580Y-84963808D01*
X104812200Y-84535236D02*
X104859819Y-84439998D01*
X104859819Y-84439998D02*
X104859819Y-84249522D01*
X104859819Y-84249522D02*
X104812200Y-84154284D01*
X104812200Y-84154284D02*
X104716961Y-84106665D01*
X104716961Y-84106665D02*
X104669342Y-84106665D01*
X104669342Y-84106665D02*
X104574104Y-84154284D01*
X104574104Y-84154284D02*
X104526485Y-84249522D01*
X104526485Y-84249522D02*
X104526485Y-84392379D01*
X104526485Y-84392379D02*
X104478866Y-84487617D01*
X104478866Y-84487617D02*
X104383628Y-84535236D01*
X104383628Y-84535236D02*
X104336009Y-84535236D01*
X104336009Y-84535236D02*
X104240771Y-84487617D01*
X104240771Y-84487617D02*
X104193152Y-84392379D01*
X104193152Y-84392379D02*
X104193152Y-84249522D01*
X104193152Y-84249522D02*
X104240771Y-84154284D01*
X104859819Y-83678093D02*
X104193152Y-83678093D01*
X103859819Y-83678093D02*
X103907438Y-83725712D01*
X103907438Y-83725712D02*
X103955057Y-83678093D01*
X103955057Y-83678093D02*
X103907438Y-83630474D01*
X103907438Y-83630474D02*
X103859819Y-83678093D01*
X103859819Y-83678093D02*
X103955057Y-83678093D01*
X104812200Y-82773332D02*
X104859819Y-82868570D01*
X104859819Y-82868570D02*
X104859819Y-83059046D01*
X104859819Y-83059046D02*
X104812200Y-83154284D01*
X104812200Y-83154284D02*
X104764580Y-83201903D01*
X104764580Y-83201903D02*
X104669342Y-83249522D01*
X104669342Y-83249522D02*
X104383628Y-83249522D01*
X104383628Y-83249522D02*
X104288390Y-83201903D01*
X104288390Y-83201903D02*
X104240771Y-83154284D01*
X104240771Y-83154284D02*
X104193152Y-83059046D01*
X104193152Y-83059046D02*
X104193152Y-82868570D01*
X104193152Y-82868570D02*
X104240771Y-82773332D01*
X105803152Y-92154285D02*
X106469819Y-91916190D01*
X106469819Y-91916190D02*
X105803152Y-91678095D01*
X105469819Y-91106666D02*
X105469819Y-91011428D01*
X105469819Y-91011428D02*
X105517438Y-90916190D01*
X105517438Y-90916190D02*
X105565057Y-90868571D01*
X105565057Y-90868571D02*
X105660295Y-90820952D01*
X105660295Y-90820952D02*
X105850771Y-90773333D01*
X105850771Y-90773333D02*
X106088866Y-90773333D01*
X106088866Y-90773333D02*
X106279342Y-90820952D01*
X106279342Y-90820952D02*
X106374580Y-90868571D01*
X106374580Y-90868571D02*
X106422200Y-90916190D01*
X106422200Y-90916190D02*
X106469819Y-91011428D01*
X106469819Y-91011428D02*
X106469819Y-91106666D01*
X106469819Y-91106666D02*
X106422200Y-91201904D01*
X106422200Y-91201904D02*
X106374580Y-91249523D01*
X106374580Y-91249523D02*
X106279342Y-91297142D01*
X106279342Y-91297142D02*
X106088866Y-91344761D01*
X106088866Y-91344761D02*
X105850771Y-91344761D01*
X105850771Y-91344761D02*
X105660295Y-91297142D01*
X105660295Y-91297142D02*
X105565057Y-91249523D01*
X105565057Y-91249523D02*
X105517438Y-91201904D01*
X105517438Y-91201904D02*
X105469819Y-91106666D01*
X106374580Y-90344761D02*
X106422200Y-90297142D01*
X106422200Y-90297142D02*
X106469819Y-90344761D01*
X106469819Y-90344761D02*
X106422200Y-90392380D01*
X106422200Y-90392380D02*
X106374580Y-90344761D01*
X106374580Y-90344761D02*
X106469819Y-90344761D01*
X106469819Y-89344762D02*
X106469819Y-89916190D01*
X106469819Y-89630476D02*
X105469819Y-89630476D01*
X105469819Y-89630476D02*
X105612676Y-89725714D01*
X105612676Y-89725714D02*
X105707914Y-89820952D01*
X105707914Y-89820952D02*
X105755533Y-89916190D01*
X105565057Y-88201904D02*
X105517438Y-88154285D01*
X105517438Y-88154285D02*
X105469819Y-88059047D01*
X105469819Y-88059047D02*
X105469819Y-87820952D01*
X105469819Y-87820952D02*
X105517438Y-87725714D01*
X105517438Y-87725714D02*
X105565057Y-87678095D01*
X105565057Y-87678095D02*
X105660295Y-87630476D01*
X105660295Y-87630476D02*
X105755533Y-87630476D01*
X105755533Y-87630476D02*
X105898390Y-87678095D01*
X105898390Y-87678095D02*
X106469819Y-88249523D01*
X106469819Y-88249523D02*
X106469819Y-87630476D01*
X105469819Y-87011428D02*
X105469819Y-86916190D01*
X105469819Y-86916190D02*
X105517438Y-86820952D01*
X105517438Y-86820952D02*
X105565057Y-86773333D01*
X105565057Y-86773333D02*
X105660295Y-86725714D01*
X105660295Y-86725714D02*
X105850771Y-86678095D01*
X105850771Y-86678095D02*
X106088866Y-86678095D01*
X106088866Y-86678095D02*
X106279342Y-86725714D01*
X106279342Y-86725714D02*
X106374580Y-86773333D01*
X106374580Y-86773333D02*
X106422200Y-86820952D01*
X106422200Y-86820952D02*
X106469819Y-86916190D01*
X106469819Y-86916190D02*
X106469819Y-87011428D01*
X106469819Y-87011428D02*
X106422200Y-87106666D01*
X106422200Y-87106666D02*
X106374580Y-87154285D01*
X106374580Y-87154285D02*
X106279342Y-87201904D01*
X106279342Y-87201904D02*
X106088866Y-87249523D01*
X106088866Y-87249523D02*
X105850771Y-87249523D01*
X105850771Y-87249523D02*
X105660295Y-87201904D01*
X105660295Y-87201904D02*
X105565057Y-87154285D01*
X105565057Y-87154285D02*
X105517438Y-87106666D01*
X105517438Y-87106666D02*
X105469819Y-87011428D01*
X105565057Y-86297142D02*
X105517438Y-86249523D01*
X105517438Y-86249523D02*
X105469819Y-86154285D01*
X105469819Y-86154285D02*
X105469819Y-85916190D01*
X105469819Y-85916190D02*
X105517438Y-85820952D01*
X105517438Y-85820952D02*
X105565057Y-85773333D01*
X105565057Y-85773333D02*
X105660295Y-85725714D01*
X105660295Y-85725714D02*
X105755533Y-85725714D01*
X105755533Y-85725714D02*
X105898390Y-85773333D01*
X105898390Y-85773333D02*
X106469819Y-86344761D01*
X106469819Y-86344761D02*
X106469819Y-85725714D01*
X105803152Y-84868571D02*
X106469819Y-84868571D01*
X105422200Y-85106666D02*
X106136485Y-85344761D01*
X106136485Y-85344761D02*
X106136485Y-84725714D01*
D11*
X158371905Y-52656895D02*
X158524286Y-52656895D01*
X158524286Y-52656895D02*
X158600476Y-52694990D01*
X158600476Y-52694990D02*
X158676667Y-52771180D01*
X158676667Y-52771180D02*
X158714762Y-52923561D01*
X158714762Y-52923561D02*
X158714762Y-53190228D01*
X158714762Y-53190228D02*
X158676667Y-53342609D01*
X158676667Y-53342609D02*
X158600476Y-53418800D01*
X158600476Y-53418800D02*
X158524286Y-53456895D01*
X158524286Y-53456895D02*
X158371905Y-53456895D01*
X158371905Y-53456895D02*
X158295714Y-53418800D01*
X158295714Y-53418800D02*
X158219524Y-53342609D01*
X158219524Y-53342609D02*
X158181428Y-53190228D01*
X158181428Y-53190228D02*
X158181428Y-52923561D01*
X158181428Y-52923561D02*
X158219524Y-52771180D01*
X158219524Y-52771180D02*
X158295714Y-52694990D01*
X158295714Y-52694990D02*
X158371905Y-52656895D01*
X159057619Y-53037847D02*
X159324285Y-53037847D01*
X159438571Y-53456895D02*
X159057619Y-53456895D01*
X159057619Y-53456895D02*
X159057619Y-52656895D01*
X159057619Y-52656895D02*
X159438571Y-52656895D01*
X160397618Y-62238323D02*
X160778571Y-62238323D01*
X160321428Y-62466895D02*
X160588095Y-61666895D01*
X160588095Y-61666895D02*
X160854761Y-62466895D01*
X161540475Y-62466895D02*
X161083332Y-62466895D01*
X161311904Y-62466895D02*
X161311904Y-61666895D01*
X161311904Y-61666895D02*
X161235713Y-61781180D01*
X161235713Y-61781180D02*
X161159523Y-61857371D01*
X161159523Y-61857371D02*
X161083332Y-61895466D01*
X162226190Y-61933561D02*
X162226190Y-62466895D01*
X162035714Y-61628800D02*
X161845237Y-62200228D01*
X161845237Y-62200228D02*
X162340476Y-62200228D01*
X154546265Y-62466895D02*
X154546265Y-61666895D01*
X154546265Y-61666895D02*
X154736741Y-61666895D01*
X154736741Y-61666895D02*
X154851027Y-61704990D01*
X154851027Y-61704990D02*
X154927217Y-61781180D01*
X154927217Y-61781180D02*
X154965312Y-61857371D01*
X154965312Y-61857371D02*
X155003408Y-62009752D01*
X155003408Y-62009752D02*
X155003408Y-62124038D01*
X155003408Y-62124038D02*
X154965312Y-62276419D01*
X154965312Y-62276419D02*
X154927217Y-62352609D01*
X154927217Y-62352609D02*
X154851027Y-62428800D01*
X154851027Y-62428800D02*
X154736741Y-62466895D01*
X154736741Y-62466895D02*
X154546265Y-62466895D01*
X155765312Y-62466895D02*
X155308169Y-62466895D01*
X155536741Y-62466895D02*
X155536741Y-61666895D01*
X155536741Y-61666895D02*
X155460550Y-61781180D01*
X155460550Y-61781180D02*
X155384360Y-61857371D01*
X155384360Y-61857371D02*
X155308169Y-61895466D01*
X156031979Y-61666895D02*
X156527217Y-61666895D01*
X156527217Y-61666895D02*
X156260551Y-61971657D01*
X156260551Y-61971657D02*
X156374836Y-61971657D01*
X156374836Y-61971657D02*
X156451027Y-62009752D01*
X156451027Y-62009752D02*
X156489122Y-62047847D01*
X156489122Y-62047847D02*
X156527217Y-62124038D01*
X156527217Y-62124038D02*
X156527217Y-62314514D01*
X156527217Y-62314514D02*
X156489122Y-62390704D01*
X156489122Y-62390704D02*
X156451027Y-62428800D01*
X156451027Y-62428800D02*
X156374836Y-62466895D01*
X156374836Y-62466895D02*
X156146265Y-62466895D01*
X156146265Y-62466895D02*
X156070074Y-62428800D01*
X156070074Y-62428800D02*
X156031979Y-62390704D01*
X157441503Y-61628800D02*
X156755789Y-62657371D01*
X157631979Y-61666895D02*
X157822455Y-62466895D01*
X157822455Y-62466895D02*
X157974836Y-61895466D01*
X157974836Y-61895466D02*
X158127217Y-62466895D01*
X158127217Y-62466895D02*
X158317694Y-61666895D01*
X158622456Y-62047847D02*
X158889122Y-62047847D01*
X159003408Y-62466895D02*
X158622456Y-62466895D01*
X158622456Y-62466895D02*
X158622456Y-61666895D01*
X158622456Y-61666895D02*
X159003408Y-61666895D01*
X155097217Y-57036895D02*
X154716265Y-57036895D01*
X154716265Y-57036895D02*
X154678169Y-57417847D01*
X154678169Y-57417847D02*
X154716265Y-57379752D01*
X154716265Y-57379752D02*
X154792455Y-57341657D01*
X154792455Y-57341657D02*
X154982931Y-57341657D01*
X154982931Y-57341657D02*
X155059122Y-57379752D01*
X155059122Y-57379752D02*
X155097217Y-57417847D01*
X155097217Y-57417847D02*
X155135312Y-57494038D01*
X155135312Y-57494038D02*
X155135312Y-57684514D01*
X155135312Y-57684514D02*
X155097217Y-57760704D01*
X155097217Y-57760704D02*
X155059122Y-57798800D01*
X155059122Y-57798800D02*
X154982931Y-57836895D01*
X154982931Y-57836895D02*
X154792455Y-57836895D01*
X154792455Y-57836895D02*
X154716265Y-57798800D01*
X154716265Y-57798800D02*
X154678169Y-57760704D01*
X155516265Y-57836895D02*
X155668646Y-57836895D01*
X155668646Y-57836895D02*
X155744836Y-57798800D01*
X155744836Y-57798800D02*
X155782932Y-57760704D01*
X155782932Y-57760704D02*
X155859122Y-57646419D01*
X155859122Y-57646419D02*
X155897217Y-57494038D01*
X155897217Y-57494038D02*
X155897217Y-57189276D01*
X155897217Y-57189276D02*
X155859122Y-57113085D01*
X155859122Y-57113085D02*
X155821027Y-57074990D01*
X155821027Y-57074990D02*
X155744836Y-57036895D01*
X155744836Y-57036895D02*
X155592455Y-57036895D01*
X155592455Y-57036895D02*
X155516265Y-57074990D01*
X155516265Y-57074990D02*
X155478170Y-57113085D01*
X155478170Y-57113085D02*
X155440074Y-57189276D01*
X155440074Y-57189276D02*
X155440074Y-57379752D01*
X155440074Y-57379752D02*
X155478170Y-57455942D01*
X155478170Y-57455942D02*
X155516265Y-57494038D01*
X155516265Y-57494038D02*
X155592455Y-57532133D01*
X155592455Y-57532133D02*
X155744836Y-57532133D01*
X155744836Y-57532133D02*
X155821027Y-57494038D01*
X155821027Y-57494038D02*
X155859122Y-57455942D01*
X155859122Y-57455942D02*
X155897217Y-57379752D01*
X156621027Y-57036895D02*
X156240075Y-57036895D01*
X156240075Y-57036895D02*
X156201979Y-57417847D01*
X156201979Y-57417847D02*
X156240075Y-57379752D01*
X156240075Y-57379752D02*
X156316265Y-57341657D01*
X156316265Y-57341657D02*
X156506741Y-57341657D01*
X156506741Y-57341657D02*
X156582932Y-57379752D01*
X156582932Y-57379752D02*
X156621027Y-57417847D01*
X156621027Y-57417847D02*
X156659122Y-57494038D01*
X156659122Y-57494038D02*
X156659122Y-57684514D01*
X156659122Y-57684514D02*
X156621027Y-57760704D01*
X156621027Y-57760704D02*
X156582932Y-57798800D01*
X156582932Y-57798800D02*
X156506741Y-57836895D01*
X156506741Y-57836895D02*
X156316265Y-57836895D01*
X156316265Y-57836895D02*
X156240075Y-57798800D01*
X156240075Y-57798800D02*
X156201979Y-57760704D01*
X157573408Y-56998800D02*
X156887694Y-58027371D01*
X158373408Y-57913085D02*
X158297218Y-57874990D01*
X158297218Y-57874990D02*
X158221027Y-57798800D01*
X158221027Y-57798800D02*
X158106741Y-57684514D01*
X158106741Y-57684514D02*
X158030551Y-57646419D01*
X158030551Y-57646419D02*
X157954360Y-57646419D01*
X157992456Y-57836895D02*
X157916265Y-57798800D01*
X157916265Y-57798800D02*
X157840075Y-57722609D01*
X157840075Y-57722609D02*
X157801979Y-57570228D01*
X157801979Y-57570228D02*
X157801979Y-57303561D01*
X157801979Y-57303561D02*
X157840075Y-57151180D01*
X157840075Y-57151180D02*
X157916265Y-57074990D01*
X157916265Y-57074990D02*
X157992456Y-57036895D01*
X157992456Y-57036895D02*
X158144837Y-57036895D01*
X158144837Y-57036895D02*
X158221027Y-57074990D01*
X158221027Y-57074990D02*
X158297218Y-57151180D01*
X158297218Y-57151180D02*
X158335313Y-57303561D01*
X158335313Y-57303561D02*
X158335313Y-57570228D01*
X158335313Y-57570228D02*
X158297218Y-57722609D01*
X158297218Y-57722609D02*
X158221027Y-57798800D01*
X158221027Y-57798800D02*
X158144837Y-57836895D01*
X158144837Y-57836895D02*
X157992456Y-57836895D01*
X158601979Y-57036895D02*
X159135313Y-57036895D01*
X159135313Y-57036895D02*
X158792455Y-57836895D01*
X160378571Y-57836895D02*
X160378571Y-57036895D01*
X160378571Y-57036895D02*
X160569047Y-57036895D01*
X160569047Y-57036895D02*
X160683333Y-57074990D01*
X160683333Y-57074990D02*
X160759523Y-57151180D01*
X160759523Y-57151180D02*
X160797618Y-57227371D01*
X160797618Y-57227371D02*
X160835714Y-57379752D01*
X160835714Y-57379752D02*
X160835714Y-57494038D01*
X160835714Y-57494038D02*
X160797618Y-57646419D01*
X160797618Y-57646419D02*
X160759523Y-57722609D01*
X160759523Y-57722609D02*
X160683333Y-57798800D01*
X160683333Y-57798800D02*
X160569047Y-57836895D01*
X160569047Y-57836895D02*
X160378571Y-57836895D01*
X161597618Y-57836895D02*
X161140475Y-57836895D01*
X161369047Y-57836895D02*
X161369047Y-57036895D01*
X161369047Y-57036895D02*
X161292856Y-57151180D01*
X161292856Y-57151180D02*
X161216666Y-57227371D01*
X161216666Y-57227371D02*
X161140475Y-57265466D01*
X161864285Y-57036895D02*
X162359523Y-57036895D01*
X162359523Y-57036895D02*
X162092857Y-57341657D01*
X162092857Y-57341657D02*
X162207142Y-57341657D01*
X162207142Y-57341657D02*
X162283333Y-57379752D01*
X162283333Y-57379752D02*
X162321428Y-57417847D01*
X162321428Y-57417847D02*
X162359523Y-57494038D01*
X162359523Y-57494038D02*
X162359523Y-57684514D01*
X162359523Y-57684514D02*
X162321428Y-57760704D01*
X162321428Y-57760704D02*
X162283333Y-57798800D01*
X162283333Y-57798800D02*
X162207142Y-57836895D01*
X162207142Y-57836895D02*
X161978571Y-57836895D01*
X161978571Y-57836895D02*
X161902380Y-57798800D01*
X161902380Y-57798800D02*
X161864285Y-57760704D01*
X160283333Y-66296895D02*
X160550000Y-67096895D01*
X160550000Y-67096895D02*
X160816666Y-66296895D01*
X161083333Y-67096895D02*
X161083333Y-66296895D01*
X161083333Y-66296895D02*
X161388095Y-66296895D01*
X161388095Y-66296895D02*
X161464285Y-66334990D01*
X161464285Y-66334990D02*
X161502380Y-66373085D01*
X161502380Y-66373085D02*
X161540476Y-66449276D01*
X161540476Y-66449276D02*
X161540476Y-66563561D01*
X161540476Y-66563561D02*
X161502380Y-66639752D01*
X161502380Y-66639752D02*
X161464285Y-66677847D01*
X161464285Y-66677847D02*
X161388095Y-66715942D01*
X161388095Y-66715942D02*
X161083333Y-66715942D01*
X161883333Y-67096895D02*
X161883333Y-66296895D01*
X161883333Y-66296895D02*
X162188095Y-66296895D01*
X162188095Y-66296895D02*
X162264285Y-66334990D01*
X162264285Y-66334990D02*
X162302380Y-66373085D01*
X162302380Y-66373085D02*
X162340476Y-66449276D01*
X162340476Y-66449276D02*
X162340476Y-66563561D01*
X162340476Y-66563561D02*
X162302380Y-66639752D01*
X162302380Y-66639752D02*
X162264285Y-66677847D01*
X162264285Y-66677847D02*
X162188095Y-66715942D01*
X162188095Y-66715942D02*
X161883333Y-66715942D01*
X155348169Y-66868323D02*
X155729122Y-66868323D01*
X155271979Y-67096895D02*
X155538646Y-66296895D01*
X155538646Y-66296895D02*
X155805312Y-67096895D01*
X156491026Y-67096895D02*
X156033883Y-67096895D01*
X156262455Y-67096895D02*
X156262455Y-66296895D01*
X156262455Y-66296895D02*
X156186264Y-66411180D01*
X156186264Y-66411180D02*
X156110074Y-66487371D01*
X156110074Y-66487371D02*
X156033883Y-66525466D01*
X157176741Y-66563561D02*
X157176741Y-67096895D01*
X156986265Y-66258800D02*
X156795788Y-66830228D01*
X156795788Y-66830228D02*
X157291027Y-66830228D01*
D10*
G36*
X153323344Y-56857352D02*
G01*
X153348988Y-56882996D01*
X153378485Y-56941989D01*
X153378485Y-57192142D01*
X153057057Y-57192142D01*
X153057057Y-56941989D01*
X153086553Y-56882996D01*
X153112198Y-56857352D01*
X153171190Y-56827856D01*
X153264352Y-56827856D01*
X153323344Y-56857352D01*
G37*
G36*
X154085628Y-57470713D02*
G01*
X152778486Y-57470713D01*
X152778486Y-57267142D01*
X152907057Y-57267142D01*
X152913720Y-57285450D01*
X152917105Y-57304642D01*
X152922289Y-57308992D01*
X152924604Y-57315351D01*
X152941477Y-57325093D01*
X152956405Y-57337619D01*
X152966147Y-57339336D01*
X152969033Y-57341003D01*
X152972315Y-57340424D01*
X152982057Y-57342142D01*
X153882057Y-57342142D01*
X153930266Y-57324595D01*
X153955918Y-57280166D01*
X153947009Y-57229642D01*
X153907709Y-57196665D01*
X153882057Y-57192142D01*
X153528485Y-57192142D01*
X153528485Y-56924285D01*
X153526951Y-56920071D01*
X153527993Y-56915711D01*
X153520567Y-56890744D01*
X153477710Y-56805029D01*
X153476523Y-56803905D01*
X153463661Y-56785537D01*
X153420804Y-56742680D01*
X153419322Y-56741989D01*
X153401312Y-56728631D01*
X153315598Y-56685774D01*
X153311144Y-56685261D01*
X153307709Y-56682379D01*
X153282057Y-56677856D01*
X153153485Y-56677856D01*
X153149271Y-56679389D01*
X153144910Y-56678348D01*
X153119944Y-56685774D01*
X153034230Y-56728631D01*
X153033106Y-56729817D01*
X153014738Y-56742680D01*
X152971881Y-56785537D01*
X152971190Y-56787018D01*
X152957832Y-56805029D01*
X152914975Y-56890744D01*
X152914462Y-56895197D01*
X152911580Y-56898633D01*
X152907057Y-56924285D01*
X152907057Y-57267142D01*
X152778486Y-57267142D01*
X152778486Y-56360606D01*
X152907343Y-56360606D01*
X152912385Y-56379425D01*
X152914084Y-56398838D01*
X152916753Y-56402651D01*
X152917105Y-56404642D01*
X152919633Y-56406763D01*
X152919757Y-56406940D01*
X152920620Y-56410160D01*
X152923350Y-56412071D01*
X152929024Y-56420175D01*
X152971881Y-56463032D01*
X152989538Y-56471265D01*
X153005503Y-56482444D01*
X153012246Y-56481853D01*
X153018378Y-56484713D01*
X153037197Y-56479670D01*
X153056610Y-56477972D01*
X153064712Y-56472298D01*
X153067932Y-56471436D01*
X153069843Y-56468705D01*
X153077947Y-56463032D01*
X153120804Y-56420175D01*
X153129036Y-56402519D01*
X153140216Y-56386554D01*
X153139917Y-56383136D01*
X153141632Y-56380166D01*
X153141035Y-56376785D01*
X153142485Y-56373678D01*
X153137443Y-56354861D01*
X153137378Y-56354118D01*
X153208196Y-56354118D01*
X153217105Y-56404642D01*
X153256405Y-56437619D01*
X153282057Y-56442142D01*
X153882057Y-56442142D01*
X153930266Y-56424595D01*
X153955918Y-56380166D01*
X153947009Y-56329642D01*
X153907709Y-56296665D01*
X153882057Y-56292142D01*
X153282057Y-56292142D01*
X153233848Y-56309689D01*
X153208196Y-56354118D01*
X153137378Y-56354118D01*
X153135745Y-56335446D01*
X153133073Y-56331631D01*
X153132723Y-56329642D01*
X153130196Y-56327521D01*
X153130070Y-56327341D01*
X153129208Y-56324124D01*
X153126478Y-56322212D01*
X153120804Y-56314109D01*
X153077947Y-56271252D01*
X153060291Y-56263019D01*
X153044326Y-56251840D01*
X153037581Y-56252430D01*
X153031450Y-56249571D01*
X153012633Y-56254612D01*
X152993218Y-56256311D01*
X152985113Y-56261985D01*
X152981896Y-56262848D01*
X152979984Y-56265577D01*
X152971881Y-56271252D01*
X152929024Y-56314109D01*
X152920790Y-56331766D01*
X152909612Y-56347731D01*
X152909910Y-56351147D01*
X152908196Y-56354118D01*
X152908792Y-56357498D01*
X152907343Y-56360606D01*
X152778486Y-56360606D01*
X152778486Y-55809999D01*
X153207057Y-55809999D01*
X153208590Y-55814211D01*
X153207548Y-55818573D01*
X153214975Y-55843540D01*
X153233802Y-55881196D01*
X153208196Y-55925547D01*
X153217105Y-55976071D01*
X153256405Y-56009048D01*
X153282057Y-56013571D01*
X153882057Y-56013571D01*
X153930266Y-55996024D01*
X153955918Y-55951595D01*
X153947009Y-55901071D01*
X153907709Y-55868094D01*
X153882057Y-55863571D01*
X153398837Y-55863571D01*
X153386553Y-55851287D01*
X153357057Y-55792294D01*
X153357057Y-55699133D01*
X153380815Y-55651615D01*
X153428333Y-55627857D01*
X153882057Y-55627857D01*
X153930266Y-55610310D01*
X153955918Y-55565881D01*
X153947009Y-55515357D01*
X153907709Y-55482380D01*
X153882057Y-55477857D01*
X153410628Y-55477857D01*
X153406414Y-55479390D01*
X153402053Y-55478349D01*
X153377087Y-55485775D01*
X153291373Y-55528632D01*
X153283653Y-55536785D01*
X153273349Y-55541252D01*
X153257832Y-55562173D01*
X153214975Y-55647887D01*
X153214462Y-55652340D01*
X153211580Y-55655776D01*
X153207057Y-55681428D01*
X153207057Y-55809999D01*
X152778486Y-55809999D01*
X152778486Y-54352857D01*
X152907057Y-54352857D01*
X152908590Y-54357070D01*
X152907549Y-54361431D01*
X152914975Y-54386398D01*
X152957832Y-54472112D01*
X152959021Y-54473237D01*
X152971881Y-54491604D01*
X153014738Y-54534461D01*
X153061235Y-54556142D01*
X153110789Y-54542865D01*
X153140216Y-54500840D01*
X153135745Y-54449732D01*
X153120804Y-54428395D01*
X153086553Y-54394144D01*
X153057057Y-54335152D01*
X153057057Y-54156276D01*
X153086553Y-54097283D01*
X153112198Y-54071637D01*
X153171190Y-54042142D01*
X153227030Y-54042142D01*
X153327257Y-54075551D01*
X153829024Y-54577318D01*
X153849479Y-54586856D01*
X153869033Y-54598146D01*
X153872412Y-54597550D01*
X153875520Y-54598999D01*
X153897321Y-54593157D01*
X153919557Y-54589237D01*
X153921761Y-54586609D01*
X153925075Y-54585722D01*
X153938020Y-54567233D01*
X153952534Y-54549937D01*
X153953342Y-54545350D01*
X153954501Y-54543696D01*
X153954213Y-54540411D01*
X153957057Y-54524285D01*
X153957057Y-53967142D01*
X153939510Y-53918933D01*
X153895081Y-53893281D01*
X153844557Y-53902190D01*
X153811580Y-53941490D01*
X153807057Y-53967142D01*
X153807057Y-54343219D01*
X153420804Y-53956966D01*
X153416741Y-53955071D01*
X153414394Y-53951251D01*
X153391488Y-53938848D01*
X153262917Y-53895991D01*
X153261282Y-53896035D01*
X153239200Y-53892142D01*
X153153485Y-53892142D01*
X153149271Y-53893675D01*
X153144910Y-53892634D01*
X153119944Y-53900060D01*
X153034230Y-53942917D01*
X153033105Y-53944104D01*
X153014738Y-53956966D01*
X152971880Y-53999825D01*
X152971188Y-54001307D01*
X152957832Y-54019316D01*
X152914975Y-54105030D01*
X152914462Y-54109483D01*
X152911580Y-54112919D01*
X152907057Y-54138571D01*
X152907057Y-54352857D01*
X152778486Y-54352857D01*
X152778486Y-53495714D01*
X152907057Y-53495714D01*
X152908590Y-53499927D01*
X152907549Y-53504288D01*
X152914975Y-53529255D01*
X152957832Y-53614969D01*
X152959021Y-53616094D01*
X152971881Y-53634461D01*
X153014738Y-53677318D01*
X153061235Y-53698999D01*
X153110789Y-53685722D01*
X153140216Y-53643697D01*
X153135745Y-53592589D01*
X153120804Y-53571252D01*
X153086553Y-53537001D01*
X153057057Y-53478009D01*
X153057057Y-53299133D01*
X153086553Y-53240140D01*
X153112198Y-53214494D01*
X153171190Y-53184999D01*
X153227030Y-53184999D01*
X153327257Y-53218408D01*
X153829024Y-53720175D01*
X153849479Y-53729713D01*
X153869033Y-53741003D01*
X153872412Y-53740407D01*
X153875520Y-53741856D01*
X153897321Y-53736014D01*
X153919557Y-53732094D01*
X153921761Y-53729466D01*
X153925075Y-53728579D01*
X153938020Y-53710090D01*
X153952534Y-53692794D01*
X153953342Y-53688207D01*
X153954501Y-53686553D01*
X153954213Y-53683268D01*
X153957057Y-53667142D01*
X153957057Y-53109999D01*
X153939510Y-53061790D01*
X153895081Y-53036138D01*
X153844557Y-53045047D01*
X153811580Y-53084347D01*
X153807057Y-53109999D01*
X153807057Y-53486076D01*
X153420804Y-53099823D01*
X153416741Y-53097928D01*
X153414394Y-53094108D01*
X153391488Y-53081705D01*
X153262917Y-53038848D01*
X153261282Y-53038892D01*
X153239200Y-53034999D01*
X153153485Y-53034999D01*
X153149271Y-53036532D01*
X153144910Y-53035491D01*
X153119944Y-53042917D01*
X153034230Y-53085774D01*
X153033105Y-53086961D01*
X153014738Y-53099823D01*
X152971880Y-53142682D01*
X152971188Y-53144164D01*
X152957832Y-53162173D01*
X152914975Y-53247887D01*
X152914462Y-53252340D01*
X152911580Y-53255776D01*
X152907057Y-53281428D01*
X152907057Y-53495714D01*
X152778486Y-53495714D01*
X152778486Y-52906428D01*
X154085628Y-52906428D01*
X154085628Y-57470713D01*
G37*
G36*
X153323344Y-61507352D02*
G01*
X153348988Y-61532996D01*
X153378485Y-61591989D01*
X153378485Y-61842142D01*
X153057057Y-61842142D01*
X153057057Y-61591989D01*
X153086553Y-61532996D01*
X153112198Y-61507352D01*
X153171190Y-61477856D01*
X153264352Y-61477856D01*
X153323344Y-61507352D01*
G37*
G36*
X154085628Y-62120713D02*
G01*
X152778486Y-62120713D01*
X152778486Y-61917142D01*
X152907057Y-61917142D01*
X152913720Y-61935450D01*
X152917105Y-61954642D01*
X152922289Y-61958992D01*
X152924604Y-61965351D01*
X152941477Y-61975093D01*
X152956405Y-61987619D01*
X152966147Y-61989336D01*
X152969033Y-61991003D01*
X152972315Y-61990424D01*
X152982057Y-61992142D01*
X153882057Y-61992142D01*
X153930266Y-61974595D01*
X153955918Y-61930166D01*
X153947009Y-61879642D01*
X153907709Y-61846665D01*
X153882057Y-61842142D01*
X153528485Y-61842142D01*
X153528485Y-61574285D01*
X153526951Y-61570071D01*
X153527993Y-61565711D01*
X153520567Y-61540744D01*
X153477710Y-61455029D01*
X153476523Y-61453905D01*
X153463661Y-61435537D01*
X153420804Y-61392680D01*
X153419322Y-61391989D01*
X153401312Y-61378631D01*
X153315598Y-61335774D01*
X153311144Y-61335261D01*
X153307709Y-61332379D01*
X153282057Y-61327856D01*
X153153485Y-61327856D01*
X153149271Y-61329389D01*
X153144910Y-61328348D01*
X153119944Y-61335774D01*
X153034230Y-61378631D01*
X153033106Y-61379817D01*
X153014738Y-61392680D01*
X152971881Y-61435537D01*
X152971190Y-61437018D01*
X152957832Y-61455029D01*
X152914975Y-61540744D01*
X152914462Y-61545197D01*
X152911580Y-61548633D01*
X152907057Y-61574285D01*
X152907057Y-61917142D01*
X152778486Y-61917142D01*
X152778486Y-61010606D01*
X152907343Y-61010606D01*
X152912385Y-61029425D01*
X152914084Y-61048838D01*
X152916753Y-61052651D01*
X152917105Y-61054642D01*
X152919633Y-61056763D01*
X152919757Y-61056940D01*
X152920620Y-61060160D01*
X152923350Y-61062071D01*
X152929024Y-61070175D01*
X152971881Y-61113032D01*
X152989538Y-61121265D01*
X153005503Y-61132444D01*
X153012246Y-61131853D01*
X153018378Y-61134713D01*
X153037197Y-61129670D01*
X153056610Y-61127972D01*
X153064712Y-61122298D01*
X153067932Y-61121436D01*
X153069843Y-61118705D01*
X153077947Y-61113032D01*
X153120804Y-61070175D01*
X153129036Y-61052519D01*
X153140216Y-61036554D01*
X153139917Y-61033136D01*
X153141632Y-61030166D01*
X153141035Y-61026785D01*
X153142485Y-61023678D01*
X153137443Y-61004861D01*
X153137378Y-61004118D01*
X153208196Y-61004118D01*
X153217105Y-61054642D01*
X153256405Y-61087619D01*
X153282057Y-61092142D01*
X153882057Y-61092142D01*
X153930266Y-61074595D01*
X153955918Y-61030166D01*
X153947009Y-60979642D01*
X153907709Y-60946665D01*
X153882057Y-60942142D01*
X153282057Y-60942142D01*
X153233848Y-60959689D01*
X153208196Y-61004118D01*
X153137378Y-61004118D01*
X153135745Y-60985446D01*
X153133073Y-60981631D01*
X153132723Y-60979642D01*
X153130196Y-60977521D01*
X153130070Y-60977341D01*
X153129208Y-60974124D01*
X153126478Y-60972212D01*
X153120804Y-60964109D01*
X153077947Y-60921252D01*
X153060291Y-60913019D01*
X153044326Y-60901840D01*
X153037581Y-60902430D01*
X153031450Y-60899571D01*
X153012633Y-60904612D01*
X152993218Y-60906311D01*
X152985113Y-60911985D01*
X152981896Y-60912848D01*
X152979984Y-60915577D01*
X152971881Y-60921252D01*
X152929024Y-60964109D01*
X152920790Y-60981766D01*
X152909612Y-60997731D01*
X152909910Y-61001147D01*
X152908196Y-61004118D01*
X152908792Y-61007498D01*
X152907343Y-61010606D01*
X152778486Y-61010606D01*
X152778486Y-60459999D01*
X153207057Y-60459999D01*
X153208590Y-60464211D01*
X153207548Y-60468573D01*
X153214975Y-60493540D01*
X153233802Y-60531196D01*
X153208196Y-60575547D01*
X153217105Y-60626071D01*
X153256405Y-60659048D01*
X153282057Y-60663571D01*
X153882057Y-60663571D01*
X153930266Y-60646024D01*
X153955918Y-60601595D01*
X153947009Y-60551071D01*
X153907709Y-60518094D01*
X153882057Y-60513571D01*
X153398837Y-60513571D01*
X153386553Y-60501287D01*
X153357057Y-60442294D01*
X153357057Y-60349133D01*
X153380815Y-60301615D01*
X153428333Y-60277857D01*
X153882057Y-60277857D01*
X153930266Y-60260310D01*
X153955918Y-60215881D01*
X153947009Y-60165357D01*
X153907709Y-60132380D01*
X153882057Y-60127857D01*
X153410628Y-60127857D01*
X153406414Y-60129390D01*
X153402053Y-60128349D01*
X153377087Y-60135775D01*
X153291373Y-60178632D01*
X153283653Y-60186785D01*
X153273349Y-60191252D01*
X153257832Y-60212173D01*
X153214975Y-60297887D01*
X153214462Y-60302340D01*
X153211580Y-60305776D01*
X153207057Y-60331428D01*
X153207057Y-60459999D01*
X152778486Y-60459999D01*
X152778486Y-59002857D01*
X152907057Y-59002857D01*
X152908590Y-59007070D01*
X152907549Y-59011431D01*
X152914975Y-59036398D01*
X152957832Y-59122112D01*
X152959021Y-59123237D01*
X152971881Y-59141604D01*
X153014738Y-59184461D01*
X153061235Y-59206142D01*
X153110789Y-59192865D01*
X153140216Y-59150840D01*
X153135745Y-59099732D01*
X153120804Y-59078395D01*
X153086553Y-59044144D01*
X153057057Y-58985152D01*
X153057057Y-58806276D01*
X153086553Y-58747283D01*
X153112198Y-58721637D01*
X153171190Y-58692142D01*
X153227030Y-58692142D01*
X153327257Y-58725551D01*
X153829024Y-59227318D01*
X153849479Y-59236856D01*
X153869033Y-59248146D01*
X153872412Y-59247550D01*
X153875520Y-59248999D01*
X153897321Y-59243157D01*
X153919557Y-59239237D01*
X153921761Y-59236609D01*
X153925075Y-59235722D01*
X153938020Y-59217233D01*
X153952534Y-59199937D01*
X153953342Y-59195350D01*
X153954501Y-59193696D01*
X153954213Y-59190411D01*
X153957057Y-59174285D01*
X153957057Y-58617142D01*
X153939510Y-58568933D01*
X153895081Y-58543281D01*
X153844557Y-58552190D01*
X153811580Y-58591490D01*
X153807057Y-58617142D01*
X153807057Y-58993219D01*
X153420804Y-58606966D01*
X153416741Y-58605071D01*
X153414394Y-58601251D01*
X153391488Y-58588848D01*
X153262917Y-58545991D01*
X153261282Y-58546035D01*
X153239200Y-58542142D01*
X153153485Y-58542142D01*
X153149271Y-58543675D01*
X153144910Y-58542634D01*
X153119944Y-58550060D01*
X153034230Y-58592917D01*
X153033105Y-58594104D01*
X153014738Y-58606966D01*
X152971880Y-58649825D01*
X152971188Y-58651307D01*
X152957832Y-58669316D01*
X152914975Y-58755030D01*
X152914462Y-58759483D01*
X152911580Y-58762919D01*
X152907057Y-58788571D01*
X152907057Y-59002857D01*
X152778486Y-59002857D01*
X152778486Y-58317142D01*
X152907057Y-58317142D01*
X152924604Y-58365351D01*
X152969033Y-58391003D01*
X153019557Y-58382094D01*
X153052534Y-58342794D01*
X153057057Y-58317142D01*
X153057057Y-57830882D01*
X153852513Y-58171792D01*
X153903736Y-58174654D01*
X153944816Y-58143922D01*
X153956530Y-58093974D01*
X153933397Y-58048182D01*
X153911601Y-58033920D01*
X153011601Y-57648206D01*
X153002755Y-57647711D01*
X152995081Y-57643281D01*
X152977846Y-57646320D01*
X152960378Y-57645344D01*
X152953283Y-57650651D01*
X152944557Y-57652190D01*
X152933309Y-57665593D01*
X152919298Y-57676076D01*
X152917274Y-57684703D01*
X152911580Y-57691490D01*
X152907057Y-57717142D01*
X152907057Y-58317142D01*
X152778486Y-58317142D01*
X152778486Y-57514710D01*
X154085628Y-57514710D01*
X154085628Y-62120713D01*
G37*
G36*
X153323344Y-65728781D02*
G01*
X153348988Y-65754425D01*
X153378485Y-65813418D01*
X153378485Y-66063571D01*
X153057057Y-66063571D01*
X153057057Y-65813418D01*
X153086553Y-65754425D01*
X153112198Y-65728781D01*
X153171190Y-65699285D01*
X153264352Y-65699285D01*
X153323344Y-65728781D01*
G37*
G36*
X154085628Y-66342142D02*
G01*
X152778486Y-66342142D01*
X152778486Y-66138571D01*
X152907057Y-66138571D01*
X152913720Y-66156879D01*
X152917105Y-66176071D01*
X152922289Y-66180421D01*
X152924604Y-66186780D01*
X152941477Y-66196522D01*
X152956405Y-66209048D01*
X152966147Y-66210765D01*
X152969033Y-66212432D01*
X152972315Y-66211853D01*
X152982057Y-66213571D01*
X153882057Y-66213571D01*
X153930266Y-66196024D01*
X153955918Y-66151595D01*
X153947009Y-66101071D01*
X153907709Y-66068094D01*
X153882057Y-66063571D01*
X153528485Y-66063571D01*
X153528485Y-65795714D01*
X153526951Y-65791500D01*
X153527993Y-65787140D01*
X153520567Y-65762173D01*
X153477710Y-65676458D01*
X153476523Y-65675334D01*
X153463661Y-65656966D01*
X153420804Y-65614109D01*
X153419322Y-65613418D01*
X153401312Y-65600060D01*
X153315598Y-65557203D01*
X153311144Y-65556690D01*
X153307709Y-65553808D01*
X153282057Y-65549285D01*
X153153485Y-65549285D01*
X153149271Y-65550818D01*
X153144910Y-65549777D01*
X153119944Y-65557203D01*
X153034230Y-65600060D01*
X153033106Y-65601246D01*
X153014738Y-65614109D01*
X152971881Y-65656966D01*
X152971190Y-65658447D01*
X152957832Y-65676458D01*
X152914975Y-65762173D01*
X152914462Y-65766626D01*
X152911580Y-65770062D01*
X152907057Y-65795714D01*
X152907057Y-66138571D01*
X152778486Y-66138571D01*
X152778486Y-65232035D01*
X152907343Y-65232035D01*
X152912385Y-65250854D01*
X152914084Y-65270267D01*
X152916753Y-65274080D01*
X152917105Y-65276071D01*
X152919633Y-65278192D01*
X152919757Y-65278369D01*
X152920620Y-65281589D01*
X152923350Y-65283500D01*
X152929024Y-65291604D01*
X152971881Y-65334461D01*
X152989538Y-65342694D01*
X153005503Y-65353873D01*
X153012246Y-65353282D01*
X153018378Y-65356142D01*
X153037197Y-65351099D01*
X153056610Y-65349401D01*
X153064712Y-65343727D01*
X153067932Y-65342865D01*
X153069843Y-65340134D01*
X153077947Y-65334461D01*
X153120804Y-65291604D01*
X153129036Y-65273948D01*
X153140216Y-65257983D01*
X153139917Y-65254565D01*
X153141632Y-65251595D01*
X153141035Y-65248214D01*
X153142485Y-65245107D01*
X153137443Y-65226290D01*
X153137378Y-65225547D01*
X153208196Y-65225547D01*
X153217105Y-65276071D01*
X153256405Y-65309048D01*
X153282057Y-65313571D01*
X153882057Y-65313571D01*
X153930266Y-65296024D01*
X153955918Y-65251595D01*
X153947009Y-65201071D01*
X153907709Y-65168094D01*
X153882057Y-65163571D01*
X153282057Y-65163571D01*
X153233848Y-65181118D01*
X153208196Y-65225547D01*
X153137378Y-65225547D01*
X153135745Y-65206875D01*
X153133073Y-65203060D01*
X153132723Y-65201071D01*
X153130196Y-65198950D01*
X153130070Y-65198770D01*
X153129208Y-65195553D01*
X153126478Y-65193641D01*
X153120804Y-65185538D01*
X153077947Y-65142681D01*
X153060291Y-65134448D01*
X153044326Y-65123269D01*
X153037581Y-65123859D01*
X153031450Y-65121000D01*
X153012633Y-65126041D01*
X152993218Y-65127740D01*
X152985113Y-65133414D01*
X152981896Y-65134277D01*
X152979984Y-65137006D01*
X152971881Y-65142681D01*
X152929024Y-65185538D01*
X152920790Y-65203195D01*
X152909612Y-65219160D01*
X152909910Y-65222576D01*
X152908196Y-65225547D01*
X152908792Y-65228927D01*
X152907343Y-65232035D01*
X152778486Y-65232035D01*
X152778486Y-64681428D01*
X153207057Y-64681428D01*
X153208590Y-64685640D01*
X153207548Y-64690002D01*
X153214975Y-64714969D01*
X153233802Y-64752625D01*
X153208196Y-64796976D01*
X153217105Y-64847500D01*
X153256405Y-64880477D01*
X153282057Y-64885000D01*
X153882057Y-64885000D01*
X153930266Y-64867453D01*
X153955918Y-64823024D01*
X153947009Y-64772500D01*
X153907709Y-64739523D01*
X153882057Y-64735000D01*
X153398837Y-64735000D01*
X153386553Y-64722716D01*
X153357057Y-64663723D01*
X153357057Y-64570562D01*
X153380815Y-64523044D01*
X153428333Y-64499286D01*
X153882057Y-64499286D01*
X153930266Y-64481739D01*
X153955918Y-64437310D01*
X153947009Y-64386786D01*
X153907709Y-64353809D01*
X153882057Y-64349286D01*
X153410628Y-64349286D01*
X153406414Y-64350819D01*
X153402053Y-64349778D01*
X153377087Y-64357204D01*
X153291373Y-64400061D01*
X153283653Y-64408214D01*
X153273349Y-64412681D01*
X153257832Y-64433602D01*
X153214975Y-64519316D01*
X153214462Y-64523769D01*
X153211580Y-64527205D01*
X153207057Y-64552857D01*
X153207057Y-64681428D01*
X152778486Y-64681428D01*
X152778486Y-63090887D01*
X152907212Y-63090887D01*
X152913325Y-63111778D01*
X152917105Y-63133214D01*
X152920408Y-63135986D01*
X152921620Y-63140125D01*
X152940454Y-63158118D01*
X153062847Y-63239713D01*
X153134702Y-63311569D01*
X153172118Y-63386399D01*
X153209373Y-63421671D01*
X153260583Y-63424745D01*
X153301789Y-63394181D01*
X153313709Y-63344282D01*
X153306282Y-63319316D01*
X153263424Y-63233601D01*
X153262233Y-63232474D01*
X153249376Y-63214111D01*
X153205980Y-63170714D01*
X153807057Y-63170714D01*
X153807057Y-63352857D01*
X153824604Y-63401066D01*
X153869033Y-63426718D01*
X153919557Y-63417809D01*
X153952534Y-63378509D01*
X153957057Y-63352857D01*
X153957057Y-62838571D01*
X153939510Y-62790362D01*
X153895081Y-62764710D01*
X153844557Y-62773619D01*
X153811580Y-62812919D01*
X153807057Y-62838571D01*
X153807057Y-63020714D01*
X152982057Y-63020714D01*
X152978003Y-63022189D01*
X152973814Y-63021169D01*
X152954301Y-63030816D01*
X152933848Y-63038261D01*
X152931692Y-63041995D01*
X152927825Y-63043907D01*
X152919078Y-63063841D01*
X152908196Y-63082690D01*
X152908944Y-63086937D01*
X152907212Y-63090887D01*
X152778486Y-63090887D01*
X152778486Y-62636139D01*
X154085628Y-62636139D01*
X154085628Y-66342142D01*
G37*
X161555057Y-73890475D02*
X161507438Y-73842856D01*
X161507438Y-73842856D02*
X161459819Y-73747618D01*
X161459819Y-73747618D02*
X161459819Y-73509523D01*
X161459819Y-73509523D02*
X161507438Y-73414285D01*
X161507438Y-73414285D02*
X161555057Y-73366666D01*
X161555057Y-73366666D02*
X161650295Y-73319047D01*
X161650295Y-73319047D02*
X161745533Y-73319047D01*
X161745533Y-73319047D02*
X161888390Y-73366666D01*
X161888390Y-73366666D02*
X162459819Y-73938094D01*
X162459819Y-73938094D02*
X162459819Y-73319047D01*
X161459819Y-72985713D02*
X161459819Y-72319047D01*
X161459819Y-72319047D02*
X162459819Y-72747618D01*
X162364580Y-71366666D02*
X162412200Y-71414285D01*
X162412200Y-71414285D02*
X162459819Y-71557142D01*
X162459819Y-71557142D02*
X162459819Y-71652380D01*
X162459819Y-71652380D02*
X162412200Y-71795237D01*
X162412200Y-71795237D02*
X162316961Y-71890475D01*
X162316961Y-71890475D02*
X162221723Y-71938094D01*
X162221723Y-71938094D02*
X162031247Y-71985713D01*
X162031247Y-71985713D02*
X161888390Y-71985713D01*
X161888390Y-71985713D02*
X161697914Y-71938094D01*
X161697914Y-71938094D02*
X161602676Y-71890475D01*
X161602676Y-71890475D02*
X161507438Y-71795237D01*
X161507438Y-71795237D02*
X161459819Y-71652380D01*
X161459819Y-71652380D02*
X161459819Y-71557142D01*
X161459819Y-71557142D02*
X161507438Y-71414285D01*
X161507438Y-71414285D02*
X161555057Y-71366666D01*
X161555057Y-70985713D02*
X161507438Y-70938094D01*
X161507438Y-70938094D02*
X161459819Y-70842856D01*
X161459819Y-70842856D02*
X161459819Y-70604761D01*
X161459819Y-70604761D02*
X161507438Y-70509523D01*
X161507438Y-70509523D02*
X161555057Y-70461904D01*
X161555057Y-70461904D02*
X161650295Y-70414285D01*
X161650295Y-70414285D02*
X161745533Y-70414285D01*
X161745533Y-70414285D02*
X161888390Y-70461904D01*
X161888390Y-70461904D02*
X162459819Y-71033332D01*
X162459819Y-71033332D02*
X162459819Y-70414285D01*
X161459819Y-69509523D02*
X161459819Y-69985713D01*
X161459819Y-69985713D02*
X161936009Y-70033332D01*
X161936009Y-70033332D02*
X161888390Y-69985713D01*
X161888390Y-69985713D02*
X161840771Y-69890475D01*
X161840771Y-69890475D02*
X161840771Y-69652380D01*
X161840771Y-69652380D02*
X161888390Y-69557142D01*
X161888390Y-69557142D02*
X161936009Y-69509523D01*
X161936009Y-69509523D02*
X162031247Y-69461904D01*
X162031247Y-69461904D02*
X162269342Y-69461904D01*
X162269342Y-69461904D02*
X162364580Y-69509523D01*
X162364580Y-69509523D02*
X162412200Y-69557142D01*
X162412200Y-69557142D02*
X162459819Y-69652380D01*
X162459819Y-69652380D02*
X162459819Y-69890475D01*
X162459819Y-69890475D02*
X162412200Y-69985713D01*
X162412200Y-69985713D02*
X162364580Y-70033332D01*
X161459819Y-68604761D02*
X161459819Y-68795237D01*
X161459819Y-68795237D02*
X161507438Y-68890475D01*
X161507438Y-68890475D02*
X161555057Y-68938094D01*
X161555057Y-68938094D02*
X161697914Y-69033332D01*
X161697914Y-69033332D02*
X161888390Y-69080951D01*
X161888390Y-69080951D02*
X162269342Y-69080951D01*
X162269342Y-69080951D02*
X162364580Y-69033332D01*
X162364580Y-69033332D02*
X162412200Y-68985713D01*
X162412200Y-68985713D02*
X162459819Y-68890475D01*
X162459819Y-68890475D02*
X162459819Y-68699999D01*
X162459819Y-68699999D02*
X162412200Y-68604761D01*
X162412200Y-68604761D02*
X162364580Y-68557142D01*
X162364580Y-68557142D02*
X162269342Y-68509523D01*
X162269342Y-68509523D02*
X162031247Y-68509523D01*
X162031247Y-68509523D02*
X161936009Y-68557142D01*
X161936009Y-68557142D02*
X161888390Y-68604761D01*
X161888390Y-68604761D02*
X161840771Y-68699999D01*
X161840771Y-68699999D02*
X161840771Y-68890475D01*
X161840771Y-68890475D02*
X161888390Y-68985713D01*
X161888390Y-68985713D02*
X161936009Y-69033332D01*
X161936009Y-69033332D02*
X162031247Y-69080951D01*
X164450771Y-73176190D02*
X164403152Y-73223809D01*
X164403152Y-73223809D02*
X164260295Y-73319047D01*
X164260295Y-73319047D02*
X164165057Y-73366666D01*
X164165057Y-73366666D02*
X164022200Y-73414285D01*
X164022200Y-73414285D02*
X163784104Y-73461904D01*
X163784104Y-73461904D02*
X163593628Y-73461904D01*
X163593628Y-73461904D02*
X163355533Y-73414285D01*
X163355533Y-73414285D02*
X163212676Y-73366666D01*
X163212676Y-73366666D02*
X163117438Y-73319047D01*
X163117438Y-73319047D02*
X162974580Y-73223809D01*
X162974580Y-73223809D02*
X162926961Y-73176190D01*
X164069819Y-72223809D02*
X163593628Y-72557142D01*
X164069819Y-72795237D02*
X163069819Y-72795237D01*
X163069819Y-72795237D02*
X163069819Y-72414285D01*
X163069819Y-72414285D02*
X163117438Y-72319047D01*
X163117438Y-72319047D02*
X163165057Y-72271428D01*
X163165057Y-72271428D02*
X163260295Y-72223809D01*
X163260295Y-72223809D02*
X163403152Y-72223809D01*
X163403152Y-72223809D02*
X163498390Y-72271428D01*
X163498390Y-72271428D02*
X163546009Y-72319047D01*
X163546009Y-72319047D02*
X163593628Y-72414285D01*
X163593628Y-72414285D02*
X163593628Y-72795237D01*
X164022200Y-71414285D02*
X164069819Y-71509523D01*
X164069819Y-71509523D02*
X164069819Y-71699999D01*
X164069819Y-71699999D02*
X164022200Y-71795237D01*
X164022200Y-71795237D02*
X163926961Y-71842856D01*
X163926961Y-71842856D02*
X163546009Y-71842856D01*
X163546009Y-71842856D02*
X163450771Y-71795237D01*
X163450771Y-71795237D02*
X163403152Y-71699999D01*
X163403152Y-71699999D02*
X163403152Y-71509523D01*
X163403152Y-71509523D02*
X163450771Y-71414285D01*
X163450771Y-71414285D02*
X163546009Y-71366666D01*
X163546009Y-71366666D02*
X163641247Y-71366666D01*
X163641247Y-71366666D02*
X163736485Y-71842856D01*
X164069819Y-70509523D02*
X163546009Y-70509523D01*
X163546009Y-70509523D02*
X163450771Y-70557142D01*
X163450771Y-70557142D02*
X163403152Y-70652380D01*
X163403152Y-70652380D02*
X163403152Y-70842856D01*
X163403152Y-70842856D02*
X163450771Y-70938094D01*
X164022200Y-70509523D02*
X164069819Y-70604761D01*
X164069819Y-70604761D02*
X164069819Y-70842856D01*
X164069819Y-70842856D02*
X164022200Y-70938094D01*
X164022200Y-70938094D02*
X163926961Y-70985713D01*
X163926961Y-70985713D02*
X163831723Y-70985713D01*
X163831723Y-70985713D02*
X163736485Y-70938094D01*
X163736485Y-70938094D02*
X163688866Y-70842856D01*
X163688866Y-70842856D02*
X163688866Y-70604761D01*
X163688866Y-70604761D02*
X163641247Y-70509523D01*
X164069819Y-69604761D02*
X163069819Y-69604761D01*
X164022200Y-69604761D02*
X164069819Y-69699999D01*
X164069819Y-69699999D02*
X164069819Y-69890475D01*
X164069819Y-69890475D02*
X164022200Y-69985713D01*
X164022200Y-69985713D02*
X163974580Y-70033332D01*
X163974580Y-70033332D02*
X163879342Y-70080951D01*
X163879342Y-70080951D02*
X163593628Y-70080951D01*
X163593628Y-70080951D02*
X163498390Y-70033332D01*
X163498390Y-70033332D02*
X163450771Y-69985713D01*
X163450771Y-69985713D02*
X163403152Y-69890475D01*
X163403152Y-69890475D02*
X163403152Y-69699999D01*
X163403152Y-69699999D02*
X163450771Y-69604761D01*
X164450771Y-69223808D02*
X164403152Y-69176189D01*
X164403152Y-69176189D02*
X164260295Y-69080951D01*
X164260295Y-69080951D02*
X164165057Y-69033332D01*
X164165057Y-69033332D02*
X164022200Y-68985713D01*
X164022200Y-68985713D02*
X163784104Y-68938094D01*
X163784104Y-68938094D02*
X163593628Y-68938094D01*
X163593628Y-68938094D02*
X163355533Y-68985713D01*
X163355533Y-68985713D02*
X163212676Y-69033332D01*
X163212676Y-69033332D02*
X163117438Y-69080951D01*
X163117438Y-69080951D02*
X162974580Y-69176189D01*
X162974580Y-69176189D02*
X162926961Y-69223808D01*
X154640771Y-72938095D02*
X154593152Y-72985714D01*
X154593152Y-72985714D02*
X154450295Y-73080952D01*
X154450295Y-73080952D02*
X154355057Y-73128571D01*
X154355057Y-73128571D02*
X154212200Y-73176190D01*
X154212200Y-73176190D02*
X153974104Y-73223809D01*
X153974104Y-73223809D02*
X153783628Y-73223809D01*
X153783628Y-73223809D02*
X153545533Y-73176190D01*
X153545533Y-73176190D02*
X153402676Y-73128571D01*
X153402676Y-73128571D02*
X153307438Y-73080952D01*
X153307438Y-73080952D02*
X153164580Y-72985714D01*
X153164580Y-72985714D02*
X153116961Y-72938095D01*
X154259819Y-71985714D02*
X153783628Y-72319047D01*
X154259819Y-72557142D02*
X153259819Y-72557142D01*
X153259819Y-72557142D02*
X153259819Y-72176190D01*
X153259819Y-72176190D02*
X153307438Y-72080952D01*
X153307438Y-72080952D02*
X153355057Y-72033333D01*
X153355057Y-72033333D02*
X153450295Y-71985714D01*
X153450295Y-71985714D02*
X153593152Y-71985714D01*
X153593152Y-71985714D02*
X153688390Y-72033333D01*
X153688390Y-72033333D02*
X153736009Y-72080952D01*
X153736009Y-72080952D02*
X153783628Y-72176190D01*
X153783628Y-72176190D02*
X153783628Y-72557142D01*
X153212200Y-70842857D02*
X154497914Y-71699999D01*
X153259819Y-70604761D02*
X154259819Y-70366666D01*
X154259819Y-70366666D02*
X153545533Y-70176190D01*
X153545533Y-70176190D02*
X154259819Y-69985714D01*
X154259819Y-69985714D02*
X153259819Y-69747619D01*
X154640771Y-69461904D02*
X154593152Y-69414285D01*
X154593152Y-69414285D02*
X154450295Y-69319047D01*
X154450295Y-69319047D02*
X154355057Y-69271428D01*
X154355057Y-69271428D02*
X154212200Y-69223809D01*
X154212200Y-69223809D02*
X153974104Y-69176190D01*
X153974104Y-69176190D02*
X153783628Y-69176190D01*
X153783628Y-69176190D02*
X153545533Y-69223809D01*
X153545533Y-69223809D02*
X153402676Y-69271428D01*
X153402676Y-69271428D02*
X153307438Y-69319047D01*
X153307438Y-69319047D02*
X153164580Y-69414285D01*
X153164580Y-69414285D02*
X153116961Y-69461904D01*
X154965057Y-73890475D02*
X154917438Y-73842856D01*
X154917438Y-73842856D02*
X154869819Y-73747618D01*
X154869819Y-73747618D02*
X154869819Y-73509523D01*
X154869819Y-73509523D02*
X154917438Y-73414285D01*
X154917438Y-73414285D02*
X154965057Y-73366666D01*
X154965057Y-73366666D02*
X155060295Y-73319047D01*
X155060295Y-73319047D02*
X155155533Y-73319047D01*
X155155533Y-73319047D02*
X155298390Y-73366666D01*
X155298390Y-73366666D02*
X155869819Y-73938094D01*
X155869819Y-73938094D02*
X155869819Y-73319047D01*
X155298390Y-72747618D02*
X155250771Y-72842856D01*
X155250771Y-72842856D02*
X155203152Y-72890475D01*
X155203152Y-72890475D02*
X155107914Y-72938094D01*
X155107914Y-72938094D02*
X155060295Y-72938094D01*
X155060295Y-72938094D02*
X154965057Y-72890475D01*
X154965057Y-72890475D02*
X154917438Y-72842856D01*
X154917438Y-72842856D02*
X154869819Y-72747618D01*
X154869819Y-72747618D02*
X154869819Y-72557142D01*
X154869819Y-72557142D02*
X154917438Y-72461904D01*
X154917438Y-72461904D02*
X154965057Y-72414285D01*
X154965057Y-72414285D02*
X155060295Y-72366666D01*
X155060295Y-72366666D02*
X155107914Y-72366666D01*
X155107914Y-72366666D02*
X155203152Y-72414285D01*
X155203152Y-72414285D02*
X155250771Y-72461904D01*
X155250771Y-72461904D02*
X155298390Y-72557142D01*
X155298390Y-72557142D02*
X155298390Y-72747618D01*
X155298390Y-72747618D02*
X155346009Y-72842856D01*
X155346009Y-72842856D02*
X155393628Y-72890475D01*
X155393628Y-72890475D02*
X155488866Y-72938094D01*
X155488866Y-72938094D02*
X155679342Y-72938094D01*
X155679342Y-72938094D02*
X155774580Y-72890475D01*
X155774580Y-72890475D02*
X155822200Y-72842856D01*
X155822200Y-72842856D02*
X155869819Y-72747618D01*
X155869819Y-72747618D02*
X155869819Y-72557142D01*
X155869819Y-72557142D02*
X155822200Y-72461904D01*
X155822200Y-72461904D02*
X155774580Y-72414285D01*
X155774580Y-72414285D02*
X155679342Y-72366666D01*
X155679342Y-72366666D02*
X155488866Y-72366666D01*
X155488866Y-72366666D02*
X155393628Y-72414285D01*
X155393628Y-72414285D02*
X155346009Y-72461904D01*
X155346009Y-72461904D02*
X155298390Y-72557142D01*
X155774580Y-71366666D02*
X155822200Y-71414285D01*
X155822200Y-71414285D02*
X155869819Y-71557142D01*
X155869819Y-71557142D02*
X155869819Y-71652380D01*
X155869819Y-71652380D02*
X155822200Y-71795237D01*
X155822200Y-71795237D02*
X155726961Y-71890475D01*
X155726961Y-71890475D02*
X155631723Y-71938094D01*
X155631723Y-71938094D02*
X155441247Y-71985713D01*
X155441247Y-71985713D02*
X155298390Y-71985713D01*
X155298390Y-71985713D02*
X155107914Y-71938094D01*
X155107914Y-71938094D02*
X155012676Y-71890475D01*
X155012676Y-71890475D02*
X154917438Y-71795237D01*
X154917438Y-71795237D02*
X154869819Y-71652380D01*
X154869819Y-71652380D02*
X154869819Y-71557142D01*
X154869819Y-71557142D02*
X154917438Y-71414285D01*
X154917438Y-71414285D02*
X154965057Y-71366666D01*
X154965057Y-70985713D02*
X154917438Y-70938094D01*
X154917438Y-70938094D02*
X154869819Y-70842856D01*
X154869819Y-70842856D02*
X154869819Y-70604761D01*
X154869819Y-70604761D02*
X154917438Y-70509523D01*
X154917438Y-70509523D02*
X154965057Y-70461904D01*
X154965057Y-70461904D02*
X155060295Y-70414285D01*
X155060295Y-70414285D02*
X155155533Y-70414285D01*
X155155533Y-70414285D02*
X155298390Y-70461904D01*
X155298390Y-70461904D02*
X155869819Y-71033332D01*
X155869819Y-71033332D02*
X155869819Y-70414285D01*
X154869819Y-69509523D02*
X154869819Y-69985713D01*
X154869819Y-69985713D02*
X155346009Y-70033332D01*
X155346009Y-70033332D02*
X155298390Y-69985713D01*
X155298390Y-69985713D02*
X155250771Y-69890475D01*
X155250771Y-69890475D02*
X155250771Y-69652380D01*
X155250771Y-69652380D02*
X155298390Y-69557142D01*
X155298390Y-69557142D02*
X155346009Y-69509523D01*
X155346009Y-69509523D02*
X155441247Y-69461904D01*
X155441247Y-69461904D02*
X155679342Y-69461904D01*
X155679342Y-69461904D02*
X155774580Y-69509523D01*
X155774580Y-69509523D02*
X155822200Y-69557142D01*
X155822200Y-69557142D02*
X155869819Y-69652380D01*
X155869819Y-69652380D02*
X155869819Y-69890475D01*
X155869819Y-69890475D02*
X155822200Y-69985713D01*
X155822200Y-69985713D02*
X155774580Y-70033332D01*
X154869819Y-68604761D02*
X154869819Y-68795237D01*
X154869819Y-68795237D02*
X154917438Y-68890475D01*
X154917438Y-68890475D02*
X154965057Y-68938094D01*
X154965057Y-68938094D02*
X155107914Y-69033332D01*
X155107914Y-69033332D02*
X155298390Y-69080951D01*
X155298390Y-69080951D02*
X155679342Y-69080951D01*
X155679342Y-69080951D02*
X155774580Y-69033332D01*
X155774580Y-69033332D02*
X155822200Y-68985713D01*
X155822200Y-68985713D02*
X155869819Y-68890475D01*
X155869819Y-68890475D02*
X155869819Y-68699999D01*
X155869819Y-68699999D02*
X155822200Y-68604761D01*
X155822200Y-68604761D02*
X155774580Y-68557142D01*
X155774580Y-68557142D02*
X155679342Y-68509523D01*
X155679342Y-68509523D02*
X155441247Y-68509523D01*
X155441247Y-68509523D02*
X155346009Y-68557142D01*
X155346009Y-68557142D02*
X155298390Y-68604761D01*
X155298390Y-68604761D02*
X155250771Y-68699999D01*
X155250771Y-68699999D02*
X155250771Y-68890475D01*
X155250771Y-68890475D02*
X155298390Y-68985713D01*
X155298390Y-68985713D02*
X155346009Y-69033332D01*
X155346009Y-69033332D02*
X155441247Y-69080951D01*
X156335000Y-71953750D02*
X160990000Y-71953750D01*
X160990000Y-73506250D01*
X156335000Y-73506250D01*
X156335000Y-71953750D01*
X158054723Y-71958750D02*
X160995000Y-71958750D01*
X160995000Y-73509026D01*
X158054723Y-73509026D01*
X158054723Y-71958750D01*
G36*
X158054723Y-71958750D02*
G01*
X160995000Y-71958750D01*
X160995000Y-73509026D01*
X158054723Y-73509026D01*
X158054723Y-71958750D01*
G37*
X156335000Y-70403750D02*
X160990000Y-70403750D01*
X160990000Y-71956250D01*
X156335000Y-71956250D01*
X156335000Y-70403750D01*
X158054723Y-70408750D02*
X160995000Y-70408750D01*
X160995000Y-71959026D01*
X158054723Y-71959026D01*
X158054723Y-70408750D01*
G36*
X158054723Y-70408750D02*
G01*
X160995000Y-70408750D01*
X160995000Y-71959026D01*
X158054723Y-71959026D01*
X158054723Y-70408750D01*
G37*
X158052223Y-68866250D02*
X160992500Y-68866250D01*
X160992500Y-70416526D01*
X158052223Y-70416526D01*
X158052223Y-68866250D01*
G36*
X158052223Y-68866250D02*
G01*
X160992500Y-68866250D01*
X160992500Y-70416526D01*
X158052223Y-70416526D01*
X158052223Y-68866250D01*
G37*
X156332500Y-68861250D02*
X160987500Y-68861250D01*
X160987500Y-70413750D01*
X156332500Y-70413750D01*
X156332500Y-68861250D01*
X163579580Y-87918570D02*
X163627200Y-87870951D01*
X163627200Y-87870951D02*
X163674819Y-87918570D01*
X163674819Y-87918570D02*
X163627200Y-87966189D01*
X163627200Y-87966189D02*
X163579580Y-87918570D01*
X163579580Y-87918570D02*
X163674819Y-87918570D01*
X163674819Y-86918571D02*
X163674819Y-87489999D01*
X163674819Y-87204285D02*
X162674819Y-87204285D01*
X162674819Y-87204285D02*
X162817676Y-87299523D01*
X162817676Y-87299523D02*
X162912914Y-87394761D01*
X162912914Y-87394761D02*
X162960533Y-87489999D01*
X163008152Y-86061428D02*
X163674819Y-86061428D01*
X163008152Y-86489999D02*
X163531961Y-86489999D01*
X163531961Y-86489999D02*
X163627200Y-86442380D01*
X163627200Y-86442380D02*
X163674819Y-86347142D01*
X163674819Y-86347142D02*
X163674819Y-86204285D01*
X163674819Y-86204285D02*
X163627200Y-86109047D01*
X163627200Y-86109047D02*
X163579580Y-86061428D01*
X147358095Y-85074819D02*
X148024761Y-85074819D01*
X148024761Y-85074819D02*
X147596190Y-86074819D01*
X148834285Y-85408152D02*
X148834285Y-86074819D01*
X148596190Y-85027200D02*
X148358095Y-85741485D01*
X148358095Y-85741485D02*
X148977142Y-85741485D01*
X149358095Y-86074819D02*
X149358095Y-85074819D01*
X149358095Y-85551009D02*
X149929523Y-85551009D01*
X149929523Y-86074819D02*
X149929523Y-85074819D01*
X150977142Y-85979580D02*
X150929523Y-86027200D01*
X150929523Y-86027200D02*
X150786666Y-86074819D01*
X150786666Y-86074819D02*
X150691428Y-86074819D01*
X150691428Y-86074819D02*
X150548571Y-86027200D01*
X150548571Y-86027200D02*
X150453333Y-85931961D01*
X150453333Y-85931961D02*
X150405714Y-85836723D01*
X150405714Y-85836723D02*
X150358095Y-85646247D01*
X150358095Y-85646247D02*
X150358095Y-85503390D01*
X150358095Y-85503390D02*
X150405714Y-85312914D01*
X150405714Y-85312914D02*
X150453333Y-85217676D01*
X150453333Y-85217676D02*
X150548571Y-85122438D01*
X150548571Y-85122438D02*
X150691428Y-85074819D01*
X150691428Y-85074819D02*
X150786666Y-85074819D01*
X150786666Y-85074819D02*
X150929523Y-85122438D01*
X150929523Y-85122438D02*
X150977142Y-85170057D01*
X151881904Y-85074819D02*
X151405714Y-85074819D01*
X151405714Y-85074819D02*
X151358095Y-85551009D01*
X151358095Y-85551009D02*
X151405714Y-85503390D01*
X151405714Y-85503390D02*
X151500952Y-85455771D01*
X151500952Y-85455771D02*
X151739047Y-85455771D01*
X151739047Y-85455771D02*
X151834285Y-85503390D01*
X151834285Y-85503390D02*
X151881904Y-85551009D01*
X151881904Y-85551009D02*
X151929523Y-85646247D01*
X151929523Y-85646247D02*
X151929523Y-85884342D01*
X151929523Y-85884342D02*
X151881904Y-85979580D01*
X151881904Y-85979580D02*
X151834285Y-86027200D01*
X151834285Y-86027200D02*
X151739047Y-86074819D01*
X151739047Y-86074819D02*
X151500952Y-86074819D01*
X151500952Y-86074819D02*
X151405714Y-86027200D01*
X151405714Y-86027200D02*
X151358095Y-85979580D01*
X152405714Y-86074819D02*
X152596190Y-86074819D01*
X152596190Y-86074819D02*
X152691428Y-86027200D01*
X152691428Y-86027200D02*
X152739047Y-85979580D01*
X152739047Y-85979580D02*
X152834285Y-85836723D01*
X152834285Y-85836723D02*
X152881904Y-85646247D01*
X152881904Y-85646247D02*
X152881904Y-85265295D01*
X152881904Y-85265295D02*
X152834285Y-85170057D01*
X152834285Y-85170057D02*
X152786666Y-85122438D01*
X152786666Y-85122438D02*
X152691428Y-85074819D01*
X152691428Y-85074819D02*
X152500952Y-85074819D01*
X152500952Y-85074819D02*
X152405714Y-85122438D01*
X152405714Y-85122438D02*
X152358095Y-85170057D01*
X152358095Y-85170057D02*
X152310476Y-85265295D01*
X152310476Y-85265295D02*
X152310476Y-85503390D01*
X152310476Y-85503390D02*
X152358095Y-85598628D01*
X152358095Y-85598628D02*
X152405714Y-85646247D01*
X152405714Y-85646247D02*
X152500952Y-85693866D01*
X152500952Y-85693866D02*
X152691428Y-85693866D01*
X152691428Y-85693866D02*
X152786666Y-85646247D01*
X152786666Y-85646247D02*
X152834285Y-85598628D01*
X152834285Y-85598628D02*
X152881904Y-85503390D01*
X153786666Y-85074819D02*
X153310476Y-85074819D01*
X153310476Y-85074819D02*
X153262857Y-85551009D01*
X153262857Y-85551009D02*
X153310476Y-85503390D01*
X153310476Y-85503390D02*
X153405714Y-85455771D01*
X153405714Y-85455771D02*
X153643809Y-85455771D01*
X153643809Y-85455771D02*
X153739047Y-85503390D01*
X153739047Y-85503390D02*
X153786666Y-85551009D01*
X153786666Y-85551009D02*
X153834285Y-85646247D01*
X153834285Y-85646247D02*
X153834285Y-85884342D01*
X153834285Y-85884342D02*
X153786666Y-85979580D01*
X153786666Y-85979580D02*
X153739047Y-86027200D01*
X153739047Y-86027200D02*
X153643809Y-86074819D01*
X153643809Y-86074819D02*
X153405714Y-86074819D01*
X153405714Y-86074819D02*
X153310476Y-86027200D01*
X153310476Y-86027200D02*
X153262857Y-85979580D01*
X121778095Y-85334819D02*
X122444761Y-85334819D01*
X122444761Y-85334819D02*
X122016190Y-86334819D01*
X123254285Y-85668152D02*
X123254285Y-86334819D01*
X123016190Y-85287200D02*
X122778095Y-86001485D01*
X122778095Y-86001485D02*
X123397142Y-86001485D01*
X123778095Y-86334819D02*
X123778095Y-85334819D01*
X123778095Y-85811009D02*
X124349523Y-85811009D01*
X124349523Y-86334819D02*
X124349523Y-85334819D01*
X125397142Y-86239580D02*
X125349523Y-86287200D01*
X125349523Y-86287200D02*
X125206666Y-86334819D01*
X125206666Y-86334819D02*
X125111428Y-86334819D01*
X125111428Y-86334819D02*
X124968571Y-86287200D01*
X124968571Y-86287200D02*
X124873333Y-86191961D01*
X124873333Y-86191961D02*
X124825714Y-86096723D01*
X124825714Y-86096723D02*
X124778095Y-85906247D01*
X124778095Y-85906247D02*
X124778095Y-85763390D01*
X124778095Y-85763390D02*
X124825714Y-85572914D01*
X124825714Y-85572914D02*
X124873333Y-85477676D01*
X124873333Y-85477676D02*
X124968571Y-85382438D01*
X124968571Y-85382438D02*
X125111428Y-85334819D01*
X125111428Y-85334819D02*
X125206666Y-85334819D01*
X125206666Y-85334819D02*
X125349523Y-85382438D01*
X125349523Y-85382438D02*
X125397142Y-85430057D01*
X126301904Y-85334819D02*
X125825714Y-85334819D01*
X125825714Y-85334819D02*
X125778095Y-85811009D01*
X125778095Y-85811009D02*
X125825714Y-85763390D01*
X125825714Y-85763390D02*
X125920952Y-85715771D01*
X125920952Y-85715771D02*
X126159047Y-85715771D01*
X126159047Y-85715771D02*
X126254285Y-85763390D01*
X126254285Y-85763390D02*
X126301904Y-85811009D01*
X126301904Y-85811009D02*
X126349523Y-85906247D01*
X126349523Y-85906247D02*
X126349523Y-86144342D01*
X126349523Y-86144342D02*
X126301904Y-86239580D01*
X126301904Y-86239580D02*
X126254285Y-86287200D01*
X126254285Y-86287200D02*
X126159047Y-86334819D01*
X126159047Y-86334819D02*
X125920952Y-86334819D01*
X125920952Y-86334819D02*
X125825714Y-86287200D01*
X125825714Y-86287200D02*
X125778095Y-86239580D01*
X126825714Y-86334819D02*
X127016190Y-86334819D01*
X127016190Y-86334819D02*
X127111428Y-86287200D01*
X127111428Y-86287200D02*
X127159047Y-86239580D01*
X127159047Y-86239580D02*
X127254285Y-86096723D01*
X127254285Y-86096723D02*
X127301904Y-85906247D01*
X127301904Y-85906247D02*
X127301904Y-85525295D01*
X127301904Y-85525295D02*
X127254285Y-85430057D01*
X127254285Y-85430057D02*
X127206666Y-85382438D01*
X127206666Y-85382438D02*
X127111428Y-85334819D01*
X127111428Y-85334819D02*
X126920952Y-85334819D01*
X126920952Y-85334819D02*
X126825714Y-85382438D01*
X126825714Y-85382438D02*
X126778095Y-85430057D01*
X126778095Y-85430057D02*
X126730476Y-85525295D01*
X126730476Y-85525295D02*
X126730476Y-85763390D01*
X126730476Y-85763390D02*
X126778095Y-85858628D01*
X126778095Y-85858628D02*
X126825714Y-85906247D01*
X126825714Y-85906247D02*
X126920952Y-85953866D01*
X126920952Y-85953866D02*
X127111428Y-85953866D01*
X127111428Y-85953866D02*
X127206666Y-85906247D01*
X127206666Y-85906247D02*
X127254285Y-85858628D01*
X127254285Y-85858628D02*
X127301904Y-85763390D01*
X128206666Y-85334819D02*
X127730476Y-85334819D01*
X127730476Y-85334819D02*
X127682857Y-85811009D01*
X127682857Y-85811009D02*
X127730476Y-85763390D01*
X127730476Y-85763390D02*
X127825714Y-85715771D01*
X127825714Y-85715771D02*
X128063809Y-85715771D01*
X128063809Y-85715771D02*
X128159047Y-85763390D01*
X128159047Y-85763390D02*
X128206666Y-85811009D01*
X128206666Y-85811009D02*
X128254285Y-85906247D01*
X128254285Y-85906247D02*
X128254285Y-86144342D01*
X128254285Y-86144342D02*
X128206666Y-86239580D01*
X128206666Y-86239580D02*
X128159047Y-86287200D01*
X128159047Y-86287200D02*
X128063809Y-86334819D01*
X128063809Y-86334819D02*
X127825714Y-86334819D01*
X127825714Y-86334819D02*
X127730476Y-86287200D01*
X127730476Y-86287200D02*
X127682857Y-86239580D01*
X108331429Y-51569580D02*
X108379048Y-51617200D01*
X108379048Y-51617200D02*
X108331429Y-51664819D01*
X108331429Y-51664819D02*
X108283810Y-51617200D01*
X108283810Y-51617200D02*
X108331429Y-51569580D01*
X108331429Y-51569580D02*
X108331429Y-51664819D01*
X109331428Y-51664819D02*
X108760000Y-51664819D01*
X109045714Y-51664819D02*
X109045714Y-50664819D01*
X109045714Y-50664819D02*
X108950476Y-50807676D01*
X108950476Y-50807676D02*
X108855238Y-50902914D01*
X108855238Y-50902914D02*
X108760000Y-50950533D01*
X110188571Y-50998152D02*
X110188571Y-51664819D01*
X109760000Y-50998152D02*
X109760000Y-51521961D01*
X109760000Y-51521961D02*
X109807619Y-51617200D01*
X109807619Y-51617200D02*
X109902857Y-51664819D01*
X109902857Y-51664819D02*
X110045714Y-51664819D01*
X110045714Y-51664819D02*
X110140952Y-51617200D01*
X110140952Y-51617200D02*
X110188571Y-51569580D01*
X137259580Y-87848570D02*
X137307200Y-87800951D01*
X137307200Y-87800951D02*
X137354819Y-87848570D01*
X137354819Y-87848570D02*
X137307200Y-87896189D01*
X137307200Y-87896189D02*
X137259580Y-87848570D01*
X137259580Y-87848570D02*
X137354819Y-87848570D01*
X137354819Y-86848571D02*
X137354819Y-87419999D01*
X137354819Y-87134285D02*
X136354819Y-87134285D01*
X136354819Y-87134285D02*
X136497676Y-87229523D01*
X136497676Y-87229523D02*
X136592914Y-87324761D01*
X136592914Y-87324761D02*
X136640533Y-87419999D01*
X136688152Y-85991428D02*
X137354819Y-85991428D01*
X136688152Y-86419999D02*
X137211961Y-86419999D01*
X137211961Y-86419999D02*
X137307200Y-86372380D01*
X137307200Y-86372380D02*
X137354819Y-86277142D01*
X137354819Y-86277142D02*
X137354819Y-86134285D01*
X137354819Y-86134285D02*
X137307200Y-86039047D01*
X137307200Y-86039047D02*
X137259580Y-85991428D01*
D12*
%TO.C,J3*%
X164830000Y-98790000D02*
X164830000Y-96130000D01*
X152070000Y-98790000D02*
X164830000Y-98790000D01*
X149470000Y-96130000D02*
X150800000Y-96130000D01*
X152070000Y-96130000D02*
X164830000Y-96130000D01*
X152070000Y-98790000D02*
X152070000Y-96130000D01*
X149470000Y-97460000D02*
X149470000Y-96130000D01*
%TO.C,J1*%
X126610000Y-96130000D02*
X127940000Y-96130000D01*
X129210000Y-98790000D02*
X129210000Y-96130000D01*
X129210000Y-96130000D02*
X147050000Y-96130000D01*
X147050000Y-98790000D02*
X147050000Y-96130000D01*
X129210000Y-98790000D02*
X147050000Y-98790000D01*
X126610000Y-97460000D02*
X126610000Y-96130000D01*
%TO.C,J4*%
X144390000Y-47870000D02*
X145720000Y-47870000D01*
X146990000Y-50530000D02*
X146990000Y-47870000D01*
X146990000Y-47870000D02*
X164830000Y-47870000D01*
X164830000Y-50530000D02*
X164830000Y-47870000D01*
X146990000Y-50530000D02*
X164830000Y-50530000D01*
X144390000Y-49200000D02*
X144390000Y-47870000D01*
%TO.C,J2*%
X117466000Y-47870000D02*
X118796000Y-47870000D01*
X120066000Y-50530000D02*
X120066000Y-47870000D01*
X120066000Y-47870000D02*
X142986000Y-47870000D01*
X117466000Y-49200000D02*
X117466000Y-47870000D01*
X142986000Y-50530000D02*
X142986000Y-47870000D01*
X120066000Y-50530000D02*
X142986000Y-50530000D01*
%TO.C,C3*%
X161860000Y-90080000D02*
X162305000Y-90080000D01*
X161860000Y-90080000D02*
X161860000Y-83840000D01*
X164155000Y-90080000D02*
X164600000Y-90080000D01*
X164600000Y-90080000D02*
X164600000Y-83840000D01*
X161860000Y-83840000D02*
X162305000Y-83840000D01*
X164155000Y-83840000D02*
X164600000Y-83840000D01*
%TO.C,U3*%
X113620000Y-77872500D02*
X111080000Y-77872500D01*
X101690000Y-76852500D02*
X103550000Y-76852500D01*
X108450000Y-76852500D02*
X152290000Y-76852500D01*
X152290000Y-76852500D02*
X152290000Y-53752500D01*
X101690000Y-74572500D02*
X103950000Y-74572500D01*
X101690000Y-53752500D02*
X101690000Y-76852500D01*
X152290000Y-53752500D02*
X101690000Y-53752500D01*
X106900000Y-76122500D02*
G75*
G03*
X106900000Y-76122500I-900000J0D01*
G01*
X108550000Y-76122500D02*
G75*
G03*
X108550000Y-76122500I-2550000J0D01*
G01*
%TO.C,U2*%
X161060000Y-82940000D02*
X140620000Y-82940000D01*
X140620000Y-82940000D02*
X140620000Y-88240000D01*
X161060000Y-84590000D02*
X161060000Y-82940000D01*
X161060000Y-88240000D02*
X161060000Y-86590000D01*
X140620000Y-88240000D02*
X161060000Y-88240000D01*
X161060000Y-84590000D02*
G75*
G03*
X161060000Y-86590000I0J-1000000D01*
G01*
%TO.C,J5*%
X154940000Y-65840000D02*
X154940000Y-64510000D01*
X156270000Y-65840000D02*
X154940000Y-65840000D01*
X157540000Y-65840000D02*
X162680000Y-65840000D01*
X157540000Y-65840000D02*
X157540000Y-63180000D01*
X162680000Y-65840000D02*
X162680000Y-63180000D01*
X157540000Y-63180000D02*
X162680000Y-63180000D01*
%TO.C,U1*%
X135095000Y-82940000D02*
X114655000Y-82940000D01*
X114655000Y-82940000D02*
X114655000Y-88240000D01*
X135095000Y-84590000D02*
X135095000Y-82940000D01*
X135095000Y-88240000D02*
X135095000Y-86590000D01*
X114655000Y-88240000D02*
X135095000Y-88240000D01*
X135095000Y-84590000D02*
G75*
G03*
X135095000Y-86590000I0J-1000000D01*
G01*
%TO.C,C1*%
X112330000Y-52710000D02*
X112330000Y-52265000D01*
X112330000Y-52710000D02*
X106090000Y-52710000D01*
X112330000Y-50415000D02*
X112330000Y-49970000D01*
X112330000Y-49970000D02*
X106090000Y-49970000D01*
X106090000Y-52710000D02*
X106090000Y-52265000D01*
X106090000Y-50415000D02*
X106090000Y-49970000D01*
%TO.C,C2*%
X135640000Y-90040000D02*
X136085000Y-90040000D01*
X135640000Y-90040000D02*
X135640000Y-83800000D01*
X137935000Y-90040000D02*
X138380000Y-90040000D01*
X138380000Y-90040000D02*
X138380000Y-83800000D01*
X135640000Y-83800000D02*
X136085000Y-83800000D01*
X137935000Y-83800000D02*
X138380000Y-83800000D01*
%TO.C,J7*%
X154940000Y-56540000D02*
X154940000Y-55210000D01*
X156270000Y-56540000D02*
X154940000Y-56540000D01*
X157540000Y-56540000D02*
X162680000Y-56540000D01*
X157540000Y-56540000D02*
X157540000Y-53880000D01*
X162680000Y-56540000D02*
X162680000Y-53880000D01*
X157540000Y-53880000D02*
X162680000Y-53880000D01*
%TO.C,J6*%
X154940000Y-61190000D02*
X154940000Y-59860000D01*
X156270000Y-61190000D02*
X154940000Y-61190000D01*
X157540000Y-61190000D02*
X162680000Y-61190000D01*
X157540000Y-61190000D02*
X157540000Y-58530000D01*
X162680000Y-61190000D02*
X162680000Y-58530000D01*
X157540000Y-58530000D02*
X162680000Y-58530000D01*
%TD*%
M02*
