%TF.GenerationSoftware,KiCad,Pcbnew,8.0.7*%
%TF.CreationDate,2025-05-14T18:58:00+01:00*%
%TF.ProjectId,ESP32-S3-Experimenter,45535033-322d-4533-932d-457870657269,rev?*%
%TF.SameCoordinates,Original*%
%TF.FileFunction,Legend,Bot*%
%TF.FilePolarity,Positive*%
%FSLAX46Y46*%
G04 Gerber Fmt 4.6, Leading zero omitted, Abs format (unit mm)*
G04 Created by KiCad (PCBNEW 8.0.7) date 2025-05-14 18:58:00*
%MOMM*%
%LPD*%
G01*
G04 APERTURE LIST*
%ADD10C,0.100000*%
%ADD11C,0.120000*%
%ADD12C,2.499360*%
G04 APERTURE END LIST*
D10*
G36*
X123984669Y-88544056D02*
G01*
X124016050Y-88575437D01*
X124052823Y-88648984D01*
X124092857Y-88809117D01*
X124092857Y-89011094D01*
X124052824Y-89171226D01*
X124016050Y-89244772D01*
X123984666Y-89276157D01*
X123916769Y-89310106D01*
X123854660Y-89310106D01*
X123786762Y-89276157D01*
X123755377Y-89244772D01*
X123718603Y-89171225D01*
X123678571Y-89011094D01*
X123678571Y-88809117D01*
X123718603Y-88648985D01*
X123755378Y-88575437D01*
X123786760Y-88544056D01*
X123854660Y-88510106D01*
X123916769Y-88510106D01*
X123984669Y-88544056D01*
G37*
G36*
X125784669Y-88544056D02*
G01*
X125854851Y-88614238D01*
X125892857Y-88766260D01*
X125892857Y-89053951D01*
X125854851Y-89205972D01*
X125784667Y-89276157D01*
X125716769Y-89310106D01*
X125568945Y-89310106D01*
X125501048Y-89276157D01*
X125430862Y-89205971D01*
X125392857Y-89053951D01*
X125392857Y-88766260D01*
X125430862Y-88614238D01*
X125501045Y-88544055D01*
X125568945Y-88510106D01*
X125716769Y-88510106D01*
X125784669Y-88544056D01*
G37*
G36*
X127178571Y-88881534D02*
G01*
X126897516Y-88881534D01*
X126829616Y-88847584D01*
X126798235Y-88816203D01*
X126764285Y-88748303D01*
X126764285Y-88643337D01*
X126798235Y-88575437D01*
X126829616Y-88544055D01*
X126897516Y-88510106D01*
X127178571Y-88510106D01*
X127178571Y-88881534D01*
G37*
G36*
X126900000Y-87432585D02*
G01*
X126618945Y-87432585D01*
X126551045Y-87398635D01*
X126519664Y-87367254D01*
X126485714Y-87299354D01*
X126485714Y-87194388D01*
X126519664Y-87126488D01*
X126551045Y-87095106D01*
X126618945Y-87061157D01*
X126900000Y-87061157D01*
X126900000Y-87432585D01*
G37*
G36*
X125356097Y-85646158D02*
G01*
X125426279Y-85716340D01*
X125464285Y-85868362D01*
X125464285Y-86156053D01*
X125426279Y-86308074D01*
X125356095Y-86378259D01*
X125288197Y-86412208D01*
X125140373Y-86412208D01*
X125072476Y-86378259D01*
X125002290Y-86308073D01*
X124964285Y-86156053D01*
X124964285Y-85868362D01*
X125002290Y-85716340D01*
X125072473Y-85646157D01*
X125140373Y-85612208D01*
X125288197Y-85612208D01*
X125356097Y-85646158D01*
G37*
G36*
X126749999Y-85983636D02*
G01*
X126468944Y-85983636D01*
X126401044Y-85949686D01*
X126369663Y-85918305D01*
X126335713Y-85850405D01*
X126335713Y-85745439D01*
X126369663Y-85677539D01*
X126401044Y-85646157D01*
X126468944Y-85612208D01*
X126749999Y-85612208D01*
X126749999Y-85983636D01*
G37*
G36*
X128321428Y-89510106D02*
G01*
X123478571Y-89510106D01*
X123478571Y-88802963D01*
X123578571Y-88802963D01*
X123578571Y-89017249D01*
X123579766Y-89023258D01*
X123580064Y-89029376D01*
X123622921Y-89200804D01*
X123625260Y-89205756D01*
X123626707Y-89211038D01*
X123669565Y-89296752D01*
X123674476Y-89303080D01*
X123678930Y-89309746D01*
X123721787Y-89352604D01*
X123728453Y-89357058D01*
X123734782Y-89361970D01*
X123820496Y-89404827D01*
X123822911Y-89405488D01*
X123823723Y-89406300D01*
X123831584Y-89407863D01*
X123839312Y-89409980D01*
X123840400Y-89409617D01*
X123842857Y-89410106D01*
X123928571Y-89410106D01*
X123931027Y-89409617D01*
X123932115Y-89409980D01*
X123939839Y-89407864D01*
X123947705Y-89406300D01*
X123948516Y-89405488D01*
X123950931Y-89404827D01*
X124036646Y-89361970D01*
X124042967Y-89357063D01*
X124049642Y-89352604D01*
X124061274Y-89340972D01*
X124439520Y-89340972D01*
X124439520Y-89379240D01*
X124466580Y-89406300D01*
X124485714Y-89410106D01*
X125000000Y-89410106D01*
X125019134Y-89406300D01*
X125046194Y-89379240D01*
X125046194Y-89340972D01*
X125019134Y-89313912D01*
X125000000Y-89310106D01*
X124792857Y-89310106D01*
X124792857Y-88623495D01*
X124793216Y-88624033D01*
X124878931Y-88709747D01*
X124885596Y-88714200D01*
X124891925Y-88719112D01*
X124977639Y-88761970D01*
X124996455Y-88767123D01*
X125017507Y-88760106D01*
X125292857Y-88760106D01*
X125292857Y-89060106D01*
X125294052Y-89066115D01*
X125294350Y-89072233D01*
X125337207Y-89243661D01*
X125339520Y-89248557D01*
X125339520Y-89250668D01*
X125342924Y-89255763D01*
X125345540Y-89261300D01*
X125347348Y-89262385D01*
X125350358Y-89266889D01*
X125436073Y-89352604D01*
X125442739Y-89357058D01*
X125449068Y-89361970D01*
X125534782Y-89404827D01*
X125537197Y-89405488D01*
X125538009Y-89406300D01*
X125545873Y-89407864D01*
X125553599Y-89409980D01*
X125554686Y-89409617D01*
X125557143Y-89410106D01*
X125728571Y-89410106D01*
X125731027Y-89409617D01*
X125732115Y-89409980D01*
X125739839Y-89407864D01*
X125747705Y-89406300D01*
X125748516Y-89405488D01*
X125750931Y-89404827D01*
X125836646Y-89361970D01*
X125842967Y-89357063D01*
X125849642Y-89352604D01*
X125935356Y-89266889D01*
X125938365Y-89262385D01*
X125940174Y-89261300D01*
X125942789Y-89255763D01*
X125946194Y-89250668D01*
X125946194Y-89248557D01*
X125948507Y-89243661D01*
X125991364Y-89072233D01*
X125991661Y-89066115D01*
X125992857Y-89060106D01*
X125992857Y-88760106D01*
X125991661Y-88754096D01*
X125991364Y-88747979D01*
X125948507Y-88576550D01*
X125946194Y-88571653D01*
X125946194Y-88569543D01*
X125942790Y-88564449D01*
X125940174Y-88558911D01*
X125938363Y-88557824D01*
X125935355Y-88553322D01*
X125849641Y-88467608D01*
X125842974Y-88463153D01*
X125839048Y-88460106D01*
X126278571Y-88460106D01*
X126278571Y-89360106D01*
X126282377Y-89379240D01*
X126309437Y-89406300D01*
X126347705Y-89406300D01*
X126374765Y-89379240D01*
X126378571Y-89360106D01*
X126378571Y-88631534D01*
X126664285Y-88631534D01*
X126664285Y-88760106D01*
X126664773Y-88762562D01*
X126664411Y-88763651D01*
X126666527Y-88771378D01*
X126668091Y-88779240D01*
X126668902Y-88780051D01*
X126669564Y-88782467D01*
X126712421Y-88868181D01*
X126717334Y-88874512D01*
X126721787Y-88881175D01*
X126764644Y-88924032D01*
X126771310Y-88928486D01*
X126777639Y-88933398D01*
X126863353Y-88976255D01*
X126865768Y-88976916D01*
X126866580Y-88977728D01*
X126874444Y-88979292D01*
X126882170Y-88981408D01*
X126883257Y-88981045D01*
X126885714Y-88981534D01*
X127178571Y-88981534D01*
X127178571Y-89360106D01*
X127182377Y-89379240D01*
X127209437Y-89406300D01*
X127247705Y-89406300D01*
X127274765Y-89379240D01*
X127278571Y-89360106D01*
X127278571Y-88974391D01*
X127564285Y-88974391D01*
X127564285Y-89274391D01*
X127568091Y-89293525D01*
X127578929Y-89309746D01*
X127621786Y-89352604D01*
X127623868Y-89353995D01*
X127624382Y-89355022D01*
X127631340Y-89358988D01*
X127638007Y-89363443D01*
X127639156Y-89363443D01*
X127641331Y-89364683D01*
X127769903Y-89407540D01*
X127777850Y-89408541D01*
X127785714Y-89410106D01*
X127871428Y-89410106D01*
X127879290Y-89408542D01*
X127887239Y-89407540D01*
X128015811Y-89364683D01*
X128017986Y-89363443D01*
X128019133Y-89363443D01*
X128025791Y-89358993D01*
X128032759Y-89355022D01*
X128033272Y-89353994D01*
X128035354Y-89352604D01*
X128121069Y-89266890D01*
X128125523Y-89260223D01*
X128130435Y-89253895D01*
X128173292Y-89168181D01*
X128174738Y-89162899D01*
X128177078Y-89157947D01*
X128219935Y-88986518D01*
X128220232Y-88980400D01*
X128221428Y-88974391D01*
X128221428Y-88845820D01*
X128220232Y-88839810D01*
X128219935Y-88833693D01*
X128177078Y-88662264D01*
X128174738Y-88657311D01*
X128173292Y-88652030D01*
X128130435Y-88566316D01*
X128125519Y-88559981D01*
X128121069Y-88553322D01*
X128035354Y-88467607D01*
X128033271Y-88466215D01*
X128032759Y-88465190D01*
X128025795Y-88461220D01*
X128019133Y-88456769D01*
X128017986Y-88456769D01*
X128015811Y-88455529D01*
X127887239Y-88412672D01*
X127879290Y-88411669D01*
X127871428Y-88410106D01*
X127742857Y-88410106D01*
X127740400Y-88410594D01*
X127739313Y-88410232D01*
X127731587Y-88412347D01*
X127723723Y-88413912D01*
X127722911Y-88414723D01*
X127720496Y-88415385D01*
X127634782Y-88458242D01*
X127619370Y-88470203D01*
X127607268Y-88506507D01*
X127624382Y-88540735D01*
X127660686Y-88552837D01*
X127679502Y-88547684D01*
X127754659Y-88510106D01*
X127863315Y-88510106D01*
X127972989Y-88546664D01*
X128044622Y-88618296D01*
X128081394Y-88691841D01*
X128121428Y-88851974D01*
X128121428Y-88968236D01*
X128081394Y-89128369D01*
X128044621Y-89201915D01*
X127972990Y-89273547D01*
X127863315Y-89310106D01*
X127793828Y-89310106D01*
X127684152Y-89273548D01*
X127664285Y-89253680D01*
X127664285Y-89024391D01*
X127785714Y-89024391D01*
X127804848Y-89020585D01*
X127831908Y-88993525D01*
X127831908Y-88955257D01*
X127804848Y-88928197D01*
X127785714Y-88924391D01*
X127614285Y-88924391D01*
X127595151Y-88928197D01*
X127568091Y-88955257D01*
X127564285Y-88974391D01*
X127278571Y-88974391D01*
X127278571Y-88460106D01*
X127274765Y-88440972D01*
X127247705Y-88413912D01*
X127228571Y-88410106D01*
X126885714Y-88410106D01*
X126883257Y-88410594D01*
X126882170Y-88410232D01*
X126874444Y-88412347D01*
X126866580Y-88413912D01*
X126865768Y-88414723D01*
X126863353Y-88415385D01*
X126777639Y-88458242D01*
X126771310Y-88463153D01*
X126764644Y-88467608D01*
X126721787Y-88510465D01*
X126717334Y-88517127D01*
X126712421Y-88523459D01*
X126669564Y-88609173D01*
X126668902Y-88611588D01*
X126668091Y-88612400D01*
X126666527Y-88620261D01*
X126664411Y-88627989D01*
X126664773Y-88629077D01*
X126664285Y-88631534D01*
X126378571Y-88631534D01*
X126378571Y-88460106D01*
X126374765Y-88440972D01*
X126347705Y-88413912D01*
X126309437Y-88413912D01*
X126282377Y-88440972D01*
X126278571Y-88460106D01*
X125839048Y-88460106D01*
X125836646Y-88458242D01*
X125750931Y-88415385D01*
X125748516Y-88414723D01*
X125747705Y-88413912D01*
X125739839Y-88412347D01*
X125732115Y-88410232D01*
X125731027Y-88410594D01*
X125728571Y-88410106D01*
X125557143Y-88410106D01*
X125554686Y-88410594D01*
X125553599Y-88410232D01*
X125545873Y-88412347D01*
X125538009Y-88413912D01*
X125537197Y-88414723D01*
X125534782Y-88415385D01*
X125449068Y-88458242D01*
X125442739Y-88463153D01*
X125436073Y-88467608D01*
X125350359Y-88553322D01*
X125347350Y-88557824D01*
X125345540Y-88558911D01*
X125342923Y-88564449D01*
X125339520Y-88569543D01*
X125339520Y-88571653D01*
X125337207Y-88576550D01*
X125294350Y-88747979D01*
X125294052Y-88754096D01*
X125292857Y-88760106D01*
X125017507Y-88760106D01*
X125032760Y-88755022D01*
X125049874Y-88720794D01*
X125037773Y-88684489D01*
X125022361Y-88672528D01*
X124943903Y-88633298D01*
X124867425Y-88556820D01*
X124784460Y-88432371D01*
X124770679Y-88418562D01*
X124765631Y-88417552D01*
X124761991Y-88413912D01*
X124747429Y-88413912D01*
X124733154Y-88411057D01*
X124728871Y-88413912D01*
X124723723Y-88413912D01*
X124713426Y-88424208D01*
X124701313Y-88432284D01*
X124700303Y-88437331D01*
X124696663Y-88440972D01*
X124692857Y-88460106D01*
X124692857Y-89310106D01*
X124485714Y-89310106D01*
X124466580Y-89313912D01*
X124439520Y-89340972D01*
X124061274Y-89340972D01*
X124092499Y-89309746D01*
X124096952Y-89303080D01*
X124101864Y-89296752D01*
X124144721Y-89211038D01*
X124146167Y-89205756D01*
X124148507Y-89200804D01*
X124191364Y-89029376D01*
X124191661Y-89023258D01*
X124192857Y-89017249D01*
X124192857Y-88802963D01*
X124191661Y-88796953D01*
X124191364Y-88790836D01*
X124148507Y-88619407D01*
X124146167Y-88614454D01*
X124144721Y-88609173D01*
X124101864Y-88523459D01*
X124096948Y-88517124D01*
X124092498Y-88510465D01*
X124049641Y-88467608D01*
X124042974Y-88463153D01*
X124036646Y-88458242D01*
X123950931Y-88415385D01*
X123948516Y-88414723D01*
X123947705Y-88413912D01*
X123939839Y-88412347D01*
X123932115Y-88410232D01*
X123931027Y-88410594D01*
X123928571Y-88410106D01*
X123842857Y-88410106D01*
X123840400Y-88410594D01*
X123839312Y-88410232D01*
X123831584Y-88412348D01*
X123823723Y-88413912D01*
X123822911Y-88414723D01*
X123820496Y-88415385D01*
X123734782Y-88458242D01*
X123728447Y-88463157D01*
X123721788Y-88467608D01*
X123678931Y-88510465D01*
X123674480Y-88517124D01*
X123669565Y-88523459D01*
X123626707Y-88609173D01*
X123625260Y-88614454D01*
X123622921Y-88619407D01*
X123580064Y-88790836D01*
X123579766Y-88796953D01*
X123578571Y-88802963D01*
X123478571Y-88802963D01*
X123478571Y-87525442D01*
X124757142Y-87525442D01*
X124757142Y-87739728D01*
X124757630Y-87742184D01*
X124757268Y-87743273D01*
X124759384Y-87751000D01*
X124760948Y-87758862D01*
X124761759Y-87759673D01*
X124762421Y-87762089D01*
X124805278Y-87847803D01*
X124810191Y-87854134D01*
X124814644Y-87860797D01*
X124857501Y-87903655D01*
X124864167Y-87908109D01*
X124870496Y-87913021D01*
X124956210Y-87955878D01*
X124958625Y-87956539D01*
X124959437Y-87957351D01*
X124967298Y-87958914D01*
X124975026Y-87961031D01*
X124976114Y-87960668D01*
X124978571Y-87961157D01*
X125235714Y-87961157D01*
X125238170Y-87960668D01*
X125239259Y-87961031D01*
X125246986Y-87958914D01*
X125254848Y-87957351D01*
X125255659Y-87956539D01*
X125258075Y-87955878D01*
X125343789Y-87913021D01*
X125350114Y-87908111D01*
X125356784Y-87903655D01*
X125399641Y-87860797D01*
X125410479Y-87844576D01*
X125410479Y-87806307D01*
X125383419Y-87779248D01*
X125345150Y-87779248D01*
X125328929Y-87790087D01*
X125291808Y-87827208D01*
X125223911Y-87861157D01*
X124990374Y-87861157D01*
X124922475Y-87827207D01*
X124891091Y-87795824D01*
X124857142Y-87727925D01*
X124857142Y-87537245D01*
X124891090Y-87469347D01*
X124922475Y-87437963D01*
X124990374Y-87404014D01*
X125107142Y-87404014D01*
X125121084Y-87401240D01*
X125123161Y-87401379D01*
X125123976Y-87400665D01*
X125126276Y-87400208D01*
X125138713Y-87387771D01*
X125151961Y-87376179D01*
X125152079Y-87374404D01*
X125153336Y-87373148D01*
X125153336Y-87355557D01*
X125154507Y-87337995D01*
X125153336Y-87335961D01*
X125153336Y-87334880D01*
X125151867Y-87333411D01*
X125144771Y-87321089D01*
X124917330Y-87061157D01*
X125364285Y-87061157D01*
X125383419Y-87057351D01*
X125410479Y-87030291D01*
X125410479Y-87007613D01*
X125528697Y-87007613D01*
X125531137Y-87026968D01*
X125831137Y-87926968D01*
X125840798Y-87943917D01*
X125844140Y-87945587D01*
X125845811Y-87948930D01*
X125860850Y-87953943D01*
X125875027Y-87961031D01*
X125878570Y-87959849D01*
X125882115Y-87961031D01*
X125896294Y-87953941D01*
X125911331Y-87948929D01*
X125913001Y-87945588D01*
X125916344Y-87943917D01*
X125926005Y-87926968D01*
X126174133Y-87182585D01*
X126385714Y-87182585D01*
X126385714Y-87311157D01*
X126386202Y-87313613D01*
X126385840Y-87314702D01*
X126387956Y-87322429D01*
X126389520Y-87330291D01*
X126390331Y-87331102D01*
X126390993Y-87333518D01*
X126433850Y-87419232D01*
X126438763Y-87425563D01*
X126443216Y-87432226D01*
X126486073Y-87475083D01*
X126492739Y-87479537D01*
X126499068Y-87484449D01*
X126584782Y-87527306D01*
X126587197Y-87527967D01*
X126588009Y-87528779D01*
X126595873Y-87530343D01*
X126603599Y-87532459D01*
X126604686Y-87532096D01*
X126607143Y-87532585D01*
X126639682Y-87532585D01*
X126394752Y-87882484D01*
X126386898Y-87900342D01*
X126393548Y-87938028D01*
X126424899Y-87959973D01*
X126462585Y-87953323D01*
X126476676Y-87939830D01*
X126761747Y-87532585D01*
X126900000Y-87532585D01*
X126900000Y-87911157D01*
X126903806Y-87930291D01*
X126930866Y-87957351D01*
X126969134Y-87957351D01*
X126996194Y-87930291D01*
X127000000Y-87911157D01*
X127000000Y-87011157D01*
X126996194Y-86992023D01*
X126969134Y-86964963D01*
X126950000Y-86961157D01*
X126607143Y-86961157D01*
X126604686Y-86961645D01*
X126603599Y-86961283D01*
X126595873Y-86963398D01*
X126588009Y-86964963D01*
X126587197Y-86965774D01*
X126584782Y-86966436D01*
X126499068Y-87009293D01*
X126492739Y-87014204D01*
X126486073Y-87018659D01*
X126443216Y-87061516D01*
X126438763Y-87068178D01*
X126433850Y-87074510D01*
X126390993Y-87160224D01*
X126390331Y-87162639D01*
X126389520Y-87163451D01*
X126387956Y-87171312D01*
X126385840Y-87179040D01*
X126386202Y-87180128D01*
X126385714Y-87182585D01*
X126174133Y-87182585D01*
X126226005Y-87026969D01*
X126228445Y-87007613D01*
X126211331Y-86973385D01*
X126175027Y-86961283D01*
X126140798Y-86978397D01*
X126131137Y-86995346D01*
X125878571Y-87753043D01*
X125626005Y-86995346D01*
X125616344Y-86978397D01*
X125582115Y-86961283D01*
X125545811Y-86973384D01*
X125528697Y-87007613D01*
X125410479Y-87007613D01*
X125410479Y-86992023D01*
X125383419Y-86964963D01*
X125364285Y-86961157D01*
X124807142Y-86961157D01*
X124793195Y-86963931D01*
X124791123Y-86963793D01*
X124790308Y-86964505D01*
X124788008Y-86964963D01*
X124775567Y-86977403D01*
X124762323Y-86988992D01*
X124762204Y-86990766D01*
X124760948Y-86992023D01*
X124760948Y-87009621D01*
X124759778Y-87027176D01*
X124760948Y-87029207D01*
X124760948Y-87030291D01*
X124762418Y-87031761D01*
X124769513Y-87044082D01*
X124996953Y-87304014D01*
X124978571Y-87304014D01*
X124976114Y-87304502D01*
X124975026Y-87304140D01*
X124967298Y-87306256D01*
X124959437Y-87307820D01*
X124958625Y-87308631D01*
X124956210Y-87309293D01*
X124870496Y-87352150D01*
X124864167Y-87357061D01*
X124857502Y-87361515D01*
X124814644Y-87404372D01*
X124810187Y-87411041D01*
X124805278Y-87417367D01*
X124762421Y-87503081D01*
X124761759Y-87505496D01*
X124760948Y-87506308D01*
X124759384Y-87514169D01*
X124757268Y-87521897D01*
X124757630Y-87522985D01*
X124757142Y-87525442D01*
X123478571Y-87525442D01*
X123478571Y-86076493D01*
X124007142Y-86076493D01*
X124007142Y-86290779D01*
X124007630Y-86293235D01*
X124007268Y-86294324D01*
X124009384Y-86302051D01*
X124010948Y-86309913D01*
X124011759Y-86310724D01*
X124012421Y-86313140D01*
X124055278Y-86398854D01*
X124060191Y-86405185D01*
X124064644Y-86411848D01*
X124107501Y-86454706D01*
X124114167Y-86459160D01*
X124120496Y-86464072D01*
X124206210Y-86506929D01*
X124208625Y-86507590D01*
X124209437Y-86508402D01*
X124217298Y-86509965D01*
X124225026Y-86512082D01*
X124226114Y-86511719D01*
X124228571Y-86512208D01*
X124485714Y-86512208D01*
X124488170Y-86511719D01*
X124489259Y-86512082D01*
X124496986Y-86509965D01*
X124504848Y-86508402D01*
X124505659Y-86507590D01*
X124508075Y-86506929D01*
X124593789Y-86464072D01*
X124600114Y-86459162D01*
X124606784Y-86454706D01*
X124649641Y-86411848D01*
X124660479Y-86395627D01*
X124660479Y-86357358D01*
X124633419Y-86330299D01*
X124595150Y-86330299D01*
X124578929Y-86341138D01*
X124541808Y-86378259D01*
X124473911Y-86412208D01*
X124240374Y-86412208D01*
X124172475Y-86378258D01*
X124141091Y-86346875D01*
X124107142Y-86278976D01*
X124107142Y-86088296D01*
X124141090Y-86020398D01*
X124172475Y-85989014D01*
X124240374Y-85955065D01*
X124357142Y-85955065D01*
X124371084Y-85952291D01*
X124373161Y-85952430D01*
X124373976Y-85951716D01*
X124376276Y-85951259D01*
X124388713Y-85938822D01*
X124401961Y-85927230D01*
X124402079Y-85925455D01*
X124403336Y-85924199D01*
X124403336Y-85906608D01*
X124404507Y-85889046D01*
X124403336Y-85887012D01*
X124403336Y-85885931D01*
X124401867Y-85884462D01*
X124394771Y-85872140D01*
X124386080Y-85862208D01*
X124864285Y-85862208D01*
X124864285Y-86162208D01*
X124865480Y-86168217D01*
X124865778Y-86174335D01*
X124908635Y-86345763D01*
X124910948Y-86350659D01*
X124910948Y-86352770D01*
X124914352Y-86357865D01*
X124916968Y-86363402D01*
X124918776Y-86364487D01*
X124921786Y-86368991D01*
X125007501Y-86454706D01*
X125014167Y-86459160D01*
X125020496Y-86464072D01*
X125106210Y-86506929D01*
X125108625Y-86507590D01*
X125109437Y-86508402D01*
X125117301Y-86509966D01*
X125125027Y-86512082D01*
X125126114Y-86511719D01*
X125128571Y-86512208D01*
X125299999Y-86512208D01*
X125302455Y-86511719D01*
X125303543Y-86512082D01*
X125311267Y-86509966D01*
X125319133Y-86508402D01*
X125319944Y-86507590D01*
X125322359Y-86506929D01*
X125408074Y-86464072D01*
X125414395Y-86459165D01*
X125421070Y-86454706D01*
X125506784Y-86368991D01*
X125509793Y-86364487D01*
X125511602Y-86363402D01*
X125514217Y-86357865D01*
X125517622Y-86352770D01*
X125517622Y-86350659D01*
X125519935Y-86345763D01*
X125562792Y-86174335D01*
X125563089Y-86168217D01*
X125564285Y-86162208D01*
X125564285Y-85862208D01*
X125563089Y-85856198D01*
X125562792Y-85850081D01*
X125519935Y-85678652D01*
X125517622Y-85673755D01*
X125517622Y-85671645D01*
X125514218Y-85666551D01*
X125511602Y-85661013D01*
X125509791Y-85659926D01*
X125506783Y-85655424D01*
X125421069Y-85569710D01*
X125414402Y-85565255D01*
X125410476Y-85562208D01*
X125849999Y-85562208D01*
X125849999Y-86462208D01*
X125853805Y-86481342D01*
X125880865Y-86508402D01*
X125919133Y-86508402D01*
X125946193Y-86481342D01*
X125949999Y-86462208D01*
X125949999Y-85733636D01*
X126235713Y-85733636D01*
X126235713Y-85862208D01*
X126236201Y-85864664D01*
X126235839Y-85865753D01*
X126237955Y-85873480D01*
X126239519Y-85881342D01*
X126240330Y-85882153D01*
X126240992Y-85884569D01*
X126283849Y-85970283D01*
X126288762Y-85976614D01*
X126293215Y-85983277D01*
X126336072Y-86026134D01*
X126342738Y-86030588D01*
X126349067Y-86035500D01*
X126434781Y-86078357D01*
X126437196Y-86079018D01*
X126438008Y-86079830D01*
X126445872Y-86081394D01*
X126453598Y-86083510D01*
X126454685Y-86083147D01*
X126457142Y-86083636D01*
X126749999Y-86083636D01*
X126749999Y-86462208D01*
X126753805Y-86481342D01*
X126780865Y-86508402D01*
X126819133Y-86508402D01*
X126846193Y-86481342D01*
X126849999Y-86462208D01*
X126849999Y-86076493D01*
X127135713Y-86076493D01*
X127135713Y-86376493D01*
X127139519Y-86395627D01*
X127150357Y-86411848D01*
X127193214Y-86454706D01*
X127195296Y-86456097D01*
X127195810Y-86457124D01*
X127202768Y-86461090D01*
X127209435Y-86465545D01*
X127210584Y-86465545D01*
X127212759Y-86466785D01*
X127341331Y-86509642D01*
X127349278Y-86510643D01*
X127357142Y-86512208D01*
X127442856Y-86512208D01*
X127450718Y-86510644D01*
X127458667Y-86509642D01*
X127587239Y-86466785D01*
X127589414Y-86465545D01*
X127590561Y-86465545D01*
X127597219Y-86461095D01*
X127604187Y-86457124D01*
X127604700Y-86456096D01*
X127606782Y-86454706D01*
X127692497Y-86368992D01*
X127696951Y-86362325D01*
X127701863Y-86355997D01*
X127744720Y-86270283D01*
X127746166Y-86265001D01*
X127748506Y-86260049D01*
X127791363Y-86088620D01*
X127791660Y-86082502D01*
X127792856Y-86076493D01*
X127792856Y-85947922D01*
X127791660Y-85941912D01*
X127791363Y-85935795D01*
X127748506Y-85764366D01*
X127746166Y-85759413D01*
X127744720Y-85754132D01*
X127701863Y-85668418D01*
X127696947Y-85662083D01*
X127692497Y-85655424D01*
X127606782Y-85569709D01*
X127604699Y-85568317D01*
X127604187Y-85567292D01*
X127597223Y-85563322D01*
X127590561Y-85558871D01*
X127589414Y-85558871D01*
X127587239Y-85557631D01*
X127458667Y-85514774D01*
X127450718Y-85513771D01*
X127442856Y-85512208D01*
X127314285Y-85512208D01*
X127311828Y-85512696D01*
X127310741Y-85512334D01*
X127303015Y-85514449D01*
X127295151Y-85516014D01*
X127294339Y-85516825D01*
X127291924Y-85517487D01*
X127206210Y-85560344D01*
X127190798Y-85572305D01*
X127178696Y-85608609D01*
X127195810Y-85642837D01*
X127232114Y-85654939D01*
X127250930Y-85649786D01*
X127326087Y-85612208D01*
X127434743Y-85612208D01*
X127544417Y-85648766D01*
X127616050Y-85720398D01*
X127652822Y-85793943D01*
X127692856Y-85954076D01*
X127692856Y-86070338D01*
X127652822Y-86230471D01*
X127616049Y-86304017D01*
X127544418Y-86375649D01*
X127434743Y-86412208D01*
X127365256Y-86412208D01*
X127255580Y-86375650D01*
X127235713Y-86355782D01*
X127235713Y-86126493D01*
X127357142Y-86126493D01*
X127376276Y-86122687D01*
X127403336Y-86095627D01*
X127403336Y-86057359D01*
X127376276Y-86030299D01*
X127357142Y-86026493D01*
X127185713Y-86026493D01*
X127166579Y-86030299D01*
X127139519Y-86057359D01*
X127135713Y-86076493D01*
X126849999Y-86076493D01*
X126849999Y-85562208D01*
X126846193Y-85543074D01*
X126819133Y-85516014D01*
X126799999Y-85512208D01*
X126457142Y-85512208D01*
X126454685Y-85512696D01*
X126453598Y-85512334D01*
X126445872Y-85514449D01*
X126438008Y-85516014D01*
X126437196Y-85516825D01*
X126434781Y-85517487D01*
X126349067Y-85560344D01*
X126342738Y-85565255D01*
X126336072Y-85569710D01*
X126293215Y-85612567D01*
X126288762Y-85619229D01*
X126283849Y-85625561D01*
X126240992Y-85711275D01*
X126240330Y-85713690D01*
X126239519Y-85714502D01*
X126237955Y-85722363D01*
X126235839Y-85730091D01*
X126236201Y-85731179D01*
X126235713Y-85733636D01*
X125949999Y-85733636D01*
X125949999Y-85562208D01*
X125946193Y-85543074D01*
X125919133Y-85516014D01*
X125880865Y-85516014D01*
X125853805Y-85543074D01*
X125849999Y-85562208D01*
X125410476Y-85562208D01*
X125408074Y-85560344D01*
X125322359Y-85517487D01*
X125319944Y-85516825D01*
X125319133Y-85516014D01*
X125311267Y-85514449D01*
X125303543Y-85512334D01*
X125302455Y-85512696D01*
X125299999Y-85512208D01*
X125128571Y-85512208D01*
X125126114Y-85512696D01*
X125125027Y-85512334D01*
X125117301Y-85514449D01*
X125109437Y-85516014D01*
X125108625Y-85516825D01*
X125106210Y-85517487D01*
X125020496Y-85560344D01*
X125014167Y-85565255D01*
X125007501Y-85569710D01*
X124921787Y-85655424D01*
X124918778Y-85659926D01*
X124916968Y-85661013D01*
X124914351Y-85666551D01*
X124910948Y-85671645D01*
X124910948Y-85673755D01*
X124908635Y-85678652D01*
X124865778Y-85850081D01*
X124865480Y-85856198D01*
X124864285Y-85862208D01*
X124386080Y-85862208D01*
X124167330Y-85612208D01*
X124614285Y-85612208D01*
X124633419Y-85608402D01*
X124660479Y-85581342D01*
X124660479Y-85543074D01*
X124633419Y-85516014D01*
X124614285Y-85512208D01*
X124057142Y-85512208D01*
X124043195Y-85514982D01*
X124041123Y-85514844D01*
X124040308Y-85515556D01*
X124038008Y-85516014D01*
X124025567Y-85528454D01*
X124012323Y-85540043D01*
X124012204Y-85541817D01*
X124010948Y-85543074D01*
X124010948Y-85560672D01*
X124009778Y-85578227D01*
X124010948Y-85580258D01*
X124010948Y-85581342D01*
X124012418Y-85582812D01*
X124019513Y-85595133D01*
X124246953Y-85855065D01*
X124228571Y-85855065D01*
X124226114Y-85855553D01*
X124225026Y-85855191D01*
X124217298Y-85857307D01*
X124209437Y-85858871D01*
X124208625Y-85859682D01*
X124206210Y-85860344D01*
X124120496Y-85903201D01*
X124114167Y-85908112D01*
X124107502Y-85912566D01*
X124064644Y-85955423D01*
X124060187Y-85962092D01*
X124055278Y-85968418D01*
X124012421Y-86054132D01*
X124011759Y-86056547D01*
X124010948Y-86057359D01*
X124009384Y-86065220D01*
X124007268Y-86072948D01*
X124007630Y-86074036D01*
X124007142Y-86076493D01*
X123478571Y-86076493D01*
X123478571Y-85412208D01*
X128321428Y-85412208D01*
X128321428Y-89510106D01*
G37*
G36*
X142256097Y-104029770D02*
G01*
X142287478Y-104061151D01*
X142321428Y-104129050D01*
X142321428Y-104276874D01*
X142287478Y-104344772D01*
X142256094Y-104376157D01*
X142188197Y-104410106D01*
X142040374Y-104410106D01*
X141972475Y-104376156D01*
X141941091Y-104344773D01*
X141907142Y-104276874D01*
X141907142Y-104129051D01*
X141941090Y-104061153D01*
X141972475Y-104029769D01*
X142040374Y-103995820D01*
X142188197Y-103995820D01*
X142256097Y-104029770D01*
G37*
G36*
X142256097Y-103644056D02*
G01*
X142287478Y-103675437D01*
X142321428Y-103743337D01*
X142321428Y-103762589D01*
X142287478Y-103830488D01*
X142256097Y-103861870D01*
X142188197Y-103895820D01*
X142040374Y-103895820D01*
X141972475Y-103861870D01*
X141941090Y-103830486D01*
X141907142Y-103762589D01*
X141907142Y-103743337D01*
X141941090Y-103675439D01*
X141972475Y-103644055D01*
X142040374Y-103610106D01*
X142188197Y-103610106D01*
X142256097Y-103644056D01*
G37*
G36*
X143156097Y-103644056D02*
G01*
X143226279Y-103714238D01*
X143264285Y-103866260D01*
X143264285Y-104153951D01*
X143226279Y-104305972D01*
X143156095Y-104376157D01*
X143088197Y-104410106D01*
X142940373Y-104410106D01*
X142872476Y-104376157D01*
X142802290Y-104305971D01*
X142764285Y-104153951D01*
X142764285Y-103866260D01*
X142802290Y-103714238D01*
X142872473Y-103644055D01*
X142940373Y-103610106D01*
X143088197Y-103610106D01*
X143156097Y-103644056D01*
G37*
G36*
X144549999Y-103981534D02*
G01*
X144268944Y-103981534D01*
X144201044Y-103947584D01*
X144169663Y-103916203D01*
X144135713Y-103848303D01*
X144135713Y-103743337D01*
X144169663Y-103675437D01*
X144201044Y-103644055D01*
X144268944Y-103610106D01*
X144549999Y-103610106D01*
X144549999Y-103981534D01*
G37*
G36*
X144700000Y-102532585D02*
G01*
X144418945Y-102532585D01*
X144351045Y-102498635D01*
X144319664Y-102467254D01*
X144285714Y-102399354D01*
X144285714Y-102294388D01*
X144319664Y-102226488D01*
X144351045Y-102195106D01*
X144418945Y-102161157D01*
X144700000Y-102161157D01*
X144700000Y-102532585D01*
G37*
G36*
X141784669Y-100746158D02*
G01*
X141816050Y-100777539D01*
X141852823Y-100851086D01*
X141892857Y-101011219D01*
X141892857Y-101213196D01*
X141852824Y-101373328D01*
X141816050Y-101446874D01*
X141784666Y-101478259D01*
X141716769Y-101512208D01*
X141654660Y-101512208D01*
X141586762Y-101478259D01*
X141555377Y-101446874D01*
X141518603Y-101373327D01*
X141478571Y-101213196D01*
X141478571Y-101011219D01*
X141518603Y-100851087D01*
X141555378Y-100777539D01*
X141586760Y-100746158D01*
X141654660Y-100712208D01*
X141716769Y-100712208D01*
X141784669Y-100746158D01*
G37*
G36*
X143584669Y-100746158D02*
G01*
X143654851Y-100816340D01*
X143692857Y-100968362D01*
X143692857Y-101256053D01*
X143654851Y-101408074D01*
X143584667Y-101478259D01*
X143516769Y-101512208D01*
X143368945Y-101512208D01*
X143301048Y-101478259D01*
X143230862Y-101408073D01*
X143192857Y-101256053D01*
X143192857Y-100968362D01*
X143230862Y-100816340D01*
X143301045Y-100746157D01*
X143368945Y-100712208D01*
X143516769Y-100712208D01*
X143584669Y-100746158D01*
G37*
G36*
X144978571Y-101083636D02*
G01*
X144697516Y-101083636D01*
X144629616Y-101049686D01*
X144598235Y-101018305D01*
X144564285Y-100950405D01*
X144564285Y-100845439D01*
X144598235Y-100777539D01*
X144629616Y-100746157D01*
X144697516Y-100712208D01*
X144978571Y-100712208D01*
X144978571Y-101083636D01*
G37*
G36*
X146121428Y-104610106D02*
G01*
X141278571Y-104610106D01*
X141278571Y-103731534D01*
X141807142Y-103731534D01*
X141807142Y-103774391D01*
X141807630Y-103776847D01*
X141807268Y-103777935D01*
X141809383Y-103785659D01*
X141810948Y-103793525D01*
X141811759Y-103794336D01*
X141812421Y-103796751D01*
X141855278Y-103882466D01*
X141860184Y-103888787D01*
X141864644Y-103895462D01*
X141907502Y-103938319D01*
X141914167Y-103942772D01*
X141918094Y-103945820D01*
X141914167Y-103948867D01*
X141907502Y-103953321D01*
X141864644Y-103996178D01*
X141860184Y-104002852D01*
X141855278Y-104009174D01*
X141812421Y-104094889D01*
X141811759Y-104097303D01*
X141810948Y-104098115D01*
X141809383Y-104105980D01*
X141807268Y-104113705D01*
X141807630Y-104114792D01*
X141807142Y-104117249D01*
X141807142Y-104288677D01*
X141807630Y-104291133D01*
X141807268Y-104292222D01*
X141809384Y-104299949D01*
X141810948Y-104307811D01*
X141811759Y-104308622D01*
X141812421Y-104311038D01*
X141855278Y-104396752D01*
X141860191Y-104403083D01*
X141864644Y-104409746D01*
X141907501Y-104452604D01*
X141914167Y-104457058D01*
X141920496Y-104461970D01*
X142006210Y-104504827D01*
X142008625Y-104505488D01*
X142009437Y-104506300D01*
X142017298Y-104507863D01*
X142025026Y-104509980D01*
X142026114Y-104509617D01*
X142028571Y-104510106D01*
X142199999Y-104510106D01*
X142202455Y-104509617D01*
X142203543Y-104509980D01*
X142211267Y-104507864D01*
X142219133Y-104506300D01*
X142219944Y-104505488D01*
X142222359Y-104504827D01*
X142308074Y-104461970D01*
X142314395Y-104457063D01*
X142321070Y-104452604D01*
X142363927Y-104409746D01*
X142368380Y-104403080D01*
X142373292Y-104396752D01*
X142416149Y-104311038D01*
X142416810Y-104308622D01*
X142417622Y-104307811D01*
X142419185Y-104299949D01*
X142421302Y-104292222D01*
X142420939Y-104291133D01*
X142421428Y-104288677D01*
X142421428Y-104117249D01*
X142420939Y-104114792D01*
X142421302Y-104113705D01*
X142419186Y-104105979D01*
X142417622Y-104098115D01*
X142416810Y-104097303D01*
X142416149Y-104094888D01*
X142373292Y-104009174D01*
X142368380Y-104002845D01*
X142363926Y-103996179D01*
X142321069Y-103953322D01*
X142314402Y-103948867D01*
X142310475Y-103945820D01*
X142314402Y-103942772D01*
X142321069Y-103938318D01*
X142363926Y-103895461D01*
X142368380Y-103888794D01*
X142373292Y-103882466D01*
X142384472Y-103860106D01*
X142664285Y-103860106D01*
X142664285Y-104160106D01*
X142665480Y-104166115D01*
X142665778Y-104172233D01*
X142708635Y-104343661D01*
X142710948Y-104348557D01*
X142710948Y-104350668D01*
X142714352Y-104355763D01*
X142716968Y-104361300D01*
X142718776Y-104362385D01*
X142721786Y-104366889D01*
X142807501Y-104452604D01*
X142814167Y-104457058D01*
X142820496Y-104461970D01*
X142906210Y-104504827D01*
X142908625Y-104505488D01*
X142909437Y-104506300D01*
X142917301Y-104507864D01*
X142925027Y-104509980D01*
X142926114Y-104509617D01*
X142928571Y-104510106D01*
X143099999Y-104510106D01*
X143102455Y-104509617D01*
X143103543Y-104509980D01*
X143111267Y-104507864D01*
X143119133Y-104506300D01*
X143119944Y-104505488D01*
X143122359Y-104504827D01*
X143208074Y-104461970D01*
X143214395Y-104457063D01*
X143221070Y-104452604D01*
X143306784Y-104366889D01*
X143309793Y-104362385D01*
X143311602Y-104361300D01*
X143314217Y-104355763D01*
X143317622Y-104350668D01*
X143317622Y-104348557D01*
X143319935Y-104343661D01*
X143362792Y-104172233D01*
X143363089Y-104166115D01*
X143364285Y-104160106D01*
X143364285Y-103860106D01*
X143363089Y-103854096D01*
X143362792Y-103847979D01*
X143319935Y-103676550D01*
X143317622Y-103671653D01*
X143317622Y-103669543D01*
X143314218Y-103664449D01*
X143311602Y-103658911D01*
X143309791Y-103657824D01*
X143306783Y-103653322D01*
X143221069Y-103567608D01*
X143214402Y-103563153D01*
X143210476Y-103560106D01*
X143649999Y-103560106D01*
X143649999Y-104460106D01*
X143653805Y-104479240D01*
X143680865Y-104506300D01*
X143719133Y-104506300D01*
X143746193Y-104479240D01*
X143749999Y-104460106D01*
X143749999Y-103731534D01*
X144035713Y-103731534D01*
X144035713Y-103860106D01*
X144036201Y-103862562D01*
X144035839Y-103863651D01*
X144037955Y-103871378D01*
X144039519Y-103879240D01*
X144040330Y-103880051D01*
X144040992Y-103882467D01*
X144083849Y-103968181D01*
X144088762Y-103974512D01*
X144093215Y-103981175D01*
X144136072Y-104024032D01*
X144142738Y-104028486D01*
X144149067Y-104033398D01*
X144234781Y-104076255D01*
X144237196Y-104076916D01*
X144238008Y-104077728D01*
X144245872Y-104079292D01*
X144253598Y-104081408D01*
X144254685Y-104081045D01*
X144257142Y-104081534D01*
X144549999Y-104081534D01*
X144549999Y-104460106D01*
X144553805Y-104479240D01*
X144580865Y-104506300D01*
X144619133Y-104506300D01*
X144646193Y-104479240D01*
X144649999Y-104460106D01*
X144649999Y-104074391D01*
X144935713Y-104074391D01*
X144935713Y-104374391D01*
X144939519Y-104393525D01*
X144950357Y-104409746D01*
X144993214Y-104452604D01*
X144995296Y-104453995D01*
X144995810Y-104455022D01*
X145002768Y-104458988D01*
X145009435Y-104463443D01*
X145010584Y-104463443D01*
X145012759Y-104464683D01*
X145141331Y-104507540D01*
X145149278Y-104508541D01*
X145157142Y-104510106D01*
X145242856Y-104510106D01*
X145250718Y-104508542D01*
X145258667Y-104507540D01*
X145387239Y-104464683D01*
X145389414Y-104463443D01*
X145390561Y-104463443D01*
X145397219Y-104458993D01*
X145404187Y-104455022D01*
X145404700Y-104453994D01*
X145406782Y-104452604D01*
X145492497Y-104366890D01*
X145496951Y-104360223D01*
X145501863Y-104353895D01*
X145544720Y-104268181D01*
X145546166Y-104262899D01*
X145548506Y-104257947D01*
X145591363Y-104086518D01*
X145591660Y-104080400D01*
X145592856Y-104074391D01*
X145592856Y-103945820D01*
X145591660Y-103939810D01*
X145591363Y-103933693D01*
X145548506Y-103762264D01*
X145546166Y-103757311D01*
X145544720Y-103752030D01*
X145501863Y-103666316D01*
X145496947Y-103659981D01*
X145492497Y-103653322D01*
X145406782Y-103567607D01*
X145404699Y-103566215D01*
X145404187Y-103565190D01*
X145397223Y-103561220D01*
X145390561Y-103556769D01*
X145389414Y-103556769D01*
X145387239Y-103555529D01*
X145258667Y-103512672D01*
X145250718Y-103511669D01*
X145242856Y-103510106D01*
X145114285Y-103510106D01*
X145111828Y-103510594D01*
X145110741Y-103510232D01*
X145103015Y-103512347D01*
X145095151Y-103513912D01*
X145094339Y-103514723D01*
X145091924Y-103515385D01*
X145006210Y-103558242D01*
X144990798Y-103570203D01*
X144978696Y-103606507D01*
X144995810Y-103640735D01*
X145032114Y-103652837D01*
X145050930Y-103647684D01*
X145126087Y-103610106D01*
X145234743Y-103610106D01*
X145344417Y-103646664D01*
X145416050Y-103718296D01*
X145452822Y-103791841D01*
X145492856Y-103951974D01*
X145492856Y-104068236D01*
X145452822Y-104228369D01*
X145416049Y-104301915D01*
X145344418Y-104373547D01*
X145234743Y-104410106D01*
X145165256Y-104410106D01*
X145055580Y-104373548D01*
X145035713Y-104353680D01*
X145035713Y-104124391D01*
X145157142Y-104124391D01*
X145176276Y-104120585D01*
X145203336Y-104093525D01*
X145203336Y-104055257D01*
X145176276Y-104028197D01*
X145157142Y-104024391D01*
X144985713Y-104024391D01*
X144966579Y-104028197D01*
X144939519Y-104055257D01*
X144935713Y-104074391D01*
X144649999Y-104074391D01*
X144649999Y-103560106D01*
X144646193Y-103540972D01*
X144619133Y-103513912D01*
X144599999Y-103510106D01*
X144257142Y-103510106D01*
X144254685Y-103510594D01*
X144253598Y-103510232D01*
X144245872Y-103512347D01*
X144238008Y-103513912D01*
X144237196Y-103514723D01*
X144234781Y-103515385D01*
X144149067Y-103558242D01*
X144142738Y-103563153D01*
X144136072Y-103567608D01*
X144093215Y-103610465D01*
X144088762Y-103617127D01*
X144083849Y-103623459D01*
X144040992Y-103709173D01*
X144040330Y-103711588D01*
X144039519Y-103712400D01*
X144037955Y-103720261D01*
X144035839Y-103727989D01*
X144036201Y-103729077D01*
X144035713Y-103731534D01*
X143749999Y-103731534D01*
X143749999Y-103560106D01*
X143746193Y-103540972D01*
X143719133Y-103513912D01*
X143680865Y-103513912D01*
X143653805Y-103540972D01*
X143649999Y-103560106D01*
X143210476Y-103560106D01*
X143208074Y-103558242D01*
X143122359Y-103515385D01*
X143119944Y-103514723D01*
X143119133Y-103513912D01*
X143111267Y-103512347D01*
X143103543Y-103510232D01*
X143102455Y-103510594D01*
X143099999Y-103510106D01*
X142928571Y-103510106D01*
X142926114Y-103510594D01*
X142925027Y-103510232D01*
X142917301Y-103512347D01*
X142909437Y-103513912D01*
X142908625Y-103514723D01*
X142906210Y-103515385D01*
X142820496Y-103558242D01*
X142814167Y-103563153D01*
X142807501Y-103567608D01*
X142721787Y-103653322D01*
X142718778Y-103657824D01*
X142716968Y-103658911D01*
X142714351Y-103664449D01*
X142710948Y-103669543D01*
X142710948Y-103671653D01*
X142708635Y-103676550D01*
X142665778Y-103847979D01*
X142665480Y-103854096D01*
X142664285Y-103860106D01*
X142384472Y-103860106D01*
X142416149Y-103796752D01*
X142416810Y-103794336D01*
X142417622Y-103793525D01*
X142419186Y-103785660D01*
X142421302Y-103777935D01*
X142420939Y-103776847D01*
X142421428Y-103774391D01*
X142421428Y-103731534D01*
X142420939Y-103729077D01*
X142421302Y-103727989D01*
X142419185Y-103720261D01*
X142417622Y-103712400D01*
X142416810Y-103711588D01*
X142416149Y-103709173D01*
X142373292Y-103623459D01*
X142368376Y-103617124D01*
X142363926Y-103610465D01*
X142321069Y-103567608D01*
X142314402Y-103563153D01*
X142308074Y-103558242D01*
X142222359Y-103515385D01*
X142219944Y-103514723D01*
X142219133Y-103513912D01*
X142211267Y-103512347D01*
X142203543Y-103510232D01*
X142202455Y-103510594D01*
X142199999Y-103510106D01*
X142028571Y-103510106D01*
X142026114Y-103510594D01*
X142025026Y-103510232D01*
X142017298Y-103512348D01*
X142009437Y-103513912D01*
X142008625Y-103514723D01*
X142006210Y-103515385D01*
X141920496Y-103558242D01*
X141914167Y-103563153D01*
X141907502Y-103567607D01*
X141864644Y-103610464D01*
X141860187Y-103617133D01*
X141855278Y-103623459D01*
X141812421Y-103709173D01*
X141811759Y-103711588D01*
X141810948Y-103712400D01*
X141809384Y-103720261D01*
X141807268Y-103727989D01*
X141807630Y-103729077D01*
X141807142Y-103731534D01*
X141278571Y-103731534D01*
X141278571Y-102625442D01*
X142557142Y-102625442D01*
X142557142Y-102839728D01*
X142557630Y-102842184D01*
X142557268Y-102843273D01*
X142559384Y-102851000D01*
X142560948Y-102858862D01*
X142561759Y-102859673D01*
X142562421Y-102862089D01*
X142605278Y-102947803D01*
X142610191Y-102954134D01*
X142614644Y-102960797D01*
X142657501Y-103003655D01*
X142664167Y-103008109D01*
X142670496Y-103013021D01*
X142756210Y-103055878D01*
X142758625Y-103056539D01*
X142759437Y-103057351D01*
X142767298Y-103058914D01*
X142775026Y-103061031D01*
X142776114Y-103060668D01*
X142778571Y-103061157D01*
X143035714Y-103061157D01*
X143038170Y-103060668D01*
X143039259Y-103061031D01*
X143046986Y-103058914D01*
X143054848Y-103057351D01*
X143055659Y-103056539D01*
X143058075Y-103055878D01*
X143143789Y-103013021D01*
X143150114Y-103008111D01*
X143156784Y-103003655D01*
X143199641Y-102960797D01*
X143210479Y-102944576D01*
X143210479Y-102906307D01*
X143183419Y-102879248D01*
X143145150Y-102879248D01*
X143128929Y-102890087D01*
X143091808Y-102927208D01*
X143023911Y-102961157D01*
X142790374Y-102961157D01*
X142722475Y-102927207D01*
X142691091Y-102895824D01*
X142657142Y-102827925D01*
X142657142Y-102637245D01*
X142691090Y-102569347D01*
X142722475Y-102537963D01*
X142790374Y-102504014D01*
X142907142Y-102504014D01*
X142921084Y-102501240D01*
X142923161Y-102501379D01*
X142923976Y-102500665D01*
X142926276Y-102500208D01*
X142938713Y-102487771D01*
X142951961Y-102476179D01*
X142952079Y-102474404D01*
X142953336Y-102473148D01*
X142953336Y-102455557D01*
X142954507Y-102437995D01*
X142953336Y-102435961D01*
X142953336Y-102434880D01*
X142951867Y-102433411D01*
X142944771Y-102421089D01*
X142717330Y-102161157D01*
X143164285Y-102161157D01*
X143183419Y-102157351D01*
X143210479Y-102130291D01*
X143210479Y-102107613D01*
X143328697Y-102107613D01*
X143331137Y-102126968D01*
X143631137Y-103026968D01*
X143640798Y-103043917D01*
X143644140Y-103045587D01*
X143645811Y-103048930D01*
X143660850Y-103053943D01*
X143675027Y-103061031D01*
X143678570Y-103059849D01*
X143682115Y-103061031D01*
X143696294Y-103053941D01*
X143711331Y-103048929D01*
X143713001Y-103045588D01*
X143716344Y-103043917D01*
X143726005Y-103026968D01*
X143974133Y-102282585D01*
X144185714Y-102282585D01*
X144185714Y-102411157D01*
X144186202Y-102413613D01*
X144185840Y-102414702D01*
X144187956Y-102422429D01*
X144189520Y-102430291D01*
X144190331Y-102431102D01*
X144190993Y-102433518D01*
X144233850Y-102519232D01*
X144238763Y-102525563D01*
X144243216Y-102532226D01*
X144286073Y-102575083D01*
X144292739Y-102579537D01*
X144299068Y-102584449D01*
X144384782Y-102627306D01*
X144387197Y-102627967D01*
X144388009Y-102628779D01*
X144395873Y-102630343D01*
X144403599Y-102632459D01*
X144404686Y-102632096D01*
X144407143Y-102632585D01*
X144439682Y-102632585D01*
X144194752Y-102982484D01*
X144186898Y-103000342D01*
X144193548Y-103038028D01*
X144224899Y-103059973D01*
X144262585Y-103053323D01*
X144276676Y-103039830D01*
X144561747Y-102632585D01*
X144700000Y-102632585D01*
X144700000Y-103011157D01*
X144703806Y-103030291D01*
X144730866Y-103057351D01*
X144769134Y-103057351D01*
X144796194Y-103030291D01*
X144800000Y-103011157D01*
X144800000Y-102111157D01*
X144796194Y-102092023D01*
X144769134Y-102064963D01*
X144750000Y-102061157D01*
X144407143Y-102061157D01*
X144404686Y-102061645D01*
X144403599Y-102061283D01*
X144395873Y-102063398D01*
X144388009Y-102064963D01*
X144387197Y-102065774D01*
X144384782Y-102066436D01*
X144299068Y-102109293D01*
X144292739Y-102114204D01*
X144286073Y-102118659D01*
X144243216Y-102161516D01*
X144238763Y-102168178D01*
X144233850Y-102174510D01*
X144190993Y-102260224D01*
X144190331Y-102262639D01*
X144189520Y-102263451D01*
X144187956Y-102271312D01*
X144185840Y-102279040D01*
X144186202Y-102280128D01*
X144185714Y-102282585D01*
X143974133Y-102282585D01*
X144026005Y-102126969D01*
X144028445Y-102107613D01*
X144011331Y-102073385D01*
X143975027Y-102061283D01*
X143940798Y-102078397D01*
X143931137Y-102095346D01*
X143678571Y-102853043D01*
X143426005Y-102095346D01*
X143416344Y-102078397D01*
X143382115Y-102061283D01*
X143345811Y-102073384D01*
X143328697Y-102107613D01*
X143210479Y-102107613D01*
X143210479Y-102092023D01*
X143183419Y-102064963D01*
X143164285Y-102061157D01*
X142607142Y-102061157D01*
X142593195Y-102063931D01*
X142591123Y-102063793D01*
X142590308Y-102064505D01*
X142588008Y-102064963D01*
X142575567Y-102077403D01*
X142562323Y-102088992D01*
X142562204Y-102090766D01*
X142560948Y-102092023D01*
X142560948Y-102109621D01*
X142559778Y-102127176D01*
X142560948Y-102129207D01*
X142560948Y-102130291D01*
X142562418Y-102131761D01*
X142569513Y-102144082D01*
X142796953Y-102404014D01*
X142778571Y-102404014D01*
X142776114Y-102404502D01*
X142775026Y-102404140D01*
X142767298Y-102406256D01*
X142759437Y-102407820D01*
X142758625Y-102408631D01*
X142756210Y-102409293D01*
X142670496Y-102452150D01*
X142664167Y-102457061D01*
X142657502Y-102461515D01*
X142614644Y-102504372D01*
X142610187Y-102511041D01*
X142605278Y-102517367D01*
X142562421Y-102603081D01*
X142561759Y-102605496D01*
X142560948Y-102606308D01*
X142559384Y-102614169D01*
X142557268Y-102621897D01*
X142557630Y-102622985D01*
X142557142Y-102625442D01*
X141278571Y-102625442D01*
X141278571Y-101005065D01*
X141378571Y-101005065D01*
X141378571Y-101219351D01*
X141379766Y-101225360D01*
X141380064Y-101231478D01*
X141422921Y-101402906D01*
X141425260Y-101407858D01*
X141426707Y-101413140D01*
X141469565Y-101498854D01*
X141474476Y-101505182D01*
X141478930Y-101511848D01*
X141521787Y-101554706D01*
X141528453Y-101559160D01*
X141534782Y-101564072D01*
X141620496Y-101606929D01*
X141622911Y-101607590D01*
X141623723Y-101608402D01*
X141631584Y-101609965D01*
X141639312Y-101612082D01*
X141640400Y-101611719D01*
X141642857Y-101612208D01*
X141728571Y-101612208D01*
X141731027Y-101611719D01*
X141732115Y-101612082D01*
X141739839Y-101609966D01*
X141747705Y-101608402D01*
X141748516Y-101607590D01*
X141750931Y-101606929D01*
X141836646Y-101564072D01*
X141842967Y-101559165D01*
X141849642Y-101554706D01*
X141861274Y-101543074D01*
X142239520Y-101543074D01*
X142239520Y-101581342D01*
X142266580Y-101608402D01*
X142285714Y-101612208D01*
X142800000Y-101612208D01*
X142819134Y-101608402D01*
X142846194Y-101581342D01*
X142846194Y-101543074D01*
X142819134Y-101516014D01*
X142800000Y-101512208D01*
X142592857Y-101512208D01*
X142592857Y-100825597D01*
X142593216Y-100826135D01*
X142678931Y-100911849D01*
X142685596Y-100916302D01*
X142691925Y-100921214D01*
X142777639Y-100964072D01*
X142796455Y-100969225D01*
X142817507Y-100962208D01*
X143092857Y-100962208D01*
X143092857Y-101262208D01*
X143094052Y-101268217D01*
X143094350Y-101274335D01*
X143137207Y-101445763D01*
X143139520Y-101450659D01*
X143139520Y-101452770D01*
X143142924Y-101457865D01*
X143145540Y-101463402D01*
X143147348Y-101464487D01*
X143150358Y-101468991D01*
X143236073Y-101554706D01*
X143242739Y-101559160D01*
X143249068Y-101564072D01*
X143334782Y-101606929D01*
X143337197Y-101607590D01*
X143338009Y-101608402D01*
X143345873Y-101609966D01*
X143353599Y-101612082D01*
X143354686Y-101611719D01*
X143357143Y-101612208D01*
X143528571Y-101612208D01*
X143531027Y-101611719D01*
X143532115Y-101612082D01*
X143539839Y-101609966D01*
X143547705Y-101608402D01*
X143548516Y-101607590D01*
X143550931Y-101606929D01*
X143636646Y-101564072D01*
X143642967Y-101559165D01*
X143649642Y-101554706D01*
X143735356Y-101468991D01*
X143738365Y-101464487D01*
X143740174Y-101463402D01*
X143742789Y-101457865D01*
X143746194Y-101452770D01*
X143746194Y-101450659D01*
X143748507Y-101445763D01*
X143791364Y-101274335D01*
X143791661Y-101268217D01*
X143792857Y-101262208D01*
X143792857Y-100962208D01*
X143791661Y-100956198D01*
X143791364Y-100950081D01*
X143748507Y-100778652D01*
X143746194Y-100773755D01*
X143746194Y-100771645D01*
X143742790Y-100766551D01*
X143740174Y-100761013D01*
X143738363Y-100759926D01*
X143735355Y-100755424D01*
X143649641Y-100669710D01*
X143642974Y-100665255D01*
X143639048Y-100662208D01*
X144078571Y-100662208D01*
X144078571Y-101562208D01*
X144082377Y-101581342D01*
X144109437Y-101608402D01*
X144147705Y-101608402D01*
X144174765Y-101581342D01*
X144178571Y-101562208D01*
X144178571Y-100833636D01*
X144464285Y-100833636D01*
X144464285Y-100962208D01*
X144464773Y-100964664D01*
X144464411Y-100965753D01*
X144466527Y-100973480D01*
X144468091Y-100981342D01*
X144468902Y-100982153D01*
X144469564Y-100984569D01*
X144512421Y-101070283D01*
X144517334Y-101076614D01*
X144521787Y-101083277D01*
X144564644Y-101126134D01*
X144571310Y-101130588D01*
X144577639Y-101135500D01*
X144663353Y-101178357D01*
X144665768Y-101179018D01*
X144666580Y-101179830D01*
X144674444Y-101181394D01*
X144682170Y-101183510D01*
X144683257Y-101183147D01*
X144685714Y-101183636D01*
X144978571Y-101183636D01*
X144978571Y-101562208D01*
X144982377Y-101581342D01*
X145009437Y-101608402D01*
X145047705Y-101608402D01*
X145074765Y-101581342D01*
X145078571Y-101562208D01*
X145078571Y-101176493D01*
X145364285Y-101176493D01*
X145364285Y-101476493D01*
X145368091Y-101495627D01*
X145378929Y-101511848D01*
X145421786Y-101554706D01*
X145423868Y-101556097D01*
X145424382Y-101557124D01*
X145431340Y-101561090D01*
X145438007Y-101565545D01*
X145439156Y-101565545D01*
X145441331Y-101566785D01*
X145569903Y-101609642D01*
X145577850Y-101610643D01*
X145585714Y-101612208D01*
X145671428Y-101612208D01*
X145679290Y-101610644D01*
X145687239Y-101609642D01*
X145815811Y-101566785D01*
X145817986Y-101565545D01*
X145819133Y-101565545D01*
X145825791Y-101561095D01*
X145832759Y-101557124D01*
X145833272Y-101556096D01*
X145835354Y-101554706D01*
X145921069Y-101468992D01*
X145925523Y-101462325D01*
X145930435Y-101455997D01*
X145973292Y-101370283D01*
X145974738Y-101365001D01*
X145977078Y-101360049D01*
X146019935Y-101188620D01*
X146020232Y-101182502D01*
X146021428Y-101176493D01*
X146021428Y-101047922D01*
X146020232Y-101041912D01*
X146019935Y-101035795D01*
X145977078Y-100864366D01*
X145974738Y-100859413D01*
X145973292Y-100854132D01*
X145930435Y-100768418D01*
X145925519Y-100762083D01*
X145921069Y-100755424D01*
X145835354Y-100669709D01*
X145833271Y-100668317D01*
X145832759Y-100667292D01*
X145825795Y-100663322D01*
X145819133Y-100658871D01*
X145817986Y-100658871D01*
X145815811Y-100657631D01*
X145687239Y-100614774D01*
X145679290Y-100613771D01*
X145671428Y-100612208D01*
X145542857Y-100612208D01*
X145540400Y-100612696D01*
X145539313Y-100612334D01*
X145531587Y-100614449D01*
X145523723Y-100616014D01*
X145522911Y-100616825D01*
X145520496Y-100617487D01*
X145434782Y-100660344D01*
X145419370Y-100672305D01*
X145407268Y-100708609D01*
X145424382Y-100742837D01*
X145460686Y-100754939D01*
X145479502Y-100749786D01*
X145554659Y-100712208D01*
X145663315Y-100712208D01*
X145772989Y-100748766D01*
X145844622Y-100820398D01*
X145881394Y-100893943D01*
X145921428Y-101054076D01*
X145921428Y-101170338D01*
X145881394Y-101330471D01*
X145844621Y-101404017D01*
X145772990Y-101475649D01*
X145663315Y-101512208D01*
X145593828Y-101512208D01*
X145484152Y-101475650D01*
X145464285Y-101455782D01*
X145464285Y-101226493D01*
X145585714Y-101226493D01*
X145604848Y-101222687D01*
X145631908Y-101195627D01*
X145631908Y-101157359D01*
X145604848Y-101130299D01*
X145585714Y-101126493D01*
X145414285Y-101126493D01*
X145395151Y-101130299D01*
X145368091Y-101157359D01*
X145364285Y-101176493D01*
X145078571Y-101176493D01*
X145078571Y-100662208D01*
X145074765Y-100643074D01*
X145047705Y-100616014D01*
X145028571Y-100612208D01*
X144685714Y-100612208D01*
X144683257Y-100612696D01*
X144682170Y-100612334D01*
X144674444Y-100614449D01*
X144666580Y-100616014D01*
X144665768Y-100616825D01*
X144663353Y-100617487D01*
X144577639Y-100660344D01*
X144571310Y-100665255D01*
X144564644Y-100669710D01*
X144521787Y-100712567D01*
X144517334Y-100719229D01*
X144512421Y-100725561D01*
X144469564Y-100811275D01*
X144468902Y-100813690D01*
X144468091Y-100814502D01*
X144466527Y-100822363D01*
X144464411Y-100830091D01*
X144464773Y-100831179D01*
X144464285Y-100833636D01*
X144178571Y-100833636D01*
X144178571Y-100662208D01*
X144174765Y-100643074D01*
X144147705Y-100616014D01*
X144109437Y-100616014D01*
X144082377Y-100643074D01*
X144078571Y-100662208D01*
X143639048Y-100662208D01*
X143636646Y-100660344D01*
X143550931Y-100617487D01*
X143548516Y-100616825D01*
X143547705Y-100616014D01*
X143539839Y-100614449D01*
X143532115Y-100612334D01*
X143531027Y-100612696D01*
X143528571Y-100612208D01*
X143357143Y-100612208D01*
X143354686Y-100612696D01*
X143353599Y-100612334D01*
X143345873Y-100614449D01*
X143338009Y-100616014D01*
X143337197Y-100616825D01*
X143334782Y-100617487D01*
X143249068Y-100660344D01*
X143242739Y-100665255D01*
X143236073Y-100669710D01*
X143150359Y-100755424D01*
X143147350Y-100759926D01*
X143145540Y-100761013D01*
X143142923Y-100766551D01*
X143139520Y-100771645D01*
X143139520Y-100773755D01*
X143137207Y-100778652D01*
X143094350Y-100950081D01*
X143094052Y-100956198D01*
X143092857Y-100962208D01*
X142817507Y-100962208D01*
X142832760Y-100957124D01*
X142849874Y-100922896D01*
X142837773Y-100886591D01*
X142822361Y-100874630D01*
X142743903Y-100835400D01*
X142667425Y-100758922D01*
X142584460Y-100634473D01*
X142570679Y-100620664D01*
X142565631Y-100619654D01*
X142561991Y-100616014D01*
X142547429Y-100616014D01*
X142533154Y-100613159D01*
X142528871Y-100616014D01*
X142523723Y-100616014D01*
X142513426Y-100626310D01*
X142501313Y-100634386D01*
X142500303Y-100639433D01*
X142496663Y-100643074D01*
X142492857Y-100662208D01*
X142492857Y-101512208D01*
X142285714Y-101512208D01*
X142266580Y-101516014D01*
X142239520Y-101543074D01*
X141861274Y-101543074D01*
X141892499Y-101511848D01*
X141896952Y-101505182D01*
X141901864Y-101498854D01*
X141944721Y-101413140D01*
X141946167Y-101407858D01*
X141948507Y-101402906D01*
X141991364Y-101231478D01*
X141991661Y-101225360D01*
X141992857Y-101219351D01*
X141992857Y-101005065D01*
X141991661Y-100999055D01*
X141991364Y-100992938D01*
X141948507Y-100821509D01*
X141946167Y-100816556D01*
X141944721Y-100811275D01*
X141901864Y-100725561D01*
X141896948Y-100719226D01*
X141892498Y-100712567D01*
X141849641Y-100669710D01*
X141842974Y-100665255D01*
X141836646Y-100660344D01*
X141750931Y-100617487D01*
X141748516Y-100616825D01*
X141747705Y-100616014D01*
X141739839Y-100614449D01*
X141732115Y-100612334D01*
X141731027Y-100612696D01*
X141728571Y-100612208D01*
X141642857Y-100612208D01*
X141640400Y-100612696D01*
X141639312Y-100612334D01*
X141631584Y-100614450D01*
X141623723Y-100616014D01*
X141622911Y-100616825D01*
X141620496Y-100617487D01*
X141534782Y-100660344D01*
X141528447Y-100665259D01*
X141521788Y-100669710D01*
X141478931Y-100712567D01*
X141474480Y-100719226D01*
X141469565Y-100725561D01*
X141426707Y-100811275D01*
X141425260Y-100816556D01*
X141422921Y-100821509D01*
X141380064Y-100992938D01*
X141379766Y-100999055D01*
X141378571Y-101005065D01*
X141278571Y-101005065D01*
X141278571Y-100512208D01*
X146121428Y-100512208D01*
X146121428Y-104610106D01*
G37*
X73294047Y-137017346D02*
X72913094Y-137017346D01*
X73370237Y-137245918D02*
X73103570Y-136445918D01*
X73103570Y-136445918D02*
X72836904Y-137245918D01*
X72570237Y-136445918D02*
X72570237Y-137093537D01*
X72570237Y-137093537D02*
X72532142Y-137169727D01*
X72532142Y-137169727D02*
X72494047Y-137207823D01*
X72494047Y-137207823D02*
X72417856Y-137245918D01*
X72417856Y-137245918D02*
X72265475Y-137245918D01*
X72265475Y-137245918D02*
X72189285Y-137207823D01*
X72189285Y-137207823D02*
X72151190Y-137169727D01*
X72151190Y-137169727D02*
X72113094Y-137093537D01*
X72113094Y-137093537D02*
X72113094Y-136445918D01*
X71732142Y-137245918D02*
X71732142Y-136445918D01*
X71732142Y-136445918D02*
X71541666Y-136445918D01*
X71541666Y-136445918D02*
X71427380Y-136484013D01*
X71427380Y-136484013D02*
X71351190Y-136560203D01*
X71351190Y-136560203D02*
X71313095Y-136636394D01*
X71313095Y-136636394D02*
X71274999Y-136788775D01*
X71274999Y-136788775D02*
X71274999Y-136903061D01*
X71274999Y-136903061D02*
X71313095Y-137055442D01*
X71313095Y-137055442D02*
X71351190Y-137131632D01*
X71351190Y-137131632D02*
X71427380Y-137207823D01*
X71427380Y-137207823D02*
X71541666Y-137245918D01*
X71541666Y-137245918D02*
X71732142Y-137245918D01*
X70932142Y-137245918D02*
X70932142Y-136445918D01*
X70398809Y-136445918D02*
X70246428Y-136445918D01*
X70246428Y-136445918D02*
X70170238Y-136484013D01*
X70170238Y-136484013D02*
X70094047Y-136560203D01*
X70094047Y-136560203D02*
X70055952Y-136712584D01*
X70055952Y-136712584D02*
X70055952Y-136979251D01*
X70055952Y-136979251D02*
X70094047Y-137131632D01*
X70094047Y-137131632D02*
X70170238Y-137207823D01*
X70170238Y-137207823D02*
X70246428Y-137245918D01*
X70246428Y-137245918D02*
X70398809Y-137245918D01*
X70398809Y-137245918D02*
X70475000Y-137207823D01*
X70475000Y-137207823D02*
X70551190Y-137131632D01*
X70551190Y-137131632D02*
X70589286Y-136979251D01*
X70589286Y-136979251D02*
X70589286Y-136712584D01*
X70589286Y-136712584D02*
X70551190Y-136560203D01*
X70551190Y-136560203D02*
X70475000Y-136484013D01*
X70475000Y-136484013D02*
X70398809Y-136445918D01*
X73236904Y-137771968D02*
X73313094Y-137733873D01*
X73313094Y-137733873D02*
X73427380Y-137733873D01*
X73427380Y-137733873D02*
X73541666Y-137771968D01*
X73541666Y-137771968D02*
X73617856Y-137848158D01*
X73617856Y-137848158D02*
X73655951Y-137924349D01*
X73655951Y-137924349D02*
X73694047Y-138076730D01*
X73694047Y-138076730D02*
X73694047Y-138191016D01*
X73694047Y-138191016D02*
X73655951Y-138343397D01*
X73655951Y-138343397D02*
X73617856Y-138419587D01*
X73617856Y-138419587D02*
X73541666Y-138495778D01*
X73541666Y-138495778D02*
X73427380Y-138533873D01*
X73427380Y-138533873D02*
X73351189Y-138533873D01*
X73351189Y-138533873D02*
X73236904Y-138495778D01*
X73236904Y-138495778D02*
X73198808Y-138457682D01*
X73198808Y-138457682D02*
X73198808Y-138191016D01*
X73198808Y-138191016D02*
X73351189Y-138191016D01*
X72855951Y-138533873D02*
X72855951Y-137733873D01*
X72855951Y-137733873D02*
X72551189Y-137733873D01*
X72551189Y-137733873D02*
X72474999Y-137771968D01*
X72474999Y-137771968D02*
X72436904Y-137810063D01*
X72436904Y-137810063D02*
X72398808Y-137886254D01*
X72398808Y-137886254D02*
X72398808Y-138000539D01*
X72398808Y-138000539D02*
X72436904Y-138076730D01*
X72436904Y-138076730D02*
X72474999Y-138114825D01*
X72474999Y-138114825D02*
X72551189Y-138152920D01*
X72551189Y-138152920D02*
X72855951Y-138152920D01*
X72055951Y-138533873D02*
X72055951Y-137733873D01*
X71522618Y-137733873D02*
X71370237Y-137733873D01*
X71370237Y-137733873D02*
X71294047Y-137771968D01*
X71294047Y-137771968D02*
X71217856Y-137848158D01*
X71217856Y-137848158D02*
X71179761Y-138000539D01*
X71179761Y-138000539D02*
X71179761Y-138267206D01*
X71179761Y-138267206D02*
X71217856Y-138419587D01*
X71217856Y-138419587D02*
X71294047Y-138495778D01*
X71294047Y-138495778D02*
X71370237Y-138533873D01*
X71370237Y-138533873D02*
X71522618Y-138533873D01*
X71522618Y-138533873D02*
X71598809Y-138495778D01*
X71598809Y-138495778D02*
X71674999Y-138419587D01*
X71674999Y-138419587D02*
X71713095Y-138267206D01*
X71713095Y-138267206D02*
X71713095Y-138000539D01*
X71713095Y-138000539D02*
X71674999Y-137848158D01*
X71674999Y-137848158D02*
X71598809Y-137771968D01*
X71598809Y-137771968D02*
X71522618Y-137733873D01*
X70417857Y-138533873D02*
X70875000Y-138533873D01*
X70646428Y-138533873D02*
X70646428Y-137733873D01*
X70646428Y-137733873D02*
X70722619Y-137848158D01*
X70722619Y-137848158D02*
X70798809Y-137924349D01*
X70798809Y-137924349D02*
X70875000Y-137962444D01*
X69694047Y-137733873D02*
X70074999Y-137733873D01*
X70074999Y-137733873D02*
X70113095Y-138114825D01*
X70113095Y-138114825D02*
X70074999Y-138076730D01*
X70074999Y-138076730D02*
X69998809Y-138038635D01*
X69998809Y-138038635D02*
X69808333Y-138038635D01*
X69808333Y-138038635D02*
X69732142Y-138076730D01*
X69732142Y-138076730D02*
X69694047Y-138114825D01*
X69694047Y-138114825D02*
X69655952Y-138191016D01*
X69655952Y-138191016D02*
X69655952Y-138381492D01*
X69655952Y-138381492D02*
X69694047Y-138457682D01*
X69694047Y-138457682D02*
X69732142Y-138495778D01*
X69732142Y-138495778D02*
X69808333Y-138533873D01*
X69808333Y-138533873D02*
X69998809Y-138533873D01*
X69998809Y-138533873D02*
X70074999Y-138495778D01*
X70074999Y-138495778D02*
X70113095Y-138457682D01*
X73211904Y-146827990D02*
X73288094Y-146789895D01*
X73288094Y-146789895D02*
X73402380Y-146789895D01*
X73402380Y-146789895D02*
X73516666Y-146827990D01*
X73516666Y-146827990D02*
X73592856Y-146904180D01*
X73592856Y-146904180D02*
X73630951Y-146980371D01*
X73630951Y-146980371D02*
X73669047Y-147132752D01*
X73669047Y-147132752D02*
X73669047Y-147247038D01*
X73669047Y-147247038D02*
X73630951Y-147399419D01*
X73630951Y-147399419D02*
X73592856Y-147475609D01*
X73592856Y-147475609D02*
X73516666Y-147551800D01*
X73516666Y-147551800D02*
X73402380Y-147589895D01*
X73402380Y-147589895D02*
X73326189Y-147589895D01*
X73326189Y-147589895D02*
X73211904Y-147551800D01*
X73211904Y-147551800D02*
X73173808Y-147513704D01*
X73173808Y-147513704D02*
X73173808Y-147247038D01*
X73173808Y-147247038D02*
X73326189Y-147247038D01*
X72830951Y-147589895D02*
X72830951Y-146789895D01*
X72830951Y-146789895D02*
X72526189Y-146789895D01*
X72526189Y-146789895D02*
X72449999Y-146827990D01*
X72449999Y-146827990D02*
X72411904Y-146866085D01*
X72411904Y-146866085D02*
X72373808Y-146942276D01*
X72373808Y-146942276D02*
X72373808Y-147056561D01*
X72373808Y-147056561D02*
X72411904Y-147132752D01*
X72411904Y-147132752D02*
X72449999Y-147170847D01*
X72449999Y-147170847D02*
X72526189Y-147208942D01*
X72526189Y-147208942D02*
X72830951Y-147208942D01*
X72030951Y-147589895D02*
X72030951Y-146789895D01*
X71497618Y-146789895D02*
X71345237Y-146789895D01*
X71345237Y-146789895D02*
X71269047Y-146827990D01*
X71269047Y-146827990D02*
X71192856Y-146904180D01*
X71192856Y-146904180D02*
X71154761Y-147056561D01*
X71154761Y-147056561D02*
X71154761Y-147323228D01*
X71154761Y-147323228D02*
X71192856Y-147475609D01*
X71192856Y-147475609D02*
X71269047Y-147551800D01*
X71269047Y-147551800D02*
X71345237Y-147589895D01*
X71345237Y-147589895D02*
X71497618Y-147589895D01*
X71497618Y-147589895D02*
X71573809Y-147551800D01*
X71573809Y-147551800D02*
X71649999Y-147475609D01*
X71649999Y-147475609D02*
X71688095Y-147323228D01*
X71688095Y-147323228D02*
X71688095Y-147056561D01*
X71688095Y-147056561D02*
X71649999Y-146904180D01*
X71649999Y-146904180D02*
X71573809Y-146827990D01*
X71573809Y-146827990D02*
X71497618Y-146789895D01*
X70392857Y-147589895D02*
X70850000Y-147589895D01*
X70621428Y-147589895D02*
X70621428Y-146789895D01*
X70621428Y-146789895D02*
X70697619Y-146904180D01*
X70697619Y-146904180D02*
X70773809Y-146980371D01*
X70773809Y-146980371D02*
X70850000Y-147018466D01*
X69707142Y-146789895D02*
X69859523Y-146789895D01*
X69859523Y-146789895D02*
X69935714Y-146827990D01*
X69935714Y-146827990D02*
X69973809Y-146866085D01*
X69973809Y-146866085D02*
X70049999Y-146980371D01*
X70049999Y-146980371D02*
X70088095Y-147132752D01*
X70088095Y-147132752D02*
X70088095Y-147437514D01*
X70088095Y-147437514D02*
X70049999Y-147513704D01*
X70049999Y-147513704D02*
X70011904Y-147551800D01*
X70011904Y-147551800D02*
X69935714Y-147589895D01*
X69935714Y-147589895D02*
X69783333Y-147589895D01*
X69783333Y-147589895D02*
X69707142Y-147551800D01*
X69707142Y-147551800D02*
X69669047Y-147513704D01*
X69669047Y-147513704D02*
X69630952Y-147437514D01*
X69630952Y-147437514D02*
X69630952Y-147247038D01*
X69630952Y-147247038D02*
X69669047Y-147170847D01*
X69669047Y-147170847D02*
X69707142Y-147132752D01*
X69707142Y-147132752D02*
X69783333Y-147094657D01*
X69783333Y-147094657D02*
X69935714Y-147094657D01*
X69935714Y-147094657D02*
X70011904Y-147132752D01*
X70011904Y-147132752D02*
X70049999Y-147170847D01*
X70049999Y-147170847D02*
X70088095Y-147247038D01*
D11*
%TO.C,JP1*%
X120900000Y-88900000D02*
X120900000Y-86100000D01*
X121600000Y-85450000D02*
X122200000Y-85450000D01*
X122200000Y-89550000D02*
X121600000Y-89550000D01*
X122900000Y-86100000D02*
X122900000Y-88900000D01*
X123400000Y-86000000D02*
X123100000Y-86300000D01*
X123400000Y-86600000D02*
X123100000Y-86300000D01*
X123400000Y-86600000D02*
X123400000Y-86000000D01*
X120900000Y-86150000D02*
G75*
G02*
X121600000Y-85450000I699999J1D01*
G01*
X121600000Y-89550000D02*
G75*
G02*
X120900000Y-88850000I0J700000D01*
G01*
X122200000Y-85450000D02*
G75*
G02*
X122900000Y-86150000I1J-699999D01*
G01*
X122900000Y-88850000D02*
G75*
G02*
X122200000Y-89550000I-700000J0D01*
G01*
%TO.C,JP2*%
X71550000Y-138875000D02*
X72150000Y-138875000D01*
X72850000Y-139575000D02*
X72850000Y-140975000D01*
X70850000Y-140975000D02*
X70850000Y-139575000D01*
X72150000Y-141675000D02*
X71550000Y-141675000D01*
X72150000Y-138875000D02*
G75*
G02*
X72850000Y-139575000I0J-700000D01*
G01*
X70850000Y-139575000D02*
G75*
G02*
X71550000Y-138875000I700000J0D01*
G01*
X72850000Y-140975000D02*
G75*
G02*
X72150000Y-141675000I-699999J-1D01*
G01*
X71550000Y-141675000D02*
G75*
G02*
X70850000Y-140975000I-1J699999D01*
G01*
%TO.C,JP4*%
X138200000Y-103500000D02*
X138200000Y-104100000D01*
X138200000Y-103500000D02*
X138500000Y-103800000D01*
X138200000Y-104100000D02*
X138500000Y-103800000D01*
X138700000Y-104000000D02*
X138700000Y-101200000D01*
X139400000Y-100550000D02*
X140000000Y-100550000D01*
X140000000Y-104650000D02*
X139400000Y-104650000D01*
X140700000Y-101200000D02*
X140700000Y-104000000D01*
X138700000Y-101250000D02*
G75*
G02*
X139400000Y-100550000I700000J0D01*
G01*
X139400000Y-104650000D02*
G75*
G02*
X138700000Y-103950000I-1J699999D01*
G01*
X140000000Y-100550000D02*
G75*
G02*
X140700000Y-101250000I0J-700000D01*
G01*
X140700000Y-103950000D02*
G75*
G02*
X140000000Y-104650000I-699999J-1D01*
G01*
%TO.C,JP3*%
X72150000Y-146350000D02*
X71550000Y-146350000D01*
X70850000Y-145650000D02*
X70850000Y-144250000D01*
X72850000Y-144250000D02*
X72850000Y-145650000D01*
X71550000Y-143550000D02*
X72150000Y-143550000D01*
X71550000Y-146350000D02*
G75*
G02*
X70850000Y-145650000I0J700000D01*
G01*
X72850000Y-145650000D02*
G75*
G02*
X72150000Y-146350000I-700000J0D01*
G01*
X70850000Y-144250000D02*
G75*
G02*
X71550000Y-143550000I699999J1D01*
G01*
X72150000Y-143550000D02*
G75*
G02*
X72850000Y-144250000I1J-699999D01*
G01*
%TD*%
D12*
%TO.C,J3*%
X61987200Y-112498080D03*
X61989740Y-105000000D03*
X61987200Y-97501920D03*
X64489100Y-109996180D03*
X64489100Y-100003820D03*
%TD*%
%TO.C,J4*%
X61987200Y-92498080D03*
X61989740Y-85000000D03*
X61987200Y-77501920D03*
X64489100Y-89996180D03*
X64489100Y-80003820D03*
%TD*%
M02*
