%TF.GenerationSoftware,KiCad,Pcbnew,9.0.7*%
%TF.CreationDate,2026-06-03T11:44:45+01:00*%
%TF.ProjectId,rc2014-PGA2350,72633230-3134-42d5-9047-41323335302e,rev?*%
%TF.SameCoordinates,Original*%
%TF.FileFunction,Soldermask,Bot*%
%TF.FilePolarity,Negative*%
%FSLAX46Y46*%
G04 Gerber Fmt 4.6, Leading zero omitted, Abs format (unit mm)*
G04 Created by KiCad (PCBNEW 9.0.7) date 2026-06-03 11:44:45*
%MOMM*%
%LPD*%
G01*
G04 APERTURE LIST*
%ADD10C,1.700000*%
%ADD11O,1.700000X1.700000*%
%ADD12R,1.700000X1.700000*%
%ADD13R,1.800000X1.800000*%
%ADD14C,1.800000*%
%ADD15R,1.600000X1.600000*%
%ADD16C,1.600000*%
%ADD17O,1.900000X1.200000*%
%ADD18C,1.450000*%
%ADD19R,2.250000X2.250000*%
%ADD20C,2.250000*%
G04 APERTURE END LIST*
D10*
%TO.C,J5*%
X144920000Y-67780000D03*
X144920000Y-70320000D03*
X144920000Y-72860000D03*
X144920000Y-75400000D03*
X144920000Y-77940000D03*
X144920000Y-80480000D03*
X144920000Y-83020000D03*
X144920000Y-85560000D03*
X144920000Y-88100000D03*
D11*
X144920000Y-90640000D03*
%TD*%
%TO.C,J6*%
X147460000Y-90640000D03*
D10*
X147460000Y-88100000D03*
X147460000Y-85560000D03*
X147460000Y-83020000D03*
X147460000Y-80480000D03*
X147460000Y-77940000D03*
X147460000Y-75400000D03*
X147460000Y-72860000D03*
X147460000Y-70320000D03*
X147460000Y-67780000D03*
%TD*%
D12*
%TO.C,J1*%
X51803400Y-100000000D03*
D10*
X54343400Y-100000000D03*
X56883400Y-100000000D03*
X59423400Y-100000000D03*
X61963400Y-100000000D03*
X64503400Y-100000000D03*
X67043400Y-100000000D03*
X69583400Y-100000000D03*
X72123400Y-100000000D03*
X74663400Y-100000000D03*
X77203400Y-100000000D03*
X79743400Y-100000000D03*
X82283400Y-100000000D03*
X84823400Y-100000000D03*
X87363400Y-100000000D03*
X89903400Y-100000000D03*
X92443400Y-100000000D03*
X94983400Y-100000000D03*
X97523400Y-100000000D03*
X100063400Y-100000000D03*
X102603400Y-100000000D03*
X105143400Y-100000000D03*
X107683400Y-100000000D03*
X110223400Y-100000000D03*
X112763400Y-100000000D03*
X115303400Y-100000000D03*
X117843400Y-100000000D03*
X120383400Y-100000000D03*
X122923400Y-100000000D03*
X125463400Y-100000000D03*
X128003400Y-100000000D03*
X130543400Y-100000000D03*
X133083400Y-100000000D03*
X135623400Y-100000000D03*
X138163400Y-100000000D03*
X140703400Y-100000000D03*
X143243400Y-100000000D03*
X145783400Y-100000000D03*
X148323400Y-100000000D03*
%TD*%
D13*
%TO.C,D5*%
X130240000Y-58420000D03*
D14*
X130240000Y-60960000D03*
%TD*%
D13*
%TO.C,D3*%
X136240000Y-58420000D03*
D14*
X136240000Y-60960000D03*
%TD*%
D13*
%TO.C,D2*%
X139240000Y-58420000D03*
D14*
X139240000Y-60960000D03*
%TD*%
D13*
%TO.C,D4*%
X133240000Y-58420000D03*
D14*
X133240000Y-60960000D03*
%TD*%
D12*
%TO.C,J3*%
X58420000Y-86360000D03*
D10*
X58420000Y-88900000D03*
%TD*%
D15*
%TO.C,RN1*%
X142240000Y-54127400D03*
D16*
X139700000Y-54127400D03*
X137160000Y-54127400D03*
X134620000Y-54127400D03*
X132080000Y-54127400D03*
X129540000Y-54127400D03*
X127000000Y-54127400D03*
X124460000Y-54127400D03*
X121920000Y-54127400D03*
%TD*%
D17*
%TO.C,J4*%
X51467500Y-69753600D03*
D18*
X54167500Y-70753600D03*
X54167500Y-75753600D03*
D17*
X51467500Y-76753600D03*
%TD*%
D19*
%TO.C,SW1*%
X113180000Y-58420000D03*
D20*
X106680000Y-58420000D03*
%TD*%
D13*
%TO.C,D1*%
X142240000Y-58420000D03*
D14*
X142240000Y-60960000D03*
%TD*%
D19*
%TO.C,SW2*%
X92560000Y-58420000D03*
D20*
X99060000Y-58420000D03*
%TD*%
D12*
%TO.C,J2*%
X92443400Y-97460000D03*
D10*
X94983400Y-97460000D03*
X97523400Y-97460000D03*
X100063400Y-97460000D03*
X102603400Y-97460000D03*
X105143400Y-97460000D03*
X107683400Y-97460000D03*
X110223400Y-97460000D03*
X112763400Y-97460000D03*
X115303400Y-97460000D03*
%TD*%
D13*
%TO.C,D6*%
X127240000Y-58420000D03*
D14*
X127240000Y-60960000D03*
%TD*%
D13*
%TO.C,D7*%
X124240000Y-58420000D03*
D14*
X124240000Y-60960000D03*
%TD*%
D13*
%TO.C,D8*%
X121240000Y-58420000D03*
D14*
X121240000Y-60960000D03*
%TD*%
D10*
%TO.C,U1*%
X96520000Y-68580000D03*
X93980000Y-66040000D03*
X91440000Y-68580000D03*
X93980000Y-71120000D03*
X91440000Y-71120000D03*
X93980000Y-73660000D03*
X91440000Y-73660000D03*
X93980000Y-76200000D03*
X91440000Y-76200000D03*
X93980000Y-78740000D03*
X91440000Y-78740000D03*
X93980000Y-81280000D03*
X91440000Y-81280000D03*
X93980000Y-83820000D03*
X91440000Y-83820000D03*
X93980000Y-86360000D03*
X91440000Y-86360000D03*
X93980000Y-88900000D03*
X96520000Y-88900000D03*
X96520000Y-86360000D03*
X99060000Y-88900000D03*
X99060000Y-86360000D03*
X101600000Y-88900000D03*
X101600000Y-86360000D03*
X104140000Y-88900000D03*
X104140000Y-86360000D03*
X106680000Y-88900000D03*
X106680000Y-86360000D03*
X109220000Y-88900000D03*
X109220000Y-86360000D03*
X111760000Y-88900000D03*
X111760000Y-86360000D03*
X114300000Y-86360000D03*
X111760000Y-83820000D03*
X114300000Y-83820000D03*
X111760000Y-81280000D03*
X114300000Y-81280000D03*
X111760000Y-78740000D03*
X114300000Y-78740000D03*
X111760000Y-76200000D03*
X114300000Y-76200000D03*
X111760000Y-73660000D03*
X114300000Y-73660000D03*
X111760000Y-71120000D03*
X114300000Y-71120000D03*
X114300000Y-68580000D03*
X111760000Y-66040000D03*
X109220000Y-68580000D03*
X109220000Y-66040000D03*
X106680000Y-68580000D03*
X106680000Y-66040000D03*
X104140000Y-68580000D03*
X104140000Y-66040000D03*
X101600000Y-68580000D03*
X101600000Y-66040000D03*
X99060000Y-68580000D03*
X99060000Y-66040000D03*
X96520000Y-66040000D03*
X93980000Y-68580000D03*
X91440000Y-66040000D03*
X111760000Y-68580000D03*
X114300000Y-66040000D03*
X91440000Y-88900000D03*
X114300000Y-88900000D03*
%TD*%
M02*
