%TF.GenerationSoftware,KiCad,Pcbnew,9.0.7*%
%TF.CreationDate,2026-06-03T11:44:45+01:00*%
%TF.ProjectId,rc2014-PGA2350,72633230-3134-42d5-9047-41323335302e,rev?*%
%TF.SameCoordinates,Original*%
%TF.FileFunction,Legend,Top*%
%TF.FilePolarity,Positive*%
%FSLAX46Y46*%
G04 Gerber Fmt 4.6, Leading zero omitted, Abs format (unit mm)*
G04 Created by KiCad (PCBNEW 9.0.7) date 2026-06-03 11:44:45*
%MOMM*%
%LPD*%
G01*
G04 APERTURE LIST*
%ADD10C,0.150000*%
%ADD11C,0.200000*%
%ADD12C,0.300000*%
%ADD13C,0.120000*%
%ADD14C,0.100000*%
%ADD15C,1.050000*%
G04 APERTURE END LIST*
D10*
X144678569Y-59466847D02*
X144202379Y-59466847D01*
X144202379Y-59466847D02*
X144202379Y-58466847D01*
X145011903Y-58943037D02*
X145345236Y-58943037D01*
X145488093Y-59466847D02*
X145011903Y-59466847D01*
X145011903Y-59466847D02*
X145011903Y-58466847D01*
X145011903Y-58466847D02*
X145488093Y-58466847D01*
X145916665Y-59466847D02*
X145916665Y-58466847D01*
X145916665Y-58466847D02*
X146154760Y-58466847D01*
X146154760Y-58466847D02*
X146297617Y-58514466D01*
X146297617Y-58514466D02*
X146392855Y-58609704D01*
X146392855Y-58609704D02*
X146440474Y-58704942D01*
X146440474Y-58704942D02*
X146488093Y-58895418D01*
X146488093Y-58895418D02*
X146488093Y-59038275D01*
X146488093Y-59038275D02*
X146440474Y-59228751D01*
X146440474Y-59228751D02*
X146392855Y-59323989D01*
X146392855Y-59323989D02*
X146297617Y-59419228D01*
X146297617Y-59419228D02*
X146154760Y-59466847D01*
X146154760Y-59466847D02*
X145916665Y-59466847D01*
X144202379Y-60695838D02*
X144964284Y-60695838D01*
X144583331Y-61076791D02*
X144583331Y-60314886D01*
D11*
X50246380Y-92588280D02*
X51427480Y-91407180D01*
X52997200Y-91407180D02*
X52997200Y-101518920D01*
X52997200Y-101518920D02*
X53032760Y-101518920D01*
X51427480Y-91407180D02*
X52997200Y-91407180D01*
X50246380Y-101518920D02*
X50246380Y-92588280D01*
D10*
X141487420Y-80168152D02*
X141487420Y-80834819D01*
X141249325Y-79787200D02*
X141011230Y-80501485D01*
X141011230Y-80501485D02*
X141630277Y-80501485D01*
X141963611Y-79930057D02*
X142011230Y-79882438D01*
X142011230Y-79882438D02*
X142106468Y-79834819D01*
X142106468Y-79834819D02*
X142344563Y-79834819D01*
X142344563Y-79834819D02*
X142439801Y-79882438D01*
X142439801Y-79882438D02*
X142487420Y-79930057D01*
X142487420Y-79930057D02*
X142535039Y-80025295D01*
X142535039Y-80025295D02*
X142535039Y-80120533D01*
X142535039Y-80120533D02*
X142487420Y-80263390D01*
X142487420Y-80263390D02*
X141915992Y-80834819D01*
X141915992Y-80834819D02*
X142535039Y-80834819D01*
X141487420Y-77648152D02*
X141487420Y-78314819D01*
X141249325Y-77267200D02*
X141011230Y-77981485D01*
X141011230Y-77981485D02*
X141630277Y-77981485D01*
X141915992Y-77314819D02*
X142535039Y-77314819D01*
X142535039Y-77314819D02*
X142201706Y-77695771D01*
X142201706Y-77695771D02*
X142344563Y-77695771D01*
X142344563Y-77695771D02*
X142439801Y-77743390D01*
X142439801Y-77743390D02*
X142487420Y-77791009D01*
X142487420Y-77791009D02*
X142535039Y-77886247D01*
X142535039Y-77886247D02*
X142535039Y-78124342D01*
X142535039Y-78124342D02*
X142487420Y-78219580D01*
X142487420Y-78219580D02*
X142439801Y-78267200D01*
X142439801Y-78267200D02*
X142344563Y-78314819D01*
X142344563Y-78314819D02*
X142058849Y-78314819D01*
X142058849Y-78314819D02*
X141963611Y-78267200D01*
X141963611Y-78267200D02*
X141915992Y-78219580D01*
X74711160Y-65819457D02*
X74758779Y-65771838D01*
X74758779Y-65771838D02*
X74854017Y-65724219D01*
X74854017Y-65724219D02*
X75092112Y-65724219D01*
X75092112Y-65724219D02*
X75187350Y-65771838D01*
X75187350Y-65771838D02*
X75234969Y-65819457D01*
X75234969Y-65819457D02*
X75282588Y-65914695D01*
X75282588Y-65914695D02*
X75282588Y-66009933D01*
X75282588Y-66009933D02*
X75234969Y-66152790D01*
X75234969Y-66152790D02*
X74663541Y-66724219D01*
X74663541Y-66724219D02*
X75282588Y-66724219D01*
X76139731Y-66057552D02*
X76139731Y-66724219D01*
X75901636Y-65676600D02*
X75663541Y-66390885D01*
X75663541Y-66390885D02*
X76282588Y-66390885D01*
X79234968Y-65676600D02*
X78377826Y-66962314D01*
X80139730Y-66724219D02*
X79806397Y-66248028D01*
X79568302Y-66724219D02*
X79568302Y-65724219D01*
X79568302Y-65724219D02*
X79949254Y-65724219D01*
X79949254Y-65724219D02*
X80044492Y-65771838D01*
X80044492Y-65771838D02*
X80092111Y-65819457D01*
X80092111Y-65819457D02*
X80139730Y-65914695D01*
X80139730Y-65914695D02*
X80139730Y-66057552D01*
X80139730Y-66057552D02*
X80092111Y-66152790D01*
X80092111Y-66152790D02*
X80044492Y-66200409D01*
X80044492Y-66200409D02*
X79949254Y-66248028D01*
X79949254Y-66248028D02*
X79568302Y-66248028D01*
X80568302Y-66724219D02*
X80568302Y-65724219D01*
X80568302Y-65724219D02*
X80806397Y-65724219D01*
X80806397Y-65724219D02*
X80949254Y-65771838D01*
X80949254Y-65771838D02*
X81044492Y-65867076D01*
X81044492Y-65867076D02*
X81092111Y-65962314D01*
X81092111Y-65962314D02*
X81139730Y-66152790D01*
X81139730Y-66152790D02*
X81139730Y-66295647D01*
X81139730Y-66295647D02*
X81092111Y-66486123D01*
X81092111Y-66486123D02*
X81044492Y-66581361D01*
X81044492Y-66581361D02*
X80949254Y-66676600D01*
X80949254Y-66676600D02*
X80806397Y-66724219D01*
X80806397Y-66724219D02*
X80568302Y-66724219D01*
X74711160Y-67429401D02*
X74758779Y-67381782D01*
X74758779Y-67381782D02*
X74854017Y-67334163D01*
X74854017Y-67334163D02*
X75092112Y-67334163D01*
X75092112Y-67334163D02*
X75187350Y-67381782D01*
X75187350Y-67381782D02*
X75234969Y-67429401D01*
X75234969Y-67429401D02*
X75282588Y-67524639D01*
X75282588Y-67524639D02*
X75282588Y-67619877D01*
X75282588Y-67619877D02*
X75234969Y-67762734D01*
X75234969Y-67762734D02*
X74663541Y-68334163D01*
X74663541Y-68334163D02*
X75282588Y-68334163D01*
X76187350Y-67334163D02*
X75711160Y-67334163D01*
X75711160Y-67334163D02*
X75663541Y-67810353D01*
X75663541Y-67810353D02*
X75711160Y-67762734D01*
X75711160Y-67762734D02*
X75806398Y-67715115D01*
X75806398Y-67715115D02*
X76044493Y-67715115D01*
X76044493Y-67715115D02*
X76139731Y-67762734D01*
X76139731Y-67762734D02*
X76187350Y-67810353D01*
X76187350Y-67810353D02*
X76234969Y-67905591D01*
X76234969Y-67905591D02*
X76234969Y-68143686D01*
X76234969Y-68143686D02*
X76187350Y-68238924D01*
X76187350Y-68238924D02*
X76139731Y-68286544D01*
X76139731Y-68286544D02*
X76044493Y-68334163D01*
X76044493Y-68334163D02*
X75806398Y-68334163D01*
X75806398Y-68334163D02*
X75711160Y-68286544D01*
X75711160Y-68286544D02*
X75663541Y-68238924D01*
X79234968Y-67286544D02*
X78377826Y-68572258D01*
X79473064Y-67334163D02*
X79711159Y-68334163D01*
X79711159Y-68334163D02*
X79901635Y-67619877D01*
X79901635Y-67619877D02*
X80092111Y-68334163D01*
X80092111Y-68334163D02*
X80330207Y-67334163D01*
X81282587Y-68334163D02*
X80949254Y-67857972D01*
X80711159Y-68334163D02*
X80711159Y-67334163D01*
X80711159Y-67334163D02*
X81092111Y-67334163D01*
X81092111Y-67334163D02*
X81187349Y-67381782D01*
X81187349Y-67381782D02*
X81234968Y-67429401D01*
X81234968Y-67429401D02*
X81282587Y-67524639D01*
X81282587Y-67524639D02*
X81282587Y-67667496D01*
X81282587Y-67667496D02*
X81234968Y-67762734D01*
X81234968Y-67762734D02*
X81187349Y-67810353D01*
X81187349Y-67810353D02*
X81092111Y-67857972D01*
X81092111Y-67857972D02*
X80711159Y-67857972D01*
X74711160Y-69039345D02*
X74758779Y-68991726D01*
X74758779Y-68991726D02*
X74854017Y-68944107D01*
X74854017Y-68944107D02*
X75092112Y-68944107D01*
X75092112Y-68944107D02*
X75187350Y-68991726D01*
X75187350Y-68991726D02*
X75234969Y-69039345D01*
X75234969Y-69039345D02*
X75282588Y-69134583D01*
X75282588Y-69134583D02*
X75282588Y-69229821D01*
X75282588Y-69229821D02*
X75234969Y-69372678D01*
X75234969Y-69372678D02*
X74663541Y-69944107D01*
X74663541Y-69944107D02*
X75282588Y-69944107D01*
X76139731Y-68944107D02*
X75949255Y-68944107D01*
X75949255Y-68944107D02*
X75854017Y-68991726D01*
X75854017Y-68991726D02*
X75806398Y-69039345D01*
X75806398Y-69039345D02*
X75711160Y-69182202D01*
X75711160Y-69182202D02*
X75663541Y-69372678D01*
X75663541Y-69372678D02*
X75663541Y-69753630D01*
X75663541Y-69753630D02*
X75711160Y-69848868D01*
X75711160Y-69848868D02*
X75758779Y-69896488D01*
X75758779Y-69896488D02*
X75854017Y-69944107D01*
X75854017Y-69944107D02*
X76044493Y-69944107D01*
X76044493Y-69944107D02*
X76139731Y-69896488D01*
X76139731Y-69896488D02*
X76187350Y-69848868D01*
X76187350Y-69848868D02*
X76234969Y-69753630D01*
X76234969Y-69753630D02*
X76234969Y-69515535D01*
X76234969Y-69515535D02*
X76187350Y-69420297D01*
X76187350Y-69420297D02*
X76139731Y-69372678D01*
X76139731Y-69372678D02*
X76044493Y-69325059D01*
X76044493Y-69325059D02*
X75854017Y-69325059D01*
X75854017Y-69325059D02*
X75758779Y-69372678D01*
X75758779Y-69372678D02*
X75711160Y-69420297D01*
X75711160Y-69420297D02*
X75663541Y-69515535D01*
X79234968Y-68896488D02*
X78377826Y-70182202D01*
X79901635Y-69420297D02*
X80044492Y-69467916D01*
X80044492Y-69467916D02*
X80092111Y-69515535D01*
X80092111Y-69515535D02*
X80139730Y-69610773D01*
X80139730Y-69610773D02*
X80139730Y-69753630D01*
X80139730Y-69753630D02*
X80092111Y-69848868D01*
X80092111Y-69848868D02*
X80044492Y-69896488D01*
X80044492Y-69896488D02*
X79949254Y-69944107D01*
X79949254Y-69944107D02*
X79568302Y-69944107D01*
X79568302Y-69944107D02*
X79568302Y-68944107D01*
X79568302Y-68944107D02*
X79901635Y-68944107D01*
X79901635Y-68944107D02*
X79996873Y-68991726D01*
X79996873Y-68991726D02*
X80044492Y-69039345D01*
X80044492Y-69039345D02*
X80092111Y-69134583D01*
X80092111Y-69134583D02*
X80092111Y-69229821D01*
X80092111Y-69229821D02*
X80044492Y-69325059D01*
X80044492Y-69325059D02*
X79996873Y-69372678D01*
X79996873Y-69372678D02*
X79901635Y-69420297D01*
X79901635Y-69420297D02*
X79568302Y-69420297D01*
X80568302Y-68944107D02*
X80568302Y-69753630D01*
X80568302Y-69753630D02*
X80615921Y-69848868D01*
X80615921Y-69848868D02*
X80663540Y-69896488D01*
X80663540Y-69896488D02*
X80758778Y-69944107D01*
X80758778Y-69944107D02*
X80949254Y-69944107D01*
X80949254Y-69944107D02*
X81044492Y-69896488D01*
X81044492Y-69896488D02*
X81092111Y-69848868D01*
X81092111Y-69848868D02*
X81139730Y-69753630D01*
X81139730Y-69753630D02*
X81139730Y-68944107D01*
X81568302Y-69896488D02*
X81711159Y-69944107D01*
X81711159Y-69944107D02*
X81949254Y-69944107D01*
X81949254Y-69944107D02*
X82044492Y-69896488D01*
X82044492Y-69896488D02*
X82092111Y-69848868D01*
X82092111Y-69848868D02*
X82139730Y-69753630D01*
X82139730Y-69753630D02*
X82139730Y-69658392D01*
X82139730Y-69658392D02*
X82092111Y-69563154D01*
X82092111Y-69563154D02*
X82044492Y-69515535D01*
X82044492Y-69515535D02*
X81949254Y-69467916D01*
X81949254Y-69467916D02*
X81758778Y-69420297D01*
X81758778Y-69420297D02*
X81663540Y-69372678D01*
X81663540Y-69372678D02*
X81615921Y-69325059D01*
X81615921Y-69325059D02*
X81568302Y-69229821D01*
X81568302Y-69229821D02*
X81568302Y-69134583D01*
X81568302Y-69134583D02*
X81615921Y-69039345D01*
X81615921Y-69039345D02*
X81663540Y-68991726D01*
X81663540Y-68991726D02*
X81758778Y-68944107D01*
X81758778Y-68944107D02*
X81996873Y-68944107D01*
X81996873Y-68944107D02*
X82139730Y-68991726D01*
X82520683Y-69658392D02*
X82996873Y-69658392D01*
X82425445Y-69944107D02*
X82758778Y-68944107D01*
X82758778Y-68944107D02*
X83092111Y-69944107D01*
X83996873Y-69848868D02*
X83949254Y-69896488D01*
X83949254Y-69896488D02*
X83806397Y-69944107D01*
X83806397Y-69944107D02*
X83711159Y-69944107D01*
X83711159Y-69944107D02*
X83568302Y-69896488D01*
X83568302Y-69896488D02*
X83473064Y-69801249D01*
X83473064Y-69801249D02*
X83425445Y-69706011D01*
X83425445Y-69706011D02*
X83377826Y-69515535D01*
X83377826Y-69515535D02*
X83377826Y-69372678D01*
X83377826Y-69372678D02*
X83425445Y-69182202D01*
X83425445Y-69182202D02*
X83473064Y-69086964D01*
X83473064Y-69086964D02*
X83568302Y-68991726D01*
X83568302Y-68991726D02*
X83711159Y-68944107D01*
X83711159Y-68944107D02*
X83806397Y-68944107D01*
X83806397Y-68944107D02*
X83949254Y-68991726D01*
X83949254Y-68991726D02*
X83996873Y-69039345D01*
X84425445Y-69944107D02*
X84425445Y-68944107D01*
X84996873Y-69944107D02*
X84568302Y-69372678D01*
X84996873Y-68944107D02*
X84425445Y-69515535D01*
X74711160Y-70649289D02*
X74758779Y-70601670D01*
X74758779Y-70601670D02*
X74854017Y-70554051D01*
X74854017Y-70554051D02*
X75092112Y-70554051D01*
X75092112Y-70554051D02*
X75187350Y-70601670D01*
X75187350Y-70601670D02*
X75234969Y-70649289D01*
X75234969Y-70649289D02*
X75282588Y-70744527D01*
X75282588Y-70744527D02*
X75282588Y-70839765D01*
X75282588Y-70839765D02*
X75234969Y-70982622D01*
X75234969Y-70982622D02*
X74663541Y-71554051D01*
X74663541Y-71554051D02*
X75282588Y-71554051D01*
X75615922Y-70554051D02*
X76282588Y-70554051D01*
X76282588Y-70554051D02*
X75854017Y-71554051D01*
X79234968Y-70506432D02*
X78377826Y-71792146D01*
X79568302Y-71554051D02*
X79568302Y-70554051D01*
X79568302Y-71030241D02*
X80139730Y-71030241D01*
X80139730Y-71554051D02*
X80139730Y-70554051D01*
X80568302Y-71268336D02*
X81044492Y-71268336D01*
X80473064Y-71554051D02*
X80806397Y-70554051D01*
X80806397Y-70554051D02*
X81139730Y-71554051D01*
X81949254Y-71554051D02*
X81473064Y-71554051D01*
X81473064Y-71554051D02*
X81473064Y-70554051D01*
X82139731Y-70554051D02*
X82711159Y-70554051D01*
X82425445Y-71554051D02*
X82425445Y-70554051D01*
X74711160Y-72259233D02*
X74758779Y-72211614D01*
X74758779Y-72211614D02*
X74854017Y-72163995D01*
X74854017Y-72163995D02*
X75092112Y-72163995D01*
X75092112Y-72163995D02*
X75187350Y-72211614D01*
X75187350Y-72211614D02*
X75234969Y-72259233D01*
X75234969Y-72259233D02*
X75282588Y-72354471D01*
X75282588Y-72354471D02*
X75282588Y-72449709D01*
X75282588Y-72449709D02*
X75234969Y-72592566D01*
X75234969Y-72592566D02*
X74663541Y-73163995D01*
X74663541Y-73163995D02*
X75282588Y-73163995D01*
X75854017Y-72592566D02*
X75758779Y-72544947D01*
X75758779Y-72544947D02*
X75711160Y-72497328D01*
X75711160Y-72497328D02*
X75663541Y-72402090D01*
X75663541Y-72402090D02*
X75663541Y-72354471D01*
X75663541Y-72354471D02*
X75711160Y-72259233D01*
X75711160Y-72259233D02*
X75758779Y-72211614D01*
X75758779Y-72211614D02*
X75854017Y-72163995D01*
X75854017Y-72163995D02*
X76044493Y-72163995D01*
X76044493Y-72163995D02*
X76139731Y-72211614D01*
X76139731Y-72211614D02*
X76187350Y-72259233D01*
X76187350Y-72259233D02*
X76234969Y-72354471D01*
X76234969Y-72354471D02*
X76234969Y-72402090D01*
X76234969Y-72402090D02*
X76187350Y-72497328D01*
X76187350Y-72497328D02*
X76139731Y-72544947D01*
X76139731Y-72544947D02*
X76044493Y-72592566D01*
X76044493Y-72592566D02*
X75854017Y-72592566D01*
X75854017Y-72592566D02*
X75758779Y-72640185D01*
X75758779Y-72640185D02*
X75711160Y-72687804D01*
X75711160Y-72687804D02*
X75663541Y-72783042D01*
X75663541Y-72783042D02*
X75663541Y-72973518D01*
X75663541Y-72973518D02*
X75711160Y-73068756D01*
X75711160Y-73068756D02*
X75758779Y-73116376D01*
X75758779Y-73116376D02*
X75854017Y-73163995D01*
X75854017Y-73163995D02*
X76044493Y-73163995D01*
X76044493Y-73163995D02*
X76139731Y-73116376D01*
X76139731Y-73116376D02*
X76187350Y-73068756D01*
X76187350Y-73068756D02*
X76234969Y-72973518D01*
X76234969Y-72973518D02*
X76234969Y-72783042D01*
X76234969Y-72783042D02*
X76187350Y-72687804D01*
X76187350Y-72687804D02*
X76139731Y-72640185D01*
X76139731Y-72640185D02*
X76044493Y-72592566D01*
X79234968Y-72116376D02*
X78377826Y-73402090D01*
X79568302Y-73163995D02*
X79568302Y-72163995D01*
X79568302Y-72163995D02*
X79901635Y-72878280D01*
X79901635Y-72878280D02*
X80234968Y-72163995D01*
X80234968Y-72163995D02*
X80234968Y-73163995D01*
X81234968Y-73163995D02*
X80663540Y-73163995D01*
X80949254Y-73163995D02*
X80949254Y-72163995D01*
X80949254Y-72163995D02*
X80854016Y-72306852D01*
X80854016Y-72306852D02*
X80758778Y-72402090D01*
X80758778Y-72402090D02*
X80663540Y-72449709D01*
X74711160Y-73869177D02*
X74758779Y-73821558D01*
X74758779Y-73821558D02*
X74854017Y-73773939D01*
X74854017Y-73773939D02*
X75092112Y-73773939D01*
X75092112Y-73773939D02*
X75187350Y-73821558D01*
X75187350Y-73821558D02*
X75234969Y-73869177D01*
X75234969Y-73869177D02*
X75282588Y-73964415D01*
X75282588Y-73964415D02*
X75282588Y-74059653D01*
X75282588Y-74059653D02*
X75234969Y-74202510D01*
X75234969Y-74202510D02*
X74663541Y-74773939D01*
X74663541Y-74773939D02*
X75282588Y-74773939D01*
X75758779Y-74773939D02*
X75949255Y-74773939D01*
X75949255Y-74773939D02*
X76044493Y-74726320D01*
X76044493Y-74726320D02*
X76092112Y-74678700D01*
X76092112Y-74678700D02*
X76187350Y-74535843D01*
X76187350Y-74535843D02*
X76234969Y-74345367D01*
X76234969Y-74345367D02*
X76234969Y-73964415D01*
X76234969Y-73964415D02*
X76187350Y-73869177D01*
X76187350Y-73869177D02*
X76139731Y-73821558D01*
X76139731Y-73821558D02*
X76044493Y-73773939D01*
X76044493Y-73773939D02*
X75854017Y-73773939D01*
X75854017Y-73773939D02*
X75758779Y-73821558D01*
X75758779Y-73821558D02*
X75711160Y-73869177D01*
X75711160Y-73869177D02*
X75663541Y-73964415D01*
X75663541Y-73964415D02*
X75663541Y-74202510D01*
X75663541Y-74202510D02*
X75711160Y-74297748D01*
X75711160Y-74297748D02*
X75758779Y-74345367D01*
X75758779Y-74345367D02*
X75854017Y-74392986D01*
X75854017Y-74392986D02*
X76044493Y-74392986D01*
X76044493Y-74392986D02*
X76139731Y-74345367D01*
X76139731Y-74345367D02*
X76187350Y-74297748D01*
X76187350Y-74297748D02*
X76234969Y-74202510D01*
X79234968Y-73726320D02*
X78377826Y-75012034D01*
X80139730Y-74773939D02*
X79806397Y-74297748D01*
X79568302Y-74773939D02*
X79568302Y-73773939D01*
X79568302Y-73773939D02*
X79949254Y-73773939D01*
X79949254Y-73773939D02*
X80044492Y-73821558D01*
X80044492Y-73821558D02*
X80092111Y-73869177D01*
X80092111Y-73869177D02*
X80139730Y-73964415D01*
X80139730Y-73964415D02*
X80139730Y-74107272D01*
X80139730Y-74107272D02*
X80092111Y-74202510D01*
X80092111Y-74202510D02*
X80044492Y-74250129D01*
X80044492Y-74250129D02*
X79949254Y-74297748D01*
X79949254Y-74297748D02*
X79568302Y-74297748D01*
X80901635Y-74250129D02*
X80568302Y-74250129D01*
X80568302Y-74773939D02*
X80568302Y-73773939D01*
X80568302Y-73773939D02*
X81044492Y-73773939D01*
X81377826Y-74726320D02*
X81520683Y-74773939D01*
X81520683Y-74773939D02*
X81758778Y-74773939D01*
X81758778Y-74773939D02*
X81854016Y-74726320D01*
X81854016Y-74726320D02*
X81901635Y-74678700D01*
X81901635Y-74678700D02*
X81949254Y-74583462D01*
X81949254Y-74583462D02*
X81949254Y-74488224D01*
X81949254Y-74488224D02*
X81901635Y-74392986D01*
X81901635Y-74392986D02*
X81854016Y-74345367D01*
X81854016Y-74345367D02*
X81758778Y-74297748D01*
X81758778Y-74297748D02*
X81568302Y-74250129D01*
X81568302Y-74250129D02*
X81473064Y-74202510D01*
X81473064Y-74202510D02*
X81425445Y-74154891D01*
X81425445Y-74154891D02*
X81377826Y-74059653D01*
X81377826Y-74059653D02*
X81377826Y-73964415D01*
X81377826Y-73964415D02*
X81425445Y-73869177D01*
X81425445Y-73869177D02*
X81473064Y-73821558D01*
X81473064Y-73821558D02*
X81568302Y-73773939D01*
X81568302Y-73773939D02*
X81806397Y-73773939D01*
X81806397Y-73773939D02*
X81949254Y-73821558D01*
X82377826Y-74773939D02*
X82377826Y-73773939D01*
X82377826Y-74250129D02*
X82949254Y-74250129D01*
X82949254Y-74773939D02*
X82949254Y-73773939D01*
X74663541Y-75383883D02*
X75282588Y-75383883D01*
X75282588Y-75383883D02*
X74949255Y-75764835D01*
X74949255Y-75764835D02*
X75092112Y-75764835D01*
X75092112Y-75764835D02*
X75187350Y-75812454D01*
X75187350Y-75812454D02*
X75234969Y-75860073D01*
X75234969Y-75860073D02*
X75282588Y-75955311D01*
X75282588Y-75955311D02*
X75282588Y-76193406D01*
X75282588Y-76193406D02*
X75234969Y-76288644D01*
X75234969Y-76288644D02*
X75187350Y-76336264D01*
X75187350Y-76336264D02*
X75092112Y-76383883D01*
X75092112Y-76383883D02*
X74806398Y-76383883D01*
X74806398Y-76383883D02*
X74711160Y-76336264D01*
X74711160Y-76336264D02*
X74663541Y-76288644D01*
X75901636Y-75383883D02*
X75996874Y-75383883D01*
X75996874Y-75383883D02*
X76092112Y-75431502D01*
X76092112Y-75431502D02*
X76139731Y-75479121D01*
X76139731Y-75479121D02*
X76187350Y-75574359D01*
X76187350Y-75574359D02*
X76234969Y-75764835D01*
X76234969Y-75764835D02*
X76234969Y-76002930D01*
X76234969Y-76002930D02*
X76187350Y-76193406D01*
X76187350Y-76193406D02*
X76139731Y-76288644D01*
X76139731Y-76288644D02*
X76092112Y-76336264D01*
X76092112Y-76336264D02*
X75996874Y-76383883D01*
X75996874Y-76383883D02*
X75901636Y-76383883D01*
X75901636Y-76383883D02*
X75806398Y-76336264D01*
X75806398Y-76336264D02*
X75758779Y-76288644D01*
X75758779Y-76288644D02*
X75711160Y-76193406D01*
X75711160Y-76193406D02*
X75663541Y-76002930D01*
X75663541Y-76002930D02*
X75663541Y-75764835D01*
X75663541Y-75764835D02*
X75711160Y-75574359D01*
X75711160Y-75574359D02*
X75758779Y-75479121D01*
X75758779Y-75479121D02*
X75806398Y-75431502D01*
X75806398Y-75431502D02*
X75901636Y-75383883D01*
X79234968Y-75336264D02*
X78377826Y-76621978D01*
X79568302Y-76383883D02*
X79568302Y-75383883D01*
X79568302Y-75383883D02*
X79901635Y-76098168D01*
X79901635Y-76098168D02*
X80234968Y-75383883D01*
X80234968Y-75383883D02*
X80234968Y-76383883D01*
X81282587Y-76383883D02*
X80949254Y-75907692D01*
X80711159Y-76383883D02*
X80711159Y-75383883D01*
X80711159Y-75383883D02*
X81092111Y-75383883D01*
X81092111Y-75383883D02*
X81187349Y-75431502D01*
X81187349Y-75431502D02*
X81234968Y-75479121D01*
X81234968Y-75479121D02*
X81282587Y-75574359D01*
X81282587Y-75574359D02*
X81282587Y-75717216D01*
X81282587Y-75717216D02*
X81234968Y-75812454D01*
X81234968Y-75812454D02*
X81187349Y-75860073D01*
X81187349Y-75860073D02*
X81092111Y-75907692D01*
X81092111Y-75907692D02*
X80711159Y-75907692D01*
X81711159Y-75860073D02*
X82044492Y-75860073D01*
X82187349Y-76383883D02*
X81711159Y-76383883D01*
X81711159Y-76383883D02*
X81711159Y-75383883D01*
X81711159Y-75383883D02*
X82187349Y-75383883D01*
X83282587Y-76479121D02*
X83187349Y-76431502D01*
X83187349Y-76431502D02*
X83092111Y-76336264D01*
X83092111Y-76336264D02*
X82949254Y-76193406D01*
X82949254Y-76193406D02*
X82854016Y-76145787D01*
X82854016Y-76145787D02*
X82758778Y-76145787D01*
X82806397Y-76383883D02*
X82711159Y-76336264D01*
X82711159Y-76336264D02*
X82615921Y-76241025D01*
X82615921Y-76241025D02*
X82568302Y-76050549D01*
X82568302Y-76050549D02*
X82568302Y-75717216D01*
X82568302Y-75717216D02*
X82615921Y-75526740D01*
X82615921Y-75526740D02*
X82711159Y-75431502D01*
X82711159Y-75431502D02*
X82806397Y-75383883D01*
X82806397Y-75383883D02*
X82996873Y-75383883D01*
X82996873Y-75383883D02*
X83092111Y-75431502D01*
X83092111Y-75431502D02*
X83187349Y-75526740D01*
X83187349Y-75526740D02*
X83234968Y-75717216D01*
X83234968Y-75717216D02*
X83234968Y-76050549D01*
X83234968Y-76050549D02*
X83187349Y-76241025D01*
X83187349Y-76241025D02*
X83092111Y-76336264D01*
X83092111Y-76336264D02*
X82996873Y-76383883D01*
X82996873Y-76383883D02*
X82806397Y-76383883D01*
X74663541Y-76993827D02*
X75282588Y-76993827D01*
X75282588Y-76993827D02*
X74949255Y-77374779D01*
X74949255Y-77374779D02*
X75092112Y-77374779D01*
X75092112Y-77374779D02*
X75187350Y-77422398D01*
X75187350Y-77422398D02*
X75234969Y-77470017D01*
X75234969Y-77470017D02*
X75282588Y-77565255D01*
X75282588Y-77565255D02*
X75282588Y-77803350D01*
X75282588Y-77803350D02*
X75234969Y-77898588D01*
X75234969Y-77898588D02*
X75187350Y-77946208D01*
X75187350Y-77946208D02*
X75092112Y-77993827D01*
X75092112Y-77993827D02*
X74806398Y-77993827D01*
X74806398Y-77993827D02*
X74711160Y-77946208D01*
X74711160Y-77946208D02*
X74663541Y-77898588D01*
X76234969Y-77993827D02*
X75663541Y-77993827D01*
X75949255Y-77993827D02*
X75949255Y-76993827D01*
X75949255Y-76993827D02*
X75854017Y-77136684D01*
X75854017Y-77136684D02*
X75758779Y-77231922D01*
X75758779Y-77231922D02*
X75663541Y-77279541D01*
X79234968Y-76946208D02*
X78377826Y-78231922D01*
X79568302Y-77993827D02*
X79568302Y-76993827D01*
X80234968Y-76993827D02*
X80425444Y-76993827D01*
X80425444Y-76993827D02*
X80520682Y-77041446D01*
X80520682Y-77041446D02*
X80615920Y-77136684D01*
X80615920Y-77136684D02*
X80663539Y-77327160D01*
X80663539Y-77327160D02*
X80663539Y-77660493D01*
X80663539Y-77660493D02*
X80615920Y-77850969D01*
X80615920Y-77850969D02*
X80520682Y-77946208D01*
X80520682Y-77946208D02*
X80425444Y-77993827D01*
X80425444Y-77993827D02*
X80234968Y-77993827D01*
X80234968Y-77993827D02*
X80139730Y-77946208D01*
X80139730Y-77946208D02*
X80044492Y-77850969D01*
X80044492Y-77850969D02*
X79996873Y-77660493D01*
X79996873Y-77660493D02*
X79996873Y-77327160D01*
X79996873Y-77327160D02*
X80044492Y-77136684D01*
X80044492Y-77136684D02*
X80139730Y-77041446D01*
X80139730Y-77041446D02*
X80234968Y-76993827D01*
X81663539Y-77993827D02*
X81330206Y-77517636D01*
X81092111Y-77993827D02*
X81092111Y-76993827D01*
X81092111Y-76993827D02*
X81473063Y-76993827D01*
X81473063Y-76993827D02*
X81568301Y-77041446D01*
X81568301Y-77041446D02*
X81615920Y-77089065D01*
X81615920Y-77089065D02*
X81663539Y-77184303D01*
X81663539Y-77184303D02*
X81663539Y-77327160D01*
X81663539Y-77327160D02*
X81615920Y-77422398D01*
X81615920Y-77422398D02*
X81568301Y-77470017D01*
X81568301Y-77470017D02*
X81473063Y-77517636D01*
X81473063Y-77517636D02*
X81092111Y-77517636D01*
X82758777Y-78089065D02*
X82663539Y-78041446D01*
X82663539Y-78041446D02*
X82568301Y-77946208D01*
X82568301Y-77946208D02*
X82425444Y-77803350D01*
X82425444Y-77803350D02*
X82330206Y-77755731D01*
X82330206Y-77755731D02*
X82234968Y-77755731D01*
X82282587Y-77993827D02*
X82187349Y-77946208D01*
X82187349Y-77946208D02*
X82092111Y-77850969D01*
X82092111Y-77850969D02*
X82044492Y-77660493D01*
X82044492Y-77660493D02*
X82044492Y-77327160D01*
X82044492Y-77327160D02*
X82092111Y-77136684D01*
X82092111Y-77136684D02*
X82187349Y-77041446D01*
X82187349Y-77041446D02*
X82282587Y-76993827D01*
X82282587Y-76993827D02*
X82473063Y-76993827D01*
X82473063Y-76993827D02*
X82568301Y-77041446D01*
X82568301Y-77041446D02*
X82663539Y-77136684D01*
X82663539Y-77136684D02*
X82711158Y-77327160D01*
X82711158Y-77327160D02*
X82711158Y-77660493D01*
X82711158Y-77660493D02*
X82663539Y-77850969D01*
X82663539Y-77850969D02*
X82568301Y-77946208D01*
X82568301Y-77946208D02*
X82473063Y-77993827D01*
X82473063Y-77993827D02*
X82282587Y-77993827D01*
X74663541Y-78603771D02*
X75282588Y-78603771D01*
X75282588Y-78603771D02*
X74949255Y-78984723D01*
X74949255Y-78984723D02*
X75092112Y-78984723D01*
X75092112Y-78984723D02*
X75187350Y-79032342D01*
X75187350Y-79032342D02*
X75234969Y-79079961D01*
X75234969Y-79079961D02*
X75282588Y-79175199D01*
X75282588Y-79175199D02*
X75282588Y-79413294D01*
X75282588Y-79413294D02*
X75234969Y-79508532D01*
X75234969Y-79508532D02*
X75187350Y-79556152D01*
X75187350Y-79556152D02*
X75092112Y-79603771D01*
X75092112Y-79603771D02*
X74806398Y-79603771D01*
X74806398Y-79603771D02*
X74711160Y-79556152D01*
X74711160Y-79556152D02*
X74663541Y-79508532D01*
X75663541Y-78699009D02*
X75711160Y-78651390D01*
X75711160Y-78651390D02*
X75806398Y-78603771D01*
X75806398Y-78603771D02*
X76044493Y-78603771D01*
X76044493Y-78603771D02*
X76139731Y-78651390D01*
X76139731Y-78651390D02*
X76187350Y-78699009D01*
X76187350Y-78699009D02*
X76234969Y-78794247D01*
X76234969Y-78794247D02*
X76234969Y-78889485D01*
X76234969Y-78889485D02*
X76187350Y-79032342D01*
X76187350Y-79032342D02*
X75615922Y-79603771D01*
X75615922Y-79603771D02*
X76234969Y-79603771D01*
X79234968Y-78556152D02*
X78377826Y-79841866D01*
X79901635Y-79079961D02*
X80044492Y-79127580D01*
X80044492Y-79127580D02*
X80092111Y-79175199D01*
X80092111Y-79175199D02*
X80139730Y-79270437D01*
X80139730Y-79270437D02*
X80139730Y-79413294D01*
X80139730Y-79413294D02*
X80092111Y-79508532D01*
X80092111Y-79508532D02*
X80044492Y-79556152D01*
X80044492Y-79556152D02*
X79949254Y-79603771D01*
X79949254Y-79603771D02*
X79568302Y-79603771D01*
X79568302Y-79603771D02*
X79568302Y-78603771D01*
X79568302Y-78603771D02*
X79901635Y-78603771D01*
X79901635Y-78603771D02*
X79996873Y-78651390D01*
X79996873Y-78651390D02*
X80044492Y-78699009D01*
X80044492Y-78699009D02*
X80092111Y-78794247D01*
X80092111Y-78794247D02*
X80092111Y-78889485D01*
X80092111Y-78889485D02*
X80044492Y-78984723D01*
X80044492Y-78984723D02*
X79996873Y-79032342D01*
X79996873Y-79032342D02*
X79901635Y-79079961D01*
X79901635Y-79079961D02*
X79568302Y-79079961D01*
X80568302Y-78603771D02*
X80568302Y-79413294D01*
X80568302Y-79413294D02*
X80615921Y-79508532D01*
X80615921Y-79508532D02*
X80663540Y-79556152D01*
X80663540Y-79556152D02*
X80758778Y-79603771D01*
X80758778Y-79603771D02*
X80949254Y-79603771D01*
X80949254Y-79603771D02*
X81044492Y-79556152D01*
X81044492Y-79556152D02*
X81092111Y-79508532D01*
X81092111Y-79508532D02*
X81139730Y-79413294D01*
X81139730Y-79413294D02*
X81139730Y-78603771D01*
X81568302Y-79556152D02*
X81711159Y-79603771D01*
X81711159Y-79603771D02*
X81949254Y-79603771D01*
X81949254Y-79603771D02*
X82044492Y-79556152D01*
X82044492Y-79556152D02*
X82092111Y-79508532D01*
X82092111Y-79508532D02*
X82139730Y-79413294D01*
X82139730Y-79413294D02*
X82139730Y-79318056D01*
X82139730Y-79318056D02*
X82092111Y-79222818D01*
X82092111Y-79222818D02*
X82044492Y-79175199D01*
X82044492Y-79175199D02*
X81949254Y-79127580D01*
X81949254Y-79127580D02*
X81758778Y-79079961D01*
X81758778Y-79079961D02*
X81663540Y-79032342D01*
X81663540Y-79032342D02*
X81615921Y-78984723D01*
X81615921Y-78984723D02*
X81568302Y-78889485D01*
X81568302Y-78889485D02*
X81568302Y-78794247D01*
X81568302Y-78794247D02*
X81615921Y-78699009D01*
X81615921Y-78699009D02*
X81663540Y-78651390D01*
X81663540Y-78651390D02*
X81758778Y-78603771D01*
X81758778Y-78603771D02*
X81996873Y-78603771D01*
X81996873Y-78603771D02*
X82139730Y-78651390D01*
X83139730Y-79603771D02*
X82806397Y-79127580D01*
X82568302Y-79603771D02*
X82568302Y-78603771D01*
X82568302Y-78603771D02*
X82949254Y-78603771D01*
X82949254Y-78603771D02*
X83044492Y-78651390D01*
X83044492Y-78651390D02*
X83092111Y-78699009D01*
X83092111Y-78699009D02*
X83139730Y-78794247D01*
X83139730Y-78794247D02*
X83139730Y-78937104D01*
X83139730Y-78937104D02*
X83092111Y-79032342D01*
X83092111Y-79032342D02*
X83044492Y-79079961D01*
X83044492Y-79079961D02*
X82949254Y-79127580D01*
X82949254Y-79127580D02*
X82568302Y-79127580D01*
X84234968Y-79699009D02*
X84139730Y-79651390D01*
X84139730Y-79651390D02*
X84044492Y-79556152D01*
X84044492Y-79556152D02*
X83901635Y-79413294D01*
X83901635Y-79413294D02*
X83806397Y-79365675D01*
X83806397Y-79365675D02*
X83711159Y-79365675D01*
X83758778Y-79603771D02*
X83663540Y-79556152D01*
X83663540Y-79556152D02*
X83568302Y-79460913D01*
X83568302Y-79460913D02*
X83520683Y-79270437D01*
X83520683Y-79270437D02*
X83520683Y-78937104D01*
X83520683Y-78937104D02*
X83568302Y-78746628D01*
X83568302Y-78746628D02*
X83663540Y-78651390D01*
X83663540Y-78651390D02*
X83758778Y-78603771D01*
X83758778Y-78603771D02*
X83949254Y-78603771D01*
X83949254Y-78603771D02*
X84044492Y-78651390D01*
X84044492Y-78651390D02*
X84139730Y-78746628D01*
X84139730Y-78746628D02*
X84187349Y-78937104D01*
X84187349Y-78937104D02*
X84187349Y-79270437D01*
X84187349Y-79270437D02*
X84139730Y-79460913D01*
X84139730Y-79460913D02*
X84044492Y-79556152D01*
X84044492Y-79556152D02*
X83949254Y-79603771D01*
X83949254Y-79603771D02*
X83758778Y-79603771D01*
X74663541Y-80213715D02*
X75282588Y-80213715D01*
X75282588Y-80213715D02*
X74949255Y-80594667D01*
X74949255Y-80594667D02*
X75092112Y-80594667D01*
X75092112Y-80594667D02*
X75187350Y-80642286D01*
X75187350Y-80642286D02*
X75234969Y-80689905D01*
X75234969Y-80689905D02*
X75282588Y-80785143D01*
X75282588Y-80785143D02*
X75282588Y-81023238D01*
X75282588Y-81023238D02*
X75234969Y-81118476D01*
X75234969Y-81118476D02*
X75187350Y-81166096D01*
X75187350Y-81166096D02*
X75092112Y-81213715D01*
X75092112Y-81213715D02*
X74806398Y-81213715D01*
X74806398Y-81213715D02*
X74711160Y-81166096D01*
X74711160Y-81166096D02*
X74663541Y-81118476D01*
X75615922Y-80213715D02*
X76234969Y-80213715D01*
X76234969Y-80213715D02*
X75901636Y-80594667D01*
X75901636Y-80594667D02*
X76044493Y-80594667D01*
X76044493Y-80594667D02*
X76139731Y-80642286D01*
X76139731Y-80642286D02*
X76187350Y-80689905D01*
X76187350Y-80689905D02*
X76234969Y-80785143D01*
X76234969Y-80785143D02*
X76234969Y-81023238D01*
X76234969Y-81023238D02*
X76187350Y-81118476D01*
X76187350Y-81118476D02*
X76139731Y-81166096D01*
X76139731Y-81166096D02*
X76044493Y-81213715D01*
X76044493Y-81213715D02*
X75758779Y-81213715D01*
X75758779Y-81213715D02*
X75663541Y-81166096D01*
X75663541Y-81166096D02*
X75615922Y-81118476D01*
X79234968Y-80166096D02*
X78377826Y-81451810D01*
X79568302Y-81213715D02*
X79568302Y-80213715D01*
X80044492Y-81213715D02*
X80044492Y-80213715D01*
X80044492Y-80213715D02*
X80615920Y-81213715D01*
X80615920Y-81213715D02*
X80615920Y-80213715D01*
X80949254Y-80213715D02*
X81520682Y-80213715D01*
X81234968Y-81213715D02*
X81234968Y-80213715D01*
X74663541Y-81823659D02*
X75282588Y-81823659D01*
X75282588Y-81823659D02*
X74949255Y-82204611D01*
X74949255Y-82204611D02*
X75092112Y-82204611D01*
X75092112Y-82204611D02*
X75187350Y-82252230D01*
X75187350Y-82252230D02*
X75234969Y-82299849D01*
X75234969Y-82299849D02*
X75282588Y-82395087D01*
X75282588Y-82395087D02*
X75282588Y-82633182D01*
X75282588Y-82633182D02*
X75234969Y-82728420D01*
X75234969Y-82728420D02*
X75187350Y-82776040D01*
X75187350Y-82776040D02*
X75092112Y-82823659D01*
X75092112Y-82823659D02*
X74806398Y-82823659D01*
X74806398Y-82823659D02*
X74711160Y-82776040D01*
X74711160Y-82776040D02*
X74663541Y-82728420D01*
X76139731Y-82156992D02*
X76139731Y-82823659D01*
X75901636Y-81776040D02*
X75663541Y-82490325D01*
X75663541Y-82490325D02*
X76282588Y-82490325D01*
X79234968Y-81776040D02*
X78377826Y-83061754D01*
X79473064Y-81823659D02*
X79711159Y-82823659D01*
X79711159Y-82823659D02*
X79901635Y-82109373D01*
X79901635Y-82109373D02*
X80092111Y-82823659D01*
X80092111Y-82823659D02*
X80330207Y-81823659D01*
X80663540Y-82537944D02*
X81139730Y-82537944D01*
X80568302Y-82823659D02*
X80901635Y-81823659D01*
X80901635Y-81823659D02*
X81234968Y-82823659D01*
X81568302Y-82823659D02*
X81568302Y-81823659D01*
X81901635Y-81823659D02*
X82473063Y-81823659D01*
X82187349Y-82823659D02*
X82187349Y-81823659D01*
X74663541Y-83433603D02*
X75282588Y-83433603D01*
X75282588Y-83433603D02*
X74949255Y-83814555D01*
X74949255Y-83814555D02*
X75092112Y-83814555D01*
X75092112Y-83814555D02*
X75187350Y-83862174D01*
X75187350Y-83862174D02*
X75234969Y-83909793D01*
X75234969Y-83909793D02*
X75282588Y-84005031D01*
X75282588Y-84005031D02*
X75282588Y-84243126D01*
X75282588Y-84243126D02*
X75234969Y-84338364D01*
X75234969Y-84338364D02*
X75187350Y-84385984D01*
X75187350Y-84385984D02*
X75092112Y-84433603D01*
X75092112Y-84433603D02*
X74806398Y-84433603D01*
X74806398Y-84433603D02*
X74711160Y-84385984D01*
X74711160Y-84385984D02*
X74663541Y-84338364D01*
X76187350Y-83433603D02*
X75711160Y-83433603D01*
X75711160Y-83433603D02*
X75663541Y-83909793D01*
X75663541Y-83909793D02*
X75711160Y-83862174D01*
X75711160Y-83862174D02*
X75806398Y-83814555D01*
X75806398Y-83814555D02*
X76044493Y-83814555D01*
X76044493Y-83814555D02*
X76139731Y-83862174D01*
X76139731Y-83862174D02*
X76187350Y-83909793D01*
X76187350Y-83909793D02*
X76234969Y-84005031D01*
X76234969Y-84005031D02*
X76234969Y-84243126D01*
X76234969Y-84243126D02*
X76187350Y-84338364D01*
X76187350Y-84338364D02*
X76139731Y-84385984D01*
X76139731Y-84385984D02*
X76044493Y-84433603D01*
X76044493Y-84433603D02*
X75806398Y-84433603D01*
X75806398Y-84433603D02*
X75711160Y-84385984D01*
X75711160Y-84385984D02*
X75663541Y-84338364D01*
X79234968Y-83385984D02*
X78377826Y-84671698D01*
X80139730Y-84338364D02*
X80092111Y-84385984D01*
X80092111Y-84385984D02*
X79949254Y-84433603D01*
X79949254Y-84433603D02*
X79854016Y-84433603D01*
X79854016Y-84433603D02*
X79711159Y-84385984D01*
X79711159Y-84385984D02*
X79615921Y-84290745D01*
X79615921Y-84290745D02*
X79568302Y-84195507D01*
X79568302Y-84195507D02*
X79520683Y-84005031D01*
X79520683Y-84005031D02*
X79520683Y-83862174D01*
X79520683Y-83862174D02*
X79568302Y-83671698D01*
X79568302Y-83671698D02*
X79615921Y-83576460D01*
X79615921Y-83576460D02*
X79711159Y-83481222D01*
X79711159Y-83481222D02*
X79854016Y-83433603D01*
X79854016Y-83433603D02*
X79949254Y-83433603D01*
X79949254Y-83433603D02*
X80092111Y-83481222D01*
X80092111Y-83481222D02*
X80139730Y-83528841D01*
X81044492Y-84433603D02*
X80568302Y-84433603D01*
X80568302Y-84433603D02*
X80568302Y-83433603D01*
X81377826Y-84433603D02*
X81377826Y-83433603D01*
X81949254Y-84433603D02*
X81520683Y-83862174D01*
X81949254Y-83433603D02*
X81377826Y-84005031D01*
X74663541Y-85043547D02*
X75282588Y-85043547D01*
X75282588Y-85043547D02*
X74949255Y-85424499D01*
X74949255Y-85424499D02*
X75092112Y-85424499D01*
X75092112Y-85424499D02*
X75187350Y-85472118D01*
X75187350Y-85472118D02*
X75234969Y-85519737D01*
X75234969Y-85519737D02*
X75282588Y-85614975D01*
X75282588Y-85614975D02*
X75282588Y-85853070D01*
X75282588Y-85853070D02*
X75234969Y-85948308D01*
X75234969Y-85948308D02*
X75187350Y-85995928D01*
X75187350Y-85995928D02*
X75092112Y-86043547D01*
X75092112Y-86043547D02*
X74806398Y-86043547D01*
X74806398Y-86043547D02*
X74711160Y-85995928D01*
X74711160Y-85995928D02*
X74663541Y-85948308D01*
X76139731Y-85043547D02*
X75949255Y-85043547D01*
X75949255Y-85043547D02*
X75854017Y-85091166D01*
X75854017Y-85091166D02*
X75806398Y-85138785D01*
X75806398Y-85138785D02*
X75711160Y-85281642D01*
X75711160Y-85281642D02*
X75663541Y-85472118D01*
X75663541Y-85472118D02*
X75663541Y-85853070D01*
X75663541Y-85853070D02*
X75711160Y-85948308D01*
X75711160Y-85948308D02*
X75758779Y-85995928D01*
X75758779Y-85995928D02*
X75854017Y-86043547D01*
X75854017Y-86043547D02*
X76044493Y-86043547D01*
X76044493Y-86043547D02*
X76139731Y-85995928D01*
X76139731Y-85995928D02*
X76187350Y-85948308D01*
X76187350Y-85948308D02*
X76234969Y-85853070D01*
X76234969Y-85853070D02*
X76234969Y-85614975D01*
X76234969Y-85614975D02*
X76187350Y-85519737D01*
X76187350Y-85519737D02*
X76139731Y-85472118D01*
X76139731Y-85472118D02*
X76044493Y-85424499D01*
X76044493Y-85424499D02*
X75854017Y-85424499D01*
X75854017Y-85424499D02*
X75758779Y-85472118D01*
X75758779Y-85472118D02*
X75711160Y-85519737D01*
X75711160Y-85519737D02*
X75663541Y-85614975D01*
X79234968Y-84995928D02*
X78377826Y-86281642D01*
X79568302Y-86043547D02*
X79568302Y-85043547D01*
X79568302Y-85043547D02*
X80139730Y-86043547D01*
X80139730Y-86043547D02*
X80139730Y-85043547D01*
X80615921Y-86043547D02*
X80615921Y-85043547D01*
X80615921Y-85043547D02*
X80949254Y-85757832D01*
X80949254Y-85757832D02*
X81282587Y-85043547D01*
X81282587Y-85043547D02*
X81282587Y-86043547D01*
X81758778Y-86043547D02*
X81758778Y-85043547D01*
X74663541Y-86653491D02*
X75282588Y-86653491D01*
X75282588Y-86653491D02*
X74949255Y-87034443D01*
X74949255Y-87034443D02*
X75092112Y-87034443D01*
X75092112Y-87034443D02*
X75187350Y-87082062D01*
X75187350Y-87082062D02*
X75234969Y-87129681D01*
X75234969Y-87129681D02*
X75282588Y-87224919D01*
X75282588Y-87224919D02*
X75282588Y-87463014D01*
X75282588Y-87463014D02*
X75234969Y-87558252D01*
X75234969Y-87558252D02*
X75187350Y-87605872D01*
X75187350Y-87605872D02*
X75092112Y-87653491D01*
X75092112Y-87653491D02*
X74806398Y-87653491D01*
X74806398Y-87653491D02*
X74711160Y-87605872D01*
X74711160Y-87605872D02*
X74663541Y-87558252D01*
X75615922Y-86653491D02*
X76282588Y-86653491D01*
X76282588Y-86653491D02*
X75854017Y-87653491D01*
X78520683Y-87653491D02*
X78520683Y-86653491D01*
X78520683Y-86653491D02*
X79092111Y-87653491D01*
X79092111Y-87653491D02*
X79092111Y-86653491D01*
X79711159Y-87653491D02*
X79615921Y-87605872D01*
X79615921Y-87605872D02*
X79568302Y-87558252D01*
X79568302Y-87558252D02*
X79520683Y-87463014D01*
X79520683Y-87463014D02*
X79520683Y-87177300D01*
X79520683Y-87177300D02*
X79568302Y-87082062D01*
X79568302Y-87082062D02*
X79615921Y-87034443D01*
X79615921Y-87034443D02*
X79711159Y-86986824D01*
X79711159Y-86986824D02*
X79854016Y-86986824D01*
X79854016Y-86986824D02*
X79949254Y-87034443D01*
X79949254Y-87034443D02*
X79996873Y-87082062D01*
X79996873Y-87082062D02*
X80044492Y-87177300D01*
X80044492Y-87177300D02*
X80044492Y-87463014D01*
X80044492Y-87463014D02*
X79996873Y-87558252D01*
X79996873Y-87558252D02*
X79949254Y-87605872D01*
X79949254Y-87605872D02*
X79854016Y-87653491D01*
X79854016Y-87653491D02*
X79711159Y-87653491D01*
X80330207Y-86986824D02*
X80711159Y-86986824D01*
X80473064Y-86653491D02*
X80473064Y-87510633D01*
X80473064Y-87510633D02*
X80520683Y-87605872D01*
X80520683Y-87605872D02*
X80615921Y-87653491D01*
X80615921Y-87653491D02*
X80711159Y-87653491D01*
X82234969Y-86986824D02*
X82234969Y-87653491D01*
X81806398Y-86986824D02*
X81806398Y-87510633D01*
X81806398Y-87510633D02*
X81854017Y-87605872D01*
X81854017Y-87605872D02*
X81949255Y-87653491D01*
X81949255Y-87653491D02*
X82092112Y-87653491D01*
X82092112Y-87653491D02*
X82187350Y-87605872D01*
X82187350Y-87605872D02*
X82234969Y-87558252D01*
X82663541Y-87605872D02*
X82758779Y-87653491D01*
X82758779Y-87653491D02*
X82949255Y-87653491D01*
X82949255Y-87653491D02*
X83044493Y-87605872D01*
X83044493Y-87605872D02*
X83092112Y-87510633D01*
X83092112Y-87510633D02*
X83092112Y-87463014D01*
X83092112Y-87463014D02*
X83044493Y-87367776D01*
X83044493Y-87367776D02*
X82949255Y-87320157D01*
X82949255Y-87320157D02*
X82806398Y-87320157D01*
X82806398Y-87320157D02*
X82711160Y-87272538D01*
X82711160Y-87272538D02*
X82663541Y-87177300D01*
X82663541Y-87177300D02*
X82663541Y-87129681D01*
X82663541Y-87129681D02*
X82711160Y-87034443D01*
X82711160Y-87034443D02*
X82806398Y-86986824D01*
X82806398Y-86986824D02*
X82949255Y-86986824D01*
X82949255Y-86986824D02*
X83044493Y-87034443D01*
X83901636Y-87605872D02*
X83806398Y-87653491D01*
X83806398Y-87653491D02*
X83615922Y-87653491D01*
X83615922Y-87653491D02*
X83520684Y-87605872D01*
X83520684Y-87605872D02*
X83473065Y-87510633D01*
X83473065Y-87510633D02*
X83473065Y-87129681D01*
X83473065Y-87129681D02*
X83520684Y-87034443D01*
X83520684Y-87034443D02*
X83615922Y-86986824D01*
X83615922Y-86986824D02*
X83806398Y-86986824D01*
X83806398Y-86986824D02*
X83901636Y-87034443D01*
X83901636Y-87034443D02*
X83949255Y-87129681D01*
X83949255Y-87129681D02*
X83949255Y-87224919D01*
X83949255Y-87224919D02*
X83473065Y-87320157D01*
X84806398Y-87653491D02*
X84806398Y-86653491D01*
X84806398Y-87605872D02*
X84711160Y-87653491D01*
X84711160Y-87653491D02*
X84520684Y-87653491D01*
X84520684Y-87653491D02*
X84425446Y-87605872D01*
X84425446Y-87605872D02*
X84377827Y-87558252D01*
X84377827Y-87558252D02*
X84330208Y-87463014D01*
X84330208Y-87463014D02*
X84330208Y-87177300D01*
X84330208Y-87177300D02*
X84377827Y-87082062D01*
X84377827Y-87082062D02*
X84425446Y-87034443D01*
X84425446Y-87034443D02*
X84520684Y-86986824D01*
X84520684Y-86986824D02*
X84711160Y-86986824D01*
X84711160Y-86986824D02*
X84806398Y-87034443D01*
X74663541Y-88263435D02*
X75282588Y-88263435D01*
X75282588Y-88263435D02*
X74949255Y-88644387D01*
X74949255Y-88644387D02*
X75092112Y-88644387D01*
X75092112Y-88644387D02*
X75187350Y-88692006D01*
X75187350Y-88692006D02*
X75234969Y-88739625D01*
X75234969Y-88739625D02*
X75282588Y-88834863D01*
X75282588Y-88834863D02*
X75282588Y-89072958D01*
X75282588Y-89072958D02*
X75234969Y-89168196D01*
X75234969Y-89168196D02*
X75187350Y-89215816D01*
X75187350Y-89215816D02*
X75092112Y-89263435D01*
X75092112Y-89263435D02*
X74806398Y-89263435D01*
X74806398Y-89263435D02*
X74711160Y-89215816D01*
X74711160Y-89215816D02*
X74663541Y-89168196D01*
X75854017Y-88692006D02*
X75758779Y-88644387D01*
X75758779Y-88644387D02*
X75711160Y-88596768D01*
X75711160Y-88596768D02*
X75663541Y-88501530D01*
X75663541Y-88501530D02*
X75663541Y-88453911D01*
X75663541Y-88453911D02*
X75711160Y-88358673D01*
X75711160Y-88358673D02*
X75758779Y-88311054D01*
X75758779Y-88311054D02*
X75854017Y-88263435D01*
X75854017Y-88263435D02*
X76044493Y-88263435D01*
X76044493Y-88263435D02*
X76139731Y-88311054D01*
X76139731Y-88311054D02*
X76187350Y-88358673D01*
X76187350Y-88358673D02*
X76234969Y-88453911D01*
X76234969Y-88453911D02*
X76234969Y-88501530D01*
X76234969Y-88501530D02*
X76187350Y-88596768D01*
X76187350Y-88596768D02*
X76139731Y-88644387D01*
X76139731Y-88644387D02*
X76044493Y-88692006D01*
X76044493Y-88692006D02*
X75854017Y-88692006D01*
X75854017Y-88692006D02*
X75758779Y-88739625D01*
X75758779Y-88739625D02*
X75711160Y-88787244D01*
X75711160Y-88787244D02*
X75663541Y-88882482D01*
X75663541Y-88882482D02*
X75663541Y-89072958D01*
X75663541Y-89072958D02*
X75711160Y-89168196D01*
X75711160Y-89168196D02*
X75758779Y-89215816D01*
X75758779Y-89215816D02*
X75854017Y-89263435D01*
X75854017Y-89263435D02*
X76044493Y-89263435D01*
X76044493Y-89263435D02*
X76139731Y-89215816D01*
X76139731Y-89215816D02*
X76187350Y-89168196D01*
X76187350Y-89168196D02*
X76234969Y-89072958D01*
X76234969Y-89072958D02*
X76234969Y-88882482D01*
X76234969Y-88882482D02*
X76187350Y-88787244D01*
X76187350Y-88787244D02*
X76139731Y-88739625D01*
X76139731Y-88739625D02*
X76044493Y-88692006D01*
X79234968Y-88215816D02*
X78377826Y-89501530D01*
X80139730Y-89263435D02*
X79806397Y-88787244D01*
X79568302Y-89263435D02*
X79568302Y-88263435D01*
X79568302Y-88263435D02*
X79949254Y-88263435D01*
X79949254Y-88263435D02*
X80044492Y-88311054D01*
X80044492Y-88311054D02*
X80092111Y-88358673D01*
X80092111Y-88358673D02*
X80139730Y-88453911D01*
X80139730Y-88453911D02*
X80139730Y-88596768D01*
X80139730Y-88596768D02*
X80092111Y-88692006D01*
X80092111Y-88692006D02*
X80044492Y-88739625D01*
X80044492Y-88739625D02*
X79949254Y-88787244D01*
X79949254Y-88787244D02*
X79568302Y-88787244D01*
X80568302Y-88739625D02*
X80901635Y-88739625D01*
X81044492Y-89263435D02*
X80568302Y-89263435D01*
X80568302Y-89263435D02*
X80568302Y-88263435D01*
X80568302Y-88263435D02*
X81044492Y-88263435D01*
X81425445Y-89215816D02*
X81568302Y-89263435D01*
X81568302Y-89263435D02*
X81806397Y-89263435D01*
X81806397Y-89263435D02*
X81901635Y-89215816D01*
X81901635Y-89215816D02*
X81949254Y-89168196D01*
X81949254Y-89168196D02*
X81996873Y-89072958D01*
X81996873Y-89072958D02*
X81996873Y-88977720D01*
X81996873Y-88977720D02*
X81949254Y-88882482D01*
X81949254Y-88882482D02*
X81901635Y-88834863D01*
X81901635Y-88834863D02*
X81806397Y-88787244D01*
X81806397Y-88787244D02*
X81615921Y-88739625D01*
X81615921Y-88739625D02*
X81520683Y-88692006D01*
X81520683Y-88692006D02*
X81473064Y-88644387D01*
X81473064Y-88644387D02*
X81425445Y-88549149D01*
X81425445Y-88549149D02*
X81425445Y-88453911D01*
X81425445Y-88453911D02*
X81473064Y-88358673D01*
X81473064Y-88358673D02*
X81520683Y-88311054D01*
X81520683Y-88311054D02*
X81615921Y-88263435D01*
X81615921Y-88263435D02*
X81854016Y-88263435D01*
X81854016Y-88263435D02*
X81996873Y-88311054D01*
X82425445Y-88739625D02*
X82758778Y-88739625D01*
X82901635Y-89263435D02*
X82425445Y-89263435D01*
X82425445Y-89263435D02*
X82425445Y-88263435D01*
X82425445Y-88263435D02*
X82901635Y-88263435D01*
X83187350Y-88263435D02*
X83758778Y-88263435D01*
X83473064Y-89263435D02*
X83473064Y-88263435D01*
X121151760Y-75604819D02*
X121246998Y-75604819D01*
X121246998Y-75604819D02*
X121342236Y-75652438D01*
X121342236Y-75652438D02*
X121389855Y-75700057D01*
X121389855Y-75700057D02*
X121437474Y-75795295D01*
X121437474Y-75795295D02*
X121485093Y-75985771D01*
X121485093Y-75985771D02*
X121485093Y-76223866D01*
X121485093Y-76223866D02*
X121437474Y-76414342D01*
X121437474Y-76414342D02*
X121389855Y-76509580D01*
X121389855Y-76509580D02*
X121342236Y-76557200D01*
X121342236Y-76557200D02*
X121246998Y-76604819D01*
X121246998Y-76604819D02*
X121151760Y-76604819D01*
X121151760Y-76604819D02*
X121056522Y-76557200D01*
X121056522Y-76557200D02*
X121008903Y-76509580D01*
X121008903Y-76509580D02*
X120961284Y-76414342D01*
X120961284Y-76414342D02*
X120913665Y-76223866D01*
X120913665Y-76223866D02*
X120913665Y-75985771D01*
X120913665Y-75985771D02*
X120961284Y-75795295D01*
X120961284Y-75795295D02*
X121008903Y-75700057D01*
X121008903Y-75700057D02*
X121056522Y-75652438D01*
X121056522Y-75652438D02*
X121151760Y-75604819D01*
X121913665Y-76223866D02*
X122675570Y-76223866D01*
X123675569Y-76604819D02*
X123104141Y-76604819D01*
X123389855Y-76604819D02*
X123389855Y-75604819D01*
X123389855Y-75604819D02*
X123294617Y-75747676D01*
X123294617Y-75747676D02*
X123199379Y-75842914D01*
X123199379Y-75842914D02*
X123104141Y-75890533D01*
X124580331Y-75604819D02*
X124104141Y-75604819D01*
X124104141Y-75604819D02*
X124056522Y-76081009D01*
X124056522Y-76081009D02*
X124104141Y-76033390D01*
X124104141Y-76033390D02*
X124199379Y-75985771D01*
X124199379Y-75985771D02*
X124437474Y-75985771D01*
X124437474Y-75985771D02*
X124532712Y-76033390D01*
X124532712Y-76033390D02*
X124580331Y-76081009D01*
X124580331Y-76081009D02*
X124627950Y-76176247D01*
X124627950Y-76176247D02*
X124627950Y-76414342D01*
X124627950Y-76414342D02*
X124580331Y-76509580D01*
X124580331Y-76509580D02*
X124532712Y-76557200D01*
X124532712Y-76557200D02*
X124437474Y-76604819D01*
X124437474Y-76604819D02*
X124199379Y-76604819D01*
X124199379Y-76604819D02*
X124104141Y-76557200D01*
X124104141Y-76557200D02*
X124056522Y-76509580D01*
X125770808Y-76319104D02*
X126246998Y-76319104D01*
X125675570Y-76604819D02*
X126008903Y-75604819D01*
X126008903Y-75604819D02*
X126342236Y-76604819D01*
X126866046Y-75604819D02*
X126961284Y-75604819D01*
X126961284Y-75604819D02*
X127056522Y-75652438D01*
X127056522Y-75652438D02*
X127104141Y-75700057D01*
X127104141Y-75700057D02*
X127151760Y-75795295D01*
X127151760Y-75795295D02*
X127199379Y-75985771D01*
X127199379Y-75985771D02*
X127199379Y-76223866D01*
X127199379Y-76223866D02*
X127151760Y-76414342D01*
X127151760Y-76414342D02*
X127104141Y-76509580D01*
X127104141Y-76509580D02*
X127056522Y-76557200D01*
X127056522Y-76557200D02*
X126961284Y-76604819D01*
X126961284Y-76604819D02*
X126866046Y-76604819D01*
X126866046Y-76604819D02*
X126770808Y-76557200D01*
X126770808Y-76557200D02*
X126723189Y-76509580D01*
X126723189Y-76509580D02*
X126675570Y-76414342D01*
X126675570Y-76414342D02*
X126627951Y-76223866D01*
X126627951Y-76223866D02*
X126627951Y-75985771D01*
X126627951Y-75985771D02*
X126675570Y-75795295D01*
X126675570Y-75795295D02*
X126723189Y-75700057D01*
X126723189Y-75700057D02*
X126770808Y-75652438D01*
X126770808Y-75652438D02*
X126866046Y-75604819D01*
X127627951Y-76223866D02*
X128389856Y-76223866D01*
X128818427Y-76319104D02*
X129294617Y-76319104D01*
X128723189Y-76604819D02*
X129056522Y-75604819D01*
X129056522Y-75604819D02*
X129389855Y-76604819D01*
X130246998Y-76604819D02*
X129675570Y-76604819D01*
X129961284Y-76604819D02*
X129961284Y-75604819D01*
X129961284Y-75604819D02*
X129866046Y-75747676D01*
X129866046Y-75747676D02*
X129770808Y-75842914D01*
X129770808Y-75842914D02*
X129675570Y-75890533D01*
X131151760Y-75604819D02*
X130675570Y-75604819D01*
X130675570Y-75604819D02*
X130627951Y-76081009D01*
X130627951Y-76081009D02*
X130675570Y-76033390D01*
X130675570Y-76033390D02*
X130770808Y-75985771D01*
X130770808Y-75985771D02*
X131008903Y-75985771D01*
X131008903Y-75985771D02*
X131104141Y-76033390D01*
X131104141Y-76033390D02*
X131151760Y-76081009D01*
X131151760Y-76081009D02*
X131199379Y-76176247D01*
X131199379Y-76176247D02*
X131199379Y-76414342D01*
X131199379Y-76414342D02*
X131151760Y-76509580D01*
X131151760Y-76509580D02*
X131104141Y-76557200D01*
X131104141Y-76557200D02*
X131008903Y-76604819D01*
X131008903Y-76604819D02*
X130770808Y-76604819D01*
X130770808Y-76604819D02*
X130675570Y-76557200D01*
X130675570Y-76557200D02*
X130627951Y-76509580D01*
X120723188Y-78214763D02*
X120151760Y-78214763D01*
X120437474Y-78214763D02*
X120437474Y-77214763D01*
X120437474Y-77214763D02*
X120342236Y-77357620D01*
X120342236Y-77357620D02*
X120246998Y-77452858D01*
X120246998Y-77452858D02*
X120151760Y-77500477D01*
X121580331Y-77214763D02*
X121389855Y-77214763D01*
X121389855Y-77214763D02*
X121294617Y-77262382D01*
X121294617Y-77262382D02*
X121246998Y-77310001D01*
X121246998Y-77310001D02*
X121151760Y-77452858D01*
X121151760Y-77452858D02*
X121104141Y-77643334D01*
X121104141Y-77643334D02*
X121104141Y-78024286D01*
X121104141Y-78024286D02*
X121151760Y-78119524D01*
X121151760Y-78119524D02*
X121199379Y-78167144D01*
X121199379Y-78167144D02*
X121294617Y-78214763D01*
X121294617Y-78214763D02*
X121485093Y-78214763D01*
X121485093Y-78214763D02*
X121580331Y-78167144D01*
X121580331Y-78167144D02*
X121627950Y-78119524D01*
X121627950Y-78119524D02*
X121675569Y-78024286D01*
X121675569Y-78024286D02*
X121675569Y-77786191D01*
X121675569Y-77786191D02*
X121627950Y-77690953D01*
X121627950Y-77690953D02*
X121580331Y-77643334D01*
X121580331Y-77643334D02*
X121485093Y-77595715D01*
X121485093Y-77595715D02*
X121294617Y-77595715D01*
X121294617Y-77595715D02*
X121199379Y-77643334D01*
X121199379Y-77643334D02*
X121151760Y-77690953D01*
X121151760Y-77690953D02*
X121104141Y-77786191D01*
X122104141Y-77833810D02*
X122866046Y-77833810D01*
X123294617Y-77310001D02*
X123342236Y-77262382D01*
X123342236Y-77262382D02*
X123437474Y-77214763D01*
X123437474Y-77214763D02*
X123675569Y-77214763D01*
X123675569Y-77214763D02*
X123770807Y-77262382D01*
X123770807Y-77262382D02*
X123818426Y-77310001D01*
X123818426Y-77310001D02*
X123866045Y-77405239D01*
X123866045Y-77405239D02*
X123866045Y-77500477D01*
X123866045Y-77500477D02*
X123818426Y-77643334D01*
X123818426Y-77643334D02*
X123246998Y-78214763D01*
X123246998Y-78214763D02*
X123866045Y-78214763D01*
X124199379Y-77214763D02*
X124818426Y-77214763D01*
X124818426Y-77214763D02*
X124485093Y-77595715D01*
X124485093Y-77595715D02*
X124627950Y-77595715D01*
X124627950Y-77595715D02*
X124723188Y-77643334D01*
X124723188Y-77643334D02*
X124770807Y-77690953D01*
X124770807Y-77690953D02*
X124818426Y-77786191D01*
X124818426Y-77786191D02*
X124818426Y-78024286D01*
X124818426Y-78024286D02*
X124770807Y-78119524D01*
X124770807Y-78119524D02*
X124723188Y-78167144D01*
X124723188Y-78167144D02*
X124627950Y-78214763D01*
X124627950Y-78214763D02*
X124342236Y-78214763D01*
X124342236Y-78214763D02*
X124246998Y-78167144D01*
X124246998Y-78167144D02*
X124199379Y-78119524D01*
X126008903Y-78214763D02*
X126008903Y-77214763D01*
X126008903Y-77214763D02*
X126246998Y-77214763D01*
X126246998Y-77214763D02*
X126389855Y-77262382D01*
X126389855Y-77262382D02*
X126485093Y-77357620D01*
X126485093Y-77357620D02*
X126532712Y-77452858D01*
X126532712Y-77452858D02*
X126580331Y-77643334D01*
X126580331Y-77643334D02*
X126580331Y-77786191D01*
X126580331Y-77786191D02*
X126532712Y-77976667D01*
X126532712Y-77976667D02*
X126485093Y-78071905D01*
X126485093Y-78071905D02*
X126389855Y-78167144D01*
X126389855Y-78167144D02*
X126246998Y-78214763D01*
X126246998Y-78214763D02*
X126008903Y-78214763D01*
X127199379Y-77214763D02*
X127294617Y-77214763D01*
X127294617Y-77214763D02*
X127389855Y-77262382D01*
X127389855Y-77262382D02*
X127437474Y-77310001D01*
X127437474Y-77310001D02*
X127485093Y-77405239D01*
X127485093Y-77405239D02*
X127532712Y-77595715D01*
X127532712Y-77595715D02*
X127532712Y-77833810D01*
X127532712Y-77833810D02*
X127485093Y-78024286D01*
X127485093Y-78024286D02*
X127437474Y-78119524D01*
X127437474Y-78119524D02*
X127389855Y-78167144D01*
X127389855Y-78167144D02*
X127294617Y-78214763D01*
X127294617Y-78214763D02*
X127199379Y-78214763D01*
X127199379Y-78214763D02*
X127104141Y-78167144D01*
X127104141Y-78167144D02*
X127056522Y-78119524D01*
X127056522Y-78119524D02*
X127008903Y-78024286D01*
X127008903Y-78024286D02*
X126961284Y-77833810D01*
X126961284Y-77833810D02*
X126961284Y-77595715D01*
X126961284Y-77595715D02*
X127008903Y-77405239D01*
X127008903Y-77405239D02*
X127056522Y-77310001D01*
X127056522Y-77310001D02*
X127104141Y-77262382D01*
X127104141Y-77262382D02*
X127199379Y-77214763D01*
X127961284Y-77833810D02*
X128723189Y-77833810D01*
X129199379Y-78214763D02*
X129199379Y-77214763D01*
X129199379Y-77214763D02*
X129437474Y-77214763D01*
X129437474Y-77214763D02*
X129580331Y-77262382D01*
X129580331Y-77262382D02*
X129675569Y-77357620D01*
X129675569Y-77357620D02*
X129723188Y-77452858D01*
X129723188Y-77452858D02*
X129770807Y-77643334D01*
X129770807Y-77643334D02*
X129770807Y-77786191D01*
X129770807Y-77786191D02*
X129723188Y-77976667D01*
X129723188Y-77976667D02*
X129675569Y-78071905D01*
X129675569Y-78071905D02*
X129580331Y-78167144D01*
X129580331Y-78167144D02*
X129437474Y-78214763D01*
X129437474Y-78214763D02*
X129199379Y-78214763D01*
X130104141Y-77214763D02*
X130770807Y-77214763D01*
X130770807Y-77214763D02*
X130342236Y-78214763D01*
X123151761Y-78824707D02*
X123770808Y-78824707D01*
X123770808Y-78824707D02*
X123437475Y-79205659D01*
X123437475Y-79205659D02*
X123580332Y-79205659D01*
X123580332Y-79205659D02*
X123675570Y-79253278D01*
X123675570Y-79253278D02*
X123723189Y-79300897D01*
X123723189Y-79300897D02*
X123770808Y-79396135D01*
X123770808Y-79396135D02*
X123770808Y-79634230D01*
X123770808Y-79634230D02*
X123723189Y-79729468D01*
X123723189Y-79729468D02*
X123675570Y-79777088D01*
X123675570Y-79777088D02*
X123580332Y-79824707D01*
X123580332Y-79824707D02*
X123294618Y-79824707D01*
X123294618Y-79824707D02*
X123199380Y-79777088D01*
X123199380Y-79777088D02*
X123151761Y-79729468D01*
X124104142Y-78824707D02*
X124770808Y-78824707D01*
X124770808Y-78824707D02*
X124342237Y-79824707D01*
X126437475Y-78872326D02*
X126342237Y-78824707D01*
X126342237Y-78824707D02*
X126199380Y-78824707D01*
X126199380Y-78824707D02*
X126056523Y-78872326D01*
X126056523Y-78872326D02*
X125961285Y-78967564D01*
X125961285Y-78967564D02*
X125913666Y-79062802D01*
X125913666Y-79062802D02*
X125866047Y-79253278D01*
X125866047Y-79253278D02*
X125866047Y-79396135D01*
X125866047Y-79396135D02*
X125913666Y-79586611D01*
X125913666Y-79586611D02*
X125961285Y-79681849D01*
X125961285Y-79681849D02*
X126056523Y-79777088D01*
X126056523Y-79777088D02*
X126199380Y-79824707D01*
X126199380Y-79824707D02*
X126294618Y-79824707D01*
X126294618Y-79824707D02*
X126437475Y-79777088D01*
X126437475Y-79777088D02*
X126485094Y-79729468D01*
X126485094Y-79729468D02*
X126485094Y-79396135D01*
X126485094Y-79396135D02*
X126294618Y-79396135D01*
X126913666Y-79824707D02*
X126913666Y-78824707D01*
X126913666Y-78824707D02*
X127294618Y-78824707D01*
X127294618Y-78824707D02*
X127389856Y-78872326D01*
X127389856Y-78872326D02*
X127437475Y-78919945D01*
X127437475Y-78919945D02*
X127485094Y-79015183D01*
X127485094Y-79015183D02*
X127485094Y-79158040D01*
X127485094Y-79158040D02*
X127437475Y-79253278D01*
X127437475Y-79253278D02*
X127389856Y-79300897D01*
X127389856Y-79300897D02*
X127294618Y-79348516D01*
X127294618Y-79348516D02*
X126913666Y-79348516D01*
X127913666Y-79824707D02*
X127913666Y-78824707D01*
X128580332Y-78824707D02*
X128770808Y-78824707D01*
X128770808Y-78824707D02*
X128866046Y-78872326D01*
X128866046Y-78872326D02*
X128961284Y-78967564D01*
X128961284Y-78967564D02*
X129008903Y-79158040D01*
X129008903Y-79158040D02*
X129008903Y-79491373D01*
X129008903Y-79491373D02*
X128961284Y-79681849D01*
X128961284Y-79681849D02*
X128866046Y-79777088D01*
X128866046Y-79777088D02*
X128770808Y-79824707D01*
X128770808Y-79824707D02*
X128580332Y-79824707D01*
X128580332Y-79824707D02*
X128485094Y-79777088D01*
X128485094Y-79777088D02*
X128389856Y-79681849D01*
X128389856Y-79681849D02*
X128342237Y-79491373D01*
X128342237Y-79491373D02*
X128342237Y-79158040D01*
X128342237Y-79158040D02*
X128389856Y-78967564D01*
X128389856Y-78967564D02*
X128485094Y-78872326D01*
X128485094Y-78872326D02*
X128580332Y-78824707D01*
X123151761Y-80434651D02*
X123770808Y-80434651D01*
X123770808Y-80434651D02*
X123437475Y-80815603D01*
X123437475Y-80815603D02*
X123580332Y-80815603D01*
X123580332Y-80815603D02*
X123675570Y-80863222D01*
X123675570Y-80863222D02*
X123723189Y-80910841D01*
X123723189Y-80910841D02*
X123770808Y-81006079D01*
X123770808Y-81006079D02*
X123770808Y-81244174D01*
X123770808Y-81244174D02*
X123723189Y-81339412D01*
X123723189Y-81339412D02*
X123675570Y-81387032D01*
X123675570Y-81387032D02*
X123580332Y-81434651D01*
X123580332Y-81434651D02*
X123294618Y-81434651D01*
X123294618Y-81434651D02*
X123199380Y-81387032D01*
X123199380Y-81387032D02*
X123151761Y-81339412D01*
X124246999Y-81434651D02*
X124437475Y-81434651D01*
X124437475Y-81434651D02*
X124532713Y-81387032D01*
X124532713Y-81387032D02*
X124580332Y-81339412D01*
X124580332Y-81339412D02*
X124675570Y-81196555D01*
X124675570Y-81196555D02*
X124723189Y-81006079D01*
X124723189Y-81006079D02*
X124723189Y-80625127D01*
X124723189Y-80625127D02*
X124675570Y-80529889D01*
X124675570Y-80529889D02*
X124627951Y-80482270D01*
X124627951Y-80482270D02*
X124532713Y-80434651D01*
X124532713Y-80434651D02*
X124342237Y-80434651D01*
X124342237Y-80434651D02*
X124246999Y-80482270D01*
X124246999Y-80482270D02*
X124199380Y-80529889D01*
X124199380Y-80529889D02*
X124151761Y-80625127D01*
X124151761Y-80625127D02*
X124151761Y-80863222D01*
X124151761Y-80863222D02*
X124199380Y-80958460D01*
X124199380Y-80958460D02*
X124246999Y-81006079D01*
X124246999Y-81006079D02*
X124342237Y-81053698D01*
X124342237Y-81053698D02*
X124532713Y-81053698D01*
X124532713Y-81053698D02*
X124627951Y-81006079D01*
X124627951Y-81006079D02*
X124675570Y-80958460D01*
X124675570Y-80958460D02*
X124723189Y-80863222D01*
X126437475Y-80482270D02*
X126342237Y-80434651D01*
X126342237Y-80434651D02*
X126199380Y-80434651D01*
X126199380Y-80434651D02*
X126056523Y-80482270D01*
X126056523Y-80482270D02*
X125961285Y-80577508D01*
X125961285Y-80577508D02*
X125913666Y-80672746D01*
X125913666Y-80672746D02*
X125866047Y-80863222D01*
X125866047Y-80863222D02*
X125866047Y-81006079D01*
X125866047Y-81006079D02*
X125913666Y-81196555D01*
X125913666Y-81196555D02*
X125961285Y-81291793D01*
X125961285Y-81291793D02*
X126056523Y-81387032D01*
X126056523Y-81387032D02*
X126199380Y-81434651D01*
X126199380Y-81434651D02*
X126294618Y-81434651D01*
X126294618Y-81434651D02*
X126437475Y-81387032D01*
X126437475Y-81387032D02*
X126485094Y-81339412D01*
X126485094Y-81339412D02*
X126485094Y-81006079D01*
X126485094Y-81006079D02*
X126294618Y-81006079D01*
X126913666Y-81434651D02*
X126913666Y-80434651D01*
X126913666Y-80434651D02*
X127294618Y-80434651D01*
X127294618Y-80434651D02*
X127389856Y-80482270D01*
X127389856Y-80482270D02*
X127437475Y-80529889D01*
X127437475Y-80529889D02*
X127485094Y-80625127D01*
X127485094Y-80625127D02*
X127485094Y-80767984D01*
X127485094Y-80767984D02*
X127437475Y-80863222D01*
X127437475Y-80863222D02*
X127389856Y-80910841D01*
X127389856Y-80910841D02*
X127294618Y-80958460D01*
X127294618Y-80958460D02*
X126913666Y-80958460D01*
X127913666Y-81434651D02*
X127913666Y-80434651D01*
X128580332Y-80434651D02*
X128770808Y-80434651D01*
X128770808Y-80434651D02*
X128866046Y-80482270D01*
X128866046Y-80482270D02*
X128961284Y-80577508D01*
X128961284Y-80577508D02*
X129008903Y-80767984D01*
X129008903Y-80767984D02*
X129008903Y-81101317D01*
X129008903Y-81101317D02*
X128961284Y-81291793D01*
X128961284Y-81291793D02*
X128866046Y-81387032D01*
X128866046Y-81387032D02*
X128770808Y-81434651D01*
X128770808Y-81434651D02*
X128580332Y-81434651D01*
X128580332Y-81434651D02*
X128485094Y-81387032D01*
X128485094Y-81387032D02*
X128389856Y-81291793D01*
X128389856Y-81291793D02*
X128342237Y-81101317D01*
X128342237Y-81101317D02*
X128342237Y-80767984D01*
X128342237Y-80767984D02*
X128389856Y-80577508D01*
X128389856Y-80577508D02*
X128485094Y-80482270D01*
X128485094Y-80482270D02*
X128580332Y-80434651D01*
X120627950Y-82377928D02*
X120627950Y-83044595D01*
X120389855Y-81996976D02*
X120151760Y-82711261D01*
X120151760Y-82711261D02*
X120770807Y-82711261D01*
X121342236Y-82044595D02*
X121437474Y-82044595D01*
X121437474Y-82044595D02*
X121532712Y-82092214D01*
X121532712Y-82092214D02*
X121580331Y-82139833D01*
X121580331Y-82139833D02*
X121627950Y-82235071D01*
X121627950Y-82235071D02*
X121675569Y-82425547D01*
X121675569Y-82425547D02*
X121675569Y-82663642D01*
X121675569Y-82663642D02*
X121627950Y-82854118D01*
X121627950Y-82854118D02*
X121580331Y-82949356D01*
X121580331Y-82949356D02*
X121532712Y-82996976D01*
X121532712Y-82996976D02*
X121437474Y-83044595D01*
X121437474Y-83044595D02*
X121342236Y-83044595D01*
X121342236Y-83044595D02*
X121246998Y-82996976D01*
X121246998Y-82996976D02*
X121199379Y-82949356D01*
X121199379Y-82949356D02*
X121151760Y-82854118D01*
X121151760Y-82854118D02*
X121104141Y-82663642D01*
X121104141Y-82663642D02*
X121104141Y-82425547D01*
X121104141Y-82425547D02*
X121151760Y-82235071D01*
X121151760Y-82235071D02*
X121199379Y-82139833D01*
X121199379Y-82139833D02*
X121246998Y-82092214D01*
X121246998Y-82092214D02*
X121342236Y-82044595D01*
X122104141Y-82663642D02*
X122866046Y-82663642D01*
X123770807Y-82377928D02*
X123770807Y-83044595D01*
X123532712Y-81996976D02*
X123294617Y-82711261D01*
X123294617Y-82711261D02*
X123913664Y-82711261D01*
X124199379Y-82044595D02*
X124866045Y-82044595D01*
X124866045Y-82044595D02*
X124437474Y-83044595D01*
X126532712Y-82092214D02*
X126437474Y-82044595D01*
X126437474Y-82044595D02*
X126294617Y-82044595D01*
X126294617Y-82044595D02*
X126151760Y-82092214D01*
X126151760Y-82092214D02*
X126056522Y-82187452D01*
X126056522Y-82187452D02*
X126008903Y-82282690D01*
X126008903Y-82282690D02*
X125961284Y-82473166D01*
X125961284Y-82473166D02*
X125961284Y-82616023D01*
X125961284Y-82616023D02*
X126008903Y-82806499D01*
X126008903Y-82806499D02*
X126056522Y-82901737D01*
X126056522Y-82901737D02*
X126151760Y-82996976D01*
X126151760Y-82996976D02*
X126294617Y-83044595D01*
X126294617Y-83044595D02*
X126389855Y-83044595D01*
X126389855Y-83044595D02*
X126532712Y-82996976D01*
X126532712Y-82996976D02*
X126580331Y-82949356D01*
X126580331Y-82949356D02*
X126580331Y-82616023D01*
X126580331Y-82616023D02*
X126389855Y-82616023D01*
X127008903Y-83044595D02*
X127008903Y-82044595D01*
X127008903Y-82044595D02*
X127389855Y-82044595D01*
X127389855Y-82044595D02*
X127485093Y-82092214D01*
X127485093Y-82092214D02*
X127532712Y-82139833D01*
X127532712Y-82139833D02*
X127580331Y-82235071D01*
X127580331Y-82235071D02*
X127580331Y-82377928D01*
X127580331Y-82377928D02*
X127532712Y-82473166D01*
X127532712Y-82473166D02*
X127485093Y-82520785D01*
X127485093Y-82520785D02*
X127389855Y-82568404D01*
X127389855Y-82568404D02*
X127008903Y-82568404D01*
X128008903Y-83044595D02*
X128008903Y-82044595D01*
X128675569Y-82044595D02*
X128866045Y-82044595D01*
X128866045Y-82044595D02*
X128961283Y-82092214D01*
X128961283Y-82092214D02*
X129056521Y-82187452D01*
X129056521Y-82187452D02*
X129104140Y-82377928D01*
X129104140Y-82377928D02*
X129104140Y-82711261D01*
X129104140Y-82711261D02*
X129056521Y-82901737D01*
X129056521Y-82901737D02*
X128961283Y-82996976D01*
X128961283Y-82996976D02*
X128866045Y-83044595D01*
X128866045Y-83044595D02*
X128675569Y-83044595D01*
X128675569Y-83044595D02*
X128580331Y-82996976D01*
X128580331Y-82996976D02*
X128485093Y-82901737D01*
X128485093Y-82901737D02*
X128437474Y-82711261D01*
X128437474Y-82711261D02*
X128437474Y-82377928D01*
X128437474Y-82377928D02*
X128485093Y-82187452D01*
X128485093Y-82187452D02*
X128580331Y-82092214D01*
X128580331Y-82092214D02*
X128675569Y-82044595D01*
X141487420Y-75128152D02*
X141487420Y-75794819D01*
X141249325Y-74747200D02*
X141011230Y-75461485D01*
X141011230Y-75461485D02*
X141630277Y-75461485D01*
X142439801Y-75128152D02*
X142439801Y-75794819D01*
X142201706Y-74747200D02*
X141963611Y-75461485D01*
X141963611Y-75461485D02*
X142582658Y-75461485D01*
X141487420Y-70088152D02*
X141487420Y-70754819D01*
X141249325Y-69707200D02*
X141011230Y-70421485D01*
X141011230Y-70421485D02*
X141630277Y-70421485D01*
X142439801Y-69754819D02*
X142249325Y-69754819D01*
X142249325Y-69754819D02*
X142154087Y-69802438D01*
X142154087Y-69802438D02*
X142106468Y-69850057D01*
X142106468Y-69850057D02*
X142011230Y-69992914D01*
X142011230Y-69992914D02*
X141963611Y-70183390D01*
X141963611Y-70183390D02*
X141963611Y-70564342D01*
X141963611Y-70564342D02*
X142011230Y-70659580D01*
X142011230Y-70659580D02*
X142058849Y-70707200D01*
X142058849Y-70707200D02*
X142154087Y-70754819D01*
X142154087Y-70754819D02*
X142344563Y-70754819D01*
X142344563Y-70754819D02*
X142439801Y-70707200D01*
X142439801Y-70707200D02*
X142487420Y-70659580D01*
X142487420Y-70659580D02*
X142535039Y-70564342D01*
X142535039Y-70564342D02*
X142535039Y-70326247D01*
X142535039Y-70326247D02*
X142487420Y-70231009D01*
X142487420Y-70231009D02*
X142439801Y-70183390D01*
X142439801Y-70183390D02*
X142344563Y-70135771D01*
X142344563Y-70135771D02*
X142154087Y-70135771D01*
X142154087Y-70135771D02*
X142058849Y-70183390D01*
X142058849Y-70183390D02*
X142011230Y-70231009D01*
X142011230Y-70231009D02*
X141963611Y-70326247D01*
X141487420Y-67568152D02*
X141487420Y-68234819D01*
X141249325Y-67187200D02*
X141011230Y-67901485D01*
X141011230Y-67901485D02*
X141630277Y-67901485D01*
X141915992Y-67234819D02*
X142582658Y-67234819D01*
X142582658Y-67234819D02*
X142154087Y-68234819D01*
X141487420Y-82688152D02*
X141487420Y-83354819D01*
X141249325Y-82307200D02*
X141011230Y-83021485D01*
X141011230Y-83021485D02*
X141630277Y-83021485D01*
X142535039Y-83354819D02*
X141963611Y-83354819D01*
X142249325Y-83354819D02*
X142249325Y-82354819D01*
X142249325Y-82354819D02*
X142154087Y-82497676D01*
X142154087Y-82497676D02*
X142058849Y-82592914D01*
X142058849Y-82592914D02*
X141963611Y-82640533D01*
X141487420Y-72608152D02*
X141487420Y-73274819D01*
X141249325Y-72227200D02*
X141011230Y-72941485D01*
X141011230Y-72941485D02*
X141630277Y-72941485D01*
X142487420Y-72274819D02*
X142011230Y-72274819D01*
X142011230Y-72274819D02*
X141963611Y-72751009D01*
X141963611Y-72751009D02*
X142011230Y-72703390D01*
X142011230Y-72703390D02*
X142106468Y-72655771D01*
X142106468Y-72655771D02*
X142344563Y-72655771D01*
X142344563Y-72655771D02*
X142439801Y-72703390D01*
X142439801Y-72703390D02*
X142487420Y-72751009D01*
X142487420Y-72751009D02*
X142535039Y-72846247D01*
X142535039Y-72846247D02*
X142535039Y-73084342D01*
X142535039Y-73084342D02*
X142487420Y-73179580D01*
X142487420Y-73179580D02*
X142439801Y-73227200D01*
X142439801Y-73227200D02*
X142344563Y-73274819D01*
X142344563Y-73274819D02*
X142106468Y-73274819D01*
X142106468Y-73274819D02*
X142011230Y-73227200D01*
X142011230Y-73227200D02*
X141963611Y-73179580D01*
X68704580Y-54928075D02*
X68371247Y-54451884D01*
X68133152Y-54928075D02*
X68133152Y-53928075D01*
X68133152Y-53928075D02*
X68514104Y-53928075D01*
X68514104Y-53928075D02*
X68609342Y-53975694D01*
X68609342Y-53975694D02*
X68656961Y-54023313D01*
X68656961Y-54023313D02*
X68704580Y-54118551D01*
X68704580Y-54118551D02*
X68704580Y-54261408D01*
X68704580Y-54261408D02*
X68656961Y-54356646D01*
X68656961Y-54356646D02*
X68609342Y-54404265D01*
X68609342Y-54404265D02*
X68514104Y-54451884D01*
X68514104Y-54451884D02*
X68133152Y-54451884D01*
X69704580Y-54832836D02*
X69656961Y-54880456D01*
X69656961Y-54880456D02*
X69514104Y-54928075D01*
X69514104Y-54928075D02*
X69418866Y-54928075D01*
X69418866Y-54928075D02*
X69276009Y-54880456D01*
X69276009Y-54880456D02*
X69180771Y-54785217D01*
X69180771Y-54785217D02*
X69133152Y-54689979D01*
X69133152Y-54689979D02*
X69085533Y-54499503D01*
X69085533Y-54499503D02*
X69085533Y-54356646D01*
X69085533Y-54356646D02*
X69133152Y-54166170D01*
X69133152Y-54166170D02*
X69180771Y-54070932D01*
X69180771Y-54070932D02*
X69276009Y-53975694D01*
X69276009Y-53975694D02*
X69418866Y-53928075D01*
X69418866Y-53928075D02*
X69514104Y-53928075D01*
X69514104Y-53928075D02*
X69656961Y-53975694D01*
X69656961Y-53975694D02*
X69704580Y-54023313D01*
X70085533Y-54023313D02*
X70133152Y-53975694D01*
X70133152Y-53975694D02*
X70228390Y-53928075D01*
X70228390Y-53928075D02*
X70466485Y-53928075D01*
X70466485Y-53928075D02*
X70561723Y-53975694D01*
X70561723Y-53975694D02*
X70609342Y-54023313D01*
X70609342Y-54023313D02*
X70656961Y-54118551D01*
X70656961Y-54118551D02*
X70656961Y-54213789D01*
X70656961Y-54213789D02*
X70609342Y-54356646D01*
X70609342Y-54356646D02*
X70037914Y-54928075D01*
X70037914Y-54928075D02*
X70656961Y-54928075D01*
X71276009Y-53928075D02*
X71371247Y-53928075D01*
X71371247Y-53928075D02*
X71466485Y-53975694D01*
X71466485Y-53975694D02*
X71514104Y-54023313D01*
X71514104Y-54023313D02*
X71561723Y-54118551D01*
X71561723Y-54118551D02*
X71609342Y-54309027D01*
X71609342Y-54309027D02*
X71609342Y-54547122D01*
X71609342Y-54547122D02*
X71561723Y-54737598D01*
X71561723Y-54737598D02*
X71514104Y-54832836D01*
X71514104Y-54832836D02*
X71466485Y-54880456D01*
X71466485Y-54880456D02*
X71371247Y-54928075D01*
X71371247Y-54928075D02*
X71276009Y-54928075D01*
X71276009Y-54928075D02*
X71180771Y-54880456D01*
X71180771Y-54880456D02*
X71133152Y-54832836D01*
X71133152Y-54832836D02*
X71085533Y-54737598D01*
X71085533Y-54737598D02*
X71037914Y-54547122D01*
X71037914Y-54547122D02*
X71037914Y-54309027D01*
X71037914Y-54309027D02*
X71085533Y-54118551D01*
X71085533Y-54118551D02*
X71133152Y-54023313D01*
X71133152Y-54023313D02*
X71180771Y-53975694D01*
X71180771Y-53975694D02*
X71276009Y-53928075D01*
X72561723Y-54928075D02*
X71990295Y-54928075D01*
X72276009Y-54928075D02*
X72276009Y-53928075D01*
X72276009Y-53928075D02*
X72180771Y-54070932D01*
X72180771Y-54070932D02*
X72085533Y-54166170D01*
X72085533Y-54166170D02*
X71990295Y-54213789D01*
X73418866Y-54261408D02*
X73418866Y-54928075D01*
X73180771Y-53880456D02*
X72942676Y-54594741D01*
X72942676Y-54594741D02*
X73561723Y-54594741D01*
X73942676Y-54547122D02*
X74704581Y-54547122D01*
X75180771Y-54928075D02*
X75180771Y-53928075D01*
X75180771Y-53928075D02*
X75561723Y-53928075D01*
X75561723Y-53928075D02*
X75656961Y-53975694D01*
X75656961Y-53975694D02*
X75704580Y-54023313D01*
X75704580Y-54023313D02*
X75752199Y-54118551D01*
X75752199Y-54118551D02*
X75752199Y-54261408D01*
X75752199Y-54261408D02*
X75704580Y-54356646D01*
X75704580Y-54356646D02*
X75656961Y-54404265D01*
X75656961Y-54404265D02*
X75561723Y-54451884D01*
X75561723Y-54451884D02*
X75180771Y-54451884D01*
X76704580Y-53975694D02*
X76609342Y-53928075D01*
X76609342Y-53928075D02*
X76466485Y-53928075D01*
X76466485Y-53928075D02*
X76323628Y-53975694D01*
X76323628Y-53975694D02*
X76228390Y-54070932D01*
X76228390Y-54070932D02*
X76180771Y-54166170D01*
X76180771Y-54166170D02*
X76133152Y-54356646D01*
X76133152Y-54356646D02*
X76133152Y-54499503D01*
X76133152Y-54499503D02*
X76180771Y-54689979D01*
X76180771Y-54689979D02*
X76228390Y-54785217D01*
X76228390Y-54785217D02*
X76323628Y-54880456D01*
X76323628Y-54880456D02*
X76466485Y-54928075D01*
X76466485Y-54928075D02*
X76561723Y-54928075D01*
X76561723Y-54928075D02*
X76704580Y-54880456D01*
X76704580Y-54880456D02*
X76752199Y-54832836D01*
X76752199Y-54832836D02*
X76752199Y-54499503D01*
X76752199Y-54499503D02*
X76561723Y-54499503D01*
X77133152Y-54642360D02*
X77609342Y-54642360D01*
X77037914Y-54928075D02*
X77371247Y-53928075D01*
X77371247Y-53928075D02*
X77704580Y-54928075D01*
X77990295Y-54023313D02*
X78037914Y-53975694D01*
X78037914Y-53975694D02*
X78133152Y-53928075D01*
X78133152Y-53928075D02*
X78371247Y-53928075D01*
X78371247Y-53928075D02*
X78466485Y-53975694D01*
X78466485Y-53975694D02*
X78514104Y-54023313D01*
X78514104Y-54023313D02*
X78561723Y-54118551D01*
X78561723Y-54118551D02*
X78561723Y-54213789D01*
X78561723Y-54213789D02*
X78514104Y-54356646D01*
X78514104Y-54356646D02*
X77942676Y-54928075D01*
X77942676Y-54928075D02*
X78561723Y-54928075D01*
X78895057Y-53928075D02*
X79514104Y-53928075D01*
X79514104Y-53928075D02*
X79180771Y-54309027D01*
X79180771Y-54309027D02*
X79323628Y-54309027D01*
X79323628Y-54309027D02*
X79418866Y-54356646D01*
X79418866Y-54356646D02*
X79466485Y-54404265D01*
X79466485Y-54404265D02*
X79514104Y-54499503D01*
X79514104Y-54499503D02*
X79514104Y-54737598D01*
X79514104Y-54737598D02*
X79466485Y-54832836D01*
X79466485Y-54832836D02*
X79418866Y-54880456D01*
X79418866Y-54880456D02*
X79323628Y-54928075D01*
X79323628Y-54928075D02*
X79037914Y-54928075D01*
X79037914Y-54928075D02*
X78942676Y-54880456D01*
X78942676Y-54880456D02*
X78895057Y-54832836D01*
X80418866Y-53928075D02*
X79942676Y-53928075D01*
X79942676Y-53928075D02*
X79895057Y-54404265D01*
X79895057Y-54404265D02*
X79942676Y-54356646D01*
X79942676Y-54356646D02*
X80037914Y-54309027D01*
X80037914Y-54309027D02*
X80276009Y-54309027D01*
X80276009Y-54309027D02*
X80371247Y-54356646D01*
X80371247Y-54356646D02*
X80418866Y-54404265D01*
X80418866Y-54404265D02*
X80466485Y-54499503D01*
X80466485Y-54499503D02*
X80466485Y-54737598D01*
X80466485Y-54737598D02*
X80418866Y-54832836D01*
X80418866Y-54832836D02*
X80371247Y-54880456D01*
X80371247Y-54880456D02*
X80276009Y-54928075D01*
X80276009Y-54928075D02*
X80037914Y-54928075D01*
X80037914Y-54928075D02*
X79942676Y-54880456D01*
X79942676Y-54880456D02*
X79895057Y-54832836D01*
X81085533Y-53928075D02*
X81180771Y-53928075D01*
X81180771Y-53928075D02*
X81276009Y-53975694D01*
X81276009Y-53975694D02*
X81323628Y-54023313D01*
X81323628Y-54023313D02*
X81371247Y-54118551D01*
X81371247Y-54118551D02*
X81418866Y-54309027D01*
X81418866Y-54309027D02*
X81418866Y-54547122D01*
X81418866Y-54547122D02*
X81371247Y-54737598D01*
X81371247Y-54737598D02*
X81323628Y-54832836D01*
X81323628Y-54832836D02*
X81276009Y-54880456D01*
X81276009Y-54880456D02*
X81180771Y-54928075D01*
X81180771Y-54928075D02*
X81085533Y-54928075D01*
X81085533Y-54928075D02*
X80990295Y-54880456D01*
X80990295Y-54880456D02*
X80942676Y-54832836D01*
X80942676Y-54832836D02*
X80895057Y-54737598D01*
X80895057Y-54737598D02*
X80847438Y-54547122D01*
X80847438Y-54547122D02*
X80847438Y-54309027D01*
X80847438Y-54309027D02*
X80895057Y-54118551D01*
X80895057Y-54118551D02*
X80942676Y-54023313D01*
X80942676Y-54023313D02*
X80990295Y-53975694D01*
X80990295Y-53975694D02*
X81085533Y-53928075D01*
X69561723Y-56538019D02*
X69561723Y-55538019D01*
X69561723Y-56490400D02*
X69466485Y-56538019D01*
X69466485Y-56538019D02*
X69276009Y-56538019D01*
X69276009Y-56538019D02*
X69180771Y-56490400D01*
X69180771Y-56490400D02*
X69133152Y-56442780D01*
X69133152Y-56442780D02*
X69085533Y-56347542D01*
X69085533Y-56347542D02*
X69085533Y-56061828D01*
X69085533Y-56061828D02*
X69133152Y-55966590D01*
X69133152Y-55966590D02*
X69180771Y-55918971D01*
X69180771Y-55918971D02*
X69276009Y-55871352D01*
X69276009Y-55871352D02*
X69466485Y-55871352D01*
X69466485Y-55871352D02*
X69561723Y-55918971D01*
X70037914Y-56538019D02*
X70037914Y-55871352D01*
X70037914Y-55538019D02*
X69990295Y-55585638D01*
X69990295Y-55585638D02*
X70037914Y-55633257D01*
X70037914Y-55633257D02*
X70085533Y-55585638D01*
X70085533Y-55585638D02*
X70037914Y-55538019D01*
X70037914Y-55538019D02*
X70037914Y-55633257D01*
X70418866Y-55871352D02*
X70656961Y-56538019D01*
X70895056Y-55871352D02*
X70656961Y-56538019D01*
X70656961Y-56538019D02*
X70561723Y-56776114D01*
X70561723Y-56776114D02*
X70514104Y-56823733D01*
X70514104Y-56823733D02*
X70418866Y-56871352D01*
X71656961Y-56490400D02*
X71561723Y-56538019D01*
X71561723Y-56538019D02*
X71371247Y-56538019D01*
X71371247Y-56538019D02*
X71276009Y-56490400D01*
X71276009Y-56490400D02*
X71228390Y-56395161D01*
X71228390Y-56395161D02*
X71228390Y-56014209D01*
X71228390Y-56014209D02*
X71276009Y-55918971D01*
X71276009Y-55918971D02*
X71371247Y-55871352D01*
X71371247Y-55871352D02*
X71561723Y-55871352D01*
X71561723Y-55871352D02*
X71656961Y-55918971D01*
X71656961Y-55918971D02*
X71704580Y-56014209D01*
X71704580Y-56014209D02*
X71704580Y-56109447D01*
X71704580Y-56109447D02*
X71228390Y-56204685D01*
X72276009Y-56538019D02*
X72180771Y-56490400D01*
X72180771Y-56490400D02*
X72133152Y-56395161D01*
X72133152Y-56395161D02*
X72133152Y-55538019D01*
X73037914Y-56490400D02*
X72942676Y-56538019D01*
X72942676Y-56538019D02*
X72752200Y-56538019D01*
X72752200Y-56538019D02*
X72656962Y-56490400D01*
X72656962Y-56490400D02*
X72609343Y-56395161D01*
X72609343Y-56395161D02*
X72609343Y-56014209D01*
X72609343Y-56014209D02*
X72656962Y-55918971D01*
X72656962Y-55918971D02*
X72752200Y-55871352D01*
X72752200Y-55871352D02*
X72942676Y-55871352D01*
X72942676Y-55871352D02*
X73037914Y-55918971D01*
X73037914Y-55918971D02*
X73085533Y-56014209D01*
X73085533Y-56014209D02*
X73085533Y-56109447D01*
X73085533Y-56109447D02*
X72609343Y-56204685D01*
X73942676Y-56490400D02*
X73847438Y-56538019D01*
X73847438Y-56538019D02*
X73656962Y-56538019D01*
X73656962Y-56538019D02*
X73561724Y-56490400D01*
X73561724Y-56490400D02*
X73514105Y-56442780D01*
X73514105Y-56442780D02*
X73466486Y-56347542D01*
X73466486Y-56347542D02*
X73466486Y-56061828D01*
X73466486Y-56061828D02*
X73514105Y-55966590D01*
X73514105Y-55966590D02*
X73561724Y-55918971D01*
X73561724Y-55918971D02*
X73656962Y-55871352D01*
X73656962Y-55871352D02*
X73847438Y-55871352D01*
X73847438Y-55871352D02*
X73942676Y-55918971D01*
X74228391Y-55871352D02*
X74609343Y-55871352D01*
X74371248Y-55538019D02*
X74371248Y-56395161D01*
X74371248Y-56395161D02*
X74418867Y-56490400D01*
X74418867Y-56490400D02*
X74514105Y-56538019D01*
X74514105Y-56538019D02*
X74609343Y-56538019D01*
X74942677Y-56538019D02*
X74942677Y-55871352D01*
X74942677Y-56061828D02*
X74990296Y-55966590D01*
X74990296Y-55966590D02*
X75037915Y-55918971D01*
X75037915Y-55918971D02*
X75133153Y-55871352D01*
X75133153Y-55871352D02*
X75228391Y-55871352D01*
X75704582Y-56538019D02*
X75609344Y-56490400D01*
X75609344Y-56490400D02*
X75561725Y-56442780D01*
X75561725Y-56442780D02*
X75514106Y-56347542D01*
X75514106Y-56347542D02*
X75514106Y-56061828D01*
X75514106Y-56061828D02*
X75561725Y-55966590D01*
X75561725Y-55966590D02*
X75609344Y-55918971D01*
X75609344Y-55918971D02*
X75704582Y-55871352D01*
X75704582Y-55871352D02*
X75847439Y-55871352D01*
X75847439Y-55871352D02*
X75942677Y-55918971D01*
X75942677Y-55918971D02*
X75990296Y-55966590D01*
X75990296Y-55966590D02*
X76037915Y-56061828D01*
X76037915Y-56061828D02*
X76037915Y-56347542D01*
X76037915Y-56347542D02*
X75990296Y-56442780D01*
X75990296Y-56442780D02*
X75942677Y-56490400D01*
X75942677Y-56490400D02*
X75847439Y-56538019D01*
X75847439Y-56538019D02*
X75704582Y-56538019D01*
X76466487Y-56538019D02*
X76466487Y-55871352D01*
X76466487Y-55966590D02*
X76514106Y-55918971D01*
X76514106Y-55918971D02*
X76609344Y-55871352D01*
X76609344Y-55871352D02*
X76752201Y-55871352D01*
X76752201Y-55871352D02*
X76847439Y-55918971D01*
X76847439Y-55918971D02*
X76895058Y-56014209D01*
X76895058Y-56014209D02*
X76895058Y-56538019D01*
X76895058Y-56014209D02*
X76942677Y-55918971D01*
X76942677Y-55918971D02*
X77037915Y-55871352D01*
X77037915Y-55871352D02*
X77180772Y-55871352D01*
X77180772Y-55871352D02*
X77276011Y-55918971D01*
X77276011Y-55918971D02*
X77323630Y-56014209D01*
X77323630Y-56014209D02*
X77323630Y-56538019D01*
X78228391Y-55871352D02*
X78228391Y-56538019D01*
X77799820Y-55871352D02*
X77799820Y-56395161D01*
X77799820Y-56395161D02*
X77847439Y-56490400D01*
X77847439Y-56490400D02*
X77942677Y-56538019D01*
X77942677Y-56538019D02*
X78085534Y-56538019D01*
X78085534Y-56538019D02*
X78180772Y-56490400D01*
X78180772Y-56490400D02*
X78228391Y-56442780D01*
X78656963Y-56490400D02*
X78752201Y-56538019D01*
X78752201Y-56538019D02*
X78942677Y-56538019D01*
X78942677Y-56538019D02*
X79037915Y-56490400D01*
X79037915Y-56490400D02*
X79085534Y-56395161D01*
X79085534Y-56395161D02*
X79085534Y-56347542D01*
X79085534Y-56347542D02*
X79037915Y-56252304D01*
X79037915Y-56252304D02*
X78942677Y-56204685D01*
X78942677Y-56204685D02*
X78799820Y-56204685D01*
X78799820Y-56204685D02*
X78704582Y-56157066D01*
X78704582Y-56157066D02*
X78656963Y-56061828D01*
X78656963Y-56061828D02*
X78656963Y-56014209D01*
X78656963Y-56014209D02*
X78704582Y-55918971D01*
X78704582Y-55918971D02*
X78799820Y-55871352D01*
X78799820Y-55871352D02*
X78942677Y-55871352D01*
X78942677Y-55871352D02*
X79037915Y-55918971D01*
X79514106Y-56538019D02*
X79514106Y-55871352D01*
X79514106Y-55538019D02*
X79466487Y-55585638D01*
X79466487Y-55585638D02*
X79514106Y-55633257D01*
X79514106Y-55633257D02*
X79561725Y-55585638D01*
X79561725Y-55585638D02*
X79514106Y-55538019D01*
X79514106Y-55538019D02*
X79514106Y-55633257D01*
X80418867Y-56490400D02*
X80323629Y-56538019D01*
X80323629Y-56538019D02*
X80133153Y-56538019D01*
X80133153Y-56538019D02*
X80037915Y-56490400D01*
X80037915Y-56490400D02*
X79990296Y-56442780D01*
X79990296Y-56442780D02*
X79942677Y-56347542D01*
X79942677Y-56347542D02*
X79942677Y-56061828D01*
X79942677Y-56061828D02*
X79990296Y-55966590D01*
X79990296Y-55966590D02*
X80037915Y-55918971D01*
X80037915Y-55918971D02*
X80133153Y-55871352D01*
X80133153Y-55871352D02*
X80323629Y-55871352D01*
X80323629Y-55871352D02*
X80418867Y-55918971D01*
X71037914Y-57481296D02*
X71276009Y-58147963D01*
X71276009Y-58147963D02*
X71514104Y-57481296D01*
X72085533Y-57147963D02*
X72180771Y-57147963D01*
X72180771Y-57147963D02*
X72276009Y-57195582D01*
X72276009Y-57195582D02*
X72323628Y-57243201D01*
X72323628Y-57243201D02*
X72371247Y-57338439D01*
X72371247Y-57338439D02*
X72418866Y-57528915D01*
X72418866Y-57528915D02*
X72418866Y-57767010D01*
X72418866Y-57767010D02*
X72371247Y-57957486D01*
X72371247Y-57957486D02*
X72323628Y-58052724D01*
X72323628Y-58052724D02*
X72276009Y-58100344D01*
X72276009Y-58100344D02*
X72180771Y-58147963D01*
X72180771Y-58147963D02*
X72085533Y-58147963D01*
X72085533Y-58147963D02*
X71990295Y-58100344D01*
X71990295Y-58100344D02*
X71942676Y-58052724D01*
X71942676Y-58052724D02*
X71895057Y-57957486D01*
X71895057Y-57957486D02*
X71847438Y-57767010D01*
X71847438Y-57767010D02*
X71847438Y-57528915D01*
X71847438Y-57528915D02*
X71895057Y-57338439D01*
X71895057Y-57338439D02*
X71942676Y-57243201D01*
X71942676Y-57243201D02*
X71990295Y-57195582D01*
X71990295Y-57195582D02*
X72085533Y-57147963D01*
X72847438Y-58052724D02*
X72895057Y-58100344D01*
X72895057Y-58100344D02*
X72847438Y-58147963D01*
X72847438Y-58147963D02*
X72799819Y-58100344D01*
X72799819Y-58100344D02*
X72847438Y-58052724D01*
X72847438Y-58052724D02*
X72847438Y-58147963D01*
X73847437Y-58147963D02*
X73276009Y-58147963D01*
X73561723Y-58147963D02*
X73561723Y-57147963D01*
X73561723Y-57147963D02*
X73466485Y-57290820D01*
X73466485Y-57290820D02*
X73371247Y-57386058D01*
X73371247Y-57386058D02*
X73276009Y-57433677D01*
X74990295Y-57243201D02*
X75037914Y-57195582D01*
X75037914Y-57195582D02*
X75133152Y-57147963D01*
X75133152Y-57147963D02*
X75371247Y-57147963D01*
X75371247Y-57147963D02*
X75466485Y-57195582D01*
X75466485Y-57195582D02*
X75514104Y-57243201D01*
X75514104Y-57243201D02*
X75561723Y-57338439D01*
X75561723Y-57338439D02*
X75561723Y-57433677D01*
X75561723Y-57433677D02*
X75514104Y-57576534D01*
X75514104Y-57576534D02*
X74942676Y-58147963D01*
X74942676Y-58147963D02*
X75561723Y-58147963D01*
X76180771Y-57147963D02*
X76276009Y-57147963D01*
X76276009Y-57147963D02*
X76371247Y-57195582D01*
X76371247Y-57195582D02*
X76418866Y-57243201D01*
X76418866Y-57243201D02*
X76466485Y-57338439D01*
X76466485Y-57338439D02*
X76514104Y-57528915D01*
X76514104Y-57528915D02*
X76514104Y-57767010D01*
X76514104Y-57767010D02*
X76466485Y-57957486D01*
X76466485Y-57957486D02*
X76418866Y-58052724D01*
X76418866Y-58052724D02*
X76371247Y-58100344D01*
X76371247Y-58100344D02*
X76276009Y-58147963D01*
X76276009Y-58147963D02*
X76180771Y-58147963D01*
X76180771Y-58147963D02*
X76085533Y-58100344D01*
X76085533Y-58100344D02*
X76037914Y-58052724D01*
X76037914Y-58052724D02*
X75990295Y-57957486D01*
X75990295Y-57957486D02*
X75942676Y-57767010D01*
X75942676Y-57767010D02*
X75942676Y-57528915D01*
X75942676Y-57528915D02*
X75990295Y-57338439D01*
X75990295Y-57338439D02*
X76037914Y-57243201D01*
X76037914Y-57243201D02*
X76085533Y-57195582D01*
X76085533Y-57195582D02*
X76180771Y-57147963D01*
X76895057Y-57243201D02*
X76942676Y-57195582D01*
X76942676Y-57195582D02*
X77037914Y-57147963D01*
X77037914Y-57147963D02*
X77276009Y-57147963D01*
X77276009Y-57147963D02*
X77371247Y-57195582D01*
X77371247Y-57195582D02*
X77418866Y-57243201D01*
X77418866Y-57243201D02*
X77466485Y-57338439D01*
X77466485Y-57338439D02*
X77466485Y-57433677D01*
X77466485Y-57433677D02*
X77418866Y-57576534D01*
X77418866Y-57576534D02*
X76847438Y-58147963D01*
X76847438Y-58147963D02*
X77466485Y-58147963D01*
X78323628Y-57147963D02*
X78133152Y-57147963D01*
X78133152Y-57147963D02*
X78037914Y-57195582D01*
X78037914Y-57195582D02*
X77990295Y-57243201D01*
X77990295Y-57243201D02*
X77895057Y-57386058D01*
X77895057Y-57386058D02*
X77847438Y-57576534D01*
X77847438Y-57576534D02*
X77847438Y-57957486D01*
X77847438Y-57957486D02*
X77895057Y-58052724D01*
X77895057Y-58052724D02*
X77942676Y-58100344D01*
X77942676Y-58100344D02*
X78037914Y-58147963D01*
X78037914Y-58147963D02*
X78228390Y-58147963D01*
X78228390Y-58147963D02*
X78323628Y-58100344D01*
X78323628Y-58100344D02*
X78371247Y-58052724D01*
X78371247Y-58052724D02*
X78418866Y-57957486D01*
X78418866Y-57957486D02*
X78418866Y-57719391D01*
X78418866Y-57719391D02*
X78371247Y-57624153D01*
X78371247Y-57624153D02*
X78323628Y-57576534D01*
X78323628Y-57576534D02*
X78228390Y-57528915D01*
X78228390Y-57528915D02*
X78037914Y-57528915D01*
X78037914Y-57528915D02*
X77942676Y-57576534D01*
X77942676Y-57576534D02*
X77895057Y-57624153D01*
X77895057Y-57624153D02*
X77847438Y-57719391D01*
D12*
X52461408Y-97702865D02*
X50961408Y-97702865D01*
X50961408Y-97702865D02*
X50961408Y-97131436D01*
X50961408Y-97131436D02*
X51032837Y-96988579D01*
X51032837Y-96988579D02*
X51104265Y-96917150D01*
X51104265Y-96917150D02*
X51247122Y-96845722D01*
X51247122Y-96845722D02*
X51461408Y-96845722D01*
X51461408Y-96845722D02*
X51604265Y-96917150D01*
X51604265Y-96917150D02*
X51675694Y-96988579D01*
X51675694Y-96988579D02*
X51747122Y-97131436D01*
X51747122Y-97131436D02*
X51747122Y-97702865D01*
X52461408Y-96202865D02*
X51461408Y-96202865D01*
X50961408Y-96202865D02*
X51032837Y-96274293D01*
X51032837Y-96274293D02*
X51104265Y-96202865D01*
X51104265Y-96202865D02*
X51032837Y-96131436D01*
X51032837Y-96131436D02*
X50961408Y-96202865D01*
X50961408Y-96202865D02*
X51104265Y-96202865D01*
X51461408Y-95488579D02*
X52461408Y-95488579D01*
X51604265Y-95488579D02*
X51532837Y-95417150D01*
X51532837Y-95417150D02*
X51461408Y-95274293D01*
X51461408Y-95274293D02*
X51461408Y-95060007D01*
X51461408Y-95060007D02*
X51532837Y-94917150D01*
X51532837Y-94917150D02*
X51675694Y-94845722D01*
X51675694Y-94845722D02*
X52461408Y-94845722D01*
X52461408Y-92202864D02*
X52461408Y-93060007D01*
X52461408Y-92631436D02*
X50961408Y-92631436D01*
X50961408Y-92631436D02*
X51175694Y-92774293D01*
X51175694Y-92774293D02*
X51318551Y-92917150D01*
X51318551Y-92917150D02*
X51389980Y-93060007D01*
D10*
X141487420Y-85208152D02*
X141487420Y-85874819D01*
X141249325Y-84827200D02*
X141011230Y-85541485D01*
X141011230Y-85541485D02*
X141630277Y-85541485D01*
X142201706Y-84874819D02*
X142296944Y-84874819D01*
X142296944Y-84874819D02*
X142392182Y-84922438D01*
X142392182Y-84922438D02*
X142439801Y-84970057D01*
X142439801Y-84970057D02*
X142487420Y-85065295D01*
X142487420Y-85065295D02*
X142535039Y-85255771D01*
X142535039Y-85255771D02*
X142535039Y-85493866D01*
X142535039Y-85493866D02*
X142487420Y-85684342D01*
X142487420Y-85684342D02*
X142439801Y-85779580D01*
X142439801Y-85779580D02*
X142392182Y-85827200D01*
X142392182Y-85827200D02*
X142296944Y-85874819D01*
X142296944Y-85874819D02*
X142201706Y-85874819D01*
X142201706Y-85874819D02*
X142106468Y-85827200D01*
X142106468Y-85827200D02*
X142058849Y-85779580D01*
X142058849Y-85779580D02*
X142011230Y-85684342D01*
X142011230Y-85684342D02*
X141963611Y-85493866D01*
X141963611Y-85493866D02*
X141963611Y-85255771D01*
X141963611Y-85255771D02*
X142011230Y-85065295D01*
X142011230Y-85065295D02*
X142058849Y-84970057D01*
X142058849Y-84970057D02*
X142106468Y-84922438D01*
X142106468Y-84922438D02*
X142201706Y-84874819D01*
X140963611Y-87394819D02*
X141582658Y-87394819D01*
X141582658Y-87394819D02*
X141249325Y-87775771D01*
X141249325Y-87775771D02*
X141392182Y-87775771D01*
X141392182Y-87775771D02*
X141487420Y-87823390D01*
X141487420Y-87823390D02*
X141535039Y-87871009D01*
X141535039Y-87871009D02*
X141582658Y-87966247D01*
X141582658Y-87966247D02*
X141582658Y-88204342D01*
X141582658Y-88204342D02*
X141535039Y-88299580D01*
X141535039Y-88299580D02*
X141487420Y-88347200D01*
X141487420Y-88347200D02*
X141392182Y-88394819D01*
X141392182Y-88394819D02*
X141106468Y-88394819D01*
X141106468Y-88394819D02*
X141011230Y-88347200D01*
X141011230Y-88347200D02*
X140963611Y-88299580D01*
X142058849Y-88394819D02*
X142249325Y-88394819D01*
X142249325Y-88394819D02*
X142344563Y-88347200D01*
X142344563Y-88347200D02*
X142392182Y-88299580D01*
X142392182Y-88299580D02*
X142487420Y-88156723D01*
X142487420Y-88156723D02*
X142535039Y-87966247D01*
X142535039Y-87966247D02*
X142535039Y-87585295D01*
X142535039Y-87585295D02*
X142487420Y-87490057D01*
X142487420Y-87490057D02*
X142439801Y-87442438D01*
X142439801Y-87442438D02*
X142344563Y-87394819D01*
X142344563Y-87394819D02*
X142154087Y-87394819D01*
X142154087Y-87394819D02*
X142058849Y-87442438D01*
X142058849Y-87442438D02*
X142011230Y-87490057D01*
X142011230Y-87490057D02*
X141963611Y-87585295D01*
X141963611Y-87585295D02*
X141963611Y-87823390D01*
X141963611Y-87823390D02*
X142011230Y-87918628D01*
X142011230Y-87918628D02*
X142058849Y-87966247D01*
X142058849Y-87966247D02*
X142154087Y-88013866D01*
X142154087Y-88013866D02*
X142344563Y-88013866D01*
X142344563Y-88013866D02*
X142439801Y-87966247D01*
X142439801Y-87966247D02*
X142487420Y-87918628D01*
X142487420Y-87918628D02*
X142535039Y-87823390D01*
X140963611Y-89914819D02*
X141582658Y-89914819D01*
X141582658Y-89914819D02*
X141249325Y-90295771D01*
X141249325Y-90295771D02*
X141392182Y-90295771D01*
X141392182Y-90295771D02*
X141487420Y-90343390D01*
X141487420Y-90343390D02*
X141535039Y-90391009D01*
X141535039Y-90391009D02*
X141582658Y-90486247D01*
X141582658Y-90486247D02*
X141582658Y-90724342D01*
X141582658Y-90724342D02*
X141535039Y-90819580D01*
X141535039Y-90819580D02*
X141487420Y-90867200D01*
X141487420Y-90867200D02*
X141392182Y-90914819D01*
X141392182Y-90914819D02*
X141106468Y-90914819D01*
X141106468Y-90914819D02*
X141011230Y-90867200D01*
X141011230Y-90867200D02*
X140963611Y-90819580D01*
X141915992Y-89914819D02*
X142582658Y-89914819D01*
X142582658Y-89914819D02*
X142154087Y-90914819D01*
X146939095Y-92847438D02*
X146843857Y-92799819D01*
X146843857Y-92799819D02*
X146701000Y-92799819D01*
X146701000Y-92799819D02*
X146558143Y-92847438D01*
X146558143Y-92847438D02*
X146462905Y-92942676D01*
X146462905Y-92942676D02*
X146415286Y-93037914D01*
X146415286Y-93037914D02*
X146367667Y-93228390D01*
X146367667Y-93228390D02*
X146367667Y-93371247D01*
X146367667Y-93371247D02*
X146415286Y-93561723D01*
X146415286Y-93561723D02*
X146462905Y-93656961D01*
X146462905Y-93656961D02*
X146558143Y-93752200D01*
X146558143Y-93752200D02*
X146701000Y-93799819D01*
X146701000Y-93799819D02*
X146796238Y-93799819D01*
X146796238Y-93799819D02*
X146939095Y-93752200D01*
X146939095Y-93752200D02*
X146986714Y-93704580D01*
X146986714Y-93704580D02*
X146986714Y-93371247D01*
X146986714Y-93371247D02*
X146796238Y-93371247D01*
X147415286Y-93799819D02*
X147415286Y-92799819D01*
X147415286Y-92799819D02*
X147986714Y-93799819D01*
X147986714Y-93799819D02*
X147986714Y-92799819D01*
X148462905Y-93799819D02*
X148462905Y-92799819D01*
X148462905Y-92799819D02*
X148701000Y-92799819D01*
X148701000Y-92799819D02*
X148843857Y-92847438D01*
X148843857Y-92847438D02*
X148939095Y-92942676D01*
X148939095Y-92942676D02*
X148986714Y-93037914D01*
X148986714Y-93037914D02*
X149034333Y-93228390D01*
X149034333Y-93228390D02*
X149034333Y-93371247D01*
X149034333Y-93371247D02*
X148986714Y-93561723D01*
X148986714Y-93561723D02*
X148939095Y-93656961D01*
X148939095Y-93656961D02*
X148843857Y-93752200D01*
X148843857Y-93752200D02*
X148701000Y-93799819D01*
X148701000Y-93799819D02*
X148462905Y-93799819D01*
X129928885Y-63059552D02*
X129928885Y-63726219D01*
X129690790Y-62678600D02*
X129452695Y-63392885D01*
X129452695Y-63392885D02*
X130071742Y-63392885D01*
X130881266Y-63059552D02*
X130881266Y-63726219D01*
X130643171Y-62678600D02*
X130405076Y-63392885D01*
X130405076Y-63392885D02*
X131024123Y-63392885D01*
X135928885Y-63059552D02*
X135928885Y-63726219D01*
X135690790Y-62678600D02*
X135452695Y-63392885D01*
X135452695Y-63392885D02*
X136071742Y-63392885D01*
X136405076Y-62821457D02*
X136452695Y-62773838D01*
X136452695Y-62773838D02*
X136547933Y-62726219D01*
X136547933Y-62726219D02*
X136786028Y-62726219D01*
X136786028Y-62726219D02*
X136881266Y-62773838D01*
X136881266Y-62773838D02*
X136928885Y-62821457D01*
X136928885Y-62821457D02*
X136976504Y-62916695D01*
X136976504Y-62916695D02*
X136976504Y-63011933D01*
X136976504Y-63011933D02*
X136928885Y-63154790D01*
X136928885Y-63154790D02*
X136357457Y-63726219D01*
X136357457Y-63726219D02*
X136976504Y-63726219D01*
X138928885Y-63059552D02*
X138928885Y-63726219D01*
X138690790Y-62678600D02*
X138452695Y-63392885D01*
X138452695Y-63392885D02*
X139071742Y-63392885D01*
X139976504Y-63726219D02*
X139405076Y-63726219D01*
X139690790Y-63726219D02*
X139690790Y-62726219D01*
X139690790Y-62726219D02*
X139595552Y-62869076D01*
X139595552Y-62869076D02*
X139500314Y-62964314D01*
X139500314Y-62964314D02*
X139405076Y-63011933D01*
X132928885Y-63059552D02*
X132928885Y-63726219D01*
X132690790Y-62678600D02*
X132452695Y-63392885D01*
X132452695Y-63392885D02*
X133071742Y-63392885D01*
X133357457Y-62726219D02*
X133976504Y-62726219D01*
X133976504Y-62726219D02*
X133643171Y-63107171D01*
X133643171Y-63107171D02*
X133786028Y-63107171D01*
X133786028Y-63107171D02*
X133881266Y-63154790D01*
X133881266Y-63154790D02*
X133928885Y-63202409D01*
X133928885Y-63202409D02*
X133976504Y-63297647D01*
X133976504Y-63297647D02*
X133976504Y-63535742D01*
X133976504Y-63535742D02*
X133928885Y-63630980D01*
X133928885Y-63630980D02*
X133881266Y-63678600D01*
X133881266Y-63678600D02*
X133786028Y-63726219D01*
X133786028Y-63726219D02*
X133500314Y-63726219D01*
X133500314Y-63726219D02*
X133405076Y-63678600D01*
X133405076Y-63678600D02*
X133357457Y-63630980D01*
X55920000Y-91211009D02*
X56062857Y-91258628D01*
X56062857Y-91258628D02*
X56110476Y-91306247D01*
X56110476Y-91306247D02*
X56158095Y-91401485D01*
X56158095Y-91401485D02*
X56158095Y-91544342D01*
X56158095Y-91544342D02*
X56110476Y-91639580D01*
X56110476Y-91639580D02*
X56062857Y-91687200D01*
X56062857Y-91687200D02*
X55967619Y-91734819D01*
X55967619Y-91734819D02*
X55586667Y-91734819D01*
X55586667Y-91734819D02*
X55586667Y-90734819D01*
X55586667Y-90734819D02*
X55920000Y-90734819D01*
X55920000Y-90734819D02*
X56015238Y-90782438D01*
X56015238Y-90782438D02*
X56062857Y-90830057D01*
X56062857Y-90830057D02*
X56110476Y-90925295D01*
X56110476Y-90925295D02*
X56110476Y-91020533D01*
X56110476Y-91020533D02*
X56062857Y-91115771D01*
X56062857Y-91115771D02*
X56015238Y-91163390D01*
X56015238Y-91163390D02*
X55920000Y-91211009D01*
X55920000Y-91211009D02*
X55586667Y-91211009D01*
X56586667Y-90734819D02*
X56586667Y-91544342D01*
X56586667Y-91544342D02*
X56634286Y-91639580D01*
X56634286Y-91639580D02*
X56681905Y-91687200D01*
X56681905Y-91687200D02*
X56777143Y-91734819D01*
X56777143Y-91734819D02*
X56967619Y-91734819D01*
X56967619Y-91734819D02*
X57062857Y-91687200D01*
X57062857Y-91687200D02*
X57110476Y-91639580D01*
X57110476Y-91639580D02*
X57158095Y-91544342D01*
X57158095Y-91544342D02*
X57158095Y-90734819D01*
X57586667Y-91687200D02*
X57729524Y-91734819D01*
X57729524Y-91734819D02*
X57967619Y-91734819D01*
X57967619Y-91734819D02*
X58062857Y-91687200D01*
X58062857Y-91687200D02*
X58110476Y-91639580D01*
X58110476Y-91639580D02*
X58158095Y-91544342D01*
X58158095Y-91544342D02*
X58158095Y-91449104D01*
X58158095Y-91449104D02*
X58110476Y-91353866D01*
X58110476Y-91353866D02*
X58062857Y-91306247D01*
X58062857Y-91306247D02*
X57967619Y-91258628D01*
X57967619Y-91258628D02*
X57777143Y-91211009D01*
X57777143Y-91211009D02*
X57681905Y-91163390D01*
X57681905Y-91163390D02*
X57634286Y-91115771D01*
X57634286Y-91115771D02*
X57586667Y-91020533D01*
X57586667Y-91020533D02*
X57586667Y-90925295D01*
X57586667Y-90925295D02*
X57634286Y-90830057D01*
X57634286Y-90830057D02*
X57681905Y-90782438D01*
X57681905Y-90782438D02*
X57777143Y-90734819D01*
X57777143Y-90734819D02*
X58015238Y-90734819D01*
X58015238Y-90734819D02*
X58158095Y-90782438D01*
X58586667Y-91734819D02*
X58586667Y-90734819D01*
X58586667Y-90734819D02*
X58967619Y-90734819D01*
X58967619Y-90734819D02*
X59062857Y-90782438D01*
X59062857Y-90782438D02*
X59110476Y-90830057D01*
X59110476Y-90830057D02*
X59158095Y-90925295D01*
X59158095Y-90925295D02*
X59158095Y-91068152D01*
X59158095Y-91068152D02*
X59110476Y-91163390D01*
X59110476Y-91163390D02*
X59062857Y-91211009D01*
X59062857Y-91211009D02*
X58967619Y-91258628D01*
X58967619Y-91258628D02*
X58586667Y-91258628D01*
X59491429Y-90734819D02*
X59729524Y-91734819D01*
X59729524Y-91734819D02*
X59920000Y-91020533D01*
X59920000Y-91020533D02*
X60110476Y-91734819D01*
X60110476Y-91734819D02*
X60348572Y-90734819D01*
X61300952Y-91734819D02*
X60967619Y-91258628D01*
X60729524Y-91734819D02*
X60729524Y-90734819D01*
X60729524Y-90734819D02*
X61110476Y-90734819D01*
X61110476Y-90734819D02*
X61205714Y-90782438D01*
X61205714Y-90782438D02*
X61253333Y-90830057D01*
X61253333Y-90830057D02*
X61300952Y-90925295D01*
X61300952Y-90925295D02*
X61300952Y-91068152D01*
X61300952Y-91068152D02*
X61253333Y-91163390D01*
X61253333Y-91163390D02*
X61205714Y-91211009D01*
X61205714Y-91211009D02*
X61110476Y-91258628D01*
X61110476Y-91258628D02*
X60729524Y-91258628D01*
X145073714Y-54607619D02*
X144502286Y-54607619D01*
X144788000Y-54607619D02*
X144788000Y-53607619D01*
X144788000Y-53607619D02*
X144692762Y-53750476D01*
X144692762Y-53750476D02*
X144597524Y-53845714D01*
X144597524Y-53845714D02*
X144502286Y-53893333D01*
X145502286Y-54607619D02*
X145502286Y-53607619D01*
X146073714Y-54607619D02*
X145645143Y-54036190D01*
X146073714Y-53607619D02*
X145502286Y-54179047D01*
X56071419Y-74642504D02*
X56880942Y-74642504D01*
X56880942Y-74642504D02*
X56976180Y-74594885D01*
X56976180Y-74594885D02*
X57023800Y-74547266D01*
X57023800Y-74547266D02*
X57071419Y-74452028D01*
X57071419Y-74452028D02*
X57071419Y-74261552D01*
X57071419Y-74261552D02*
X57023800Y-74166314D01*
X57023800Y-74166314D02*
X56976180Y-74118695D01*
X56976180Y-74118695D02*
X56880942Y-74071076D01*
X56880942Y-74071076D02*
X56071419Y-74071076D01*
X57023800Y-73642504D02*
X57071419Y-73499647D01*
X57071419Y-73499647D02*
X57071419Y-73261552D01*
X57071419Y-73261552D02*
X57023800Y-73166314D01*
X57023800Y-73166314D02*
X56976180Y-73118695D01*
X56976180Y-73118695D02*
X56880942Y-73071076D01*
X56880942Y-73071076D02*
X56785704Y-73071076D01*
X56785704Y-73071076D02*
X56690466Y-73118695D01*
X56690466Y-73118695D02*
X56642847Y-73166314D01*
X56642847Y-73166314D02*
X56595228Y-73261552D01*
X56595228Y-73261552D02*
X56547609Y-73452028D01*
X56547609Y-73452028D02*
X56499990Y-73547266D01*
X56499990Y-73547266D02*
X56452371Y-73594885D01*
X56452371Y-73594885D02*
X56357133Y-73642504D01*
X56357133Y-73642504D02*
X56261895Y-73642504D01*
X56261895Y-73642504D02*
X56166657Y-73594885D01*
X56166657Y-73594885D02*
X56119038Y-73547266D01*
X56119038Y-73547266D02*
X56071419Y-73452028D01*
X56071419Y-73452028D02*
X56071419Y-73213933D01*
X56071419Y-73213933D02*
X56119038Y-73071076D01*
X56547609Y-72309171D02*
X56595228Y-72166314D01*
X56595228Y-72166314D02*
X56642847Y-72118695D01*
X56642847Y-72118695D02*
X56738085Y-72071076D01*
X56738085Y-72071076D02*
X56880942Y-72071076D01*
X56880942Y-72071076D02*
X56976180Y-72118695D01*
X56976180Y-72118695D02*
X57023800Y-72166314D01*
X57023800Y-72166314D02*
X57071419Y-72261552D01*
X57071419Y-72261552D02*
X57071419Y-72642504D01*
X57071419Y-72642504D02*
X56071419Y-72642504D01*
X56071419Y-72642504D02*
X56071419Y-72309171D01*
X56071419Y-72309171D02*
X56119038Y-72213933D01*
X56119038Y-72213933D02*
X56166657Y-72166314D01*
X56166657Y-72166314D02*
X56261895Y-72118695D01*
X56261895Y-72118695D02*
X56357133Y-72118695D01*
X56357133Y-72118695D02*
X56452371Y-72166314D01*
X56452371Y-72166314D02*
X56499990Y-72213933D01*
X56499990Y-72213933D02*
X56547609Y-72309171D01*
X56547609Y-72309171D02*
X56547609Y-72642504D01*
X108015257Y-55455409D02*
X108158114Y-55503028D01*
X108158114Y-55503028D02*
X108205733Y-55550647D01*
X108205733Y-55550647D02*
X108253352Y-55645885D01*
X108253352Y-55645885D02*
X108253352Y-55788742D01*
X108253352Y-55788742D02*
X108205733Y-55883980D01*
X108205733Y-55883980D02*
X108158114Y-55931600D01*
X108158114Y-55931600D02*
X108062876Y-55979219D01*
X108062876Y-55979219D02*
X107681924Y-55979219D01*
X107681924Y-55979219D02*
X107681924Y-54979219D01*
X107681924Y-54979219D02*
X108015257Y-54979219D01*
X108015257Y-54979219D02*
X108110495Y-55026838D01*
X108110495Y-55026838D02*
X108158114Y-55074457D01*
X108158114Y-55074457D02*
X108205733Y-55169695D01*
X108205733Y-55169695D02*
X108205733Y-55264933D01*
X108205733Y-55264933D02*
X108158114Y-55360171D01*
X108158114Y-55360171D02*
X108110495Y-55407790D01*
X108110495Y-55407790D02*
X108015257Y-55455409D01*
X108015257Y-55455409D02*
X107681924Y-55455409D01*
X108872400Y-54979219D02*
X109062876Y-54979219D01*
X109062876Y-54979219D02*
X109158114Y-55026838D01*
X109158114Y-55026838D02*
X109253352Y-55122076D01*
X109253352Y-55122076D02*
X109300971Y-55312552D01*
X109300971Y-55312552D02*
X109300971Y-55645885D01*
X109300971Y-55645885D02*
X109253352Y-55836361D01*
X109253352Y-55836361D02*
X109158114Y-55931600D01*
X109158114Y-55931600D02*
X109062876Y-55979219D01*
X109062876Y-55979219D02*
X108872400Y-55979219D01*
X108872400Y-55979219D02*
X108777162Y-55931600D01*
X108777162Y-55931600D02*
X108681924Y-55836361D01*
X108681924Y-55836361D02*
X108634305Y-55645885D01*
X108634305Y-55645885D02*
X108634305Y-55312552D01*
X108634305Y-55312552D02*
X108681924Y-55122076D01*
X108681924Y-55122076D02*
X108777162Y-55026838D01*
X108777162Y-55026838D02*
X108872400Y-54979219D01*
X109920019Y-54979219D02*
X110110495Y-54979219D01*
X110110495Y-54979219D02*
X110205733Y-55026838D01*
X110205733Y-55026838D02*
X110300971Y-55122076D01*
X110300971Y-55122076D02*
X110348590Y-55312552D01*
X110348590Y-55312552D02*
X110348590Y-55645885D01*
X110348590Y-55645885D02*
X110300971Y-55836361D01*
X110300971Y-55836361D02*
X110205733Y-55931600D01*
X110205733Y-55931600D02*
X110110495Y-55979219D01*
X110110495Y-55979219D02*
X109920019Y-55979219D01*
X109920019Y-55979219D02*
X109824781Y-55931600D01*
X109824781Y-55931600D02*
X109729543Y-55836361D01*
X109729543Y-55836361D02*
X109681924Y-55645885D01*
X109681924Y-55645885D02*
X109681924Y-55312552D01*
X109681924Y-55312552D02*
X109729543Y-55122076D01*
X109729543Y-55122076D02*
X109824781Y-55026838D01*
X109824781Y-55026838D02*
X109920019Y-54979219D01*
X110634305Y-54979219D02*
X111205733Y-54979219D01*
X110920019Y-55979219D02*
X110920019Y-54979219D01*
X141928885Y-63059552D02*
X141928885Y-63726219D01*
X141690790Y-62678600D02*
X141452695Y-63392885D01*
X141452695Y-63392885D02*
X142071742Y-63392885D01*
X142643171Y-62726219D02*
X142738409Y-62726219D01*
X142738409Y-62726219D02*
X142833647Y-62773838D01*
X142833647Y-62773838D02*
X142881266Y-62821457D01*
X142881266Y-62821457D02*
X142928885Y-62916695D01*
X142928885Y-62916695D02*
X142976504Y-63107171D01*
X142976504Y-63107171D02*
X142976504Y-63345266D01*
X142976504Y-63345266D02*
X142928885Y-63535742D01*
X142928885Y-63535742D02*
X142881266Y-63630980D01*
X142881266Y-63630980D02*
X142833647Y-63678600D01*
X142833647Y-63678600D02*
X142738409Y-63726219D01*
X142738409Y-63726219D02*
X142643171Y-63726219D01*
X142643171Y-63726219D02*
X142547933Y-63678600D01*
X142547933Y-63678600D02*
X142500314Y-63630980D01*
X142500314Y-63630980D02*
X142452695Y-63535742D01*
X142452695Y-63535742D02*
X142405076Y-63345266D01*
X142405076Y-63345266D02*
X142405076Y-63107171D01*
X142405076Y-63107171D02*
X142452695Y-62916695D01*
X142452695Y-62916695D02*
X142500314Y-62821457D01*
X142500314Y-62821457D02*
X142547933Y-62773838D01*
X142547933Y-62773838D02*
X142643171Y-62726219D01*
X94229418Y-55776019D02*
X93896085Y-55299828D01*
X93657990Y-55776019D02*
X93657990Y-54776019D01*
X93657990Y-54776019D02*
X94038942Y-54776019D01*
X94038942Y-54776019D02*
X94134180Y-54823638D01*
X94134180Y-54823638D02*
X94181799Y-54871257D01*
X94181799Y-54871257D02*
X94229418Y-54966495D01*
X94229418Y-54966495D02*
X94229418Y-55109352D01*
X94229418Y-55109352D02*
X94181799Y-55204590D01*
X94181799Y-55204590D02*
X94134180Y-55252209D01*
X94134180Y-55252209D02*
X94038942Y-55299828D01*
X94038942Y-55299828D02*
X93657990Y-55299828D01*
X94657990Y-55252209D02*
X94991323Y-55252209D01*
X95134180Y-55776019D02*
X94657990Y-55776019D01*
X94657990Y-55776019D02*
X94657990Y-54776019D01*
X94657990Y-54776019D02*
X95134180Y-54776019D01*
X95515133Y-55728400D02*
X95657990Y-55776019D01*
X95657990Y-55776019D02*
X95896085Y-55776019D01*
X95896085Y-55776019D02*
X95991323Y-55728400D01*
X95991323Y-55728400D02*
X96038942Y-55680780D01*
X96038942Y-55680780D02*
X96086561Y-55585542D01*
X96086561Y-55585542D02*
X96086561Y-55490304D01*
X96086561Y-55490304D02*
X96038942Y-55395066D01*
X96038942Y-55395066D02*
X95991323Y-55347447D01*
X95991323Y-55347447D02*
X95896085Y-55299828D01*
X95896085Y-55299828D02*
X95705609Y-55252209D01*
X95705609Y-55252209D02*
X95610371Y-55204590D01*
X95610371Y-55204590D02*
X95562752Y-55156971D01*
X95562752Y-55156971D02*
X95515133Y-55061733D01*
X95515133Y-55061733D02*
X95515133Y-54966495D01*
X95515133Y-54966495D02*
X95562752Y-54871257D01*
X95562752Y-54871257D02*
X95610371Y-54823638D01*
X95610371Y-54823638D02*
X95705609Y-54776019D01*
X95705609Y-54776019D02*
X95943704Y-54776019D01*
X95943704Y-54776019D02*
X96086561Y-54823638D01*
X96515133Y-55252209D02*
X96848466Y-55252209D01*
X96991323Y-55776019D02*
X96515133Y-55776019D01*
X96515133Y-55776019D02*
X96515133Y-54776019D01*
X96515133Y-54776019D02*
X96991323Y-54776019D01*
X97277038Y-54776019D02*
X97848466Y-54776019D01*
X97562752Y-55776019D02*
X97562752Y-54776019D01*
X126928885Y-63059552D02*
X126928885Y-63726219D01*
X126690790Y-62678600D02*
X126452695Y-63392885D01*
X126452695Y-63392885D02*
X127071742Y-63392885D01*
X127928885Y-62726219D02*
X127452695Y-62726219D01*
X127452695Y-62726219D02*
X127405076Y-63202409D01*
X127405076Y-63202409D02*
X127452695Y-63154790D01*
X127452695Y-63154790D02*
X127547933Y-63107171D01*
X127547933Y-63107171D02*
X127786028Y-63107171D01*
X127786028Y-63107171D02*
X127881266Y-63154790D01*
X127881266Y-63154790D02*
X127928885Y-63202409D01*
X127928885Y-63202409D02*
X127976504Y-63297647D01*
X127976504Y-63297647D02*
X127976504Y-63535742D01*
X127976504Y-63535742D02*
X127928885Y-63630980D01*
X127928885Y-63630980D02*
X127881266Y-63678600D01*
X127881266Y-63678600D02*
X127786028Y-63726219D01*
X127786028Y-63726219D02*
X127547933Y-63726219D01*
X127547933Y-63726219D02*
X127452695Y-63678600D01*
X127452695Y-63678600D02*
X127405076Y-63630980D01*
X123928885Y-63059552D02*
X123928885Y-63726219D01*
X123690790Y-62678600D02*
X123452695Y-63392885D01*
X123452695Y-63392885D02*
X124071742Y-63392885D01*
X124881266Y-62726219D02*
X124690790Y-62726219D01*
X124690790Y-62726219D02*
X124595552Y-62773838D01*
X124595552Y-62773838D02*
X124547933Y-62821457D01*
X124547933Y-62821457D02*
X124452695Y-62964314D01*
X124452695Y-62964314D02*
X124405076Y-63154790D01*
X124405076Y-63154790D02*
X124405076Y-63535742D01*
X124405076Y-63535742D02*
X124452695Y-63630980D01*
X124452695Y-63630980D02*
X124500314Y-63678600D01*
X124500314Y-63678600D02*
X124595552Y-63726219D01*
X124595552Y-63726219D02*
X124786028Y-63726219D01*
X124786028Y-63726219D02*
X124881266Y-63678600D01*
X124881266Y-63678600D02*
X124928885Y-63630980D01*
X124928885Y-63630980D02*
X124976504Y-63535742D01*
X124976504Y-63535742D02*
X124976504Y-63297647D01*
X124976504Y-63297647D02*
X124928885Y-63202409D01*
X124928885Y-63202409D02*
X124881266Y-63154790D01*
X124881266Y-63154790D02*
X124786028Y-63107171D01*
X124786028Y-63107171D02*
X124595552Y-63107171D01*
X124595552Y-63107171D02*
X124500314Y-63154790D01*
X124500314Y-63154790D02*
X124452695Y-63202409D01*
X124452695Y-63202409D02*
X124405076Y-63297647D01*
X120928885Y-63059552D02*
X120928885Y-63726219D01*
X120690790Y-62678600D02*
X120452695Y-63392885D01*
X120452695Y-63392885D02*
X121071742Y-63392885D01*
X121357457Y-62726219D02*
X122024123Y-62726219D01*
X122024123Y-62726219D02*
X121595552Y-63726219D01*
X98504762Y-77694819D02*
X98504762Y-76694819D01*
X98504762Y-76694819D02*
X98885714Y-76694819D01*
X98885714Y-76694819D02*
X98980952Y-76742438D01*
X98980952Y-76742438D02*
X99028571Y-76790057D01*
X99028571Y-76790057D02*
X99076190Y-76885295D01*
X99076190Y-76885295D02*
X99076190Y-77028152D01*
X99076190Y-77028152D02*
X99028571Y-77123390D01*
X99028571Y-77123390D02*
X98980952Y-77171009D01*
X98980952Y-77171009D02*
X98885714Y-77218628D01*
X98885714Y-77218628D02*
X98504762Y-77218628D01*
X100028571Y-76742438D02*
X99933333Y-76694819D01*
X99933333Y-76694819D02*
X99790476Y-76694819D01*
X99790476Y-76694819D02*
X99647619Y-76742438D01*
X99647619Y-76742438D02*
X99552381Y-76837676D01*
X99552381Y-76837676D02*
X99504762Y-76932914D01*
X99504762Y-76932914D02*
X99457143Y-77123390D01*
X99457143Y-77123390D02*
X99457143Y-77266247D01*
X99457143Y-77266247D02*
X99504762Y-77456723D01*
X99504762Y-77456723D02*
X99552381Y-77551961D01*
X99552381Y-77551961D02*
X99647619Y-77647200D01*
X99647619Y-77647200D02*
X99790476Y-77694819D01*
X99790476Y-77694819D02*
X99885714Y-77694819D01*
X99885714Y-77694819D02*
X100028571Y-77647200D01*
X100028571Y-77647200D02*
X100076190Y-77599580D01*
X100076190Y-77599580D02*
X100076190Y-77266247D01*
X100076190Y-77266247D02*
X99885714Y-77266247D01*
X100457143Y-77409104D02*
X100933333Y-77409104D01*
X100361905Y-77694819D02*
X100695238Y-76694819D01*
X100695238Y-76694819D02*
X101028571Y-77694819D01*
X101314286Y-76790057D02*
X101361905Y-76742438D01*
X101361905Y-76742438D02*
X101457143Y-76694819D01*
X101457143Y-76694819D02*
X101695238Y-76694819D01*
X101695238Y-76694819D02*
X101790476Y-76742438D01*
X101790476Y-76742438D02*
X101838095Y-76790057D01*
X101838095Y-76790057D02*
X101885714Y-76885295D01*
X101885714Y-76885295D02*
X101885714Y-76980533D01*
X101885714Y-76980533D02*
X101838095Y-77123390D01*
X101838095Y-77123390D02*
X101266667Y-77694819D01*
X101266667Y-77694819D02*
X101885714Y-77694819D01*
X102219048Y-76694819D02*
X102838095Y-76694819D01*
X102838095Y-76694819D02*
X102504762Y-77075771D01*
X102504762Y-77075771D02*
X102647619Y-77075771D01*
X102647619Y-77075771D02*
X102742857Y-77123390D01*
X102742857Y-77123390D02*
X102790476Y-77171009D01*
X102790476Y-77171009D02*
X102838095Y-77266247D01*
X102838095Y-77266247D02*
X102838095Y-77504342D01*
X102838095Y-77504342D02*
X102790476Y-77599580D01*
X102790476Y-77599580D02*
X102742857Y-77647200D01*
X102742857Y-77647200D02*
X102647619Y-77694819D01*
X102647619Y-77694819D02*
X102361905Y-77694819D01*
X102361905Y-77694819D02*
X102266667Y-77647200D01*
X102266667Y-77647200D02*
X102219048Y-77599580D01*
X103742857Y-76694819D02*
X103266667Y-76694819D01*
X103266667Y-76694819D02*
X103219048Y-77171009D01*
X103219048Y-77171009D02*
X103266667Y-77123390D01*
X103266667Y-77123390D02*
X103361905Y-77075771D01*
X103361905Y-77075771D02*
X103600000Y-77075771D01*
X103600000Y-77075771D02*
X103695238Y-77123390D01*
X103695238Y-77123390D02*
X103742857Y-77171009D01*
X103742857Y-77171009D02*
X103790476Y-77266247D01*
X103790476Y-77266247D02*
X103790476Y-77504342D01*
X103790476Y-77504342D02*
X103742857Y-77599580D01*
X103742857Y-77599580D02*
X103695238Y-77647200D01*
X103695238Y-77647200D02*
X103600000Y-77694819D01*
X103600000Y-77694819D02*
X103361905Y-77694819D01*
X103361905Y-77694819D02*
X103266667Y-77647200D01*
X103266667Y-77647200D02*
X103219048Y-77599580D01*
X104409524Y-76694819D02*
X104504762Y-76694819D01*
X104504762Y-76694819D02*
X104600000Y-76742438D01*
X104600000Y-76742438D02*
X104647619Y-76790057D01*
X104647619Y-76790057D02*
X104695238Y-76885295D01*
X104695238Y-76885295D02*
X104742857Y-77075771D01*
X104742857Y-77075771D02*
X104742857Y-77313866D01*
X104742857Y-77313866D02*
X104695238Y-77504342D01*
X104695238Y-77504342D02*
X104647619Y-77599580D01*
X104647619Y-77599580D02*
X104600000Y-77647200D01*
X104600000Y-77647200D02*
X104504762Y-77694819D01*
X104504762Y-77694819D02*
X104409524Y-77694819D01*
X104409524Y-77694819D02*
X104314286Y-77647200D01*
X104314286Y-77647200D02*
X104266667Y-77599580D01*
X104266667Y-77599580D02*
X104219048Y-77504342D01*
X104219048Y-77504342D02*
X104171429Y-77313866D01*
X104171429Y-77313866D02*
X104171429Y-77075771D01*
X104171429Y-77075771D02*
X104219048Y-76885295D01*
X104219048Y-76885295D02*
X104266667Y-76790057D01*
X104266667Y-76790057D02*
X104314286Y-76742438D01*
X104314286Y-76742438D02*
X104409524Y-76694819D01*
D13*
%TO.C,J5*%
X146300000Y-92020000D02*
X146300000Y-66400000D01*
X146300000Y-92020000D02*
X143540000Y-92020000D01*
X146300000Y-66400000D02*
X143540000Y-66400000D01*
X143540000Y-92020000D02*
X143540000Y-66400000D01*
%TO.C,J6*%
X148840000Y-92020000D02*
X148840000Y-66400000D01*
X148840000Y-92020000D02*
X146080000Y-92020000D01*
X148840000Y-66400000D02*
X146080000Y-66400000D01*
%TO.C,J1*%
X50423400Y-101380000D02*
X50423400Y-100000000D01*
X51803400Y-101380000D02*
X50423400Y-101380000D01*
X53073400Y-98620000D02*
X149703400Y-98620000D01*
X53073400Y-101380000D02*
X53073400Y-98620000D01*
X53073400Y-101380000D02*
X149703400Y-101380000D01*
X149703400Y-101380000D02*
X149703400Y-98620000D01*
%TO.C,D5*%
X129180000Y-60753000D02*
X129180000Y-59500000D01*
X129180000Y-61250000D02*
X129180000Y-61167000D01*
X129200000Y-61250000D02*
X129180000Y-61250000D01*
X131300000Y-59500000D02*
X131300000Y-60753000D01*
X131300000Y-61167000D02*
X131300000Y-61250000D01*
%TO.C,D3*%
X135180000Y-60753000D02*
X135180000Y-59500000D01*
X135180000Y-61250000D02*
X135180000Y-61167000D01*
X135200000Y-61250000D02*
X135180000Y-61250000D01*
X137300000Y-59500000D02*
X137300000Y-60753000D01*
X137300000Y-61167000D02*
X137300000Y-61250000D01*
%TO.C,D2*%
X138180000Y-60753000D02*
X138180000Y-59500000D01*
X138180000Y-61250000D02*
X138180000Y-61167000D01*
X138200000Y-61250000D02*
X138180000Y-61250000D01*
X140300000Y-59500000D02*
X140300000Y-60753000D01*
X140300000Y-61167000D02*
X140300000Y-61250000D01*
%TO.C,D4*%
X132180000Y-60753000D02*
X132180000Y-59500000D01*
X132180000Y-61250000D02*
X132180000Y-61167000D01*
X132200000Y-61250000D02*
X132180000Y-61250000D01*
X134300000Y-59500000D02*
X134300000Y-60753000D01*
X134300000Y-61167000D02*
X134300000Y-61250000D01*
%TO.C,J3*%
X57040000Y-84980000D02*
X58420000Y-84980000D01*
X57040000Y-86360000D02*
X57040000Y-84980000D01*
X57040000Y-87630000D02*
X57040000Y-90280000D01*
X57040000Y-87630000D02*
X59800000Y-87630000D01*
X57040000Y-90280000D02*
X59800000Y-90280000D01*
X59800000Y-87630000D02*
X59800000Y-90280000D01*
%TO.C,RN1*%
X140970000Y-55437400D02*
X140970000Y-52817400D01*
X143590000Y-55437400D02*
X120570000Y-55437400D01*
X120570000Y-52817400D01*
X143590000Y-52817400D01*
X143590000Y-55437400D01*
%TO.C,J4*%
X50067500Y-69353600D02*
X50317500Y-69353600D01*
X50067500Y-77153600D02*
X50317500Y-77153600D01*
X52617500Y-69353600D02*
X54467500Y-69353600D01*
X52617500Y-77153600D02*
X54467500Y-77153600D01*
X54467500Y-69353600D02*
X54467500Y-69803600D01*
X54467500Y-77153600D02*
X54467500Y-76703600D01*
X55017500Y-71553600D02*
X54567500Y-71553600D01*
X55017500Y-71553600D02*
X55017500Y-72003600D01*
%TO.C,SW1*%
X106830000Y-57030000D02*
X106830000Y-56570000D01*
X106830000Y-60270000D02*
X106830000Y-59810000D01*
X106830000Y-60270000D02*
X113030000Y-60270000D01*
X113030000Y-56570000D02*
X106830000Y-56570000D01*
X113030000Y-57030000D02*
X113030000Y-56570000D01*
X113030000Y-59810000D02*
X114030000Y-59810000D01*
X113030000Y-60270000D02*
X113030000Y-59810000D01*
X111430000Y-58970000D02*
X108580000Y-58970000D01*
X108580000Y-57920000D01*
X111430000Y-57920000D01*
X111430000Y-58970000D01*
%TO.C,D1*%
X141180000Y-60753000D02*
X141180000Y-59500000D01*
X141180000Y-61250000D02*
X141180000Y-61167000D01*
X141200000Y-61250000D02*
X141180000Y-61250000D01*
X143300000Y-59500000D02*
X143300000Y-60753000D01*
X143300000Y-61167000D02*
X143300000Y-61250000D01*
%TO.C,SW2*%
X92710000Y-56570000D02*
X92710000Y-57030000D01*
X92710000Y-57030000D02*
X91710000Y-57030000D01*
X92710000Y-59810000D02*
X92710000Y-60270000D01*
X92710000Y-60270000D02*
X98910000Y-60270000D01*
X98910000Y-56570000D02*
X92710000Y-56570000D01*
X98910000Y-56570000D02*
X98910000Y-57030000D01*
X98910000Y-59810000D02*
X98910000Y-60270000D01*
X94310000Y-57870000D02*
X97160000Y-57870000D01*
X97160000Y-58920000D01*
X94310000Y-58920000D01*
X94310000Y-57870000D01*
%TO.C,J2*%
X91063400Y-98840000D02*
X91063400Y-97460000D01*
X92443400Y-98840000D02*
X91063400Y-98840000D01*
X93713400Y-96080000D02*
X116683400Y-96080000D01*
X93713400Y-98840000D02*
X93713400Y-96080000D01*
X93713400Y-98840000D02*
X116683400Y-98840000D01*
X116683400Y-98840000D02*
X116683400Y-96080000D01*
%TO.C,D6*%
X126180000Y-60753000D02*
X126180000Y-59500000D01*
X126180000Y-61250000D02*
X126180000Y-61167000D01*
X126200000Y-61250000D02*
X126180000Y-61250000D01*
X128300000Y-59500000D02*
X128300000Y-60753000D01*
X128300000Y-61167000D02*
X128300000Y-61250000D01*
%TO.C,D7*%
X123180000Y-60753000D02*
X123180000Y-59500000D01*
X123180000Y-61250000D02*
X123180000Y-61167000D01*
X123200000Y-61250000D02*
X123180000Y-61250000D01*
X125300000Y-59500000D02*
X125300000Y-60753000D01*
X125300000Y-61167000D02*
X125300000Y-61250000D01*
%TO.C,D8*%
X120180000Y-60753000D02*
X120180000Y-59500000D01*
X120180000Y-61250000D02*
X120180000Y-61167000D01*
X120200000Y-61250000D02*
X120180000Y-61250000D01*
X122300000Y-59500000D02*
X122300000Y-60753000D01*
X122300000Y-61167000D02*
X122300000Y-61250000D01*
%TO.C,U1*%
D14*
X90170000Y-64770000D02*
X115570000Y-64770000D01*
X115570000Y-90170000D01*
X90170000Y-90170000D01*
X90170000Y-64770000D01*
X95885000Y-73025000D02*
X107315000Y-73025000D01*
X107315000Y-84455000D01*
X95885000Y-84455000D01*
X95885000Y-73025000D01*
D15*
X97045000Y-71120000D02*
G75*
G02*
X95995000Y-71120000I-525000J0D01*
G01*
X95995000Y-71120000D02*
G75*
G02*
X97045000Y-71120000I525000J0D01*
G01*
D14*
X93345000Y-67310000D02*
X92690000Y-67945000D01*
X92075000Y-67310000D01*
X92710000Y-66675000D01*
X93345000Y-67310000D01*
G36*
X93345000Y-67310000D02*
G01*
X92690000Y-67945000D01*
X92075000Y-67310000D01*
X92710000Y-66675000D01*
X93345000Y-67310000D01*
G37*
%TD*%
M02*
