%TF.GenerationSoftware,KiCad,Pcbnew,(6.0.5)*%
%TF.CreationDate,2023-01-13T11:48:33+00:00*%
%TF.ProjectId,AnalogInputBoard,416e616c-6f67-4496-9e70-7574426f6172,rev?*%
%TF.SameCoordinates,Original*%
%TF.FileFunction,Soldermask,Top*%
%TF.FilePolarity,Negative*%
%FSLAX46Y46*%
G04 Gerber Fmt 4.6, Leading zero omitted, Abs format (unit mm)*
G04 Created by KiCad (PCBNEW (6.0.5)) date 2023-01-13 11:48:33*
%MOMM*%
%LPD*%
G01*
G04 APERTURE LIST*
G04 Aperture macros list*
%AMRoundRect*
0 Rectangle with rounded corners*
0 $1 Rounding radius*
0 $2 $3 $4 $5 $6 $7 $8 $9 X,Y pos of 4 corners*
0 Add a 4 corners polygon primitive as box body*
4,1,4,$2,$3,$4,$5,$6,$7,$8,$9,$2,$3,0*
0 Add four circle primitives for the rounded corners*
1,1,$1+$1,$2,$3*
1,1,$1+$1,$4,$5*
1,1,$1+$1,$6,$7*
1,1,$1+$1,$8,$9*
0 Add four rect primitives between the rounded corners*
20,1,$1+$1,$2,$3,$4,$5,0*
20,1,$1+$1,$4,$5,$6,$7,0*
20,1,$1+$1,$6,$7,$8,$9,0*
20,1,$1+$1,$8,$9,$2,$3,0*%
G04 Aperture macros list end*
%ADD10R,1.800000X1.800000*%
%ADD11C,1.800000*%
%ADD12RoundRect,0.750000X0.750000X-1.250000X0.750000X1.250000X-0.750000X1.250000X-0.750000X-1.250000X0*%
%ADD13RoundRect,0.750000X-0.750000X1.250000X-0.750000X-1.250000X0.750000X-1.250000X0.750000X1.250000X0*%
%ADD14R,1.700000X1.700000*%
%ADD15O,1.700000X1.700000*%
%ADD16R,1.600000X1.600000*%
%ADD17O,1.600000X1.600000*%
%ADD18C,1.600000*%
G04 APERTURE END LIST*
D10*
%TO.C,ALG0*%
X56320000Y-116660000D03*
D11*
X58820000Y-116660000D03*
X61320000Y-116660000D03*
D12*
X63220000Y-109660000D03*
X54420000Y-109660000D03*
%TD*%
D10*
%TO.C,RV5*%
X70310000Y-83730000D03*
D11*
X67810000Y-83730000D03*
X65310000Y-83730000D03*
D13*
X72210000Y-90730000D03*
X63410000Y-90730000D03*
%TD*%
D10*
%TO.C,ALG4*%
X120320000Y-116660000D03*
D11*
X122820000Y-116660000D03*
X125320000Y-116660000D03*
D12*
X127220000Y-109660000D03*
X118420000Y-109660000D03*
%TD*%
D14*
%TO.C,J1*%
X56930000Y-69300000D03*
D15*
X56930000Y-71840000D03*
X56930000Y-74380000D03*
X56930000Y-76920000D03*
X56930000Y-79460000D03*
X56930000Y-82000000D03*
%TD*%
D10*
%TO.C,RV7*%
X110310000Y-83730000D03*
D11*
X107810000Y-83730000D03*
X105310000Y-83730000D03*
D13*
X112210000Y-90730000D03*
X103410000Y-90730000D03*
%TD*%
D10*
%TO.C,ALG2*%
X88320000Y-116660000D03*
D11*
X90820000Y-116660000D03*
X93320000Y-116660000D03*
D12*
X86420000Y-109660000D03*
X95220000Y-109660000D03*
%TD*%
D10*
%TO.C,ALG3*%
X104320000Y-116660000D03*
D11*
X106820000Y-116660000D03*
X109320000Y-116660000D03*
D12*
X102420000Y-109660000D03*
X111220000Y-109660000D03*
%TD*%
D10*
%TO.C,ALG5*%
X136320000Y-116660000D03*
D11*
X138820000Y-116660000D03*
X141320000Y-116660000D03*
D12*
X143220000Y-109660000D03*
X134420000Y-109660000D03*
%TD*%
D14*
%TO.C,J3*%
X90675000Y-121040000D03*
D15*
X93215000Y-121040000D03*
X95755000Y-121040000D03*
X98295000Y-121040000D03*
X100835000Y-121040000D03*
X103375000Y-121040000D03*
X105915000Y-121040000D03*
X108455000Y-121040000D03*
%TD*%
D10*
%TO.C,RV8*%
X130310000Y-83730000D03*
D11*
X127810000Y-83730000D03*
X125310000Y-83730000D03*
D13*
X123410000Y-90730000D03*
X132210000Y-90730000D03*
%TD*%
D10*
%TO.C,RV1*%
X65230000Y-66730000D03*
D11*
X67730000Y-66730000D03*
X70230000Y-66730000D03*
D12*
X63330000Y-59730000D03*
X72130000Y-59730000D03*
%TD*%
D16*
%TO.C,U1*%
X74925000Y-79620000D03*
D17*
X77465000Y-79620000D03*
X80005000Y-79620000D03*
X82545000Y-79620000D03*
X85085000Y-79620000D03*
X87625000Y-79620000D03*
X90165000Y-79620000D03*
X92705000Y-79620000D03*
X92705000Y-72000000D03*
X90165000Y-72000000D03*
X87625000Y-72000000D03*
X85085000Y-72000000D03*
X82545000Y-72000000D03*
X80005000Y-72000000D03*
X77465000Y-72000000D03*
X74925000Y-72000000D03*
%TD*%
D18*
%TO.C,C1*%
X95790000Y-72070000D03*
X100790000Y-72070000D03*
%TD*%
D10*
%TO.C,RV6*%
X90310000Y-83730000D03*
D11*
X87810000Y-83730000D03*
X85310000Y-83730000D03*
D13*
X83410000Y-90730000D03*
X92210000Y-90730000D03*
%TD*%
D10*
%TO.C,ALG1*%
X72320000Y-116660000D03*
D11*
X74820000Y-116660000D03*
X77320000Y-116660000D03*
D12*
X79220000Y-109660000D03*
X70420000Y-109660000D03*
%TD*%
D10*
%TO.C,RV3*%
X105230000Y-66730000D03*
D11*
X107730000Y-66730000D03*
X110230000Y-66730000D03*
D12*
X112130000Y-59730000D03*
X103330000Y-59730000D03*
%TD*%
D10*
%TO.C,RV2*%
X85230000Y-66730000D03*
D11*
X87730000Y-66730000D03*
X90230000Y-66730000D03*
D12*
X83330000Y-59730000D03*
X92130000Y-59730000D03*
%TD*%
D14*
%TO.C,J2*%
X140010000Y-65055000D03*
D15*
X140010000Y-67595000D03*
X140010000Y-70135000D03*
X140010000Y-72675000D03*
X140010000Y-75215000D03*
X140010000Y-77755000D03*
X140010000Y-80295000D03*
X140010000Y-82835000D03*
X140010000Y-85375000D03*
X140010000Y-87915000D03*
%TD*%
D16*
%TO.C,U2*%
X103860000Y-79570000D03*
D17*
X106400000Y-79570000D03*
X108940000Y-79570000D03*
X111480000Y-79570000D03*
X114020000Y-79570000D03*
X116560000Y-79570000D03*
X119100000Y-79570000D03*
X121640000Y-79570000D03*
X121640000Y-71950000D03*
X119100000Y-71950000D03*
X116560000Y-71950000D03*
X114020000Y-71950000D03*
X111480000Y-71950000D03*
X108940000Y-71950000D03*
X106400000Y-71950000D03*
X103860000Y-71950000D03*
%TD*%
D10*
%TO.C,RV4*%
X125230000Y-66730000D03*
D11*
X127730000Y-66730000D03*
X130230000Y-66730000D03*
D12*
X123330000Y-59730000D03*
X132130000Y-59730000D03*
%TD*%
M02*
