G04 #@! TF.GenerationSoftware,KiCad,Pcbnew,7.0.9*
G04 #@! TF.CreationDate,2024-05-25T15:59:30+01:00*
G04 #@! TF.ProjectId,RPi-QuadDAC-MiniDexed,5250692d-5175-4616-9444-41432d4d696e,rev?*
G04 #@! TF.SameCoordinates,Original*
G04 #@! TF.FileFunction,Legend,Bot*
G04 #@! TF.FilePolarity,Positive*
%FSLAX46Y46*%
G04 Gerber Fmt 4.6, Leading zero omitted, Abs format (unit mm)*
G04 Created by KiCad (PCBNEW 7.0.9) date 2024-05-25 15:59:30*
%MOMM*%
%LPD*%
G01*
G04 APERTURE LIST*
%ADD10C,0.304800*%
%ADD11C,0.120000*%
%ADD12C,2.499360*%
G04 APERTURE END LIST*
D10*
X70689921Y-77246572D02*
X69165921Y-77246572D01*
X69165921Y-77246572D02*
X70254492Y-77754572D01*
X70254492Y-77754572D02*
X69165921Y-78262572D01*
X69165921Y-78262572D02*
X70689921Y-78262572D01*
X70689921Y-78988286D02*
X69165921Y-78988286D01*
X70689921Y-79714000D02*
X69165921Y-79714000D01*
X69165921Y-79714000D02*
X69165921Y-80076857D01*
X69165921Y-80076857D02*
X69238492Y-80294571D01*
X69238492Y-80294571D02*
X69383635Y-80439714D01*
X69383635Y-80439714D02*
X69528778Y-80512285D01*
X69528778Y-80512285D02*
X69819064Y-80584857D01*
X69819064Y-80584857D02*
X70036778Y-80584857D01*
X70036778Y-80584857D02*
X70327064Y-80512285D01*
X70327064Y-80512285D02*
X70472207Y-80439714D01*
X70472207Y-80439714D02*
X70617350Y-80294571D01*
X70617350Y-80294571D02*
X70689921Y-80076857D01*
X70689921Y-80076857D02*
X70689921Y-79714000D01*
X70689921Y-81238000D02*
X69165921Y-81238000D01*
X69165921Y-83415142D02*
X69165921Y-83705428D01*
X69165921Y-83705428D02*
X69238492Y-83850571D01*
X69238492Y-83850571D02*
X69383635Y-83995714D01*
X69383635Y-83995714D02*
X69673921Y-84068285D01*
X69673921Y-84068285D02*
X70181921Y-84068285D01*
X70181921Y-84068285D02*
X70472207Y-83995714D01*
X70472207Y-83995714D02*
X70617350Y-83850571D01*
X70617350Y-83850571D02*
X70689921Y-83705428D01*
X70689921Y-83705428D02*
X70689921Y-83415142D01*
X70689921Y-83415142D02*
X70617350Y-83270000D01*
X70617350Y-83270000D02*
X70472207Y-83124857D01*
X70472207Y-83124857D02*
X70181921Y-83052285D01*
X70181921Y-83052285D02*
X69673921Y-83052285D01*
X69673921Y-83052285D02*
X69383635Y-83124857D01*
X69383635Y-83124857D02*
X69238492Y-83270000D01*
X69238492Y-83270000D02*
X69165921Y-83415142D01*
X69165921Y-84721428D02*
X70399635Y-84721428D01*
X70399635Y-84721428D02*
X70544778Y-84793999D01*
X70544778Y-84793999D02*
X70617350Y-84866571D01*
X70617350Y-84866571D02*
X70689921Y-85011713D01*
X70689921Y-85011713D02*
X70689921Y-85301999D01*
X70689921Y-85301999D02*
X70617350Y-85447142D01*
X70617350Y-85447142D02*
X70544778Y-85519713D01*
X70544778Y-85519713D02*
X70399635Y-85592285D01*
X70399635Y-85592285D02*
X69165921Y-85592285D01*
X69165921Y-86100284D02*
X69165921Y-86971142D01*
X70689921Y-86535713D02*
X69165921Y-86535713D01*
X70689921Y-58262572D02*
X69165921Y-58262572D01*
X69165921Y-58262572D02*
X70254492Y-58770572D01*
X70254492Y-58770572D02*
X69165921Y-59278572D01*
X69165921Y-59278572D02*
X70689921Y-59278572D01*
X70689921Y-60004286D02*
X69165921Y-60004286D01*
X70689921Y-60730000D02*
X69165921Y-60730000D01*
X69165921Y-60730000D02*
X69165921Y-61092857D01*
X69165921Y-61092857D02*
X69238492Y-61310571D01*
X69238492Y-61310571D02*
X69383635Y-61455714D01*
X69383635Y-61455714D02*
X69528778Y-61528285D01*
X69528778Y-61528285D02*
X69819064Y-61600857D01*
X69819064Y-61600857D02*
X70036778Y-61600857D01*
X70036778Y-61600857D02*
X70327064Y-61528285D01*
X70327064Y-61528285D02*
X70472207Y-61455714D01*
X70472207Y-61455714D02*
X70617350Y-61310571D01*
X70617350Y-61310571D02*
X70689921Y-61092857D01*
X70689921Y-61092857D02*
X70689921Y-60730000D01*
X70689921Y-62254000D02*
X69165921Y-62254000D01*
X70689921Y-64140857D02*
X69165921Y-64140857D01*
X70689921Y-64866571D02*
X69165921Y-64866571D01*
X69165921Y-64866571D02*
X70689921Y-65737428D01*
X70689921Y-65737428D02*
X69165921Y-65737428D01*
D11*
X157960000Y-44900000D02*
X157960000Y-50100000D01*
X107040000Y-44900000D02*
X157960000Y-44900000D01*
X107040000Y-44900000D02*
X107040000Y-47500000D01*
X109640000Y-47500000D02*
X109640000Y-50100000D01*
X107040000Y-47500000D02*
X109640000Y-47500000D01*
X107040000Y-48770000D02*
X107040000Y-50100000D01*
X109640000Y-50100000D02*
X157960000Y-50100000D01*
X107040000Y-50100000D02*
X108370000Y-50100000D01*
D10*
X49500400Y-92500360D02*
X50000780Y-92500360D01*
X49749320Y-92500360D02*
X49749320Y-73000780D01*
X50000780Y-92500360D02*
X50000780Y-90999220D01*
X50000780Y-90999220D02*
X50501160Y-90999220D01*
X50249700Y-90999220D02*
X50249700Y-71499640D01*
X50501160Y-90999220D02*
X50501160Y-71499640D01*
X50999000Y-90999220D02*
X50999000Y-90498840D01*
X67999220Y-90999220D02*
X50999000Y-90999220D01*
X67999220Y-90999220D02*
X68499600Y-90498840D01*
X50999000Y-90498840D02*
X50501160Y-90498840D01*
X68499600Y-90498840D02*
X68499600Y-87999480D01*
X68499600Y-87999480D02*
X67999220Y-87499100D01*
X66000240Y-87499100D02*
X66000240Y-83998980D01*
X67999220Y-87499100D02*
X66000240Y-87499100D01*
X67999220Y-83998980D02*
X66000240Y-83998980D01*
X68499600Y-83501140D02*
X67999220Y-83998980D01*
X68499600Y-83501140D02*
X68499600Y-80498860D01*
X68499600Y-80498860D02*
X67999220Y-80001020D01*
X67999220Y-80001020D02*
X66000240Y-80001020D01*
X66000240Y-76500900D02*
X66000240Y-80001020D01*
X67999220Y-76500900D02*
X66000240Y-76500900D01*
X68499600Y-76000520D02*
X67999220Y-76500900D01*
X68499600Y-75500140D02*
X68499600Y-76000520D01*
X50501160Y-73501160D02*
X50999000Y-73501160D01*
X68499600Y-73501160D02*
X68499600Y-75500140D01*
X49500400Y-73000780D02*
X49500400Y-92500360D01*
X50000780Y-73000780D02*
X50000780Y-90999220D01*
X50000780Y-73000780D02*
X49500400Y-73000780D01*
X50999000Y-73000780D02*
X50999000Y-73501160D01*
X67999220Y-73000780D02*
X68499600Y-73501160D01*
X67999220Y-73000780D02*
X50999000Y-73000780D01*
X50000780Y-71499640D02*
X50000780Y-73000780D01*
X50501160Y-71499640D02*
X50000780Y-71499640D01*
X49500400Y-72500360D02*
X50000780Y-72500360D01*
X49749320Y-72500360D02*
X49749320Y-53000780D01*
X50000780Y-72500360D02*
X50000780Y-70999220D01*
X50000780Y-70999220D02*
X50501160Y-70999220D01*
X50249700Y-70999220D02*
X50249700Y-51499640D01*
X50501160Y-70999220D02*
X50501160Y-51499640D01*
X50999000Y-70999220D02*
X50999000Y-70498840D01*
X67999220Y-70999220D02*
X50999000Y-70999220D01*
X67999220Y-70999220D02*
X68499600Y-70498840D01*
X50999000Y-70498840D02*
X50501160Y-70498840D01*
X68499600Y-70498840D02*
X68499600Y-67999480D01*
X68499600Y-67999480D02*
X67999220Y-67499100D01*
X66000240Y-67499100D02*
X66000240Y-63998980D01*
X67999220Y-67499100D02*
X66000240Y-67499100D01*
X67999220Y-63998980D02*
X66000240Y-63998980D01*
X68499600Y-63501140D02*
X67999220Y-63998980D01*
X68499600Y-63501140D02*
X68499600Y-60498860D01*
X68499600Y-60498860D02*
X67999220Y-60001020D01*
X67999220Y-60001020D02*
X66000240Y-60001020D01*
X66000240Y-56500900D02*
X66000240Y-60001020D01*
X67999220Y-56500900D02*
X66000240Y-56500900D01*
X68499600Y-56000520D02*
X67999220Y-56500900D01*
X68499600Y-55500140D02*
X68499600Y-56000520D01*
X50501160Y-53501160D02*
X50999000Y-53501160D01*
X68499600Y-53501160D02*
X68499600Y-55500140D01*
X49500400Y-53000780D02*
X49500400Y-72500360D01*
X50000780Y-53000780D02*
X50000780Y-70999220D01*
X50000780Y-53000780D02*
X49500400Y-53000780D01*
X50999000Y-53000780D02*
X50999000Y-53501160D01*
X67999220Y-53000780D02*
X68499600Y-53501160D01*
X67999220Y-53000780D02*
X50999000Y-53000780D01*
X50000780Y-51499640D02*
X50000780Y-53000780D01*
X50501160Y-51499640D02*
X50000780Y-51499640D01*
D12*
X52002300Y-87001260D03*
X52002300Y-76998740D03*
X61997200Y-74501920D03*
X61999740Y-82000000D03*
X61997200Y-89498080D03*
X64499100Y-77003820D03*
X64499100Y-86996180D03*
X52002300Y-67001260D03*
X52002300Y-56998740D03*
X61997200Y-54501920D03*
X61999740Y-62000000D03*
X61997200Y-69498080D03*
X64499100Y-57003820D03*
X64499100Y-66996180D03*
M02*
