%TF.GenerationSoftware,KiCad,Pcbnew,8.0.7*%
%TF.CreationDate,2025-02-02T12:47:19+00:00*%
%TF.ProjectId,PicoMIDITouchBoard,5069636f-4d49-4444-9954-6f756368426f,rev?*%
%TF.SameCoordinates,Original*%
%TF.FileFunction,Legend,Bot*%
%TF.FilePolarity,Positive*%
%FSLAX46Y46*%
G04 Gerber Fmt 4.6, Leading zero omitted, Abs format (unit mm)*
G04 Created by KiCad (PCBNEW 8.0.7) date 2025-02-02 12:47:19*
%MOMM*%
%LPD*%
G01*
G04 APERTURE LIST*
%ADD10C,0.200000*%
%ADD11C,2.499360*%
G04 APERTURE END LIST*
D10*
%TO.C,J23*%
X136500000Y-112250000D02*
X128500000Y-112250000D01*
X126000000Y-109250000D01*
X128500000Y-106250000D01*
X136500000Y-106250000D01*
X136500000Y-112250000D01*
%TO.C,J10*%
X61000000Y-77250000D02*
X58500000Y-80250000D01*
X50500000Y-80250000D01*
X50500000Y-74250000D01*
X58500000Y-74250000D01*
X61000000Y-77250000D01*
%TO.C,J12*%
X61000000Y-93250000D02*
X58500000Y-96250000D01*
X50500000Y-96250000D01*
X50500000Y-90250000D01*
X58500000Y-90250000D01*
X61000000Y-93250000D01*
%TO.C,J6*%
X61000000Y-53250000D02*
X58500000Y-56250000D01*
X50500000Y-56250000D01*
X50500000Y-50250000D01*
X58500000Y-50250000D01*
X61000000Y-53250000D01*
%TO.C,J22*%
X136750000Y-120250000D02*
X128750000Y-120250000D01*
X126250000Y-117250000D01*
X128750000Y-114250000D01*
X136750000Y-114250000D01*
X136750000Y-120250000D01*
%TO.C,J26*%
X136500000Y-88250000D02*
X128500000Y-88250000D01*
X126000000Y-85250000D01*
X128500000Y-82250000D01*
X136500000Y-82250000D01*
X136500000Y-88250000D01*
%TO.C,J20*%
X136750000Y-136250000D02*
X128750000Y-136250000D01*
X126250000Y-133250000D01*
X128750000Y-130250000D01*
X136750000Y-130250000D01*
X136750000Y-136250000D01*
%TO.C,J21*%
X136750000Y-128250000D02*
X128750000Y-128250000D01*
X126250000Y-125250000D01*
X128750000Y-122250000D01*
X136750000Y-122250000D01*
X136750000Y-128250000D01*
%TO.C,J19*%
X136750000Y-144250000D02*
X128750000Y-144250000D01*
X126250000Y-141250000D01*
X128750000Y-138250000D01*
X136750000Y-138250000D01*
X136750000Y-144250000D01*
%TO.C,J13*%
X61000000Y-101250000D02*
X58500000Y-104250000D01*
X50500000Y-104250000D01*
X50500000Y-98250000D01*
X58500000Y-98250000D01*
X61000000Y-101250000D01*
%TO.C,J27*%
X136500000Y-80250000D02*
X128500000Y-80250000D01*
X126000000Y-77250000D01*
X128500000Y-74250000D01*
X136500000Y-74250000D01*
X136500000Y-80250000D01*
%TO.C,J25*%
X136500000Y-96250000D02*
X128500000Y-96250000D01*
X126000000Y-93250000D01*
X128500000Y-90250000D01*
X136500000Y-90250000D01*
X136500000Y-96250000D01*
%TO.C,J16*%
X61000000Y-125250000D02*
X58500000Y-128250000D01*
X50500000Y-128250000D01*
X50500000Y-122250000D01*
X58500000Y-122250000D01*
X61000000Y-125250000D01*
%TO.C,J11*%
X61000000Y-85250000D02*
X58500000Y-88250000D01*
X50500000Y-88250000D01*
X50500000Y-82250000D01*
X58500000Y-82250000D01*
X61000000Y-85250000D01*
%TO.C,J9*%
X61000000Y-69250000D02*
X58500000Y-72250000D01*
X50500000Y-72250000D01*
X50500000Y-66250000D01*
X58500000Y-66250000D01*
X61000000Y-69250000D01*
%TO.C,J17*%
X61000000Y-133250000D02*
X58500000Y-136250000D01*
X50500000Y-136250000D01*
X50500000Y-130250000D01*
X58500000Y-130250000D01*
X61000000Y-133250000D01*
%TO.C,J14*%
X61000000Y-109250000D02*
X58500000Y-112250000D01*
X50500000Y-112250000D01*
X50500000Y-106250000D01*
X58500000Y-106250000D01*
X61000000Y-109250000D01*
%TO.C,J15*%
X61000000Y-117250000D02*
X58500000Y-120250000D01*
X50500000Y-120250000D01*
X50500000Y-114250000D01*
X58500000Y-114250000D01*
X61000000Y-117250000D01*
%TO.C,J24*%
X136500000Y-104250000D02*
X128500000Y-104250000D01*
X126000000Y-101250000D01*
X128500000Y-98250000D01*
X136500000Y-98250000D01*
X136500000Y-104250000D01*
%TO.C,J8*%
X61000000Y-61250000D02*
X58500000Y-64250000D01*
X50500000Y-64250000D01*
X50500000Y-58250000D01*
X58500000Y-58250000D01*
X61000000Y-61250000D01*
%TO.C,J18*%
X61000000Y-141250000D02*
X58500000Y-144250000D01*
X50500000Y-144250000D01*
X50500000Y-138250000D01*
X58500000Y-138250000D01*
X61000000Y-141250000D01*
%TD*%
D11*
%TO.C,J3*%
X90998080Y-132202800D03*
X83500000Y-132200260D03*
X76001920Y-132202800D03*
X88496180Y-129700900D03*
X78503820Y-129700900D03*
%TD*%
%TO.C,J4*%
X110998080Y-132202800D03*
X103500000Y-132200260D03*
X96001920Y-132202800D03*
X108496180Y-129700900D03*
X98503820Y-129700900D03*
%TD*%
M02*
