%TF.GenerationSoftware,KiCad,Pcbnew,8.0.5*%
%TF.CreationDate,2024-11-21T14:48:29+00:00*%
%TF.ProjectId,ESP32MozziExperimenterShield,45535033-324d-46f7-9a7a-694578706572,rev?*%
%TF.SameCoordinates,Original*%
%TF.FileFunction,Legend,Bot*%
%TF.FilePolarity,Positive*%
%FSLAX46Y46*%
G04 Gerber Fmt 4.6, Leading zero omitted, Abs format (unit mm)*
G04 Created by KiCad (PCBNEW 8.0.5) date 2024-11-21 14:48:29*
%MOMM*%
%LPD*%
G01*
G04 APERTURE LIST*
%ADD10C,0.400000*%
%ADD11C,0.150000*%
%ADD12C,0.120000*%
%ADD13C,2.499360*%
G04 APERTURE END LIST*
D10*
X114970000Y-58180000D02*
X103070000Y-58180000D01*
D11*
X97310000Y-70230000D02*
X102950000Y-70230000D01*
X102950000Y-74920000D01*
X97310000Y-74920000D01*
X97310000Y-70230000D01*
X97310000Y-55400000D02*
X102950000Y-55400000D01*
X102950000Y-60090000D01*
X97310000Y-60090000D01*
X97310000Y-55400000D01*
D10*
X114970000Y-73670000D02*
X103070000Y-73670000D01*
D11*
X104883333Y-94136121D02*
X104550000Y-94136121D01*
X104407143Y-94659931D02*
X104883333Y-94659931D01*
X104883333Y-94659931D02*
X104883333Y-93659931D01*
X104883333Y-93659931D02*
X104407143Y-93659931D01*
X104026190Y-94612312D02*
X103883333Y-94659931D01*
X103883333Y-94659931D02*
X103645238Y-94659931D01*
X103645238Y-94659931D02*
X103550000Y-94612312D01*
X103550000Y-94612312D02*
X103502381Y-94564692D01*
X103502381Y-94564692D02*
X103454762Y-94469454D01*
X103454762Y-94469454D02*
X103454762Y-94374216D01*
X103454762Y-94374216D02*
X103502381Y-94278978D01*
X103502381Y-94278978D02*
X103550000Y-94231359D01*
X103550000Y-94231359D02*
X103645238Y-94183740D01*
X103645238Y-94183740D02*
X103835714Y-94136121D01*
X103835714Y-94136121D02*
X103930952Y-94088502D01*
X103930952Y-94088502D02*
X103978571Y-94040883D01*
X103978571Y-94040883D02*
X104026190Y-93945645D01*
X104026190Y-93945645D02*
X104026190Y-93850407D01*
X104026190Y-93850407D02*
X103978571Y-93755169D01*
X103978571Y-93755169D02*
X103930952Y-93707550D01*
X103930952Y-93707550D02*
X103835714Y-93659931D01*
X103835714Y-93659931D02*
X103597619Y-93659931D01*
X103597619Y-93659931D02*
X103454762Y-93707550D01*
X103026190Y-94659931D02*
X103026190Y-93659931D01*
X103026190Y-93659931D02*
X102645238Y-93659931D01*
X102645238Y-93659931D02*
X102550000Y-93707550D01*
X102550000Y-93707550D02*
X102502381Y-93755169D01*
X102502381Y-93755169D02*
X102454762Y-93850407D01*
X102454762Y-93850407D02*
X102454762Y-93993264D01*
X102454762Y-93993264D02*
X102502381Y-94088502D01*
X102502381Y-94088502D02*
X102550000Y-94136121D01*
X102550000Y-94136121D02*
X102645238Y-94183740D01*
X102645238Y-94183740D02*
X103026190Y-94183740D01*
X102121428Y-93659931D02*
X101502381Y-93659931D01*
X101502381Y-93659931D02*
X101835714Y-94040883D01*
X101835714Y-94040883D02*
X101692857Y-94040883D01*
X101692857Y-94040883D02*
X101597619Y-94088502D01*
X101597619Y-94088502D02*
X101550000Y-94136121D01*
X101550000Y-94136121D02*
X101502381Y-94231359D01*
X101502381Y-94231359D02*
X101502381Y-94469454D01*
X101502381Y-94469454D02*
X101550000Y-94564692D01*
X101550000Y-94564692D02*
X101597619Y-94612312D01*
X101597619Y-94612312D02*
X101692857Y-94659931D01*
X101692857Y-94659931D02*
X101978571Y-94659931D01*
X101978571Y-94659931D02*
X102073809Y-94612312D01*
X102073809Y-94612312D02*
X102121428Y-94564692D01*
X101121428Y-93755169D02*
X101073809Y-93707550D01*
X101073809Y-93707550D02*
X100978571Y-93659931D01*
X100978571Y-93659931D02*
X100740476Y-93659931D01*
X100740476Y-93659931D02*
X100645238Y-93707550D01*
X100645238Y-93707550D02*
X100597619Y-93755169D01*
X100597619Y-93755169D02*
X100550000Y-93850407D01*
X100550000Y-93850407D02*
X100550000Y-93945645D01*
X100550000Y-93945645D02*
X100597619Y-94088502D01*
X100597619Y-94088502D02*
X101169047Y-94659931D01*
X101169047Y-94659931D02*
X100550000Y-94659931D01*
X99359523Y-94659931D02*
X99359523Y-93659931D01*
X99359523Y-93659931D02*
X99026190Y-94374216D01*
X99026190Y-94374216D02*
X98692857Y-93659931D01*
X98692857Y-93659931D02*
X98692857Y-94659931D01*
X98073809Y-94659931D02*
X98169047Y-94612312D01*
X98169047Y-94612312D02*
X98216666Y-94564692D01*
X98216666Y-94564692D02*
X98264285Y-94469454D01*
X98264285Y-94469454D02*
X98264285Y-94183740D01*
X98264285Y-94183740D02*
X98216666Y-94088502D01*
X98216666Y-94088502D02*
X98169047Y-94040883D01*
X98169047Y-94040883D02*
X98073809Y-93993264D01*
X98073809Y-93993264D02*
X97930952Y-93993264D01*
X97930952Y-93993264D02*
X97835714Y-94040883D01*
X97835714Y-94040883D02*
X97788095Y-94088502D01*
X97788095Y-94088502D02*
X97740476Y-94183740D01*
X97740476Y-94183740D02*
X97740476Y-94469454D01*
X97740476Y-94469454D02*
X97788095Y-94564692D01*
X97788095Y-94564692D02*
X97835714Y-94612312D01*
X97835714Y-94612312D02*
X97930952Y-94659931D01*
X97930952Y-94659931D02*
X98073809Y-94659931D01*
X97407142Y-93993264D02*
X96883333Y-93993264D01*
X96883333Y-93993264D02*
X97407142Y-94659931D01*
X97407142Y-94659931D02*
X96883333Y-94659931D01*
X96597618Y-93993264D02*
X96073809Y-93993264D01*
X96073809Y-93993264D02*
X96597618Y-94659931D01*
X96597618Y-94659931D02*
X96073809Y-94659931D01*
X95692856Y-94659931D02*
X95692856Y-93993264D01*
X95692856Y-93659931D02*
X95740475Y-93707550D01*
X95740475Y-93707550D02*
X95692856Y-93755169D01*
X95692856Y-93755169D02*
X95645237Y-93707550D01*
X95645237Y-93707550D02*
X95692856Y-93659931D01*
X95692856Y-93659931D02*
X95692856Y-93755169D01*
X94454761Y-94136121D02*
X94121428Y-94136121D01*
X93978571Y-94659931D02*
X94454761Y-94659931D01*
X94454761Y-94659931D02*
X94454761Y-93659931D01*
X94454761Y-93659931D02*
X93978571Y-93659931D01*
X93645237Y-94659931D02*
X93121428Y-93993264D01*
X93645237Y-93993264D02*
X93121428Y-94659931D01*
X92740475Y-93993264D02*
X92740475Y-94993264D01*
X92740475Y-94040883D02*
X92645237Y-93993264D01*
X92645237Y-93993264D02*
X92454761Y-93993264D01*
X92454761Y-93993264D02*
X92359523Y-94040883D01*
X92359523Y-94040883D02*
X92311904Y-94088502D01*
X92311904Y-94088502D02*
X92264285Y-94183740D01*
X92264285Y-94183740D02*
X92264285Y-94469454D01*
X92264285Y-94469454D02*
X92311904Y-94564692D01*
X92311904Y-94564692D02*
X92359523Y-94612312D01*
X92359523Y-94612312D02*
X92454761Y-94659931D01*
X92454761Y-94659931D02*
X92645237Y-94659931D01*
X92645237Y-94659931D02*
X92740475Y-94612312D01*
X91454761Y-94612312D02*
X91549999Y-94659931D01*
X91549999Y-94659931D02*
X91740475Y-94659931D01*
X91740475Y-94659931D02*
X91835713Y-94612312D01*
X91835713Y-94612312D02*
X91883332Y-94517073D01*
X91883332Y-94517073D02*
X91883332Y-94136121D01*
X91883332Y-94136121D02*
X91835713Y-94040883D01*
X91835713Y-94040883D02*
X91740475Y-93993264D01*
X91740475Y-93993264D02*
X91549999Y-93993264D01*
X91549999Y-93993264D02*
X91454761Y-94040883D01*
X91454761Y-94040883D02*
X91407142Y-94136121D01*
X91407142Y-94136121D02*
X91407142Y-94231359D01*
X91407142Y-94231359D02*
X91883332Y-94326597D01*
X90978570Y-94659931D02*
X90978570Y-93993264D01*
X90978570Y-94183740D02*
X90930951Y-94088502D01*
X90930951Y-94088502D02*
X90883332Y-94040883D01*
X90883332Y-94040883D02*
X90788094Y-93993264D01*
X90788094Y-93993264D02*
X90692856Y-93993264D01*
X90359522Y-94659931D02*
X90359522Y-93993264D01*
X90359522Y-93659931D02*
X90407141Y-93707550D01*
X90407141Y-93707550D02*
X90359522Y-93755169D01*
X90359522Y-93755169D02*
X90311903Y-93707550D01*
X90311903Y-93707550D02*
X90359522Y-93659931D01*
X90359522Y-93659931D02*
X90359522Y-93755169D01*
X89883332Y-94659931D02*
X89883332Y-93993264D01*
X89883332Y-94088502D02*
X89835713Y-94040883D01*
X89835713Y-94040883D02*
X89740475Y-93993264D01*
X89740475Y-93993264D02*
X89597618Y-93993264D01*
X89597618Y-93993264D02*
X89502380Y-94040883D01*
X89502380Y-94040883D02*
X89454761Y-94136121D01*
X89454761Y-94136121D02*
X89454761Y-94659931D01*
X89454761Y-94136121D02*
X89407142Y-94040883D01*
X89407142Y-94040883D02*
X89311904Y-93993264D01*
X89311904Y-93993264D02*
X89169047Y-93993264D01*
X89169047Y-93993264D02*
X89073808Y-94040883D01*
X89073808Y-94040883D02*
X89026189Y-94136121D01*
X89026189Y-94136121D02*
X89026189Y-94659931D01*
X88169047Y-94612312D02*
X88264285Y-94659931D01*
X88264285Y-94659931D02*
X88454761Y-94659931D01*
X88454761Y-94659931D02*
X88549999Y-94612312D01*
X88549999Y-94612312D02*
X88597618Y-94517073D01*
X88597618Y-94517073D02*
X88597618Y-94136121D01*
X88597618Y-94136121D02*
X88549999Y-94040883D01*
X88549999Y-94040883D02*
X88454761Y-93993264D01*
X88454761Y-93993264D02*
X88264285Y-93993264D01*
X88264285Y-93993264D02*
X88169047Y-94040883D01*
X88169047Y-94040883D02*
X88121428Y-94136121D01*
X88121428Y-94136121D02*
X88121428Y-94231359D01*
X88121428Y-94231359D02*
X88597618Y-94326597D01*
X87692856Y-93993264D02*
X87692856Y-94659931D01*
X87692856Y-94088502D02*
X87645237Y-94040883D01*
X87645237Y-94040883D02*
X87549999Y-93993264D01*
X87549999Y-93993264D02*
X87407142Y-93993264D01*
X87407142Y-93993264D02*
X87311904Y-94040883D01*
X87311904Y-94040883D02*
X87264285Y-94136121D01*
X87264285Y-94136121D02*
X87264285Y-94659931D01*
X86930951Y-93993264D02*
X86549999Y-93993264D01*
X86788094Y-93659931D02*
X86788094Y-94517073D01*
X86788094Y-94517073D02*
X86740475Y-94612312D01*
X86740475Y-94612312D02*
X86645237Y-94659931D01*
X86645237Y-94659931D02*
X86549999Y-94659931D01*
X85835713Y-94612312D02*
X85930951Y-94659931D01*
X85930951Y-94659931D02*
X86121427Y-94659931D01*
X86121427Y-94659931D02*
X86216665Y-94612312D01*
X86216665Y-94612312D02*
X86264284Y-94517073D01*
X86264284Y-94517073D02*
X86264284Y-94136121D01*
X86264284Y-94136121D02*
X86216665Y-94040883D01*
X86216665Y-94040883D02*
X86121427Y-93993264D01*
X86121427Y-93993264D02*
X85930951Y-93993264D01*
X85930951Y-93993264D02*
X85835713Y-94040883D01*
X85835713Y-94040883D02*
X85788094Y-94136121D01*
X85788094Y-94136121D02*
X85788094Y-94231359D01*
X85788094Y-94231359D02*
X86264284Y-94326597D01*
X85359522Y-94659931D02*
X85359522Y-93993264D01*
X85359522Y-94183740D02*
X85311903Y-94088502D01*
X85311903Y-94088502D02*
X85264284Y-94040883D01*
X85264284Y-94040883D02*
X85169046Y-93993264D01*
X85169046Y-93993264D02*
X85073808Y-93993264D01*
X100240476Y-96269875D02*
X100240476Y-95269875D01*
X100240476Y-96222256D02*
X100335714Y-96269875D01*
X100335714Y-96269875D02*
X100526190Y-96269875D01*
X100526190Y-96269875D02*
X100621428Y-96222256D01*
X100621428Y-96222256D02*
X100669047Y-96174636D01*
X100669047Y-96174636D02*
X100716666Y-96079398D01*
X100716666Y-96079398D02*
X100716666Y-95793684D01*
X100716666Y-95793684D02*
X100669047Y-95698446D01*
X100669047Y-95698446D02*
X100621428Y-95650827D01*
X100621428Y-95650827D02*
X100526190Y-95603208D01*
X100526190Y-95603208D02*
X100335714Y-95603208D01*
X100335714Y-95603208D02*
X100240476Y-95650827D01*
X99764285Y-96269875D02*
X99764285Y-95603208D01*
X99764285Y-95269875D02*
X99811904Y-95317494D01*
X99811904Y-95317494D02*
X99764285Y-95365113D01*
X99764285Y-95365113D02*
X99716666Y-95317494D01*
X99716666Y-95317494D02*
X99764285Y-95269875D01*
X99764285Y-95269875D02*
X99764285Y-95365113D01*
X99383333Y-95603208D02*
X99145238Y-96269875D01*
X98907143Y-95603208D02*
X99145238Y-96269875D01*
X99145238Y-96269875D02*
X99240476Y-96507970D01*
X99240476Y-96507970D02*
X99288095Y-96555589D01*
X99288095Y-96555589D02*
X99383333Y-96603208D01*
X98145238Y-96222256D02*
X98240476Y-96269875D01*
X98240476Y-96269875D02*
X98430952Y-96269875D01*
X98430952Y-96269875D02*
X98526190Y-96222256D01*
X98526190Y-96222256D02*
X98573809Y-96127017D01*
X98573809Y-96127017D02*
X98573809Y-95746065D01*
X98573809Y-95746065D02*
X98526190Y-95650827D01*
X98526190Y-95650827D02*
X98430952Y-95603208D01*
X98430952Y-95603208D02*
X98240476Y-95603208D01*
X98240476Y-95603208D02*
X98145238Y-95650827D01*
X98145238Y-95650827D02*
X98097619Y-95746065D01*
X98097619Y-95746065D02*
X98097619Y-95841303D01*
X98097619Y-95841303D02*
X98573809Y-95936541D01*
X97526190Y-96269875D02*
X97621428Y-96222256D01*
X97621428Y-96222256D02*
X97669047Y-96127017D01*
X97669047Y-96127017D02*
X97669047Y-95269875D01*
X96764285Y-96222256D02*
X96859523Y-96269875D01*
X96859523Y-96269875D02*
X97049999Y-96269875D01*
X97049999Y-96269875D02*
X97145237Y-96222256D01*
X97145237Y-96222256D02*
X97192856Y-96127017D01*
X97192856Y-96127017D02*
X97192856Y-95746065D01*
X97192856Y-95746065D02*
X97145237Y-95650827D01*
X97145237Y-95650827D02*
X97049999Y-95603208D01*
X97049999Y-95603208D02*
X96859523Y-95603208D01*
X96859523Y-95603208D02*
X96764285Y-95650827D01*
X96764285Y-95650827D02*
X96716666Y-95746065D01*
X96716666Y-95746065D02*
X96716666Y-95841303D01*
X96716666Y-95841303D02*
X97192856Y-95936541D01*
X95859523Y-96222256D02*
X95954761Y-96269875D01*
X95954761Y-96269875D02*
X96145237Y-96269875D01*
X96145237Y-96269875D02*
X96240475Y-96222256D01*
X96240475Y-96222256D02*
X96288094Y-96174636D01*
X96288094Y-96174636D02*
X96335713Y-96079398D01*
X96335713Y-96079398D02*
X96335713Y-95793684D01*
X96335713Y-95793684D02*
X96288094Y-95698446D01*
X96288094Y-95698446D02*
X96240475Y-95650827D01*
X96240475Y-95650827D02*
X96145237Y-95603208D01*
X96145237Y-95603208D02*
X95954761Y-95603208D01*
X95954761Y-95603208D02*
X95859523Y-95650827D01*
X95573808Y-95603208D02*
X95192856Y-95603208D01*
X95430951Y-95269875D02*
X95430951Y-96127017D01*
X95430951Y-96127017D02*
X95383332Y-96222256D01*
X95383332Y-96222256D02*
X95288094Y-96269875D01*
X95288094Y-96269875D02*
X95192856Y-96269875D01*
X94859522Y-96269875D02*
X94859522Y-95603208D01*
X94859522Y-95793684D02*
X94811903Y-95698446D01*
X94811903Y-95698446D02*
X94764284Y-95650827D01*
X94764284Y-95650827D02*
X94669046Y-95603208D01*
X94669046Y-95603208D02*
X94573808Y-95603208D01*
X94097617Y-96269875D02*
X94192855Y-96222256D01*
X94192855Y-96222256D02*
X94240474Y-96174636D01*
X94240474Y-96174636D02*
X94288093Y-96079398D01*
X94288093Y-96079398D02*
X94288093Y-95793684D01*
X94288093Y-95793684D02*
X94240474Y-95698446D01*
X94240474Y-95698446D02*
X94192855Y-95650827D01*
X94192855Y-95650827D02*
X94097617Y-95603208D01*
X94097617Y-95603208D02*
X93954760Y-95603208D01*
X93954760Y-95603208D02*
X93859522Y-95650827D01*
X93859522Y-95650827D02*
X93811903Y-95698446D01*
X93811903Y-95698446D02*
X93764284Y-95793684D01*
X93764284Y-95793684D02*
X93764284Y-96079398D01*
X93764284Y-96079398D02*
X93811903Y-96174636D01*
X93811903Y-96174636D02*
X93859522Y-96222256D01*
X93859522Y-96222256D02*
X93954760Y-96269875D01*
X93954760Y-96269875D02*
X94097617Y-96269875D01*
X93335712Y-96269875D02*
X93335712Y-95603208D01*
X93335712Y-95698446D02*
X93288093Y-95650827D01*
X93288093Y-95650827D02*
X93192855Y-95603208D01*
X93192855Y-95603208D02*
X93049998Y-95603208D01*
X93049998Y-95603208D02*
X92954760Y-95650827D01*
X92954760Y-95650827D02*
X92907141Y-95746065D01*
X92907141Y-95746065D02*
X92907141Y-96269875D01*
X92907141Y-95746065D02*
X92859522Y-95650827D01*
X92859522Y-95650827D02*
X92764284Y-95603208D01*
X92764284Y-95603208D02*
X92621427Y-95603208D01*
X92621427Y-95603208D02*
X92526188Y-95650827D01*
X92526188Y-95650827D02*
X92478569Y-95746065D01*
X92478569Y-95746065D02*
X92478569Y-96269875D01*
X91573808Y-95603208D02*
X91573808Y-96269875D01*
X92002379Y-95603208D02*
X92002379Y-96127017D01*
X92002379Y-96127017D02*
X91954760Y-96222256D01*
X91954760Y-96222256D02*
X91859522Y-96269875D01*
X91859522Y-96269875D02*
X91716665Y-96269875D01*
X91716665Y-96269875D02*
X91621427Y-96222256D01*
X91621427Y-96222256D02*
X91573808Y-96174636D01*
X91145236Y-96222256D02*
X91049998Y-96269875D01*
X91049998Y-96269875D02*
X90859522Y-96269875D01*
X90859522Y-96269875D02*
X90764284Y-96222256D01*
X90764284Y-96222256D02*
X90716665Y-96127017D01*
X90716665Y-96127017D02*
X90716665Y-96079398D01*
X90716665Y-96079398D02*
X90764284Y-95984160D01*
X90764284Y-95984160D02*
X90859522Y-95936541D01*
X90859522Y-95936541D02*
X91002379Y-95936541D01*
X91002379Y-95936541D02*
X91097617Y-95888922D01*
X91097617Y-95888922D02*
X91145236Y-95793684D01*
X91145236Y-95793684D02*
X91145236Y-95746065D01*
X91145236Y-95746065D02*
X91097617Y-95650827D01*
X91097617Y-95650827D02*
X91002379Y-95603208D01*
X91002379Y-95603208D02*
X90859522Y-95603208D01*
X90859522Y-95603208D02*
X90764284Y-95650827D01*
X90288093Y-96269875D02*
X90288093Y-95603208D01*
X90288093Y-95269875D02*
X90335712Y-95317494D01*
X90335712Y-95317494D02*
X90288093Y-95365113D01*
X90288093Y-95365113D02*
X90240474Y-95317494D01*
X90240474Y-95317494D02*
X90288093Y-95269875D01*
X90288093Y-95269875D02*
X90288093Y-95365113D01*
X89383332Y-96222256D02*
X89478570Y-96269875D01*
X89478570Y-96269875D02*
X89669046Y-96269875D01*
X89669046Y-96269875D02*
X89764284Y-96222256D01*
X89764284Y-96222256D02*
X89811903Y-96174636D01*
X89811903Y-96174636D02*
X89859522Y-96079398D01*
X89859522Y-96079398D02*
X89859522Y-95793684D01*
X89859522Y-95793684D02*
X89811903Y-95698446D01*
X89811903Y-95698446D02*
X89764284Y-95650827D01*
X89764284Y-95650827D02*
X89669046Y-95603208D01*
X89669046Y-95603208D02*
X89478570Y-95603208D01*
X89478570Y-95603208D02*
X89383332Y-95650827D01*
X98764285Y-97213152D02*
X98526190Y-97879819D01*
X98526190Y-97879819D02*
X98288095Y-97213152D01*
X97716666Y-96879819D02*
X97621428Y-96879819D01*
X97621428Y-96879819D02*
X97526190Y-96927438D01*
X97526190Y-96927438D02*
X97478571Y-96975057D01*
X97478571Y-96975057D02*
X97430952Y-97070295D01*
X97430952Y-97070295D02*
X97383333Y-97260771D01*
X97383333Y-97260771D02*
X97383333Y-97498866D01*
X97383333Y-97498866D02*
X97430952Y-97689342D01*
X97430952Y-97689342D02*
X97478571Y-97784580D01*
X97478571Y-97784580D02*
X97526190Y-97832200D01*
X97526190Y-97832200D02*
X97621428Y-97879819D01*
X97621428Y-97879819D02*
X97716666Y-97879819D01*
X97716666Y-97879819D02*
X97811904Y-97832200D01*
X97811904Y-97832200D02*
X97859523Y-97784580D01*
X97859523Y-97784580D02*
X97907142Y-97689342D01*
X97907142Y-97689342D02*
X97954761Y-97498866D01*
X97954761Y-97498866D02*
X97954761Y-97260771D01*
X97954761Y-97260771D02*
X97907142Y-97070295D01*
X97907142Y-97070295D02*
X97859523Y-96975057D01*
X97859523Y-96975057D02*
X97811904Y-96927438D01*
X97811904Y-96927438D02*
X97716666Y-96879819D01*
X96954761Y-97784580D02*
X96907142Y-97832200D01*
X96907142Y-97832200D02*
X96954761Y-97879819D01*
X96954761Y-97879819D02*
X97002380Y-97832200D01*
X97002380Y-97832200D02*
X96954761Y-97784580D01*
X96954761Y-97784580D02*
X96954761Y-97879819D01*
X95954762Y-97879819D02*
X96526190Y-97879819D01*
X96240476Y-97879819D02*
X96240476Y-96879819D01*
X96240476Y-96879819D02*
X96335714Y-97022676D01*
X96335714Y-97022676D02*
X96430952Y-97117914D01*
X96430952Y-97117914D02*
X96526190Y-97165533D01*
X94811904Y-96975057D02*
X94764285Y-96927438D01*
X94764285Y-96927438D02*
X94669047Y-96879819D01*
X94669047Y-96879819D02*
X94430952Y-96879819D01*
X94430952Y-96879819D02*
X94335714Y-96927438D01*
X94335714Y-96927438D02*
X94288095Y-96975057D01*
X94288095Y-96975057D02*
X94240476Y-97070295D01*
X94240476Y-97070295D02*
X94240476Y-97165533D01*
X94240476Y-97165533D02*
X94288095Y-97308390D01*
X94288095Y-97308390D02*
X94859523Y-97879819D01*
X94859523Y-97879819D02*
X94240476Y-97879819D01*
X93621428Y-96879819D02*
X93526190Y-96879819D01*
X93526190Y-96879819D02*
X93430952Y-96927438D01*
X93430952Y-96927438D02*
X93383333Y-96975057D01*
X93383333Y-96975057D02*
X93335714Y-97070295D01*
X93335714Y-97070295D02*
X93288095Y-97260771D01*
X93288095Y-97260771D02*
X93288095Y-97498866D01*
X93288095Y-97498866D02*
X93335714Y-97689342D01*
X93335714Y-97689342D02*
X93383333Y-97784580D01*
X93383333Y-97784580D02*
X93430952Y-97832200D01*
X93430952Y-97832200D02*
X93526190Y-97879819D01*
X93526190Y-97879819D02*
X93621428Y-97879819D01*
X93621428Y-97879819D02*
X93716666Y-97832200D01*
X93716666Y-97832200D02*
X93764285Y-97784580D01*
X93764285Y-97784580D02*
X93811904Y-97689342D01*
X93811904Y-97689342D02*
X93859523Y-97498866D01*
X93859523Y-97498866D02*
X93859523Y-97260771D01*
X93859523Y-97260771D02*
X93811904Y-97070295D01*
X93811904Y-97070295D02*
X93764285Y-96975057D01*
X93764285Y-96975057D02*
X93716666Y-96927438D01*
X93716666Y-96927438D02*
X93621428Y-96879819D01*
X92907142Y-96975057D02*
X92859523Y-96927438D01*
X92859523Y-96927438D02*
X92764285Y-96879819D01*
X92764285Y-96879819D02*
X92526190Y-96879819D01*
X92526190Y-96879819D02*
X92430952Y-96927438D01*
X92430952Y-96927438D02*
X92383333Y-96975057D01*
X92383333Y-96975057D02*
X92335714Y-97070295D01*
X92335714Y-97070295D02*
X92335714Y-97165533D01*
X92335714Y-97165533D02*
X92383333Y-97308390D01*
X92383333Y-97308390D02*
X92954761Y-97879819D01*
X92954761Y-97879819D02*
X92335714Y-97879819D01*
X91478571Y-97213152D02*
X91478571Y-97879819D01*
X91716666Y-96832200D02*
X91954761Y-97546485D01*
X91954761Y-97546485D02*
X91335714Y-97546485D01*
X102139411Y-55682494D02*
X102234649Y-55634875D01*
X102234649Y-55634875D02*
X102377506Y-55634875D01*
X102377506Y-55634875D02*
X102520363Y-55682494D01*
X102520363Y-55682494D02*
X102615601Y-55777732D01*
X102615601Y-55777732D02*
X102663220Y-55872970D01*
X102663220Y-55872970D02*
X102710839Y-56063446D01*
X102710839Y-56063446D02*
X102710839Y-56206303D01*
X102710839Y-56206303D02*
X102663220Y-56396779D01*
X102663220Y-56396779D02*
X102615601Y-56492017D01*
X102615601Y-56492017D02*
X102520363Y-56587256D01*
X102520363Y-56587256D02*
X102377506Y-56634875D01*
X102377506Y-56634875D02*
X102282268Y-56634875D01*
X102282268Y-56634875D02*
X102139411Y-56587256D01*
X102139411Y-56587256D02*
X102091792Y-56539636D01*
X102091792Y-56539636D02*
X102091792Y-56206303D01*
X102091792Y-56206303D02*
X102282268Y-56206303D01*
X101663220Y-56634875D02*
X101663220Y-55634875D01*
X101663220Y-55634875D02*
X101282268Y-55634875D01*
X101282268Y-55634875D02*
X101187030Y-55682494D01*
X101187030Y-55682494D02*
X101139411Y-55730113D01*
X101139411Y-55730113D02*
X101091792Y-55825351D01*
X101091792Y-55825351D02*
X101091792Y-55968208D01*
X101091792Y-55968208D02*
X101139411Y-56063446D01*
X101139411Y-56063446D02*
X101187030Y-56111065D01*
X101187030Y-56111065D02*
X101282268Y-56158684D01*
X101282268Y-56158684D02*
X101663220Y-56158684D01*
X100663220Y-56634875D02*
X100663220Y-55634875D01*
X99996554Y-55634875D02*
X99806078Y-55634875D01*
X99806078Y-55634875D02*
X99710840Y-55682494D01*
X99710840Y-55682494D02*
X99615602Y-55777732D01*
X99615602Y-55777732D02*
X99567983Y-55968208D01*
X99567983Y-55968208D02*
X99567983Y-56301541D01*
X99567983Y-56301541D02*
X99615602Y-56492017D01*
X99615602Y-56492017D02*
X99710840Y-56587256D01*
X99710840Y-56587256D02*
X99806078Y-56634875D01*
X99806078Y-56634875D02*
X99996554Y-56634875D01*
X99996554Y-56634875D02*
X100091792Y-56587256D01*
X100091792Y-56587256D02*
X100187030Y-56492017D01*
X100187030Y-56492017D02*
X100234649Y-56301541D01*
X100234649Y-56301541D02*
X100234649Y-55968208D01*
X100234649Y-55968208D02*
X100187030Y-55777732D01*
X100187030Y-55777732D02*
X100091792Y-55682494D01*
X100091792Y-55682494D02*
X99996554Y-55634875D01*
X98615602Y-56634875D02*
X99187030Y-56634875D01*
X98901316Y-56634875D02*
X98901316Y-55634875D01*
X98901316Y-55634875D02*
X98996554Y-55777732D01*
X98996554Y-55777732D02*
X99091792Y-55872970D01*
X99091792Y-55872970D02*
X99187030Y-55920589D01*
X98282268Y-55634875D02*
X97663221Y-55634875D01*
X97663221Y-55634875D02*
X97996554Y-56015827D01*
X97996554Y-56015827D02*
X97853697Y-56015827D01*
X97853697Y-56015827D02*
X97758459Y-56063446D01*
X97758459Y-56063446D02*
X97710840Y-56111065D01*
X97710840Y-56111065D02*
X97663221Y-56206303D01*
X97663221Y-56206303D02*
X97663221Y-56444398D01*
X97663221Y-56444398D02*
X97710840Y-56539636D01*
X97710840Y-56539636D02*
X97758459Y-56587256D01*
X97758459Y-56587256D02*
X97853697Y-56634875D01*
X97853697Y-56634875D02*
X98139411Y-56634875D01*
X98139411Y-56634875D02*
X98234649Y-56587256D01*
X98234649Y-56587256D02*
X98282268Y-56539636D01*
X102091792Y-58244819D02*
X102425125Y-57768628D01*
X102663220Y-58244819D02*
X102663220Y-57244819D01*
X102663220Y-57244819D02*
X102282268Y-57244819D01*
X102282268Y-57244819D02*
X102187030Y-57292438D01*
X102187030Y-57292438D02*
X102139411Y-57340057D01*
X102139411Y-57340057D02*
X102091792Y-57435295D01*
X102091792Y-57435295D02*
X102091792Y-57578152D01*
X102091792Y-57578152D02*
X102139411Y-57673390D01*
X102139411Y-57673390D02*
X102187030Y-57721009D01*
X102187030Y-57721009D02*
X102282268Y-57768628D01*
X102282268Y-57768628D02*
X102663220Y-57768628D01*
X101806077Y-57244819D02*
X101472744Y-58244819D01*
X101472744Y-58244819D02*
X101139411Y-57244819D01*
X100282268Y-58244819D02*
X100853696Y-58244819D01*
X100567982Y-58244819D02*
X100567982Y-57244819D01*
X100567982Y-57244819D02*
X100663220Y-57387676D01*
X100663220Y-57387676D02*
X100758458Y-57482914D01*
X100758458Y-57482914D02*
X100853696Y-57530533D01*
X102139411Y-58902382D02*
X102234649Y-58854763D01*
X102234649Y-58854763D02*
X102377506Y-58854763D01*
X102377506Y-58854763D02*
X102520363Y-58902382D01*
X102520363Y-58902382D02*
X102615601Y-58997620D01*
X102615601Y-58997620D02*
X102663220Y-59092858D01*
X102663220Y-59092858D02*
X102710839Y-59283334D01*
X102710839Y-59283334D02*
X102710839Y-59426191D01*
X102710839Y-59426191D02*
X102663220Y-59616667D01*
X102663220Y-59616667D02*
X102615601Y-59711905D01*
X102615601Y-59711905D02*
X102520363Y-59807144D01*
X102520363Y-59807144D02*
X102377506Y-59854763D01*
X102377506Y-59854763D02*
X102282268Y-59854763D01*
X102282268Y-59854763D02*
X102139411Y-59807144D01*
X102139411Y-59807144D02*
X102091792Y-59759524D01*
X102091792Y-59759524D02*
X102091792Y-59426191D01*
X102091792Y-59426191D02*
X102282268Y-59426191D01*
X101663220Y-59854763D02*
X101663220Y-58854763D01*
X101663220Y-58854763D02*
X101282268Y-58854763D01*
X101282268Y-58854763D02*
X101187030Y-58902382D01*
X101187030Y-58902382D02*
X101139411Y-58950001D01*
X101139411Y-58950001D02*
X101091792Y-59045239D01*
X101091792Y-59045239D02*
X101091792Y-59188096D01*
X101091792Y-59188096D02*
X101139411Y-59283334D01*
X101139411Y-59283334D02*
X101187030Y-59330953D01*
X101187030Y-59330953D02*
X101282268Y-59378572D01*
X101282268Y-59378572D02*
X101663220Y-59378572D01*
X100663220Y-59854763D02*
X100663220Y-58854763D01*
X99996554Y-58854763D02*
X99806078Y-58854763D01*
X99806078Y-58854763D02*
X99710840Y-58902382D01*
X99710840Y-58902382D02*
X99615602Y-58997620D01*
X99615602Y-58997620D02*
X99567983Y-59188096D01*
X99567983Y-59188096D02*
X99567983Y-59521429D01*
X99567983Y-59521429D02*
X99615602Y-59711905D01*
X99615602Y-59711905D02*
X99710840Y-59807144D01*
X99710840Y-59807144D02*
X99806078Y-59854763D01*
X99806078Y-59854763D02*
X99996554Y-59854763D01*
X99996554Y-59854763D02*
X100091792Y-59807144D01*
X100091792Y-59807144D02*
X100187030Y-59711905D01*
X100187030Y-59711905D02*
X100234649Y-59521429D01*
X100234649Y-59521429D02*
X100234649Y-59188096D01*
X100234649Y-59188096D02*
X100187030Y-58997620D01*
X100187030Y-58997620D02*
X100091792Y-58902382D01*
X100091792Y-58902382D02*
X99996554Y-58854763D01*
X99234649Y-58854763D02*
X98615602Y-58854763D01*
X98615602Y-58854763D02*
X98948935Y-59235715D01*
X98948935Y-59235715D02*
X98806078Y-59235715D01*
X98806078Y-59235715D02*
X98710840Y-59283334D01*
X98710840Y-59283334D02*
X98663221Y-59330953D01*
X98663221Y-59330953D02*
X98615602Y-59426191D01*
X98615602Y-59426191D02*
X98615602Y-59664286D01*
X98615602Y-59664286D02*
X98663221Y-59759524D01*
X98663221Y-59759524D02*
X98710840Y-59807144D01*
X98710840Y-59807144D02*
X98806078Y-59854763D01*
X98806078Y-59854763D02*
X99091792Y-59854763D01*
X99091792Y-59854763D02*
X99187030Y-59807144D01*
X99187030Y-59807144D02*
X99234649Y-59759524D01*
X98139411Y-59854763D02*
X97948935Y-59854763D01*
X97948935Y-59854763D02*
X97853697Y-59807144D01*
X97853697Y-59807144D02*
X97806078Y-59759524D01*
X97806078Y-59759524D02*
X97710840Y-59616667D01*
X97710840Y-59616667D02*
X97663221Y-59426191D01*
X97663221Y-59426191D02*
X97663221Y-59045239D01*
X97663221Y-59045239D02*
X97710840Y-58950001D01*
X97710840Y-58950001D02*
X97758459Y-58902382D01*
X97758459Y-58902382D02*
X97853697Y-58854763D01*
X97853697Y-58854763D02*
X98044173Y-58854763D01*
X98044173Y-58854763D02*
X98139411Y-58902382D01*
X98139411Y-58902382D02*
X98187030Y-58950001D01*
X98187030Y-58950001D02*
X98234649Y-59045239D01*
X98234649Y-59045239D02*
X98234649Y-59283334D01*
X98234649Y-59283334D02*
X98187030Y-59378572D01*
X98187030Y-59378572D02*
X98139411Y-59426191D01*
X98139411Y-59426191D02*
X98044173Y-59473810D01*
X98044173Y-59473810D02*
X97853697Y-59473810D01*
X97853697Y-59473810D02*
X97758459Y-59426191D01*
X97758459Y-59426191D02*
X97710840Y-59378572D01*
X97710840Y-59378572D02*
X97663221Y-59283334D01*
X102139411Y-70522494D02*
X102234649Y-70474875D01*
X102234649Y-70474875D02*
X102377506Y-70474875D01*
X102377506Y-70474875D02*
X102520363Y-70522494D01*
X102520363Y-70522494D02*
X102615601Y-70617732D01*
X102615601Y-70617732D02*
X102663220Y-70712970D01*
X102663220Y-70712970D02*
X102710839Y-70903446D01*
X102710839Y-70903446D02*
X102710839Y-71046303D01*
X102710839Y-71046303D02*
X102663220Y-71236779D01*
X102663220Y-71236779D02*
X102615601Y-71332017D01*
X102615601Y-71332017D02*
X102520363Y-71427256D01*
X102520363Y-71427256D02*
X102377506Y-71474875D01*
X102377506Y-71474875D02*
X102282268Y-71474875D01*
X102282268Y-71474875D02*
X102139411Y-71427256D01*
X102139411Y-71427256D02*
X102091792Y-71379636D01*
X102091792Y-71379636D02*
X102091792Y-71046303D01*
X102091792Y-71046303D02*
X102282268Y-71046303D01*
X101663220Y-71474875D02*
X101663220Y-70474875D01*
X101663220Y-70474875D02*
X101282268Y-70474875D01*
X101282268Y-70474875D02*
X101187030Y-70522494D01*
X101187030Y-70522494D02*
X101139411Y-70570113D01*
X101139411Y-70570113D02*
X101091792Y-70665351D01*
X101091792Y-70665351D02*
X101091792Y-70808208D01*
X101091792Y-70808208D02*
X101139411Y-70903446D01*
X101139411Y-70903446D02*
X101187030Y-70951065D01*
X101187030Y-70951065D02*
X101282268Y-70998684D01*
X101282268Y-70998684D02*
X101663220Y-70998684D01*
X100663220Y-71474875D02*
X100663220Y-70474875D01*
X99996554Y-70474875D02*
X99806078Y-70474875D01*
X99806078Y-70474875D02*
X99710840Y-70522494D01*
X99710840Y-70522494D02*
X99615602Y-70617732D01*
X99615602Y-70617732D02*
X99567983Y-70808208D01*
X99567983Y-70808208D02*
X99567983Y-71141541D01*
X99567983Y-71141541D02*
X99615602Y-71332017D01*
X99615602Y-71332017D02*
X99710840Y-71427256D01*
X99710840Y-71427256D02*
X99806078Y-71474875D01*
X99806078Y-71474875D02*
X99996554Y-71474875D01*
X99996554Y-71474875D02*
X100091792Y-71427256D01*
X100091792Y-71427256D02*
X100187030Y-71332017D01*
X100187030Y-71332017D02*
X100234649Y-71141541D01*
X100234649Y-71141541D02*
X100234649Y-70808208D01*
X100234649Y-70808208D02*
X100187030Y-70617732D01*
X100187030Y-70617732D02*
X100091792Y-70522494D01*
X100091792Y-70522494D02*
X99996554Y-70474875D01*
X98615602Y-71474875D02*
X99187030Y-71474875D01*
X98901316Y-71474875D02*
X98901316Y-70474875D01*
X98901316Y-70474875D02*
X98996554Y-70617732D01*
X98996554Y-70617732D02*
X99091792Y-70712970D01*
X99091792Y-70712970D02*
X99187030Y-70760589D01*
X98234649Y-70570113D02*
X98187030Y-70522494D01*
X98187030Y-70522494D02*
X98091792Y-70474875D01*
X98091792Y-70474875D02*
X97853697Y-70474875D01*
X97853697Y-70474875D02*
X97758459Y-70522494D01*
X97758459Y-70522494D02*
X97710840Y-70570113D01*
X97710840Y-70570113D02*
X97663221Y-70665351D01*
X97663221Y-70665351D02*
X97663221Y-70760589D01*
X97663221Y-70760589D02*
X97710840Y-70903446D01*
X97710840Y-70903446D02*
X98282268Y-71474875D01*
X98282268Y-71474875D02*
X97663221Y-71474875D01*
X102091792Y-73084819D02*
X102425125Y-72608628D01*
X102663220Y-73084819D02*
X102663220Y-72084819D01*
X102663220Y-72084819D02*
X102282268Y-72084819D01*
X102282268Y-72084819D02*
X102187030Y-72132438D01*
X102187030Y-72132438D02*
X102139411Y-72180057D01*
X102139411Y-72180057D02*
X102091792Y-72275295D01*
X102091792Y-72275295D02*
X102091792Y-72418152D01*
X102091792Y-72418152D02*
X102139411Y-72513390D01*
X102139411Y-72513390D02*
X102187030Y-72561009D01*
X102187030Y-72561009D02*
X102282268Y-72608628D01*
X102282268Y-72608628D02*
X102663220Y-72608628D01*
X101806077Y-72084819D02*
X101472744Y-73084819D01*
X101472744Y-73084819D02*
X101139411Y-72084819D01*
X100853696Y-72180057D02*
X100806077Y-72132438D01*
X100806077Y-72132438D02*
X100710839Y-72084819D01*
X100710839Y-72084819D02*
X100472744Y-72084819D01*
X100472744Y-72084819D02*
X100377506Y-72132438D01*
X100377506Y-72132438D02*
X100329887Y-72180057D01*
X100329887Y-72180057D02*
X100282268Y-72275295D01*
X100282268Y-72275295D02*
X100282268Y-72370533D01*
X100282268Y-72370533D02*
X100329887Y-72513390D01*
X100329887Y-72513390D02*
X100901315Y-73084819D01*
X100901315Y-73084819D02*
X100282268Y-73084819D01*
X102139411Y-73742382D02*
X102234649Y-73694763D01*
X102234649Y-73694763D02*
X102377506Y-73694763D01*
X102377506Y-73694763D02*
X102520363Y-73742382D01*
X102520363Y-73742382D02*
X102615601Y-73837620D01*
X102615601Y-73837620D02*
X102663220Y-73932858D01*
X102663220Y-73932858D02*
X102710839Y-74123334D01*
X102710839Y-74123334D02*
X102710839Y-74266191D01*
X102710839Y-74266191D02*
X102663220Y-74456667D01*
X102663220Y-74456667D02*
X102615601Y-74551905D01*
X102615601Y-74551905D02*
X102520363Y-74647144D01*
X102520363Y-74647144D02*
X102377506Y-74694763D01*
X102377506Y-74694763D02*
X102282268Y-74694763D01*
X102282268Y-74694763D02*
X102139411Y-74647144D01*
X102139411Y-74647144D02*
X102091792Y-74599524D01*
X102091792Y-74599524D02*
X102091792Y-74266191D01*
X102091792Y-74266191D02*
X102282268Y-74266191D01*
X101663220Y-74694763D02*
X101663220Y-73694763D01*
X101663220Y-73694763D02*
X101282268Y-73694763D01*
X101282268Y-73694763D02*
X101187030Y-73742382D01*
X101187030Y-73742382D02*
X101139411Y-73790001D01*
X101139411Y-73790001D02*
X101091792Y-73885239D01*
X101091792Y-73885239D02*
X101091792Y-74028096D01*
X101091792Y-74028096D02*
X101139411Y-74123334D01*
X101139411Y-74123334D02*
X101187030Y-74170953D01*
X101187030Y-74170953D02*
X101282268Y-74218572D01*
X101282268Y-74218572D02*
X101663220Y-74218572D01*
X100663220Y-74694763D02*
X100663220Y-73694763D01*
X99996554Y-73694763D02*
X99806078Y-73694763D01*
X99806078Y-73694763D02*
X99710840Y-73742382D01*
X99710840Y-73742382D02*
X99615602Y-73837620D01*
X99615602Y-73837620D02*
X99567983Y-74028096D01*
X99567983Y-74028096D02*
X99567983Y-74361429D01*
X99567983Y-74361429D02*
X99615602Y-74551905D01*
X99615602Y-74551905D02*
X99710840Y-74647144D01*
X99710840Y-74647144D02*
X99806078Y-74694763D01*
X99806078Y-74694763D02*
X99996554Y-74694763D01*
X99996554Y-74694763D02*
X100091792Y-74647144D01*
X100091792Y-74647144D02*
X100187030Y-74551905D01*
X100187030Y-74551905D02*
X100234649Y-74361429D01*
X100234649Y-74361429D02*
X100234649Y-74028096D01*
X100234649Y-74028096D02*
X100187030Y-73837620D01*
X100187030Y-73837620D02*
X100091792Y-73742382D01*
X100091792Y-73742382D02*
X99996554Y-73694763D01*
X99234649Y-73694763D02*
X98615602Y-73694763D01*
X98615602Y-73694763D02*
X98948935Y-74075715D01*
X98948935Y-74075715D02*
X98806078Y-74075715D01*
X98806078Y-74075715D02*
X98710840Y-74123334D01*
X98710840Y-74123334D02*
X98663221Y-74170953D01*
X98663221Y-74170953D02*
X98615602Y-74266191D01*
X98615602Y-74266191D02*
X98615602Y-74504286D01*
X98615602Y-74504286D02*
X98663221Y-74599524D01*
X98663221Y-74599524D02*
X98710840Y-74647144D01*
X98710840Y-74647144D02*
X98806078Y-74694763D01*
X98806078Y-74694763D02*
X99091792Y-74694763D01*
X99091792Y-74694763D02*
X99187030Y-74647144D01*
X99187030Y-74647144D02*
X99234649Y-74599524D01*
X97758459Y-73694763D02*
X97948935Y-73694763D01*
X97948935Y-73694763D02*
X98044173Y-73742382D01*
X98044173Y-73742382D02*
X98091792Y-73790001D01*
X98091792Y-73790001D02*
X98187030Y-73932858D01*
X98187030Y-73932858D02*
X98234649Y-74123334D01*
X98234649Y-74123334D02*
X98234649Y-74504286D01*
X98234649Y-74504286D02*
X98187030Y-74599524D01*
X98187030Y-74599524D02*
X98139411Y-74647144D01*
X98139411Y-74647144D02*
X98044173Y-74694763D01*
X98044173Y-74694763D02*
X97853697Y-74694763D01*
X97853697Y-74694763D02*
X97758459Y-74647144D01*
X97758459Y-74647144D02*
X97710840Y-74599524D01*
X97710840Y-74599524D02*
X97663221Y-74504286D01*
X97663221Y-74504286D02*
X97663221Y-74266191D01*
X97663221Y-74266191D02*
X97710840Y-74170953D01*
X97710840Y-74170953D02*
X97758459Y-74123334D01*
X97758459Y-74123334D02*
X97853697Y-74075715D01*
X97853697Y-74075715D02*
X98044173Y-74075715D01*
X98044173Y-74075715D02*
X98139411Y-74123334D01*
X98139411Y-74123334D02*
X98187030Y-74170953D01*
X98187030Y-74170953D02*
X98234649Y-74266191D01*
D12*
%TO.C,JP1*%
X115100000Y-74030000D02*
X115100000Y-71230000D01*
X115800000Y-70580000D02*
X116400000Y-70580000D01*
X116400000Y-74680000D02*
X115800000Y-74680000D01*
X117100000Y-71230000D02*
X117100000Y-74030000D01*
X117600000Y-71130000D02*
X117300000Y-71430000D01*
X117600000Y-71730000D02*
X117300000Y-71430000D01*
X117600000Y-71730000D02*
X117600000Y-71130000D01*
X115100000Y-71280000D02*
G75*
G02*
X115800000Y-70580000I699999J1D01*
G01*
X115800000Y-74680000D02*
G75*
G02*
X115100000Y-73980000I0J700000D01*
G01*
X116400000Y-70580000D02*
G75*
G02*
X117100000Y-71280000I1J-699999D01*
G01*
X117100000Y-73980000D02*
G75*
G02*
X116400000Y-74680000I-700000J0D01*
G01*
%TO.C,JP2*%
X115100000Y-59190000D02*
X115100000Y-56390000D01*
X115800000Y-55740000D02*
X116400000Y-55740000D01*
X116400000Y-59840000D02*
X115800000Y-59840000D01*
X117100000Y-56390000D02*
X117100000Y-59190000D01*
X117600000Y-56290000D02*
X117300000Y-56590000D01*
X117600000Y-56890000D02*
X117300000Y-56590000D01*
X117600000Y-56890000D02*
X117600000Y-56290000D01*
X115100000Y-56440000D02*
G75*
G02*
X115800000Y-55740000I699999J1D01*
G01*
X115800000Y-59840000D02*
G75*
G02*
X115100000Y-59140000I0J700000D01*
G01*
X116400000Y-55740000D02*
G75*
G02*
X117100000Y-56440000I1J-699999D01*
G01*
X117100000Y-59140000D02*
G75*
G02*
X116400000Y-59840000I-700000J0D01*
G01*
%TD*%
D13*
%TO.C,J8*%
X62497200Y-110498080D03*
X62499740Y-103000000D03*
X62497200Y-95501920D03*
X64999100Y-107996180D03*
X64999100Y-98003820D03*
%TD*%
%TO.C,J9*%
X62497200Y-90498080D03*
X62499740Y-83000000D03*
X62497200Y-75501920D03*
X64999100Y-87996180D03*
X64999100Y-78003820D03*
%TD*%
M02*
