%TF.GenerationSoftware,KiCad,Pcbnew,7.0.9*%
%TF.CreationDate,2024-05-31T08:48:14+01:00*%
%TF.ProjectId,PicoMIDIPackSingle,5069636f-4d49-4444-9950-61636b53696e,rev?*%
%TF.SameCoordinates,Original*%
%TF.FileFunction,Legend,Bot*%
%TF.FilePolarity,Positive*%
%FSLAX46Y46*%
G04 Gerber Fmt 4.6, Leading zero omitted, Abs format (unit mm)*
G04 Created by KiCad (PCBNEW 7.0.9) date 2024-05-31 08:48:14*
%MOMM*%
%LPD*%
G01*
G04 APERTURE LIST*
%ADD10C,0.150000*%
%ADD11C,0.100000*%
%ADD12C,0.120000*%
%ADD13C,2.499360*%
G04 APERTURE END LIST*
D10*
X45920000Y-74140000D02*
X54210000Y-74140000D01*
X54210000Y-80950000D01*
X45920000Y-80950000D01*
X45920000Y-74140000D01*
D11*
X51491713Y-122832895D02*
X51758380Y-122451942D01*
X51948856Y-122832895D02*
X51948856Y-122032895D01*
X51948856Y-122032895D02*
X51644094Y-122032895D01*
X51644094Y-122032895D02*
X51567904Y-122070990D01*
X51567904Y-122070990D02*
X51529809Y-122109085D01*
X51529809Y-122109085D02*
X51491713Y-122185276D01*
X51491713Y-122185276D02*
X51491713Y-122299561D01*
X51491713Y-122299561D02*
X51529809Y-122375752D01*
X51529809Y-122375752D02*
X51567904Y-122413847D01*
X51567904Y-122413847D02*
X51644094Y-122451942D01*
X51644094Y-122451942D02*
X51948856Y-122451942D01*
X51148856Y-122832895D02*
X51148856Y-122032895D01*
X51148856Y-122032895D02*
X50844094Y-122032895D01*
X50844094Y-122032895D02*
X50767904Y-122070990D01*
X50767904Y-122070990D02*
X50729809Y-122109085D01*
X50729809Y-122109085D02*
X50691713Y-122185276D01*
X50691713Y-122185276D02*
X50691713Y-122299561D01*
X50691713Y-122299561D02*
X50729809Y-122375752D01*
X50729809Y-122375752D02*
X50767904Y-122413847D01*
X50767904Y-122413847D02*
X50844094Y-122451942D01*
X50844094Y-122451942D02*
X51148856Y-122451942D01*
X50348856Y-122832895D02*
X50348856Y-122299561D01*
X50348856Y-122032895D02*
X50386952Y-122070990D01*
X50386952Y-122070990D02*
X50348856Y-122109085D01*
X50348856Y-122109085D02*
X50310761Y-122070990D01*
X50310761Y-122070990D02*
X50348856Y-122032895D01*
X50348856Y-122032895D02*
X50348856Y-122109085D01*
X49358380Y-122832895D02*
X49358380Y-122032895D01*
X49358380Y-122032895D02*
X49053618Y-122032895D01*
X49053618Y-122032895D02*
X48977428Y-122070990D01*
X48977428Y-122070990D02*
X48939333Y-122109085D01*
X48939333Y-122109085D02*
X48901237Y-122185276D01*
X48901237Y-122185276D02*
X48901237Y-122299561D01*
X48901237Y-122299561D02*
X48939333Y-122375752D01*
X48939333Y-122375752D02*
X48977428Y-122413847D01*
X48977428Y-122413847D02*
X49053618Y-122451942D01*
X49053618Y-122451942D02*
X49358380Y-122451942D01*
X48558380Y-122832895D02*
X48558380Y-122299561D01*
X48558380Y-122032895D02*
X48596476Y-122070990D01*
X48596476Y-122070990D02*
X48558380Y-122109085D01*
X48558380Y-122109085D02*
X48520285Y-122070990D01*
X48520285Y-122070990D02*
X48558380Y-122032895D01*
X48558380Y-122032895D02*
X48558380Y-122109085D01*
X47834571Y-122794800D02*
X47910762Y-122832895D01*
X47910762Y-122832895D02*
X48063143Y-122832895D01*
X48063143Y-122832895D02*
X48139333Y-122794800D01*
X48139333Y-122794800D02*
X48177428Y-122756704D01*
X48177428Y-122756704D02*
X48215524Y-122680514D01*
X48215524Y-122680514D02*
X48215524Y-122451942D01*
X48215524Y-122451942D02*
X48177428Y-122375752D01*
X48177428Y-122375752D02*
X48139333Y-122337657D01*
X48139333Y-122337657D02*
X48063143Y-122299561D01*
X48063143Y-122299561D02*
X47910762Y-122299561D01*
X47910762Y-122299561D02*
X47834571Y-122337657D01*
X47377429Y-122832895D02*
X47453619Y-122794800D01*
X47453619Y-122794800D02*
X47491714Y-122756704D01*
X47491714Y-122756704D02*
X47529810Y-122680514D01*
X47529810Y-122680514D02*
X47529810Y-122451942D01*
X47529810Y-122451942D02*
X47491714Y-122375752D01*
X47491714Y-122375752D02*
X47453619Y-122337657D01*
X47453619Y-122337657D02*
X47377429Y-122299561D01*
X47377429Y-122299561D02*
X47263143Y-122299561D01*
X47263143Y-122299561D02*
X47186952Y-122337657D01*
X47186952Y-122337657D02*
X47148857Y-122375752D01*
X47148857Y-122375752D02*
X47110762Y-122451942D01*
X47110762Y-122451942D02*
X47110762Y-122680514D01*
X47110762Y-122680514D02*
X47148857Y-122756704D01*
X47148857Y-122756704D02*
X47186952Y-122794800D01*
X47186952Y-122794800D02*
X47263143Y-122832895D01*
X47263143Y-122832895D02*
X47377429Y-122832895D01*
X46158380Y-122832895D02*
X46158380Y-122032895D01*
X46158380Y-122032895D02*
X45891714Y-122604323D01*
X45891714Y-122604323D02*
X45625047Y-122032895D01*
X45625047Y-122032895D02*
X45625047Y-122832895D01*
X45244094Y-122832895D02*
X45244094Y-122032895D01*
X44863142Y-122832895D02*
X44863142Y-122032895D01*
X44863142Y-122032895D02*
X44672666Y-122032895D01*
X44672666Y-122032895D02*
X44558380Y-122070990D01*
X44558380Y-122070990D02*
X44482190Y-122147180D01*
X44482190Y-122147180D02*
X44444095Y-122223371D01*
X44444095Y-122223371D02*
X44405999Y-122375752D01*
X44405999Y-122375752D02*
X44405999Y-122490038D01*
X44405999Y-122490038D02*
X44444095Y-122642419D01*
X44444095Y-122642419D02*
X44482190Y-122718609D01*
X44482190Y-122718609D02*
X44558380Y-122794800D01*
X44558380Y-122794800D02*
X44672666Y-122832895D01*
X44672666Y-122832895D02*
X44863142Y-122832895D01*
X44063142Y-122832895D02*
X44063142Y-122032895D01*
X50977429Y-123587561D02*
X50786953Y-124120895D01*
X50786953Y-124120895D02*
X50596476Y-123587561D01*
X50139333Y-123320895D02*
X50063143Y-123320895D01*
X50063143Y-123320895D02*
X49986952Y-123358990D01*
X49986952Y-123358990D02*
X49948857Y-123397085D01*
X49948857Y-123397085D02*
X49910762Y-123473276D01*
X49910762Y-123473276D02*
X49872667Y-123625657D01*
X49872667Y-123625657D02*
X49872667Y-123816133D01*
X49872667Y-123816133D02*
X49910762Y-123968514D01*
X49910762Y-123968514D02*
X49948857Y-124044704D01*
X49948857Y-124044704D02*
X49986952Y-124082800D01*
X49986952Y-124082800D02*
X50063143Y-124120895D01*
X50063143Y-124120895D02*
X50139333Y-124120895D01*
X50139333Y-124120895D02*
X50215524Y-124082800D01*
X50215524Y-124082800D02*
X50253619Y-124044704D01*
X50253619Y-124044704D02*
X50291714Y-123968514D01*
X50291714Y-123968514D02*
X50329810Y-123816133D01*
X50329810Y-123816133D02*
X50329810Y-123625657D01*
X50329810Y-123625657D02*
X50291714Y-123473276D01*
X50291714Y-123473276D02*
X50253619Y-123397085D01*
X50253619Y-123397085D02*
X50215524Y-123358990D01*
X50215524Y-123358990D02*
X50139333Y-123320895D01*
X49529809Y-124044704D02*
X49491714Y-124082800D01*
X49491714Y-124082800D02*
X49529809Y-124120895D01*
X49529809Y-124120895D02*
X49567905Y-124082800D01*
X49567905Y-124082800D02*
X49529809Y-124044704D01*
X49529809Y-124044704D02*
X49529809Y-124120895D01*
X48729810Y-124120895D02*
X49186953Y-124120895D01*
X48958381Y-124120895D02*
X48958381Y-123320895D01*
X48958381Y-123320895D02*
X49034572Y-123435180D01*
X49034572Y-123435180D02*
X49110762Y-123511371D01*
X49110762Y-123511371D02*
X49186953Y-123549466D01*
X47815524Y-123397085D02*
X47777428Y-123358990D01*
X47777428Y-123358990D02*
X47701238Y-123320895D01*
X47701238Y-123320895D02*
X47510762Y-123320895D01*
X47510762Y-123320895D02*
X47434571Y-123358990D01*
X47434571Y-123358990D02*
X47396476Y-123397085D01*
X47396476Y-123397085D02*
X47358381Y-123473276D01*
X47358381Y-123473276D02*
X47358381Y-123549466D01*
X47358381Y-123549466D02*
X47396476Y-123663752D01*
X47396476Y-123663752D02*
X47853619Y-124120895D01*
X47853619Y-124120895D02*
X47358381Y-124120895D01*
X46863142Y-123320895D02*
X46786952Y-123320895D01*
X46786952Y-123320895D02*
X46710761Y-123358990D01*
X46710761Y-123358990D02*
X46672666Y-123397085D01*
X46672666Y-123397085D02*
X46634571Y-123473276D01*
X46634571Y-123473276D02*
X46596476Y-123625657D01*
X46596476Y-123625657D02*
X46596476Y-123816133D01*
X46596476Y-123816133D02*
X46634571Y-123968514D01*
X46634571Y-123968514D02*
X46672666Y-124044704D01*
X46672666Y-124044704D02*
X46710761Y-124082800D01*
X46710761Y-124082800D02*
X46786952Y-124120895D01*
X46786952Y-124120895D02*
X46863142Y-124120895D01*
X46863142Y-124120895D02*
X46939333Y-124082800D01*
X46939333Y-124082800D02*
X46977428Y-124044704D01*
X46977428Y-124044704D02*
X47015523Y-123968514D01*
X47015523Y-123968514D02*
X47053619Y-123816133D01*
X47053619Y-123816133D02*
X47053619Y-123625657D01*
X47053619Y-123625657D02*
X47015523Y-123473276D01*
X47015523Y-123473276D02*
X46977428Y-123397085D01*
X46977428Y-123397085D02*
X46939333Y-123358990D01*
X46939333Y-123358990D02*
X46863142Y-123320895D01*
X46291714Y-123397085D02*
X46253618Y-123358990D01*
X46253618Y-123358990D02*
X46177428Y-123320895D01*
X46177428Y-123320895D02*
X45986952Y-123320895D01*
X45986952Y-123320895D02*
X45910761Y-123358990D01*
X45910761Y-123358990D02*
X45872666Y-123397085D01*
X45872666Y-123397085D02*
X45834571Y-123473276D01*
X45834571Y-123473276D02*
X45834571Y-123549466D01*
X45834571Y-123549466D02*
X45872666Y-123663752D01*
X45872666Y-123663752D02*
X46329809Y-124120895D01*
X46329809Y-124120895D02*
X45834571Y-124120895D01*
X45148856Y-123587561D02*
X45148856Y-124120895D01*
X45339332Y-123282800D02*
X45529809Y-123854228D01*
X45529809Y-123854228D02*
X45034570Y-123854228D01*
X52158380Y-125408895D02*
X52158380Y-124608895D01*
X52158380Y-125370800D02*
X52234571Y-125408895D01*
X52234571Y-125408895D02*
X52386952Y-125408895D01*
X52386952Y-125408895D02*
X52463142Y-125370800D01*
X52463142Y-125370800D02*
X52501237Y-125332704D01*
X52501237Y-125332704D02*
X52539333Y-125256514D01*
X52539333Y-125256514D02*
X52539333Y-125027942D01*
X52539333Y-125027942D02*
X52501237Y-124951752D01*
X52501237Y-124951752D02*
X52463142Y-124913657D01*
X52463142Y-124913657D02*
X52386952Y-124875561D01*
X52386952Y-124875561D02*
X52234571Y-124875561D01*
X52234571Y-124875561D02*
X52158380Y-124913657D01*
X51777427Y-125408895D02*
X51777427Y-124875561D01*
X51777427Y-124608895D02*
X51815523Y-124646990D01*
X51815523Y-124646990D02*
X51777427Y-124685085D01*
X51777427Y-124685085D02*
X51739332Y-124646990D01*
X51739332Y-124646990D02*
X51777427Y-124608895D01*
X51777427Y-124608895D02*
X51777427Y-124685085D01*
X51472666Y-124875561D02*
X51282190Y-125408895D01*
X51091713Y-124875561D02*
X51282190Y-125408895D01*
X51282190Y-125408895D02*
X51358380Y-125599371D01*
X51358380Y-125599371D02*
X51396475Y-125637466D01*
X51396475Y-125637466D02*
X51472666Y-125675561D01*
X50482189Y-125370800D02*
X50558380Y-125408895D01*
X50558380Y-125408895D02*
X50710761Y-125408895D01*
X50710761Y-125408895D02*
X50786951Y-125370800D01*
X50786951Y-125370800D02*
X50825047Y-125294609D01*
X50825047Y-125294609D02*
X50825047Y-124989847D01*
X50825047Y-124989847D02*
X50786951Y-124913657D01*
X50786951Y-124913657D02*
X50710761Y-124875561D01*
X50710761Y-124875561D02*
X50558380Y-124875561D01*
X50558380Y-124875561D02*
X50482189Y-124913657D01*
X50482189Y-124913657D02*
X50444094Y-124989847D01*
X50444094Y-124989847D02*
X50444094Y-125066038D01*
X50444094Y-125066038D02*
X50825047Y-125142228D01*
X49986952Y-125408895D02*
X50063142Y-125370800D01*
X50063142Y-125370800D02*
X50101237Y-125294609D01*
X50101237Y-125294609D02*
X50101237Y-124608895D01*
X49377427Y-125370800D02*
X49453618Y-125408895D01*
X49453618Y-125408895D02*
X49605999Y-125408895D01*
X49605999Y-125408895D02*
X49682189Y-125370800D01*
X49682189Y-125370800D02*
X49720285Y-125294609D01*
X49720285Y-125294609D02*
X49720285Y-124989847D01*
X49720285Y-124989847D02*
X49682189Y-124913657D01*
X49682189Y-124913657D02*
X49605999Y-124875561D01*
X49605999Y-124875561D02*
X49453618Y-124875561D01*
X49453618Y-124875561D02*
X49377427Y-124913657D01*
X49377427Y-124913657D02*
X49339332Y-124989847D01*
X49339332Y-124989847D02*
X49339332Y-125066038D01*
X49339332Y-125066038D02*
X49720285Y-125142228D01*
X48653618Y-125370800D02*
X48729809Y-125408895D01*
X48729809Y-125408895D02*
X48882190Y-125408895D01*
X48882190Y-125408895D02*
X48958380Y-125370800D01*
X48958380Y-125370800D02*
X48996475Y-125332704D01*
X48996475Y-125332704D02*
X49034571Y-125256514D01*
X49034571Y-125256514D02*
X49034571Y-125027942D01*
X49034571Y-125027942D02*
X48996475Y-124951752D01*
X48996475Y-124951752D02*
X48958380Y-124913657D01*
X48958380Y-124913657D02*
X48882190Y-124875561D01*
X48882190Y-124875561D02*
X48729809Y-124875561D01*
X48729809Y-124875561D02*
X48653618Y-124913657D01*
X48425047Y-124875561D02*
X48120285Y-124875561D01*
X48310761Y-124608895D02*
X48310761Y-125294609D01*
X48310761Y-125294609D02*
X48272666Y-125370800D01*
X48272666Y-125370800D02*
X48196476Y-125408895D01*
X48196476Y-125408895D02*
X48120285Y-125408895D01*
X47853618Y-125408895D02*
X47853618Y-124875561D01*
X47853618Y-125027942D02*
X47815523Y-124951752D01*
X47815523Y-124951752D02*
X47777428Y-124913657D01*
X47777428Y-124913657D02*
X47701237Y-124875561D01*
X47701237Y-124875561D02*
X47625047Y-124875561D01*
X47244095Y-125408895D02*
X47320285Y-125370800D01*
X47320285Y-125370800D02*
X47358380Y-125332704D01*
X47358380Y-125332704D02*
X47396476Y-125256514D01*
X47396476Y-125256514D02*
X47396476Y-125027942D01*
X47396476Y-125027942D02*
X47358380Y-124951752D01*
X47358380Y-124951752D02*
X47320285Y-124913657D01*
X47320285Y-124913657D02*
X47244095Y-124875561D01*
X47244095Y-124875561D02*
X47129809Y-124875561D01*
X47129809Y-124875561D02*
X47053618Y-124913657D01*
X47053618Y-124913657D02*
X47015523Y-124951752D01*
X47015523Y-124951752D02*
X46977428Y-125027942D01*
X46977428Y-125027942D02*
X46977428Y-125256514D01*
X46977428Y-125256514D02*
X47015523Y-125332704D01*
X47015523Y-125332704D02*
X47053618Y-125370800D01*
X47053618Y-125370800D02*
X47129809Y-125408895D01*
X47129809Y-125408895D02*
X47244095Y-125408895D01*
X46634570Y-125408895D02*
X46634570Y-124875561D01*
X46634570Y-124951752D02*
X46596475Y-124913657D01*
X46596475Y-124913657D02*
X46520285Y-124875561D01*
X46520285Y-124875561D02*
X46405999Y-124875561D01*
X46405999Y-124875561D02*
X46329808Y-124913657D01*
X46329808Y-124913657D02*
X46291713Y-124989847D01*
X46291713Y-124989847D02*
X46291713Y-125408895D01*
X46291713Y-124989847D02*
X46253618Y-124913657D01*
X46253618Y-124913657D02*
X46177427Y-124875561D01*
X46177427Y-124875561D02*
X46063142Y-124875561D01*
X46063142Y-124875561D02*
X45986951Y-124913657D01*
X45986951Y-124913657D02*
X45948856Y-124989847D01*
X45948856Y-124989847D02*
X45948856Y-125408895D01*
X45225046Y-124875561D02*
X45225046Y-125408895D01*
X45567903Y-124875561D02*
X45567903Y-125294609D01*
X45567903Y-125294609D02*
X45529808Y-125370800D01*
X45529808Y-125370800D02*
X45453618Y-125408895D01*
X45453618Y-125408895D02*
X45339332Y-125408895D01*
X45339332Y-125408895D02*
X45263141Y-125370800D01*
X45263141Y-125370800D02*
X45225046Y-125332704D01*
X44882189Y-125370800D02*
X44805998Y-125408895D01*
X44805998Y-125408895D02*
X44653617Y-125408895D01*
X44653617Y-125408895D02*
X44577427Y-125370800D01*
X44577427Y-125370800D02*
X44539331Y-125294609D01*
X44539331Y-125294609D02*
X44539331Y-125256514D01*
X44539331Y-125256514D02*
X44577427Y-125180323D01*
X44577427Y-125180323D02*
X44653617Y-125142228D01*
X44653617Y-125142228D02*
X44767903Y-125142228D01*
X44767903Y-125142228D02*
X44844093Y-125104133D01*
X44844093Y-125104133D02*
X44882189Y-125027942D01*
X44882189Y-125027942D02*
X44882189Y-124989847D01*
X44882189Y-124989847D02*
X44844093Y-124913657D01*
X44844093Y-124913657D02*
X44767903Y-124875561D01*
X44767903Y-124875561D02*
X44653617Y-124875561D01*
X44653617Y-124875561D02*
X44577427Y-124913657D01*
X44196474Y-125408895D02*
X44196474Y-124875561D01*
X44196474Y-124608895D02*
X44234570Y-124646990D01*
X44234570Y-124646990D02*
X44196474Y-124685085D01*
X44196474Y-124685085D02*
X44158379Y-124646990D01*
X44158379Y-124646990D02*
X44196474Y-124608895D01*
X44196474Y-124608895D02*
X44196474Y-124685085D01*
X43472665Y-125370800D02*
X43548856Y-125408895D01*
X43548856Y-125408895D02*
X43701237Y-125408895D01*
X43701237Y-125408895D02*
X43777427Y-125370800D01*
X43777427Y-125370800D02*
X43815522Y-125332704D01*
X43815522Y-125332704D02*
X43853618Y-125256514D01*
X43853618Y-125256514D02*
X43853618Y-125027942D01*
X43853618Y-125027942D02*
X43815522Y-124951752D01*
X43815522Y-124951752D02*
X43777427Y-124913657D01*
X43777427Y-124913657D02*
X43701237Y-124875561D01*
X43701237Y-124875561D02*
X43548856Y-124875561D01*
X43548856Y-124875561D02*
X43472665Y-124913657D01*
X46925009Y-86260877D02*
X46963104Y-86327544D01*
X46963104Y-86327544D02*
X46963104Y-86427544D01*
X46963104Y-86427544D02*
X46925009Y-86527544D01*
X46925009Y-86527544D02*
X46848819Y-86594211D01*
X46848819Y-86594211D02*
X46772628Y-86627544D01*
X46772628Y-86627544D02*
X46620247Y-86660877D01*
X46620247Y-86660877D02*
X46505961Y-86660877D01*
X46505961Y-86660877D02*
X46353580Y-86627544D01*
X46353580Y-86627544D02*
X46277390Y-86594211D01*
X46277390Y-86594211D02*
X46201200Y-86527544D01*
X46201200Y-86527544D02*
X46163104Y-86427544D01*
X46163104Y-86427544D02*
X46163104Y-86360877D01*
X46163104Y-86360877D02*
X46201200Y-86260877D01*
X46201200Y-86260877D02*
X46239295Y-86227544D01*
X46239295Y-86227544D02*
X46505961Y-86227544D01*
X46505961Y-86227544D02*
X46505961Y-86360877D01*
X46163104Y-85927544D02*
X46963104Y-85927544D01*
X46963104Y-85927544D02*
X46963104Y-85660877D01*
X46963104Y-85660877D02*
X46925009Y-85594211D01*
X46925009Y-85594211D02*
X46886914Y-85560877D01*
X46886914Y-85560877D02*
X46810723Y-85527544D01*
X46810723Y-85527544D02*
X46696438Y-85527544D01*
X46696438Y-85527544D02*
X46620247Y-85560877D01*
X46620247Y-85560877D02*
X46582152Y-85594211D01*
X46582152Y-85594211D02*
X46544057Y-85660877D01*
X46544057Y-85660877D02*
X46544057Y-85927544D01*
X46963104Y-85094211D02*
X46963104Y-85027544D01*
X46963104Y-85027544D02*
X46925009Y-84960877D01*
X46925009Y-84960877D02*
X46886914Y-84927544D01*
X46886914Y-84927544D02*
X46810723Y-84894211D01*
X46810723Y-84894211D02*
X46658342Y-84860877D01*
X46658342Y-84860877D02*
X46467866Y-84860877D01*
X46467866Y-84860877D02*
X46315485Y-84894211D01*
X46315485Y-84894211D02*
X46239295Y-84927544D01*
X46239295Y-84927544D02*
X46201200Y-84960877D01*
X46201200Y-84960877D02*
X46163104Y-85027544D01*
X46163104Y-85027544D02*
X46163104Y-85094211D01*
X46163104Y-85094211D02*
X46201200Y-85160877D01*
X46201200Y-85160877D02*
X46239295Y-85194211D01*
X46239295Y-85194211D02*
X46315485Y-85227544D01*
X46315485Y-85227544D02*
X46467866Y-85260877D01*
X46467866Y-85260877D02*
X46658342Y-85260877D01*
X46658342Y-85260877D02*
X46810723Y-85227544D01*
X46810723Y-85227544D02*
X46886914Y-85194211D01*
X46886914Y-85194211D02*
X46925009Y-85160877D01*
X46925009Y-85160877D02*
X46963104Y-85094211D01*
X45675104Y-86727544D02*
X45675104Y-86327544D01*
X44875104Y-86527544D02*
X45675104Y-86527544D01*
X45675104Y-86160878D02*
X44875104Y-85694211D01*
X45675104Y-85694211D02*
X44875104Y-86160878D01*
X44349009Y-86260877D02*
X44387104Y-86327544D01*
X44387104Y-86327544D02*
X44387104Y-86427544D01*
X44387104Y-86427544D02*
X44349009Y-86527544D01*
X44349009Y-86527544D02*
X44272819Y-86594211D01*
X44272819Y-86594211D02*
X44196628Y-86627544D01*
X44196628Y-86627544D02*
X44044247Y-86660877D01*
X44044247Y-86660877D02*
X43929961Y-86660877D01*
X43929961Y-86660877D02*
X43777580Y-86627544D01*
X43777580Y-86627544D02*
X43701390Y-86594211D01*
X43701390Y-86594211D02*
X43625200Y-86527544D01*
X43625200Y-86527544D02*
X43587104Y-86427544D01*
X43587104Y-86427544D02*
X43587104Y-86360877D01*
X43587104Y-86360877D02*
X43625200Y-86260877D01*
X43625200Y-86260877D02*
X43663295Y-86227544D01*
X43663295Y-86227544D02*
X43929961Y-86227544D01*
X43929961Y-86227544D02*
X43929961Y-86360877D01*
X43587104Y-85927544D02*
X44387104Y-85927544D01*
X44387104Y-85927544D02*
X44387104Y-85660877D01*
X44387104Y-85660877D02*
X44349009Y-85594211D01*
X44349009Y-85594211D02*
X44310914Y-85560877D01*
X44310914Y-85560877D02*
X44234723Y-85527544D01*
X44234723Y-85527544D02*
X44120438Y-85527544D01*
X44120438Y-85527544D02*
X44044247Y-85560877D01*
X44044247Y-85560877D02*
X44006152Y-85594211D01*
X44006152Y-85594211D02*
X43968057Y-85660877D01*
X43968057Y-85660877D02*
X43968057Y-85927544D01*
X44120438Y-84927544D02*
X43587104Y-84927544D01*
X44425200Y-85094211D02*
X43853771Y-85260877D01*
X43853771Y-85260877D02*
X43853771Y-84827544D01*
X51505009Y-86260877D02*
X51543104Y-86327544D01*
X51543104Y-86327544D02*
X51543104Y-86427544D01*
X51543104Y-86427544D02*
X51505009Y-86527544D01*
X51505009Y-86527544D02*
X51428819Y-86594211D01*
X51428819Y-86594211D02*
X51352628Y-86627544D01*
X51352628Y-86627544D02*
X51200247Y-86660877D01*
X51200247Y-86660877D02*
X51085961Y-86660877D01*
X51085961Y-86660877D02*
X50933580Y-86627544D01*
X50933580Y-86627544D02*
X50857390Y-86594211D01*
X50857390Y-86594211D02*
X50781200Y-86527544D01*
X50781200Y-86527544D02*
X50743104Y-86427544D01*
X50743104Y-86427544D02*
X50743104Y-86360877D01*
X50743104Y-86360877D02*
X50781200Y-86260877D01*
X50781200Y-86260877D02*
X50819295Y-86227544D01*
X50819295Y-86227544D02*
X51085961Y-86227544D01*
X51085961Y-86227544D02*
X51085961Y-86360877D01*
X50743104Y-85927544D02*
X51543104Y-85927544D01*
X51543104Y-85927544D02*
X51543104Y-85660877D01*
X51543104Y-85660877D02*
X51505009Y-85594211D01*
X51505009Y-85594211D02*
X51466914Y-85560877D01*
X51466914Y-85560877D02*
X51390723Y-85527544D01*
X51390723Y-85527544D02*
X51276438Y-85527544D01*
X51276438Y-85527544D02*
X51200247Y-85560877D01*
X51200247Y-85560877D02*
X51162152Y-85594211D01*
X51162152Y-85594211D02*
X51124057Y-85660877D01*
X51124057Y-85660877D02*
X51124057Y-85927544D01*
X50743104Y-84860877D02*
X50743104Y-85260877D01*
X50743104Y-85060877D02*
X51543104Y-85060877D01*
X51543104Y-85060877D02*
X51428819Y-85127544D01*
X51428819Y-85127544D02*
X51352628Y-85194211D01*
X51352628Y-85194211D02*
X51314533Y-85260877D01*
X49455104Y-86227544D02*
X49836057Y-86460877D01*
X49455104Y-86627544D02*
X50255104Y-86627544D01*
X50255104Y-86627544D02*
X50255104Y-86360877D01*
X50255104Y-86360877D02*
X50217009Y-86294211D01*
X50217009Y-86294211D02*
X50178914Y-86260877D01*
X50178914Y-86260877D02*
X50102723Y-86227544D01*
X50102723Y-86227544D02*
X49988438Y-86227544D01*
X49988438Y-86227544D02*
X49912247Y-86260877D01*
X49912247Y-86260877D02*
X49874152Y-86294211D01*
X49874152Y-86294211D02*
X49836057Y-86360877D01*
X49836057Y-86360877D02*
X49836057Y-86627544D01*
X50255104Y-85994211D02*
X49455104Y-85527544D01*
X50255104Y-85527544D02*
X49455104Y-85994211D01*
X48929009Y-86260877D02*
X48967104Y-86327544D01*
X48967104Y-86327544D02*
X48967104Y-86427544D01*
X48967104Y-86427544D02*
X48929009Y-86527544D01*
X48929009Y-86527544D02*
X48852819Y-86594211D01*
X48852819Y-86594211D02*
X48776628Y-86627544D01*
X48776628Y-86627544D02*
X48624247Y-86660877D01*
X48624247Y-86660877D02*
X48509961Y-86660877D01*
X48509961Y-86660877D02*
X48357580Y-86627544D01*
X48357580Y-86627544D02*
X48281390Y-86594211D01*
X48281390Y-86594211D02*
X48205200Y-86527544D01*
X48205200Y-86527544D02*
X48167104Y-86427544D01*
X48167104Y-86427544D02*
X48167104Y-86360877D01*
X48167104Y-86360877D02*
X48205200Y-86260877D01*
X48205200Y-86260877D02*
X48243295Y-86227544D01*
X48243295Y-86227544D02*
X48509961Y-86227544D01*
X48509961Y-86227544D02*
X48509961Y-86360877D01*
X48167104Y-85927544D02*
X48967104Y-85927544D01*
X48967104Y-85927544D02*
X48967104Y-85660877D01*
X48967104Y-85660877D02*
X48929009Y-85594211D01*
X48929009Y-85594211D02*
X48890914Y-85560877D01*
X48890914Y-85560877D02*
X48814723Y-85527544D01*
X48814723Y-85527544D02*
X48700438Y-85527544D01*
X48700438Y-85527544D02*
X48624247Y-85560877D01*
X48624247Y-85560877D02*
X48586152Y-85594211D01*
X48586152Y-85594211D02*
X48548057Y-85660877D01*
X48548057Y-85660877D02*
X48548057Y-85927544D01*
X48967104Y-84894211D02*
X48967104Y-85227544D01*
X48967104Y-85227544D02*
X48586152Y-85260877D01*
X48586152Y-85260877D02*
X48624247Y-85227544D01*
X48624247Y-85227544D02*
X48662342Y-85160877D01*
X48662342Y-85160877D02*
X48662342Y-84994211D01*
X48662342Y-84994211D02*
X48624247Y-84927544D01*
X48624247Y-84927544D02*
X48586152Y-84894211D01*
X48586152Y-84894211D02*
X48509961Y-84860877D01*
X48509961Y-84860877D02*
X48319485Y-84860877D01*
X48319485Y-84860877D02*
X48243295Y-84894211D01*
X48243295Y-84894211D02*
X48205200Y-84927544D01*
X48205200Y-84927544D02*
X48167104Y-84994211D01*
X48167104Y-84994211D02*
X48167104Y-85160877D01*
X48167104Y-85160877D02*
X48205200Y-85227544D01*
X48205200Y-85227544D02*
X48243295Y-85260877D01*
D10*
X48128570Y-78629580D02*
X48080951Y-78677200D01*
X48080951Y-78677200D02*
X48128570Y-78724819D01*
X48128570Y-78724819D02*
X48176189Y-78677200D01*
X48176189Y-78677200D02*
X48128570Y-78629580D01*
X48128570Y-78629580D02*
X48128570Y-78724819D01*
X47128571Y-78724819D02*
X47699999Y-78724819D01*
X47414285Y-78724819D02*
X47414285Y-77724819D01*
X47414285Y-77724819D02*
X47509523Y-77867676D01*
X47509523Y-77867676D02*
X47604761Y-77962914D01*
X47604761Y-77962914D02*
X47699999Y-78010533D01*
X46271428Y-78058152D02*
X46271428Y-78724819D01*
X46699999Y-78058152D02*
X46699999Y-78581961D01*
X46699999Y-78581961D02*
X46652380Y-78677200D01*
X46652380Y-78677200D02*
X46557142Y-78724819D01*
X46557142Y-78724819D02*
X46414285Y-78724819D01*
X46414285Y-78724819D02*
X46319047Y-78677200D01*
X46319047Y-78677200D02*
X46271428Y-78629580D01*
D12*
%TO.C,JP1*%
X52050000Y-88160000D02*
X52050000Y-87560000D01*
X51500000Y-89360000D02*
X50900000Y-89360000D01*
X51400000Y-86860000D02*
X48600000Y-86860000D01*
X51200000Y-89060000D02*
X51500000Y-89360000D01*
X51200000Y-89060000D02*
X50900000Y-89360000D01*
X48600000Y-88860000D02*
X51400000Y-88860000D01*
X47950000Y-87560000D02*
X47950000Y-88160000D01*
X51350000Y-88860000D02*
G75*
G03*
X52050000Y-88160000I1J699999D01*
G01*
X52050000Y-87560000D02*
G75*
G03*
X51350000Y-86860000I-699999J1D01*
G01*
X47950000Y-88160000D02*
G75*
G03*
X48650000Y-88860000I700000J0D01*
G01*
X48650000Y-86860000D02*
G75*
G03*
X47950000Y-87560000I0J-700000D01*
G01*
%TO.C,C1*%
X44080000Y-76990000D02*
X50320000Y-76990000D01*
X44080000Y-77435000D02*
X44080000Y-76990000D01*
X44080000Y-79730000D02*
X44080000Y-79285000D01*
X44080000Y-79730000D02*
X50320000Y-79730000D01*
X50320000Y-77435000D02*
X50320000Y-76990000D01*
X50320000Y-79730000D02*
X50320000Y-79285000D01*
%TO.C,J5*%
X60220000Y-125460000D02*
X57560000Y-125460000D01*
X60220000Y-77140000D02*
X60220000Y-125460000D01*
X60220000Y-77140000D02*
X57560000Y-77140000D01*
X60220000Y-75870000D02*
X60220000Y-74540000D01*
X60220000Y-74540000D02*
X58890000Y-74540000D01*
X57560000Y-77140000D02*
X57560000Y-125460000D01*
%TO.C,J6*%
X42440000Y-125460000D02*
X39780000Y-125460000D01*
X42440000Y-77140000D02*
X42440000Y-125460000D01*
X42440000Y-77140000D02*
X39780000Y-77140000D01*
X42440000Y-75870000D02*
X42440000Y-74540000D01*
X42440000Y-74540000D02*
X41110000Y-74540000D01*
X39780000Y-77140000D02*
X39780000Y-125460000D01*
%TO.C,JP2*%
X47290000Y-88160000D02*
X47290000Y-87560000D01*
X46740000Y-89360000D02*
X46140000Y-89360000D01*
X46640000Y-86860000D02*
X43840000Y-86860000D01*
X46440000Y-89060000D02*
X46740000Y-89360000D01*
X46440000Y-89060000D02*
X46140000Y-89360000D01*
X43840000Y-88860000D02*
X46640000Y-88860000D01*
X43190000Y-87560000D02*
X43190000Y-88160000D01*
X46590000Y-88860000D02*
G75*
G03*
X47290000Y-88160000I1J699999D01*
G01*
X47290000Y-87560000D02*
G75*
G03*
X46590000Y-86860000I-699999J1D01*
G01*
X43190000Y-88160000D02*
G75*
G03*
X43890000Y-88860000I700000J0D01*
G01*
X43890000Y-86860000D02*
G75*
G03*
X43190000Y-87560000I0J-700000D01*
G01*
%TD*%
D13*
%TO.C,J1*%
X56364100Y-90428820D03*
X56364100Y-100421180D03*
X53862200Y-87926920D03*
X53864740Y-95425000D03*
X53862200Y-102923080D03*
%TD*%
%TO.C,J2*%
X53862200Y-122923080D03*
X53864740Y-115425000D03*
X53862200Y-107926920D03*
X56364100Y-120421180D03*
X56364100Y-110428820D03*
%TD*%
M02*
