%TF.GenerationSoftware,KiCad,Pcbnew,8.0.5*%
%TF.CreationDate,2024-10-10T20:13:41+01:00*%
%TF.ProjectId,NanoMIDIProtoShield,4e616e6f-4d49-4444-9950-726f746f5368,rev?*%
%TF.SameCoordinates,Original*%
%TF.FileFunction,Profile,NP*%
%FSLAX46Y46*%
G04 Gerber Fmt 4.6, Leading zero omitted, Abs format (unit mm)*
G04 Created by KiCad (PCBNEW 8.0.5) date 2024-10-10 20:13:41*
%MOMM*%
%LPD*%
G01*
G04 APERTURE LIST*
%TA.AperFunction,Profile*%
%ADD10C,0.050000*%
%TD*%
%TA.AperFunction,Profile*%
%ADD11C,0.120000*%
%TD*%
G04 APERTURE END LIST*
D10*
X150000000Y-100000000D02*
X150000000Y-50000000D01*
X150000000Y-50000000D02*
X50000000Y-50000000D01*
X50000000Y-100000000D02*
X150000000Y-100000000D01*
X50000000Y-97200000D02*
X50000400Y-99999220D01*
X50000000Y-50000000D02*
X50000000Y-64200000D01*
X50000000Y-77200000D02*
X50000000Y-84200000D01*
D11*
%TO.C,J5*%
X50000000Y-68500000D02*
X50000000Y-64200000D01*
X50000000Y-72900000D02*
X50000000Y-77200000D01*
X51000000Y-68500000D02*
X50000000Y-68500000D01*
X51000000Y-72900000D02*
X50000000Y-72900000D01*
X51400000Y-72500000D02*
X51400000Y-68900000D01*
X51000000Y-68500000D02*
G75*
G02*
X51400000Y-68900000I-2J-400002D01*
G01*
X51400000Y-72500000D02*
G75*
G02*
X51000000Y-72900000I-400000J0D01*
G01*
%TO.C,J4*%
X50000000Y-88500000D02*
X50000000Y-84200000D01*
X50000000Y-92900000D02*
X50000000Y-97200000D01*
X51000000Y-88500000D02*
X50000000Y-88500000D01*
X51000000Y-92900000D02*
X50000000Y-92900000D01*
X51400000Y-92500000D02*
X51400000Y-88900000D01*
X51000000Y-88500000D02*
G75*
G02*
X51400000Y-88900000I-2J-400002D01*
G01*
X51400000Y-92500000D02*
G75*
G02*
X51000000Y-92900000I-400000J0D01*
G01*
%TD*%
M02*
