%TF.GenerationSoftware,KiCad,Pcbnew,8.0.3*%
%TF.CreationDate,2024-06-25T21:05:21+01:00*%
%TF.ProjectId,PicoMIDITouchKeyboard,5069636f-4d49-4444-9954-6f7563684b65,rev?*%
%TF.SameCoordinates,Original*%
%TF.FileFunction,Soldermask,Bot*%
%TF.FilePolarity,Negative*%
%FSLAX46Y46*%
G04 Gerber Fmt 4.6, Leading zero omitted, Abs format (unit mm)*
G04 Created by KiCad (PCBNEW 8.0.3) date 2024-06-25 21:05:21*
%MOMM*%
%LPD*%
G01*
G04 APERTURE LIST*
G04 Aperture macros list*
%AMRoundRect*
0 Rectangle with rounded corners*
0 $1 Rounding radius*
0 $2 $3 $4 $5 $6 $7 $8 $9 X,Y pos of 4 corners*
0 Add a 4 corners polygon primitive as box body*
4,1,4,$2,$3,$4,$5,$6,$7,$8,$9,$2,$3,0*
0 Add four circle primitives for the rounded corners*
1,1,$1+$1,$2,$3*
1,1,$1+$1,$4,$5*
1,1,$1+$1,$6,$7*
1,1,$1+$1,$8,$9*
0 Add four rect primitives between the rounded corners*
20,1,$1+$1,$2,$3,$4,$5,0*
20,1,$1+$1,$4,$5,$6,$7,0*
20,1,$1+$1,$6,$7,$8,$9,0*
20,1,$1+$1,$8,$9,$2,$3,0*%
G04 Aperture macros list end*
%ADD10RoundRect,0.250000X-0.350000X-0.625000X0.350000X-0.625000X0.350000X0.625000X-0.350000X0.625000X0*%
%ADD11O,1.200000X1.750000*%
%ADD12C,1.600000*%
%ADD13O,1.600000X1.600000*%
%ADD14R,1.600000X1.600000*%
%ADD15C,1.200000*%
%ADD16O,1.200000X2.200000*%
%ADD17O,1.600000X2.300000*%
%ADD18O,2.200000X1.200000*%
%ADD19O,1.600000X2.500000*%
%ADD20O,1.800000X1.800000*%
%ADD21O,1.500000X1.500000*%
%ADD22O,1.700000X1.700000*%
%ADD23R,1.700000X1.700000*%
%ADD24R,2.200000X2.200000*%
%ADD25O,2.200000X2.200000*%
G04 APERTURE END LIST*
D10*
%TO.C,J3*%
X121190000Y-87884000D03*
D11*
X123190000Y-87884000D03*
X125190000Y-87884000D03*
X127190000Y-87884000D03*
%TD*%
D12*
%TO.C,R2*%
X120000000Y-110000000D03*
D13*
X120000000Y-102380000D03*
%TD*%
D12*
%TO.C,R7*%
X127000000Y-110000000D03*
D13*
X127000000Y-102380000D03*
%TD*%
D12*
%TO.C,R10*%
X137500000Y-110000000D03*
D13*
X137500000Y-102380000D03*
%TD*%
D12*
%TO.C,R11*%
X141000000Y-110000000D03*
D13*
X141000000Y-102380000D03*
%TD*%
D12*
%TO.C,R5*%
X109500000Y-110000000D03*
D13*
X109500000Y-102380000D03*
%TD*%
D12*
%TO.C,R6*%
X106000000Y-110000000D03*
D13*
X106000000Y-102380000D03*
%TD*%
D12*
%TO.C,R13*%
X148000000Y-110000000D03*
D13*
X148000000Y-102380000D03*
%TD*%
D14*
%TO.C,C1*%
X131572000Y-96099621D03*
D12*
X131572000Y-98599621D03*
%TD*%
D15*
%TO.C,J1*%
X116230000Y-89500000D03*
X116230000Y-87000000D03*
X111230000Y-94500000D03*
X106230000Y-89500000D03*
X106230000Y-87000000D03*
D16*
X116230000Y-94500000D03*
D17*
X113730000Y-94500000D03*
D18*
X111230000Y-89500000D03*
D16*
X106230000Y-94500000D03*
D19*
X108730000Y-94500000D03*
%TD*%
D12*
%TO.C,R1*%
X123500000Y-110000000D03*
D13*
X123500000Y-102380000D03*
%TD*%
D12*
%TO.C,R8*%
X130500000Y-110000000D03*
D13*
X130500000Y-102380000D03*
%TD*%
D12*
%TO.C,R14*%
X117602000Y-99314000D03*
D13*
X125222000Y-99314000D03*
%TD*%
D12*
%TO.C,R12*%
X144500000Y-110000000D03*
D13*
X144500000Y-102380000D03*
%TD*%
D12*
%TO.C,R15*%
X113538000Y-99314000D03*
D13*
X105918000Y-99314000D03*
%TD*%
D20*
%TO.C,U1*%
X52000000Y-100195000D03*
D21*
X55030000Y-99895000D03*
X55030000Y-95045000D03*
D20*
X52000000Y-94745000D03*
D22*
X51870000Y-106360000D03*
X54410000Y-106360000D03*
D23*
X56950000Y-106360000D03*
D22*
X59490000Y-106360000D03*
X62030000Y-106360000D03*
X64570000Y-106360000D03*
X67110000Y-106360000D03*
D23*
X69650000Y-106360000D03*
D22*
X72190000Y-106360000D03*
X74730000Y-106360000D03*
X77270000Y-106360000D03*
X79810000Y-106360000D03*
D23*
X82350000Y-106360000D03*
D22*
X84890000Y-106360000D03*
X87430000Y-106360000D03*
X89970000Y-106360000D03*
X92510000Y-106360000D03*
D23*
X95050000Y-106360000D03*
D22*
X97590000Y-106360000D03*
X100130000Y-106360000D03*
X100130000Y-88580000D03*
X97590000Y-88580000D03*
D23*
X95050000Y-88580000D03*
D22*
X92510000Y-88580000D03*
X89970000Y-88580000D03*
X87430000Y-88580000D03*
X84890000Y-88580000D03*
D23*
X82350000Y-88580000D03*
D22*
X79810000Y-88580000D03*
X77270000Y-88580000D03*
X74730000Y-88580000D03*
X72190000Y-88580000D03*
D23*
X69650000Y-88580000D03*
D22*
X67110000Y-88580000D03*
X64570000Y-88580000D03*
X62030000Y-88580000D03*
X59490000Y-88580000D03*
D23*
X56950000Y-88580000D03*
D22*
X54410000Y-88580000D03*
X51870000Y-88580000D03*
X99900000Y-100010000D03*
D23*
X99900000Y-97470000D03*
D22*
X99900000Y-94930000D03*
%TD*%
D24*
%TO.C,D1*%
X131572000Y-87630000D03*
D25*
X141732000Y-87630000D03*
%TD*%
D23*
%TO.C,J2*%
X147180000Y-90200000D03*
D22*
X147180000Y-87660000D03*
%TD*%
D12*
%TO.C,R3*%
X116500000Y-110000000D03*
D13*
X116500000Y-102380000D03*
%TD*%
D12*
%TO.C,R4*%
X113000000Y-110000000D03*
D13*
X113000000Y-102380000D03*
%TD*%
D12*
%TO.C,R9*%
X134000000Y-110000000D03*
D13*
X134000000Y-102380000D03*
%TD*%
M02*
