%TF.GenerationSoftware,KiCad,Pcbnew,8.0.3*%
%TF.CreationDate,2024-06-25T21:05:21+01:00*%
%TF.ProjectId,PicoMIDITouchKeyboard,5069636f-4d49-4444-9954-6f7563684b65,rev?*%
%TF.SameCoordinates,Original*%
%TF.FileFunction,Copper,L2,Bot*%
%TF.FilePolarity,Positive*%
%FSLAX46Y46*%
G04 Gerber Fmt 4.6, Leading zero omitted, Abs format (unit mm)*
G04 Created by KiCad (PCBNEW 8.0.3) date 2024-06-25 21:05:21*
%MOMM*%
%LPD*%
G01*
G04 APERTURE LIST*
G04 Aperture macros list*
%AMRoundRect*
0 Rectangle with rounded corners*
0 $1 Rounding radius*
0 $2 $3 $4 $5 $6 $7 $8 $9 X,Y pos of 4 corners*
0 Add a 4 corners polygon primitive as box body*
4,1,4,$2,$3,$4,$5,$6,$7,$8,$9,$2,$3,0*
0 Add four circle primitives for the rounded corners*
1,1,$1+$1,$2,$3*
1,1,$1+$1,$4,$5*
1,1,$1+$1,$6,$7*
1,1,$1+$1,$8,$9*
0 Add four rect primitives between the rounded corners*
20,1,$1+$1,$2,$3,$4,$5,0*
20,1,$1+$1,$4,$5,$6,$7,0*
20,1,$1+$1,$6,$7,$8,$9,0*
20,1,$1+$1,$8,$9,$2,$3,0*%
G04 Aperture macros list end*
%TA.AperFunction,ComponentPad*%
%ADD10RoundRect,0.250000X-0.350000X-0.625000X0.350000X-0.625000X0.350000X0.625000X-0.350000X0.625000X0*%
%TD*%
%TA.AperFunction,ComponentPad*%
%ADD11O,1.200000X1.750000*%
%TD*%
%TA.AperFunction,ComponentPad*%
%ADD12C,1.600000*%
%TD*%
%TA.AperFunction,ComponentPad*%
%ADD13O,1.600000X1.600000*%
%TD*%
%TA.AperFunction,ComponentPad*%
%ADD14R,1.600000X1.600000*%
%TD*%
%TA.AperFunction,ComponentPad*%
%ADD15O,1.200000X2.200000*%
%TD*%
%TA.AperFunction,ComponentPad*%
%ADD16O,1.600000X2.300000*%
%TD*%
%TA.AperFunction,ComponentPad*%
%ADD17O,2.200000X1.200000*%
%TD*%
%TA.AperFunction,ComponentPad*%
%ADD18O,1.600000X2.500000*%
%TD*%
%TA.AperFunction,ComponentPad*%
%ADD19O,1.700000X1.700000*%
%TD*%
%TA.AperFunction,ComponentPad*%
%ADD20R,1.700000X1.700000*%
%TD*%
%TA.AperFunction,ComponentPad*%
%ADD21R,2.200000X2.200000*%
%TD*%
%TA.AperFunction,ComponentPad*%
%ADD22O,2.200000X2.200000*%
%TD*%
%TA.AperFunction,ViaPad*%
%ADD23C,0.800000*%
%TD*%
%TA.AperFunction,Conductor*%
%ADD24C,0.500000*%
%TD*%
%TA.AperFunction,Conductor*%
%ADD25C,0.300000*%
%TD*%
%TA.AperFunction,Conductor*%
%ADD26C,0.250000*%
%TD*%
G04 APERTURE END LIST*
D10*
%TO.P,J3,1,Pin_1*%
%TO.N,Net-(J3-Pin_1)*%
X121190000Y-87884000D03*
D11*
%TO.P,J3,2,Pin_2*%
%TO.N,Net-(J3-Pin_2)*%
X123190000Y-87884000D03*
%TO.P,J3,3,Pin_3*%
%TO.N,/5V IN*%
X125190000Y-87884000D03*
%TO.P,J3,4,Pin_4*%
%TO.N,GND*%
X127190000Y-87884000D03*
%TD*%
D12*
%TO.P,R2,1*%
%TO.N,/TOUCH_E*%
X120000000Y-110000000D03*
D13*
%TO.P,R2,2*%
%TO.N,GND*%
X120000000Y-102380000D03*
%TD*%
D12*
%TO.P,R7,1*%
%TO.N,/TOUCH_F#*%
X127000000Y-110000000D03*
D13*
%TO.P,R7,2*%
%TO.N,GND*%
X127000000Y-102380000D03*
%TD*%
D12*
%TO.P,R10,1*%
%TO.N,/TOUCH_A*%
X137500000Y-110000000D03*
D13*
%TO.P,R10,2*%
%TO.N,GND*%
X137500000Y-102380000D03*
%TD*%
D12*
%TO.P,R11,1*%
%TO.N,/TOUCH_A#*%
X141000000Y-110000000D03*
D13*
%TO.P,R11,2*%
%TO.N,GND*%
X141000000Y-102380000D03*
%TD*%
D12*
%TO.P,R5,1*%
%TO.N,/TOUCH_C#*%
X109500000Y-110000000D03*
D13*
%TO.P,R5,2*%
%TO.N,GND*%
X109500000Y-102380000D03*
%TD*%
D12*
%TO.P,R6,1*%
%TO.N,/TOUCH_C*%
X106000000Y-110000000D03*
D13*
%TO.P,R6,2*%
%TO.N,GND*%
X106000000Y-102380000D03*
%TD*%
D12*
%TO.P,R13,1*%
%TO.N,/TOUCH_C'*%
X148000000Y-110000000D03*
D13*
%TO.P,R13,2*%
%TO.N,GND*%
X148000000Y-102380000D03*
%TD*%
D14*
%TO.P,C1,1*%
%TO.N,/5V_PWR*%
X131572000Y-96099621D03*
D12*
%TO.P,C1,2*%
%TO.N,GND*%
X131572000Y-98599621D03*
%TD*%
D15*
%TO.P,J1,R*%
%TO.N,Net-(J3-Pin_1)*%
X116230000Y-94500000D03*
D16*
%TO.P,J1,RN*%
%TO.N,N/C*%
X113730000Y-94500000D03*
D17*
%TO.P,J1,S*%
%TO.N,GND*%
X111230000Y-89500000D03*
D15*
%TO.P,J1,T*%
%TO.N,Net-(J3-Pin_2)*%
X106230000Y-94500000D03*
D18*
%TO.P,J1,TN*%
%TO.N,N/C*%
X108730000Y-94500000D03*
%TD*%
D12*
%TO.P,R1,1*%
%TO.N,/TOUCH_F*%
X123500000Y-110000000D03*
D13*
%TO.P,R1,2*%
%TO.N,GND*%
X123500000Y-102380000D03*
%TD*%
D12*
%TO.P,R8,1*%
%TO.N,/TOUCH_G*%
X130500000Y-110000000D03*
D13*
%TO.P,R8,2*%
%TO.N,GND*%
X130500000Y-102380000D03*
%TD*%
D12*
%TO.P,R14,1*%
%TO.N,Net-(J3-Pin_2)*%
X117602000Y-99314000D03*
D13*
%TO.P,R14,2*%
%TO.N,/MIDI_OUT*%
X125222000Y-99314000D03*
%TD*%
D12*
%TO.P,R12,1*%
%TO.N,/TOUCH_B*%
X144500000Y-110000000D03*
D13*
%TO.P,R12,2*%
%TO.N,GND*%
X144500000Y-102380000D03*
%TD*%
D12*
%TO.P,R15,1*%
%TO.N,Net-(J3-Pin_1)*%
X113538000Y-99314000D03*
D13*
%TO.P,R15,2*%
%TO.N,+3V3*%
X105918000Y-99314000D03*
%TD*%
D19*
%TO.P,U1,1,GPIO0*%
%TO.N,/MIDI_OUT*%
X51870000Y-106360000D03*
%TO.P,U1,2,GPIO1*%
%TO.N,unconnected-(U1-GPIO1-Pad2)_0*%
X54410000Y-106360000D03*
D20*
%TO.P,U1,3,GND*%
%TO.N,GND*%
X56950000Y-106360000D03*
D19*
%TO.P,U1,4,GPIO2*%
%TO.N,/TOUCH_C*%
X59490000Y-106360000D03*
%TO.P,U1,5,GPIO3*%
%TO.N,/TOUCH_C#*%
X62030000Y-106360000D03*
%TO.P,U1,6,GPIO4*%
%TO.N,/TOUCH_D*%
X64570000Y-106360000D03*
%TO.P,U1,7,GPIO5*%
%TO.N,/TOUCH_D#*%
X67110000Y-106360000D03*
D20*
%TO.P,U1,8,GND*%
%TO.N,GND*%
X69650000Y-106360000D03*
D19*
%TO.P,U1,9,GPIO6*%
%TO.N,/TOUCH_E*%
X72190000Y-106360000D03*
%TO.P,U1,10,GPIO7*%
%TO.N,/TOUCH_F*%
X74730000Y-106360000D03*
%TO.P,U1,11,GPIO8*%
%TO.N,/TOUCH_F#*%
X77270000Y-106360000D03*
%TO.P,U1,12,GPIO9*%
%TO.N,/TOUCH_G*%
X79810000Y-106360000D03*
D20*
%TO.P,U1,13,GND*%
%TO.N,GND*%
X82350000Y-106360000D03*
D19*
%TO.P,U1,14,GPIO10*%
%TO.N,/TOUCH_G#*%
X84890000Y-106360000D03*
%TO.P,U1,15,GPIO11*%
%TO.N,/TOUCH_A*%
X87430000Y-106360000D03*
%TO.P,U1,16,GPIO12*%
%TO.N,/TOUCH_A#*%
X89970000Y-106360000D03*
%TO.P,U1,17,GPIO13*%
%TO.N,/TOUCH_B*%
X92510000Y-106360000D03*
D20*
%TO.P,U1,18,GND*%
%TO.N,GND*%
X95050000Y-106360000D03*
D19*
%TO.P,U1,19,GPIO14*%
%TO.N,/TOUCH_C'*%
X97590000Y-106360000D03*
%TO.P,U1,20,GPIO15*%
%TO.N,unconnected-(U1-GPIO15-Pad20)_0*%
X100130000Y-106360000D03*
%TO.P,U1,21,GPIO16*%
%TO.N,unconnected-(U1-GPIO16-Pad21)_0*%
X100130000Y-88580000D03*
%TO.P,U1,22,GPIO17*%
%TO.N,unconnected-(U1-GPIO17-Pad22)_0*%
X97590000Y-88580000D03*
D20*
%TO.P,U1,23,GND*%
%TO.N,GND*%
X95050000Y-88580000D03*
D19*
%TO.P,U1,24,GPIO18*%
%TO.N,unconnected-(U1-GPIO18-Pad24)_0*%
X92510000Y-88580000D03*
%TO.P,U1,25,GPIO19*%
%TO.N,unconnected-(U1-GPIO19-Pad25)_0*%
X89970000Y-88580000D03*
%TO.P,U1,26,GPIO20*%
%TO.N,unconnected-(U1-GPIO20-Pad26)*%
X87430000Y-88580000D03*
%TO.P,U1,27,GPIO21*%
%TO.N,unconnected-(U1-GPIO21-Pad27)_0*%
X84890000Y-88580000D03*
D20*
%TO.P,U1,28,GND*%
%TO.N,GND*%
X82350000Y-88580000D03*
D19*
%TO.P,U1,29,GPIO22*%
%TO.N,unconnected-(U1-GPIO22-Pad29)_0*%
X79810000Y-88580000D03*
%TO.P,U1,30,RUN*%
%TO.N,unconnected-(U1-RUN-Pad30)_0*%
X77270000Y-88580000D03*
%TO.P,U1,31,GPIO26_ADC0*%
%TO.N,unconnected-(U1-GPIO26_ADC0-Pad31)*%
X74730000Y-88580000D03*
%TO.P,U1,32,GPIO27_ADC1*%
%TO.N,unconnected-(U1-GPIO27_ADC1-Pad32)*%
X72190000Y-88580000D03*
D20*
%TO.P,U1,33,AGND*%
%TO.N,GND*%
X69650000Y-88580000D03*
D19*
%TO.P,U1,34,GPIO28_ADC2*%
%TO.N,unconnected-(U1-GPIO28_ADC2-Pad34)_0*%
X67110000Y-88580000D03*
%TO.P,U1,35,ADC_VREF*%
%TO.N,unconnected-(U1-ADC_VREF-Pad35)_0*%
X64570000Y-88580000D03*
%TO.P,U1,36,3V3*%
%TO.N,+3V3*%
X62030000Y-88580000D03*
%TO.P,U1,37,3V3_EN*%
%TO.N,unconnected-(U1-3V3_EN-Pad37)_0*%
X59490000Y-88580000D03*
D20*
%TO.P,U1,38,GND*%
%TO.N,GND*%
X56950000Y-88580000D03*
D19*
%TO.P,U1,39,VSYS*%
%TO.N,/5V_PWR*%
X54410000Y-88580000D03*
%TO.P,U1,40,VBUS*%
%TO.N,unconnected-(U1-VBUS-Pad40)_0*%
X51870000Y-88580000D03*
%TO.P,U1,41,SWCLK*%
%TO.N,unconnected-(U1-SWCLK-Pad41)*%
X99900000Y-100010000D03*
D20*
%TO.P,U1,42,GND*%
%TO.N,GND*%
X99900000Y-97470000D03*
D19*
%TO.P,U1,43,SWDIO*%
%TO.N,unconnected-(U1-SWDIO-Pad43)*%
X99900000Y-94930000D03*
%TD*%
D21*
%TO.P,D1,1,K*%
%TO.N,/5V_PWR*%
X131572000Y-87630000D03*
D22*
%TO.P,D1,2,A*%
%TO.N,/5V IN*%
X141732000Y-87630000D03*
%TD*%
D20*
%TO.P,J2,1,Pin_1*%
%TO.N,GND*%
X147180000Y-90200000D03*
D19*
%TO.P,J2,2,Pin_2*%
%TO.N,/5V IN*%
X147180000Y-87660000D03*
%TD*%
D12*
%TO.P,R3,1*%
%TO.N,/TOUCH_D#*%
X116500000Y-110000000D03*
D13*
%TO.P,R3,2*%
%TO.N,GND*%
X116500000Y-102380000D03*
%TD*%
D12*
%TO.P,R4,1*%
%TO.N,/TOUCH_D*%
X113000000Y-110000000D03*
D13*
%TO.P,R4,2*%
%TO.N,GND*%
X113000000Y-102380000D03*
%TD*%
D12*
%TO.P,R9,1*%
%TO.N,/TOUCH_G#*%
X134000000Y-110000000D03*
D13*
%TO.P,R9,2*%
%TO.N,GND*%
X134000000Y-102380000D03*
%TD*%
D23*
%TO.N,GND*%
X136652000Y-87630000D03*
X141986000Y-95504000D03*
X123952000Y-95504000D03*
X70104000Y-96266000D03*
X92202000Y-96520000D03*
X146050000Y-118364000D03*
X134874000Y-118364000D03*
X86868000Y-118872000D03*
X146050000Y-126492000D03*
X140970000Y-115062000D03*
X134874000Y-126492000D03*
X86868000Y-127000000D03*
X54356000Y-126492000D03*
%TO.N,+3V3*%
X61976000Y-97028000D03*
%TD*%
D24*
%TO.N,/5V IN*%
X136652000Y-91440000D02*
X137922000Y-91440000D01*
X137922000Y-91440000D02*
X141732000Y-87630000D01*
X126238000Y-91440000D02*
X136652000Y-91440000D01*
D25*
%TO.N,+3V3*%
X61976000Y-97028000D02*
X62030000Y-96974000D01*
X62030000Y-88580000D02*
X61976000Y-97028000D01*
D24*
%TO.N,/5V IN*%
X125190000Y-90392000D02*
X126238000Y-91440000D01*
X125190000Y-87884000D02*
X125190000Y-90392000D01*
D26*
%TO.N,GND*%
X92180000Y-108420000D02*
X91220000Y-107460000D01*
X95050000Y-106360000D02*
X95050000Y-107920000D01*
X93210000Y-102380000D02*
X106000000Y-102380000D01*
X95050000Y-107920000D02*
X94550000Y-108420000D01*
X91220000Y-107460000D02*
X91220000Y-104370000D01*
X91220000Y-104370000D02*
X93210000Y-102380000D01*
X94550000Y-108420000D02*
X92180000Y-108420000D01*
%TO.N,/TOUCH_D#*%
X108260000Y-110603783D02*
X108260000Y-108386396D01*
X71950000Y-111230000D02*
X67080000Y-106360000D01*
X73555000Y-112835000D02*
X74750000Y-112835000D01*
X74750000Y-112835000D02*
X106028782Y-112835000D01*
X71950000Y-111230000D02*
X73555000Y-112835000D01*
X109196396Y-107450000D02*
X113950000Y-107450000D01*
X113950000Y-107450000D02*
X116500000Y-110000000D01*
X107716891Y-111146891D02*
X108260000Y-110603783D01*
X106028782Y-112835000D02*
X107716891Y-111146891D01*
X108260000Y-108386396D02*
X109196396Y-107450000D01*
%TO.N,/TOUCH_E*%
X107810000Y-108200000D02*
X107810000Y-110417387D01*
X107810000Y-110417387D02*
X107163693Y-111063693D01*
X117000000Y-107000000D02*
X109010000Y-107000000D01*
X105842386Y-112385000D02*
X78185000Y-112385000D01*
X120000000Y-110000000D02*
X117000000Y-107000000D01*
X107163693Y-111063693D02*
X105842386Y-112385000D01*
X109010000Y-107000000D02*
X107810000Y-108200000D01*
X78185000Y-112385000D02*
X72160000Y-106360000D01*
%TO.N,/TOUCH_F*%
X80238604Y-111935000D02*
X74700000Y-106396396D01*
X108823604Y-106550000D02*
X120050000Y-106550000D01*
X107343198Y-110247793D02*
X107343198Y-108030406D01*
X106885496Y-110705496D02*
X107343198Y-110247793D01*
X74700000Y-106396396D02*
X74700000Y-106360000D01*
X80900000Y-111935000D02*
X105655992Y-111935000D01*
X80900000Y-111935000D02*
X80238604Y-111935000D01*
X120050000Y-106550000D02*
X123500000Y-110000000D01*
X105655992Y-111935000D02*
X106885496Y-110705496D01*
X107343198Y-108030406D02*
X108823604Y-106550000D01*
%TO.N,/TOUCH_F#*%
X123100000Y-106100000D02*
X107690000Y-106100000D01*
X102305000Y-111485000D02*
X81162919Y-111485000D01*
X81162919Y-111485000D02*
X77240000Y-107562081D01*
X77240000Y-107562081D02*
X77240000Y-106360000D01*
X127000000Y-110000000D02*
X123100000Y-106100000D01*
X107690000Y-106100000D02*
X102305000Y-111485000D01*
%TO.N,/TOUCH_G*%
X79810000Y-109495685D02*
X81349315Y-111035000D01*
X126190000Y-105650000D02*
X126190000Y-105690000D01*
X84328000Y-111035000D02*
X101905000Y-111035000D01*
X79810000Y-106360000D02*
X79810000Y-109495685D01*
X81349315Y-111035000D02*
X84328000Y-111035000D01*
X107290000Y-105650000D02*
X126190000Y-105650000D01*
X126190000Y-105690000D02*
X130500000Y-110000000D01*
X101905000Y-111035000D02*
X107290000Y-105650000D01*
%TO.N,/TOUCH_G#*%
X129200000Y-105200000D02*
X134000000Y-110000000D01*
X89662000Y-110585000D02*
X101475000Y-110585000D01*
X84890000Y-106360000D02*
X89115000Y-110585000D01*
X106860000Y-105200000D02*
X129200000Y-105200000D01*
X101475000Y-110585000D02*
X106860000Y-105200000D01*
X89115000Y-110585000D02*
X89662000Y-110585000D01*
%TO.N,/TOUCH_A*%
X87430000Y-106426396D02*
X91138604Y-110135000D01*
X137500000Y-110000000D02*
X132250000Y-104750000D01*
X91138604Y-110135000D02*
X91948000Y-110135000D01*
X106450000Y-104750000D02*
X101065000Y-110135000D01*
X101065000Y-110135000D02*
X91948000Y-110135000D01*
X132250000Y-104750000D02*
X106450000Y-104750000D01*
X87430000Y-106360000D02*
X87430000Y-106426396D01*
%TO.N,/TOUCH_A#*%
X91325000Y-109685000D02*
X89940000Y-108300000D01*
X100878604Y-109685000D02*
X91325000Y-109685000D01*
X89940000Y-108300000D02*
X89940000Y-106360000D01*
X141000000Y-110000000D02*
X135300000Y-104300000D01*
X135300000Y-104300000D02*
X106263604Y-104300000D01*
X106263604Y-104300000D02*
X100878604Y-109685000D01*
%TO.N,/TOUCH_B*%
X95070000Y-103770000D02*
X92480000Y-106360000D01*
X144500000Y-110000000D02*
X138270000Y-103770000D01*
X138270000Y-103770000D02*
X95070000Y-103770000D01*
%TD*%
%TA.AperFunction,Conductor*%
%TO.N,GND*%
G36*
X69904000Y-107718000D02*
G01*
X70548585Y-107718000D01*
X70548597Y-107717999D01*
X70609093Y-107711494D01*
X70745964Y-107660444D01*
X70745965Y-107660444D01*
X70862904Y-107572904D01*
X70950444Y-107455965D01*
X70994618Y-107337530D01*
X71037165Y-107280694D01*
X71103685Y-107255883D01*
X71173059Y-107270974D01*
X71205372Y-107296222D01*
X71210645Y-107301949D01*
X71266762Y-107362908D01*
X71298407Y-107387538D01*
X71444424Y-107501189D01*
X71642426Y-107608342D01*
X71642427Y-107608342D01*
X71642428Y-107608343D01*
X71716644Y-107633821D01*
X71855365Y-107681444D01*
X72077431Y-107718500D01*
X72077435Y-107718500D01*
X72302565Y-107718500D01*
X72302569Y-107718500D01*
X72512859Y-107683409D01*
X72583342Y-107691927D01*
X72622692Y-107718596D01*
X76890500Y-111986405D01*
X76924526Y-112048717D01*
X76919461Y-112119533D01*
X76876914Y-112176368D01*
X76810394Y-112201179D01*
X76801405Y-112201500D01*
X73869595Y-112201500D01*
X73801474Y-112181498D01*
X73780500Y-112164595D01*
X72353833Y-110737929D01*
X69432905Y-107817001D01*
X69398879Y-107754689D01*
X69396000Y-107727906D01*
X69396000Y-106802250D01*
X69453147Y-106835245D01*
X69582857Y-106870000D01*
X69717143Y-106870000D01*
X69846853Y-106835245D01*
X69904000Y-106802250D01*
X69904000Y-107718000D01*
G37*
%TD.AperFunction*%
%TA.AperFunction,Conductor*%
G36*
X82604000Y-107718000D02*
G01*
X83248585Y-107718000D01*
X83248597Y-107717999D01*
X83309093Y-107711494D01*
X83445964Y-107660444D01*
X83445965Y-107660444D01*
X83562904Y-107572904D01*
X83650444Y-107455965D01*
X83694618Y-107337530D01*
X83737165Y-107280694D01*
X83803685Y-107255883D01*
X83873059Y-107270974D01*
X83905372Y-107296222D01*
X83910645Y-107301949D01*
X83966762Y-107362908D01*
X83998407Y-107387538D01*
X84144424Y-107501189D01*
X84342426Y-107608342D01*
X84342427Y-107608342D01*
X84342428Y-107608343D01*
X84416644Y-107633821D01*
X84555365Y-107681444D01*
X84777431Y-107718500D01*
X84777435Y-107718500D01*
X85002565Y-107718500D01*
X85002569Y-107718500D01*
X85224635Y-107681444D01*
X85224651Y-107681438D01*
X85227751Y-107680654D01*
X85229072Y-107680703D01*
X85229777Y-107680586D01*
X85229801Y-107680730D01*
X85298698Y-107683311D01*
X85347795Y-107713699D01*
X87820501Y-110186405D01*
X87854527Y-110248717D01*
X87849462Y-110319532D01*
X87806915Y-110376368D01*
X87740395Y-110401179D01*
X87731406Y-110401500D01*
X81663909Y-110401500D01*
X81595788Y-110381498D01*
X81574814Y-110364595D01*
X80480405Y-109270186D01*
X80446379Y-109207874D01*
X80443500Y-109181091D01*
X80443500Y-107636920D01*
X80463502Y-107568799D01*
X80509527Y-107526108D01*
X80555576Y-107501189D01*
X80733240Y-107362906D01*
X80794626Y-107296222D01*
X80855476Y-107259654D01*
X80926441Y-107261787D01*
X80984986Y-107301949D01*
X81005380Y-107337529D01*
X81049553Y-107455961D01*
X81049555Y-107455965D01*
X81137095Y-107572904D01*
X81254034Y-107660444D01*
X81390906Y-107711494D01*
X81451402Y-107717999D01*
X81451415Y-107718000D01*
X82096000Y-107718000D01*
X82096000Y-106802250D01*
X82153147Y-106835245D01*
X82282857Y-106870000D01*
X82417143Y-106870000D01*
X82546853Y-106835245D01*
X82604000Y-106802250D01*
X82604000Y-107718000D01*
G37*
%TD.AperFunction*%
%TA.AperFunction,Conductor*%
G36*
X105028131Y-104423502D02*
G01*
X105074624Y-104477158D01*
X105084728Y-104547432D01*
X105055234Y-104612012D01*
X105049105Y-104618595D01*
X100653105Y-109014595D01*
X100590793Y-109048621D01*
X100564010Y-109051500D01*
X91639595Y-109051500D01*
X91571474Y-109031498D01*
X91550500Y-109014595D01*
X90610405Y-108074500D01*
X90576379Y-108012188D01*
X90573500Y-107985405D01*
X90573500Y-107653156D01*
X90593502Y-107585035D01*
X90639531Y-107542342D01*
X90715576Y-107501189D01*
X90893240Y-107362906D01*
X91045722Y-107197268D01*
X91134518Y-107061354D01*
X91188520Y-107015268D01*
X91258868Y-107005692D01*
X91323225Y-107035669D01*
X91345480Y-107061353D01*
X91378607Y-107112058D01*
X91434275Y-107197265D01*
X91434279Y-107197270D01*
X91586762Y-107362908D01*
X91618407Y-107387538D01*
X91764424Y-107501189D01*
X91962426Y-107608342D01*
X91962427Y-107608342D01*
X91962428Y-107608343D01*
X92036644Y-107633821D01*
X92175365Y-107681444D01*
X92397431Y-107718500D01*
X92397435Y-107718500D01*
X92622565Y-107718500D01*
X92622569Y-107718500D01*
X92844635Y-107681444D01*
X93057574Y-107608342D01*
X93255576Y-107501189D01*
X93433240Y-107362906D01*
X93494626Y-107296222D01*
X93555476Y-107259654D01*
X93626441Y-107261787D01*
X93684986Y-107301949D01*
X93705380Y-107337529D01*
X93749553Y-107455961D01*
X93749555Y-107455965D01*
X93837095Y-107572904D01*
X93954034Y-107660444D01*
X94090906Y-107711494D01*
X94151402Y-107717999D01*
X94151415Y-107718000D01*
X94796000Y-107718000D01*
X94796000Y-106802250D01*
X94853147Y-106835245D01*
X94982857Y-106870000D01*
X95117143Y-106870000D01*
X95246853Y-106835245D01*
X95304000Y-106802250D01*
X95304000Y-107718000D01*
X95948585Y-107718000D01*
X95948597Y-107717999D01*
X96009093Y-107711494D01*
X96145964Y-107660444D01*
X96145965Y-107660444D01*
X96262904Y-107572904D01*
X96350444Y-107455965D01*
X96394618Y-107337530D01*
X96437165Y-107280694D01*
X96503685Y-107255883D01*
X96573059Y-107270974D01*
X96605372Y-107296222D01*
X96610645Y-107301949D01*
X96666762Y-107362908D01*
X96698407Y-107387538D01*
X96844424Y-107501189D01*
X97042426Y-107608342D01*
X97042427Y-107608342D01*
X97042428Y-107608343D01*
X97116644Y-107633821D01*
X97255365Y-107681444D01*
X97477431Y-107718500D01*
X97477435Y-107718500D01*
X97702565Y-107718500D01*
X97702569Y-107718500D01*
X97924635Y-107681444D01*
X98137574Y-107608342D01*
X98335576Y-107501189D01*
X98513240Y-107362906D01*
X98665722Y-107197268D01*
X98754518Y-107061354D01*
X98808520Y-107015268D01*
X98878868Y-107005692D01*
X98943225Y-107035669D01*
X98965480Y-107061353D01*
X98998607Y-107112058D01*
X99054275Y-107197265D01*
X99054279Y-107197270D01*
X99206762Y-107362908D01*
X99238407Y-107387538D01*
X99384424Y-107501189D01*
X99582426Y-107608342D01*
X99582427Y-107608342D01*
X99582428Y-107608343D01*
X99656644Y-107633821D01*
X99795365Y-107681444D01*
X100017431Y-107718500D01*
X100017435Y-107718500D01*
X100242565Y-107718500D01*
X100242569Y-107718500D01*
X100464635Y-107681444D01*
X100677574Y-107608342D01*
X100875576Y-107501189D01*
X101053240Y-107362906D01*
X101205722Y-107197268D01*
X101328860Y-107008791D01*
X101419296Y-106802616D01*
X101474564Y-106584368D01*
X101493156Y-106360000D01*
X101474564Y-106135632D01*
X101428036Y-105951898D01*
X101419297Y-105917387D01*
X101419296Y-105917386D01*
X101419296Y-105917384D01*
X101328860Y-105711209D01*
X101322140Y-105700924D01*
X101205724Y-105522734D01*
X101205720Y-105522729D01*
X101053237Y-105357091D01*
X100933684Y-105264039D01*
X100875576Y-105218811D01*
X100677574Y-105111658D01*
X100677572Y-105111657D01*
X100677571Y-105111656D01*
X100464639Y-105038557D01*
X100464630Y-105038555D01*
X100420476Y-105031187D01*
X100242569Y-105001500D01*
X100017431Y-105001500D01*
X99869211Y-105026233D01*
X99795369Y-105038555D01*
X99795360Y-105038557D01*
X99582428Y-105111656D01*
X99582426Y-105111658D01*
X99384426Y-105218810D01*
X99384424Y-105218811D01*
X99206762Y-105357091D01*
X99054279Y-105522729D01*
X98965483Y-105658643D01*
X98911479Y-105704731D01*
X98841131Y-105714306D01*
X98776774Y-105684329D01*
X98754517Y-105658643D01*
X98665720Y-105522729D01*
X98513237Y-105357091D01*
X98393684Y-105264039D01*
X98335576Y-105218811D01*
X98137574Y-105111658D01*
X98137572Y-105111657D01*
X98137571Y-105111656D01*
X97924639Y-105038557D01*
X97924630Y-105038555D01*
X97880476Y-105031187D01*
X97702569Y-105001500D01*
X97477431Y-105001500D01*
X97329211Y-105026233D01*
X97255369Y-105038555D01*
X97255360Y-105038557D01*
X97042428Y-105111656D01*
X97042426Y-105111658D01*
X96844426Y-105218810D01*
X96844424Y-105218811D01*
X96666759Y-105357094D01*
X96605374Y-105423775D01*
X96544521Y-105460346D01*
X96473557Y-105458211D01*
X96415012Y-105418049D01*
X96394618Y-105382470D01*
X96350443Y-105264033D01*
X96262904Y-105147095D01*
X96145965Y-105059555D01*
X96009093Y-105008505D01*
X95948597Y-105002000D01*
X95304000Y-105002000D01*
X95304000Y-105917749D01*
X95246853Y-105884755D01*
X95117143Y-105850000D01*
X94982857Y-105850000D01*
X94853147Y-105884755D01*
X94796000Y-105917749D01*
X94796000Y-104992094D01*
X94816002Y-104923973D01*
X94832905Y-104902999D01*
X95295499Y-104440405D01*
X95357811Y-104406379D01*
X95384594Y-104403500D01*
X104960010Y-104403500D01*
X105028131Y-104423502D01*
G37*
%TD.AperFunction*%
%TA.AperFunction,Conductor*%
G36*
X108972121Y-85020002D02*
G01*
X109018614Y-85073658D01*
X109030000Y-85126000D01*
X109030000Y-85999994D01*
X109032461Y-86062964D01*
X109071375Y-86182726D01*
X109071376Y-86182728D01*
X109145394Y-86284606D01*
X109247272Y-86358624D01*
X109307154Y-86378081D01*
X109367035Y-86397538D01*
X109376030Y-86397889D01*
X109430000Y-86400000D01*
X113029994Y-86400000D01*
X113030000Y-86400000D01*
X113092964Y-86397538D01*
X113212728Y-86358624D01*
X113314606Y-86284606D01*
X113388624Y-86182728D01*
X113427538Y-86062964D01*
X113430000Y-86000000D01*
X113430000Y-85126000D01*
X113450002Y-85057879D01*
X113503658Y-85011386D01*
X113556000Y-85000000D01*
X149864000Y-85000000D01*
X149932121Y-85020002D01*
X149978614Y-85073658D01*
X149990000Y-85126000D01*
X149990000Y-149874000D01*
X149969998Y-149942121D01*
X149916342Y-149988614D01*
X149864000Y-150000000D01*
X50126000Y-150000000D01*
X50057879Y-149979998D01*
X50011386Y-149926342D01*
X50000000Y-149874000D01*
X50000000Y-106360000D01*
X50506844Y-106360000D01*
X50525437Y-106584375D01*
X50580702Y-106802612D01*
X50580703Y-106802613D01*
X50580704Y-106802616D01*
X50644736Y-106948595D01*
X50671141Y-107008793D01*
X50794275Y-107197265D01*
X50794279Y-107197270D01*
X50946762Y-107362908D01*
X50978407Y-107387538D01*
X51124424Y-107501189D01*
X51322426Y-107608342D01*
X51322427Y-107608342D01*
X51322428Y-107608343D01*
X51396644Y-107633821D01*
X51535365Y-107681444D01*
X51757431Y-107718500D01*
X51757435Y-107718500D01*
X51982565Y-107718500D01*
X51982569Y-107718500D01*
X52204635Y-107681444D01*
X52417574Y-107608342D01*
X52615576Y-107501189D01*
X52793240Y-107362906D01*
X52945722Y-107197268D01*
X53034518Y-107061354D01*
X53088520Y-107015268D01*
X53158868Y-107005692D01*
X53223225Y-107035669D01*
X53245480Y-107061353D01*
X53278607Y-107112058D01*
X53334275Y-107197265D01*
X53334279Y-107197270D01*
X53486762Y-107362908D01*
X53518407Y-107387538D01*
X53664424Y-107501189D01*
X53862426Y-107608342D01*
X53862427Y-107608342D01*
X53862428Y-107608343D01*
X53936644Y-107633821D01*
X54075365Y-107681444D01*
X54297431Y-107718500D01*
X54297435Y-107718500D01*
X54522565Y-107718500D01*
X54522569Y-107718500D01*
X54744635Y-107681444D01*
X54957574Y-107608342D01*
X55155576Y-107501189D01*
X55333240Y-107362906D01*
X55394626Y-107296222D01*
X55455476Y-107259654D01*
X55526441Y-107261787D01*
X55584986Y-107301949D01*
X55605380Y-107337529D01*
X55649553Y-107455961D01*
X55649555Y-107455965D01*
X55737095Y-107572904D01*
X55854034Y-107660444D01*
X55990906Y-107711494D01*
X56051402Y-107717999D01*
X56051415Y-107718000D01*
X56696000Y-107718000D01*
X56696000Y-106802250D01*
X56753147Y-106835245D01*
X56882857Y-106870000D01*
X57017143Y-106870000D01*
X57146853Y-106835245D01*
X57204000Y-106802250D01*
X57204000Y-107718000D01*
X57848585Y-107718000D01*
X57848597Y-107717999D01*
X57909093Y-107711494D01*
X58045964Y-107660444D01*
X58045965Y-107660444D01*
X58162904Y-107572904D01*
X58250444Y-107455965D01*
X58294618Y-107337530D01*
X58337165Y-107280694D01*
X58403685Y-107255883D01*
X58473059Y-107270974D01*
X58505372Y-107296222D01*
X58510645Y-107301949D01*
X58566762Y-107362908D01*
X58598407Y-107387538D01*
X58744424Y-107501189D01*
X58942426Y-107608342D01*
X58942427Y-107608342D01*
X58942428Y-107608343D01*
X59016644Y-107633821D01*
X59155365Y-107681444D01*
X59377431Y-107718500D01*
X59377435Y-107718500D01*
X59602565Y-107718500D01*
X59602569Y-107718500D01*
X59824635Y-107681444D01*
X60037574Y-107608342D01*
X60235576Y-107501189D01*
X60413240Y-107362906D01*
X60565722Y-107197268D01*
X60654518Y-107061354D01*
X60708520Y-107015268D01*
X60778868Y-107005692D01*
X60843225Y-107035669D01*
X60865480Y-107061353D01*
X60898607Y-107112058D01*
X60954275Y-107197265D01*
X60954279Y-107197270D01*
X61106762Y-107362908D01*
X61138407Y-107387538D01*
X61284424Y-107501189D01*
X61482426Y-107608342D01*
X61482427Y-107608342D01*
X61482428Y-107608343D01*
X61556644Y-107633821D01*
X61695365Y-107681444D01*
X61917431Y-107718500D01*
X61917435Y-107718500D01*
X62142565Y-107718500D01*
X62142569Y-107718500D01*
X62364635Y-107681444D01*
X62577574Y-107608342D01*
X62775576Y-107501189D01*
X62953240Y-107362906D01*
X63105722Y-107197268D01*
X63194518Y-107061354D01*
X63248520Y-107015268D01*
X63318868Y-107005692D01*
X63383225Y-107035669D01*
X63405480Y-107061353D01*
X63438607Y-107112058D01*
X63494275Y-107197265D01*
X63494279Y-107197270D01*
X63646762Y-107362908D01*
X63678407Y-107387538D01*
X63824424Y-107501189D01*
X64022426Y-107608342D01*
X64022427Y-107608342D01*
X64022428Y-107608343D01*
X64096644Y-107633821D01*
X64235365Y-107681444D01*
X64457431Y-107718500D01*
X64457435Y-107718500D01*
X64682565Y-107718500D01*
X64682569Y-107718500D01*
X64904635Y-107681444D01*
X65117574Y-107608342D01*
X65315576Y-107501189D01*
X65493240Y-107362906D01*
X65645722Y-107197268D01*
X65734518Y-107061354D01*
X65788520Y-107015268D01*
X65858868Y-107005692D01*
X65923225Y-107035669D01*
X65945480Y-107061353D01*
X65978607Y-107112058D01*
X66034275Y-107197265D01*
X66034279Y-107197270D01*
X66186762Y-107362908D01*
X66218407Y-107387538D01*
X66364424Y-107501189D01*
X66562426Y-107608342D01*
X66562427Y-107608342D01*
X66562428Y-107608343D01*
X66636644Y-107633821D01*
X66775365Y-107681444D01*
X66997431Y-107718500D01*
X66997435Y-107718500D01*
X67222565Y-107718500D01*
X67222569Y-107718500D01*
X67432859Y-107683409D01*
X67503342Y-107691927D01*
X67542692Y-107718596D01*
X71457929Y-111633833D01*
X73151167Y-113327072D01*
X73254925Y-113396401D01*
X73370215Y-113444155D01*
X73492606Y-113468500D01*
X73492607Y-113468500D01*
X106091175Y-113468500D01*
X106091176Y-113468500D01*
X106213567Y-113444155D01*
X106328857Y-113396400D01*
X106432615Y-113327071D01*
X108208963Y-111550724D01*
X108208963Y-111550722D01*
X108219332Y-111540354D01*
X108219335Y-111540349D01*
X108638457Y-111121229D01*
X108700768Y-111087205D01*
X108771584Y-111092270D01*
X108799822Y-111107113D01*
X108843251Y-111137523D01*
X109050757Y-111234284D01*
X109271913Y-111293543D01*
X109500000Y-111313498D01*
X109728087Y-111293543D01*
X109949243Y-111234284D01*
X110156749Y-111137523D01*
X110344300Y-111006198D01*
X110506198Y-110844300D01*
X110637523Y-110656749D01*
X110734284Y-110449243D01*
X110793543Y-110228087D01*
X110813498Y-110000000D01*
X111686502Y-110000000D01*
X111706457Y-110228087D01*
X111765716Y-110449243D01*
X111862477Y-110656749D01*
X111993802Y-110844300D01*
X112155700Y-111006198D01*
X112343251Y-111137523D01*
X112550757Y-111234284D01*
X112771913Y-111293543D01*
X113000000Y-111313498D01*
X113228087Y-111293543D01*
X113449243Y-111234284D01*
X113656749Y-111137523D01*
X113844300Y-111006198D01*
X114006198Y-110844300D01*
X114137523Y-110656749D01*
X114234284Y-110449243D01*
X114293543Y-110228087D01*
X114313498Y-110000000D01*
X114293543Y-109771913D01*
X114234284Y-109550757D01*
X114137523Y-109343251D01*
X114006198Y-109155700D01*
X113844300Y-108993802D01*
X113709697Y-108899552D01*
X113656749Y-108862477D01*
X113449246Y-108765717D01*
X113449240Y-108765715D01*
X113355771Y-108740670D01*
X113228087Y-108706457D01*
X113000000Y-108686502D01*
X112771913Y-108706457D01*
X112550759Y-108765715D01*
X112550753Y-108765717D01*
X112343250Y-108862477D01*
X112155703Y-108993799D01*
X112155697Y-108993804D01*
X111993804Y-109155697D01*
X111993799Y-109155703D01*
X111862477Y-109343250D01*
X111765717Y-109550753D01*
X111765715Y-109550759D01*
X111723460Y-109708456D01*
X111706457Y-109771913D01*
X111686502Y-110000000D01*
X110813498Y-110000000D01*
X110793543Y-109771913D01*
X110734284Y-109550757D01*
X110637523Y-109343251D01*
X110506198Y-109155700D01*
X110344300Y-108993802D01*
X110209697Y-108899552D01*
X110156749Y-108862477D01*
X109949246Y-108765717D01*
X109949240Y-108765715D01*
X109855771Y-108740670D01*
X109728087Y-108706457D01*
X109500000Y-108686502D01*
X109271913Y-108706457D01*
X109130443Y-108744364D01*
X109059466Y-108742674D01*
X109000671Y-108702880D01*
X108972723Y-108637615D01*
X108984497Y-108567602D01*
X109008732Y-108533567D01*
X109421897Y-108120402D01*
X109484207Y-108086379D01*
X109510990Y-108083500D01*
X113635406Y-108083500D01*
X113703527Y-108103502D01*
X113724501Y-108120405D01*
X115190847Y-109586752D01*
X115224873Y-109649064D01*
X115223459Y-109708457D01*
X115206458Y-109771907D01*
X115206457Y-109771910D01*
X115206457Y-109771913D01*
X115186502Y-110000000D01*
X115206457Y-110228087D01*
X115265716Y-110449243D01*
X115362477Y-110656749D01*
X115493802Y-110844300D01*
X115655700Y-111006198D01*
X115843251Y-111137523D01*
X116050757Y-111234284D01*
X116271913Y-111293543D01*
X116500000Y-111313498D01*
X116728087Y-111293543D01*
X116949243Y-111234284D01*
X117156749Y-111137523D01*
X117344300Y-111006198D01*
X117506198Y-110844300D01*
X117637523Y-110656749D01*
X117734284Y-110449243D01*
X117793543Y-110228087D01*
X117813498Y-110000000D01*
X117793543Y-109771913D01*
X117734284Y-109550757D01*
X117637523Y-109343251D01*
X117506198Y-109155700D01*
X117344300Y-108993802D01*
X117209697Y-108899552D01*
X117156749Y-108862477D01*
X116949246Y-108765717D01*
X116949240Y-108765715D01*
X116855771Y-108740670D01*
X116728087Y-108706457D01*
X116500000Y-108686502D01*
X116271913Y-108706457D01*
X116271910Y-108706457D01*
X116271907Y-108706458D01*
X116208457Y-108723459D01*
X116137481Y-108721769D01*
X116086754Y-108690849D01*
X115244497Y-107848593D01*
X115210474Y-107786283D01*
X115215538Y-107715468D01*
X115258085Y-107658632D01*
X115324605Y-107633821D01*
X115333594Y-107633500D01*
X116685406Y-107633500D01*
X116753527Y-107653502D01*
X116774501Y-107670405D01*
X118690847Y-109586752D01*
X118724873Y-109649064D01*
X118723459Y-109708457D01*
X118706458Y-109771907D01*
X118706457Y-109771910D01*
X118706457Y-109771913D01*
X118686502Y-110000000D01*
X118706457Y-110228087D01*
X118765716Y-110449243D01*
X118862477Y-110656749D01*
X118993802Y-110844300D01*
X119155700Y-111006198D01*
X119343251Y-111137523D01*
X119550757Y-111234284D01*
X119771913Y-111293543D01*
X120000000Y-111313498D01*
X120228087Y-111293543D01*
X120449243Y-111234284D01*
X120656749Y-111137523D01*
X120844300Y-111006198D01*
X121006198Y-110844300D01*
X121137523Y-110656749D01*
X121234284Y-110449243D01*
X121293543Y-110228087D01*
X121313498Y-110000000D01*
X121293543Y-109771913D01*
X121234284Y-109550757D01*
X121137523Y-109343251D01*
X121006198Y-109155700D01*
X120844300Y-108993802D01*
X120709697Y-108899552D01*
X120656749Y-108862477D01*
X120449246Y-108765717D01*
X120449240Y-108765715D01*
X120355771Y-108740670D01*
X120228087Y-108706457D01*
X120000000Y-108686502D01*
X119771913Y-108706457D01*
X119771910Y-108706457D01*
X119771907Y-108706458D01*
X119708457Y-108723459D01*
X119637481Y-108721769D01*
X119586752Y-108690847D01*
X118970405Y-108074500D01*
X118294498Y-107398594D01*
X118260474Y-107336283D01*
X118265538Y-107265468D01*
X118308085Y-107208632D01*
X118374605Y-107183821D01*
X118383594Y-107183500D01*
X119735406Y-107183500D01*
X119803527Y-107203502D01*
X119824501Y-107220405D01*
X122190847Y-109586752D01*
X122224873Y-109649064D01*
X122223459Y-109708457D01*
X122206458Y-109771907D01*
X122206457Y-109771910D01*
X122206457Y-109771913D01*
X122186502Y-110000000D01*
X122206457Y-110228087D01*
X122265716Y-110449243D01*
X122362477Y-110656749D01*
X122493802Y-110844300D01*
X122655700Y-111006198D01*
X122843251Y-111137523D01*
X123050757Y-111234284D01*
X123271913Y-111293543D01*
X123500000Y-111313498D01*
X123728087Y-111293543D01*
X123949243Y-111234284D01*
X124156749Y-111137523D01*
X124344300Y-111006198D01*
X124506198Y-110844300D01*
X124637523Y-110656749D01*
X124734284Y-110449243D01*
X124793543Y-110228087D01*
X124813498Y-110000000D01*
X124793543Y-109771913D01*
X124734284Y-109550757D01*
X124637523Y-109343251D01*
X124506198Y-109155700D01*
X124344300Y-108993802D01*
X124209697Y-108899552D01*
X124156749Y-108862477D01*
X123949246Y-108765717D01*
X123949240Y-108765715D01*
X123855771Y-108740670D01*
X123728087Y-108706457D01*
X123500000Y-108686502D01*
X123271913Y-108706457D01*
X123271910Y-108706457D01*
X123271907Y-108706458D01*
X123208457Y-108723459D01*
X123137481Y-108721769D01*
X123086752Y-108690847D01*
X122244501Y-107848596D01*
X121344498Y-106948594D01*
X121310474Y-106886283D01*
X121315538Y-106815468D01*
X121358085Y-106758632D01*
X121424605Y-106733821D01*
X121433594Y-106733500D01*
X122785406Y-106733500D01*
X122853527Y-106753502D01*
X122874501Y-106770405D01*
X125690847Y-109586751D01*
X125724873Y-109649063D01*
X125723459Y-109708456D01*
X125706458Y-109771907D01*
X125706457Y-109771910D01*
X125706457Y-109771913D01*
X125686502Y-110000000D01*
X125706457Y-110228087D01*
X125765716Y-110449243D01*
X125862477Y-110656749D01*
X125993802Y-110844300D01*
X126155700Y-111006198D01*
X126343251Y-111137523D01*
X126550757Y-111234284D01*
X126771913Y-111293543D01*
X127000000Y-111313498D01*
X127228087Y-111293543D01*
X127449243Y-111234284D01*
X127656749Y-111137523D01*
X127844300Y-111006198D01*
X128006198Y-110844300D01*
X128137523Y-110656749D01*
X128234284Y-110449243D01*
X128293543Y-110228087D01*
X128313498Y-110000000D01*
X128293543Y-109771913D01*
X128234284Y-109550757D01*
X128137523Y-109343251D01*
X128006198Y-109155700D01*
X127844300Y-108993802D01*
X127709697Y-108899552D01*
X127656749Y-108862477D01*
X127449246Y-108765717D01*
X127449240Y-108765715D01*
X127355771Y-108740670D01*
X127228087Y-108706457D01*
X127000000Y-108686502D01*
X126771913Y-108706457D01*
X126771910Y-108706457D01*
X126771907Y-108706458D01*
X126708456Y-108723459D01*
X126637479Y-108721769D01*
X126586751Y-108690847D01*
X124394499Y-106498595D01*
X124360473Y-106436283D01*
X124365538Y-106365468D01*
X124408085Y-106308632D01*
X124474605Y-106283821D01*
X124483594Y-106283500D01*
X125835406Y-106283500D01*
X125903527Y-106303502D01*
X125924501Y-106320405D01*
X129190847Y-109586751D01*
X129224873Y-109649063D01*
X129223459Y-109708456D01*
X129206458Y-109771907D01*
X129206457Y-109771910D01*
X129206457Y-109771913D01*
X129186502Y-110000000D01*
X129206457Y-110228087D01*
X129265716Y-110449243D01*
X129362477Y-110656749D01*
X129493802Y-110844300D01*
X129655700Y-111006198D01*
X129843251Y-111137523D01*
X130050757Y-111234284D01*
X130271913Y-111293543D01*
X130500000Y-111313498D01*
X130728087Y-111293543D01*
X130949243Y-111234284D01*
X131156749Y-111137523D01*
X131344300Y-111006198D01*
X131506198Y-110844300D01*
X131637523Y-110656749D01*
X131734284Y-110449243D01*
X131793543Y-110228087D01*
X131813498Y-110000000D01*
X131793543Y-109771913D01*
X131734284Y-109550757D01*
X131637523Y-109343251D01*
X131506198Y-109155700D01*
X131344300Y-108993802D01*
X131209697Y-108899552D01*
X131156749Y-108862477D01*
X130949246Y-108765717D01*
X130949240Y-108765715D01*
X130855771Y-108740670D01*
X130728087Y-108706457D01*
X130500000Y-108686502D01*
X130271913Y-108706457D01*
X130271910Y-108706457D01*
X130271907Y-108706458D01*
X130208456Y-108723459D01*
X130137479Y-108721769D01*
X130086751Y-108690847D01*
X127444499Y-106048595D01*
X127410473Y-105986283D01*
X127415538Y-105915468D01*
X127458085Y-105858632D01*
X127524605Y-105833821D01*
X127533594Y-105833500D01*
X128885406Y-105833500D01*
X128953527Y-105853502D01*
X128974501Y-105870405D01*
X132690847Y-109586751D01*
X132724873Y-109649063D01*
X132723459Y-109708456D01*
X132706458Y-109771907D01*
X132706457Y-109771910D01*
X132706457Y-109771913D01*
X132686502Y-110000000D01*
X132706457Y-110228087D01*
X132765716Y-110449243D01*
X132862477Y-110656749D01*
X132993802Y-110844300D01*
X133155700Y-111006198D01*
X133343251Y-111137523D01*
X133550757Y-111234284D01*
X133771913Y-111293543D01*
X134000000Y-111313498D01*
X134228087Y-111293543D01*
X134449243Y-111234284D01*
X134656749Y-111137523D01*
X134844300Y-111006198D01*
X135006198Y-110844300D01*
X135137523Y-110656749D01*
X135234284Y-110449243D01*
X135293543Y-110228087D01*
X135313498Y-110000000D01*
X135293543Y-109771913D01*
X135234284Y-109550757D01*
X135137523Y-109343251D01*
X135006198Y-109155700D01*
X134844300Y-108993802D01*
X134709697Y-108899552D01*
X134656749Y-108862477D01*
X134449246Y-108765717D01*
X134449240Y-108765715D01*
X134355771Y-108740670D01*
X134228087Y-108706457D01*
X134000000Y-108686502D01*
X133771913Y-108706457D01*
X133771910Y-108706457D01*
X133771907Y-108706458D01*
X133708456Y-108723459D01*
X133637479Y-108721769D01*
X133586751Y-108690847D01*
X130494499Y-105598595D01*
X130460473Y-105536283D01*
X130465538Y-105465468D01*
X130508085Y-105408632D01*
X130574605Y-105383821D01*
X130583594Y-105383500D01*
X131935406Y-105383500D01*
X132003527Y-105403502D01*
X132024501Y-105420405D01*
X136190847Y-109586751D01*
X136224873Y-109649063D01*
X136223459Y-109708456D01*
X136206458Y-109771907D01*
X136206457Y-109771910D01*
X136206457Y-109771913D01*
X136186502Y-110000000D01*
X136206457Y-110228087D01*
X136265716Y-110449243D01*
X136362477Y-110656749D01*
X136493802Y-110844300D01*
X136655700Y-111006198D01*
X136843251Y-111137523D01*
X137050757Y-111234284D01*
X137271913Y-111293543D01*
X137500000Y-111313498D01*
X137728087Y-111293543D01*
X137949243Y-111234284D01*
X138156749Y-111137523D01*
X138344300Y-111006198D01*
X138506198Y-110844300D01*
X138637523Y-110656749D01*
X138734284Y-110449243D01*
X138793543Y-110228087D01*
X138813498Y-110000000D01*
X138793543Y-109771913D01*
X138734284Y-109550757D01*
X138637523Y-109343251D01*
X138506198Y-109155700D01*
X138344300Y-108993802D01*
X138209697Y-108899552D01*
X138156749Y-108862477D01*
X137949246Y-108765717D01*
X137949240Y-108765715D01*
X137855771Y-108740670D01*
X137728087Y-108706457D01*
X137500000Y-108686502D01*
X137271913Y-108706457D01*
X137271910Y-108706457D01*
X137271907Y-108706458D01*
X137208456Y-108723459D01*
X137137479Y-108721769D01*
X137086751Y-108690847D01*
X133544499Y-105148595D01*
X133510473Y-105086283D01*
X133515538Y-105015468D01*
X133558085Y-104958632D01*
X133624605Y-104933821D01*
X133633594Y-104933500D01*
X134985406Y-104933500D01*
X135053527Y-104953502D01*
X135074501Y-104970405D01*
X139690847Y-109586751D01*
X139724873Y-109649063D01*
X139723459Y-109708456D01*
X139706458Y-109771907D01*
X139706457Y-109771910D01*
X139706457Y-109771913D01*
X139686502Y-110000000D01*
X139706457Y-110228087D01*
X139765716Y-110449243D01*
X139862477Y-110656749D01*
X139993802Y-110844300D01*
X140155700Y-111006198D01*
X140343251Y-111137523D01*
X140550757Y-111234284D01*
X140771913Y-111293543D01*
X141000000Y-111313498D01*
X141228087Y-111293543D01*
X141449243Y-111234284D01*
X141656749Y-111137523D01*
X141844300Y-111006198D01*
X142006198Y-110844300D01*
X142137523Y-110656749D01*
X142234284Y-110449243D01*
X142293543Y-110228087D01*
X142313498Y-110000000D01*
X142293543Y-109771913D01*
X142234284Y-109550757D01*
X142137523Y-109343251D01*
X142006198Y-109155700D01*
X141844300Y-108993802D01*
X141709697Y-108899552D01*
X141656749Y-108862477D01*
X141449246Y-108765717D01*
X141449240Y-108765715D01*
X141355771Y-108740670D01*
X141228087Y-108706457D01*
X141000000Y-108686502D01*
X140771913Y-108706457D01*
X140771910Y-108706457D01*
X140771907Y-108706458D01*
X140708456Y-108723459D01*
X140637479Y-108721769D01*
X140586751Y-108690847D01*
X136514499Y-104618595D01*
X136480473Y-104556283D01*
X136485538Y-104485468D01*
X136528085Y-104428632D01*
X136594605Y-104403821D01*
X136603594Y-104403500D01*
X137955406Y-104403500D01*
X138023527Y-104423502D01*
X138044501Y-104440405D01*
X143190847Y-109586751D01*
X143224873Y-109649063D01*
X143223459Y-109708456D01*
X143206458Y-109771907D01*
X143206457Y-109771910D01*
X143206457Y-109771913D01*
X143186502Y-110000000D01*
X143206457Y-110228087D01*
X143265716Y-110449243D01*
X143362477Y-110656749D01*
X143493802Y-110844300D01*
X143655700Y-111006198D01*
X143843251Y-111137523D01*
X144050757Y-111234284D01*
X144271913Y-111293543D01*
X144500000Y-111313498D01*
X144728087Y-111293543D01*
X144949243Y-111234284D01*
X145156749Y-111137523D01*
X145344300Y-111006198D01*
X145506198Y-110844300D01*
X145637523Y-110656749D01*
X145734284Y-110449243D01*
X145793543Y-110228087D01*
X145813498Y-110000000D01*
X146686502Y-110000000D01*
X146706457Y-110228087D01*
X146765716Y-110449243D01*
X146862477Y-110656749D01*
X146993802Y-110844300D01*
X147155700Y-111006198D01*
X147343251Y-111137523D01*
X147550757Y-111234284D01*
X147771913Y-111293543D01*
X148000000Y-111313498D01*
X148228087Y-111293543D01*
X148449243Y-111234284D01*
X148656749Y-111137523D01*
X148844300Y-111006198D01*
X149006198Y-110844300D01*
X149137523Y-110656749D01*
X149234284Y-110449243D01*
X149293543Y-110228087D01*
X149313498Y-110000000D01*
X149293543Y-109771913D01*
X149234284Y-109550757D01*
X149137523Y-109343251D01*
X149006198Y-109155700D01*
X148844300Y-108993802D01*
X148709697Y-108899552D01*
X148656749Y-108862477D01*
X148449246Y-108765717D01*
X148449240Y-108765715D01*
X148355771Y-108740670D01*
X148228087Y-108706457D01*
X148000000Y-108686502D01*
X147771913Y-108706457D01*
X147550759Y-108765715D01*
X147550753Y-108765717D01*
X147343250Y-108862477D01*
X147155703Y-108993799D01*
X147155697Y-108993804D01*
X146993804Y-109155697D01*
X146993799Y-109155703D01*
X146862477Y-109343250D01*
X146765717Y-109550753D01*
X146765715Y-109550759D01*
X146723460Y-109708456D01*
X146706457Y-109771913D01*
X146686502Y-110000000D01*
X145813498Y-110000000D01*
X145793543Y-109771913D01*
X145734284Y-109550757D01*
X145637523Y-109343251D01*
X145506198Y-109155700D01*
X145344300Y-108993802D01*
X145209697Y-108899552D01*
X145156749Y-108862477D01*
X144949246Y-108765717D01*
X144949240Y-108765715D01*
X144855771Y-108740670D01*
X144728087Y-108706457D01*
X144500000Y-108686502D01*
X144271913Y-108706457D01*
X144271910Y-108706457D01*
X144271907Y-108706458D01*
X144208456Y-108723459D01*
X144137479Y-108721769D01*
X144086751Y-108690847D01*
X138673835Y-103277931D01*
X138673825Y-103277923D01*
X138640706Y-103255793D01*
X138595179Y-103201316D01*
X138586332Y-103130872D01*
X138607497Y-103078757D01*
X138637087Y-103036498D01*
X138637088Y-103036497D01*
X138733811Y-102829073D01*
X138733813Y-102829068D01*
X138786082Y-102634000D01*
X137811686Y-102634000D01*
X137820080Y-102625606D01*
X137872741Y-102534394D01*
X137900000Y-102432661D01*
X137900000Y-102327339D01*
X137872741Y-102225606D01*
X137820080Y-102134394D01*
X137811686Y-102126000D01*
X138786082Y-102126000D01*
X139713917Y-102126000D01*
X140688314Y-102126000D01*
X140679920Y-102134394D01*
X140627259Y-102225606D01*
X140600000Y-102327339D01*
X140600000Y-102432661D01*
X140627259Y-102534394D01*
X140679920Y-102625606D01*
X140688314Y-102634000D01*
X139713918Y-102634000D01*
X139766186Y-102829068D01*
X139766188Y-102829073D01*
X139862912Y-103036498D01*
X139994184Y-103223974D01*
X139994189Y-103223980D01*
X140156019Y-103385810D01*
X140156025Y-103385815D01*
X140343501Y-103517087D01*
X140550926Y-103613811D01*
X140550931Y-103613813D01*
X140746000Y-103666081D01*
X140746000Y-102691686D01*
X140754394Y-102700080D01*
X140845606Y-102752741D01*
X140947339Y-102780000D01*
X141052661Y-102780000D01*
X141154394Y-102752741D01*
X141245606Y-102700080D01*
X141254000Y-102691686D01*
X141254000Y-103666081D01*
X141449068Y-103613813D01*
X141449073Y-103613811D01*
X141656498Y-103517087D01*
X141843974Y-103385815D01*
X141843980Y-103385810D01*
X142005810Y-103223980D01*
X142005815Y-103223974D01*
X142137087Y-103036498D01*
X142233811Y-102829073D01*
X142233813Y-102829068D01*
X142286082Y-102634000D01*
X141311686Y-102634000D01*
X141320080Y-102625606D01*
X141372741Y-102534394D01*
X141400000Y-102432661D01*
X141400000Y-102327339D01*
X141372741Y-102225606D01*
X141320080Y-102134394D01*
X141311686Y-102126000D01*
X142286082Y-102126000D01*
X143213917Y-102126000D01*
X144188314Y-102126000D01*
X144179920Y-102134394D01*
X144127259Y-102225606D01*
X144100000Y-102327339D01*
X144100000Y-102432661D01*
X144127259Y-102534394D01*
X144179920Y-102625606D01*
X144188314Y-102634000D01*
X143213918Y-102634000D01*
X143266186Y-102829068D01*
X143266188Y-102829073D01*
X143362912Y-103036498D01*
X143494184Y-103223974D01*
X143494189Y-103223980D01*
X143656019Y-103385810D01*
X143656025Y-103385815D01*
X143843501Y-103517087D01*
X144050926Y-103613811D01*
X144050931Y-103613813D01*
X144246000Y-103666081D01*
X144246000Y-102691686D01*
X144254394Y-102700080D01*
X144345606Y-102752741D01*
X144447339Y-102780000D01*
X144552661Y-102780000D01*
X144654394Y-102752741D01*
X144745606Y-102700080D01*
X144754000Y-102691686D01*
X144754000Y-103666081D01*
X144949068Y-103613813D01*
X144949073Y-103613811D01*
X145156498Y-103517087D01*
X145343974Y-103385815D01*
X145343980Y-103385810D01*
X145505810Y-103223980D01*
X145505815Y-103223974D01*
X145637087Y-103036498D01*
X145733811Y-102829073D01*
X145733813Y-102829068D01*
X145786082Y-102634000D01*
X144811686Y-102634000D01*
X144820080Y-102625606D01*
X144872741Y-102534394D01*
X144900000Y-102432661D01*
X144900000Y-102327339D01*
X144872741Y-102225606D01*
X144820080Y-102134394D01*
X144811686Y-102126000D01*
X145786082Y-102126000D01*
X146713917Y-102126000D01*
X147688314Y-102126000D01*
X147679920Y-102134394D01*
X147627259Y-102225606D01*
X147600000Y-102327339D01*
X147600000Y-102432661D01*
X147627259Y-102534394D01*
X147679920Y-102625606D01*
X147688314Y-102634000D01*
X146713918Y-102634000D01*
X146766186Y-102829068D01*
X146766188Y-102829073D01*
X146862912Y-103036498D01*
X146994184Y-103223974D01*
X146994189Y-103223980D01*
X147156019Y-103385810D01*
X147156025Y-103385815D01*
X147343501Y-103517087D01*
X147550926Y-103613811D01*
X147550931Y-103613813D01*
X147746000Y-103666081D01*
X147746000Y-102691686D01*
X147754394Y-102700080D01*
X147845606Y-102752741D01*
X147947339Y-102780000D01*
X148052661Y-102780000D01*
X148154394Y-102752741D01*
X148245606Y-102700080D01*
X148254000Y-102691686D01*
X148254000Y-103666081D01*
X148449068Y-103613813D01*
X148449073Y-103613811D01*
X148656498Y-103517087D01*
X148843974Y-103385815D01*
X148843980Y-103385810D01*
X149005810Y-103223980D01*
X149005815Y-103223974D01*
X149137087Y-103036498D01*
X149233811Y-102829073D01*
X149233813Y-102829068D01*
X149286082Y-102634000D01*
X148311686Y-102634000D01*
X148320080Y-102625606D01*
X148372741Y-102534394D01*
X148400000Y-102432661D01*
X148400000Y-102327339D01*
X148372741Y-102225606D01*
X148320080Y-102134394D01*
X148311686Y-102126000D01*
X149286082Y-102126000D01*
X149233813Y-101930931D01*
X149233811Y-101930926D01*
X149137087Y-101723501D01*
X149005815Y-101536025D01*
X149005810Y-101536019D01*
X148843980Y-101374189D01*
X148843974Y-101374184D01*
X148656498Y-101242912D01*
X148449073Y-101146188D01*
X148449071Y-101146187D01*
X148254000Y-101093917D01*
X148254000Y-102068314D01*
X148245606Y-102059920D01*
X148154394Y-102007259D01*
X148052661Y-101980000D01*
X147947339Y-101980000D01*
X147845606Y-102007259D01*
X147754394Y-102059920D01*
X147746000Y-102068314D01*
X147746000Y-101093917D01*
X147550928Y-101146187D01*
X147550926Y-101146188D01*
X147343501Y-101242912D01*
X147156025Y-101374184D01*
X147156019Y-101374189D01*
X146994189Y-101536019D01*
X146994184Y-101536025D01*
X146862912Y-101723501D01*
X146766188Y-101930926D01*
X146766186Y-101930931D01*
X146713917Y-102126000D01*
X145786082Y-102126000D01*
X145733813Y-101930931D01*
X145733811Y-101930926D01*
X145637087Y-101723501D01*
X145505815Y-101536025D01*
X145505810Y-101536019D01*
X145343980Y-101374189D01*
X145343974Y-101374184D01*
X145156498Y-101242912D01*
X144949073Y-101146188D01*
X144949071Y-101146187D01*
X144754000Y-101093917D01*
X144754000Y-102068314D01*
X144745606Y-102059920D01*
X144654394Y-102007259D01*
X144552661Y-101980000D01*
X144447339Y-101980000D01*
X144345606Y-102007259D01*
X144254394Y-102059920D01*
X144246000Y-102068314D01*
X144246000Y-101093917D01*
X144245999Y-101093917D01*
X144050928Y-101146187D01*
X144050926Y-101146188D01*
X143843501Y-101242912D01*
X143656025Y-101374184D01*
X143656019Y-101374189D01*
X143494189Y-101536019D01*
X143494184Y-101536025D01*
X143362912Y-101723501D01*
X143266188Y-101930926D01*
X143266186Y-101930931D01*
X143213917Y-102126000D01*
X142286082Y-102126000D01*
X142233813Y-101930931D01*
X142233811Y-101930926D01*
X142137087Y-101723501D01*
X142005815Y-101536025D01*
X142005810Y-101536019D01*
X141843980Y-101374189D01*
X141843974Y-101374184D01*
X141656498Y-101242912D01*
X141449073Y-101146188D01*
X141449071Y-101146187D01*
X141254000Y-101093917D01*
X141254000Y-102068314D01*
X141245606Y-102059920D01*
X141154394Y-102007259D01*
X141052661Y-101980000D01*
X140947339Y-101980000D01*
X140845606Y-102007259D01*
X140754394Y-102059920D01*
X140746000Y-102068314D01*
X140746000Y-101093917D01*
X140550928Y-101146187D01*
X140550926Y-101146188D01*
X140343501Y-101242912D01*
X140156025Y-101374184D01*
X140156019Y-101374189D01*
X139994189Y-101536019D01*
X139994184Y-101536025D01*
X139862912Y-101723501D01*
X139766188Y-101930926D01*
X139766186Y-101930931D01*
X139713917Y-102126000D01*
X138786082Y-102126000D01*
X138733813Y-101930931D01*
X138733811Y-101930926D01*
X138637087Y-101723501D01*
X138505815Y-101536025D01*
X138505810Y-101536019D01*
X138343980Y-101374189D01*
X138343974Y-101374184D01*
X138156498Y-101242912D01*
X137949073Y-101146188D01*
X137949071Y-101146187D01*
X137754000Y-101093917D01*
X137754000Y-102068314D01*
X137745606Y-102059920D01*
X137654394Y-102007259D01*
X137552661Y-101980000D01*
X137447339Y-101980000D01*
X137345606Y-102007259D01*
X137254394Y-102059920D01*
X137246000Y-102068314D01*
X137246000Y-101093917D01*
X137050928Y-101146187D01*
X137050926Y-101146188D01*
X136843501Y-101242912D01*
X136656025Y-101374184D01*
X136656019Y-101374189D01*
X136494189Y-101536019D01*
X136494184Y-101536025D01*
X136362912Y-101723501D01*
X136266188Y-101930926D01*
X136266186Y-101930931D01*
X136213917Y-102126000D01*
X137188314Y-102126000D01*
X137179920Y-102134394D01*
X137127259Y-102225606D01*
X137100000Y-102327339D01*
X137100000Y-102432661D01*
X137127259Y-102534394D01*
X137179920Y-102625606D01*
X137188314Y-102634000D01*
X136213918Y-102634000D01*
X136266186Y-102829068D01*
X136266188Y-102829073D01*
X136325958Y-102957250D01*
X136336619Y-103027442D01*
X136307639Y-103092254D01*
X136248219Y-103131111D01*
X136211763Y-103136500D01*
X135288237Y-103136500D01*
X135220116Y-103116498D01*
X135173623Y-103062842D01*
X135163519Y-102992568D01*
X135174042Y-102957250D01*
X135233811Y-102829073D01*
X135233813Y-102829068D01*
X135286082Y-102634000D01*
X134311686Y-102634000D01*
X134320080Y-102625606D01*
X134372741Y-102534394D01*
X134400000Y-102432661D01*
X134400000Y-102327339D01*
X134372741Y-102225606D01*
X134320080Y-102134394D01*
X134311686Y-102126000D01*
X135286082Y-102126000D01*
X135233813Y-101930931D01*
X135233811Y-101930926D01*
X135137087Y-101723501D01*
X135005815Y-101536025D01*
X135005810Y-101536019D01*
X134843980Y-101374189D01*
X134843974Y-101374184D01*
X134656498Y-101242912D01*
X134449073Y-101146188D01*
X134449071Y-101146187D01*
X134254000Y-101093917D01*
X134254000Y-102068314D01*
X134245606Y-102059920D01*
X134154394Y-102007259D01*
X134052661Y-101980000D01*
X133947339Y-101980000D01*
X133845606Y-102007259D01*
X133754394Y-102059920D01*
X133746000Y-102068314D01*
X133746000Y-101093917D01*
X133550928Y-101146187D01*
X133550926Y-101146188D01*
X133343501Y-101242912D01*
X133156025Y-101374184D01*
X133156019Y-101374189D01*
X132994189Y-101536019D01*
X132994184Y-101536025D01*
X132862912Y-101723501D01*
X132766188Y-101930926D01*
X132766186Y-101930931D01*
X132713917Y-102126000D01*
X133688314Y-102126000D01*
X133679920Y-102134394D01*
X133627259Y-102225606D01*
X133600000Y-102327339D01*
X133600000Y-102432661D01*
X133627259Y-102534394D01*
X133679920Y-102625606D01*
X133688314Y-102634000D01*
X132713918Y-102634000D01*
X132766186Y-102829068D01*
X132766188Y-102829073D01*
X132825958Y-102957250D01*
X132836619Y-103027442D01*
X132807639Y-103092254D01*
X132748219Y-103131111D01*
X132711763Y-103136500D01*
X131788237Y-103136500D01*
X131720116Y-103116498D01*
X131673623Y-103062842D01*
X131663519Y-102992568D01*
X131674042Y-102957250D01*
X131733811Y-102829073D01*
X131733813Y-102829068D01*
X131786082Y-102634000D01*
X130811686Y-102634000D01*
X130820080Y-102625606D01*
X130872741Y-102534394D01*
X130900000Y-102432661D01*
X130900000Y-102327339D01*
X130872741Y-102225606D01*
X130820080Y-102134394D01*
X130811686Y-102126000D01*
X131786082Y-102126000D01*
X131733813Y-101930931D01*
X131733811Y-101930926D01*
X131637087Y-101723501D01*
X131505815Y-101536025D01*
X131505810Y-101536019D01*
X131343980Y-101374189D01*
X131343974Y-101374184D01*
X131156498Y-101242912D01*
X130949073Y-101146188D01*
X130949071Y-101146187D01*
X130754000Y-101093917D01*
X130754000Y-102068314D01*
X130745606Y-102059920D01*
X130654394Y-102007259D01*
X130552661Y-101980000D01*
X130447339Y-101980000D01*
X130345606Y-102007259D01*
X130254394Y-102059920D01*
X130246000Y-102068314D01*
X130246000Y-101093917D01*
X130050928Y-101146187D01*
X130050926Y-101146188D01*
X129843501Y-101242912D01*
X129656025Y-101374184D01*
X129656019Y-101374189D01*
X129494189Y-101536019D01*
X129494184Y-101536025D01*
X129362912Y-101723501D01*
X129266188Y-101930926D01*
X129266186Y-101930931D01*
X129213917Y-102126000D01*
X130188314Y-102126000D01*
X130179920Y-102134394D01*
X130127259Y-102225606D01*
X130100000Y-102327339D01*
X130100000Y-102432661D01*
X130127259Y-102534394D01*
X130179920Y-102625606D01*
X130188314Y-102634000D01*
X129213918Y-102634000D01*
X129266186Y-102829068D01*
X129266188Y-102829073D01*
X129325958Y-102957250D01*
X129336619Y-103027442D01*
X129307639Y-103092254D01*
X129248219Y-103131111D01*
X129211763Y-103136500D01*
X128288237Y-103136500D01*
X128220116Y-103116498D01*
X128173623Y-103062842D01*
X128163519Y-102992568D01*
X128174042Y-102957250D01*
X128233811Y-102829073D01*
X128233813Y-102829068D01*
X128286082Y-102634000D01*
X127311686Y-102634000D01*
X127320080Y-102625606D01*
X127372741Y-102534394D01*
X127400000Y-102432661D01*
X127400000Y-102327339D01*
X127372741Y-102225606D01*
X127320080Y-102134394D01*
X127311686Y-102126000D01*
X128286082Y-102126000D01*
X128233813Y-101930931D01*
X128233811Y-101930926D01*
X128137087Y-101723501D01*
X128005815Y-101536025D01*
X128005810Y-101536019D01*
X127843980Y-101374189D01*
X127843974Y-101374184D01*
X127656498Y-101242912D01*
X127449073Y-101146188D01*
X127449071Y-101146187D01*
X127254000Y-101093917D01*
X127254000Y-102068314D01*
X127245606Y-102059920D01*
X127154394Y-102007259D01*
X127052661Y-101980000D01*
X126947339Y-101980000D01*
X126845606Y-102007259D01*
X126754394Y-102059920D01*
X126746000Y-102068314D01*
X126746000Y-101093917D01*
X126745999Y-101093917D01*
X126550928Y-101146187D01*
X126550926Y-101146188D01*
X126343501Y-101242912D01*
X126156025Y-101374184D01*
X126156019Y-101374189D01*
X125994189Y-101536019D01*
X125994184Y-101536025D01*
X125862912Y-101723501D01*
X125766188Y-101930926D01*
X125766186Y-101930931D01*
X125713917Y-102126000D01*
X126688314Y-102126000D01*
X126679920Y-102134394D01*
X126627259Y-102225606D01*
X126600000Y-102327339D01*
X126600000Y-102432661D01*
X126627259Y-102534394D01*
X126679920Y-102625606D01*
X126688314Y-102634000D01*
X125713918Y-102634000D01*
X125766186Y-102829068D01*
X125766188Y-102829073D01*
X125825958Y-102957250D01*
X125836619Y-103027442D01*
X125807639Y-103092254D01*
X125748219Y-103131111D01*
X125711763Y-103136500D01*
X124788237Y-103136500D01*
X124720116Y-103116498D01*
X124673623Y-103062842D01*
X124663519Y-102992568D01*
X124674042Y-102957250D01*
X124733811Y-102829073D01*
X124733813Y-102829068D01*
X124786082Y-102634000D01*
X123811686Y-102634000D01*
X123820080Y-102625606D01*
X123872741Y-102534394D01*
X123900000Y-102432661D01*
X123900000Y-102327339D01*
X123872741Y-102225606D01*
X123820080Y-102134394D01*
X123811686Y-102126000D01*
X124786082Y-102126000D01*
X124733813Y-101930931D01*
X124733811Y-101930926D01*
X124637087Y-101723501D01*
X124505815Y-101536025D01*
X124505810Y-101536019D01*
X124343980Y-101374189D01*
X124343974Y-101374184D01*
X124156498Y-101242912D01*
X123949073Y-101146188D01*
X123949071Y-101146187D01*
X123754000Y-101093917D01*
X123754000Y-102068314D01*
X123745606Y-102059920D01*
X123654394Y-102007259D01*
X123552661Y-101980000D01*
X123447339Y-101980000D01*
X123345606Y-102007259D01*
X123254394Y-102059920D01*
X123246000Y-102068314D01*
X123246000Y-101093917D01*
X123245999Y-101093917D01*
X123050928Y-101146187D01*
X123050926Y-101146188D01*
X122843501Y-101242912D01*
X122656025Y-101374184D01*
X122656019Y-101374189D01*
X122494189Y-101536019D01*
X122494184Y-101536025D01*
X122362912Y-101723501D01*
X122266188Y-101930926D01*
X122266186Y-101930931D01*
X122213917Y-102126000D01*
X123188314Y-102126000D01*
X123179920Y-102134394D01*
X123127259Y-102225606D01*
X123100000Y-102327339D01*
X123100000Y-102432661D01*
X123127259Y-102534394D01*
X123179920Y-102625606D01*
X123188314Y-102634000D01*
X122213918Y-102634000D01*
X122266186Y-102829068D01*
X122266188Y-102829073D01*
X122325958Y-102957250D01*
X122336619Y-103027442D01*
X122307639Y-103092254D01*
X122248219Y-103131111D01*
X122211763Y-103136500D01*
X121288237Y-103136500D01*
X121220116Y-103116498D01*
X121173623Y-103062842D01*
X121163519Y-102992568D01*
X121174042Y-102957250D01*
X121233811Y-102829073D01*
X121233813Y-102829068D01*
X121286082Y-102634000D01*
X120311686Y-102634000D01*
X120320080Y-102625606D01*
X120372741Y-102534394D01*
X120400000Y-102432661D01*
X120400000Y-102327339D01*
X120372741Y-102225606D01*
X120320080Y-102134394D01*
X120311686Y-102126000D01*
X121286082Y-102126000D01*
X121233813Y-101930931D01*
X121233811Y-101930926D01*
X121137087Y-101723501D01*
X121005815Y-101536025D01*
X121005810Y-101536019D01*
X120843980Y-101374189D01*
X120843974Y-101374184D01*
X120656498Y-101242912D01*
X120449073Y-101146188D01*
X120449071Y-101146187D01*
X120254000Y-101093917D01*
X120254000Y-102068314D01*
X120245606Y-102059920D01*
X120154394Y-102007259D01*
X120052661Y-101980000D01*
X119947339Y-101980000D01*
X119845606Y-102007259D01*
X119754394Y-102059920D01*
X119746000Y-102068314D01*
X119746000Y-101093917D01*
X119745999Y-101093917D01*
X119550928Y-101146187D01*
X119550926Y-101146188D01*
X119343501Y-101242912D01*
X119156025Y-101374184D01*
X119156019Y-101374189D01*
X118994189Y-101536019D01*
X118994184Y-101536025D01*
X118862912Y-101723501D01*
X118766188Y-101930926D01*
X118766186Y-101930931D01*
X118713917Y-102126000D01*
X119688314Y-102126000D01*
X119679920Y-102134394D01*
X119627259Y-102225606D01*
X119600000Y-102327339D01*
X119600000Y-102432661D01*
X119627259Y-102534394D01*
X119679920Y-102625606D01*
X119688314Y-102634000D01*
X118713918Y-102634000D01*
X118766186Y-102829068D01*
X118766188Y-102829073D01*
X118825958Y-102957250D01*
X118836619Y-103027442D01*
X118807639Y-103092254D01*
X118748219Y-103131111D01*
X118711763Y-103136500D01*
X117788237Y-103136500D01*
X117720116Y-103116498D01*
X117673623Y-103062842D01*
X117663519Y-102992568D01*
X117674042Y-102957250D01*
X117733811Y-102829073D01*
X117733813Y-102829068D01*
X117786082Y-102634000D01*
X116811686Y-102634000D01*
X116820080Y-102625606D01*
X116872741Y-102534394D01*
X116900000Y-102432661D01*
X116900000Y-102327339D01*
X116872741Y-102225606D01*
X116820080Y-102134394D01*
X116811686Y-102126000D01*
X117786082Y-102126000D01*
X117733813Y-101930931D01*
X117733811Y-101930926D01*
X117637087Y-101723501D01*
X117505815Y-101536025D01*
X117505810Y-101536019D01*
X117343980Y-101374189D01*
X117343974Y-101374184D01*
X117156498Y-101242912D01*
X116949073Y-101146188D01*
X116949071Y-101146187D01*
X116754000Y-101093917D01*
X116754000Y-102068314D01*
X116745606Y-102059920D01*
X116654394Y-102007259D01*
X116552661Y-101980000D01*
X116447339Y-101980000D01*
X116345606Y-102007259D01*
X116254394Y-102059920D01*
X116246000Y-102068314D01*
X116246000Y-101093917D01*
X116050928Y-101146187D01*
X116050926Y-101146188D01*
X115843501Y-101242912D01*
X115656025Y-101374184D01*
X115656019Y-101374189D01*
X115494189Y-101536019D01*
X115494184Y-101536025D01*
X115362912Y-101723501D01*
X115266188Y-101930926D01*
X115266186Y-101930931D01*
X115213917Y-102126000D01*
X116188314Y-102126000D01*
X116179920Y-102134394D01*
X116127259Y-102225606D01*
X116100000Y-102327339D01*
X116100000Y-102432661D01*
X116127259Y-102534394D01*
X116179920Y-102625606D01*
X116188314Y-102634000D01*
X115213918Y-102634000D01*
X115266186Y-102829068D01*
X115266188Y-102829073D01*
X115325958Y-102957250D01*
X115336619Y-103027442D01*
X115307639Y-103092254D01*
X115248219Y-103131111D01*
X115211763Y-103136500D01*
X114288237Y-103136500D01*
X114220116Y-103116498D01*
X114173623Y-103062842D01*
X114163519Y-102992568D01*
X114174042Y-102957250D01*
X114233811Y-102829073D01*
X114233813Y-102829068D01*
X114286082Y-102634000D01*
X113311686Y-102634000D01*
X113320080Y-102625606D01*
X113372741Y-102534394D01*
X113400000Y-102432661D01*
X113400000Y-102327339D01*
X113372741Y-102225606D01*
X113320080Y-102134394D01*
X113311686Y-102126000D01*
X114286082Y-102126000D01*
X114233813Y-101930931D01*
X114233811Y-101930926D01*
X114137087Y-101723501D01*
X114005815Y-101536025D01*
X114005810Y-101536019D01*
X113843980Y-101374189D01*
X113843974Y-101374184D01*
X113656498Y-101242912D01*
X113449073Y-101146188D01*
X113449071Y-101146187D01*
X113254000Y-101093917D01*
X113254000Y-102068314D01*
X113245606Y-102059920D01*
X113154394Y-102007259D01*
X113052661Y-101980000D01*
X112947339Y-101980000D01*
X112845606Y-102007259D01*
X112754394Y-102059920D01*
X112746000Y-102068314D01*
X112746000Y-101093917D01*
X112745999Y-101093917D01*
X112550928Y-101146187D01*
X112550926Y-101146188D01*
X112343501Y-101242912D01*
X112156025Y-101374184D01*
X112156019Y-101374189D01*
X111994189Y-101536019D01*
X111994184Y-101536025D01*
X111862912Y-101723501D01*
X111766188Y-101930926D01*
X111766186Y-101930931D01*
X111713917Y-102126000D01*
X112688314Y-102126000D01*
X112679920Y-102134394D01*
X112627259Y-102225606D01*
X112600000Y-102327339D01*
X112600000Y-102432661D01*
X112627259Y-102534394D01*
X112679920Y-102625606D01*
X112688314Y-102634000D01*
X111713918Y-102634000D01*
X111766186Y-102829068D01*
X111766188Y-102829073D01*
X111825958Y-102957250D01*
X111836619Y-103027442D01*
X111807639Y-103092254D01*
X111748219Y-103131111D01*
X111711763Y-103136500D01*
X110788237Y-103136500D01*
X110720116Y-103116498D01*
X110673623Y-103062842D01*
X110663519Y-102992568D01*
X110674042Y-102957250D01*
X110733811Y-102829073D01*
X110733813Y-102829068D01*
X110786082Y-102634000D01*
X109811686Y-102634000D01*
X109820080Y-102625606D01*
X109872741Y-102534394D01*
X109900000Y-102432661D01*
X109900000Y-102327339D01*
X109872741Y-102225606D01*
X109820080Y-102134394D01*
X109811686Y-102126000D01*
X110786082Y-102126000D01*
X110733813Y-101930931D01*
X110733811Y-101930926D01*
X110637087Y-101723501D01*
X110505815Y-101536025D01*
X110505810Y-101536019D01*
X110343980Y-101374189D01*
X110343974Y-101374184D01*
X110156498Y-101242912D01*
X109949073Y-101146188D01*
X109949071Y-101146187D01*
X109754000Y-101093917D01*
X109754000Y-102068314D01*
X109745606Y-102059920D01*
X109654394Y-102007259D01*
X109552661Y-101980000D01*
X109447339Y-101980000D01*
X109345606Y-102007259D01*
X109254394Y-102059920D01*
X109246000Y-102068314D01*
X109246000Y-101093917D01*
X109245999Y-101093917D01*
X109050928Y-101146187D01*
X109050926Y-101146188D01*
X108843501Y-101242912D01*
X108656025Y-101374184D01*
X108656019Y-101374189D01*
X108494189Y-101536019D01*
X108494184Y-101536025D01*
X108362912Y-101723501D01*
X108266188Y-101930926D01*
X108266186Y-101930931D01*
X108213917Y-102126000D01*
X109188314Y-102126000D01*
X109179920Y-102134394D01*
X109127259Y-102225606D01*
X109100000Y-102327339D01*
X109100000Y-102432661D01*
X109127259Y-102534394D01*
X109179920Y-102625606D01*
X109188314Y-102634000D01*
X108213918Y-102634000D01*
X108266186Y-102829068D01*
X108266188Y-102829073D01*
X108325958Y-102957250D01*
X108336619Y-103027442D01*
X108307639Y-103092254D01*
X108248219Y-103131111D01*
X108211763Y-103136500D01*
X107288237Y-103136500D01*
X107220116Y-103116498D01*
X107173623Y-103062842D01*
X107163519Y-102992568D01*
X107174042Y-102957250D01*
X107233811Y-102829073D01*
X107233813Y-102829068D01*
X107286082Y-102634000D01*
X106311686Y-102634000D01*
X106320080Y-102625606D01*
X106372741Y-102534394D01*
X106400000Y-102432661D01*
X106400000Y-102327339D01*
X106372741Y-102225606D01*
X106320080Y-102134394D01*
X106311686Y-102126000D01*
X107286082Y-102126000D01*
X107233813Y-101930931D01*
X107233811Y-101930926D01*
X107137087Y-101723501D01*
X107005815Y-101536025D01*
X107005810Y-101536019D01*
X106843980Y-101374189D01*
X106843974Y-101374184D01*
X106656498Y-101242912D01*
X106449073Y-101146188D01*
X106449071Y-101146187D01*
X106254000Y-101093917D01*
X106254000Y-102068314D01*
X106245606Y-102059920D01*
X106154394Y-102007259D01*
X106052661Y-101980000D01*
X105947339Y-101980000D01*
X105845606Y-102007259D01*
X105754394Y-102059920D01*
X105746000Y-102068314D01*
X105746000Y-101093917D01*
X105745999Y-101093917D01*
X105550928Y-101146187D01*
X105550926Y-101146188D01*
X105343501Y-101242912D01*
X105156025Y-101374184D01*
X105156019Y-101374189D01*
X104994189Y-101536019D01*
X104994184Y-101536025D01*
X104862912Y-101723501D01*
X104766188Y-101930926D01*
X104766186Y-101930931D01*
X104713917Y-102126000D01*
X105688314Y-102126000D01*
X105679920Y-102134394D01*
X105627259Y-102225606D01*
X105600000Y-102327339D01*
X105600000Y-102432661D01*
X105627259Y-102534394D01*
X105679920Y-102625606D01*
X105688314Y-102634000D01*
X104713918Y-102634000D01*
X104766186Y-102829068D01*
X104766188Y-102829073D01*
X104825958Y-102957250D01*
X104836619Y-103027442D01*
X104807639Y-103092254D01*
X104748219Y-103131111D01*
X104711763Y-103136500D01*
X95007603Y-103136500D01*
X94934568Y-103151028D01*
X94885215Y-103160845D01*
X94885213Y-103160845D01*
X94885212Y-103160846D01*
X94769923Y-103208601D01*
X94666171Y-103277926D01*
X94666169Y-103277927D01*
X92942691Y-105001404D01*
X92880379Y-105035429D01*
X92832858Y-105036590D01*
X92706275Y-105015468D01*
X92622569Y-105001500D01*
X92397431Y-105001500D01*
X92249211Y-105026233D01*
X92175369Y-105038555D01*
X92175360Y-105038557D01*
X91962428Y-105111656D01*
X91962426Y-105111658D01*
X91764426Y-105218810D01*
X91764424Y-105218811D01*
X91586762Y-105357091D01*
X91434279Y-105522729D01*
X91345483Y-105658643D01*
X91291479Y-105704731D01*
X91221131Y-105714306D01*
X91156774Y-105684329D01*
X91134517Y-105658643D01*
X91045720Y-105522729D01*
X90893237Y-105357091D01*
X90773684Y-105264039D01*
X90715576Y-105218811D01*
X90517574Y-105111658D01*
X90517572Y-105111657D01*
X90517571Y-105111656D01*
X90304639Y-105038557D01*
X90304630Y-105038555D01*
X90260476Y-105031187D01*
X90082569Y-105001500D01*
X89857431Y-105001500D01*
X89709211Y-105026233D01*
X89635369Y-105038555D01*
X89635360Y-105038557D01*
X89422428Y-105111656D01*
X89422426Y-105111658D01*
X89224426Y-105218810D01*
X89224424Y-105218811D01*
X89046762Y-105357091D01*
X88894279Y-105522729D01*
X88805483Y-105658643D01*
X88751479Y-105704731D01*
X88681131Y-105714306D01*
X88616774Y-105684329D01*
X88594517Y-105658643D01*
X88505720Y-105522729D01*
X88353237Y-105357091D01*
X88233684Y-105264039D01*
X88175576Y-105218811D01*
X87977574Y-105111658D01*
X87977572Y-105111657D01*
X87977571Y-105111656D01*
X87764639Y-105038557D01*
X87764630Y-105038555D01*
X87720476Y-105031187D01*
X87542569Y-105001500D01*
X87317431Y-105001500D01*
X87169211Y-105026233D01*
X87095369Y-105038555D01*
X87095360Y-105038557D01*
X86882428Y-105111656D01*
X86882426Y-105111658D01*
X86684426Y-105218810D01*
X86684424Y-105218811D01*
X86506762Y-105357091D01*
X86354279Y-105522729D01*
X86265483Y-105658643D01*
X86211479Y-105704731D01*
X86141131Y-105714306D01*
X86076774Y-105684329D01*
X86054517Y-105658643D01*
X85965720Y-105522729D01*
X85813237Y-105357091D01*
X85693684Y-105264039D01*
X85635576Y-105218811D01*
X85437574Y-105111658D01*
X85437572Y-105111657D01*
X85437571Y-105111656D01*
X85224639Y-105038557D01*
X85224630Y-105038555D01*
X85180476Y-105031187D01*
X85002569Y-105001500D01*
X84777431Y-105001500D01*
X84629211Y-105026233D01*
X84555369Y-105038555D01*
X84555360Y-105038557D01*
X84342428Y-105111656D01*
X84342426Y-105111658D01*
X84144426Y-105218810D01*
X84144424Y-105218811D01*
X83966759Y-105357094D01*
X83905374Y-105423775D01*
X83844521Y-105460346D01*
X83773557Y-105458211D01*
X83715012Y-105418049D01*
X83694618Y-105382470D01*
X83650443Y-105264033D01*
X83562904Y-105147095D01*
X83445965Y-105059555D01*
X83309093Y-105008505D01*
X83248597Y-105002000D01*
X82604000Y-105002000D01*
X82604000Y-105917749D01*
X82546853Y-105884755D01*
X82417143Y-105850000D01*
X82282857Y-105850000D01*
X82153147Y-105884755D01*
X82096000Y-105917749D01*
X82096000Y-105002000D01*
X81451402Y-105002000D01*
X81390906Y-105008505D01*
X81254035Y-105059555D01*
X81254034Y-105059555D01*
X81137095Y-105147095D01*
X81049555Y-105264034D01*
X81049553Y-105264039D01*
X81005380Y-105382470D01*
X80962833Y-105439306D01*
X80896313Y-105464116D01*
X80826939Y-105449024D01*
X80794626Y-105423777D01*
X80733240Y-105357094D01*
X80733239Y-105357093D01*
X80733237Y-105357091D01*
X80613684Y-105264039D01*
X80555576Y-105218811D01*
X80357574Y-105111658D01*
X80357572Y-105111657D01*
X80357571Y-105111656D01*
X80144639Y-105038557D01*
X80144630Y-105038555D01*
X80100476Y-105031187D01*
X79922569Y-105001500D01*
X79697431Y-105001500D01*
X79549211Y-105026233D01*
X79475369Y-105038555D01*
X79475360Y-105038557D01*
X79262428Y-105111656D01*
X79262426Y-105111658D01*
X79064426Y-105218810D01*
X79064424Y-105218811D01*
X78886762Y-105357091D01*
X78734279Y-105522729D01*
X78645483Y-105658643D01*
X78591479Y-105704731D01*
X78521131Y-105714306D01*
X78456774Y-105684329D01*
X78434517Y-105658643D01*
X78345720Y-105522729D01*
X78193237Y-105357091D01*
X78073684Y-105264039D01*
X78015576Y-105218811D01*
X77817574Y-105111658D01*
X77817572Y-105111657D01*
X77817571Y-105111656D01*
X77604639Y-105038557D01*
X77604630Y-105038555D01*
X77560476Y-105031187D01*
X77382569Y-105001500D01*
X77157431Y-105001500D01*
X77009211Y-105026233D01*
X76935369Y-105038555D01*
X76935360Y-105038557D01*
X76722428Y-105111656D01*
X76722426Y-105111658D01*
X76524426Y-105218810D01*
X76524424Y-105218811D01*
X76346762Y-105357091D01*
X76194279Y-105522729D01*
X76105483Y-105658643D01*
X76051479Y-105704731D01*
X75981131Y-105714306D01*
X75916774Y-105684329D01*
X75894517Y-105658643D01*
X75805720Y-105522729D01*
X75653237Y-105357091D01*
X75533684Y-105264039D01*
X75475576Y-105218811D01*
X75277574Y-105111658D01*
X75277572Y-105111657D01*
X75277571Y-105111656D01*
X75064639Y-105038557D01*
X75064630Y-105038555D01*
X75020476Y-105031187D01*
X74842569Y-105001500D01*
X74617431Y-105001500D01*
X74469211Y-105026233D01*
X74395369Y-105038555D01*
X74395360Y-105038557D01*
X74182428Y-105111656D01*
X74182426Y-105111658D01*
X73984426Y-105218810D01*
X73984424Y-105218811D01*
X73806762Y-105357091D01*
X73654279Y-105522729D01*
X73565483Y-105658643D01*
X73511479Y-105704731D01*
X73441131Y-105714306D01*
X73376774Y-105684329D01*
X73354517Y-105658643D01*
X73265720Y-105522729D01*
X73113237Y-105357091D01*
X72993684Y-105264039D01*
X72935576Y-105218811D01*
X72737574Y-105111658D01*
X72737572Y-105111657D01*
X72737571Y-105111656D01*
X72524639Y-105038557D01*
X72524630Y-105038555D01*
X72480476Y-105031187D01*
X72302569Y-105001500D01*
X72077431Y-105001500D01*
X71929211Y-105026233D01*
X71855369Y-105038555D01*
X71855360Y-105038557D01*
X71642428Y-105111656D01*
X71642426Y-105111658D01*
X71444426Y-105218810D01*
X71444424Y-105218811D01*
X71266759Y-105357094D01*
X71205374Y-105423775D01*
X71144521Y-105460346D01*
X71073557Y-105458211D01*
X71015012Y-105418049D01*
X70994618Y-105382470D01*
X70950443Y-105264033D01*
X70862904Y-105147095D01*
X70745965Y-105059555D01*
X70609093Y-105008505D01*
X70548597Y-105002000D01*
X69904000Y-105002000D01*
X69904000Y-105917749D01*
X69846853Y-105884755D01*
X69717143Y-105850000D01*
X69582857Y-105850000D01*
X69453147Y-105884755D01*
X69396000Y-105917749D01*
X69396000Y-105002000D01*
X68751402Y-105002000D01*
X68690906Y-105008505D01*
X68554035Y-105059555D01*
X68554034Y-105059555D01*
X68437095Y-105147095D01*
X68349555Y-105264034D01*
X68349553Y-105264039D01*
X68305380Y-105382470D01*
X68262833Y-105439306D01*
X68196313Y-105464116D01*
X68126939Y-105449024D01*
X68094626Y-105423777D01*
X68033240Y-105357094D01*
X68033239Y-105357093D01*
X68033237Y-105357091D01*
X67913684Y-105264039D01*
X67855576Y-105218811D01*
X67657574Y-105111658D01*
X67657572Y-105111657D01*
X67657571Y-105111656D01*
X67444639Y-105038557D01*
X67444630Y-105038555D01*
X67400476Y-105031187D01*
X67222569Y-105001500D01*
X66997431Y-105001500D01*
X66849211Y-105026233D01*
X66775369Y-105038555D01*
X66775360Y-105038557D01*
X66562428Y-105111656D01*
X66562426Y-105111658D01*
X66364426Y-105218810D01*
X66364424Y-105218811D01*
X66186762Y-105357091D01*
X66034279Y-105522729D01*
X65945483Y-105658643D01*
X65891479Y-105704731D01*
X65821131Y-105714306D01*
X65756774Y-105684329D01*
X65734517Y-105658643D01*
X65645720Y-105522729D01*
X65493237Y-105357091D01*
X65373684Y-105264039D01*
X65315576Y-105218811D01*
X65117574Y-105111658D01*
X65117572Y-105111657D01*
X65117571Y-105111656D01*
X64904639Y-105038557D01*
X64904630Y-105038555D01*
X64860476Y-105031187D01*
X64682569Y-105001500D01*
X64457431Y-105001500D01*
X64309211Y-105026233D01*
X64235369Y-105038555D01*
X64235360Y-105038557D01*
X64022428Y-105111656D01*
X64022426Y-105111658D01*
X63824426Y-105218810D01*
X63824424Y-105218811D01*
X63646762Y-105357091D01*
X63494279Y-105522729D01*
X63405483Y-105658643D01*
X63351479Y-105704731D01*
X63281131Y-105714306D01*
X63216774Y-105684329D01*
X63194517Y-105658643D01*
X63105720Y-105522729D01*
X62953237Y-105357091D01*
X62833684Y-105264039D01*
X62775576Y-105218811D01*
X62577574Y-105111658D01*
X62577572Y-105111657D01*
X62577571Y-105111656D01*
X62364639Y-105038557D01*
X62364630Y-105038555D01*
X62320476Y-105031187D01*
X62142569Y-105001500D01*
X61917431Y-105001500D01*
X61769211Y-105026233D01*
X61695369Y-105038555D01*
X61695360Y-105038557D01*
X61482428Y-105111656D01*
X61482426Y-105111658D01*
X61284426Y-105218810D01*
X61284424Y-105218811D01*
X61106762Y-105357091D01*
X60954279Y-105522729D01*
X60865483Y-105658643D01*
X60811479Y-105704731D01*
X60741131Y-105714306D01*
X60676774Y-105684329D01*
X60654517Y-105658643D01*
X60565720Y-105522729D01*
X60413237Y-105357091D01*
X60293684Y-105264039D01*
X60235576Y-105218811D01*
X60037574Y-105111658D01*
X60037572Y-105111657D01*
X60037571Y-105111656D01*
X59824639Y-105038557D01*
X59824630Y-105038555D01*
X59780476Y-105031187D01*
X59602569Y-105001500D01*
X59377431Y-105001500D01*
X59229211Y-105026233D01*
X59155369Y-105038555D01*
X59155360Y-105038557D01*
X58942428Y-105111656D01*
X58942426Y-105111658D01*
X58744426Y-105218810D01*
X58744424Y-105218811D01*
X58566759Y-105357094D01*
X58505374Y-105423775D01*
X58444521Y-105460346D01*
X58373557Y-105458211D01*
X58315012Y-105418049D01*
X58294618Y-105382470D01*
X58250443Y-105264033D01*
X58162904Y-105147095D01*
X58045965Y-105059555D01*
X57909093Y-105008505D01*
X57848597Y-105002000D01*
X57204000Y-105002000D01*
X57204000Y-105917749D01*
X57146853Y-105884755D01*
X57017143Y-105850000D01*
X56882857Y-105850000D01*
X56753147Y-105884755D01*
X56696000Y-105917749D01*
X56696000Y-105002000D01*
X56051402Y-105002000D01*
X55990906Y-105008505D01*
X55854035Y-105059555D01*
X55854034Y-105059555D01*
X55737095Y-105147095D01*
X55649555Y-105264034D01*
X55649553Y-105264039D01*
X55605380Y-105382470D01*
X55562833Y-105439306D01*
X55496313Y-105464116D01*
X55426939Y-105449024D01*
X55394626Y-105423777D01*
X55333240Y-105357094D01*
X55333239Y-105357093D01*
X55333237Y-105357091D01*
X55213684Y-105264039D01*
X55155576Y-105218811D01*
X54957574Y-105111658D01*
X54957572Y-105111657D01*
X54957571Y-105111656D01*
X54744639Y-105038557D01*
X54744630Y-105038555D01*
X54700476Y-105031187D01*
X54522569Y-105001500D01*
X54297431Y-105001500D01*
X54149211Y-105026233D01*
X54075369Y-105038555D01*
X54075360Y-105038557D01*
X53862428Y-105111656D01*
X53862426Y-105111658D01*
X53664426Y-105218810D01*
X53664424Y-105218811D01*
X53486762Y-105357091D01*
X53334279Y-105522729D01*
X53245483Y-105658643D01*
X53191479Y-105704731D01*
X53121131Y-105714306D01*
X53056774Y-105684329D01*
X53034517Y-105658643D01*
X52945720Y-105522729D01*
X52793237Y-105357091D01*
X52673684Y-105264039D01*
X52615576Y-105218811D01*
X52417574Y-105111658D01*
X52417572Y-105111657D01*
X52417571Y-105111656D01*
X52204639Y-105038557D01*
X52204630Y-105038555D01*
X52160476Y-105031187D01*
X51982569Y-105001500D01*
X51757431Y-105001500D01*
X51609211Y-105026233D01*
X51535369Y-105038555D01*
X51535360Y-105038557D01*
X51322428Y-105111656D01*
X51322426Y-105111658D01*
X51124426Y-105218810D01*
X51124424Y-105218811D01*
X50946762Y-105357091D01*
X50794279Y-105522729D01*
X50794275Y-105522734D01*
X50671141Y-105711206D01*
X50580703Y-105917386D01*
X50580702Y-105917387D01*
X50525437Y-106135624D01*
X50525436Y-106135630D01*
X50525436Y-106135632D01*
X50512408Y-106292857D01*
X50506844Y-106360000D01*
X50000000Y-106360000D01*
X50000000Y-100195000D01*
X50586673Y-100195000D01*
X50597617Y-100327079D01*
X50605950Y-100427633D01*
X50663249Y-100653903D01*
X50663252Y-100653910D01*
X50757015Y-100867668D01*
X50884685Y-101063083D01*
X51042774Y-101234813D01*
X51042778Y-101234817D01*
X51108650Y-101286087D01*
X51226983Y-101378190D01*
X51432273Y-101489287D01*
X51653049Y-101565080D01*
X51883288Y-101603500D01*
X51883292Y-101603500D01*
X52116708Y-101603500D01*
X52116712Y-101603500D01*
X52346951Y-101565080D01*
X52567727Y-101489287D01*
X52773017Y-101378190D01*
X52957220Y-101234818D01*
X53034207Y-101151189D01*
X53115314Y-101063083D01*
X53163678Y-100989056D01*
X53242984Y-100867669D01*
X53336749Y-100653907D01*
X53394051Y-100427626D01*
X53413327Y-100195000D01*
X53394051Y-99962374D01*
X53376990Y-99895000D01*
X53766693Y-99895000D01*
X53785885Y-100114371D01*
X53807490Y-100195000D01*
X53842879Y-100327073D01*
X53842881Y-100327079D01*
X53900910Y-100451523D01*
X53935944Y-100526654D01*
X54025045Y-100653903D01*
X54062251Y-100707038D01*
X54062254Y-100707042D01*
X54217957Y-100862745D01*
X54217961Y-100862748D01*
X54217962Y-100862749D01*
X54398346Y-100989056D01*
X54597924Y-101082120D01*
X54810629Y-101139115D01*
X55030000Y-101158307D01*
X55249371Y-101139115D01*
X55462076Y-101082120D01*
X55661654Y-100989056D01*
X55842038Y-100862749D01*
X55997749Y-100707038D01*
X56124056Y-100526654D01*
X56217120Y-100327076D01*
X56274115Y-100114371D01*
X56293307Y-99895000D01*
X56274115Y-99675629D01*
X56217120Y-99462924D01*
X56124056Y-99263347D01*
X55997749Y-99082962D01*
X55842038Y-98927251D01*
X55661654Y-98800944D01*
X55661650Y-98800942D01*
X55462079Y-98707881D01*
X55462073Y-98707879D01*
X55368866Y-98682904D01*
X55249371Y-98650885D01*
X55030000Y-98631693D01*
X54810629Y-98650885D01*
X54597926Y-98707879D01*
X54597920Y-98707881D01*
X54398346Y-98800944D01*
X54217965Y-98927248D01*
X54217959Y-98927253D01*
X54062253Y-99082959D01*
X54062248Y-99082965D01*
X53935944Y-99263346D01*
X53842881Y-99462920D01*
X53842879Y-99462926D01*
X53814889Y-99567386D01*
X53785885Y-99675629D01*
X53766693Y-99895000D01*
X53376990Y-99895000D01*
X53343625Y-99763246D01*
X53336750Y-99736096D01*
X53336747Y-99736089D01*
X53242984Y-99522331D01*
X53115314Y-99326916D01*
X52957225Y-99155186D01*
X52957221Y-99155182D01*
X52820405Y-99048694D01*
X52773017Y-99011810D01*
X52567727Y-98900713D01*
X52567724Y-98900712D01*
X52567723Y-98900711D01*
X52346955Y-98824921D01*
X52346948Y-98824919D01*
X52248411Y-98808476D01*
X52116712Y-98786500D01*
X51883288Y-98786500D01*
X51768066Y-98805727D01*
X51653051Y-98824919D01*
X51653044Y-98824921D01*
X51432276Y-98900711D01*
X51432273Y-98900713D01*
X51235698Y-99007094D01*
X51226985Y-99011809D01*
X51226983Y-99011810D01*
X51042778Y-99155182D01*
X51042774Y-99155186D01*
X50884685Y-99326916D01*
X50757015Y-99522331D01*
X50663252Y-99736089D01*
X50663249Y-99736096D01*
X50605950Y-99962366D01*
X50605949Y-99962372D01*
X50605949Y-99962374D01*
X50586673Y-100195000D01*
X50000000Y-100195000D01*
X50000000Y-94745000D01*
X50586673Y-94745000D01*
X50595268Y-94848731D01*
X50605950Y-94977633D01*
X50663249Y-95203903D01*
X50663252Y-95203910D01*
X50757015Y-95417668D01*
X50884685Y-95613083D01*
X51042774Y-95784813D01*
X51042778Y-95784817D01*
X51065410Y-95802432D01*
X51226983Y-95928190D01*
X51432273Y-96039287D01*
X51653049Y-96115080D01*
X51883288Y-96153500D01*
X51883292Y-96153500D01*
X52116708Y-96153500D01*
X52116712Y-96153500D01*
X52346951Y-96115080D01*
X52567727Y-96039287D01*
X52773017Y-95928190D01*
X52957220Y-95784818D01*
X52973374Y-95767271D01*
X53115314Y-95613083D01*
X53165803Y-95535803D01*
X53242984Y-95417669D01*
X53336749Y-95203907D01*
X53376990Y-95045000D01*
X53766693Y-95045000D01*
X53785885Y-95264371D01*
X53810821Y-95357431D01*
X53842879Y-95477073D01*
X53842881Y-95477079D01*
X53916895Y-95635803D01*
X53935944Y-95676654D01*
X54054180Y-95845512D01*
X54062251Y-95857038D01*
X54062254Y-95857042D01*
X54217957Y-96012745D01*
X54217961Y-96012748D01*
X54217962Y-96012749D01*
X54398346Y-96139056D01*
X54597924Y-96232120D01*
X54810629Y-96289115D01*
X55030000Y-96308307D01*
X55249371Y-96289115D01*
X55462076Y-96232120D01*
X55661654Y-96139056D01*
X55842038Y-96012749D01*
X55997749Y-95857038D01*
X56124056Y-95676654D01*
X56217120Y-95477076D01*
X56274115Y-95264371D01*
X56293307Y-95045000D01*
X56274115Y-94825629D01*
X56217120Y-94612924D01*
X56124056Y-94413347D01*
X55997749Y-94232962D01*
X55842038Y-94077251D01*
X55798862Y-94047019D01*
X55792903Y-94042846D01*
X55661654Y-93950944D01*
X55653237Y-93947019D01*
X55462079Y-93857881D01*
X55462073Y-93857879D01*
X55372178Y-93833791D01*
X55249371Y-93800885D01*
X55030000Y-93781693D01*
X54810629Y-93800885D01*
X54597926Y-93857879D01*
X54597920Y-93857881D01*
X54398346Y-93950944D01*
X54217965Y-94077248D01*
X54217959Y-94077253D01*
X54062253Y-94232959D01*
X54062248Y-94232965D01*
X53935944Y-94413346D01*
X53842881Y-94612920D01*
X53842879Y-94612926D01*
X53793387Y-94797630D01*
X53785885Y-94825629D01*
X53766693Y-95045000D01*
X53376990Y-95045000D01*
X53394051Y-94977626D01*
X53413327Y-94745000D01*
X53394051Y-94512374D01*
X53336749Y-94286093D01*
X53242984Y-94072331D01*
X53226447Y-94047019D01*
X53115314Y-93876916D01*
X52957225Y-93705186D01*
X52957221Y-93705182D01*
X52833077Y-93608557D01*
X52773017Y-93561810D01*
X52567727Y-93450713D01*
X52567724Y-93450712D01*
X52567723Y-93450711D01*
X52346955Y-93374921D01*
X52346948Y-93374919D01*
X52248411Y-93358476D01*
X52116712Y-93336500D01*
X51883288Y-93336500D01*
X51768066Y-93355727D01*
X51653051Y-93374919D01*
X51653044Y-93374921D01*
X51432276Y-93450711D01*
X51432273Y-93450713D01*
X51226985Y-93561809D01*
X51226983Y-93561810D01*
X51042778Y-93705182D01*
X51042774Y-93705186D01*
X50884685Y-93876916D01*
X50757015Y-94072331D01*
X50663252Y-94286089D01*
X50663249Y-94286096D01*
X50605950Y-94512366D01*
X50605949Y-94512372D01*
X50605949Y-94512374D01*
X50586673Y-94745000D01*
X50000000Y-94745000D01*
X50000000Y-88580000D01*
X50506844Y-88580000D01*
X50524032Y-88787428D01*
X50525437Y-88804375D01*
X50580702Y-89022612D01*
X50580703Y-89022613D01*
X50580704Y-89022616D01*
X50652292Y-89185822D01*
X50671141Y-89228793D01*
X50794275Y-89417265D01*
X50794279Y-89417270D01*
X50946762Y-89582908D01*
X50985798Y-89613291D01*
X51124424Y-89721189D01*
X51322426Y-89828342D01*
X51322427Y-89828342D01*
X51322428Y-89828343D01*
X51355895Y-89839832D01*
X51535365Y-89901444D01*
X51757431Y-89938500D01*
X51757435Y-89938500D01*
X51982565Y-89938500D01*
X51982569Y-89938500D01*
X52204635Y-89901444D01*
X52417574Y-89828342D01*
X52615576Y-89721189D01*
X52793240Y-89582906D01*
X52945722Y-89417268D01*
X53034518Y-89281354D01*
X53088520Y-89235268D01*
X53158868Y-89225692D01*
X53223225Y-89255669D01*
X53245480Y-89281353D01*
X53257663Y-89300000D01*
X53334275Y-89417265D01*
X53334279Y-89417270D01*
X53486762Y-89582908D01*
X53525798Y-89613291D01*
X53664424Y-89721189D01*
X53862426Y-89828342D01*
X53862427Y-89828342D01*
X53862428Y-89828343D01*
X53895895Y-89839832D01*
X54075365Y-89901444D01*
X54297431Y-89938500D01*
X54297435Y-89938500D01*
X54522565Y-89938500D01*
X54522569Y-89938500D01*
X54744635Y-89901444D01*
X54957574Y-89828342D01*
X55155576Y-89721189D01*
X55333240Y-89582906D01*
X55394626Y-89516222D01*
X55455476Y-89479654D01*
X55526441Y-89481787D01*
X55584986Y-89521949D01*
X55605380Y-89557529D01*
X55649553Y-89675961D01*
X55649555Y-89675965D01*
X55737095Y-89792904D01*
X55854034Y-89880444D01*
X55990906Y-89931494D01*
X56051402Y-89937999D01*
X56051415Y-89938000D01*
X56696000Y-89938000D01*
X56696000Y-89022250D01*
X56753147Y-89055245D01*
X56882857Y-89090000D01*
X57017143Y-89090000D01*
X57146853Y-89055245D01*
X57204000Y-89022250D01*
X57204000Y-89938000D01*
X57848585Y-89938000D01*
X57848597Y-89937999D01*
X57909093Y-89931494D01*
X58045964Y-89880444D01*
X58045965Y-89880444D01*
X58162904Y-89792904D01*
X58250444Y-89675965D01*
X58294618Y-89557530D01*
X58337165Y-89500694D01*
X58403685Y-89475883D01*
X58473059Y-89490974D01*
X58505372Y-89516222D01*
X58543399Y-89557529D01*
X58566762Y-89582908D01*
X58605798Y-89613291D01*
X58744424Y-89721189D01*
X58942426Y-89828342D01*
X58942427Y-89828342D01*
X58942428Y-89828343D01*
X58975895Y-89839832D01*
X59155365Y-89901444D01*
X59377431Y-89938500D01*
X59377435Y-89938500D01*
X59602565Y-89938500D01*
X59602569Y-89938500D01*
X59824635Y-89901444D01*
X60037574Y-89828342D01*
X60235576Y-89721189D01*
X60413240Y-89582906D01*
X60565722Y-89417268D01*
X60654518Y-89281354D01*
X60708520Y-89235268D01*
X60778868Y-89225692D01*
X60843225Y-89255669D01*
X60865480Y-89281353D01*
X60877663Y-89300000D01*
X60954275Y-89417265D01*
X60954279Y-89417270D01*
X61106762Y-89582908D01*
X61145798Y-89613291D01*
X61284424Y-89721189D01*
X61297406Y-89728214D01*
X61347795Y-89778226D01*
X61363433Y-89839832D01*
X61321825Y-96349237D01*
X61301388Y-96417229D01*
X61289465Y-96432741D01*
X61236959Y-96491055D01*
X61236958Y-96491057D01*
X61141476Y-96656438D01*
X61141473Y-96656445D01*
X61082457Y-96838072D01*
X61062496Y-97028000D01*
X61082457Y-97217927D01*
X61100400Y-97273147D01*
X61141473Y-97399556D01*
X61147092Y-97409288D01*
X61236958Y-97564941D01*
X61236965Y-97564951D01*
X61364744Y-97706864D01*
X61364747Y-97706866D01*
X61519248Y-97819118D01*
X61693712Y-97896794D01*
X61880513Y-97936500D01*
X62071487Y-97936500D01*
X62258288Y-97896794D01*
X62432752Y-97819118D01*
X62587253Y-97706866D01*
X62715040Y-97564944D01*
X62810527Y-97399556D01*
X62869542Y-97217928D01*
X62889504Y-97028000D01*
X62869542Y-96838072D01*
X62810527Y-96656444D01*
X62746869Y-96546185D01*
X62715042Y-96491059D01*
X62715041Y-96491058D01*
X62715040Y-96491056D01*
X62671161Y-96442323D01*
X62640445Y-96378317D01*
X62638801Y-96357209D01*
X62639944Y-96178342D01*
X62647923Y-94930000D01*
X98536844Y-94930000D01*
X98549873Y-95087237D01*
X98555437Y-95154375D01*
X98610702Y-95372612D01*
X98610703Y-95372613D01*
X98610704Y-95372616D01*
X98682284Y-95535803D01*
X98701141Y-95578793D01*
X98824275Y-95767265D01*
X98824279Y-95767270D01*
X98967841Y-95923217D01*
X98999262Y-95986882D01*
X98991276Y-96057428D01*
X98946417Y-96112457D01*
X98919173Y-96126610D01*
X98804039Y-96169553D01*
X98804034Y-96169555D01*
X98687095Y-96257095D01*
X98599555Y-96374034D01*
X98599555Y-96374035D01*
X98548505Y-96510906D01*
X98542000Y-96571402D01*
X98542000Y-97216000D01*
X99457749Y-97216000D01*
X99424755Y-97273147D01*
X99390000Y-97402857D01*
X99390000Y-97537143D01*
X99424755Y-97666853D01*
X99457749Y-97724000D01*
X98542000Y-97724000D01*
X98542000Y-98368597D01*
X98548505Y-98429093D01*
X98599555Y-98565964D01*
X98599555Y-98565965D01*
X98687095Y-98682904D01*
X98804034Y-98770444D01*
X98919172Y-98813388D01*
X98976008Y-98855935D01*
X99000819Y-98922455D01*
X98985728Y-98991829D01*
X98967841Y-99016782D01*
X98824280Y-99172729D01*
X98824275Y-99172734D01*
X98701141Y-99361206D01*
X98610703Y-99567386D01*
X98610702Y-99567387D01*
X98555437Y-99785624D01*
X98555436Y-99785630D01*
X98555436Y-99785632D01*
X98536844Y-100010000D01*
X98549132Y-100158296D01*
X98555437Y-100234375D01*
X98610702Y-100452612D01*
X98610703Y-100452613D01*
X98701141Y-100658793D01*
X98824275Y-100847265D01*
X98824279Y-100847270D01*
X98976762Y-101012908D01*
X99031331Y-101055381D01*
X99154424Y-101151189D01*
X99352426Y-101258342D01*
X99352427Y-101258342D01*
X99352428Y-101258343D01*
X99464227Y-101296723D01*
X99565365Y-101331444D01*
X99787431Y-101368500D01*
X99787435Y-101368500D01*
X100012565Y-101368500D01*
X100012569Y-101368500D01*
X100234635Y-101331444D01*
X100447574Y-101258342D01*
X100645576Y-101151189D01*
X100823240Y-101012906D01*
X100975722Y-100847268D01*
X101098860Y-100658791D01*
X101189296Y-100452616D01*
X101244564Y-100234368D01*
X101263156Y-100010000D01*
X101244564Y-99785632D01*
X101232175Y-99736709D01*
X101189297Y-99567387D01*
X101189296Y-99567386D01*
X101189296Y-99567384D01*
X101098860Y-99361209D01*
X101068017Y-99314000D01*
X104604502Y-99314000D01*
X104624457Y-99542087D01*
X104683716Y-99763243D01*
X104780477Y-99970749D01*
X104911802Y-100158300D01*
X105073700Y-100320198D01*
X105261251Y-100451523D01*
X105468757Y-100548284D01*
X105689913Y-100607543D01*
X105918000Y-100627498D01*
X106146087Y-100607543D01*
X106367243Y-100548284D01*
X106574749Y-100451523D01*
X106762300Y-100320198D01*
X106924198Y-100158300D01*
X107055523Y-99970749D01*
X107152284Y-99763243D01*
X107211543Y-99542087D01*
X107231498Y-99314000D01*
X112224502Y-99314000D01*
X112244457Y-99542087D01*
X112303716Y-99763243D01*
X112400477Y-99970749D01*
X112531802Y-100158300D01*
X112693700Y-100320198D01*
X112881251Y-100451523D01*
X113088757Y-100548284D01*
X113309913Y-100607543D01*
X113538000Y-100627498D01*
X113766087Y-100607543D01*
X113987243Y-100548284D01*
X114194749Y-100451523D01*
X114382300Y-100320198D01*
X114544198Y-100158300D01*
X114675523Y-99970749D01*
X114772284Y-99763243D01*
X114831543Y-99542087D01*
X114851498Y-99314000D01*
X116288502Y-99314000D01*
X116308457Y-99542087D01*
X116367716Y-99763243D01*
X116464477Y-99970749D01*
X116595802Y-100158300D01*
X116757700Y-100320198D01*
X116945251Y-100451523D01*
X117152757Y-100548284D01*
X117373913Y-100607543D01*
X117602000Y-100627498D01*
X117830087Y-100607543D01*
X118051243Y-100548284D01*
X118258749Y-100451523D01*
X118446300Y-100320198D01*
X118608198Y-100158300D01*
X118739523Y-99970749D01*
X118836284Y-99763243D01*
X118895543Y-99542087D01*
X118915498Y-99314000D01*
X123908502Y-99314000D01*
X123928457Y-99542087D01*
X123987716Y-99763243D01*
X124084477Y-99970749D01*
X124215802Y-100158300D01*
X124377700Y-100320198D01*
X124565251Y-100451523D01*
X124772757Y-100548284D01*
X124993913Y-100607543D01*
X125222000Y-100627498D01*
X125450087Y-100607543D01*
X125671243Y-100548284D01*
X125878749Y-100451523D01*
X126066300Y-100320198D01*
X126228198Y-100158300D01*
X126359523Y-99970749D01*
X126456284Y-99763243D01*
X126515543Y-99542087D01*
X126535498Y-99314000D01*
X126515543Y-99085913D01*
X126456284Y-98864757D01*
X126359523Y-98657251D01*
X126319170Y-98599621D01*
X130259004Y-98599621D01*
X130278951Y-98827623D01*
X130338186Y-99048689D01*
X130338188Y-99048694D01*
X130434913Y-99256122D01*
X130484899Y-99327509D01*
X131172000Y-98640409D01*
X131172000Y-98652282D01*
X131199259Y-98754015D01*
X131251920Y-98845227D01*
X131326394Y-98919701D01*
X131417606Y-98972362D01*
X131519339Y-98999621D01*
X131531210Y-98999621D01*
X130844110Y-99686719D01*
X130844110Y-99686721D01*
X130915498Y-99736707D01*
X131122926Y-99833432D01*
X131122931Y-99833434D01*
X131343999Y-99892669D01*
X131343995Y-99892669D01*
X131572000Y-99912616D01*
X131800002Y-99892669D01*
X132021068Y-99833434D01*
X132021073Y-99833432D01*
X132228497Y-99736709D01*
X132299888Y-99686720D01*
X132299888Y-99686718D01*
X131612791Y-98999621D01*
X131624661Y-98999621D01*
X131726394Y-98972362D01*
X131817606Y-98919701D01*
X131892080Y-98845227D01*
X131944741Y-98754015D01*
X131972000Y-98652282D01*
X131972000Y-98640412D01*
X132659097Y-99327509D01*
X132659099Y-99327509D01*
X132709088Y-99256118D01*
X132805811Y-99048694D01*
X132805813Y-99048689D01*
X132865048Y-98827623D01*
X132884995Y-98599621D01*
X132865048Y-98371618D01*
X132805813Y-98150552D01*
X132805811Y-98150547D01*
X132709086Y-97943119D01*
X132659100Y-97871731D01*
X132659098Y-97871731D01*
X131972000Y-98558829D01*
X131972000Y-98546960D01*
X131944741Y-98445227D01*
X131892080Y-98354015D01*
X131817606Y-98279541D01*
X131726394Y-98226880D01*
X131624661Y-98199621D01*
X131612790Y-98199621D01*
X132311569Y-97500839D01*
X132316709Y-97475270D01*
X132366108Y-97424278D01*
X132417369Y-97409288D01*
X132417283Y-97408482D01*
X132481196Y-97401611D01*
X132481199Y-97401610D01*
X132481201Y-97401610D01*
X132486714Y-97399554D01*
X132500045Y-97394581D01*
X132618204Y-97350510D01*
X132735261Y-97262882D01*
X132822889Y-97145825D01*
X132873989Y-97008822D01*
X132875502Y-96994755D01*
X132880499Y-96948270D01*
X132880500Y-96948253D01*
X132880500Y-95250988D01*
X132880499Y-95250971D01*
X132873990Y-95190424D01*
X132873988Y-95190416D01*
X132822889Y-95053418D01*
X132822887Y-95053413D01*
X132735261Y-94936359D01*
X132618207Y-94848733D01*
X132618202Y-94848731D01*
X132481204Y-94797632D01*
X132481196Y-94797630D01*
X132420649Y-94791121D01*
X132420638Y-94791121D01*
X130723362Y-94791121D01*
X130723350Y-94791121D01*
X130662803Y-94797630D01*
X130662795Y-94797632D01*
X130525797Y-94848731D01*
X130525792Y-94848733D01*
X130408738Y-94936359D01*
X130321112Y-95053413D01*
X130321110Y-95053418D01*
X130270011Y-95190416D01*
X130270009Y-95190424D01*
X130263500Y-95250971D01*
X130263500Y-96948270D01*
X130270009Y-97008817D01*
X130270011Y-97008825D01*
X130321110Y-97145823D01*
X130321112Y-97145828D01*
X130408738Y-97262882D01*
X130525792Y-97350508D01*
X130525794Y-97350509D01*
X130525796Y-97350510D01*
X130584875Y-97372545D01*
X130662795Y-97401609D01*
X130662803Y-97401611D01*
X130726717Y-97408482D01*
X130726604Y-97409527D01*
X130789435Y-97431680D01*
X130833000Y-97487739D01*
X130835316Y-97503728D01*
X131531209Y-98199621D01*
X131519339Y-98199621D01*
X131417606Y-98226880D01*
X131326394Y-98279541D01*
X131251920Y-98354015D01*
X131199259Y-98445227D01*
X131172000Y-98546960D01*
X131172000Y-98558830D01*
X130484900Y-97871730D01*
X130434913Y-97943121D01*
X130338188Y-98150547D01*
X130338186Y-98150552D01*
X130278951Y-98371618D01*
X130259004Y-98599621D01*
X126319170Y-98599621D01*
X126228198Y-98469700D01*
X126066300Y-98307802D01*
X125878749Y-98176477D01*
X125671246Y-98079717D01*
X125671240Y-98079715D01*
X125577771Y-98054670D01*
X125450087Y-98020457D01*
X125222000Y-98000502D01*
X124993913Y-98020457D01*
X124772759Y-98079715D01*
X124772753Y-98079717D01*
X124565250Y-98176477D01*
X124377703Y-98307799D01*
X124377697Y-98307804D01*
X124215804Y-98469697D01*
X124215799Y-98469703D01*
X124084477Y-98657250D01*
X123987717Y-98864753D01*
X123987715Y-98864759D01*
X123948313Y-99011809D01*
X123928457Y-99085913D01*
X123908502Y-99314000D01*
X118915498Y-99314000D01*
X118895543Y-99085913D01*
X118836284Y-98864757D01*
X118739523Y-98657251D01*
X118608198Y-98469700D01*
X118446300Y-98307802D01*
X118258749Y-98176477D01*
X118051246Y-98079717D01*
X118051240Y-98079715D01*
X117957771Y-98054670D01*
X117830087Y-98020457D01*
X117602000Y-98000502D01*
X117373913Y-98020457D01*
X117152759Y-98079715D01*
X117152753Y-98079717D01*
X116945250Y-98176477D01*
X116757703Y-98307799D01*
X116757697Y-98307804D01*
X116595804Y-98469697D01*
X116595799Y-98469703D01*
X116464477Y-98657250D01*
X116367717Y-98864753D01*
X116367715Y-98864759D01*
X116328313Y-99011809D01*
X116308457Y-99085913D01*
X116288502Y-99314000D01*
X114851498Y-99314000D01*
X114831543Y-99085913D01*
X114772284Y-98864757D01*
X114675523Y-98657251D01*
X114544198Y-98469700D01*
X114382300Y-98307802D01*
X114194749Y-98176477D01*
X113987246Y-98079717D01*
X113987240Y-98079715D01*
X113893771Y-98054670D01*
X113766087Y-98020457D01*
X113538000Y-98000502D01*
X113309913Y-98020457D01*
X113088759Y-98079715D01*
X113088753Y-98079717D01*
X112881250Y-98176477D01*
X112693703Y-98307799D01*
X112693697Y-98307804D01*
X112531804Y-98469697D01*
X112531799Y-98469703D01*
X112400477Y-98657250D01*
X112303717Y-98864753D01*
X112303715Y-98864759D01*
X112264313Y-99011809D01*
X112244457Y-99085913D01*
X112224502Y-99314000D01*
X107231498Y-99314000D01*
X107211543Y-99085913D01*
X107152284Y-98864757D01*
X107055523Y-98657251D01*
X106924198Y-98469700D01*
X106762300Y-98307802D01*
X106574749Y-98176477D01*
X106367246Y-98079717D01*
X106367240Y-98079715D01*
X106273771Y-98054670D01*
X106146087Y-98020457D01*
X105918000Y-98000502D01*
X105689913Y-98020457D01*
X105468759Y-98079715D01*
X105468753Y-98079717D01*
X105261250Y-98176477D01*
X105073703Y-98307799D01*
X105073697Y-98307804D01*
X104911804Y-98469697D01*
X104911799Y-98469703D01*
X104780477Y-98657250D01*
X104683717Y-98864753D01*
X104683715Y-98864759D01*
X104644313Y-99011809D01*
X104624457Y-99085913D01*
X104604502Y-99314000D01*
X101068017Y-99314000D01*
X101034923Y-99263346D01*
X100975724Y-99172734D01*
X100975714Y-99172722D01*
X100832159Y-99016782D01*
X100800737Y-98953117D01*
X100808723Y-98882571D01*
X100853582Y-98827542D01*
X100880827Y-98813388D01*
X100995965Y-98770444D01*
X101112904Y-98682904D01*
X101200444Y-98565965D01*
X101200444Y-98565964D01*
X101251494Y-98429093D01*
X101257999Y-98368597D01*
X101258000Y-98368585D01*
X101258000Y-97724000D01*
X100342251Y-97724000D01*
X100375245Y-97666853D01*
X100410000Y-97537143D01*
X100410000Y-97402857D01*
X100375245Y-97273147D01*
X100342251Y-97216000D01*
X101258000Y-97216000D01*
X101258000Y-96571414D01*
X101257999Y-96571402D01*
X101251494Y-96510906D01*
X101200444Y-96374035D01*
X101200444Y-96374034D01*
X101112904Y-96257095D01*
X100995966Y-96169556D01*
X100880826Y-96126611D01*
X100823991Y-96084064D01*
X100799180Y-96017543D01*
X100814272Y-95948169D01*
X100832154Y-95923222D01*
X100975722Y-95767268D01*
X101098860Y-95578791D01*
X101189296Y-95372616D01*
X101244564Y-95154368D01*
X101263156Y-94930000D01*
X101244564Y-94705632D01*
X101213703Y-94583765D01*
X101189297Y-94487387D01*
X101189296Y-94487386D01*
X101189296Y-94487384D01*
X101098860Y-94281209D01*
X101067337Y-94232959D01*
X100975724Y-94092734D01*
X100975720Y-94092729D01*
X100823237Y-93927091D01*
X100804823Y-93912759D01*
X105121500Y-93912759D01*
X105121500Y-95087241D01*
X105148795Y-95259574D01*
X105148796Y-95259577D01*
X105188364Y-95381359D01*
X105202712Y-95425516D01*
X105281926Y-95580981D01*
X105384483Y-95722139D01*
X105384485Y-95722141D01*
X105384487Y-95722144D01*
X105507855Y-95845512D01*
X105507858Y-95845514D01*
X105507861Y-95845517D01*
X105649019Y-95948074D01*
X105804484Y-96027288D01*
X105970426Y-96081205D01*
X106142759Y-96108500D01*
X106142762Y-96108500D01*
X106317238Y-96108500D01*
X106317241Y-96108500D01*
X106489574Y-96081205D01*
X106655516Y-96027288D01*
X106810981Y-95948074D01*
X106952139Y-95845517D01*
X107075517Y-95722139D01*
X107178074Y-95580981D01*
X107257288Y-95425516D01*
X107263144Y-95407490D01*
X107303216Y-95348886D01*
X107368612Y-95321249D01*
X107438569Y-95333354D01*
X107490876Y-95381359D01*
X107502808Y-95407486D01*
X107517366Y-95452290D01*
X107610871Y-95635803D01*
X107731932Y-95802430D01*
X107731934Y-95802432D01*
X107731936Y-95802435D01*
X107877564Y-95948063D01*
X107877567Y-95948065D01*
X107877570Y-95948068D01*
X108044197Y-96069129D01*
X108227710Y-96162634D01*
X108423592Y-96226280D01*
X108627019Y-96258500D01*
X108627022Y-96258500D01*
X108832978Y-96258500D01*
X108832981Y-96258500D01*
X109036408Y-96226280D01*
X109232290Y-96162634D01*
X109415803Y-96069129D01*
X109582430Y-95948068D01*
X109728068Y-95802430D01*
X109849129Y-95635803D01*
X109942634Y-95452290D01*
X110006280Y-95256408D01*
X110038500Y-95052981D01*
X110038500Y-94416230D01*
X110379500Y-94416230D01*
X110379500Y-94583769D01*
X110412185Y-94748085D01*
X110430964Y-94793420D01*
X110476297Y-94902863D01*
X110498679Y-94936360D01*
X110569373Y-95042161D01*
X110569378Y-95042167D01*
X110687832Y-95160621D01*
X110687838Y-95160626D01*
X110827137Y-95253703D01*
X110981918Y-95317816D01*
X111146233Y-95350500D01*
X111146234Y-95350500D01*
X111313766Y-95350500D01*
X111313767Y-95350500D01*
X111478082Y-95317816D01*
X111632863Y-95253703D01*
X111772162Y-95160626D01*
X111890626Y-95042162D01*
X111983703Y-94902863D01*
X112047816Y-94748082D01*
X112080500Y-94583767D01*
X112080500Y-94416233D01*
X112047816Y-94251918D01*
X111983703Y-94097137D01*
X111950215Y-94047019D01*
X112421500Y-94047019D01*
X112421500Y-94952981D01*
X112442765Y-95087241D01*
X112453721Y-95156412D01*
X112516023Y-95348159D01*
X112517366Y-95352290D01*
X112610871Y-95535803D01*
X112731932Y-95702430D01*
X112731934Y-95702432D01*
X112731936Y-95702435D01*
X112877564Y-95848063D01*
X112877567Y-95848065D01*
X112877570Y-95848068D01*
X113044197Y-95969129D01*
X113227710Y-96062634D01*
X113423592Y-96126280D01*
X113627019Y-96158500D01*
X113627022Y-96158500D01*
X113832978Y-96158500D01*
X113832981Y-96158500D01*
X114036408Y-96126280D01*
X114232290Y-96062634D01*
X114415803Y-95969129D01*
X114582430Y-95848068D01*
X114728068Y-95702430D01*
X114849129Y-95535803D01*
X114942634Y-95352290D01*
X114942639Y-95352272D01*
X114944344Y-95348159D01*
X114988888Y-95292874D01*
X115056249Y-95270448D01*
X115125042Y-95288000D01*
X115173425Y-95339958D01*
X115180590Y-95357431D01*
X115188364Y-95381359D01*
X115202712Y-95425516D01*
X115281926Y-95580981D01*
X115384483Y-95722139D01*
X115384485Y-95722141D01*
X115384487Y-95722144D01*
X115507855Y-95845512D01*
X115507858Y-95845514D01*
X115507861Y-95845517D01*
X115649019Y-95948074D01*
X115804484Y-96027288D01*
X115970426Y-96081205D01*
X116142759Y-96108500D01*
X116142762Y-96108500D01*
X116317238Y-96108500D01*
X116317241Y-96108500D01*
X116489574Y-96081205D01*
X116655516Y-96027288D01*
X116810981Y-95948074D01*
X116952139Y-95845517D01*
X117075517Y-95722139D01*
X117178074Y-95580981D01*
X117257288Y-95425516D01*
X117311205Y-95259574D01*
X117338500Y-95087241D01*
X117338500Y-93912759D01*
X117311205Y-93740426D01*
X117257288Y-93574484D01*
X117178074Y-93419019D01*
X117075517Y-93277861D01*
X117075514Y-93277858D01*
X117075512Y-93277855D01*
X116952144Y-93154487D01*
X116952141Y-93154485D01*
X116952139Y-93154483D01*
X116810992Y-93051934D01*
X116810984Y-93051928D01*
X116810983Y-93051927D01*
X116810981Y-93051926D01*
X116655516Y-92972712D01*
X116655513Y-92972711D01*
X116655511Y-92972710D01*
X116489577Y-92918796D01*
X116489574Y-92918795D01*
X116317241Y-92891500D01*
X116142759Y-92891500D01*
X115970426Y-92918795D01*
X115970423Y-92918795D01*
X115970422Y-92918796D01*
X115804488Y-92972710D01*
X115804482Y-92972713D01*
X115649015Y-93051928D01*
X115507858Y-93154485D01*
X115507855Y-93154487D01*
X115384487Y-93277855D01*
X115384485Y-93277858D01*
X115281928Y-93419015D01*
X115258906Y-93464197D01*
X115202712Y-93574484D01*
X115191642Y-93608555D01*
X115180590Y-93642569D01*
X115140516Y-93701174D01*
X115075119Y-93728811D01*
X115005163Y-93716704D01*
X114952857Y-93668697D01*
X114944346Y-93651845D01*
X114942635Y-93647714D01*
X114942634Y-93647710D01*
X114849129Y-93464197D01*
X114728068Y-93297570D01*
X114728065Y-93297567D01*
X114728063Y-93297564D01*
X114582435Y-93151936D01*
X114582432Y-93151934D01*
X114582430Y-93151932D01*
X114415803Y-93030871D01*
X114232290Y-92937366D01*
X114232287Y-92937365D01*
X114232285Y-92937364D01*
X114036412Y-92873721D01*
X114036410Y-92873720D01*
X114036408Y-92873720D01*
X113832981Y-92841500D01*
X113627019Y-92841500D01*
X113423592Y-92873720D01*
X113423590Y-92873720D01*
X113423587Y-92873721D01*
X113227714Y-92937364D01*
X113227708Y-92937367D01*
X113044193Y-93030873D01*
X112877567Y-93151934D01*
X112877564Y-93151936D01*
X112731936Y-93297564D01*
X112731934Y-93297567D01*
X112610873Y-93464193D01*
X112517367Y-93647708D01*
X112517364Y-93647714D01*
X112453721Y-93843587D01*
X112453720Y-93843590D01*
X112453720Y-93843592D01*
X112421500Y-94047019D01*
X111950215Y-94047019D01*
X111890626Y-93957838D01*
X111890621Y-93957832D01*
X111772167Y-93839378D01*
X111772161Y-93839373D01*
X111632864Y-93746298D01*
X111632865Y-93746298D01*
X111632863Y-93746297D01*
X111523420Y-93700964D01*
X111478085Y-93682185D01*
X111478083Y-93682184D01*
X111478082Y-93682184D01*
X111395368Y-93665731D01*
X111313769Y-93649500D01*
X111313767Y-93649500D01*
X111146233Y-93649500D01*
X111146230Y-93649500D01*
X111049722Y-93668697D01*
X110981918Y-93682184D01*
X110981917Y-93682184D01*
X110981914Y-93682185D01*
X110859189Y-93733020D01*
X110833668Y-93743592D01*
X110827135Y-93746298D01*
X110687838Y-93839373D01*
X110687832Y-93839378D01*
X110569378Y-93957832D01*
X110569373Y-93957838D01*
X110476298Y-94097135D01*
X110412185Y-94251914D01*
X110379500Y-94416230D01*
X110038500Y-94416230D01*
X110038500Y-93947019D01*
X110006280Y-93743592D01*
X109942634Y-93547710D01*
X109849129Y-93364197D01*
X109728068Y-93197570D01*
X109728065Y-93197567D01*
X109728063Y-93197564D01*
X109582435Y-93051936D01*
X109582432Y-93051934D01*
X109582430Y-93051932D01*
X109415803Y-92930871D01*
X109232290Y-92837366D01*
X109232287Y-92837365D01*
X109232285Y-92837364D01*
X109036412Y-92773721D01*
X109036410Y-92773720D01*
X109036408Y-92773720D01*
X108832981Y-92741500D01*
X108627019Y-92741500D01*
X108423592Y-92773720D01*
X108423590Y-92773720D01*
X108423587Y-92773721D01*
X108227714Y-92837364D01*
X108227708Y-92837367D01*
X108044193Y-92930873D01*
X107877567Y-93051934D01*
X107877564Y-93051936D01*
X107731936Y-93197564D01*
X107731934Y-93197567D01*
X107610873Y-93364193D01*
X107517367Y-93547708D01*
X107517366Y-93547711D01*
X107502810Y-93592509D01*
X107462736Y-93651115D01*
X107397339Y-93678751D01*
X107327382Y-93666644D01*
X107275076Y-93618637D01*
X107263144Y-93592509D01*
X107257288Y-93574484D01*
X107178074Y-93419019D01*
X107075517Y-93277861D01*
X107075514Y-93277858D01*
X107075512Y-93277855D01*
X106952144Y-93154487D01*
X106952141Y-93154485D01*
X106952139Y-93154483D01*
X106810992Y-93051934D01*
X106810984Y-93051928D01*
X106810983Y-93051927D01*
X106810981Y-93051926D01*
X106655516Y-92972712D01*
X106655513Y-92972711D01*
X106655511Y-92972710D01*
X106489577Y-92918796D01*
X106489574Y-92918795D01*
X106317241Y-92891500D01*
X106142759Y-92891500D01*
X105970426Y-92918795D01*
X105970423Y-92918795D01*
X105970422Y-92918796D01*
X105804488Y-92972710D01*
X105804482Y-92972713D01*
X105649015Y-93051928D01*
X105507858Y-93154485D01*
X105507855Y-93154487D01*
X105384487Y-93277855D01*
X105384485Y-93277858D01*
X105281928Y-93419015D01*
X105202713Y-93574482D01*
X105202710Y-93574488D01*
X105152569Y-93728811D01*
X105148795Y-93740426D01*
X105121500Y-93912759D01*
X100804823Y-93912759D01*
X100734315Y-93857880D01*
X100645576Y-93788811D01*
X100447574Y-93681658D01*
X100447572Y-93681657D01*
X100447571Y-93681656D01*
X100234639Y-93608557D01*
X100234630Y-93608555D01*
X100190476Y-93601187D01*
X100012569Y-93571500D01*
X99787431Y-93571500D01*
X99639211Y-93596233D01*
X99565369Y-93608555D01*
X99565360Y-93608557D01*
X99352428Y-93681656D01*
X99352426Y-93681658D01*
X99287667Y-93716704D01*
X99154426Y-93788810D01*
X99154424Y-93788811D01*
X98976762Y-93927091D01*
X98824279Y-94092729D01*
X98824275Y-94092734D01*
X98701141Y-94281206D01*
X98610703Y-94487386D01*
X98610702Y-94487387D01*
X98555437Y-94705624D01*
X98555436Y-94705630D01*
X98555436Y-94705632D01*
X98536844Y-94930000D01*
X62647923Y-94930000D01*
X62680414Y-89846962D01*
X62700851Y-89778972D01*
X62746441Y-89736955D01*
X62775576Y-89721189D01*
X62953240Y-89582906D01*
X63105722Y-89417268D01*
X63194518Y-89281354D01*
X63248520Y-89235268D01*
X63318868Y-89225692D01*
X63383225Y-89255669D01*
X63405480Y-89281353D01*
X63417663Y-89300000D01*
X63494275Y-89417265D01*
X63494279Y-89417270D01*
X63646762Y-89582908D01*
X63685798Y-89613291D01*
X63824424Y-89721189D01*
X64022426Y-89828342D01*
X64022427Y-89828342D01*
X64022428Y-89828343D01*
X64055895Y-89839832D01*
X64235365Y-89901444D01*
X64457431Y-89938500D01*
X64457435Y-89938500D01*
X64682565Y-89938500D01*
X64682569Y-89938500D01*
X64904635Y-89901444D01*
X65117574Y-89828342D01*
X65315576Y-89721189D01*
X65493240Y-89582906D01*
X65645722Y-89417268D01*
X65734518Y-89281354D01*
X65788520Y-89235268D01*
X65858868Y-89225692D01*
X65923225Y-89255669D01*
X65945480Y-89281353D01*
X65957663Y-89300000D01*
X66034275Y-89417265D01*
X66034279Y-89417270D01*
X66186762Y-89582908D01*
X66225798Y-89613291D01*
X66364424Y-89721189D01*
X66562426Y-89828342D01*
X66562427Y-89828342D01*
X66562428Y-89828343D01*
X66595895Y-89839832D01*
X66775365Y-89901444D01*
X66997431Y-89938500D01*
X66997435Y-89938500D01*
X67222565Y-89938500D01*
X67222569Y-89938500D01*
X67444635Y-89901444D01*
X67657574Y-89828342D01*
X67855576Y-89721189D01*
X68033240Y-89582906D01*
X68094626Y-89516222D01*
X68155476Y-89479654D01*
X68226441Y-89481787D01*
X68284986Y-89521949D01*
X68305380Y-89557529D01*
X68349553Y-89675961D01*
X68349555Y-89675965D01*
X68437095Y-89792904D01*
X68554034Y-89880444D01*
X68690906Y-89931494D01*
X68751402Y-89937999D01*
X68751415Y-89938000D01*
X69396000Y-89938000D01*
X69396000Y-89022250D01*
X69453147Y-89055245D01*
X69582857Y-89090000D01*
X69717143Y-89090000D01*
X69846853Y-89055245D01*
X69904000Y-89022250D01*
X69904000Y-89938000D01*
X70548585Y-89938000D01*
X70548597Y-89937999D01*
X70609093Y-89931494D01*
X70745964Y-89880444D01*
X70745965Y-89880444D01*
X70862904Y-89792904D01*
X70950444Y-89675965D01*
X70994618Y-89557530D01*
X71037165Y-89500694D01*
X71103685Y-89475883D01*
X71173059Y-89490974D01*
X71205372Y-89516222D01*
X71243399Y-89557529D01*
X71266762Y-89582908D01*
X71305798Y-89613291D01*
X71444424Y-89721189D01*
X71642426Y-89828342D01*
X71642427Y-89828342D01*
X71642428Y-89828343D01*
X71675895Y-89839832D01*
X71855365Y-89901444D01*
X72077431Y-89938500D01*
X72077435Y-89938500D01*
X72302565Y-89938500D01*
X72302569Y-89938500D01*
X72524635Y-89901444D01*
X72737574Y-89828342D01*
X72935576Y-89721189D01*
X73113240Y-89582906D01*
X73265722Y-89417268D01*
X73354518Y-89281354D01*
X73408520Y-89235268D01*
X73478868Y-89225692D01*
X73543225Y-89255669D01*
X73565480Y-89281353D01*
X73577663Y-89300000D01*
X73654275Y-89417265D01*
X73654279Y-89417270D01*
X73806762Y-89582908D01*
X73845798Y-89613291D01*
X73984424Y-89721189D01*
X74182426Y-89828342D01*
X74182427Y-89828342D01*
X74182428Y-89828343D01*
X74215895Y-89839832D01*
X74395365Y-89901444D01*
X74617431Y-89938500D01*
X74617435Y-89938500D01*
X74842565Y-89938500D01*
X74842569Y-89938500D01*
X75064635Y-89901444D01*
X75277574Y-89828342D01*
X75475576Y-89721189D01*
X75653240Y-89582906D01*
X75805722Y-89417268D01*
X75894518Y-89281354D01*
X75948520Y-89235268D01*
X76018868Y-89225692D01*
X76083225Y-89255669D01*
X76105480Y-89281353D01*
X76117663Y-89300000D01*
X76194275Y-89417265D01*
X76194279Y-89417270D01*
X76346762Y-89582908D01*
X76385798Y-89613291D01*
X76524424Y-89721189D01*
X76722426Y-89828342D01*
X76722427Y-89828342D01*
X76722428Y-89828343D01*
X76755895Y-89839832D01*
X76935365Y-89901444D01*
X77157431Y-89938500D01*
X77157435Y-89938500D01*
X77382565Y-89938500D01*
X77382569Y-89938500D01*
X77604635Y-89901444D01*
X77817574Y-89828342D01*
X78015576Y-89721189D01*
X78193240Y-89582906D01*
X78345722Y-89417268D01*
X78434518Y-89281354D01*
X78488520Y-89235268D01*
X78558868Y-89225692D01*
X78623225Y-89255669D01*
X78645480Y-89281353D01*
X78657663Y-89300000D01*
X78734275Y-89417265D01*
X78734279Y-89417270D01*
X78886762Y-89582908D01*
X78925798Y-89613291D01*
X79064424Y-89721189D01*
X79262426Y-89828342D01*
X79262427Y-89828342D01*
X79262428Y-89828343D01*
X79295895Y-89839832D01*
X79475365Y-89901444D01*
X79697431Y-89938500D01*
X79697435Y-89938500D01*
X79922565Y-89938500D01*
X79922569Y-89938500D01*
X80144635Y-89901444D01*
X80357574Y-89828342D01*
X80555576Y-89721189D01*
X80733240Y-89582906D01*
X80794626Y-89516222D01*
X80855476Y-89479654D01*
X80926441Y-89481787D01*
X80984986Y-89521949D01*
X81005380Y-89557529D01*
X81049553Y-89675961D01*
X81049555Y-89675965D01*
X81137095Y-89792904D01*
X81254034Y-89880444D01*
X81390906Y-89931494D01*
X81451402Y-89937999D01*
X81451415Y-89938000D01*
X82096000Y-89938000D01*
X82096000Y-89022250D01*
X82153147Y-89055245D01*
X82282857Y-89090000D01*
X82417143Y-89090000D01*
X82546853Y-89055245D01*
X82604000Y-89022250D01*
X82604000Y-89938000D01*
X83248585Y-89938000D01*
X83248597Y-89937999D01*
X83309093Y-89931494D01*
X83445964Y-89880444D01*
X83445965Y-89880444D01*
X83562904Y-89792904D01*
X83650444Y-89675965D01*
X83694618Y-89557530D01*
X83737165Y-89500694D01*
X83803685Y-89475883D01*
X83873059Y-89490974D01*
X83905372Y-89516222D01*
X83943399Y-89557529D01*
X83966762Y-89582908D01*
X84005798Y-89613291D01*
X84144424Y-89721189D01*
X84342426Y-89828342D01*
X84342427Y-89828342D01*
X84342428Y-89828343D01*
X84375895Y-89839832D01*
X84555365Y-89901444D01*
X84777431Y-89938500D01*
X84777435Y-89938500D01*
X85002565Y-89938500D01*
X85002569Y-89938500D01*
X85224635Y-89901444D01*
X85437574Y-89828342D01*
X85635576Y-89721189D01*
X85813240Y-89582906D01*
X85965722Y-89417268D01*
X86054518Y-89281354D01*
X86108520Y-89235268D01*
X86178868Y-89225692D01*
X86243225Y-89255669D01*
X86265480Y-89281353D01*
X86277663Y-89300000D01*
X86354275Y-89417265D01*
X86354279Y-89417270D01*
X86506762Y-89582908D01*
X86545798Y-89613291D01*
X86684424Y-89721189D01*
X86882426Y-89828342D01*
X86882427Y-89828342D01*
X86882428Y-89828343D01*
X86915895Y-89839832D01*
X87095365Y-89901444D01*
X87317431Y-89938500D01*
X87317435Y-89938500D01*
X87542565Y-89938500D01*
X87542569Y-89938500D01*
X87764635Y-89901444D01*
X87977574Y-89828342D01*
X88175576Y-89721189D01*
X88353240Y-89582906D01*
X88505722Y-89417268D01*
X88594518Y-89281354D01*
X88648520Y-89235268D01*
X88718868Y-89225692D01*
X88783225Y-89255669D01*
X88805480Y-89281353D01*
X88817663Y-89300000D01*
X88894275Y-89417265D01*
X88894279Y-89417270D01*
X89046762Y-89582908D01*
X89085798Y-89613291D01*
X89224424Y-89721189D01*
X89422426Y-89828342D01*
X89422427Y-89828342D01*
X89422428Y-89828343D01*
X89455895Y-89839832D01*
X89635365Y-89901444D01*
X89857431Y-89938500D01*
X89857435Y-89938500D01*
X90082565Y-89938500D01*
X90082569Y-89938500D01*
X90304635Y-89901444D01*
X90517574Y-89828342D01*
X90715576Y-89721189D01*
X90893240Y-89582906D01*
X91045722Y-89417268D01*
X91134518Y-89281354D01*
X91188520Y-89235268D01*
X91258868Y-89225692D01*
X91323225Y-89255669D01*
X91345480Y-89281353D01*
X91357663Y-89300000D01*
X91434275Y-89417265D01*
X91434279Y-89417270D01*
X91586762Y-89582908D01*
X91625798Y-89613291D01*
X91764424Y-89721189D01*
X91962426Y-89828342D01*
X91962427Y-89828342D01*
X91962428Y-89828343D01*
X91995895Y-89839832D01*
X92175365Y-89901444D01*
X92397431Y-89938500D01*
X92397435Y-89938500D01*
X92622565Y-89938500D01*
X92622569Y-89938500D01*
X92844635Y-89901444D01*
X93057574Y-89828342D01*
X93255576Y-89721189D01*
X93433240Y-89582906D01*
X93494626Y-89516222D01*
X93555476Y-89479654D01*
X93626441Y-89481787D01*
X93684986Y-89521949D01*
X93705380Y-89557529D01*
X93749553Y-89675961D01*
X93749555Y-89675965D01*
X93837095Y-89792904D01*
X93954034Y-89880444D01*
X94090906Y-89931494D01*
X94151402Y-89937999D01*
X94151415Y-89938000D01*
X94796000Y-89938000D01*
X94796000Y-89022250D01*
X94853147Y-89055245D01*
X94982857Y-89090000D01*
X95117143Y-89090000D01*
X95246853Y-89055245D01*
X95304000Y-89022250D01*
X95304000Y-89938000D01*
X95948585Y-89938000D01*
X95948597Y-89937999D01*
X96009093Y-89931494D01*
X96145964Y-89880444D01*
X96145965Y-89880444D01*
X96262904Y-89792904D01*
X96350444Y-89675965D01*
X96394618Y-89557530D01*
X96437165Y-89500694D01*
X96503685Y-89475883D01*
X96573059Y-89490974D01*
X96605372Y-89516222D01*
X96643399Y-89557529D01*
X96666762Y-89582908D01*
X96705798Y-89613291D01*
X96844424Y-89721189D01*
X97042426Y-89828342D01*
X97042427Y-89828342D01*
X97042428Y-89828343D01*
X97075895Y-89839832D01*
X97255365Y-89901444D01*
X97477431Y-89938500D01*
X97477435Y-89938500D01*
X97702565Y-89938500D01*
X97702569Y-89938500D01*
X97924635Y-89901444D01*
X98137574Y-89828342D01*
X98335576Y-89721189D01*
X98513240Y-89582906D01*
X98665722Y-89417268D01*
X98754518Y-89281354D01*
X98808520Y-89235268D01*
X98878868Y-89225692D01*
X98943225Y-89255669D01*
X98965480Y-89281353D01*
X98977663Y-89300000D01*
X99054275Y-89417265D01*
X99054279Y-89417270D01*
X99206762Y-89582908D01*
X99245798Y-89613291D01*
X99384424Y-89721189D01*
X99582426Y-89828342D01*
X99582427Y-89828342D01*
X99582428Y-89828343D01*
X99615895Y-89839832D01*
X99795365Y-89901444D01*
X100017431Y-89938500D01*
X100017435Y-89938500D01*
X100242565Y-89938500D01*
X100242569Y-89938500D01*
X100464635Y-89901444D01*
X100677574Y-89828342D01*
X100875576Y-89721189D01*
X101053240Y-89582906D01*
X101205722Y-89417268D01*
X101206400Y-89416230D01*
X105379500Y-89416230D01*
X105379500Y-89583769D01*
X105395731Y-89665368D01*
X105412184Y-89748082D01*
X105476297Y-89902863D01*
X105476298Y-89902864D01*
X105569373Y-90042161D01*
X105569378Y-90042167D01*
X105687832Y-90160621D01*
X105687838Y-90160626D01*
X105827137Y-90253703D01*
X105981918Y-90317816D01*
X106146233Y-90350500D01*
X106146234Y-90350500D01*
X106313766Y-90350500D01*
X106313767Y-90350500D01*
X106478082Y-90317816D01*
X106632863Y-90253703D01*
X106772162Y-90160626D01*
X106890626Y-90042162D01*
X106983703Y-89902863D01*
X107045365Y-89754000D01*
X109648420Y-89754000D01*
X109649285Y-89759465D01*
X109703174Y-89925319D01*
X109703177Y-89925325D01*
X109782356Y-90080721D01*
X109884867Y-90221815D01*
X109884869Y-90221818D01*
X110008181Y-90345130D01*
X110008184Y-90345132D01*
X110149278Y-90447643D01*
X110304674Y-90526822D01*
X110304680Y-90526825D01*
X110470539Y-90580715D01*
X110470535Y-90580715D01*
X110642802Y-90608000D01*
X110976000Y-90608000D01*
X111484000Y-90608000D01*
X111817198Y-90608000D01*
X111989462Y-90580715D01*
X112155319Y-90526825D01*
X112155325Y-90526822D01*
X112310721Y-90447643D01*
X112451815Y-90345132D01*
X112451818Y-90345130D01*
X112575130Y-90221818D01*
X112575132Y-90221815D01*
X112677643Y-90080721D01*
X112756822Y-89925325D01*
X112756825Y-89925319D01*
X112810714Y-89759465D01*
X112811580Y-89754000D01*
X111484000Y-89754000D01*
X111484000Y-90608000D01*
X110976000Y-90608000D01*
X110976000Y-89754000D01*
X109648420Y-89754000D01*
X107045365Y-89754000D01*
X107047816Y-89748082D01*
X107080500Y-89583767D01*
X107080500Y-89460218D01*
X110530000Y-89460218D01*
X110530000Y-89539782D01*
X110560448Y-89613291D01*
X110616709Y-89669552D01*
X110690218Y-89700000D01*
X111769782Y-89700000D01*
X111843291Y-89669552D01*
X111899552Y-89613291D01*
X111930000Y-89539782D01*
X111930000Y-89460218D01*
X111911780Y-89416230D01*
X115379500Y-89416230D01*
X115379500Y-89583769D01*
X115395731Y-89665368D01*
X115412184Y-89748082D01*
X115476297Y-89902863D01*
X115476298Y-89902864D01*
X115569373Y-90042161D01*
X115569378Y-90042167D01*
X115687832Y-90160621D01*
X115687838Y-90160626D01*
X115827137Y-90253703D01*
X115981918Y-90317816D01*
X116146233Y-90350500D01*
X116146234Y-90350500D01*
X116313766Y-90350500D01*
X116313767Y-90350500D01*
X116478082Y-90317816D01*
X116632863Y-90253703D01*
X116772162Y-90160626D01*
X116890626Y-90042162D01*
X116983703Y-89902863D01*
X117047816Y-89748082D01*
X117080500Y-89583767D01*
X117080500Y-89416233D01*
X117047816Y-89251918D01*
X116983703Y-89097137D01*
X116890626Y-88957838D01*
X116890621Y-88957832D01*
X116772167Y-88839378D01*
X116772161Y-88839373D01*
X116681281Y-88778649D01*
X116632863Y-88746297D01*
X116523420Y-88700964D01*
X116478085Y-88682185D01*
X116478083Y-88682184D01*
X116478082Y-88682184D01*
X116395368Y-88665731D01*
X116313769Y-88649500D01*
X116313767Y-88649500D01*
X116146233Y-88649500D01*
X116146230Y-88649500D01*
X116023830Y-88673847D01*
X115981918Y-88682184D01*
X115981917Y-88682184D01*
X115981914Y-88682185D01*
X115827135Y-88746298D01*
X115687838Y-88839373D01*
X115687832Y-88839378D01*
X115569378Y-88957832D01*
X115569373Y-88957838D01*
X115478887Y-89093261D01*
X115476297Y-89097137D01*
X115471785Y-89108029D01*
X115412185Y-89251914D01*
X115412184Y-89251917D01*
X115412184Y-89251918D01*
X115403847Y-89293830D01*
X115379500Y-89416230D01*
X111911780Y-89416230D01*
X111899552Y-89386709D01*
X111843291Y-89330448D01*
X111769782Y-89300000D01*
X110690218Y-89300000D01*
X110616709Y-89330448D01*
X110560448Y-89386709D01*
X110530000Y-89460218D01*
X107080500Y-89460218D01*
X107080500Y-89416233D01*
X107047816Y-89251918D01*
X107045365Y-89246000D01*
X109648420Y-89246000D01*
X110976000Y-89246000D01*
X111484000Y-89246000D01*
X112811580Y-89246000D01*
X112810714Y-89240534D01*
X112756825Y-89074680D01*
X112756822Y-89074674D01*
X112677643Y-88919278D01*
X112575132Y-88778184D01*
X112575130Y-88778181D01*
X112451818Y-88654869D01*
X112451815Y-88654867D01*
X112310721Y-88552356D01*
X112155325Y-88473177D01*
X112155319Y-88473174D01*
X111989460Y-88419284D01*
X111989464Y-88419284D01*
X111817198Y-88392000D01*
X111484000Y-88392000D01*
X111484000Y-89246000D01*
X110976000Y-89246000D01*
X110976000Y-88392000D01*
X110642802Y-88392000D01*
X110470537Y-88419284D01*
X110304680Y-88473174D01*
X110304674Y-88473177D01*
X110149278Y-88552356D01*
X110008184Y-88654867D01*
X110008181Y-88654869D01*
X109884869Y-88778181D01*
X109884867Y-88778184D01*
X109782356Y-88919278D01*
X109703177Y-89074674D01*
X109703174Y-89074680D01*
X109649285Y-89240534D01*
X109648420Y-89246000D01*
X107045365Y-89246000D01*
X106983703Y-89097137D01*
X106890626Y-88957838D01*
X106890621Y-88957832D01*
X106772167Y-88839378D01*
X106772161Y-88839373D01*
X106681281Y-88778649D01*
X106632863Y-88746297D01*
X106523420Y-88700964D01*
X106478085Y-88682185D01*
X106478083Y-88682184D01*
X106478082Y-88682184D01*
X106395368Y-88665731D01*
X106313769Y-88649500D01*
X106313767Y-88649500D01*
X106146233Y-88649500D01*
X106146230Y-88649500D01*
X106023830Y-88673847D01*
X105981918Y-88682184D01*
X105981917Y-88682184D01*
X105981914Y-88682185D01*
X105827135Y-88746298D01*
X105687838Y-88839373D01*
X105687832Y-88839378D01*
X105569378Y-88957832D01*
X105569373Y-88957838D01*
X105478887Y-89093261D01*
X105476297Y-89097137D01*
X105471785Y-89108029D01*
X105412185Y-89251914D01*
X105412184Y-89251917D01*
X105412184Y-89251918D01*
X105403847Y-89293830D01*
X105379500Y-89416230D01*
X101206400Y-89416230D01*
X101328860Y-89228791D01*
X101419296Y-89022616D01*
X101474564Y-88804368D01*
X101493156Y-88580000D01*
X101474564Y-88355632D01*
X101452082Y-88266853D01*
X101419297Y-88137387D01*
X101419296Y-88137386D01*
X101419296Y-88137384D01*
X101328860Y-87931209D01*
X101322140Y-87920924D01*
X101205724Y-87742734D01*
X101205720Y-87742729D01*
X101053237Y-87577091D01*
X100933684Y-87484039D01*
X100875576Y-87438811D01*
X100677574Y-87331658D01*
X100677572Y-87331657D01*
X100677571Y-87331656D01*
X100464639Y-87258557D01*
X100464630Y-87258555D01*
X100401867Y-87248082D01*
X100242569Y-87221500D01*
X100017431Y-87221500D01*
X99869211Y-87246233D01*
X99795369Y-87258555D01*
X99795360Y-87258557D01*
X99582428Y-87331656D01*
X99582426Y-87331658D01*
X99450849Y-87402864D01*
X99384426Y-87438810D01*
X99384424Y-87438811D01*
X99206762Y-87577091D01*
X99054279Y-87742729D01*
X98965483Y-87878643D01*
X98911479Y-87924731D01*
X98841131Y-87934306D01*
X98776774Y-87904329D01*
X98754517Y-87878643D01*
X98665720Y-87742729D01*
X98513237Y-87577091D01*
X98393684Y-87484039D01*
X98335576Y-87438811D01*
X98137574Y-87331658D01*
X98137572Y-87331657D01*
X98137571Y-87331656D01*
X97924639Y-87258557D01*
X97924630Y-87258555D01*
X97861867Y-87248082D01*
X97702569Y-87221500D01*
X97477431Y-87221500D01*
X97329211Y-87246233D01*
X97255369Y-87258555D01*
X97255360Y-87258557D01*
X97042428Y-87331656D01*
X97042426Y-87331658D01*
X96910849Y-87402864D01*
X96844426Y-87438810D01*
X96844424Y-87438811D01*
X96666759Y-87577094D01*
X96605374Y-87643775D01*
X96544521Y-87680346D01*
X96473557Y-87678211D01*
X96415012Y-87638049D01*
X96394618Y-87602470D01*
X96350443Y-87484033D01*
X96262904Y-87367095D01*
X96145965Y-87279555D01*
X96009093Y-87228505D01*
X95948597Y-87222000D01*
X95304000Y-87222000D01*
X95304000Y-88137749D01*
X95246853Y-88104755D01*
X95117143Y-88070000D01*
X94982857Y-88070000D01*
X94853147Y-88104755D01*
X94796000Y-88137749D01*
X94796000Y-87222000D01*
X94151402Y-87222000D01*
X94090906Y-87228505D01*
X93954035Y-87279555D01*
X93954034Y-87279555D01*
X93837095Y-87367095D01*
X93749555Y-87484034D01*
X93749553Y-87484039D01*
X93705380Y-87602470D01*
X93662833Y-87659306D01*
X93596313Y-87684116D01*
X93526939Y-87669024D01*
X93494626Y-87643777D01*
X93433240Y-87577094D01*
X93433239Y-87577093D01*
X93433237Y-87577091D01*
X93313684Y-87484039D01*
X93255576Y-87438811D01*
X93057574Y-87331658D01*
X93057572Y-87331657D01*
X93057571Y-87331656D01*
X92844639Y-87258557D01*
X92844630Y-87258555D01*
X92781867Y-87248082D01*
X92622569Y-87221500D01*
X92397431Y-87221500D01*
X92249211Y-87246233D01*
X92175369Y-87258555D01*
X92175360Y-87258557D01*
X91962428Y-87331656D01*
X91962426Y-87331658D01*
X91830849Y-87402864D01*
X91764426Y-87438810D01*
X91764424Y-87438811D01*
X91586762Y-87577091D01*
X91434279Y-87742729D01*
X91345483Y-87878643D01*
X91291479Y-87924731D01*
X91221131Y-87934306D01*
X91156774Y-87904329D01*
X91134517Y-87878643D01*
X91045720Y-87742729D01*
X90893237Y-87577091D01*
X90773684Y-87484039D01*
X90715576Y-87438811D01*
X90517574Y-87331658D01*
X90517572Y-87331657D01*
X90517571Y-87331656D01*
X90304639Y-87258557D01*
X90304630Y-87258555D01*
X90241867Y-87248082D01*
X90082569Y-87221500D01*
X89857431Y-87221500D01*
X89709211Y-87246233D01*
X89635369Y-87258555D01*
X89635360Y-87258557D01*
X89422428Y-87331656D01*
X89422426Y-87331658D01*
X89290849Y-87402864D01*
X89224426Y-87438810D01*
X89224424Y-87438811D01*
X89046762Y-87577091D01*
X88894279Y-87742729D01*
X88805483Y-87878643D01*
X88751479Y-87924731D01*
X88681131Y-87934306D01*
X88616774Y-87904329D01*
X88594517Y-87878643D01*
X88505720Y-87742729D01*
X88353237Y-87577091D01*
X88233684Y-87484039D01*
X88175576Y-87438811D01*
X87977574Y-87331658D01*
X87977572Y-87331657D01*
X87977571Y-87331656D01*
X87764639Y-87258557D01*
X87764630Y-87258555D01*
X87701867Y-87248082D01*
X87542569Y-87221500D01*
X87317431Y-87221500D01*
X87169211Y-87246233D01*
X87095369Y-87258555D01*
X87095360Y-87258557D01*
X86882428Y-87331656D01*
X86882426Y-87331658D01*
X86750849Y-87402864D01*
X86684426Y-87438810D01*
X86684424Y-87438811D01*
X86506762Y-87577091D01*
X86354279Y-87742729D01*
X86265483Y-87878643D01*
X86211479Y-87924731D01*
X86141131Y-87934306D01*
X86076774Y-87904329D01*
X86054517Y-87878643D01*
X85965720Y-87742729D01*
X85813237Y-87577091D01*
X85693684Y-87484039D01*
X85635576Y-87438811D01*
X85437574Y-87331658D01*
X85437572Y-87331657D01*
X85437571Y-87331656D01*
X85224639Y-87258557D01*
X85224630Y-87258555D01*
X85161867Y-87248082D01*
X85002569Y-87221500D01*
X84777431Y-87221500D01*
X84629211Y-87246233D01*
X84555369Y-87258555D01*
X84555360Y-87258557D01*
X84342428Y-87331656D01*
X84342426Y-87331658D01*
X84210849Y-87402864D01*
X84144426Y-87438810D01*
X84144424Y-87438811D01*
X83966759Y-87577094D01*
X83905374Y-87643775D01*
X83844521Y-87680346D01*
X83773557Y-87678211D01*
X83715012Y-87638049D01*
X83694618Y-87602470D01*
X83650443Y-87484033D01*
X83562904Y-87367095D01*
X83445965Y-87279555D01*
X83309093Y-87228505D01*
X83248597Y-87222000D01*
X82604000Y-87222000D01*
X82604000Y-88137749D01*
X82546853Y-88104755D01*
X82417143Y-88070000D01*
X82282857Y-88070000D01*
X82153147Y-88104755D01*
X82096000Y-88137749D01*
X82096000Y-87222000D01*
X81451402Y-87222000D01*
X81390906Y-87228505D01*
X81254035Y-87279555D01*
X81254034Y-87279555D01*
X81137095Y-87367095D01*
X81049555Y-87484034D01*
X81049553Y-87484039D01*
X81005380Y-87602470D01*
X80962833Y-87659306D01*
X80896313Y-87684116D01*
X80826939Y-87669024D01*
X80794626Y-87643777D01*
X80733240Y-87577094D01*
X80733239Y-87577093D01*
X80733237Y-87577091D01*
X80613684Y-87484039D01*
X80555576Y-87438811D01*
X80357574Y-87331658D01*
X80357572Y-87331657D01*
X80357571Y-87331656D01*
X80144639Y-87258557D01*
X80144630Y-87258555D01*
X80081867Y-87248082D01*
X79922569Y-87221500D01*
X79697431Y-87221500D01*
X79549211Y-87246233D01*
X79475369Y-87258555D01*
X79475360Y-87258557D01*
X79262428Y-87331656D01*
X79262426Y-87331658D01*
X79130849Y-87402864D01*
X79064426Y-87438810D01*
X79064424Y-87438811D01*
X78886762Y-87577091D01*
X78734279Y-87742729D01*
X78645483Y-87878643D01*
X78591479Y-87924731D01*
X78521131Y-87934306D01*
X78456774Y-87904329D01*
X78434517Y-87878643D01*
X78345720Y-87742729D01*
X78193237Y-87577091D01*
X78073684Y-87484039D01*
X78015576Y-87438811D01*
X77817574Y-87331658D01*
X77817572Y-87331657D01*
X77817571Y-87331656D01*
X77604639Y-87258557D01*
X77604630Y-87258555D01*
X77541867Y-87248082D01*
X77382569Y-87221500D01*
X77157431Y-87221500D01*
X77009211Y-87246233D01*
X76935369Y-87258555D01*
X76935360Y-87258557D01*
X76722428Y-87331656D01*
X76722426Y-87331658D01*
X76590849Y-87402864D01*
X76524426Y-87438810D01*
X76524424Y-87438811D01*
X76346762Y-87577091D01*
X76194279Y-87742729D01*
X76105483Y-87878643D01*
X76051479Y-87924731D01*
X75981131Y-87934306D01*
X75916774Y-87904329D01*
X75894517Y-87878643D01*
X75805720Y-87742729D01*
X75653237Y-87577091D01*
X75533684Y-87484039D01*
X75475576Y-87438811D01*
X75277574Y-87331658D01*
X75277572Y-87331657D01*
X75277571Y-87331656D01*
X75064639Y-87258557D01*
X75064630Y-87258555D01*
X75001867Y-87248082D01*
X74842569Y-87221500D01*
X74617431Y-87221500D01*
X74469211Y-87246233D01*
X74395369Y-87258555D01*
X74395360Y-87258557D01*
X74182428Y-87331656D01*
X74182426Y-87331658D01*
X74050849Y-87402864D01*
X73984426Y-87438810D01*
X73984424Y-87438811D01*
X73806762Y-87577091D01*
X73654279Y-87742729D01*
X73565483Y-87878643D01*
X73511479Y-87924731D01*
X73441131Y-87934306D01*
X73376774Y-87904329D01*
X73354517Y-87878643D01*
X73265720Y-87742729D01*
X73113237Y-87577091D01*
X72993684Y-87484039D01*
X72935576Y-87438811D01*
X72737574Y-87331658D01*
X72737572Y-87331657D01*
X72737571Y-87331656D01*
X72524639Y-87258557D01*
X72524630Y-87258555D01*
X72461867Y-87248082D01*
X72302569Y-87221500D01*
X72077431Y-87221500D01*
X71929211Y-87246233D01*
X71855369Y-87258555D01*
X71855360Y-87258557D01*
X71642428Y-87331656D01*
X71642426Y-87331658D01*
X71510849Y-87402864D01*
X71444426Y-87438810D01*
X71444424Y-87438811D01*
X71266759Y-87577094D01*
X71205374Y-87643775D01*
X71144521Y-87680346D01*
X71073557Y-87678211D01*
X71015012Y-87638049D01*
X70994618Y-87602470D01*
X70950443Y-87484033D01*
X70862904Y-87367095D01*
X70745965Y-87279555D01*
X70609093Y-87228505D01*
X70548597Y-87222000D01*
X69904000Y-87222000D01*
X69904000Y-88137749D01*
X69846853Y-88104755D01*
X69717143Y-88070000D01*
X69582857Y-88070000D01*
X69453147Y-88104755D01*
X69396000Y-88137749D01*
X69396000Y-87222000D01*
X68751402Y-87222000D01*
X68690906Y-87228505D01*
X68554035Y-87279555D01*
X68554034Y-87279555D01*
X68437095Y-87367095D01*
X68349555Y-87484034D01*
X68349553Y-87484039D01*
X68305380Y-87602470D01*
X68262833Y-87659306D01*
X68196313Y-87684116D01*
X68126939Y-87669024D01*
X68094626Y-87643777D01*
X68033240Y-87577094D01*
X68033239Y-87577093D01*
X68033237Y-87577091D01*
X67913684Y-87484039D01*
X67855576Y-87438811D01*
X67657574Y-87331658D01*
X67657572Y-87331657D01*
X67657571Y-87331656D01*
X67444639Y-87258557D01*
X67444630Y-87258555D01*
X67381867Y-87248082D01*
X67222569Y-87221500D01*
X66997431Y-87221500D01*
X66849211Y-87246233D01*
X66775369Y-87258555D01*
X66775360Y-87258557D01*
X66562428Y-87331656D01*
X66562426Y-87331658D01*
X66430849Y-87402864D01*
X66364426Y-87438810D01*
X66364424Y-87438811D01*
X66186762Y-87577091D01*
X66034279Y-87742729D01*
X65945483Y-87878643D01*
X65891479Y-87924731D01*
X65821131Y-87934306D01*
X65756774Y-87904329D01*
X65734517Y-87878643D01*
X65645720Y-87742729D01*
X65493237Y-87577091D01*
X65373684Y-87484039D01*
X65315576Y-87438811D01*
X65117574Y-87331658D01*
X65117572Y-87331657D01*
X65117571Y-87331656D01*
X64904639Y-87258557D01*
X64904630Y-87258555D01*
X64841867Y-87248082D01*
X64682569Y-87221500D01*
X64457431Y-87221500D01*
X64309211Y-87246233D01*
X64235369Y-87258555D01*
X64235360Y-87258557D01*
X64022428Y-87331656D01*
X64022426Y-87331658D01*
X63890849Y-87402864D01*
X63824426Y-87438810D01*
X63824424Y-87438811D01*
X63646762Y-87577091D01*
X63494279Y-87742729D01*
X63405483Y-87878643D01*
X63351479Y-87924731D01*
X63281131Y-87934306D01*
X63216774Y-87904329D01*
X63194517Y-87878643D01*
X63105720Y-87742729D01*
X62953237Y-87577091D01*
X62833684Y-87484039D01*
X62775576Y-87438811D01*
X62577574Y-87331658D01*
X62577572Y-87331657D01*
X62577571Y-87331656D01*
X62364639Y-87258557D01*
X62364630Y-87258555D01*
X62301867Y-87248082D01*
X62142569Y-87221500D01*
X61917431Y-87221500D01*
X61769211Y-87246233D01*
X61695369Y-87258555D01*
X61695360Y-87258557D01*
X61482428Y-87331656D01*
X61482426Y-87331658D01*
X61350849Y-87402864D01*
X61284426Y-87438810D01*
X61284424Y-87438811D01*
X61106762Y-87577091D01*
X60954279Y-87742729D01*
X60865483Y-87878643D01*
X60811479Y-87924731D01*
X60741131Y-87934306D01*
X60676774Y-87904329D01*
X60654517Y-87878643D01*
X60565720Y-87742729D01*
X60413237Y-87577091D01*
X60293684Y-87484039D01*
X60235576Y-87438811D01*
X60037574Y-87331658D01*
X60037572Y-87331657D01*
X60037571Y-87331656D01*
X59824639Y-87258557D01*
X59824630Y-87258555D01*
X59761867Y-87248082D01*
X59602569Y-87221500D01*
X59377431Y-87221500D01*
X59229211Y-87246233D01*
X59155369Y-87258555D01*
X59155360Y-87258557D01*
X58942428Y-87331656D01*
X58942426Y-87331658D01*
X58810849Y-87402864D01*
X58744426Y-87438810D01*
X58744424Y-87438811D01*
X58566759Y-87577094D01*
X58505374Y-87643775D01*
X58444521Y-87680346D01*
X58373557Y-87678211D01*
X58315012Y-87638049D01*
X58294618Y-87602470D01*
X58250443Y-87484033D01*
X58162904Y-87367095D01*
X58045965Y-87279555D01*
X57909093Y-87228505D01*
X57848597Y-87222000D01*
X57204000Y-87222000D01*
X57204000Y-88137749D01*
X57146853Y-88104755D01*
X57017143Y-88070000D01*
X56882857Y-88070000D01*
X56753147Y-88104755D01*
X56696000Y-88137749D01*
X56696000Y-87222000D01*
X56051402Y-87222000D01*
X55990906Y-87228505D01*
X55854035Y-87279555D01*
X55854034Y-87279555D01*
X55737095Y-87367095D01*
X55649555Y-87484034D01*
X55649553Y-87484039D01*
X55605380Y-87602470D01*
X55562833Y-87659306D01*
X55496313Y-87684116D01*
X55426939Y-87669024D01*
X55394626Y-87643777D01*
X55333240Y-87577094D01*
X55333239Y-87577093D01*
X55333237Y-87577091D01*
X55213684Y-87484039D01*
X55155576Y-87438811D01*
X54957574Y-87331658D01*
X54957572Y-87331657D01*
X54957571Y-87331656D01*
X54744639Y-87258557D01*
X54744630Y-87258555D01*
X54681867Y-87248082D01*
X54522569Y-87221500D01*
X54297431Y-87221500D01*
X54149211Y-87246233D01*
X54075369Y-87258555D01*
X54075360Y-87258557D01*
X53862428Y-87331656D01*
X53862426Y-87331658D01*
X53730849Y-87402864D01*
X53664426Y-87438810D01*
X53664424Y-87438811D01*
X53486762Y-87577091D01*
X53334279Y-87742729D01*
X53245483Y-87878643D01*
X53191479Y-87924731D01*
X53121131Y-87934306D01*
X53056774Y-87904329D01*
X53034517Y-87878643D01*
X52945720Y-87742729D01*
X52793237Y-87577091D01*
X52673684Y-87484039D01*
X52615576Y-87438811D01*
X52417574Y-87331658D01*
X52417572Y-87331657D01*
X52417571Y-87331656D01*
X52204639Y-87258557D01*
X52204630Y-87258555D01*
X52141867Y-87248082D01*
X51982569Y-87221500D01*
X51757431Y-87221500D01*
X51609211Y-87246233D01*
X51535369Y-87258555D01*
X51535360Y-87258557D01*
X51322428Y-87331656D01*
X51322426Y-87331658D01*
X51190849Y-87402864D01*
X51124426Y-87438810D01*
X51124424Y-87438811D01*
X50946762Y-87577091D01*
X50794279Y-87742729D01*
X50794275Y-87742734D01*
X50671141Y-87931206D01*
X50580703Y-88137386D01*
X50580702Y-88137387D01*
X50525437Y-88355624D01*
X50525436Y-88355630D01*
X50525436Y-88355632D01*
X50506844Y-88580000D01*
X50000000Y-88580000D01*
X50000000Y-86916230D01*
X105379500Y-86916230D01*
X105379500Y-87083769D01*
X105388977Y-87131410D01*
X105406078Y-87217387D01*
X105412185Y-87248085D01*
X105416523Y-87258557D01*
X105476297Y-87402863D01*
X105476298Y-87402864D01*
X105569373Y-87542161D01*
X105569378Y-87542167D01*
X105687832Y-87660621D01*
X105687838Y-87660626D01*
X105827137Y-87753703D01*
X105981918Y-87817816D01*
X106146233Y-87850500D01*
X106146234Y-87850500D01*
X106313766Y-87850500D01*
X106313767Y-87850500D01*
X106478082Y-87817816D01*
X106632863Y-87753703D01*
X106772162Y-87660626D01*
X106890626Y-87542162D01*
X106983703Y-87402863D01*
X107047816Y-87248082D01*
X107080500Y-87083767D01*
X107080500Y-86916233D01*
X107080499Y-86916230D01*
X115379500Y-86916230D01*
X115379500Y-87083769D01*
X115388977Y-87131410D01*
X115406078Y-87217387D01*
X115412185Y-87248085D01*
X115416523Y-87258557D01*
X115476297Y-87402863D01*
X115476298Y-87402864D01*
X115569373Y-87542161D01*
X115569378Y-87542167D01*
X115687832Y-87660621D01*
X115687838Y-87660626D01*
X115827137Y-87753703D01*
X115981918Y-87817816D01*
X116146233Y-87850500D01*
X116146234Y-87850500D01*
X116313766Y-87850500D01*
X116313767Y-87850500D01*
X116478082Y-87817816D01*
X116632863Y-87753703D01*
X116772162Y-87660626D01*
X116890626Y-87542162D01*
X116983703Y-87402863D01*
X117047816Y-87248082D01*
X117055700Y-87208446D01*
X120081500Y-87208446D01*
X120081500Y-88559544D01*
X120092112Y-88663425D01*
X120147885Y-88831738D01*
X120240970Y-88982652D01*
X120240975Y-88982658D01*
X120366341Y-89108024D01*
X120366347Y-89108029D01*
X120366348Y-89108030D01*
X120517262Y-89201115D01*
X120685574Y-89256887D01*
X120789455Y-89267500D01*
X121590544Y-89267499D01*
X121694426Y-89256887D01*
X121862738Y-89201115D01*
X122013652Y-89108030D01*
X122139030Y-88982652D01*
X122172481Y-88928418D01*
X122225263Y-88880943D01*
X122295338Y-88869539D01*
X122360454Y-88897830D01*
X122368815Y-88905472D01*
X122467855Y-89004512D01*
X122467858Y-89004514D01*
X122467861Y-89004517D01*
X122609019Y-89107074D01*
X122764484Y-89186288D01*
X122930426Y-89240205D01*
X123102759Y-89267500D01*
X123102762Y-89267500D01*
X123277238Y-89267500D01*
X123277241Y-89267500D01*
X123449574Y-89240205D01*
X123615516Y-89186288D01*
X123770981Y-89107074D01*
X123912139Y-89004517D01*
X124035517Y-88881139D01*
X124088064Y-88808813D01*
X124144286Y-88765460D01*
X124215022Y-88759385D01*
X124277814Y-88792516D01*
X124291935Y-88808813D01*
X124344483Y-88881139D01*
X124394596Y-88931252D01*
X124428620Y-88993562D01*
X124431500Y-89020346D01*
X124431500Y-90466707D01*
X124454178Y-90580715D01*
X124460649Y-90613247D01*
X124517826Y-90751284D01*
X124600834Y-90875515D01*
X125754485Y-92029166D01*
X125878716Y-92112174D01*
X126016753Y-92169351D01*
X126090022Y-92183924D01*
X126090023Y-92183925D01*
X126104598Y-92186824D01*
X126163294Y-92198500D01*
X126163295Y-92198500D01*
X126163299Y-92198500D01*
X137996701Y-92198500D01*
X137996705Y-92198500D01*
X137996706Y-92198500D01*
X138069976Y-92183925D01*
X138143247Y-92169351D01*
X138281284Y-92112174D01*
X138405515Y-92029166D01*
X141213162Y-89221517D01*
X141275472Y-89187494D01*
X141331668Y-89188095D01*
X141357877Y-89194387D01*
X141479597Y-89223609D01*
X141732000Y-89243474D01*
X141984403Y-89223609D01*
X142230591Y-89164505D01*
X142464502Y-89067616D01*
X142680376Y-88935328D01*
X142872898Y-88770898D01*
X143037328Y-88578376D01*
X143169616Y-88362502D01*
X143266505Y-88128591D01*
X143325609Y-87882403D01*
X143343113Y-87660000D01*
X145816844Y-87660000D01*
X145835273Y-87882403D01*
X145835437Y-87884375D01*
X145890702Y-88102612D01*
X145890703Y-88102613D01*
X145890704Y-88102616D01*
X145981140Y-88308791D01*
X145981141Y-88308793D01*
X146104275Y-88497265D01*
X146104279Y-88497270D01*
X146247841Y-88653217D01*
X146279262Y-88716882D01*
X146271276Y-88787428D01*
X146226417Y-88842457D01*
X146199173Y-88856610D01*
X146084039Y-88899553D01*
X146084034Y-88899555D01*
X145967095Y-88987095D01*
X145879555Y-89104034D01*
X145879555Y-89104035D01*
X145828505Y-89240906D01*
X145822000Y-89301402D01*
X145822000Y-89946000D01*
X146749297Y-89946000D01*
X146714075Y-90007007D01*
X146680000Y-90134174D01*
X146680000Y-90265826D01*
X146714075Y-90392993D01*
X146749297Y-90454000D01*
X145822000Y-90454000D01*
X145822000Y-91098597D01*
X145828505Y-91159093D01*
X145879555Y-91295964D01*
X145879555Y-91295965D01*
X145967095Y-91412904D01*
X146084034Y-91500444D01*
X146220906Y-91551494D01*
X146281402Y-91557999D01*
X146281415Y-91558000D01*
X146926000Y-91558000D01*
X146926000Y-90630702D01*
X146987007Y-90665925D01*
X147114174Y-90700000D01*
X147245826Y-90700000D01*
X147372993Y-90665925D01*
X147434000Y-90630702D01*
X147434000Y-91558000D01*
X148078585Y-91558000D01*
X148078597Y-91557999D01*
X148139093Y-91551494D01*
X148275964Y-91500444D01*
X148275965Y-91500444D01*
X148392904Y-91412904D01*
X148480444Y-91295965D01*
X148480444Y-91295964D01*
X148531494Y-91159093D01*
X148537999Y-91098597D01*
X148538000Y-91098585D01*
X148538000Y-90454000D01*
X147610703Y-90454000D01*
X147645925Y-90392993D01*
X147680000Y-90265826D01*
X147680000Y-90134174D01*
X147645925Y-90007007D01*
X147610703Y-89946000D01*
X148538000Y-89946000D01*
X148538000Y-89301414D01*
X148537999Y-89301402D01*
X148531494Y-89240906D01*
X148480444Y-89104035D01*
X148480444Y-89104034D01*
X148392904Y-88987095D01*
X148275966Y-88899556D01*
X148160826Y-88856611D01*
X148103991Y-88814064D01*
X148079180Y-88747543D01*
X148094272Y-88678169D01*
X148112154Y-88653222D01*
X148255722Y-88497268D01*
X148378860Y-88308791D01*
X148469296Y-88102616D01*
X148524564Y-87884368D01*
X148543156Y-87660000D01*
X148524564Y-87435632D01*
X148485040Y-87279555D01*
X148469297Y-87217387D01*
X148469296Y-87217386D01*
X148469296Y-87217384D01*
X148378860Y-87011209D01*
X148355797Y-86975908D01*
X148255724Y-86822734D01*
X148255720Y-86822729D01*
X148106769Y-86660928D01*
X148103240Y-86657094D01*
X148103239Y-86657093D01*
X148103237Y-86657091D01*
X148006984Y-86582174D01*
X147925576Y-86518811D01*
X147727574Y-86411658D01*
X147727572Y-86411657D01*
X147727571Y-86411656D01*
X147514639Y-86338557D01*
X147514630Y-86338555D01*
X147470476Y-86331187D01*
X147292569Y-86301500D01*
X147067431Y-86301500D01*
X146928574Y-86324671D01*
X146845369Y-86338555D01*
X146845360Y-86338557D01*
X146632428Y-86411656D01*
X146632426Y-86411658D01*
X146434426Y-86518810D01*
X146434424Y-86518811D01*
X146256762Y-86657091D01*
X146104279Y-86822729D01*
X146104275Y-86822734D01*
X145981141Y-87011206D01*
X145890703Y-87217386D01*
X145890702Y-87217387D01*
X145835437Y-87435624D01*
X145835436Y-87435630D01*
X145835436Y-87435632D01*
X145816844Y-87660000D01*
X143343113Y-87660000D01*
X143345474Y-87630000D01*
X143325609Y-87377597D01*
X143266505Y-87131409D01*
X143169616Y-86897498D01*
X143037328Y-86681624D01*
X142872898Y-86489102D01*
X142680376Y-86324672D01*
X142464502Y-86192384D01*
X142441191Y-86182728D01*
X142230589Y-86095494D01*
X142062177Y-86055062D01*
X141984403Y-86036391D01*
X141732000Y-86016526D01*
X141479597Y-86036391D01*
X141233410Y-86095494D01*
X140999499Y-86192383D01*
X140783625Y-86324671D01*
X140591102Y-86489102D01*
X140426671Y-86681625D01*
X140294383Y-86897499D01*
X140197494Y-87131410D01*
X140138391Y-87377597D01*
X140118526Y-87630000D01*
X140138391Y-87882403D01*
X140173904Y-88030329D01*
X140170356Y-88101237D01*
X140140480Y-88148837D01*
X137644724Y-90644595D01*
X137582412Y-90678620D01*
X137555629Y-90681500D01*
X126604371Y-90681500D01*
X126536250Y-90661498D01*
X126515276Y-90644595D01*
X125985405Y-90114724D01*
X125951379Y-90052412D01*
X125948500Y-90025629D01*
X125948500Y-89020346D01*
X125968502Y-88952225D01*
X125985400Y-88931255D01*
X126035517Y-88881139D01*
X126088374Y-88808387D01*
X126144595Y-88765034D01*
X126215331Y-88758958D01*
X126278123Y-88792090D01*
X126292245Y-88808388D01*
X126344866Y-88880815D01*
X126468181Y-89004130D01*
X126468184Y-89004132D01*
X126609278Y-89106643D01*
X126764674Y-89185822D01*
X126764680Y-89185825D01*
X126930534Y-89239714D01*
X126936000Y-89240580D01*
X126936000Y-88160330D01*
X126959745Y-88184075D01*
X127045255Y-88233444D01*
X127140630Y-88259000D01*
X127239370Y-88259000D01*
X127334745Y-88233444D01*
X127420255Y-88184075D01*
X127444000Y-88160330D01*
X127444000Y-89240580D01*
X127449465Y-89239714D01*
X127615319Y-89185825D01*
X127615325Y-89185822D01*
X127770721Y-89106643D01*
X127911815Y-89004132D01*
X127911818Y-89004130D01*
X128035130Y-88880818D01*
X128035132Y-88880815D01*
X128137643Y-88739721D01*
X128216822Y-88584325D01*
X128216825Y-88584319D01*
X128270715Y-88418462D01*
X128298000Y-88246197D01*
X128298000Y-88138000D01*
X127466330Y-88138000D01*
X127490075Y-88114255D01*
X127539444Y-88028745D01*
X127565000Y-87933370D01*
X127565000Y-87834630D01*
X127539444Y-87739255D01*
X127490075Y-87653745D01*
X127466330Y-87630000D01*
X128298000Y-87630000D01*
X128298000Y-87521802D01*
X128270715Y-87349537D01*
X128216825Y-87183680D01*
X128216822Y-87183674D01*
X128137643Y-87028278D01*
X128035132Y-86887184D01*
X128035130Y-86887181D01*
X127911818Y-86763869D01*
X127911815Y-86763867D01*
X127770721Y-86661356D01*
X127615325Y-86582177D01*
X127615319Y-86582174D01*
X127449461Y-86528284D01*
X127449449Y-86528281D01*
X127444000Y-86527417D01*
X127444000Y-87607670D01*
X127420255Y-87583925D01*
X127334745Y-87534556D01*
X127239370Y-87509000D01*
X127140630Y-87509000D01*
X127045255Y-87534556D01*
X126959745Y-87583925D01*
X126936000Y-87607670D01*
X126936000Y-86527417D01*
X126930550Y-86528281D01*
X126930538Y-86528284D01*
X126764680Y-86582174D01*
X126764674Y-86582177D01*
X126609278Y-86661356D01*
X126468184Y-86763867D01*
X126468181Y-86763869D01*
X126344864Y-86887186D01*
X126292244Y-86959612D01*
X126236022Y-87002965D01*
X126165285Y-87009040D01*
X126102494Y-86975908D01*
X126088373Y-86959611D01*
X126071409Y-86936262D01*
X126035517Y-86886861D01*
X126035514Y-86886858D01*
X126035512Y-86886855D01*
X125912144Y-86763487D01*
X125912141Y-86763485D01*
X125912139Y-86763483D01*
X125770981Y-86660926D01*
X125615516Y-86581712D01*
X125615513Y-86581711D01*
X125615511Y-86581710D01*
X125449577Y-86527796D01*
X125449574Y-86527795D01*
X125277241Y-86500500D01*
X125102759Y-86500500D01*
X124930426Y-86527795D01*
X124930423Y-86527795D01*
X124930422Y-86527796D01*
X124764488Y-86581710D01*
X124764482Y-86581713D01*
X124609015Y-86660928D01*
X124467858Y-86763485D01*
X124467855Y-86763487D01*
X124344488Y-86886854D01*
X124291936Y-86959186D01*
X124235713Y-87002539D01*
X124164977Y-87008614D01*
X124102185Y-86975482D01*
X124088064Y-86959186D01*
X124071409Y-86936262D01*
X124035517Y-86886861D01*
X124035513Y-86886857D01*
X124035511Y-86886854D01*
X123912144Y-86763487D01*
X123912141Y-86763485D01*
X123912139Y-86763483D01*
X123770981Y-86660926D01*
X123615516Y-86581712D01*
X123615513Y-86581711D01*
X123615511Y-86581710D01*
X123449577Y-86527796D01*
X123449574Y-86527795D01*
X123277241Y-86500500D01*
X123102759Y-86500500D01*
X122930426Y-86527795D01*
X122930423Y-86527795D01*
X122930422Y-86527796D01*
X122764488Y-86581710D01*
X122764482Y-86581713D01*
X122609015Y-86660928D01*
X122467860Y-86763483D01*
X122368815Y-86862528D01*
X122306503Y-86896553D01*
X122235687Y-86891487D01*
X122178851Y-86848940D01*
X122172484Y-86839586D01*
X122139030Y-86785348D01*
X122139027Y-86785345D01*
X122139024Y-86785341D01*
X122013658Y-86659975D01*
X122013652Y-86659970D01*
X122008984Y-86657091D01*
X121862738Y-86566885D01*
X121744770Y-86527795D01*
X121694427Y-86511113D01*
X121694420Y-86511112D01*
X121590553Y-86500500D01*
X120789455Y-86500500D01*
X120685574Y-86511112D01*
X120517261Y-86566885D01*
X120366347Y-86659970D01*
X120366341Y-86659975D01*
X120240975Y-86785341D01*
X120240970Y-86785347D01*
X120147885Y-86936262D01*
X120092113Y-87104572D01*
X120092112Y-87104579D01*
X120081500Y-87208446D01*
X117055700Y-87208446D01*
X117080500Y-87083767D01*
X117080500Y-86916233D01*
X117047816Y-86751918D01*
X116983703Y-86597137D01*
X116906336Y-86481350D01*
X129963500Y-86481350D01*
X129963500Y-88778649D01*
X129970009Y-88839196D01*
X129970011Y-88839204D01*
X130021110Y-88976202D01*
X130021112Y-88976207D01*
X130108738Y-89093261D01*
X130225792Y-89180887D01*
X130225794Y-89180888D01*
X130225796Y-89180889D01*
X130284875Y-89202924D01*
X130362795Y-89231988D01*
X130362803Y-89231990D01*
X130423350Y-89238499D01*
X130423355Y-89238499D01*
X130423362Y-89238500D01*
X130423368Y-89238500D01*
X132720632Y-89238500D01*
X132720638Y-89238500D01*
X132720645Y-89238499D01*
X132720649Y-89238499D01*
X132781196Y-89231990D01*
X132781199Y-89231989D01*
X132781201Y-89231989D01*
X132918204Y-89180889D01*
X132940091Y-89164505D01*
X133035261Y-89093261D01*
X133122887Y-88976207D01*
X133122887Y-88976206D01*
X133122889Y-88976204D01*
X133173923Y-88839378D01*
X133173988Y-88839204D01*
X133173990Y-88839196D01*
X133180499Y-88778649D01*
X133180500Y-88778632D01*
X133180500Y-86481367D01*
X133180499Y-86481350D01*
X133173990Y-86420803D01*
X133173988Y-86420795D01*
X133122889Y-86283797D01*
X133122887Y-86283792D01*
X133035261Y-86166738D01*
X132918207Y-86079112D01*
X132918202Y-86079110D01*
X132781204Y-86028011D01*
X132781196Y-86028009D01*
X132720649Y-86021500D01*
X132720638Y-86021500D01*
X130423362Y-86021500D01*
X130423350Y-86021500D01*
X130362803Y-86028009D01*
X130362795Y-86028011D01*
X130225797Y-86079110D01*
X130225792Y-86079112D01*
X130108738Y-86166738D01*
X130021112Y-86283792D01*
X130021110Y-86283797D01*
X129970011Y-86420795D01*
X129970009Y-86420803D01*
X129963500Y-86481350D01*
X116906336Y-86481350D01*
X116890626Y-86457838D01*
X116890621Y-86457832D01*
X116772167Y-86339378D01*
X116772161Y-86339373D01*
X116632864Y-86246298D01*
X116632865Y-86246298D01*
X116632863Y-86246297D01*
X116502707Y-86192384D01*
X116478085Y-86182185D01*
X116478083Y-86182184D01*
X116478082Y-86182184D01*
X116395368Y-86165731D01*
X116313769Y-86149500D01*
X116313767Y-86149500D01*
X116146233Y-86149500D01*
X116146230Y-86149500D01*
X116023830Y-86173847D01*
X115981918Y-86182184D01*
X115981917Y-86182184D01*
X115981914Y-86182185D01*
X115827135Y-86246298D01*
X115687838Y-86339373D01*
X115687832Y-86339378D01*
X115569378Y-86457832D01*
X115569373Y-86457838D01*
X115476298Y-86597135D01*
X115412185Y-86751914D01*
X115379500Y-86916230D01*
X107080499Y-86916230D01*
X107047816Y-86751918D01*
X106983703Y-86597137D01*
X106890626Y-86457838D01*
X106890621Y-86457832D01*
X106772167Y-86339378D01*
X106772161Y-86339373D01*
X106632864Y-86246298D01*
X106632865Y-86246298D01*
X106632863Y-86246297D01*
X106502707Y-86192384D01*
X106478085Y-86182185D01*
X106478083Y-86182184D01*
X106478082Y-86182184D01*
X106395368Y-86165731D01*
X106313769Y-86149500D01*
X106313767Y-86149500D01*
X106146233Y-86149500D01*
X106146230Y-86149500D01*
X106023830Y-86173847D01*
X105981918Y-86182184D01*
X105981917Y-86182184D01*
X105981914Y-86182185D01*
X105827135Y-86246298D01*
X105687838Y-86339373D01*
X105687832Y-86339378D01*
X105569378Y-86457832D01*
X105569373Y-86457838D01*
X105476298Y-86597135D01*
X105412185Y-86751914D01*
X105379500Y-86916230D01*
X50000000Y-86916230D01*
X50000000Y-85126000D01*
X50020002Y-85057879D01*
X50073658Y-85011386D01*
X50126000Y-85000000D01*
X108904000Y-85000000D01*
X108972121Y-85020002D01*
G37*
%TD.AperFunction*%
%TD*%
M02*
