M48
; DRILL file {KiCad 8.0.3} date 2024-06-25T21:05:24+0100
; FORMAT={-:-/ absolute / inch / decimal}
; #@! TF.CreationDate,2024-06-25T21:05:24+01:00
; #@! TF.GenerationSoftware,Kicad,Pcbnew,8.0.3
; #@! TF.FileFunction,MixedPlating,1,2
FMAT,2
INCH
; #@! TA.AperFunction,Plated,PTH,ViaDrill
T1C0.0157
; #@! TA.AperFunction,Plated,PTH,ComponentDrill
T2C0.0157
; #@! TA.AperFunction,Plated,PTH,ComponentDrill
T3C0.0295
; #@! TA.AperFunction,Plated,PTH,ComponentDrill
T4C0.0315
; #@! TA.AperFunction,Plated,PTH,ComponentDrill
T5C0.0394
; #@! TA.AperFunction,Plated,PTH,ComponentDrill
T6C0.0402
; #@! TA.AperFunction,Plated,PTH,ComponentDrill
T7C0.0433
; #@! TA.AperFunction,NonPlated,NPTH,ComponentDrill
T8C0.0472
; #@! TA.AperFunction,NonPlated,NPTH,ComponentDrill
T9C0.0591
; #@! TA.AperFunction,NonPlated,NPTH,ComponentDrill
T10C0.0709
%
G90
G05
T1
X2.14Y-4.98
X2.44Y-3.82
X2.76Y-3.79
X3.42Y-4.68
X3.42Y-5.0
X3.63Y-3.8
X4.88Y-3.76
X5.31Y-4.66
X5.31Y-4.98
X5.38Y-3.45
X5.55Y-4.53
X5.59Y-3.76
X5.75Y-4.66
X5.75Y-4.98
T3
X4.7713Y-3.46
X4.85Y-3.46
X4.9287Y-3.46
X5.0075Y-3.46
T4
X4.17Y-3.91
X4.1732Y-4.0307
X4.1732Y-4.3307
X4.311Y-4.0307
X4.311Y-4.3307
X4.4488Y-4.0307
X4.4488Y-4.3307
X4.47Y-3.91
X4.5866Y-4.0307
X4.5866Y-4.3307
X4.63Y-3.91
X4.7244Y-4.0307
X4.7244Y-4.3307
X4.8622Y-4.0307
X4.8622Y-4.3307
X4.93Y-3.91
X5.0Y-4.0307
X5.0Y-4.3307
X5.1378Y-4.0307
X5.1378Y-4.3307
X5.18Y-3.7834
X5.18Y-3.8819
X5.2756Y-4.0307
X5.2756Y-4.3307
X5.4134Y-4.0307
X5.4134Y-4.3307
X5.5512Y-4.0307
X5.5512Y-4.3307
X5.689Y-4.0307
X5.689Y-4.3307
X5.8268Y-4.0307
X5.8268Y-4.3307
T5
X5.7945Y-3.4512
X5.7945Y-3.5512
T6
X2.0421Y-3.4874
X2.0421Y-4.1874
X2.1421Y-3.4874
X2.1421Y-4.1874
X2.2421Y-3.4874
X2.2421Y-4.1874
X2.3421Y-3.4874
X2.3421Y-4.1874
X2.4421Y-3.4874
X2.4421Y-4.1874
X2.5421Y-3.4874
X2.5421Y-4.1874
X2.6421Y-3.4874
X2.6421Y-4.1874
X2.7421Y-3.4874
X2.7421Y-4.1874
X2.8421Y-3.4874
X2.8421Y-4.1874
X2.9421Y-3.4874
X2.9421Y-4.1874
X3.0421Y-3.4874
X3.0421Y-4.1874
X3.1421Y-3.4874
X3.1421Y-4.1874
X3.2421Y-3.4874
X3.2421Y-4.1874
X3.3421Y-3.4874
X3.3421Y-4.1874
X3.4421Y-3.4874
X3.4421Y-4.1874
X3.5421Y-3.4874
X3.5421Y-4.1874
X3.6421Y-3.4874
X3.6421Y-4.1874
X3.7421Y-3.4874
X3.7421Y-4.1874
X3.8421Y-3.4874
X3.8421Y-4.1874
X3.9331Y-3.7374
X3.9331Y-3.8374
X3.9331Y-3.9374
X3.9421Y-3.4874
X3.9421Y-4.1874
T7
X5.18Y-3.45
X5.58Y-3.45
T8
X4.1823Y-3.4252
X4.1823Y-3.5236
X4.3791Y-3.7205
X4.576Y-3.4252
X4.576Y-3.5236
T9
X2.1665Y-3.7419
X2.1665Y-3.9329
T10
X2.0472Y-3.7301
X2.0472Y-3.9447
T2
G00X4.1823Y-3.7008
M15
G01X4.1823Y-3.7402
M16
G05
G00X4.3988Y-3.5236
M15
G01X4.3594Y-3.5236
M16
G05
G00X4.576Y-3.7402
M15
G01X4.576Y-3.7008
M16
G05
T4
G00X4.2807Y-3.7067
M15
G01X4.2807Y-3.7343
M16
G05
G00X4.4776Y-3.7343
M15
G01X4.4776Y-3.7067
M16
G05
M30
