%TF.GenerationSoftware,KiCad,Pcbnew,8.0.3*%
%TF.CreationDate,2024-06-25T21:05:21+01:00*%
%TF.ProjectId,PicoMIDITouchKeyboard,5069636f-4d49-4444-9954-6f7563684b65,rev?*%
%TF.SameCoordinates,Original*%
%TF.FileFunction,Legend,Top*%
%TF.FilePolarity,Positive*%
%FSLAX46Y46*%
G04 Gerber Fmt 4.6, Leading zero omitted, Abs format (unit mm)*
G04 Created by KiCad (PCBNEW 8.0.3) date 2024-06-25 21:05:21*
%MOMM*%
%LPD*%
G01*
G04 APERTURE LIST*
%ADD10C,0.200000*%
%ADD11C,0.150000*%
%ADD12C,0.120000*%
%ADD13C,0.300000*%
G04 APERTURE END LIST*
D10*
X121260911Y-91584709D02*
X121260911Y-92318042D01*
X120999006Y-91165662D02*
X120737101Y-91951376D01*
X120737101Y-91951376D02*
X121418054Y-91951376D01*
X123199006Y-91218042D02*
X122675196Y-91218042D01*
X122675196Y-91218042D02*
X122622815Y-91741852D01*
X122622815Y-91741852D02*
X122675196Y-91689471D01*
X122675196Y-91689471D02*
X122779958Y-91637090D01*
X122779958Y-91637090D02*
X123041863Y-91637090D01*
X123041863Y-91637090D02*
X123146625Y-91689471D01*
X123146625Y-91689471D02*
X123199006Y-91741852D01*
X123199006Y-91741852D02*
X123251387Y-91846614D01*
X123251387Y-91846614D02*
X123251387Y-92108519D01*
X123251387Y-92108519D02*
X123199006Y-92213281D01*
X123199006Y-92213281D02*
X123146625Y-92265662D01*
X123146625Y-92265662D02*
X123041863Y-92318042D01*
X123041863Y-92318042D02*
X122779958Y-92318042D01*
X122779958Y-92318042D02*
X122675196Y-92265662D01*
X122675196Y-92265662D02*
X122622815Y-92213281D01*
X125084720Y-91218042D02*
X124560910Y-91218042D01*
X124560910Y-91218042D02*
X124508529Y-91741852D01*
X124508529Y-91741852D02*
X124560910Y-91689471D01*
X124560910Y-91689471D02*
X124665672Y-91637090D01*
X124665672Y-91637090D02*
X124927577Y-91637090D01*
X124927577Y-91637090D02*
X125032339Y-91689471D01*
X125032339Y-91689471D02*
X125084720Y-91741852D01*
X125084720Y-91741852D02*
X125137101Y-91846614D01*
X125137101Y-91846614D02*
X125137101Y-92108519D01*
X125137101Y-92108519D02*
X125084720Y-92213281D01*
X125084720Y-92213281D02*
X125032339Y-92265662D01*
X125032339Y-92265662D02*
X124927577Y-92318042D01*
X124927577Y-92318042D02*
X124665672Y-92318042D01*
X124665672Y-92318042D02*
X124560910Y-92265662D01*
X124560910Y-92265662D02*
X124508529Y-92213281D01*
X125451386Y-91218042D02*
X125818053Y-92318042D01*
X125818053Y-92318042D02*
X126184720Y-91218042D01*
X127965672Y-91270423D02*
X127860910Y-91218042D01*
X127860910Y-91218042D02*
X127703767Y-91218042D01*
X127703767Y-91218042D02*
X127546624Y-91270423D01*
X127546624Y-91270423D02*
X127441862Y-91375185D01*
X127441862Y-91375185D02*
X127389481Y-91479947D01*
X127389481Y-91479947D02*
X127337100Y-91689471D01*
X127337100Y-91689471D02*
X127337100Y-91846614D01*
X127337100Y-91846614D02*
X127389481Y-92056138D01*
X127389481Y-92056138D02*
X127441862Y-92160900D01*
X127441862Y-92160900D02*
X127546624Y-92265662D01*
X127546624Y-92265662D02*
X127703767Y-92318042D01*
X127703767Y-92318042D02*
X127808529Y-92318042D01*
X127808529Y-92318042D02*
X127965672Y-92265662D01*
X127965672Y-92265662D02*
X128018053Y-92213281D01*
X128018053Y-92213281D02*
X128018053Y-91846614D01*
X128018053Y-91846614D02*
X127808529Y-91846614D01*
X128489481Y-92318042D02*
X128489481Y-91218042D01*
X128489481Y-91218042D02*
X129118053Y-92318042D01*
X129118053Y-92318042D02*
X129118053Y-91218042D01*
X129641862Y-92318042D02*
X129641862Y-91218042D01*
X129641862Y-91218042D02*
X129903767Y-91218042D01*
X129903767Y-91218042D02*
X130060910Y-91270423D01*
X130060910Y-91270423D02*
X130165672Y-91375185D01*
X130165672Y-91375185D02*
X130218053Y-91479947D01*
X130218053Y-91479947D02*
X130270434Y-91689471D01*
X130270434Y-91689471D02*
X130270434Y-91846614D01*
X130270434Y-91846614D02*
X130218053Y-92056138D01*
X130218053Y-92056138D02*
X130165672Y-92160900D01*
X130165672Y-92160900D02*
X130060910Y-92265662D01*
X130060910Y-92265662D02*
X129903767Y-92318042D01*
X129903767Y-92318042D02*
X129641862Y-92318042D01*
X120789482Y-94088980D02*
X120789482Y-92988980D01*
X120789482Y-92988980D02*
X121156149Y-93774695D01*
X121156149Y-93774695D02*
X121522816Y-92988980D01*
X121522816Y-92988980D02*
X121522816Y-94088980D01*
X122046625Y-94088980D02*
X122046625Y-92988980D01*
X122570435Y-94088980D02*
X122570435Y-92988980D01*
X122570435Y-92988980D02*
X122832340Y-92988980D01*
X122832340Y-92988980D02*
X122989483Y-93041361D01*
X122989483Y-93041361D02*
X123094245Y-93146123D01*
X123094245Y-93146123D02*
X123146626Y-93250885D01*
X123146626Y-93250885D02*
X123199007Y-93460409D01*
X123199007Y-93460409D02*
X123199007Y-93617552D01*
X123199007Y-93617552D02*
X123146626Y-93827076D01*
X123146626Y-93827076D02*
X123094245Y-93931838D01*
X123094245Y-93931838D02*
X122989483Y-94036600D01*
X122989483Y-94036600D02*
X122832340Y-94088980D01*
X122832340Y-94088980D02*
X122570435Y-94088980D01*
X123670435Y-94088980D02*
X123670435Y-92988980D01*
X125032340Y-94088980D02*
X125032340Y-92988980D01*
X125032340Y-92988980D02*
X125451388Y-92988980D01*
X125451388Y-92988980D02*
X125556150Y-93041361D01*
X125556150Y-93041361D02*
X125608531Y-93093742D01*
X125608531Y-93093742D02*
X125660912Y-93198504D01*
X125660912Y-93198504D02*
X125660912Y-93355647D01*
X125660912Y-93355647D02*
X125608531Y-93460409D01*
X125608531Y-93460409D02*
X125556150Y-93512790D01*
X125556150Y-93512790D02*
X125451388Y-93565171D01*
X125451388Y-93565171D02*
X125032340Y-93565171D01*
X126027578Y-92988980D02*
X126289483Y-94088980D01*
X126289483Y-94088980D02*
X126499007Y-93303266D01*
X126499007Y-93303266D02*
X126708531Y-94088980D01*
X126708531Y-94088980D02*
X126970436Y-92988980D01*
X128018055Y-94088980D02*
X127651388Y-93565171D01*
X127389483Y-94088980D02*
X127389483Y-92988980D01*
X127389483Y-92988980D02*
X127808531Y-92988980D01*
X127808531Y-92988980D02*
X127913293Y-93041361D01*
X127913293Y-93041361D02*
X127965674Y-93093742D01*
X127965674Y-93093742D02*
X128018055Y-93198504D01*
X128018055Y-93198504D02*
X128018055Y-93355647D01*
X128018055Y-93355647D02*
X127965674Y-93460409D01*
X127965674Y-93460409D02*
X127913293Y-93512790D01*
X127913293Y-93512790D02*
X127808531Y-93565171D01*
X127808531Y-93565171D02*
X127389483Y-93565171D01*
X143676742Y-87551863D02*
X143676742Y-88123291D01*
X143676742Y-88123291D02*
X144248171Y-88180434D01*
X144248171Y-88180434D02*
X144191028Y-88123291D01*
X144191028Y-88123291D02*
X144133885Y-88009006D01*
X144133885Y-88009006D02*
X144133885Y-87723291D01*
X144133885Y-87723291D02*
X144191028Y-87609006D01*
X144191028Y-87609006D02*
X144248171Y-87551863D01*
X144248171Y-87551863D02*
X144362457Y-87494720D01*
X144362457Y-87494720D02*
X144648171Y-87494720D01*
X144648171Y-87494720D02*
X144762457Y-87551863D01*
X144762457Y-87551863D02*
X144819600Y-87609006D01*
X144819600Y-87609006D02*
X144876742Y-87723291D01*
X144876742Y-87723291D02*
X144876742Y-88009006D01*
X144876742Y-88009006D02*
X144819600Y-88123291D01*
X144819600Y-88123291D02*
X144762457Y-88180434D01*
X143676742Y-87151863D02*
X144876742Y-86751863D01*
X144876742Y-86751863D02*
X143676742Y-86351863D01*
X143733885Y-91774435D02*
X143676742Y-91888721D01*
X143676742Y-91888721D02*
X143676742Y-92060149D01*
X143676742Y-92060149D02*
X143733885Y-92231578D01*
X143733885Y-92231578D02*
X143848171Y-92345863D01*
X143848171Y-92345863D02*
X143962457Y-92403006D01*
X143962457Y-92403006D02*
X144191028Y-92460149D01*
X144191028Y-92460149D02*
X144362457Y-92460149D01*
X144362457Y-92460149D02*
X144591028Y-92403006D01*
X144591028Y-92403006D02*
X144705314Y-92345863D01*
X144705314Y-92345863D02*
X144819600Y-92231578D01*
X144819600Y-92231578D02*
X144876742Y-92060149D01*
X144876742Y-92060149D02*
X144876742Y-91945863D01*
X144876742Y-91945863D02*
X144819600Y-91774435D01*
X144819600Y-91774435D02*
X144762457Y-91717292D01*
X144762457Y-91717292D02*
X144362457Y-91717292D01*
X144362457Y-91717292D02*
X144362457Y-91945863D01*
X144876742Y-91203006D02*
X143676742Y-91203006D01*
X143676742Y-91203006D02*
X144876742Y-90517292D01*
X144876742Y-90517292D02*
X143676742Y-90517292D01*
X144876742Y-89945863D02*
X143676742Y-89945863D01*
X143676742Y-89945863D02*
X143676742Y-89660149D01*
X143676742Y-89660149D02*
X143733885Y-89488720D01*
X143733885Y-89488720D02*
X143848171Y-89374435D01*
X143848171Y-89374435D02*
X143962457Y-89317292D01*
X143962457Y-89317292D02*
X144191028Y-89260149D01*
X144191028Y-89260149D02*
X144362457Y-89260149D01*
X144362457Y-89260149D02*
X144591028Y-89317292D01*
X144591028Y-89317292D02*
X144705314Y-89374435D01*
X144705314Y-89374435D02*
X144819600Y-89488720D01*
X144819600Y-89488720D02*
X144876742Y-89660149D01*
X144876742Y-89660149D02*
X144876742Y-89945863D01*
D11*
X52049931Y-129976666D02*
X51049931Y-129976666D01*
X51049931Y-129976666D02*
X51049931Y-129595714D01*
X51049931Y-129595714D02*
X51097550Y-129500476D01*
X51097550Y-129500476D02*
X51145169Y-129452857D01*
X51145169Y-129452857D02*
X51240407Y-129405238D01*
X51240407Y-129405238D02*
X51383264Y-129405238D01*
X51383264Y-129405238D02*
X51478502Y-129452857D01*
X51478502Y-129452857D02*
X51526121Y-129500476D01*
X51526121Y-129500476D02*
X51573740Y-129595714D01*
X51573740Y-129595714D02*
X51573740Y-129976666D01*
X52049931Y-128976666D02*
X51383264Y-128976666D01*
X51049931Y-128976666D02*
X51097550Y-129024285D01*
X51097550Y-129024285D02*
X51145169Y-128976666D01*
X51145169Y-128976666D02*
X51097550Y-128929047D01*
X51097550Y-128929047D02*
X51049931Y-128976666D01*
X51049931Y-128976666D02*
X51145169Y-128976666D01*
X52002312Y-128071905D02*
X52049931Y-128167143D01*
X52049931Y-128167143D02*
X52049931Y-128357619D01*
X52049931Y-128357619D02*
X52002312Y-128452857D01*
X52002312Y-128452857D02*
X51954692Y-128500476D01*
X51954692Y-128500476D02*
X51859454Y-128548095D01*
X51859454Y-128548095D02*
X51573740Y-128548095D01*
X51573740Y-128548095D02*
X51478502Y-128500476D01*
X51478502Y-128500476D02*
X51430883Y-128452857D01*
X51430883Y-128452857D02*
X51383264Y-128357619D01*
X51383264Y-128357619D02*
X51383264Y-128167143D01*
X51383264Y-128167143D02*
X51430883Y-128071905D01*
X52049931Y-127500476D02*
X52002312Y-127595714D01*
X52002312Y-127595714D02*
X51954692Y-127643333D01*
X51954692Y-127643333D02*
X51859454Y-127690952D01*
X51859454Y-127690952D02*
X51573740Y-127690952D01*
X51573740Y-127690952D02*
X51478502Y-127643333D01*
X51478502Y-127643333D02*
X51430883Y-127595714D01*
X51430883Y-127595714D02*
X51383264Y-127500476D01*
X51383264Y-127500476D02*
X51383264Y-127357619D01*
X51383264Y-127357619D02*
X51430883Y-127262381D01*
X51430883Y-127262381D02*
X51478502Y-127214762D01*
X51478502Y-127214762D02*
X51573740Y-127167143D01*
X51573740Y-127167143D02*
X51859454Y-127167143D01*
X51859454Y-127167143D02*
X51954692Y-127214762D01*
X51954692Y-127214762D02*
X52002312Y-127262381D01*
X52002312Y-127262381D02*
X52049931Y-127357619D01*
X52049931Y-127357619D02*
X52049931Y-127500476D01*
X52049931Y-125976666D02*
X51049931Y-125976666D01*
X51049931Y-125976666D02*
X51764216Y-125643333D01*
X51764216Y-125643333D02*
X51049931Y-125310000D01*
X51049931Y-125310000D02*
X52049931Y-125310000D01*
X52049931Y-124833809D02*
X51049931Y-124833809D01*
X52049931Y-124357619D02*
X51049931Y-124357619D01*
X51049931Y-124357619D02*
X51049931Y-124119524D01*
X51049931Y-124119524D02*
X51097550Y-123976667D01*
X51097550Y-123976667D02*
X51192788Y-123881429D01*
X51192788Y-123881429D02*
X51288026Y-123833810D01*
X51288026Y-123833810D02*
X51478502Y-123786191D01*
X51478502Y-123786191D02*
X51621359Y-123786191D01*
X51621359Y-123786191D02*
X51811835Y-123833810D01*
X51811835Y-123833810D02*
X51907073Y-123881429D01*
X51907073Y-123881429D02*
X52002312Y-123976667D01*
X52002312Y-123976667D02*
X52049931Y-124119524D01*
X52049931Y-124119524D02*
X52049931Y-124357619D01*
X52049931Y-123357619D02*
X51049931Y-123357619D01*
X51049931Y-122262381D02*
X51049931Y-121690953D01*
X52049931Y-121976667D02*
X51049931Y-121976667D01*
X52049931Y-121214762D02*
X52002312Y-121310000D01*
X52002312Y-121310000D02*
X51954692Y-121357619D01*
X51954692Y-121357619D02*
X51859454Y-121405238D01*
X51859454Y-121405238D02*
X51573740Y-121405238D01*
X51573740Y-121405238D02*
X51478502Y-121357619D01*
X51478502Y-121357619D02*
X51430883Y-121310000D01*
X51430883Y-121310000D02*
X51383264Y-121214762D01*
X51383264Y-121214762D02*
X51383264Y-121071905D01*
X51383264Y-121071905D02*
X51430883Y-120976667D01*
X51430883Y-120976667D02*
X51478502Y-120929048D01*
X51478502Y-120929048D02*
X51573740Y-120881429D01*
X51573740Y-120881429D02*
X51859454Y-120881429D01*
X51859454Y-120881429D02*
X51954692Y-120929048D01*
X51954692Y-120929048D02*
X52002312Y-120976667D01*
X52002312Y-120976667D02*
X52049931Y-121071905D01*
X52049931Y-121071905D02*
X52049931Y-121214762D01*
X51383264Y-120024286D02*
X52049931Y-120024286D01*
X51383264Y-120452857D02*
X51907073Y-120452857D01*
X51907073Y-120452857D02*
X52002312Y-120405238D01*
X52002312Y-120405238D02*
X52049931Y-120310000D01*
X52049931Y-120310000D02*
X52049931Y-120167143D01*
X52049931Y-120167143D02*
X52002312Y-120071905D01*
X52002312Y-120071905D02*
X51954692Y-120024286D01*
X52002312Y-119119524D02*
X52049931Y-119214762D01*
X52049931Y-119214762D02*
X52049931Y-119405238D01*
X52049931Y-119405238D02*
X52002312Y-119500476D01*
X52002312Y-119500476D02*
X51954692Y-119548095D01*
X51954692Y-119548095D02*
X51859454Y-119595714D01*
X51859454Y-119595714D02*
X51573740Y-119595714D01*
X51573740Y-119595714D02*
X51478502Y-119548095D01*
X51478502Y-119548095D02*
X51430883Y-119500476D01*
X51430883Y-119500476D02*
X51383264Y-119405238D01*
X51383264Y-119405238D02*
X51383264Y-119214762D01*
X51383264Y-119214762D02*
X51430883Y-119119524D01*
X52049931Y-118690952D02*
X51049931Y-118690952D01*
X52049931Y-118262381D02*
X51526121Y-118262381D01*
X51526121Y-118262381D02*
X51430883Y-118310000D01*
X51430883Y-118310000D02*
X51383264Y-118405238D01*
X51383264Y-118405238D02*
X51383264Y-118548095D01*
X51383264Y-118548095D02*
X51430883Y-118643333D01*
X51430883Y-118643333D02*
X51478502Y-118690952D01*
X52049931Y-117024285D02*
X51049931Y-117024285D01*
X52049931Y-116452857D02*
X51478502Y-116881428D01*
X51049931Y-116452857D02*
X51621359Y-117024285D01*
X52002312Y-115643333D02*
X52049931Y-115738571D01*
X52049931Y-115738571D02*
X52049931Y-115929047D01*
X52049931Y-115929047D02*
X52002312Y-116024285D01*
X52002312Y-116024285D02*
X51907073Y-116071904D01*
X51907073Y-116071904D02*
X51526121Y-116071904D01*
X51526121Y-116071904D02*
X51430883Y-116024285D01*
X51430883Y-116024285D02*
X51383264Y-115929047D01*
X51383264Y-115929047D02*
X51383264Y-115738571D01*
X51383264Y-115738571D02*
X51430883Y-115643333D01*
X51430883Y-115643333D02*
X51526121Y-115595714D01*
X51526121Y-115595714D02*
X51621359Y-115595714D01*
X51621359Y-115595714D02*
X51716597Y-116071904D01*
X51383264Y-115262380D02*
X52049931Y-115024285D01*
X51383264Y-114786190D02*
X52049931Y-115024285D01*
X52049931Y-115024285D02*
X52288026Y-115119523D01*
X52288026Y-115119523D02*
X52335645Y-115167142D01*
X52335645Y-115167142D02*
X52383264Y-115262380D01*
X52049931Y-114405237D02*
X51049931Y-114405237D01*
X51430883Y-114405237D02*
X51383264Y-114309999D01*
X51383264Y-114309999D02*
X51383264Y-114119523D01*
X51383264Y-114119523D02*
X51430883Y-114024285D01*
X51430883Y-114024285D02*
X51478502Y-113976666D01*
X51478502Y-113976666D02*
X51573740Y-113929047D01*
X51573740Y-113929047D02*
X51859454Y-113929047D01*
X51859454Y-113929047D02*
X51954692Y-113976666D01*
X51954692Y-113976666D02*
X52002312Y-114024285D01*
X52002312Y-114024285D02*
X52049931Y-114119523D01*
X52049931Y-114119523D02*
X52049931Y-114309999D01*
X52049931Y-114309999D02*
X52002312Y-114405237D01*
X52049931Y-113357618D02*
X52002312Y-113452856D01*
X52002312Y-113452856D02*
X51954692Y-113500475D01*
X51954692Y-113500475D02*
X51859454Y-113548094D01*
X51859454Y-113548094D02*
X51573740Y-113548094D01*
X51573740Y-113548094D02*
X51478502Y-113500475D01*
X51478502Y-113500475D02*
X51430883Y-113452856D01*
X51430883Y-113452856D02*
X51383264Y-113357618D01*
X51383264Y-113357618D02*
X51383264Y-113214761D01*
X51383264Y-113214761D02*
X51430883Y-113119523D01*
X51430883Y-113119523D02*
X51478502Y-113071904D01*
X51478502Y-113071904D02*
X51573740Y-113024285D01*
X51573740Y-113024285D02*
X51859454Y-113024285D01*
X51859454Y-113024285D02*
X51954692Y-113071904D01*
X51954692Y-113071904D02*
X52002312Y-113119523D01*
X52002312Y-113119523D02*
X52049931Y-113214761D01*
X52049931Y-113214761D02*
X52049931Y-113357618D01*
X52049931Y-112167142D02*
X51526121Y-112167142D01*
X51526121Y-112167142D02*
X51430883Y-112214761D01*
X51430883Y-112214761D02*
X51383264Y-112309999D01*
X51383264Y-112309999D02*
X51383264Y-112500475D01*
X51383264Y-112500475D02*
X51430883Y-112595713D01*
X52002312Y-112167142D02*
X52049931Y-112262380D01*
X52049931Y-112262380D02*
X52049931Y-112500475D01*
X52049931Y-112500475D02*
X52002312Y-112595713D01*
X52002312Y-112595713D02*
X51907073Y-112643332D01*
X51907073Y-112643332D02*
X51811835Y-112643332D01*
X51811835Y-112643332D02*
X51716597Y-112595713D01*
X51716597Y-112595713D02*
X51668978Y-112500475D01*
X51668978Y-112500475D02*
X51668978Y-112262380D01*
X51668978Y-112262380D02*
X51621359Y-112167142D01*
X52049931Y-111690951D02*
X51383264Y-111690951D01*
X51573740Y-111690951D02*
X51478502Y-111643332D01*
X51478502Y-111643332D02*
X51430883Y-111595713D01*
X51430883Y-111595713D02*
X51383264Y-111500475D01*
X51383264Y-111500475D02*
X51383264Y-111405237D01*
X52049931Y-110643332D02*
X51049931Y-110643332D01*
X52002312Y-110643332D02*
X52049931Y-110738570D01*
X52049931Y-110738570D02*
X52049931Y-110929046D01*
X52049931Y-110929046D02*
X52002312Y-111024284D01*
X52002312Y-111024284D02*
X51954692Y-111071903D01*
X51954692Y-111071903D02*
X51859454Y-111119522D01*
X51859454Y-111119522D02*
X51573740Y-111119522D01*
X51573740Y-111119522D02*
X51478502Y-111071903D01*
X51478502Y-111071903D02*
X51430883Y-111024284D01*
X51430883Y-111024284D02*
X51383264Y-110929046D01*
X51383264Y-110929046D02*
X51383264Y-110738570D01*
X51383264Y-110738570D02*
X51430883Y-110643332D01*
X53659875Y-125500476D02*
X52659875Y-125500476D01*
X53612256Y-125500476D02*
X53659875Y-125595714D01*
X53659875Y-125595714D02*
X53659875Y-125786190D01*
X53659875Y-125786190D02*
X53612256Y-125881428D01*
X53612256Y-125881428D02*
X53564636Y-125929047D01*
X53564636Y-125929047D02*
X53469398Y-125976666D01*
X53469398Y-125976666D02*
X53183684Y-125976666D01*
X53183684Y-125976666D02*
X53088446Y-125929047D01*
X53088446Y-125929047D02*
X53040827Y-125881428D01*
X53040827Y-125881428D02*
X52993208Y-125786190D01*
X52993208Y-125786190D02*
X52993208Y-125595714D01*
X52993208Y-125595714D02*
X53040827Y-125500476D01*
X53659875Y-125024285D02*
X52993208Y-125024285D01*
X52659875Y-125024285D02*
X52707494Y-125071904D01*
X52707494Y-125071904D02*
X52755113Y-125024285D01*
X52755113Y-125024285D02*
X52707494Y-124976666D01*
X52707494Y-124976666D02*
X52659875Y-125024285D01*
X52659875Y-125024285D02*
X52755113Y-125024285D01*
X52993208Y-124643333D02*
X53659875Y-124405238D01*
X52993208Y-124167143D02*
X53659875Y-124405238D01*
X53659875Y-124405238D02*
X53897970Y-124500476D01*
X53897970Y-124500476D02*
X53945589Y-124548095D01*
X53945589Y-124548095D02*
X53993208Y-124643333D01*
X53612256Y-123405238D02*
X53659875Y-123500476D01*
X53659875Y-123500476D02*
X53659875Y-123690952D01*
X53659875Y-123690952D02*
X53612256Y-123786190D01*
X53612256Y-123786190D02*
X53517017Y-123833809D01*
X53517017Y-123833809D02*
X53136065Y-123833809D01*
X53136065Y-123833809D02*
X53040827Y-123786190D01*
X53040827Y-123786190D02*
X52993208Y-123690952D01*
X52993208Y-123690952D02*
X52993208Y-123500476D01*
X52993208Y-123500476D02*
X53040827Y-123405238D01*
X53040827Y-123405238D02*
X53136065Y-123357619D01*
X53136065Y-123357619D02*
X53231303Y-123357619D01*
X53231303Y-123357619D02*
X53326541Y-123833809D01*
X53659875Y-122786190D02*
X53612256Y-122881428D01*
X53612256Y-122881428D02*
X53517017Y-122929047D01*
X53517017Y-122929047D02*
X52659875Y-122929047D01*
X53612256Y-122024285D02*
X53659875Y-122119523D01*
X53659875Y-122119523D02*
X53659875Y-122309999D01*
X53659875Y-122309999D02*
X53612256Y-122405237D01*
X53612256Y-122405237D02*
X53517017Y-122452856D01*
X53517017Y-122452856D02*
X53136065Y-122452856D01*
X53136065Y-122452856D02*
X53040827Y-122405237D01*
X53040827Y-122405237D02*
X52993208Y-122309999D01*
X52993208Y-122309999D02*
X52993208Y-122119523D01*
X52993208Y-122119523D02*
X53040827Y-122024285D01*
X53040827Y-122024285D02*
X53136065Y-121976666D01*
X53136065Y-121976666D02*
X53231303Y-121976666D01*
X53231303Y-121976666D02*
X53326541Y-122452856D01*
X53612256Y-121119523D02*
X53659875Y-121214761D01*
X53659875Y-121214761D02*
X53659875Y-121405237D01*
X53659875Y-121405237D02*
X53612256Y-121500475D01*
X53612256Y-121500475D02*
X53564636Y-121548094D01*
X53564636Y-121548094D02*
X53469398Y-121595713D01*
X53469398Y-121595713D02*
X53183684Y-121595713D01*
X53183684Y-121595713D02*
X53088446Y-121548094D01*
X53088446Y-121548094D02*
X53040827Y-121500475D01*
X53040827Y-121500475D02*
X52993208Y-121405237D01*
X52993208Y-121405237D02*
X52993208Y-121214761D01*
X52993208Y-121214761D02*
X53040827Y-121119523D01*
X52993208Y-120833808D02*
X52993208Y-120452856D01*
X52659875Y-120690951D02*
X53517017Y-120690951D01*
X53517017Y-120690951D02*
X53612256Y-120643332D01*
X53612256Y-120643332D02*
X53659875Y-120548094D01*
X53659875Y-120548094D02*
X53659875Y-120452856D01*
X53659875Y-120119522D02*
X52993208Y-120119522D01*
X53183684Y-120119522D02*
X53088446Y-120071903D01*
X53088446Y-120071903D02*
X53040827Y-120024284D01*
X53040827Y-120024284D02*
X52993208Y-119929046D01*
X52993208Y-119929046D02*
X52993208Y-119833808D01*
X53659875Y-119357617D02*
X53612256Y-119452855D01*
X53612256Y-119452855D02*
X53564636Y-119500474D01*
X53564636Y-119500474D02*
X53469398Y-119548093D01*
X53469398Y-119548093D02*
X53183684Y-119548093D01*
X53183684Y-119548093D02*
X53088446Y-119500474D01*
X53088446Y-119500474D02*
X53040827Y-119452855D01*
X53040827Y-119452855D02*
X52993208Y-119357617D01*
X52993208Y-119357617D02*
X52993208Y-119214760D01*
X52993208Y-119214760D02*
X53040827Y-119119522D01*
X53040827Y-119119522D02*
X53088446Y-119071903D01*
X53088446Y-119071903D02*
X53183684Y-119024284D01*
X53183684Y-119024284D02*
X53469398Y-119024284D01*
X53469398Y-119024284D02*
X53564636Y-119071903D01*
X53564636Y-119071903D02*
X53612256Y-119119522D01*
X53612256Y-119119522D02*
X53659875Y-119214760D01*
X53659875Y-119214760D02*
X53659875Y-119357617D01*
X53659875Y-118595712D02*
X52993208Y-118595712D01*
X53088446Y-118595712D02*
X53040827Y-118548093D01*
X53040827Y-118548093D02*
X52993208Y-118452855D01*
X52993208Y-118452855D02*
X52993208Y-118309998D01*
X52993208Y-118309998D02*
X53040827Y-118214760D01*
X53040827Y-118214760D02*
X53136065Y-118167141D01*
X53136065Y-118167141D02*
X53659875Y-118167141D01*
X53136065Y-118167141D02*
X53040827Y-118119522D01*
X53040827Y-118119522D02*
X52993208Y-118024284D01*
X52993208Y-118024284D02*
X52993208Y-117881427D01*
X52993208Y-117881427D02*
X53040827Y-117786188D01*
X53040827Y-117786188D02*
X53136065Y-117738569D01*
X53136065Y-117738569D02*
X53659875Y-117738569D01*
X52993208Y-116833808D02*
X53659875Y-116833808D01*
X52993208Y-117262379D02*
X53517017Y-117262379D01*
X53517017Y-117262379D02*
X53612256Y-117214760D01*
X53612256Y-117214760D02*
X53659875Y-117119522D01*
X53659875Y-117119522D02*
X53659875Y-116976665D01*
X53659875Y-116976665D02*
X53612256Y-116881427D01*
X53612256Y-116881427D02*
X53564636Y-116833808D01*
X53612256Y-116405236D02*
X53659875Y-116309998D01*
X53659875Y-116309998D02*
X53659875Y-116119522D01*
X53659875Y-116119522D02*
X53612256Y-116024284D01*
X53612256Y-116024284D02*
X53517017Y-115976665D01*
X53517017Y-115976665D02*
X53469398Y-115976665D01*
X53469398Y-115976665D02*
X53374160Y-116024284D01*
X53374160Y-116024284D02*
X53326541Y-116119522D01*
X53326541Y-116119522D02*
X53326541Y-116262379D01*
X53326541Y-116262379D02*
X53278922Y-116357617D01*
X53278922Y-116357617D02*
X53183684Y-116405236D01*
X53183684Y-116405236D02*
X53136065Y-116405236D01*
X53136065Y-116405236D02*
X53040827Y-116357617D01*
X53040827Y-116357617D02*
X52993208Y-116262379D01*
X52993208Y-116262379D02*
X52993208Y-116119522D01*
X52993208Y-116119522D02*
X53040827Y-116024284D01*
X53659875Y-115548093D02*
X52993208Y-115548093D01*
X52659875Y-115548093D02*
X52707494Y-115595712D01*
X52707494Y-115595712D02*
X52755113Y-115548093D01*
X52755113Y-115548093D02*
X52707494Y-115500474D01*
X52707494Y-115500474D02*
X52659875Y-115548093D01*
X52659875Y-115548093D02*
X52755113Y-115548093D01*
X53612256Y-114643332D02*
X53659875Y-114738570D01*
X53659875Y-114738570D02*
X53659875Y-114929046D01*
X53659875Y-114929046D02*
X53612256Y-115024284D01*
X53612256Y-115024284D02*
X53564636Y-115071903D01*
X53564636Y-115071903D02*
X53469398Y-115119522D01*
X53469398Y-115119522D02*
X53183684Y-115119522D01*
X53183684Y-115119522D02*
X53088446Y-115071903D01*
X53088446Y-115071903D02*
X53040827Y-115024284D01*
X53040827Y-115024284D02*
X52993208Y-114929046D01*
X52993208Y-114929046D02*
X52993208Y-114738570D01*
X52993208Y-114738570D02*
X53040827Y-114643332D01*
X54603152Y-124024285D02*
X55269819Y-123786190D01*
X55269819Y-123786190D02*
X54603152Y-123548095D01*
X54269819Y-122976666D02*
X54269819Y-122881428D01*
X54269819Y-122881428D02*
X54317438Y-122786190D01*
X54317438Y-122786190D02*
X54365057Y-122738571D01*
X54365057Y-122738571D02*
X54460295Y-122690952D01*
X54460295Y-122690952D02*
X54650771Y-122643333D01*
X54650771Y-122643333D02*
X54888866Y-122643333D01*
X54888866Y-122643333D02*
X55079342Y-122690952D01*
X55079342Y-122690952D02*
X55174580Y-122738571D01*
X55174580Y-122738571D02*
X55222200Y-122786190D01*
X55222200Y-122786190D02*
X55269819Y-122881428D01*
X55269819Y-122881428D02*
X55269819Y-122976666D01*
X55269819Y-122976666D02*
X55222200Y-123071904D01*
X55222200Y-123071904D02*
X55174580Y-123119523D01*
X55174580Y-123119523D02*
X55079342Y-123167142D01*
X55079342Y-123167142D02*
X54888866Y-123214761D01*
X54888866Y-123214761D02*
X54650771Y-123214761D01*
X54650771Y-123214761D02*
X54460295Y-123167142D01*
X54460295Y-123167142D02*
X54365057Y-123119523D01*
X54365057Y-123119523D02*
X54317438Y-123071904D01*
X54317438Y-123071904D02*
X54269819Y-122976666D01*
X55174580Y-122214761D02*
X55222200Y-122167142D01*
X55222200Y-122167142D02*
X55269819Y-122214761D01*
X55269819Y-122214761D02*
X55222200Y-122262380D01*
X55222200Y-122262380D02*
X55174580Y-122214761D01*
X55174580Y-122214761D02*
X55269819Y-122214761D01*
X55269819Y-121214762D02*
X55269819Y-121786190D01*
X55269819Y-121500476D02*
X54269819Y-121500476D01*
X54269819Y-121500476D02*
X54412676Y-121595714D01*
X54412676Y-121595714D02*
X54507914Y-121690952D01*
X54507914Y-121690952D02*
X54555533Y-121786190D01*
X54365057Y-120071904D02*
X54317438Y-120024285D01*
X54317438Y-120024285D02*
X54269819Y-119929047D01*
X54269819Y-119929047D02*
X54269819Y-119690952D01*
X54269819Y-119690952D02*
X54317438Y-119595714D01*
X54317438Y-119595714D02*
X54365057Y-119548095D01*
X54365057Y-119548095D02*
X54460295Y-119500476D01*
X54460295Y-119500476D02*
X54555533Y-119500476D01*
X54555533Y-119500476D02*
X54698390Y-119548095D01*
X54698390Y-119548095D02*
X55269819Y-120119523D01*
X55269819Y-120119523D02*
X55269819Y-119500476D01*
X54269819Y-118881428D02*
X54269819Y-118786190D01*
X54269819Y-118786190D02*
X54317438Y-118690952D01*
X54317438Y-118690952D02*
X54365057Y-118643333D01*
X54365057Y-118643333D02*
X54460295Y-118595714D01*
X54460295Y-118595714D02*
X54650771Y-118548095D01*
X54650771Y-118548095D02*
X54888866Y-118548095D01*
X54888866Y-118548095D02*
X55079342Y-118595714D01*
X55079342Y-118595714D02*
X55174580Y-118643333D01*
X55174580Y-118643333D02*
X55222200Y-118690952D01*
X55222200Y-118690952D02*
X55269819Y-118786190D01*
X55269819Y-118786190D02*
X55269819Y-118881428D01*
X55269819Y-118881428D02*
X55222200Y-118976666D01*
X55222200Y-118976666D02*
X55174580Y-119024285D01*
X55174580Y-119024285D02*
X55079342Y-119071904D01*
X55079342Y-119071904D02*
X54888866Y-119119523D01*
X54888866Y-119119523D02*
X54650771Y-119119523D01*
X54650771Y-119119523D02*
X54460295Y-119071904D01*
X54460295Y-119071904D02*
X54365057Y-119024285D01*
X54365057Y-119024285D02*
X54317438Y-118976666D01*
X54317438Y-118976666D02*
X54269819Y-118881428D01*
X54365057Y-118167142D02*
X54317438Y-118119523D01*
X54317438Y-118119523D02*
X54269819Y-118024285D01*
X54269819Y-118024285D02*
X54269819Y-117786190D01*
X54269819Y-117786190D02*
X54317438Y-117690952D01*
X54317438Y-117690952D02*
X54365057Y-117643333D01*
X54365057Y-117643333D02*
X54460295Y-117595714D01*
X54460295Y-117595714D02*
X54555533Y-117595714D01*
X54555533Y-117595714D02*
X54698390Y-117643333D01*
X54698390Y-117643333D02*
X55269819Y-118214761D01*
X55269819Y-118214761D02*
X55269819Y-117595714D01*
X54603152Y-116738571D02*
X55269819Y-116738571D01*
X54222200Y-116976666D02*
X54936485Y-117214761D01*
X54936485Y-117214761D02*
X54936485Y-116595714D01*
X120474819Y-106535714D02*
X120474819Y-107107142D01*
X120474819Y-106821428D02*
X119474819Y-106821428D01*
X119474819Y-106821428D02*
X119617676Y-106916666D01*
X119617676Y-106916666D02*
X119712914Y-107011904D01*
X119712914Y-107011904D02*
X119760533Y-107107142D01*
X120474819Y-106107142D02*
X119474819Y-106107142D01*
X119474819Y-106107142D02*
X120189104Y-105773809D01*
X120189104Y-105773809D02*
X119474819Y-105440476D01*
X119474819Y-105440476D02*
X120474819Y-105440476D01*
X122261905Y-119669104D02*
X122738095Y-119669104D01*
X122166667Y-119954819D02*
X122500000Y-118954819D01*
X122500000Y-118954819D02*
X122833333Y-119954819D01*
X123119048Y-119288152D02*
X123833333Y-119288152D01*
X123404762Y-118859580D02*
X123119048Y-120145295D01*
X123738095Y-119716723D02*
X123023810Y-119716723D01*
X123452381Y-120145295D02*
X123738095Y-118859580D01*
X127474819Y-106535714D02*
X127474819Y-107107142D01*
X127474819Y-106821428D02*
X126474819Y-106821428D01*
X126474819Y-106821428D02*
X126617676Y-106916666D01*
X126617676Y-106916666D02*
X126712914Y-107011904D01*
X126712914Y-107011904D02*
X126760533Y-107107142D01*
X127474819Y-106107142D02*
X126474819Y-106107142D01*
X126474819Y-106107142D02*
X127189104Y-105773809D01*
X127189104Y-105773809D02*
X126474819Y-105440476D01*
X126474819Y-105440476D02*
X127474819Y-105440476D01*
X137974819Y-106535714D02*
X137974819Y-107107142D01*
X137974819Y-106821428D02*
X136974819Y-106821428D01*
X136974819Y-106821428D02*
X137117676Y-106916666D01*
X137117676Y-106916666D02*
X137212914Y-107011904D01*
X137212914Y-107011904D02*
X137260533Y-107107142D01*
X137974819Y-106107142D02*
X136974819Y-106107142D01*
X136974819Y-106107142D02*
X137689104Y-105773809D01*
X137689104Y-105773809D02*
X136974819Y-105440476D01*
X136974819Y-105440476D02*
X137974819Y-105440476D01*
X141474819Y-106535714D02*
X141474819Y-107107142D01*
X141474819Y-106821428D02*
X140474819Y-106821428D01*
X140474819Y-106821428D02*
X140617676Y-106916666D01*
X140617676Y-106916666D02*
X140712914Y-107011904D01*
X140712914Y-107011904D02*
X140760533Y-107107142D01*
X141474819Y-106107142D02*
X140474819Y-106107142D01*
X140474819Y-106107142D02*
X141189104Y-105773809D01*
X141189104Y-105773809D02*
X140474819Y-105440476D01*
X140474819Y-105440476D02*
X141474819Y-105440476D01*
X109974819Y-106535714D02*
X109974819Y-107107142D01*
X109974819Y-106821428D02*
X108974819Y-106821428D01*
X108974819Y-106821428D02*
X109117676Y-106916666D01*
X109117676Y-106916666D02*
X109212914Y-107011904D01*
X109212914Y-107011904D02*
X109260533Y-107107142D01*
X109974819Y-106107142D02*
X108974819Y-106107142D01*
X108974819Y-106107142D02*
X109689104Y-105773809D01*
X109689104Y-105773809D02*
X108974819Y-105440476D01*
X108974819Y-105440476D02*
X109974819Y-105440476D01*
X106474819Y-106535714D02*
X106474819Y-107107142D01*
X106474819Y-106821428D02*
X105474819Y-106821428D01*
X105474819Y-106821428D02*
X105617676Y-106916666D01*
X105617676Y-106916666D02*
X105712914Y-107011904D01*
X105712914Y-107011904D02*
X105760533Y-107107142D01*
X106474819Y-106107142D02*
X105474819Y-106107142D01*
X105474819Y-106107142D02*
X106189104Y-105773809D01*
X106189104Y-105773809D02*
X105474819Y-105440476D01*
X105474819Y-105440476D02*
X106474819Y-105440476D01*
X141071428Y-144359580D02*
X141023809Y-144407200D01*
X141023809Y-144407200D02*
X140880952Y-144454819D01*
X140880952Y-144454819D02*
X140785714Y-144454819D01*
X140785714Y-144454819D02*
X140642857Y-144407200D01*
X140642857Y-144407200D02*
X140547619Y-144311961D01*
X140547619Y-144311961D02*
X140500000Y-144216723D01*
X140500000Y-144216723D02*
X140452381Y-144026247D01*
X140452381Y-144026247D02*
X140452381Y-143883390D01*
X140452381Y-143883390D02*
X140500000Y-143692914D01*
X140500000Y-143692914D02*
X140547619Y-143597676D01*
X140547619Y-143597676D02*
X140642857Y-143502438D01*
X140642857Y-143502438D02*
X140785714Y-143454819D01*
X140785714Y-143454819D02*
X140880952Y-143454819D01*
X140880952Y-143454819D02*
X141023809Y-143502438D01*
X141023809Y-143502438D02*
X141071428Y-143550057D01*
X141547619Y-143454819D02*
X141452381Y-143645295D01*
X105261904Y-143502438D02*
X105166666Y-143454819D01*
X105166666Y-143454819D02*
X105023809Y-143454819D01*
X105023809Y-143454819D02*
X104880952Y-143502438D01*
X104880952Y-143502438D02*
X104785714Y-143597676D01*
X104785714Y-143597676D02*
X104738095Y-143692914D01*
X104738095Y-143692914D02*
X104690476Y-143883390D01*
X104690476Y-143883390D02*
X104690476Y-144026247D01*
X104690476Y-144026247D02*
X104738095Y-144216723D01*
X104738095Y-144216723D02*
X104785714Y-144311961D01*
X104785714Y-144311961D02*
X104880952Y-144407200D01*
X104880952Y-144407200D02*
X105023809Y-144454819D01*
X105023809Y-144454819D02*
X105119047Y-144454819D01*
X105119047Y-144454819D02*
X105261904Y-144407200D01*
X105261904Y-144407200D02*
X105309523Y-144359580D01*
X105309523Y-144359580D02*
X105309523Y-144026247D01*
X105309523Y-144026247D02*
X105119047Y-144026247D01*
X148474819Y-106535714D02*
X148474819Y-107107142D01*
X148474819Y-106821428D02*
X147474819Y-106821428D01*
X147474819Y-106821428D02*
X147617676Y-106916666D01*
X147617676Y-106916666D02*
X147712914Y-107011904D01*
X147712914Y-107011904D02*
X147760533Y-107107142D01*
X148474819Y-106107142D02*
X147474819Y-106107142D01*
X147474819Y-106107142D02*
X148189104Y-105773809D01*
X148189104Y-105773809D02*
X147474819Y-105440476D01*
X147474819Y-105440476D02*
X148474819Y-105440476D01*
X110761904Y-119002438D02*
X110666666Y-118954819D01*
X110666666Y-118954819D02*
X110523809Y-118954819D01*
X110523809Y-118954819D02*
X110380952Y-119002438D01*
X110380952Y-119002438D02*
X110285714Y-119097676D01*
X110285714Y-119097676D02*
X110238095Y-119192914D01*
X110238095Y-119192914D02*
X110190476Y-119383390D01*
X110190476Y-119383390D02*
X110190476Y-119526247D01*
X110190476Y-119526247D02*
X110238095Y-119716723D01*
X110238095Y-119716723D02*
X110285714Y-119811961D01*
X110285714Y-119811961D02*
X110380952Y-119907200D01*
X110380952Y-119907200D02*
X110523809Y-119954819D01*
X110523809Y-119954819D02*
X110619047Y-119954819D01*
X110619047Y-119954819D02*
X110761904Y-119907200D01*
X110761904Y-119907200D02*
X110809523Y-119859580D01*
X110809523Y-119859580D02*
X110809523Y-119526247D01*
X110809523Y-119526247D02*
X110619047Y-119526247D01*
X111190476Y-119288152D02*
X111904761Y-119288152D01*
X111476190Y-118859580D02*
X111190476Y-120145295D01*
X111809523Y-119716723D02*
X111095238Y-119716723D01*
X111523809Y-120145295D02*
X111809523Y-118859580D01*
X134675714Y-93768152D02*
X134675714Y-94434819D01*
X134437619Y-93387200D02*
X134199524Y-94101485D01*
X134199524Y-94101485D02*
X134818571Y-94101485D01*
X135104286Y-93434819D02*
X135770952Y-93434819D01*
X135770952Y-93434819D02*
X135342381Y-94434819D01*
X136580476Y-93768152D02*
X136580476Y-94434819D01*
X136151905Y-93768152D02*
X136151905Y-94291961D01*
X136151905Y-94291961D02*
X136199524Y-94387200D01*
X136199524Y-94387200D02*
X136294762Y-94434819D01*
X136294762Y-94434819D02*
X136437619Y-94434819D01*
X136437619Y-94434819D02*
X136532857Y-94387200D01*
X136532857Y-94387200D02*
X136580476Y-94339580D01*
D10*
X104308480Y-93346952D02*
X103208480Y-93346952D01*
X103208480Y-93346952D02*
X103994195Y-92980285D01*
X103994195Y-92980285D02*
X103208480Y-92613618D01*
X103208480Y-92613618D02*
X104308480Y-92613618D01*
X104308480Y-92089809D02*
X103208480Y-92089809D01*
X104308480Y-91565999D02*
X103208480Y-91565999D01*
X103208480Y-91565999D02*
X103208480Y-91304094D01*
X103208480Y-91304094D02*
X103260861Y-91146951D01*
X103260861Y-91146951D02*
X103365623Y-91042189D01*
X103365623Y-91042189D02*
X103470385Y-90989808D01*
X103470385Y-90989808D02*
X103679909Y-90937427D01*
X103679909Y-90937427D02*
X103837052Y-90937427D01*
X103837052Y-90937427D02*
X104046576Y-90989808D01*
X104046576Y-90989808D02*
X104151338Y-91042189D01*
X104151338Y-91042189D02*
X104256100Y-91146951D01*
X104256100Y-91146951D02*
X104308480Y-91304094D01*
X104308480Y-91304094D02*
X104308480Y-91565999D01*
X104308480Y-90465999D02*
X103208480Y-90465999D01*
X103208480Y-88894570D02*
X103208480Y-88685046D01*
X103208480Y-88685046D02*
X103260861Y-88580284D01*
X103260861Y-88580284D02*
X103365623Y-88475522D01*
X103365623Y-88475522D02*
X103575147Y-88423141D01*
X103575147Y-88423141D02*
X103941814Y-88423141D01*
X103941814Y-88423141D02*
X104151338Y-88475522D01*
X104151338Y-88475522D02*
X104256100Y-88580284D01*
X104256100Y-88580284D02*
X104308480Y-88685046D01*
X104308480Y-88685046D02*
X104308480Y-88894570D01*
X104308480Y-88894570D02*
X104256100Y-88999332D01*
X104256100Y-88999332D02*
X104151338Y-89104094D01*
X104151338Y-89104094D02*
X103941814Y-89156475D01*
X103941814Y-89156475D02*
X103575147Y-89156475D01*
X103575147Y-89156475D02*
X103365623Y-89104094D01*
X103365623Y-89104094D02*
X103260861Y-88999332D01*
X103260861Y-88999332D02*
X103208480Y-88894570D01*
X103208480Y-87951713D02*
X104098957Y-87951713D01*
X104098957Y-87951713D02*
X104203719Y-87899332D01*
X104203719Y-87899332D02*
X104256100Y-87846951D01*
X104256100Y-87846951D02*
X104308480Y-87742189D01*
X104308480Y-87742189D02*
X104308480Y-87532665D01*
X104308480Y-87532665D02*
X104256100Y-87427903D01*
X104256100Y-87427903D02*
X104203719Y-87375522D01*
X104203719Y-87375522D02*
X104098957Y-87323141D01*
X104098957Y-87323141D02*
X103208480Y-87323141D01*
X103208480Y-86956475D02*
X103208480Y-86327903D01*
X104308480Y-86642189D02*
X103208480Y-86642189D01*
D11*
X62809523Y-119859580D02*
X62761904Y-119907200D01*
X62761904Y-119907200D02*
X62619047Y-119954819D01*
X62619047Y-119954819D02*
X62523809Y-119954819D01*
X62523809Y-119954819D02*
X62380952Y-119907200D01*
X62380952Y-119907200D02*
X62285714Y-119811961D01*
X62285714Y-119811961D02*
X62238095Y-119716723D01*
X62238095Y-119716723D02*
X62190476Y-119526247D01*
X62190476Y-119526247D02*
X62190476Y-119383390D01*
X62190476Y-119383390D02*
X62238095Y-119192914D01*
X62238095Y-119192914D02*
X62285714Y-119097676D01*
X62285714Y-119097676D02*
X62380952Y-119002438D01*
X62380952Y-119002438D02*
X62523809Y-118954819D01*
X62523809Y-118954819D02*
X62619047Y-118954819D01*
X62619047Y-118954819D02*
X62761904Y-119002438D01*
X62761904Y-119002438D02*
X62809523Y-119050057D01*
X63190476Y-119288152D02*
X63904761Y-119288152D01*
X63476190Y-118859580D02*
X63190476Y-120145295D01*
X63809523Y-119716723D02*
X63095238Y-119716723D01*
X63523809Y-120145295D02*
X63809523Y-118859580D01*
X57309523Y-144359580D02*
X57261904Y-144407200D01*
X57261904Y-144407200D02*
X57119047Y-144454819D01*
X57119047Y-144454819D02*
X57023809Y-144454819D01*
X57023809Y-144454819D02*
X56880952Y-144407200D01*
X56880952Y-144407200D02*
X56785714Y-144311961D01*
X56785714Y-144311961D02*
X56738095Y-144216723D01*
X56738095Y-144216723D02*
X56690476Y-144026247D01*
X56690476Y-144026247D02*
X56690476Y-143883390D01*
X56690476Y-143883390D02*
X56738095Y-143692914D01*
X56738095Y-143692914D02*
X56785714Y-143597676D01*
X56785714Y-143597676D02*
X56880952Y-143502438D01*
X56880952Y-143502438D02*
X57023809Y-143454819D01*
X57023809Y-143454819D02*
X57119047Y-143454819D01*
X57119047Y-143454819D02*
X57261904Y-143502438D01*
X57261904Y-143502438D02*
X57309523Y-143550057D01*
X116761905Y-144169104D02*
X117238095Y-144169104D01*
X116666667Y-144454819D02*
X117000000Y-143454819D01*
X117000000Y-143454819D02*
X117333333Y-144454819D01*
X93142857Y-143931009D02*
X92809524Y-143931009D01*
X92809524Y-144454819D02*
X92809524Y-143454819D01*
X92809524Y-143454819D02*
X93285714Y-143454819D01*
X123974819Y-106535714D02*
X123974819Y-107107142D01*
X123974819Y-106821428D02*
X122974819Y-106821428D01*
X122974819Y-106821428D02*
X123117676Y-106916666D01*
X123117676Y-106916666D02*
X123212914Y-107011904D01*
X123212914Y-107011904D02*
X123260533Y-107107142D01*
X123974819Y-106107142D02*
X122974819Y-106107142D01*
X122974819Y-106107142D02*
X123689104Y-105773809D01*
X123689104Y-105773809D02*
X122974819Y-105440476D01*
X122974819Y-105440476D02*
X123974819Y-105440476D01*
X129071428Y-143931009D02*
X129214285Y-143978628D01*
X129214285Y-143978628D02*
X129261904Y-144026247D01*
X129261904Y-144026247D02*
X129309523Y-144121485D01*
X129309523Y-144121485D02*
X129309523Y-144264342D01*
X129309523Y-144264342D02*
X129261904Y-144359580D01*
X129261904Y-144359580D02*
X129214285Y-144407200D01*
X129214285Y-144407200D02*
X129119047Y-144454819D01*
X129119047Y-144454819D02*
X128738095Y-144454819D01*
X128738095Y-144454819D02*
X128738095Y-143454819D01*
X128738095Y-143454819D02*
X129071428Y-143454819D01*
X129071428Y-143454819D02*
X129166666Y-143502438D01*
X129166666Y-143502438D02*
X129214285Y-143550057D01*
X129214285Y-143550057D02*
X129261904Y-143645295D01*
X129261904Y-143645295D02*
X129261904Y-143740533D01*
X129261904Y-143740533D02*
X129214285Y-143835771D01*
X129214285Y-143835771D02*
X129166666Y-143883390D01*
X129166666Y-143883390D02*
X129071428Y-143931009D01*
X129071428Y-143931009D02*
X128738095Y-143931009D01*
X74238095Y-119954819D02*
X74238095Y-118954819D01*
X74238095Y-118954819D02*
X74476190Y-118954819D01*
X74476190Y-118954819D02*
X74619047Y-119002438D01*
X74619047Y-119002438D02*
X74714285Y-119097676D01*
X74714285Y-119097676D02*
X74761904Y-119192914D01*
X74761904Y-119192914D02*
X74809523Y-119383390D01*
X74809523Y-119383390D02*
X74809523Y-119526247D01*
X74809523Y-119526247D02*
X74761904Y-119716723D01*
X74761904Y-119716723D02*
X74714285Y-119811961D01*
X74714285Y-119811961D02*
X74619047Y-119907200D01*
X74619047Y-119907200D02*
X74476190Y-119954819D01*
X74476190Y-119954819D02*
X74238095Y-119954819D01*
X75190476Y-119288152D02*
X75904761Y-119288152D01*
X75476190Y-118859580D02*
X75190476Y-120145295D01*
X75809523Y-119716723D02*
X75095238Y-119716723D01*
X75523809Y-120145295D02*
X75809523Y-118859580D01*
X130974819Y-106535714D02*
X130974819Y-107107142D01*
X130974819Y-106821428D02*
X129974819Y-106821428D01*
X129974819Y-106821428D02*
X130117676Y-106916666D01*
X130117676Y-106916666D02*
X130212914Y-107011904D01*
X130212914Y-107011904D02*
X130260533Y-107107142D01*
X130974819Y-106107142D02*
X129974819Y-106107142D01*
X129974819Y-106107142D02*
X130689104Y-105773809D01*
X130689104Y-105773809D02*
X129974819Y-105440476D01*
X129974819Y-105440476D02*
X130974819Y-105440476D01*
X80785714Y-143931009D02*
X81119047Y-143931009D01*
X81261904Y-144454819D02*
X80785714Y-144454819D01*
X80785714Y-144454819D02*
X80785714Y-143454819D01*
X80785714Y-143454819D02*
X81261904Y-143454819D01*
X120711523Y-99828819D02*
X120140095Y-99828819D01*
X120425809Y-99828819D02*
X120425809Y-98828819D01*
X120425809Y-98828819D02*
X120330571Y-98971676D01*
X120330571Y-98971676D02*
X120235333Y-99066914D01*
X120235333Y-99066914D02*
X120140095Y-99114533D01*
X121330571Y-98828819D02*
X121425809Y-98828819D01*
X121425809Y-98828819D02*
X121521047Y-98876438D01*
X121521047Y-98876438D02*
X121568666Y-98924057D01*
X121568666Y-98924057D02*
X121616285Y-99019295D01*
X121616285Y-99019295D02*
X121663904Y-99209771D01*
X121663904Y-99209771D02*
X121663904Y-99447866D01*
X121663904Y-99447866D02*
X121616285Y-99638342D01*
X121616285Y-99638342D02*
X121568666Y-99733580D01*
X121568666Y-99733580D02*
X121521047Y-99781200D01*
X121521047Y-99781200D02*
X121425809Y-99828819D01*
X121425809Y-99828819D02*
X121330571Y-99828819D01*
X121330571Y-99828819D02*
X121235333Y-99781200D01*
X121235333Y-99781200D02*
X121187714Y-99733580D01*
X121187714Y-99733580D02*
X121140095Y-99638342D01*
X121140095Y-99638342D02*
X121092476Y-99447866D01*
X121092476Y-99447866D02*
X121092476Y-99209771D01*
X121092476Y-99209771D02*
X121140095Y-99019295D01*
X121140095Y-99019295D02*
X121187714Y-98924057D01*
X121187714Y-98924057D02*
X121235333Y-98876438D01*
X121235333Y-98876438D02*
X121330571Y-98828819D01*
X122663904Y-99828819D02*
X122330571Y-99352628D01*
X122092476Y-99828819D02*
X122092476Y-98828819D01*
X122092476Y-98828819D02*
X122473428Y-98828819D01*
X122473428Y-98828819D02*
X122568666Y-98876438D01*
X122568666Y-98876438D02*
X122616285Y-98924057D01*
X122616285Y-98924057D02*
X122663904Y-99019295D01*
X122663904Y-99019295D02*
X122663904Y-99162152D01*
X122663904Y-99162152D02*
X122616285Y-99257390D01*
X122616285Y-99257390D02*
X122568666Y-99305009D01*
X122568666Y-99305009D02*
X122473428Y-99352628D01*
X122473428Y-99352628D02*
X122092476Y-99352628D01*
X144974819Y-106535714D02*
X144974819Y-107107142D01*
X144974819Y-106821428D02*
X143974819Y-106821428D01*
X143974819Y-106821428D02*
X144117676Y-106916666D01*
X144117676Y-106916666D02*
X144212914Y-107011904D01*
X144212914Y-107011904D02*
X144260533Y-107107142D01*
X144974819Y-106107142D02*
X143974819Y-106107142D01*
X143974819Y-106107142D02*
X144689104Y-105773809D01*
X144689104Y-105773809D02*
X143974819Y-105440476D01*
X143974819Y-105440476D02*
X144974819Y-105440476D01*
X108348476Y-98738819D02*
X108967523Y-98738819D01*
X108967523Y-98738819D02*
X108634190Y-99119771D01*
X108634190Y-99119771D02*
X108777047Y-99119771D01*
X108777047Y-99119771D02*
X108872285Y-99167390D01*
X108872285Y-99167390D02*
X108919904Y-99215009D01*
X108919904Y-99215009D02*
X108967523Y-99310247D01*
X108967523Y-99310247D02*
X108967523Y-99548342D01*
X108967523Y-99548342D02*
X108919904Y-99643580D01*
X108919904Y-99643580D02*
X108872285Y-99691200D01*
X108872285Y-99691200D02*
X108777047Y-99738819D01*
X108777047Y-99738819D02*
X108491333Y-99738819D01*
X108491333Y-99738819D02*
X108396095Y-99691200D01*
X108396095Y-99691200D02*
X108348476Y-99643580D01*
X109300857Y-98738819D02*
X109919904Y-98738819D01*
X109919904Y-98738819D02*
X109586571Y-99119771D01*
X109586571Y-99119771D02*
X109729428Y-99119771D01*
X109729428Y-99119771D02*
X109824666Y-99167390D01*
X109824666Y-99167390D02*
X109872285Y-99215009D01*
X109872285Y-99215009D02*
X109919904Y-99310247D01*
X109919904Y-99310247D02*
X109919904Y-99548342D01*
X109919904Y-99548342D02*
X109872285Y-99643580D01*
X109872285Y-99643580D02*
X109824666Y-99691200D01*
X109824666Y-99691200D02*
X109729428Y-99738819D01*
X109729428Y-99738819D02*
X109443714Y-99738819D01*
X109443714Y-99738819D02*
X109348476Y-99691200D01*
X109348476Y-99691200D02*
X109300857Y-99643580D01*
X110919904Y-99738819D02*
X110586571Y-99262628D01*
X110348476Y-99738819D02*
X110348476Y-98738819D01*
X110348476Y-98738819D02*
X110729428Y-98738819D01*
X110729428Y-98738819D02*
X110824666Y-98786438D01*
X110824666Y-98786438D02*
X110872285Y-98834057D01*
X110872285Y-98834057D02*
X110919904Y-98929295D01*
X110919904Y-98929295D02*
X110919904Y-99072152D01*
X110919904Y-99072152D02*
X110872285Y-99167390D01*
X110872285Y-99167390D02*
X110824666Y-99215009D01*
X110824666Y-99215009D02*
X110729428Y-99262628D01*
X110729428Y-99262628D02*
X110348476Y-99262628D01*
X76778048Y-97924819D02*
X76778048Y-96924819D01*
X76778048Y-96924819D02*
X77159000Y-96924819D01*
X77159000Y-96924819D02*
X77254238Y-96972438D01*
X77254238Y-96972438D02*
X77301857Y-97020057D01*
X77301857Y-97020057D02*
X77349476Y-97115295D01*
X77349476Y-97115295D02*
X77349476Y-97258152D01*
X77349476Y-97258152D02*
X77301857Y-97353390D01*
X77301857Y-97353390D02*
X77254238Y-97401009D01*
X77254238Y-97401009D02*
X77159000Y-97448628D01*
X77159000Y-97448628D02*
X76778048Y-97448628D01*
X77778048Y-97924819D02*
X77778048Y-97258152D01*
X77778048Y-96924819D02*
X77730429Y-96972438D01*
X77730429Y-96972438D02*
X77778048Y-97020057D01*
X77778048Y-97020057D02*
X77825667Y-96972438D01*
X77825667Y-96972438D02*
X77778048Y-96924819D01*
X77778048Y-96924819D02*
X77778048Y-97020057D01*
X78682809Y-97877200D02*
X78587571Y-97924819D01*
X78587571Y-97924819D02*
X78397095Y-97924819D01*
X78397095Y-97924819D02*
X78301857Y-97877200D01*
X78301857Y-97877200D02*
X78254238Y-97829580D01*
X78254238Y-97829580D02*
X78206619Y-97734342D01*
X78206619Y-97734342D02*
X78206619Y-97448628D01*
X78206619Y-97448628D02*
X78254238Y-97353390D01*
X78254238Y-97353390D02*
X78301857Y-97305771D01*
X78301857Y-97305771D02*
X78397095Y-97258152D01*
X78397095Y-97258152D02*
X78587571Y-97258152D01*
X78587571Y-97258152D02*
X78682809Y-97305771D01*
X79254238Y-97924819D02*
X79159000Y-97877200D01*
X79159000Y-97877200D02*
X79111381Y-97829580D01*
X79111381Y-97829580D02*
X79063762Y-97734342D01*
X79063762Y-97734342D02*
X79063762Y-97448628D01*
X79063762Y-97448628D02*
X79111381Y-97353390D01*
X79111381Y-97353390D02*
X79159000Y-97305771D01*
X79159000Y-97305771D02*
X79254238Y-97258152D01*
X79254238Y-97258152D02*
X79397095Y-97258152D01*
X79397095Y-97258152D02*
X79492333Y-97305771D01*
X79492333Y-97305771D02*
X79539952Y-97353390D01*
X79539952Y-97353390D02*
X79587571Y-97448628D01*
X79587571Y-97448628D02*
X79587571Y-97734342D01*
X79587571Y-97734342D02*
X79539952Y-97829580D01*
X79539952Y-97829580D02*
X79492333Y-97877200D01*
X79492333Y-97877200D02*
X79397095Y-97924819D01*
X79397095Y-97924819D02*
X79254238Y-97924819D01*
X68738095Y-144454819D02*
X68738095Y-143454819D01*
X68738095Y-143454819D02*
X68976190Y-143454819D01*
X68976190Y-143454819D02*
X69119047Y-143502438D01*
X69119047Y-143502438D02*
X69214285Y-143597676D01*
X69214285Y-143597676D02*
X69261904Y-143692914D01*
X69261904Y-143692914D02*
X69309523Y-143883390D01*
X69309523Y-143883390D02*
X69309523Y-144026247D01*
X69309523Y-144026247D02*
X69261904Y-144216723D01*
X69261904Y-144216723D02*
X69214285Y-144311961D01*
X69214285Y-144311961D02*
X69119047Y-144407200D01*
X69119047Y-144407200D02*
X68976190Y-144454819D01*
X68976190Y-144454819D02*
X68738095Y-144454819D01*
X134509142Y-90554819D02*
X133937714Y-90554819D01*
X134223428Y-90554819D02*
X134223428Y-89554819D01*
X134223428Y-89554819D02*
X134128190Y-89697676D01*
X134128190Y-89697676D02*
X134032952Y-89792914D01*
X134032952Y-89792914D02*
X133937714Y-89840533D01*
X134937714Y-90554819D02*
X134937714Y-89554819D01*
X134937714Y-89554819D02*
X135509142Y-90554819D01*
X135509142Y-90554819D02*
X135509142Y-89554819D01*
X136461523Y-89554819D02*
X135985333Y-89554819D01*
X135985333Y-89554819D02*
X135937714Y-90031009D01*
X135937714Y-90031009D02*
X135985333Y-89983390D01*
X135985333Y-89983390D02*
X136080571Y-89935771D01*
X136080571Y-89935771D02*
X136318666Y-89935771D01*
X136318666Y-89935771D02*
X136413904Y-89983390D01*
X136413904Y-89983390D02*
X136461523Y-90031009D01*
X136461523Y-90031009D02*
X136509142Y-90126247D01*
X136509142Y-90126247D02*
X136509142Y-90364342D01*
X136509142Y-90364342D02*
X136461523Y-90459580D01*
X136461523Y-90459580D02*
X136413904Y-90507200D01*
X136413904Y-90507200D02*
X136318666Y-90554819D01*
X136318666Y-90554819D02*
X136080571Y-90554819D01*
X136080571Y-90554819D02*
X135985333Y-90507200D01*
X135985333Y-90507200D02*
X135937714Y-90459580D01*
X137080571Y-89983390D02*
X136985333Y-89935771D01*
X136985333Y-89935771D02*
X136937714Y-89888152D01*
X136937714Y-89888152D02*
X136890095Y-89792914D01*
X136890095Y-89792914D02*
X136890095Y-89745295D01*
X136890095Y-89745295D02*
X136937714Y-89650057D01*
X136937714Y-89650057D02*
X136985333Y-89602438D01*
X136985333Y-89602438D02*
X137080571Y-89554819D01*
X137080571Y-89554819D02*
X137271047Y-89554819D01*
X137271047Y-89554819D02*
X137366285Y-89602438D01*
X137366285Y-89602438D02*
X137413904Y-89650057D01*
X137413904Y-89650057D02*
X137461523Y-89745295D01*
X137461523Y-89745295D02*
X137461523Y-89792914D01*
X137461523Y-89792914D02*
X137413904Y-89888152D01*
X137413904Y-89888152D02*
X137366285Y-89935771D01*
X137366285Y-89935771D02*
X137271047Y-89983390D01*
X137271047Y-89983390D02*
X137080571Y-89983390D01*
X137080571Y-89983390D02*
X136985333Y-90031009D01*
X136985333Y-90031009D02*
X136937714Y-90078628D01*
X136937714Y-90078628D02*
X136890095Y-90173866D01*
X136890095Y-90173866D02*
X136890095Y-90364342D01*
X136890095Y-90364342D02*
X136937714Y-90459580D01*
X136937714Y-90459580D02*
X136985333Y-90507200D01*
X136985333Y-90507200D02*
X137080571Y-90554819D01*
X137080571Y-90554819D02*
X137271047Y-90554819D01*
X137271047Y-90554819D02*
X137366285Y-90507200D01*
X137366285Y-90507200D02*
X137413904Y-90459580D01*
X137413904Y-90459580D02*
X137461523Y-90364342D01*
X137461523Y-90364342D02*
X137461523Y-90173866D01*
X137461523Y-90173866D02*
X137413904Y-90078628D01*
X137413904Y-90078628D02*
X137366285Y-90031009D01*
X137366285Y-90031009D02*
X137271047Y-89983390D01*
X138413904Y-90554819D02*
X137842476Y-90554819D01*
X138128190Y-90554819D02*
X138128190Y-89554819D01*
X138128190Y-89554819D02*
X138032952Y-89697676D01*
X138032952Y-89697676D02*
X137937714Y-89792914D01*
X137937714Y-89792914D02*
X137842476Y-89840533D01*
X138747238Y-89554819D02*
X139413904Y-89554819D01*
X139413904Y-89554819D02*
X138985333Y-90554819D01*
X131310095Y-86084819D02*
X131310095Y-85084819D01*
X131881523Y-86084819D02*
X131452952Y-85513390D01*
X131881523Y-85084819D02*
X131310095Y-85656247D01*
X98642857Y-119431009D02*
X98309524Y-119431009D01*
X98309524Y-119954819D02*
X98309524Y-118954819D01*
X98309524Y-118954819D02*
X98785714Y-118954819D01*
X99119048Y-119288152D02*
X99833333Y-119288152D01*
X99404762Y-118859580D02*
X99119048Y-120145295D01*
X99738095Y-119716723D02*
X99023810Y-119716723D01*
X99452381Y-120145295D02*
X99738095Y-118859580D01*
X116974819Y-106535714D02*
X116974819Y-107107142D01*
X116974819Y-106821428D02*
X115974819Y-106821428D01*
X115974819Y-106821428D02*
X116117676Y-106916666D01*
X116117676Y-106916666D02*
X116212914Y-107011904D01*
X116212914Y-107011904D02*
X116260533Y-107107142D01*
X116974819Y-106107142D02*
X115974819Y-106107142D01*
X115974819Y-106107142D02*
X116689104Y-105773809D01*
X116689104Y-105773809D02*
X115974819Y-105440476D01*
X115974819Y-105440476D02*
X116974819Y-105440476D01*
X113474819Y-106535714D02*
X113474819Y-107107142D01*
X113474819Y-106821428D02*
X112474819Y-106821428D01*
X112474819Y-106821428D02*
X112617676Y-106916666D01*
X112617676Y-106916666D02*
X112712914Y-107011904D01*
X112712914Y-107011904D02*
X112760533Y-107107142D01*
X113474819Y-106107142D02*
X112474819Y-106107142D01*
X112474819Y-106107142D02*
X113189104Y-105773809D01*
X113189104Y-105773809D02*
X112474819Y-105440476D01*
X112474819Y-105440476D02*
X113474819Y-105440476D01*
X134474819Y-106535714D02*
X134474819Y-107107142D01*
X134474819Y-106821428D02*
X133474819Y-106821428D01*
X133474819Y-106821428D02*
X133617676Y-106916666D01*
X133617676Y-106916666D02*
X133712914Y-107011904D01*
X133712914Y-107011904D02*
X133760533Y-107107142D01*
X134474819Y-106107142D02*
X133474819Y-106107142D01*
X133474819Y-106107142D02*
X134189104Y-105773809D01*
X134189104Y-105773809D02*
X133474819Y-105440476D01*
X133474819Y-105440476D02*
X134474819Y-105440476D01*
D12*
%TO.C,J3*%
X118830000Y-85774000D02*
X118830000Y-87024000D01*
X119130000Y-86074000D02*
X119130000Y-90794000D01*
X119130000Y-87384000D02*
X119740000Y-87384000D01*
X119130000Y-88684000D02*
X119740000Y-88684000D01*
X119130000Y-90794000D02*
X129250000Y-90794000D01*
X119740000Y-86684000D02*
X119740000Y-90184000D01*
X119740000Y-90184000D02*
X128640000Y-90184000D01*
X120080000Y-85774000D02*
X118830000Y-85774000D01*
X120590000Y-85874000D02*
X120590000Y-86074000D01*
X120890000Y-85874000D02*
X120590000Y-85874000D01*
X120890000Y-85974000D02*
X120590000Y-85974000D01*
X120890000Y-86074000D02*
X120890000Y-85874000D01*
X121690000Y-86074000D02*
X121690000Y-86684000D01*
X121690000Y-86684000D02*
X119740000Y-86684000D01*
X122090000Y-89684000D02*
X122290000Y-89684000D01*
X122090000Y-90184000D02*
X122090000Y-89684000D01*
X122190000Y-90184000D02*
X122190000Y-89684000D01*
X122290000Y-89684000D02*
X122290000Y-90184000D01*
X124090000Y-89684000D02*
X124290000Y-89684000D01*
X124090000Y-90184000D02*
X124090000Y-89684000D01*
X124190000Y-90184000D02*
X124190000Y-89684000D01*
X124290000Y-89684000D02*
X124290000Y-90184000D01*
X126090000Y-89684000D02*
X126290000Y-89684000D01*
X126090000Y-90184000D02*
X126090000Y-89684000D01*
X126190000Y-90184000D02*
X126190000Y-89684000D01*
X126290000Y-89684000D02*
X126290000Y-90184000D01*
X126690000Y-86684000D02*
X126690000Y-86074000D01*
X128640000Y-86684000D02*
X126690000Y-86684000D01*
X128640000Y-90184000D02*
X128640000Y-86684000D01*
X129250000Y-86074000D02*
X119130000Y-86074000D01*
X129250000Y-87384000D02*
X128640000Y-87384000D01*
X129250000Y-88684000D02*
X128640000Y-88684000D01*
X129250000Y-90794000D02*
X129250000Y-86074000D01*
%TO.C,R2*%
X118630000Y-102920000D02*
X118960000Y-102920000D01*
X118630000Y-109460000D02*
X118630000Y-102920000D01*
X118960000Y-109460000D02*
X118630000Y-109460000D01*
X121040000Y-109460000D02*
X121370000Y-109460000D01*
X121370000Y-102920000D02*
X121040000Y-102920000D01*
X121370000Y-109460000D02*
X121370000Y-102920000D01*
D13*
%TO.C,J26*%
X127910000Y-115600000D02*
X127910000Y-125460000D01*
X123000000Y-130370000D01*
X118090000Y-125460000D01*
X118090000Y-115590000D01*
X127910000Y-115600000D01*
D12*
%TO.C,R7*%
X125630000Y-102920000D02*
X125960000Y-102920000D01*
X125630000Y-109460000D02*
X125630000Y-102920000D01*
X125960000Y-109460000D02*
X125630000Y-109460000D01*
X128040000Y-109460000D02*
X128370000Y-109460000D01*
X128370000Y-102920000D02*
X128040000Y-102920000D01*
X128370000Y-109460000D02*
X128370000Y-102920000D01*
%TO.C,R10*%
X136130000Y-102920000D02*
X136460000Y-102920000D01*
X136130000Y-109460000D02*
X136130000Y-102920000D01*
X136460000Y-109460000D02*
X136130000Y-109460000D01*
X138540000Y-109460000D02*
X138870000Y-109460000D01*
X138870000Y-102920000D02*
X138540000Y-102920000D01*
X138870000Y-109460000D02*
X138870000Y-102920000D01*
%TO.C,R11*%
X139630000Y-102920000D02*
X139960000Y-102920000D01*
X139630000Y-109460000D02*
X139630000Y-102920000D01*
X139960000Y-109460000D02*
X139630000Y-109460000D01*
X142040000Y-109460000D02*
X142370000Y-109460000D01*
X142370000Y-102920000D02*
X142040000Y-102920000D01*
X142370000Y-109460000D02*
X142370000Y-102920000D01*
%TO.C,R5*%
X108130000Y-102920000D02*
X108460000Y-102920000D01*
X108130000Y-109460000D02*
X108130000Y-102920000D01*
X108460000Y-109460000D02*
X108130000Y-109460000D01*
X110540000Y-109460000D02*
X110870000Y-109460000D01*
X110870000Y-102920000D02*
X110540000Y-102920000D01*
X110870000Y-109460000D02*
X110870000Y-102920000D01*
%TO.C,R6*%
X104630000Y-102920000D02*
X104960000Y-102920000D01*
X104630000Y-109460000D02*
X104630000Y-102920000D01*
X104960000Y-109460000D02*
X104630000Y-109460000D01*
X107040000Y-109460000D02*
X107370000Y-109460000D01*
X107370000Y-102920000D02*
X107040000Y-102920000D01*
X107370000Y-109460000D02*
X107370000Y-102920000D01*
D13*
%TO.C,J28*%
X145910000Y-133040000D02*
X145910000Y-147910000D01*
X136090000Y-147910000D01*
X136090000Y-133040000D01*
X141000000Y-128130000D01*
X145910000Y-133040000D01*
%TO.C,J23*%
X109910000Y-133040000D02*
X109910000Y-147910000D01*
X100090000Y-147910000D01*
X100090000Y-133040000D01*
X105000000Y-128130000D01*
X109910000Y-133040000D01*
D12*
%TO.C,R13*%
X146630000Y-102920000D02*
X146960000Y-102920000D01*
X146630000Y-109460000D02*
X146630000Y-102920000D01*
X146960000Y-109460000D02*
X146630000Y-109460000D01*
X149040000Y-109460000D02*
X149370000Y-109460000D01*
X149370000Y-102920000D02*
X149040000Y-102920000D01*
X149370000Y-109460000D02*
X149370000Y-102920000D01*
D13*
%TO.C,J24*%
X115910000Y-115600000D02*
X115910000Y-125460000D01*
X111000000Y-130370000D01*
X106090000Y-125460000D01*
X106090000Y-115590000D01*
X115910000Y-115600000D01*
D12*
%TO.C,C1*%
X130532000Y-97589621D02*
X128350000Y-97589621D01*
X130532000Y-97629621D02*
X128354000Y-97629621D01*
X130532000Y-97669621D02*
X128357000Y-97669621D01*
X130532000Y-97709621D02*
X128361000Y-97709621D01*
X130532000Y-97749621D02*
X128366000Y-97749621D01*
X130532000Y-97789621D02*
X128371000Y-97789621D01*
X130532000Y-97829621D02*
X128377000Y-97829621D01*
X130532000Y-97869621D02*
X128383000Y-97869621D01*
X130532000Y-97909621D02*
X128390000Y-97909621D01*
X130532000Y-97949621D02*
X128397000Y-97949621D01*
X130532000Y-97989621D02*
X128405000Y-97989621D01*
X130532000Y-98029621D02*
X128413000Y-98029621D01*
X130532000Y-98070621D02*
X128422000Y-98070621D01*
X130532000Y-98110621D02*
X128431000Y-98110621D01*
X130532000Y-98150621D02*
X128441000Y-98150621D01*
X130532000Y-98190621D02*
X128451000Y-98190621D01*
X130532000Y-98230621D02*
X128462000Y-98230621D01*
X130532000Y-98270621D02*
X128474000Y-98270621D01*
X130532000Y-98310621D02*
X128486000Y-98310621D01*
X130532000Y-98350621D02*
X128498000Y-98350621D01*
X130532000Y-98390621D02*
X128511000Y-98390621D01*
X130532000Y-98430621D02*
X128525000Y-98430621D01*
X130532000Y-98470621D02*
X128539000Y-98470621D01*
X130532000Y-98510621D02*
X128554000Y-98510621D01*
X130532000Y-98550621D02*
X128570000Y-98550621D01*
X130532000Y-98590621D02*
X128586000Y-98590621D01*
X130532000Y-98630621D02*
X128602000Y-98630621D01*
X130532000Y-98670621D02*
X128620000Y-98670621D01*
X130532000Y-98710621D02*
X128638000Y-98710621D01*
X130532000Y-98750621D02*
X128656000Y-98750621D01*
X130532000Y-98790621D02*
X128676000Y-98790621D01*
X130532000Y-98830621D02*
X128696000Y-98830621D01*
X130532000Y-98870621D02*
X128716000Y-98870621D01*
X130532000Y-98910621D02*
X128738000Y-98910621D01*
X130532000Y-98950621D02*
X128760000Y-98950621D01*
X130532000Y-98990621D02*
X128782000Y-98990621D01*
X130532000Y-99030621D02*
X128806000Y-99030621D01*
X130532000Y-99070621D02*
X128830000Y-99070621D01*
X130532000Y-99110621D02*
X128856000Y-99110621D01*
X130532000Y-99150621D02*
X128882000Y-99150621D01*
X130532000Y-99190621D02*
X128908000Y-99190621D01*
X130532000Y-99230621D02*
X128936000Y-99230621D01*
X130532000Y-99270621D02*
X128965000Y-99270621D01*
X130532000Y-99310621D02*
X128994000Y-99310621D01*
X130532000Y-99350621D02*
X129024000Y-99350621D01*
X130532000Y-99390621D02*
X129056000Y-99390621D01*
X130532000Y-99430621D02*
X129088000Y-99430621D01*
X130532000Y-99470621D02*
X129122000Y-99470621D01*
X130532000Y-99510621D02*
X129156000Y-99510621D01*
X130532000Y-99550621D02*
X129192000Y-99550621D01*
X130532000Y-99590621D02*
X129229000Y-99590621D01*
X130532000Y-99630621D02*
X129267000Y-99630621D01*
X131974000Y-100590621D02*
X131170000Y-100590621D01*
X132205000Y-100550621D02*
X130939000Y-100550621D01*
X132374000Y-100510621D02*
X130770000Y-100510621D01*
X132512000Y-100470621D02*
X130632000Y-100470621D01*
X132631000Y-100430621D02*
X130513000Y-100430621D01*
X132737000Y-100390621D02*
X130407000Y-100390621D01*
X132834000Y-100350621D02*
X130310000Y-100350621D01*
X132922000Y-100310621D02*
X130222000Y-100310621D01*
X133004000Y-100270621D02*
X130140000Y-100270621D01*
X133081000Y-100230621D02*
X130063000Y-100230621D01*
X133153000Y-100190621D02*
X129991000Y-100190621D01*
X133222000Y-100150621D02*
X129922000Y-100150621D01*
X133286000Y-100110621D02*
X129858000Y-100110621D01*
X133348000Y-100070621D02*
X129796000Y-100070621D01*
X133406000Y-100030621D02*
X129738000Y-100030621D01*
X133411000Y-93849380D02*
X133411000Y-94479380D01*
X133462000Y-99990621D02*
X129682000Y-99990621D01*
X133516000Y-99950621D02*
X129628000Y-99950621D01*
X133567000Y-99910621D02*
X129577000Y-99910621D01*
X133616000Y-99870621D02*
X129528000Y-99870621D01*
X133664000Y-99830621D02*
X129480000Y-99830621D01*
X133709000Y-99790621D02*
X129435000Y-99790621D01*
X133726000Y-94164380D02*
X133096000Y-94164380D01*
X133754000Y-99750621D02*
X129390000Y-99750621D01*
X133796000Y-99710621D02*
X129348000Y-99710621D01*
X133837000Y-99670621D02*
X129307000Y-99670621D01*
X133877000Y-99630621D02*
X132612000Y-99630621D01*
X133915000Y-99590621D02*
X132612000Y-99590621D01*
X133952000Y-99550621D02*
X132612000Y-99550621D01*
X133988000Y-99510621D02*
X132612000Y-99510621D01*
X134022000Y-99470621D02*
X132612000Y-99470621D01*
X134056000Y-99430621D02*
X132612000Y-99430621D01*
X134088000Y-99390621D02*
X132612000Y-99390621D01*
X134120000Y-99350621D02*
X132612000Y-99350621D01*
X134150000Y-99310621D02*
X132612000Y-99310621D01*
X134179000Y-99270621D02*
X132612000Y-99270621D01*
X134208000Y-99230621D02*
X132612000Y-99230621D01*
X134236000Y-99190621D02*
X132612000Y-99190621D01*
X134262000Y-99150621D02*
X132612000Y-99150621D01*
X134288000Y-99110621D02*
X132612000Y-99110621D01*
X134314000Y-99070621D02*
X132612000Y-99070621D01*
X134338000Y-99030621D02*
X132612000Y-99030621D01*
X134362000Y-98990621D02*
X132612000Y-98990621D01*
X134384000Y-98950621D02*
X132612000Y-98950621D01*
X134406000Y-98910621D02*
X132612000Y-98910621D01*
X134428000Y-98870621D02*
X132612000Y-98870621D01*
X134448000Y-98830621D02*
X132612000Y-98830621D01*
X134468000Y-98790621D02*
X132612000Y-98790621D01*
X134488000Y-98750621D02*
X132612000Y-98750621D01*
X134506000Y-98710621D02*
X132612000Y-98710621D01*
X134524000Y-98670621D02*
X132612000Y-98670621D01*
X134542000Y-98630621D02*
X132612000Y-98630621D01*
X134558000Y-98590621D02*
X132612000Y-98590621D01*
X134574000Y-98550621D02*
X132612000Y-98550621D01*
X134590000Y-98510621D02*
X132612000Y-98510621D01*
X134605000Y-98470621D02*
X132612000Y-98470621D01*
X134619000Y-98430621D02*
X132612000Y-98430621D01*
X134633000Y-98390621D02*
X132612000Y-98390621D01*
X134646000Y-98350621D02*
X132612000Y-98350621D01*
X134658000Y-98310621D02*
X132612000Y-98310621D01*
X134670000Y-98270621D02*
X132612000Y-98270621D01*
X134682000Y-98230621D02*
X132612000Y-98230621D01*
X134693000Y-98190621D02*
X132612000Y-98190621D01*
X134703000Y-98150621D02*
X132612000Y-98150621D01*
X134713000Y-98110621D02*
X132612000Y-98110621D01*
X134722000Y-98070621D02*
X132612000Y-98070621D01*
X134731000Y-98029621D02*
X132612000Y-98029621D01*
X134739000Y-97989621D02*
X132612000Y-97989621D01*
X134747000Y-97949621D02*
X132612000Y-97949621D01*
X134754000Y-97909621D02*
X132612000Y-97909621D01*
X134761000Y-97869621D02*
X132612000Y-97869621D01*
X134767000Y-97829621D02*
X132612000Y-97829621D01*
X134773000Y-97789621D02*
X132612000Y-97789621D01*
X134778000Y-97749621D02*
X132612000Y-97749621D01*
X134783000Y-97709621D02*
X132612000Y-97709621D01*
X134787000Y-97669621D02*
X132612000Y-97669621D01*
X134790000Y-97629621D02*
X132612000Y-97629621D01*
X134794000Y-97589621D02*
X132612000Y-97589621D01*
X134796000Y-97549621D02*
X128348000Y-97549621D01*
X134799000Y-97509621D02*
X128345000Y-97509621D01*
X134800000Y-97469621D02*
X128344000Y-97469621D01*
X134802000Y-97349621D02*
X128342000Y-97349621D01*
X134802000Y-97389621D02*
X128342000Y-97389621D01*
X134802000Y-97429621D02*
X128342000Y-97429621D01*
X134842000Y-97349621D02*
G75*
G02*
X128302000Y-97349621I-3270000J0D01*
G01*
X128302000Y-97349621D02*
G75*
G02*
X134842000Y-97349621I3270000J0D01*
G01*
%TO.C,J1*%
X105230000Y-86200000D02*
X106730000Y-86200000D01*
X105230000Y-97200000D02*
X105230000Y-86200000D01*
X106730000Y-85000000D02*
X108230000Y-85000000D01*
X106730000Y-86200000D02*
X106730000Y-85000000D01*
X108230000Y-83200000D02*
X114230000Y-83200000D01*
X108230000Y-85000000D02*
X108230000Y-83200000D01*
X109230000Y-83200000D02*
X109230000Y-86200000D01*
X109230000Y-86200000D02*
X113230000Y-86200000D01*
X113230000Y-86200000D02*
X113230000Y-83200000D01*
X114230000Y-83200000D02*
X114230000Y-85000000D01*
X114230000Y-85000000D02*
X115730000Y-85000000D01*
X115730000Y-85000000D02*
X115730000Y-86200000D01*
X115730000Y-86200000D02*
X117230000Y-86200000D01*
X117230000Y-86200000D02*
X117230000Y-97200000D01*
X117230000Y-97200000D02*
X105230000Y-97200000D01*
D13*
%TO.C,J17*%
X67910000Y-115600000D02*
X67910000Y-125460000D01*
X63000000Y-130370000D01*
X58090000Y-125460000D01*
X58090000Y-115590000D01*
X67910000Y-115600000D01*
%TO.C,J16*%
X61910000Y-133040000D02*
X61910000Y-147910000D01*
X52090000Y-147910000D01*
X52090000Y-133040000D01*
X57000000Y-128130000D01*
X61910000Y-133040000D01*
%TO.C,J25*%
X121910000Y-133040000D02*
X121910000Y-147910000D01*
X112090000Y-147910000D01*
X112090000Y-133040000D01*
X117000000Y-128130000D01*
X121910000Y-133040000D01*
%TO.C,J21*%
X97910000Y-133040000D02*
X97910000Y-147910000D01*
X88090000Y-147910000D01*
X88090000Y-133040000D01*
X93000000Y-128130000D01*
X97910000Y-133040000D01*
D12*
%TO.C,R1*%
X122130000Y-102920000D02*
X122460000Y-102920000D01*
X122130000Y-109460000D02*
X122130000Y-102920000D01*
X122460000Y-109460000D02*
X122130000Y-109460000D01*
X124540000Y-109460000D02*
X124870000Y-109460000D01*
X124870000Y-102920000D02*
X124540000Y-102920000D01*
X124870000Y-109460000D02*
X124870000Y-102920000D01*
D13*
%TO.C,J27*%
X133910000Y-133040000D02*
X133910000Y-147910000D01*
X124090000Y-147910000D01*
X124090000Y-133040000D01*
X129000000Y-128130000D01*
X133910000Y-133040000D01*
%TO.C,J19*%
X79910000Y-115600000D02*
X79910000Y-125460000D01*
X75000000Y-130370000D01*
X70090000Y-125460000D01*
X70090000Y-115590000D01*
X79910000Y-115600000D01*
D12*
%TO.C,R8*%
X129130000Y-102920000D02*
X129460000Y-102920000D01*
X129130000Y-109460000D02*
X129130000Y-102920000D01*
X129460000Y-109460000D02*
X129130000Y-109460000D01*
X131540000Y-109460000D02*
X131870000Y-109460000D01*
X131870000Y-102920000D02*
X131540000Y-102920000D01*
X131870000Y-109460000D02*
X131870000Y-102920000D01*
D13*
%TO.C,J20*%
X85910000Y-133040000D02*
X85910000Y-147910000D01*
X76090000Y-147910000D01*
X76090000Y-133040000D01*
X81000000Y-128130000D01*
X85910000Y-133040000D01*
D12*
%TO.C,R14*%
X124682000Y-100684000D02*
X124682000Y-100354000D01*
X124682000Y-97944000D02*
X124682000Y-98274000D01*
X118142000Y-100684000D02*
X124682000Y-100684000D01*
X118142000Y-100354000D02*
X118142000Y-100684000D01*
X118142000Y-98274000D02*
X118142000Y-97944000D01*
X118142000Y-97944000D02*
X124682000Y-97944000D01*
%TO.C,R12*%
X143130000Y-102920000D02*
X143460000Y-102920000D01*
X143130000Y-109460000D02*
X143130000Y-102920000D01*
X143460000Y-109460000D02*
X143130000Y-109460000D01*
X145540000Y-109460000D02*
X145870000Y-109460000D01*
X145870000Y-102920000D02*
X145540000Y-102920000D01*
X145870000Y-109460000D02*
X145870000Y-102920000D01*
%TO.C,R15*%
X112998000Y-100684000D02*
X106458000Y-100684000D01*
X112998000Y-100354000D02*
X112998000Y-100684000D01*
X112998000Y-98274000D02*
X112998000Y-97944000D01*
X112998000Y-97944000D02*
X106458000Y-97944000D01*
X106458000Y-100684000D02*
X106458000Y-100354000D01*
X106458000Y-97944000D02*
X106458000Y-98274000D01*
%TO.C,U1*%
X50500000Y-86970000D02*
X50800000Y-86970000D01*
X50500000Y-107970000D02*
X50500000Y-86970000D01*
X50500000Y-107970000D02*
X50800000Y-107970000D01*
X52900000Y-86970000D02*
X53300000Y-86970000D01*
X52900000Y-107970000D02*
X53300000Y-107970000D01*
X53167000Y-104963000D02*
X50500000Y-104963000D01*
X53167000Y-107970000D02*
X53167000Y-104963000D01*
X55500000Y-86970000D02*
X55900000Y-86970000D01*
X55500000Y-107970000D02*
X55900000Y-107970000D01*
X58000000Y-86970000D02*
X58400000Y-86970000D01*
X58000000Y-107970000D02*
X58400000Y-107970000D01*
X60600000Y-86970000D02*
X61000000Y-86970000D01*
X60600000Y-107970000D02*
X61000000Y-107970000D01*
X63100000Y-86970000D02*
X63500000Y-86970000D01*
X63100000Y-107970000D02*
X63500000Y-107970000D01*
X65600000Y-86970000D02*
X66000000Y-86970000D01*
X65600000Y-107970000D02*
X66000000Y-107970000D01*
X68200000Y-86970000D02*
X68600000Y-86970000D01*
X68200000Y-107970000D02*
X68600000Y-107970000D01*
X70700000Y-86970000D02*
X71100000Y-86970000D01*
X70700000Y-107970000D02*
X71100000Y-107970000D01*
X73300000Y-86970000D02*
X73700000Y-86970000D01*
X73300000Y-107970000D02*
X73700000Y-107970000D01*
X75800000Y-86970000D02*
X76200000Y-86970000D01*
X75800000Y-107970000D02*
X76200000Y-107970000D01*
X78300000Y-86970000D02*
X78700000Y-86970000D01*
X78300000Y-107970000D02*
X78700000Y-107970000D01*
X80900000Y-86970000D02*
X81300000Y-86970000D01*
X80900000Y-107970000D02*
X81300000Y-107970000D01*
X83400000Y-86970000D02*
X83800000Y-86970000D01*
X83400000Y-107970000D02*
X83800000Y-107970000D01*
X86000000Y-86970000D02*
X86400000Y-86970000D01*
X86000000Y-107970000D02*
X86400000Y-107970000D01*
X88500000Y-86970000D02*
X88900000Y-86970000D01*
X88500000Y-107970000D02*
X88900000Y-107970000D01*
X91100000Y-86970000D02*
X91500000Y-86970000D01*
X91100000Y-107970000D02*
X91500000Y-107970000D01*
X93600000Y-86970000D02*
X94000000Y-86970000D01*
X93600000Y-107970000D02*
X94000000Y-107970000D01*
X96100000Y-86970000D02*
X96500000Y-86970000D01*
X96100000Y-107970000D02*
X96500000Y-107970000D01*
X98700000Y-86970000D02*
X99100000Y-86970000D01*
X98700000Y-107970000D02*
X99100000Y-107970000D01*
X101500000Y-86970000D02*
X101500000Y-93770000D01*
X101500000Y-96370000D02*
X101500000Y-95970000D01*
X101500000Y-98970000D02*
X101500000Y-98570000D01*
X101500000Y-101170000D02*
X101500000Y-107970000D01*
D13*
%TO.C,J18*%
X73910000Y-133040000D02*
X73910000Y-147910000D01*
X64090000Y-147910000D01*
X64090000Y-133040000D01*
X69000000Y-128130000D01*
X73910000Y-133040000D01*
D12*
%TO.C,D1*%
X132912000Y-87630000D02*
X133932000Y-87630000D01*
X133932000Y-86160000D02*
X133932000Y-89100000D01*
X133932000Y-89100000D02*
X139372000Y-89100000D01*
X134712000Y-86160000D02*
X134712000Y-89100000D01*
X134832000Y-86160000D02*
X134832000Y-89100000D01*
X134952000Y-86160000D02*
X134952000Y-89100000D01*
X139372000Y-86160000D02*
X133932000Y-86160000D01*
X139372000Y-89100000D02*
X139372000Y-86160000D01*
X140392000Y-87630000D02*
X139372000Y-87630000D01*
D13*
%TO.C,J22*%
X103910000Y-115600000D02*
X103910000Y-125460000D01*
X99000000Y-130370000D01*
X94090000Y-125460000D01*
X94090000Y-115590000D01*
X103910000Y-115600000D01*
D12*
%TO.C,J2*%
X145850000Y-88930000D02*
X145850000Y-86330000D01*
X148510000Y-86330000D02*
X145850000Y-86330000D01*
X148510000Y-88930000D02*
X145850000Y-88930000D01*
X148510000Y-88930000D02*
X148510000Y-86330000D01*
X148510000Y-90200000D02*
X148510000Y-91530000D01*
X148510000Y-91530000D02*
X147180000Y-91530000D01*
%TO.C,R3*%
X115130000Y-102920000D02*
X115460000Y-102920000D01*
X115130000Y-109460000D02*
X115130000Y-102920000D01*
X115460000Y-109460000D02*
X115130000Y-109460000D01*
X117540000Y-109460000D02*
X117870000Y-109460000D01*
X117870000Y-102920000D02*
X117540000Y-102920000D01*
X117870000Y-109460000D02*
X117870000Y-102920000D01*
%TO.C,R4*%
X111630000Y-102920000D02*
X111960000Y-102920000D01*
X111630000Y-109460000D02*
X111630000Y-102920000D01*
X111960000Y-109460000D02*
X111630000Y-109460000D01*
X114040000Y-109460000D02*
X114370000Y-109460000D01*
X114370000Y-102920000D02*
X114040000Y-102920000D01*
X114370000Y-109460000D02*
X114370000Y-102920000D01*
%TO.C,R9*%
X132630000Y-102920000D02*
X132960000Y-102920000D01*
X132630000Y-109460000D02*
X132630000Y-102920000D01*
X132960000Y-109460000D02*
X132630000Y-109460000D01*
X135040000Y-109460000D02*
X135370000Y-109460000D01*
X135370000Y-102920000D02*
X135040000Y-102920000D01*
X135370000Y-109460000D02*
X135370000Y-102920000D01*
%TD*%
M02*
