G04 #@! TF.GenerationSoftware,KiCad,Pcbnew,(6.0.5)*
G04 #@! TF.CreationDate,2023-06-20T18:04:17+01:00*
G04 #@! TF.ProjectId,RPii-Dual-MiniDexed,52506969-2d44-4756-916c-2d4d696e6944,rev?*
G04 #@! TF.SameCoordinates,Original*
G04 #@! TF.FileFunction,Profile,NP*
%FSLAX46Y46*%
G04 Gerber Fmt 4.6, Leading zero omitted, Abs format (unit mm)*
G04 Created by KiCad (PCBNEW (6.0.5)) date 2023-06-20 18:04:17*
%MOMM*%
%LPD*%
G01*
G04 APERTURE LIST*
G04 #@! TA.AperFunction,Profile*
%ADD10C,0.100000*%
G04 #@! TD*
G04 #@! TA.AperFunction,Profile*
%ADD11C,0.120000*%
G04 #@! TD*
G04 APERTURE END LIST*
D10*
X257590000Y-150000000D02*
X262000000Y-150000000D01*
X196980000Y-125010000D02*
X196980000Y-145010000D01*
X179980000Y-147010000D02*
G75*
G03*
X182980000Y-150010000I3000000J0D01*
G01*
X199980000Y-125010000D02*
X199980000Y-127470000D01*
X196980000Y-125010000D02*
X199980000Y-125010000D01*
X200000000Y-57480000D02*
X200000000Y-94000000D01*
X199980000Y-115490000D02*
X199980000Y-120010000D01*
X262000000Y-35000000D02*
X203000000Y-35000000D01*
X200000000Y-38000000D02*
X200000000Y-57480000D01*
X182980000Y-94000017D02*
G75*
G03*
X179980000Y-97010000I10000J-3009983D01*
G01*
X265000000Y-88000000D02*
X265000000Y-72000000D01*
X196980000Y-145010000D02*
X199980000Y-145010000D01*
X203000000Y-35000000D02*
G75*
G03*
X200000000Y-38000000I0J-3000000D01*
G01*
X182980000Y-150010000D02*
X244590000Y-150000000D01*
X199980000Y-140470000D02*
X199980000Y-145010000D01*
X265000000Y-97000000D02*
X265000000Y-88000000D01*
X200000000Y-94000000D02*
X182980000Y-94000000D01*
X265000000Y-54000000D02*
X265000000Y-38000000D01*
X196980000Y-120010000D02*
X199980000Y-120010000D01*
X196980000Y-99010000D02*
X196980000Y-120010000D01*
X265000000Y-38000000D02*
G75*
G03*
X262000000Y-35000000I-3000000J0D01*
G01*
X262000000Y-150000000D02*
G75*
G03*
X265000000Y-147000000I0J3000000D01*
G01*
X265000000Y-147000000D02*
X265000000Y-97000000D01*
X199980000Y-99010000D02*
X199980000Y-102490000D01*
X179980000Y-97010000D02*
X179980000Y-147010000D01*
X196980000Y-99010000D02*
X199980000Y-99010000D01*
X265000000Y-72000000D02*
X265000000Y-54000000D01*
D11*
X200980000Y-136170000D02*
X199980000Y-136170000D01*
X199980000Y-136170000D02*
X199980000Y-140470000D01*
X200980000Y-131770000D02*
X199980000Y-131770000D01*
X199980000Y-131770000D02*
X199980000Y-127470000D01*
X201380000Y-135770000D02*
X201380000Y-132170000D01*
X201380000Y-132170000D02*
G75*
G03*
X200980000Y-131770000I-400002J-2D01*
G01*
X200980000Y-136170000D02*
G75*
G03*
X201380000Y-135770000I0J400000D01*
G01*
X200980000Y-106790000D02*
X199980000Y-106790000D01*
X200980000Y-111190000D02*
X199980000Y-111190000D01*
X199980000Y-111190000D02*
X199980000Y-115490000D01*
X199980000Y-106790000D02*
X199980000Y-102490000D01*
X201380000Y-110790000D02*
X201380000Y-107190000D01*
X201380000Y-107190000D02*
G75*
G03*
X200980000Y-106790000I-400002J-2D01*
G01*
X200980000Y-111190000D02*
G75*
G03*
X201380000Y-110790000I0J400000D01*
G01*
X253290000Y-150000000D02*
X257590000Y-150000000D01*
X252890000Y-148600000D02*
X249290000Y-148600000D01*
X248890000Y-150000000D02*
X244590000Y-150000000D01*
X248890000Y-149000000D02*
X248890000Y-150000000D01*
X253290000Y-149000000D02*
X253290000Y-150000000D01*
X253290000Y-149000000D02*
G75*
G03*
X252890000Y-148600000I-400000J0D01*
G01*
X249290000Y-148600000D02*
G75*
G03*
X248890000Y-149000000I2J-400002D01*
G01*
M02*
