G04 #@! TF.GenerationSoftware,KiCad,Pcbnew,(6.0.5)*
G04 #@! TF.CreationDate,2023-06-20T18:04:17+01:00*
G04 #@! TF.ProjectId,RPii-Dual-MiniDexed,52506969-2d44-4756-916c-2d4d696e6944,rev?*
G04 #@! TF.SameCoordinates,Original*
G04 #@! TF.FileFunction,Copper,L1,Top*
G04 #@! TF.FilePolarity,Positive*
%FSLAX46Y46*%
G04 Gerber Fmt 4.6, Leading zero omitted, Abs format (unit mm)*
G04 Created by KiCad (PCBNEW (6.0.5)) date 2023-06-20 18:04:17*
%MOMM*%
%LPD*%
G01*
G04 APERTURE LIST*
G04 Aperture macros list*
%AMRoundRect*
0 Rectangle with rounded corners*
0 $1 Rounding radius*
0 $2 $3 $4 $5 $6 $7 $8 $9 X,Y pos of 4 corners*
0 Add a 4 corners polygon primitive as box body*
4,1,4,$2,$3,$4,$5,$6,$7,$8,$9,$2,$3,0*
0 Add four circle primitives for the rounded corners*
1,1,$1+$1,$2,$3*
1,1,$1+$1,$4,$5*
1,1,$1+$1,$6,$7*
1,1,$1+$1,$8,$9*
0 Add four rect primitives between the rounded corners*
20,1,$1+$1,$2,$3,$4,$5,0*
20,1,$1+$1,$4,$5,$6,$7,0*
20,1,$1+$1,$6,$7,$8,$9,0*
20,1,$1+$1,$8,$9,$2,$3,0*%
G04 Aperture macros list end*
G04 #@! TA.AperFunction,ComponentPad*
%ADD10R,3.500000X3.500000*%
G04 #@! TD*
G04 #@! TA.AperFunction,ComponentPad*
%ADD11RoundRect,0.750000X-0.750000X-1.000000X0.750000X-1.000000X0.750000X1.000000X-0.750000X1.000000X0*%
G04 #@! TD*
G04 #@! TA.AperFunction,ComponentPad*
%ADD12RoundRect,0.875000X-0.875000X-0.875000X0.875000X-0.875000X0.875000X0.875000X-0.875000X0.875000X0*%
G04 #@! TD*
G04 #@! TA.AperFunction,ComponentPad*
%ADD13C,1.600000*%
G04 #@! TD*
G04 #@! TA.AperFunction,ComponentPad*
%ADD14R,1.600000X1.600000*%
G04 #@! TD*
G04 #@! TA.AperFunction,ComponentPad*
%ADD15R,1.700000X1.700000*%
G04 #@! TD*
G04 #@! TA.AperFunction,ComponentPad*
%ADD16O,1.700000X1.700000*%
G04 #@! TD*
G04 #@! TA.AperFunction,ComponentPad*
%ADD17C,1.700000*%
G04 #@! TD*
G04 #@! TA.AperFunction,ComponentPad*
%ADD18C,2.000000*%
G04 #@! TD*
G04 #@! TA.AperFunction,ComponentPad*
%ADD19O,1.600000X1.600000*%
G04 #@! TD*
G04 #@! TA.AperFunction,ComponentPad*
%ADD20R,2.000000X2.000000*%
G04 #@! TD*
G04 #@! TA.AperFunction,ComponentPad*
%ADD21C,3.200000*%
G04 #@! TD*
G04 #@! TA.AperFunction,ComponentPad*
%ADD22O,2.200000X1.200000*%
G04 #@! TD*
G04 #@! TA.AperFunction,ComponentPad*
%ADD23O,1.200000X2.200000*%
G04 #@! TD*
G04 #@! TA.AperFunction,WasherPad*
%ADD24R,4.000000X2.500000*%
G04 #@! TD*
G04 #@! TA.AperFunction,ComponentPad*
%ADD25C,2.499360*%
G04 #@! TD*
G04 #@! TA.AperFunction,ViaPad*
%ADD26C,0.900000*%
G04 #@! TD*
G04 #@! TA.AperFunction,Conductor*
%ADD27C,0.200000*%
G04 #@! TD*
G04 #@! TA.AperFunction,Conductor*
%ADD28C,0.800000*%
G04 #@! TD*
G04 #@! TA.AperFunction,Conductor*
%ADD29C,0.600000*%
G04 #@! TD*
G04 APERTURE END LIST*
D10*
X210160000Y-59812500D03*
D11*
X204160000Y-59812500D03*
D12*
X207160000Y-64512500D03*
D13*
X215370000Y-67460000D03*
X220370000Y-67460000D03*
D14*
X217710000Y-57797349D03*
D13*
X217710000Y-61297349D03*
D15*
X237000000Y-127540000D03*
D16*
X237000000Y-125000000D03*
D13*
X251800000Y-56500000D03*
X251800000Y-61500000D03*
D17*
X250070000Y-131235000D03*
X252610000Y-131235000D03*
X255150000Y-131235000D03*
X257690000Y-131235000D03*
X260230000Y-131235000D03*
X262770000Y-131235000D03*
X249435000Y-104565000D03*
X249435000Y-107105000D03*
X249435000Y-109645000D03*
X249435000Y-112185000D03*
X249435000Y-114725000D03*
X249435000Y-117265000D03*
X249435000Y-119805000D03*
X249435000Y-122345000D03*
X249435000Y-124885000D03*
D13*
X249100000Y-56500000D03*
X249100000Y-61500000D03*
X254500000Y-56500000D03*
X254500000Y-61500000D03*
D18*
X226500000Y-37000000D03*
X220000000Y-37000000D03*
X226500000Y-41500000D03*
X220000000Y-41500000D03*
D13*
X257910000Y-134210000D03*
X262910000Y-134210000D03*
D15*
X212500000Y-78895000D03*
D16*
X212500000Y-76355000D03*
X212500000Y-73815000D03*
D13*
X223700000Y-121410000D03*
D19*
X216080000Y-121410000D03*
D15*
X216360000Y-78895000D03*
D16*
X216360000Y-76355000D03*
X216360000Y-73815000D03*
X202610000Y-77335000D03*
D15*
X202610000Y-74795000D03*
D13*
X211230000Y-142850000D03*
X211230000Y-147850000D03*
D14*
X215910000Y-112000000D03*
D19*
X215910000Y-114540000D03*
X215910000Y-117080000D03*
X223530000Y-117080000D03*
X223530000Y-114540000D03*
X223530000Y-112000000D03*
D13*
X257200000Y-56500000D03*
X257200000Y-61500000D03*
D17*
X214365000Y-135100000D03*
X214365000Y-137640000D03*
X214365000Y-140180000D03*
X214365000Y-142720000D03*
X214365000Y-145260000D03*
X214365000Y-147800000D03*
X241035000Y-134465000D03*
X238495000Y-134465000D03*
X235955000Y-134465000D03*
X233415000Y-134465000D03*
X230875000Y-134465000D03*
X228335000Y-134465000D03*
X225795000Y-134465000D03*
X223255000Y-134465000D03*
X220715000Y-134465000D03*
D13*
X262700000Y-70250000D03*
X262700000Y-65250000D03*
D18*
X215500000Y-37000000D03*
X209000000Y-37000000D03*
X215500000Y-41500000D03*
X209000000Y-41500000D03*
D20*
X246530000Y-52030000D03*
D18*
X251530000Y-52030000D03*
X249030000Y-52030000D03*
D21*
X243430000Y-44530000D03*
X254630000Y-44530000D03*
D18*
X251530000Y-37530000D03*
X246530000Y-37530000D03*
D13*
X216000000Y-104340000D03*
D19*
X223620000Y-104340000D03*
D13*
X216000000Y-128920000D03*
D19*
X223620000Y-128920000D03*
D13*
X223800000Y-47990000D03*
X228800000Y-47990000D03*
D15*
X208930000Y-48025000D03*
D16*
X208930000Y-50565000D03*
D15*
X227600000Y-52000000D03*
D16*
X225060000Y-52000000D03*
D15*
X258945000Y-75330000D03*
D16*
X258945000Y-72790000D03*
X258945000Y-70250000D03*
X258945000Y-67710000D03*
D15*
X235800000Y-52000000D03*
D16*
X233260000Y-52000000D03*
D13*
X232000000Y-48000000D03*
X237000000Y-48000000D03*
D16*
X244190000Y-57255000D03*
X244190000Y-59795000D03*
D15*
X244190000Y-62335000D03*
D13*
X227050000Y-114480000D03*
X227050000Y-109480000D03*
X216000000Y-125160000D03*
D19*
X223620000Y-125160000D03*
D22*
X209480000Y-128970000D03*
X209480000Y-131470000D03*
D23*
X204480000Y-133970000D03*
D22*
X209480000Y-138970000D03*
X209480000Y-136470000D03*
X209480000Y-103990000D03*
X209480000Y-106490000D03*
D23*
X204480000Y-108990000D03*
D22*
X209480000Y-113990000D03*
X209480000Y-111490000D03*
D23*
X246090000Y-140500000D03*
X248590000Y-140500000D03*
D22*
X251090000Y-145500000D03*
D23*
X256090000Y-140500000D03*
X253590000Y-140500000D03*
D15*
X202610000Y-48025000D03*
D16*
X202610000Y-50565000D03*
D15*
X243000000Y-127540000D03*
D16*
X243000000Y-125000000D03*
D15*
X219355000Y-52000000D03*
D16*
X216815000Y-52000000D03*
D14*
X216000000Y-108140000D03*
D19*
X223620000Y-108140000D03*
D18*
X231000000Y-37000000D03*
X237500000Y-37000000D03*
X237500000Y-41500000D03*
X231000000Y-41500000D03*
D15*
X208370000Y-98770000D03*
D16*
X208370000Y-96230000D03*
X210910000Y-98770000D03*
X210910000Y-96230000D03*
X213450000Y-98770000D03*
X213450000Y-96230000D03*
X215990000Y-98770000D03*
X215990000Y-96230000D03*
X218530000Y-98770000D03*
X218530000Y-96230000D03*
X221070000Y-98770000D03*
X221070000Y-96230000D03*
X223610000Y-98770000D03*
X223610000Y-96230000D03*
X226150000Y-98770000D03*
X226150000Y-96230000D03*
X228690000Y-98770000D03*
X228690000Y-96230000D03*
X231230000Y-98770000D03*
X231230000Y-96230000D03*
X233770000Y-98770000D03*
X233770000Y-96230000D03*
X236310000Y-98770000D03*
X236310000Y-96230000D03*
X238850000Y-98770000D03*
X238850000Y-96230000D03*
X241390000Y-98770000D03*
X241390000Y-96230000D03*
X243930000Y-98770000D03*
X243930000Y-96230000D03*
X246470000Y-98770000D03*
X246470000Y-96230000D03*
X249010000Y-98770000D03*
X249010000Y-96230000D03*
X251550000Y-98770000D03*
X251550000Y-96230000D03*
X254090000Y-98770000D03*
X254090000Y-96230000D03*
X256630000Y-98770000D03*
X256630000Y-96230000D03*
D15*
X256630000Y-86230000D03*
D16*
X256630000Y-88770000D03*
X254090000Y-86230000D03*
X254090000Y-88770000D03*
X251550000Y-86230000D03*
X251550000Y-88770000D03*
X249010000Y-86230000D03*
X249010000Y-88770000D03*
X246470000Y-86230000D03*
X246470000Y-88770000D03*
X243930000Y-86230000D03*
X243930000Y-88770000D03*
X241390000Y-86230000D03*
X241390000Y-88770000D03*
X238850000Y-86230000D03*
X238850000Y-88770000D03*
X236310000Y-86230000D03*
X236310000Y-88770000D03*
X233770000Y-86230000D03*
X233770000Y-88770000D03*
X231230000Y-86230000D03*
X231230000Y-88770000D03*
X228690000Y-86230000D03*
X228690000Y-88770000D03*
X226150000Y-86230000D03*
X226150000Y-88770000D03*
X223610000Y-86230000D03*
X223610000Y-88770000D03*
X221070000Y-86230000D03*
X221070000Y-88770000D03*
X218530000Y-86230000D03*
X218530000Y-88770000D03*
X215990000Y-86230000D03*
X215990000Y-88770000D03*
X213450000Y-86230000D03*
X213450000Y-88770000D03*
X210910000Y-86230000D03*
X210910000Y-88770000D03*
X208370000Y-86230000D03*
X208370000Y-88770000D03*
D24*
X183222300Y-113951260D03*
X183222300Y-103948740D03*
D25*
X192417200Y-101451920D03*
X192419740Y-108950000D03*
X192417200Y-116448080D03*
X194919100Y-103953820D03*
X194919100Y-113946180D03*
D24*
X183212300Y-139011260D03*
X183212300Y-129008740D03*
D25*
X192407200Y-126511920D03*
X192409740Y-134010000D03*
X192407200Y-141508080D03*
X194909100Y-129013820D03*
X194909100Y-139006180D03*
D26*
X248030000Y-92930000D03*
D27*
X257970000Y-64180000D02*
X259120000Y-63030000D01*
X256074944Y-64180000D02*
X257970000Y-64180000D01*
X259120000Y-63030000D02*
X259120000Y-60760000D01*
X234024944Y-86230000D02*
X256074944Y-64180000D01*
X233770000Y-86230000D02*
X234024944Y-86230000D01*
X253150000Y-57850000D02*
X254500000Y-56500000D01*
X253150000Y-64310000D02*
X253150000Y-57850000D01*
X231230000Y-86230000D02*
X253150000Y-64310000D01*
X245965000Y-62335000D02*
X251800000Y-56500000D01*
X244190000Y-62335000D02*
X245965000Y-62335000D01*
X248345000Y-57255000D02*
X249100000Y-56500000D01*
X244190000Y-57255000D02*
X248345000Y-57255000D01*
X259120000Y-60760000D02*
X259120000Y-58420000D01*
X259120000Y-58420000D02*
X257200000Y-56500000D01*
X246530000Y-52040000D02*
X248730000Y-54240000D01*
X248730000Y-54240000D02*
X252240000Y-54240000D01*
X252240000Y-54240000D02*
X254500000Y-56500000D01*
X246530000Y-52030000D02*
X246530000Y-52040000D01*
X251530000Y-52030000D02*
X252730000Y-52030000D01*
X252730000Y-52030000D02*
X257200000Y-56500000D01*
X216815000Y-52000000D02*
X215500000Y-50685000D01*
X215500000Y-50685000D02*
X215500000Y-41500000D01*
D28*
X205150000Y-50565000D02*
X208930000Y-50565000D01*
X202610000Y-48025000D02*
X205150000Y-50565000D01*
X210685000Y-48025000D02*
X208930000Y-48025000D01*
X213250000Y-50590000D02*
X210685000Y-48025000D01*
X213250000Y-55060000D02*
X213250000Y-50590000D01*
X215987349Y-57797349D02*
X213250000Y-55060000D01*
X217710000Y-57797349D02*
X215987349Y-57797349D01*
X210160000Y-51735000D02*
X208930000Y-50505000D01*
X210160000Y-59812500D02*
X210160000Y-51735000D01*
X220370000Y-60457349D02*
X217710000Y-57797349D01*
X220370000Y-67460000D02*
X220370000Y-60457349D01*
D27*
X219820000Y-84940000D02*
X218530000Y-86230000D01*
X219820000Y-77000000D02*
X219820000Y-84940000D01*
X229020000Y-55950000D02*
X229020000Y-67800000D01*
X229020000Y-67800000D02*
X219820000Y-77000000D01*
X225060000Y-51990000D02*
X229020000Y-55950000D01*
X221070000Y-78640000D02*
X221070000Y-86230000D01*
X233260000Y-66450000D02*
X221070000Y-78640000D01*
X233260000Y-52000000D02*
X233260000Y-66450000D01*
X228690000Y-72755000D02*
X228690000Y-74980000D01*
X244190000Y-57255000D02*
X228690000Y-72755000D01*
X228690000Y-86230000D02*
X228690000Y-74980000D01*
X244190000Y-70710000D02*
X230000000Y-84900000D01*
X230000000Y-84900000D02*
X230000000Y-89590000D01*
X244190000Y-62335000D02*
X244190000Y-70710000D01*
X244190000Y-57255000D02*
X244190000Y-49460000D01*
X251530000Y-42120000D02*
X245020000Y-48630000D01*
X244190000Y-49460000D02*
X245020000Y-48630000D01*
X251530000Y-37530000D02*
X251530000Y-42120000D01*
X258779040Y-95719040D02*
X258779040Y-130145960D01*
X258779040Y-130145960D02*
X257690000Y-131235000D01*
X258779039Y-95019039D02*
X258779040Y-95719040D01*
X255050000Y-91290000D02*
X258779039Y-95019039D01*
X214720000Y-89650000D02*
X216360000Y-91290000D01*
X214720000Y-87500000D02*
X214720000Y-89650000D01*
X216360000Y-91290000D02*
X255050000Y-91290000D01*
X213450000Y-86230000D02*
X214720000Y-87500000D01*
X218210000Y-90580000D02*
X217245000Y-89615000D01*
X230000000Y-89590000D02*
X229010000Y-90580000D01*
X217245000Y-87485000D02*
X215990000Y-86230000D01*
X229010000Y-90580000D02*
X218210000Y-90580000D01*
X217245000Y-89615000D02*
X217245000Y-87485000D01*
X232000000Y-50740000D02*
X233260000Y-52000000D01*
X232000000Y-48000000D02*
X232000000Y-50740000D01*
X231000000Y-47000000D02*
X232000000Y-48000000D01*
X231000000Y-41500000D02*
X231000000Y-47000000D01*
X231000000Y-41500000D02*
X237500000Y-41500000D01*
X223800000Y-50730000D02*
X225060000Y-51990000D01*
X223800000Y-47990000D02*
X223800000Y-50730000D01*
X226500000Y-45290000D02*
X223800000Y-47990000D01*
X226500000Y-41500000D02*
X226500000Y-45290000D01*
X220000000Y-41500000D02*
X226500000Y-41500000D01*
X209000000Y-41500000D02*
X215500000Y-41500000D01*
X218395000Y-75850000D02*
X216360000Y-73815000D01*
X218395000Y-80735000D02*
X218395000Y-75850000D01*
X209110000Y-81920000D02*
X217210000Y-81920000D01*
X206119520Y-84910480D02*
X209110000Y-81920000D01*
X217210000Y-81920000D02*
X218395000Y-80735000D01*
X206119520Y-86959520D02*
X206119520Y-84910480D01*
X212500000Y-74120655D02*
X216360000Y-77980655D01*
X216360000Y-77980655D02*
X216360000Y-78895000D01*
X212500000Y-73815000D02*
X212500000Y-74120655D01*
X206119520Y-86959520D02*
X206119520Y-100079520D01*
X205720000Y-100410000D02*
X205720000Y-83880000D01*
X208027500Y-80827500D02*
X205720000Y-83135000D01*
X208027500Y-80827500D02*
X212500000Y-76355000D01*
X205720000Y-83135000D02*
X205720000Y-83880000D01*
D29*
X263970000Y-130035000D02*
X262770000Y-131235000D01*
X263970000Y-96110000D02*
X263970000Y-130035000D01*
D28*
X262700000Y-83059022D02*
X262700000Y-70250000D01*
X256630000Y-88770000D02*
X256989022Y-88770000D01*
D29*
X256630000Y-88770000D02*
X263970000Y-96110000D01*
X262770000Y-131235000D02*
X262770000Y-134070000D01*
D28*
X256989022Y-88770000D02*
X262700000Y-83059022D01*
D29*
X262770000Y-134070000D02*
X262910000Y-134210000D01*
D28*
X256630000Y-88770000D02*
X254090000Y-88770000D01*
X258945000Y-70250000D02*
X262390000Y-70250000D01*
D27*
X231245000Y-108595000D02*
X231245000Y-126425000D01*
X216287020Y-140797980D02*
X214365000Y-142720000D01*
X251550000Y-98770000D02*
X248800000Y-101520000D01*
X220945006Y-132300000D02*
X216287020Y-136957986D01*
X225347497Y-132322503D02*
X225324994Y-132300000D01*
X231245000Y-126425000D02*
X225347497Y-132322503D01*
X248800000Y-101520000D02*
X238320000Y-101520000D01*
X225324994Y-132300000D02*
X220945006Y-132300000D01*
X238320000Y-101520000D02*
X231245000Y-108595000D01*
X216287020Y-136957986D02*
X216287020Y-140797980D01*
D29*
X211280000Y-147800000D02*
X211230000Y-147850000D01*
X214365000Y-147800000D02*
X211280000Y-147800000D01*
D27*
X254090000Y-78710000D02*
X254090000Y-86230000D01*
X257385000Y-75415000D02*
X254090000Y-78710000D01*
X258945000Y-75330000D02*
X257470000Y-75330000D01*
X257480000Y-75320000D02*
X257385000Y-75415000D01*
X257470000Y-75330000D02*
X257385000Y-75415000D01*
D29*
X243000000Y-113240000D02*
X246595000Y-109645000D01*
X243000000Y-125000000D02*
X243000000Y-113240000D01*
X249435000Y-109645000D02*
X246595000Y-109645000D01*
X244835000Y-132885000D02*
X244835000Y-135775000D01*
X246720000Y-137660000D02*
X255140000Y-137660000D01*
X240540000Y-121460000D02*
X240540000Y-109380000D01*
X256090000Y-138610000D02*
X256090000Y-140500000D01*
X255140000Y-137660000D02*
X256090000Y-138610000D01*
X237000000Y-125000000D02*
X237000000Y-125050000D01*
X240540000Y-109380000D02*
X245355000Y-104565000D01*
X245355000Y-104565000D02*
X249435000Y-104565000D01*
X237000000Y-125000000D02*
X240540000Y-121460000D01*
X244835000Y-135775000D02*
X246720000Y-137660000D01*
X237000000Y-125050000D02*
X244835000Y-132885000D01*
D27*
X257980000Y-125865000D02*
X257980000Y-95360000D01*
X257980000Y-95360000D02*
X255550000Y-92930000D01*
X255550000Y-92930000D02*
X248030000Y-92930000D01*
X252610000Y-131235000D02*
X257980000Y-125865000D01*
X216450000Y-91870000D02*
X211470000Y-91870000D01*
X258379520Y-95194514D02*
X255055006Y-91870000D01*
X255150000Y-131235000D02*
X258379520Y-128005480D01*
X211470000Y-91870000D02*
X208370000Y-88770000D01*
X258379520Y-128005480D02*
X258379520Y-95194514D01*
X255055006Y-91870000D02*
X216450000Y-91870000D01*
D29*
X237000000Y-130430000D02*
X241035000Y-134465000D01*
X237000000Y-127540000D02*
X237000000Y-130430000D01*
X216040000Y-108140000D02*
X216040000Y-111870000D01*
X219910000Y-108140000D02*
X223710000Y-104340000D01*
X216040000Y-111870000D02*
X215910000Y-112000000D01*
X216040000Y-108140000D02*
X219910000Y-108140000D01*
X194919100Y-119659100D02*
X196820000Y-121560000D01*
X223660000Y-108140000D02*
X222310000Y-108140000D01*
X201900000Y-121560000D02*
X209470000Y-113990000D01*
X222310000Y-108140000D02*
X215910000Y-114540000D01*
X196820000Y-121560000D02*
X201900000Y-121560000D01*
X194919100Y-113946180D02*
X194919100Y-119659100D01*
X194919100Y-103953820D02*
X194919100Y-99000900D01*
X196200000Y-97720000D02*
X200510000Y-97720000D01*
X206780000Y-103990000D02*
X209470000Y-103990000D01*
X200510000Y-97720000D02*
X206780000Y-103990000D01*
X194919100Y-99000900D02*
X196200000Y-97720000D01*
X203560000Y-123050000D02*
X209480000Y-128970000D01*
X194909100Y-129013820D02*
X194909100Y-125040900D01*
X196900000Y-123050000D02*
X203560000Y-123050000D01*
X194909100Y-125040900D02*
X196900000Y-123050000D01*
X194909100Y-139006180D02*
X194909100Y-144759100D01*
X207520000Y-138970000D02*
X209480000Y-138970000D01*
X194909100Y-144759100D02*
X196400000Y-146250000D01*
X196400000Y-146250000D02*
X200240000Y-146250000D01*
X200240000Y-146250000D02*
X207520000Y-138970000D01*
D27*
X218185000Y-123485000D02*
X223620000Y-128920000D01*
X213540000Y-104630000D02*
X211310000Y-102400000D01*
X217955000Y-123485000D02*
X218305000Y-123485000D01*
X207710000Y-102400000D02*
X205720000Y-100410000D01*
X213530000Y-106920000D02*
X213540000Y-106910000D01*
X213540000Y-106910000D02*
X213540000Y-104630000D01*
X213530000Y-120360000D02*
X213530000Y-106920000D01*
X213530000Y-121570000D02*
X215445000Y-123485000D01*
X217955000Y-123485000D02*
X218185000Y-123485000D01*
X213530000Y-120360000D02*
X213530000Y-121570000D01*
X215445000Y-123485000D02*
X217955000Y-123485000D01*
X211310000Y-102400000D02*
X207710000Y-102400000D01*
X214070000Y-119400000D02*
X216080000Y-121410000D01*
X214070000Y-104370000D02*
X214070000Y-119400000D01*
X206119520Y-100079520D02*
X207950000Y-101910000D01*
X207950000Y-101910000D02*
X211610000Y-101910000D01*
D29*
X220410000Y-117080000D02*
X216080000Y-121410000D01*
D27*
X211610000Y-101910000D02*
X214070000Y-104370000D01*
D29*
X223530000Y-117080000D02*
X220410000Y-117080000D01*
D27*
X230445960Y-108195960D02*
X230445960Y-123795960D01*
X230445960Y-123795960D02*
X230445960Y-125909034D01*
X220524520Y-131480480D02*
X214365000Y-137640000D01*
X222362172Y-97522172D02*
X222362172Y-100112172D01*
X222362172Y-100112172D02*
X230445960Y-108195960D01*
X230445960Y-125909034D02*
X224874514Y-131480480D01*
X224874514Y-131480480D02*
X220524520Y-131480480D01*
X221070000Y-96230000D02*
X222362172Y-97522172D01*
X247660000Y-99910000D02*
X246449520Y-101120480D01*
X256630000Y-96230000D02*
X254800000Y-94400000D01*
X247660000Y-95290000D02*
X247660000Y-99910000D01*
X248550000Y-94400000D02*
X247660000Y-95290000D01*
X215887500Y-138657500D02*
X214365000Y-140180000D01*
X229195000Y-127875000D02*
X225190000Y-131880000D01*
X225190000Y-131880000D02*
X220800000Y-131880000D01*
X215887500Y-136792500D02*
X215887500Y-138657500D01*
X254800000Y-94400000D02*
X248550000Y-94400000D01*
X230845480Y-126224520D02*
X229195000Y-127875000D01*
X246449520Y-101120480D02*
X238079519Y-101120481D01*
X220800000Y-131880000D02*
X215887500Y-136792500D01*
X230845480Y-108354520D02*
X230845480Y-126224520D01*
X238079519Y-101120481D02*
X230845480Y-108354520D01*
X251550000Y-79850000D02*
X258620000Y-72780000D01*
X251550000Y-86230000D02*
X251550000Y-79850000D01*
G04 #@! TA.AperFunction,Conductor*
G36*
X251472121Y-102840002D02*
G01*
X251518614Y-102893658D01*
X251530000Y-102946000D01*
X251530000Y-113414000D01*
X251509998Y-113482121D01*
X251456342Y-113528614D01*
X251404000Y-113540000D01*
X250267652Y-113540000D01*
X250199531Y-113519998D01*
X250153038Y-113466342D01*
X250142934Y-113396068D01*
X250172428Y-113331488D01*
X250178719Y-113325764D01*
X250192648Y-113308023D01*
X250185660Y-113294870D01*
X249447812Y-112557022D01*
X249433868Y-112549408D01*
X249432035Y-112549539D01*
X249425420Y-112553790D01*
X248681737Y-113297473D01*
X248674977Y-113309853D01*
X248694284Y-113335644D01*
X248691519Y-113337714D01*
X248713068Y-113363324D01*
X248722153Y-113433737D01*
X248691727Y-113497883D01*
X248631451Y-113535398D01*
X248597708Y-113540000D01*
X247420000Y-113540000D01*
X247420000Y-135690000D01*
X257794000Y-135690000D01*
X257862121Y-135710002D01*
X257908614Y-135763658D01*
X257920000Y-135816000D01*
X257920000Y-149365500D01*
X257899998Y-149433621D01*
X257846342Y-149480114D01*
X257794000Y-149491500D01*
X253924500Y-149491500D01*
X253856379Y-149471498D01*
X253809886Y-149417842D01*
X253798500Y-149365500D01*
X253798500Y-149053250D01*
X253800246Y-149032345D01*
X253802770Y-149017344D01*
X253802770Y-149017341D01*
X253803576Y-149012552D01*
X253803729Y-149000000D01*
X253801453Y-148984110D01*
X253800789Y-148978606D01*
X253785962Y-148828068D01*
X253785355Y-148821903D01*
X253733406Y-148650650D01*
X253682327Y-148555087D01*
X253651965Y-148498285D01*
X253649045Y-148492822D01*
X253535515Y-148354485D01*
X253397178Y-148240955D01*
X253377164Y-148230258D01*
X253244808Y-148159511D01*
X253244805Y-148159510D01*
X253239350Y-148156594D01*
X253068097Y-148104645D01*
X252934323Y-148091469D01*
X252925783Y-148090332D01*
X252913990Y-148088348D01*
X252907344Y-148087230D01*
X252907342Y-148087230D01*
X252902552Y-148086424D01*
X252896276Y-148086348D01*
X252894860Y-148086330D01*
X252894857Y-148086330D01*
X252890000Y-148086271D01*
X252871370Y-148088939D01*
X252862376Y-148090227D01*
X252844514Y-148091500D01*
X249343250Y-148091500D01*
X249322345Y-148089754D01*
X249307344Y-148087230D01*
X249307341Y-148087230D01*
X249302552Y-148086424D01*
X249296276Y-148086348D01*
X249294859Y-148086330D01*
X249294856Y-148086330D01*
X249290000Y-148086271D01*
X249274110Y-148088547D01*
X249268606Y-148089211D01*
X249164310Y-148099483D01*
X249111903Y-148104645D01*
X248940650Y-148156594D01*
X248935195Y-148159510D01*
X248935192Y-148159511D01*
X248802836Y-148230258D01*
X248782822Y-148240955D01*
X248644485Y-148354485D01*
X248530955Y-148492822D01*
X248528035Y-148498285D01*
X248497674Y-148555087D01*
X248446594Y-148650650D01*
X248394645Y-148821903D01*
X248394038Y-148828068D01*
X248380504Y-148965482D01*
X248379611Y-148972519D01*
X248376309Y-148993724D01*
X248377115Y-148999888D01*
X248377104Y-149000000D01*
X248377130Y-149000000D01*
X248378803Y-149012796D01*
X248378803Y-149012797D01*
X248380436Y-149025283D01*
X248381500Y-149041620D01*
X248381500Y-149365500D01*
X248361498Y-149433621D01*
X248307842Y-149480114D01*
X248255500Y-149491500D01*
X244629591Y-149491500D01*
X244629564Y-149491499D01*
X244629532Y-149491494D01*
X244629433Y-149491494D01*
X244592565Y-149491500D01*
X244553487Y-149491500D01*
X244553451Y-149491505D01*
X244553419Y-149491506D01*
X244272993Y-149491552D01*
X232676019Y-149493434D01*
X232607896Y-149473443D01*
X232561395Y-149419795D01*
X232550000Y-149367434D01*
X232550000Y-147945604D01*
X244977787Y-147945604D01*
X244987567Y-148156899D01*
X245037125Y-148362534D01*
X245039607Y-148367992D01*
X245039608Y-148367996D01*
X245083053Y-148463546D01*
X245124674Y-148555087D01*
X245247054Y-148727611D01*
X245399850Y-148873881D01*
X245577548Y-148988620D01*
X245636931Y-149012552D01*
X245768168Y-149065442D01*
X245768171Y-149065443D01*
X245773737Y-149067686D01*
X245981337Y-149108228D01*
X245986899Y-149108500D01*
X246142846Y-149108500D01*
X246300566Y-149093452D01*
X246503534Y-149033908D01*
X246508862Y-149031164D01*
X246686249Y-148939804D01*
X246686252Y-148939802D01*
X246691580Y-148937058D01*
X246857920Y-148806396D01*
X246861852Y-148801865D01*
X246861855Y-148801862D01*
X246992621Y-148651167D01*
X246996552Y-148646637D01*
X246999552Y-148641451D01*
X246999555Y-148641447D01*
X247099467Y-148468742D01*
X247102473Y-148463546D01*
X247171861Y-148263729D01*
X247175163Y-148240955D01*
X247201352Y-148060336D01*
X247201352Y-148060333D01*
X247202213Y-148054396D01*
X247197177Y-147945604D01*
X254977787Y-147945604D01*
X254987567Y-148156899D01*
X255037125Y-148362534D01*
X255039607Y-148367992D01*
X255039608Y-148367996D01*
X255083053Y-148463546D01*
X255124674Y-148555087D01*
X255247054Y-148727611D01*
X255399850Y-148873881D01*
X255577548Y-148988620D01*
X255636931Y-149012552D01*
X255768168Y-149065442D01*
X255768171Y-149065443D01*
X255773737Y-149067686D01*
X255981337Y-149108228D01*
X255986899Y-149108500D01*
X256142846Y-149108500D01*
X256300566Y-149093452D01*
X256503534Y-149033908D01*
X256508862Y-149031164D01*
X256686249Y-148939804D01*
X256686252Y-148939802D01*
X256691580Y-148937058D01*
X256857920Y-148806396D01*
X256861852Y-148801865D01*
X256861855Y-148801862D01*
X256992621Y-148651167D01*
X256996552Y-148646637D01*
X256999552Y-148641451D01*
X256999555Y-148641447D01*
X257099467Y-148468742D01*
X257102473Y-148463546D01*
X257171861Y-148263729D01*
X257175163Y-148240955D01*
X257201352Y-148060336D01*
X257201352Y-148060333D01*
X257202213Y-148054396D01*
X257192433Y-147843101D01*
X257142875Y-147637466D01*
X257099525Y-147542122D01*
X257057806Y-147450368D01*
X257055326Y-147444913D01*
X256932946Y-147272389D01*
X256780150Y-147126119D01*
X256602452Y-147011380D01*
X256542354Y-146987160D01*
X256411832Y-146934558D01*
X256411829Y-146934557D01*
X256406263Y-146932314D01*
X256198663Y-146891772D01*
X256193101Y-146891500D01*
X256037154Y-146891500D01*
X255879434Y-146906548D01*
X255676466Y-146966092D01*
X255671139Y-146968836D01*
X255671138Y-146968836D01*
X255493751Y-147060196D01*
X255493748Y-147060198D01*
X255488420Y-147062942D01*
X255322080Y-147193604D01*
X255318148Y-147198135D01*
X255318145Y-147198138D01*
X255249474Y-147277275D01*
X255183448Y-147353363D01*
X255180448Y-147358549D01*
X255180445Y-147358553D01*
X255133312Y-147440026D01*
X255077527Y-147536454D01*
X255008139Y-147736271D01*
X254977787Y-147945604D01*
X247197177Y-147945604D01*
X247192433Y-147843101D01*
X247142875Y-147637466D01*
X247099525Y-147542122D01*
X247057806Y-147450368D01*
X247055326Y-147444913D01*
X246932946Y-147272389D01*
X246780150Y-147126119D01*
X246602452Y-147011380D01*
X246542354Y-146987160D01*
X246411832Y-146934558D01*
X246411829Y-146934557D01*
X246406263Y-146932314D01*
X246198663Y-146891772D01*
X246193101Y-146891500D01*
X246037154Y-146891500D01*
X245879434Y-146906548D01*
X245676466Y-146966092D01*
X245671139Y-146968836D01*
X245671138Y-146968836D01*
X245493751Y-147060196D01*
X245493748Y-147060198D01*
X245488420Y-147062942D01*
X245322080Y-147193604D01*
X245318148Y-147198135D01*
X245318145Y-147198138D01*
X245249474Y-147277275D01*
X245183448Y-147353363D01*
X245180448Y-147358549D01*
X245180445Y-147358553D01*
X245133312Y-147440026D01*
X245077527Y-147536454D01*
X245008139Y-147736271D01*
X244977787Y-147945604D01*
X232550000Y-147945604D01*
X232550000Y-145445604D01*
X244977787Y-145445604D01*
X244987567Y-145656899D01*
X244988971Y-145662724D01*
X244988971Y-145662725D01*
X245035680Y-145856537D01*
X245037125Y-145862534D01*
X245039607Y-145867992D01*
X245039608Y-145867996D01*
X245083053Y-145963546D01*
X245124674Y-146055087D01*
X245247054Y-146227611D01*
X245399850Y-146373881D01*
X245577548Y-146488620D01*
X245583114Y-146490863D01*
X245768168Y-146565442D01*
X245768171Y-146565443D01*
X245773737Y-146567686D01*
X245981337Y-146608228D01*
X245986899Y-146608500D01*
X246142846Y-146608500D01*
X246300566Y-146593452D01*
X246503534Y-146533908D01*
X246587977Y-146490417D01*
X246686249Y-146439804D01*
X246686252Y-146439802D01*
X246691580Y-146437058D01*
X246857920Y-146306396D01*
X246861852Y-146301865D01*
X246861855Y-146301862D01*
X246992621Y-146151167D01*
X246996552Y-146146637D01*
X246999552Y-146141451D01*
X246999555Y-146141447D01*
X247099467Y-145968742D01*
X247102473Y-145963546D01*
X247170587Y-145767399D01*
X249514712Y-145767399D01*
X249536194Y-145856537D01*
X249540083Y-145867832D01*
X249622629Y-146049382D01*
X249628576Y-146059724D01*
X249743968Y-146222397D01*
X249751761Y-146231425D01*
X249895831Y-146369342D01*
X249905196Y-146376738D01*
X250072741Y-146484921D01*
X250083345Y-146490417D01*
X250268312Y-146564961D01*
X250279770Y-146568355D01*
X250476928Y-146606857D01*
X250485791Y-146607934D01*
X250488500Y-146608000D01*
X250817885Y-146608000D01*
X250833124Y-146603525D01*
X250834329Y-146602135D01*
X250836000Y-146594452D01*
X250836000Y-146589885D01*
X251344000Y-146589885D01*
X251348475Y-146605124D01*
X251349865Y-146606329D01*
X251357548Y-146608000D01*
X251639832Y-146608000D01*
X251645808Y-146607715D01*
X251794494Y-146593529D01*
X251806228Y-146591270D01*
X251997599Y-146535128D01*
X252008675Y-146530698D01*
X252185978Y-146439381D01*
X252196024Y-146432931D01*
X252352857Y-146309738D01*
X252361506Y-146301501D01*
X252492212Y-146150877D01*
X252499147Y-146141153D01*
X252599010Y-145968533D01*
X252603984Y-145957669D01*
X252669407Y-145769273D01*
X252669648Y-145768284D01*
X252668180Y-145757992D01*
X252654615Y-145754000D01*
X251362115Y-145754000D01*
X251346876Y-145758475D01*
X251345671Y-145759865D01*
X251344000Y-145767548D01*
X251344000Y-146589885D01*
X250836000Y-146589885D01*
X250836000Y-145772115D01*
X250831525Y-145756876D01*
X250830135Y-145755671D01*
X250822452Y-145754000D01*
X249529598Y-145754000D01*
X249516067Y-145757973D01*
X249514712Y-145767399D01*
X247170587Y-145767399D01*
X247171861Y-145763729D01*
X247172855Y-145756876D01*
X247201352Y-145560336D01*
X247201352Y-145560333D01*
X247202213Y-145554396D01*
X247197177Y-145445604D01*
X254977787Y-145445604D01*
X254987567Y-145656899D01*
X254988971Y-145662724D01*
X254988971Y-145662725D01*
X255035680Y-145856537D01*
X255037125Y-145862534D01*
X255039607Y-145867992D01*
X255039608Y-145867996D01*
X255083053Y-145963546D01*
X255124674Y-146055087D01*
X255247054Y-146227611D01*
X255399850Y-146373881D01*
X255577548Y-146488620D01*
X255583114Y-146490863D01*
X255768168Y-146565442D01*
X255768171Y-146565443D01*
X255773737Y-146567686D01*
X255981337Y-146608228D01*
X255986899Y-146608500D01*
X256142846Y-146608500D01*
X256300566Y-146593452D01*
X256503534Y-146533908D01*
X256587977Y-146490417D01*
X256686249Y-146439804D01*
X256686252Y-146439802D01*
X256691580Y-146437058D01*
X256857920Y-146306396D01*
X256861852Y-146301865D01*
X256861855Y-146301862D01*
X256992621Y-146151167D01*
X256996552Y-146146637D01*
X256999552Y-146141451D01*
X256999555Y-146141447D01*
X257099467Y-145968742D01*
X257102473Y-145963546D01*
X257171861Y-145763729D01*
X257172855Y-145756876D01*
X257201352Y-145560336D01*
X257201352Y-145560333D01*
X257202213Y-145554396D01*
X257192433Y-145343101D01*
X257160819Y-145211923D01*
X257144281Y-145143299D01*
X257144280Y-145143297D01*
X257142875Y-145137466D01*
X257099525Y-145042122D01*
X257057806Y-144950368D01*
X257055326Y-144944913D01*
X256932946Y-144772389D01*
X256780150Y-144626119D01*
X256602452Y-144511380D01*
X256498043Y-144469302D01*
X256411832Y-144434558D01*
X256411829Y-144434557D01*
X256406263Y-144432314D01*
X256198663Y-144391772D01*
X256193101Y-144391500D01*
X256037154Y-144391500D01*
X255879434Y-144406548D01*
X255676466Y-144466092D01*
X255671139Y-144468836D01*
X255671138Y-144468836D01*
X255493751Y-144560196D01*
X255493748Y-144560198D01*
X255488420Y-144562942D01*
X255322080Y-144693604D01*
X255318148Y-144698135D01*
X255318145Y-144698138D01*
X255249474Y-144777275D01*
X255183448Y-144853363D01*
X255180448Y-144858549D01*
X255180445Y-144858553D01*
X255180275Y-144858847D01*
X255077527Y-145036454D01*
X255008139Y-145236271D01*
X255007278Y-145242206D01*
X255007278Y-145242208D01*
X255006971Y-145244329D01*
X254977787Y-145445604D01*
X247197177Y-145445604D01*
X247192433Y-145343101D01*
X247165589Y-145231716D01*
X249510352Y-145231716D01*
X249511820Y-145242008D01*
X249525385Y-145246000D01*
X250817885Y-145246000D01*
X250833124Y-145241525D01*
X250834329Y-145240135D01*
X250836000Y-145232452D01*
X250836000Y-145227885D01*
X251344000Y-145227885D01*
X251348475Y-145243124D01*
X251349865Y-145244329D01*
X251357548Y-145246000D01*
X252650402Y-145246000D01*
X252663933Y-145242027D01*
X252665288Y-145232601D01*
X252643806Y-145143463D01*
X252639917Y-145132168D01*
X252557371Y-144950618D01*
X252551424Y-144940276D01*
X252436032Y-144777603D01*
X252428239Y-144768575D01*
X252284169Y-144630658D01*
X252274804Y-144623262D01*
X252107259Y-144515079D01*
X252096655Y-144509583D01*
X251911688Y-144435039D01*
X251900230Y-144431645D01*
X251703072Y-144393143D01*
X251694209Y-144392066D01*
X251691500Y-144392000D01*
X251362115Y-144392000D01*
X251346876Y-144396475D01*
X251345671Y-144397865D01*
X251344000Y-144405548D01*
X251344000Y-145227885D01*
X250836000Y-145227885D01*
X250836000Y-144410115D01*
X250831525Y-144394876D01*
X250830135Y-144393671D01*
X250822452Y-144392000D01*
X250540168Y-144392000D01*
X250534192Y-144392285D01*
X250385506Y-144406471D01*
X250373772Y-144408730D01*
X250182401Y-144464872D01*
X250171325Y-144469302D01*
X249994022Y-144560619D01*
X249983976Y-144567069D01*
X249827143Y-144690262D01*
X249818494Y-144698499D01*
X249687788Y-144849123D01*
X249680853Y-144858847D01*
X249580990Y-145031467D01*
X249576016Y-145042331D01*
X249510593Y-145230727D01*
X249510352Y-145231716D01*
X247165589Y-145231716D01*
X247160819Y-145211923D01*
X247144281Y-145143299D01*
X247144280Y-145143297D01*
X247142875Y-145137466D01*
X247099525Y-145042122D01*
X247057806Y-144950368D01*
X247055326Y-144944913D01*
X246932946Y-144772389D01*
X246780150Y-144626119D01*
X246602452Y-144511380D01*
X246498043Y-144469302D01*
X246411832Y-144434558D01*
X246411829Y-144434557D01*
X246406263Y-144432314D01*
X246198663Y-144391772D01*
X246193101Y-144391500D01*
X246037154Y-144391500D01*
X245879434Y-144406548D01*
X245676466Y-144466092D01*
X245671139Y-144468836D01*
X245671138Y-144468836D01*
X245493751Y-144560196D01*
X245493748Y-144560198D01*
X245488420Y-144562942D01*
X245322080Y-144693604D01*
X245318148Y-144698135D01*
X245318145Y-144698138D01*
X245249474Y-144777275D01*
X245183448Y-144853363D01*
X245180448Y-144858549D01*
X245180445Y-144858553D01*
X245180275Y-144858847D01*
X245077527Y-145036454D01*
X245008139Y-145236271D01*
X245007278Y-145242206D01*
X245007278Y-145242208D01*
X245006971Y-145244329D01*
X244977787Y-145445604D01*
X232550000Y-145445604D01*
X232550000Y-141052846D01*
X244981500Y-141052846D01*
X244996548Y-141210566D01*
X245056092Y-141413534D01*
X245058836Y-141418861D01*
X245058836Y-141418862D01*
X245148756Y-141593452D01*
X245152942Y-141601580D01*
X245283604Y-141767920D01*
X245288135Y-141771852D01*
X245288138Y-141771855D01*
X245374058Y-141846412D01*
X245443363Y-141906552D01*
X245448549Y-141909552D01*
X245448553Y-141909555D01*
X245544957Y-141965326D01*
X245626454Y-142012473D01*
X245826271Y-142081861D01*
X245832206Y-142082722D01*
X245832208Y-142082722D01*
X246029664Y-142111352D01*
X246029667Y-142111352D01*
X246035604Y-142112213D01*
X246246899Y-142102433D01*
X246378077Y-142070819D01*
X246446701Y-142054281D01*
X246446703Y-142054280D01*
X246452534Y-142052875D01*
X246457992Y-142050393D01*
X246457996Y-142050392D01*
X246573041Y-141998084D01*
X246645087Y-141965326D01*
X246817611Y-141842946D01*
X246963881Y-141690150D01*
X247078620Y-141512452D01*
X247107898Y-141439804D01*
X247155442Y-141321832D01*
X247155443Y-141321829D01*
X247157686Y-141316263D01*
X247198228Y-141108663D01*
X247198500Y-141103101D01*
X247198500Y-141052846D01*
X247481500Y-141052846D01*
X247496548Y-141210566D01*
X247556092Y-141413534D01*
X247558836Y-141418861D01*
X247558836Y-141418862D01*
X247648756Y-141593452D01*
X247652942Y-141601580D01*
X247783604Y-141767920D01*
X247788135Y-141771852D01*
X247788138Y-141771855D01*
X247874058Y-141846412D01*
X247943363Y-141906552D01*
X247948549Y-141909552D01*
X247948553Y-141909555D01*
X248044957Y-141965326D01*
X248126454Y-142012473D01*
X248326271Y-142081861D01*
X248332206Y-142082722D01*
X248332208Y-142082722D01*
X248529664Y-142111352D01*
X248529667Y-142111352D01*
X248535604Y-142112213D01*
X248746899Y-142102433D01*
X248878077Y-142070819D01*
X248946701Y-142054281D01*
X248946703Y-142054280D01*
X248952534Y-142052875D01*
X248957992Y-142050393D01*
X248957996Y-142050392D01*
X249073041Y-141998084D01*
X249145087Y-141965326D01*
X249317611Y-141842946D01*
X249463881Y-141690150D01*
X249578620Y-141512452D01*
X249607898Y-141439804D01*
X249655442Y-141321832D01*
X249655443Y-141321829D01*
X249657686Y-141316263D01*
X249698228Y-141108663D01*
X249698500Y-141103101D01*
X249698500Y-140445604D01*
X249977787Y-140445604D01*
X249987567Y-140656899D01*
X250037125Y-140862534D01*
X250039607Y-140867992D01*
X250039608Y-140867996D01*
X250083053Y-140963546D01*
X250124674Y-141055087D01*
X250247054Y-141227611D01*
X250399850Y-141373881D01*
X250577548Y-141488620D01*
X250583114Y-141490863D01*
X250768168Y-141565442D01*
X250768171Y-141565443D01*
X250773737Y-141567686D01*
X250981337Y-141608228D01*
X250986899Y-141608500D01*
X251142846Y-141608500D01*
X251300566Y-141593452D01*
X251503534Y-141533908D01*
X251508862Y-141531164D01*
X251686249Y-141439804D01*
X251686252Y-141439802D01*
X251691580Y-141437058D01*
X251857920Y-141306396D01*
X251861852Y-141301865D01*
X251861855Y-141301862D01*
X251992621Y-141151167D01*
X251996552Y-141146637D01*
X251999552Y-141141451D01*
X251999555Y-141141447D01*
X252050812Y-141052846D01*
X252481500Y-141052846D01*
X252496548Y-141210566D01*
X252556092Y-141413534D01*
X252558836Y-141418861D01*
X252558836Y-141418862D01*
X252648756Y-141593452D01*
X252652942Y-141601580D01*
X252783604Y-141767920D01*
X252788135Y-141771852D01*
X252788138Y-141771855D01*
X252874058Y-141846412D01*
X252943363Y-141906552D01*
X252948549Y-141909552D01*
X252948553Y-141909555D01*
X253044957Y-141965326D01*
X253126454Y-142012473D01*
X253326271Y-142081861D01*
X253332206Y-142082722D01*
X253332208Y-142082722D01*
X253529664Y-142111352D01*
X253529667Y-142111352D01*
X253535604Y-142112213D01*
X253746899Y-142102433D01*
X253878077Y-142070819D01*
X253946701Y-142054281D01*
X253946703Y-142054280D01*
X253952534Y-142052875D01*
X253957992Y-142050393D01*
X253957996Y-142050392D01*
X254073041Y-141998084D01*
X254145087Y-141965326D01*
X254317611Y-141842946D01*
X254463881Y-141690150D01*
X254578620Y-141512452D01*
X254607898Y-141439804D01*
X254655442Y-141321832D01*
X254655443Y-141321829D01*
X254657686Y-141316263D01*
X254698228Y-141108663D01*
X254698500Y-141103101D01*
X254698500Y-139947154D01*
X254683452Y-139789434D01*
X254623908Y-139586466D01*
X254563325Y-139468836D01*
X254529804Y-139403751D01*
X254529802Y-139403748D01*
X254527058Y-139398420D01*
X254396396Y-139232080D01*
X254391865Y-139228148D01*
X254391862Y-139228145D01*
X254241167Y-139097379D01*
X254236637Y-139093448D01*
X254231451Y-139090448D01*
X254231447Y-139090445D01*
X254058742Y-138990533D01*
X254053546Y-138987527D01*
X253853729Y-138918139D01*
X253847794Y-138917278D01*
X253847792Y-138917278D01*
X253650336Y-138888648D01*
X253650333Y-138888648D01*
X253644396Y-138887787D01*
X253433101Y-138897567D01*
X253301923Y-138929181D01*
X253233299Y-138945719D01*
X253233297Y-138945720D01*
X253227466Y-138947125D01*
X253222008Y-138949607D01*
X253222004Y-138949608D01*
X253117592Y-138997082D01*
X253034913Y-139034674D01*
X252862389Y-139157054D01*
X252716119Y-139309850D01*
X252601380Y-139487548D01*
X252577160Y-139547646D01*
X252545535Y-139626119D01*
X252522314Y-139683737D01*
X252481772Y-139891337D01*
X252481500Y-139896899D01*
X252481500Y-141052846D01*
X252050812Y-141052846D01*
X252099467Y-140968742D01*
X252102473Y-140963546D01*
X252171861Y-140763729D01*
X252202213Y-140554396D01*
X252192433Y-140343101D01*
X252142875Y-140137466D01*
X252099525Y-140042122D01*
X252057806Y-139950368D01*
X252055326Y-139944913D01*
X251932946Y-139772389D01*
X251780150Y-139626119D01*
X251602452Y-139511380D01*
X251542354Y-139487160D01*
X251411832Y-139434558D01*
X251411829Y-139434557D01*
X251406263Y-139432314D01*
X251198663Y-139391772D01*
X251193101Y-139391500D01*
X251037154Y-139391500D01*
X250879434Y-139406548D01*
X250676466Y-139466092D01*
X250671139Y-139468836D01*
X250671138Y-139468836D01*
X250493751Y-139560196D01*
X250493748Y-139560198D01*
X250488420Y-139562942D01*
X250322080Y-139693604D01*
X250318148Y-139698135D01*
X250318145Y-139698138D01*
X250238923Y-139789434D01*
X250183448Y-139853363D01*
X250180448Y-139858549D01*
X250180445Y-139858553D01*
X250130485Y-139944913D01*
X250077527Y-140036454D01*
X250008139Y-140236271D01*
X249977787Y-140445604D01*
X249698500Y-140445604D01*
X249698500Y-139947154D01*
X249683452Y-139789434D01*
X249623908Y-139586466D01*
X249563325Y-139468836D01*
X249529804Y-139403751D01*
X249529802Y-139403748D01*
X249527058Y-139398420D01*
X249396396Y-139232080D01*
X249391865Y-139228148D01*
X249391862Y-139228145D01*
X249241167Y-139097379D01*
X249236637Y-139093448D01*
X249231451Y-139090448D01*
X249231447Y-139090445D01*
X249058742Y-138990533D01*
X249053546Y-138987527D01*
X248853729Y-138918139D01*
X248847794Y-138917278D01*
X248847792Y-138917278D01*
X248650336Y-138888648D01*
X248650333Y-138888648D01*
X248644396Y-138887787D01*
X248433101Y-138897567D01*
X248301923Y-138929181D01*
X248233299Y-138945719D01*
X248233297Y-138945720D01*
X248227466Y-138947125D01*
X248222008Y-138949607D01*
X248222004Y-138949608D01*
X248117592Y-138997082D01*
X248034913Y-139034674D01*
X247862389Y-139157054D01*
X247716119Y-139309850D01*
X247601380Y-139487548D01*
X247577160Y-139547646D01*
X247545535Y-139626119D01*
X247522314Y-139683737D01*
X247481772Y-139891337D01*
X247481500Y-139896899D01*
X247481500Y-141052846D01*
X247198500Y-141052846D01*
X247198500Y-139947154D01*
X247183452Y-139789434D01*
X247123908Y-139586466D01*
X247063325Y-139468836D01*
X247029804Y-139403751D01*
X247029802Y-139403748D01*
X247027058Y-139398420D01*
X246896396Y-139232080D01*
X246891865Y-139228148D01*
X246891862Y-139228145D01*
X246741167Y-139097379D01*
X246736637Y-139093448D01*
X246731451Y-139090448D01*
X246731447Y-139090445D01*
X246558742Y-138990533D01*
X246553546Y-138987527D01*
X246353729Y-138918139D01*
X246347794Y-138917278D01*
X246347792Y-138917278D01*
X246150336Y-138888648D01*
X246150333Y-138888648D01*
X246144396Y-138887787D01*
X245933101Y-138897567D01*
X245801923Y-138929181D01*
X245733299Y-138945719D01*
X245733297Y-138945720D01*
X245727466Y-138947125D01*
X245722008Y-138949607D01*
X245722004Y-138949608D01*
X245617592Y-138997082D01*
X245534913Y-139034674D01*
X245362389Y-139157054D01*
X245216119Y-139309850D01*
X245101380Y-139487548D01*
X245077160Y-139547646D01*
X245045535Y-139626119D01*
X245022314Y-139683737D01*
X244981772Y-139891337D01*
X244981500Y-139896899D01*
X244981500Y-141052846D01*
X232550000Y-141052846D01*
X232550000Y-135752042D01*
X232570002Y-135683921D01*
X232623658Y-135637428D01*
X232693932Y-135627324D01*
X232739570Y-135643254D01*
X232821756Y-135691279D01*
X232831042Y-135695729D01*
X233030001Y-135771703D01*
X233039899Y-135774579D01*
X233248595Y-135817038D01*
X233258823Y-135818257D01*
X233471650Y-135826062D01*
X233481936Y-135825595D01*
X233693185Y-135798534D01*
X233703262Y-135796392D01*
X233907255Y-135735191D01*
X233916842Y-135731433D01*
X234108098Y-135637738D01*
X234116944Y-135632465D01*
X234164247Y-135598723D01*
X234172648Y-135588023D01*
X234165660Y-135574870D01*
X233144885Y-134554095D01*
X233110859Y-134491783D01*
X233112694Y-134466132D01*
X233779408Y-134466132D01*
X233779539Y-134467965D01*
X233783790Y-134474580D01*
X234525474Y-135216264D01*
X234537484Y-135222823D01*
X234549223Y-135213855D01*
X234583022Y-135166819D01*
X234584277Y-135167721D01*
X234631391Y-135124355D01*
X234701330Y-135112148D01*
X234766767Y-135139691D01*
X234794580Y-135171513D01*
X234852287Y-135265683D01*
X234852291Y-135265688D01*
X234854987Y-135270088D01*
X235001250Y-135438938D01*
X235173126Y-135581632D01*
X235366000Y-135694338D01*
X235574692Y-135774030D01*
X235579760Y-135775061D01*
X235579763Y-135775062D01*
X235684604Y-135796392D01*
X235793597Y-135818567D01*
X235798772Y-135818757D01*
X235798774Y-135818757D01*
X236011673Y-135826564D01*
X236011677Y-135826564D01*
X236016837Y-135826753D01*
X236021957Y-135826097D01*
X236021959Y-135826097D01*
X236233288Y-135799025D01*
X236233289Y-135799025D01*
X236238416Y-135798368D01*
X236243366Y-135796883D01*
X236447429Y-135735661D01*
X236447434Y-135735659D01*
X236452384Y-135734174D01*
X236652994Y-135635896D01*
X236717544Y-135589853D01*
X237734977Y-135589853D01*
X237740258Y-135596907D01*
X237901756Y-135691279D01*
X237911042Y-135695729D01*
X238110001Y-135771703D01*
X238119899Y-135774579D01*
X238328595Y-135817038D01*
X238338823Y-135818257D01*
X238551650Y-135826062D01*
X238561936Y-135825595D01*
X238773185Y-135798534D01*
X238783262Y-135796392D01*
X238987255Y-135735191D01*
X238996842Y-135731433D01*
X239188098Y-135637738D01*
X239196944Y-135632465D01*
X239244247Y-135598723D01*
X239252648Y-135588023D01*
X239245660Y-135574870D01*
X238507812Y-134837022D01*
X238493868Y-134829408D01*
X238492035Y-134829539D01*
X238485420Y-134833790D01*
X237741737Y-135577473D01*
X237734977Y-135589853D01*
X236717544Y-135589853D01*
X236834860Y-135506173D01*
X236993096Y-135348489D01*
X237123453Y-135167077D01*
X237124640Y-135167930D01*
X237171960Y-135124362D01*
X237241897Y-135112145D01*
X237307338Y-135139678D01*
X237335166Y-135171512D01*
X237361459Y-135214419D01*
X237371916Y-135223880D01*
X237380694Y-135220096D01*
X238122978Y-134477812D01*
X238130592Y-134463868D01*
X238130461Y-134462035D01*
X238126210Y-134455420D01*
X237384849Y-133714059D01*
X237373313Y-133707759D01*
X237361031Y-133717382D01*
X237328499Y-133765072D01*
X237273587Y-133810075D01*
X237203063Y-133818246D01*
X237139316Y-133786992D01*
X237118618Y-133762508D01*
X237037822Y-133637617D01*
X237037820Y-133637614D01*
X237035014Y-133633277D01*
X236884670Y-133468051D01*
X236880619Y-133464852D01*
X236880615Y-133464848D01*
X236713414Y-133332800D01*
X236713410Y-133332798D01*
X236709359Y-133329598D01*
X236513789Y-133221638D01*
X236508920Y-133219914D01*
X236508916Y-133219912D01*
X236308087Y-133148795D01*
X236308083Y-133148794D01*
X236303212Y-133147069D01*
X236298119Y-133146162D01*
X236298116Y-133146161D01*
X236088373Y-133108800D01*
X236088367Y-133108799D01*
X236083284Y-133107894D01*
X236009452Y-133106992D01*
X235865081Y-133105228D01*
X235865079Y-133105228D01*
X235859911Y-133105165D01*
X235639091Y-133138955D01*
X235426756Y-133208357D01*
X235228607Y-133311507D01*
X235224474Y-133314610D01*
X235224471Y-133314612D01*
X235054100Y-133442530D01*
X235049965Y-133445635D01*
X234895629Y-133607138D01*
X234822693Y-133714059D01*
X234787898Y-133765066D01*
X234732987Y-133810069D01*
X234662462Y-133818240D01*
X234598715Y-133786986D01*
X234578017Y-133762501D01*
X234548062Y-133716197D01*
X234537377Y-133706995D01*
X234527812Y-133711398D01*
X233787022Y-134452188D01*
X233779408Y-134466132D01*
X233112694Y-134466132D01*
X233115924Y-134420968D01*
X233144885Y-134375905D01*
X234168389Y-133352401D01*
X234175410Y-133339544D01*
X234168611Y-133330213D01*
X234164554Y-133327518D01*
X233978117Y-133224599D01*
X233968705Y-133220369D01*
X233767959Y-133149280D01*
X233757989Y-133146646D01*
X233548327Y-133109301D01*
X233538073Y-133108331D01*
X233325116Y-133105728D01*
X233314832Y-133106448D01*
X233104321Y-133138661D01*
X233094293Y-133141050D01*
X232891868Y-133207212D01*
X232882358Y-133211209D01*
X232734180Y-133288346D01*
X232664521Y-133302059D01*
X232598505Y-133275934D01*
X232557094Y-133218266D01*
X232550000Y-133176583D01*
X232550000Y-124966695D01*
X235637251Y-124966695D01*
X235637548Y-124971848D01*
X235637548Y-124971851D01*
X235643011Y-125066590D01*
X235650110Y-125189715D01*
X235651247Y-125194761D01*
X235651248Y-125194767D01*
X235658358Y-125226315D01*
X235699222Y-125407639D01*
X235783266Y-125614616D01*
X235899987Y-125805088D01*
X236046250Y-125973938D01*
X236050230Y-125977242D01*
X236054981Y-125981187D01*
X236094616Y-126040090D01*
X236096113Y-126111071D01*
X236058997Y-126171593D01*
X236018724Y-126196112D01*
X235903295Y-126239385D01*
X235786739Y-126326739D01*
X235699385Y-126443295D01*
X235648255Y-126579684D01*
X235641500Y-126641866D01*
X235641500Y-128438134D01*
X235648255Y-128500316D01*
X235699385Y-128636705D01*
X235786739Y-128753261D01*
X235903295Y-128840615D01*
X236039684Y-128891745D01*
X236066914Y-128894703D01*
X236079108Y-128896028D01*
X236144670Y-128923270D01*
X236185096Y-128981634D01*
X236191500Y-129021291D01*
X236191500Y-130420786D01*
X236191493Y-130422106D01*
X236190549Y-130512221D01*
X236199711Y-130554597D01*
X236201769Y-130567163D01*
X236206603Y-130610255D01*
X236208919Y-130616906D01*
X236208920Y-130616910D01*
X236217633Y-130641930D01*
X236221796Y-130656742D01*
X236228881Y-130689510D01*
X236247208Y-130728813D01*
X236251990Y-130740589D01*
X236266255Y-130781552D01*
X236269989Y-130787527D01*
X236269990Y-130787530D01*
X236284027Y-130809995D01*
X236291366Y-130823512D01*
X236302559Y-130847514D01*
X236305538Y-130853902D01*
X236309855Y-130859467D01*
X236309856Y-130859469D01*
X236332106Y-130888153D01*
X236339402Y-130898612D01*
X236362374Y-130935376D01*
X236367334Y-130940371D01*
X236367335Y-130940372D01*
X236390976Y-130964179D01*
X236391561Y-130964804D01*
X236392078Y-130965470D01*
X236418067Y-130991459D01*
X236490185Y-131064082D01*
X236491222Y-131064740D01*
X236492451Y-131065843D01*
X238338715Y-132912107D01*
X238372741Y-132974419D01*
X238367676Y-133045234D01*
X238325129Y-133102070D01*
X238268679Y-133125752D01*
X238184321Y-133138661D01*
X238174293Y-133141050D01*
X237971868Y-133207212D01*
X237962359Y-133211209D01*
X237773466Y-133309540D01*
X237764734Y-133315039D01*
X237744677Y-133330099D01*
X237736223Y-133341427D01*
X237742968Y-133353758D01*
X239605474Y-135216264D01*
X239617484Y-135222823D01*
X239629223Y-135213855D01*
X239663022Y-135166819D01*
X239664277Y-135167721D01*
X239711391Y-135124355D01*
X239781330Y-135112148D01*
X239846767Y-135139691D01*
X239874580Y-135171513D01*
X239932287Y-135265683D01*
X239932291Y-135265688D01*
X239934987Y-135270088D01*
X240081250Y-135438938D01*
X240253126Y-135581632D01*
X240446000Y-135694338D01*
X240654692Y-135774030D01*
X240659760Y-135775061D01*
X240659763Y-135775062D01*
X240764604Y-135796392D01*
X240873597Y-135818567D01*
X240878772Y-135818757D01*
X240878774Y-135818757D01*
X241091673Y-135826564D01*
X241091677Y-135826564D01*
X241096837Y-135826753D01*
X241101957Y-135826097D01*
X241101959Y-135826097D01*
X241313288Y-135799025D01*
X241313289Y-135799025D01*
X241318416Y-135798368D01*
X241323366Y-135796883D01*
X241527429Y-135735661D01*
X241527434Y-135735659D01*
X241532384Y-135734174D01*
X241732994Y-135635896D01*
X241914860Y-135506173D01*
X242073096Y-135348489D01*
X242203453Y-135167077D01*
X242216995Y-135139678D01*
X242300136Y-134971453D01*
X242300137Y-134971451D01*
X242302430Y-134966811D01*
X242367370Y-134753069D01*
X242396529Y-134531590D01*
X242398156Y-134465000D01*
X242379852Y-134242361D01*
X242325431Y-134025702D01*
X242236354Y-133820840D01*
X242115014Y-133633277D01*
X241964670Y-133468051D01*
X241960619Y-133464852D01*
X241960615Y-133464848D01*
X241793414Y-133332800D01*
X241793410Y-133332798D01*
X241789359Y-133329598D01*
X241593789Y-133221638D01*
X241588920Y-133219914D01*
X241588916Y-133219912D01*
X241388087Y-133148795D01*
X241388083Y-133148794D01*
X241383212Y-133147069D01*
X241378119Y-133146162D01*
X241378116Y-133146161D01*
X241168373Y-133108800D01*
X241168367Y-133108799D01*
X241163284Y-133107894D01*
X241092770Y-133107033D01*
X240945082Y-133105228D01*
X240945080Y-133105228D01*
X240939911Y-133105165D01*
X240922488Y-133107831D01*
X240897712Y-133111622D01*
X240827349Y-133102154D01*
X240789559Y-133076167D01*
X237845405Y-130132013D01*
X237811379Y-130069701D01*
X237808500Y-130042918D01*
X237808500Y-129021291D01*
X237828502Y-128953170D01*
X237882158Y-128906677D01*
X237920892Y-128896028D01*
X237933086Y-128894703D01*
X237960316Y-128891745D01*
X238096705Y-128840615D01*
X238213261Y-128753261D01*
X238300615Y-128636705D01*
X238351745Y-128500316D01*
X238358500Y-128438134D01*
X238358500Y-127856082D01*
X238378502Y-127787961D01*
X238432158Y-127741468D01*
X238502432Y-127731364D01*
X238567012Y-127760858D01*
X238573595Y-127766987D01*
X243989595Y-133182987D01*
X244023621Y-133245299D01*
X244026500Y-133272082D01*
X244026500Y-135765786D01*
X244026493Y-135767106D01*
X244025549Y-135857221D01*
X244034711Y-135899597D01*
X244036769Y-135912163D01*
X244041603Y-135955255D01*
X244043919Y-135961906D01*
X244043920Y-135961910D01*
X244052633Y-135986930D01*
X244056796Y-136001742D01*
X244063881Y-136034510D01*
X244082208Y-136073813D01*
X244086990Y-136085589D01*
X244101255Y-136126552D01*
X244104989Y-136132527D01*
X244104990Y-136132530D01*
X244119027Y-136154995D01*
X244126366Y-136168512D01*
X244137559Y-136192514D01*
X244140538Y-136198902D01*
X244144855Y-136204467D01*
X244144856Y-136204469D01*
X244167106Y-136233153D01*
X244174402Y-136243612D01*
X244197374Y-136280376D01*
X244202334Y-136285371D01*
X244202335Y-136285372D01*
X244225976Y-136309179D01*
X244226561Y-136309804D01*
X244227078Y-136310470D01*
X244253066Y-136336458D01*
X244325185Y-136409082D01*
X244326222Y-136409740D01*
X244327451Y-136410843D01*
X246141672Y-138225063D01*
X246142601Y-138226000D01*
X246180887Y-138265096D01*
X246205771Y-138290507D01*
X246211690Y-138294322D01*
X246211698Y-138294328D01*
X246242214Y-138313994D01*
X246252559Y-138321427D01*
X246286443Y-138348476D01*
X246292782Y-138351540D01*
X246292783Y-138351541D01*
X246316637Y-138363072D01*
X246330054Y-138370601D01*
X246358238Y-138388765D01*
X246364855Y-138391173D01*
X246364860Y-138391176D01*
X246398973Y-138403592D01*
X246410716Y-138408553D01*
X246443400Y-138424353D01*
X246443409Y-138424356D01*
X246449749Y-138427421D01*
X246456614Y-138429006D01*
X246482428Y-138434966D01*
X246497168Y-138439332D01*
X246528685Y-138450803D01*
X246535670Y-138451685D01*
X246535677Y-138451687D01*
X246571692Y-138456237D01*
X246584243Y-138458472D01*
X246626485Y-138468225D01*
X246633529Y-138468250D01*
X246633533Y-138468250D01*
X246667074Y-138468367D01*
X246667943Y-138468396D01*
X246668769Y-138468500D01*
X246705133Y-138468500D01*
X246705573Y-138468501D01*
X246804336Y-138468846D01*
X246804342Y-138468846D01*
X246807870Y-138468858D01*
X246809073Y-138468589D01*
X246810717Y-138468500D01*
X254752918Y-138468500D01*
X254821039Y-138488502D01*
X254842013Y-138505405D01*
X255244595Y-138907987D01*
X255278621Y-138970299D01*
X255281500Y-138997082D01*
X255281500Y-139190964D01*
X255261498Y-139259085D01*
X255246519Y-139278094D01*
X255216119Y-139309850D01*
X255101380Y-139487548D01*
X255077160Y-139547646D01*
X255045535Y-139626119D01*
X255022314Y-139683737D01*
X254981772Y-139891337D01*
X254981500Y-139896899D01*
X254981500Y-141052846D01*
X254996548Y-141210566D01*
X255056092Y-141413534D01*
X255058836Y-141418861D01*
X255058836Y-141418862D01*
X255148756Y-141593452D01*
X255152942Y-141601580D01*
X255283604Y-141767920D01*
X255288135Y-141771852D01*
X255288138Y-141771855D01*
X255374058Y-141846412D01*
X255443363Y-141906552D01*
X255448549Y-141909552D01*
X255448553Y-141909555D01*
X255544957Y-141965326D01*
X255626454Y-142012473D01*
X255826271Y-142081861D01*
X255832206Y-142082722D01*
X255832208Y-142082722D01*
X256029664Y-142111352D01*
X256029667Y-142111352D01*
X256035604Y-142112213D01*
X256246899Y-142102433D01*
X256378077Y-142070819D01*
X256446701Y-142054281D01*
X256446703Y-142054280D01*
X256452534Y-142052875D01*
X256457992Y-142050393D01*
X256457996Y-142050392D01*
X256573041Y-141998084D01*
X256645087Y-141965326D01*
X256817611Y-141842946D01*
X256963881Y-141690150D01*
X257078620Y-141512452D01*
X257107898Y-141439804D01*
X257155442Y-141321832D01*
X257155443Y-141321829D01*
X257157686Y-141316263D01*
X257198228Y-141108663D01*
X257198500Y-141103101D01*
X257198500Y-139947154D01*
X257183452Y-139789434D01*
X257123908Y-139586466D01*
X257063325Y-139468836D01*
X257029804Y-139403751D01*
X257029802Y-139403748D01*
X257027058Y-139398420D01*
X256925414Y-139269022D01*
X256899064Y-139203097D01*
X256898500Y-139191189D01*
X256898500Y-138619214D01*
X256898507Y-138617894D01*
X256899377Y-138534826D01*
X256899451Y-138527779D01*
X256890289Y-138485403D01*
X256888230Y-138472832D01*
X256887730Y-138468369D01*
X256883397Y-138429745D01*
X256876018Y-138408553D01*
X256872367Y-138398070D01*
X256868204Y-138383258D01*
X256862609Y-138357381D01*
X256861119Y-138350490D01*
X256842792Y-138311187D01*
X256838010Y-138299411D01*
X256823745Y-138258448D01*
X256820010Y-138252470D01*
X256805973Y-138230005D01*
X256798634Y-138216488D01*
X256787441Y-138192486D01*
X256787440Y-138192485D01*
X256784462Y-138186098D01*
X256757894Y-138151847D01*
X256750598Y-138141388D01*
X256731358Y-138110596D01*
X256731356Y-138110593D01*
X256727626Y-138104624D01*
X256699024Y-138075821D01*
X256698439Y-138075196D01*
X256697922Y-138074530D01*
X256671932Y-138048540D01*
X256599815Y-137975918D01*
X256598778Y-137975260D01*
X256597549Y-137974157D01*
X255718234Y-137094842D01*
X255717306Y-137093905D01*
X255659157Y-137034525D01*
X255659156Y-137034524D01*
X255654229Y-137029493D01*
X255617779Y-137006002D01*
X255607454Y-136998583D01*
X255573557Y-136971524D01*
X255543362Y-136956927D01*
X255529945Y-136949398D01*
X255501762Y-136931235D01*
X255495145Y-136928827D01*
X255495140Y-136928824D01*
X255461027Y-136916408D01*
X255449284Y-136911447D01*
X255416597Y-136895646D01*
X255416592Y-136895644D01*
X255410251Y-136892579D01*
X255403393Y-136890996D01*
X255403391Y-136890995D01*
X255377574Y-136885035D01*
X255362831Y-136880668D01*
X255331315Y-136869197D01*
X255324325Y-136868314D01*
X255324317Y-136868312D01*
X255288299Y-136863762D01*
X255275747Y-136861526D01*
X255240386Y-136853362D01*
X255240383Y-136853362D01*
X255233515Y-136851776D01*
X255226469Y-136851751D01*
X255226466Y-136851751D01*
X255192944Y-136851634D01*
X255192062Y-136851605D01*
X255191231Y-136851500D01*
X255154581Y-136851500D01*
X255154141Y-136851499D01*
X255055657Y-136851155D01*
X255055652Y-136851155D01*
X255052130Y-136851143D01*
X255050930Y-136851411D01*
X255049293Y-136851500D01*
X247107082Y-136851500D01*
X247038961Y-136831498D01*
X247017987Y-136814595D01*
X245680405Y-135477013D01*
X245646379Y-135414701D01*
X245643500Y-135387918D01*
X245643500Y-132894165D01*
X245643507Y-132892846D01*
X245644376Y-132809821D01*
X245644450Y-132802779D01*
X245642963Y-132795901D01*
X245642962Y-132795891D01*
X245635291Y-132760413D01*
X245633230Y-132747831D01*
X245629182Y-132711743D01*
X245628397Y-132704745D01*
X245617368Y-132673074D01*
X245613205Y-132658265D01*
X245607607Y-132632371D01*
X245607606Y-132632368D01*
X245606119Y-132625490D01*
X245587792Y-132586187D01*
X245583010Y-132574411D01*
X245568745Y-132533448D01*
X245565010Y-132527470D01*
X245550973Y-132505005D01*
X245543634Y-132491488D01*
X245532439Y-132467481D01*
X245532437Y-132467477D01*
X245529462Y-132461098D01*
X245502892Y-132426844D01*
X245495598Y-132416388D01*
X245489042Y-132405896D01*
X245472626Y-132379624D01*
X245444017Y-132350815D01*
X245443434Y-132350192D01*
X245442921Y-132349530D01*
X245417074Y-132323683D01*
X245347304Y-132253424D01*
X245347300Y-132253420D01*
X245344815Y-132250918D01*
X245343777Y-132250259D01*
X245342544Y-132249153D01*
X242206986Y-129113595D01*
X242172960Y-129051283D01*
X242178025Y-128980468D01*
X242220572Y-128923632D01*
X242287092Y-128898821D01*
X242296081Y-128898500D01*
X243898134Y-128898500D01*
X243960316Y-128891745D01*
X244096705Y-128840615D01*
X244213261Y-128753261D01*
X244300615Y-128636705D01*
X244351745Y-128500316D01*
X244358500Y-128438134D01*
X244358500Y-126641866D01*
X244351745Y-126579684D01*
X244300615Y-126443295D01*
X244213261Y-126326739D01*
X244096705Y-126239385D01*
X244084132Y-126234672D01*
X243978203Y-126194960D01*
X243921439Y-126152318D01*
X243896739Y-126085756D01*
X243911947Y-126016408D01*
X243933493Y-125987727D01*
X243951251Y-125970031D01*
X244038096Y-125883489D01*
X244097594Y-125800689D01*
X244165435Y-125706277D01*
X244168453Y-125702077D01*
X244174379Y-125690088D01*
X244265136Y-125506453D01*
X244265137Y-125506451D01*
X244267430Y-125501811D01*
X244332370Y-125288069D01*
X244361529Y-125066590D01*
X244363156Y-125000000D01*
X244344852Y-124777361D01*
X244290431Y-124560702D01*
X244201354Y-124355840D01*
X244080014Y-124168277D01*
X243929670Y-124003051D01*
X243925625Y-123999857D01*
X243925616Y-123999848D01*
X243856408Y-123945191D01*
X243815345Y-123887274D01*
X243808500Y-123846309D01*
X243808500Y-113627082D01*
X243828502Y-113558961D01*
X243845405Y-113537987D01*
X245226529Y-112156863D01*
X248073050Y-112156863D01*
X248085309Y-112369477D01*
X248086745Y-112379697D01*
X248133565Y-112587446D01*
X248136645Y-112597275D01*
X248216770Y-112794603D01*
X248221413Y-112803794D01*
X248301460Y-112934420D01*
X248311916Y-112943880D01*
X248320694Y-112940096D01*
X249062978Y-112197812D01*
X249069356Y-112186132D01*
X249799408Y-112186132D01*
X249799539Y-112187965D01*
X249803790Y-112194580D01*
X250545474Y-112936264D01*
X250557484Y-112942823D01*
X250569223Y-112933855D01*
X250600004Y-112891019D01*
X250605315Y-112882180D01*
X250699670Y-112691267D01*
X250703469Y-112681672D01*
X250765376Y-112477915D01*
X250767555Y-112467834D01*
X250795590Y-112254887D01*
X250796109Y-112248212D01*
X250797572Y-112188364D01*
X250797378Y-112181646D01*
X250779781Y-111967604D01*
X250778096Y-111957424D01*
X250726214Y-111750875D01*
X250722894Y-111741124D01*
X250637972Y-111545814D01*
X250633105Y-111536739D01*
X250568063Y-111436197D01*
X250557377Y-111426995D01*
X250547812Y-111431398D01*
X249807022Y-112172188D01*
X249799408Y-112186132D01*
X249069356Y-112186132D01*
X249070592Y-112183868D01*
X249070461Y-112182035D01*
X249066210Y-112175420D01*
X248324849Y-111434059D01*
X248313313Y-111427759D01*
X248301031Y-111437382D01*
X248253089Y-111507662D01*
X248248004Y-111516613D01*
X248158338Y-111709783D01*
X248154775Y-111719470D01*
X248097864Y-111924681D01*
X248095933Y-111934800D01*
X248073302Y-112146574D01*
X248073050Y-112156863D01*
X245226529Y-112156863D01*
X246892987Y-110490405D01*
X246955299Y-110456379D01*
X246982082Y-110453500D01*
X248280389Y-110453500D01*
X248348510Y-110473502D01*
X248375625Y-110497001D01*
X248481250Y-110618938D01*
X248653126Y-110761632D01*
X248726955Y-110804774D01*
X248775679Y-110856412D01*
X248788750Y-110926195D01*
X248762019Y-110991967D01*
X248721562Y-111025327D01*
X248713460Y-111029544D01*
X248704734Y-111035039D01*
X248684677Y-111050099D01*
X248676223Y-111061427D01*
X248682968Y-111073758D01*
X249422188Y-111812978D01*
X249436132Y-111820592D01*
X249437965Y-111820461D01*
X249444580Y-111816210D01*
X250188389Y-111072401D01*
X250195410Y-111059544D01*
X250188611Y-111050213D01*
X250184559Y-111047521D01*
X250147602Y-111027120D01*
X250097631Y-110976687D01*
X250082859Y-110907245D01*
X250107975Y-110840839D01*
X250135327Y-110814232D01*
X250158797Y-110797491D01*
X250314860Y-110686173D01*
X250473096Y-110528489D01*
X250603453Y-110347077D01*
X250702430Y-110146811D01*
X250767370Y-109933069D01*
X250796529Y-109711590D01*
X250798156Y-109645000D01*
X250779852Y-109422361D01*
X250725431Y-109205702D01*
X250636354Y-109000840D01*
X250580815Y-108914990D01*
X250517822Y-108817617D01*
X250517820Y-108817614D01*
X250515014Y-108813277D01*
X250364670Y-108648051D01*
X250360619Y-108644852D01*
X250360615Y-108644848D01*
X250193414Y-108512800D01*
X250193410Y-108512798D01*
X250189359Y-108509598D01*
X250147569Y-108486529D01*
X250097598Y-108436097D01*
X250082826Y-108366654D01*
X250107942Y-108300248D01*
X250135293Y-108273642D01*
X250184247Y-108238723D01*
X250192648Y-108228023D01*
X250185660Y-108214870D01*
X249447812Y-107477022D01*
X249433868Y-107469408D01*
X249432035Y-107469539D01*
X249425420Y-107473790D01*
X248681737Y-108217473D01*
X248674977Y-108229853D01*
X248680258Y-108236907D01*
X248726969Y-108264203D01*
X248775693Y-108315841D01*
X248788764Y-108385624D01*
X248762033Y-108451396D01*
X248721584Y-108484752D01*
X248708607Y-108491507D01*
X248704474Y-108494610D01*
X248704471Y-108494612D01*
X248680247Y-108512800D01*
X248529965Y-108625635D01*
X248375629Y-108787138D01*
X248373632Y-108790065D01*
X248315603Y-108830148D01*
X248276102Y-108836500D01*
X246604214Y-108836500D01*
X246602894Y-108836493D01*
X246601819Y-108836482D01*
X246512779Y-108835549D01*
X246470403Y-108844711D01*
X246457837Y-108846769D01*
X246414745Y-108851603D01*
X246408094Y-108853919D01*
X246408090Y-108853920D01*
X246383070Y-108862633D01*
X246368257Y-108866796D01*
X246335490Y-108873881D01*
X246296187Y-108892208D01*
X246284411Y-108896990D01*
X246243448Y-108911255D01*
X246237473Y-108914989D01*
X246237470Y-108914990D01*
X246215005Y-108929027D01*
X246201488Y-108936366D01*
X246177917Y-108947358D01*
X246171098Y-108950538D01*
X246165533Y-108954855D01*
X246165531Y-108954856D01*
X246136847Y-108977106D01*
X246126388Y-108984402D01*
X246095596Y-109003642D01*
X246095593Y-109003644D01*
X246089624Y-109007374D01*
X246084629Y-109012334D01*
X246084628Y-109012335D01*
X246060821Y-109035976D01*
X246060196Y-109036561D01*
X246059530Y-109037078D01*
X246033540Y-109063068D01*
X245960918Y-109135185D01*
X245960260Y-109136222D01*
X245959157Y-109137451D01*
X242434842Y-112661766D01*
X242433905Y-112662694D01*
X242369493Y-112725771D01*
X242346002Y-112762221D01*
X242338583Y-112772546D01*
X242311524Y-112806443D01*
X242308459Y-112812784D01*
X242308458Y-112812785D01*
X242296928Y-112836637D01*
X242289399Y-112850054D01*
X242271235Y-112878238D01*
X242268827Y-112884855D01*
X242268824Y-112884860D01*
X242256408Y-112918973D01*
X242251447Y-112930716D01*
X242235646Y-112963403D01*
X242235644Y-112963408D01*
X242232579Y-112969749D01*
X242230996Y-112976607D01*
X242230995Y-112976609D01*
X242225035Y-113002426D01*
X242220668Y-113017169D01*
X242209197Y-113048685D01*
X242208314Y-113055675D01*
X242208312Y-113055683D01*
X242203762Y-113091701D01*
X242201526Y-113104253D01*
X242191776Y-113146485D01*
X242191751Y-113153531D01*
X242191751Y-113153534D01*
X242191634Y-113187056D01*
X242191605Y-113187938D01*
X242191500Y-113188769D01*
X242191500Y-113225572D01*
X242191143Y-113327870D01*
X242191411Y-113329070D01*
X242191500Y-113330707D01*
X242191500Y-123845195D01*
X242171498Y-123913316D01*
X242141153Y-123945955D01*
X242099106Y-123977525D01*
X242099100Y-123977531D01*
X242094965Y-123980635D01*
X241940629Y-124142138D01*
X241814743Y-124326680D01*
X241720688Y-124529305D01*
X241660989Y-124744570D01*
X241637251Y-124966695D01*
X241637548Y-124971848D01*
X241637548Y-124971851D01*
X241643011Y-125066590D01*
X241650110Y-125189715D01*
X241651247Y-125194761D01*
X241651248Y-125194767D01*
X241658358Y-125226315D01*
X241699222Y-125407639D01*
X241783266Y-125614616D01*
X241899987Y-125805088D01*
X242046250Y-125973938D01*
X242050230Y-125977242D01*
X242054981Y-125981187D01*
X242094616Y-126040090D01*
X242096113Y-126111071D01*
X242058997Y-126171593D01*
X242018724Y-126196112D01*
X241903295Y-126239385D01*
X241786739Y-126326739D01*
X241699385Y-126443295D01*
X241648255Y-126579684D01*
X241641500Y-126641866D01*
X241641500Y-128243919D01*
X241621498Y-128312040D01*
X241567842Y-128358533D01*
X241497568Y-128368637D01*
X241432988Y-128339143D01*
X241426405Y-128333014D01*
X238382019Y-125288627D01*
X238347993Y-125226315D01*
X238346192Y-125183086D01*
X238361092Y-125069911D01*
X238361092Y-125069907D01*
X238361529Y-125066590D01*
X238363156Y-125000000D01*
X238351242Y-124855087D01*
X238365595Y-124785558D01*
X238387723Y-124755669D01*
X241105158Y-122038234D01*
X241106095Y-122037306D01*
X241165475Y-121979157D01*
X241165476Y-121979156D01*
X241170507Y-121974229D01*
X241193998Y-121937779D01*
X241201417Y-121927454D01*
X241228476Y-121893557D01*
X241243073Y-121863362D01*
X241250602Y-121849945D01*
X241264948Y-121827684D01*
X241268765Y-121821762D01*
X241271173Y-121815145D01*
X241271176Y-121815140D01*
X241283592Y-121781027D01*
X241288553Y-121769284D01*
X241304354Y-121736597D01*
X241304356Y-121736592D01*
X241307421Y-121730251D01*
X241314965Y-121697572D01*
X241319332Y-121682831D01*
X241330803Y-121651315D01*
X241331686Y-121644325D01*
X241331688Y-121644317D01*
X241336238Y-121608299D01*
X241338474Y-121595747D01*
X241346638Y-121560386D01*
X241346638Y-121560383D01*
X241348224Y-121553515D01*
X241348366Y-121512944D01*
X241348395Y-121512062D01*
X241348500Y-121511231D01*
X241348500Y-121474428D01*
X241348857Y-121372130D01*
X241348589Y-121370930D01*
X241348500Y-121369293D01*
X241348500Y-109767082D01*
X241368502Y-109698961D01*
X241385405Y-109677987D01*
X243986529Y-107076863D01*
X248073050Y-107076863D01*
X248085309Y-107289477D01*
X248086745Y-107299697D01*
X248133565Y-107507446D01*
X248136645Y-107517275D01*
X248216770Y-107714603D01*
X248221413Y-107723794D01*
X248301460Y-107854420D01*
X248311916Y-107863880D01*
X248320694Y-107860096D01*
X249062978Y-107117812D01*
X249069356Y-107106132D01*
X249799408Y-107106132D01*
X249799539Y-107107965D01*
X249803790Y-107114580D01*
X250545474Y-107856264D01*
X250557484Y-107862823D01*
X250569223Y-107853855D01*
X250600004Y-107811019D01*
X250605315Y-107802180D01*
X250699670Y-107611267D01*
X250703469Y-107601672D01*
X250765376Y-107397915D01*
X250767555Y-107387834D01*
X250795590Y-107174887D01*
X250796109Y-107168212D01*
X250797572Y-107108364D01*
X250797378Y-107101646D01*
X250779781Y-106887604D01*
X250778096Y-106877424D01*
X250726214Y-106670875D01*
X250722894Y-106661124D01*
X250637972Y-106465814D01*
X250633105Y-106456739D01*
X250568063Y-106356197D01*
X250557377Y-106346995D01*
X250547812Y-106351398D01*
X249807022Y-107092188D01*
X249799408Y-107106132D01*
X249069356Y-107106132D01*
X249070592Y-107103868D01*
X249070461Y-107102035D01*
X249066210Y-107095420D01*
X248324849Y-106354059D01*
X248313313Y-106347759D01*
X248301031Y-106357382D01*
X248253089Y-106427662D01*
X248248004Y-106436613D01*
X248158338Y-106629783D01*
X248154775Y-106639470D01*
X248097864Y-106844681D01*
X248095933Y-106854800D01*
X248073302Y-107066574D01*
X248073050Y-107076863D01*
X243986529Y-107076863D01*
X245652987Y-105410405D01*
X245715299Y-105376379D01*
X245742082Y-105373500D01*
X248280389Y-105373500D01*
X248348510Y-105393502D01*
X248375625Y-105417001D01*
X248481250Y-105538938D01*
X248653126Y-105681632D01*
X248726955Y-105724774D01*
X248775679Y-105776412D01*
X248788750Y-105846195D01*
X248762019Y-105911967D01*
X248721562Y-105945327D01*
X248713460Y-105949544D01*
X248704734Y-105955039D01*
X248684677Y-105970099D01*
X248676223Y-105981427D01*
X248682968Y-105993758D01*
X249422188Y-106732978D01*
X249436132Y-106740592D01*
X249437965Y-106740461D01*
X249444580Y-106736210D01*
X250188389Y-105992401D01*
X250195410Y-105979544D01*
X250188611Y-105970213D01*
X250184559Y-105967521D01*
X250147602Y-105947120D01*
X250097631Y-105896687D01*
X250082859Y-105827245D01*
X250107975Y-105760839D01*
X250135327Y-105734232D01*
X250158797Y-105717491D01*
X250314860Y-105606173D01*
X250473096Y-105448489D01*
X250603453Y-105267077D01*
X250702430Y-105066811D01*
X250767370Y-104853069D01*
X250796529Y-104631590D01*
X250798156Y-104565000D01*
X250779852Y-104342361D01*
X250725431Y-104125702D01*
X250636354Y-103920840D01*
X250548583Y-103785166D01*
X250517822Y-103737617D01*
X250517820Y-103737614D01*
X250515014Y-103733277D01*
X250364670Y-103568051D01*
X250360619Y-103564852D01*
X250360615Y-103564848D01*
X250193414Y-103432800D01*
X250193410Y-103432798D01*
X250189359Y-103429598D01*
X249993789Y-103321638D01*
X249988920Y-103319914D01*
X249988916Y-103319912D01*
X249788087Y-103248795D01*
X249788083Y-103248794D01*
X249783212Y-103247069D01*
X249778119Y-103246162D01*
X249778116Y-103246161D01*
X249568373Y-103208800D01*
X249568367Y-103208799D01*
X249563284Y-103207894D01*
X249489452Y-103206992D01*
X249345081Y-103205228D01*
X249345079Y-103205228D01*
X249339911Y-103205165D01*
X249119091Y-103238955D01*
X248906756Y-103308357D01*
X248708607Y-103411507D01*
X248704474Y-103414610D01*
X248704471Y-103414612D01*
X248680247Y-103432800D01*
X248529965Y-103545635D01*
X248375629Y-103707138D01*
X248373632Y-103710065D01*
X248315603Y-103750148D01*
X248276102Y-103756500D01*
X245364165Y-103756500D01*
X245362846Y-103756493D01*
X245272779Y-103755550D01*
X245265893Y-103757039D01*
X245265891Y-103757039D01*
X245247313Y-103761056D01*
X245230414Y-103764710D01*
X245217835Y-103766770D01*
X245181741Y-103770818D01*
X245181738Y-103770819D01*
X245174745Y-103771603D01*
X245143068Y-103782634D01*
X245128258Y-103786796D01*
X245102378Y-103792391D01*
X245102374Y-103792392D01*
X245095489Y-103793881D01*
X245089105Y-103796858D01*
X245089099Y-103796860D01*
X245056193Y-103812204D01*
X245044384Y-103816999D01*
X245003448Y-103831255D01*
X244997476Y-103834987D01*
X244997469Y-103834990D01*
X244975005Y-103849027D01*
X244961488Y-103856366D01*
X244937481Y-103867561D01*
X244937477Y-103867563D01*
X244931098Y-103870538D01*
X244903184Y-103892190D01*
X244896844Y-103897108D01*
X244886395Y-103904397D01*
X244849624Y-103927374D01*
X244844625Y-103932339D01*
X244844623Y-103932340D01*
X244820815Y-103955983D01*
X244820192Y-103956566D01*
X244819530Y-103957079D01*
X244793683Y-103982926D01*
X244720918Y-104055185D01*
X244720259Y-104056223D01*
X244719153Y-104057456D01*
X239974842Y-108801766D01*
X239973905Y-108802694D01*
X239939384Y-108836500D01*
X239909493Y-108865771D01*
X239886002Y-108902221D01*
X239878583Y-108912546D01*
X239851524Y-108946443D01*
X239848459Y-108952784D01*
X239848458Y-108952785D01*
X239836928Y-108976637D01*
X239829399Y-108990054D01*
X239811235Y-109018238D01*
X239808827Y-109024855D01*
X239808824Y-109024860D01*
X239796408Y-109058973D01*
X239791447Y-109070716D01*
X239775646Y-109103403D01*
X239775644Y-109103408D01*
X239772579Y-109109749D01*
X239766184Y-109137451D01*
X239765035Y-109142426D01*
X239760668Y-109157169D01*
X239749197Y-109188685D01*
X239748314Y-109195675D01*
X239748312Y-109195683D01*
X239743762Y-109231701D01*
X239741526Y-109244253D01*
X239731776Y-109286485D01*
X239731751Y-109293531D01*
X239731751Y-109293534D01*
X239731634Y-109327056D01*
X239731605Y-109327938D01*
X239731500Y-109328769D01*
X239731500Y-109365572D01*
X239731143Y-109467870D01*
X239731411Y-109469070D01*
X239731500Y-109470707D01*
X239731500Y-121072918D01*
X239711498Y-121141039D01*
X239694595Y-121162013D01*
X237247276Y-123609332D01*
X237184964Y-123643358D01*
X237138524Y-123644237D01*
X237138519Y-123644287D01*
X237138076Y-123644245D01*
X237136081Y-123644283D01*
X237128284Y-123642894D01*
X237054452Y-123641992D01*
X236910081Y-123640228D01*
X236910079Y-123640228D01*
X236904911Y-123640165D01*
X236684091Y-123673955D01*
X236471756Y-123743357D01*
X236273607Y-123846507D01*
X236269474Y-123849610D01*
X236269471Y-123849612D01*
X236142172Y-123945191D01*
X236094965Y-123980635D01*
X235940629Y-124142138D01*
X235814743Y-124326680D01*
X235720688Y-124529305D01*
X235660989Y-124744570D01*
X235637251Y-124966695D01*
X232550000Y-124966695D01*
X232550000Y-120556000D01*
X232570002Y-120487879D01*
X232623658Y-120441386D01*
X232676000Y-120430000D01*
X239290000Y-120430000D01*
X239290000Y-102946000D01*
X239310002Y-102877879D01*
X239363658Y-102831386D01*
X239416000Y-102820000D01*
X251404000Y-102820000D01*
X251472121Y-102840002D01*
G37*
G04 #@! TD.AperFunction*
M02*
