%TF.GenerationSoftware,KiCad,Pcbnew,(6.0.5)*%
%TF.CreationDate,2023-01-23T15:27:27+00:00*%
%TF.ProjectId,ButtonKeyboard,42757474-6f6e-44b6-9579-626f6172642e,rev?*%
%TF.SameCoordinates,Original*%
%TF.FileFunction,Soldermask,Top*%
%TF.FilePolarity,Negative*%
%FSLAX46Y46*%
G04 Gerber Fmt 4.6, Leading zero omitted, Abs format (unit mm)*
G04 Created by KiCad (PCBNEW (6.0.5)) date 2023-01-23 15:27:27*
%MOMM*%
%LPD*%
G01*
G04 APERTURE LIST*
%ADD10C,1.600000*%
%ADD11C,2.000000*%
%ADD12R,1.600000X1.600000*%
%ADD13O,1.600000X1.600000*%
%ADD14R,1.700000X1.700000*%
%ADD15O,1.700000X1.700000*%
G04 APERTURE END LIST*
D10*
%TO.C,C1*%
X153990000Y-73740000D03*
X153990000Y-68740000D03*
%TD*%
D11*
%TO.C,SW7*%
X137960000Y-102260000D03*
X137960000Y-95760000D03*
X142460000Y-102260000D03*
X142460000Y-95760000D03*
%TD*%
D12*
%TO.C,D11*%
X157960000Y-89880000D03*
D13*
X157960000Y-82260000D03*
%TD*%
D12*
%TO.C,D10*%
X152960000Y-89880000D03*
D13*
X152960000Y-82260000D03*
%TD*%
D12*
%TO.C,U1*%
X150325000Y-66130000D03*
D13*
X147785000Y-66130000D03*
X145245000Y-66130000D03*
X142705000Y-66130000D03*
X140165000Y-66130000D03*
X137625000Y-66130000D03*
X135085000Y-66130000D03*
X132545000Y-66130000D03*
X132545000Y-73750000D03*
X135085000Y-73750000D03*
X137625000Y-73750000D03*
X140165000Y-73750000D03*
X142705000Y-73750000D03*
X145245000Y-73750000D03*
X147785000Y-73750000D03*
X150325000Y-73750000D03*
%TD*%
D11*
%TO.C,SW13*%
X172960000Y-117260000D03*
X172960000Y-110760000D03*
X177460000Y-110760000D03*
X177460000Y-117260000D03*
%TD*%
%TO.C,SW1*%
X102960000Y-117260000D03*
X102960000Y-110760000D03*
X107460000Y-117260000D03*
X107460000Y-110760000D03*
%TD*%
D14*
%TO.C,J5*%
X168000000Y-85000000D03*
D15*
X168000000Y-87540000D03*
X168000000Y-90080000D03*
X168000000Y-92620000D03*
X168000000Y-95160000D03*
X168000000Y-97700000D03*
X168000000Y-100240000D03*
X168000000Y-102780000D03*
%TD*%
D11*
%TO.C,SW3*%
X112960000Y-110760000D03*
X112960000Y-117260000D03*
X117460000Y-110760000D03*
X117460000Y-117260000D03*
%TD*%
D12*
%TO.C,D5*%
X127960000Y-89880000D03*
D13*
X127960000Y-82260000D03*
%TD*%
D12*
%TO.C,D12*%
X162960000Y-89880000D03*
D13*
X162960000Y-82260000D03*
%TD*%
D12*
%TO.C,D2*%
X112960000Y-89880000D03*
D13*
X112960000Y-82260000D03*
%TD*%
D11*
%TO.C,SW9*%
X147960000Y-95760000D03*
X147960000Y-102260000D03*
X152460000Y-95760000D03*
X152460000Y-102260000D03*
%TD*%
D13*
%TO.C,A1*%
X120000000Y-61760000D03*
X122540000Y-61760000D03*
X125080000Y-61760000D03*
X127620000Y-61760000D03*
X130160000Y-61760000D03*
X132700000Y-61760000D03*
X135240000Y-61760000D03*
X137780000Y-61760000D03*
X140320000Y-61760000D03*
X142860000Y-61760000D03*
X145400000Y-61760000D03*
X147940000Y-61760000D03*
X150480000Y-61760000D03*
X153020000Y-61760000D03*
X155560000Y-61760000D03*
X155560000Y-77000000D03*
X153020000Y-77000000D03*
X150480000Y-77000000D03*
X147940000Y-77000000D03*
X145400000Y-77000000D03*
X142860000Y-77000000D03*
X140320000Y-77000000D03*
X137780000Y-77000000D03*
X135240000Y-77000000D03*
X132700000Y-77000000D03*
X130160000Y-77000000D03*
X127620000Y-77000000D03*
X125080000Y-77000000D03*
X122540000Y-77000000D03*
D12*
X120000000Y-77000000D03*
%TD*%
D11*
%TO.C,SW6*%
X132960000Y-110760000D03*
X132960000Y-117260000D03*
X137460000Y-110760000D03*
X137460000Y-117260000D03*
%TD*%
%TO.C,SW10*%
X152960000Y-110760000D03*
X152960000Y-117260000D03*
X157460000Y-117260000D03*
X157460000Y-110760000D03*
%TD*%
D14*
%TO.C,J1*%
X102000000Y-62000000D03*
D15*
X104540000Y-62000000D03*
X107080000Y-62000000D03*
X109620000Y-62000000D03*
X112160000Y-62000000D03*
%TD*%
D11*
%TO.C,SW8*%
X142960000Y-110760000D03*
X142960000Y-117260000D03*
X147460000Y-117260000D03*
X147460000Y-110760000D03*
%TD*%
D12*
%TO.C,D9*%
X147960000Y-89880000D03*
D13*
X147960000Y-82260000D03*
%TD*%
D12*
%TO.C,D8*%
X142960000Y-89880000D03*
D13*
X142960000Y-82260000D03*
%TD*%
D12*
%TO.C,D3*%
X117960000Y-89880000D03*
D13*
X117960000Y-82260000D03*
%TD*%
D11*
%TO.C,SW12*%
X162960000Y-110760000D03*
X162960000Y-117260000D03*
X167460000Y-117260000D03*
X167460000Y-110760000D03*
%TD*%
D13*
%TO.C,D1*%
X107960000Y-82260000D03*
D12*
X107960000Y-89880000D03*
%TD*%
%TO.C,D6*%
X132960000Y-89880000D03*
D13*
X132960000Y-82260000D03*
%TD*%
D14*
%TO.C,J4*%
X168000000Y-72000000D03*
D15*
X168000000Y-74540000D03*
X168000000Y-77080000D03*
X168000000Y-79620000D03*
%TD*%
D14*
%TO.C,J3*%
X102000000Y-72000000D03*
D15*
X102000000Y-74540000D03*
X102000000Y-77080000D03*
X102000000Y-79620000D03*
%TD*%
D11*
%TO.C,SW5*%
X122960000Y-110760000D03*
X122960000Y-117260000D03*
X127460000Y-117260000D03*
X127460000Y-110760000D03*
%TD*%
%TO.C,SW4*%
X117960000Y-95760000D03*
X117960000Y-102260000D03*
X122460000Y-102260000D03*
X122460000Y-95760000D03*
%TD*%
D12*
%TO.C,D13*%
X174500000Y-106880000D03*
D13*
X174500000Y-99260000D03*
%TD*%
D12*
%TO.C,D7*%
X137960000Y-89880000D03*
D13*
X137960000Y-82260000D03*
%TD*%
D11*
%TO.C,SW11*%
X157960000Y-102260000D03*
X157960000Y-95760000D03*
X162460000Y-102260000D03*
X162460000Y-95760000D03*
%TD*%
D12*
%TO.C,D4*%
X122960000Y-89880000D03*
D13*
X122960000Y-82260000D03*
%TD*%
D14*
%TO.C,J2*%
X102000000Y-85000000D03*
D15*
X102000000Y-87540000D03*
X102000000Y-90080000D03*
X102000000Y-92620000D03*
X102000000Y-95160000D03*
X102000000Y-97700000D03*
X102000000Y-100240000D03*
X102000000Y-102780000D03*
%TD*%
D11*
%TO.C,SW2*%
X107960000Y-95760000D03*
X107960000Y-102260000D03*
X112460000Y-95760000D03*
X112460000Y-102260000D03*
%TD*%
M02*
