M48
; DRILL file {KiCad (6.0.5)} date Mon Jan 23 15:27:29 2023
; FORMAT={-:-/ absolute / inch / decimal}
; #@! TF.CreationDate,2023-01-23T15:27:29+00:00
; #@! TF.GenerationSoftware,Kicad,Pcbnew,(6.0.5)
; #@! TF.FileFunction,MixedPlating,1,2
FMAT,2
INCH
; #@! TA.AperFunction,Plated,PTH,ViaDrill
T1C0.0157
; #@! TA.AperFunction,Plated,PTH,ComponentDrill
T2C0.0315
; #@! TA.AperFunction,Plated,PTH,ComponentDrill
T3C0.0394
; #@! TA.AperFunction,Plated,PTH,ComponentDrill
T4C0.0433
%
G90
G05
T1
X4.5024Y-2.7276
X4.57Y-2.7
T2
X4.2504Y-3.2386
X4.2504Y-3.5386
X4.4472Y-3.2386
X4.4472Y-3.5386
X4.6441Y-3.2386
X4.6441Y-3.5386
X4.8409Y-3.2386
X4.8409Y-3.5386
X5.0378Y-3.2386
X5.0378Y-3.5386
X5.2183Y-2.6035
X5.2183Y-2.9035
X5.2346Y-3.2386
X5.2346Y-3.5386
X5.3183Y-2.6035
X5.3183Y-2.9035
X5.4183Y-2.6035
X5.4183Y-2.9035
X5.4315Y-3.2386
X5.4315Y-3.5386
X5.5183Y-2.6035
X5.5183Y-2.9035
X5.6183Y-2.6035
X5.6183Y-2.9035
X5.6283Y-3.2386
X5.6283Y-3.5386
X5.7183Y-2.6035
X5.7183Y-2.9035
X5.8183Y-2.6035
X5.8183Y-2.9035
X5.8252Y-3.2386
X5.8252Y-3.5386
X5.9183Y-2.6035
X5.9183Y-2.9035
X6.022Y-3.2386
X6.022Y-3.5386
X6.0626Y-2.7063
X6.0626Y-2.9031
X6.2189Y-3.2386
X6.2189Y-3.5386
X6.4157Y-3.2386
X6.4157Y-3.5386
X6.8701Y-3.9079
X6.8701Y-4.2079
T3
X4.0157Y-2.4409
X4.0157Y-2.8346
X4.0157Y-2.9346
X4.0157Y-3.0346
X4.0157Y-3.1346
X4.0157Y-3.3465
X4.0157Y-3.4465
X4.0157Y-3.5465
X4.0157Y-3.6465
X4.0157Y-3.7465
X4.0157Y-3.8465
X4.0157Y-3.9465
X4.0157Y-4.0465
X4.1157Y-2.4409
X4.2157Y-2.4409
X4.3157Y-2.4409
X4.4157Y-2.4409
X4.7244Y-2.4315
X4.7244Y-3.0315
X4.8244Y-2.4315
X4.8244Y-3.0315
X4.9244Y-2.4315
X4.9244Y-3.0315
X5.0244Y-2.4315
X5.0244Y-3.0315
X5.1244Y-2.4315
X5.1244Y-3.0315
X5.2244Y-2.4315
X5.2244Y-3.0315
X5.3244Y-2.4315
X5.3244Y-3.0315
X5.4244Y-2.4315
X5.4244Y-3.0315
X5.5244Y-2.4315
X5.5244Y-3.0315
X5.6244Y-2.4315
X5.6244Y-3.0315
X5.7244Y-2.4315
X5.7244Y-3.0315
X5.8244Y-2.4315
X5.8244Y-3.0315
X5.9244Y-2.4315
X5.9244Y-3.0315
X6.0244Y-2.4315
X6.0244Y-3.0315
X6.1244Y-2.4315
X6.1244Y-3.0315
X6.6142Y-2.8346
X6.6142Y-2.9346
X6.6142Y-3.0346
X6.6142Y-3.1346
X6.6142Y-3.3465
X6.6142Y-3.4465
X6.6142Y-3.5465
X6.6142Y-3.6465
X6.6142Y-3.7465
X6.6142Y-3.8465
X6.6142Y-3.9465
X6.6142Y-4.0465
T4
X4.0535Y-4.3606
X4.0535Y-4.6165
X4.2307Y-4.3606
X4.2307Y-4.6165
X4.2504Y-3.7701
X4.2504Y-4.026
X4.4276Y-3.7701
X4.4276Y-4.026
X4.4472Y-4.3606
X4.4472Y-4.6165
X4.6244Y-4.3606
X4.6244Y-4.6165
X4.6441Y-3.7701
X4.6441Y-4.026
X4.8213Y-3.7701
X4.8213Y-4.026
X4.8409Y-4.3606
X4.8409Y-4.6165
X5.0181Y-4.3606
X5.0181Y-4.6165
X5.2346Y-4.3606
X5.2346Y-4.6165
X5.4118Y-4.3606
X5.4118Y-4.6165
X5.4315Y-3.7701
X5.4315Y-4.026
X5.6087Y-3.7701
X5.6087Y-4.026
X5.6283Y-4.3606
X5.6283Y-4.6165
X5.8055Y-4.3606
X5.8055Y-4.6165
X5.8252Y-3.7701
X5.8252Y-4.026
X6.0024Y-3.7701
X6.0024Y-4.026
X6.022Y-4.3606
X6.022Y-4.6165
X6.1992Y-4.3606
X6.1992Y-4.6165
X6.2189Y-3.7701
X6.2189Y-4.026
X6.3961Y-3.7701
X6.3961Y-4.026
X6.4157Y-4.3606
X6.4157Y-4.6165
X6.5929Y-4.3606
X6.5929Y-4.6165
X6.8094Y-4.3606
X6.8094Y-4.6165
X6.9866Y-4.3606
X6.9866Y-4.6165
T0
M30
