M48
; DRILL file {KiCad 8.0.7} date 2025-07-29T19:22:18+0100
; FORMAT={-:-/ absolute / inch / decimal}
; #@! TF.CreationDate,2025-07-29T19:22:18+01:00
; #@! TF.GenerationSoftware,Kicad,Pcbnew,8.0.7
; #@! TF.FileFunction,MixedPlating,1,2
FMAT,2
INCH
; #@! TA.AperFunction,Plated,PTH,ViaDrill
T1C0.0118
; #@! TA.AperFunction,Plated,PTH,ComponentDrill
T2C0.0157
; #@! TA.AperFunction,Plated,PTH,ComponentDrill
T3C0.0315
; #@! TA.AperFunction,Plated,PTH,ComponentDrill
T4C0.0394
; #@! TA.AperFunction,Plated,PTH,ComponentDrill
T5C0.0550
; #@! TA.AperFunction,NonPlated,NPTH,ComponentDrill
T6C0.0472
; #@! TA.AperFunction,NonPlated,NPTH,ComponentDrill
T7C0.0550
%
G90
G05
T1
X2.1289Y-4.1919
X2.1447Y-5.126
X2.1604Y-4.752
X2.2146Y-3.3494
X2.2756Y-3.19
X2.376Y-3.6614
X2.378Y-3.8297
X2.378Y-4.0394
X2.5492Y-3.4242
X2.5886Y-3.1841
X2.5943Y-3.4242
X2.7106Y-5.7244
X2.7116Y-5.4567
X2.7215Y-4.7598
X2.7215Y-5.1309
X2.8396Y-3.314
X2.8671Y-2.2087
X2.8681Y-2.0994
X2.8917Y-2.6152
X2.8947Y-4.0413
X2.936Y-3.6713
X2.937Y-3.8169
X3.0768Y-4.4567
X3.1181Y-3.4094
X3.1191Y-2.6112
X3.1191Y-3.2589
X3.122Y-3.0817
X3.124Y-2.7362
X3.124Y-2.8848
X3.124Y-3.5965
X3.2205Y-2.0965
X3.2205Y-2.2028
X3.3415Y-3.8356
X3.4173Y-4.6762
X3.4252Y-2.0217
X3.4577Y-5.4695
X3.5384Y-4.497
X3.5669Y-4.9921
X3.5748Y-3.1722
X3.5945Y-3.7224
X3.6102Y-4.3376
X3.6673Y-2.2195
X3.7028Y-5.4646
X3.7096Y-5.1329
X3.7106Y-2.8465
X3.7106Y-4.6762
X3.7136Y-2.0167
X3.8228Y-5.4715
X3.8297Y-5.1348
X3.8337Y-4.6742
X3.8346Y-3.7156
X3.8366Y-3.5167
X3.9301Y-2.8199
X3.9764Y-2.5551
X3.9911Y-2.0177
X4.0177Y-5.4665
X4.0197Y-5.1388
X4.0266Y-3.9173
X4.0276Y-4.6742
X4.0305Y-3.5236
X4.0846Y-2.7992
X4.1093Y-4.5
X4.1112Y-5.3258
X4.1398Y-2.2175
X4.2254Y-5.4055
X4.2333Y-5.1348
X4.2657Y-2.0197
X4.3031Y-4.6831
X4.3317Y-2.8593
X4.3671Y-4.4872
X4.3691Y-3.873
X4.3711Y-2.5738
X4.3711Y-2.7953
X4.372Y-3.5236
X4.3888Y-5.1368
X4.3976Y-5.3819
X4.4557Y-2.2224
X4.5039Y-4.6801
X4.5299Y-2.8947
X4.5305Y-5.1299
X4.5305Y-5.4823
X4.5354Y-4.3317
X4.5659Y-2.0138
X4.6161Y-3.8691
X4.623Y-3.5167
X4.627Y-5.1309
X4.627Y-5.4823
X4.628Y-4.3337
X4.6299Y-2.9213
X4.6329Y-4.6831
X4.6526Y-2.7992
X4.7185Y-4.3337
X4.7254Y-5.1329
X4.7254Y-5.4803
X4.7274Y-4.685
X4.7303Y-2.9469
X4.7323Y-2.2087
X4.7972Y-2.7037
X4.8238Y-5.4823
X4.8268Y-2.0167
X4.8297Y-2.9764
X4.8297Y-4.689
X4.8307Y-4.3356
X4.8386Y-5.1348
X4.9193Y-5.4852
X4.9281Y-4.687
X4.9281Y-5.1368
X4.9301Y-3.0039
X4.9301Y-4.3268
X4.9675Y-2.5719
X4.9892Y-2.2057
X5.0157Y-5.1348
X5.0217Y-4.6831
X5.0266Y-4.3258
X5.0266Y-5.4892
X5.0276Y-3.5236
X5.0285Y-2.7215
X5.0295Y-3.0344
X5.0315Y-2.9734
X5.0315Y-3.9085
X5.1142Y-4.3258
X5.1191Y-3.5325
X5.1211Y-2.1614
X5.122Y-4.7116
X5.123Y-3.9016
X5.123Y-5.4911
X5.1289Y-2.7234
X5.1299Y-3.064
X5.1299Y-5.1348
X5.1319Y-2.9961
X5.1447Y-2.3327
X5.2106Y-3.9085
X5.2195Y-4.3278
X5.2254Y-5.1329
X5.2254Y-5.4911
X5.2264Y-3.0374
X5.2274Y-2.7254
X5.2293Y-3.0955
X5.2303Y-3.5364
X5.2323Y-4.6398
X5.2992Y-2.3346
X5.315Y-4.3317
X5.3189Y-5.3868
X5.3219Y-5.1329
X5.3268Y-2.7254
X5.3287Y-3.1348
X5.3307Y-4.6398
X5.3356Y-3.5285
X5.4154Y-4.6358
X5.4203Y-3.8533
X5.4213Y-2.3465
X5.4222Y-4.3297
X5.4242Y-2.1526
X5.4242Y-2.7293
X5.4272Y-3.5217
X5.4291Y-3.1348
X5.4636Y-5.127
X5.4636Y-5.4882
X5.5187Y-3.1348
X5.5325Y-2.7313
X5.5453Y-3.8474
X5.5463Y-4.3337
X5.5463Y-4.6339
X5.5472Y-3.5305
T3
X2.3425Y-2.9134
X2.4803Y-2.9134
X2.5394Y-2.3622
X2.5394Y-2.5591
X2.7071Y-2.2417
X2.7071Y-2.3417
X2.7071Y-2.4417
X2.7071Y-2.5417
X2.7071Y-2.6417
X2.7071Y-2.7417
X2.7071Y-2.8417
X2.7071Y-2.9417
X2.7071Y-3.0417
X2.7071Y-3.1417
X2.7071Y-3.2417
X2.7071Y-3.3417
X2.7071Y-3.4417
X2.7071Y-3.5417
X2.7071Y-3.6417
X2.9134Y-4.4724
X2.9134Y-4.5724
X2.9134Y-4.6724
X2.9134Y-4.7724
X2.9134Y-4.9213
X2.9134Y-5.0394
X2.9134Y-5.1772
X2.9134Y-5.315
X2.9134Y-5.4528
X2.9134Y-5.5906
X2.9882Y-4.3346
X3.185Y-4.3346
X3.2134Y-4.4724
X3.2134Y-4.5724
X3.2134Y-4.6724
X3.2134Y-4.7724
X3.2134Y-4.9213
X3.2134Y-5.0394
X3.2134Y-5.1772
X3.2134Y-5.315
X3.2134Y-5.4528
X3.2134Y-5.5906
X3.3071Y-2.2417
X3.3071Y-2.3417
X3.3071Y-2.4417
X3.3071Y-2.5417
X3.3071Y-2.6417
X3.3071Y-2.7417
X3.3071Y-2.8417
X3.3071Y-2.9417
X3.3071Y-3.0417
X3.3071Y-3.1417
X3.3071Y-3.2417
X3.3071Y-3.3417
X3.3071Y-3.4417
X3.3071Y-3.5417
X3.3071Y-3.6417
X3.5039Y-2.0622
X3.5039Y-2.3622
X3.6417Y-2.0622
X3.6417Y-2.3622
X3.7299Y-2.6378
X3.7299Y-3.2378
X3.7299Y-3.4252
X3.7299Y-4.0252
X3.7299Y-4.2126
X3.7299Y-4.8126
X3.7299Y-5.0
X3.7299Y-5.6
X3.7795Y-2.0622
X3.7795Y-2.3622
X3.8299Y-2.6378
X3.8299Y-3.2378
X3.8299Y-3.4252
X3.8299Y-4.0252
X3.8299Y-4.2126
X3.8299Y-4.8126
X3.8299Y-5.0
X3.8299Y-5.6
X3.9173Y-2.0622
X3.9173Y-2.3622
X3.9299Y-2.6378
X3.9299Y-3.2378
X3.9299Y-3.4252
X3.9299Y-4.0252
X3.9299Y-4.2126
X3.9299Y-4.8126
X3.9299Y-5.0
X3.9299Y-5.6
X4.0299Y-2.6378
X4.0299Y-3.2378
X4.0299Y-3.4252
X4.0299Y-4.0252
X4.0299Y-4.2126
X4.0299Y-4.8126
X4.0299Y-5.0
X4.0299Y-5.6
X4.0551Y-2.0622
X4.0551Y-2.3622
X4.1299Y-2.6378
X4.1299Y-3.2378
X4.1299Y-3.4252
X4.1299Y-4.0252
X4.1299Y-4.2126
X4.1299Y-4.8126
X4.1299Y-5.0
X4.1299Y-5.6
X4.1929Y-2.0622
X4.1929Y-2.3622
X4.2299Y-2.6378
X4.2299Y-3.2378
X4.2299Y-3.4252
X4.2299Y-4.0252
X4.2299Y-4.2126
X4.2299Y-4.8126
X4.2299Y-5.0
X4.2299Y-5.6
X4.3299Y-2.6378
X4.3299Y-3.2378
X4.3299Y-3.4252
X4.3299Y-4.0252
X4.3299Y-4.2126
X4.3299Y-4.8126
X4.3299Y-5.0
X4.3299Y-5.6
X4.3307Y-2.0622
X4.3307Y-2.3622
X4.4299Y-2.6378
X4.4299Y-3.2378
X4.4299Y-3.4252
X4.4299Y-4.0252
X4.4299Y-4.2126
X4.4299Y-4.8126
X4.4299Y-5.0
X4.4299Y-5.6
X4.4685Y-2.0622
X4.4685Y-2.3622
X4.5299Y-2.6378
X4.5299Y-3.2378
X4.5299Y-3.4252
X4.5299Y-4.0252
X4.5299Y-4.2126
X4.5299Y-4.8126
X4.5299Y-5.0
X4.5299Y-5.6
X4.6063Y-2.0622
X4.6063Y-2.3622
X4.6299Y-2.6378
X4.6299Y-3.2378
X4.6299Y-3.4252
X4.6299Y-4.0252
X4.6299Y-4.2126
X4.6299Y-4.8126
X4.6299Y-5.0
X4.6299Y-5.6
X4.7299Y-2.6378
X4.7299Y-3.2378
X4.7299Y-3.4252
X4.7299Y-4.0252
X4.7299Y-4.2126
X4.7299Y-4.8126
X4.7299Y-5.0
X4.7299Y-5.6
X4.7441Y-2.0622
X4.7441Y-2.3622
X4.8299Y-2.6378
X4.8299Y-3.2378
X4.8299Y-3.4252
X4.8299Y-4.0252
X4.8299Y-4.2126
X4.8299Y-4.8126
X4.8299Y-5.0
X4.8299Y-5.6
X4.8819Y-2.0622
X4.8819Y-2.3622
X4.9299Y-2.6378
X4.9299Y-3.2378
X4.9299Y-3.4252
X4.9299Y-4.0252
X4.9299Y-4.2126
X4.9299Y-4.8126
X4.9299Y-5.0
X4.9299Y-5.6
X5.0197Y-2.0622
X5.0197Y-2.3622
X5.0299Y-2.6378
X5.0299Y-3.2378
X5.0299Y-3.4252
X5.0299Y-4.0252
X5.0299Y-4.2126
X5.0299Y-4.8126
X5.0299Y-5.0
X5.0299Y-5.6
X5.1299Y-2.6378
X5.1299Y-3.2378
X5.1299Y-3.4252
X5.1299Y-4.0252
X5.1299Y-4.2126
X5.1299Y-4.8126
X5.1299Y-5.0
X5.1299Y-5.6
X5.2047Y-2.2244
X5.2047Y-2.4488
X5.2299Y-2.6378
X5.2299Y-3.2378
X5.2299Y-3.4252
X5.2299Y-4.0252
X5.2299Y-4.2126
X5.2299Y-4.8126
X5.2299Y-5.0
X5.2299Y-5.6
X5.3031Y-2.2244
X5.3031Y-2.4488
X5.3299Y-2.6378
X5.3299Y-3.2378
X5.3299Y-3.4252
X5.3299Y-4.0252
X5.3299Y-4.2126
X5.3299Y-4.8126
X5.3299Y-5.0
X5.3299Y-5.6
X5.4299Y-2.6378
X5.4299Y-3.2378
X5.4299Y-3.4252
X5.4299Y-4.0252
X5.4299Y-4.2126
X5.4299Y-4.8126
X5.4299Y-5.0
X5.4299Y-5.6
X5.5299Y-2.6378
X5.5299Y-3.2378
X5.5299Y-3.4252
X5.5299Y-4.0252
X5.5299Y-4.2126
X5.5299Y-4.8126
X5.5299Y-5.0
X5.5299Y-5.6
X5.6299Y-2.6378
X5.6299Y-3.2378
X5.6299Y-3.4252
X5.6299Y-4.0252
X5.6299Y-4.2126
X5.6299Y-4.8126
X5.6299Y-5.0
X5.6299Y-5.6
X5.7677Y-3.0409
X5.7677Y-3.2378
X5.7677Y-3.8283
X5.7677Y-4.0252
X5.7677Y-4.6157
X5.7677Y-4.8126
X5.7677Y-5.4031
X5.7677Y-5.6
T4
X2.0472Y-2.7921
X2.0472Y-2.8921
X2.0472Y-2.9921
X2.0472Y-3.2827
X2.0472Y-3.3827
X2.0472Y-3.4827
X2.0472Y-3.5827
X2.0472Y-3.8551
X2.0472Y-3.9551
X2.0472Y-4.0551
X2.0638Y-2.5591
X2.1472Y-3.8551
X2.1472Y-3.9551
X2.1472Y-4.0551
X2.1638Y-2.5591
X2.2638Y-2.5591
X2.3819Y-3.2827
X2.3819Y-3.3827
X2.3819Y-3.4827
X2.3819Y-3.5827
X3.4646Y-5.7874
X3.5646Y-5.7874
X3.6646Y-5.7874
X3.7646Y-5.7874
X4.0646Y-5.7874
X4.1646Y-5.7874
X4.2646Y-5.7874
X4.3646Y-5.7874
X4.4646Y-5.7874
X4.5646Y-5.7874
X4.6646Y-5.7874
X4.7646Y-5.7874
X5.0646Y-5.7874
X5.1646Y-5.7874
X5.2646Y-5.7874
X5.3646Y-5.7874
X5.4646Y-5.7874
X5.5646Y-5.7874
X5.6646Y-5.7874
X5.7646Y-5.7874
T5
X2.4405Y-4.3505
X2.4405Y-4.9409
X2.4405Y-5.1379
X2.4405Y-5.7283
X2.4406Y-4.6457
X2.4406Y-5.4331
X2.539Y-4.449
X2.539Y-4.8424
X2.539Y-5.2364
X2.539Y-5.6298
T6
X2.1457Y-4.4488
X2.1457Y-4.8425
X2.1457Y-5.2362
X2.1457Y-5.6299
X2.3425Y-4.6457
X2.3425Y-5.4331
X5.5315Y-2.2638
X5.7283Y-2.0669
X5.7283Y-2.4606
X5.8268Y-2.0669
X5.8268Y-2.4606
T7
X2.047Y-4.4488
X2.047Y-4.8426
X2.047Y-5.2362
X2.047Y-5.63
T2
G00X2.1457Y-4.626
M15
G01X2.1457Y-4.6654
M16
G05
G00X2.1457Y-5.4134
M15
G01X2.1457Y-5.4528
M16
G05
G00X2.3622Y-4.4488
M15
G01X2.3228Y-4.4488
M16
G05
G00X2.3228Y-4.8425
M15
G01X2.3622Y-4.8425
M16
G05
G00X2.3622Y-5.2362
M15
G01X2.3228Y-5.2362
M16
G05
G00X2.3228Y-5.6299
M15
G01X2.3622Y-5.6299
M16
G05
G00X5.5512Y-2.0669
M15
G01X5.5118Y-2.0669
M16
G05
G00X5.5118Y-2.4606
M15
G01X5.5512Y-2.4606
M16
G05
G00X5.7283Y-2.2835
M15
G01X5.7283Y-2.2441
M16
G05
T3
G00X2.3563Y-4.5472
M15
G01X2.3288Y-4.5472
M16
G05
G00X2.3288Y-4.7441
M15
G01X2.3563Y-4.7441
M16
G05
G00X2.3563Y-5.3346
M15
G01X2.3288Y-5.3346
M16
G05
G00X2.3288Y-5.5315
M15
G01X2.3563Y-5.5315
M16
G05
G00X5.5453Y-2.1654
M15
G01X5.5177Y-2.1654
M16
G05
G00X5.5177Y-2.3622
M15
G01X5.5453Y-2.3622
M16
G05
T4
G00X2.1348Y-2.1457
M15
G01X2.1348Y-2.2244
M16
G05
G00X2.2136Y-2.3701
M15
G01X2.2923Y-2.3701
M16
G05
G00X2.3711Y-2.1457
M15
G01X2.3711Y-2.2244
M16
G05
M30
