%TF.GenerationSoftware,KiCad,Pcbnew,(6.0.5)*%
%TF.CreationDate,2022-09-02T14:56:30+01:00*%
%TF.ProjectId,PicoDualMIDICarrier,5069636f-4475-4616-9c4d-494449436172,rev?*%
%TF.SameCoordinates,Original*%
%TF.FileFunction,Soldermask,Top*%
%TF.FilePolarity,Negative*%
%FSLAX46Y46*%
G04 Gerber Fmt 4.6, Leading zero omitted, Abs format (unit mm)*
G04 Created by KiCad (PCBNEW (6.0.5)) date 2022-09-02 14:56:30*
%MOMM*%
%LPD*%
G01*
G04 APERTURE LIST*
%ADD10R,1.700000X1.700000*%
%ADD11O,1.700000X1.700000*%
%ADD12C,3.200000*%
%ADD13O,1.800000X1.800000*%
%ADD14O,1.500000X1.500000*%
%ADD15R,1.700000X3.500000*%
%ADD16R,3.500000X1.700000*%
%ADD17R,2.000000X2.000000*%
%ADD18C,2.000000*%
%ADD19C,1.600000*%
G04 APERTURE END LIST*
D10*
%TO.C,J5*%
X104210000Y-101920000D03*
D11*
X106750000Y-101920000D03*
X109290000Y-101920000D03*
X111830000Y-101920000D03*
X114370000Y-101920000D03*
%TD*%
D12*
%TO.C,H3*%
X192000000Y-128500000D03*
%TD*%
%TO.C,H2*%
X149000000Y-105500000D03*
%TD*%
%TO.C,H1*%
X114500000Y-126000000D03*
%TD*%
D13*
%TO.C,U1*%
X101965000Y-117815000D03*
X101965000Y-123265000D03*
D14*
X104995000Y-122965000D03*
X104995000Y-118115000D03*
D11*
X101835000Y-129430000D03*
D15*
X101835000Y-130330000D03*
D11*
X104375000Y-129430000D03*
D15*
X104375000Y-130330000D03*
X106915000Y-130330000D03*
D10*
X106915000Y-129430000D03*
D11*
X109455000Y-129430000D03*
D15*
X109455000Y-130330000D03*
D11*
X111995000Y-129430000D03*
D15*
X111995000Y-130330000D03*
D11*
X114535000Y-129430000D03*
D15*
X114535000Y-130330000D03*
X117075000Y-130330000D03*
D11*
X117075000Y-129430000D03*
D10*
X119615000Y-129430000D03*
D15*
X119615000Y-130330000D03*
X122155000Y-130330000D03*
D11*
X122155000Y-129430000D03*
X124695000Y-129430000D03*
D15*
X124695000Y-130330000D03*
X127235000Y-130330000D03*
D11*
X127235000Y-129430000D03*
X129775000Y-129430000D03*
D15*
X129775000Y-130330000D03*
D10*
X132315000Y-129430000D03*
D15*
X132315000Y-130330000D03*
X134855000Y-130330000D03*
D11*
X134855000Y-129430000D03*
X137395000Y-129430000D03*
D15*
X137395000Y-130330000D03*
X139935000Y-130330000D03*
D11*
X139935000Y-129430000D03*
D15*
X142475000Y-130330000D03*
D11*
X142475000Y-129430000D03*
D15*
X145015000Y-130330000D03*
D10*
X145015000Y-129430000D03*
D11*
X147555000Y-129430000D03*
D15*
X147555000Y-130330000D03*
X150095000Y-130330000D03*
D11*
X150095000Y-129430000D03*
D15*
X150095000Y-110750000D03*
D11*
X150095000Y-111650000D03*
D15*
X147555000Y-110750000D03*
D11*
X147555000Y-111650000D03*
D15*
X145015000Y-110750000D03*
D10*
X145015000Y-111650000D03*
D11*
X142475000Y-111650000D03*
D15*
X142475000Y-110750000D03*
X139935000Y-110750000D03*
D11*
X139935000Y-111650000D03*
D15*
X137395000Y-110750000D03*
D11*
X137395000Y-111650000D03*
X134855000Y-111650000D03*
D15*
X134855000Y-110750000D03*
D10*
X132315000Y-111650000D03*
D15*
X132315000Y-110750000D03*
D11*
X129775000Y-111650000D03*
D15*
X129775000Y-110750000D03*
X127235000Y-110750000D03*
D11*
X127235000Y-111650000D03*
X124695000Y-111650000D03*
D15*
X124695000Y-110750000D03*
D11*
X122155000Y-111650000D03*
D15*
X122155000Y-110750000D03*
X119615000Y-110750000D03*
D10*
X119615000Y-111650000D03*
D15*
X117075000Y-110750000D03*
D11*
X117075000Y-111650000D03*
D15*
X114535000Y-110750000D03*
D11*
X114535000Y-111650000D03*
X111995000Y-111650000D03*
D15*
X111995000Y-110750000D03*
X109455000Y-110750000D03*
D11*
X109455000Y-111650000D03*
D15*
X106915000Y-110750000D03*
D10*
X106915000Y-111650000D03*
D15*
X104375000Y-110750000D03*
D11*
X104375000Y-111650000D03*
X101835000Y-111650000D03*
D15*
X101835000Y-110750000D03*
D16*
X150765000Y-123080000D03*
D11*
X149865000Y-123080000D03*
D10*
X149865000Y-120540000D03*
D16*
X150765000Y-120540000D03*
D11*
X149865000Y-118000000D03*
D16*
X150765000Y-118000000D03*
%TD*%
D17*
%TO.C,SW1*%
X168740000Y-121380000D03*
D18*
X168740000Y-126380000D03*
X168740000Y-123880000D03*
D12*
X176240000Y-118280000D03*
X176240000Y-129480000D03*
D18*
X183240000Y-126380000D03*
X183240000Y-121380000D03*
%TD*%
D10*
%TO.C,J4*%
X156925000Y-103570000D03*
D11*
X156925000Y-106110000D03*
X156925000Y-108650000D03*
X156925000Y-111190000D03*
%TD*%
D10*
%TO.C,J3*%
X177800000Y-135350000D03*
D11*
X175260000Y-135350000D03*
X172720000Y-135350000D03*
X170180000Y-135350000D03*
X167640000Y-135350000D03*
X165100000Y-135350000D03*
X162560000Y-135350000D03*
X160020000Y-135350000D03*
%TD*%
D10*
%TO.C,J2*%
X148435000Y-135250000D03*
D11*
X145895000Y-135250000D03*
X143355000Y-135250000D03*
X140815000Y-135250000D03*
X138275000Y-135250000D03*
X135735000Y-135250000D03*
X133195000Y-135250000D03*
X130655000Y-135250000D03*
%TD*%
D10*
%TO.C,J1*%
X119710000Y-135230000D03*
D11*
X117170000Y-135230000D03*
X114630000Y-135230000D03*
X112090000Y-135230000D03*
X109550000Y-135230000D03*
X107010000Y-135230000D03*
X104470000Y-135230000D03*
X101930000Y-135230000D03*
%TD*%
D19*
%TO.C,C3*%
X165040000Y-126830000D03*
X160040000Y-126830000D03*
%TD*%
%TO.C,C2*%
X165040000Y-124240000D03*
X160040000Y-124240000D03*
%TD*%
%TO.C,C1*%
X165050000Y-121600000D03*
X160050000Y-121600000D03*
%TD*%
M02*
