%TF.GenerationSoftware,KiCad,Pcbnew,8.0.7*%
%TF.CreationDate,2025-04-07T14:00:10+01:00*%
%TF.ProjectId,WaveshareDuppaController,57617665-7368-4617-9265-447570706143,rev?*%
%TF.SameCoordinates,Original*%
%TF.FileFunction,Legend,Top*%
%TF.FilePolarity,Positive*%
%FSLAX46Y46*%
G04 Gerber Fmt 4.6, Leading zero omitted, Abs format (unit mm)*
G04 Created by KiCad (PCBNEW 8.0.7) date 2025-04-07 14:00:10*
%MOMM*%
%LPD*%
G01*
G04 APERTURE LIST*
%ADD10C,0.100000*%
%ADD11C,0.150000*%
%ADD12C,0.120000*%
G04 APERTURE END LIST*
D10*
X60261904Y-84042419D02*
X60499999Y-85042419D01*
X60499999Y-85042419D02*
X60690475Y-84328133D01*
X60690475Y-84328133D02*
X60880951Y-85042419D01*
X60880951Y-85042419D02*
X61119047Y-84042419D01*
X61928570Y-85042419D02*
X61928570Y-84518609D01*
X61928570Y-84518609D02*
X61880951Y-84423371D01*
X61880951Y-84423371D02*
X61785713Y-84375752D01*
X61785713Y-84375752D02*
X61595237Y-84375752D01*
X61595237Y-84375752D02*
X61499999Y-84423371D01*
X61928570Y-84994800D02*
X61833332Y-85042419D01*
X61833332Y-85042419D02*
X61595237Y-85042419D01*
X61595237Y-85042419D02*
X61499999Y-84994800D01*
X61499999Y-84994800D02*
X61452380Y-84899561D01*
X61452380Y-84899561D02*
X61452380Y-84804323D01*
X61452380Y-84804323D02*
X61499999Y-84709085D01*
X61499999Y-84709085D02*
X61595237Y-84661466D01*
X61595237Y-84661466D02*
X61833332Y-84661466D01*
X61833332Y-84661466D02*
X61928570Y-84613847D01*
X62309523Y-84375752D02*
X62547618Y-85042419D01*
X62547618Y-85042419D02*
X62785713Y-84375752D01*
X63547618Y-84994800D02*
X63452380Y-85042419D01*
X63452380Y-85042419D02*
X63261904Y-85042419D01*
X63261904Y-85042419D02*
X63166666Y-84994800D01*
X63166666Y-84994800D02*
X63119047Y-84899561D01*
X63119047Y-84899561D02*
X63119047Y-84518609D01*
X63119047Y-84518609D02*
X63166666Y-84423371D01*
X63166666Y-84423371D02*
X63261904Y-84375752D01*
X63261904Y-84375752D02*
X63452380Y-84375752D01*
X63452380Y-84375752D02*
X63547618Y-84423371D01*
X63547618Y-84423371D02*
X63595237Y-84518609D01*
X63595237Y-84518609D02*
X63595237Y-84613847D01*
X63595237Y-84613847D02*
X63119047Y-84709085D01*
X63976190Y-84994800D02*
X64071428Y-85042419D01*
X64071428Y-85042419D02*
X64261904Y-85042419D01*
X64261904Y-85042419D02*
X64357142Y-84994800D01*
X64357142Y-84994800D02*
X64404761Y-84899561D01*
X64404761Y-84899561D02*
X64404761Y-84851942D01*
X64404761Y-84851942D02*
X64357142Y-84756704D01*
X64357142Y-84756704D02*
X64261904Y-84709085D01*
X64261904Y-84709085D02*
X64119047Y-84709085D01*
X64119047Y-84709085D02*
X64023809Y-84661466D01*
X64023809Y-84661466D02*
X63976190Y-84566228D01*
X63976190Y-84566228D02*
X63976190Y-84518609D01*
X63976190Y-84518609D02*
X64023809Y-84423371D01*
X64023809Y-84423371D02*
X64119047Y-84375752D01*
X64119047Y-84375752D02*
X64261904Y-84375752D01*
X64261904Y-84375752D02*
X64357142Y-84423371D01*
X64833333Y-85042419D02*
X64833333Y-84042419D01*
X65261904Y-85042419D02*
X65261904Y-84518609D01*
X65261904Y-84518609D02*
X65214285Y-84423371D01*
X65214285Y-84423371D02*
X65119047Y-84375752D01*
X65119047Y-84375752D02*
X64976190Y-84375752D01*
X64976190Y-84375752D02*
X64880952Y-84423371D01*
X64880952Y-84423371D02*
X64833333Y-84470990D01*
X66166666Y-85042419D02*
X66166666Y-84518609D01*
X66166666Y-84518609D02*
X66119047Y-84423371D01*
X66119047Y-84423371D02*
X66023809Y-84375752D01*
X66023809Y-84375752D02*
X65833333Y-84375752D01*
X65833333Y-84375752D02*
X65738095Y-84423371D01*
X66166666Y-84994800D02*
X66071428Y-85042419D01*
X66071428Y-85042419D02*
X65833333Y-85042419D01*
X65833333Y-85042419D02*
X65738095Y-84994800D01*
X65738095Y-84994800D02*
X65690476Y-84899561D01*
X65690476Y-84899561D02*
X65690476Y-84804323D01*
X65690476Y-84804323D02*
X65738095Y-84709085D01*
X65738095Y-84709085D02*
X65833333Y-84661466D01*
X65833333Y-84661466D02*
X66071428Y-84661466D01*
X66071428Y-84661466D02*
X66166666Y-84613847D01*
X66642857Y-85042419D02*
X66642857Y-84375752D01*
X66642857Y-84566228D02*
X66690476Y-84470990D01*
X66690476Y-84470990D02*
X66738095Y-84423371D01*
X66738095Y-84423371D02*
X66833333Y-84375752D01*
X66833333Y-84375752D02*
X66928571Y-84375752D01*
X67642857Y-84994800D02*
X67547619Y-85042419D01*
X67547619Y-85042419D02*
X67357143Y-85042419D01*
X67357143Y-85042419D02*
X67261905Y-84994800D01*
X67261905Y-84994800D02*
X67214286Y-84899561D01*
X67214286Y-84899561D02*
X67214286Y-84518609D01*
X67214286Y-84518609D02*
X67261905Y-84423371D01*
X67261905Y-84423371D02*
X67357143Y-84375752D01*
X67357143Y-84375752D02*
X67547619Y-84375752D01*
X67547619Y-84375752D02*
X67642857Y-84423371D01*
X67642857Y-84423371D02*
X67690476Y-84518609D01*
X67690476Y-84518609D02*
X67690476Y-84613847D01*
X67690476Y-84613847D02*
X67214286Y-84709085D01*
X68880953Y-85042419D02*
X68880953Y-84042419D01*
X68880953Y-84042419D02*
X69119048Y-84042419D01*
X69119048Y-84042419D02*
X69261905Y-84090038D01*
X69261905Y-84090038D02*
X69357143Y-84185276D01*
X69357143Y-84185276D02*
X69404762Y-84280514D01*
X69404762Y-84280514D02*
X69452381Y-84470990D01*
X69452381Y-84470990D02*
X69452381Y-84613847D01*
X69452381Y-84613847D02*
X69404762Y-84804323D01*
X69404762Y-84804323D02*
X69357143Y-84899561D01*
X69357143Y-84899561D02*
X69261905Y-84994800D01*
X69261905Y-84994800D02*
X69119048Y-85042419D01*
X69119048Y-85042419D02*
X68880953Y-85042419D01*
X70309524Y-84375752D02*
X70309524Y-85042419D01*
X69880953Y-84375752D02*
X69880953Y-84899561D01*
X69880953Y-84899561D02*
X69928572Y-84994800D01*
X69928572Y-84994800D02*
X70023810Y-85042419D01*
X70023810Y-85042419D02*
X70166667Y-85042419D01*
X70166667Y-85042419D02*
X70261905Y-84994800D01*
X70261905Y-84994800D02*
X70309524Y-84947180D01*
X70785715Y-84375752D02*
X70785715Y-85375752D01*
X70785715Y-84423371D02*
X70880953Y-84375752D01*
X70880953Y-84375752D02*
X71071429Y-84375752D01*
X71071429Y-84375752D02*
X71166667Y-84423371D01*
X71166667Y-84423371D02*
X71214286Y-84470990D01*
X71214286Y-84470990D02*
X71261905Y-84566228D01*
X71261905Y-84566228D02*
X71261905Y-84851942D01*
X71261905Y-84851942D02*
X71214286Y-84947180D01*
X71214286Y-84947180D02*
X71166667Y-84994800D01*
X71166667Y-84994800D02*
X71071429Y-85042419D01*
X71071429Y-85042419D02*
X70880953Y-85042419D01*
X70880953Y-85042419D02*
X70785715Y-84994800D01*
X71690477Y-84375752D02*
X71690477Y-85375752D01*
X71690477Y-84423371D02*
X71785715Y-84375752D01*
X71785715Y-84375752D02*
X71976191Y-84375752D01*
X71976191Y-84375752D02*
X72071429Y-84423371D01*
X72071429Y-84423371D02*
X72119048Y-84470990D01*
X72119048Y-84470990D02*
X72166667Y-84566228D01*
X72166667Y-84566228D02*
X72166667Y-84851942D01*
X72166667Y-84851942D02*
X72119048Y-84947180D01*
X72119048Y-84947180D02*
X72071429Y-84994800D01*
X72071429Y-84994800D02*
X71976191Y-85042419D01*
X71976191Y-85042419D02*
X71785715Y-85042419D01*
X71785715Y-85042419D02*
X71690477Y-84994800D01*
X73023810Y-85042419D02*
X73023810Y-84518609D01*
X73023810Y-84518609D02*
X72976191Y-84423371D01*
X72976191Y-84423371D02*
X72880953Y-84375752D01*
X72880953Y-84375752D02*
X72690477Y-84375752D01*
X72690477Y-84375752D02*
X72595239Y-84423371D01*
X73023810Y-84994800D02*
X72928572Y-85042419D01*
X72928572Y-85042419D02*
X72690477Y-85042419D01*
X72690477Y-85042419D02*
X72595239Y-84994800D01*
X72595239Y-84994800D02*
X72547620Y-84899561D01*
X72547620Y-84899561D02*
X72547620Y-84804323D01*
X72547620Y-84804323D02*
X72595239Y-84709085D01*
X72595239Y-84709085D02*
X72690477Y-84661466D01*
X72690477Y-84661466D02*
X72928572Y-84661466D01*
X72928572Y-84661466D02*
X73023810Y-84613847D01*
X74261906Y-85042419D02*
X74261906Y-84042419D01*
X74261906Y-84042419D02*
X74595239Y-84756704D01*
X74595239Y-84756704D02*
X74928572Y-84042419D01*
X74928572Y-84042419D02*
X74928572Y-85042419D01*
X75404763Y-85042419D02*
X75404763Y-84042419D01*
X75880953Y-85042419D02*
X75880953Y-84042419D01*
X75880953Y-84042419D02*
X76119048Y-84042419D01*
X76119048Y-84042419D02*
X76261905Y-84090038D01*
X76261905Y-84090038D02*
X76357143Y-84185276D01*
X76357143Y-84185276D02*
X76404762Y-84280514D01*
X76404762Y-84280514D02*
X76452381Y-84470990D01*
X76452381Y-84470990D02*
X76452381Y-84613847D01*
X76452381Y-84613847D02*
X76404762Y-84804323D01*
X76404762Y-84804323D02*
X76357143Y-84899561D01*
X76357143Y-84899561D02*
X76261905Y-84994800D01*
X76261905Y-84994800D02*
X76119048Y-85042419D01*
X76119048Y-85042419D02*
X75880953Y-85042419D01*
X76880953Y-85042419D02*
X76880953Y-84042419D01*
X78690476Y-84947180D02*
X78642857Y-84994800D01*
X78642857Y-84994800D02*
X78500000Y-85042419D01*
X78500000Y-85042419D02*
X78404762Y-85042419D01*
X78404762Y-85042419D02*
X78261905Y-84994800D01*
X78261905Y-84994800D02*
X78166667Y-84899561D01*
X78166667Y-84899561D02*
X78119048Y-84804323D01*
X78119048Y-84804323D02*
X78071429Y-84613847D01*
X78071429Y-84613847D02*
X78071429Y-84470990D01*
X78071429Y-84470990D02*
X78119048Y-84280514D01*
X78119048Y-84280514D02*
X78166667Y-84185276D01*
X78166667Y-84185276D02*
X78261905Y-84090038D01*
X78261905Y-84090038D02*
X78404762Y-84042419D01*
X78404762Y-84042419D02*
X78500000Y-84042419D01*
X78500000Y-84042419D02*
X78642857Y-84090038D01*
X78642857Y-84090038D02*
X78690476Y-84137657D01*
X79690476Y-84947180D02*
X79642857Y-84994800D01*
X79642857Y-84994800D02*
X79500000Y-85042419D01*
X79500000Y-85042419D02*
X79404762Y-85042419D01*
X79404762Y-85042419D02*
X79261905Y-84994800D01*
X79261905Y-84994800D02*
X79166667Y-84899561D01*
X79166667Y-84899561D02*
X79119048Y-84804323D01*
X79119048Y-84804323D02*
X79071429Y-84613847D01*
X79071429Y-84613847D02*
X79071429Y-84470990D01*
X79071429Y-84470990D02*
X79119048Y-84280514D01*
X79119048Y-84280514D02*
X79166667Y-84185276D01*
X79166667Y-84185276D02*
X79261905Y-84090038D01*
X79261905Y-84090038D02*
X79404762Y-84042419D01*
X79404762Y-84042419D02*
X79500000Y-84042419D01*
X79500000Y-84042419D02*
X79642857Y-84090038D01*
X79642857Y-84090038D02*
X79690476Y-84137657D01*
X64809523Y-86652363D02*
X64809523Y-85652363D01*
X64809523Y-86604744D02*
X64714285Y-86652363D01*
X64714285Y-86652363D02*
X64523809Y-86652363D01*
X64523809Y-86652363D02*
X64428571Y-86604744D01*
X64428571Y-86604744D02*
X64380952Y-86557124D01*
X64380952Y-86557124D02*
X64333333Y-86461886D01*
X64333333Y-86461886D02*
X64333333Y-86176172D01*
X64333333Y-86176172D02*
X64380952Y-86080934D01*
X64380952Y-86080934D02*
X64428571Y-86033315D01*
X64428571Y-86033315D02*
X64523809Y-85985696D01*
X64523809Y-85985696D02*
X64714285Y-85985696D01*
X64714285Y-85985696D02*
X64809523Y-86033315D01*
X65285714Y-86652363D02*
X65285714Y-85985696D01*
X65285714Y-85652363D02*
X65238095Y-85699982D01*
X65238095Y-85699982D02*
X65285714Y-85747601D01*
X65285714Y-85747601D02*
X65333333Y-85699982D01*
X65333333Y-85699982D02*
X65285714Y-85652363D01*
X65285714Y-85652363D02*
X65285714Y-85747601D01*
X65666666Y-85985696D02*
X65904761Y-86652363D01*
X66142856Y-85985696D02*
X65904761Y-86652363D01*
X65904761Y-86652363D02*
X65809523Y-86890458D01*
X65809523Y-86890458D02*
X65761904Y-86938077D01*
X65761904Y-86938077D02*
X65666666Y-86985696D01*
X66904761Y-86604744D02*
X66809523Y-86652363D01*
X66809523Y-86652363D02*
X66619047Y-86652363D01*
X66619047Y-86652363D02*
X66523809Y-86604744D01*
X66523809Y-86604744D02*
X66476190Y-86509505D01*
X66476190Y-86509505D02*
X66476190Y-86128553D01*
X66476190Y-86128553D02*
X66523809Y-86033315D01*
X66523809Y-86033315D02*
X66619047Y-85985696D01*
X66619047Y-85985696D02*
X66809523Y-85985696D01*
X66809523Y-85985696D02*
X66904761Y-86033315D01*
X66904761Y-86033315D02*
X66952380Y-86128553D01*
X66952380Y-86128553D02*
X66952380Y-86223791D01*
X66952380Y-86223791D02*
X66476190Y-86319029D01*
X67523809Y-86652363D02*
X67428571Y-86604744D01*
X67428571Y-86604744D02*
X67380952Y-86509505D01*
X67380952Y-86509505D02*
X67380952Y-85652363D01*
X68285714Y-86604744D02*
X68190476Y-86652363D01*
X68190476Y-86652363D02*
X68000000Y-86652363D01*
X68000000Y-86652363D02*
X67904762Y-86604744D01*
X67904762Y-86604744D02*
X67857143Y-86509505D01*
X67857143Y-86509505D02*
X67857143Y-86128553D01*
X67857143Y-86128553D02*
X67904762Y-86033315D01*
X67904762Y-86033315D02*
X68000000Y-85985696D01*
X68000000Y-85985696D02*
X68190476Y-85985696D01*
X68190476Y-85985696D02*
X68285714Y-86033315D01*
X68285714Y-86033315D02*
X68333333Y-86128553D01*
X68333333Y-86128553D02*
X68333333Y-86223791D01*
X68333333Y-86223791D02*
X67857143Y-86319029D01*
X69190476Y-86604744D02*
X69095238Y-86652363D01*
X69095238Y-86652363D02*
X68904762Y-86652363D01*
X68904762Y-86652363D02*
X68809524Y-86604744D01*
X68809524Y-86604744D02*
X68761905Y-86557124D01*
X68761905Y-86557124D02*
X68714286Y-86461886D01*
X68714286Y-86461886D02*
X68714286Y-86176172D01*
X68714286Y-86176172D02*
X68761905Y-86080934D01*
X68761905Y-86080934D02*
X68809524Y-86033315D01*
X68809524Y-86033315D02*
X68904762Y-85985696D01*
X68904762Y-85985696D02*
X69095238Y-85985696D01*
X69095238Y-85985696D02*
X69190476Y-86033315D01*
X69476191Y-85985696D02*
X69857143Y-85985696D01*
X69619048Y-85652363D02*
X69619048Y-86509505D01*
X69619048Y-86509505D02*
X69666667Y-86604744D01*
X69666667Y-86604744D02*
X69761905Y-86652363D01*
X69761905Y-86652363D02*
X69857143Y-86652363D01*
X70190477Y-86652363D02*
X70190477Y-85985696D01*
X70190477Y-86176172D02*
X70238096Y-86080934D01*
X70238096Y-86080934D02*
X70285715Y-86033315D01*
X70285715Y-86033315D02*
X70380953Y-85985696D01*
X70380953Y-85985696D02*
X70476191Y-85985696D01*
X70952382Y-86652363D02*
X70857144Y-86604744D01*
X70857144Y-86604744D02*
X70809525Y-86557124D01*
X70809525Y-86557124D02*
X70761906Y-86461886D01*
X70761906Y-86461886D02*
X70761906Y-86176172D01*
X70761906Y-86176172D02*
X70809525Y-86080934D01*
X70809525Y-86080934D02*
X70857144Y-86033315D01*
X70857144Y-86033315D02*
X70952382Y-85985696D01*
X70952382Y-85985696D02*
X71095239Y-85985696D01*
X71095239Y-85985696D02*
X71190477Y-86033315D01*
X71190477Y-86033315D02*
X71238096Y-86080934D01*
X71238096Y-86080934D02*
X71285715Y-86176172D01*
X71285715Y-86176172D02*
X71285715Y-86461886D01*
X71285715Y-86461886D02*
X71238096Y-86557124D01*
X71238096Y-86557124D02*
X71190477Y-86604744D01*
X71190477Y-86604744D02*
X71095239Y-86652363D01*
X71095239Y-86652363D02*
X70952382Y-86652363D01*
X71714287Y-86652363D02*
X71714287Y-85985696D01*
X71714287Y-86080934D02*
X71761906Y-86033315D01*
X71761906Y-86033315D02*
X71857144Y-85985696D01*
X71857144Y-85985696D02*
X72000001Y-85985696D01*
X72000001Y-85985696D02*
X72095239Y-86033315D01*
X72095239Y-86033315D02*
X72142858Y-86128553D01*
X72142858Y-86128553D02*
X72142858Y-86652363D01*
X72142858Y-86128553D02*
X72190477Y-86033315D01*
X72190477Y-86033315D02*
X72285715Y-85985696D01*
X72285715Y-85985696D02*
X72428572Y-85985696D01*
X72428572Y-85985696D02*
X72523811Y-86033315D01*
X72523811Y-86033315D02*
X72571430Y-86128553D01*
X72571430Y-86128553D02*
X72571430Y-86652363D01*
X73476191Y-85985696D02*
X73476191Y-86652363D01*
X73047620Y-85985696D02*
X73047620Y-86509505D01*
X73047620Y-86509505D02*
X73095239Y-86604744D01*
X73095239Y-86604744D02*
X73190477Y-86652363D01*
X73190477Y-86652363D02*
X73333334Y-86652363D01*
X73333334Y-86652363D02*
X73428572Y-86604744D01*
X73428572Y-86604744D02*
X73476191Y-86557124D01*
X73904763Y-86604744D02*
X74000001Y-86652363D01*
X74000001Y-86652363D02*
X74190477Y-86652363D01*
X74190477Y-86652363D02*
X74285715Y-86604744D01*
X74285715Y-86604744D02*
X74333334Y-86509505D01*
X74333334Y-86509505D02*
X74333334Y-86461886D01*
X74333334Y-86461886D02*
X74285715Y-86366648D01*
X74285715Y-86366648D02*
X74190477Y-86319029D01*
X74190477Y-86319029D02*
X74047620Y-86319029D01*
X74047620Y-86319029D02*
X73952382Y-86271410D01*
X73952382Y-86271410D02*
X73904763Y-86176172D01*
X73904763Y-86176172D02*
X73904763Y-86128553D01*
X73904763Y-86128553D02*
X73952382Y-86033315D01*
X73952382Y-86033315D02*
X74047620Y-85985696D01*
X74047620Y-85985696D02*
X74190477Y-85985696D01*
X74190477Y-85985696D02*
X74285715Y-86033315D01*
X74761906Y-86652363D02*
X74761906Y-85985696D01*
X74761906Y-85652363D02*
X74714287Y-85699982D01*
X74714287Y-85699982D02*
X74761906Y-85747601D01*
X74761906Y-85747601D02*
X74809525Y-85699982D01*
X74809525Y-85699982D02*
X74761906Y-85652363D01*
X74761906Y-85652363D02*
X74761906Y-85747601D01*
X75666667Y-86604744D02*
X75571429Y-86652363D01*
X75571429Y-86652363D02*
X75380953Y-86652363D01*
X75380953Y-86652363D02*
X75285715Y-86604744D01*
X75285715Y-86604744D02*
X75238096Y-86557124D01*
X75238096Y-86557124D02*
X75190477Y-86461886D01*
X75190477Y-86461886D02*
X75190477Y-86176172D01*
X75190477Y-86176172D02*
X75238096Y-86080934D01*
X75238096Y-86080934D02*
X75285715Y-86033315D01*
X75285715Y-86033315D02*
X75380953Y-85985696D01*
X75380953Y-85985696D02*
X75571429Y-85985696D01*
X75571429Y-85985696D02*
X75666667Y-86033315D01*
X66285714Y-87595640D02*
X66523809Y-88262307D01*
X66523809Y-88262307D02*
X66761904Y-87595640D01*
X67333333Y-87262307D02*
X67428571Y-87262307D01*
X67428571Y-87262307D02*
X67523809Y-87309926D01*
X67523809Y-87309926D02*
X67571428Y-87357545D01*
X67571428Y-87357545D02*
X67619047Y-87452783D01*
X67619047Y-87452783D02*
X67666666Y-87643259D01*
X67666666Y-87643259D02*
X67666666Y-87881354D01*
X67666666Y-87881354D02*
X67619047Y-88071830D01*
X67619047Y-88071830D02*
X67571428Y-88167068D01*
X67571428Y-88167068D02*
X67523809Y-88214688D01*
X67523809Y-88214688D02*
X67428571Y-88262307D01*
X67428571Y-88262307D02*
X67333333Y-88262307D01*
X67333333Y-88262307D02*
X67238095Y-88214688D01*
X67238095Y-88214688D02*
X67190476Y-88167068D01*
X67190476Y-88167068D02*
X67142857Y-88071830D01*
X67142857Y-88071830D02*
X67095238Y-87881354D01*
X67095238Y-87881354D02*
X67095238Y-87643259D01*
X67095238Y-87643259D02*
X67142857Y-87452783D01*
X67142857Y-87452783D02*
X67190476Y-87357545D01*
X67190476Y-87357545D02*
X67238095Y-87309926D01*
X67238095Y-87309926D02*
X67333333Y-87262307D01*
X68095238Y-88167068D02*
X68142857Y-88214688D01*
X68142857Y-88214688D02*
X68095238Y-88262307D01*
X68095238Y-88262307D02*
X68047619Y-88214688D01*
X68047619Y-88214688D02*
X68095238Y-88167068D01*
X68095238Y-88167068D02*
X68095238Y-88262307D01*
X69095237Y-88262307D02*
X68523809Y-88262307D01*
X68809523Y-88262307D02*
X68809523Y-87262307D01*
X68809523Y-87262307D02*
X68714285Y-87405164D01*
X68714285Y-87405164D02*
X68619047Y-87500402D01*
X68619047Y-87500402D02*
X68523809Y-87548021D01*
X70238095Y-87357545D02*
X70285714Y-87309926D01*
X70285714Y-87309926D02*
X70380952Y-87262307D01*
X70380952Y-87262307D02*
X70619047Y-87262307D01*
X70619047Y-87262307D02*
X70714285Y-87309926D01*
X70714285Y-87309926D02*
X70761904Y-87357545D01*
X70761904Y-87357545D02*
X70809523Y-87452783D01*
X70809523Y-87452783D02*
X70809523Y-87548021D01*
X70809523Y-87548021D02*
X70761904Y-87690878D01*
X70761904Y-87690878D02*
X70190476Y-88262307D01*
X70190476Y-88262307D02*
X70809523Y-88262307D01*
X71428571Y-87262307D02*
X71523809Y-87262307D01*
X71523809Y-87262307D02*
X71619047Y-87309926D01*
X71619047Y-87309926D02*
X71666666Y-87357545D01*
X71666666Y-87357545D02*
X71714285Y-87452783D01*
X71714285Y-87452783D02*
X71761904Y-87643259D01*
X71761904Y-87643259D02*
X71761904Y-87881354D01*
X71761904Y-87881354D02*
X71714285Y-88071830D01*
X71714285Y-88071830D02*
X71666666Y-88167068D01*
X71666666Y-88167068D02*
X71619047Y-88214688D01*
X71619047Y-88214688D02*
X71523809Y-88262307D01*
X71523809Y-88262307D02*
X71428571Y-88262307D01*
X71428571Y-88262307D02*
X71333333Y-88214688D01*
X71333333Y-88214688D02*
X71285714Y-88167068D01*
X71285714Y-88167068D02*
X71238095Y-88071830D01*
X71238095Y-88071830D02*
X71190476Y-87881354D01*
X71190476Y-87881354D02*
X71190476Y-87643259D01*
X71190476Y-87643259D02*
X71238095Y-87452783D01*
X71238095Y-87452783D02*
X71285714Y-87357545D01*
X71285714Y-87357545D02*
X71333333Y-87309926D01*
X71333333Y-87309926D02*
X71428571Y-87262307D01*
X72142857Y-87357545D02*
X72190476Y-87309926D01*
X72190476Y-87309926D02*
X72285714Y-87262307D01*
X72285714Y-87262307D02*
X72523809Y-87262307D01*
X72523809Y-87262307D02*
X72619047Y-87309926D01*
X72619047Y-87309926D02*
X72666666Y-87357545D01*
X72666666Y-87357545D02*
X72714285Y-87452783D01*
X72714285Y-87452783D02*
X72714285Y-87548021D01*
X72714285Y-87548021D02*
X72666666Y-87690878D01*
X72666666Y-87690878D02*
X72095238Y-88262307D01*
X72095238Y-88262307D02*
X72714285Y-88262307D01*
X73619047Y-87262307D02*
X73142857Y-87262307D01*
X73142857Y-87262307D02*
X73095238Y-87738497D01*
X73095238Y-87738497D02*
X73142857Y-87690878D01*
X73142857Y-87690878D02*
X73238095Y-87643259D01*
X73238095Y-87643259D02*
X73476190Y-87643259D01*
X73476190Y-87643259D02*
X73571428Y-87690878D01*
X73571428Y-87690878D02*
X73619047Y-87738497D01*
X73619047Y-87738497D02*
X73666666Y-87833735D01*
X73666666Y-87833735D02*
X73666666Y-88071830D01*
X73666666Y-88071830D02*
X73619047Y-88167068D01*
X73619047Y-88167068D02*
X73571428Y-88214688D01*
X73571428Y-88214688D02*
X73476190Y-88262307D01*
X73476190Y-88262307D02*
X73238095Y-88262307D01*
X73238095Y-88262307D02*
X73142857Y-88214688D01*
X73142857Y-88214688D02*
X73095238Y-88167068D01*
X56756265Y-77444800D02*
X56899122Y-77492419D01*
X56899122Y-77492419D02*
X57137217Y-77492419D01*
X57137217Y-77492419D02*
X57232455Y-77444800D01*
X57232455Y-77444800D02*
X57280074Y-77397180D01*
X57280074Y-77397180D02*
X57327693Y-77301942D01*
X57327693Y-77301942D02*
X57327693Y-77206704D01*
X57327693Y-77206704D02*
X57280074Y-77111466D01*
X57280074Y-77111466D02*
X57232455Y-77063847D01*
X57232455Y-77063847D02*
X57137217Y-77016228D01*
X57137217Y-77016228D02*
X56946741Y-76968609D01*
X56946741Y-76968609D02*
X56851503Y-76920990D01*
X56851503Y-76920990D02*
X56803884Y-76873371D01*
X56803884Y-76873371D02*
X56756265Y-76778133D01*
X56756265Y-76778133D02*
X56756265Y-76682895D01*
X56756265Y-76682895D02*
X56803884Y-76587657D01*
X56803884Y-76587657D02*
X56851503Y-76540038D01*
X56851503Y-76540038D02*
X56946741Y-76492419D01*
X56946741Y-76492419D02*
X57184836Y-76492419D01*
X57184836Y-76492419D02*
X57327693Y-76540038D01*
X58327693Y-77397180D02*
X58280074Y-77444800D01*
X58280074Y-77444800D02*
X58137217Y-77492419D01*
X58137217Y-77492419D02*
X58041979Y-77492419D01*
X58041979Y-77492419D02*
X57899122Y-77444800D01*
X57899122Y-77444800D02*
X57803884Y-77349561D01*
X57803884Y-77349561D02*
X57756265Y-77254323D01*
X57756265Y-77254323D02*
X57708646Y-77063847D01*
X57708646Y-77063847D02*
X57708646Y-76920990D01*
X57708646Y-76920990D02*
X57756265Y-76730514D01*
X57756265Y-76730514D02*
X57803884Y-76635276D01*
X57803884Y-76635276D02*
X57899122Y-76540038D01*
X57899122Y-76540038D02*
X58041979Y-76492419D01*
X58041979Y-76492419D02*
X58137217Y-76492419D01*
X58137217Y-76492419D02*
X58280074Y-76540038D01*
X58280074Y-76540038D02*
X58327693Y-76587657D01*
X59232455Y-77492419D02*
X58756265Y-77492419D01*
X58756265Y-77492419D02*
X58756265Y-76492419D01*
X56756265Y-74904800D02*
X56899122Y-74952419D01*
X56899122Y-74952419D02*
X57137217Y-74952419D01*
X57137217Y-74952419D02*
X57232455Y-74904800D01*
X57232455Y-74904800D02*
X57280074Y-74857180D01*
X57280074Y-74857180D02*
X57327693Y-74761942D01*
X57327693Y-74761942D02*
X57327693Y-74666704D01*
X57327693Y-74666704D02*
X57280074Y-74571466D01*
X57280074Y-74571466D02*
X57232455Y-74523847D01*
X57232455Y-74523847D02*
X57137217Y-74476228D01*
X57137217Y-74476228D02*
X56946741Y-74428609D01*
X56946741Y-74428609D02*
X56851503Y-74380990D01*
X56851503Y-74380990D02*
X56803884Y-74333371D01*
X56803884Y-74333371D02*
X56756265Y-74238133D01*
X56756265Y-74238133D02*
X56756265Y-74142895D01*
X56756265Y-74142895D02*
X56803884Y-74047657D01*
X56803884Y-74047657D02*
X56851503Y-74000038D01*
X56851503Y-74000038D02*
X56946741Y-73952419D01*
X56946741Y-73952419D02*
X57184836Y-73952419D01*
X57184836Y-73952419D02*
X57327693Y-74000038D01*
X57756265Y-74952419D02*
X57756265Y-73952419D01*
X57756265Y-73952419D02*
X57994360Y-73952419D01*
X57994360Y-73952419D02*
X58137217Y-74000038D01*
X58137217Y-74000038D02*
X58232455Y-74095276D01*
X58232455Y-74095276D02*
X58280074Y-74190514D01*
X58280074Y-74190514D02*
X58327693Y-74380990D01*
X58327693Y-74380990D02*
X58327693Y-74523847D01*
X58327693Y-74523847D02*
X58280074Y-74714323D01*
X58280074Y-74714323D02*
X58232455Y-74809561D01*
X58232455Y-74809561D02*
X58137217Y-74904800D01*
X58137217Y-74904800D02*
X57994360Y-74952419D01*
X57994360Y-74952419D02*
X57756265Y-74952419D01*
X58708646Y-74666704D02*
X59184836Y-74666704D01*
X58613408Y-74952419D02*
X58946741Y-73952419D01*
X58946741Y-73952419D02*
X59280074Y-74952419D01*
X56708646Y-71412419D02*
X57327693Y-71412419D01*
X57327693Y-71412419D02*
X56994360Y-71793371D01*
X56994360Y-71793371D02*
X57137217Y-71793371D01*
X57137217Y-71793371D02*
X57232455Y-71840990D01*
X57232455Y-71840990D02*
X57280074Y-71888609D01*
X57280074Y-71888609D02*
X57327693Y-71983847D01*
X57327693Y-71983847D02*
X57327693Y-72221942D01*
X57327693Y-72221942D02*
X57280074Y-72317180D01*
X57280074Y-72317180D02*
X57232455Y-72364800D01*
X57232455Y-72364800D02*
X57137217Y-72412419D01*
X57137217Y-72412419D02*
X56851503Y-72412419D01*
X56851503Y-72412419D02*
X56756265Y-72364800D01*
X56756265Y-72364800D02*
X56708646Y-72317180D01*
X57613408Y-71412419D02*
X57946741Y-72412419D01*
X57946741Y-72412419D02*
X58280074Y-71412419D01*
X58518170Y-71412419D02*
X59137217Y-71412419D01*
X59137217Y-71412419D02*
X58803884Y-71793371D01*
X58803884Y-71793371D02*
X58946741Y-71793371D01*
X58946741Y-71793371D02*
X59041979Y-71840990D01*
X59041979Y-71840990D02*
X59089598Y-71888609D01*
X59089598Y-71888609D02*
X59137217Y-71983847D01*
X59137217Y-71983847D02*
X59137217Y-72221942D01*
X59137217Y-72221942D02*
X59089598Y-72317180D01*
X59089598Y-72317180D02*
X59041979Y-72364800D01*
X59041979Y-72364800D02*
X58946741Y-72412419D01*
X58946741Y-72412419D02*
X58661027Y-72412419D01*
X58661027Y-72412419D02*
X58565789Y-72364800D01*
X58565789Y-72364800D02*
X58518170Y-72317180D01*
X57327693Y-68920038D02*
X57232455Y-68872419D01*
X57232455Y-68872419D02*
X57089598Y-68872419D01*
X57089598Y-68872419D02*
X56946741Y-68920038D01*
X56946741Y-68920038D02*
X56851503Y-69015276D01*
X56851503Y-69015276D02*
X56803884Y-69110514D01*
X56803884Y-69110514D02*
X56756265Y-69300990D01*
X56756265Y-69300990D02*
X56756265Y-69443847D01*
X56756265Y-69443847D02*
X56803884Y-69634323D01*
X56803884Y-69634323D02*
X56851503Y-69729561D01*
X56851503Y-69729561D02*
X56946741Y-69824800D01*
X56946741Y-69824800D02*
X57089598Y-69872419D01*
X57089598Y-69872419D02*
X57184836Y-69872419D01*
X57184836Y-69872419D02*
X57327693Y-69824800D01*
X57327693Y-69824800D02*
X57375312Y-69777180D01*
X57375312Y-69777180D02*
X57375312Y-69443847D01*
X57375312Y-69443847D02*
X57184836Y-69443847D01*
X57803884Y-69872419D02*
X57803884Y-68872419D01*
X57803884Y-68872419D02*
X58375312Y-69872419D01*
X58375312Y-69872419D02*
X58375312Y-68872419D01*
X58851503Y-69872419D02*
X58851503Y-68872419D01*
X58851503Y-68872419D02*
X59089598Y-68872419D01*
X59089598Y-68872419D02*
X59232455Y-68920038D01*
X59232455Y-68920038D02*
X59327693Y-69015276D01*
X59327693Y-69015276D02*
X59375312Y-69110514D01*
X59375312Y-69110514D02*
X59422931Y-69300990D01*
X59422931Y-69300990D02*
X59422931Y-69443847D01*
X59422931Y-69443847D02*
X59375312Y-69634323D01*
X59375312Y-69634323D02*
X59327693Y-69729561D01*
X59327693Y-69729561D02*
X59232455Y-69824800D01*
X59232455Y-69824800D02*
X59089598Y-69872419D01*
X59089598Y-69872419D02*
X58851503Y-69872419D01*
X57280074Y-66332419D02*
X56803884Y-66332419D01*
X56803884Y-66332419D02*
X56756265Y-66808609D01*
X56756265Y-66808609D02*
X56803884Y-66760990D01*
X56803884Y-66760990D02*
X56899122Y-66713371D01*
X56899122Y-66713371D02*
X57137217Y-66713371D01*
X57137217Y-66713371D02*
X57232455Y-66760990D01*
X57232455Y-66760990D02*
X57280074Y-66808609D01*
X57280074Y-66808609D02*
X57327693Y-66903847D01*
X57327693Y-66903847D02*
X57327693Y-67141942D01*
X57327693Y-67141942D02*
X57280074Y-67237180D01*
X57280074Y-67237180D02*
X57232455Y-67284800D01*
X57232455Y-67284800D02*
X57137217Y-67332419D01*
X57137217Y-67332419D02*
X56899122Y-67332419D01*
X56899122Y-67332419D02*
X56803884Y-67284800D01*
X56803884Y-67284800D02*
X56756265Y-67237180D01*
X57613408Y-66332419D02*
X57946741Y-67332419D01*
X57946741Y-67332419D02*
X58280074Y-66332419D01*
D11*
X84050000Y-76904819D02*
X84240476Y-76904819D01*
X84240476Y-76904819D02*
X84335714Y-76952438D01*
X84335714Y-76952438D02*
X84430952Y-77047676D01*
X84430952Y-77047676D02*
X84478571Y-77238152D01*
X84478571Y-77238152D02*
X84478571Y-77571485D01*
X84478571Y-77571485D02*
X84430952Y-77761961D01*
X84430952Y-77761961D02*
X84335714Y-77857200D01*
X84335714Y-77857200D02*
X84240476Y-77904819D01*
X84240476Y-77904819D02*
X84050000Y-77904819D01*
X84050000Y-77904819D02*
X83954762Y-77857200D01*
X83954762Y-77857200D02*
X83859524Y-77761961D01*
X83859524Y-77761961D02*
X83811905Y-77571485D01*
X83811905Y-77571485D02*
X83811905Y-77238152D01*
X83811905Y-77238152D02*
X83859524Y-77047676D01*
X83859524Y-77047676D02*
X83954762Y-76952438D01*
X83954762Y-76952438D02*
X84050000Y-76904819D01*
X84907143Y-76904819D02*
X84907143Y-77714342D01*
X84907143Y-77714342D02*
X84954762Y-77809580D01*
X84954762Y-77809580D02*
X85002381Y-77857200D01*
X85002381Y-77857200D02*
X85097619Y-77904819D01*
X85097619Y-77904819D02*
X85288095Y-77904819D01*
X85288095Y-77904819D02*
X85383333Y-77857200D01*
X85383333Y-77857200D02*
X85430952Y-77809580D01*
X85430952Y-77809580D02*
X85478571Y-77714342D01*
X85478571Y-77714342D02*
X85478571Y-76904819D01*
X85811905Y-76904819D02*
X86383333Y-76904819D01*
X86097619Y-77904819D02*
X86097619Y-76904819D01*
X71496429Y-80984580D02*
X71544048Y-81032200D01*
X71544048Y-81032200D02*
X71496429Y-81079819D01*
X71496429Y-81079819D02*
X71448810Y-81032200D01*
X71448810Y-81032200D02*
X71496429Y-80984580D01*
X71496429Y-80984580D02*
X71496429Y-81079819D01*
X72496428Y-81079819D02*
X71925000Y-81079819D01*
X72210714Y-81079819D02*
X72210714Y-80079819D01*
X72210714Y-80079819D02*
X72115476Y-80222676D01*
X72115476Y-80222676D02*
X72020238Y-80317914D01*
X72020238Y-80317914D02*
X71925000Y-80365533D01*
X73353571Y-80413152D02*
X73353571Y-81079819D01*
X72925000Y-80413152D02*
X72925000Y-80936961D01*
X72925000Y-80936961D02*
X72972619Y-81032200D01*
X72972619Y-81032200D02*
X73067857Y-81079819D01*
X73067857Y-81079819D02*
X73210714Y-81079819D01*
X73210714Y-81079819D02*
X73305952Y-81032200D01*
X73305952Y-81032200D02*
X73353571Y-80984580D01*
X56690476Y-86454819D02*
X56690476Y-85454819D01*
X56690476Y-85454819D02*
X57023809Y-86169104D01*
X57023809Y-86169104D02*
X57357142Y-85454819D01*
X57357142Y-85454819D02*
X57357142Y-86454819D01*
X57738095Y-85454819D02*
X58357142Y-85454819D01*
X58357142Y-85454819D02*
X58023809Y-85835771D01*
X58023809Y-85835771D02*
X58166666Y-85835771D01*
X58166666Y-85835771D02*
X58261904Y-85883390D01*
X58261904Y-85883390D02*
X58309523Y-85931009D01*
X58309523Y-85931009D02*
X58357142Y-86026247D01*
X58357142Y-86026247D02*
X58357142Y-86264342D01*
X58357142Y-86264342D02*
X58309523Y-86359580D01*
X58309523Y-86359580D02*
X58261904Y-86407200D01*
X58261904Y-86407200D02*
X58166666Y-86454819D01*
X58166666Y-86454819D02*
X57880952Y-86454819D01*
X57880952Y-86454819D02*
X57785714Y-86407200D01*
X57785714Y-86407200D02*
X57738095Y-86359580D01*
X81690476Y-86454819D02*
X81690476Y-85454819D01*
X81690476Y-85454819D02*
X82023809Y-86169104D01*
X82023809Y-86169104D02*
X82357142Y-85454819D01*
X82357142Y-85454819D02*
X82357142Y-86454819D01*
X82738095Y-85454819D02*
X83357142Y-85454819D01*
X83357142Y-85454819D02*
X83023809Y-85835771D01*
X83023809Y-85835771D02*
X83166666Y-85835771D01*
X83166666Y-85835771D02*
X83261904Y-85883390D01*
X83261904Y-85883390D02*
X83309523Y-85931009D01*
X83309523Y-85931009D02*
X83357142Y-86026247D01*
X83357142Y-86026247D02*
X83357142Y-86264342D01*
X83357142Y-86264342D02*
X83309523Y-86359580D01*
X83309523Y-86359580D02*
X83261904Y-86407200D01*
X83261904Y-86407200D02*
X83166666Y-86454819D01*
X83166666Y-86454819D02*
X82880952Y-86454819D01*
X82880952Y-86454819D02*
X82785714Y-86407200D01*
X82785714Y-86407200D02*
X82738095Y-86359580D01*
X81690476Y-54454819D02*
X81690476Y-53454819D01*
X81690476Y-53454819D02*
X82023809Y-54169104D01*
X82023809Y-54169104D02*
X82357142Y-53454819D01*
X82357142Y-53454819D02*
X82357142Y-54454819D01*
X82738095Y-53454819D02*
X83357142Y-53454819D01*
X83357142Y-53454819D02*
X83023809Y-53835771D01*
X83023809Y-53835771D02*
X83166666Y-53835771D01*
X83166666Y-53835771D02*
X83261904Y-53883390D01*
X83261904Y-53883390D02*
X83309523Y-53931009D01*
X83309523Y-53931009D02*
X83357142Y-54026247D01*
X83357142Y-54026247D02*
X83357142Y-54264342D01*
X83357142Y-54264342D02*
X83309523Y-54359580D01*
X83309523Y-54359580D02*
X83261904Y-54407200D01*
X83261904Y-54407200D02*
X83166666Y-54454819D01*
X83166666Y-54454819D02*
X82880952Y-54454819D01*
X82880952Y-54454819D02*
X82785714Y-54407200D01*
X82785714Y-54407200D02*
X82738095Y-54359580D01*
X50895180Y-67955714D02*
X51895180Y-67955714D01*
X51895180Y-67955714D02*
X51895180Y-68193809D01*
X51895180Y-68193809D02*
X51847561Y-68336666D01*
X51847561Y-68336666D02*
X51752323Y-68431904D01*
X51752323Y-68431904D02*
X51657085Y-68479523D01*
X51657085Y-68479523D02*
X51466609Y-68527142D01*
X51466609Y-68527142D02*
X51323752Y-68527142D01*
X51323752Y-68527142D02*
X51133276Y-68479523D01*
X51133276Y-68479523D02*
X51038038Y-68431904D01*
X51038038Y-68431904D02*
X50942800Y-68336666D01*
X50942800Y-68336666D02*
X50895180Y-68193809D01*
X50895180Y-68193809D02*
X50895180Y-67955714D01*
X51561847Y-69384285D02*
X50895180Y-69384285D01*
X51561847Y-68955714D02*
X51038038Y-68955714D01*
X51038038Y-68955714D02*
X50942800Y-69003333D01*
X50942800Y-69003333D02*
X50895180Y-69098571D01*
X50895180Y-69098571D02*
X50895180Y-69241428D01*
X50895180Y-69241428D02*
X50942800Y-69336666D01*
X50942800Y-69336666D02*
X50990419Y-69384285D01*
X51561847Y-69860476D02*
X50561847Y-69860476D01*
X51514228Y-69860476D02*
X51561847Y-69955714D01*
X51561847Y-69955714D02*
X51561847Y-70146190D01*
X51561847Y-70146190D02*
X51514228Y-70241428D01*
X51514228Y-70241428D02*
X51466609Y-70289047D01*
X51466609Y-70289047D02*
X51371371Y-70336666D01*
X51371371Y-70336666D02*
X51085657Y-70336666D01*
X51085657Y-70336666D02*
X50990419Y-70289047D01*
X50990419Y-70289047D02*
X50942800Y-70241428D01*
X50942800Y-70241428D02*
X50895180Y-70146190D01*
X50895180Y-70146190D02*
X50895180Y-69955714D01*
X50895180Y-69955714D02*
X50942800Y-69860476D01*
X51561847Y-70765238D02*
X50561847Y-70765238D01*
X51514228Y-70765238D02*
X51561847Y-70860476D01*
X51561847Y-70860476D02*
X51561847Y-71050952D01*
X51561847Y-71050952D02*
X51514228Y-71146190D01*
X51514228Y-71146190D02*
X51466609Y-71193809D01*
X51466609Y-71193809D02*
X51371371Y-71241428D01*
X51371371Y-71241428D02*
X51085657Y-71241428D01*
X51085657Y-71241428D02*
X50990419Y-71193809D01*
X50990419Y-71193809D02*
X50942800Y-71146190D01*
X50942800Y-71146190D02*
X50895180Y-71050952D01*
X50895180Y-71050952D02*
X50895180Y-70860476D01*
X50895180Y-70860476D02*
X50942800Y-70765238D01*
X50895180Y-72098571D02*
X51418990Y-72098571D01*
X51418990Y-72098571D02*
X51514228Y-72050952D01*
X51514228Y-72050952D02*
X51561847Y-71955714D01*
X51561847Y-71955714D02*
X51561847Y-71765238D01*
X51561847Y-71765238D02*
X51514228Y-71670000D01*
X50942800Y-72098571D02*
X50895180Y-72003333D01*
X50895180Y-72003333D02*
X50895180Y-71765238D01*
X50895180Y-71765238D02*
X50942800Y-71670000D01*
X50942800Y-71670000D02*
X51038038Y-71622381D01*
X51038038Y-71622381D02*
X51133276Y-71622381D01*
X51133276Y-71622381D02*
X51228514Y-71670000D01*
X51228514Y-71670000D02*
X51276133Y-71765238D01*
X51276133Y-71765238D02*
X51276133Y-72003333D01*
X51276133Y-72003333D02*
X51323752Y-72098571D01*
X50895180Y-73146190D02*
X51371371Y-72812857D01*
X50895180Y-72574762D02*
X51895180Y-72574762D01*
X51895180Y-72574762D02*
X51895180Y-72955714D01*
X51895180Y-72955714D02*
X51847561Y-73050952D01*
X51847561Y-73050952D02*
X51799942Y-73098571D01*
X51799942Y-73098571D02*
X51704704Y-73146190D01*
X51704704Y-73146190D02*
X51561847Y-73146190D01*
X51561847Y-73146190D02*
X51466609Y-73098571D01*
X51466609Y-73098571D02*
X51418990Y-73050952D01*
X51418990Y-73050952D02*
X51371371Y-72955714D01*
X51371371Y-72955714D02*
X51371371Y-72574762D01*
X50895180Y-73574762D02*
X51561847Y-73574762D01*
X51895180Y-73574762D02*
X51847561Y-73527143D01*
X51847561Y-73527143D02*
X51799942Y-73574762D01*
X51799942Y-73574762D02*
X51847561Y-73622381D01*
X51847561Y-73622381D02*
X51895180Y-73574762D01*
X51895180Y-73574762D02*
X51799942Y-73574762D01*
X51561847Y-74050952D02*
X50895180Y-74050952D01*
X51466609Y-74050952D02*
X51514228Y-74098571D01*
X51514228Y-74098571D02*
X51561847Y-74193809D01*
X51561847Y-74193809D02*
X51561847Y-74336666D01*
X51561847Y-74336666D02*
X51514228Y-74431904D01*
X51514228Y-74431904D02*
X51418990Y-74479523D01*
X51418990Y-74479523D02*
X50895180Y-74479523D01*
X51561847Y-75384285D02*
X50752323Y-75384285D01*
X50752323Y-75384285D02*
X50657085Y-75336666D01*
X50657085Y-75336666D02*
X50609466Y-75289047D01*
X50609466Y-75289047D02*
X50561847Y-75193809D01*
X50561847Y-75193809D02*
X50561847Y-75050952D01*
X50561847Y-75050952D02*
X50609466Y-74955714D01*
X50942800Y-75384285D02*
X50895180Y-75289047D01*
X50895180Y-75289047D02*
X50895180Y-75098571D01*
X50895180Y-75098571D02*
X50942800Y-75003333D01*
X50942800Y-75003333D02*
X50990419Y-74955714D01*
X50990419Y-74955714D02*
X51085657Y-74908095D01*
X51085657Y-74908095D02*
X51371371Y-74908095D01*
X51371371Y-74908095D02*
X51466609Y-74955714D01*
X51466609Y-74955714D02*
X51514228Y-75003333D01*
X51514228Y-75003333D02*
X51561847Y-75098571D01*
X51561847Y-75098571D02*
X51561847Y-75289047D01*
X51561847Y-75289047D02*
X51514228Y-75384285D01*
X84019523Y-62379819D02*
X83448095Y-62379819D01*
X83733809Y-62379819D02*
X83733809Y-61379819D01*
X83733809Y-61379819D02*
X83638571Y-61522676D01*
X83638571Y-61522676D02*
X83543333Y-61617914D01*
X83543333Y-61617914D02*
X83448095Y-61665533D01*
X84638571Y-61379819D02*
X84733809Y-61379819D01*
X84733809Y-61379819D02*
X84829047Y-61427438D01*
X84829047Y-61427438D02*
X84876666Y-61475057D01*
X84876666Y-61475057D02*
X84924285Y-61570295D01*
X84924285Y-61570295D02*
X84971904Y-61760771D01*
X84971904Y-61760771D02*
X84971904Y-61998866D01*
X84971904Y-61998866D02*
X84924285Y-62189342D01*
X84924285Y-62189342D02*
X84876666Y-62284580D01*
X84876666Y-62284580D02*
X84829047Y-62332200D01*
X84829047Y-62332200D02*
X84733809Y-62379819D01*
X84733809Y-62379819D02*
X84638571Y-62379819D01*
X84638571Y-62379819D02*
X84543333Y-62332200D01*
X84543333Y-62332200D02*
X84495714Y-62284580D01*
X84495714Y-62284580D02*
X84448095Y-62189342D01*
X84448095Y-62189342D02*
X84400476Y-61998866D01*
X84400476Y-61998866D02*
X84400476Y-61760771D01*
X84400476Y-61760771D02*
X84448095Y-61570295D01*
X84448095Y-61570295D02*
X84495714Y-61475057D01*
X84495714Y-61475057D02*
X84543333Y-61427438D01*
X84543333Y-61427438D02*
X84638571Y-61379819D01*
X83400476Y-58129819D02*
X84019523Y-58129819D01*
X84019523Y-58129819D02*
X83686190Y-58510771D01*
X83686190Y-58510771D02*
X83829047Y-58510771D01*
X83829047Y-58510771D02*
X83924285Y-58558390D01*
X83924285Y-58558390D02*
X83971904Y-58606009D01*
X83971904Y-58606009D02*
X84019523Y-58701247D01*
X84019523Y-58701247D02*
X84019523Y-58939342D01*
X84019523Y-58939342D02*
X83971904Y-59034580D01*
X83971904Y-59034580D02*
X83924285Y-59082200D01*
X83924285Y-59082200D02*
X83829047Y-59129819D01*
X83829047Y-59129819D02*
X83543333Y-59129819D01*
X83543333Y-59129819D02*
X83448095Y-59082200D01*
X83448095Y-59082200D02*
X83400476Y-59034580D01*
X84352857Y-58129819D02*
X84971904Y-58129819D01*
X84971904Y-58129819D02*
X84638571Y-58510771D01*
X84638571Y-58510771D02*
X84781428Y-58510771D01*
X84781428Y-58510771D02*
X84876666Y-58558390D01*
X84876666Y-58558390D02*
X84924285Y-58606009D01*
X84924285Y-58606009D02*
X84971904Y-58701247D01*
X84971904Y-58701247D02*
X84971904Y-58939342D01*
X84971904Y-58939342D02*
X84924285Y-59034580D01*
X84924285Y-59034580D02*
X84876666Y-59082200D01*
X84876666Y-59082200D02*
X84781428Y-59129819D01*
X84781428Y-59129819D02*
X84495714Y-59129819D01*
X84495714Y-59129819D02*
X84400476Y-59082200D01*
X84400476Y-59082200D02*
X84352857Y-59034580D01*
X69409523Y-67229819D02*
X68838095Y-67229819D01*
X69123809Y-67229819D02*
X69123809Y-66229819D01*
X69123809Y-66229819D02*
X69028571Y-66372676D01*
X69028571Y-66372676D02*
X68933333Y-66467914D01*
X68933333Y-66467914D02*
X68838095Y-66515533D01*
X70028571Y-66229819D02*
X70123809Y-66229819D01*
X70123809Y-66229819D02*
X70219047Y-66277438D01*
X70219047Y-66277438D02*
X70266666Y-66325057D01*
X70266666Y-66325057D02*
X70314285Y-66420295D01*
X70314285Y-66420295D02*
X70361904Y-66610771D01*
X70361904Y-66610771D02*
X70361904Y-66848866D01*
X70361904Y-66848866D02*
X70314285Y-67039342D01*
X70314285Y-67039342D02*
X70266666Y-67134580D01*
X70266666Y-67134580D02*
X70219047Y-67182200D01*
X70219047Y-67182200D02*
X70123809Y-67229819D01*
X70123809Y-67229819D02*
X70028571Y-67229819D01*
X70028571Y-67229819D02*
X69933333Y-67182200D01*
X69933333Y-67182200D02*
X69885714Y-67134580D01*
X69885714Y-67134580D02*
X69838095Y-67039342D01*
X69838095Y-67039342D02*
X69790476Y-66848866D01*
X69790476Y-66848866D02*
X69790476Y-66610771D01*
X69790476Y-66610771D02*
X69838095Y-66420295D01*
X69838095Y-66420295D02*
X69885714Y-66325057D01*
X69885714Y-66325057D02*
X69933333Y-66277438D01*
X69933333Y-66277438D02*
X70028571Y-66229819D01*
X70790476Y-67229819D02*
X70790476Y-66229819D01*
X71361904Y-67229819D02*
X70933333Y-66658390D01*
X71361904Y-66229819D02*
X70790476Y-66801247D01*
X56690476Y-54454819D02*
X56690476Y-53454819D01*
X56690476Y-53454819D02*
X57023809Y-54169104D01*
X57023809Y-54169104D02*
X57357142Y-53454819D01*
X57357142Y-53454819D02*
X57357142Y-54454819D01*
X57738095Y-53454819D02*
X58357142Y-53454819D01*
X58357142Y-53454819D02*
X58023809Y-53835771D01*
X58023809Y-53835771D02*
X58166666Y-53835771D01*
X58166666Y-53835771D02*
X58261904Y-53883390D01*
X58261904Y-53883390D02*
X58309523Y-53931009D01*
X58309523Y-53931009D02*
X58357142Y-54026247D01*
X58357142Y-54026247D02*
X58357142Y-54264342D01*
X58357142Y-54264342D02*
X58309523Y-54359580D01*
X58309523Y-54359580D02*
X58261904Y-54407200D01*
X58261904Y-54407200D02*
X58166666Y-54454819D01*
X58166666Y-54454819D02*
X57880952Y-54454819D01*
X57880952Y-54454819D02*
X57785714Y-54407200D01*
X57785714Y-54407200D02*
X57738095Y-54359580D01*
D12*
%TO.C,J2*%
X79200000Y-64000000D02*
X90200000Y-64000000D01*
X79200000Y-76000000D02*
X79200000Y-64000000D01*
X90200000Y-64000000D02*
X90200000Y-65500000D01*
X90200000Y-65500000D02*
X91400000Y-65500000D01*
X90200000Y-68000000D02*
X90200000Y-72000000D01*
X90200000Y-72000000D02*
X93200000Y-72000000D01*
X90200000Y-74500000D02*
X90200000Y-76000000D01*
X90200000Y-76000000D02*
X79200000Y-76000000D01*
X91400000Y-65500000D02*
X91400000Y-67000000D01*
X91400000Y-67000000D02*
X93200000Y-67000000D01*
X91400000Y-73000000D02*
X91400000Y-74500000D01*
X91400000Y-74500000D02*
X90200000Y-74500000D01*
X93200000Y-67000000D02*
X93200000Y-73000000D01*
X93200000Y-68000000D02*
X90200000Y-68000000D01*
X93200000Y-73000000D02*
X91400000Y-73000000D01*
%TO.C,C1*%
X69305000Y-79255000D02*
X69305000Y-79700000D01*
X69305000Y-79255000D02*
X75545000Y-79255000D01*
X69305000Y-81550000D02*
X69305000Y-81995000D01*
X69305000Y-81995000D02*
X75545000Y-81995000D01*
X75545000Y-79255000D02*
X75545000Y-79700000D01*
X75545000Y-81550000D02*
X75545000Y-81995000D01*
%TO.C,J1*%
X53020000Y-65545000D02*
X54350000Y-65545000D01*
X53020000Y-66875000D02*
X53020000Y-65545000D01*
X53020000Y-68145000D02*
X53020000Y-78365000D01*
X53020000Y-68145000D02*
X55680000Y-68145000D01*
X53020000Y-78365000D02*
X55680000Y-78365000D01*
X55680000Y-68145000D02*
X55680000Y-78365000D01*
%TO.C,R3*%
X80940000Y-60555000D02*
X87480000Y-60555000D01*
X80940000Y-60885000D02*
X80940000Y-60555000D01*
X80940000Y-62965000D02*
X80940000Y-63295000D01*
X80940000Y-63295000D02*
X87480000Y-63295000D01*
X87480000Y-60555000D02*
X87480000Y-60885000D01*
X87480000Y-63295000D02*
X87480000Y-62965000D01*
%TO.C,R2*%
X80940000Y-57305000D02*
X87480000Y-57305000D01*
X80940000Y-57635000D02*
X80940000Y-57305000D01*
X80940000Y-59715000D02*
X80940000Y-60045000D01*
X80940000Y-60045000D02*
X87480000Y-60045000D01*
X87480000Y-57305000D02*
X87480000Y-57635000D01*
X87480000Y-60045000D02*
X87480000Y-59715000D01*
%TO.C,RV1*%
X64979000Y-64380000D02*
X75020000Y-64380000D01*
X64979000Y-68316000D02*
X64979000Y-64380000D01*
X64979000Y-76620000D02*
X64979000Y-72683000D01*
X64979000Y-76620000D02*
X66300000Y-76620000D01*
X68750000Y-76620000D02*
X69130000Y-76620000D01*
X70871000Y-76620000D02*
X71630000Y-76620000D01*
X73370000Y-76620000D02*
X75020000Y-76620000D01*
X75020000Y-68316000D02*
X75020000Y-64380000D01*
X75020000Y-76620000D02*
X75020000Y-72683000D01*
%TD*%
M02*
