%TF.GenerationSoftware,KiCad,Pcbnew,8.0.7*%
%TF.CreationDate,2025-04-07T14:00:10+01:00*%
%TF.ProjectId,WaveshareDuppaController,57617665-7368-4617-9265-447570706143,rev?*%
%TF.SameCoordinates,Original*%
%TF.FileFunction,Copper,L2,Bot*%
%TF.FilePolarity,Positive*%
%FSLAX46Y46*%
G04 Gerber Fmt 4.6, Leading zero omitted, Abs format (unit mm)*
G04 Created by KiCad (PCBNEW 8.0.7) date 2025-04-07 14:00:10*
%MOMM*%
%LPD*%
G01*
G04 APERTURE LIST*
G04 Aperture macros list*
%AMRoundRect*
0 Rectangle with rounded corners*
0 $1 Rounding radius*
0 $2 $3 $4 $5 $6 $7 $8 $9 X,Y pos of 4 corners*
0 Add a 4 corners polygon primitive as box body*
4,1,4,$2,$3,$4,$5,$6,$7,$8,$9,$2,$3,0*
0 Add four circle primitives for the rounded corners*
1,1,$1+$1,$2,$3*
1,1,$1+$1,$4,$5*
1,1,$1+$1,$6,$7*
1,1,$1+$1,$8,$9*
0 Add four rect primitives between the rounded corners*
20,1,$1+$1,$2,$3,$4,$5,0*
20,1,$1+$1,$4,$5,$6,$7,0*
20,1,$1+$1,$6,$7,$8,$9,0*
20,1,$1+$1,$8,$9,$2,$3,0*%
G04 Aperture macros list end*
%TA.AperFunction,ComponentPad*%
%ADD10O,2.200000X1.200000*%
%TD*%
%TA.AperFunction,ComponentPad*%
%ADD11O,2.300000X1.600000*%
%TD*%
%TA.AperFunction,ComponentPad*%
%ADD12O,1.200000X2.200000*%
%TD*%
%TA.AperFunction,ComponentPad*%
%ADD13O,2.500000X1.600000*%
%TD*%
%TA.AperFunction,ComponentPad*%
%ADD14C,1.600000*%
%TD*%
%TA.AperFunction,ComponentPad*%
%ADD15R,1.700000X1.700000*%
%TD*%
%TA.AperFunction,ComponentPad*%
%ADD16O,1.700000X1.700000*%
%TD*%
%TA.AperFunction,ComponentPad*%
%ADD17O,1.600000X1.600000*%
%TD*%
%TA.AperFunction,ComponentPad*%
%ADD18R,1.800000X1.800000*%
%TD*%
%TA.AperFunction,ComponentPad*%
%ADD19C,1.800000*%
%TD*%
%TA.AperFunction,ComponentPad*%
%ADD20RoundRect,0.750000X0.750000X-1.250000X0.750000X1.250000X-0.750000X1.250000X-0.750000X-1.250000X0*%
%TD*%
%TA.AperFunction,ViaPad*%
%ADD21C,0.600000*%
%TD*%
%TA.AperFunction,Conductor*%
%ADD22C,0.400000*%
%TD*%
G04 APERTURE END LIST*
D10*
%TO.P,J2,R*%
%TO.N,Net-(J2-PadR)*%
X81900000Y-75000000D03*
D11*
%TO.P,J2,RN*%
%TO.N,N/C*%
X81900000Y-72500000D03*
D12*
%TO.P,J2,S*%
%TO.N,GND*%
X86900000Y-70000000D03*
D10*
%TO.P,J2,T*%
%TO.N,Net-(J2-PadT)*%
X81900000Y-65000000D03*
D13*
%TO.P,J2,TN*%
%TO.N,N/C*%
X81900000Y-67500000D03*
%TD*%
D14*
%TO.P,C1,1*%
%TO.N,/ALG*%
X69925000Y-80625000D03*
%TO.P,C1,2*%
%TO.N,GND*%
X74925000Y-80625000D03*
%TD*%
D15*
%TO.P,J1,1,Pin_1*%
%TO.N,+5V*%
X54350000Y-66875000D03*
D16*
%TO.P,J1,2,Pin_2*%
%TO.N,GND*%
X54350000Y-69415000D03*
%TO.P,J1,3,Pin_3*%
%TO.N,+3.3V*%
X54350000Y-71955000D03*
%TO.P,J1,4,Pin_4*%
%TO.N,/SDA*%
X54350000Y-74495000D03*
%TO.P,J1,5,Pin_5*%
%TO.N,/SCL*%
X54350000Y-77035000D03*
%TD*%
D14*
%TO.P,R3,1*%
%TO.N,Net-(J2-PadT)*%
X80400000Y-61925000D03*
D17*
%TO.P,R3,2*%
%TO.N,/TX*%
X88020000Y-61925000D03*
%TD*%
D14*
%TO.P,R2,1*%
%TO.N,Net-(J2-PadR)*%
X80400000Y-58675000D03*
D17*
%TO.P,R2,2*%
%TO.N,+3.3V*%
X88020000Y-58675000D03*
%TD*%
D18*
%TO.P,RV1,1,1*%
%TO.N,GND*%
X67500000Y-77500000D03*
D19*
%TO.P,RV1,2,2*%
%TO.N,/ALG*%
X70000000Y-77500000D03*
%TO.P,RV1,3,3*%
%TO.N,+3.3V*%
X72500000Y-77500000D03*
D20*
%TO.P,RV1,MP*%
%TO.N,N/C*%
X65600000Y-70500000D03*
X74400000Y-70500000D03*
%TD*%
D16*
%TO.P,U1,1,+5V*%
%TO.N,+5V*%
X77620000Y-51440000D03*
%TO.P,U1,2,GND*%
%TO.N,GND*%
X77620000Y-53980000D03*
%TO.P,U1,3,+3V3*%
%TO.N,+3.3V*%
X77620000Y-56520000D03*
%TO.P,U1,4,4*%
%TO.N,/ALG*%
X77620000Y-59060000D03*
%TO.P,U1,5,5*%
%TO.N,unconnected-(U1-Pad5)*%
X77620000Y-61600000D03*
%TO.P,U1,6,6*%
%TO.N,unconnected-(U1-Pad6)*%
X77620000Y-64140000D03*
%TO.P,U1,7,7*%
%TO.N,unconnected-(U1-Pad7)*%
X77620000Y-66680000D03*
%TO.P,U1,8,8*%
%TO.N,unconnected-(U1-Pad8)*%
X77620000Y-69220000D03*
%TO.P,U1,9,9*%
%TO.N,unconnected-(U1-Pad9)*%
X77620000Y-71760000D03*
%TO.P,U1,10,10*%
%TO.N,unconnected-(U1-Pad10)*%
X62380000Y-71760000D03*
%TO.P,U1,11,11*%
%TO.N,unconnected-(U1-Pad11)*%
X62380000Y-69220000D03*
%TO.P,U1,12,12*%
%TO.N,unconnected-(U1-Pad12)*%
X62400000Y-66680000D03*
%TO.P,U1,13,13*%
%TO.N,/SCL*%
X62380000Y-64140000D03*
%TO.P,U1,14,14*%
%TO.N,/SDA*%
X62380000Y-61600000D03*
%TO.P,U1,15,15*%
%TO.N,unconnected-(U1-Pad15)*%
X62380000Y-59060000D03*
%TO.P,U1,16,16*%
%TO.N,unconnected-(U1-Pad16)*%
X62380000Y-56520000D03*
%TO.P,U1,17,17/RX*%
%TO.N,/RX*%
X62380000Y-53980000D03*
%TO.P,U1,18,18/TX*%
%TO.N,/TX*%
X62380000Y-51440000D03*
%TD*%
D21*
%TO.N,GND*%
X86430000Y-60130000D03*
X86440000Y-57430000D03*
X60425000Y-68125000D03*
X66900000Y-53875000D03*
X84570000Y-60150000D03*
X60350000Y-61350000D03*
X72800000Y-53875000D03*
X84590000Y-57430000D03*
X58075000Y-76150000D03*
X68650000Y-68900000D03*
%TD*%
D22*
%TO.N,/TX*%
X89300000Y-57750000D02*
X89300000Y-60745000D01*
X87845025Y-56295025D02*
X89300000Y-57750000D01*
X89300000Y-60745000D02*
X88120000Y-61925000D01*
X84044975Y-56295025D02*
X87845025Y-56295025D01*
X63630000Y-52690000D02*
X80439950Y-52690000D01*
X62380000Y-51440000D02*
X63630000Y-52690000D01*
X80439950Y-52690000D02*
X84044975Y-56295025D01*
%TO.N,/SCL*%
X54350000Y-77035000D02*
X59000000Y-72385000D01*
X59000000Y-72385000D02*
X59000000Y-67420000D01*
X59000000Y-67420000D02*
X62380000Y-64040000D01*
%TO.N,/SDA*%
X54350000Y-74495000D02*
X57700000Y-71145000D01*
X57700000Y-71145000D02*
X57700000Y-66180000D01*
X57700000Y-66180000D02*
X62380000Y-61500000D01*
%TD*%
%TA.AperFunction,Conductor*%
%TO.N,GND*%
G36*
X61218026Y-50520185D02*
G01*
X61263781Y-50572989D01*
X61273725Y-50642147D01*
X61252562Y-50695623D01*
X61205965Y-50762169D01*
X61205964Y-50762171D01*
X61106098Y-50976335D01*
X61106094Y-50976344D01*
X61044938Y-51204586D01*
X61044936Y-51204596D01*
X61024341Y-51439999D01*
X61024341Y-51440000D01*
X61044936Y-51675403D01*
X61044938Y-51675413D01*
X61106094Y-51903655D01*
X61106096Y-51903659D01*
X61106097Y-51903663D01*
X61145715Y-51988623D01*
X61205965Y-52117830D01*
X61205967Y-52117834D01*
X61341501Y-52311395D01*
X61341506Y-52311402D01*
X61508597Y-52478493D01*
X61508603Y-52478498D01*
X61694158Y-52608425D01*
X61737783Y-52663002D01*
X61744977Y-52732500D01*
X61713454Y-52794855D01*
X61694158Y-52811575D01*
X61508597Y-52941505D01*
X61341505Y-53108597D01*
X61205965Y-53302169D01*
X61205964Y-53302171D01*
X61106098Y-53516335D01*
X61106094Y-53516344D01*
X61044938Y-53744586D01*
X61044936Y-53744596D01*
X61024341Y-53979999D01*
X61024341Y-53980000D01*
X61044936Y-54215403D01*
X61044938Y-54215413D01*
X61106094Y-54443655D01*
X61106096Y-54443659D01*
X61106097Y-54443663D01*
X61177180Y-54596100D01*
X61205965Y-54657830D01*
X61205967Y-54657834D01*
X61341501Y-54851395D01*
X61341506Y-54851402D01*
X61508597Y-55018493D01*
X61508603Y-55018498D01*
X61694158Y-55148425D01*
X61737783Y-55203002D01*
X61744977Y-55272500D01*
X61713454Y-55334855D01*
X61694158Y-55351575D01*
X61508597Y-55481505D01*
X61341505Y-55648597D01*
X61205965Y-55842169D01*
X61205964Y-55842171D01*
X61106098Y-56056335D01*
X61106094Y-56056344D01*
X61044938Y-56284586D01*
X61044936Y-56284596D01*
X61024341Y-56519999D01*
X61024341Y-56520000D01*
X61044936Y-56755403D01*
X61044938Y-56755413D01*
X61106094Y-56983655D01*
X61106096Y-56983659D01*
X61106097Y-56983663D01*
X61205965Y-57197830D01*
X61205967Y-57197834D01*
X61253683Y-57265979D01*
X61340079Y-57389365D01*
X61341501Y-57391395D01*
X61341506Y-57391402D01*
X61508597Y-57558493D01*
X61508603Y-57558498D01*
X61694158Y-57688425D01*
X61737783Y-57743002D01*
X61744977Y-57812500D01*
X61713454Y-57874855D01*
X61694158Y-57891575D01*
X61508597Y-58021505D01*
X61341505Y-58188597D01*
X61205965Y-58382169D01*
X61205964Y-58382171D01*
X61106098Y-58596335D01*
X61106094Y-58596344D01*
X61044938Y-58824586D01*
X61044936Y-58824596D01*
X61024341Y-59059999D01*
X61024341Y-59060000D01*
X61044936Y-59295403D01*
X61044938Y-59295413D01*
X61106094Y-59523655D01*
X61106096Y-59523659D01*
X61106097Y-59523663D01*
X61176688Y-59675045D01*
X61205965Y-59737830D01*
X61205967Y-59737834D01*
X61341501Y-59931395D01*
X61341506Y-59931402D01*
X61508597Y-60098493D01*
X61508603Y-60098498D01*
X61694158Y-60228425D01*
X61737783Y-60283002D01*
X61744977Y-60352500D01*
X61713454Y-60414855D01*
X61694158Y-60431575D01*
X61508597Y-60561505D01*
X61341505Y-60728597D01*
X61205965Y-60922169D01*
X61205964Y-60922171D01*
X61106098Y-61136335D01*
X61106094Y-61136344D01*
X61044938Y-61364586D01*
X61044936Y-61364596D01*
X61024341Y-61599999D01*
X61024341Y-61600001D01*
X61040621Y-61786080D01*
X61026854Y-61854580D01*
X61004774Y-61884568D01*
X57155888Y-65733453D01*
X57155885Y-65733456D01*
X57085087Y-65839415D01*
X57079229Y-65848180D01*
X57079224Y-65848189D01*
X57026420Y-65975671D01*
X57026418Y-65975677D01*
X56999500Y-66111004D01*
X56999500Y-70803480D01*
X56979815Y-70870519D01*
X56963181Y-70891161D01*
X55909273Y-71945068D01*
X55847950Y-71978553D01*
X55778258Y-71973569D01*
X55722325Y-71931697D01*
X55698064Y-71868194D01*
X55693707Y-71818390D01*
X55685063Y-71719592D01*
X55623903Y-71491337D01*
X55524035Y-71277171D01*
X55492072Y-71231522D01*
X55388494Y-71083597D01*
X55221402Y-70916506D01*
X55221401Y-70916505D01*
X55035405Y-70786269D01*
X54991781Y-70731692D01*
X54984588Y-70662193D01*
X55016110Y-70599839D01*
X55035405Y-70583119D01*
X55221082Y-70453105D01*
X55388105Y-70286082D01*
X55523600Y-70092578D01*
X55623429Y-69878492D01*
X55623432Y-69878486D01*
X55680636Y-69665000D01*
X54783012Y-69665000D01*
X54815925Y-69607993D01*
X54850000Y-69480826D01*
X54850000Y-69349174D01*
X54815925Y-69222007D01*
X54783012Y-69165000D01*
X55680636Y-69165000D01*
X55680635Y-69164999D01*
X55623432Y-68951513D01*
X55623429Y-68951507D01*
X55523600Y-68737422D01*
X55523599Y-68737420D01*
X55388113Y-68543926D01*
X55388108Y-68543920D01*
X55266053Y-68421865D01*
X55232568Y-68360542D01*
X55237552Y-68290850D01*
X55279424Y-68234917D01*
X55310400Y-68218002D01*
X55442331Y-68168796D01*
X55557546Y-68082546D01*
X55643796Y-67967331D01*
X55694091Y-67832483D01*
X55700500Y-67772873D01*
X55700499Y-65977128D01*
X55694091Y-65917517D01*
X55676437Y-65870185D01*
X55643797Y-65782671D01*
X55643793Y-65782664D01*
X55557547Y-65667455D01*
X55557544Y-65667452D01*
X55442335Y-65581206D01*
X55442328Y-65581202D01*
X55307482Y-65530908D01*
X55307483Y-65530908D01*
X55247883Y-65524501D01*
X55247881Y-65524500D01*
X55247873Y-65524500D01*
X55247864Y-65524500D01*
X53452129Y-65524500D01*
X53452123Y-65524501D01*
X53392516Y-65530908D01*
X53257671Y-65581202D01*
X53257664Y-65581206D01*
X53142455Y-65667452D01*
X53142452Y-65667455D01*
X53056206Y-65782664D01*
X53056202Y-65782671D01*
X53005908Y-65917517D01*
X52999656Y-65975672D01*
X52999501Y-65977123D01*
X52999500Y-65977135D01*
X52999500Y-67772870D01*
X52999501Y-67772876D01*
X53005908Y-67832483D01*
X53056202Y-67967328D01*
X53056206Y-67967335D01*
X53142452Y-68082544D01*
X53142455Y-68082547D01*
X53257664Y-68168793D01*
X53257671Y-68168797D01*
X53291746Y-68181506D01*
X53389598Y-68218002D01*
X53445531Y-68259873D01*
X53469949Y-68325337D01*
X53455098Y-68393610D01*
X53433947Y-68421865D01*
X53311886Y-68543926D01*
X53176400Y-68737420D01*
X53176399Y-68737422D01*
X53076570Y-68951507D01*
X53076567Y-68951513D01*
X53019364Y-69164999D01*
X53019364Y-69165000D01*
X53916988Y-69165000D01*
X53884075Y-69222007D01*
X53850000Y-69349174D01*
X53850000Y-69480826D01*
X53884075Y-69607993D01*
X53916988Y-69665000D01*
X53019364Y-69665000D01*
X53076567Y-69878486D01*
X53076570Y-69878492D01*
X53176399Y-70092578D01*
X53311894Y-70286082D01*
X53478917Y-70453105D01*
X53664595Y-70583119D01*
X53708219Y-70637696D01*
X53715412Y-70707195D01*
X53683890Y-70769549D01*
X53664595Y-70786269D01*
X53478594Y-70916508D01*
X53311505Y-71083597D01*
X53175965Y-71277169D01*
X53175964Y-71277171D01*
X53076098Y-71491335D01*
X53076094Y-71491344D01*
X53014938Y-71719586D01*
X53014936Y-71719596D01*
X52994341Y-71954999D01*
X52994341Y-71955000D01*
X53014936Y-72190403D01*
X53014938Y-72190413D01*
X53076094Y-72418655D01*
X53076096Y-72418659D01*
X53076097Y-72418663D01*
X53161752Y-72602351D01*
X53175965Y-72632830D01*
X53175967Y-72632834D01*
X53311501Y-72826395D01*
X53311506Y-72826402D01*
X53478597Y-72993493D01*
X53478603Y-72993498D01*
X53664158Y-73123425D01*
X53707783Y-73178002D01*
X53714977Y-73247500D01*
X53683454Y-73309855D01*
X53664158Y-73326575D01*
X53478597Y-73456505D01*
X53311505Y-73623597D01*
X53175965Y-73817169D01*
X53175964Y-73817171D01*
X53076098Y-74031335D01*
X53076094Y-74031344D01*
X53014938Y-74259586D01*
X53014936Y-74259596D01*
X52994341Y-74494999D01*
X52994341Y-74495000D01*
X53014936Y-74730403D01*
X53014938Y-74730413D01*
X53076094Y-74958655D01*
X53076096Y-74958659D01*
X53076097Y-74958663D01*
X53175965Y-75172830D01*
X53175967Y-75172834D01*
X53311501Y-75366395D01*
X53311506Y-75366402D01*
X53478597Y-75533493D01*
X53478603Y-75533498D01*
X53664158Y-75663425D01*
X53707783Y-75718002D01*
X53714977Y-75787500D01*
X53683454Y-75849855D01*
X53664158Y-75866575D01*
X53478597Y-75996505D01*
X53311505Y-76163597D01*
X53175965Y-76357169D01*
X53175964Y-76357171D01*
X53076098Y-76571335D01*
X53076094Y-76571344D01*
X53014938Y-76799586D01*
X53014936Y-76799596D01*
X52994341Y-77034999D01*
X52994341Y-77035000D01*
X53014936Y-77270403D01*
X53014938Y-77270413D01*
X53076094Y-77498655D01*
X53076096Y-77498659D01*
X53076097Y-77498663D01*
X53107416Y-77565826D01*
X53175965Y-77712830D01*
X53175967Y-77712834D01*
X53284281Y-77867521D01*
X53311505Y-77906401D01*
X53478599Y-78073495D01*
X53568949Y-78136759D01*
X53672165Y-78209032D01*
X53672167Y-78209033D01*
X53672170Y-78209035D01*
X53886337Y-78308903D01*
X54114592Y-78370063D01*
X54302918Y-78386539D01*
X54349999Y-78390659D01*
X54350000Y-78390659D01*
X54350001Y-78390659D01*
X54389234Y-78387226D01*
X54585408Y-78370063D01*
X54813663Y-78308903D01*
X55027830Y-78209035D01*
X55221401Y-78073495D01*
X55388495Y-77906401D01*
X55524035Y-77712830D01*
X55623903Y-77498663D01*
X55685063Y-77270408D01*
X55705659Y-77035000D01*
X55685063Y-76799592D01*
X55680558Y-76782779D01*
X55682219Y-76712932D01*
X55712649Y-76663006D01*
X55823500Y-76552155D01*
X66100000Y-76552155D01*
X66100000Y-77250000D01*
X67066988Y-77250000D01*
X67034075Y-77307007D01*
X67000000Y-77434174D01*
X67000000Y-77565826D01*
X67034075Y-77692993D01*
X67066988Y-77750000D01*
X66100000Y-77750000D01*
X66100000Y-78447844D01*
X66106401Y-78507372D01*
X66106403Y-78507379D01*
X66156645Y-78642086D01*
X66156649Y-78642093D01*
X66242809Y-78757187D01*
X66242812Y-78757190D01*
X66357906Y-78843350D01*
X66357913Y-78843354D01*
X66492620Y-78893596D01*
X66492627Y-78893598D01*
X66552155Y-78899999D01*
X66552172Y-78900000D01*
X67250000Y-78900000D01*
X67250000Y-77933012D01*
X67307007Y-77965925D01*
X67434174Y-78000000D01*
X67565826Y-78000000D01*
X67692993Y-77965925D01*
X67750000Y-77933012D01*
X67750000Y-78900000D01*
X68447828Y-78900000D01*
X68447844Y-78899999D01*
X68507372Y-78893598D01*
X68507379Y-78893596D01*
X68642086Y-78843354D01*
X68642093Y-78843350D01*
X68757187Y-78757190D01*
X68757190Y-78757187D01*
X68843350Y-78642093D01*
X68843353Y-78642088D01*
X68861678Y-78592955D01*
X68903549Y-78537020D01*
X68969013Y-78512602D01*
X69037286Y-78527453D01*
X69054023Y-78538433D01*
X69231365Y-78676464D01*
X69231371Y-78676468D01*
X69231374Y-78676470D01*
X69435497Y-78786936D01*
X69549487Y-78826068D01*
X69655015Y-78862297D01*
X69655017Y-78862297D01*
X69655019Y-78862298D01*
X69883951Y-78900500D01*
X69883952Y-78900500D01*
X70116048Y-78900500D01*
X70116049Y-78900500D01*
X70344981Y-78862298D01*
X70564503Y-78786936D01*
X70768626Y-78676470D01*
X70951784Y-78533913D01*
X71108979Y-78363153D01*
X71146191Y-78306196D01*
X71199337Y-78260839D01*
X71268569Y-78251415D01*
X71331904Y-78280917D01*
X71353809Y-78306196D01*
X71391016Y-78363147D01*
X71391019Y-78363151D01*
X71391021Y-78363153D01*
X71548216Y-78533913D01*
X71548219Y-78533915D01*
X71548222Y-78533918D01*
X71731365Y-78676464D01*
X71731371Y-78676468D01*
X71731374Y-78676470D01*
X71935497Y-78786936D01*
X72049487Y-78826068D01*
X72155015Y-78862297D01*
X72155017Y-78862297D01*
X72155019Y-78862298D01*
X72383951Y-78900500D01*
X72383952Y-78900500D01*
X72616048Y-78900500D01*
X72616049Y-78900500D01*
X72844981Y-78862298D01*
X73064503Y-78786936D01*
X73268626Y-78676470D01*
X73451784Y-78533913D01*
X73608979Y-78363153D01*
X73735924Y-78168849D01*
X73829157Y-77956300D01*
X73886134Y-77731305D01*
X73905300Y-77500000D01*
X73905300Y-77499993D01*
X73886135Y-77268702D01*
X73886133Y-77268691D01*
X73829157Y-77043699D01*
X73735924Y-76831151D01*
X73608983Y-76636852D01*
X73608980Y-76636849D01*
X73608979Y-76636847D01*
X73451784Y-76466087D01*
X73451779Y-76466083D01*
X73451777Y-76466081D01*
X73268634Y-76323535D01*
X73268628Y-76323531D01*
X73064504Y-76213064D01*
X73064495Y-76213061D01*
X72844984Y-76137702D01*
X72657404Y-76106401D01*
X72616049Y-76099500D01*
X72383951Y-76099500D01*
X72342596Y-76106401D01*
X72155015Y-76137702D01*
X71935504Y-76213061D01*
X71935495Y-76213064D01*
X71731371Y-76323531D01*
X71731365Y-76323535D01*
X71548222Y-76466081D01*
X71548219Y-76466084D01*
X71548216Y-76466086D01*
X71548216Y-76466087D01*
X71523785Y-76492627D01*
X71391015Y-76636854D01*
X71353808Y-76693804D01*
X71300662Y-76739161D01*
X71231430Y-76748584D01*
X71168095Y-76719082D01*
X71146192Y-76693804D01*
X71108984Y-76636854D01*
X71108982Y-76636852D01*
X71108979Y-76636847D01*
X70951784Y-76466087D01*
X70951779Y-76466083D01*
X70951777Y-76466081D01*
X70768634Y-76323535D01*
X70768628Y-76323531D01*
X70564504Y-76213064D01*
X70564495Y-76213061D01*
X70344984Y-76137702D01*
X70157404Y-76106401D01*
X70116049Y-76099500D01*
X69883951Y-76099500D01*
X69842596Y-76106401D01*
X69655015Y-76137702D01*
X69435504Y-76213061D01*
X69435495Y-76213064D01*
X69231372Y-76323531D01*
X69054023Y-76461567D01*
X68989029Y-76487209D01*
X68920489Y-76473642D01*
X68870164Y-76425174D01*
X68861679Y-76407045D01*
X68843355Y-76357915D01*
X68843350Y-76357906D01*
X68757190Y-76242812D01*
X68757187Y-76242809D01*
X68642093Y-76156649D01*
X68642086Y-76156645D01*
X68507379Y-76106403D01*
X68507372Y-76106401D01*
X68447844Y-76100000D01*
X67750000Y-76100000D01*
X67750000Y-77066988D01*
X67692993Y-77034075D01*
X67565826Y-77000000D01*
X67434174Y-77000000D01*
X67307007Y-77034075D01*
X67250000Y-77066988D01*
X67250000Y-76100000D01*
X66552155Y-76100000D01*
X66492627Y-76106401D01*
X66492620Y-76106403D01*
X66357913Y-76156645D01*
X66357906Y-76156649D01*
X66242812Y-76242809D01*
X66242809Y-76242812D01*
X66156649Y-76357906D01*
X66156645Y-76357913D01*
X66106403Y-76492620D01*
X66106401Y-76492627D01*
X66100000Y-76552155D01*
X55823500Y-76552155D01*
X59544114Y-72831543D01*
X59620775Y-72716811D01*
X59622015Y-72713819D01*
X59668185Y-72602352D01*
X59673580Y-72589328D01*
X59700500Y-72453994D01*
X59700500Y-72316006D01*
X59700500Y-67761518D01*
X59720185Y-67694479D01*
X59736814Y-67673842D01*
X60833514Y-66577141D01*
X60894837Y-66543657D01*
X60964529Y-66548641D01*
X61020462Y-66590513D01*
X61044879Y-66655977D01*
X61044723Y-66675628D01*
X61044341Y-66679995D01*
X61044341Y-66680000D01*
X61064936Y-66915403D01*
X61064938Y-66915413D01*
X61126094Y-67143655D01*
X61126096Y-67143659D01*
X61126097Y-67143663D01*
X61225965Y-67357830D01*
X61225967Y-67357834D01*
X61361501Y-67551395D01*
X61361506Y-67551402D01*
X61528597Y-67718493D01*
X61528603Y-67718498D01*
X61704158Y-67841423D01*
X61747783Y-67896000D01*
X61754977Y-67965498D01*
X61723454Y-68027853D01*
X61704158Y-68044573D01*
X61508597Y-68181505D01*
X61341505Y-68348597D01*
X61205965Y-68542169D01*
X61205964Y-68542171D01*
X61106098Y-68756335D01*
X61106094Y-68756344D01*
X61044938Y-68984586D01*
X61044936Y-68984596D01*
X61024341Y-69219999D01*
X61024341Y-69220000D01*
X61044936Y-69455403D01*
X61044938Y-69455413D01*
X61106094Y-69683655D01*
X61106096Y-69683659D01*
X61106097Y-69683663D01*
X61167387Y-69815099D01*
X61205965Y-69897830D01*
X61205967Y-69897834D01*
X61314281Y-70052521D01*
X61336162Y-70083771D01*
X61341501Y-70091395D01*
X61341506Y-70091402D01*
X61508597Y-70258493D01*
X61508603Y-70258498D01*
X61694158Y-70388425D01*
X61737783Y-70443002D01*
X61744977Y-70512500D01*
X61713454Y-70574855D01*
X61694158Y-70591575D01*
X61508597Y-70721505D01*
X61341505Y-70888597D01*
X61205965Y-71082169D01*
X61205964Y-71082171D01*
X61106098Y-71296335D01*
X61106094Y-71296344D01*
X61044938Y-71524586D01*
X61044936Y-71524596D01*
X61024341Y-71759999D01*
X61024341Y-71760000D01*
X61044936Y-71995403D01*
X61044938Y-71995413D01*
X61106094Y-72223655D01*
X61106096Y-72223659D01*
X61106097Y-72223663D01*
X61171744Y-72364443D01*
X61205965Y-72437830D01*
X61205967Y-72437834D01*
X61287760Y-72554645D01*
X61341505Y-72631401D01*
X61508599Y-72798495D01*
X61570741Y-72842007D01*
X61702165Y-72934032D01*
X61702167Y-72934033D01*
X61702170Y-72934035D01*
X61916337Y-73033903D01*
X62144592Y-73095063D01*
X62332918Y-73111539D01*
X62379999Y-73115659D01*
X62380000Y-73115659D01*
X62380001Y-73115659D01*
X62419234Y-73112226D01*
X62615408Y-73095063D01*
X62843663Y-73033903D01*
X63057830Y-72934035D01*
X63251401Y-72798495D01*
X63418495Y-72631401D01*
X63554035Y-72437830D01*
X63563804Y-72416878D01*
X63609972Y-72364443D01*
X63677165Y-72345289D01*
X63744047Y-72365503D01*
X63778113Y-72398669D01*
X63886174Y-72554645D01*
X63886178Y-72554650D01*
X63886181Y-72554654D01*
X64045346Y-72713819D01*
X64045350Y-72713822D01*
X64045354Y-72713825D01*
X64167565Y-72798493D01*
X64230374Y-72842007D01*
X64435317Y-72935096D01*
X64435321Y-72935097D01*
X64653579Y-72990094D01*
X64653581Y-72990094D01*
X64653588Y-72990096D01*
X64785783Y-73000500D01*
X66414216Y-73000499D01*
X66546412Y-72990096D01*
X66764683Y-72935096D01*
X66969626Y-72842007D01*
X67154654Y-72713819D01*
X67313819Y-72554654D01*
X67442007Y-72369626D01*
X67535096Y-72164683D01*
X67590096Y-71946412D01*
X67600500Y-71814217D01*
X67600499Y-69185784D01*
X67590096Y-69053588D01*
X67572711Y-68984596D01*
X67535097Y-68835321D01*
X67535096Y-68835318D01*
X67528704Y-68821246D01*
X67442007Y-68630374D01*
X67382116Y-68543926D01*
X67313825Y-68445354D01*
X67313822Y-68445350D01*
X67313819Y-68445346D01*
X67154654Y-68286181D01*
X67154650Y-68286178D01*
X67154645Y-68286174D01*
X66969632Y-68157997D01*
X66969630Y-68157995D01*
X66969626Y-68157993D01*
X66803525Y-68082547D01*
X66764681Y-68064903D01*
X66764678Y-68064902D01*
X66546420Y-68009905D01*
X66546413Y-68009904D01*
X66502347Y-68006436D01*
X66414217Y-67999500D01*
X66414215Y-67999500D01*
X64785791Y-67999500D01*
X64785776Y-67999501D01*
X64653586Y-68009904D01*
X64653579Y-68009905D01*
X64435321Y-68064902D01*
X64435318Y-68064903D01*
X64230377Y-68157991D01*
X64230367Y-68157997D01*
X64045354Y-68286174D01*
X64045342Y-68286184D01*
X63886184Y-68445342D01*
X63886178Y-68445350D01*
X63783687Y-68593285D01*
X63729328Y-68637181D01*
X63659866Y-68644720D01*
X63597355Y-68613508D01*
X63569377Y-68575073D01*
X63554035Y-68542171D01*
X63518882Y-68491966D01*
X63418494Y-68348597D01*
X63251402Y-68181506D01*
X63251396Y-68181501D01*
X63075842Y-68058577D01*
X63032217Y-68004000D01*
X63025023Y-67934502D01*
X63056546Y-67872147D01*
X63075842Y-67855427D01*
X63108611Y-67832482D01*
X63271401Y-67718495D01*
X63438495Y-67551401D01*
X63574035Y-67357830D01*
X63673903Y-67143663D01*
X63735063Y-66915408D01*
X63755659Y-66680000D01*
X63755276Y-66675628D01*
X63741793Y-66521517D01*
X63735063Y-66444592D01*
X63673903Y-66216337D01*
X63574035Y-66002171D01*
X63556501Y-65977129D01*
X63438494Y-65808597D01*
X63271402Y-65641506D01*
X63271401Y-65641505D01*
X63077830Y-65505965D01*
X63077831Y-65505965D01*
X63075841Y-65504572D01*
X63032217Y-65449995D01*
X63025024Y-65380496D01*
X63056546Y-65318142D01*
X63075836Y-65301426D01*
X63251401Y-65178495D01*
X63418495Y-65011401D01*
X63554035Y-64817830D01*
X63653903Y-64603663D01*
X63715063Y-64375408D01*
X63735659Y-64140000D01*
X63715063Y-63904592D01*
X63653903Y-63676337D01*
X63554035Y-63462171D01*
X63534386Y-63434108D01*
X63418494Y-63268597D01*
X63251402Y-63101506D01*
X63251396Y-63101501D01*
X63065842Y-62971575D01*
X63022217Y-62916998D01*
X63015023Y-62847500D01*
X63046546Y-62785145D01*
X63065842Y-62768425D01*
X63088026Y-62752891D01*
X63251401Y-62638495D01*
X63418495Y-62471401D01*
X63554035Y-62277830D01*
X63653903Y-62063663D01*
X63715063Y-61835408D01*
X63735659Y-61600000D01*
X63715063Y-61364592D01*
X63653903Y-61136337D01*
X63554035Y-60922171D01*
X63418495Y-60728599D01*
X63418494Y-60728597D01*
X63251402Y-60561506D01*
X63251396Y-60561501D01*
X63065842Y-60431575D01*
X63022217Y-60376998D01*
X63015023Y-60307500D01*
X63046546Y-60245145D01*
X63065842Y-60228425D01*
X63088026Y-60212891D01*
X63251401Y-60098495D01*
X63418495Y-59931401D01*
X63554035Y-59737830D01*
X63653903Y-59523663D01*
X63715063Y-59295408D01*
X63735659Y-59060000D01*
X63715063Y-58824592D01*
X63653903Y-58596337D01*
X63554035Y-58382171D01*
X63446436Y-58228502D01*
X63418494Y-58188597D01*
X63251402Y-58021506D01*
X63251396Y-58021501D01*
X63065842Y-57891575D01*
X63022217Y-57836998D01*
X63015023Y-57767500D01*
X63046546Y-57705145D01*
X63065842Y-57688425D01*
X63088026Y-57672891D01*
X63251401Y-57558495D01*
X63418495Y-57391401D01*
X63554035Y-57197830D01*
X63653903Y-56983663D01*
X63715063Y-56755408D01*
X63735659Y-56520000D01*
X63715063Y-56284592D01*
X63653903Y-56056337D01*
X63554035Y-55842171D01*
X63537698Y-55818838D01*
X63418494Y-55648597D01*
X63251402Y-55481506D01*
X63251396Y-55481501D01*
X63065842Y-55351575D01*
X63022217Y-55296998D01*
X63015023Y-55227500D01*
X63046546Y-55165145D01*
X63065842Y-55148425D01*
X63088026Y-55132891D01*
X63251401Y-55018495D01*
X63418495Y-54851401D01*
X63554035Y-54657830D01*
X63653903Y-54443663D01*
X63715063Y-54215408D01*
X63735659Y-53980000D01*
X63715063Y-53744592D01*
X63662010Y-53546593D01*
X63663673Y-53476743D01*
X63702836Y-53418881D01*
X63767064Y-53391377D01*
X63781785Y-53390500D01*
X76218733Y-53390500D01*
X76285772Y-53410185D01*
X76331527Y-53462989D01*
X76341471Y-53532147D01*
X76338508Y-53546594D01*
X76289364Y-53729999D01*
X76289364Y-53730000D01*
X77186988Y-53730000D01*
X77154075Y-53787007D01*
X77120000Y-53914174D01*
X77120000Y-54045826D01*
X77154075Y-54172993D01*
X77186988Y-54230000D01*
X76289364Y-54230000D01*
X76346567Y-54443486D01*
X76346570Y-54443492D01*
X76446399Y-54657578D01*
X76581894Y-54851082D01*
X76748917Y-55018105D01*
X76934595Y-55148119D01*
X76978219Y-55202696D01*
X76985412Y-55272195D01*
X76953890Y-55334549D01*
X76934595Y-55351269D01*
X76748594Y-55481508D01*
X76581505Y-55648597D01*
X76445965Y-55842169D01*
X76445964Y-55842171D01*
X76346098Y-56056335D01*
X76346094Y-56056344D01*
X76284938Y-56284586D01*
X76284936Y-56284596D01*
X76264341Y-56519999D01*
X76264341Y-56520000D01*
X76284936Y-56755403D01*
X76284938Y-56755413D01*
X76346094Y-56983655D01*
X76346096Y-56983659D01*
X76346097Y-56983663D01*
X76445965Y-57197830D01*
X76445967Y-57197834D01*
X76493683Y-57265979D01*
X76580079Y-57389365D01*
X76581501Y-57391395D01*
X76581506Y-57391402D01*
X76748597Y-57558493D01*
X76748603Y-57558498D01*
X76934158Y-57688425D01*
X76977783Y-57743002D01*
X76984977Y-57812500D01*
X76953454Y-57874855D01*
X76934158Y-57891575D01*
X76748597Y-58021505D01*
X76581505Y-58188597D01*
X76445965Y-58382169D01*
X76445964Y-58382171D01*
X76346098Y-58596335D01*
X76346094Y-58596344D01*
X76284938Y-58824586D01*
X76284936Y-58824596D01*
X76264341Y-59059999D01*
X76264341Y-59060000D01*
X76284936Y-59295403D01*
X76284938Y-59295413D01*
X76346094Y-59523655D01*
X76346096Y-59523659D01*
X76346097Y-59523663D01*
X76416688Y-59675045D01*
X76445965Y-59737830D01*
X76445967Y-59737834D01*
X76581501Y-59931395D01*
X76581506Y-59931402D01*
X76748597Y-60098493D01*
X76748603Y-60098498D01*
X76934158Y-60228425D01*
X76977783Y-60283002D01*
X76984977Y-60352500D01*
X76953454Y-60414855D01*
X76934158Y-60431575D01*
X76748597Y-60561505D01*
X76581505Y-60728597D01*
X76445965Y-60922169D01*
X76445964Y-60922171D01*
X76346098Y-61136335D01*
X76346094Y-61136344D01*
X76284938Y-61364586D01*
X76284936Y-61364596D01*
X76264341Y-61599999D01*
X76264341Y-61600000D01*
X76284936Y-61835403D01*
X76284938Y-61835413D01*
X76346094Y-62063655D01*
X76346096Y-62063659D01*
X76346097Y-62063663D01*
X76387146Y-62151692D01*
X76445965Y-62277830D01*
X76445967Y-62277834D01*
X76581501Y-62471395D01*
X76581506Y-62471402D01*
X76748597Y-62638493D01*
X76748603Y-62638498D01*
X76934158Y-62768425D01*
X76977783Y-62823002D01*
X76984977Y-62892500D01*
X76953454Y-62954855D01*
X76934158Y-62971575D01*
X76748597Y-63101505D01*
X76581505Y-63268597D01*
X76445965Y-63462169D01*
X76445964Y-63462171D01*
X76346098Y-63676335D01*
X76346094Y-63676344D01*
X76284938Y-63904586D01*
X76284936Y-63904596D01*
X76264341Y-64139999D01*
X76264341Y-64140000D01*
X76284936Y-64375403D01*
X76284938Y-64375413D01*
X76346094Y-64603655D01*
X76346096Y-64603659D01*
X76346097Y-64603663D01*
X76410744Y-64742299D01*
X76445965Y-64817830D01*
X76445967Y-64817834D01*
X76581501Y-65011395D01*
X76581506Y-65011402D01*
X76748597Y-65178493D01*
X76748603Y-65178498D01*
X76934158Y-65308425D01*
X76977783Y-65363002D01*
X76984977Y-65432500D01*
X76953454Y-65494855D01*
X76934158Y-65511575D01*
X76748597Y-65641505D01*
X76581505Y-65808597D01*
X76445965Y-66002169D01*
X76445964Y-66002171D01*
X76346098Y-66216335D01*
X76346094Y-66216344D01*
X76284938Y-66444586D01*
X76284936Y-66444596D01*
X76264341Y-66679999D01*
X76264341Y-66680000D01*
X76284936Y-66915403D01*
X76284938Y-66915413D01*
X76346094Y-67143655D01*
X76346096Y-67143659D01*
X76346097Y-67143663D01*
X76445965Y-67357830D01*
X76445967Y-67357834D01*
X76581501Y-67551395D01*
X76581506Y-67551402D01*
X76748597Y-67718493D01*
X76748603Y-67718498D01*
X76934158Y-67848425D01*
X76977783Y-67903002D01*
X76984977Y-67972500D01*
X76953454Y-68034855D01*
X76934158Y-68051575D01*
X76748597Y-68181505D01*
X76581505Y-68348597D01*
X76445965Y-68542169D01*
X76430620Y-68575076D01*
X76384446Y-68627514D01*
X76317252Y-68646664D01*
X76250371Y-68626446D01*
X76216311Y-68593284D01*
X76113825Y-68445354D01*
X76113822Y-68445350D01*
X76113819Y-68445346D01*
X75954654Y-68286181D01*
X75954650Y-68286178D01*
X75954645Y-68286174D01*
X75769632Y-68157997D01*
X75769630Y-68157995D01*
X75769626Y-68157993D01*
X75603525Y-68082547D01*
X75564681Y-68064903D01*
X75564678Y-68064902D01*
X75346420Y-68009905D01*
X75346413Y-68009904D01*
X75302347Y-68006436D01*
X75214217Y-67999500D01*
X75214215Y-67999500D01*
X73585791Y-67999500D01*
X73585776Y-67999501D01*
X73453586Y-68009904D01*
X73453579Y-68009905D01*
X73235321Y-68064902D01*
X73235318Y-68064903D01*
X73030377Y-68157991D01*
X73030367Y-68157997D01*
X72845354Y-68286174D01*
X72845342Y-68286184D01*
X72686184Y-68445342D01*
X72686174Y-68445354D01*
X72557997Y-68630367D01*
X72557991Y-68630377D01*
X72464903Y-68835318D01*
X72464902Y-68835321D01*
X72409905Y-69053579D01*
X72409904Y-69053586D01*
X72399500Y-69185777D01*
X72399500Y-71814208D01*
X72399501Y-71814223D01*
X72409904Y-71946413D01*
X72409905Y-71946420D01*
X72464902Y-72164678D01*
X72464903Y-72164681D01*
X72557991Y-72369622D01*
X72557997Y-72369632D01*
X72686174Y-72554645D01*
X72686178Y-72554650D01*
X72686181Y-72554654D01*
X72845346Y-72713819D01*
X72845350Y-72713822D01*
X72845354Y-72713825D01*
X72967565Y-72798493D01*
X73030374Y-72842007D01*
X73235317Y-72935096D01*
X73235321Y-72935097D01*
X73453579Y-72990094D01*
X73453581Y-72990094D01*
X73453588Y-72990096D01*
X73585783Y-73000500D01*
X75214216Y-73000499D01*
X75346412Y-72990096D01*
X75564683Y-72935096D01*
X75769626Y-72842007D01*
X75954654Y-72713819D01*
X76113819Y-72554654D01*
X76221886Y-72398669D01*
X76276244Y-72354772D01*
X76345706Y-72347233D01*
X76408217Y-72378444D01*
X76436196Y-72416880D01*
X76445965Y-72437829D01*
X76445967Y-72437834D01*
X76527760Y-72554645D01*
X76581505Y-72631401D01*
X76748599Y-72798495D01*
X76810741Y-72842007D01*
X76942165Y-72934032D01*
X76942167Y-72934033D01*
X76942170Y-72934035D01*
X77156337Y-73033903D01*
X77384592Y-73095063D01*
X77572918Y-73111539D01*
X77619999Y-73115659D01*
X77620000Y-73115659D01*
X77620001Y-73115659D01*
X77659234Y-73112226D01*
X77855408Y-73095063D01*
X78083663Y-73033903D01*
X78297830Y-72934035D01*
X78491401Y-72798495D01*
X78658495Y-72631401D01*
X78794035Y-72437830D01*
X78812772Y-72397648D01*
X80249500Y-72397648D01*
X80249500Y-72602351D01*
X80281522Y-72804534D01*
X80344781Y-72999223D01*
X80437715Y-73181613D01*
X80558028Y-73347213D01*
X80702786Y-73491971D01*
X80857749Y-73604556D01*
X80868390Y-73612287D01*
X80984607Y-73671503D01*
X81050776Y-73705218D01*
X81050778Y-73705218D01*
X81050781Y-73705220D01*
X81074254Y-73712846D01*
X81131928Y-73752284D01*
X81159126Y-73816643D01*
X81147211Y-73885489D01*
X81099967Y-73936965D01*
X81074255Y-73948706D01*
X81040368Y-73959717D01*
X80977550Y-73980128D01*
X80823211Y-74058768D01*
X80776730Y-74092539D01*
X80683072Y-74160586D01*
X80683070Y-74160588D01*
X80683069Y-74160588D01*
X80560588Y-74283069D01*
X80560588Y-74283070D01*
X80560586Y-74283072D01*
X80519681Y-74339373D01*
X80458768Y-74423211D01*
X80380128Y-74577552D01*
X80326597Y-74742302D01*
X80325074Y-74751918D01*
X80299500Y-74913389D01*
X80299500Y-75086611D01*
X80326598Y-75257701D01*
X80380127Y-75422445D01*
X80458768Y-75576788D01*
X80560586Y-75716928D01*
X80683072Y-75839414D01*
X80823212Y-75941232D01*
X80977555Y-76019873D01*
X81142299Y-76073402D01*
X81313389Y-76100500D01*
X81313390Y-76100500D01*
X82486610Y-76100500D01*
X82486611Y-76100500D01*
X82657701Y-76073402D01*
X82822445Y-76019873D01*
X82976788Y-75941232D01*
X83116928Y-75839414D01*
X83239414Y-75716928D01*
X83341232Y-75576788D01*
X83419873Y-75422445D01*
X83473402Y-75257701D01*
X83500500Y-75086611D01*
X83500500Y-74916228D01*
X86049500Y-74916228D01*
X86049500Y-75083771D01*
X86082182Y-75248074D01*
X86082184Y-75248082D01*
X86146295Y-75402860D01*
X86239373Y-75542162D01*
X86357837Y-75660626D01*
X86443707Y-75718002D01*
X86497137Y-75753703D01*
X86651918Y-75817816D01*
X86812990Y-75849855D01*
X86816228Y-75850499D01*
X86816232Y-75850500D01*
X86816233Y-75850500D01*
X86983768Y-75850500D01*
X86983769Y-75850499D01*
X87148082Y-75817816D01*
X87302863Y-75753703D01*
X87442162Y-75660626D01*
X87560626Y-75542162D01*
X87653703Y-75402863D01*
X87717816Y-75248082D01*
X87750500Y-75083767D01*
X87750500Y-74916233D01*
X87717816Y-74751918D01*
X87653703Y-74597137D01*
X87601195Y-74518553D01*
X87560626Y-74457837D01*
X87442162Y-74339373D01*
X87302860Y-74246295D01*
X87148082Y-74182184D01*
X87148074Y-74182182D01*
X86983771Y-74149500D01*
X86983767Y-74149500D01*
X86816233Y-74149500D01*
X86816228Y-74149500D01*
X86651925Y-74182182D01*
X86651917Y-74182184D01*
X86497139Y-74246295D01*
X86357837Y-74339373D01*
X86239373Y-74457837D01*
X86146295Y-74597139D01*
X86082184Y-74751917D01*
X86082182Y-74751925D01*
X86049500Y-74916228D01*
X83500500Y-74916228D01*
X83500500Y-74913389D01*
X83473402Y-74742299D01*
X83419873Y-74577555D01*
X83341232Y-74423212D01*
X83239414Y-74283072D01*
X83116928Y-74160586D01*
X82976788Y-74058768D01*
X82822445Y-73980127D01*
X82725746Y-73948707D01*
X82668071Y-73909270D01*
X82640873Y-73844912D01*
X82652788Y-73776065D01*
X82700032Y-73724590D01*
X82725746Y-73712846D01*
X82749219Y-73705220D01*
X82931610Y-73612287D01*
X83024590Y-73544732D01*
X83097213Y-73491971D01*
X83097215Y-73491968D01*
X83097219Y-73491966D01*
X83241966Y-73347219D01*
X83241968Y-73347215D01*
X83241971Y-73347213D01*
X83294732Y-73274590D01*
X83362287Y-73181610D01*
X83455220Y-72999219D01*
X83518477Y-72804534D01*
X83550500Y-72602352D01*
X83550500Y-72397648D01*
X83518477Y-72195466D01*
X83509310Y-72167254D01*
X83455218Y-72000776D01*
X83387663Y-71868194D01*
X83362287Y-71818390D01*
X83354556Y-71807749D01*
X83241971Y-71652786D01*
X83097213Y-71508028D01*
X82931613Y-71387715D01*
X82931612Y-71387714D01*
X82931610Y-71387713D01*
X82874653Y-71358691D01*
X82749223Y-71294781D01*
X82554534Y-71231522D01*
X82379995Y-71203878D01*
X82352352Y-71199500D01*
X81447648Y-71199500D01*
X81423329Y-71203351D01*
X81245465Y-71231522D01*
X81050776Y-71294781D01*
X80868386Y-71387715D01*
X80702786Y-71508028D01*
X80558028Y-71652786D01*
X80437715Y-71818386D01*
X80344781Y-72000776D01*
X80281522Y-72195465D01*
X80249500Y-72397648D01*
X78812772Y-72397648D01*
X78893903Y-72223663D01*
X78955063Y-71995408D01*
X78975659Y-71760000D01*
X78955063Y-71524592D01*
X78893903Y-71296337D01*
X78794035Y-71082171D01*
X78682063Y-70922257D01*
X78658494Y-70888597D01*
X78491402Y-70721506D01*
X78491396Y-70721501D01*
X78305842Y-70591575D01*
X78262217Y-70536998D01*
X78255023Y-70467500D01*
X78286546Y-70405145D01*
X78305842Y-70388425D01*
X78328026Y-70372891D01*
X78491401Y-70258495D01*
X78658495Y-70091401D01*
X78781153Y-69916228D01*
X81049500Y-69916228D01*
X81049500Y-70083771D01*
X81082182Y-70248074D01*
X81082184Y-70248082D01*
X81146295Y-70402860D01*
X81239373Y-70542162D01*
X81357837Y-70660626D01*
X81448949Y-70721505D01*
X81497137Y-70753703D01*
X81651918Y-70817816D01*
X81816228Y-70850499D01*
X81816232Y-70850500D01*
X81816233Y-70850500D01*
X81983768Y-70850500D01*
X81983769Y-70850499D01*
X82148082Y-70817816D01*
X82302863Y-70753703D01*
X82442162Y-70660626D01*
X82516217Y-70586571D01*
X85800000Y-70586571D01*
X85827085Y-70757584D01*
X85880591Y-70922257D01*
X85959195Y-71076524D01*
X86060967Y-71216602D01*
X86183397Y-71339032D01*
X86323475Y-71440804D01*
X86477744Y-71519408D01*
X86642415Y-71572914D01*
X86642414Y-71572914D01*
X86649999Y-71574115D01*
X87150000Y-71574115D01*
X87157584Y-71572914D01*
X87322255Y-71519408D01*
X87476524Y-71440804D01*
X87616602Y-71339032D01*
X87739032Y-71216602D01*
X87840804Y-71076524D01*
X87919408Y-70922257D01*
X87972914Y-70757584D01*
X88000000Y-70586571D01*
X88000000Y-70250000D01*
X87150000Y-70250000D01*
X87150000Y-71574115D01*
X86649999Y-71574115D01*
X86650000Y-71574114D01*
X86650000Y-70250000D01*
X85800000Y-70250000D01*
X85800000Y-70586571D01*
X82516217Y-70586571D01*
X82560626Y-70542162D01*
X82653703Y-70402863D01*
X82717816Y-70248082D01*
X82750500Y-70083767D01*
X82750500Y-69916233D01*
X82717816Y-69751918D01*
X82653703Y-69597137D01*
X82622537Y-69550494D01*
X82560626Y-69457837D01*
X82516217Y-69413428D01*
X85800000Y-69413428D01*
X85800000Y-69750000D01*
X86650000Y-69750000D01*
X86650000Y-69460218D01*
X86700000Y-69460218D01*
X86700000Y-70539782D01*
X86730448Y-70613291D01*
X86786709Y-70669552D01*
X86860218Y-70700000D01*
X86939782Y-70700000D01*
X87013291Y-70669552D01*
X87069552Y-70613291D01*
X87100000Y-70539782D01*
X87100000Y-69750000D01*
X87150000Y-69750000D01*
X88000000Y-69750000D01*
X88000000Y-69413428D01*
X87972914Y-69242415D01*
X87919408Y-69077742D01*
X87840804Y-68923475D01*
X87739032Y-68783397D01*
X87616602Y-68660967D01*
X87476524Y-68559195D01*
X87322257Y-68480591D01*
X87157589Y-68427087D01*
X87157581Y-68427085D01*
X87150000Y-68425884D01*
X87150000Y-69750000D01*
X87100000Y-69750000D01*
X87100000Y-69460218D01*
X87069552Y-69386709D01*
X87013291Y-69330448D01*
X86939782Y-69300000D01*
X86860218Y-69300000D01*
X86786709Y-69330448D01*
X86730448Y-69386709D01*
X86700000Y-69460218D01*
X86650000Y-69460218D01*
X86650000Y-68425884D01*
X86649999Y-68425884D01*
X86642418Y-68427085D01*
X86642410Y-68427087D01*
X86477742Y-68480591D01*
X86323475Y-68559195D01*
X86183397Y-68660967D01*
X86060967Y-68783397D01*
X85959195Y-68923475D01*
X85880591Y-69077742D01*
X85827085Y-69242415D01*
X85800000Y-69413428D01*
X82516217Y-69413428D01*
X82442162Y-69339373D01*
X82302860Y-69246295D01*
X82148082Y-69182184D01*
X82148074Y-69182182D01*
X81983771Y-69149500D01*
X81983767Y-69149500D01*
X81816233Y-69149500D01*
X81816228Y-69149500D01*
X81651925Y-69182182D01*
X81651917Y-69182184D01*
X81497139Y-69246295D01*
X81357837Y-69339373D01*
X81239373Y-69457837D01*
X81146295Y-69597139D01*
X81082184Y-69751917D01*
X81082182Y-69751925D01*
X81049500Y-69916228D01*
X78781153Y-69916228D01*
X78794035Y-69897830D01*
X78893903Y-69683663D01*
X78955063Y-69455408D01*
X78975659Y-69220000D01*
X78955063Y-68984592D01*
X78893903Y-68756337D01*
X78794035Y-68542171D01*
X78794034Y-68542169D01*
X78658494Y-68348597D01*
X78491402Y-68181506D01*
X78491396Y-68181501D01*
X78305842Y-68051575D01*
X78262217Y-67996998D01*
X78255023Y-67927500D01*
X78286546Y-67865145D01*
X78305842Y-67848425D01*
X78413741Y-67772873D01*
X78491401Y-67718495D01*
X78658495Y-67551401D01*
X78766154Y-67397648D01*
X80149500Y-67397648D01*
X80149500Y-67602351D01*
X80181522Y-67804534D01*
X80244781Y-67999223D01*
X80308691Y-68124653D01*
X80337659Y-68181505D01*
X80337715Y-68181613D01*
X80458028Y-68347213D01*
X80602786Y-68491971D01*
X80717166Y-68575071D01*
X80768390Y-68612287D01*
X80835859Y-68646664D01*
X80950776Y-68705218D01*
X80950778Y-68705218D01*
X80950781Y-68705220D01*
X81049882Y-68737420D01*
X81145465Y-68768477D01*
X81239666Y-68783397D01*
X81347648Y-68800500D01*
X81347649Y-68800500D01*
X82452351Y-68800500D01*
X82452352Y-68800500D01*
X82654534Y-68768477D01*
X82849219Y-68705220D01*
X83031610Y-68612287D01*
X83128120Y-68542169D01*
X83197213Y-68491971D01*
X83197215Y-68491968D01*
X83197219Y-68491966D01*
X83341966Y-68347219D01*
X83341968Y-68347215D01*
X83341971Y-68347213D01*
X83405426Y-68259873D01*
X83462287Y-68181610D01*
X83555220Y-67999219D01*
X83618477Y-67804534D01*
X83650500Y-67602352D01*
X83650500Y-67397648D01*
X83618477Y-67195466D01*
X83555220Y-67000781D01*
X83555218Y-67000778D01*
X83555218Y-67000776D01*
X83478722Y-66850646D01*
X83462287Y-66818390D01*
X83397691Y-66729480D01*
X83341971Y-66652786D01*
X83197213Y-66508028D01*
X83031613Y-66387715D01*
X83031612Y-66387714D01*
X83031610Y-66387713D01*
X82945630Y-66343903D01*
X82849222Y-66294781D01*
X82775746Y-66270907D01*
X82718071Y-66231469D01*
X82690873Y-66167110D01*
X82702788Y-66098264D01*
X82750033Y-66046788D01*
X82775737Y-66035049D01*
X82822445Y-66019873D01*
X82976788Y-65941232D01*
X83116928Y-65839414D01*
X83239414Y-65716928D01*
X83341232Y-65576788D01*
X83419873Y-65422445D01*
X83473402Y-65257701D01*
X83500500Y-65086611D01*
X83500500Y-64916228D01*
X86049500Y-64916228D01*
X86049500Y-65083771D01*
X86082182Y-65248074D01*
X86082184Y-65248082D01*
X86146295Y-65402860D01*
X86239373Y-65542162D01*
X86357837Y-65660626D01*
X86450494Y-65722537D01*
X86497137Y-65753703D01*
X86651918Y-65817816D01*
X86804615Y-65848189D01*
X86816228Y-65850499D01*
X86816232Y-65850500D01*
X86816233Y-65850500D01*
X86983768Y-65850500D01*
X86983769Y-65850499D01*
X87148082Y-65817816D01*
X87302863Y-65753703D01*
X87442162Y-65660626D01*
X87560626Y-65542162D01*
X87653703Y-65402863D01*
X87717816Y-65248082D01*
X87750500Y-65083767D01*
X87750500Y-64916233D01*
X87717816Y-64751918D01*
X87653703Y-64597137D01*
X87622537Y-64550494D01*
X87560626Y-64457837D01*
X87442162Y-64339373D01*
X87302860Y-64246295D01*
X87148082Y-64182184D01*
X87148074Y-64182182D01*
X86983771Y-64149500D01*
X86983767Y-64149500D01*
X86816233Y-64149500D01*
X86816228Y-64149500D01*
X86651925Y-64182182D01*
X86651917Y-64182184D01*
X86497139Y-64246295D01*
X86357837Y-64339373D01*
X86239373Y-64457837D01*
X86146295Y-64597139D01*
X86082184Y-64751917D01*
X86082182Y-64751925D01*
X86049500Y-64916228D01*
X83500500Y-64916228D01*
X83500500Y-64913389D01*
X83473402Y-64742299D01*
X83419873Y-64577555D01*
X83341232Y-64423212D01*
X83239414Y-64283072D01*
X83116928Y-64160586D01*
X82976788Y-64058768D01*
X82822445Y-63980127D01*
X82657701Y-63926598D01*
X82657699Y-63926597D01*
X82657698Y-63926597D01*
X82518786Y-63904596D01*
X82486611Y-63899500D01*
X81313389Y-63899500D01*
X81281214Y-63904596D01*
X81142302Y-63926597D01*
X80977552Y-63980128D01*
X80823211Y-64058768D01*
X80805901Y-64071345D01*
X80683072Y-64160586D01*
X80683070Y-64160588D01*
X80683069Y-64160588D01*
X80560588Y-64283069D01*
X80560588Y-64283070D01*
X80560586Y-64283072D01*
X80529340Y-64326078D01*
X80458768Y-64423211D01*
X80380128Y-64577552D01*
X80326597Y-64742302D01*
X80325074Y-64751918D01*
X80299500Y-64913389D01*
X80299500Y-65086611D01*
X80326598Y-65257701D01*
X80380127Y-65422445D01*
X80458768Y-65576788D01*
X80560586Y-65716928D01*
X80683072Y-65839414D01*
X80823212Y-65941232D01*
X80977555Y-66019873D01*
X81024252Y-66035046D01*
X81081927Y-66074482D01*
X81109126Y-66138840D01*
X81097212Y-66207687D01*
X81049968Y-66259163D01*
X81024254Y-66270906D01*
X80950780Y-66294779D01*
X80768386Y-66387715D01*
X80602786Y-66508028D01*
X80458028Y-66652786D01*
X80337715Y-66818386D01*
X80244781Y-67000776D01*
X80181522Y-67195465D01*
X80149500Y-67397648D01*
X78766154Y-67397648D01*
X78794035Y-67357830D01*
X78893903Y-67143663D01*
X78955063Y-66915408D01*
X78975659Y-66680000D01*
X78975276Y-66675628D01*
X78961793Y-66521517D01*
X78955063Y-66444592D01*
X78893903Y-66216337D01*
X78794035Y-66002171D01*
X78776501Y-65977129D01*
X78658494Y-65808597D01*
X78491402Y-65641506D01*
X78491396Y-65641501D01*
X78305842Y-65511575D01*
X78262217Y-65456998D01*
X78255023Y-65387500D01*
X78286546Y-65325145D01*
X78305842Y-65308425D01*
X78378289Y-65257697D01*
X78491401Y-65178495D01*
X78658495Y-65011401D01*
X78794035Y-64817830D01*
X78893903Y-64603663D01*
X78955063Y-64375408D01*
X78975659Y-64140000D01*
X78955063Y-63904592D01*
X78893903Y-63676337D01*
X78794035Y-63462171D01*
X78774386Y-63434108D01*
X78658494Y-63268597D01*
X78491402Y-63101506D01*
X78491396Y-63101501D01*
X78305842Y-62971575D01*
X78262217Y-62916998D01*
X78255023Y-62847500D01*
X78286546Y-62785145D01*
X78305842Y-62768425D01*
X78328026Y-62752891D01*
X78491401Y-62638495D01*
X78658495Y-62471401D01*
X78794035Y-62277830D01*
X78877475Y-62098891D01*
X78923647Y-62046453D01*
X78990841Y-62027301D01*
X79057722Y-62047517D01*
X79103057Y-62100682D01*
X79113385Y-62140489D01*
X79114364Y-62151687D01*
X79114366Y-62151697D01*
X79173258Y-62371488D01*
X79173261Y-62371497D01*
X79269431Y-62577732D01*
X79269432Y-62577734D01*
X79399954Y-62764141D01*
X79560858Y-62925045D01*
X79560861Y-62925047D01*
X79747266Y-63055568D01*
X79953504Y-63151739D01*
X80173308Y-63210635D01*
X80335230Y-63224801D01*
X80399998Y-63230468D01*
X80400000Y-63230468D01*
X80400002Y-63230468D01*
X80456673Y-63225509D01*
X80626692Y-63210635D01*
X80846496Y-63151739D01*
X81052734Y-63055568D01*
X81239139Y-62925047D01*
X81400047Y-62764139D01*
X81530568Y-62577734D01*
X81626739Y-62371496D01*
X81685635Y-62151692D01*
X81705468Y-61925000D01*
X81685635Y-61698308D01*
X81626739Y-61478504D01*
X81530568Y-61272266D01*
X81400047Y-61085861D01*
X81400045Y-61085858D01*
X81239141Y-60924954D01*
X81052734Y-60794432D01*
X81052732Y-60794431D01*
X80846497Y-60698261D01*
X80846488Y-60698258D01*
X80626697Y-60639366D01*
X80626693Y-60639365D01*
X80626692Y-60639365D01*
X80626691Y-60639364D01*
X80626686Y-60639364D01*
X80400002Y-60619532D01*
X80399998Y-60619532D01*
X80173313Y-60639364D01*
X80173302Y-60639366D01*
X79953511Y-60698258D01*
X79953502Y-60698261D01*
X79747267Y-60794431D01*
X79747265Y-60794432D01*
X79560858Y-60924954D01*
X79399954Y-61085858D01*
X79269432Y-61272265D01*
X79269431Y-61272267D01*
X79193502Y-61435097D01*
X79147329Y-61487536D01*
X79080136Y-61506688D01*
X79013255Y-61486472D01*
X78967920Y-61433306D01*
X78957592Y-61393499D01*
X78955063Y-61364597D01*
X78955063Y-61364596D01*
X78955063Y-61364592D01*
X78893903Y-61136337D01*
X78794035Y-60922171D01*
X78658495Y-60728599D01*
X78658494Y-60728597D01*
X78491402Y-60561506D01*
X78491396Y-60561501D01*
X78305842Y-60431575D01*
X78262217Y-60376998D01*
X78255023Y-60307500D01*
X78286546Y-60245145D01*
X78305842Y-60228425D01*
X78328026Y-60212891D01*
X78491401Y-60098495D01*
X78658495Y-59931401D01*
X78794035Y-59737830D01*
X78893903Y-59523663D01*
X78955063Y-59295408D01*
X78962012Y-59215978D01*
X78987464Y-59150910D01*
X79044055Y-59109931D01*
X79113817Y-59106053D01*
X79174601Y-59140507D01*
X79197921Y-59174380D01*
X79247772Y-59281284D01*
X79269431Y-59327732D01*
X79269432Y-59327734D01*
X79399954Y-59514141D01*
X79560858Y-59675045D01*
X79560861Y-59675047D01*
X79747266Y-59805568D01*
X79953504Y-59901739D01*
X79953509Y-59901740D01*
X79953511Y-59901741D01*
X79982797Y-59909588D01*
X80173308Y-59960635D01*
X80335230Y-59974801D01*
X80399998Y-59980468D01*
X80400000Y-59980468D01*
X80400002Y-59980468D01*
X80456673Y-59975509D01*
X80626692Y-59960635D01*
X80846496Y-59901739D01*
X81052734Y-59805568D01*
X81239139Y-59675047D01*
X81400047Y-59514139D01*
X81530568Y-59327734D01*
X81626739Y-59121496D01*
X81685635Y-58901692D01*
X81705468Y-58675000D01*
X81685635Y-58448308D01*
X81626739Y-58228504D01*
X81530568Y-58022266D01*
X81400047Y-57835861D01*
X81400045Y-57835858D01*
X81239141Y-57674954D01*
X81052734Y-57544432D01*
X81052732Y-57544431D01*
X80846497Y-57448261D01*
X80846488Y-57448258D01*
X80626697Y-57389366D01*
X80626693Y-57389365D01*
X80626692Y-57389365D01*
X80626691Y-57389364D01*
X80626686Y-57389364D01*
X80400002Y-57369532D01*
X80399998Y-57369532D01*
X80173313Y-57389364D01*
X80173302Y-57389366D01*
X79953511Y-57448258D01*
X79953502Y-57448261D01*
X79747267Y-57544431D01*
X79747265Y-57544432D01*
X79560858Y-57674954D01*
X79399954Y-57835858D01*
X79269432Y-58022265D01*
X79269431Y-58022267D01*
X79173261Y-58228502D01*
X79173258Y-58228511D01*
X79114366Y-58448302D01*
X79114364Y-58448312D01*
X79108964Y-58510032D01*
X79083510Y-58575101D01*
X79026919Y-58616078D01*
X78957157Y-58619955D01*
X78896373Y-58585501D01*
X78873056Y-58551631D01*
X78794035Y-58382171D01*
X78686436Y-58228502D01*
X78658494Y-58188597D01*
X78491402Y-58021506D01*
X78491396Y-58021501D01*
X78305842Y-57891575D01*
X78262217Y-57836998D01*
X78255023Y-57767500D01*
X78286546Y-57705145D01*
X78305842Y-57688425D01*
X78328026Y-57672891D01*
X78491401Y-57558495D01*
X78658495Y-57391401D01*
X78794035Y-57197830D01*
X78893903Y-56983663D01*
X78955063Y-56755408D01*
X78975659Y-56520000D01*
X78955063Y-56284592D01*
X78893903Y-56056337D01*
X78794035Y-55842171D01*
X78777698Y-55818838D01*
X78658494Y-55648597D01*
X78491402Y-55481506D01*
X78491401Y-55481505D01*
X78305405Y-55351269D01*
X78261781Y-55296692D01*
X78254588Y-55227193D01*
X78286110Y-55164839D01*
X78305405Y-55148119D01*
X78491082Y-55018105D01*
X78658105Y-54851082D01*
X78793600Y-54657578D01*
X78893429Y-54443492D01*
X78893432Y-54443486D01*
X78950636Y-54230000D01*
X78053012Y-54230000D01*
X78085925Y-54172993D01*
X78120000Y-54045826D01*
X78120000Y-53914174D01*
X78085925Y-53787007D01*
X78053012Y-53730000D01*
X78950636Y-53730000D01*
X78950635Y-53729999D01*
X78901492Y-53546594D01*
X78903155Y-53476744D01*
X78942317Y-53418881D01*
X79006546Y-53391377D01*
X79021267Y-53390500D01*
X80098431Y-53390500D01*
X80165470Y-53410185D01*
X80186112Y-53426819D01*
X83598428Y-56839136D01*
X83598429Y-56839137D01*
X83713165Y-56915801D01*
X83811765Y-56956642D01*
X83840646Y-56968605D01*
X83840647Y-56968605D01*
X83840652Y-56968607D01*
X83867520Y-56973950D01*
X83867526Y-56973951D01*
X83867566Y-56973959D01*
X83957912Y-56991930D01*
X83975981Y-56995525D01*
X83975982Y-56995525D01*
X87503506Y-56995525D01*
X87570545Y-57015210D01*
X87591187Y-57031844D01*
X87764000Y-57204656D01*
X87797485Y-57265979D01*
X87792501Y-57335670D01*
X87750630Y-57391604D01*
X87708413Y-57412112D01*
X87573508Y-57448259D01*
X87573502Y-57448261D01*
X87367267Y-57544431D01*
X87367265Y-57544432D01*
X87180858Y-57674954D01*
X87019954Y-57835858D01*
X86889432Y-58022265D01*
X86889431Y-58022267D01*
X86793261Y-58228502D01*
X86793258Y-58228511D01*
X86734366Y-58448302D01*
X86734364Y-58448313D01*
X86714532Y-58674998D01*
X86714532Y-58675001D01*
X86734364Y-58901686D01*
X86734366Y-58901697D01*
X86793258Y-59121488D01*
X86793261Y-59121497D01*
X86889431Y-59327732D01*
X86889432Y-59327734D01*
X87019954Y-59514141D01*
X87180858Y-59675045D01*
X87180861Y-59675047D01*
X87367266Y-59805568D01*
X87573504Y-59901739D01*
X87573509Y-59901740D01*
X87573511Y-59901741D01*
X87602797Y-59909588D01*
X87793308Y-59960635D01*
X87955230Y-59974801D01*
X88019998Y-59980468D01*
X88020000Y-59980468D01*
X88020002Y-59980468D01*
X88076673Y-59975509D01*
X88246692Y-59960635D01*
X88443409Y-59907925D01*
X88513256Y-59909588D01*
X88571119Y-59948750D01*
X88598623Y-60012979D01*
X88599500Y-60027700D01*
X88599500Y-60403480D01*
X88579815Y-60470519D01*
X88563181Y-60491162D01*
X88430037Y-60624305D01*
X88368714Y-60657789D01*
X88310264Y-60656398D01*
X88246699Y-60639367D01*
X88246702Y-60639367D01*
X88246692Y-60639365D01*
X88246689Y-60639364D01*
X88246686Y-60639364D01*
X88020001Y-60619532D01*
X88019998Y-60619532D01*
X87793313Y-60639364D01*
X87793302Y-60639366D01*
X87573511Y-60698258D01*
X87573502Y-60698261D01*
X87367267Y-60794431D01*
X87367265Y-60794432D01*
X87180858Y-60924954D01*
X87019954Y-61085858D01*
X86889432Y-61272265D01*
X86889431Y-61272267D01*
X86793261Y-61478502D01*
X86793258Y-61478511D01*
X86734366Y-61698302D01*
X86734364Y-61698313D01*
X86714532Y-61924998D01*
X86714532Y-61925001D01*
X86734364Y-62151686D01*
X86734366Y-62151697D01*
X86793258Y-62371488D01*
X86793261Y-62371497D01*
X86889431Y-62577732D01*
X86889432Y-62577734D01*
X87019954Y-62764141D01*
X87180858Y-62925045D01*
X87180861Y-62925047D01*
X87367266Y-63055568D01*
X87573504Y-63151739D01*
X87793308Y-63210635D01*
X87955230Y-63224801D01*
X88019998Y-63230468D01*
X88020000Y-63230468D01*
X88020002Y-63230468D01*
X88076673Y-63225509D01*
X88246692Y-63210635D01*
X88466496Y-63151739D01*
X88672734Y-63055568D01*
X88859139Y-62925047D01*
X89020047Y-62764139D01*
X89150568Y-62577734D01*
X89246739Y-62371496D01*
X89255725Y-62337960D01*
X89292089Y-62278300D01*
X89354936Y-62247770D01*
X89424312Y-62256064D01*
X89478190Y-62300549D01*
X89499465Y-62367101D01*
X89499500Y-62370053D01*
X89499500Y-64025500D01*
X89479815Y-64092539D01*
X89427011Y-64138294D01*
X89375500Y-64149500D01*
X89316228Y-64149500D01*
X89151925Y-64182182D01*
X89151917Y-64182184D01*
X88997139Y-64246295D01*
X88857837Y-64339373D01*
X88739373Y-64457837D01*
X88646295Y-64597139D01*
X88582184Y-64751917D01*
X88582182Y-64751925D01*
X88549500Y-64916228D01*
X88549500Y-65083771D01*
X88582182Y-65248074D01*
X88582184Y-65248082D01*
X88646295Y-65402860D01*
X88739373Y-65542162D01*
X88857837Y-65660626D01*
X88950494Y-65722537D01*
X88997137Y-65753703D01*
X89151918Y-65817816D01*
X89304615Y-65848189D01*
X89316228Y-65850499D01*
X89316232Y-65850500D01*
X89375500Y-65850500D01*
X89442539Y-65870185D01*
X89488294Y-65922989D01*
X89499500Y-65974500D01*
X89499500Y-74025500D01*
X89479815Y-74092539D01*
X89427011Y-74138294D01*
X89375500Y-74149500D01*
X89316228Y-74149500D01*
X89151925Y-74182182D01*
X89151917Y-74182184D01*
X88997139Y-74246295D01*
X88857837Y-74339373D01*
X88739373Y-74457837D01*
X88646295Y-74597139D01*
X88582184Y-74751917D01*
X88582182Y-74751925D01*
X88549500Y-74916228D01*
X88549500Y-75083771D01*
X88582182Y-75248074D01*
X88582184Y-75248082D01*
X88646295Y-75402860D01*
X88739373Y-75542162D01*
X88857837Y-75660626D01*
X88943707Y-75718002D01*
X88997137Y-75753703D01*
X89151918Y-75817816D01*
X89312990Y-75849855D01*
X89316228Y-75850499D01*
X89316232Y-75850500D01*
X89375500Y-75850500D01*
X89442539Y-75870185D01*
X89488294Y-75922989D01*
X89499500Y-75974500D01*
X89499500Y-87495933D01*
X89499235Y-87504043D01*
X89482925Y-87752883D01*
X89480807Y-87768964D01*
X89432954Y-88009535D01*
X89428756Y-88025202D01*
X89349909Y-88257479D01*
X89343702Y-88272465D01*
X89235212Y-88492460D01*
X89227102Y-88506507D01*
X89090825Y-88710460D01*
X89080951Y-88723328D01*
X88919218Y-88907749D01*
X88907749Y-88919218D01*
X88723328Y-89080951D01*
X88710460Y-89090825D01*
X88506507Y-89227102D01*
X88492460Y-89235212D01*
X88272465Y-89343702D01*
X88257479Y-89349909D01*
X88025202Y-89428756D01*
X88009535Y-89432954D01*
X87768964Y-89480807D01*
X87752883Y-89482925D01*
X87504043Y-89499235D01*
X87495933Y-89499500D01*
X52504067Y-89499500D01*
X52495957Y-89499235D01*
X52247116Y-89482925D01*
X52231035Y-89480807D01*
X51990464Y-89432954D01*
X51974797Y-89428756D01*
X51742520Y-89349909D01*
X51727534Y-89343702D01*
X51507539Y-89235212D01*
X51493492Y-89227102D01*
X51289539Y-89090825D01*
X51276671Y-89080951D01*
X51092250Y-88919218D01*
X51080781Y-88907749D01*
X50919048Y-88723328D01*
X50909174Y-88710460D01*
X50772897Y-88506507D01*
X50764787Y-88492460D01*
X50658855Y-88277652D01*
X50656294Y-88272458D01*
X50650090Y-88257479D01*
X50571243Y-88025202D01*
X50567045Y-88009535D01*
X50529113Y-87818838D01*
X50519190Y-87768953D01*
X50517075Y-87752895D01*
X50500765Y-87504043D01*
X50500500Y-87495933D01*
X50500500Y-85878711D01*
X52149500Y-85878711D01*
X52149500Y-86121288D01*
X52181161Y-86361785D01*
X52243947Y-86596104D01*
X52336773Y-86820205D01*
X52336776Y-86820212D01*
X52458064Y-87030289D01*
X52458066Y-87030292D01*
X52458067Y-87030293D01*
X52605733Y-87222736D01*
X52605739Y-87222743D01*
X52777256Y-87394260D01*
X52777263Y-87394266D01*
X52890321Y-87481018D01*
X52969711Y-87541936D01*
X53179788Y-87663224D01*
X53375269Y-87744195D01*
X53396244Y-87752883D01*
X53403900Y-87756054D01*
X53638211Y-87818838D01*
X53818586Y-87842584D01*
X53878711Y-87850500D01*
X53878712Y-87850500D01*
X54121289Y-87850500D01*
X54169388Y-87844167D01*
X54361789Y-87818838D01*
X54596100Y-87756054D01*
X54820212Y-87663224D01*
X55030289Y-87541936D01*
X55222738Y-87394265D01*
X55394265Y-87222738D01*
X55541936Y-87030289D01*
X55663224Y-86820212D01*
X55756054Y-86596100D01*
X55818838Y-86361789D01*
X55850500Y-86121288D01*
X55850500Y-85878712D01*
X55850500Y-85878711D01*
X84149500Y-85878711D01*
X84149500Y-86121288D01*
X84181161Y-86361785D01*
X84243947Y-86596104D01*
X84336773Y-86820205D01*
X84336776Y-86820212D01*
X84458064Y-87030289D01*
X84458066Y-87030292D01*
X84458067Y-87030293D01*
X84605733Y-87222736D01*
X84605739Y-87222743D01*
X84777256Y-87394260D01*
X84777263Y-87394266D01*
X84890321Y-87481018D01*
X84969711Y-87541936D01*
X85179788Y-87663224D01*
X85375269Y-87744195D01*
X85396244Y-87752883D01*
X85403900Y-87756054D01*
X85638211Y-87818838D01*
X85818586Y-87842584D01*
X85878711Y-87850500D01*
X85878712Y-87850500D01*
X86121289Y-87850500D01*
X86169388Y-87844167D01*
X86361789Y-87818838D01*
X86596100Y-87756054D01*
X86820212Y-87663224D01*
X87030289Y-87541936D01*
X87222738Y-87394265D01*
X87394265Y-87222738D01*
X87541936Y-87030289D01*
X87663224Y-86820212D01*
X87756054Y-86596100D01*
X87818838Y-86361789D01*
X87850500Y-86121288D01*
X87850500Y-85878712D01*
X87818838Y-85638211D01*
X87756054Y-85403900D01*
X87663224Y-85179788D01*
X87541936Y-84969711D01*
X87394265Y-84777262D01*
X87394260Y-84777256D01*
X87222743Y-84605739D01*
X87222736Y-84605733D01*
X87030293Y-84458067D01*
X87030292Y-84458066D01*
X87030289Y-84458064D01*
X86820212Y-84336776D01*
X86820205Y-84336773D01*
X86596104Y-84243947D01*
X86361785Y-84181161D01*
X86121289Y-84149500D01*
X86121288Y-84149500D01*
X85878712Y-84149500D01*
X85878711Y-84149500D01*
X85638214Y-84181161D01*
X85403895Y-84243947D01*
X85179794Y-84336773D01*
X85179785Y-84336777D01*
X84969706Y-84458067D01*
X84777263Y-84605733D01*
X84777256Y-84605739D01*
X84605739Y-84777256D01*
X84605733Y-84777263D01*
X84458067Y-84969706D01*
X84336777Y-85179785D01*
X84336773Y-85179794D01*
X84243947Y-85403895D01*
X84181161Y-85638214D01*
X84149500Y-85878711D01*
X55850500Y-85878711D01*
X55818838Y-85638211D01*
X55756054Y-85403900D01*
X55663224Y-85179788D01*
X55541936Y-84969711D01*
X55394265Y-84777262D01*
X55394260Y-84777256D01*
X55222743Y-84605739D01*
X55222736Y-84605733D01*
X55030293Y-84458067D01*
X55030292Y-84458066D01*
X55030289Y-84458064D01*
X54820212Y-84336776D01*
X54820205Y-84336773D01*
X54596104Y-84243947D01*
X54361785Y-84181161D01*
X54121289Y-84149500D01*
X54121288Y-84149500D01*
X53878712Y-84149500D01*
X53878711Y-84149500D01*
X53638214Y-84181161D01*
X53403895Y-84243947D01*
X53179794Y-84336773D01*
X53179785Y-84336777D01*
X52969706Y-84458067D01*
X52777263Y-84605733D01*
X52777256Y-84605739D01*
X52605739Y-84777256D01*
X52605733Y-84777263D01*
X52458067Y-84969706D01*
X52336777Y-85179785D01*
X52336773Y-85179794D01*
X52243947Y-85403895D01*
X52181161Y-85638214D01*
X52149500Y-85878711D01*
X50500500Y-85878711D01*
X50500500Y-80624998D01*
X68619532Y-80624998D01*
X68619532Y-80625001D01*
X68639364Y-80851686D01*
X68639366Y-80851697D01*
X68698258Y-81071488D01*
X68698261Y-81071497D01*
X68794431Y-81277732D01*
X68794432Y-81277734D01*
X68924954Y-81464141D01*
X69085858Y-81625045D01*
X69085861Y-81625047D01*
X69272266Y-81755568D01*
X69478504Y-81851739D01*
X69698308Y-81910635D01*
X69860230Y-81924801D01*
X69924998Y-81930468D01*
X69925000Y-81930468D01*
X69925002Y-81930468D01*
X69981673Y-81925509D01*
X70151692Y-81910635D01*
X70371496Y-81851739D01*
X70577734Y-81755568D01*
X70764139Y-81625047D01*
X70925047Y-81464139D01*
X71055568Y-81277734D01*
X71151739Y-81071496D01*
X71210635Y-80851692D01*
X71230468Y-80625000D01*
X71230468Y-80624997D01*
X73620034Y-80624997D01*
X73620034Y-80625002D01*
X73639858Y-80851599D01*
X73639860Y-80851610D01*
X73698730Y-81071317D01*
X73698735Y-81071331D01*
X73794863Y-81277478D01*
X73845974Y-81350472D01*
X74525000Y-80671446D01*
X74525000Y-80677661D01*
X74552259Y-80779394D01*
X74604920Y-80870606D01*
X74679394Y-80945080D01*
X74770606Y-80997741D01*
X74872339Y-81025000D01*
X74878553Y-81025000D01*
X74199526Y-81704025D01*
X74272513Y-81755132D01*
X74272521Y-81755136D01*
X74478668Y-81851264D01*
X74478682Y-81851269D01*
X74698389Y-81910139D01*
X74698400Y-81910141D01*
X74924998Y-81929966D01*
X74925002Y-81929966D01*
X75151599Y-81910141D01*
X75151610Y-81910139D01*
X75371317Y-81851269D01*
X75371331Y-81851264D01*
X75577478Y-81755136D01*
X75650471Y-81704024D01*
X74971447Y-81025000D01*
X74977661Y-81025000D01*
X75079394Y-80997741D01*
X75170606Y-80945080D01*
X75245080Y-80870606D01*
X75297741Y-80779394D01*
X75325000Y-80677661D01*
X75325000Y-80671447D01*
X76004024Y-81350471D01*
X76055136Y-81277478D01*
X76151264Y-81071331D01*
X76151269Y-81071317D01*
X76210139Y-80851610D01*
X76210141Y-80851599D01*
X76229966Y-80625002D01*
X76229966Y-80624997D01*
X76210141Y-80398400D01*
X76210139Y-80398389D01*
X76151269Y-80178682D01*
X76151264Y-80178668D01*
X76055136Y-79972521D01*
X76055132Y-79972513D01*
X76004025Y-79899526D01*
X75325000Y-80578551D01*
X75325000Y-80572339D01*
X75297741Y-80470606D01*
X75245080Y-80379394D01*
X75170606Y-80304920D01*
X75079394Y-80252259D01*
X74977661Y-80225000D01*
X74971445Y-80225000D01*
X75650472Y-79545974D01*
X75577478Y-79494863D01*
X75371331Y-79398735D01*
X75371317Y-79398730D01*
X75151610Y-79339860D01*
X75151599Y-79339858D01*
X74925002Y-79320034D01*
X74924998Y-79320034D01*
X74698400Y-79339858D01*
X74698389Y-79339860D01*
X74478682Y-79398730D01*
X74478673Y-79398734D01*
X74272516Y-79494866D01*
X74272512Y-79494868D01*
X74199526Y-79545973D01*
X74199526Y-79545974D01*
X74878553Y-80225000D01*
X74872339Y-80225000D01*
X74770606Y-80252259D01*
X74679394Y-80304920D01*
X74604920Y-80379394D01*
X74552259Y-80470606D01*
X74525000Y-80572339D01*
X74525000Y-80578552D01*
X73845974Y-79899526D01*
X73845973Y-79899526D01*
X73794868Y-79972512D01*
X73794866Y-79972516D01*
X73698734Y-80178673D01*
X73698730Y-80178682D01*
X73639860Y-80398389D01*
X73639858Y-80398400D01*
X73620034Y-80624997D01*
X71230468Y-80624997D01*
X71210635Y-80398308D01*
X71151739Y-80178504D01*
X71055568Y-79972266D01*
X70925047Y-79785861D01*
X70925045Y-79785858D01*
X70764141Y-79624954D01*
X70577734Y-79494432D01*
X70577732Y-79494431D01*
X70371497Y-79398261D01*
X70371488Y-79398258D01*
X70151697Y-79339366D01*
X70151693Y-79339365D01*
X70151692Y-79339365D01*
X70151691Y-79339364D01*
X70151686Y-79339364D01*
X69925002Y-79319532D01*
X69924998Y-79319532D01*
X69698313Y-79339364D01*
X69698302Y-79339366D01*
X69478511Y-79398258D01*
X69478502Y-79398261D01*
X69272267Y-79494431D01*
X69272265Y-79494432D01*
X69085858Y-79624954D01*
X68924954Y-79785858D01*
X68794432Y-79972265D01*
X68794431Y-79972267D01*
X68698261Y-80178502D01*
X68698258Y-80178511D01*
X68639366Y-80398302D01*
X68639364Y-80398313D01*
X68619532Y-80624998D01*
X50500500Y-80624998D01*
X50500500Y-53878711D01*
X52149500Y-53878711D01*
X52149500Y-54121288D01*
X52181161Y-54361785D01*
X52243947Y-54596104D01*
X52336773Y-54820205D01*
X52336777Y-54820214D01*
X52354783Y-54851401D01*
X52458064Y-55030289D01*
X52458066Y-55030292D01*
X52458067Y-55030293D01*
X52605733Y-55222736D01*
X52605739Y-55222743D01*
X52777256Y-55394260D01*
X52777262Y-55394265D01*
X52969711Y-55541936D01*
X53179788Y-55663224D01*
X53403900Y-55756054D01*
X53638211Y-55818838D01*
X53815431Y-55842169D01*
X53878711Y-55850500D01*
X53878712Y-55850500D01*
X54121289Y-55850500D01*
X54184569Y-55842169D01*
X54361789Y-55818838D01*
X54596100Y-55756054D01*
X54820212Y-55663224D01*
X55030289Y-55541936D01*
X55222738Y-55394265D01*
X55394265Y-55222738D01*
X55541936Y-55030289D01*
X55663224Y-54820212D01*
X55756054Y-54596100D01*
X55818838Y-54361789D01*
X55850500Y-54121288D01*
X55850500Y-53878712D01*
X55818838Y-53638211D01*
X55756054Y-53403900D01*
X55663224Y-53179788D01*
X55541936Y-52969711D01*
X55394265Y-52777262D01*
X55394260Y-52777256D01*
X55222743Y-52605739D01*
X55222736Y-52605733D01*
X55030293Y-52458067D01*
X55030292Y-52458066D01*
X55030289Y-52458064D01*
X54820212Y-52336776D01*
X54758954Y-52311402D01*
X54596104Y-52243947D01*
X54361785Y-52181161D01*
X54121289Y-52149500D01*
X54121288Y-52149500D01*
X53878712Y-52149500D01*
X53878711Y-52149500D01*
X53638214Y-52181161D01*
X53403895Y-52243947D01*
X53179794Y-52336773D01*
X53179785Y-52336777D01*
X52969706Y-52458067D01*
X52777263Y-52605733D01*
X52777256Y-52605739D01*
X52605739Y-52777256D01*
X52605733Y-52777263D01*
X52458067Y-52969706D01*
X52336777Y-53179785D01*
X52336773Y-53179794D01*
X52243947Y-53403895D01*
X52181161Y-53638214D01*
X52149500Y-53878711D01*
X50500500Y-53878711D01*
X50500500Y-52504066D01*
X50500765Y-52495956D01*
X50501909Y-52478498D01*
X50517075Y-52247102D01*
X50519190Y-52231048D01*
X50567045Y-51990462D01*
X50571243Y-51974797D01*
X50595527Y-51903257D01*
X50650093Y-51742512D01*
X50656291Y-51727547D01*
X50764790Y-51507533D01*
X50772893Y-51493498D01*
X50909182Y-51289527D01*
X50919039Y-51276681D01*
X51080786Y-51092244D01*
X51092244Y-51080786D01*
X51276681Y-50919039D01*
X51289527Y-50909182D01*
X51493498Y-50772893D01*
X51507533Y-50764790D01*
X51727547Y-50656291D01*
X51742512Y-50650093D01*
X51969653Y-50572989D01*
X51974797Y-50571243D01*
X51990464Y-50567045D01*
X52231048Y-50519190D01*
X52247102Y-50517075D01*
X52495957Y-50500765D01*
X52504067Y-50500500D01*
X52565892Y-50500500D01*
X61150987Y-50500500D01*
X61218026Y-50520185D01*
G37*
%TD.AperFunction*%
%TD*%
M02*
