G04 #@! TF.GenerationSoftware,KiCad,Pcbnew,(6.0.5)*
G04 #@! TF.CreationDate,2022-09-01T21:04:14+01:00*
G04 #@! TF.ProjectId,Rpi-Zynthian-IOBoard,5270692d-5a79-46e7-9468-69616e2d494f,rev?*
G04 #@! TF.SameCoordinates,Original*
G04 #@! TF.FileFunction,Soldermask,Top*
G04 #@! TF.FilePolarity,Negative*
%FSLAX46Y46*%
G04 Gerber Fmt 4.6, Leading zero omitted, Abs format (unit mm)*
G04 Created by KiCad (PCBNEW (6.0.5)) date 2022-09-01 21:04:14*
%MOMM*%
%LPD*%
G01*
G04 APERTURE LIST*
%ADD10C,2.700000*%
%ADD11C,3.200000*%
%ADD12C,1.600000*%
%ADD13R,1.700000X1.700000*%
%ADD14O,1.700000X1.700000*%
%ADD15O,1.600000X1.600000*%
%ADD16C,1.700000*%
%ADD17R,1.600000X1.600000*%
G04 APERTURE END LIST*
D10*
X116480000Y-64030000D03*
X174480000Y-64030000D03*
X116480000Y-113030000D03*
X174480000Y-113030000D03*
D11*
X104290000Y-55270000D03*
D12*
X166500000Y-80270000D03*
X171500000Y-80270000D03*
D13*
X175000000Y-82700000D03*
D14*
X175000000Y-80160000D03*
X175000000Y-77620000D03*
X175000000Y-75080000D03*
X175000000Y-72540000D03*
D12*
X129900000Y-95950000D03*
D15*
X129900000Y-103570000D03*
D11*
X194290000Y-55270000D03*
D12*
X166500000Y-100220000D03*
X171500000Y-100220000D03*
X108150000Y-107690000D03*
D15*
X108150000Y-100070000D03*
D11*
X194290000Y-121270000D03*
D13*
X111000000Y-124000000D03*
D14*
X113540000Y-124000000D03*
X116080000Y-124000000D03*
D12*
X122504200Y-109220000D03*
D15*
X122504200Y-116840000D03*
D12*
X166500000Y-82820000D03*
X171500000Y-82820000D03*
X130004200Y-109220000D03*
D15*
X130004200Y-116840000D03*
D12*
X112420000Y-70010000D03*
X107420000Y-70010000D03*
D13*
X102000000Y-90000000D03*
D14*
X102000000Y-92540000D03*
X102000000Y-95080000D03*
X102000000Y-97620000D03*
X102000000Y-100160000D03*
D12*
X112420000Y-75180000D03*
X107420000Y-75180000D03*
D13*
X175000000Y-102700000D03*
D14*
X175000000Y-100160000D03*
X175000000Y-97620000D03*
X175000000Y-95080000D03*
X175000000Y-92540000D03*
D11*
X104290000Y-121270000D03*
D12*
X125640000Y-96560000D03*
X125640000Y-91560000D03*
D13*
X120000000Y-124000000D03*
D14*
X122540000Y-124000000D03*
X125080000Y-124000000D03*
D13*
X129000000Y-124000000D03*
D14*
X131540000Y-124000000D03*
X134080000Y-124000000D03*
D12*
X110500000Y-95090000D03*
X105500000Y-95090000D03*
X126004200Y-116840000D03*
D15*
X126004200Y-109220000D03*
D12*
X110500000Y-92460000D03*
X105500000Y-92460000D03*
D16*
X141015000Y-111180000D03*
X141015000Y-113720000D03*
X141015000Y-116260000D03*
X141015000Y-118800000D03*
X141015000Y-121340000D03*
X141015000Y-123880000D03*
X167685000Y-110545000D03*
X165145000Y-110545000D03*
X162605000Y-110545000D03*
X160065000Y-110545000D03*
X157525000Y-110545000D03*
X154985000Y-110545000D03*
X152445000Y-110545000D03*
X149905000Y-110545000D03*
X147365000Y-110545000D03*
D12*
X133504200Y-116840000D03*
D15*
X133504200Y-109220000D03*
D12*
X137460000Y-119180000D03*
X137460000Y-114180000D03*
X110500000Y-89830000D03*
X105500000Y-89830000D03*
X112420000Y-72610000D03*
X107420000Y-72610000D03*
X166500000Y-102830000D03*
X171500000Y-102830000D03*
X166500000Y-97610000D03*
X171500000Y-97610000D03*
D17*
X118000000Y-100000000D03*
D15*
X118000000Y-102540000D03*
X118000000Y-105080000D03*
X125620000Y-105080000D03*
X125620000Y-102540000D03*
X125620000Y-100000000D03*
D17*
X112150000Y-100070000D03*
D15*
X112150000Y-107690000D03*
D12*
X141880000Y-86365000D03*
X136880000Y-86365000D03*
X166500000Y-77710000D03*
X171500000Y-77710000D03*
D17*
X134310000Y-89755000D03*
D15*
X134310000Y-92295000D03*
X134310000Y-94835000D03*
X134310000Y-97375000D03*
X134310000Y-99915000D03*
X134310000Y-102455000D03*
X134310000Y-104995000D03*
X141930000Y-104995000D03*
X141930000Y-102455000D03*
X141930000Y-99915000D03*
X141930000Y-97375000D03*
X141930000Y-94835000D03*
X141930000Y-92295000D03*
X141930000Y-89755000D03*
D13*
X102000000Y-70000000D03*
D14*
X102000000Y-72540000D03*
X102000000Y-75080000D03*
X102000000Y-77620000D03*
X102000000Y-80160000D03*
D13*
X125085000Y-70815200D03*
D14*
X122545000Y-70815200D03*
X120005000Y-70815200D03*
X117465000Y-70815200D03*
D13*
X121350000Y-65300000D03*
D14*
X121350000Y-62760000D03*
X123890000Y-65300000D03*
X123890000Y-62760000D03*
X126430000Y-65300000D03*
X126430000Y-62760000D03*
X128970000Y-65300000D03*
X128970000Y-62760000D03*
X131510000Y-65300000D03*
X131510000Y-62760000D03*
X134050000Y-65300000D03*
X134050000Y-62760000D03*
X136590000Y-65300000D03*
X136590000Y-62760000D03*
X139130000Y-65300000D03*
X139130000Y-62760000D03*
X141670000Y-65300000D03*
X141670000Y-62760000D03*
X144210000Y-65300000D03*
X144210000Y-62760000D03*
X146750000Y-65300000D03*
X146750000Y-62760000D03*
X149290000Y-65300000D03*
X149290000Y-62760000D03*
X151830000Y-65300000D03*
X151830000Y-62760000D03*
X154370000Y-65300000D03*
X154370000Y-62760000D03*
X156910000Y-65300000D03*
X156910000Y-62760000D03*
X159450000Y-65300000D03*
X159450000Y-62760000D03*
X161990000Y-65300000D03*
X161990000Y-62760000D03*
X164530000Y-65300000D03*
X164530000Y-62760000D03*
X167070000Y-65300000D03*
X167070000Y-62760000D03*
X169610000Y-65300000D03*
X169610000Y-62760000D03*
M02*
