%TF.GenerationSoftware,KiCad,Pcbnew,(6.0.5)*%
%TF.CreationDate,2022-08-31T14:42:19+01:00*%
%TF.ProjectId,PicoMIDISplitterTTL,5069636f-4d49-4444-9953-706c69747465,rev?*%
%TF.SameCoordinates,Original*%
%TF.FileFunction,Soldermask,Top*%
%TF.FilePolarity,Negative*%
%FSLAX46Y46*%
G04 Gerber Fmt 4.6, Leading zero omitted, Abs format (unit mm)*
G04 Created by KiCad (PCBNEW (6.0.5)) date 2022-08-31 14:42:19*
%MOMM*%
%LPD*%
G01*
G04 APERTURE LIST*
%ADD10R,1.700000X1.700000*%
%ADD11O,1.700000X1.700000*%
%ADD12O,1.500000X1.500000*%
%ADD13O,1.800000X1.800000*%
%ADD14R,3.500000X1.700000*%
%ADD15R,1.700000X3.500000*%
%ADD16R,1.600000X1.600000*%
%ADD17O,1.600000X1.600000*%
%ADD18R,4.000000X2.500000*%
%ADD19C,2.499360*%
%ADD20C,1.600000*%
%ADD21C,2.500000*%
G04 APERTURE END LIST*
D10*
%TO.C,J1*%
X52298600Y-53517800D03*
D11*
X54838600Y-53517800D03*
X52298600Y-56057800D03*
X54838600Y-56057800D03*
X52298600Y-58597800D03*
X54838600Y-58597800D03*
X52298600Y-61137800D03*
X54838600Y-61137800D03*
X52298600Y-63677800D03*
X54838600Y-63677800D03*
X52298600Y-66217800D03*
X54838600Y-66217800D03*
X52298600Y-68757800D03*
X54838600Y-68757800D03*
X52298600Y-71297800D03*
X54838600Y-71297800D03*
%TD*%
D12*
%TO.C,U4*%
X97575000Y-45030000D03*
D13*
X102725000Y-42000000D03*
D12*
X102425000Y-45030000D03*
D13*
X97275000Y-42000000D03*
D14*
X90210000Y-41870000D03*
D11*
X91110000Y-41870000D03*
X91110000Y-44410000D03*
D14*
X90210000Y-44410000D03*
D10*
X91110000Y-46950000D03*
D14*
X90210000Y-46950000D03*
D11*
X91110000Y-49490000D03*
D14*
X90210000Y-49490000D03*
X90210000Y-52030000D03*
D11*
X91110000Y-52030000D03*
X91110000Y-54570000D03*
D14*
X90210000Y-54570000D03*
D11*
X91110000Y-57110000D03*
D14*
X90210000Y-57110000D03*
X90210000Y-59650000D03*
D10*
X91110000Y-59650000D03*
D14*
X90210000Y-62190000D03*
D11*
X91110000Y-62190000D03*
D14*
X90210000Y-64730000D03*
D11*
X91110000Y-64730000D03*
D14*
X90210000Y-67270000D03*
D11*
X91110000Y-67270000D03*
X91110000Y-69810000D03*
D14*
X90210000Y-69810000D03*
X90210000Y-72350000D03*
D10*
X91110000Y-72350000D03*
D11*
X91110000Y-74890000D03*
D14*
X90210000Y-74890000D03*
X90210000Y-77430000D03*
D11*
X91110000Y-77430000D03*
X91110000Y-79970000D03*
D14*
X90210000Y-79970000D03*
D11*
X91110000Y-82510000D03*
D14*
X90210000Y-82510000D03*
D10*
X91110000Y-85050000D03*
D14*
X90210000Y-85050000D03*
D11*
X91110000Y-87590000D03*
D14*
X90210000Y-87590000D03*
X90210000Y-90130000D03*
D11*
X91110000Y-90130000D03*
D14*
X109790000Y-90130000D03*
D11*
X108890000Y-90130000D03*
D14*
X109790000Y-87590000D03*
D11*
X108890000Y-87590000D03*
D14*
X109790000Y-85050000D03*
D10*
X108890000Y-85050000D03*
D11*
X108890000Y-82510000D03*
D14*
X109790000Y-82510000D03*
X109790000Y-79970000D03*
D11*
X108890000Y-79970000D03*
X108890000Y-77430000D03*
D14*
X109790000Y-77430000D03*
D11*
X108890000Y-74890000D03*
D14*
X109790000Y-74890000D03*
D10*
X108890000Y-72350000D03*
D14*
X109790000Y-72350000D03*
X109790000Y-69810000D03*
D11*
X108890000Y-69810000D03*
D14*
X109790000Y-67270000D03*
D11*
X108890000Y-67270000D03*
X108890000Y-64730000D03*
D14*
X109790000Y-64730000D03*
D11*
X108890000Y-62190000D03*
D14*
X109790000Y-62190000D03*
X109790000Y-59650000D03*
D10*
X108890000Y-59650000D03*
D14*
X109790000Y-57110000D03*
D11*
X108890000Y-57110000D03*
X108890000Y-54570000D03*
D14*
X109790000Y-54570000D03*
D11*
X108890000Y-52030000D03*
D14*
X109790000Y-52030000D03*
D11*
X108890000Y-49490000D03*
D14*
X109790000Y-49490000D03*
X109790000Y-46950000D03*
D10*
X108890000Y-46950000D03*
D11*
X108890000Y-44410000D03*
D14*
X109790000Y-44410000D03*
D11*
X108890000Y-41870000D03*
D14*
X109790000Y-41870000D03*
D11*
X97460000Y-89900000D03*
D15*
X97460000Y-90800000D03*
D10*
X100000000Y-89900000D03*
D15*
X100000000Y-90800000D03*
D11*
X102540000Y-89900000D03*
D15*
X102540000Y-90800000D03*
%TD*%
D16*
%TO.C,U2*%
X78653800Y-76687600D03*
D17*
X78653800Y-74147600D03*
X78653800Y-71607600D03*
X78653800Y-69067600D03*
X78653800Y-66527600D03*
X78653800Y-63987600D03*
X78653800Y-61447600D03*
X71033800Y-61447600D03*
X71033800Y-63987600D03*
X71033800Y-66527600D03*
X71033800Y-69067600D03*
X71033800Y-71607600D03*
X71033800Y-74147600D03*
X71033800Y-76687600D03*
%TD*%
D18*
%TO.C,J4*%
X146197700Y-85001260D03*
X146197700Y-74998740D03*
D19*
X137002800Y-72501920D03*
X137000260Y-80000000D03*
X137002800Y-87498080D03*
X134500900Y-75003820D03*
X134500900Y-84996180D03*
%TD*%
D16*
%TO.C,U1*%
X78577600Y-57459800D03*
D17*
X78577600Y-54919800D03*
X78577600Y-52379800D03*
X78577600Y-49839800D03*
X78577600Y-47299800D03*
X78577600Y-44759800D03*
X78577600Y-42219800D03*
X70957600Y-42219800D03*
X70957600Y-44759800D03*
X70957600Y-47299800D03*
X70957600Y-49839800D03*
X70957600Y-52379800D03*
X70957600Y-54919800D03*
X70957600Y-57459800D03*
%TD*%
D18*
%TO.C,J10*%
X146197700Y-54998740D03*
X146197700Y-65001260D03*
D19*
X137002800Y-52501920D03*
X137000260Y-60000000D03*
X137002800Y-67498080D03*
X134500900Y-55003820D03*
X134500900Y-64996180D03*
%TD*%
D16*
%TO.C,D1*%
X120040400Y-64973200D03*
D17*
X127660400Y-64973200D03*
%TD*%
D20*
%TO.C,R4*%
X120000000Y-84988400D03*
D17*
X127620000Y-84988400D03*
%TD*%
%TO.C,U3*%
X71008400Y-96093200D03*
X71008400Y-93553200D03*
X71008400Y-91013200D03*
X71008400Y-88473200D03*
X71008400Y-85933200D03*
X71008400Y-83393200D03*
X71008400Y-80853200D03*
X78628400Y-80853200D03*
X78628400Y-83393200D03*
X78628400Y-85933200D03*
X78628400Y-88473200D03*
X78628400Y-91013200D03*
X78628400Y-93553200D03*
D16*
X78628400Y-96093200D03*
%TD*%
D21*
%TO.C,H2*%
X55000000Y-95000000D03*
%TD*%
D20*
%TO.C,C4*%
X118618000Y-51064800D03*
X118618000Y-46064800D03*
%TD*%
%TO.C,R10*%
X120000000Y-75107800D03*
D17*
X127620000Y-75107800D03*
%TD*%
D20*
%TO.C,C1*%
X67640200Y-57313200D03*
X67640200Y-52313200D03*
%TD*%
D16*
%TO.C,U5*%
X122087400Y-53634800D03*
D17*
X124627400Y-53634800D03*
X127167400Y-53634800D03*
X127167400Y-46014800D03*
X124627400Y-46014800D03*
X122087400Y-46014800D03*
%TD*%
D20*
%TO.C,C3*%
X67487800Y-96149800D03*
X67487800Y-91149800D03*
%TD*%
D21*
%TO.C,H1*%
X55000000Y-45000000D03*
%TD*%
%TO.C,H3*%
X145000000Y-45000000D03*
%TD*%
D17*
%TO.C,R19*%
X120040400Y-57734200D03*
D20*
X127660400Y-57734200D03*
%TD*%
D21*
%TO.C,H4*%
X145000000Y-95000000D03*
%TD*%
D20*
%TO.C,C2*%
X67538600Y-76642600D03*
X67538600Y-71642600D03*
%TD*%
%TO.C,R20*%
X120000000Y-42722800D03*
D17*
X127620000Y-42722800D03*
%TD*%
M02*
