%TF.GenerationSoftware,KiCad,Pcbnew,(6.0.5)*%
%TF.CreationDate,2022-08-31T14:42:19+01:00*%
%TF.ProjectId,PicoMIDISplitterTTL,5069636f-4d49-4444-9953-706c69747465,rev?*%
%TF.SameCoordinates,Original*%
%TF.FileFunction,Copper,L1,Top*%
%TF.FilePolarity,Positive*%
%FSLAX46Y46*%
G04 Gerber Fmt 4.6, Leading zero omitted, Abs format (unit mm)*
G04 Created by KiCad (PCBNEW (6.0.5)) date 2022-08-31 14:42:19*
%MOMM*%
%LPD*%
G01*
G04 APERTURE LIST*
%TA.AperFunction,ComponentPad*%
%ADD10R,1.700000X1.700000*%
%TD*%
%TA.AperFunction,ComponentPad*%
%ADD11O,1.700000X1.700000*%
%TD*%
%TA.AperFunction,SMDPad,CuDef*%
%ADD12R,3.500000X1.700000*%
%TD*%
%TA.AperFunction,SMDPad,CuDef*%
%ADD13R,1.700000X3.500000*%
%TD*%
%TA.AperFunction,ComponentPad*%
%ADD14R,1.600000X1.600000*%
%TD*%
%TA.AperFunction,ComponentPad*%
%ADD15O,1.600000X1.600000*%
%TD*%
%TA.AperFunction,WasherPad*%
%ADD16R,4.000000X2.500000*%
%TD*%
%TA.AperFunction,ComponentPad*%
%ADD17C,2.499360*%
%TD*%
%TA.AperFunction,ComponentPad*%
%ADD18C,1.600000*%
%TD*%
%TA.AperFunction,Conductor*%
%ADD19C,0.600000*%
%TD*%
%TA.AperFunction,Conductor*%
%ADD20C,0.800000*%
%TD*%
G04 APERTURE END LIST*
D10*
%TO.P,J1,1,Pin_1*%
%TO.N,GND*%
X52298600Y-53517800D03*
D11*
%TO.P,J1,2,Pin_2*%
%TO.N,Net-(U1-Pad8)*%
X54838600Y-53517800D03*
%TO.P,J1,3,Pin_3*%
%TO.N,GND*%
X52298600Y-56057800D03*
%TO.P,J1,4,Pin_4*%
%TO.N,Net-(U1-Pad10)*%
X54838600Y-56057800D03*
%TO.P,J1,5,Pin_5*%
%TO.N,GND*%
X52298600Y-58597800D03*
%TO.P,J1,6,Pin_6*%
%TO.N,Net-(U1-Pad12)*%
X54838600Y-58597800D03*
%TO.P,J1,7,Pin_7*%
%TO.N,GND*%
X52298600Y-61137800D03*
%TO.P,J1,8,Pin_8*%
%TO.N,Net-(U2-Pad8)*%
X54838600Y-61137800D03*
%TO.P,J1,9,Pin_9*%
%TO.N,GND*%
X52298600Y-63677800D03*
%TO.P,J1,10,Pin_10*%
%TO.N,Net-(U2-Pad10)*%
X54838600Y-63677800D03*
%TO.P,J1,11,Pin_11*%
%TO.N,GND*%
X52298600Y-66217800D03*
%TO.P,J1,12,Pin_12*%
%TO.N,Net-(U2-Pad12)*%
X54838600Y-66217800D03*
%TO.P,J1,13,Pin_13*%
%TO.N,GND*%
X52298600Y-68757800D03*
%TO.P,J1,14,Pin_14*%
%TO.N,Net-(U3-Pad8)*%
X54838600Y-68757800D03*
%TO.P,J1,15,Pin_15*%
%TO.N,GND*%
X52298600Y-71297800D03*
%TO.P,J1,16,Pin_16*%
%TO.N,Net-(U3-Pad10)*%
X54838600Y-71297800D03*
%TD*%
D12*
%TO.P,U4,1,GPIO0*%
%TO.N,/TX0*%
X90210000Y-41870000D03*
D11*
X91110000Y-41870000D03*
%TO.P,U4,2,GPIO1*%
%TO.N,/RX0*%
X91110000Y-44410000D03*
D12*
X90210000Y-44410000D03*
D10*
%TO.P,U4,3,GND*%
%TO.N,GND*%
X91110000Y-46950000D03*
D12*
X90210000Y-46950000D03*
D11*
%TO.P,U4,4,GPIO2*%
%TO.N,unconnected-(U4-Pad4)*%
X91110000Y-49490000D03*
D12*
X90210000Y-49490000D03*
%TO.P,U4,5,GPIO3*%
%TO.N,unconnected-(U4-Pad5)*%
X90210000Y-52030000D03*
D11*
X91110000Y-52030000D03*
%TO.P,U4,6,GPIO4*%
%TO.N,/TX1*%
X91110000Y-54570000D03*
D12*
X90210000Y-54570000D03*
D11*
%TO.P,U4,7,GPIO5*%
%TO.N,/RX1*%
X91110000Y-57110000D03*
D12*
X90210000Y-57110000D03*
%TO.P,U4,8,GND*%
%TO.N,GND*%
X90210000Y-59650000D03*
D10*
X91110000Y-59650000D03*
D12*
%TO.P,U4,9,GPIO6*%
%TO.N,/PIO_TX0*%
X90210000Y-62190000D03*
D11*
X91110000Y-62190000D03*
D12*
%TO.P,U4,10,GPIO7*%
%TO.N,/PIO_TX1*%
X90210000Y-64730000D03*
D11*
X91110000Y-64730000D03*
D12*
%TO.P,U4,11,GPIO8*%
%TO.N,/PIO_TX2*%
X90210000Y-67270000D03*
D11*
X91110000Y-67270000D03*
%TO.P,U4,12,GPIO9*%
%TO.N,/PIO_TX3*%
X91110000Y-69810000D03*
D12*
X90210000Y-69810000D03*
%TO.P,U4,13,GND*%
%TO.N,GND*%
X90210000Y-72350000D03*
D10*
X91110000Y-72350000D03*
D11*
%TO.P,U4,14,GPIO10*%
%TO.N,/PIO_TX4*%
X91110000Y-74890000D03*
D12*
X90210000Y-74890000D03*
%TO.P,U4,15,GPIO11*%
%TO.N,/PIO_TX5*%
X90210000Y-77430000D03*
D11*
X91110000Y-77430000D03*
%TO.P,U4,16,GPIO12*%
%TO.N,/PIO_TX6*%
X91110000Y-79970000D03*
D12*
X90210000Y-79970000D03*
D11*
%TO.P,U4,17,GPIO13*%
%TO.N,/PIO_TX7*%
X91110000Y-82510000D03*
D12*
X90210000Y-82510000D03*
D10*
%TO.P,U4,18,GND*%
%TO.N,GND*%
X91110000Y-85050000D03*
D12*
X90210000Y-85050000D03*
D11*
%TO.P,U4,19,GPIO14*%
%TO.N,unconnected-(U4-Pad19)*%
X91110000Y-87590000D03*
D12*
X90210000Y-87590000D03*
%TO.P,U4,20,GPIO15*%
%TO.N,unconnected-(U4-Pad20)*%
X90210000Y-90130000D03*
D11*
X91110000Y-90130000D03*
D12*
%TO.P,U4,21,GPIO16*%
%TO.N,unconnected-(U4-Pad21)*%
X109790000Y-90130000D03*
D11*
X108890000Y-90130000D03*
D12*
%TO.P,U4,22,GPIO17*%
%TO.N,unconnected-(U4-Pad22)*%
X109790000Y-87590000D03*
D11*
X108890000Y-87590000D03*
D12*
%TO.P,U4,23,GND*%
%TO.N,GND*%
X109790000Y-85050000D03*
D10*
X108890000Y-85050000D03*
D11*
%TO.P,U4,24,GPIO18*%
%TO.N,unconnected-(U4-Pad24)*%
X108890000Y-82510000D03*
D12*
X109790000Y-82510000D03*
%TO.P,U4,25,GPIO19*%
%TO.N,unconnected-(U4-Pad25)*%
X109790000Y-79970000D03*
D11*
X108890000Y-79970000D03*
%TO.P,U4,26,GPIO20*%
%TO.N,unconnected-(U4-Pad26)*%
X108890000Y-77430000D03*
D12*
X109790000Y-77430000D03*
D11*
%TO.P,U4,27,GPIO21*%
%TO.N,unconnected-(U4-Pad27)*%
X108890000Y-74890000D03*
D12*
X109790000Y-74890000D03*
D10*
%TO.P,U4,28,GND*%
%TO.N,GND*%
X108890000Y-72350000D03*
D12*
X109790000Y-72350000D03*
%TO.P,U4,29,GPIO22*%
%TO.N,unconnected-(U4-Pad29)*%
X109790000Y-69810000D03*
D11*
X108890000Y-69810000D03*
D12*
%TO.P,U4,30,RUN*%
%TO.N,unconnected-(U4-Pad30)*%
X109790000Y-67270000D03*
D11*
X108890000Y-67270000D03*
%TO.P,U4,31,GPIO26_ADC0*%
%TO.N,unconnected-(U4-Pad31)*%
X108890000Y-64730000D03*
D12*
X109790000Y-64730000D03*
D11*
%TO.P,U4,32,GPIO27_ADC1*%
%TO.N,unconnected-(U4-Pad32)*%
X108890000Y-62190000D03*
D12*
X109790000Y-62190000D03*
%TO.P,U4,33,AGND*%
%TO.N,unconnected-(U4-Pad33)*%
X109790000Y-59650000D03*
D10*
X108890000Y-59650000D03*
D12*
%TO.P,U4,34,GPIO28_ADC2*%
%TO.N,unconnected-(U4-Pad34)*%
X109790000Y-57110000D03*
D11*
X108890000Y-57110000D03*
%TO.P,U4,35,ADC_VREF*%
%TO.N,unconnected-(U4-Pad35)*%
X108890000Y-54570000D03*
D12*
X109790000Y-54570000D03*
D11*
%TO.P,U4,36,3V3*%
%TO.N,+3V3*%
X108890000Y-52030000D03*
D12*
X109790000Y-52030000D03*
D11*
%TO.P,U4,37,3V3_EN*%
%TO.N,unconnected-(U4-Pad37)*%
X108890000Y-49490000D03*
D12*
X109790000Y-49490000D03*
%TO.P,U4,38,GND*%
%TO.N,GND*%
X109790000Y-46950000D03*
D10*
X108890000Y-46950000D03*
D11*
%TO.P,U4,39,VSYS*%
%TO.N,unconnected-(U4-Pad39)*%
X108890000Y-44410000D03*
D12*
X109790000Y-44410000D03*
D11*
%TO.P,U4,40,VBUS*%
%TO.N,+5V*%
X108890000Y-41870000D03*
D12*
X109790000Y-41870000D03*
D11*
%TO.P,U4,41,SWCLK*%
%TO.N,unconnected-(U4-Pad41)*%
X97460000Y-89900000D03*
D13*
X97460000Y-90800000D03*
D10*
%TO.P,U4,42,GND*%
%TO.N,unconnected-(U4-Pad42)*%
X100000000Y-89900000D03*
D13*
X100000000Y-90800000D03*
D11*
%TO.P,U4,43,SWDIO*%
%TO.N,unconnected-(U4-Pad43)*%
X102540000Y-89900000D03*
D13*
X102540000Y-90800000D03*
%TD*%
D14*
%TO.P,U2,1*%
%TO.N,/PIO_TX5*%
X78653800Y-76687600D03*
D15*
%TO.P,U2,2*%
%TO.N,Net-(U2-Pad13)*%
X78653800Y-74147600D03*
%TO.P,U2,3*%
%TO.N,/PIO_TX4*%
X78653800Y-71607600D03*
%TO.P,U2,4*%
%TO.N,Net-(U2-Pad11)*%
X78653800Y-69067600D03*
%TO.P,U2,5*%
%TO.N,/PIO_TX3*%
X78653800Y-66527600D03*
%TO.P,U2,6*%
%TO.N,Net-(U2-Pad6)*%
X78653800Y-63987600D03*
%TO.P,U2,7,GND*%
%TO.N,GND*%
X78653800Y-61447600D03*
%TO.P,U2,8*%
%TO.N,Net-(U2-Pad8)*%
X71033800Y-61447600D03*
%TO.P,U2,9*%
%TO.N,Net-(U2-Pad6)*%
X71033800Y-63987600D03*
%TO.P,U2,10*%
%TO.N,Net-(U2-Pad10)*%
X71033800Y-66527600D03*
%TO.P,U2,11*%
%TO.N,Net-(U2-Pad11)*%
X71033800Y-69067600D03*
%TO.P,U2,12*%
%TO.N,Net-(U2-Pad12)*%
X71033800Y-71607600D03*
%TO.P,U2,13*%
%TO.N,Net-(U2-Pad13)*%
X71033800Y-74147600D03*
%TO.P,U2,14,VCC*%
%TO.N,+5V*%
X71033800Y-76687600D03*
%TD*%
D16*
%TO.P,J4,*%
%TO.N,*%
X146197700Y-85001260D03*
X146197700Y-74998740D03*
D17*
%TO.P,J4,1*%
%TO.N,unconnected-(J4-Pad1)*%
X137002800Y-72501920D03*
%TO.P,J4,2*%
%TO.N,GND*%
X137000260Y-80000000D03*
%TO.P,J4,3*%
%TO.N,unconnected-(J4-Pad3)*%
X137002800Y-87498080D03*
%TO.P,J4,4*%
%TO.N,Net-(J4-Pad4)*%
X134500900Y-75003820D03*
%TO.P,J4,5*%
%TO.N,Net-(J4-Pad5)*%
X134500900Y-84996180D03*
%TD*%
D14*
%TO.P,U1,1*%
%TO.N,/PIO_TX2*%
X78577600Y-57459800D03*
D15*
%TO.P,U1,2*%
%TO.N,Net-(U1-Pad13)*%
X78577600Y-54919800D03*
%TO.P,U1,3*%
%TO.N,/PIO_TX1*%
X78577600Y-52379800D03*
%TO.P,U1,4*%
%TO.N,Net-(U1-Pad11)*%
X78577600Y-49839800D03*
%TO.P,U1,5*%
%TO.N,/PIO_TX0*%
X78577600Y-47299800D03*
%TO.P,U1,6*%
%TO.N,Net-(U1-Pad6)*%
X78577600Y-44759800D03*
%TO.P,U1,7,GND*%
%TO.N,GND*%
X78577600Y-42219800D03*
%TO.P,U1,8*%
%TO.N,Net-(U1-Pad8)*%
X70957600Y-42219800D03*
%TO.P,U1,9*%
%TO.N,Net-(U1-Pad6)*%
X70957600Y-44759800D03*
%TO.P,U1,10*%
%TO.N,Net-(U1-Pad10)*%
X70957600Y-47299800D03*
%TO.P,U1,11*%
%TO.N,Net-(U1-Pad11)*%
X70957600Y-49839800D03*
%TO.P,U1,12*%
%TO.N,Net-(U1-Pad12)*%
X70957600Y-52379800D03*
%TO.P,U1,13*%
%TO.N,Net-(U1-Pad13)*%
X70957600Y-54919800D03*
%TO.P,U1,14,VCC*%
%TO.N,+5V*%
X70957600Y-57459800D03*
%TD*%
D16*
%TO.P,J10,*%
%TO.N,*%
X146197700Y-54998740D03*
X146197700Y-65001260D03*
D17*
%TO.P,J10,1*%
%TO.N,unconnected-(J10-Pad1)*%
X137002800Y-52501920D03*
%TO.P,J10,2*%
%TO.N,unconnected-(J10-Pad2)*%
X137000260Y-60000000D03*
%TO.P,J10,3*%
%TO.N,unconnected-(J10-Pad3)*%
X137002800Y-67498080D03*
%TO.P,J10,4*%
%TO.N,Net-(J10-Pad4)*%
X134500900Y-55003820D03*
%TO.P,J10,5*%
%TO.N,Net-(D1-Pad2)*%
X134500900Y-64996180D03*
%TD*%
D14*
%TO.P,D1,1,K*%
%TO.N,Net-(D1-Pad1)*%
X120040400Y-64973200D03*
D15*
%TO.P,D1,2,A*%
%TO.N,Net-(D1-Pad2)*%
X127660400Y-64973200D03*
%TD*%
D18*
%TO.P,R4,1*%
%TO.N,Net-(R4-Pad1)*%
X120000000Y-84988400D03*
D15*
%TO.P,R4,2*%
%TO.N,Net-(J4-Pad5)*%
X127620000Y-84988400D03*
%TD*%
%TO.P,U3,14,VCC*%
%TO.N,+5V*%
X71008400Y-96093200D03*
%TO.P,U3,13*%
%TO.N,Net-(U3-Pad13)*%
X71008400Y-93553200D03*
%TO.P,U3,12*%
%TO.N,Net-(R4-Pad1)*%
X71008400Y-91013200D03*
%TO.P,U3,11*%
%TO.N,Net-(U3-Pad11)*%
X71008400Y-88473200D03*
%TO.P,U3,10*%
%TO.N,Net-(U3-Pad10)*%
X71008400Y-85933200D03*
%TO.P,U3,9*%
%TO.N,Net-(U3-Pad6)*%
X71008400Y-83393200D03*
%TO.P,U3,8*%
%TO.N,Net-(U3-Pad8)*%
X71008400Y-80853200D03*
%TO.P,U3,7,GND*%
%TO.N,GND*%
X78628400Y-80853200D03*
%TO.P,U3,6*%
%TO.N,Net-(U3-Pad6)*%
X78628400Y-83393200D03*
%TO.P,U3,5*%
%TO.N,/PIO_TX6*%
X78628400Y-85933200D03*
%TO.P,U3,4*%
%TO.N,Net-(U3-Pad11)*%
X78628400Y-88473200D03*
%TO.P,U3,3*%
%TO.N,/PIO_TX7*%
X78628400Y-91013200D03*
%TO.P,U3,2*%
%TO.N,Net-(U3-Pad13)*%
X78628400Y-93553200D03*
D14*
%TO.P,U3,1*%
%TO.N,/TX0*%
X78628400Y-96093200D03*
%TD*%
D18*
%TO.P,C4,1*%
%TO.N,GND*%
X118618000Y-51064800D03*
%TO.P,C4,2*%
%TO.N,+3V3*%
X118618000Y-46064800D03*
%TD*%
%TO.P,R10,1*%
%TO.N,+5V*%
X120000000Y-75107800D03*
D15*
%TO.P,R10,2*%
%TO.N,Net-(J4-Pad4)*%
X127620000Y-75107800D03*
%TD*%
D18*
%TO.P,C1,1*%
%TO.N,+5V*%
X67640200Y-57313200D03*
%TO.P,C1,2*%
%TO.N,GND*%
X67640200Y-52313200D03*
%TD*%
D14*
%TO.P,U5,1*%
%TO.N,Net-(D1-Pad1)*%
X122087400Y-53634800D03*
D15*
%TO.P,U5,2*%
%TO.N,Net-(D1-Pad2)*%
X124627400Y-53634800D03*
%TO.P,U5,3*%
%TO.N,unconnected-(U5-Pad3)*%
X127167400Y-53634800D03*
%TO.P,U5,4*%
%TO.N,/RX0*%
X127167400Y-46014800D03*
%TO.P,U5,5*%
%TO.N,GND*%
X124627400Y-46014800D03*
%TO.P,U5,6*%
%TO.N,+3V3*%
X122087400Y-46014800D03*
%TD*%
D18*
%TO.P,C3,1*%
%TO.N,+5V*%
X67487800Y-96149800D03*
%TO.P,C3,2*%
%TO.N,GND*%
X67487800Y-91149800D03*
%TD*%
D15*
%TO.P,R19,2*%
%TO.N,Net-(D1-Pad1)*%
X120040400Y-57734200D03*
D18*
%TO.P,R19,1*%
%TO.N,Net-(J10-Pad4)*%
X127660400Y-57734200D03*
%TD*%
%TO.P,C2,1*%
%TO.N,+5V*%
X67538600Y-76642600D03*
%TO.P,C2,2*%
%TO.N,GND*%
X67538600Y-71642600D03*
%TD*%
%TO.P,R20,1*%
%TO.N,+3V3*%
X120000000Y-42722800D03*
D15*
%TO.P,R20,2*%
%TO.N,/RX0*%
X127620000Y-42722800D03*
%TD*%
D19*
%TO.N,/TX0*%
X93675200Y-91592400D02*
X91732100Y-93535500D01*
X81249600Y-96093200D02*
X78628400Y-96093200D01*
X92466800Y-41870000D02*
X93675200Y-43078400D01*
X93675200Y-43078400D02*
X93675200Y-91592400D01*
X91732100Y-93535500D02*
X83807300Y-93535500D01*
X83807300Y-93535500D02*
X81249600Y-96093200D01*
X91110000Y-41870000D02*
X92466800Y-41870000D01*
%TO.N,/PIO_TX0*%
X81056400Y-47299800D02*
X78577600Y-47299800D01*
X86563200Y-60756800D02*
X86563200Y-52806600D01*
X87996400Y-62190000D02*
X86563200Y-60756800D01*
X91110000Y-62190000D02*
X87996400Y-62190000D01*
X86563200Y-52806600D02*
X81056400Y-47299800D01*
%TO.N,/PIO_TX1*%
X84175600Y-60833000D02*
X84175600Y-55270400D01*
X84150200Y-60858400D02*
X84175600Y-60833000D01*
X81285000Y-52379800D02*
X78577600Y-52379800D01*
X88021800Y-64730000D02*
X84150200Y-60858400D01*
X91110000Y-64730000D02*
X88021800Y-64730000D01*
X84175600Y-55270400D02*
X81285000Y-52379800D01*
%TO.N,/PIO_TX5*%
X85191600Y-77444600D02*
X91095400Y-77444600D01*
X84434600Y-76687600D02*
X85191600Y-77444600D01*
X78653800Y-76687600D02*
X84434600Y-76687600D01*
%TO.N,/PIO_TX3*%
X86106000Y-69875400D02*
X86171400Y-69810000D01*
X86171400Y-69810000D02*
X91110000Y-69810000D01*
X82758200Y-66527600D02*
X86106000Y-69875400D01*
X78653800Y-66527600D02*
X82758200Y-66527600D01*
%TO.N,/PIO_TX4*%
X86091400Y-74890000D02*
X91110000Y-74890000D01*
X82809000Y-71607600D02*
X86091400Y-74890000D01*
X78653800Y-71607600D02*
X82809000Y-71607600D01*
%TO.N,Net-(U2-Pad13)*%
X71033800Y-74147600D02*
X78653800Y-74147600D01*
%TO.N,Net-(U2-Pad11)*%
X71033800Y-69067600D02*
X78653800Y-69067600D01*
%TO.N,Net-(U2-Pad6)*%
X71033800Y-63987600D02*
X78653800Y-63987600D01*
D20*
%TO.N,+5V*%
X81635600Y-98247200D02*
X81902300Y-97980500D01*
X81902300Y-97980500D02*
X83852080Y-96030720D01*
X73919000Y-96093200D02*
X76073000Y-98247200D01*
X76073000Y-98247200D02*
X81635600Y-98247200D01*
X71008400Y-96093200D02*
X73919000Y-96093200D01*
X70951800Y-96149800D02*
X71008400Y-96093200D01*
X67487800Y-96149800D02*
X70951800Y-96149800D01*
D19*
%TO.N,Net-(U3-Pad13)*%
X71008400Y-93553200D02*
X78628400Y-93553200D01*
%TO.N,/PIO_TX7*%
X88300000Y-82510000D02*
X79796800Y-91013200D01*
X91110000Y-82510000D02*
X88300000Y-82510000D01*
X79796800Y-91013200D02*
X78628400Y-91013200D01*
%TO.N,/PIO_TX6*%
X81601400Y-85933200D02*
X87564600Y-79970000D01*
X78628400Y-85933200D02*
X81601400Y-85933200D01*
%TO.N,Net-(U3-Pad11)*%
X71008400Y-88473200D02*
X78628400Y-88473200D01*
%TO.N,Net-(U3-Pad6)*%
X71008400Y-83393200D02*
X78628400Y-83393200D01*
%TO.N,Net-(U3-Pad10)*%
X71008400Y-85933200D02*
X66893600Y-85933200D01*
X66893600Y-85933200D02*
X65118100Y-84157700D01*
X54838600Y-73878200D02*
X65118100Y-84157700D01*
%TO.N,Net-(U3-Pad8)*%
X67137200Y-80853200D02*
X65874900Y-79590900D01*
X71008400Y-80853200D02*
X67137200Y-80853200D01*
X65874900Y-79590900D02*
X55056800Y-68772800D01*
D20*
%TO.N,+5V*%
X67583600Y-76687600D02*
X67538600Y-76642600D01*
X71033800Y-76687600D02*
X67583600Y-76687600D01*
D19*
%TO.N,Net-(U2-Pad12)*%
X65644000Y-66217800D02*
X71033800Y-71607600D01*
X54838600Y-66217800D02*
X65644000Y-66217800D01*
%TO.N,Net-(U2-Pad10)*%
X68686600Y-66527600D02*
X71033800Y-66527600D01*
X65836800Y-63677800D02*
X68686600Y-66527600D01*
%TO.N,Net-(U2-Pad8)*%
X70724000Y-61137800D02*
X71033800Y-61447600D01*
X54838600Y-61137800D02*
X70724000Y-61137800D01*
D20*
%TO.N,+5V*%
X70957600Y-57459800D02*
X67786800Y-57459800D01*
X67786800Y-57459800D02*
X67640200Y-57313200D01*
D19*
%TO.N,Net-(U1-Pad13)*%
X70957600Y-54919800D02*
X78577600Y-54919800D01*
%TO.N,Net-(U1-Pad11)*%
X70957600Y-49839800D02*
X78577600Y-49839800D01*
%TO.N,Net-(U1-Pad6)*%
X70957600Y-44759800D02*
X78577600Y-44759800D01*
%TO.N,Net-(U1-Pad12)*%
X63779400Y-58597800D02*
X69997400Y-52379800D01*
X69997400Y-52379800D02*
X70957600Y-52379800D01*
X54838600Y-58597800D02*
X63779400Y-58597800D01*
%TO.N,Net-(U1-Pad10)*%
X70957600Y-47299800D02*
X68956000Y-47299800D01*
%TO.N,Net-(U1-Pad8)*%
X70957600Y-42219800D02*
X69464000Y-42219800D01*
X69464000Y-42219800D02*
X58166000Y-53517800D01*
X58166000Y-53517800D02*
X54838600Y-53517800D01*
%TO.N,Net-(U1-Pad10)*%
X67462400Y-48793400D02*
X68956000Y-47299800D01*
X67462400Y-48793400D02*
X68148200Y-48107600D01*
X60198000Y-56057800D02*
X67462400Y-48793400D01*
X68148200Y-48107600D02*
X68448000Y-47807800D01*
%TO.N,/PIO_TX6*%
X91110000Y-79970000D02*
X87564600Y-79970000D01*
D20*
%TO.N,+5V*%
X113411000Y-91858440D02*
X113411000Y-75057000D01*
X83852080Y-96030720D02*
X109238720Y-96030720D01*
X109238720Y-96030720D02*
X113411000Y-91858440D01*
D19*
%TO.N,Net-(U1-Pad10)*%
X54838600Y-56057800D02*
X60198000Y-56057800D01*
%TO.N,Net-(U2-Pad10)*%
X54838600Y-63677800D02*
X65836800Y-63677800D01*
%TO.N,Net-(U3-Pad10)*%
X54838600Y-71297800D02*
X54838600Y-73878200D01*
D20*
%TO.N,+3V3*%
X122037400Y-46064800D02*
X122087400Y-46014800D01*
X118618000Y-46064800D02*
X122037400Y-46064800D01*
%TO.N,+5V*%
X113461800Y-75107800D02*
X120000000Y-75107800D01*
X113411000Y-75057000D02*
X113461800Y-75107800D01*
X113411000Y-42900600D02*
X113411000Y-75057000D01*
X108890000Y-41870000D02*
X112380400Y-41870000D01*
X112380400Y-41870000D02*
X113411000Y-42900600D01*
D19*
%TO.N,Net-(J4-Pad5)*%
X134493120Y-84988400D02*
X134500900Y-84996180D01*
X127620000Y-84988400D02*
X134493120Y-84988400D01*
%TO.N,Net-(J4-Pad4)*%
X134396920Y-75107800D02*
X134500900Y-75003820D01*
X127620000Y-75107800D02*
X134396920Y-75107800D01*
%TO.N,Net-(D1-Pad1)*%
X122087400Y-55687200D02*
X120040400Y-57734200D01*
X122087400Y-53634800D02*
X122087400Y-55687200D01*
X120040400Y-64973200D02*
X120040400Y-57734200D01*
%TO.N,Net-(D1-Pad2)*%
X124627400Y-61940200D02*
X127660400Y-64973200D01*
X124627400Y-53634800D02*
X124627400Y-61940200D01*
X134477920Y-64973200D02*
X134500900Y-64996180D01*
X127660400Y-64973200D02*
X134477920Y-64973200D01*
%TO.N,Net-(J10-Pad4)*%
X131770520Y-57734200D02*
X134500900Y-55003820D01*
X127660400Y-57734200D02*
X131770520Y-57734200D01*
%TO.N,/RX0*%
X127620000Y-42722800D02*
X127620000Y-45562200D01*
X127620000Y-45562200D02*
X127167400Y-46014800D01*
%TO.N,/PIO_TX2*%
X88047200Y-67270000D02*
X91110000Y-67270000D01*
X78679200Y-57967800D02*
X78745000Y-57967800D01*
X78745000Y-57967800D02*
X88047200Y-67270000D01*
D20*
%TO.N,+3V3*%
X122087400Y-44810200D02*
X120000000Y-42722800D01*
X122087400Y-46014800D02*
X122087400Y-44810200D01*
%TD*%
M02*
