G04 #@! TF.GenerationSoftware,KiCad,Pcbnew,(6.0.5)*
G04 #@! TF.CreationDate,2022-08-31T18:22:49+01:00*
G04 #@! TF.ProjectId,RPi-V1-Synth-IOBoard,5250692d-5631-42d5-9379-6e74682d494f,rev?*
G04 #@! TF.SameCoordinates,Original*
G04 #@! TF.FileFunction,Soldermask,Bot*
G04 #@! TF.FilePolarity,Negative*
%FSLAX46Y46*%
G04 Gerber Fmt 4.6, Leading zero omitted, Abs format (unit mm)*
G04 Created by KiCad (PCBNEW (6.0.5)) date 2022-08-31 18:22:49*
%MOMM*%
%LPD*%
G01*
G04 APERTURE LIST*
G04 Aperture macros list*
%AMRoundRect*
0 Rectangle with rounded corners*
0 $1 Rounding radius*
0 $2 $3 $4 $5 $6 $7 $8 $9 X,Y pos of 4 corners*
0 Add a 4 corners polygon primitive as box body*
4,1,4,$2,$3,$4,$5,$6,$7,$8,$9,$2,$3,0*
0 Add four circle primitives for the rounded corners*
1,1,$1+$1,$2,$3*
1,1,$1+$1,$4,$5*
1,1,$1+$1,$6,$7*
1,1,$1+$1,$8,$9*
0 Add four rect primitives between the rounded corners*
20,1,$1+$1,$2,$3,$4,$5,0*
20,1,$1+$1,$4,$5,$6,$7,0*
20,1,$1+$1,$6,$7,$8,$9,0*
20,1,$1+$1,$8,$9,$2,$3,0*%
G04 Aperture macros list end*
%ADD10C,2.499360*%
%ADD11R,1.700000X1.700000*%
%ADD12O,1.700000X1.700000*%
%ADD13R,1.800000X1.800000*%
%ADD14C,1.800000*%
%ADD15RoundRect,0.750000X-0.750000X1.250000X-0.750000X-1.250000X0.750000X-1.250000X0.750000X1.250000X0*%
%ADD16C,1.600000*%
%ADD17R,1.600000X1.600000*%
%ADD18O,1.600000X1.600000*%
%ADD19C,2.700000*%
%ADD20C,1.700000*%
G04 APERTURE END LIST*
D10*
X156083000Y-141472920D03*
X158584900Y-153967180D03*
X156085540Y-148971000D03*
X156083000Y-156469080D03*
X158584900Y-143974820D03*
X146088100Y-153972260D03*
X146088100Y-143969740D03*
D11*
X198348600Y-155346400D03*
D12*
X198348600Y-152806400D03*
X198348600Y-150266400D03*
X198348600Y-147726400D03*
D11*
X200888600Y-155346400D03*
D12*
X200888600Y-152806400D03*
X200888600Y-150266400D03*
X200888600Y-147726400D03*
D11*
X203428600Y-155346400D03*
D12*
X203428600Y-152806400D03*
X203428600Y-150266400D03*
X203428600Y-147726400D03*
D13*
X172561800Y-167762200D03*
D14*
X170061800Y-167762200D03*
X167561800Y-167762200D03*
D15*
X174461800Y-174762200D03*
X165661800Y-174762200D03*
D13*
X217561800Y-167762200D03*
D14*
X215061800Y-167762200D03*
X212561800Y-167762200D03*
D15*
X219461800Y-174762200D03*
X210661800Y-174762200D03*
D13*
X202561800Y-167762200D03*
D14*
X200061800Y-167762200D03*
X197561800Y-167762200D03*
D15*
X204461800Y-174762200D03*
X195661800Y-174762200D03*
D13*
X187561800Y-167762200D03*
D14*
X185061800Y-167762200D03*
X182561800Y-167762200D03*
D15*
X189461800Y-174762200D03*
X180661800Y-174762200D03*
D11*
X211328000Y-155412600D03*
D12*
X211328000Y-152872600D03*
X211328000Y-150332600D03*
X211328000Y-147792600D03*
D11*
X213868000Y-155412600D03*
D12*
X213868000Y-152872600D03*
X213868000Y-150332600D03*
X213868000Y-147792600D03*
D11*
X208788000Y-155412600D03*
D12*
X208788000Y-152872600D03*
X208788000Y-150332600D03*
X208788000Y-147792600D03*
D16*
X190206000Y-162280600D03*
X185206000Y-162280600D03*
D17*
X192938400Y-159131000D03*
D18*
X192938400Y-156591000D03*
X192938400Y-154051000D03*
X192938400Y-151511000D03*
X192938400Y-148971000D03*
X192938400Y-146431000D03*
X192938400Y-143891000D03*
X192938400Y-141351000D03*
X185318400Y-141351000D03*
X185318400Y-143891000D03*
X185318400Y-146431000D03*
X185318400Y-148971000D03*
X185318400Y-151511000D03*
X185318400Y-154051000D03*
X185318400Y-156591000D03*
X185318400Y-159131000D03*
D19*
X169000000Y-163000000D03*
D11*
X145755360Y-130279140D03*
D12*
X145755360Y-127739140D03*
X148295360Y-130279140D03*
X148295360Y-127739140D03*
X150835360Y-130279140D03*
X150835360Y-127739140D03*
X153375360Y-130279140D03*
X153375360Y-127739140D03*
X155915360Y-130279140D03*
X155915360Y-127739140D03*
X158455360Y-130279140D03*
X158455360Y-127739140D03*
X160995360Y-130279140D03*
X160995360Y-127739140D03*
X163535360Y-130279140D03*
X163535360Y-127739140D03*
X166075360Y-130279140D03*
X166075360Y-127739140D03*
X168615360Y-130279140D03*
X168615360Y-127739140D03*
X171155360Y-130279140D03*
X171155360Y-127739140D03*
X173695360Y-130279140D03*
X173695360Y-127739140D03*
X176235360Y-130279140D03*
X176235360Y-127739140D03*
D17*
X170850400Y-147411600D03*
D18*
X170850400Y-149951600D03*
X170850400Y-152491600D03*
X178470400Y-152491600D03*
X178470400Y-149951600D03*
X178470400Y-147411600D03*
D16*
X181889400Y-146964400D03*
D18*
X181889400Y-154584400D03*
D16*
X164261800Y-157632400D03*
D18*
X171881800Y-157632400D03*
D16*
X174625000Y-157632400D03*
D18*
X182245000Y-157632400D03*
D16*
X164592000Y-154533600D03*
D18*
X164592000Y-146913600D03*
D11*
X150835360Y-135359140D03*
D12*
X150835360Y-132819140D03*
X153375360Y-135359140D03*
X153375360Y-132819140D03*
X155915360Y-135359140D03*
X155915360Y-132819140D03*
X158455360Y-135359140D03*
X158455360Y-132819140D03*
D10*
X156235400Y-161361120D03*
X158737300Y-173855380D03*
X156237940Y-168859200D03*
X156235400Y-176357280D03*
X158737300Y-163863020D03*
X146240500Y-173860460D03*
X146240500Y-163857940D03*
D17*
X167767000Y-146786600D03*
D18*
X167767000Y-154406600D03*
D16*
X194614800Y-131644400D03*
X194614800Y-126644400D03*
X178551200Y-144373600D03*
X173551200Y-144373600D03*
D20*
X220172000Y-140399200D03*
X217632000Y-140399200D03*
X215092000Y-140399200D03*
X212552000Y-140399200D03*
X210012000Y-140399200D03*
X207472000Y-140399200D03*
X204932000Y-140399200D03*
X202392000Y-140399200D03*
X199852000Y-140399200D03*
X226522000Y-139764200D03*
X226522000Y-137224200D03*
X226522000Y-134684200D03*
X226522000Y-132144200D03*
X226522000Y-129604200D03*
X226522000Y-127064200D03*
M02*
