M48
; DRILL file {KiCad (6.0.5)} date Mon Aug  7 19:05:32 2023
; FORMAT={-:-/ absolute / inch / decimal}
; #@! TF.CreationDate,2023-08-07T19:05:32+01:00
; #@! TF.GenerationSoftware,Kicad,Pcbnew,(6.0.5)
; #@! TF.FileFunction,MixedPlating,1,2
FMAT,2
INCH
; #@! TA.AperFunction,Plated,PTH,ComponentDrill
T1C0.0315
; #@! TA.AperFunction,Plated,PTH,ComponentDrill
T2C0.0354
; #@! TA.AperFunction,Plated,PTH,ComponentDrill
T3C0.0394
; #@! TA.AperFunction,NonPlated,NPTH,ComponentDrill
T4C0.0197
%
G90
G05
T1
X1.3268Y-3.1598
X1.3268Y-3.9992
X1.3272Y-1.4862
X1.3275Y-2.3217
X1.3374Y-2.7291
X1.3374Y-2.8291
X1.3374Y-2.9291
X1.3374Y-3.0291
X1.3374Y-3.5685
X1.3374Y-3.6685
X1.3374Y-3.7685
X1.3374Y-3.8685
X1.3378Y-1.0555
X1.3378Y-1.1555
X1.3378Y-1.2555
X1.3378Y-1.3555
X1.3381Y-1.8909
X1.3381Y-1.9909
X1.3381Y-2.0909
X1.3381Y-2.1909
X1.5236Y-3.1598
X1.5236Y-3.9992
X1.524Y-1.4862
X1.5243Y-2.3217
X1.5888Y-4.3904
X1.5888Y-4.6904
X1.6244Y-3.1433
X1.6244Y-3.3402
X1.6244Y-3.9827
X1.6244Y-4.1795
X1.6248Y-1.4697
X1.6248Y-1.6665
X1.6251Y-2.3051
X1.6251Y-2.502
X1.6374Y-2.7291
X1.6374Y-2.8291
X1.6374Y-2.9291
X1.6374Y-3.0291
X1.6374Y-3.5685
X1.6374Y-3.6685
X1.6374Y-3.7685
X1.6374Y-3.8685
X1.6378Y-1.0555
X1.6378Y-1.1555
X1.6378Y-1.2555
X1.6378Y-1.3555
X1.6381Y-1.8909
X1.6381Y-1.9909
X1.6381Y-2.0909
X1.6381Y-2.1909
X1.6888Y-4.3904
X1.6888Y-4.6904
X1.752Y-2.7283
X1.752Y-3.5677
X1.7524Y-1.0547
X1.7527Y-1.8902
X1.7528Y-2.8535
X1.7528Y-3.6929
X1.7531Y-1.1799
X1.7535Y-2.0154
X1.7888Y-4.3904
X1.7888Y-4.6904
X1.8067Y-3.2187
X1.8067Y-3.2974
X1.8067Y-4.0581
X1.8067Y-4.1368
X1.8071Y-1.5451
X1.8071Y-1.6238
X1.8074Y-2.3805
X1.8074Y-2.4592
X1.8091Y-2.9931
X1.8091Y-3.0719
X1.8091Y-3.8325
X1.8091Y-3.9112
X1.8094Y-1.3195
X1.8094Y-1.3982
X1.8098Y-2.1549
X1.8098Y-2.2337
X1.8888Y-4.3904
X1.8888Y-4.6904
X2.0246Y-4.3904
X2.0246Y-4.6904
X2.052Y-2.7283
X2.052Y-3.5677
X2.0524Y-1.0547
X2.0527Y-1.8902
X2.0528Y-2.8535
X2.0528Y-3.6929
X2.0531Y-1.1799
X2.0535Y-2.0154
X2.1573Y-4.3904
X2.1573Y-4.6904
X2.273Y-4.6289
X2.2762Y-4.4455
X2.4699Y-4.6289
X2.473Y-4.4455
X2.5472Y-2.3217
X2.5476Y-1.4862
X2.5476Y-3.1606
X2.548Y-3.9988
X2.5579Y-1.8909
X2.5579Y-1.9909
X2.5579Y-2.0909
X2.5579Y-2.1909
X2.5583Y-1.0555
X2.5583Y-1.1555
X2.5583Y-1.2555
X2.5583Y-1.3555
X2.5583Y-2.7299
X2.5583Y-2.8299
X2.5583Y-2.9299
X2.5583Y-3.0299
X2.5587Y-3.5681
X2.5587Y-3.6681
X2.5587Y-3.7681
X2.5587Y-3.8681
X2.6367Y-4.5376
X2.7441Y-2.3217
X2.7445Y-1.4862
X2.7445Y-3.1606
X2.7449Y-3.9988
X2.7745Y-4.5376
X2.8449Y-2.3051
X2.8449Y-2.502
X2.8453Y-1.4697
X2.8453Y-1.6665
X2.8453Y-3.1441
X2.8453Y-3.3409
X2.8457Y-3.9823
X2.8457Y-4.1791
X2.8579Y-1.8909
X2.8579Y-1.9909
X2.8579Y-2.0909
X2.8579Y-2.1909
X2.8583Y-1.0555
X2.8583Y-1.1555
X2.8583Y-1.2555
X2.8583Y-1.3555
X2.8583Y-2.7299
X2.8583Y-2.8299
X2.8583Y-2.9299
X2.8583Y-3.0299
X2.8587Y-3.5681
X2.8587Y-3.6681
X2.8587Y-3.7681
X2.8587Y-3.8681
X2.9724Y-1.8902
X2.9728Y-1.0547
X2.9728Y-2.7291
X2.9732Y-2.0154
X2.9732Y-3.5673
X2.9736Y-1.1799
X2.9736Y-2.8543
X2.974Y-3.6925
X3.0272Y-2.3805
X3.0272Y-2.4592
X3.0276Y-1.5451
X3.0276Y-1.6238
X3.0276Y-3.2195
X3.0276Y-3.2982
X3.028Y-4.0577
X3.028Y-4.1364
X3.0295Y-2.1549
X3.0295Y-2.2337
X3.0299Y-1.3195
X3.0299Y-1.3982
X3.0299Y-2.9939
X3.0299Y-3.0726
X3.0303Y-3.8321
X3.0303Y-3.9108
X3.2724Y-1.8902
X3.2728Y-1.0547
X3.2728Y-2.7291
X3.2732Y-2.0154
X3.2732Y-3.5673
X3.2736Y-1.1799
X3.2736Y-2.8543
X3.274Y-3.6925
X3.7665Y-3.998
X3.7673Y-2.3213
X3.7681Y-1.4862
X3.7685Y-3.1606
X3.7772Y-3.5673
X3.7772Y-3.6673
X3.7772Y-3.7673
X3.7772Y-3.8673
X3.778Y-1.8906
X3.778Y-1.9906
X3.778Y-2.0906
X3.778Y-2.1906
X3.7787Y-1.0555
X3.7787Y-1.1555
X3.7787Y-1.2555
X3.7787Y-1.3555
X3.7791Y-2.7299
X3.7791Y-2.8299
X3.7791Y-2.9299
X3.7791Y-3.0299
X3.9634Y-3.998
X3.9642Y-2.3213
X3.965Y-1.4862
X3.9654Y-3.1606
X4.0642Y-3.9815
X4.0642Y-4.1783
X4.065Y-2.3047
X4.065Y-2.5016
X4.0657Y-1.4697
X4.0657Y-1.6665
X4.0661Y-3.1441
X4.0661Y-3.3409
X4.0772Y-3.5673
X4.0772Y-3.6673
X4.0772Y-3.7673
X4.0772Y-3.8673
X4.078Y-1.8906
X4.078Y-1.9906
X4.078Y-2.0906
X4.078Y-2.1906
X4.0787Y-1.0555
X4.0787Y-1.1555
X4.0787Y-1.2555
X4.0787Y-1.3555
X4.0791Y-2.7299
X4.0791Y-2.8299
X4.0791Y-2.9299
X4.0791Y-3.0299
X4.1917Y-3.5665
X4.1925Y-1.8898
X4.1925Y-3.6917
X4.1933Y-1.0547
X4.1933Y-2.015
X4.1937Y-2.7291
X4.1941Y-1.1799
X4.1945Y-2.8543
X4.2465Y-4.0569
X4.2465Y-4.1356
X4.2472Y-2.3801
X4.2472Y-2.4589
X4.248Y-1.5451
X4.248Y-1.6238
X4.2484Y-3.2195
X4.2484Y-3.2982
X4.2488Y-3.8313
X4.2488Y-3.91
X4.2496Y-2.1545
X4.2496Y-2.2333
X4.2504Y-1.3195
X4.2504Y-1.3982
X4.2508Y-2.9939
X4.2508Y-3.0726
X4.4917Y-3.5665
X4.4925Y-1.8898
X4.4925Y-3.6917
X4.4933Y-1.0547
X4.4933Y-2.015
X4.4937Y-2.7291
X4.4941Y-1.1799
X4.4945Y-2.8543
T2
X1.0343Y-3.1398
X1.0343Y-3.3366
X1.0343Y-3.9791
X1.0343Y-4.176
X1.0346Y-1.4661
X1.0346Y-1.663
X1.035Y-2.3016
X1.035Y-2.4984
X1.2311Y-3.2382
X1.2311Y-4.0776
X1.2315Y-1.5646
X1.2318Y-2.4
X1.264Y-4.6443
X1.3624Y-4.4474
X1.4608Y-4.6443
X2.2547Y-2.3016
X2.2547Y-2.4984
X2.2551Y-1.4661
X2.2551Y-1.663
X2.2551Y-3.1406
X2.2551Y-3.3374
X2.2555Y-3.9787
X2.2555Y-4.1756
X2.4516Y-2.4
X2.452Y-1.5646
X2.452Y-3.239
X2.4524Y-4.0772
X3.474Y-3.978
X3.474Y-4.1748
X3.4748Y-2.3012
X3.4748Y-2.498
X3.4756Y-1.4661
X3.4756Y-1.663
X3.476Y-3.1406
X3.476Y-3.3374
X3.6709Y-4.0764
X3.6717Y-2.3996
X3.6724Y-1.5646
X3.6728Y-3.239
T3
X1.0366Y-2.715
X1.0366Y-2.9709
X1.0366Y-3.5543
X1.0366Y-3.8102
X1.037Y-1.0413
X1.037Y-1.2972
X1.0373Y-1.8768
X1.0373Y-2.1327
X1.0707Y-4.439
X1.0707Y-4.539
X1.0707Y-4.639
X1.2138Y-2.715
X1.2138Y-2.9709
X1.2138Y-3.5543
X1.2138Y-3.8102
X1.2142Y-1.0413
X1.2142Y-1.2972
X1.2145Y-1.8768
X1.2145Y-2.1327
X1.3665Y-3.3102
X1.3665Y-4.1496
X1.3669Y-1.6366
X1.3672Y-2.472
X1.4665Y-3.3102
X1.4665Y-4.1496
X1.4669Y-1.6366
X1.4672Y-2.472
X2.0244Y-3.2173
X2.0244Y-3.3173
X2.0244Y-4.0567
X2.0244Y-4.1567
X2.0248Y-1.5437
X2.0248Y-1.6437
X2.0251Y-2.3791
X2.0251Y-2.4791
X2.2571Y-1.8768
X2.2571Y-2.1327
X2.2575Y-1.0413
X2.2575Y-1.2972
X2.2575Y-2.7157
X2.2575Y-2.9717
X2.2579Y-3.5539
X2.2579Y-3.8098
X2.4343Y-1.8768
X2.4343Y-2.1327
X2.4346Y-1.0413
X2.4346Y-1.2972
X2.4346Y-2.7157
X2.4346Y-2.9717
X2.435Y-3.5539
X2.435Y-3.8098
X2.587Y-2.472
X2.5874Y-1.6366
X2.5874Y-3.311
X2.5878Y-4.1492
X2.687Y-2.472
X2.6874Y-1.6366
X2.6874Y-3.311
X2.6878Y-4.1492
X2.9687Y-4.4965
X2.9687Y-4.5965
X3.2449Y-2.3791
X3.2449Y-2.4791
X3.2453Y-1.5437
X3.2453Y-1.6437
X3.2453Y-3.2181
X3.2453Y-3.3181
X3.2457Y-4.0563
X3.2457Y-4.1563
X3.4764Y-3.5531
X3.4764Y-3.8091
X3.4772Y-1.8764
X3.4772Y-2.1323
X3.478Y-1.0413
X3.478Y-1.2972
X3.4783Y-2.7157
X3.4783Y-2.9717
X3.6535Y-3.5531
X3.6535Y-3.8091
X3.6543Y-1.8764
X3.6543Y-2.1323
X3.6551Y-1.0413
X3.6551Y-1.2972
X3.6555Y-2.7157
X3.6555Y-2.9717
X3.8063Y-4.1484
X3.8071Y-2.4717
X3.8079Y-1.6366
X3.8083Y-3.311
X3.9063Y-4.1484
X3.9071Y-2.4717
X3.9079Y-1.6366
X3.9083Y-3.311
X4.4642Y-4.0555
X4.4642Y-4.1555
X4.465Y-2.3787
X4.465Y-2.4787
X4.4657Y-1.5437
X4.4657Y-1.6437
X4.4661Y-3.2181
X4.4661Y-3.3181
T4
X1.0031Y-4.2862
X1.0047Y-2.6102
X1.0055Y-1.7693
X1.0055Y-3.4441
X1.0425Y-4.2862
X1.0441Y-2.6102
X1.0449Y-1.7693
X1.0449Y-3.4441
X2.0457Y-1.7705
X2.0472Y-2.6098
X2.0472Y-3.4465
X2.085Y-1.7705
X2.0866Y-2.6098
X2.0866Y-3.4465
X2.1547Y-3.0094
X2.1547Y-3.0488
X2.1547Y-4.163
X2.1547Y-4.2024
X2.1555Y-2.174
X2.1555Y-2.2134
X2.1563Y-1.0138
X2.1563Y-1.0531
X2.2248Y-1.7689
X2.2252Y-2.6087
X2.226Y-3.4457
X2.2642Y-1.7689
X2.2646Y-2.6087
X2.2654Y-3.4457
X2.9972Y-4.2835
X3.0366Y-4.2835
X3.2665Y-1.772
X3.2669Y-3.4472
X3.2677Y-2.6079
X3.3059Y-1.772
X3.3063Y-3.4472
X3.3071Y-2.6079
X3.3744Y-2.1732
X3.3744Y-2.2126
X3.3744Y-3.0114
X3.3744Y-3.0508
X3.3752Y-1.0126
X3.3752Y-1.052
X3.3764Y-4.1618
X3.3764Y-4.2012
X3.4453Y-1.7705
X3.4469Y-2.6083
X3.4469Y-3.4461
X3.4846Y-1.7705
X3.4862Y-2.6083
X3.4862Y-3.4461
X4.4874Y-3.4457
X4.4898Y-2.6079
X4.4906Y-1.7717
X4.5268Y-3.4457
X4.5291Y-2.6079
X4.5299Y-1.7717
T0
M30
