%TF.GenerationSoftware,KiCad,Pcbnew,8.0.3*%
%TF.CreationDate,2024-06-27T15:05:59+01:00*%
%TF.ProjectId,KorgVolcaMIDI,4b6f7267-566f-46c6-9361-4d4944492e6b,rev?*%
%TF.SameCoordinates,Original*%
%TF.FileFunction,Copper,L1,Top*%
%TF.FilePolarity,Positive*%
%FSLAX46Y46*%
G04 Gerber Fmt 4.6, Leading zero omitted, Abs format (unit mm)*
G04 Created by KiCad (PCBNEW 8.0.3) date 2024-06-27 15:05:59*
%MOMM*%
%LPD*%
G01*
G04 APERTURE LIST*
G04 Aperture macros list*
%AMRoundRect*
0 Rectangle with rounded corners*
0 $1 Rounding radius*
0 $2 $3 $4 $5 $6 $7 $8 $9 X,Y pos of 4 corners*
0 Add a 4 corners polygon primitive as box body*
4,1,4,$2,$3,$4,$5,$6,$7,$8,$9,$2,$3,0*
0 Add four circle primitives for the rounded corners*
1,1,$1+$1,$2,$3*
1,1,$1+$1,$4,$5*
1,1,$1+$1,$6,$7*
1,1,$1+$1,$8,$9*
0 Add four rect primitives between the rounded corners*
20,1,$1+$1,$2,$3,$4,$5,0*
20,1,$1+$1,$4,$5,$6,$7,0*
20,1,$1+$1,$6,$7,$8,$9,0*
20,1,$1+$1,$8,$9,$2,$3,0*%
G04 Aperture macros list end*
%TA.AperFunction,ComponentPad*%
%ADD10R,1.700000X1.700000*%
%TD*%
%TA.AperFunction,ComponentPad*%
%ADD11O,1.700000X1.700000*%
%TD*%
%TA.AperFunction,ComponentPad*%
%ADD12C,1.600000*%
%TD*%
%TA.AperFunction,ComponentPad*%
%ADD13RoundRect,0.250000X-0.450000X0.450000X-0.450000X-0.450000X0.450000X-0.450000X0.450000X0.450000X0*%
%TD*%
%TA.AperFunction,ComponentPad*%
%ADD14C,1.400000*%
%TD*%
%TA.AperFunction,ComponentPad*%
%ADD15R,3.500000X3.500000*%
%TD*%
%TA.AperFunction,ComponentPad*%
%ADD16RoundRect,0.750000X0.750000X1.000000X-0.750000X1.000000X-0.750000X-1.000000X0.750000X-1.000000X0*%
%TD*%
%TA.AperFunction,ComponentPad*%
%ADD17RoundRect,0.875000X0.875000X0.875000X-0.875000X0.875000X-0.875000X-0.875000X0.875000X-0.875000X0*%
%TD*%
%TA.AperFunction,ComponentPad*%
%ADD18R,1.905000X2.000000*%
%TD*%
%TA.AperFunction,ComponentPad*%
%ADD19O,1.905000X2.000000*%
%TD*%
%TA.AperFunction,ComponentPad*%
%ADD20R,1.600000X1.600000*%
%TD*%
%TA.AperFunction,ComponentPad*%
%ADD21O,1.600000X1.600000*%
%TD*%
%TA.AperFunction,ComponentPad*%
%ADD22O,1.600000X2.500000*%
%TD*%
%TA.AperFunction,ComponentPad*%
%ADD23O,1.200000X2.200000*%
%TD*%
%TA.AperFunction,ComponentPad*%
%ADD24O,2.200000X1.200000*%
%TD*%
%TA.AperFunction,ComponentPad*%
%ADD25O,1.600000X2.300000*%
%TD*%
%TA.AperFunction,ComponentPad*%
%ADD26C,2.499360*%
%TD*%
%TA.AperFunction,WasherPad*%
%ADD27C,2.499360*%
%TD*%
%TA.AperFunction,ComponentPad*%
%ADD28R,1.800000X1.800000*%
%TD*%
%TA.AperFunction,ComponentPad*%
%ADD29C,1.800000*%
%TD*%
%TA.AperFunction,Conductor*%
%ADD30C,0.600000*%
%TD*%
%TA.AperFunction,Conductor*%
%ADD31C,0.400000*%
%TD*%
G04 APERTURE END LIST*
D10*
%TO.P,J5,1,Pin_1*%
%TO.N,GND*%
X140515000Y-66160000D03*
D11*
%TO.P,J5,2,Pin_2*%
%TO.N,+5V*%
X143055000Y-66160000D03*
%TO.P,J5,3,Pin_3*%
%TO.N,Net-(J5-Pin_3)*%
X145595000Y-66160000D03*
%TD*%
D12*
%TO.P,C5,1*%
%TO.N,+5V*%
X144440000Y-74700000D03*
%TO.P,C5,2*%
%TO.N,GND*%
X144440000Y-79700000D03*
%TD*%
D13*
%TO.P,S1,1*%
%TO.N,/PWR_IN*%
X158800000Y-52610000D03*
D14*
%TO.P,S1,2*%
%TO.N,Net-(J4-Pin_2)*%
X158800000Y-55110000D03*
%TO.P,S1,3*%
%TO.N,unconnected-(S1-Pad3)*%
X158800000Y-57610000D03*
%TO.P,S1,4*%
%TO.N,N/C*%
X155500000Y-57610000D03*
%TO.P,S1,5*%
X155500000Y-55110000D03*
%TO.P,S1,6*%
X155500000Y-52610000D03*
%TD*%
D15*
%TO.P,J6,1*%
%TO.N,Net-(J4-Pin_2)*%
X149810000Y-77580000D03*
D16*
%TO.P,J6,2*%
%TO.N,GND*%
X155810000Y-77580000D03*
D17*
%TO.P,J6,3*%
%TO.N,N/C*%
X152810000Y-72880000D03*
%TD*%
D18*
%TO.P,U3,1,IN*%
%TO.N,/PWR_IN*%
X144690000Y-53540000D03*
D19*
%TO.P,U3,2,GND*%
%TO.N,GND*%
X147230000Y-53540000D03*
%TO.P,U3,3,OUT*%
%TO.N,Net-(J5-Pin_3)*%
X149770000Y-53540000D03*
%TD*%
D20*
%TO.P,U2,1,NC*%
%TO.N,unconnected-(U2-NC-Pad1)*%
X134400000Y-81000000D03*
D21*
%TO.P,U2,2,C1*%
%TO.N,Net-(D1-K)*%
X134400000Y-78460000D03*
%TO.P,U2,3,C2*%
%TO.N,Net-(D1-A)*%
X134400000Y-75920000D03*
%TO.P,U2,4,NC*%
%TO.N,unconnected-(U2-NC-Pad4)*%
X134400000Y-73380000D03*
%TO.P,U2,5,GND*%
%TO.N,GND*%
X126780000Y-73380000D03*
%TO.P,U2,6,VO2*%
%TO.N,/RX*%
X126780000Y-75920000D03*
%TO.P,U2,7,VO1*%
%TO.N,Net-(U2-VO1)*%
X126780000Y-78460000D03*
%TO.P,U2,8,VCC*%
%TO.N,+5V*%
X126780000Y-81000000D03*
%TD*%
D20*
%TO.P,U1,1,~{RESET}/PB5*%
%TO.N,unconnected-(U1-~{RESET}{slash}PB5-Pad1)*%
X109500000Y-81000000D03*
D21*
%TO.P,U1,2,XTAL1/PB3*%
%TO.N,/RX*%
X109500000Y-78460000D03*
%TO.P,U1,3,XTAL2/PB4*%
%TO.N,unconnected-(U1-XTAL2{slash}PB4-Pad3)*%
X109500000Y-75920000D03*
%TO.P,U1,4,GND*%
%TO.N,GND*%
X109500000Y-73380000D03*
%TO.P,U1,5,AREF/PB0*%
%TO.N,/TRIGGER*%
X101880000Y-73380000D03*
%TO.P,U1,6,PB1*%
%TO.N,/CV*%
X101880000Y-75920000D03*
%TO.P,U1,7,PB2*%
%TO.N,/GATE*%
X101880000Y-78460000D03*
%TO.P,U1,8,VCC*%
%TO.N,+5V*%
X101880000Y-81000000D03*
%TD*%
D12*
%TO.P,R5,1*%
%TO.N,Net-(C2-Pad1)*%
X114830000Y-69910000D03*
D21*
%TO.P,R5,2*%
%TO.N,/CV*%
X107210000Y-69910000D03*
%TD*%
D12*
%TO.P,R4,1*%
%TO.N,Net-(J3-PadT)*%
X116260000Y-73000000D03*
D21*
%TO.P,R4,2*%
%TO.N,/GATE*%
X116260000Y-80620000D03*
%TD*%
D12*
%TO.P,R3,1*%
%TO.N,Net-(U2-VO1)*%
X123000000Y-80500000D03*
D21*
%TO.P,R3,2*%
%TO.N,GND*%
X123000000Y-72880000D03*
%TD*%
D12*
%TO.P,R2,1*%
%TO.N,/RX*%
X113000000Y-73000000D03*
D21*
%TO.P,R2,2*%
%TO.N,+5V*%
X113000000Y-80620000D03*
%TD*%
D12*
%TO.P,R1,1*%
%TO.N,Net-(J1-Pad4)*%
X141000000Y-73380000D03*
D21*
%TO.P,R1,2*%
%TO.N,Net-(D1-K)*%
X141000000Y-81000000D03*
%TD*%
D10*
%TO.P,J4,1,Pin_1*%
%TO.N,GND*%
X150085000Y-66020000D03*
D11*
%TO.P,J4,2,Pin_2*%
%TO.N,Net-(J4-Pin_2)*%
X150085000Y-68560000D03*
%TD*%
D22*
%TO.P,J3,TN*%
%TO.N,N/C*%
X104500000Y-59500000D03*
D23*
%TO.P,J3,T*%
%TO.N,Net-(J3-PadT)*%
X102000000Y-59500000D03*
D24*
%TO.P,J3,S*%
%TO.N,GND*%
X107000000Y-54500000D03*
D25*
%TO.P,J3,RN*%
%TO.N,N/C*%
X109500000Y-59500000D03*
D23*
%TO.P,J3,R*%
%TO.N,Net-(C2-Pad1)*%
X112000000Y-59500000D03*
%TD*%
%TO.P,J2,R*%
%TO.N,Net-(J1-Pad4)*%
X130000000Y-59500000D03*
D25*
%TO.P,J2,RN*%
%TO.N,N/C*%
X127500000Y-59500000D03*
D24*
%TO.P,J2,S*%
%TO.N,unconnected-(J2-PadS)*%
X125000000Y-54500000D03*
D23*
%TO.P,J2,T*%
%TO.N,Net-(D1-A)*%
X120000000Y-59500000D03*
D22*
%TO.P,J2,TN*%
%TO.N,N/C*%
X122500000Y-59500000D03*
%TD*%
D26*
%TO.P,J1,3*%
%TO.N,unconnected-(J1-Pad3)*%
X132498080Y-61997200D03*
%TO.P,J1,4*%
%TO.N,Net-(J1-Pad4)*%
X120003820Y-64499100D03*
%TO.P,J1,2*%
%TO.N,unconnected-(J1-Pad2)*%
X125000000Y-61999740D03*
%TO.P,J1,1*%
%TO.N,unconnected-(J1-Pad1)*%
X117501920Y-61997200D03*
%TO.P,J1,5*%
%TO.N,Net-(D1-A)*%
X129996180Y-64499100D03*
D27*
%TO.P,J1,*%
%TO.N,*%
X119998740Y-52002300D03*
X130001260Y-52002300D03*
%TD*%
D28*
%TO.P,D2,1,K*%
%TO.N,Net-(D2-K)*%
X138730000Y-51565000D03*
D29*
%TO.P,D2,2,A*%
%TO.N,+5V*%
X138730000Y-54105000D03*
%TD*%
D20*
%TO.P,D1,1,K*%
%TO.N,Net-(D1-K)*%
X137870000Y-80950000D03*
D21*
%TO.P,D1,2,A*%
%TO.N,Net-(D1-A)*%
X137870000Y-73330000D03*
%TD*%
D20*
%TO.P,C4,1*%
%TO.N,+5V*%
X139440000Y-59800000D03*
D12*
%TO.P,C4,2*%
%TO.N,GND*%
X142940000Y-59800000D03*
%TD*%
D20*
%TO.P,C3,1*%
%TO.N,/PWR_IN*%
X148200000Y-59800000D03*
D12*
%TO.P,C3,2*%
%TO.N,GND*%
X151700000Y-59800000D03*
%TD*%
%TO.P,C2,1*%
%TO.N,Net-(C2-Pad1)*%
X113440000Y-66490000D03*
%TO.P,C2,2*%
%TO.N,GND*%
X108440000Y-66490000D03*
%TD*%
%TO.P,C1,1*%
%TO.N,+5V*%
X119610000Y-79440000D03*
%TO.P,C1,2*%
%TO.N,GND*%
X119610000Y-74440000D03*
%TD*%
D21*
%TO.P,R6,2*%
%TO.N,Net-(D2-K)*%
X135950000Y-62920000D03*
D12*
%TO.P,R6,1*%
%TO.N,GND*%
X135950000Y-70540000D03*
%TD*%
D30*
%TO.N,Net-(J5-Pin_3)*%
X150090000Y-61665000D02*
X150090000Y-53860000D01*
X145595000Y-66160000D02*
X150090000Y-61665000D01*
X150090000Y-53860000D02*
X149770000Y-53540000D01*
%TO.N,/PWR_IN*%
X144840000Y-56440000D02*
X148200000Y-59800000D01*
X144690000Y-56440000D02*
X144840000Y-56440000D01*
X144690000Y-53540000D02*
X144690000Y-56440000D01*
X144690000Y-52230000D02*
X144690000Y-53540000D01*
X157000000Y-50810000D02*
X145990000Y-50810000D01*
X144630000Y-52170000D02*
X144690000Y-52230000D01*
X158800000Y-52610000D02*
X157000000Y-50810000D01*
X145990000Y-50810000D02*
X144630000Y-52170000D01*
D31*
%TO.N,+5V*%
X126720000Y-81000000D02*
X125430000Y-82290000D01*
X126780000Y-81000000D02*
X126720000Y-81000000D01*
X125430000Y-82290000D02*
X113090000Y-82290000D01*
X119610000Y-79440000D02*
X119610000Y-82130000D01*
%TO.N,/RX*%
X113000000Y-75890000D02*
X112970000Y-75920000D01*
X113000000Y-73000000D02*
X113000000Y-75890000D01*
X112970000Y-75920000D02*
X112040000Y-75920000D01*
X126780000Y-75920000D02*
X112970000Y-75920000D01*
X112040000Y-75920000D02*
X109500000Y-78460000D01*
D30*
%TO.N,Net-(J4-Pin_2)*%
X157270000Y-61405000D02*
X149810000Y-68865000D01*
X157270000Y-56640000D02*
X157270000Y-61405000D01*
X158800000Y-55110000D02*
X157270000Y-56640000D01*
X149810000Y-68865000D02*
X149810000Y-77580000D01*
D31*
%TO.N,Net-(D1-A)*%
X136990000Y-73330000D02*
X137870000Y-73330000D01*
X134400000Y-75920000D02*
X136990000Y-73330000D01*
X137042943Y-73330000D02*
X137870000Y-73330000D01*
X129996180Y-64499100D02*
X129996180Y-66283237D01*
X129996180Y-66283237D02*
X137042943Y-73330000D01*
%TO.N,Net-(D2-K)*%
X135950000Y-54295000D02*
X136000000Y-54295000D01*
X136000000Y-54295000D02*
X138730000Y-51565000D01*
%TO.N,+5V*%
X138730000Y-59102651D02*
X139437349Y-59810000D01*
X138730000Y-54105000D02*
X138730000Y-59102651D01*
%TO.N,Net-(J3-PadT)*%
X112045000Y-69475000D02*
X115570000Y-73000000D01*
X112045000Y-68197944D02*
X112045000Y-69475000D01*
X106178528Y-62331472D02*
X112045000Y-68197944D01*
X115570000Y-73000000D02*
X116260000Y-73000000D01*
X102000000Y-59500000D02*
X104831472Y-62331472D01*
X104831472Y-62331472D02*
X106178528Y-62331472D01*
%TO.N,Net-(J1-Pad4)*%
X114880000Y-59270000D02*
X114880000Y-63080000D01*
X116299100Y-64499100D02*
X120003820Y-64499100D01*
X117120000Y-57030000D02*
X114880000Y-59270000D01*
X128250000Y-57030000D02*
X117120000Y-57030000D01*
X114880000Y-63080000D02*
X116299100Y-64499100D01*
X130000000Y-59500000D02*
X130000000Y-58780000D01*
X130000000Y-58780000D02*
X128250000Y-57030000D01*
D30*
%TO.N,Net-(J4-Pin_2)*%
X150085000Y-77305000D02*
X149810000Y-77580000D01*
D31*
%TO.N,+5V*%
X143055000Y-63427651D02*
X139437349Y-59810000D01*
X143055000Y-66160000D02*
X143055000Y-63427651D01*
X144440000Y-67545000D02*
X143055000Y-66160000D01*
X144440000Y-74700000D02*
X144440000Y-67545000D01*
%TO.N,Net-(D2-K)*%
X135950000Y-62920000D02*
X135950000Y-54295000D01*
%TO.N,Net-(J1-Pad4)*%
X141000000Y-72832120D02*
X141000000Y-73380000D01*
X130000000Y-61832120D02*
X141000000Y-72832120D01*
X130000000Y-61832120D02*
X130000000Y-59500000D01*
%TO.N,+5V*%
X113000000Y-80620000D02*
X113000000Y-82200000D01*
%TO.N,Net-(U2-VO1)*%
X124740000Y-80500000D02*
X123000000Y-80500000D01*
X126780000Y-78460000D02*
X124740000Y-80500000D01*
%TO.N,/GATE*%
X111680000Y-79220000D02*
X114860000Y-79220000D01*
X111240000Y-79660000D02*
X111680000Y-79220000D01*
X103080000Y-79660000D02*
X111240000Y-79660000D01*
X114860000Y-79220000D02*
X116260000Y-80620000D01*
X101880000Y-78460000D02*
X103080000Y-79660000D01*
%TO.N,+5V*%
X130520000Y-77260000D02*
X126780000Y-81000000D01*
X141880000Y-77260000D02*
X130520000Y-77260000D01*
X144440000Y-74700000D02*
X141880000Y-77260000D01*
%TO.N,Net-(D1-A)*%
X123409100Y-64499100D02*
X129996180Y-64499100D01*
X120000000Y-61090000D02*
X123409100Y-64499100D01*
X120000000Y-59500000D02*
X120000000Y-61090000D01*
%TO.N,+5V*%
X113090000Y-82290000D02*
X103170000Y-82290000D01*
X103170000Y-82290000D02*
X101880000Y-81000000D01*
%TO.N,Net-(C2-Pad1)*%
X112000000Y-65050000D02*
X113440000Y-66490000D01*
X112000000Y-59500000D02*
X112000000Y-65050000D01*
X114830000Y-69910000D02*
X114830000Y-67880000D01*
X114830000Y-67880000D02*
X113440000Y-66490000D01*
%TO.N,/CV*%
X107210000Y-70590000D02*
X107210000Y-69910000D01*
X101880000Y-75920000D02*
X107210000Y-70590000D01*
%TO.N,Net-(D1-K)*%
X137870000Y-80950000D02*
X136890000Y-80950000D01*
X136890000Y-80950000D02*
X134400000Y-78460000D01*
X137920000Y-81000000D02*
X137870000Y-80950000D01*
X141000000Y-81000000D02*
X137920000Y-81000000D01*
%TD*%
M02*
