%TF.GenerationSoftware,KiCad,Pcbnew,8.0.3*%
%TF.CreationDate,2024-06-27T15:05:59+01:00*%
%TF.ProjectId,KorgVolcaMIDI,4b6f7267-566f-46c6-9361-4d4944492e6b,rev?*%
%TF.SameCoordinates,Original*%
%TF.FileFunction,Profile,NP*%
%FSLAX46Y46*%
G04 Gerber Fmt 4.6, Leading zero omitted, Abs format (unit mm)*
G04 Created by KiCad (PCBNEW 8.0.3) date 2024-06-27 15:05:59*
%MOMM*%
%LPD*%
G01*
G04 APERTURE LIST*
%TA.AperFunction,Profile*%
%ADD10C,0.050000*%
%TD*%
%TA.AperFunction,Profile*%
%ADD11C,0.120000*%
%TD*%
G04 APERTURE END LIST*
D10*
X160000000Y-50000000D02*
X131500000Y-50000000D01*
X160000000Y-50000000D02*
X160000000Y-83000000D01*
X100000000Y-83000000D02*
X160000000Y-83000000D01*
X113500000Y-50000000D02*
X118500000Y-50000000D01*
X100000000Y-50000000D02*
X100500000Y-50000000D01*
X100000000Y-50000000D02*
X100000000Y-83000000D01*
D11*
%TO.C,J3*%
X105200000Y-51400000D02*
G75*
G02*
X104800000Y-51000000I0J400000D01*
G01*
X109200000Y-51000000D02*
G75*
G02*
X108800000Y-51400000I-400002J2D01*
G01*
X104800000Y-50000000D02*
X100500000Y-50000000D01*
X104800000Y-51000000D02*
X104800000Y-50000000D01*
X105200000Y-51400000D02*
X108800000Y-51400000D01*
X109200000Y-50000000D02*
X113500000Y-50000000D01*
X109200000Y-51000000D02*
X109200000Y-50000000D01*
%TO.C,J2*%
X127200000Y-51000000D02*
X127200000Y-50000000D01*
X127200000Y-50000000D02*
X131500000Y-50000000D01*
X123200000Y-51400000D02*
X126800000Y-51400000D01*
X122800000Y-51000000D02*
X122800000Y-50000000D01*
X122800000Y-50000000D02*
X118500000Y-50000000D01*
X127200000Y-51000000D02*
G75*
G02*
X126800000Y-51400000I-400002J2D01*
G01*
X123200000Y-51400000D02*
G75*
G02*
X122800000Y-51000000I0J400000D01*
G01*
%TD*%
M02*
