%TF.GenerationSoftware,KiCad,Pcbnew,8.0.3*%
%TF.CreationDate,2024-06-27T15:05:59+01:00*%
%TF.ProjectId,KorgVolcaMIDI,4b6f7267-566f-46c6-9361-4d4944492e6b,rev?*%
%TF.SameCoordinates,Original*%
%TF.FileFunction,Legend,Top*%
%TF.FilePolarity,Positive*%
%FSLAX46Y46*%
G04 Gerber Fmt 4.6, Leading zero omitted, Abs format (unit mm)*
G04 Created by KiCad (PCBNEW 8.0.3) date 2024-06-27 15:05:59*
%MOMM*%
%LPD*%
G01*
G04 APERTURE LIST*
%ADD10C,0.125000*%
%ADD11C,0.200000*%
%ADD12C,0.180000*%
%ADD13C,0.100000*%
%ADD14C,0.150000*%
%ADD15C,0.304800*%
%ADD16C,0.120000*%
%ADD17C,2.499360*%
G04 APERTURE END LIST*
D10*
X136580331Y-54640166D02*
X137342236Y-54640166D01*
X136961283Y-55021119D02*
X136961283Y-54259214D01*
D11*
X156407142Y-60170809D02*
X156635714Y-60170809D01*
X156635714Y-60170809D02*
X156749999Y-60227952D01*
X156749999Y-60227952D02*
X156864285Y-60342238D01*
X156864285Y-60342238D02*
X156921428Y-60570809D01*
X156921428Y-60570809D02*
X156921428Y-60970809D01*
X156921428Y-60970809D02*
X156864285Y-61199381D01*
X156864285Y-61199381D02*
X156749999Y-61313667D01*
X156749999Y-61313667D02*
X156635714Y-61370809D01*
X156635714Y-61370809D02*
X156407142Y-61370809D01*
X156407142Y-61370809D02*
X156292857Y-61313667D01*
X156292857Y-61313667D02*
X156178571Y-61199381D01*
X156178571Y-61199381D02*
X156121428Y-60970809D01*
X156121428Y-60970809D02*
X156121428Y-60570809D01*
X156121428Y-60570809D02*
X156178571Y-60342238D01*
X156178571Y-60342238D02*
X156292857Y-60227952D01*
X156292857Y-60227952D02*
X156407142Y-60170809D01*
X157435714Y-61370809D02*
X157435714Y-60170809D01*
X157435714Y-60170809D02*
X158121428Y-61370809D01*
X158121428Y-61370809D02*
X158121428Y-60170809D01*
X156007143Y-62102742D02*
X156235715Y-62102742D01*
X156235715Y-62102742D02*
X156350000Y-62159885D01*
X156350000Y-62159885D02*
X156464286Y-62274171D01*
X156464286Y-62274171D02*
X156521429Y-62502742D01*
X156521429Y-62502742D02*
X156521429Y-62902742D01*
X156521429Y-62902742D02*
X156464286Y-63131314D01*
X156464286Y-63131314D02*
X156350000Y-63245600D01*
X156350000Y-63245600D02*
X156235715Y-63302742D01*
X156235715Y-63302742D02*
X156007143Y-63302742D01*
X156007143Y-63302742D02*
X155892858Y-63245600D01*
X155892858Y-63245600D02*
X155778572Y-63131314D01*
X155778572Y-63131314D02*
X155721429Y-62902742D01*
X155721429Y-62902742D02*
X155721429Y-62502742D01*
X155721429Y-62502742D02*
X155778572Y-62274171D01*
X155778572Y-62274171D02*
X155892858Y-62159885D01*
X155892858Y-62159885D02*
X156007143Y-62102742D01*
X157435715Y-62674171D02*
X157035715Y-62674171D01*
X157035715Y-63302742D02*
X157035715Y-62102742D01*
X157035715Y-62102742D02*
X157607143Y-62102742D01*
X158464286Y-62674171D02*
X158064286Y-62674171D01*
X158064286Y-63302742D02*
X158064286Y-62102742D01*
X158064286Y-62102742D02*
X158635714Y-62102742D01*
D12*
X139202857Y-68255878D02*
X139117143Y-68208259D01*
X139117143Y-68208259D02*
X138988571Y-68208259D01*
X138988571Y-68208259D02*
X138860000Y-68255878D01*
X138860000Y-68255878D02*
X138774285Y-68351116D01*
X138774285Y-68351116D02*
X138731428Y-68446354D01*
X138731428Y-68446354D02*
X138688571Y-68636830D01*
X138688571Y-68636830D02*
X138688571Y-68779687D01*
X138688571Y-68779687D02*
X138731428Y-68970163D01*
X138731428Y-68970163D02*
X138774285Y-69065401D01*
X138774285Y-69065401D02*
X138860000Y-69160640D01*
X138860000Y-69160640D02*
X138988571Y-69208259D01*
X138988571Y-69208259D02*
X139074285Y-69208259D01*
X139074285Y-69208259D02*
X139202857Y-69160640D01*
X139202857Y-69160640D02*
X139245714Y-69113020D01*
X139245714Y-69113020D02*
X139245714Y-68779687D01*
X139245714Y-68779687D02*
X139074285Y-68779687D01*
X139631428Y-69208259D02*
X139631428Y-68208259D01*
X139631428Y-68208259D02*
X140145714Y-69208259D01*
X140145714Y-69208259D02*
X140145714Y-68208259D01*
X140574285Y-69208259D02*
X140574285Y-68208259D01*
X140574285Y-68208259D02*
X140788571Y-68208259D01*
X140788571Y-68208259D02*
X140917142Y-68255878D01*
X140917142Y-68255878D02*
X141002857Y-68351116D01*
X141002857Y-68351116D02*
X141045714Y-68446354D01*
X141045714Y-68446354D02*
X141088571Y-68636830D01*
X141088571Y-68636830D02*
X141088571Y-68779687D01*
X141088571Y-68779687D02*
X141045714Y-68970163D01*
X141045714Y-68970163D02*
X141002857Y-69065401D01*
X141002857Y-69065401D02*
X140917142Y-69160640D01*
X140917142Y-69160640D02*
X140788571Y-69208259D01*
X140788571Y-69208259D02*
X140574285Y-69208259D01*
X142588571Y-68208259D02*
X142159999Y-68208259D01*
X142159999Y-68208259D02*
X142117142Y-68684449D01*
X142117142Y-68684449D02*
X142159999Y-68636830D01*
X142159999Y-68636830D02*
X142245714Y-68589211D01*
X142245714Y-68589211D02*
X142459999Y-68589211D01*
X142459999Y-68589211D02*
X142545714Y-68636830D01*
X142545714Y-68636830D02*
X142588571Y-68684449D01*
X142588571Y-68684449D02*
X142631428Y-68779687D01*
X142631428Y-68779687D02*
X142631428Y-69017782D01*
X142631428Y-69017782D02*
X142588571Y-69113020D01*
X142588571Y-69113020D02*
X142545714Y-69160640D01*
X142545714Y-69160640D02*
X142459999Y-69208259D01*
X142459999Y-69208259D02*
X142245714Y-69208259D01*
X142245714Y-69208259D02*
X142159999Y-69160640D01*
X142159999Y-69160640D02*
X142117142Y-69113020D01*
X142888571Y-68208259D02*
X143188571Y-69208259D01*
X143188571Y-69208259D02*
X143488571Y-68208259D01*
X143788571Y-68827306D02*
X144474286Y-68827306D01*
X145417143Y-69208259D02*
X145117143Y-68732068D01*
X144902857Y-69208259D02*
X144902857Y-68208259D01*
X144902857Y-68208259D02*
X145245714Y-68208259D01*
X145245714Y-68208259D02*
X145331429Y-68255878D01*
X145331429Y-68255878D02*
X145374286Y-68303497D01*
X145374286Y-68303497D02*
X145417143Y-68398735D01*
X145417143Y-68398735D02*
X145417143Y-68541592D01*
X145417143Y-68541592D02*
X145374286Y-68636830D01*
X145374286Y-68636830D02*
X145331429Y-68684449D01*
X145331429Y-68684449D02*
X145245714Y-68732068D01*
X145245714Y-68732068D02*
X144902857Y-68732068D01*
X145802857Y-68684449D02*
X146102857Y-68684449D01*
X146231429Y-69208259D02*
X145802857Y-69208259D01*
X145802857Y-69208259D02*
X145802857Y-68208259D01*
X145802857Y-68208259D02*
X146231429Y-68208259D01*
X147088572Y-68255878D02*
X147002858Y-68208259D01*
X147002858Y-68208259D02*
X146874286Y-68208259D01*
X146874286Y-68208259D02*
X146745715Y-68255878D01*
X146745715Y-68255878D02*
X146660000Y-68351116D01*
X146660000Y-68351116D02*
X146617143Y-68446354D01*
X146617143Y-68446354D02*
X146574286Y-68636830D01*
X146574286Y-68636830D02*
X146574286Y-68779687D01*
X146574286Y-68779687D02*
X146617143Y-68970163D01*
X146617143Y-68970163D02*
X146660000Y-69065401D01*
X146660000Y-69065401D02*
X146745715Y-69160640D01*
X146745715Y-69160640D02*
X146874286Y-69208259D01*
X146874286Y-69208259D02*
X146960000Y-69208259D01*
X146960000Y-69208259D02*
X147088572Y-69160640D01*
X147088572Y-69160640D02*
X147131429Y-69113020D01*
X147131429Y-69113020D02*
X147131429Y-68779687D01*
X147131429Y-68779687D02*
X146960000Y-68779687D01*
D13*
X157720000Y-51610000D02*
X159730000Y-51610000D01*
X159730000Y-56140000D01*
X157720000Y-56140000D01*
X157720000Y-51610000D01*
D12*
X152148259Y-69919999D02*
X153148259Y-69619999D01*
X153148259Y-69619999D02*
X152148259Y-69319999D01*
X153148259Y-69019999D02*
X152148259Y-69019999D01*
X153148259Y-68591428D02*
X152148259Y-68591428D01*
X152148259Y-68591428D02*
X153148259Y-68077142D01*
X153148259Y-68077142D02*
X152148259Y-68077142D01*
X152195878Y-66491428D02*
X152148259Y-66577143D01*
X152148259Y-66577143D02*
X152148259Y-66705714D01*
X152148259Y-66705714D02*
X152195878Y-66834285D01*
X152195878Y-66834285D02*
X152291116Y-66920000D01*
X152291116Y-66920000D02*
X152386354Y-66962857D01*
X152386354Y-66962857D02*
X152576830Y-67005714D01*
X152576830Y-67005714D02*
X152719687Y-67005714D01*
X152719687Y-67005714D02*
X152910163Y-66962857D01*
X152910163Y-66962857D02*
X153005401Y-66920000D01*
X153005401Y-66920000D02*
X153100640Y-66834285D01*
X153100640Y-66834285D02*
X153148259Y-66705714D01*
X153148259Y-66705714D02*
X153148259Y-66620000D01*
X153148259Y-66620000D02*
X153100640Y-66491428D01*
X153100640Y-66491428D02*
X153053020Y-66448571D01*
X153053020Y-66448571D02*
X152719687Y-66448571D01*
X152719687Y-66448571D02*
X152719687Y-66620000D01*
X153148259Y-66062857D02*
X152148259Y-66062857D01*
X152148259Y-66062857D02*
X153148259Y-65548571D01*
X153148259Y-65548571D02*
X152148259Y-65548571D01*
X153148259Y-65120000D02*
X152148259Y-65120000D01*
X152148259Y-65120000D02*
X152148259Y-64905714D01*
X152148259Y-64905714D02*
X152195878Y-64777143D01*
X152195878Y-64777143D02*
X152291116Y-64691428D01*
X152291116Y-64691428D02*
X152386354Y-64648571D01*
X152386354Y-64648571D02*
X152576830Y-64605714D01*
X152576830Y-64605714D02*
X152719687Y-64605714D01*
X152719687Y-64605714D02*
X152910163Y-64648571D01*
X152910163Y-64648571D02*
X153005401Y-64691428D01*
X153005401Y-64691428D02*
X153100640Y-64777143D01*
X153100640Y-64777143D02*
X153148259Y-64905714D01*
X153148259Y-64905714D02*
X153148259Y-65120000D01*
D14*
X144799580Y-78128570D02*
X144847200Y-78080951D01*
X144847200Y-78080951D02*
X144894819Y-78128570D01*
X144894819Y-78128570D02*
X144847200Y-78176189D01*
X144847200Y-78176189D02*
X144799580Y-78128570D01*
X144799580Y-78128570D02*
X144894819Y-78128570D01*
X144894819Y-77128571D02*
X144894819Y-77699999D01*
X144894819Y-77414285D02*
X143894819Y-77414285D01*
X143894819Y-77414285D02*
X144037676Y-77509523D01*
X144037676Y-77509523D02*
X144132914Y-77604761D01*
X144132914Y-77604761D02*
X144180533Y-77699999D01*
X144228152Y-76271428D02*
X144894819Y-76271428D01*
X144228152Y-76699999D02*
X144751961Y-76699999D01*
X144751961Y-76699999D02*
X144847200Y-76652380D01*
X144847200Y-76652380D02*
X144894819Y-76557142D01*
X144894819Y-76557142D02*
X144894819Y-76414285D01*
X144894819Y-76414285D02*
X144847200Y-76319047D01*
X144847200Y-76319047D02*
X144799580Y-76271428D01*
X154976191Y-70654819D02*
X154976191Y-69654819D01*
X154976191Y-69654819D02*
X155309524Y-70369104D01*
X155309524Y-70369104D02*
X155642857Y-69654819D01*
X155642857Y-69654819D02*
X155642857Y-70654819D01*
X156071429Y-69750057D02*
X156119048Y-69702438D01*
X156119048Y-69702438D02*
X156214286Y-69654819D01*
X156214286Y-69654819D02*
X156452381Y-69654819D01*
X156452381Y-69654819D02*
X156547619Y-69702438D01*
X156547619Y-69702438D02*
X156595238Y-69750057D01*
X156595238Y-69750057D02*
X156642857Y-69845295D01*
X156642857Y-69845295D02*
X156642857Y-69940533D01*
X156642857Y-69940533D02*
X156595238Y-70083390D01*
X156595238Y-70083390D02*
X156023810Y-70654819D01*
X156023810Y-70654819D02*
X156642857Y-70654819D01*
X157071429Y-70559580D02*
X157119048Y-70607200D01*
X157119048Y-70607200D02*
X157071429Y-70654819D01*
X157071429Y-70654819D02*
X157023810Y-70607200D01*
X157023810Y-70607200D02*
X157071429Y-70559580D01*
X157071429Y-70559580D02*
X157071429Y-70654819D01*
X158023809Y-69654819D02*
X157547619Y-69654819D01*
X157547619Y-69654819D02*
X157500000Y-70131009D01*
X157500000Y-70131009D02*
X157547619Y-70083390D01*
X157547619Y-70083390D02*
X157642857Y-70035771D01*
X157642857Y-70035771D02*
X157880952Y-70035771D01*
X157880952Y-70035771D02*
X157976190Y-70083390D01*
X157976190Y-70083390D02*
X158023809Y-70131009D01*
X158023809Y-70131009D02*
X158071428Y-70226247D01*
X158071428Y-70226247D02*
X158071428Y-70464342D01*
X158071428Y-70464342D02*
X158023809Y-70559580D01*
X158023809Y-70559580D02*
X157976190Y-70607200D01*
X157976190Y-70607200D02*
X157880952Y-70654819D01*
X157880952Y-70654819D02*
X157642857Y-70654819D01*
X157642857Y-70654819D02*
X157547619Y-70607200D01*
X157547619Y-70607200D02*
X157500000Y-70559580D01*
X101976191Y-70654819D02*
X101976191Y-69654819D01*
X101976191Y-69654819D02*
X102309524Y-70369104D01*
X102309524Y-70369104D02*
X102642857Y-69654819D01*
X102642857Y-69654819D02*
X102642857Y-70654819D01*
X103071429Y-69750057D02*
X103119048Y-69702438D01*
X103119048Y-69702438D02*
X103214286Y-69654819D01*
X103214286Y-69654819D02*
X103452381Y-69654819D01*
X103452381Y-69654819D02*
X103547619Y-69702438D01*
X103547619Y-69702438D02*
X103595238Y-69750057D01*
X103595238Y-69750057D02*
X103642857Y-69845295D01*
X103642857Y-69845295D02*
X103642857Y-69940533D01*
X103642857Y-69940533D02*
X103595238Y-70083390D01*
X103595238Y-70083390D02*
X103023810Y-70654819D01*
X103023810Y-70654819D02*
X103642857Y-70654819D01*
X104071429Y-70559580D02*
X104119048Y-70607200D01*
X104119048Y-70607200D02*
X104071429Y-70654819D01*
X104071429Y-70654819D02*
X104023810Y-70607200D01*
X104023810Y-70607200D02*
X104071429Y-70559580D01*
X104071429Y-70559580D02*
X104071429Y-70654819D01*
X105023809Y-69654819D02*
X104547619Y-69654819D01*
X104547619Y-69654819D02*
X104500000Y-70131009D01*
X104500000Y-70131009D02*
X104547619Y-70083390D01*
X104547619Y-70083390D02*
X104642857Y-70035771D01*
X104642857Y-70035771D02*
X104880952Y-70035771D01*
X104880952Y-70035771D02*
X104976190Y-70083390D01*
X104976190Y-70083390D02*
X105023809Y-70131009D01*
X105023809Y-70131009D02*
X105071428Y-70226247D01*
X105071428Y-70226247D02*
X105071428Y-70464342D01*
X105071428Y-70464342D02*
X105023809Y-70559580D01*
X105023809Y-70559580D02*
X104976190Y-70607200D01*
X104976190Y-70607200D02*
X104880952Y-70654819D01*
X104880952Y-70654819D02*
X104642857Y-70654819D01*
X104642857Y-70654819D02*
X104547619Y-70607200D01*
X104547619Y-70607200D02*
X104500000Y-70559580D01*
D11*
X145706667Y-71082219D02*
X146373333Y-71082219D01*
X146373333Y-71082219D02*
X145944762Y-72082219D01*
X146754286Y-71701266D02*
X147516191Y-71701266D01*
X148516190Y-72082219D02*
X147944762Y-72082219D01*
X148230476Y-72082219D02*
X148230476Y-71082219D01*
X148230476Y-71082219D02*
X148135238Y-71225076D01*
X148135238Y-71225076D02*
X148040000Y-71320314D01*
X148040000Y-71320314D02*
X147944762Y-71367933D01*
X148897143Y-71177457D02*
X148944762Y-71129838D01*
X148944762Y-71129838D02*
X149040000Y-71082219D01*
X149040000Y-71082219D02*
X149278095Y-71082219D01*
X149278095Y-71082219D02*
X149373333Y-71129838D01*
X149373333Y-71129838D02*
X149420952Y-71177457D01*
X149420952Y-71177457D02*
X149468571Y-71272695D01*
X149468571Y-71272695D02*
X149468571Y-71367933D01*
X149468571Y-71367933D02*
X149420952Y-71510790D01*
X149420952Y-71510790D02*
X148849524Y-72082219D01*
X148849524Y-72082219D02*
X149468571Y-72082219D01*
X149754286Y-71082219D02*
X150087619Y-72082219D01*
X150087619Y-72082219D02*
X150420952Y-71082219D01*
D14*
X153744819Y-54270238D02*
X153744819Y-54746428D01*
X153744819Y-54746428D02*
X152744819Y-54746428D01*
X152744819Y-54032142D02*
X152744819Y-53365476D01*
X152744819Y-53365476D02*
X153744819Y-53794047D01*
X153173390Y-52841666D02*
X153125771Y-52936904D01*
X153125771Y-52936904D02*
X153078152Y-52984523D01*
X153078152Y-52984523D02*
X152982914Y-53032142D01*
X152982914Y-53032142D02*
X152935295Y-53032142D01*
X152935295Y-53032142D02*
X152840057Y-52984523D01*
X152840057Y-52984523D02*
X152792438Y-52936904D01*
X152792438Y-52936904D02*
X152744819Y-52841666D01*
X152744819Y-52841666D02*
X152744819Y-52651190D01*
X152744819Y-52651190D02*
X152792438Y-52555952D01*
X152792438Y-52555952D02*
X152840057Y-52508333D01*
X152840057Y-52508333D02*
X152935295Y-52460714D01*
X152935295Y-52460714D02*
X152982914Y-52460714D01*
X152982914Y-52460714D02*
X153078152Y-52508333D01*
X153078152Y-52508333D02*
X153125771Y-52555952D01*
X153125771Y-52555952D02*
X153173390Y-52651190D01*
X153173390Y-52651190D02*
X153173390Y-52841666D01*
X153173390Y-52841666D02*
X153221009Y-52936904D01*
X153221009Y-52936904D02*
X153268628Y-52984523D01*
X153268628Y-52984523D02*
X153363866Y-53032142D01*
X153363866Y-53032142D02*
X153554342Y-53032142D01*
X153554342Y-53032142D02*
X153649580Y-52984523D01*
X153649580Y-52984523D02*
X153697200Y-52936904D01*
X153697200Y-52936904D02*
X153744819Y-52841666D01*
X153744819Y-52841666D02*
X153744819Y-52651190D01*
X153744819Y-52651190D02*
X153697200Y-52555952D01*
X153697200Y-52555952D02*
X153649580Y-52508333D01*
X153649580Y-52508333D02*
X153554342Y-52460714D01*
X153554342Y-52460714D02*
X153363866Y-52460714D01*
X153363866Y-52460714D02*
X153268628Y-52508333D01*
X153268628Y-52508333D02*
X153221009Y-52555952D01*
X153221009Y-52555952D02*
X153173390Y-52651190D01*
X152744819Y-51841666D02*
X152744819Y-51746428D01*
X152744819Y-51746428D02*
X152792438Y-51651190D01*
X152792438Y-51651190D02*
X152840057Y-51603571D01*
X152840057Y-51603571D02*
X152935295Y-51555952D01*
X152935295Y-51555952D02*
X153125771Y-51508333D01*
X153125771Y-51508333D02*
X153363866Y-51508333D01*
X153363866Y-51508333D02*
X153554342Y-51555952D01*
X153554342Y-51555952D02*
X153649580Y-51603571D01*
X153649580Y-51603571D02*
X153697200Y-51651190D01*
X153697200Y-51651190D02*
X153744819Y-51746428D01*
X153744819Y-51746428D02*
X153744819Y-51841666D01*
X153744819Y-51841666D02*
X153697200Y-51936904D01*
X153697200Y-51936904D02*
X153649580Y-51984523D01*
X153649580Y-51984523D02*
X153554342Y-52032142D01*
X153554342Y-52032142D02*
X153363866Y-52079761D01*
X153363866Y-52079761D02*
X153125771Y-52079761D01*
X153125771Y-52079761D02*
X152935295Y-52032142D01*
X152935295Y-52032142D02*
X152840057Y-51984523D01*
X152840057Y-51984523D02*
X152792438Y-51936904D01*
X152792438Y-51936904D02*
X152744819Y-51841666D01*
X152744819Y-50603571D02*
X152744819Y-51079761D01*
X152744819Y-51079761D02*
X153221009Y-51127380D01*
X153221009Y-51127380D02*
X153173390Y-51079761D01*
X153173390Y-51079761D02*
X153125771Y-50984523D01*
X153125771Y-50984523D02*
X153125771Y-50746428D01*
X153125771Y-50746428D02*
X153173390Y-50651190D01*
X153173390Y-50651190D02*
X153221009Y-50603571D01*
X153221009Y-50603571D02*
X153316247Y-50555952D01*
X153316247Y-50555952D02*
X153554342Y-50555952D01*
X153554342Y-50555952D02*
X153649580Y-50603571D01*
X153649580Y-50603571D02*
X153697200Y-50651190D01*
X153697200Y-50651190D02*
X153744819Y-50746428D01*
X153744819Y-50746428D02*
X153744819Y-50984523D01*
X153744819Y-50984523D02*
X153697200Y-51079761D01*
X153697200Y-51079761D02*
X153649580Y-51127380D01*
X130054819Y-78961904D02*
X130054819Y-79152380D01*
X130054819Y-79152380D02*
X130102438Y-79247618D01*
X130102438Y-79247618D02*
X130150057Y-79295237D01*
X130150057Y-79295237D02*
X130292914Y-79390475D01*
X130292914Y-79390475D02*
X130483390Y-79438094D01*
X130483390Y-79438094D02*
X130864342Y-79438094D01*
X130864342Y-79438094D02*
X130959580Y-79390475D01*
X130959580Y-79390475D02*
X131007200Y-79342856D01*
X131007200Y-79342856D02*
X131054819Y-79247618D01*
X131054819Y-79247618D02*
X131054819Y-79057142D01*
X131054819Y-79057142D02*
X131007200Y-78961904D01*
X131007200Y-78961904D02*
X130959580Y-78914285D01*
X130959580Y-78914285D02*
X130864342Y-78866666D01*
X130864342Y-78866666D02*
X130626247Y-78866666D01*
X130626247Y-78866666D02*
X130531009Y-78914285D01*
X130531009Y-78914285D02*
X130483390Y-78961904D01*
X130483390Y-78961904D02*
X130435771Y-79057142D01*
X130435771Y-79057142D02*
X130435771Y-79247618D01*
X130435771Y-79247618D02*
X130483390Y-79342856D01*
X130483390Y-79342856D02*
X130531009Y-79390475D01*
X130531009Y-79390475D02*
X130626247Y-79438094D01*
X131054819Y-78438094D02*
X130054819Y-78438094D01*
X130054819Y-78438094D02*
X131054819Y-77866666D01*
X131054819Y-77866666D02*
X130054819Y-77866666D01*
X131054819Y-76866666D02*
X131054819Y-77438094D01*
X131054819Y-77152380D02*
X130054819Y-77152380D01*
X130054819Y-77152380D02*
X130197676Y-77247618D01*
X130197676Y-77247618D02*
X130292914Y-77342856D01*
X130292914Y-77342856D02*
X130340533Y-77438094D01*
X130054819Y-76533332D02*
X130054819Y-75914285D01*
X130054819Y-75914285D02*
X130435771Y-76247618D01*
X130435771Y-76247618D02*
X130435771Y-76104761D01*
X130435771Y-76104761D02*
X130483390Y-76009523D01*
X130483390Y-76009523D02*
X130531009Y-75961904D01*
X130531009Y-75961904D02*
X130626247Y-75914285D01*
X130626247Y-75914285D02*
X130864342Y-75914285D01*
X130864342Y-75914285D02*
X130959580Y-75961904D01*
X130959580Y-75961904D02*
X131007200Y-76009523D01*
X131007200Y-76009523D02*
X131054819Y-76104761D01*
X131054819Y-76104761D02*
X131054819Y-76390475D01*
X131054819Y-76390475D02*
X131007200Y-76485713D01*
X131007200Y-76485713D02*
X130959580Y-76533332D01*
X130483390Y-75342856D02*
X130435771Y-75438094D01*
X130435771Y-75438094D02*
X130388152Y-75485713D01*
X130388152Y-75485713D02*
X130292914Y-75533332D01*
X130292914Y-75533332D02*
X130245295Y-75533332D01*
X130245295Y-75533332D02*
X130150057Y-75485713D01*
X130150057Y-75485713D02*
X130102438Y-75438094D01*
X130102438Y-75438094D02*
X130054819Y-75342856D01*
X130054819Y-75342856D02*
X130054819Y-75152380D01*
X130054819Y-75152380D02*
X130102438Y-75057142D01*
X130102438Y-75057142D02*
X130150057Y-75009523D01*
X130150057Y-75009523D02*
X130245295Y-74961904D01*
X130245295Y-74961904D02*
X130292914Y-74961904D01*
X130292914Y-74961904D02*
X130388152Y-75009523D01*
X130388152Y-75009523D02*
X130435771Y-75057142D01*
X130435771Y-75057142D02*
X130483390Y-75152380D01*
X130483390Y-75152380D02*
X130483390Y-75342856D01*
X130483390Y-75342856D02*
X130531009Y-75438094D01*
X130531009Y-75438094D02*
X130578628Y-75485713D01*
X130578628Y-75485713D02*
X130673866Y-75533332D01*
X130673866Y-75533332D02*
X130864342Y-75533332D01*
X130864342Y-75533332D02*
X130959580Y-75485713D01*
X130959580Y-75485713D02*
X131007200Y-75438094D01*
X131007200Y-75438094D02*
X131054819Y-75342856D01*
X131054819Y-75342856D02*
X131054819Y-75152380D01*
X131054819Y-75152380D02*
X131007200Y-75057142D01*
X131007200Y-75057142D02*
X130959580Y-75009523D01*
X130959580Y-75009523D02*
X130864342Y-74961904D01*
X130864342Y-74961904D02*
X130673866Y-74961904D01*
X130673866Y-74961904D02*
X130578628Y-75009523D01*
X130578628Y-75009523D02*
X130531009Y-75057142D01*
X130531009Y-75057142D02*
X130483390Y-75152380D01*
X105869104Y-80128571D02*
X105869104Y-79652381D01*
X106154819Y-80223809D02*
X105154819Y-79890476D01*
X105154819Y-79890476D02*
X106154819Y-79557143D01*
X105154819Y-79366666D02*
X105154819Y-78795238D01*
X106154819Y-79080952D02*
X105154819Y-79080952D01*
X105488152Y-78604761D02*
X105488152Y-78223809D01*
X105154819Y-78461904D02*
X106011961Y-78461904D01*
X106011961Y-78461904D02*
X106107200Y-78414285D01*
X106107200Y-78414285D02*
X106154819Y-78319047D01*
X106154819Y-78319047D02*
X106154819Y-78223809D01*
X106154819Y-77890475D02*
X105488152Y-77890475D01*
X105154819Y-77890475D02*
X105202438Y-77938094D01*
X105202438Y-77938094D02*
X105250057Y-77890475D01*
X105250057Y-77890475D02*
X105202438Y-77842856D01*
X105202438Y-77842856D02*
X105154819Y-77890475D01*
X105154819Y-77890475D02*
X105250057Y-77890475D01*
X105488152Y-77414285D02*
X106154819Y-77414285D01*
X105583390Y-77414285D02*
X105535771Y-77366666D01*
X105535771Y-77366666D02*
X105488152Y-77271428D01*
X105488152Y-77271428D02*
X105488152Y-77128571D01*
X105488152Y-77128571D02*
X105535771Y-77033333D01*
X105535771Y-77033333D02*
X105631009Y-76985714D01*
X105631009Y-76985714D02*
X106154819Y-76985714D01*
X105488152Y-76604761D02*
X106154819Y-76366666D01*
X105488152Y-76128571D02*
X106154819Y-76366666D01*
X106154819Y-76366666D02*
X106392914Y-76461904D01*
X106392914Y-76461904D02*
X106440533Y-76509523D01*
X106440533Y-76509523D02*
X106488152Y-76604761D01*
X105583390Y-75604761D02*
X105535771Y-75699999D01*
X105535771Y-75699999D02*
X105488152Y-75747618D01*
X105488152Y-75747618D02*
X105392914Y-75795237D01*
X105392914Y-75795237D02*
X105345295Y-75795237D01*
X105345295Y-75795237D02*
X105250057Y-75747618D01*
X105250057Y-75747618D02*
X105202438Y-75699999D01*
X105202438Y-75699999D02*
X105154819Y-75604761D01*
X105154819Y-75604761D02*
X105154819Y-75414285D01*
X105154819Y-75414285D02*
X105202438Y-75319047D01*
X105202438Y-75319047D02*
X105250057Y-75271428D01*
X105250057Y-75271428D02*
X105345295Y-75223809D01*
X105345295Y-75223809D02*
X105392914Y-75223809D01*
X105392914Y-75223809D02*
X105488152Y-75271428D01*
X105488152Y-75271428D02*
X105535771Y-75319047D01*
X105535771Y-75319047D02*
X105583390Y-75414285D01*
X105583390Y-75414285D02*
X105583390Y-75604761D01*
X105583390Y-75604761D02*
X105631009Y-75699999D01*
X105631009Y-75699999D02*
X105678628Y-75747618D01*
X105678628Y-75747618D02*
X105773866Y-75795237D01*
X105773866Y-75795237D02*
X105964342Y-75795237D01*
X105964342Y-75795237D02*
X106059580Y-75747618D01*
X106059580Y-75747618D02*
X106107200Y-75699999D01*
X106107200Y-75699999D02*
X106154819Y-75604761D01*
X106154819Y-75604761D02*
X106154819Y-75414285D01*
X106154819Y-75414285D02*
X106107200Y-75319047D01*
X106107200Y-75319047D02*
X106059580Y-75271428D01*
X106059580Y-75271428D02*
X105964342Y-75223809D01*
X105964342Y-75223809D02*
X105773866Y-75223809D01*
X105773866Y-75223809D02*
X105678628Y-75271428D01*
X105678628Y-75271428D02*
X105631009Y-75319047D01*
X105631009Y-75319047D02*
X105583390Y-75414285D01*
X105154819Y-74319047D02*
X105154819Y-74795237D01*
X105154819Y-74795237D02*
X105631009Y-74842856D01*
X105631009Y-74842856D02*
X105583390Y-74795237D01*
X105583390Y-74795237D02*
X105535771Y-74699999D01*
X105535771Y-74699999D02*
X105535771Y-74461904D01*
X105535771Y-74461904D02*
X105583390Y-74366666D01*
X105583390Y-74366666D02*
X105631009Y-74319047D01*
X105631009Y-74319047D02*
X105726247Y-74271428D01*
X105726247Y-74271428D02*
X105964342Y-74271428D01*
X105964342Y-74271428D02*
X106059580Y-74319047D01*
X106059580Y-74319047D02*
X106107200Y-74366666D01*
X106107200Y-74366666D02*
X106154819Y-74461904D01*
X106154819Y-74461904D02*
X106154819Y-74699999D01*
X106154819Y-74699999D02*
X106107200Y-74795237D01*
X106107200Y-74795237D02*
X106059580Y-74842856D01*
X110805714Y-70364819D02*
X110234286Y-70364819D01*
X110520000Y-70364819D02*
X110520000Y-69364819D01*
X110520000Y-69364819D02*
X110424762Y-69507676D01*
X110424762Y-69507676D02*
X110329524Y-69602914D01*
X110329524Y-69602914D02*
X110234286Y-69650533D01*
X111234286Y-70364819D02*
X111234286Y-69364819D01*
X111805714Y-70364819D02*
X111377143Y-69793390D01*
X111805714Y-69364819D02*
X111234286Y-69936247D01*
X116714819Y-77024285D02*
X116714819Y-77595713D01*
X116714819Y-77309999D02*
X115714819Y-77309999D01*
X115714819Y-77309999D02*
X115857676Y-77405237D01*
X115857676Y-77405237D02*
X115952914Y-77500475D01*
X115952914Y-77500475D02*
X116000533Y-77595713D01*
X116714819Y-76595713D02*
X115714819Y-76595713D01*
X116714819Y-76024285D02*
X116143390Y-76452856D01*
X115714819Y-76024285D02*
X116286247Y-76595713D01*
X122788152Y-77713809D02*
X123454819Y-77713809D01*
X122407200Y-77951904D02*
X123121485Y-78189999D01*
X123121485Y-78189999D02*
X123121485Y-77570952D01*
X123359580Y-77189999D02*
X123407200Y-77142380D01*
X123407200Y-77142380D02*
X123454819Y-77189999D01*
X123454819Y-77189999D02*
X123407200Y-77237618D01*
X123407200Y-77237618D02*
X123359580Y-77189999D01*
X123359580Y-77189999D02*
X123454819Y-77189999D01*
X122454819Y-76809047D02*
X122454819Y-76142381D01*
X122454819Y-76142381D02*
X123454819Y-76570952D01*
X123454819Y-75761428D02*
X122454819Y-75761428D01*
X123454819Y-75190000D02*
X122883390Y-75618571D01*
X122454819Y-75190000D02*
X123026247Y-75761428D01*
X112550057Y-78048094D02*
X112502438Y-78000475D01*
X112502438Y-78000475D02*
X112454819Y-77905237D01*
X112454819Y-77905237D02*
X112454819Y-77667142D01*
X112454819Y-77667142D02*
X112502438Y-77571904D01*
X112502438Y-77571904D02*
X112550057Y-77524285D01*
X112550057Y-77524285D02*
X112645295Y-77476666D01*
X112645295Y-77476666D02*
X112740533Y-77476666D01*
X112740533Y-77476666D02*
X112883390Y-77524285D01*
X112883390Y-77524285D02*
X113454819Y-78095713D01*
X113454819Y-78095713D02*
X113454819Y-77476666D01*
X112550057Y-77095713D02*
X112502438Y-77048094D01*
X112502438Y-77048094D02*
X112454819Y-76952856D01*
X112454819Y-76952856D02*
X112454819Y-76714761D01*
X112454819Y-76714761D02*
X112502438Y-76619523D01*
X112502438Y-76619523D02*
X112550057Y-76571904D01*
X112550057Y-76571904D02*
X112645295Y-76524285D01*
X112645295Y-76524285D02*
X112740533Y-76524285D01*
X112740533Y-76524285D02*
X112883390Y-76571904D01*
X112883390Y-76571904D02*
X113454819Y-77143332D01*
X113454819Y-77143332D02*
X113454819Y-76524285D01*
X112454819Y-75905237D02*
X112454819Y-75809999D01*
X112454819Y-75809999D02*
X112502438Y-75714761D01*
X112502438Y-75714761D02*
X112550057Y-75667142D01*
X112550057Y-75667142D02*
X112645295Y-75619523D01*
X112645295Y-75619523D02*
X112835771Y-75571904D01*
X112835771Y-75571904D02*
X113073866Y-75571904D01*
X113073866Y-75571904D02*
X113264342Y-75619523D01*
X113264342Y-75619523D02*
X113359580Y-75667142D01*
X113359580Y-75667142D02*
X113407200Y-75714761D01*
X113407200Y-75714761D02*
X113454819Y-75809999D01*
X113454819Y-75809999D02*
X113454819Y-75905237D01*
X113454819Y-75905237D02*
X113407200Y-76000475D01*
X113407200Y-76000475D02*
X113359580Y-76048094D01*
X113359580Y-76048094D02*
X113264342Y-76095713D01*
X113264342Y-76095713D02*
X113073866Y-76143332D01*
X113073866Y-76143332D02*
X112835771Y-76143332D01*
X112835771Y-76143332D02*
X112645295Y-76095713D01*
X112645295Y-76095713D02*
X112550057Y-76048094D01*
X112550057Y-76048094D02*
X112502438Y-76000475D01*
X112502438Y-76000475D02*
X112454819Y-75905237D01*
X140550057Y-78428094D02*
X140502438Y-78380475D01*
X140502438Y-78380475D02*
X140454819Y-78285237D01*
X140454819Y-78285237D02*
X140454819Y-78047142D01*
X140454819Y-78047142D02*
X140502438Y-77951904D01*
X140502438Y-77951904D02*
X140550057Y-77904285D01*
X140550057Y-77904285D02*
X140645295Y-77856666D01*
X140645295Y-77856666D02*
X140740533Y-77856666D01*
X140740533Y-77856666D02*
X140883390Y-77904285D01*
X140883390Y-77904285D02*
X141454819Y-78475713D01*
X141454819Y-78475713D02*
X141454819Y-77856666D01*
X140550057Y-77475713D02*
X140502438Y-77428094D01*
X140502438Y-77428094D02*
X140454819Y-77332856D01*
X140454819Y-77332856D02*
X140454819Y-77094761D01*
X140454819Y-77094761D02*
X140502438Y-76999523D01*
X140502438Y-76999523D02*
X140550057Y-76951904D01*
X140550057Y-76951904D02*
X140645295Y-76904285D01*
X140645295Y-76904285D02*
X140740533Y-76904285D01*
X140740533Y-76904285D02*
X140883390Y-76951904D01*
X140883390Y-76951904D02*
X141454819Y-77523332D01*
X141454819Y-77523332D02*
X141454819Y-76904285D01*
X140454819Y-76285237D02*
X140454819Y-76189999D01*
X140454819Y-76189999D02*
X140502438Y-76094761D01*
X140502438Y-76094761D02*
X140550057Y-76047142D01*
X140550057Y-76047142D02*
X140645295Y-75999523D01*
X140645295Y-75999523D02*
X140835771Y-75951904D01*
X140835771Y-75951904D02*
X141073866Y-75951904D01*
X141073866Y-75951904D02*
X141264342Y-75999523D01*
X141264342Y-75999523D02*
X141359580Y-76047142D01*
X141359580Y-76047142D02*
X141407200Y-76094761D01*
X141407200Y-76094761D02*
X141454819Y-76189999D01*
X141454819Y-76189999D02*
X141454819Y-76285237D01*
X141454819Y-76285237D02*
X141407200Y-76380475D01*
X141407200Y-76380475D02*
X141359580Y-76428094D01*
X141359580Y-76428094D02*
X141264342Y-76475713D01*
X141264342Y-76475713D02*
X141073866Y-76523332D01*
X141073866Y-76523332D02*
X140835771Y-76523332D01*
X140835771Y-76523332D02*
X140645295Y-76475713D01*
X140645295Y-76475713D02*
X140550057Y-76428094D01*
X140550057Y-76428094D02*
X140502438Y-76380475D01*
X140502438Y-76380475D02*
X140454819Y-76285237D01*
X101619047Y-63984819D02*
X101619047Y-62984819D01*
X102190475Y-63984819D02*
X101761904Y-63413390D01*
X102190475Y-62984819D02*
X101619047Y-63556247D01*
X102809523Y-62984819D02*
X102999999Y-62984819D01*
X102999999Y-62984819D02*
X103095237Y-63032438D01*
X103095237Y-63032438D02*
X103190475Y-63127676D01*
X103190475Y-63127676D02*
X103238094Y-63318152D01*
X103238094Y-63318152D02*
X103238094Y-63651485D01*
X103238094Y-63651485D02*
X103190475Y-63841961D01*
X103190475Y-63841961D02*
X103095237Y-63937200D01*
X103095237Y-63937200D02*
X102999999Y-63984819D01*
X102999999Y-63984819D02*
X102809523Y-63984819D01*
X102809523Y-63984819D02*
X102714285Y-63937200D01*
X102714285Y-63937200D02*
X102619047Y-63841961D01*
X102619047Y-63841961D02*
X102571428Y-63651485D01*
X102571428Y-63651485D02*
X102571428Y-63318152D01*
X102571428Y-63318152D02*
X102619047Y-63127676D01*
X102619047Y-63127676D02*
X102714285Y-63032438D01*
X102714285Y-63032438D02*
X102809523Y-62984819D01*
X104238094Y-63984819D02*
X103904761Y-63508628D01*
X103666666Y-63984819D02*
X103666666Y-62984819D01*
X103666666Y-62984819D02*
X104047618Y-62984819D01*
X104047618Y-62984819D02*
X104142856Y-63032438D01*
X104142856Y-63032438D02*
X104190475Y-63080057D01*
X104190475Y-63080057D02*
X104238094Y-63175295D01*
X104238094Y-63175295D02*
X104238094Y-63318152D01*
X104238094Y-63318152D02*
X104190475Y-63413390D01*
X104190475Y-63413390D02*
X104142856Y-63461009D01*
X104142856Y-63461009D02*
X104047618Y-63508628D01*
X104047618Y-63508628D02*
X103666666Y-63508628D01*
X105190475Y-63032438D02*
X105095237Y-62984819D01*
X105095237Y-62984819D02*
X104952380Y-62984819D01*
X104952380Y-62984819D02*
X104809523Y-63032438D01*
X104809523Y-63032438D02*
X104714285Y-63127676D01*
X104714285Y-63127676D02*
X104666666Y-63222914D01*
X104666666Y-63222914D02*
X104619047Y-63413390D01*
X104619047Y-63413390D02*
X104619047Y-63556247D01*
X104619047Y-63556247D02*
X104666666Y-63746723D01*
X104666666Y-63746723D02*
X104714285Y-63841961D01*
X104714285Y-63841961D02*
X104809523Y-63937200D01*
X104809523Y-63937200D02*
X104952380Y-63984819D01*
X104952380Y-63984819D02*
X105047618Y-63984819D01*
X105047618Y-63984819D02*
X105190475Y-63937200D01*
X105190475Y-63937200D02*
X105238094Y-63889580D01*
X105238094Y-63889580D02*
X105238094Y-63556247D01*
X105238094Y-63556247D02*
X105047618Y-63556247D01*
X106999999Y-63889580D02*
X106952380Y-63937200D01*
X106952380Y-63937200D02*
X106809523Y-63984819D01*
X106809523Y-63984819D02*
X106714285Y-63984819D01*
X106714285Y-63984819D02*
X106571428Y-63937200D01*
X106571428Y-63937200D02*
X106476190Y-63841961D01*
X106476190Y-63841961D02*
X106428571Y-63746723D01*
X106428571Y-63746723D02*
X106380952Y-63556247D01*
X106380952Y-63556247D02*
X106380952Y-63413390D01*
X106380952Y-63413390D02*
X106428571Y-63222914D01*
X106428571Y-63222914D02*
X106476190Y-63127676D01*
X106476190Y-63127676D02*
X106571428Y-63032438D01*
X106571428Y-63032438D02*
X106714285Y-62984819D01*
X106714285Y-62984819D02*
X106809523Y-62984819D01*
X106809523Y-62984819D02*
X106952380Y-63032438D01*
X106952380Y-63032438D02*
X106999999Y-63080057D01*
X107285714Y-62984819D02*
X107619047Y-63984819D01*
X107619047Y-63984819D02*
X107952380Y-62984819D01*
X108999999Y-62937200D02*
X108142857Y-64222914D01*
X109857142Y-63032438D02*
X109761904Y-62984819D01*
X109761904Y-62984819D02*
X109619047Y-62984819D01*
X109619047Y-62984819D02*
X109476190Y-63032438D01*
X109476190Y-63032438D02*
X109380952Y-63127676D01*
X109380952Y-63127676D02*
X109333333Y-63222914D01*
X109333333Y-63222914D02*
X109285714Y-63413390D01*
X109285714Y-63413390D02*
X109285714Y-63556247D01*
X109285714Y-63556247D02*
X109333333Y-63746723D01*
X109333333Y-63746723D02*
X109380952Y-63841961D01*
X109380952Y-63841961D02*
X109476190Y-63937200D01*
X109476190Y-63937200D02*
X109619047Y-63984819D01*
X109619047Y-63984819D02*
X109714285Y-63984819D01*
X109714285Y-63984819D02*
X109857142Y-63937200D01*
X109857142Y-63937200D02*
X109904761Y-63889580D01*
X109904761Y-63889580D02*
X109904761Y-63556247D01*
X109904761Y-63556247D02*
X109714285Y-63556247D01*
X110285714Y-63699104D02*
X110761904Y-63699104D01*
X110190476Y-63984819D02*
X110523809Y-62984819D01*
X110523809Y-62984819D02*
X110857142Y-63984819D01*
X111047619Y-62984819D02*
X111619047Y-62984819D01*
X111333333Y-63984819D02*
X111333333Y-62984819D01*
X111952381Y-63461009D02*
X112285714Y-63461009D01*
X112428571Y-63984819D02*
X111952381Y-63984819D01*
X111952381Y-63984819D02*
X111952381Y-62984819D01*
X111952381Y-62984819D02*
X112428571Y-62984819D01*
D15*
X121262572Y-70689921D02*
X121262572Y-69165921D01*
X121262572Y-69165921D02*
X121770572Y-70254492D01*
X121770572Y-70254492D02*
X122278572Y-69165921D01*
X122278572Y-69165921D02*
X122278572Y-70689921D01*
X123004286Y-70689921D02*
X123004286Y-69165921D01*
X123730000Y-70689921D02*
X123730000Y-69165921D01*
X123730000Y-69165921D02*
X124092857Y-69165921D01*
X124092857Y-69165921D02*
X124310571Y-69238492D01*
X124310571Y-69238492D02*
X124455714Y-69383635D01*
X124455714Y-69383635D02*
X124528285Y-69528778D01*
X124528285Y-69528778D02*
X124600857Y-69819064D01*
X124600857Y-69819064D02*
X124600857Y-70036778D01*
X124600857Y-70036778D02*
X124528285Y-70327064D01*
X124528285Y-70327064D02*
X124455714Y-70472207D01*
X124455714Y-70472207D02*
X124310571Y-70617350D01*
X124310571Y-70617350D02*
X124092857Y-70689921D01*
X124092857Y-70689921D02*
X123730000Y-70689921D01*
X125254000Y-70689921D02*
X125254000Y-69165921D01*
X127140857Y-70689921D02*
X127140857Y-69165921D01*
X127866571Y-70689921D02*
X127866571Y-69165921D01*
X127866571Y-69165921D02*
X128737428Y-70689921D01*
X128737428Y-70689921D02*
X128737428Y-69165921D01*
D14*
X137677142Y-71834819D02*
X137105714Y-71834819D01*
X137391428Y-71834819D02*
X137391428Y-70834819D01*
X137391428Y-70834819D02*
X137296190Y-70977676D01*
X137296190Y-70977676D02*
X137200952Y-71072914D01*
X137200952Y-71072914D02*
X137105714Y-71120533D01*
X138105714Y-71834819D02*
X138105714Y-70834819D01*
X138105714Y-70834819D02*
X138677142Y-71834819D01*
X138677142Y-71834819D02*
X138677142Y-70834819D01*
X139581904Y-71168152D02*
X139581904Y-71834819D01*
X139343809Y-70787200D02*
X139105714Y-71501485D01*
X139105714Y-71501485D02*
X139724761Y-71501485D01*
X140629523Y-71834819D02*
X140058095Y-71834819D01*
X140343809Y-71834819D02*
X140343809Y-70834819D01*
X140343809Y-70834819D02*
X140248571Y-70977676D01*
X140248571Y-70977676D02*
X140153333Y-71072914D01*
X140153333Y-71072914D02*
X140058095Y-71120533D01*
X141486666Y-71168152D02*
X141486666Y-71834819D01*
X141248571Y-70787200D02*
X141010476Y-71501485D01*
X141010476Y-71501485D02*
X141629523Y-71501485D01*
X142153333Y-71263390D02*
X142058095Y-71215771D01*
X142058095Y-71215771D02*
X142010476Y-71168152D01*
X142010476Y-71168152D02*
X141962857Y-71072914D01*
X141962857Y-71072914D02*
X141962857Y-71025295D01*
X141962857Y-71025295D02*
X142010476Y-70930057D01*
X142010476Y-70930057D02*
X142058095Y-70882438D01*
X142058095Y-70882438D02*
X142153333Y-70834819D01*
X142153333Y-70834819D02*
X142343809Y-70834819D01*
X142343809Y-70834819D02*
X142439047Y-70882438D01*
X142439047Y-70882438D02*
X142486666Y-70930057D01*
X142486666Y-70930057D02*
X142534285Y-71025295D01*
X142534285Y-71025295D02*
X142534285Y-71072914D01*
X142534285Y-71072914D02*
X142486666Y-71168152D01*
X142486666Y-71168152D02*
X142439047Y-71215771D01*
X142439047Y-71215771D02*
X142343809Y-71263390D01*
X142343809Y-71263390D02*
X142153333Y-71263390D01*
X142153333Y-71263390D02*
X142058095Y-71311009D01*
X142058095Y-71311009D02*
X142010476Y-71358628D01*
X142010476Y-71358628D02*
X141962857Y-71453866D01*
X141962857Y-71453866D02*
X141962857Y-71644342D01*
X141962857Y-71644342D02*
X142010476Y-71739580D01*
X142010476Y-71739580D02*
X142058095Y-71787200D01*
X142058095Y-71787200D02*
X142153333Y-71834819D01*
X142153333Y-71834819D02*
X142343809Y-71834819D01*
X142343809Y-71834819D02*
X142439047Y-71787200D01*
X142439047Y-71787200D02*
X142486666Y-71739580D01*
X142486666Y-71739580D02*
X142534285Y-71644342D01*
X142534285Y-71644342D02*
X142534285Y-71453866D01*
X142534285Y-71453866D02*
X142486666Y-71358628D01*
X142486666Y-71358628D02*
X142439047Y-71311009D01*
X142439047Y-71311009D02*
X142343809Y-71263390D01*
X136158095Y-82344819D02*
X136158095Y-81344819D01*
X136729523Y-82344819D02*
X136300952Y-81773390D01*
X136729523Y-81344819D02*
X136158095Y-81916247D01*
X135353603Y-56604819D02*
X134782175Y-56604819D01*
X135067889Y-56604819D02*
X135067889Y-55604819D01*
X135067889Y-55604819D02*
X134972651Y-55747676D01*
X134972651Y-55747676D02*
X134877413Y-55842914D01*
X134877413Y-55842914D02*
X134782175Y-55890533D01*
X135972651Y-55604819D02*
X136067889Y-55604819D01*
X136067889Y-55604819D02*
X136163127Y-55652438D01*
X136163127Y-55652438D02*
X136210746Y-55700057D01*
X136210746Y-55700057D02*
X136258365Y-55795295D01*
X136258365Y-55795295D02*
X136305984Y-55985771D01*
X136305984Y-55985771D02*
X136305984Y-56223866D01*
X136305984Y-56223866D02*
X136258365Y-56414342D01*
X136258365Y-56414342D02*
X136210746Y-56509580D01*
X136210746Y-56509580D02*
X136163127Y-56557200D01*
X136163127Y-56557200D02*
X136067889Y-56604819D01*
X136067889Y-56604819D02*
X135972651Y-56604819D01*
X135972651Y-56604819D02*
X135877413Y-56557200D01*
X135877413Y-56557200D02*
X135829794Y-56509580D01*
X135829794Y-56509580D02*
X135782175Y-56414342D01*
X135782175Y-56414342D02*
X135734556Y-56223866D01*
X135734556Y-56223866D02*
X135734556Y-55985771D01*
X135734556Y-55985771D02*
X135782175Y-55795295D01*
X135782175Y-55795295D02*
X135829794Y-55700057D01*
X135829794Y-55700057D02*
X135877413Y-55652438D01*
X135877413Y-55652438D02*
X135972651Y-55604819D01*
X136925032Y-55604819D02*
X137020270Y-55604819D01*
X137020270Y-55604819D02*
X137115508Y-55652438D01*
X137115508Y-55652438D02*
X137163127Y-55700057D01*
X137163127Y-55700057D02*
X137210746Y-55795295D01*
X137210746Y-55795295D02*
X137258365Y-55985771D01*
X137258365Y-55985771D02*
X137258365Y-56223866D01*
X137258365Y-56223866D02*
X137210746Y-56414342D01*
X137210746Y-56414342D02*
X137163127Y-56509580D01*
X137163127Y-56509580D02*
X137115508Y-56557200D01*
X137115508Y-56557200D02*
X137020270Y-56604819D01*
X137020270Y-56604819D02*
X136925032Y-56604819D01*
X136925032Y-56604819D02*
X136829794Y-56557200D01*
X136829794Y-56557200D02*
X136782175Y-56509580D01*
X136782175Y-56509580D02*
X136734556Y-56414342D01*
X136734556Y-56414342D02*
X136686937Y-56223866D01*
X136686937Y-56223866D02*
X136686937Y-55985771D01*
X136686937Y-55985771D02*
X136734556Y-55795295D01*
X136734556Y-55795295D02*
X136782175Y-55700057D01*
X136782175Y-55700057D02*
X136829794Y-55652438D01*
X136829794Y-55652438D02*
X136925032Y-55604819D01*
X138115508Y-55938152D02*
X138115508Y-56604819D01*
X137686937Y-55938152D02*
X137686937Y-56461961D01*
X137686937Y-56461961D02*
X137734556Y-56557200D01*
X137734556Y-56557200D02*
X137829794Y-56604819D01*
X137829794Y-56604819D02*
X137972651Y-56604819D01*
X137972651Y-56604819D02*
X138067889Y-56557200D01*
X138067889Y-56557200D02*
X138115508Y-56509580D01*
X144839793Y-56654819D02*
X144268365Y-56654819D01*
X144554079Y-56654819D02*
X144554079Y-55654819D01*
X144554079Y-55654819D02*
X144458841Y-55797676D01*
X144458841Y-55797676D02*
X144363603Y-55892914D01*
X144363603Y-55892914D02*
X144268365Y-55940533D01*
X145458841Y-55654819D02*
X145554079Y-55654819D01*
X145554079Y-55654819D02*
X145649317Y-55702438D01*
X145649317Y-55702438D02*
X145696936Y-55750057D01*
X145696936Y-55750057D02*
X145744555Y-55845295D01*
X145744555Y-55845295D02*
X145792174Y-56035771D01*
X145792174Y-56035771D02*
X145792174Y-56273866D01*
X145792174Y-56273866D02*
X145744555Y-56464342D01*
X145744555Y-56464342D02*
X145696936Y-56559580D01*
X145696936Y-56559580D02*
X145649317Y-56607200D01*
X145649317Y-56607200D02*
X145554079Y-56654819D01*
X145554079Y-56654819D02*
X145458841Y-56654819D01*
X145458841Y-56654819D02*
X145363603Y-56607200D01*
X145363603Y-56607200D02*
X145315984Y-56559580D01*
X145315984Y-56559580D02*
X145268365Y-56464342D01*
X145268365Y-56464342D02*
X145220746Y-56273866D01*
X145220746Y-56273866D02*
X145220746Y-56035771D01*
X145220746Y-56035771D02*
X145268365Y-55845295D01*
X145268365Y-55845295D02*
X145315984Y-55750057D01*
X145315984Y-55750057D02*
X145363603Y-55702438D01*
X145363603Y-55702438D02*
X145458841Y-55654819D01*
X146649317Y-55988152D02*
X146649317Y-56654819D01*
X146220746Y-55988152D02*
X146220746Y-56511961D01*
X146220746Y-56511961D02*
X146268365Y-56607200D01*
X146268365Y-56607200D02*
X146363603Y-56654819D01*
X146363603Y-56654819D02*
X146506460Y-56654819D01*
X146506460Y-56654819D02*
X146601698Y-56607200D01*
X146601698Y-56607200D02*
X146649317Y-56559580D01*
X110011429Y-66849580D02*
X110059048Y-66897200D01*
X110059048Y-66897200D02*
X110011429Y-66944819D01*
X110011429Y-66944819D02*
X109963810Y-66897200D01*
X109963810Y-66897200D02*
X110011429Y-66849580D01*
X110011429Y-66849580D02*
X110011429Y-66944819D01*
X111011428Y-66944819D02*
X110440000Y-66944819D01*
X110725714Y-66944819D02*
X110725714Y-65944819D01*
X110725714Y-65944819D02*
X110630476Y-66087676D01*
X110630476Y-66087676D02*
X110535238Y-66182914D01*
X110535238Y-66182914D02*
X110440000Y-66230533D01*
X111868571Y-66278152D02*
X111868571Y-66944819D01*
X111440000Y-66278152D02*
X111440000Y-66801961D01*
X111440000Y-66801961D02*
X111487619Y-66897200D01*
X111487619Y-66897200D02*
X111582857Y-66944819D01*
X111582857Y-66944819D02*
X111725714Y-66944819D01*
X111725714Y-66944819D02*
X111820952Y-66897200D01*
X111820952Y-66897200D02*
X111868571Y-66849580D01*
X119969580Y-77868570D02*
X120017200Y-77820951D01*
X120017200Y-77820951D02*
X120064819Y-77868570D01*
X120064819Y-77868570D02*
X120017200Y-77916189D01*
X120017200Y-77916189D02*
X119969580Y-77868570D01*
X119969580Y-77868570D02*
X120064819Y-77868570D01*
X120064819Y-76868571D02*
X120064819Y-77439999D01*
X120064819Y-77154285D02*
X119064819Y-77154285D01*
X119064819Y-77154285D02*
X119207676Y-77249523D01*
X119207676Y-77249523D02*
X119302914Y-77344761D01*
X119302914Y-77344761D02*
X119350533Y-77439999D01*
X119398152Y-76011428D02*
X120064819Y-76011428D01*
X119398152Y-76439999D02*
X119921961Y-76439999D01*
X119921961Y-76439999D02*
X120017200Y-76392380D01*
X120017200Y-76392380D02*
X120064819Y-76297142D01*
X120064819Y-76297142D02*
X120064819Y-76154285D01*
X120064819Y-76154285D02*
X120017200Y-76059047D01*
X120017200Y-76059047D02*
X119969580Y-76011428D01*
X136404819Y-66944285D02*
X136404819Y-67515713D01*
X136404819Y-67229999D02*
X135404819Y-67229999D01*
X135404819Y-67229999D02*
X135547676Y-67325237D01*
X135547676Y-67325237D02*
X135642914Y-67420475D01*
X135642914Y-67420475D02*
X135690533Y-67515713D01*
X136404819Y-66515713D02*
X135404819Y-66515713D01*
X136404819Y-65944285D02*
X135833390Y-66372856D01*
X135404819Y-65944285D02*
X135976247Y-66515713D01*
D16*
%TO.C,J5*%
X139185000Y-67490000D02*
X139185000Y-66160000D01*
X140515000Y-67490000D02*
X139185000Y-67490000D01*
X141785000Y-67490000D02*
X146925000Y-67490000D01*
X141785000Y-67490000D02*
X141785000Y-64830000D01*
X146925000Y-67490000D02*
X146925000Y-64830000D01*
X141785000Y-64830000D02*
X146925000Y-64830000D01*
%TO.C,C5*%
X145810000Y-74080000D02*
X145365000Y-74080000D01*
X145810000Y-74080000D02*
X145810000Y-80320000D01*
X143515000Y-74080000D02*
X143070000Y-74080000D01*
X143070000Y-74080000D02*
X143070000Y-80320000D01*
X145810000Y-80320000D02*
X145365000Y-80320000D01*
X143515000Y-80320000D02*
X143070000Y-80320000D01*
%TO.C,S1*%
X159250000Y-50510000D02*
X155050000Y-50510000D01*
X155050000Y-50510000D02*
X155050000Y-51710000D01*
X159250000Y-50860000D02*
X159250000Y-50510000D01*
X159250000Y-58510000D02*
X159250000Y-59710000D01*
X159250000Y-59710000D02*
X155050000Y-59710000D01*
X155050000Y-59710000D02*
X155050000Y-58510000D01*
X159730000Y-51610000D02*
X159250000Y-51610000D01*
X159250000Y-51130000D01*
X159730000Y-51610000D01*
G36*
X159730000Y-51610000D02*
G01*
X159250000Y-51610000D01*
X159250000Y-51130000D01*
X159730000Y-51610000D01*
G37*
%TO.C,J6*%
X163610000Y-82180000D02*
X148910000Y-82180000D01*
X163610000Y-72980000D02*
X163610000Y-82180000D01*
X154810000Y-72980000D02*
X163610000Y-72980000D01*
X149760000Y-82380000D02*
X148710000Y-82380000D01*
X148910000Y-82180000D02*
X148910000Y-79580000D01*
X148910000Y-75680000D02*
X148910000Y-72980000D01*
X148910000Y-72980000D02*
X150810000Y-72980000D01*
X148710000Y-81330000D02*
X148710000Y-82380000D01*
%TO.C,U3*%
X142110000Y-50270000D02*
X142110000Y-54911000D01*
X142110000Y-50270000D02*
X152350000Y-50270000D01*
X142110000Y-51780000D02*
X152350000Y-51780000D01*
X142110000Y-54911000D02*
X152350000Y-54911000D01*
X145380000Y-50270000D02*
X145380000Y-51780000D01*
X149081000Y-50270000D02*
X149081000Y-51780000D01*
X152350000Y-50270000D02*
X152350000Y-54911000D01*
%TO.C,U2*%
X135730000Y-82390000D02*
X135730000Y-71990000D01*
X135730000Y-71990000D02*
X125450000Y-71990000D01*
X133240000Y-82330000D02*
X133240000Y-72050000D01*
X133240000Y-72050000D02*
X127940000Y-72050000D01*
X131590000Y-82330000D02*
X133240000Y-82330000D01*
X127940000Y-82330000D02*
X129590000Y-82330000D01*
X127940000Y-72050000D02*
X127940000Y-82330000D01*
X125450000Y-82390000D02*
X135730000Y-82390000D01*
X125450000Y-71990000D02*
X125450000Y-82390000D01*
X129590000Y-82330000D02*
G75*
G02*
X131590000Y-82330000I1000000J0D01*
G01*
%TO.C,U1*%
X108340000Y-82330000D02*
X108340000Y-72050000D01*
X108340000Y-72050000D02*
X103040000Y-72050000D01*
X106690000Y-82330000D02*
X108340000Y-82330000D01*
X103040000Y-82330000D02*
X104690000Y-82330000D01*
X103040000Y-72050000D02*
X103040000Y-82330000D01*
X104690000Y-82330000D02*
G75*
G02*
X106690000Y-82330000I1000000J0D01*
G01*
%TO.C,R5*%
X114290000Y-71280000D02*
X107750000Y-71280000D01*
X114290000Y-70950000D02*
X114290000Y-71280000D01*
X114290000Y-68870000D02*
X114290000Y-68540000D01*
X114290000Y-68540000D02*
X107750000Y-68540000D01*
X107750000Y-71280000D02*
X107750000Y-70950000D01*
X107750000Y-68540000D02*
X107750000Y-68870000D01*
%TO.C,R4*%
X117630000Y-73540000D02*
X117630000Y-80080000D01*
X117300000Y-73540000D02*
X117630000Y-73540000D01*
X115220000Y-73540000D02*
X114890000Y-73540000D01*
X114890000Y-73540000D02*
X114890000Y-80080000D01*
X117630000Y-80080000D02*
X117300000Y-80080000D01*
X114890000Y-80080000D02*
X115220000Y-80080000D01*
%TO.C,R3*%
X121630000Y-79960000D02*
X121630000Y-73420000D01*
X121960000Y-79960000D02*
X121630000Y-79960000D01*
X124040000Y-79960000D02*
X124370000Y-79960000D01*
X124370000Y-79960000D02*
X124370000Y-73420000D01*
X121630000Y-73420000D02*
X121960000Y-73420000D01*
X124370000Y-73420000D02*
X124040000Y-73420000D01*
%TO.C,R2*%
X114370000Y-73540000D02*
X114370000Y-80080000D01*
X114040000Y-73540000D02*
X114370000Y-73540000D01*
X111960000Y-73540000D02*
X111630000Y-73540000D01*
X111630000Y-73540000D02*
X111630000Y-80080000D01*
X114370000Y-80080000D02*
X114040000Y-80080000D01*
X111630000Y-80080000D02*
X111960000Y-80080000D01*
%TO.C,R1*%
X142370000Y-73920000D02*
X142370000Y-80460000D01*
X142040000Y-73920000D02*
X142370000Y-73920000D01*
X139960000Y-73920000D02*
X139630000Y-73920000D01*
X139630000Y-73920000D02*
X139630000Y-80460000D01*
X142370000Y-80460000D02*
X142040000Y-80460000D01*
X139630000Y-80460000D02*
X139960000Y-80460000D01*
%TO.C,J4*%
X148755000Y-67290000D02*
X148755000Y-69890000D01*
X148755000Y-67290000D02*
X151415000Y-67290000D01*
X148755000Y-69890000D02*
X151415000Y-69890000D01*
X150085000Y-64690000D02*
X151415000Y-64690000D01*
X151415000Y-64690000D02*
X151415000Y-66020000D01*
X151415000Y-67290000D02*
X151415000Y-69890000D01*
%TO.C,J3*%
X101000000Y-51200000D02*
X102500000Y-51200000D01*
X101000000Y-62200000D02*
X101000000Y-51200000D01*
X102500000Y-50000000D02*
X104000000Y-50000000D01*
X102500000Y-51200000D02*
X102500000Y-50000000D01*
X104000000Y-48200000D02*
X110000000Y-48200000D01*
X104000000Y-50000000D02*
X104000000Y-48200000D01*
X105000000Y-48200000D02*
X105000000Y-51200000D01*
X105000000Y-51200000D02*
X109000000Y-51200000D01*
X109000000Y-51200000D02*
X109000000Y-48200000D01*
X110000000Y-48200000D02*
X110000000Y-50000000D01*
X110000000Y-50000000D02*
X111500000Y-50000000D01*
X111500000Y-50000000D02*
X111500000Y-51200000D01*
X111500000Y-51200000D02*
X113000000Y-51200000D01*
X113000000Y-51200000D02*
X113000000Y-62200000D01*
X113000000Y-62200000D02*
X101000000Y-62200000D01*
%TO.C,J2*%
X131000000Y-62200000D02*
X119000000Y-62200000D01*
X131000000Y-51200000D02*
X131000000Y-62200000D01*
X129500000Y-51200000D02*
X131000000Y-51200000D01*
X129500000Y-50000000D02*
X129500000Y-51200000D01*
X128000000Y-50000000D02*
X129500000Y-50000000D01*
X128000000Y-48200000D02*
X128000000Y-50000000D01*
X127000000Y-51200000D02*
X127000000Y-48200000D01*
X123000000Y-51200000D02*
X127000000Y-51200000D01*
X123000000Y-48200000D02*
X123000000Y-51200000D01*
X122000000Y-50000000D02*
X122000000Y-48200000D01*
X122000000Y-48200000D02*
X128000000Y-48200000D01*
X120500000Y-51200000D02*
X120500000Y-50000000D01*
X120500000Y-50000000D02*
X122000000Y-50000000D01*
X119000000Y-62200000D02*
X119000000Y-51200000D01*
X119000000Y-51200000D02*
X120500000Y-51200000D01*
D15*
%TO.C,J1*%
X133999220Y-50249700D02*
X114499640Y-50249700D01*
X116000780Y-50000780D02*
X133999220Y-50000780D01*
X135500360Y-49749320D02*
X116000780Y-49749320D01*
X133999220Y-67999220D02*
X133999220Y-50999000D01*
X133999220Y-67999220D02*
X133498840Y-68499600D01*
X133498840Y-68499600D02*
X130999480Y-68499600D01*
X130999480Y-68499600D02*
X130499100Y-67999220D01*
X130499100Y-67999220D02*
X130499100Y-66000240D01*
X130499100Y-66000240D02*
X126998980Y-66000240D01*
X116000780Y-67999220D02*
X116000780Y-50999000D01*
X116000780Y-67999220D02*
X116501160Y-68499600D01*
X116501160Y-68499600D02*
X118500140Y-68499600D01*
X118500140Y-68499600D02*
X119000520Y-68499600D01*
X119000520Y-68499600D02*
X119500900Y-67999220D01*
X119500900Y-67999220D02*
X119500900Y-66000240D01*
X119500900Y-66000240D02*
X123001020Y-66000240D01*
X126501140Y-68499600D02*
X126998980Y-67999220D01*
X126998980Y-67999220D02*
X126998980Y-66000240D01*
X126501140Y-68499600D02*
X123498860Y-68499600D01*
X123498860Y-68499600D02*
X123001020Y-67999220D01*
X123001020Y-67999220D02*
X123001020Y-66000240D01*
X114499640Y-50000780D02*
X116000780Y-50000780D01*
X116000780Y-50000780D02*
X116000780Y-49500400D01*
X116000780Y-49500400D02*
X135500360Y-49500400D01*
X135500360Y-50000780D02*
X133999220Y-50000780D01*
X133999220Y-50000780D02*
X133999220Y-50501160D01*
X133999220Y-50501160D02*
X114499640Y-50501160D01*
X116000780Y-50999000D02*
X116501160Y-50999000D01*
X133999220Y-50999000D02*
X133498840Y-50999000D01*
X116501160Y-50501160D02*
X116501160Y-50999000D01*
X133498840Y-50999000D02*
X133498840Y-50501160D01*
X135500360Y-49500400D02*
X135500360Y-50000780D01*
X114499640Y-50501160D02*
X114499640Y-50000780D01*
D16*
%TO.C,D2*%
X139966000Y-51275000D02*
X139810000Y-51275000D01*
X137650000Y-51275000D02*
X137494000Y-51275000D01*
X139965516Y-51275000D02*
G75*
G02*
X139808608Y-54507335I-1235516J-1560000D01*
G01*
X139810000Y-51794039D02*
G75*
G02*
X139809837Y-53876130I-1080000J-1040961D01*
G01*
X137650163Y-53876130D02*
G75*
G02*
X137650000Y-51794039I1079837J1041130D01*
G01*
X137651392Y-54507335D02*
G75*
G02*
X137494484Y-51275000I1078608J1672335D01*
G01*
%TO.C,D1*%
X137870000Y-79910000D02*
X137870000Y-79260000D01*
X136750000Y-79260000D02*
X138990000Y-79260000D01*
X138990000Y-79260000D02*
X138990000Y-75020000D01*
X136750000Y-78660000D02*
X138990000Y-78660000D01*
X136750000Y-78540000D02*
X138990000Y-78540000D01*
X136750000Y-78420000D02*
X138990000Y-78420000D01*
X136750000Y-75020000D02*
X136750000Y-79260000D01*
X138990000Y-75020000D02*
X136750000Y-75020000D01*
X137870000Y-74370000D02*
X137870000Y-75020000D01*
%TO.C,C4*%
X136780302Y-57485000D02*
X137580302Y-57485000D01*
X137180302Y-57085000D02*
X137180302Y-57885000D01*
X141190000Y-55720000D02*
X141190000Y-63880000D01*
X141230000Y-55720000D02*
X141230000Y-63880000D01*
X141270000Y-55720000D02*
X141270000Y-63880000D01*
X141310000Y-55721000D02*
X141310000Y-63879000D01*
X141350000Y-55723000D02*
X141350000Y-63877000D01*
X141390000Y-55724000D02*
X141390000Y-63876000D01*
X141430000Y-55726000D02*
X141430000Y-63874000D01*
X141470000Y-55729000D02*
X141470000Y-63871000D01*
X141510000Y-55732000D02*
X141510000Y-63868000D01*
X141550000Y-55735000D02*
X141550000Y-63865000D01*
X141590000Y-55739000D02*
X141590000Y-63861000D01*
X141630000Y-55743000D02*
X141630000Y-63857000D01*
X141670000Y-55748000D02*
X141670000Y-63852000D01*
X141710000Y-55752000D02*
X141710000Y-63848000D01*
X141750000Y-55758000D02*
X141750000Y-63842000D01*
X141790000Y-55763000D02*
X141790000Y-63837000D01*
X141830000Y-55770000D02*
X141830000Y-63830000D01*
X141870000Y-55776000D02*
X141870000Y-63824000D01*
X141911000Y-55783000D02*
X141911000Y-58760000D01*
X141911000Y-60840000D02*
X141911000Y-63817000D01*
X141951000Y-55790000D02*
X141951000Y-58760000D01*
X141951000Y-60840000D02*
X141951000Y-63810000D01*
X141991000Y-55798000D02*
X141991000Y-58760000D01*
X141991000Y-60840000D02*
X141991000Y-63802000D01*
X142031000Y-55806000D02*
X142031000Y-58760000D01*
X142031000Y-60840000D02*
X142031000Y-63794000D01*
X142071000Y-55815000D02*
X142071000Y-58760000D01*
X142071000Y-60840000D02*
X142071000Y-63785000D01*
X142111000Y-55824000D02*
X142111000Y-58760000D01*
X142111000Y-60840000D02*
X142111000Y-63776000D01*
X142151000Y-55833000D02*
X142151000Y-58760000D01*
X142151000Y-60840000D02*
X142151000Y-63767000D01*
X142191000Y-55843000D02*
X142191000Y-58760000D01*
X142191000Y-60840000D02*
X142191000Y-63757000D01*
X142231000Y-55853000D02*
X142231000Y-58760000D01*
X142231000Y-60840000D02*
X142231000Y-63747000D01*
X142271000Y-55864000D02*
X142271000Y-58760000D01*
X142271000Y-60840000D02*
X142271000Y-63736000D01*
X142311000Y-55875000D02*
X142311000Y-58760000D01*
X142311000Y-60840000D02*
X142311000Y-63725000D01*
X142351000Y-55886000D02*
X142351000Y-58760000D01*
X142351000Y-60840000D02*
X142351000Y-63714000D01*
X142391000Y-55898000D02*
X142391000Y-58760000D01*
X142391000Y-60840000D02*
X142391000Y-63702000D01*
X142431000Y-55911000D02*
X142431000Y-58760000D01*
X142431000Y-60840000D02*
X142431000Y-63689000D01*
X142471000Y-55923000D02*
X142471000Y-58760000D01*
X142471000Y-60840000D02*
X142471000Y-63677000D01*
X142511000Y-55937000D02*
X142511000Y-58760000D01*
X142511000Y-60840000D02*
X142511000Y-63663000D01*
X142551000Y-55950000D02*
X142551000Y-58760000D01*
X142551000Y-60840000D02*
X142551000Y-63650000D01*
X142591000Y-55965000D02*
X142591000Y-58760000D01*
X142591000Y-60840000D02*
X142591000Y-63635000D01*
X142631000Y-55979000D02*
X142631000Y-58760000D01*
X142631000Y-60840000D02*
X142631000Y-63621000D01*
X142671000Y-55995000D02*
X142671000Y-58760000D01*
X142671000Y-60840000D02*
X142671000Y-63605000D01*
X142711000Y-56010000D02*
X142711000Y-58760000D01*
X142711000Y-60840000D02*
X142711000Y-63590000D01*
X142751000Y-56026000D02*
X142751000Y-58760000D01*
X142751000Y-60840000D02*
X142751000Y-63574000D01*
X142791000Y-56043000D02*
X142791000Y-58760000D01*
X142791000Y-60840000D02*
X142791000Y-63557000D01*
X142831000Y-56060000D02*
X142831000Y-58760000D01*
X142831000Y-60840000D02*
X142831000Y-63540000D01*
X142871000Y-56078000D02*
X142871000Y-58760000D01*
X142871000Y-60840000D02*
X142871000Y-63522000D01*
X142911000Y-56096000D02*
X142911000Y-58760000D01*
X142911000Y-60840000D02*
X142911000Y-63504000D01*
X142951000Y-56114000D02*
X142951000Y-58760000D01*
X142951000Y-60840000D02*
X142951000Y-63486000D01*
X142991000Y-56134000D02*
X142991000Y-58760000D01*
X142991000Y-60840000D02*
X142991000Y-63466000D01*
X143031000Y-56153000D02*
X143031000Y-58760000D01*
X143031000Y-60840000D02*
X143031000Y-63447000D01*
X143071000Y-56173000D02*
X143071000Y-58760000D01*
X143071000Y-60840000D02*
X143071000Y-63427000D01*
X143111000Y-56194000D02*
X143111000Y-58760000D01*
X143111000Y-60840000D02*
X143111000Y-63406000D01*
X143151000Y-56216000D02*
X143151000Y-58760000D01*
X143151000Y-60840000D02*
X143151000Y-63384000D01*
X143191000Y-56238000D02*
X143191000Y-58760000D01*
X143191000Y-60840000D02*
X143191000Y-63362000D01*
X143231000Y-56260000D02*
X143231000Y-58760000D01*
X143231000Y-60840000D02*
X143231000Y-63340000D01*
X143271000Y-56283000D02*
X143271000Y-58760000D01*
X143271000Y-60840000D02*
X143271000Y-63317000D01*
X143311000Y-56307000D02*
X143311000Y-58760000D01*
X143311000Y-60840000D02*
X143311000Y-63293000D01*
X143351000Y-56331000D02*
X143351000Y-58760000D01*
X143351000Y-60840000D02*
X143351000Y-63269000D01*
X143391000Y-56356000D02*
X143391000Y-58760000D01*
X143391000Y-60840000D02*
X143391000Y-63244000D01*
X143431000Y-56382000D02*
X143431000Y-58760000D01*
X143431000Y-60840000D02*
X143431000Y-63218000D01*
X143471000Y-56408000D02*
X143471000Y-58760000D01*
X143471000Y-60840000D02*
X143471000Y-63192000D01*
X143511000Y-56435000D02*
X143511000Y-58760000D01*
X143511000Y-60840000D02*
X143511000Y-63165000D01*
X143551000Y-56462000D02*
X143551000Y-58760000D01*
X143551000Y-60840000D02*
X143551000Y-63138000D01*
X143591000Y-56491000D02*
X143591000Y-58760000D01*
X143591000Y-60840000D02*
X143591000Y-63109000D01*
X143631000Y-56520000D02*
X143631000Y-58760000D01*
X143631000Y-60840000D02*
X143631000Y-63080000D01*
X143671000Y-56550000D02*
X143671000Y-58760000D01*
X143671000Y-60840000D02*
X143671000Y-63050000D01*
X143711000Y-56580000D02*
X143711000Y-58760000D01*
X143711000Y-60840000D02*
X143711000Y-63020000D01*
X143751000Y-56611000D02*
X143751000Y-58760000D01*
X143751000Y-60840000D02*
X143751000Y-62989000D01*
X143791000Y-56644000D02*
X143791000Y-58760000D01*
X143791000Y-60840000D02*
X143791000Y-62956000D01*
X143831000Y-56676000D02*
X143831000Y-58760000D01*
X143831000Y-60840000D02*
X143831000Y-62924000D01*
X143871000Y-56710000D02*
X143871000Y-58760000D01*
X143871000Y-60840000D02*
X143871000Y-62890000D01*
X143911000Y-56745000D02*
X143911000Y-58760000D01*
X143911000Y-60840000D02*
X143911000Y-62855000D01*
X143951000Y-56781000D02*
X143951000Y-58760000D01*
X143951000Y-60840000D02*
X143951000Y-62819000D01*
X143991000Y-56817000D02*
X143991000Y-62783000D01*
X144031000Y-56855000D02*
X144031000Y-62745000D01*
X144071000Y-56893000D02*
X144071000Y-62707000D01*
X144111000Y-56933000D02*
X144111000Y-62667000D01*
X144151000Y-56974000D02*
X144151000Y-62626000D01*
X144191000Y-57016000D02*
X144191000Y-62584000D01*
X144231000Y-57059000D02*
X144231000Y-62541000D01*
X144271000Y-57103000D02*
X144271000Y-62497000D01*
X144311000Y-57149000D02*
X144311000Y-62451000D01*
X144351000Y-57196000D02*
X144351000Y-62404000D01*
X144391000Y-57244000D02*
X144391000Y-62356000D01*
X144431000Y-57295000D02*
X144431000Y-62305000D01*
X144471000Y-57346000D02*
X144471000Y-62254000D01*
X144511000Y-57400000D02*
X144511000Y-62200000D01*
X144551000Y-57455000D02*
X144551000Y-62145000D01*
X144591000Y-57513000D02*
X144591000Y-62087000D01*
X144631000Y-57572000D02*
X144631000Y-62028000D01*
X144671000Y-57634000D02*
X144671000Y-61966000D01*
X144711000Y-57698000D02*
X144711000Y-61902000D01*
X144751000Y-57766000D02*
X144751000Y-61834000D01*
X144791000Y-57836000D02*
X144791000Y-61764000D01*
X144831000Y-57910000D02*
X144831000Y-61690000D01*
X144871000Y-57987000D02*
X144871000Y-61613000D01*
X144911000Y-58069000D02*
X144911000Y-61531000D01*
X144951000Y-58155000D02*
X144951000Y-61445000D01*
X144991000Y-58248000D02*
X144991000Y-61352000D01*
X145031000Y-58347000D02*
X145031000Y-61253000D01*
X145071000Y-58454000D02*
X145071000Y-61146000D01*
X145111000Y-58571000D02*
X145111000Y-61029000D01*
X145151000Y-58702000D02*
X145151000Y-60898000D01*
X145191000Y-58852000D02*
X145191000Y-60748000D01*
X145231000Y-59032000D02*
X145231000Y-60568000D01*
X145271000Y-59267000D02*
X145271000Y-60333000D01*
X145310000Y-59800000D02*
G75*
G02*
X137070000Y-59800000I-4120000J0D01*
G01*
X137070000Y-59800000D02*
G75*
G02*
X145310000Y-59800000I4120000J0D01*
G01*
%TO.C,C3*%
X145540302Y-57485000D02*
X146340302Y-57485000D01*
X145940302Y-57085000D02*
X145940302Y-57885000D01*
X149950000Y-55720000D02*
X149950000Y-63880000D01*
X149990000Y-55720000D02*
X149990000Y-63880000D01*
X150030000Y-55720000D02*
X150030000Y-63880000D01*
X150070000Y-55721000D02*
X150070000Y-63879000D01*
X150110000Y-55723000D02*
X150110000Y-63877000D01*
X150150000Y-55724000D02*
X150150000Y-63876000D01*
X150190000Y-55726000D02*
X150190000Y-63874000D01*
X150230000Y-55729000D02*
X150230000Y-63871000D01*
X150270000Y-55732000D02*
X150270000Y-63868000D01*
X150310000Y-55735000D02*
X150310000Y-63865000D01*
X150350000Y-55739000D02*
X150350000Y-63861000D01*
X150390000Y-55743000D02*
X150390000Y-63857000D01*
X150430000Y-55748000D02*
X150430000Y-63852000D01*
X150470000Y-55752000D02*
X150470000Y-63848000D01*
X150510000Y-55758000D02*
X150510000Y-63842000D01*
X150550000Y-55763000D02*
X150550000Y-63837000D01*
X150590000Y-55770000D02*
X150590000Y-63830000D01*
X150630000Y-55776000D02*
X150630000Y-63824000D01*
X150671000Y-55783000D02*
X150671000Y-58760000D01*
X150671000Y-60840000D02*
X150671000Y-63817000D01*
X150711000Y-55790000D02*
X150711000Y-58760000D01*
X150711000Y-60840000D02*
X150711000Y-63810000D01*
X150751000Y-55798000D02*
X150751000Y-58760000D01*
X150751000Y-60840000D02*
X150751000Y-63802000D01*
X150791000Y-55806000D02*
X150791000Y-58760000D01*
X150791000Y-60840000D02*
X150791000Y-63794000D01*
X150831000Y-55815000D02*
X150831000Y-58760000D01*
X150831000Y-60840000D02*
X150831000Y-63785000D01*
X150871000Y-55824000D02*
X150871000Y-58760000D01*
X150871000Y-60840000D02*
X150871000Y-63776000D01*
X150911000Y-55833000D02*
X150911000Y-58760000D01*
X150911000Y-60840000D02*
X150911000Y-63767000D01*
X150951000Y-55843000D02*
X150951000Y-58760000D01*
X150951000Y-60840000D02*
X150951000Y-63757000D01*
X150991000Y-55853000D02*
X150991000Y-58760000D01*
X150991000Y-60840000D02*
X150991000Y-63747000D01*
X151031000Y-55864000D02*
X151031000Y-58760000D01*
X151031000Y-60840000D02*
X151031000Y-63736000D01*
X151071000Y-55875000D02*
X151071000Y-58760000D01*
X151071000Y-60840000D02*
X151071000Y-63725000D01*
X151111000Y-55886000D02*
X151111000Y-58760000D01*
X151111000Y-60840000D02*
X151111000Y-63714000D01*
X151151000Y-55898000D02*
X151151000Y-58760000D01*
X151151000Y-60840000D02*
X151151000Y-63702000D01*
X151191000Y-55911000D02*
X151191000Y-58760000D01*
X151191000Y-60840000D02*
X151191000Y-63689000D01*
X151231000Y-55923000D02*
X151231000Y-58760000D01*
X151231000Y-60840000D02*
X151231000Y-63677000D01*
X151271000Y-55937000D02*
X151271000Y-58760000D01*
X151271000Y-60840000D02*
X151271000Y-63663000D01*
X151311000Y-55950000D02*
X151311000Y-58760000D01*
X151311000Y-60840000D02*
X151311000Y-63650000D01*
X151351000Y-55965000D02*
X151351000Y-58760000D01*
X151351000Y-60840000D02*
X151351000Y-63635000D01*
X151391000Y-55979000D02*
X151391000Y-58760000D01*
X151391000Y-60840000D02*
X151391000Y-63621000D01*
X151431000Y-55995000D02*
X151431000Y-58760000D01*
X151431000Y-60840000D02*
X151431000Y-63605000D01*
X151471000Y-56010000D02*
X151471000Y-58760000D01*
X151471000Y-60840000D02*
X151471000Y-63590000D01*
X151511000Y-56026000D02*
X151511000Y-58760000D01*
X151511000Y-60840000D02*
X151511000Y-63574000D01*
X151551000Y-56043000D02*
X151551000Y-58760000D01*
X151551000Y-60840000D02*
X151551000Y-63557000D01*
X151591000Y-56060000D02*
X151591000Y-58760000D01*
X151591000Y-60840000D02*
X151591000Y-63540000D01*
X151631000Y-56078000D02*
X151631000Y-58760000D01*
X151631000Y-60840000D02*
X151631000Y-63522000D01*
X151671000Y-56096000D02*
X151671000Y-58760000D01*
X151671000Y-60840000D02*
X151671000Y-63504000D01*
X151711000Y-56114000D02*
X151711000Y-58760000D01*
X151711000Y-60840000D02*
X151711000Y-63486000D01*
X151751000Y-56134000D02*
X151751000Y-58760000D01*
X151751000Y-60840000D02*
X151751000Y-63466000D01*
X151791000Y-56153000D02*
X151791000Y-58760000D01*
X151791000Y-60840000D02*
X151791000Y-63447000D01*
X151831000Y-56173000D02*
X151831000Y-58760000D01*
X151831000Y-60840000D02*
X151831000Y-63427000D01*
X151871000Y-56194000D02*
X151871000Y-58760000D01*
X151871000Y-60840000D02*
X151871000Y-63406000D01*
X151911000Y-56216000D02*
X151911000Y-58760000D01*
X151911000Y-60840000D02*
X151911000Y-63384000D01*
X151951000Y-56238000D02*
X151951000Y-58760000D01*
X151951000Y-60840000D02*
X151951000Y-63362000D01*
X151991000Y-56260000D02*
X151991000Y-58760000D01*
X151991000Y-60840000D02*
X151991000Y-63340000D01*
X152031000Y-56283000D02*
X152031000Y-58760000D01*
X152031000Y-60840000D02*
X152031000Y-63317000D01*
X152071000Y-56307000D02*
X152071000Y-58760000D01*
X152071000Y-60840000D02*
X152071000Y-63293000D01*
X152111000Y-56331000D02*
X152111000Y-58760000D01*
X152111000Y-60840000D02*
X152111000Y-63269000D01*
X152151000Y-56356000D02*
X152151000Y-58760000D01*
X152151000Y-60840000D02*
X152151000Y-63244000D01*
X152191000Y-56382000D02*
X152191000Y-58760000D01*
X152191000Y-60840000D02*
X152191000Y-63218000D01*
X152231000Y-56408000D02*
X152231000Y-58760000D01*
X152231000Y-60840000D02*
X152231000Y-63192000D01*
X152271000Y-56435000D02*
X152271000Y-58760000D01*
X152271000Y-60840000D02*
X152271000Y-63165000D01*
X152311000Y-56462000D02*
X152311000Y-58760000D01*
X152311000Y-60840000D02*
X152311000Y-63138000D01*
X152351000Y-56491000D02*
X152351000Y-58760000D01*
X152351000Y-60840000D02*
X152351000Y-63109000D01*
X152391000Y-56520000D02*
X152391000Y-58760000D01*
X152391000Y-60840000D02*
X152391000Y-63080000D01*
X152431000Y-56550000D02*
X152431000Y-58760000D01*
X152431000Y-60840000D02*
X152431000Y-63050000D01*
X152471000Y-56580000D02*
X152471000Y-58760000D01*
X152471000Y-60840000D02*
X152471000Y-63020000D01*
X152511000Y-56611000D02*
X152511000Y-58760000D01*
X152511000Y-60840000D02*
X152511000Y-62989000D01*
X152551000Y-56644000D02*
X152551000Y-58760000D01*
X152551000Y-60840000D02*
X152551000Y-62956000D01*
X152591000Y-56676000D02*
X152591000Y-58760000D01*
X152591000Y-60840000D02*
X152591000Y-62924000D01*
X152631000Y-56710000D02*
X152631000Y-58760000D01*
X152631000Y-60840000D02*
X152631000Y-62890000D01*
X152671000Y-56745000D02*
X152671000Y-58760000D01*
X152671000Y-60840000D02*
X152671000Y-62855000D01*
X152711000Y-56781000D02*
X152711000Y-58760000D01*
X152711000Y-60840000D02*
X152711000Y-62819000D01*
X152751000Y-56817000D02*
X152751000Y-62783000D01*
X152791000Y-56855000D02*
X152791000Y-62745000D01*
X152831000Y-56893000D02*
X152831000Y-62707000D01*
X152871000Y-56933000D02*
X152871000Y-62667000D01*
X152911000Y-56974000D02*
X152911000Y-62626000D01*
X152951000Y-57016000D02*
X152951000Y-62584000D01*
X152991000Y-57059000D02*
X152991000Y-62541000D01*
X153031000Y-57103000D02*
X153031000Y-62497000D01*
X153071000Y-57149000D02*
X153071000Y-62451000D01*
X153111000Y-57196000D02*
X153111000Y-62404000D01*
X153151000Y-57244000D02*
X153151000Y-62356000D01*
X153191000Y-57295000D02*
X153191000Y-62305000D01*
X153231000Y-57346000D02*
X153231000Y-62254000D01*
X153271000Y-57400000D02*
X153271000Y-62200000D01*
X153311000Y-57455000D02*
X153311000Y-62145000D01*
X153351000Y-57513000D02*
X153351000Y-62087000D01*
X153391000Y-57572000D02*
X153391000Y-62028000D01*
X153431000Y-57634000D02*
X153431000Y-61966000D01*
X153471000Y-57698000D02*
X153471000Y-61902000D01*
X153511000Y-57766000D02*
X153511000Y-61834000D01*
X153551000Y-57836000D02*
X153551000Y-61764000D01*
X153591000Y-57910000D02*
X153591000Y-61690000D01*
X153631000Y-57987000D02*
X153631000Y-61613000D01*
X153671000Y-58069000D02*
X153671000Y-61531000D01*
X153711000Y-58155000D02*
X153711000Y-61445000D01*
X153751000Y-58248000D02*
X153751000Y-61352000D01*
X153791000Y-58347000D02*
X153791000Y-61253000D01*
X153831000Y-58454000D02*
X153831000Y-61146000D01*
X153871000Y-58571000D02*
X153871000Y-61029000D01*
X153911000Y-58702000D02*
X153911000Y-60898000D01*
X153951000Y-58852000D02*
X153951000Y-60748000D01*
X153991000Y-59032000D02*
X153991000Y-60568000D01*
X154031000Y-59267000D02*
X154031000Y-60333000D01*
X154070000Y-59800000D02*
G75*
G02*
X145830000Y-59800000I-4120000J0D01*
G01*
X145830000Y-59800000D02*
G75*
G02*
X154070000Y-59800000I4120000J0D01*
G01*
%TO.C,C2*%
X114060000Y-67860000D02*
X114060000Y-67415000D01*
X114060000Y-67860000D02*
X107820000Y-67860000D01*
X114060000Y-65565000D02*
X114060000Y-65120000D01*
X114060000Y-65120000D02*
X107820000Y-65120000D01*
X107820000Y-67860000D02*
X107820000Y-67415000D01*
X107820000Y-65565000D02*
X107820000Y-65120000D01*
%TO.C,C1*%
X118240000Y-80060000D02*
X118685000Y-80060000D01*
X118240000Y-80060000D02*
X118240000Y-73820000D01*
X120535000Y-80060000D02*
X120980000Y-80060000D01*
X120980000Y-80060000D02*
X120980000Y-73820000D01*
X118240000Y-73820000D02*
X118685000Y-73820000D01*
X120535000Y-73820000D02*
X120980000Y-73820000D01*
%TO.C,R6*%
X137320000Y-63460000D02*
X136990000Y-63460000D01*
X134580000Y-63460000D02*
X134910000Y-63460000D01*
X137320000Y-70000000D02*
X137320000Y-63460000D01*
X136990000Y-70000000D02*
X137320000Y-70000000D01*
X134910000Y-70000000D02*
X134580000Y-70000000D01*
X134580000Y-70000000D02*
X134580000Y-63460000D01*
%TD*%
D17*
%TO.C,J1*%
X132498080Y-61997200D03*
X120003820Y-64499100D03*
X125000000Y-61999740D03*
X117501920Y-61997200D03*
X129996180Y-64499100D03*
X119998740Y-52002300D03*
X130001260Y-52002300D03*
%TD*%
M02*
