M48
; DRILL file KiCad 10.0.5 date 2026-09-04T17:17:36
; FORMAT={-:-/ absolute / metric / decimal}
; #@! TF.CreationDate,2026-09-04T17:17:36+01:00
; #@! TF.GenerationSoftware,Kicad,Pcbnew,10.0.5
; #@! TF.FileFunction,MixedPlating,1,2
FMAT,2
METRIC
; #@! TA.AperFunction,Plated,PTH,ViaDrill
T1C0.400
; #@! TA.AperFunction,Plated,PTH,ComponentDrill
T2C0.800
; #@! TA.AperFunction,Plated,PTH,ComponentDrill
T3C0.900
; #@! TA.AperFunction,Plated,PTH,ComponentDrill
T4C1.000
; #@! TA.AperFunction,NonPlated,NPTH,ComponentDrill
T5C3.200
%
G90
G05
T1
X101.676Y-80.112
X101.753Y-68.072
X102.515Y-51.461
X103.124Y-98.146
X107.391Y-64.262
X107.391Y-70.358
X110.592Y-79.705
X112.192Y-57.48
X113.259Y-85.014
X113.437Y-72.365
X114.148Y-79.553
X114.935Y-64.415
X114.986Y-57.633
X115.672Y-85.014
X115.875Y-73.914
X117.196Y-58.42
X117.45Y-84.989
X117.577Y-98.07
X118.948Y-76.022
X119.05Y-69.52
X120.676Y-70.79
X120.752Y-58.344
X121.107Y-62.865
X121.26Y-69.241
X121.463Y-97.003
X121.615Y-75.819
X124.028Y-69.291
X124.028Y-72.39
X124.028Y-78.537
X125.248Y-63.627
X125.451Y-80.772
X126.873Y-55.423
X129.616Y-75.616
X129.997Y-53.899
X130.378Y-60.3
X134.112Y-91.161
X135.179Y-54.204
X135.179Y-60.3
X148.057Y-75.235
X148.336Y-99.441
X151.867Y-62.433
X155.677Y-62.586
X155.753Y-75.235
X156.693Y-83.236
X158.776Y-75.159
X158.928Y-62.433
X165.1Y-75.159
X165.557Y-56.947
X166.548Y-96.749
X167.285Y-88.189
T2
X105.151Y-91.872
X107.651Y-91.872
X108.966Y-52.7
X108.966Y-55.2
X110.592Y-88.519
X112.065Y-53.188
X112.065Y-60.808
X113.132Y-88.519
X114.605Y-53.188
X114.605Y-60.808
X115.672Y-88.519
X117.145Y-53.188
X117.145Y-60.808
X118.212Y-88.519
X119.685Y-53.188
X119.685Y-60.808
X120.752Y-88.519
X122.225Y-53.188
X122.225Y-60.808
X123.292Y-88.519
X124.765Y-53.188
X124.765Y-60.808
X125.832Y-88.519
X127.305Y-53.188
X127.305Y-60.808
X128.372Y-88.519
X130.912Y-88.519
X137.668Y-88.494
X139.802Y-53.924
X140.208Y-88.494
X142.342Y-53.924
X142.748Y-88.494
X144.882Y-53.924
X145.288Y-88.494
X147.422Y-53.924
X147.828Y-88.494
X149.962Y-53.924
X150.368Y-88.494
X152.502Y-53.924
X152.908Y-88.494
X155.042Y-53.924
X155.448Y-88.494
X157.582Y-53.924
X157.988Y-88.494
X160.122Y-53.924
T3
X113.194Y-91.415
X113.194Y-93.955
X116.194Y-91.415
X116.194Y-93.955
X119.194Y-91.415
X119.194Y-93.955
X122.194Y-91.415
X122.194Y-93.955
X125.194Y-91.415
X125.194Y-93.955
X128.194Y-91.415
X128.194Y-93.955
X131.194Y-91.415
X131.194Y-93.955
X137.386Y-91.364
X137.386Y-93.904
X139.411Y-57.099
X139.411Y-59.639
X140.386Y-91.364
X140.386Y-93.904
X142.411Y-57.099
X142.411Y-59.639
X143.386Y-91.364
X143.386Y-93.904
X145.411Y-57.099
X145.411Y-59.639
X146.386Y-91.364
X146.386Y-93.904
X148.411Y-57.099
X148.411Y-59.639
X149.386Y-91.364
X149.386Y-93.904
X151.411Y-57.099
X151.411Y-59.639
X152.386Y-91.364
X152.386Y-93.904
X154.411Y-57.099
X154.411Y-59.639
X155.386Y-91.364
X155.386Y-93.904
X157.411Y-57.099
X157.411Y-59.639
X158.386Y-91.364
X158.386Y-93.904
X160.411Y-57.099
X160.411Y-59.639
T4
X111.532Y-67.082
X111.532Y-82.322
X114.072Y-67.082
X114.072Y-82.322
X116.612Y-67.082
X116.612Y-82.322
X118.796Y-49.2
X119.152Y-67.082
X119.152Y-82.322
X121.336Y-49.2
X121.692Y-67.082
X121.692Y-82.322
X123.876Y-49.2
X124.232Y-67.082
X124.232Y-82.322
X126.416Y-49.2
X126.772Y-67.082
X126.772Y-82.322
X127.94Y-97.46
X128.956Y-49.2
X129.312Y-67.082
X129.312Y-82.322
X130.48Y-97.46
X131.496Y-49.2
X131.852Y-67.082
X131.852Y-82.322
X133.02Y-97.46
X134.036Y-49.2
X134.392Y-67.082
X134.392Y-82.322
X135.56Y-97.46
X136.576Y-49.2
X136.932Y-67.082
X136.932Y-82.322
X138.1Y-97.46
X139.116Y-49.2
X139.472Y-67.082
X139.472Y-82.322
X140.64Y-97.46
X141.656Y-49.2
X142.012Y-67.082
X142.012Y-82.322
X143.18Y-97.46
X144.552Y-67.082
X144.552Y-82.322
X145.72Y-49.2
X145.72Y-97.46
X148.26Y-49.2
X150.8Y-49.2
X150.8Y-97.46
X153.34Y-49.2
X153.34Y-97.46
X155.88Y-49.2
X155.88Y-97.46
X158.42Y-49.2
X158.42Y-97.46
X160.96Y-49.2
X160.96Y-97.46
X163.5Y-49.2
X163.5Y-97.46
T5
X113.97Y-97.46
X115.24Y-49.2
X166.04Y-64.44
X166.04Y-92.38
M30
