G04 #@! TF.GenerationSoftware,KiCad,Pcbnew,8.0.7*
G04 #@! TF.CreationDate,2025-09-13T14:37:32+01:00*
G04 #@! TF.ProjectId,RPi-MiniDexed-IOBoard,5250692d-4d69-46e6-9944-657865642d49,rev?*
G04 #@! TF.SameCoordinates,Original*
G04 #@! TF.FileFunction,Soldermask,Top*
G04 #@! TF.FilePolarity,Negative*
%FSLAX46Y46*%
G04 Gerber Fmt 4.6, Leading zero omitted, Abs format (unit mm)*
G04 Created by KiCad (PCBNEW 8.0.7) date 2025-09-13 14:37:32*
%MOMM*%
%LPD*%
G01*
G04 APERTURE LIST*
%ADD10C,2.700000*%
%ADD11C,2.000000*%
%ADD12R,2.000000X2.000000*%
%ADD13C,3.200000*%
%ADD14R,1.700000X1.700000*%
%ADD15O,1.700000X1.700000*%
%ADD16C,1.600000*%
%ADD17O,1.600000X1.600000*%
%ADD18C,1.700000*%
%ADD19R,1.600000X1.600000*%
%ADD20C,1.200000*%
%ADD21O,1.200000X2.200000*%
%ADD22O,1.600000X2.300000*%
%ADD23O,2.200000X1.200000*%
%ADD24O,1.600000X2.500000*%
%ADD25C,2.499360*%
G04 APERTURE END LIST*
D10*
X203500000Y-97500000D03*
X261500000Y-97500000D03*
X203500000Y-146500000D03*
X261500000Y-146500000D03*
D11*
X244405000Y-137046000D03*
X250905000Y-137046000D03*
X244405000Y-141546000D03*
X250905000Y-141546000D03*
D12*
X254852000Y-116121000D03*
D11*
X249852000Y-116121000D03*
X252352000Y-116121000D03*
D13*
X257952000Y-123621000D03*
X246752000Y-123621000D03*
D11*
X249852000Y-130621000D03*
X254852000Y-130621000D03*
D14*
X262602000Y-121475000D03*
D15*
X262602000Y-118935000D03*
D16*
X231712000Y-116496000D03*
D17*
X224092000Y-116496000D03*
D16*
X242852000Y-122171000D03*
X237852000Y-122171000D03*
X242852000Y-116571000D03*
X237852000Y-116571000D03*
D18*
X217552000Y-103421000D03*
X215012000Y-103421000D03*
X212472000Y-103421000D03*
X209932000Y-103421000D03*
X207392000Y-103421000D03*
X204852000Y-103421000D03*
X218187000Y-130091000D03*
X218187000Y-127551000D03*
X218187000Y-125011000D03*
X218187000Y-122471000D03*
X218187000Y-119931000D03*
X218187000Y-117391000D03*
X218187000Y-114851000D03*
X218187000Y-112311000D03*
X218187000Y-109771000D03*
D16*
X221102000Y-124821000D03*
X221102000Y-119821000D03*
D19*
X231777000Y-127971000D03*
D17*
X224157000Y-127971000D03*
D16*
X234877000Y-128121000D03*
D17*
X234877000Y-120501000D03*
D16*
X242852000Y-127771000D03*
X237852000Y-127771000D03*
D14*
X226752000Y-111786000D03*
D15*
X226752000Y-109246000D03*
X226752000Y-106706000D03*
X226752000Y-104166000D03*
D11*
X255327000Y-137046000D03*
X261827000Y-137046000D03*
X255327000Y-141546000D03*
X261827000Y-141546000D03*
D19*
X231602000Y-124896000D03*
D17*
X231602000Y-122356000D03*
X231602000Y-119816000D03*
X223982000Y-119816000D03*
X223982000Y-122356000D03*
X223982000Y-124896000D03*
D20*
X209277000Y-145482000D03*
X209277000Y-147982000D03*
X214277000Y-140482000D03*
X219277000Y-145482000D03*
X219277000Y-147982000D03*
D21*
X209277000Y-140482000D03*
D22*
X211777000Y-140482000D03*
D23*
X214277000Y-145482000D03*
D21*
X219277000Y-140482000D03*
D24*
X216777000Y-140482000D03*
D14*
X262602000Y-128146000D03*
D15*
X262602000Y-125606000D03*
D16*
X201327000Y-103721000D03*
X201327000Y-108721000D03*
X242852000Y-119371000D03*
X237852000Y-119371000D03*
D25*
X227510740Y-147997440D03*
D20*
X227512000Y-145489740D03*
X232512000Y-140489740D03*
X237512000Y-145489740D03*
D25*
X237513260Y-147997440D03*
X240010080Y-138002540D03*
X232512000Y-138000000D03*
D23*
X232512000Y-145489740D03*
D25*
X225013920Y-138002540D03*
D21*
X227512000Y-140489740D03*
D25*
X237508180Y-135500640D03*
X227515820Y-135500640D03*
D21*
X237512000Y-140489740D03*
D22*
X230012000Y-140489740D03*
D24*
X235012000Y-140489740D03*
D16*
X242852000Y-124971000D03*
X237852000Y-124971000D03*
X223427000Y-106771000D03*
X223427000Y-111771000D03*
D14*
X208370000Y-98770000D03*
D15*
X208370000Y-96230000D03*
X210910000Y-98770000D03*
X210910000Y-96230000D03*
X213450000Y-98770000D03*
X213450000Y-96230000D03*
X215990000Y-98770000D03*
X215990000Y-96230000D03*
X218530000Y-98770000D03*
X218530000Y-96230000D03*
X221070000Y-98770000D03*
X221070000Y-96230000D03*
X223610000Y-98770000D03*
X223610000Y-96230000D03*
X226150000Y-98770000D03*
X226150000Y-96230000D03*
X228690000Y-98770000D03*
X228690000Y-96230000D03*
X231230000Y-98770000D03*
X231230000Y-96230000D03*
X233770000Y-98770000D03*
X233770000Y-96230000D03*
X236310000Y-98770000D03*
X236310000Y-96230000D03*
X238850000Y-98770000D03*
X238850000Y-96230000D03*
X241390000Y-98770000D03*
X241390000Y-96230000D03*
X243930000Y-98770000D03*
X243930000Y-96230000D03*
X246470000Y-98770000D03*
X246470000Y-96230000D03*
X249010000Y-98770000D03*
X249010000Y-96230000D03*
X251550000Y-98770000D03*
X251550000Y-96230000D03*
X254090000Y-98770000D03*
X254090000Y-96230000D03*
X256630000Y-98770000D03*
X256630000Y-96230000D03*
M02*
