%TF.GenerationSoftware,KiCad,Pcbnew,(6.0.5)*%
%TF.CreationDate,2022-11-11T14:55:19+00:00*%
%TF.ProjectId,ArduinoAudioExperimentShield,41726475-696e-46f4-9175-64696f457870,rev?*%
%TF.SameCoordinates,Original*%
%TF.FileFunction,Copper,L1,Top*%
%TF.FilePolarity,Positive*%
%FSLAX46Y46*%
G04 Gerber Fmt 4.6, Leading zero omitted, Abs format (unit mm)*
G04 Created by KiCad (PCBNEW (6.0.5)) date 2022-11-11 14:55:19*
%MOMM*%
%LPD*%
G01*
G04 APERTURE LIST*
%TA.AperFunction,ComponentPad*%
%ADD10O,1.727200X2.032000*%
%TD*%
%TA.AperFunction,ComponentPad*%
%ADD11C,4.064000*%
%TD*%
%TA.AperFunction,ComponentPad*%
%ADD12C,1.600000*%
%TD*%
%TA.AperFunction,ComponentPad*%
%ADD13O,1.600000X1.600000*%
%TD*%
%TA.AperFunction,ComponentPad*%
%ADD14R,1.700000X1.700000*%
%TD*%
%TA.AperFunction,ComponentPad*%
%ADD15O,1.700000X1.700000*%
%TD*%
%TA.AperFunction,ComponentPad*%
%ADD16R,1.600000X1.600000*%
%TD*%
%TA.AperFunction,WasherPad*%
%ADD17R,4.000000X2.500000*%
%TD*%
%TA.AperFunction,ComponentPad*%
%ADD18C,2.499360*%
%TD*%
%TA.AperFunction,ComponentPad*%
%ADD19O,2.200000X1.200000*%
%TD*%
%TA.AperFunction,ComponentPad*%
%ADD20O,1.200000X2.200000*%
%TD*%
%TA.AperFunction,Conductor*%
%ADD21C,0.600000*%
%TD*%
G04 APERTURE END LIST*
D10*
%TO.P,P1,1,Pin_1*%
%TO.N,unconnected-(P1-Pad1)*%
X138938000Y-123825000D03*
%TO.P,P1,2,Pin_2*%
%TO.N,/IOREF*%
X141478000Y-123825000D03*
%TO.P,P1,3,Pin_3*%
%TO.N,/Reset*%
X144018000Y-123825000D03*
%TO.P,P1,4,Pin_4*%
%TO.N,+3V3*%
X146558000Y-123825000D03*
%TO.P,P1,5,Pin_5*%
%TO.N,+5V*%
X149098000Y-123825000D03*
%TO.P,P1,6,Pin_6*%
%TO.N,GND*%
X151638000Y-123825000D03*
%TO.P,P1,7,Pin_7*%
X154178000Y-123825000D03*
%TO.P,P1,8,Pin_8*%
%TO.N,/Vin*%
X156718000Y-123825000D03*
%TD*%
%TO.P,P2,1,Pin_1*%
%TO.N,/A0*%
X161798000Y-123825000D03*
%TO.P,P2,2,Pin_2*%
%TO.N,/A1*%
X164338000Y-123825000D03*
%TO.P,P2,3,Pin_3*%
%TO.N,/A2*%
X166878000Y-123825000D03*
%TO.P,P2,4,Pin_4*%
%TO.N,/A3*%
X169418000Y-123825000D03*
%TO.P,P2,5,Pin_5*%
%TO.N,/A4(SDA)*%
X171958000Y-123825000D03*
%TO.P,P2,6,Pin_6*%
%TO.N,/A5(SCL)*%
X174498000Y-123825000D03*
%TD*%
%TO.P,P3,1,Pin_1*%
%TO.N,unconnected-(P3-Pad1)*%
X129794000Y-75565000D03*
%TO.P,P3,2,Pin_2*%
%TO.N,unconnected-(P3-Pad2)*%
X132334000Y-75565000D03*
%TO.P,P3,3,Pin_3*%
%TO.N,/AREF*%
X134874000Y-75565000D03*
%TO.P,P3,4,Pin_4*%
%TO.N,GND*%
X137414000Y-75565000D03*
%TO.P,P3,5,Pin_5*%
%TO.N,/13(SCK)*%
X139954000Y-75565000D03*
%TO.P,P3,6,Pin_6*%
%TO.N,/12(MISO)*%
X142494000Y-75565000D03*
%TO.P,P3,7,Pin_7*%
%TO.N,/11(\u002A\u002A{slash}MOSI)*%
X145034000Y-75565000D03*
%TO.P,P3,8,Pin_8*%
%TO.N,/10(\u002A\u002A{slash}SS)*%
X147574000Y-75565000D03*
%TO.P,P3,9,Pin_9*%
%TO.N,/9(\u002A\u002A)*%
X150114000Y-75565000D03*
%TO.P,P3,10,Pin_10*%
%TO.N,/8*%
X152654000Y-75565000D03*
%TD*%
%TO.P,P4,1,Pin_1*%
%TO.N,/7*%
X156718000Y-75565000D03*
%TO.P,P4,2,Pin_2*%
%TO.N,/6(\u002A\u002A)*%
X159258000Y-75565000D03*
%TO.P,P4,3,Pin_3*%
%TO.N,/5(\u002A\u002A)*%
X161798000Y-75565000D03*
%TO.P,P4,4,Pin_4*%
%TO.N,/4*%
X164338000Y-75565000D03*
%TO.P,P4,5,Pin_5*%
%TO.N,/3(\u002A\u002A)*%
X166878000Y-75565000D03*
%TO.P,P4,6,Pin_6*%
%TO.N,/2*%
X169418000Y-75565000D03*
%TO.P,P4,7,Pin_7*%
%TO.N,/1(Tx)*%
X171958000Y-75565000D03*
%TO.P,P4,8,Pin_8*%
%TO.N,/0(Rx)*%
X174498000Y-75565000D03*
%TD*%
D11*
%TO.P,P5,1,Pin_1*%
%TO.N,unconnected-(P5-Pad1)*%
X124968000Y-123825000D03*
%TD*%
%TO.P,P6,1,Pin_1*%
%TO.N,unconnected-(P6-Pad1)*%
X177038000Y-118745000D03*
%TD*%
%TO.P,P7,1,Pin_1*%
%TO.N,unconnected-(P7-Pad1)*%
X126238000Y-75565000D03*
%TD*%
%TO.P,P8,1,Pin_1*%
%TO.N,unconnected-(P8-Pad1)*%
X177038000Y-90805000D03*
%TD*%
D12*
%TO.P,R8,1*%
%TO.N,/6(\u002A\u002A)*%
X156200000Y-80000000D03*
D13*
%TO.P,R8,2*%
%TO.N,Net-(R16-Pad1)*%
X156200000Y-87620000D03*
%TD*%
D12*
%TO.P,R9,1*%
%TO.N,/7*%
X152500000Y-80000000D03*
D13*
%TO.P,R9,2*%
%TO.N,/AU_R2R*%
X152500000Y-87620000D03*
%TD*%
D14*
%TO.P,J6,1,Pin_1*%
%TO.N,/AU_R2R*%
X169773000Y-101385000D03*
D15*
%TO.P,J6,2,Pin_2*%
%TO.N,/AU_DAC*%
X167233000Y-101385000D03*
%TO.P,J6,3,Pin_3*%
%TO.N,/AU_PWM*%
X164693000Y-101385000D03*
%TD*%
D16*
%TO.P,C3,1*%
%TO.N,Net-(C2-Pad1)*%
X143760375Y-116505000D03*
D12*
%TO.P,C3,2*%
%TO.N,/AU_PWM*%
X146260375Y-116505000D03*
%TD*%
D16*
%TO.P,U1,1,NC*%
%TO.N,unconnected-(U1-Pad1)*%
X132108000Y-93075000D03*
D13*
%TO.P,U1,2,C1*%
%TO.N,Net-(D1-Pad1)*%
X132108000Y-95615000D03*
%TO.P,U1,3,C2*%
%TO.N,Net-(D1-Pad2)*%
X132108000Y-98155000D03*
%TO.P,U1,4,NC*%
%TO.N,unconnected-(U1-Pad4)*%
X132108000Y-100695000D03*
%TO.P,U1,5,GND*%
%TO.N,GND*%
X139728000Y-100695000D03*
%TO.P,U1,6,VO2*%
%TO.N,Net-(J4-Pad2)*%
X139728000Y-98155000D03*
%TO.P,U1,7,VO1*%
%TO.N,Net-(R20-Pad1)*%
X139728000Y-95615000D03*
%TO.P,U1,8,VCC*%
%TO.N,+5V*%
X139728000Y-93075000D03*
%TD*%
D17*
%TO.P,IN1,*%
%TO.N,*%
X114340300Y-95316260D03*
X114340300Y-85313740D03*
D18*
%TO.P,IN1,1*%
%TO.N,unconnected-(IN1-Pad1)*%
X123535200Y-97813080D03*
%TO.P,IN1,2*%
%TO.N,unconnected-(IN1-Pad2)*%
X123537740Y-90315000D03*
%TO.P,IN1,3*%
%TO.N,unconnected-(IN1-Pad3)*%
X123535200Y-82816920D03*
%TO.P,IN1,4*%
%TO.N,Net-(IN1-Pad4)*%
X126037100Y-95311180D03*
%TO.P,IN1,5*%
%TO.N,Net-(D1-Pad2)*%
X126037100Y-85318820D03*
%TD*%
D12*
%TO.P,R21,1*%
%TO.N,+5V*%
X131958000Y-105615000D03*
D13*
%TO.P,R21,2*%
%TO.N,Net-(J4-Pad2)*%
X139578000Y-105615000D03*
%TD*%
D12*
%TO.P,R19,1*%
%TO.N,Net-(R11-Pad2)*%
X152408000Y-101305000D03*
D13*
%TO.P,R19,2*%
%TO.N,GND*%
X160028000Y-101305000D03*
%TD*%
D12*
%TO.P,R3,1*%
%TO.N,Net-(J1-Pad3)*%
X145100000Y-80000000D03*
D13*
%TO.P,R3,2*%
%TO.N,Net-(R11-Pad1)*%
X145100000Y-87620000D03*
%TD*%
D12*
%TO.P,R20,1*%
%TO.N,Net-(R20-Pad1)*%
X131898000Y-109885000D03*
D13*
%TO.P,R20,2*%
%TO.N,GND*%
X139518000Y-109885000D03*
%TD*%
D12*
%TO.P,R13,1*%
%TO.N,Net-(R13-Pad1)*%
X171000000Y-90500000D03*
D13*
%TO.P,R13,2*%
%TO.N,Net-(R12-Pad1)*%
X171000000Y-98120000D03*
%TD*%
D12*
%TO.P,R12,1*%
%TO.N,Net-(R12-Pad1)*%
X148800000Y-98200000D03*
D13*
%TO.P,R12,2*%
%TO.N,Net-(R11-Pad1)*%
X148800000Y-90580000D03*
%TD*%
D12*
%TO.P,R23,1*%
%TO.N,GND*%
X147248000Y-101005000D03*
D13*
%TO.P,R23,2*%
%TO.N,Net-(C2-Pad1)*%
X147248000Y-108625000D03*
%TD*%
D12*
%TO.P,R7,1*%
%TO.N,/5(\u002A\u002A)*%
X159900000Y-80000000D03*
D13*
%TO.P,R7,2*%
%TO.N,Net-(R15-Pad1)*%
X159900000Y-87620000D03*
%TD*%
D14*
%TO.P,J4,1,Pin_1*%
%TO.N,/0(Rx)*%
X120123000Y-78635000D03*
D15*
%TO.P,J4,2,Pin_2*%
%TO.N,Net-(J4-Pad2)*%
X117583000Y-78635000D03*
%TD*%
D19*
%TO.P,J7,R*%
%TO.N,/AU_DAC*%
X170080000Y-114665000D03*
%TO.P,J7,RN*%
%TO.N,N/C*%
X170080000Y-112165000D03*
D20*
%TO.P,J7,S*%
%TO.N,GND*%
X175080000Y-109665000D03*
D19*
%TO.P,J7,T*%
%TO.N,/AU_DAC*%
X170080000Y-104665000D03*
%TO.P,J7,TN*%
%TO.N,N/C*%
X170080000Y-107165000D03*
%TD*%
D12*
%TO.P,R16,1*%
%TO.N,Net-(R16-Pad1)*%
X159900000Y-90500000D03*
D13*
%TO.P,R16,2*%
%TO.N,Net-(R15-Pad1)*%
X159900000Y-98120000D03*
%TD*%
D17*
%TO.P,OUT1,*%
%TO.N,*%
X114390300Y-105193740D03*
X114390300Y-115196260D03*
D18*
%TO.P,OUT1,1*%
%TO.N,unconnected-(OUT1-Pad1)*%
X123585200Y-117693080D03*
%TO.P,OUT1,2*%
%TO.N,GND*%
X123587740Y-110195000D03*
%TO.P,OUT1,3*%
%TO.N,unconnected-(OUT1-Pad3)*%
X123585200Y-102696920D03*
%TO.P,OUT1,4*%
%TO.N,Net-(OUT1-Pad4)*%
X126087100Y-115191180D03*
%TO.P,OUT1,5*%
%TO.N,Net-(OUT1-Pad5)*%
X126087100Y-105198820D03*
%TD*%
D14*
%TO.P,J2,1,Pin_1*%
%TO.N,/D_PWM*%
X174768000Y-85725000D03*
D15*
%TO.P,J2,2,Pin_2*%
%TO.N,/3(\u002A\u002A)*%
X174768000Y-83185000D03*
%TO.P,J2,3,Pin_3*%
%TO.N,Net-(J2-Pad3)*%
X174768000Y-80645000D03*
%TD*%
D12*
%TO.P,R6,1*%
%TO.N,/4*%
X163600000Y-80000000D03*
D13*
%TO.P,R6,2*%
%TO.N,Net-(R14-Pad1)*%
X163600000Y-87620000D03*
%TD*%
D12*
%TO.P,R17,1*%
%TO.N,/AU_R2R*%
X156200000Y-90500000D03*
D13*
%TO.P,R17,2*%
%TO.N,Net-(R16-Pad1)*%
X156200000Y-98120000D03*
%TD*%
D12*
%TO.P,R14,1*%
%TO.N,Net-(R14-Pad1)*%
X167300000Y-90500000D03*
D13*
%TO.P,R14,2*%
%TO.N,Net-(R13-Pad1)*%
X167300000Y-98120000D03*
%TD*%
D14*
%TO.P,J3,1,Pin_1*%
%TO.N,/1(Tx)*%
X120123000Y-75035000D03*
D15*
%TO.P,J3,2,Pin_2*%
%TO.N,Net-(J3-Pad2)*%
X117583000Y-75035000D03*
%TD*%
D12*
%TO.P,R5,1*%
%TO.N,Net-(J2-Pad3)*%
X167300000Y-80000000D03*
D13*
%TO.P,R5,2*%
%TO.N,Net-(R13-Pad1)*%
X167300000Y-87620000D03*
%TD*%
D12*
%TO.P,R18,1*%
%TO.N,Net-(IN1-Pad4)*%
X132028000Y-88205000D03*
D13*
%TO.P,R18,2*%
%TO.N,Net-(D1-Pad1)*%
X139648000Y-88205000D03*
%TD*%
D14*
%TO.P,J5,1,Pin_1*%
%TO.N,GND*%
X151528000Y-118295000D03*
D15*
%TO.P,J5,2,Pin_2*%
%TO.N,+5V*%
X154068000Y-118295000D03*
%TO.P,J5,3,Pin_3*%
%TO.N,/A4(SDA)*%
X156608000Y-118295000D03*
%TO.P,J5,4,Pin_4*%
%TO.N,/A5(SCL)*%
X159148000Y-118295000D03*
%TO.P,J5,5,Pin_5*%
%TO.N,GND*%
X161688000Y-118295000D03*
%TO.P,J5,6,Pin_6*%
%TO.N,/AU_DAC*%
X164228000Y-118295000D03*
%TD*%
D12*
%TO.P,R4,1*%
%TO.N,/2*%
X171000000Y-80000000D03*
D13*
%TO.P,R4,2*%
%TO.N,Net-(R12-Pad1)*%
X171000000Y-87620000D03*
%TD*%
D16*
%TO.P,D1,1,K*%
%TO.N,Net-(D1-Pad1)*%
X139718000Y-84675000D03*
D13*
%TO.P,D1,2,A*%
%TO.N,Net-(D1-Pad2)*%
X132098000Y-84675000D03*
%TD*%
D12*
%TO.P,R10,1*%
%TO.N,Net-(J3-Pad2)*%
X139498000Y-113945000D03*
D13*
%TO.P,R10,2*%
%TO.N,Net-(OUT1-Pad5)*%
X131878000Y-113945000D03*
%TD*%
D12*
%TO.P,C1,1*%
%TO.N,+5V*%
X143158000Y-93015000D03*
%TO.P,C1,2*%
%TO.N,GND*%
X143158000Y-98015000D03*
%TD*%
%TO.P,R2,1*%
%TO.N,/8*%
X148800000Y-80000000D03*
D13*
%TO.P,R2,2*%
%TO.N,Net-(R11-Pad2)*%
X148800000Y-87620000D03*
%TD*%
D12*
%TO.P,R11,1*%
%TO.N,Net-(R11-Pad1)*%
X152500000Y-98200000D03*
D13*
%TO.P,R11,2*%
%TO.N,Net-(R11-Pad2)*%
X152500000Y-90580000D03*
%TD*%
D12*
%TO.P,R1,1*%
%TO.N,+5V*%
X139518000Y-117875000D03*
D13*
%TO.P,R1,2*%
%TO.N,Net-(OUT1-Pad4)*%
X131898000Y-117875000D03*
%TD*%
D12*
%TO.P,R22,1*%
%TO.N,Net-(C2-Pad1)*%
X143238000Y-108625000D03*
D13*
%TO.P,R22,2*%
%TO.N,/D_PWM*%
X143238000Y-101005000D03*
%TD*%
D14*
%TO.P,J1,1,Pin_1*%
%TO.N,/D_PWM*%
X135143000Y-80105000D03*
D15*
%TO.P,J1,2,Pin_2*%
%TO.N,/9(\u002A\u002A)*%
X137683000Y-80105000D03*
%TO.P,J1,3,Pin_3*%
%TO.N,Net-(J1-Pad3)*%
X140223000Y-80105000D03*
%TD*%
D12*
%TO.P,C2,1*%
%TO.N,Net-(C2-Pad1)*%
X142798000Y-111405000D03*
%TO.P,C2,2*%
%TO.N,GND*%
X147798000Y-111405000D03*
%TD*%
%TO.P,R15,1*%
%TO.N,Net-(R15-Pad1)*%
X163600000Y-90500000D03*
D13*
%TO.P,R15,2*%
%TO.N,Net-(R14-Pad1)*%
X163600000Y-98120000D03*
%TD*%
D21*
%TO.N,/A4(SDA)*%
X160118000Y-121805000D02*
X169938000Y-121805000D01*
X156608000Y-118295000D02*
X160118000Y-121805000D01*
X169938000Y-121805000D02*
X171958000Y-123825000D01*
%TO.N,/A5(SCL)*%
X161283000Y-120430000D02*
X171103000Y-120430000D01*
X171103000Y-120430000D02*
X174498000Y-123825000D01*
X159148000Y-118295000D02*
X161283000Y-120430000D01*
%TO.N,/9(\u002A\u002A)*%
X150114000Y-75565000D02*
X147744000Y-77935000D01*
X147744000Y-77935000D02*
X139853000Y-77935000D01*
X139853000Y-77935000D02*
X137683000Y-80105000D01*
%TO.N,/8*%
X152654000Y-75565000D02*
X152654000Y-76146000D01*
X152654000Y-76146000D02*
X148800000Y-80000000D01*
%TO.N,/7*%
X156718000Y-75782000D02*
X152500000Y-80000000D01*
X156718000Y-75565000D02*
X156718000Y-75782000D01*
%TO.N,/6(\u002A\u002A)*%
X159258000Y-76942000D02*
X156200000Y-80000000D01*
X159258000Y-75565000D02*
X159258000Y-76942000D01*
%TO.N,/5(\u002A\u002A)*%
X161798000Y-78102000D02*
X159900000Y-80000000D01*
X161798000Y-75565000D02*
X161798000Y-78102000D01*
%TO.N,/4*%
X163600000Y-76303000D02*
X164338000Y-75565000D01*
X163600000Y-80000000D02*
X163600000Y-76303000D01*
%TO.N,/3(\u002A\u002A)*%
X167998000Y-83185000D02*
X174768000Y-83185000D01*
X165548000Y-80735000D02*
X167998000Y-83185000D01*
X166878000Y-75565000D02*
X165548000Y-76895000D01*
X165548000Y-76895000D02*
X165548000Y-80735000D01*
%TO.N,/2*%
X169418000Y-78418000D02*
X171000000Y-80000000D01*
X169418000Y-75565000D02*
X169418000Y-78418000D01*
%TO.N,Net-(C2-Pad1)*%
X142798000Y-115542625D02*
X143760375Y-116505000D01*
X142798000Y-111405000D02*
X142798000Y-109065000D01*
X147248000Y-108625000D02*
X143238000Y-108625000D01*
X142798000Y-111405000D02*
X142798000Y-115542625D01*
X142798000Y-109065000D02*
X143238000Y-108625000D01*
%TO.N,Net-(D1-Pad1)*%
X139648000Y-89705000D02*
X139648000Y-88205000D01*
X133738000Y-95615000D02*
X139648000Y-89705000D01*
X132108000Y-95615000D02*
X133738000Y-95615000D01*
X139718000Y-84675000D02*
X139718000Y-88135000D01*
X139718000Y-88135000D02*
X139648000Y-88205000D01*
%TO.N,Net-(D1-Pad2)*%
X132878000Y-90505000D02*
X130568000Y-90505000D01*
X132098000Y-84675000D02*
X126680920Y-84675000D01*
X133398000Y-84675000D02*
X134588000Y-85865000D01*
X130418000Y-98155000D02*
X132108000Y-98155000D01*
X130568000Y-90505000D02*
X129168000Y-91905000D01*
X134588000Y-88795000D02*
X132878000Y-90505000D01*
X126680920Y-84675000D02*
X126037100Y-85318820D01*
X134588000Y-85865000D02*
X134588000Y-88795000D01*
X132098000Y-84675000D02*
X133398000Y-84675000D01*
X129168000Y-91905000D02*
X129168000Y-96905000D01*
X129168000Y-96905000D02*
X130418000Y-98155000D01*
%TO.N,Net-(IN1-Pad4)*%
X126037100Y-91095900D02*
X128928000Y-88205000D01*
X128928000Y-88205000D02*
X132028000Y-88205000D01*
X126037100Y-95311180D02*
X126037100Y-91095900D01*
%TO.N,Net-(J3-Pad2)*%
X118208000Y-83615000D02*
X118208000Y-119845000D01*
X114978000Y-77640000D02*
X114978000Y-80385000D01*
X137638000Y-115835000D02*
X137623000Y-115820000D01*
X137638000Y-118445000D02*
X137638000Y-115835000D01*
X119508000Y-121145000D02*
X134938000Y-121145000D01*
X114978000Y-80385000D02*
X118208000Y-83615000D01*
X137623000Y-115820000D02*
X139498000Y-113945000D01*
X117583000Y-75035000D02*
X114978000Y-77640000D01*
X118208000Y-119845000D02*
X119508000Y-121145000D01*
X134938000Y-121145000D02*
X137638000Y-118445000D01*
%TO.N,/AU_DAC*%
X166958000Y-107145000D02*
X169468000Y-104635000D01*
X169488000Y-114635000D02*
X166958000Y-112105000D01*
X166958000Y-112105000D02*
X166958000Y-107145000D01*
X167233000Y-101385000D02*
X167233000Y-101820000D01*
X167233000Y-101820000D02*
X170048000Y-104635000D01*
X170048000Y-114635000D02*
X169488000Y-114635000D01*
X170048000Y-116705000D02*
X170048000Y-114635000D01*
X168458000Y-118295000D02*
X170048000Y-116705000D01*
X164228000Y-118295000D02*
X168458000Y-118295000D01*
X169468000Y-104635000D02*
X170048000Y-104635000D01*
%TO.N,Net-(OUT1-Pad4)*%
X128810920Y-117875000D02*
X131898000Y-117875000D01*
X126087100Y-115191180D02*
X128790920Y-117895000D01*
X128790920Y-117895000D02*
X128810920Y-117875000D01*
%TO.N,Net-(OUT1-Pad5)*%
X125937100Y-110674100D02*
X125937100Y-105138820D01*
X129208000Y-113945000D02*
X125937100Y-110674100D01*
X131878000Y-113945000D02*
X129208000Y-113945000D01*
%TO.N,Net-(R11-Pad2)*%
X149540000Y-87620000D02*
X152500000Y-90580000D01*
X154268000Y-92348000D02*
X152500000Y-90580000D01*
X154268000Y-99445000D02*
X152408000Y-101305000D01*
X148800000Y-87620000D02*
X149540000Y-87620000D01*
X154268000Y-97115000D02*
X154268000Y-92348000D01*
X154268000Y-97115000D02*
X154268000Y-99445000D01*
%TO.N,Net-(R11-Pad1)*%
X145100000Y-87620000D02*
X145840000Y-87620000D01*
X148800000Y-94500000D02*
X152500000Y-98200000D01*
X148800000Y-90580000D02*
X148800000Y-94500000D01*
X145840000Y-87620000D02*
X148800000Y-90580000D01*
%TO.N,Net-(R12-Pad1)*%
X173358000Y-95762000D02*
X173358000Y-94885000D01*
X171000000Y-98120000D02*
X173358000Y-95762000D01*
X173358000Y-89978000D02*
X173358000Y-94885000D01*
X171000000Y-87620000D02*
X173358000Y-89978000D01*
%TO.N,Net-(R13-Pad1)*%
X167300000Y-87620000D02*
X168120000Y-87620000D01*
X168120000Y-87620000D02*
X171000000Y-90500000D01*
X171000000Y-90500000D02*
X171000000Y-94420000D01*
X171000000Y-94420000D02*
X167300000Y-98120000D01*
%TO.N,Net-(R14-Pad1)*%
X164420000Y-87620000D02*
X167300000Y-90500000D01*
X163600000Y-87620000D02*
X164420000Y-87620000D01*
X167300000Y-94420000D02*
X163600000Y-98120000D01*
X167300000Y-90500000D02*
X167300000Y-94420000D01*
%TO.N,Net-(R15-Pad1)*%
X160720000Y-87620000D02*
X163600000Y-90500000D01*
X163600000Y-94420000D02*
X159900000Y-98120000D01*
X163600000Y-90500000D02*
X163600000Y-94420000D01*
X159900000Y-87620000D02*
X160720000Y-87620000D01*
%TO.N,Net-(R16-Pad1)*%
X159900000Y-94420000D02*
X156200000Y-98120000D01*
X159900000Y-90500000D02*
X159900000Y-94420000D01*
X157020000Y-87620000D02*
X159900000Y-90500000D01*
X156200000Y-87620000D02*
X157020000Y-87620000D01*
%TO.N,Net-(R20-Pad1)*%
X135768000Y-106015000D02*
X135768000Y-98355000D01*
X131898000Y-109885000D02*
X135768000Y-106015000D01*
X135768000Y-98355000D02*
X138508000Y-95615000D01*
X138508000Y-95615000D02*
X139728000Y-95615000D01*
%TO.N,/AU_PWM*%
X149573000Y-116505000D02*
X149098000Y-116505000D01*
X164693000Y-101385000D02*
X149573000Y-116505000D01*
X146260375Y-116505000D02*
X149098000Y-116505000D01*
%TO.N,/AU_R2R*%
X153320000Y-87620000D02*
X156200000Y-90500000D01*
X152500000Y-87620000D02*
X153320000Y-87620000D01*
%TO.N,/D_PWM*%
X142548000Y-85565000D02*
X142548000Y-88805000D01*
X174768000Y-85725000D02*
X142708000Y-85725000D01*
X142548000Y-84625000D02*
X140488000Y-82565000D01*
X140488000Y-82555000D02*
X137593000Y-82555000D01*
X142548000Y-88805000D02*
X146018000Y-92275000D01*
X146018000Y-92275000D02*
X146018000Y-98225000D01*
X140488000Y-82565000D02*
X140488000Y-82555000D01*
X142708000Y-85725000D02*
X142548000Y-85565000D01*
X142548000Y-85565000D02*
X142548000Y-84625000D01*
X137593000Y-82555000D02*
X135143000Y-80105000D01*
X146018000Y-98225000D02*
X143238000Y-101005000D01*
%TO.N,Net-(J1-Pad3)*%
X140223000Y-80105000D02*
X144995000Y-80105000D01*
%TO.N,Net-(J2-Pad3)*%
X167300000Y-80000000D02*
X169065000Y-81765000D01*
X169065000Y-81765000D02*
X173648000Y-81765000D01*
X173648000Y-81765000D02*
X174768000Y-80645000D01*
%TO.N,Net-(J4-Pad2)*%
X121448000Y-119795000D02*
X121448000Y-119725000D01*
X119648000Y-117925000D02*
X119648000Y-80700000D01*
X119648000Y-80700000D02*
X117583000Y-78635000D01*
X139578000Y-105615000D02*
X137518000Y-103555000D01*
X137518000Y-100365000D02*
X139728000Y-98155000D01*
X134078000Y-119795000D02*
X121448000Y-119795000D01*
X135908000Y-117965000D02*
X134078000Y-119795000D01*
X121448000Y-119725000D02*
X119648000Y-117925000D01*
X139578000Y-105615000D02*
X135908000Y-109285000D01*
X137518000Y-103555000D02*
X137518000Y-100365000D01*
X135908000Y-109285000D02*
X135908000Y-117965000D01*
%TD*%
M02*
