%TF.GenerationSoftware,KiCad,Pcbnew,(6.0.5)*%
%TF.CreationDate,2022-11-11T14:55:19+00:00*%
%TF.ProjectId,ArduinoAudioExperimentShield,41726475-696e-46f4-9175-64696f457870,rev?*%
%TF.SameCoordinates,Original*%
%TF.FileFunction,Legend,Top*%
%TF.FilePolarity,Positive*%
%FSLAX46Y46*%
G04 Gerber Fmt 4.6, Leading zero omitted, Abs format (unit mm)*
G04 Created by KiCad (PCBNEW (6.0.5)) date 2022-11-11 14:55:19*
%MOMM*%
%LPD*%
G01*
G04 APERTURE LIST*
%ADD10C,0.100000*%
%ADD11C,0.150000*%
%ADD12C,0.304800*%
%ADD13C,0.120000*%
%ADD14O,1.727200X2.032000*%
%ADD15C,4.064000*%
%ADD16R,4.000000X2.500000*%
%ADD17C,2.499360*%
G04 APERTURE END LIST*
D10*
X149638000Y-120120000D02*
X166028000Y-120120000D01*
X166028000Y-120120000D02*
X166028000Y-103730000D01*
X166028000Y-103730000D02*
X149638000Y-103730000D01*
X149638000Y-103730000D02*
X149638000Y-120120000D01*
X143105142Y-80705000D02*
X142676571Y-81005000D01*
X143105142Y-81219285D02*
X142205142Y-81219285D01*
X142205142Y-80876428D01*
X142248000Y-80790714D01*
X142290857Y-80747857D01*
X142376571Y-80705000D01*
X142505142Y-80705000D01*
X142590857Y-80747857D01*
X142633714Y-80790714D01*
X142676571Y-80876428D01*
X142676571Y-81219285D01*
X142290857Y-80362142D02*
X142248000Y-80319285D01*
X142205142Y-80233571D01*
X142205142Y-80019285D01*
X142248000Y-79933571D01*
X142290857Y-79890714D01*
X142376571Y-79847857D01*
X142462285Y-79847857D01*
X142590857Y-79890714D01*
X143105142Y-80405000D01*
X143105142Y-79847857D01*
X143105142Y-78947857D02*
X142676571Y-79247857D01*
X143105142Y-79462142D02*
X142205142Y-79462142D01*
X142205142Y-79119285D01*
X142248000Y-79033571D01*
X142290857Y-78990714D01*
X142376571Y-78947857D01*
X142505142Y-78947857D01*
X142590857Y-78990714D01*
X142633714Y-79033571D01*
X142676571Y-79119285D01*
X142676571Y-79462142D01*
X133365142Y-81399285D02*
X132465142Y-81399285D01*
X132465142Y-81056428D01*
X132508000Y-80970714D01*
X132550857Y-80927857D01*
X132636571Y-80885000D01*
X132765142Y-80885000D01*
X132850857Y-80927857D01*
X132893714Y-80970714D01*
X132936571Y-81056428D01*
X132936571Y-81399285D01*
X132465142Y-80585000D02*
X133365142Y-80370714D01*
X132722285Y-80199285D01*
X133365142Y-80027857D01*
X132465142Y-79813571D01*
X133365142Y-79470714D02*
X132465142Y-79470714D01*
X133108000Y-79170714D01*
X132465142Y-78870714D01*
X133365142Y-78870714D01*
X173363714Y-88312142D02*
X173363714Y-87412142D01*
X173706571Y-87412142D01*
X173792285Y-87455000D01*
X173835142Y-87497857D01*
X173878000Y-87583571D01*
X173878000Y-87712142D01*
X173835142Y-87797857D01*
X173792285Y-87840714D01*
X173706571Y-87883571D01*
X173363714Y-87883571D01*
X174178000Y-87412142D02*
X174392285Y-88312142D01*
X174563714Y-87669285D01*
X174735142Y-88312142D01*
X174949428Y-87412142D01*
X175292285Y-88312142D02*
X175292285Y-87412142D01*
X175592285Y-88055000D01*
X175892285Y-87412142D01*
X175892285Y-88312142D01*
X171892285Y-101607642D02*
X171678000Y-101607642D01*
X171678000Y-100321928D01*
X171892285Y-100321928D01*
X172235142Y-101307642D02*
X172235142Y-100407642D01*
X172578000Y-100407642D01*
X172663714Y-100450500D01*
X172706571Y-100493357D01*
X172749428Y-100579071D01*
X172749428Y-100707642D01*
X172706571Y-100793357D01*
X172663714Y-100836214D01*
X172578000Y-100879071D01*
X172235142Y-100879071D01*
X173049428Y-100407642D02*
X173263714Y-101307642D01*
X173435142Y-100664785D01*
X173606571Y-101307642D01*
X173820857Y-100407642D01*
X174163714Y-101307642D02*
X174163714Y-100407642D01*
X174463714Y-101050500D01*
X174763714Y-100407642D01*
X174763714Y-101307642D01*
X175106571Y-101607642D02*
X175320857Y-101607642D01*
X175320857Y-100321928D01*
X175106571Y-100321928D01*
X176049428Y-101607642D02*
X175835142Y-101607642D01*
X175835142Y-100321928D01*
X176049428Y-100321928D01*
X176906571Y-101307642D02*
X176606571Y-100879071D01*
X176392285Y-101307642D02*
X176392285Y-100407642D01*
X176735142Y-100407642D01*
X176820857Y-100450500D01*
X176863714Y-100493357D01*
X176906571Y-100579071D01*
X176906571Y-100707642D01*
X176863714Y-100793357D01*
X176820857Y-100836214D01*
X176735142Y-100879071D01*
X176392285Y-100879071D01*
X177249428Y-100493357D02*
X177292285Y-100450500D01*
X177378000Y-100407642D01*
X177592285Y-100407642D01*
X177678000Y-100450500D01*
X177720857Y-100493357D01*
X177763714Y-100579071D01*
X177763714Y-100664785D01*
X177720857Y-100793357D01*
X177206571Y-101307642D01*
X177763714Y-101307642D01*
X178663714Y-101307642D02*
X178363714Y-100879071D01*
X178149428Y-101307642D02*
X178149428Y-100407642D01*
X178492285Y-100407642D01*
X178578000Y-100450500D01*
X178620857Y-100493357D01*
X178663714Y-100579071D01*
X178663714Y-100707642D01*
X178620857Y-100793357D01*
X178578000Y-100836214D01*
X178492285Y-100879071D01*
X178149428Y-100879071D01*
X178963714Y-101607642D02*
X179178000Y-101607642D01*
X179178000Y-100321928D01*
X178963714Y-100321928D01*
X174013714Y-103099500D02*
X173970857Y-103056642D01*
X173885142Y-102928071D01*
X173842285Y-102842357D01*
X173799428Y-102713785D01*
X173756571Y-102499500D01*
X173756571Y-102328071D01*
X173799428Y-102113785D01*
X173842285Y-101985214D01*
X173885142Y-101899500D01*
X173970857Y-101770928D01*
X174013714Y-101728071D01*
X174356571Y-102756642D02*
X174356571Y-101856642D01*
X174570857Y-101856642D01*
X174699428Y-101899500D01*
X174785142Y-101985214D01*
X174828000Y-102070928D01*
X174870857Y-102242357D01*
X174870857Y-102370928D01*
X174828000Y-102542357D01*
X174785142Y-102628071D01*
X174699428Y-102713785D01*
X174570857Y-102756642D01*
X174356571Y-102756642D01*
X175213714Y-102499500D02*
X175642285Y-102499500D01*
X175128000Y-102756642D02*
X175428000Y-101856642D01*
X175728000Y-102756642D01*
X176542285Y-102670928D02*
X176499428Y-102713785D01*
X176370857Y-102756642D01*
X176285142Y-102756642D01*
X176156571Y-102713785D01*
X176070857Y-102628071D01*
X176028000Y-102542357D01*
X175985142Y-102370928D01*
X175985142Y-102242357D01*
X176028000Y-102070928D01*
X176070857Y-101985214D01*
X176156571Y-101899500D01*
X176285142Y-101856642D01*
X176370857Y-101856642D01*
X176499428Y-101899500D01*
X176542285Y-101942357D01*
X176842285Y-103099500D02*
X176885142Y-103056642D01*
X176970857Y-102928071D01*
X177013714Y-102842357D01*
X177056571Y-102713785D01*
X177099428Y-102499500D01*
X177099428Y-102328071D01*
X177056571Y-102113785D01*
X177013714Y-101985214D01*
X176970857Y-101899500D01*
X176885142Y-101770928D01*
X176842285Y-101728071D01*
D11*
X153138000Y-106646666D02*
X153614190Y-106646666D01*
X153042761Y-106932380D02*
X153376095Y-105932380D01*
X153709428Y-106932380D01*
X154042761Y-106932380D02*
X154042761Y-106265714D01*
X154042761Y-106456190D02*
X154090380Y-106360952D01*
X154138000Y-106313333D01*
X154233238Y-106265714D01*
X154328476Y-106265714D01*
X155090380Y-106932380D02*
X155090380Y-105932380D01*
X155090380Y-106884761D02*
X154995142Y-106932380D01*
X154804666Y-106932380D01*
X154709428Y-106884761D01*
X154661809Y-106837142D01*
X154614190Y-106741904D01*
X154614190Y-106456190D01*
X154661809Y-106360952D01*
X154709428Y-106313333D01*
X154804666Y-106265714D01*
X154995142Y-106265714D01*
X155090380Y-106313333D01*
X155995142Y-106265714D02*
X155995142Y-106932380D01*
X155566571Y-106265714D02*
X155566571Y-106789523D01*
X155614190Y-106884761D01*
X155709428Y-106932380D01*
X155852285Y-106932380D01*
X155947523Y-106884761D01*
X155995142Y-106837142D01*
X156471333Y-106932380D02*
X156471333Y-106265714D01*
X156471333Y-105932380D02*
X156423714Y-105980000D01*
X156471333Y-106027619D01*
X156518952Y-105980000D01*
X156471333Y-105932380D01*
X156471333Y-106027619D01*
X156947523Y-106265714D02*
X156947523Y-106932380D01*
X156947523Y-106360952D02*
X156995142Y-106313333D01*
X157090380Y-106265714D01*
X157233238Y-106265714D01*
X157328476Y-106313333D01*
X157376095Y-106408571D01*
X157376095Y-106932380D01*
X157995142Y-106932380D02*
X157899904Y-106884761D01*
X157852285Y-106837142D01*
X157804666Y-106741904D01*
X157804666Y-106456190D01*
X157852285Y-106360952D01*
X157899904Y-106313333D01*
X157995142Y-106265714D01*
X158138000Y-106265714D01*
X158233238Y-106313333D01*
X158280857Y-106360952D01*
X158328476Y-106456190D01*
X158328476Y-106741904D01*
X158280857Y-106837142D01*
X158233238Y-106884761D01*
X158138000Y-106932380D01*
X157995142Y-106932380D01*
X159471333Y-106646666D02*
X159947523Y-106646666D01*
X159376095Y-106932380D02*
X159709428Y-105932380D01*
X160042761Y-106932380D01*
X160804666Y-106265714D02*
X160804666Y-106932380D01*
X160376095Y-106265714D02*
X160376095Y-106789523D01*
X160423714Y-106884761D01*
X160518952Y-106932380D01*
X160661809Y-106932380D01*
X160757047Y-106884761D01*
X160804666Y-106837142D01*
X161709428Y-106932380D02*
X161709428Y-105932380D01*
X161709428Y-106884761D02*
X161614190Y-106932380D01*
X161423714Y-106932380D01*
X161328476Y-106884761D01*
X161280857Y-106837142D01*
X161233238Y-106741904D01*
X161233238Y-106456190D01*
X161280857Y-106360952D01*
X161328476Y-106313333D01*
X161423714Y-106265714D01*
X161614190Y-106265714D01*
X161709428Y-106313333D01*
X162185619Y-106932380D02*
X162185619Y-106265714D01*
X162185619Y-105932380D02*
X162138000Y-105980000D01*
X162185619Y-106027619D01*
X162233238Y-105980000D01*
X162185619Y-105932380D01*
X162185619Y-106027619D01*
X162804666Y-106932380D02*
X162709428Y-106884761D01*
X162661809Y-106837142D01*
X162614190Y-106741904D01*
X162614190Y-106456190D01*
X162661809Y-106360952D01*
X162709428Y-106313333D01*
X162804666Y-106265714D01*
X162947523Y-106265714D01*
X163042761Y-106313333D01*
X163090380Y-106360952D01*
X163138000Y-106456190D01*
X163138000Y-106741904D01*
X163090380Y-106837142D01*
X163042761Y-106884761D01*
X162947523Y-106932380D01*
X162804666Y-106932380D01*
X151566571Y-108018571D02*
X151899904Y-108018571D01*
X152042761Y-108542380D02*
X151566571Y-108542380D01*
X151566571Y-107542380D01*
X152042761Y-107542380D01*
X152376095Y-108542380D02*
X152899904Y-107875714D01*
X152376095Y-107875714D02*
X152899904Y-108542380D01*
X153280857Y-107875714D02*
X153280857Y-108875714D01*
X153280857Y-107923333D02*
X153376095Y-107875714D01*
X153566571Y-107875714D01*
X153661809Y-107923333D01*
X153709428Y-107970952D01*
X153757047Y-108066190D01*
X153757047Y-108351904D01*
X153709428Y-108447142D01*
X153661809Y-108494761D01*
X153566571Y-108542380D01*
X153376095Y-108542380D01*
X153280857Y-108494761D01*
X154566571Y-108494761D02*
X154471333Y-108542380D01*
X154280857Y-108542380D01*
X154185619Y-108494761D01*
X154138000Y-108399523D01*
X154138000Y-108018571D01*
X154185619Y-107923333D01*
X154280857Y-107875714D01*
X154471333Y-107875714D01*
X154566571Y-107923333D01*
X154614190Y-108018571D01*
X154614190Y-108113809D01*
X154138000Y-108209047D01*
X155042761Y-108542380D02*
X155042761Y-107875714D01*
X155042761Y-108066190D02*
X155090380Y-107970952D01*
X155138000Y-107923333D01*
X155233238Y-107875714D01*
X155328476Y-107875714D01*
X155661809Y-108542380D02*
X155661809Y-107875714D01*
X155661809Y-107542380D02*
X155614190Y-107590000D01*
X155661809Y-107637619D01*
X155709428Y-107590000D01*
X155661809Y-107542380D01*
X155661809Y-107637619D01*
X156138000Y-108542380D02*
X156138000Y-107875714D01*
X156138000Y-107970952D02*
X156185619Y-107923333D01*
X156280857Y-107875714D01*
X156423714Y-107875714D01*
X156518952Y-107923333D01*
X156566571Y-108018571D01*
X156566571Y-108542380D01*
X156566571Y-108018571D02*
X156614190Y-107923333D01*
X156709428Y-107875714D01*
X156852285Y-107875714D01*
X156947523Y-107923333D01*
X156995142Y-108018571D01*
X156995142Y-108542380D01*
X157852285Y-108494761D02*
X157757047Y-108542380D01*
X157566571Y-108542380D01*
X157471333Y-108494761D01*
X157423714Y-108399523D01*
X157423714Y-108018571D01*
X157471333Y-107923333D01*
X157566571Y-107875714D01*
X157757047Y-107875714D01*
X157852285Y-107923333D01*
X157899904Y-108018571D01*
X157899904Y-108113809D01*
X157423714Y-108209047D01*
X158328476Y-107875714D02*
X158328476Y-108542380D01*
X158328476Y-107970952D02*
X158376095Y-107923333D01*
X158471333Y-107875714D01*
X158614190Y-107875714D01*
X158709428Y-107923333D01*
X158757047Y-108018571D01*
X158757047Y-108542380D01*
X159090380Y-107875714D02*
X159471333Y-107875714D01*
X159233238Y-107542380D02*
X159233238Y-108399523D01*
X159280857Y-108494761D01*
X159376095Y-108542380D01*
X159471333Y-108542380D01*
X160518952Y-108494761D02*
X160661809Y-108542380D01*
X160899904Y-108542380D01*
X160995142Y-108494761D01*
X161042761Y-108447142D01*
X161090380Y-108351904D01*
X161090380Y-108256666D01*
X161042761Y-108161428D01*
X160995142Y-108113809D01*
X160899904Y-108066190D01*
X160709428Y-108018571D01*
X160614190Y-107970952D01*
X160566571Y-107923333D01*
X160518952Y-107828095D01*
X160518952Y-107732857D01*
X160566571Y-107637619D01*
X160614190Y-107590000D01*
X160709428Y-107542380D01*
X160947523Y-107542380D01*
X161090380Y-107590000D01*
X161518952Y-108542380D02*
X161518952Y-107542380D01*
X161947523Y-108542380D02*
X161947523Y-108018571D01*
X161899904Y-107923333D01*
X161804666Y-107875714D01*
X161661809Y-107875714D01*
X161566571Y-107923333D01*
X161518952Y-107970952D01*
X162423714Y-108542380D02*
X162423714Y-107875714D01*
X162423714Y-107542380D02*
X162376095Y-107590000D01*
X162423714Y-107637619D01*
X162471333Y-107590000D01*
X162423714Y-107542380D01*
X162423714Y-107637619D01*
X163280857Y-108494761D02*
X163185619Y-108542380D01*
X162995142Y-108542380D01*
X162899904Y-108494761D01*
X162852285Y-108399523D01*
X162852285Y-108018571D01*
X162899904Y-107923333D01*
X162995142Y-107875714D01*
X163185619Y-107875714D01*
X163280857Y-107923333D01*
X163328476Y-108018571D01*
X163328476Y-108113809D01*
X162852285Y-108209047D01*
X163899904Y-108542380D02*
X163804666Y-108494761D01*
X163757047Y-108399523D01*
X163757047Y-107542380D01*
X164709428Y-108542380D02*
X164709428Y-107542380D01*
X164709428Y-108494761D02*
X164614190Y-108542380D01*
X164423714Y-108542380D01*
X164328476Y-108494761D01*
X164280857Y-108447142D01*
X164233238Y-108351904D01*
X164233238Y-108066190D01*
X164280857Y-107970952D01*
X164328476Y-107923333D01*
X164423714Y-107875714D01*
X164614190Y-107875714D01*
X164709428Y-107923333D01*
X152947523Y-110152380D02*
X152947523Y-109152380D01*
X152947523Y-110104761D02*
X152852285Y-110152380D01*
X152661809Y-110152380D01*
X152566571Y-110104761D01*
X152518952Y-110057142D01*
X152471333Y-109961904D01*
X152471333Y-109676190D01*
X152518952Y-109580952D01*
X152566571Y-109533333D01*
X152661809Y-109485714D01*
X152852285Y-109485714D01*
X152947523Y-109533333D01*
X153423714Y-110152380D02*
X153423714Y-109485714D01*
X153423714Y-109152380D02*
X153376095Y-109200000D01*
X153423714Y-109247619D01*
X153471333Y-109200000D01*
X153423714Y-109152380D01*
X153423714Y-109247619D01*
X153804666Y-109485714D02*
X154042761Y-110152380D01*
X154280857Y-109485714D02*
X154042761Y-110152380D01*
X153947523Y-110390476D01*
X153899904Y-110438095D01*
X153804666Y-110485714D01*
X155042761Y-110104761D02*
X154947523Y-110152380D01*
X154757047Y-110152380D01*
X154661809Y-110104761D01*
X154614190Y-110009523D01*
X154614190Y-109628571D01*
X154661809Y-109533333D01*
X154757047Y-109485714D01*
X154947523Y-109485714D01*
X155042761Y-109533333D01*
X155090380Y-109628571D01*
X155090380Y-109723809D01*
X154614190Y-109819047D01*
X155661809Y-110152380D02*
X155566571Y-110104761D01*
X155518952Y-110009523D01*
X155518952Y-109152380D01*
X156423714Y-110104761D02*
X156328476Y-110152380D01*
X156138000Y-110152380D01*
X156042761Y-110104761D01*
X155995142Y-110009523D01*
X155995142Y-109628571D01*
X156042761Y-109533333D01*
X156138000Y-109485714D01*
X156328476Y-109485714D01*
X156423714Y-109533333D01*
X156471333Y-109628571D01*
X156471333Y-109723809D01*
X155995142Y-109819047D01*
X157328476Y-110104761D02*
X157233238Y-110152380D01*
X157042761Y-110152380D01*
X156947523Y-110104761D01*
X156899904Y-110057142D01*
X156852285Y-109961904D01*
X156852285Y-109676190D01*
X156899904Y-109580952D01*
X156947523Y-109533333D01*
X157042761Y-109485714D01*
X157233238Y-109485714D01*
X157328476Y-109533333D01*
X157614190Y-109485714D02*
X157995142Y-109485714D01*
X157757047Y-109152380D02*
X157757047Y-110009523D01*
X157804666Y-110104761D01*
X157899904Y-110152380D01*
X157995142Y-110152380D01*
X158328476Y-110152380D02*
X158328476Y-109485714D01*
X158328476Y-109676190D02*
X158376095Y-109580952D01*
X158423714Y-109533333D01*
X158518952Y-109485714D01*
X158614190Y-109485714D01*
X159090380Y-110152380D02*
X158995142Y-110104761D01*
X158947523Y-110057142D01*
X158899904Y-109961904D01*
X158899904Y-109676190D01*
X158947523Y-109580952D01*
X158995142Y-109533333D01*
X159090380Y-109485714D01*
X159233238Y-109485714D01*
X159328476Y-109533333D01*
X159376095Y-109580952D01*
X159423714Y-109676190D01*
X159423714Y-109961904D01*
X159376095Y-110057142D01*
X159328476Y-110104761D01*
X159233238Y-110152380D01*
X159090380Y-110152380D01*
X159852285Y-110152380D02*
X159852285Y-109485714D01*
X159852285Y-109580952D02*
X159899904Y-109533333D01*
X159995142Y-109485714D01*
X160138000Y-109485714D01*
X160233238Y-109533333D01*
X160280857Y-109628571D01*
X160280857Y-110152380D01*
X160280857Y-109628571D02*
X160328476Y-109533333D01*
X160423714Y-109485714D01*
X160566571Y-109485714D01*
X160661809Y-109533333D01*
X160709428Y-109628571D01*
X160709428Y-110152380D01*
X161614190Y-109485714D02*
X161614190Y-110152380D01*
X161185619Y-109485714D02*
X161185619Y-110009523D01*
X161233238Y-110104761D01*
X161328476Y-110152380D01*
X161471333Y-110152380D01*
X161566571Y-110104761D01*
X161614190Y-110057142D01*
X162042761Y-110104761D02*
X162138000Y-110152380D01*
X162328476Y-110152380D01*
X162423714Y-110104761D01*
X162471333Y-110009523D01*
X162471333Y-109961904D01*
X162423714Y-109866666D01*
X162328476Y-109819047D01*
X162185619Y-109819047D01*
X162090380Y-109771428D01*
X162042761Y-109676190D01*
X162042761Y-109628571D01*
X162090380Y-109533333D01*
X162185619Y-109485714D01*
X162328476Y-109485714D01*
X162423714Y-109533333D01*
X162899904Y-110152380D02*
X162899904Y-109485714D01*
X162899904Y-109152380D02*
X162852285Y-109200000D01*
X162899904Y-109247619D01*
X162947523Y-109200000D01*
X162899904Y-109152380D01*
X162899904Y-109247619D01*
X163804666Y-110104761D02*
X163709428Y-110152380D01*
X163518952Y-110152380D01*
X163423714Y-110104761D01*
X163376095Y-110057142D01*
X163328476Y-109961904D01*
X163328476Y-109676190D01*
X163376095Y-109580952D01*
X163423714Y-109533333D01*
X163518952Y-109485714D01*
X163709428Y-109485714D01*
X163804666Y-109533333D01*
X154423714Y-111095714D02*
X154661809Y-111762380D01*
X154899904Y-111095714D01*
X155471333Y-110762380D02*
X155566571Y-110762380D01*
X155661809Y-110810000D01*
X155709428Y-110857619D01*
X155757047Y-110952857D01*
X155804666Y-111143333D01*
X155804666Y-111381428D01*
X155757047Y-111571904D01*
X155709428Y-111667142D01*
X155661809Y-111714761D01*
X155566571Y-111762380D01*
X155471333Y-111762380D01*
X155376095Y-111714761D01*
X155328476Y-111667142D01*
X155280857Y-111571904D01*
X155233238Y-111381428D01*
X155233238Y-111143333D01*
X155280857Y-110952857D01*
X155328476Y-110857619D01*
X155376095Y-110810000D01*
X155471333Y-110762380D01*
X156233238Y-111667142D02*
X156280857Y-111714761D01*
X156233238Y-111762380D01*
X156185619Y-111714761D01*
X156233238Y-111667142D01*
X156233238Y-111762380D01*
X157233238Y-111762380D02*
X156661809Y-111762380D01*
X156947523Y-111762380D02*
X156947523Y-110762380D01*
X156852285Y-110905238D01*
X156757047Y-111000476D01*
X156661809Y-111048095D01*
X158376095Y-110857619D02*
X158423714Y-110810000D01*
X158518952Y-110762380D01*
X158757047Y-110762380D01*
X158852285Y-110810000D01*
X158899904Y-110857619D01*
X158947523Y-110952857D01*
X158947523Y-111048095D01*
X158899904Y-111190952D01*
X158328476Y-111762380D01*
X158947523Y-111762380D01*
X159566571Y-110762380D02*
X159661809Y-110762380D01*
X159757047Y-110810000D01*
X159804666Y-110857619D01*
X159852285Y-110952857D01*
X159899904Y-111143333D01*
X159899904Y-111381428D01*
X159852285Y-111571904D01*
X159804666Y-111667142D01*
X159757047Y-111714761D01*
X159661809Y-111762380D01*
X159566571Y-111762380D01*
X159471333Y-111714761D01*
X159423714Y-111667142D01*
X159376095Y-111571904D01*
X159328476Y-111381428D01*
X159328476Y-111143333D01*
X159376095Y-110952857D01*
X159423714Y-110857619D01*
X159471333Y-110810000D01*
X159566571Y-110762380D01*
X160280857Y-110857619D02*
X160328476Y-110810000D01*
X160423714Y-110762380D01*
X160661809Y-110762380D01*
X160757047Y-110810000D01*
X160804666Y-110857619D01*
X160852285Y-110952857D01*
X160852285Y-111048095D01*
X160804666Y-111190952D01*
X160233238Y-111762380D01*
X160852285Y-111762380D01*
X161233238Y-110857619D02*
X161280857Y-110810000D01*
X161376095Y-110762380D01*
X161614190Y-110762380D01*
X161709428Y-110810000D01*
X161757047Y-110857619D01*
X161804666Y-110952857D01*
X161804666Y-111048095D01*
X161757047Y-111190952D01*
X161185619Y-111762380D01*
X161804666Y-111762380D01*
X139390380Y-120999285D02*
X139390380Y-121570714D01*
X139390380Y-121285000D02*
X138390380Y-121285000D01*
X138533238Y-121380238D01*
X138628476Y-121475476D01*
X138676095Y-121570714D01*
D10*
X174138000Y-78742142D02*
X173838000Y-78313571D01*
X173623714Y-78742142D02*
X173623714Y-77842142D01*
X173966571Y-77842142D01*
X174052285Y-77885000D01*
X174095142Y-77927857D01*
X174138000Y-78013571D01*
X174138000Y-78142142D01*
X174095142Y-78227857D01*
X174052285Y-78270714D01*
X173966571Y-78313571D01*
X173623714Y-78313571D01*
X174480857Y-77927857D02*
X174523714Y-77885000D01*
X174609428Y-77842142D01*
X174823714Y-77842142D01*
X174909428Y-77885000D01*
X174952285Y-77927857D01*
X174995142Y-78013571D01*
X174995142Y-78099285D01*
X174952285Y-78227857D01*
X174438000Y-78742142D01*
X174995142Y-78742142D01*
X175895142Y-78742142D02*
X175595142Y-78313571D01*
X175380857Y-78742142D02*
X175380857Y-77842142D01*
X175723714Y-77842142D01*
X175809428Y-77885000D01*
X175852285Y-77927857D01*
X175895142Y-78013571D01*
X175895142Y-78142142D01*
X175852285Y-78227857D01*
X175809428Y-78270714D01*
X175723714Y-78313571D01*
X175380857Y-78313571D01*
D11*
%TO.C,R8*%
X155655619Y-85116904D02*
X155608000Y-85069285D01*
X155560380Y-84974047D01*
X155560380Y-84735952D01*
X155608000Y-84640714D01*
X155655619Y-84593095D01*
X155750857Y-84545476D01*
X155846095Y-84545476D01*
X155988952Y-84593095D01*
X156560380Y-85164523D01*
X156560380Y-84545476D01*
X155560380Y-83926428D02*
X155560380Y-83831190D01*
X155608000Y-83735952D01*
X155655619Y-83688333D01*
X155750857Y-83640714D01*
X155941333Y-83593095D01*
X156179428Y-83593095D01*
X156369904Y-83640714D01*
X156465142Y-83688333D01*
X156512761Y-83735952D01*
X156560380Y-83831190D01*
X156560380Y-83926428D01*
X156512761Y-84021666D01*
X156465142Y-84069285D01*
X156369904Y-84116904D01*
X156179428Y-84164523D01*
X155941333Y-84164523D01*
X155750857Y-84116904D01*
X155655619Y-84069285D01*
X155608000Y-84021666D01*
X155560380Y-83926428D01*
X156560380Y-83164523D02*
X155560380Y-83164523D01*
X156560380Y-82593095D02*
X155988952Y-83021666D01*
X155560380Y-82593095D02*
X156131809Y-83164523D01*
%TO.C,R9*%
X151855619Y-85006904D02*
X151808000Y-84959285D01*
X151760380Y-84864047D01*
X151760380Y-84625952D01*
X151808000Y-84530714D01*
X151855619Y-84483095D01*
X151950857Y-84435476D01*
X152046095Y-84435476D01*
X152188952Y-84483095D01*
X152760380Y-85054523D01*
X152760380Y-84435476D01*
X151760380Y-83816428D02*
X151760380Y-83721190D01*
X151808000Y-83625952D01*
X151855619Y-83578333D01*
X151950857Y-83530714D01*
X152141333Y-83483095D01*
X152379428Y-83483095D01*
X152569904Y-83530714D01*
X152665142Y-83578333D01*
X152712761Y-83625952D01*
X152760380Y-83721190D01*
X152760380Y-83816428D01*
X152712761Y-83911666D01*
X152665142Y-83959285D01*
X152569904Y-84006904D01*
X152379428Y-84054523D01*
X152141333Y-84054523D01*
X151950857Y-84006904D01*
X151855619Y-83959285D01*
X151808000Y-83911666D01*
X151760380Y-83816428D01*
X152760380Y-83054523D02*
X151760380Y-83054523D01*
X152760380Y-82483095D02*
X152188952Y-82911666D01*
X151760380Y-82483095D02*
X152331809Y-83054523D01*
%TO.C,J6*%
X172883714Y-98847380D02*
X173074190Y-98847380D01*
X173169428Y-98895000D01*
X173264666Y-98990238D01*
X173312285Y-99180714D01*
X173312285Y-99514047D01*
X173264666Y-99704523D01*
X173169428Y-99799761D01*
X173074190Y-99847380D01*
X172883714Y-99847380D01*
X172788476Y-99799761D01*
X172693238Y-99704523D01*
X172645619Y-99514047D01*
X172645619Y-99180714D01*
X172693238Y-98990238D01*
X172788476Y-98895000D01*
X172883714Y-98847380D01*
X173740857Y-98847380D02*
X173740857Y-99656904D01*
X173788476Y-99752142D01*
X173836095Y-99799761D01*
X173931333Y-99847380D01*
X174121809Y-99847380D01*
X174217047Y-99799761D01*
X174264666Y-99752142D01*
X174312285Y-99656904D01*
X174312285Y-98847380D01*
X174645619Y-98847380D02*
X175217047Y-98847380D01*
X174931333Y-99847380D02*
X174931333Y-98847380D01*
X176264666Y-99799761D02*
X176407523Y-99847380D01*
X176645619Y-99847380D01*
X176740857Y-99799761D01*
X176788476Y-99752142D01*
X176836095Y-99656904D01*
X176836095Y-99561666D01*
X176788476Y-99466428D01*
X176740857Y-99418809D01*
X176645619Y-99371190D01*
X176455142Y-99323571D01*
X176359904Y-99275952D01*
X176312285Y-99228333D01*
X176264666Y-99133095D01*
X176264666Y-99037857D01*
X176312285Y-98942619D01*
X176359904Y-98895000D01*
X176455142Y-98847380D01*
X176693238Y-98847380D01*
X176836095Y-98895000D01*
X177264666Y-99323571D02*
X177598000Y-99323571D01*
X177740857Y-99847380D02*
X177264666Y-99847380D01*
X177264666Y-98847380D01*
X177740857Y-98847380D01*
X178645619Y-99847380D02*
X178169428Y-99847380D01*
X178169428Y-98847380D01*
%TO.C,C3*%
X143938946Y-121207380D02*
X143367517Y-121207380D01*
X143653232Y-121207380D02*
X143653232Y-120207380D01*
X143557994Y-120350238D01*
X143462755Y-120445476D01*
X143367517Y-120493095D01*
X144557994Y-120207380D02*
X144653232Y-120207380D01*
X144748470Y-120255000D01*
X144796089Y-120302619D01*
X144843708Y-120397857D01*
X144891327Y-120588333D01*
X144891327Y-120826428D01*
X144843708Y-121016904D01*
X144796089Y-121112142D01*
X144748470Y-121159761D01*
X144653232Y-121207380D01*
X144557994Y-121207380D01*
X144462755Y-121159761D01*
X144415136Y-121112142D01*
X144367517Y-121016904D01*
X144319898Y-120826428D01*
X144319898Y-120588333D01*
X144367517Y-120397857D01*
X144415136Y-120302619D01*
X144462755Y-120255000D01*
X144557994Y-120207380D01*
X145748470Y-120540714D02*
X145748470Y-121207380D01*
X145319898Y-120540714D02*
X145319898Y-121064523D01*
X145367517Y-121159761D01*
X145462755Y-121207380D01*
X145605613Y-121207380D01*
X145700851Y-121159761D01*
X145748470Y-121112142D01*
X146557994Y-120683571D02*
X146224660Y-120683571D01*
X146224660Y-121207380D02*
X146224660Y-120207380D01*
X146700851Y-120207380D01*
%TO.C,U1*%
X135360380Y-98766904D02*
X135360380Y-98957380D01*
X135408000Y-99052619D01*
X135455619Y-99100238D01*
X135598476Y-99195476D01*
X135788952Y-99243095D01*
X136169904Y-99243095D01*
X136265142Y-99195476D01*
X136312761Y-99147857D01*
X136360380Y-99052619D01*
X136360380Y-98862142D01*
X136312761Y-98766904D01*
X136265142Y-98719285D01*
X136169904Y-98671666D01*
X135931809Y-98671666D01*
X135836571Y-98719285D01*
X135788952Y-98766904D01*
X135741333Y-98862142D01*
X135741333Y-99052619D01*
X135788952Y-99147857D01*
X135836571Y-99195476D01*
X135931809Y-99243095D01*
X136360380Y-98243095D02*
X135360380Y-98243095D01*
X136360380Y-97671666D01*
X135360380Y-97671666D01*
X136360380Y-96671666D02*
X136360380Y-97243095D01*
X136360380Y-96957380D02*
X135360380Y-96957380D01*
X135503238Y-97052619D01*
X135598476Y-97147857D01*
X135646095Y-97243095D01*
X135360380Y-96338333D02*
X135360380Y-95719285D01*
X135741333Y-96052619D01*
X135741333Y-95909761D01*
X135788952Y-95814523D01*
X135836571Y-95766904D01*
X135931809Y-95719285D01*
X136169904Y-95719285D01*
X136265142Y-95766904D01*
X136312761Y-95814523D01*
X136360380Y-95909761D01*
X136360380Y-96195476D01*
X136312761Y-96290714D01*
X136265142Y-96338333D01*
X135788952Y-95147857D02*
X135741333Y-95243095D01*
X135693714Y-95290714D01*
X135598476Y-95338333D01*
X135550857Y-95338333D01*
X135455619Y-95290714D01*
X135408000Y-95243095D01*
X135360380Y-95147857D01*
X135360380Y-94957380D01*
X135408000Y-94862142D01*
X135455619Y-94814523D01*
X135550857Y-94766904D01*
X135598476Y-94766904D01*
X135693714Y-94814523D01*
X135741333Y-94862142D01*
X135788952Y-94957380D01*
X135788952Y-95147857D01*
X135836571Y-95243095D01*
X135884190Y-95290714D01*
X135979428Y-95338333D01*
X136169904Y-95338333D01*
X136265142Y-95290714D01*
X136312761Y-95243095D01*
X136360380Y-95147857D01*
X136360380Y-94957380D01*
X136312761Y-94862142D01*
X136265142Y-94814523D01*
X136169904Y-94766904D01*
X135979428Y-94766904D01*
X135884190Y-94814523D01*
X135836571Y-94862142D01*
X135788952Y-94957380D01*
D12*
%TO.C,IN1*%
X123879714Y-80234428D02*
X123879714Y-78710428D01*
X124605428Y-80234428D02*
X124605428Y-78710428D01*
X125476285Y-80234428D01*
X125476285Y-78710428D01*
D11*
%TO.C,R21*%
X134629904Y-105192619D02*
X134677523Y-105145000D01*
X134772761Y-105097380D01*
X135010857Y-105097380D01*
X135106095Y-105145000D01*
X135153714Y-105192619D01*
X135201333Y-105287857D01*
X135201333Y-105383095D01*
X135153714Y-105525952D01*
X134582285Y-106097380D01*
X135201333Y-106097380D01*
X135582285Y-105192619D02*
X135629904Y-105145000D01*
X135725142Y-105097380D01*
X135963238Y-105097380D01*
X136058476Y-105145000D01*
X136106095Y-105192619D01*
X136153714Y-105287857D01*
X136153714Y-105383095D01*
X136106095Y-105525952D01*
X135534666Y-106097380D01*
X136153714Y-106097380D01*
X136772761Y-105097380D02*
X136868000Y-105097380D01*
X136963238Y-105145000D01*
X137010857Y-105192619D01*
X137058476Y-105287857D01*
X137106095Y-105478333D01*
X137106095Y-105716428D01*
X137058476Y-105906904D01*
X137010857Y-106002142D01*
X136963238Y-106049761D01*
X136868000Y-106097380D01*
X136772761Y-106097380D01*
X136677523Y-106049761D01*
X136629904Y-106002142D01*
X136582285Y-105906904D01*
X136534666Y-105716428D01*
X136534666Y-105478333D01*
X136582285Y-105287857D01*
X136629904Y-105192619D01*
X136677523Y-105145000D01*
X136772761Y-105097380D01*
%TO.C,R19*%
X155146095Y-100772619D02*
X155193714Y-100725000D01*
X155288952Y-100677380D01*
X155527047Y-100677380D01*
X155622285Y-100725000D01*
X155669904Y-100772619D01*
X155717523Y-100867857D01*
X155717523Y-100963095D01*
X155669904Y-101105952D01*
X155098476Y-101677380D01*
X155717523Y-101677380D01*
X156336571Y-100677380D02*
X156431809Y-100677380D01*
X156527047Y-100725000D01*
X156574666Y-100772619D01*
X156622285Y-100867857D01*
X156669904Y-101058333D01*
X156669904Y-101296428D01*
X156622285Y-101486904D01*
X156574666Y-101582142D01*
X156527047Y-101629761D01*
X156431809Y-101677380D01*
X156336571Y-101677380D01*
X156241333Y-101629761D01*
X156193714Y-101582142D01*
X156146095Y-101486904D01*
X156098476Y-101296428D01*
X156098476Y-101058333D01*
X156146095Y-100867857D01*
X156193714Y-100772619D01*
X156241333Y-100725000D01*
X156336571Y-100677380D01*
X157098476Y-101677380D02*
X157098476Y-100677380D01*
X157669904Y-101677380D02*
X157241333Y-101105952D01*
X157669904Y-100677380D02*
X157098476Y-101248809D01*
%TO.C,R3*%
X144495619Y-84946904D02*
X144448000Y-84899285D01*
X144400380Y-84804047D01*
X144400380Y-84565952D01*
X144448000Y-84470714D01*
X144495619Y-84423095D01*
X144590857Y-84375476D01*
X144686095Y-84375476D01*
X144828952Y-84423095D01*
X145400380Y-84994523D01*
X145400380Y-84375476D01*
X144400380Y-83756428D02*
X144400380Y-83661190D01*
X144448000Y-83565952D01*
X144495619Y-83518333D01*
X144590857Y-83470714D01*
X144781333Y-83423095D01*
X145019428Y-83423095D01*
X145209904Y-83470714D01*
X145305142Y-83518333D01*
X145352761Y-83565952D01*
X145400380Y-83661190D01*
X145400380Y-83756428D01*
X145352761Y-83851666D01*
X145305142Y-83899285D01*
X145209904Y-83946904D01*
X145019428Y-83994523D01*
X144781333Y-83994523D01*
X144590857Y-83946904D01*
X144495619Y-83899285D01*
X144448000Y-83851666D01*
X144400380Y-83756428D01*
X145400380Y-82994523D02*
X144400380Y-82994523D01*
X145400380Y-82423095D02*
X144828952Y-82851666D01*
X144400380Y-82423095D02*
X144971809Y-82994523D01*
%TO.C,R20*%
X135212285Y-109720714D02*
X135212285Y-110387380D01*
X134974190Y-109339761D02*
X134736095Y-110054047D01*
X135355142Y-110054047D01*
X135736095Y-110387380D02*
X135736095Y-109387380D01*
X136307523Y-110387380D02*
X135878952Y-109815952D01*
X136307523Y-109387380D02*
X135736095Y-109958809D01*
X136640857Y-109387380D02*
X137307523Y-109387380D01*
X136878952Y-110387380D01*
%TO.C,R13*%
X171350380Y-94975476D02*
X171350380Y-95546904D01*
X171350380Y-95261190D02*
X170350380Y-95261190D01*
X170493238Y-95356428D01*
X170588476Y-95451666D01*
X170636095Y-95546904D01*
X170350380Y-94356428D02*
X170350380Y-94261190D01*
X170398000Y-94165952D01*
X170445619Y-94118333D01*
X170540857Y-94070714D01*
X170731333Y-94023095D01*
X170969428Y-94023095D01*
X171159904Y-94070714D01*
X171255142Y-94118333D01*
X171302761Y-94165952D01*
X171350380Y-94261190D01*
X171350380Y-94356428D01*
X171302761Y-94451666D01*
X171255142Y-94499285D01*
X171159904Y-94546904D01*
X170969428Y-94594523D01*
X170731333Y-94594523D01*
X170540857Y-94546904D01*
X170445619Y-94499285D01*
X170398000Y-94451666D01*
X170350380Y-94356428D01*
X171350380Y-93594523D02*
X170350380Y-93594523D01*
X171350380Y-93023095D02*
X170778952Y-93451666D01*
X170350380Y-93023095D02*
X170921809Y-93594523D01*
%TO.C,R12*%
X149300380Y-95245476D02*
X149300380Y-95816904D01*
X149300380Y-95531190D02*
X148300380Y-95531190D01*
X148443238Y-95626428D01*
X148538476Y-95721666D01*
X148586095Y-95816904D01*
X148300380Y-94626428D02*
X148300380Y-94531190D01*
X148348000Y-94435952D01*
X148395619Y-94388333D01*
X148490857Y-94340714D01*
X148681333Y-94293095D01*
X148919428Y-94293095D01*
X149109904Y-94340714D01*
X149205142Y-94388333D01*
X149252761Y-94435952D01*
X149300380Y-94531190D01*
X149300380Y-94626428D01*
X149252761Y-94721666D01*
X149205142Y-94769285D01*
X149109904Y-94816904D01*
X148919428Y-94864523D01*
X148681333Y-94864523D01*
X148490857Y-94816904D01*
X148395619Y-94769285D01*
X148348000Y-94721666D01*
X148300380Y-94626428D01*
X149300380Y-93864523D02*
X148300380Y-93864523D01*
X149300380Y-93293095D02*
X148728952Y-93721666D01*
X148300380Y-93293095D02*
X148871809Y-93864523D01*
%TO.C,R23*%
X146600380Y-105664523D02*
X146600380Y-104997857D01*
X147600380Y-105426428D01*
X146600380Y-104140714D02*
X146600380Y-104616904D01*
X147076571Y-104664523D01*
X147028952Y-104616904D01*
X146981333Y-104521666D01*
X146981333Y-104283571D01*
X147028952Y-104188333D01*
X147076571Y-104140714D01*
X147171809Y-104093095D01*
X147409904Y-104093095D01*
X147505142Y-104140714D01*
X147552761Y-104188333D01*
X147600380Y-104283571D01*
X147600380Y-104521666D01*
X147552761Y-104616904D01*
X147505142Y-104664523D01*
%TO.C,R7*%
X159335619Y-85176904D02*
X159288000Y-85129285D01*
X159240380Y-85034047D01*
X159240380Y-84795952D01*
X159288000Y-84700714D01*
X159335619Y-84653095D01*
X159430857Y-84605476D01*
X159526095Y-84605476D01*
X159668952Y-84653095D01*
X160240380Y-85224523D01*
X160240380Y-84605476D01*
X159240380Y-83986428D02*
X159240380Y-83891190D01*
X159288000Y-83795952D01*
X159335619Y-83748333D01*
X159430857Y-83700714D01*
X159621333Y-83653095D01*
X159859428Y-83653095D01*
X160049904Y-83700714D01*
X160145142Y-83748333D01*
X160192761Y-83795952D01*
X160240380Y-83891190D01*
X160240380Y-83986428D01*
X160192761Y-84081666D01*
X160145142Y-84129285D01*
X160049904Y-84176904D01*
X159859428Y-84224523D01*
X159621333Y-84224523D01*
X159430857Y-84176904D01*
X159335619Y-84129285D01*
X159288000Y-84081666D01*
X159240380Y-83986428D01*
X160240380Y-83224523D02*
X159240380Y-83224523D01*
X160240380Y-82653095D02*
X159668952Y-83081666D01*
X159240380Y-82653095D02*
X159811809Y-83224523D01*
%TO.C,J4*%
X114711333Y-79207380D02*
X114378000Y-78731190D01*
X114139904Y-79207380D02*
X114139904Y-78207380D01*
X114520857Y-78207380D01*
X114616095Y-78255000D01*
X114663714Y-78302619D01*
X114711333Y-78397857D01*
X114711333Y-78540714D01*
X114663714Y-78635952D01*
X114616095Y-78683571D01*
X114520857Y-78731190D01*
X114139904Y-78731190D01*
X115044666Y-78207380D02*
X115711333Y-79207380D01*
X115711333Y-78207380D02*
X115044666Y-79207380D01*
%TO.C,J7*%
X167036666Y-117311666D02*
X167512857Y-117311666D01*
X166941428Y-117597380D02*
X167274761Y-116597380D01*
X167608095Y-117597380D01*
X167941428Y-116597380D02*
X167941428Y-117406904D01*
X167989047Y-117502142D01*
X168036666Y-117549761D01*
X168131904Y-117597380D01*
X168322380Y-117597380D01*
X168417619Y-117549761D01*
X168465238Y-117502142D01*
X168512857Y-117406904D01*
X168512857Y-116597380D01*
X168989047Y-117597380D02*
X168989047Y-116597380D01*
X169227142Y-116597380D01*
X169370000Y-116645000D01*
X169465238Y-116740238D01*
X169512857Y-116835476D01*
X169560476Y-117025952D01*
X169560476Y-117168809D01*
X169512857Y-117359285D01*
X169465238Y-117454523D01*
X169370000Y-117549761D01*
X169227142Y-117597380D01*
X168989047Y-117597380D01*
X169989047Y-117597380D02*
X169989047Y-116597380D01*
X170655714Y-116597380D02*
X170846190Y-116597380D01*
X170941428Y-116645000D01*
X171036666Y-116740238D01*
X171084285Y-116930714D01*
X171084285Y-117264047D01*
X171036666Y-117454523D01*
X170941428Y-117549761D01*
X170846190Y-117597380D01*
X170655714Y-117597380D01*
X170560476Y-117549761D01*
X170465238Y-117454523D01*
X170417619Y-117264047D01*
X170417619Y-116930714D01*
X170465238Y-116740238D01*
X170560476Y-116645000D01*
X170655714Y-116597380D01*
X172465238Y-116597380D02*
X172655714Y-116597380D01*
X172750952Y-116645000D01*
X172846190Y-116740238D01*
X172893809Y-116930714D01*
X172893809Y-117264047D01*
X172846190Y-117454523D01*
X172750952Y-117549761D01*
X172655714Y-117597380D01*
X172465238Y-117597380D01*
X172370000Y-117549761D01*
X172274761Y-117454523D01*
X172227142Y-117264047D01*
X172227142Y-116930714D01*
X172274761Y-116740238D01*
X172370000Y-116645000D01*
X172465238Y-116597380D01*
X173322380Y-116597380D02*
X173322380Y-117406904D01*
X173370000Y-117502142D01*
X173417619Y-117549761D01*
X173512857Y-117597380D01*
X173703333Y-117597380D01*
X173798571Y-117549761D01*
X173846190Y-117502142D01*
X173893809Y-117406904D01*
X173893809Y-116597380D01*
X174227142Y-116597380D02*
X174798571Y-116597380D01*
X174512857Y-117597380D02*
X174512857Y-116597380D01*
%TO.C,R16*%
X160380380Y-94935476D02*
X160380380Y-95506904D01*
X160380380Y-95221190D02*
X159380380Y-95221190D01*
X159523238Y-95316428D01*
X159618476Y-95411666D01*
X159666095Y-95506904D01*
X159380380Y-94316428D02*
X159380380Y-94221190D01*
X159428000Y-94125952D01*
X159475619Y-94078333D01*
X159570857Y-94030714D01*
X159761333Y-93983095D01*
X159999428Y-93983095D01*
X160189904Y-94030714D01*
X160285142Y-94078333D01*
X160332761Y-94125952D01*
X160380380Y-94221190D01*
X160380380Y-94316428D01*
X160332761Y-94411666D01*
X160285142Y-94459285D01*
X160189904Y-94506904D01*
X159999428Y-94554523D01*
X159761333Y-94554523D01*
X159570857Y-94506904D01*
X159475619Y-94459285D01*
X159428000Y-94411666D01*
X159380380Y-94316428D01*
X160380380Y-93554523D02*
X159380380Y-93554523D01*
X160380380Y-92983095D02*
X159808952Y-93411666D01*
X159380380Y-92983095D02*
X159951809Y-93554523D01*
D12*
%TO.C,OUT1*%
X117124000Y-120640428D02*
X117414285Y-120640428D01*
X117559428Y-120713000D01*
X117704571Y-120858142D01*
X117777142Y-121148428D01*
X117777142Y-121656428D01*
X117704571Y-121946714D01*
X117559428Y-122091857D01*
X117414285Y-122164428D01*
X117124000Y-122164428D01*
X116978857Y-122091857D01*
X116833714Y-121946714D01*
X116761142Y-121656428D01*
X116761142Y-121148428D01*
X116833714Y-120858142D01*
X116978857Y-120713000D01*
X117124000Y-120640428D01*
X118430285Y-120640428D02*
X118430285Y-121874142D01*
X118502857Y-122019285D01*
X118575428Y-122091857D01*
X118720571Y-122164428D01*
X119010857Y-122164428D01*
X119156000Y-122091857D01*
X119228571Y-122019285D01*
X119301142Y-121874142D01*
X119301142Y-120640428D01*
X119809142Y-120640428D02*
X120680000Y-120640428D01*
X120244571Y-122164428D02*
X120244571Y-120640428D01*
D11*
%TO.C,J2*%
X174200380Y-93737380D02*
X173200380Y-93737380D01*
X173200380Y-93499285D01*
X173248000Y-93356428D01*
X173343238Y-93261190D01*
X173438476Y-93213571D01*
X173628952Y-93165952D01*
X173771809Y-93165952D01*
X173962285Y-93213571D01*
X174057523Y-93261190D01*
X174152761Y-93356428D01*
X174200380Y-93499285D01*
X174200380Y-93737380D01*
X173200380Y-92832619D02*
X173200380Y-92213571D01*
X173581333Y-92546904D01*
X173581333Y-92404047D01*
X173628952Y-92308809D01*
X173676571Y-92261190D01*
X173771809Y-92213571D01*
X174009904Y-92213571D01*
X174105142Y-92261190D01*
X174152761Y-92308809D01*
X174200380Y-92404047D01*
X174200380Y-92689761D01*
X174152761Y-92785000D01*
X174105142Y-92832619D01*
X174152761Y-91070714D02*
X174200380Y-90927857D01*
X174200380Y-90689761D01*
X174152761Y-90594523D01*
X174105142Y-90546904D01*
X174009904Y-90499285D01*
X173914666Y-90499285D01*
X173819428Y-90546904D01*
X173771809Y-90594523D01*
X173724190Y-90689761D01*
X173676571Y-90880238D01*
X173628952Y-90975476D01*
X173581333Y-91023095D01*
X173486095Y-91070714D01*
X173390857Y-91070714D01*
X173295619Y-91023095D01*
X173248000Y-90975476D01*
X173200380Y-90880238D01*
X173200380Y-90642142D01*
X173248000Y-90499285D01*
X173676571Y-90070714D02*
X173676571Y-89737380D01*
X174200380Y-89594523D02*
X174200380Y-90070714D01*
X173200380Y-90070714D01*
X173200380Y-89594523D01*
X174200380Y-88689761D02*
X174200380Y-89165952D01*
X173200380Y-89165952D01*
%TO.C,R6*%
X163015619Y-85116904D02*
X162968000Y-85069285D01*
X162920380Y-84974047D01*
X162920380Y-84735952D01*
X162968000Y-84640714D01*
X163015619Y-84593095D01*
X163110857Y-84545476D01*
X163206095Y-84545476D01*
X163348952Y-84593095D01*
X163920380Y-85164523D01*
X163920380Y-84545476D01*
X162920380Y-83926428D02*
X162920380Y-83831190D01*
X162968000Y-83735952D01*
X163015619Y-83688333D01*
X163110857Y-83640714D01*
X163301333Y-83593095D01*
X163539428Y-83593095D01*
X163729904Y-83640714D01*
X163825142Y-83688333D01*
X163872761Y-83735952D01*
X163920380Y-83831190D01*
X163920380Y-83926428D01*
X163872761Y-84021666D01*
X163825142Y-84069285D01*
X163729904Y-84116904D01*
X163539428Y-84164523D01*
X163301333Y-84164523D01*
X163110857Y-84116904D01*
X163015619Y-84069285D01*
X162968000Y-84021666D01*
X162920380Y-83926428D01*
X163920380Y-83164523D02*
X162920380Y-83164523D01*
X163920380Y-82593095D02*
X163348952Y-83021666D01*
X162920380Y-82593095D02*
X163491809Y-83164523D01*
%TO.C,R17*%
X156620380Y-95095476D02*
X156620380Y-95666904D01*
X156620380Y-95381190D02*
X155620380Y-95381190D01*
X155763238Y-95476428D01*
X155858476Y-95571666D01*
X155906095Y-95666904D01*
X155620380Y-94476428D02*
X155620380Y-94381190D01*
X155668000Y-94285952D01*
X155715619Y-94238333D01*
X155810857Y-94190714D01*
X156001333Y-94143095D01*
X156239428Y-94143095D01*
X156429904Y-94190714D01*
X156525142Y-94238333D01*
X156572761Y-94285952D01*
X156620380Y-94381190D01*
X156620380Y-94476428D01*
X156572761Y-94571666D01*
X156525142Y-94619285D01*
X156429904Y-94666904D01*
X156239428Y-94714523D01*
X156001333Y-94714523D01*
X155810857Y-94666904D01*
X155715619Y-94619285D01*
X155668000Y-94571666D01*
X155620380Y-94476428D01*
X156620380Y-93714523D02*
X155620380Y-93714523D01*
X156620380Y-93143095D02*
X156048952Y-93571666D01*
X155620380Y-93143095D02*
X156191809Y-93714523D01*
%TO.C,R14*%
X167630380Y-94975476D02*
X167630380Y-95546904D01*
X167630380Y-95261190D02*
X166630380Y-95261190D01*
X166773238Y-95356428D01*
X166868476Y-95451666D01*
X166916095Y-95546904D01*
X166630380Y-94356428D02*
X166630380Y-94261190D01*
X166678000Y-94165952D01*
X166725619Y-94118333D01*
X166820857Y-94070714D01*
X167011333Y-94023095D01*
X167249428Y-94023095D01*
X167439904Y-94070714D01*
X167535142Y-94118333D01*
X167582761Y-94165952D01*
X167630380Y-94261190D01*
X167630380Y-94356428D01*
X167582761Y-94451666D01*
X167535142Y-94499285D01*
X167439904Y-94546904D01*
X167249428Y-94594523D01*
X167011333Y-94594523D01*
X166820857Y-94546904D01*
X166725619Y-94499285D01*
X166678000Y-94451666D01*
X166630380Y-94356428D01*
X167630380Y-93594523D02*
X166630380Y-93594523D01*
X167630380Y-93023095D02*
X167058952Y-93451666D01*
X166630380Y-93023095D02*
X167201809Y-93594523D01*
%TO.C,J3*%
X114066095Y-74547380D02*
X114637523Y-74547380D01*
X114351809Y-75547380D02*
X114351809Y-74547380D01*
X114875619Y-74547380D02*
X115542285Y-75547380D01*
X115542285Y-74547380D02*
X114875619Y-75547380D01*
%TO.C,R5*%
X166755619Y-85056904D02*
X166708000Y-85009285D01*
X166660380Y-84914047D01*
X166660380Y-84675952D01*
X166708000Y-84580714D01*
X166755619Y-84533095D01*
X166850857Y-84485476D01*
X166946095Y-84485476D01*
X167088952Y-84533095D01*
X167660380Y-85104523D01*
X167660380Y-84485476D01*
X166660380Y-83866428D02*
X166660380Y-83771190D01*
X166708000Y-83675952D01*
X166755619Y-83628333D01*
X166850857Y-83580714D01*
X167041333Y-83533095D01*
X167279428Y-83533095D01*
X167469904Y-83580714D01*
X167565142Y-83628333D01*
X167612761Y-83675952D01*
X167660380Y-83771190D01*
X167660380Y-83866428D01*
X167612761Y-83961666D01*
X167565142Y-84009285D01*
X167469904Y-84056904D01*
X167279428Y-84104523D01*
X167041333Y-84104523D01*
X166850857Y-84056904D01*
X166755619Y-84009285D01*
X166708000Y-83961666D01*
X166660380Y-83866428D01*
X167660380Y-83104523D02*
X166660380Y-83104523D01*
X167660380Y-82533095D02*
X167088952Y-82961666D01*
X166660380Y-82533095D02*
X167231809Y-83104523D01*
%TO.C,R18*%
X134819904Y-87792619D02*
X134867523Y-87745000D01*
X134962761Y-87697380D01*
X135200857Y-87697380D01*
X135296095Y-87745000D01*
X135343714Y-87792619D01*
X135391333Y-87887857D01*
X135391333Y-87983095D01*
X135343714Y-88125952D01*
X134772285Y-88697380D01*
X135391333Y-88697380D01*
X135772285Y-87792619D02*
X135819904Y-87745000D01*
X135915142Y-87697380D01*
X136153238Y-87697380D01*
X136248476Y-87745000D01*
X136296095Y-87792619D01*
X136343714Y-87887857D01*
X136343714Y-87983095D01*
X136296095Y-88125952D01*
X135724666Y-88697380D01*
X136343714Y-88697380D01*
X136962761Y-87697380D02*
X137058000Y-87697380D01*
X137153238Y-87745000D01*
X137200857Y-87792619D01*
X137248476Y-87887857D01*
X137296095Y-88078333D01*
X137296095Y-88316428D01*
X137248476Y-88506904D01*
X137200857Y-88602142D01*
X137153238Y-88649761D01*
X137058000Y-88697380D01*
X136962761Y-88697380D01*
X136867523Y-88649761D01*
X136819904Y-88602142D01*
X136772285Y-88506904D01*
X136724666Y-88316428D01*
X136724666Y-88078333D01*
X136772285Y-87887857D01*
X136819904Y-87792619D01*
X136867523Y-87745000D01*
X136962761Y-87697380D01*
%TO.C,J5*%
X154819904Y-116147380D02*
X154819904Y-115147380D01*
X155153238Y-115861666D01*
X155486571Y-115147380D01*
X155486571Y-116147380D01*
X156534190Y-116052142D02*
X156486571Y-116099761D01*
X156343714Y-116147380D01*
X156248476Y-116147380D01*
X156105619Y-116099761D01*
X156010380Y-116004523D01*
X155962761Y-115909285D01*
X155915142Y-115718809D01*
X155915142Y-115575952D01*
X155962761Y-115385476D01*
X156010380Y-115290238D01*
X156105619Y-115195000D01*
X156248476Y-115147380D01*
X156343714Y-115147380D01*
X156486571Y-115195000D01*
X156534190Y-115242619D01*
X156962761Y-116147380D02*
X156962761Y-115147380D01*
X157343714Y-115147380D01*
X157438952Y-115195000D01*
X157486571Y-115242619D01*
X157534190Y-115337857D01*
X157534190Y-115480714D01*
X157486571Y-115575952D01*
X157438952Y-115623571D01*
X157343714Y-115671190D01*
X156962761Y-115671190D01*
X158391333Y-115480714D02*
X158391333Y-116147380D01*
X158153238Y-115099761D02*
X157915142Y-115814047D01*
X158534190Y-115814047D01*
X158819904Y-115147380D02*
X159486571Y-115147380D01*
X159058000Y-116147380D01*
X159819904Y-115242619D02*
X159867523Y-115195000D01*
X159962761Y-115147380D01*
X160200857Y-115147380D01*
X160296095Y-115195000D01*
X160343714Y-115242619D01*
X160391333Y-115337857D01*
X160391333Y-115433095D01*
X160343714Y-115575952D01*
X159772285Y-116147380D01*
X160391333Y-116147380D01*
X161296095Y-115147380D02*
X160819904Y-115147380D01*
X160772285Y-115623571D01*
X160819904Y-115575952D01*
X160915142Y-115528333D01*
X161153238Y-115528333D01*
X161248476Y-115575952D01*
X161296095Y-115623571D01*
X161343714Y-115718809D01*
X161343714Y-115956904D01*
X161296095Y-116052142D01*
X161248476Y-116099761D01*
X161153238Y-116147380D01*
X160915142Y-116147380D01*
X160819904Y-116099761D01*
X160772285Y-116052142D01*
%TO.C,R4*%
X170375619Y-85116904D02*
X170328000Y-85069285D01*
X170280380Y-84974047D01*
X170280380Y-84735952D01*
X170328000Y-84640714D01*
X170375619Y-84593095D01*
X170470857Y-84545476D01*
X170566095Y-84545476D01*
X170708952Y-84593095D01*
X171280380Y-85164523D01*
X171280380Y-84545476D01*
X170280380Y-83926428D02*
X170280380Y-83831190D01*
X170328000Y-83735952D01*
X170375619Y-83688333D01*
X170470857Y-83640714D01*
X170661333Y-83593095D01*
X170899428Y-83593095D01*
X171089904Y-83640714D01*
X171185142Y-83688333D01*
X171232761Y-83735952D01*
X171280380Y-83831190D01*
X171280380Y-83926428D01*
X171232761Y-84021666D01*
X171185142Y-84069285D01*
X171089904Y-84116904D01*
X170899428Y-84164523D01*
X170661333Y-84164523D01*
X170470857Y-84116904D01*
X170375619Y-84069285D01*
X170328000Y-84021666D01*
X170280380Y-83926428D01*
X171280380Y-83164523D02*
X170280380Y-83164523D01*
X171280380Y-82593095D02*
X170708952Y-83021666D01*
X170280380Y-82593095D02*
X170851809Y-83164523D01*
%TO.C,D1*%
X134211333Y-85157380D02*
X133639904Y-85157380D01*
X133925619Y-85157380D02*
X133925619Y-84157380D01*
X133830380Y-84300238D01*
X133735142Y-84395476D01*
X133639904Y-84443095D01*
X134639904Y-85157380D02*
X134639904Y-84157380D01*
X135211333Y-85157380D01*
X135211333Y-84157380D01*
X135735142Y-85157380D02*
X135925619Y-85157380D01*
X136020857Y-85109761D01*
X136068476Y-85062142D01*
X136163714Y-84919285D01*
X136211333Y-84728809D01*
X136211333Y-84347857D01*
X136163714Y-84252619D01*
X136116095Y-84205000D01*
X136020857Y-84157380D01*
X135830380Y-84157380D01*
X135735142Y-84205000D01*
X135687523Y-84252619D01*
X135639904Y-84347857D01*
X135639904Y-84585952D01*
X135687523Y-84681190D01*
X135735142Y-84728809D01*
X135830380Y-84776428D01*
X136020857Y-84776428D01*
X136116095Y-84728809D01*
X136163714Y-84681190D01*
X136211333Y-84585952D01*
X137163714Y-85157380D02*
X136592285Y-85157380D01*
X136878000Y-85157380D02*
X136878000Y-84157380D01*
X136782761Y-84300238D01*
X136687523Y-84395476D01*
X136592285Y-84443095D01*
X138020857Y-84490714D02*
X138020857Y-85157380D01*
X137782761Y-84109761D02*
X137544666Y-84824047D01*
X138163714Y-84824047D01*
%TO.C,R10*%
X134649904Y-113492619D02*
X134697523Y-113445000D01*
X134792761Y-113397380D01*
X135030857Y-113397380D01*
X135126095Y-113445000D01*
X135173714Y-113492619D01*
X135221333Y-113587857D01*
X135221333Y-113683095D01*
X135173714Y-113825952D01*
X134602285Y-114397380D01*
X135221333Y-114397380D01*
X135602285Y-113492619D02*
X135649904Y-113445000D01*
X135745142Y-113397380D01*
X135983238Y-113397380D01*
X136078476Y-113445000D01*
X136126095Y-113492619D01*
X136173714Y-113587857D01*
X136173714Y-113683095D01*
X136126095Y-113825952D01*
X135554666Y-114397380D01*
X136173714Y-114397380D01*
X136792761Y-113397380D02*
X136888000Y-113397380D01*
X136983238Y-113445000D01*
X137030857Y-113492619D01*
X137078476Y-113587857D01*
X137126095Y-113778333D01*
X137126095Y-114016428D01*
X137078476Y-114206904D01*
X137030857Y-114302142D01*
X136983238Y-114349761D01*
X136888000Y-114397380D01*
X136792761Y-114397380D01*
X136697523Y-114349761D01*
X136649904Y-114302142D01*
X136602285Y-114206904D01*
X136554666Y-114016428D01*
X136554666Y-113778333D01*
X136602285Y-113587857D01*
X136649904Y-113492619D01*
X136697523Y-113445000D01*
X136792761Y-113397380D01*
%TO.C,C1*%
X145850380Y-97132619D02*
X145850380Y-97704047D01*
X145850380Y-97418333D02*
X144850380Y-97418333D01*
X144993238Y-97513571D01*
X145088476Y-97608809D01*
X145136095Y-97704047D01*
X144850380Y-96513571D02*
X144850380Y-96418333D01*
X144898000Y-96323095D01*
X144945619Y-96275476D01*
X145040857Y-96227857D01*
X145231333Y-96180238D01*
X145469428Y-96180238D01*
X145659904Y-96227857D01*
X145755142Y-96275476D01*
X145802761Y-96323095D01*
X145850380Y-96418333D01*
X145850380Y-96513571D01*
X145802761Y-96608809D01*
X145755142Y-96656428D01*
X145659904Y-96704047D01*
X145469428Y-96751666D01*
X145231333Y-96751666D01*
X145040857Y-96704047D01*
X144945619Y-96656428D01*
X144898000Y-96608809D01*
X144850380Y-96513571D01*
X144850380Y-95561190D02*
X144850380Y-95465952D01*
X144898000Y-95370714D01*
X144945619Y-95323095D01*
X145040857Y-95275476D01*
X145231333Y-95227857D01*
X145469428Y-95227857D01*
X145659904Y-95275476D01*
X145755142Y-95323095D01*
X145802761Y-95370714D01*
X145850380Y-95465952D01*
X145850380Y-95561190D01*
X145802761Y-95656428D01*
X145755142Y-95704047D01*
X145659904Y-95751666D01*
X145469428Y-95799285D01*
X145231333Y-95799285D01*
X145040857Y-95751666D01*
X144945619Y-95704047D01*
X144898000Y-95656428D01*
X144850380Y-95561190D01*
X145183714Y-94370714D02*
X145850380Y-94370714D01*
X145183714Y-94799285D02*
X145707523Y-94799285D01*
X145802761Y-94751666D01*
X145850380Y-94656428D01*
X145850380Y-94513571D01*
X145802761Y-94418333D01*
X145755142Y-94370714D01*
X145326571Y-93561190D02*
X145326571Y-93894523D01*
X145850380Y-93894523D02*
X144850380Y-93894523D01*
X144850380Y-93418333D01*
%TO.C,R2*%
X148295619Y-85006904D02*
X148248000Y-84959285D01*
X148200380Y-84864047D01*
X148200380Y-84625952D01*
X148248000Y-84530714D01*
X148295619Y-84483095D01*
X148390857Y-84435476D01*
X148486095Y-84435476D01*
X148628952Y-84483095D01*
X149200380Y-85054523D01*
X149200380Y-84435476D01*
X148200380Y-83816428D02*
X148200380Y-83721190D01*
X148248000Y-83625952D01*
X148295619Y-83578333D01*
X148390857Y-83530714D01*
X148581333Y-83483095D01*
X148819428Y-83483095D01*
X149009904Y-83530714D01*
X149105142Y-83578333D01*
X149152761Y-83625952D01*
X149200380Y-83721190D01*
X149200380Y-83816428D01*
X149152761Y-83911666D01*
X149105142Y-83959285D01*
X149009904Y-84006904D01*
X148819428Y-84054523D01*
X148581333Y-84054523D01*
X148390857Y-84006904D01*
X148295619Y-83959285D01*
X148248000Y-83911666D01*
X148200380Y-83816428D01*
X149200380Y-83054523D02*
X148200380Y-83054523D01*
X149200380Y-82483095D02*
X148628952Y-82911666D01*
X148200380Y-82483095D02*
X148771809Y-83054523D01*
%TO.C,R11*%
X152980380Y-95125476D02*
X152980380Y-95696904D01*
X152980380Y-95411190D02*
X151980380Y-95411190D01*
X152123238Y-95506428D01*
X152218476Y-95601666D01*
X152266095Y-95696904D01*
X151980380Y-94506428D02*
X151980380Y-94411190D01*
X152028000Y-94315952D01*
X152075619Y-94268333D01*
X152170857Y-94220714D01*
X152361333Y-94173095D01*
X152599428Y-94173095D01*
X152789904Y-94220714D01*
X152885142Y-94268333D01*
X152932761Y-94315952D01*
X152980380Y-94411190D01*
X152980380Y-94506428D01*
X152932761Y-94601666D01*
X152885142Y-94649285D01*
X152789904Y-94696904D01*
X152599428Y-94744523D01*
X152361333Y-94744523D01*
X152170857Y-94696904D01*
X152075619Y-94649285D01*
X152028000Y-94601666D01*
X151980380Y-94506428D01*
X152980380Y-93744523D02*
X151980380Y-93744523D01*
X152980380Y-93173095D02*
X152408952Y-93601666D01*
X151980380Y-93173095D02*
X152551809Y-93744523D01*
%TO.C,R1*%
X134579904Y-117322619D02*
X134627523Y-117275000D01*
X134722761Y-117227380D01*
X134960857Y-117227380D01*
X135056095Y-117275000D01*
X135103714Y-117322619D01*
X135151333Y-117417857D01*
X135151333Y-117513095D01*
X135103714Y-117655952D01*
X134532285Y-118227380D01*
X135151333Y-118227380D01*
X135532285Y-117322619D02*
X135579904Y-117275000D01*
X135675142Y-117227380D01*
X135913238Y-117227380D01*
X136008476Y-117275000D01*
X136056095Y-117322619D01*
X136103714Y-117417857D01*
X136103714Y-117513095D01*
X136056095Y-117655952D01*
X135484666Y-118227380D01*
X136103714Y-118227380D01*
X136722761Y-117227380D02*
X136818000Y-117227380D01*
X136913238Y-117275000D01*
X136960857Y-117322619D01*
X137008476Y-117417857D01*
X137056095Y-117608333D01*
X137056095Y-117846428D01*
X137008476Y-118036904D01*
X136960857Y-118132142D01*
X136913238Y-118179761D01*
X136818000Y-118227380D01*
X136722761Y-118227380D01*
X136627523Y-118179761D01*
X136579904Y-118132142D01*
X136532285Y-118036904D01*
X136484666Y-117846428D01*
X136484666Y-117608333D01*
X136532285Y-117417857D01*
X136579904Y-117322619D01*
X136627523Y-117275000D01*
X136722761Y-117227380D01*
%TO.C,R22*%
X142785619Y-105943095D02*
X142738000Y-105895476D01*
X142690380Y-105800238D01*
X142690380Y-105562142D01*
X142738000Y-105466904D01*
X142785619Y-105419285D01*
X142880857Y-105371666D01*
X142976095Y-105371666D01*
X143118952Y-105419285D01*
X143690380Y-105990714D01*
X143690380Y-105371666D01*
X142690380Y-105038333D02*
X142690380Y-104371666D01*
X143690380Y-104800238D01*
X142690380Y-103800238D02*
X142690380Y-103705000D01*
X142738000Y-103609761D01*
X142785619Y-103562142D01*
X142880857Y-103514523D01*
X143071333Y-103466904D01*
X143309428Y-103466904D01*
X143499904Y-103514523D01*
X143595142Y-103562142D01*
X143642761Y-103609761D01*
X143690380Y-103705000D01*
X143690380Y-103800238D01*
X143642761Y-103895476D01*
X143595142Y-103943095D01*
X143499904Y-103990714D01*
X143309428Y-104038333D01*
X143071333Y-104038333D01*
X142880857Y-103990714D01*
X142785619Y-103943095D01*
X142738000Y-103895476D01*
X142690380Y-103800238D01*
%TO.C,J1*%
X135480619Y-83087380D02*
X135480619Y-82087380D01*
X135718714Y-82087380D01*
X135861571Y-82135000D01*
X135956809Y-82230238D01*
X136004428Y-82325476D01*
X136052047Y-82515952D01*
X136052047Y-82658809D01*
X136004428Y-82849285D01*
X135956809Y-82944523D01*
X135861571Y-83039761D01*
X135718714Y-83087380D01*
X135480619Y-83087380D01*
X136528238Y-83087380D02*
X136718714Y-83087380D01*
X136813952Y-83039761D01*
X136861571Y-82992142D01*
X136956809Y-82849285D01*
X137004428Y-82658809D01*
X137004428Y-82277857D01*
X136956809Y-82182619D01*
X136909190Y-82135000D01*
X136813952Y-82087380D01*
X136623476Y-82087380D01*
X136528238Y-82135000D01*
X136480619Y-82182619D01*
X136433000Y-82277857D01*
X136433000Y-82515952D01*
X136480619Y-82611190D01*
X136528238Y-82658809D01*
X136623476Y-82706428D01*
X136813952Y-82706428D01*
X136909190Y-82658809D01*
X136956809Y-82611190D01*
X137004428Y-82515952D01*
X138147285Y-83039761D02*
X138290142Y-83087380D01*
X138528238Y-83087380D01*
X138623476Y-83039761D01*
X138671095Y-82992142D01*
X138718714Y-82896904D01*
X138718714Y-82801666D01*
X138671095Y-82706428D01*
X138623476Y-82658809D01*
X138528238Y-82611190D01*
X138337761Y-82563571D01*
X138242523Y-82515952D01*
X138194904Y-82468333D01*
X138147285Y-82373095D01*
X138147285Y-82277857D01*
X138194904Y-82182619D01*
X138242523Y-82135000D01*
X138337761Y-82087380D01*
X138575857Y-82087380D01*
X138718714Y-82135000D01*
X139147285Y-82563571D02*
X139480619Y-82563571D01*
X139623476Y-83087380D02*
X139147285Y-83087380D01*
X139147285Y-82087380D01*
X139623476Y-82087380D01*
X140528238Y-83087380D02*
X140052047Y-83087380D01*
X140052047Y-82087380D01*
%TO.C,C2*%
X144779904Y-110887380D02*
X144589428Y-110887380D01*
X144494190Y-110935000D01*
X144446571Y-110982619D01*
X144351333Y-111125476D01*
X144303714Y-111315952D01*
X144303714Y-111696904D01*
X144351333Y-111792142D01*
X144398952Y-111839761D01*
X144494190Y-111887380D01*
X144684666Y-111887380D01*
X144779904Y-111839761D01*
X144827523Y-111792142D01*
X144875142Y-111696904D01*
X144875142Y-111458809D01*
X144827523Y-111363571D01*
X144779904Y-111315952D01*
X144684666Y-111268333D01*
X144494190Y-111268333D01*
X144398952Y-111315952D01*
X144351333Y-111363571D01*
X144303714Y-111458809D01*
X145446571Y-111315952D02*
X145351333Y-111268333D01*
X145303714Y-111220714D01*
X145256095Y-111125476D01*
X145256095Y-111077857D01*
X145303714Y-110982619D01*
X145351333Y-110935000D01*
X145446571Y-110887380D01*
X145637047Y-110887380D01*
X145732285Y-110935000D01*
X145779904Y-110982619D01*
X145827523Y-111077857D01*
X145827523Y-111125476D01*
X145779904Y-111220714D01*
X145732285Y-111268333D01*
X145637047Y-111315952D01*
X145446571Y-111315952D01*
X145351333Y-111363571D01*
X145303714Y-111411190D01*
X145256095Y-111506428D01*
X145256095Y-111696904D01*
X145303714Y-111792142D01*
X145351333Y-111839761D01*
X145446571Y-111887380D01*
X145637047Y-111887380D01*
X145732285Y-111839761D01*
X145779904Y-111792142D01*
X145827523Y-111696904D01*
X145827523Y-111506428D01*
X145779904Y-111411190D01*
X145732285Y-111363571D01*
X145637047Y-111315952D01*
X146256095Y-111220714D02*
X146256095Y-111887380D01*
X146256095Y-111315952D02*
X146303714Y-111268333D01*
X146398952Y-111220714D01*
X146541809Y-111220714D01*
X146637047Y-111268333D01*
X146684666Y-111363571D01*
X146684666Y-111887380D01*
%TO.C,R15*%
X164060380Y-94935476D02*
X164060380Y-95506904D01*
X164060380Y-95221190D02*
X163060380Y-95221190D01*
X163203238Y-95316428D01*
X163298476Y-95411666D01*
X163346095Y-95506904D01*
X163060380Y-94316428D02*
X163060380Y-94221190D01*
X163108000Y-94125952D01*
X163155619Y-94078333D01*
X163250857Y-94030714D01*
X163441333Y-93983095D01*
X163679428Y-93983095D01*
X163869904Y-94030714D01*
X163965142Y-94078333D01*
X164012761Y-94125952D01*
X164060380Y-94221190D01*
X164060380Y-94316428D01*
X164012761Y-94411666D01*
X163965142Y-94459285D01*
X163869904Y-94506904D01*
X163679428Y-94554523D01*
X163441333Y-94554523D01*
X163250857Y-94506904D01*
X163155619Y-94459285D01*
X163108000Y-94411666D01*
X163060380Y-94316428D01*
X164060380Y-93554523D02*
X163060380Y-93554523D01*
X164060380Y-92983095D02*
X163488952Y-93411666D01*
X163060380Y-92983095D02*
X163631809Y-93554523D01*
%TO.C,P1*%
X157988000Y-125095000D02*
X157988000Y-122555000D01*
X140208000Y-125095000D02*
X157988000Y-125095000D01*
X157988000Y-122555000D02*
X140208000Y-122555000D01*
X138938000Y-122275000D02*
X137388000Y-122275000D01*
X137388000Y-122275000D02*
X137388000Y-125375000D01*
X137388000Y-125375000D02*
X138938000Y-125375000D01*
X140208000Y-125095000D02*
X140208000Y-122555000D01*
%TO.C,P2*%
X163068000Y-125095000D02*
X163068000Y-122555000D01*
X161798000Y-122275000D02*
X160248000Y-122275000D01*
X175768000Y-122555000D02*
X163068000Y-122555000D01*
X163068000Y-125095000D02*
X175768000Y-125095000D01*
X175768000Y-125095000D02*
X175768000Y-122555000D01*
X160248000Y-122275000D02*
X160248000Y-125375000D01*
X160248000Y-125375000D02*
X161798000Y-125375000D01*
%TO.C,P3*%
X128244000Y-74015000D02*
X128244000Y-77115000D01*
X131064000Y-76835000D02*
X153924000Y-76835000D01*
X153924000Y-76835000D02*
X153924000Y-74295000D01*
X153924000Y-74295000D02*
X131064000Y-74295000D01*
X129794000Y-74015000D02*
X128244000Y-74015000D01*
X128244000Y-77115000D02*
X129794000Y-77115000D01*
X131064000Y-76835000D02*
X131064000Y-74295000D01*
%TO.C,P4*%
X175768000Y-74295000D02*
X157988000Y-74295000D01*
X155168000Y-77115000D02*
X156718000Y-77115000D01*
X157988000Y-76835000D02*
X175768000Y-76835000D01*
X157988000Y-76835000D02*
X157988000Y-74295000D01*
X156718000Y-74015000D02*
X155168000Y-74015000D01*
X175768000Y-76835000D02*
X175768000Y-74295000D01*
X155168000Y-74015000D02*
X155168000Y-77115000D01*
%TO.C,P5*%
X127254000Y-123825000D02*
G75*
G03*
X127254000Y-123825000I-2286000J0D01*
G01*
%TO.C,P6*%
X179324000Y-118745000D02*
G75*
G03*
X179324000Y-118745000I-2286000J0D01*
G01*
%TO.C,P7*%
X128524000Y-75565000D02*
G75*
G03*
X128524000Y-75565000I-2286000J0D01*
G01*
%TO.C,P8*%
X179324000Y-90805000D02*
G75*
G03*
X179324000Y-90805000I-2286000J0D01*
G01*
D13*
%TO.C,R8*%
X157570000Y-87080000D02*
X157240000Y-87080000D01*
X157570000Y-80540000D02*
X157570000Y-87080000D01*
X157240000Y-80540000D02*
X157570000Y-80540000D01*
X154830000Y-87080000D02*
X155160000Y-87080000D01*
X154830000Y-80540000D02*
X154830000Y-87080000D01*
X155160000Y-80540000D02*
X154830000Y-80540000D01*
%TO.C,R9*%
X153540000Y-80540000D02*
X153870000Y-80540000D01*
X153870000Y-80540000D02*
X153870000Y-87080000D01*
X151460000Y-80540000D02*
X151130000Y-80540000D01*
X153870000Y-87080000D02*
X153540000Y-87080000D01*
X151130000Y-80540000D02*
X151130000Y-87080000D01*
X151130000Y-87080000D02*
X151460000Y-87080000D01*
%TO.C,J6*%
X169773000Y-100055000D02*
X171103000Y-100055000D01*
X163363000Y-100055000D02*
X163363000Y-102715000D01*
X168503000Y-100055000D02*
X168503000Y-102715000D01*
X168503000Y-102715000D02*
X163363000Y-102715000D01*
X168503000Y-100055000D02*
X163363000Y-100055000D01*
X171103000Y-100055000D02*
X171103000Y-101385000D01*
%TO.C,C3*%
X141970626Y-114450000D02*
X141970626Y-115050000D01*
X141670626Y-114750000D02*
X142270626Y-114750000D01*
X148130375Y-116505000D02*
G75*
G03*
X148130375Y-116505000I-3120000J0D01*
G01*
%TO.C,U1*%
X133268000Y-91745000D02*
X133268000Y-102025000D01*
X138568000Y-102025000D02*
X138568000Y-91745000D01*
X133268000Y-102025000D02*
X138568000Y-102025000D01*
X138568000Y-91745000D02*
X136918000Y-91745000D01*
X134918000Y-91745000D02*
X133268000Y-91745000D01*
X134918000Y-91745000D02*
G75*
G03*
X136918000Y-91745000I1000000J0D01*
G01*
D12*
%TO.C,IN1*%
X112039160Y-100815360D02*
X111538780Y-100815360D01*
X129537220Y-81315780D02*
X112537000Y-81315780D01*
X130037600Y-91816140D02*
X129537220Y-92313980D01*
X111538780Y-100815360D02*
X111538780Y-99314220D01*
X112537000Y-81315780D02*
X112537000Y-81816160D01*
X130037600Y-96814860D02*
X130037600Y-96314480D01*
X129537220Y-84815900D02*
X127538240Y-84815900D01*
X112537000Y-81816160D02*
X112039160Y-81816160D01*
X130037600Y-96314480D02*
X129537220Y-95814100D01*
X129537220Y-92313980D02*
X127538240Y-92313980D01*
X111038400Y-79814640D02*
X111538780Y-79814640D01*
X129537220Y-99314220D02*
X130037600Y-98813840D01*
X129537220Y-99314220D02*
X112537000Y-99314220D01*
X111538780Y-79814640D02*
X111538780Y-81315780D01*
X130037600Y-84315520D02*
X129537220Y-84815900D01*
X130037600Y-88813860D02*
X129537220Y-88316020D01*
X130037600Y-81816160D02*
X130037600Y-84315520D01*
X127538240Y-95814100D02*
X127538240Y-92313980D01*
X129537220Y-95814100D02*
X127538240Y-95814100D01*
X130037600Y-98813840D02*
X130037600Y-96814860D01*
X129537220Y-81315780D02*
X130037600Y-81816160D01*
X111538780Y-99314220D02*
X111538780Y-81315780D01*
X111538780Y-81315780D02*
X112039160Y-81315780D01*
X130037600Y-88813860D02*
X130037600Y-91816140D01*
X111287320Y-79814640D02*
X111287320Y-99314220D01*
X129537220Y-88316020D02*
X127538240Y-88316020D01*
X112537000Y-99314220D02*
X112537000Y-98813840D01*
X112039160Y-98813840D02*
X112537000Y-98813840D01*
X111538780Y-99314220D02*
X111038400Y-99314220D01*
X111038400Y-99314220D02*
X111038400Y-79814640D01*
X111787700Y-81315780D02*
X111787700Y-100815360D01*
X127538240Y-84815900D02*
X127538240Y-88316020D01*
X112039160Y-81315780D02*
X112039160Y-100815360D01*
D13*
%TO.C,R21*%
X132498000Y-106655000D02*
X132498000Y-106985000D01*
X132498000Y-104245000D02*
X139038000Y-104245000D01*
X132498000Y-106985000D02*
X139038000Y-106985000D01*
X132498000Y-104575000D02*
X132498000Y-104245000D01*
X139038000Y-106985000D02*
X139038000Y-106655000D01*
X139038000Y-104245000D02*
X139038000Y-104575000D01*
%TO.C,R19*%
X152948000Y-102345000D02*
X152948000Y-102675000D01*
X159488000Y-99935000D02*
X159488000Y-100265000D01*
X152948000Y-99935000D02*
X159488000Y-99935000D01*
X159488000Y-102675000D02*
X159488000Y-102345000D01*
X152948000Y-100265000D02*
X152948000Y-99935000D01*
X152948000Y-102675000D02*
X159488000Y-102675000D01*
%TO.C,R3*%
X143730000Y-87080000D02*
X144060000Y-87080000D01*
X144060000Y-80540000D02*
X143730000Y-80540000D01*
X146140000Y-80540000D02*
X146470000Y-80540000D01*
X146470000Y-80540000D02*
X146470000Y-87080000D01*
X143730000Y-80540000D02*
X143730000Y-87080000D01*
X146470000Y-87080000D02*
X146140000Y-87080000D01*
%TO.C,R20*%
X132438000Y-111255000D02*
X138978000Y-111255000D01*
X132438000Y-108515000D02*
X138978000Y-108515000D01*
X138978000Y-108515000D02*
X138978000Y-108845000D01*
X138978000Y-111255000D02*
X138978000Y-110925000D01*
X132438000Y-108845000D02*
X132438000Y-108515000D01*
X132438000Y-110925000D02*
X132438000Y-111255000D01*
%TO.C,R13*%
X169630000Y-97580000D02*
X169960000Y-97580000D01*
X169960000Y-91040000D02*
X169630000Y-91040000D01*
X172370000Y-97580000D02*
X172040000Y-97580000D01*
X172040000Y-91040000D02*
X172370000Y-91040000D01*
X169630000Y-91040000D02*
X169630000Y-97580000D01*
X172370000Y-91040000D02*
X172370000Y-97580000D01*
%TO.C,R12*%
X147430000Y-97660000D02*
X147430000Y-91120000D01*
X147430000Y-91120000D02*
X147760000Y-91120000D01*
X147760000Y-97660000D02*
X147430000Y-97660000D01*
X150170000Y-97660000D02*
X150170000Y-91120000D01*
X150170000Y-91120000D02*
X149840000Y-91120000D01*
X149840000Y-97660000D02*
X150170000Y-97660000D01*
%TO.C,R23*%
X145878000Y-108085000D02*
X146208000Y-108085000D01*
X148618000Y-101545000D02*
X148618000Y-108085000D01*
X148288000Y-101545000D02*
X148618000Y-101545000D01*
X145878000Y-101545000D02*
X145878000Y-108085000D01*
X146208000Y-101545000D02*
X145878000Y-101545000D01*
X148618000Y-108085000D02*
X148288000Y-108085000D01*
%TO.C,R7*%
X161270000Y-80540000D02*
X161270000Y-87080000D01*
X160940000Y-80540000D02*
X161270000Y-80540000D01*
X158530000Y-87080000D02*
X158860000Y-87080000D01*
X161270000Y-87080000D02*
X160940000Y-87080000D01*
X158530000Y-80540000D02*
X158530000Y-87080000D01*
X158860000Y-80540000D02*
X158530000Y-80540000D01*
%TO.C,J4*%
X116253000Y-77305000D02*
X116253000Y-79965000D01*
X118853000Y-77305000D02*
X116253000Y-77305000D01*
X121453000Y-77305000D02*
X121453000Y-78635000D01*
X118853000Y-77305000D02*
X118853000Y-79965000D01*
X120123000Y-77305000D02*
X121453000Y-77305000D01*
X118853000Y-79965000D02*
X116253000Y-79965000D01*
%TO.C,J7*%
X178380000Y-111665000D02*
X181380000Y-111665000D01*
X181380000Y-107665000D02*
X178380000Y-107665000D01*
X178380000Y-114165000D02*
X178380000Y-115665000D01*
X178380000Y-115665000D02*
X167380000Y-115665000D01*
X178380000Y-107665000D02*
X178380000Y-111665000D01*
X167380000Y-115665000D02*
X167380000Y-103665000D01*
X178380000Y-103665000D02*
X178380000Y-105165000D01*
X181380000Y-112665000D02*
X179580000Y-112665000D01*
X178380000Y-105165000D02*
X179580000Y-105165000D01*
X179580000Y-105165000D02*
X179580000Y-106665000D01*
X179580000Y-112665000D02*
X179580000Y-114165000D01*
X181380000Y-106665000D02*
X181380000Y-112665000D01*
X167380000Y-103665000D02*
X178380000Y-103665000D01*
X179580000Y-106665000D02*
X181380000Y-106665000D01*
X179580000Y-114165000D02*
X178380000Y-114165000D01*
%TO.C,R16*%
X161270000Y-91040000D02*
X161270000Y-97580000D01*
X158860000Y-91040000D02*
X158530000Y-91040000D01*
X158530000Y-97580000D02*
X158860000Y-97580000D01*
X160940000Y-91040000D02*
X161270000Y-91040000D01*
X161270000Y-97580000D02*
X160940000Y-97580000D01*
X158530000Y-91040000D02*
X158530000Y-97580000D01*
D12*
%TO.C,OUT1*%
X112587000Y-119194220D02*
X112587000Y-118693840D01*
X129587220Y-104695900D02*
X127588240Y-104695900D01*
X111588780Y-119194220D02*
X111088400Y-119194220D01*
X111837700Y-101195780D02*
X111837700Y-120695360D01*
X130087600Y-118693840D02*
X130087600Y-116694860D01*
X130087600Y-108693860D02*
X129587220Y-108196020D01*
X112587000Y-101696160D02*
X112089160Y-101696160D01*
X111588780Y-120695360D02*
X111588780Y-119194220D01*
X111588780Y-119194220D02*
X111588780Y-101195780D01*
X112089160Y-120695360D02*
X111588780Y-120695360D01*
X129587220Y-101195780D02*
X112587000Y-101195780D01*
X129587220Y-101195780D02*
X130087600Y-101696160D01*
X112089160Y-118693840D02*
X112587000Y-118693840D01*
X129587220Y-115694100D02*
X127588240Y-115694100D01*
X129587220Y-108196020D02*
X127588240Y-108196020D01*
X127588240Y-104695900D02*
X127588240Y-108196020D01*
X130087600Y-116194480D02*
X129587220Y-115694100D01*
X127588240Y-115694100D02*
X127588240Y-112193980D01*
X111337320Y-99694640D02*
X111337320Y-119194220D01*
X130087600Y-111696140D02*
X129587220Y-112193980D01*
X129587220Y-112193980D02*
X127588240Y-112193980D01*
X129587220Y-119194220D02*
X130087600Y-118693840D01*
X112587000Y-101195780D02*
X112587000Y-101696160D01*
X130087600Y-116694860D02*
X130087600Y-116194480D01*
X111088400Y-99694640D02*
X111588780Y-99694640D01*
X130087600Y-108693860D02*
X130087600Y-111696140D01*
X112089160Y-101195780D02*
X112089160Y-120695360D01*
X111588780Y-101195780D02*
X112089160Y-101195780D01*
X111088400Y-119194220D02*
X111088400Y-99694640D01*
X130087600Y-104195520D02*
X129587220Y-104695900D01*
X129587220Y-119194220D02*
X112587000Y-119194220D01*
X111588780Y-99694640D02*
X111588780Y-101195780D01*
X130087600Y-101696160D02*
X130087600Y-104195520D01*
D13*
%TO.C,J2*%
X176098000Y-79315000D02*
X173438000Y-79315000D01*
X173438000Y-84455000D02*
X173438000Y-79315000D01*
X176098000Y-85725000D02*
X176098000Y-87055000D01*
X176098000Y-84455000D02*
X173438000Y-84455000D01*
X176098000Y-84455000D02*
X176098000Y-79315000D01*
X176098000Y-87055000D02*
X174768000Y-87055000D01*
%TO.C,R6*%
X162230000Y-80540000D02*
X162230000Y-87080000D01*
X162230000Y-87080000D02*
X162560000Y-87080000D01*
X164640000Y-80540000D02*
X164970000Y-80540000D01*
X164970000Y-80540000D02*
X164970000Y-87080000D01*
X162560000Y-80540000D02*
X162230000Y-80540000D01*
X164970000Y-87080000D02*
X164640000Y-87080000D01*
%TO.C,R17*%
X154830000Y-91040000D02*
X154830000Y-97580000D01*
X157570000Y-91040000D02*
X157570000Y-97580000D01*
X155160000Y-91040000D02*
X154830000Y-91040000D01*
X157570000Y-97580000D02*
X157240000Y-97580000D01*
X157240000Y-91040000D02*
X157570000Y-91040000D01*
X154830000Y-97580000D02*
X155160000Y-97580000D01*
%TO.C,R14*%
X168670000Y-91040000D02*
X168670000Y-97580000D01*
X168670000Y-97580000D02*
X168340000Y-97580000D01*
X166260000Y-91040000D02*
X165930000Y-91040000D01*
X168340000Y-91040000D02*
X168670000Y-91040000D01*
X165930000Y-97580000D02*
X166260000Y-97580000D01*
X165930000Y-91040000D02*
X165930000Y-97580000D01*
%TO.C,J3*%
X120123000Y-73705000D02*
X121453000Y-73705000D01*
X121453000Y-73705000D02*
X121453000Y-75035000D01*
X118853000Y-76365000D02*
X116253000Y-76365000D01*
X118853000Y-73705000D02*
X116253000Y-73705000D01*
X116253000Y-73705000D02*
X116253000Y-76365000D01*
X118853000Y-73705000D02*
X118853000Y-76365000D01*
%TO.C,R5*%
X166260000Y-80540000D02*
X165930000Y-80540000D01*
X165930000Y-87080000D02*
X166260000Y-87080000D01*
X165930000Y-80540000D02*
X165930000Y-87080000D01*
X168670000Y-80540000D02*
X168670000Y-87080000D01*
X168670000Y-87080000D02*
X168340000Y-87080000D01*
X168340000Y-80540000D02*
X168670000Y-80540000D01*
%TO.C,R18*%
X132568000Y-89245000D02*
X132568000Y-89575000D01*
X132568000Y-89575000D02*
X139108000Y-89575000D01*
X132568000Y-87165000D02*
X132568000Y-86835000D01*
X139108000Y-86835000D02*
X139108000Y-87165000D01*
X139108000Y-89575000D02*
X139108000Y-89245000D01*
X132568000Y-86835000D02*
X139108000Y-86835000D01*
%TO.C,J5*%
X152798000Y-116965000D02*
X165558000Y-116965000D01*
X152798000Y-119625000D02*
X165558000Y-119625000D01*
X152798000Y-119625000D02*
X152798000Y-116965000D01*
X150198000Y-119625000D02*
X150198000Y-118295000D01*
X165558000Y-119625000D02*
X165558000Y-116965000D01*
X151528000Y-119625000D02*
X150198000Y-119625000D01*
%TO.C,R4*%
X169630000Y-80540000D02*
X169630000Y-87080000D01*
X172370000Y-87080000D02*
X172040000Y-87080000D01*
X172040000Y-80540000D02*
X172370000Y-80540000D01*
X169960000Y-80540000D02*
X169630000Y-80540000D01*
X172370000Y-80540000D02*
X172370000Y-87080000D01*
X169630000Y-87080000D02*
X169960000Y-87080000D01*
%TO.C,D1*%
X133788000Y-85795000D02*
X138028000Y-85795000D01*
X137428000Y-85795000D02*
X137428000Y-83555000D01*
X133788000Y-83555000D02*
X133788000Y-85795000D01*
X138028000Y-85795000D02*
X138028000Y-83555000D01*
X138028000Y-83555000D02*
X133788000Y-83555000D01*
X137308000Y-85795000D02*
X137308000Y-83555000D01*
X138678000Y-84675000D02*
X138028000Y-84675000D01*
X133138000Y-84675000D02*
X133788000Y-84675000D01*
X137188000Y-85795000D02*
X137188000Y-83555000D01*
%TO.C,R10*%
X132418000Y-115315000D02*
X132418000Y-114985000D01*
X132418000Y-112575000D02*
X132418000Y-112905000D01*
X138958000Y-112905000D02*
X138958000Y-112575000D01*
X138958000Y-114985000D02*
X138958000Y-115315000D01*
X138958000Y-112575000D02*
X132418000Y-112575000D01*
X138958000Y-115315000D02*
X132418000Y-115315000D01*
%TO.C,C1*%
X142233000Y-92395000D02*
X141788000Y-92395000D01*
X142233000Y-98635000D02*
X141788000Y-98635000D01*
X144528000Y-92395000D02*
X144083000Y-92395000D01*
X144528000Y-92395000D02*
X144528000Y-98635000D01*
X141788000Y-92395000D02*
X141788000Y-98635000D01*
X144528000Y-98635000D02*
X144083000Y-98635000D01*
%TO.C,R2*%
X147760000Y-80540000D02*
X147430000Y-80540000D01*
X147430000Y-80540000D02*
X147430000Y-87080000D01*
X150170000Y-80540000D02*
X150170000Y-87080000D01*
X150170000Y-87080000D02*
X149840000Y-87080000D01*
X147430000Y-87080000D02*
X147760000Y-87080000D01*
X149840000Y-80540000D02*
X150170000Y-80540000D01*
%TO.C,R11*%
X153870000Y-91120000D02*
X153540000Y-91120000D01*
X151130000Y-97660000D02*
X151130000Y-91120000D01*
X151460000Y-97660000D02*
X151130000Y-97660000D01*
X153870000Y-97660000D02*
X153870000Y-91120000D01*
X153540000Y-97660000D02*
X153870000Y-97660000D01*
X151130000Y-91120000D02*
X151460000Y-91120000D01*
%TO.C,R1*%
X138978000Y-119245000D02*
X132438000Y-119245000D01*
X138978000Y-116505000D02*
X132438000Y-116505000D01*
X132438000Y-119245000D02*
X132438000Y-118915000D01*
X138978000Y-118915000D02*
X138978000Y-119245000D01*
X138978000Y-116835000D02*
X138978000Y-116505000D01*
X132438000Y-116505000D02*
X132438000Y-116835000D01*
%TO.C,R22*%
X142198000Y-108085000D02*
X141868000Y-108085000D01*
X144278000Y-108085000D02*
X144608000Y-108085000D01*
X144608000Y-108085000D02*
X144608000Y-101545000D01*
X141868000Y-101545000D02*
X142198000Y-101545000D01*
X144608000Y-101545000D02*
X144278000Y-101545000D01*
X141868000Y-108085000D02*
X141868000Y-101545000D01*
%TO.C,J1*%
X136413000Y-81435000D02*
X141553000Y-81435000D01*
X133813000Y-81435000D02*
X133813000Y-80105000D01*
X135143000Y-81435000D02*
X133813000Y-81435000D01*
X141553000Y-81435000D02*
X141553000Y-78775000D01*
X136413000Y-81435000D02*
X136413000Y-78775000D01*
X136413000Y-78775000D02*
X141553000Y-78775000D01*
%TO.C,C2*%
X143028000Y-110335000D02*
X143028000Y-110350000D01*
X147568000Y-110335000D02*
X147568000Y-110350000D01*
X147568000Y-112460000D02*
X147568000Y-112475000D01*
X143028000Y-112475000D02*
X147568000Y-112475000D01*
X143028000Y-112460000D02*
X143028000Y-112475000D01*
X143028000Y-110335000D02*
X147568000Y-110335000D01*
%TO.C,R15*%
X164970000Y-97580000D02*
X164640000Y-97580000D01*
X162560000Y-91040000D02*
X162230000Y-91040000D01*
X162230000Y-91040000D02*
X162230000Y-97580000D01*
X164640000Y-91040000D02*
X164970000Y-91040000D01*
X162230000Y-97580000D02*
X162560000Y-97580000D01*
X164970000Y-91040000D02*
X164970000Y-97580000D01*
%TD*%
D14*
%TO.C,P1*%
X138938000Y-123825000D03*
X141478000Y-123825000D03*
X144018000Y-123825000D03*
X146558000Y-123825000D03*
X149098000Y-123825000D03*
X151638000Y-123825000D03*
X154178000Y-123825000D03*
X156718000Y-123825000D03*
%TD*%
%TO.C,P2*%
X161798000Y-123825000D03*
X164338000Y-123825000D03*
X166878000Y-123825000D03*
X169418000Y-123825000D03*
X171958000Y-123825000D03*
X174498000Y-123825000D03*
%TD*%
%TO.C,P3*%
X129794000Y-75565000D03*
X132334000Y-75565000D03*
X134874000Y-75565000D03*
X137414000Y-75565000D03*
X139954000Y-75565000D03*
X142494000Y-75565000D03*
X145034000Y-75565000D03*
X147574000Y-75565000D03*
X150114000Y-75565000D03*
X152654000Y-75565000D03*
%TD*%
%TO.C,P4*%
X156718000Y-75565000D03*
X159258000Y-75565000D03*
X161798000Y-75565000D03*
X164338000Y-75565000D03*
X166878000Y-75565000D03*
X169418000Y-75565000D03*
X171958000Y-75565000D03*
X174498000Y-75565000D03*
%TD*%
D15*
%TO.C,P5*%
X124968000Y-123825000D03*
%TD*%
%TO.C,P6*%
X177038000Y-118745000D03*
%TD*%
%TO.C,P7*%
X126238000Y-75565000D03*
%TD*%
%TO.C,P8*%
X177038000Y-90805000D03*
%TD*%
D16*
%TO.C,IN1*%
X114340300Y-95316260D03*
X114340300Y-85313740D03*
D17*
X123535200Y-97813080D03*
X123537740Y-90315000D03*
X123535200Y-82816920D03*
X126037100Y-95311180D03*
X126037100Y-85318820D03*
%TD*%
D16*
%TO.C,OUT1*%
X114390300Y-105193740D03*
X114390300Y-115196260D03*
D17*
X123585200Y-117693080D03*
X123587740Y-110195000D03*
X123585200Y-102696920D03*
X126087100Y-115191180D03*
X126087100Y-105198820D03*
%TD*%
M02*
