%TF.GenerationSoftware,KiCad,Pcbnew,(6.0.5)*%
%TF.CreationDate,2022-12-31T14:25:49+00:00*%
%TF.ProjectId,PiPicoTX816-Panel,50695069-636f-4545-9838-31362d50616e,rev?*%
%TF.SameCoordinates,Original*%
%TF.FileFunction,Legend,Top*%
%TF.FilePolarity,Positive*%
%FSLAX46Y46*%
G04 Gerber Fmt 4.6, Leading zero omitted, Abs format (unit mm)*
G04 Created by KiCad (PCBNEW (6.0.5)) date 2022-12-31 14:25:49*
%MOMM*%
%LPD*%
G01*
G04 APERTURE LIST*
%ADD10C,0.150000*%
%ADD11C,0.300000*%
%ADD12C,0.200000*%
G04 APERTURE END LIST*
D10*
X130000000Y-155000000D02*
X170000000Y-155000000D01*
X170000000Y-155000000D02*
X170000000Y-240000000D01*
X170000000Y-240000000D02*
X130000000Y-240000000D01*
X130000000Y-240000000D02*
X130000000Y-155000000D01*
X10000000Y-155000000D02*
X50000000Y-155000000D01*
X50000000Y-155000000D02*
X50000000Y-240000000D01*
X50000000Y-240000000D02*
X10000000Y-240000000D01*
X10000000Y-240000000D02*
X10000000Y-155000000D01*
X130000000Y-30000000D02*
X170000000Y-30000000D01*
X170000000Y-30000000D02*
X170000000Y-115000000D01*
X170000000Y-115000000D02*
X130000000Y-115000000D01*
X130000000Y-115000000D02*
X130000000Y-30000000D01*
X10000000Y-30000000D02*
X50000000Y-30000000D01*
X50000000Y-30000000D02*
X50000000Y-115000000D01*
X50000000Y-115000000D02*
X10000000Y-115000000D01*
X10000000Y-115000000D02*
X10000000Y-30000000D01*
X90000000Y-155000000D02*
X130000000Y-155000000D01*
X130000000Y-155000000D02*
X130000000Y-240000000D01*
X130000000Y-240000000D02*
X90000000Y-240000000D01*
X90000000Y-240000000D02*
X90000000Y-155000000D01*
X50000000Y-155000000D02*
X90000000Y-155000000D01*
X90000000Y-155000000D02*
X90000000Y-240000000D01*
X90000000Y-240000000D02*
X50000000Y-240000000D01*
X50000000Y-240000000D02*
X50000000Y-155000000D01*
X90000000Y-30000000D02*
X130000000Y-30000000D01*
X130000000Y-30000000D02*
X130000000Y-115000000D01*
X130000000Y-115000000D02*
X90000000Y-115000000D01*
X90000000Y-115000000D02*
X90000000Y-30000000D01*
X50000000Y-30000000D02*
X90000000Y-30000000D01*
X90000000Y-30000000D02*
X90000000Y-115000000D01*
X90000000Y-115000000D02*
X50000000Y-115000000D01*
X50000000Y-115000000D02*
X50000000Y-30000000D01*
D11*
X81081636Y-108630952D02*
X82510208Y-108630952D01*
X81483422Y-111130952D02*
X81795922Y-108630952D01*
X84638184Y-108750000D02*
X84414970Y-108630952D01*
X84057827Y-108630952D01*
X83685803Y-108750000D01*
X83417946Y-108988095D01*
X83269136Y-109226190D01*
X83090565Y-109702380D01*
X83045922Y-110059523D01*
X83105446Y-110535714D01*
X83194732Y-110773809D01*
X83403065Y-111011904D01*
X83745327Y-111130952D01*
X83983422Y-111130952D01*
X84355446Y-111011904D01*
X84489375Y-110892857D01*
X84593541Y-110059523D01*
X84117351Y-110059523D01*
X85694732Y-108869047D02*
X85828660Y-108750000D01*
X86081636Y-108630952D01*
X86676875Y-108630952D01*
X86900089Y-108750000D01*
X87004255Y-108869047D01*
X87093541Y-109107142D01*
X87063779Y-109345238D01*
X86900089Y-109702380D01*
X85292946Y-111130952D01*
X86840565Y-111130952D01*
D12*
X19058571Y-34365285D02*
X19058571Y-32565285D01*
X19915714Y-34365285D02*
X19915714Y-32565285D01*
X20944285Y-34365285D01*
X20944285Y-32565285D01*
X21801428Y-34365285D02*
X21801428Y-32565285D01*
X22230000Y-32565285D01*
X22487142Y-32651000D01*
X22658571Y-32822428D01*
X22744285Y-32993857D01*
X22830000Y-33336714D01*
X22830000Y-33593857D01*
X22744285Y-33936714D01*
X22658571Y-34108142D01*
X22487142Y-34279571D01*
X22230000Y-34365285D01*
X21801428Y-34365285D01*
X23601428Y-34365285D02*
X23601428Y-32565285D01*
X24458571Y-33679571D02*
X25830000Y-33679571D01*
X18801428Y-35463285D02*
X19401428Y-37263285D01*
X20001428Y-35463285D01*
X20601428Y-37263285D02*
X20601428Y-35463285D01*
X21458571Y-37263285D02*
X21458571Y-35463285D01*
X21887142Y-35463285D01*
X22144285Y-35549000D01*
X22315714Y-35720428D01*
X22401428Y-35891857D01*
X22487142Y-36234714D01*
X22487142Y-36491857D01*
X22401428Y-36834714D01*
X22315714Y-37006142D01*
X22144285Y-37177571D01*
X21887142Y-37263285D01*
X21458571Y-37263285D01*
X23258571Y-35463285D02*
X23258571Y-36920428D01*
X23344285Y-37091857D01*
X23430000Y-37177571D01*
X23601428Y-37263285D01*
X23944285Y-37263285D01*
X24115714Y-37177571D01*
X24201428Y-37091857D01*
X24287142Y-36920428D01*
X24287142Y-35463285D01*
X25058571Y-36749000D02*
X25915714Y-36749000D01*
X24887142Y-37263285D02*
X25487142Y-35463285D01*
X26087142Y-37263285D01*
X27544285Y-37263285D02*
X26687142Y-37263285D01*
X26687142Y-35463285D01*
X140087142Y-42642857D02*
X140001428Y-42728571D01*
X139744285Y-42814285D01*
X139572857Y-42814285D01*
X139315714Y-42728571D01*
X139144285Y-42557142D01*
X139058571Y-42385714D01*
X138972857Y-42042857D01*
X138972857Y-41785714D01*
X139058571Y-41442857D01*
X139144285Y-41271428D01*
X139315714Y-41100000D01*
X139572857Y-41014285D01*
X139744285Y-41014285D01*
X140001428Y-41100000D01*
X140087142Y-41185714D01*
X141201428Y-41014285D02*
X141544285Y-41014285D01*
X141715714Y-41100000D01*
X141887142Y-41271428D01*
X141972857Y-41614285D01*
X141972857Y-42214285D01*
X141887142Y-42557142D01*
X141715714Y-42728571D01*
X141544285Y-42814285D01*
X141201428Y-42814285D01*
X141030000Y-42728571D01*
X140858571Y-42557142D01*
X140772857Y-42214285D01*
X140772857Y-41614285D01*
X140858571Y-41271428D01*
X141030000Y-41100000D01*
X141201428Y-41014285D01*
X142744285Y-42814285D02*
X142744285Y-41014285D01*
X143344285Y-42300000D01*
X143944285Y-41014285D01*
X143944285Y-42814285D01*
X144801428Y-42814285D02*
X144801428Y-41014285D01*
X145401428Y-42300000D01*
X146001428Y-41014285D01*
X146001428Y-42814285D01*
X147201428Y-41014285D02*
X147544285Y-41014285D01*
X147715714Y-41100000D01*
X147887142Y-41271428D01*
X147972857Y-41614285D01*
X147972857Y-42214285D01*
X147887142Y-42557142D01*
X147715714Y-42728571D01*
X147544285Y-42814285D01*
X147201428Y-42814285D01*
X147030000Y-42728571D01*
X146858571Y-42557142D01*
X146772857Y-42214285D01*
X146772857Y-41614285D01*
X146858571Y-41271428D01*
X147030000Y-41100000D01*
X147201428Y-41014285D01*
X148744285Y-42814285D02*
X148744285Y-41014285D01*
X149772857Y-42814285D01*
X149772857Y-41014285D01*
X59058571Y-34365285D02*
X59058571Y-32565285D01*
X59915714Y-34365285D02*
X59915714Y-32565285D01*
X60944285Y-34365285D01*
X60944285Y-32565285D01*
X61801428Y-34365285D02*
X61801428Y-32565285D01*
X62230000Y-32565285D01*
X62487142Y-32651000D01*
X62658571Y-32822428D01*
X62744285Y-32993857D01*
X62830000Y-33336714D01*
X62830000Y-33593857D01*
X62744285Y-33936714D01*
X62658571Y-34108142D01*
X62487142Y-34279571D01*
X62230000Y-34365285D01*
X61801428Y-34365285D01*
X63601428Y-34365285D02*
X63601428Y-32565285D01*
X64458571Y-33679571D02*
X65830000Y-33679571D01*
X58801428Y-35463285D02*
X59401428Y-37263285D01*
X60001428Y-35463285D01*
X60601428Y-37263285D02*
X60601428Y-35463285D01*
X61458571Y-37263285D02*
X61458571Y-35463285D01*
X61887142Y-35463285D01*
X62144285Y-35549000D01*
X62315714Y-35720428D01*
X62401428Y-35891857D01*
X62487142Y-36234714D01*
X62487142Y-36491857D01*
X62401428Y-36834714D01*
X62315714Y-37006142D01*
X62144285Y-37177571D01*
X61887142Y-37263285D01*
X61458571Y-37263285D01*
X63258571Y-35463285D02*
X63258571Y-36920428D01*
X63344285Y-37091857D01*
X63430000Y-37177571D01*
X63601428Y-37263285D01*
X63944285Y-37263285D01*
X64115714Y-37177571D01*
X64201428Y-37091857D01*
X64287142Y-36920428D01*
X64287142Y-35463285D01*
X65058571Y-36749000D02*
X65915714Y-36749000D01*
X64887142Y-37263285D02*
X65487142Y-35463285D01*
X66087142Y-37263285D01*
X67544285Y-37263285D02*
X66687142Y-37263285D01*
X66687142Y-35463285D01*
D11*
X41081636Y-233630952D02*
X42510208Y-233630952D01*
X41483422Y-236130952D02*
X41795922Y-233630952D01*
X44638184Y-233750000D02*
X44414970Y-233630952D01*
X44057827Y-233630952D01*
X43685803Y-233750000D01*
X43417946Y-233988095D01*
X43269136Y-234226190D01*
X43090565Y-234702380D01*
X43045922Y-235059523D01*
X43105446Y-235535714D01*
X43194732Y-235773809D01*
X43403065Y-236011904D01*
X43745327Y-236130952D01*
X43983422Y-236130952D01*
X44355446Y-236011904D01*
X44489375Y-235892857D01*
X44593541Y-235059523D01*
X44117351Y-235059523D01*
X47034017Y-233630952D02*
X45843541Y-233630952D01*
X45575684Y-234821428D01*
X45709613Y-234702380D01*
X45962589Y-234583333D01*
X46557827Y-234583333D01*
X46781041Y-234702380D01*
X46885208Y-234821428D01*
X46974494Y-235059523D01*
X46900089Y-235654761D01*
X46751279Y-235892857D01*
X46617351Y-236011904D01*
X46364375Y-236130952D01*
X45769136Y-236130952D01*
X45545922Y-236011904D01*
X45441755Y-235892857D01*
D12*
X25542857Y-88728571D02*
X25800000Y-88814285D01*
X26228571Y-88814285D01*
X26400000Y-88728571D01*
X26485714Y-88642857D01*
X26571428Y-88471428D01*
X26571428Y-88300000D01*
X26485714Y-88128571D01*
X26400000Y-88042857D01*
X26228571Y-87957142D01*
X25885714Y-87871428D01*
X25714285Y-87785714D01*
X25628571Y-87700000D01*
X25542857Y-87528571D01*
X25542857Y-87357142D01*
X25628571Y-87185714D01*
X25714285Y-87100000D01*
X25885714Y-87014285D01*
X26314285Y-87014285D01*
X26571428Y-87100000D01*
X27342857Y-87871428D02*
X27942857Y-87871428D01*
X28200000Y-88814285D02*
X27342857Y-88814285D01*
X27342857Y-87014285D01*
X28200000Y-87014285D01*
X29828571Y-88814285D02*
X28971428Y-88814285D01*
X28971428Y-87014285D01*
X30428571Y-87871428D02*
X31028571Y-87871428D01*
X31285714Y-88814285D02*
X30428571Y-88814285D01*
X30428571Y-87014285D01*
X31285714Y-87014285D01*
X33085714Y-88642857D02*
X33000000Y-88728571D01*
X32742857Y-88814285D01*
X32571428Y-88814285D01*
X32314285Y-88728571D01*
X32142857Y-88557142D01*
X32057142Y-88385714D01*
X31971428Y-88042857D01*
X31971428Y-87785714D01*
X32057142Y-87442857D01*
X32142857Y-87271428D01*
X32314285Y-87100000D01*
X32571428Y-87014285D01*
X32742857Y-87014285D01*
X33000000Y-87100000D01*
X33085714Y-87185714D01*
X33600000Y-87014285D02*
X34628571Y-87014285D01*
X34114285Y-88814285D02*
X34114285Y-87014285D01*
D11*
X121081636Y-233630952D02*
X122510208Y-233630952D01*
X121483422Y-236130952D02*
X121795922Y-233630952D01*
X124638184Y-233750000D02*
X124414970Y-233630952D01*
X124057827Y-233630952D01*
X123685803Y-233750000D01*
X123417946Y-233988095D01*
X123269136Y-234226190D01*
X123090565Y-234702380D01*
X123045922Y-235059523D01*
X123105446Y-235535714D01*
X123194732Y-235773809D01*
X123403065Y-236011904D01*
X123745327Y-236130952D01*
X123983422Y-236130952D01*
X124355446Y-236011904D01*
X124489375Y-235892857D01*
X124593541Y-235059523D01*
X124117351Y-235059523D01*
X125605446Y-233630952D02*
X127272113Y-233630952D01*
X125888184Y-236130952D01*
D12*
X59058571Y-159365285D02*
X59058571Y-157565285D01*
X59915714Y-159365285D02*
X59915714Y-157565285D01*
X60944285Y-159365285D01*
X60944285Y-157565285D01*
X61801428Y-159365285D02*
X61801428Y-157565285D01*
X62230000Y-157565285D01*
X62487142Y-157651000D01*
X62658571Y-157822428D01*
X62744285Y-157993857D01*
X62830000Y-158336714D01*
X62830000Y-158593857D01*
X62744285Y-158936714D01*
X62658571Y-159108142D01*
X62487142Y-159279571D01*
X62230000Y-159365285D01*
X61801428Y-159365285D01*
X63601428Y-159365285D02*
X63601428Y-157565285D01*
X64458571Y-158679571D02*
X65830000Y-158679571D01*
X58801428Y-160463285D02*
X59401428Y-162263285D01*
X60001428Y-160463285D01*
X60601428Y-162263285D02*
X60601428Y-160463285D01*
X61458571Y-162263285D02*
X61458571Y-160463285D01*
X61887142Y-160463285D01*
X62144285Y-160549000D01*
X62315714Y-160720428D01*
X62401428Y-160891857D01*
X62487142Y-161234714D01*
X62487142Y-161491857D01*
X62401428Y-161834714D01*
X62315714Y-162006142D01*
X62144285Y-162177571D01*
X61887142Y-162263285D01*
X61458571Y-162263285D01*
X63258571Y-160463285D02*
X63258571Y-161920428D01*
X63344285Y-162091857D01*
X63430000Y-162177571D01*
X63601428Y-162263285D01*
X63944285Y-162263285D01*
X64115714Y-162177571D01*
X64201428Y-162091857D01*
X64287142Y-161920428D01*
X64287142Y-160463285D01*
X65058571Y-161749000D02*
X65915714Y-161749000D01*
X64887142Y-162263285D02*
X65487142Y-160463285D01*
X66087142Y-162263285D01*
X67544285Y-162263285D02*
X66687142Y-162263285D01*
X66687142Y-160463285D01*
X139058571Y-34365285D02*
X139058571Y-32565285D01*
X139915714Y-34365285D02*
X139915714Y-32565285D01*
X140944285Y-34365285D01*
X140944285Y-32565285D01*
X141801428Y-34365285D02*
X141801428Y-32565285D01*
X142230000Y-32565285D01*
X142487142Y-32651000D01*
X142658571Y-32822428D01*
X142744285Y-32993857D01*
X142830000Y-33336714D01*
X142830000Y-33593857D01*
X142744285Y-33936714D01*
X142658571Y-34108142D01*
X142487142Y-34279571D01*
X142230000Y-34365285D01*
X141801428Y-34365285D01*
X143601428Y-34365285D02*
X143601428Y-32565285D01*
X144458571Y-33679571D02*
X145830000Y-33679571D01*
X138801428Y-35463285D02*
X139401428Y-37263285D01*
X140001428Y-35463285D01*
X140601428Y-37263285D02*
X140601428Y-35463285D01*
X141458571Y-37263285D02*
X141458571Y-35463285D01*
X141887142Y-35463285D01*
X142144285Y-35549000D01*
X142315714Y-35720428D01*
X142401428Y-35891857D01*
X142487142Y-36234714D01*
X142487142Y-36491857D01*
X142401428Y-36834714D01*
X142315714Y-37006142D01*
X142144285Y-37177571D01*
X141887142Y-37263285D01*
X141458571Y-37263285D01*
X143258571Y-35463285D02*
X143258571Y-36920428D01*
X143344285Y-37091857D01*
X143430000Y-37177571D01*
X143601428Y-37263285D01*
X143944285Y-37263285D01*
X144115714Y-37177571D01*
X144201428Y-37091857D01*
X144287142Y-36920428D01*
X144287142Y-35463285D01*
X145058571Y-36749000D02*
X145915714Y-36749000D01*
X144887142Y-37263285D02*
X145487142Y-35463285D01*
X146087142Y-37263285D01*
X147544285Y-37263285D02*
X146687142Y-37263285D01*
X146687142Y-35463285D01*
X105542857Y-88728571D02*
X105800000Y-88814285D01*
X106228571Y-88814285D01*
X106400000Y-88728571D01*
X106485714Y-88642857D01*
X106571428Y-88471428D01*
X106571428Y-88300000D01*
X106485714Y-88128571D01*
X106400000Y-88042857D01*
X106228571Y-87957142D01*
X105885714Y-87871428D01*
X105714285Y-87785714D01*
X105628571Y-87700000D01*
X105542857Y-87528571D01*
X105542857Y-87357142D01*
X105628571Y-87185714D01*
X105714285Y-87100000D01*
X105885714Y-87014285D01*
X106314285Y-87014285D01*
X106571428Y-87100000D01*
X107342857Y-87871428D02*
X107942857Y-87871428D01*
X108200000Y-88814285D02*
X107342857Y-88814285D01*
X107342857Y-87014285D01*
X108200000Y-87014285D01*
X109828571Y-88814285D02*
X108971428Y-88814285D01*
X108971428Y-87014285D01*
X110428571Y-87871428D02*
X111028571Y-87871428D01*
X111285714Y-88814285D02*
X110428571Y-88814285D01*
X110428571Y-87014285D01*
X111285714Y-87014285D01*
X113085714Y-88642857D02*
X113000000Y-88728571D01*
X112742857Y-88814285D01*
X112571428Y-88814285D01*
X112314285Y-88728571D01*
X112142857Y-88557142D01*
X112057142Y-88385714D01*
X111971428Y-88042857D01*
X111971428Y-87785714D01*
X112057142Y-87442857D01*
X112142857Y-87271428D01*
X112314285Y-87100000D01*
X112571428Y-87014285D01*
X112742857Y-87014285D01*
X113000000Y-87100000D01*
X113085714Y-87185714D01*
X113600000Y-87014285D02*
X114628571Y-87014285D01*
X114114285Y-88814285D02*
X114114285Y-87014285D01*
X100087142Y-167642857D02*
X100001428Y-167728571D01*
X99744285Y-167814285D01*
X99572857Y-167814285D01*
X99315714Y-167728571D01*
X99144285Y-167557142D01*
X99058571Y-167385714D01*
X98972857Y-167042857D01*
X98972857Y-166785714D01*
X99058571Y-166442857D01*
X99144285Y-166271428D01*
X99315714Y-166100000D01*
X99572857Y-166014285D01*
X99744285Y-166014285D01*
X100001428Y-166100000D01*
X100087142Y-166185714D01*
X101201428Y-166014285D02*
X101544285Y-166014285D01*
X101715714Y-166100000D01*
X101887142Y-166271428D01*
X101972857Y-166614285D01*
X101972857Y-167214285D01*
X101887142Y-167557142D01*
X101715714Y-167728571D01*
X101544285Y-167814285D01*
X101201428Y-167814285D01*
X101030000Y-167728571D01*
X100858571Y-167557142D01*
X100772857Y-167214285D01*
X100772857Y-166614285D01*
X100858571Y-166271428D01*
X101030000Y-166100000D01*
X101201428Y-166014285D01*
X102744285Y-167814285D02*
X102744285Y-166014285D01*
X103344285Y-167300000D01*
X103944285Y-166014285D01*
X103944285Y-167814285D01*
X104801428Y-167814285D02*
X104801428Y-166014285D01*
X105401428Y-167300000D01*
X106001428Y-166014285D01*
X106001428Y-167814285D01*
X107201428Y-166014285D02*
X107544285Y-166014285D01*
X107715714Y-166100000D01*
X107887142Y-166271428D01*
X107972857Y-166614285D01*
X107972857Y-167214285D01*
X107887142Y-167557142D01*
X107715714Y-167728571D01*
X107544285Y-167814285D01*
X107201428Y-167814285D01*
X107030000Y-167728571D01*
X106858571Y-167557142D01*
X106772857Y-167214285D01*
X106772857Y-166614285D01*
X106858571Y-166271428D01*
X107030000Y-166100000D01*
X107201428Y-166014285D01*
X108744285Y-167814285D02*
X108744285Y-166014285D01*
X109772857Y-167814285D01*
X109772857Y-166014285D01*
D11*
X81081636Y-233630952D02*
X82510208Y-233630952D01*
X81483422Y-236130952D02*
X81795922Y-233630952D01*
X84638184Y-233750000D02*
X84414970Y-233630952D01*
X84057827Y-233630952D01*
X83685803Y-233750000D01*
X83417946Y-233988095D01*
X83269136Y-234226190D01*
X83090565Y-234702380D01*
X83045922Y-235059523D01*
X83105446Y-235535714D01*
X83194732Y-235773809D01*
X83403065Y-236011904D01*
X83745327Y-236130952D01*
X83983422Y-236130952D01*
X84355446Y-236011904D01*
X84489375Y-235892857D01*
X84593541Y-235059523D01*
X84117351Y-235059523D01*
X86914970Y-233630952D02*
X86438779Y-233630952D01*
X86185803Y-233750000D01*
X86051875Y-233869047D01*
X85769136Y-234226190D01*
X85590565Y-234702380D01*
X85471517Y-235654761D01*
X85560803Y-235892857D01*
X85664970Y-236011904D01*
X85888184Y-236130952D01*
X86364375Y-236130952D01*
X86617351Y-236011904D01*
X86751279Y-235892857D01*
X86900089Y-235654761D01*
X86974494Y-235059523D01*
X86885208Y-234821428D01*
X86781041Y-234702380D01*
X86557827Y-234583333D01*
X86081636Y-234583333D01*
X85828660Y-234702380D01*
X85694732Y-234821428D01*
X85545922Y-235059523D01*
D12*
X105542857Y-213728571D02*
X105800000Y-213814285D01*
X106228571Y-213814285D01*
X106400000Y-213728571D01*
X106485714Y-213642857D01*
X106571428Y-213471428D01*
X106571428Y-213300000D01*
X106485714Y-213128571D01*
X106400000Y-213042857D01*
X106228571Y-212957142D01*
X105885714Y-212871428D01*
X105714285Y-212785714D01*
X105628571Y-212700000D01*
X105542857Y-212528571D01*
X105542857Y-212357142D01*
X105628571Y-212185714D01*
X105714285Y-212100000D01*
X105885714Y-212014285D01*
X106314285Y-212014285D01*
X106571428Y-212100000D01*
X107342857Y-212871428D02*
X107942857Y-212871428D01*
X108200000Y-213814285D02*
X107342857Y-213814285D01*
X107342857Y-212014285D01*
X108200000Y-212014285D01*
X109828571Y-213814285D02*
X108971428Y-213814285D01*
X108971428Y-212014285D01*
X110428571Y-212871428D02*
X111028571Y-212871428D01*
X111285714Y-213814285D02*
X110428571Y-213814285D01*
X110428571Y-212014285D01*
X111285714Y-212014285D01*
X113085714Y-213642857D02*
X113000000Y-213728571D01*
X112742857Y-213814285D01*
X112571428Y-213814285D01*
X112314285Y-213728571D01*
X112142857Y-213557142D01*
X112057142Y-213385714D01*
X111971428Y-213042857D01*
X111971428Y-212785714D01*
X112057142Y-212442857D01*
X112142857Y-212271428D01*
X112314285Y-212100000D01*
X112571428Y-212014285D01*
X112742857Y-212014285D01*
X113000000Y-212100000D01*
X113085714Y-212185714D01*
X113600000Y-212014285D02*
X114628571Y-212014285D01*
X114114285Y-213814285D02*
X114114285Y-212014285D01*
D11*
X161081636Y-108630952D02*
X162510208Y-108630952D01*
X161483422Y-111130952D02*
X161795922Y-108630952D01*
X164638184Y-108750000D02*
X164414970Y-108630952D01*
X164057827Y-108630952D01*
X163685803Y-108750000D01*
X163417946Y-108988095D01*
X163269136Y-109226190D01*
X163090565Y-109702380D01*
X163045922Y-110059523D01*
X163105446Y-110535714D01*
X163194732Y-110773809D01*
X163403065Y-111011904D01*
X163745327Y-111130952D01*
X163983422Y-111130952D01*
X164355446Y-111011904D01*
X164489375Y-110892857D01*
X164593541Y-110059523D01*
X164117351Y-110059523D01*
X166810803Y-109464285D02*
X166602470Y-111130952D01*
X166334613Y-108511904D02*
X165516160Y-110297619D01*
X167063779Y-110297619D01*
D12*
X19058571Y-159365285D02*
X19058571Y-157565285D01*
X19915714Y-159365285D02*
X19915714Y-157565285D01*
X20944285Y-159365285D01*
X20944285Y-157565285D01*
X21801428Y-159365285D02*
X21801428Y-157565285D01*
X22230000Y-157565285D01*
X22487142Y-157651000D01*
X22658571Y-157822428D01*
X22744285Y-157993857D01*
X22830000Y-158336714D01*
X22830000Y-158593857D01*
X22744285Y-158936714D01*
X22658571Y-159108142D01*
X22487142Y-159279571D01*
X22230000Y-159365285D01*
X21801428Y-159365285D01*
X23601428Y-159365285D02*
X23601428Y-157565285D01*
X24458571Y-158679571D02*
X25830000Y-158679571D01*
X18801428Y-160463285D02*
X19401428Y-162263285D01*
X20001428Y-160463285D01*
X20601428Y-162263285D02*
X20601428Y-160463285D01*
X21458571Y-162263285D02*
X21458571Y-160463285D01*
X21887142Y-160463285D01*
X22144285Y-160549000D01*
X22315714Y-160720428D01*
X22401428Y-160891857D01*
X22487142Y-161234714D01*
X22487142Y-161491857D01*
X22401428Y-161834714D01*
X22315714Y-162006142D01*
X22144285Y-162177571D01*
X21887142Y-162263285D01*
X21458571Y-162263285D01*
X23258571Y-160463285D02*
X23258571Y-161920428D01*
X23344285Y-162091857D01*
X23430000Y-162177571D01*
X23601428Y-162263285D01*
X23944285Y-162263285D01*
X24115714Y-162177571D01*
X24201428Y-162091857D01*
X24287142Y-161920428D01*
X24287142Y-160463285D01*
X25058571Y-161749000D02*
X25915714Y-161749000D01*
X24887142Y-162263285D02*
X25487142Y-160463285D01*
X26087142Y-162263285D01*
X27544285Y-162263285D02*
X26687142Y-162263285D01*
X26687142Y-160463285D01*
D11*
X41081636Y-108630952D02*
X42510208Y-108630952D01*
X41483422Y-111130952D02*
X41795922Y-108630952D01*
X44638184Y-108750000D02*
X44414970Y-108630952D01*
X44057827Y-108630952D01*
X43685803Y-108750000D01*
X43417946Y-108988095D01*
X43269136Y-109226190D01*
X43090565Y-109702380D01*
X43045922Y-110059523D01*
X43105446Y-110535714D01*
X43194732Y-110773809D01*
X43403065Y-111011904D01*
X43745327Y-111130952D01*
X43983422Y-111130952D01*
X44355446Y-111011904D01*
X44489375Y-110892857D01*
X44593541Y-110059523D01*
X44117351Y-110059523D01*
X46840565Y-111130952D02*
X45411994Y-111130952D01*
X46126279Y-111130952D02*
X46438779Y-108630952D01*
X46156041Y-108988095D01*
X45888184Y-109226190D01*
X45635208Y-109345238D01*
D12*
X103742857Y-125814285D02*
X103742857Y-124014285D01*
X104342857Y-125300000D01*
X104942857Y-124014285D01*
X104942857Y-125814285D01*
X105800000Y-125814285D02*
X105800000Y-124614285D01*
X105800000Y-124014285D02*
X105714285Y-124100000D01*
X105800000Y-124185714D01*
X105885714Y-124100000D01*
X105800000Y-124014285D01*
X105800000Y-124185714D01*
X106657142Y-124614285D02*
X106657142Y-125814285D01*
X106657142Y-124785714D02*
X106742857Y-124700000D01*
X106914285Y-124614285D01*
X107171428Y-124614285D01*
X107342857Y-124700000D01*
X107428571Y-124871428D01*
X107428571Y-125814285D01*
X108285714Y-125814285D02*
X108285714Y-124614285D01*
X108285714Y-124014285D02*
X108200000Y-124100000D01*
X108285714Y-124185714D01*
X108371428Y-124100000D01*
X108285714Y-124014285D01*
X108285714Y-124185714D01*
X109142857Y-125814285D02*
X109142857Y-124014285D01*
X109571428Y-124014285D01*
X109828571Y-124100000D01*
X110000000Y-124271428D01*
X110085714Y-124442857D01*
X110171428Y-124785714D01*
X110171428Y-125042857D01*
X110085714Y-125385714D01*
X110000000Y-125557142D01*
X109828571Y-125728571D01*
X109571428Y-125814285D01*
X109142857Y-125814285D01*
X111628571Y-125728571D02*
X111457142Y-125814285D01*
X111114285Y-125814285D01*
X110942857Y-125728571D01*
X110857142Y-125557142D01*
X110857142Y-124871428D01*
X110942857Y-124700000D01*
X111114285Y-124614285D01*
X111457142Y-124614285D01*
X111628571Y-124700000D01*
X111714285Y-124871428D01*
X111714285Y-125042857D01*
X110857142Y-125214285D01*
X112314285Y-125814285D02*
X113257142Y-124614285D01*
X112314285Y-124614285D02*
X113257142Y-125814285D01*
X114628571Y-125728571D02*
X114457142Y-125814285D01*
X114114285Y-125814285D01*
X113942857Y-125728571D01*
X113857142Y-125557142D01*
X113857142Y-124871428D01*
X113942857Y-124700000D01*
X114114285Y-124614285D01*
X114457142Y-124614285D01*
X114628571Y-124700000D01*
X114714285Y-124871428D01*
X114714285Y-125042857D01*
X113857142Y-125214285D01*
X116257142Y-125814285D02*
X116257142Y-124014285D01*
X116257142Y-125728571D02*
X116085714Y-125814285D01*
X115742857Y-125814285D01*
X115571428Y-125728571D01*
X115485714Y-125642857D01*
X115400000Y-125471428D01*
X115400000Y-124957142D01*
X115485714Y-124785714D01*
X115571428Y-124700000D01*
X115742857Y-124614285D01*
X116085714Y-124614285D01*
X116257142Y-124700000D01*
X60087142Y-42642857D02*
X60001428Y-42728571D01*
X59744285Y-42814285D01*
X59572857Y-42814285D01*
X59315714Y-42728571D01*
X59144285Y-42557142D01*
X59058571Y-42385714D01*
X58972857Y-42042857D01*
X58972857Y-41785714D01*
X59058571Y-41442857D01*
X59144285Y-41271428D01*
X59315714Y-41100000D01*
X59572857Y-41014285D01*
X59744285Y-41014285D01*
X60001428Y-41100000D01*
X60087142Y-41185714D01*
X61201428Y-41014285D02*
X61544285Y-41014285D01*
X61715714Y-41100000D01*
X61887142Y-41271428D01*
X61972857Y-41614285D01*
X61972857Y-42214285D01*
X61887142Y-42557142D01*
X61715714Y-42728571D01*
X61544285Y-42814285D01*
X61201428Y-42814285D01*
X61030000Y-42728571D01*
X60858571Y-42557142D01*
X60772857Y-42214285D01*
X60772857Y-41614285D01*
X60858571Y-41271428D01*
X61030000Y-41100000D01*
X61201428Y-41014285D01*
X62744285Y-42814285D02*
X62744285Y-41014285D01*
X63344285Y-42300000D01*
X63944285Y-41014285D01*
X63944285Y-42814285D01*
X64801428Y-42814285D02*
X64801428Y-41014285D01*
X65401428Y-42300000D01*
X66001428Y-41014285D01*
X66001428Y-42814285D01*
X67201428Y-41014285D02*
X67544285Y-41014285D01*
X67715714Y-41100000D01*
X67887142Y-41271428D01*
X67972857Y-41614285D01*
X67972857Y-42214285D01*
X67887142Y-42557142D01*
X67715714Y-42728571D01*
X67544285Y-42814285D01*
X67201428Y-42814285D01*
X67030000Y-42728571D01*
X66858571Y-42557142D01*
X66772857Y-42214285D01*
X66772857Y-41614285D01*
X66858571Y-41271428D01*
X67030000Y-41100000D01*
X67201428Y-41014285D01*
X68744285Y-42814285D02*
X68744285Y-41014285D01*
X69772857Y-42814285D01*
X69772857Y-41014285D01*
D11*
X161081636Y-233630952D02*
X162510208Y-233630952D01*
X161483422Y-236130952D02*
X161795922Y-233630952D01*
X164638184Y-233750000D02*
X164414970Y-233630952D01*
X164057827Y-233630952D01*
X163685803Y-233750000D01*
X163417946Y-233988095D01*
X163269136Y-234226190D01*
X163090565Y-234702380D01*
X163045922Y-235059523D01*
X163105446Y-235535714D01*
X163194732Y-235773809D01*
X163403065Y-236011904D01*
X163745327Y-236130952D01*
X163983422Y-236130952D01*
X164355446Y-236011904D01*
X164489375Y-235892857D01*
X164593541Y-235059523D01*
X164117351Y-235059523D01*
X166066755Y-234702380D02*
X165843541Y-234583333D01*
X165739375Y-234464285D01*
X165650089Y-234226190D01*
X165664970Y-234107142D01*
X165813779Y-233869047D01*
X165947708Y-233750000D01*
X166200684Y-233630952D01*
X166676875Y-233630952D01*
X166900089Y-233750000D01*
X167004255Y-233869047D01*
X167093541Y-234107142D01*
X167078660Y-234226190D01*
X166929851Y-234464285D01*
X166795922Y-234583333D01*
X166542946Y-234702380D01*
X166066755Y-234702380D01*
X165813779Y-234821428D01*
X165679851Y-234940476D01*
X165531041Y-235178571D01*
X165471517Y-235654761D01*
X165560803Y-235892857D01*
X165664970Y-236011904D01*
X165888184Y-236130952D01*
X166364375Y-236130952D01*
X166617351Y-236011904D01*
X166751279Y-235892857D01*
X166900089Y-235654761D01*
X166959613Y-235178571D01*
X166870327Y-234940476D01*
X166766160Y-234821428D01*
X166542946Y-234702380D01*
D12*
X100087142Y-42642857D02*
X100001428Y-42728571D01*
X99744285Y-42814285D01*
X99572857Y-42814285D01*
X99315714Y-42728571D01*
X99144285Y-42557142D01*
X99058571Y-42385714D01*
X98972857Y-42042857D01*
X98972857Y-41785714D01*
X99058571Y-41442857D01*
X99144285Y-41271428D01*
X99315714Y-41100000D01*
X99572857Y-41014285D01*
X99744285Y-41014285D01*
X100001428Y-41100000D01*
X100087142Y-41185714D01*
X101201428Y-41014285D02*
X101544285Y-41014285D01*
X101715714Y-41100000D01*
X101887142Y-41271428D01*
X101972857Y-41614285D01*
X101972857Y-42214285D01*
X101887142Y-42557142D01*
X101715714Y-42728571D01*
X101544285Y-42814285D01*
X101201428Y-42814285D01*
X101030000Y-42728571D01*
X100858571Y-42557142D01*
X100772857Y-42214285D01*
X100772857Y-41614285D01*
X100858571Y-41271428D01*
X101030000Y-41100000D01*
X101201428Y-41014285D01*
X102744285Y-42814285D02*
X102744285Y-41014285D01*
X103344285Y-42300000D01*
X103944285Y-41014285D01*
X103944285Y-42814285D01*
X104801428Y-42814285D02*
X104801428Y-41014285D01*
X105401428Y-42300000D01*
X106001428Y-41014285D01*
X106001428Y-42814285D01*
X107201428Y-41014285D02*
X107544285Y-41014285D01*
X107715714Y-41100000D01*
X107887142Y-41271428D01*
X107972857Y-41614285D01*
X107972857Y-42214285D01*
X107887142Y-42557142D01*
X107715714Y-42728571D01*
X107544285Y-42814285D01*
X107201428Y-42814285D01*
X107030000Y-42728571D01*
X106858571Y-42557142D01*
X106772857Y-42214285D01*
X106772857Y-41614285D01*
X106858571Y-41271428D01*
X107030000Y-41100000D01*
X107201428Y-41014285D01*
X108744285Y-42814285D02*
X108744285Y-41014285D01*
X109772857Y-42814285D01*
X109772857Y-41014285D01*
X134057142Y-135814285D02*
X134057142Y-134014285D01*
X134914285Y-135814285D02*
X134914285Y-134014285D01*
X135942857Y-135814285D01*
X135942857Y-134014285D01*
X20087142Y-42642857D02*
X20001428Y-42728571D01*
X19744285Y-42814285D01*
X19572857Y-42814285D01*
X19315714Y-42728571D01*
X19144285Y-42557142D01*
X19058571Y-42385714D01*
X18972857Y-42042857D01*
X18972857Y-41785714D01*
X19058571Y-41442857D01*
X19144285Y-41271428D01*
X19315714Y-41100000D01*
X19572857Y-41014285D01*
X19744285Y-41014285D01*
X20001428Y-41100000D01*
X20087142Y-41185714D01*
X21201428Y-41014285D02*
X21544285Y-41014285D01*
X21715714Y-41100000D01*
X21887142Y-41271428D01*
X21972857Y-41614285D01*
X21972857Y-42214285D01*
X21887142Y-42557142D01*
X21715714Y-42728571D01*
X21544285Y-42814285D01*
X21201428Y-42814285D01*
X21030000Y-42728571D01*
X20858571Y-42557142D01*
X20772857Y-42214285D01*
X20772857Y-41614285D01*
X20858571Y-41271428D01*
X21030000Y-41100000D01*
X21201428Y-41014285D01*
X22744285Y-42814285D02*
X22744285Y-41014285D01*
X23344285Y-42300000D01*
X23944285Y-41014285D01*
X23944285Y-42814285D01*
X24801428Y-42814285D02*
X24801428Y-41014285D01*
X25401428Y-42300000D01*
X26001428Y-41014285D01*
X26001428Y-42814285D01*
X27201428Y-41014285D02*
X27544285Y-41014285D01*
X27715714Y-41100000D01*
X27887142Y-41271428D01*
X27972857Y-41614285D01*
X27972857Y-42214285D01*
X27887142Y-42557142D01*
X27715714Y-42728571D01*
X27544285Y-42814285D01*
X27201428Y-42814285D01*
X27030000Y-42728571D01*
X26858571Y-42557142D01*
X26772857Y-42214285D01*
X26772857Y-41614285D01*
X26858571Y-41271428D01*
X27030000Y-41100000D01*
X27201428Y-41014285D01*
X28744285Y-42814285D02*
X28744285Y-41014285D01*
X29772857Y-42814285D01*
X29772857Y-41014285D01*
X99058571Y-34365285D02*
X99058571Y-32565285D01*
X99915714Y-34365285D02*
X99915714Y-32565285D01*
X100944285Y-34365285D01*
X100944285Y-32565285D01*
X101801428Y-34365285D02*
X101801428Y-32565285D01*
X102230000Y-32565285D01*
X102487142Y-32651000D01*
X102658571Y-32822428D01*
X102744285Y-32993857D01*
X102830000Y-33336714D01*
X102830000Y-33593857D01*
X102744285Y-33936714D01*
X102658571Y-34108142D01*
X102487142Y-34279571D01*
X102230000Y-34365285D01*
X101801428Y-34365285D01*
X103601428Y-34365285D02*
X103601428Y-32565285D01*
X104458571Y-33679571D02*
X105830000Y-33679571D01*
X98801428Y-35463285D02*
X99401428Y-37263285D01*
X100001428Y-35463285D01*
X100601428Y-37263285D02*
X100601428Y-35463285D01*
X101458571Y-37263285D02*
X101458571Y-35463285D01*
X101887142Y-35463285D01*
X102144285Y-35549000D01*
X102315714Y-35720428D01*
X102401428Y-35891857D01*
X102487142Y-36234714D01*
X102487142Y-36491857D01*
X102401428Y-36834714D01*
X102315714Y-37006142D01*
X102144285Y-37177571D01*
X101887142Y-37263285D01*
X101458571Y-37263285D01*
X103258571Y-35463285D02*
X103258571Y-36920428D01*
X103344285Y-37091857D01*
X103430000Y-37177571D01*
X103601428Y-37263285D01*
X103944285Y-37263285D01*
X104115714Y-37177571D01*
X104201428Y-37091857D01*
X104287142Y-36920428D01*
X104287142Y-35463285D01*
X105058571Y-36749000D02*
X105915714Y-36749000D01*
X104887142Y-37263285D02*
X105487142Y-35463285D01*
X106087142Y-37263285D01*
X107544285Y-37263285D02*
X106687142Y-37263285D01*
X106687142Y-35463285D01*
X99058571Y-159365285D02*
X99058571Y-157565285D01*
X99915714Y-159365285D02*
X99915714Y-157565285D01*
X100944285Y-159365285D01*
X100944285Y-157565285D01*
X101801428Y-159365285D02*
X101801428Y-157565285D01*
X102230000Y-157565285D01*
X102487142Y-157651000D01*
X102658571Y-157822428D01*
X102744285Y-157993857D01*
X102830000Y-158336714D01*
X102830000Y-158593857D01*
X102744285Y-158936714D01*
X102658571Y-159108142D01*
X102487142Y-159279571D01*
X102230000Y-159365285D01*
X101801428Y-159365285D01*
X103601428Y-159365285D02*
X103601428Y-157565285D01*
X104458571Y-158679571D02*
X105830000Y-158679571D01*
X98801428Y-160463285D02*
X99401428Y-162263285D01*
X100001428Y-160463285D01*
X100601428Y-162263285D02*
X100601428Y-160463285D01*
X101458571Y-162263285D02*
X101458571Y-160463285D01*
X101887142Y-160463285D01*
X102144285Y-160549000D01*
X102315714Y-160720428D01*
X102401428Y-160891857D01*
X102487142Y-161234714D01*
X102487142Y-161491857D01*
X102401428Y-161834714D01*
X102315714Y-162006142D01*
X102144285Y-162177571D01*
X101887142Y-162263285D01*
X101458571Y-162263285D01*
X103258571Y-160463285D02*
X103258571Y-161920428D01*
X103344285Y-162091857D01*
X103430000Y-162177571D01*
X103601428Y-162263285D01*
X103944285Y-162263285D01*
X104115714Y-162177571D01*
X104201428Y-162091857D01*
X104287142Y-161920428D01*
X104287142Y-160463285D01*
X105058571Y-161749000D02*
X105915714Y-161749000D01*
X104887142Y-162263285D02*
X105487142Y-160463285D01*
X106087142Y-162263285D01*
X107544285Y-162263285D02*
X106687142Y-162263285D01*
X106687142Y-160463285D01*
X145542857Y-88728571D02*
X145800000Y-88814285D01*
X146228571Y-88814285D01*
X146400000Y-88728571D01*
X146485714Y-88642857D01*
X146571428Y-88471428D01*
X146571428Y-88300000D01*
X146485714Y-88128571D01*
X146400000Y-88042857D01*
X146228571Y-87957142D01*
X145885714Y-87871428D01*
X145714285Y-87785714D01*
X145628571Y-87700000D01*
X145542857Y-87528571D01*
X145542857Y-87357142D01*
X145628571Y-87185714D01*
X145714285Y-87100000D01*
X145885714Y-87014285D01*
X146314285Y-87014285D01*
X146571428Y-87100000D01*
X147342857Y-87871428D02*
X147942857Y-87871428D01*
X148200000Y-88814285D02*
X147342857Y-88814285D01*
X147342857Y-87014285D01*
X148200000Y-87014285D01*
X149828571Y-88814285D02*
X148971428Y-88814285D01*
X148971428Y-87014285D01*
X150428571Y-87871428D02*
X151028571Y-87871428D01*
X151285714Y-88814285D02*
X150428571Y-88814285D01*
X150428571Y-87014285D01*
X151285714Y-87014285D01*
X153085714Y-88642857D02*
X153000000Y-88728571D01*
X152742857Y-88814285D01*
X152571428Y-88814285D01*
X152314285Y-88728571D01*
X152142857Y-88557142D01*
X152057142Y-88385714D01*
X151971428Y-88042857D01*
X151971428Y-87785714D01*
X152057142Y-87442857D01*
X152142857Y-87271428D01*
X152314285Y-87100000D01*
X152571428Y-87014285D01*
X152742857Y-87014285D01*
X153000000Y-87100000D01*
X153085714Y-87185714D01*
X153600000Y-87014285D02*
X154628571Y-87014285D01*
X154114285Y-88814285D02*
X154114285Y-87014285D01*
D11*
X121081636Y-108630952D02*
X122510208Y-108630952D01*
X121483422Y-111130952D02*
X121795922Y-108630952D01*
X124638184Y-108750000D02*
X124414970Y-108630952D01*
X124057827Y-108630952D01*
X123685803Y-108750000D01*
X123417946Y-108988095D01*
X123269136Y-109226190D01*
X123090565Y-109702380D01*
X123045922Y-110059523D01*
X123105446Y-110535714D01*
X123194732Y-110773809D01*
X123403065Y-111011904D01*
X123745327Y-111130952D01*
X123983422Y-111130952D01*
X124355446Y-111011904D01*
X124489375Y-110892857D01*
X124593541Y-110059523D01*
X124117351Y-110059523D01*
X125605446Y-108630952D02*
X127153065Y-108630952D01*
X126200684Y-109583333D01*
X126557827Y-109583333D01*
X126781041Y-109702380D01*
X126885208Y-109821428D01*
X126974494Y-110059523D01*
X126900089Y-110654761D01*
X126751279Y-110892857D01*
X126617351Y-111011904D01*
X126364375Y-111130952D01*
X125650089Y-111130952D01*
X125426875Y-111011904D01*
X125322708Y-110892857D01*
D12*
X20087142Y-167642857D02*
X20001428Y-167728571D01*
X19744285Y-167814285D01*
X19572857Y-167814285D01*
X19315714Y-167728571D01*
X19144285Y-167557142D01*
X19058571Y-167385714D01*
X18972857Y-167042857D01*
X18972857Y-166785714D01*
X19058571Y-166442857D01*
X19144285Y-166271428D01*
X19315714Y-166100000D01*
X19572857Y-166014285D01*
X19744285Y-166014285D01*
X20001428Y-166100000D01*
X20087142Y-166185714D01*
X21201428Y-166014285D02*
X21544285Y-166014285D01*
X21715714Y-166100000D01*
X21887142Y-166271428D01*
X21972857Y-166614285D01*
X21972857Y-167214285D01*
X21887142Y-167557142D01*
X21715714Y-167728571D01*
X21544285Y-167814285D01*
X21201428Y-167814285D01*
X21030000Y-167728571D01*
X20858571Y-167557142D01*
X20772857Y-167214285D01*
X20772857Y-166614285D01*
X20858571Y-166271428D01*
X21030000Y-166100000D01*
X21201428Y-166014285D01*
X22744285Y-167814285D02*
X22744285Y-166014285D01*
X23344285Y-167300000D01*
X23944285Y-166014285D01*
X23944285Y-167814285D01*
X24801428Y-167814285D02*
X24801428Y-166014285D01*
X25401428Y-167300000D01*
X26001428Y-166014285D01*
X26001428Y-167814285D01*
X27201428Y-166014285D02*
X27544285Y-166014285D01*
X27715714Y-166100000D01*
X27887142Y-166271428D01*
X27972857Y-166614285D01*
X27972857Y-167214285D01*
X27887142Y-167557142D01*
X27715714Y-167728571D01*
X27544285Y-167814285D01*
X27201428Y-167814285D01*
X27030000Y-167728571D01*
X26858571Y-167557142D01*
X26772857Y-167214285D01*
X26772857Y-166614285D01*
X26858571Y-166271428D01*
X27030000Y-166100000D01*
X27201428Y-166014285D01*
X28744285Y-167814285D02*
X28744285Y-166014285D01*
X29772857Y-167814285D01*
X29772857Y-166014285D01*
X60087142Y-167642857D02*
X60001428Y-167728571D01*
X59744285Y-167814285D01*
X59572857Y-167814285D01*
X59315714Y-167728571D01*
X59144285Y-167557142D01*
X59058571Y-167385714D01*
X58972857Y-167042857D01*
X58972857Y-166785714D01*
X59058571Y-166442857D01*
X59144285Y-166271428D01*
X59315714Y-166100000D01*
X59572857Y-166014285D01*
X59744285Y-166014285D01*
X60001428Y-166100000D01*
X60087142Y-166185714D01*
X61201428Y-166014285D02*
X61544285Y-166014285D01*
X61715714Y-166100000D01*
X61887142Y-166271428D01*
X61972857Y-166614285D01*
X61972857Y-167214285D01*
X61887142Y-167557142D01*
X61715714Y-167728571D01*
X61544285Y-167814285D01*
X61201428Y-167814285D01*
X61030000Y-167728571D01*
X60858571Y-167557142D01*
X60772857Y-167214285D01*
X60772857Y-166614285D01*
X60858571Y-166271428D01*
X61030000Y-166100000D01*
X61201428Y-166014285D01*
X62744285Y-167814285D02*
X62744285Y-166014285D01*
X63344285Y-167300000D01*
X63944285Y-166014285D01*
X63944285Y-167814285D01*
X64801428Y-167814285D02*
X64801428Y-166014285D01*
X65401428Y-167300000D01*
X66001428Y-166014285D01*
X66001428Y-167814285D01*
X67201428Y-166014285D02*
X67544285Y-166014285D01*
X67715714Y-166100000D01*
X67887142Y-166271428D01*
X67972857Y-166614285D01*
X67972857Y-167214285D01*
X67887142Y-167557142D01*
X67715714Y-167728571D01*
X67544285Y-167814285D01*
X67201428Y-167814285D01*
X67030000Y-167728571D01*
X66858571Y-167557142D01*
X66772857Y-167214285D01*
X66772857Y-166614285D01*
X66858571Y-166271428D01*
X67030000Y-166100000D01*
X67201428Y-166014285D01*
X68744285Y-167814285D02*
X68744285Y-166014285D01*
X69772857Y-167814285D01*
X69772857Y-166014285D01*
X25542857Y-213728571D02*
X25800000Y-213814285D01*
X26228571Y-213814285D01*
X26400000Y-213728571D01*
X26485714Y-213642857D01*
X26571428Y-213471428D01*
X26571428Y-213300000D01*
X26485714Y-213128571D01*
X26400000Y-213042857D01*
X26228571Y-212957142D01*
X25885714Y-212871428D01*
X25714285Y-212785714D01*
X25628571Y-212700000D01*
X25542857Y-212528571D01*
X25542857Y-212357142D01*
X25628571Y-212185714D01*
X25714285Y-212100000D01*
X25885714Y-212014285D01*
X26314285Y-212014285D01*
X26571428Y-212100000D01*
X27342857Y-212871428D02*
X27942857Y-212871428D01*
X28200000Y-213814285D02*
X27342857Y-213814285D01*
X27342857Y-212014285D01*
X28200000Y-212014285D01*
X29828571Y-213814285D02*
X28971428Y-213814285D01*
X28971428Y-212014285D01*
X30428571Y-212871428D02*
X31028571Y-212871428D01*
X31285714Y-213814285D02*
X30428571Y-213814285D01*
X30428571Y-212014285D01*
X31285714Y-212014285D01*
X33085714Y-213642857D02*
X33000000Y-213728571D01*
X32742857Y-213814285D01*
X32571428Y-213814285D01*
X32314285Y-213728571D01*
X32142857Y-213557142D01*
X32057142Y-213385714D01*
X31971428Y-213042857D01*
X31971428Y-212785714D01*
X32057142Y-212442857D01*
X32142857Y-212271428D01*
X32314285Y-212100000D01*
X32571428Y-212014285D01*
X32742857Y-212014285D01*
X33000000Y-212100000D01*
X33085714Y-212185714D01*
X33600000Y-212014285D02*
X34628571Y-212014285D01*
X34114285Y-213814285D02*
X34114285Y-212014285D01*
X20842857Y-122814285D02*
X20842857Y-121014285D01*
X21528571Y-121014285D01*
X21700000Y-121100000D01*
X21785714Y-121185714D01*
X21871428Y-121357142D01*
X21871428Y-121614285D01*
X21785714Y-121785714D01*
X21700000Y-121871428D01*
X21528571Y-121957142D01*
X20842857Y-121957142D01*
X22985714Y-121014285D02*
X23328571Y-121014285D01*
X23500000Y-121100000D01*
X23671428Y-121271428D01*
X23757142Y-121614285D01*
X23757142Y-122214285D01*
X23671428Y-122557142D01*
X23500000Y-122728571D01*
X23328571Y-122814285D01*
X22985714Y-122814285D01*
X22814285Y-122728571D01*
X22642857Y-122557142D01*
X22557142Y-122214285D01*
X22557142Y-121614285D01*
X22642857Y-121271428D01*
X22814285Y-121100000D01*
X22985714Y-121014285D01*
X24357142Y-121014285D02*
X24785714Y-122814285D01*
X25128571Y-121528571D01*
X25471428Y-122814285D01*
X25900000Y-121014285D01*
X26585714Y-121871428D02*
X27185714Y-121871428D01*
X27442857Y-122814285D02*
X26585714Y-122814285D01*
X26585714Y-121014285D01*
X27442857Y-121014285D01*
X29242857Y-122814285D02*
X28642857Y-121957142D01*
X28214285Y-122814285D02*
X28214285Y-121014285D01*
X28900000Y-121014285D01*
X29071428Y-121100000D01*
X29157142Y-121185714D01*
X29242857Y-121357142D01*
X29242857Y-121614285D01*
X29157142Y-121785714D01*
X29071428Y-121871428D01*
X28900000Y-121957142D01*
X28214285Y-121957142D01*
X65542857Y-88728571D02*
X65800000Y-88814285D01*
X66228571Y-88814285D01*
X66400000Y-88728571D01*
X66485714Y-88642857D01*
X66571428Y-88471428D01*
X66571428Y-88300000D01*
X66485714Y-88128571D01*
X66400000Y-88042857D01*
X66228571Y-87957142D01*
X65885714Y-87871428D01*
X65714285Y-87785714D01*
X65628571Y-87700000D01*
X65542857Y-87528571D01*
X65542857Y-87357142D01*
X65628571Y-87185714D01*
X65714285Y-87100000D01*
X65885714Y-87014285D01*
X66314285Y-87014285D01*
X66571428Y-87100000D01*
X67342857Y-87871428D02*
X67942857Y-87871428D01*
X68200000Y-88814285D02*
X67342857Y-88814285D01*
X67342857Y-87014285D01*
X68200000Y-87014285D01*
X69828571Y-88814285D02*
X68971428Y-88814285D01*
X68971428Y-87014285D01*
X70428571Y-87871428D02*
X71028571Y-87871428D01*
X71285714Y-88814285D02*
X70428571Y-88814285D01*
X70428571Y-87014285D01*
X71285714Y-87014285D01*
X73085714Y-88642857D02*
X73000000Y-88728571D01*
X72742857Y-88814285D01*
X72571428Y-88814285D01*
X72314285Y-88728571D01*
X72142857Y-88557142D01*
X72057142Y-88385714D01*
X71971428Y-88042857D01*
X71971428Y-87785714D01*
X72057142Y-87442857D01*
X72142857Y-87271428D01*
X72314285Y-87100000D01*
X72571428Y-87014285D01*
X72742857Y-87014285D01*
X73000000Y-87100000D01*
X73085714Y-87185714D01*
X73600000Y-87014285D02*
X74628571Y-87014285D01*
X74114285Y-88814285D02*
X74114285Y-87014285D01*
X139797142Y-167612857D02*
X139711428Y-167698571D01*
X139454285Y-167784285D01*
X139282857Y-167784285D01*
X139025714Y-167698571D01*
X138854285Y-167527142D01*
X138768571Y-167355714D01*
X138682857Y-167012857D01*
X138682857Y-166755714D01*
X138768571Y-166412857D01*
X138854285Y-166241428D01*
X139025714Y-166070000D01*
X139282857Y-165984285D01*
X139454285Y-165984285D01*
X139711428Y-166070000D01*
X139797142Y-166155714D01*
X140911428Y-165984285D02*
X141254285Y-165984285D01*
X141425714Y-166070000D01*
X141597142Y-166241428D01*
X141682857Y-166584285D01*
X141682857Y-167184285D01*
X141597142Y-167527142D01*
X141425714Y-167698571D01*
X141254285Y-167784285D01*
X140911428Y-167784285D01*
X140740000Y-167698571D01*
X140568571Y-167527142D01*
X140482857Y-167184285D01*
X140482857Y-166584285D01*
X140568571Y-166241428D01*
X140740000Y-166070000D01*
X140911428Y-165984285D01*
X142454285Y-167784285D02*
X142454285Y-165984285D01*
X143054285Y-167270000D01*
X143654285Y-165984285D01*
X143654285Y-167784285D01*
X144511428Y-167784285D02*
X144511428Y-165984285D01*
X145111428Y-167270000D01*
X145711428Y-165984285D01*
X145711428Y-167784285D01*
X146911428Y-165984285D02*
X147254285Y-165984285D01*
X147425714Y-166070000D01*
X147597142Y-166241428D01*
X147682857Y-166584285D01*
X147682857Y-167184285D01*
X147597142Y-167527142D01*
X147425714Y-167698571D01*
X147254285Y-167784285D01*
X146911428Y-167784285D01*
X146740000Y-167698571D01*
X146568571Y-167527142D01*
X146482857Y-167184285D01*
X146482857Y-166584285D01*
X146568571Y-166241428D01*
X146740000Y-166070000D01*
X146911428Y-165984285D01*
X148454285Y-167784285D02*
X148454285Y-165984285D01*
X149482857Y-167784285D01*
X149482857Y-165984285D01*
X137241428Y-125300000D02*
X138098571Y-125300000D01*
X137070000Y-125814285D02*
X137670000Y-124014285D01*
X138270000Y-125814285D01*
X138870000Y-124014285D02*
X138870000Y-125471428D01*
X138955714Y-125642857D01*
X139041428Y-125728571D01*
X139212857Y-125814285D01*
X139555714Y-125814285D01*
X139727142Y-125728571D01*
X139812857Y-125642857D01*
X139898571Y-125471428D01*
X139898571Y-124014285D01*
X140755714Y-125814285D02*
X140755714Y-124014285D01*
X141184285Y-124014285D01*
X141441428Y-124100000D01*
X141612857Y-124271428D01*
X141698571Y-124442857D01*
X141784285Y-124785714D01*
X141784285Y-125042857D01*
X141698571Y-125385714D01*
X141612857Y-125557142D01*
X141441428Y-125728571D01*
X141184285Y-125814285D01*
X140755714Y-125814285D01*
X142555714Y-125814285D02*
X142555714Y-124014285D01*
X143755714Y-124014285D02*
X144098571Y-124014285D01*
X144270000Y-124100000D01*
X144441428Y-124271428D01*
X144527142Y-124614285D01*
X144527142Y-125214285D01*
X144441428Y-125557142D01*
X144270000Y-125728571D01*
X144098571Y-125814285D01*
X143755714Y-125814285D01*
X143584285Y-125728571D01*
X143412857Y-125557142D01*
X143327142Y-125214285D01*
X143327142Y-124614285D01*
X143412857Y-124271428D01*
X143584285Y-124100000D01*
X143755714Y-124014285D01*
X145542857Y-213728571D02*
X145800000Y-213814285D01*
X146228571Y-213814285D01*
X146400000Y-213728571D01*
X146485714Y-213642857D01*
X146571428Y-213471428D01*
X146571428Y-213300000D01*
X146485714Y-213128571D01*
X146400000Y-213042857D01*
X146228571Y-212957142D01*
X145885714Y-212871428D01*
X145714285Y-212785714D01*
X145628571Y-212700000D01*
X145542857Y-212528571D01*
X145542857Y-212357142D01*
X145628571Y-212185714D01*
X145714285Y-212100000D01*
X145885714Y-212014285D01*
X146314285Y-212014285D01*
X146571428Y-212100000D01*
X147342857Y-212871428D02*
X147942857Y-212871428D01*
X148200000Y-213814285D02*
X147342857Y-213814285D01*
X147342857Y-212014285D01*
X148200000Y-212014285D01*
X149828571Y-213814285D02*
X148971428Y-213814285D01*
X148971428Y-212014285D01*
X150428571Y-212871428D02*
X151028571Y-212871428D01*
X151285714Y-213814285D02*
X150428571Y-213814285D01*
X150428571Y-212014285D01*
X151285714Y-212014285D01*
X153085714Y-213642857D02*
X153000000Y-213728571D01*
X152742857Y-213814285D01*
X152571428Y-213814285D01*
X152314285Y-213728571D01*
X152142857Y-213557142D01*
X152057142Y-213385714D01*
X151971428Y-213042857D01*
X151971428Y-212785714D01*
X152057142Y-212442857D01*
X152142857Y-212271428D01*
X152314285Y-212100000D01*
X152571428Y-212014285D01*
X152742857Y-212014285D01*
X153000000Y-212100000D01*
X153085714Y-212185714D01*
X153600000Y-212014285D02*
X154628571Y-212014285D01*
X154114285Y-213814285D02*
X154114285Y-212014285D01*
X153200000Y-134014285D02*
X153542857Y-134014285D01*
X153714285Y-134100000D01*
X153885714Y-134271428D01*
X153971428Y-134614285D01*
X153971428Y-135214285D01*
X153885714Y-135557142D01*
X153714285Y-135728571D01*
X153542857Y-135814285D01*
X153200000Y-135814285D01*
X153028571Y-135728571D01*
X152857142Y-135557142D01*
X152771428Y-135214285D01*
X152771428Y-134614285D01*
X152857142Y-134271428D01*
X153028571Y-134100000D01*
X153200000Y-134014285D01*
X154742857Y-134014285D02*
X154742857Y-135471428D01*
X154828571Y-135642857D01*
X154914285Y-135728571D01*
X155085714Y-135814285D01*
X155428571Y-135814285D01*
X155600000Y-135728571D01*
X155685714Y-135642857D01*
X155771428Y-135471428D01*
X155771428Y-134014285D01*
X156371428Y-134014285D02*
X157400000Y-134014285D01*
X156885714Y-135814285D02*
X156885714Y-134014285D01*
X65542857Y-213728571D02*
X65800000Y-213814285D01*
X66228571Y-213814285D01*
X66400000Y-213728571D01*
X66485714Y-213642857D01*
X66571428Y-213471428D01*
X66571428Y-213300000D01*
X66485714Y-213128571D01*
X66400000Y-213042857D01*
X66228571Y-212957142D01*
X65885714Y-212871428D01*
X65714285Y-212785714D01*
X65628571Y-212700000D01*
X65542857Y-212528571D01*
X65542857Y-212357142D01*
X65628571Y-212185714D01*
X65714285Y-212100000D01*
X65885714Y-212014285D01*
X66314285Y-212014285D01*
X66571428Y-212100000D01*
X67342857Y-212871428D02*
X67942857Y-212871428D01*
X68200000Y-213814285D02*
X67342857Y-213814285D01*
X67342857Y-212014285D01*
X68200000Y-212014285D01*
X69828571Y-213814285D02*
X68971428Y-213814285D01*
X68971428Y-212014285D01*
X70428571Y-212871428D02*
X71028571Y-212871428D01*
X71285714Y-213814285D02*
X70428571Y-213814285D01*
X70428571Y-212014285D01*
X71285714Y-212014285D01*
X73085714Y-213642857D02*
X73000000Y-213728571D01*
X72742857Y-213814285D01*
X72571428Y-213814285D01*
X72314285Y-213728571D01*
X72142857Y-213557142D01*
X72057142Y-213385714D01*
X71971428Y-213042857D01*
X71971428Y-212785714D01*
X72057142Y-212442857D01*
X72142857Y-212271428D01*
X72314285Y-212100000D01*
X72571428Y-212014285D01*
X72742857Y-212014285D01*
X73000000Y-212100000D01*
X73085714Y-212185714D01*
X73600000Y-212014285D02*
X74628571Y-212014285D01*
X74114285Y-213814285D02*
X74114285Y-212014285D01*
D11*
X50358556Y-256130952D02*
X49674032Y-254940476D01*
X48929985Y-256130952D02*
X49242485Y-253630952D01*
X50194866Y-253630952D01*
X50418080Y-253750000D01*
X50522247Y-253869047D01*
X50611532Y-254107142D01*
X50566889Y-254464285D01*
X50418080Y-254702380D01*
X50284151Y-254821428D01*
X50031175Y-254940476D01*
X49078794Y-254940476D01*
X52501413Y-256130952D02*
X52665104Y-254821428D01*
X52575818Y-254583333D01*
X52352604Y-254464285D01*
X51876413Y-254464285D01*
X51623437Y-254583333D01*
X52516294Y-256011904D02*
X52263318Y-256130952D01*
X51668080Y-256130952D01*
X51444866Y-256011904D01*
X51355580Y-255773809D01*
X51385342Y-255535714D01*
X51534151Y-255297619D01*
X51787127Y-255178571D01*
X52382366Y-255178571D01*
X52635342Y-255059523D01*
X53587723Y-256011904D02*
X53810937Y-256130952D01*
X54287127Y-256130952D01*
X54540104Y-256011904D01*
X54688913Y-255773809D01*
X54703794Y-255654761D01*
X54614508Y-255416666D01*
X54391294Y-255297619D01*
X54034151Y-255297619D01*
X53810937Y-255178571D01*
X53721651Y-254940476D01*
X53736532Y-254821428D01*
X53885342Y-254583333D01*
X54138318Y-254464285D01*
X54495461Y-254464285D01*
X54718675Y-254583333D01*
X55924032Y-254464285D02*
X55611532Y-256964285D01*
X55909151Y-254583333D02*
X56162127Y-254464285D01*
X56638318Y-254464285D01*
X56861532Y-254583333D01*
X56965699Y-254702380D01*
X57054985Y-254940476D01*
X56965699Y-255654761D01*
X56816889Y-255892857D01*
X56682961Y-256011904D01*
X56429985Y-256130952D01*
X55953794Y-256130952D01*
X55730580Y-256011904D01*
X57977604Y-256130952D02*
X58290104Y-253630952D01*
X58171056Y-254583333D02*
X58424032Y-254464285D01*
X58900223Y-254464285D01*
X59123437Y-254583333D01*
X59227604Y-254702380D01*
X59316889Y-254940476D01*
X59227604Y-255654761D01*
X59078794Y-255892857D01*
X58944866Y-256011904D01*
X58691889Y-256130952D01*
X58215699Y-256130952D01*
X57992485Y-256011904D01*
X61206770Y-256011904D02*
X60953794Y-256130952D01*
X60477604Y-256130952D01*
X60254389Y-256011904D01*
X60165104Y-255773809D01*
X60284151Y-254821428D01*
X60432961Y-254583333D01*
X60685937Y-254464285D01*
X61162127Y-254464285D01*
X61385342Y-254583333D01*
X61474627Y-254821428D01*
X61444866Y-255059523D01*
X60224627Y-255297619D01*
X62382366Y-256130952D02*
X62590699Y-254464285D01*
X62531175Y-254940476D02*
X62679985Y-254702380D01*
X62813913Y-254583333D01*
X63066889Y-254464285D01*
X63304985Y-254464285D01*
X63929985Y-256130952D02*
X64138318Y-254464285D01*
X64078794Y-254940476D02*
X64227604Y-254702380D01*
X64361532Y-254583333D01*
X64614508Y-254464285D01*
X64852604Y-254464285D01*
X65447842Y-254464285D02*
X65834747Y-256130952D01*
X66638318Y-254464285D02*
X65834747Y-256130952D01*
X65522247Y-256726190D01*
X65388318Y-256845238D01*
X65135342Y-256964285D01*
X69287127Y-256130952D02*
X69599627Y-253630952D01*
X70552008Y-253630952D01*
X70775223Y-253750000D01*
X70879389Y-253869047D01*
X70968675Y-254107142D01*
X70924032Y-254464285D01*
X70775223Y-254702380D01*
X70641294Y-254821428D01*
X70388318Y-254940476D01*
X69435937Y-254940476D01*
X71787127Y-256130952D02*
X71995461Y-254464285D01*
X72099627Y-253630952D02*
X71965699Y-253750000D01*
X72069866Y-253869047D01*
X72203794Y-253750000D01*
X72099627Y-253630952D01*
X72069866Y-253869047D01*
X75001413Y-255178571D02*
X76906175Y-255178571D01*
X79882366Y-256130952D02*
X80194866Y-253630952D01*
X80804985Y-255416666D01*
X81861532Y-253630952D01*
X81549032Y-256130952D01*
X82739508Y-256130952D02*
X82947842Y-254464285D01*
X83052008Y-253630952D02*
X82918080Y-253750000D01*
X83022247Y-253869047D01*
X83156175Y-253750000D01*
X83052008Y-253630952D01*
X83022247Y-253869047D01*
X84138318Y-254464285D02*
X83929985Y-256130952D01*
X84108556Y-254702380D02*
X84242485Y-254583333D01*
X84495461Y-254464285D01*
X84852604Y-254464285D01*
X85075818Y-254583333D01*
X85165104Y-254821428D01*
X85001413Y-256130952D01*
X86191889Y-256130952D02*
X86400223Y-254464285D01*
X86504389Y-253630952D02*
X86370461Y-253750000D01*
X86474627Y-253869047D01*
X86608556Y-253750000D01*
X86504389Y-253630952D01*
X86474627Y-253869047D01*
X87382366Y-256130952D02*
X87694866Y-253630952D01*
X88290104Y-253630952D01*
X88632366Y-253750000D01*
X88840699Y-253988095D01*
X88929985Y-254226190D01*
X88989508Y-254702380D01*
X88944866Y-255059523D01*
X88766294Y-255535714D01*
X88617485Y-255773809D01*
X88349627Y-256011904D01*
X87977604Y-256130952D01*
X87382366Y-256130952D01*
X90849627Y-256011904D02*
X90596651Y-256130952D01*
X90120461Y-256130952D01*
X89897247Y-256011904D01*
X89807961Y-255773809D01*
X89927008Y-254821428D01*
X90075818Y-254583333D01*
X90328794Y-254464285D01*
X90804985Y-254464285D01*
X91028199Y-254583333D01*
X91117485Y-254821428D01*
X91087723Y-255059523D01*
X89867485Y-255297619D01*
X91787127Y-256130952D02*
X93304985Y-254464285D01*
X91995461Y-254464285D02*
X93096651Y-256130952D01*
X95016294Y-256011904D02*
X94763318Y-256130952D01*
X94287127Y-256130952D01*
X94063913Y-256011904D01*
X93974627Y-255773809D01*
X94093675Y-254821428D01*
X94242485Y-254583333D01*
X94495461Y-254464285D01*
X94971651Y-254464285D01*
X95194866Y-254583333D01*
X95284151Y-254821428D01*
X95254389Y-255059523D01*
X94034151Y-255297619D01*
X97263318Y-256130952D02*
X97575818Y-253630952D01*
X97278199Y-256011904D02*
X97025223Y-256130952D01*
X96549032Y-256130952D01*
X96325818Y-256011904D01*
X96221651Y-255892857D01*
X96132366Y-255654761D01*
X96221651Y-254940476D01*
X96370461Y-254702380D01*
X96504389Y-254583333D01*
X96757366Y-254464285D01*
X97233556Y-254464285D01*
X97456770Y-254583333D01*
X100477604Y-255178571D02*
X102382366Y-255178571D01*
X105358556Y-256130952D02*
X105671056Y-253630952D01*
X106623437Y-253630952D01*
X106846651Y-253750000D01*
X106950818Y-253869047D01*
X107040104Y-254107142D01*
X106995461Y-254464285D01*
X106846651Y-254702380D01*
X106712723Y-254821428D01*
X106459747Y-254940476D01*
X105507366Y-254940476D01*
X107858556Y-256130952D02*
X108066889Y-254464285D01*
X108171056Y-253630952D02*
X108037127Y-253750000D01*
X108141294Y-253869047D01*
X108275223Y-253750000D01*
X108171056Y-253630952D01*
X108141294Y-253869047D01*
X110135342Y-256011904D02*
X109882366Y-256130952D01*
X109406175Y-256130952D01*
X109182961Y-256011904D01*
X109078794Y-255892857D01*
X108989508Y-255654761D01*
X109078794Y-254940476D01*
X109227604Y-254702380D01*
X109361532Y-254583333D01*
X109614508Y-254464285D01*
X110090699Y-254464285D01*
X110313913Y-254583333D01*
X111549032Y-256130952D02*
X111325818Y-256011904D01*
X111221651Y-255892857D01*
X111132366Y-255654761D01*
X111221651Y-254940476D01*
X111370461Y-254702380D01*
X111504389Y-254583333D01*
X111757366Y-254464285D01*
X112114508Y-254464285D01*
X112337723Y-254583333D01*
X112441889Y-254702380D01*
X112531175Y-254940476D01*
X112441889Y-255654761D01*
X112293080Y-255892857D01*
X112159151Y-256011904D01*
X111906175Y-256130952D01*
X111549032Y-256130952D01*
X115477604Y-255178571D02*
X117382366Y-255178571D01*
X120313913Y-253630952D02*
X121742485Y-253630952D01*
X120715699Y-256130952D02*
X121028199Y-253630952D01*
X122337723Y-253630952D02*
X123691889Y-256130952D01*
X124004389Y-253630952D02*
X122025223Y-256130952D01*
X125179985Y-254702380D02*
X124956770Y-254583333D01*
X124852604Y-254464285D01*
X124763318Y-254226190D01*
X124778199Y-254107142D01*
X124927008Y-253869047D01*
X125060937Y-253750000D01*
X125313913Y-253630952D01*
X125790104Y-253630952D01*
X126013318Y-253750000D01*
X126117485Y-253869047D01*
X126206770Y-254107142D01*
X126191889Y-254226190D01*
X126043080Y-254464285D01*
X125909151Y-254583333D01*
X125656175Y-254702380D01*
X125179985Y-254702380D01*
X124927008Y-254821428D01*
X124793080Y-254940476D01*
X124644270Y-255178571D01*
X124584747Y-255654761D01*
X124674032Y-255892857D01*
X124778199Y-256011904D01*
X125001413Y-256130952D01*
X125477604Y-256130952D01*
X125730580Y-256011904D01*
X125864508Y-255892857D01*
X126013318Y-255654761D01*
X126072842Y-255178571D01*
X125983556Y-254940476D01*
X125879389Y-254821428D01*
X125656175Y-254702380D01*
X128334747Y-256130952D02*
X126906175Y-256130952D01*
X127620461Y-256130952D02*
X127932961Y-253630952D01*
X127650223Y-253988095D01*
X127382366Y-254226190D01*
X127129389Y-254345238D01*
X130790104Y-253630952D02*
X130313913Y-253630952D01*
X130060937Y-253750000D01*
X129927008Y-253869047D01*
X129644270Y-254226190D01*
X129465699Y-254702380D01*
X129346651Y-255654761D01*
X129435937Y-255892857D01*
X129540104Y-256011904D01*
X129763318Y-256130952D01*
X130239508Y-256130952D01*
X130492485Y-256011904D01*
X130626413Y-255892857D01*
X130775223Y-255654761D01*
X130849627Y-255059523D01*
X130760342Y-254821428D01*
X130656175Y-254702380D01*
X130432961Y-254583333D01*
X129956770Y-254583333D01*
X129703794Y-254702380D01*
X129569866Y-254821428D01*
X129421056Y-255059523D01*
D12*
X142642857Y-135814285D02*
X142642857Y-134014285D01*
X143242857Y-135300000D01*
X143842857Y-134014285D01*
X143842857Y-135814285D01*
X144700000Y-135814285D02*
X144700000Y-134014285D01*
X145557142Y-135814285D02*
X145557142Y-134014285D01*
X145985714Y-134014285D01*
X146242857Y-134100000D01*
X146414285Y-134271428D01*
X146500000Y-134442857D01*
X146585714Y-134785714D01*
X146585714Y-135042857D01*
X146500000Y-135385714D01*
X146414285Y-135557142D01*
X146242857Y-135728571D01*
X145985714Y-135814285D01*
X145557142Y-135814285D01*
X147357142Y-135814285D02*
X147357142Y-134014285D01*
X139058571Y-159365285D02*
X139058571Y-157565285D01*
X139915714Y-159365285D02*
X139915714Y-157565285D01*
X140944285Y-159365285D01*
X140944285Y-157565285D01*
X141801428Y-159365285D02*
X141801428Y-157565285D01*
X142230000Y-157565285D01*
X142487142Y-157651000D01*
X142658571Y-157822428D01*
X142744285Y-157993857D01*
X142830000Y-158336714D01*
X142830000Y-158593857D01*
X142744285Y-158936714D01*
X142658571Y-159108142D01*
X142487142Y-159279571D01*
X142230000Y-159365285D01*
X141801428Y-159365285D01*
X143601428Y-159365285D02*
X143601428Y-157565285D01*
X144458571Y-158679571D02*
X145830000Y-158679571D01*
X138801428Y-160463285D02*
X139401428Y-162263285D01*
X140001428Y-160463285D01*
X140601428Y-162263285D02*
X140601428Y-160463285D01*
X141458571Y-162263285D02*
X141458571Y-160463285D01*
X141887142Y-160463285D01*
X142144285Y-160549000D01*
X142315714Y-160720428D01*
X142401428Y-160891857D01*
X142487142Y-161234714D01*
X142487142Y-161491857D01*
X142401428Y-161834714D01*
X142315714Y-162006142D01*
X142144285Y-162177571D01*
X141887142Y-162263285D01*
X141458571Y-162263285D01*
X143258571Y-160463285D02*
X143258571Y-161920428D01*
X143344285Y-162091857D01*
X143430000Y-162177571D01*
X143601428Y-162263285D01*
X143944285Y-162263285D01*
X144115714Y-162177571D01*
X144201428Y-162091857D01*
X144287142Y-161920428D01*
X144287142Y-160463285D01*
X145058571Y-161749000D02*
X145915714Y-161749000D01*
X144887142Y-162263285D02*
X145487142Y-160463285D01*
X146087142Y-162263285D01*
X147544285Y-162263285D02*
X146687142Y-162263285D01*
X146687142Y-160463285D01*
M02*
