M48
; DRILL file {KiCad (6.0.5)} date Sat Dec 31 14:25:51 2022
; FORMAT={-:-/ absolute / inch / decimal}
; #@! TF.CreationDate,2022-12-31T14:25:51+00:00
; #@! TF.GenerationSoftware,Kicad,Pcbnew,(6.0.5)
; #@! TF.FileFunction,MixedPlating,1,2
FMAT,2
INCH
; #@! TA.AperFunction,NonPlated,NPTH,ComponentDrill
T1C0.0787
; #@! TA.AperFunction,NonPlated,NPTH,ComponentDrill
T2C0.0984
; #@! TA.AperFunction,NonPlated,NPTH,ComponentDrill
T3C0.1378
; #@! TA.AperFunction,NonPlated,NPTH,ComponentDrill
T4C0.2362
; #@! TA.AperFunction,NonPlated,NPTH,ComponentDrill
T5C0.3307
%
G90
G05
T1
X0.6406Y-1.378
X0.6406Y-1.6535
X0.6406Y-6.2992
X0.6406Y-6.5748
X0.9843Y-5.0
X2.2154Y-1.378
X2.2154Y-1.6535
X2.2154Y-6.2992
X2.2154Y-6.5748
X3.7902Y-1.378
X3.7902Y-1.6535
X3.7902Y-6.2992
X3.7902Y-6.5748
X5.365Y-1.378
X5.365Y-1.6535
X5.365Y-6.2992
X5.365Y-6.5748
T2
X2.2835Y-4.8425
X2.2835Y-5.7874
X3.2283Y-4.8425
X3.2283Y-5.7874
T3
X0.7874Y-0.7874
X0.7874Y-9.8425
X6.2992Y-0.7874
X6.2992Y-9.8425
T4
X5.315Y-5.7087
X6.1024Y-5.7087
T5
X1.1811Y-3.878
X1.1811Y-8.7992
X2.7559Y-3.878
X2.7559Y-8.7992
X4.3307Y-3.878
X4.3307Y-5.315
X4.3307Y-8.7992
X5.9055Y-3.8807
X5.9055Y-8.7992
X6.1024Y-4.9213
T0
M30
