M48
; DRILL file {KiCad 8.0.7} date 2025-07-29T21:18:21+0100
; FORMAT={-:-/ absolute / inch / decimal}
; #@! TF.CreationDate,2025-07-29T21:18:21+01:00
; #@! TF.GenerationSoftware,Kicad,Pcbnew,8.0.7
; #@! TF.FileFunction,MixedPlating,1,2
FMAT,2
INCH
; #@! TA.AperFunction,Plated,PTH,ViaDrill
T1C0.0118
; #@! TA.AperFunction,Plated,PTH,ComponentDrill
T2C0.0157
; #@! TA.AperFunction,Plated,PTH,ComponentDrill
T3C0.0315
; #@! TA.AperFunction,Plated,PTH,ComponentDrill
T4C0.0394
; #@! TA.AperFunction,NonPlated,NPTH,ComponentDrill
T5C0.0472
; #@! TA.AperFunction,NonPlated,NPTH,ComponentDrill
T6C0.1260
%
G90
G05
T1
X2.0305Y-3.8415
X2.0827Y-5.314
X2.1014Y-3.6939
X2.1407Y-2.8287
X2.1407Y-4.8091
X2.1427Y-2.3858
X2.1427Y-2.497
X2.1447Y-2.6014
X2.1447Y-2.7028
X2.251Y-3.0925
X2.2589Y-4.3937
X2.2913Y-4.747
X2.2933Y-4.5896
X2.3297Y-5.3081
X2.3622Y-2.7067
X2.377Y-3.3435
X2.4232Y-5.1191
X2.4518Y-2.6004
X2.501Y-5.6368
X2.5364Y-2.4961
X2.5374Y-2.3809
X2.5591Y-5.2825
X2.6024Y-3.8199
X2.6024Y-5.1211
X2.6102Y-4.8829
X2.6142Y-4.4045
X2.623Y-2.8228
X2.624Y-2.7057
X2.626Y-3.2982
X2.627Y-2.3642
X2.7451Y-3.2982
X2.749Y-2.8209
X2.752Y-3.8917
X2.752Y-4.4065
X2.7539Y-2.1309
X2.7569Y-4.8829
X2.7992Y-5.1555
X2.8012Y-5.311
X2.8031Y-2.6496
X2.8199Y-5.6545
X2.8504Y-2.126
X2.8524Y-2.8189
X2.8524Y-3.8947
X2.8533Y-3.1614
X2.8553Y-4.8809
X2.8573Y-4.4045
X2.876Y-5.5246
X2.9026Y-2.5492
X2.9469Y-2.8189
X2.9498Y-2.127
X2.9498Y-4.8799
X2.9518Y-3.8976
X2.9547Y-4.4035
X2.9567Y-3.1614
X3.002Y-2.4496
X3.0472Y-2.374
X3.0482Y-2.2795
X3.0482Y-2.8209
X3.0512Y-2.123
X3.0512Y-3.8957
X3.0531Y-4.8799
X3.0541Y-3.1624
X3.0551Y-3.4045
X3.0561Y-5.1122
X3.0571Y-4.4035
X3.1033Y-2.7496
X3.1201Y-5.4862
X3.1506Y-3.1634
X3.1506Y-3.3445
X3.1565Y-3.7057
X3.1604Y-3.6102
X3.188Y-4.877
X3.1909Y-2.1752
X3.1939Y-2.3809
X3.1978Y-4.4006
X3.1998Y-2.814
X3.2028Y-3.6575
X3.2313Y-4.313
X3.2864Y-3.6201
X3.2874Y-3.1673
X3.2904Y-3.8917
X3.2913Y-3.3445
X3.3199Y-5.4045
X3.3278Y-5.8159
X3.435Y-3.4715
X3.4508Y-5.6772
X3.5256Y-4.874
X3.5285Y-4.3179
X3.5295Y-3.1624
X3.5325Y-3.3415
X3.5364Y-3.6801
X3.5571Y-2.0669
X3.7451Y-2.939
X3.748Y-2.497
X3.749Y-2.7953
X3.751Y-2.6014
X3.751Y-2.6919
X3.753Y-2.377
X3.8071Y-2.2904
T3
X2.2835Y-2.0472
X2.2835Y-2.2441
X2.2835Y-5.0
X2.2835Y-5.1969
X2.6724Y-5.315
X2.6724Y-5.415
X2.6724Y-5.515
X2.6728Y-5.6398
X2.6738Y-5.7598
X2.9724Y-5.315
X2.9724Y-5.415
X2.9724Y-5.515
X2.9728Y-5.6398
X2.9738Y-5.7598
X3.1102Y-5.2913
X3.1102Y-5.5913
X3.2362Y-5.2913
X3.2362Y-5.5913
X3.3622Y-5.2913
X3.3622Y-5.5913
X3.6142Y-4.0945
X3.6142Y-4.2913
X3.6693Y-3.5236
X3.8071Y-3.5236
T4
X2.0276Y-2.3496
X2.0276Y-2.4496
X2.0276Y-2.5496
X2.0276Y-2.6496
X2.0276Y-2.7496
X2.0276Y-2.8496
X2.0276Y-2.9496
X2.0276Y-3.0496
X2.0276Y-3.1496
X2.0276Y-3.2496
X2.0472Y-4.485
X2.0472Y-4.585
X2.0472Y-4.685
X2.1358Y-4.485
X2.1358Y-4.585
X2.1358Y-4.685
X2.2514Y-3.6112
X2.2514Y-4.2112
X2.3514Y-3.6112
X2.3514Y-4.2112
X2.4514Y-3.6112
X2.4514Y-4.2112
X2.5514Y-3.6112
X2.5514Y-4.2112
X2.6028Y-2.0472
X2.6028Y-3.0315
X2.6028Y-4.0157
X2.6028Y-5.0
X2.6514Y-3.6112
X2.6514Y-4.2112
X2.7028Y-2.0472
X2.7028Y-3.0315
X2.7028Y-4.0157
X2.7028Y-5.0
X2.7514Y-3.6112
X2.7514Y-4.2112
X2.8028Y-2.0472
X2.8028Y-3.0315
X2.8028Y-4.0157
X2.8028Y-5.0
X2.8514Y-3.6112
X2.8514Y-4.2104
X2.9028Y-2.0472
X2.9028Y-3.0315
X2.9028Y-4.0157
X2.9028Y-5.0
X2.9514Y-3.6112
X2.9514Y-4.2112
X3.0028Y-2.0472
X3.0028Y-3.0315
X3.0028Y-4.0157
X3.0028Y-5.0
X3.0514Y-3.6112
X3.0514Y-4.2112
X3.1028Y-2.0472
X3.1028Y-3.0315
X3.1028Y-4.0157
X3.1028Y-5.0
X3.2028Y-2.0472
X3.2028Y-3.0315
X3.2028Y-4.0157
X3.2028Y-5.0
X3.3028Y-2.0472
X3.3028Y-3.0315
X3.3028Y-4.0157
X3.3028Y-5.0
X3.8583Y-3.8583
X3.8583Y-3.9583
X3.8583Y-4.0583
X3.8583Y-4.252
X3.8583Y-4.352
X3.878Y-2.3496
X3.878Y-2.4496
X3.878Y-2.5496
X3.878Y-2.6496
X3.878Y-2.7496
X3.878Y-2.8496
X3.878Y-2.9496
X3.878Y-3.0496
X3.878Y-3.1496
X3.878Y-3.2496
T5
X2.0472Y-5.4134
X2.0472Y-5.8071
X2.1457Y-5.4134
X2.1457Y-5.8071
X2.3425Y-5.6102
X3.563Y-5.6102
X3.7598Y-5.4134
X3.7598Y-5.8071
X3.8583Y-5.4134
X3.8583Y-5.8071
T6
X2.0866Y-2.0866
X2.0866Y-5.1181
X3.8189Y-2.0866
X3.8189Y-5.1181
T2
G00X2.1457Y-5.6299
M15
G01X2.1457Y-5.5906
M16
G05
G00X2.3622Y-5.4134
M15
G01X2.3228Y-5.4134
M16
G05
G00X2.3228Y-5.8071
M15
G01X2.3622Y-5.8071
M16
G05
G00X3.5827Y-5.4134
M15
G01X3.5433Y-5.4134
M16
G05
G00X3.5433Y-5.8071
M15
G01X3.5827Y-5.8071
M16
G05
G00X3.7598Y-5.5906
M15
G01X3.7598Y-5.6299
M16
G05
T3
G00X2.3563Y-5.5118
M15
G01X2.3287Y-5.5118
M16
G05
G00X2.3287Y-5.7087
M15
G01X2.3563Y-5.7087
M16
G05
G00X3.5768Y-5.5118
M15
G01X3.5492Y-5.5118
M16
G05
G00X3.5492Y-5.7087
M15
G01X3.5768Y-5.7087
M16
G05
T4
G00X3.5423Y-4.7077
M15
G01X3.5423Y-4.6289
M16
G05
G00X3.6998Y-4.8533
M15
G01X3.6211Y-4.8533
M16
G05
G00X3.7785Y-4.7077
M15
G01X3.7785Y-4.6289
M16
G05
M30
