G04 #@! TF.GenerationSoftware,KiCad,Pcbnew,(6.0.5)*
G04 #@! TF.CreationDate,2023-03-19T20:53:10+00:00*
G04 #@! TF.ProjectId,XiaoPiUSBMIDIDevice,5869616f-5069-4555-9342-4d4944494465,rev?*
G04 #@! TF.SameCoordinates,Original*
G04 #@! TF.FileFunction,Copper,L1,Top*
G04 #@! TF.FilePolarity,Positive*
%FSLAX46Y46*%
G04 Gerber Fmt 4.6, Leading zero omitted, Abs format (unit mm)*
G04 Created by KiCad (PCBNEW (6.0.5)) date 2023-03-19 20:53:10*
%MOMM*%
%LPD*%
G01*
G04 APERTURE LIST*
G04 #@! TA.AperFunction,ComponentPad*
%ADD10R,1.700000X1.700000*%
G04 #@! TD*
G04 #@! TA.AperFunction,ComponentPad*
%ADD11O,1.700000X1.700000*%
G04 #@! TD*
G04 #@! TA.AperFunction,ComponentPad*
%ADD12O,2.200000X1.200000*%
G04 #@! TD*
G04 #@! TA.AperFunction,ComponentPad*
%ADD13O,1.200000X2.200000*%
G04 #@! TD*
G04 #@! TA.AperFunction,ComponentPad*
%ADD14C,1.600000*%
G04 #@! TD*
G04 #@! TA.AperFunction,ComponentPad*
%ADD15O,1.600000X1.600000*%
G04 #@! TD*
G04 #@! TA.AperFunction,ComponentPad*
%ADD16R,1.600000X1.600000*%
G04 #@! TD*
G04 #@! TA.AperFunction,ComponentPad*
%ADD17C,2.250000*%
G04 #@! TD*
G04 #@! TA.AperFunction,SMDPad,CuDef*
%ADD18O,2.748280X1.998980*%
G04 #@! TD*
G04 #@! TA.AperFunction,SMDPad,CuDef*
%ADD19O,1.016000X2.032000*%
G04 #@! TD*
G04 #@! TA.AperFunction,SMDPad,CuDef*
%ADD20C,1.143000*%
G04 #@! TD*
G04 #@! TA.AperFunction,WasherPad*
%ADD21C,2.499360*%
G04 #@! TD*
G04 #@! TA.AperFunction,ComponentPad*
%ADD22C,2.499360*%
G04 #@! TD*
G04 #@! TA.AperFunction,Conductor*
%ADD23C,0.800000*%
G04 #@! TD*
G04 #@! TA.AperFunction,Conductor*
%ADD24C,0.600000*%
G04 #@! TD*
G04 #@! TA.AperFunction,Conductor*
%ADD25C,0.250000*%
G04 #@! TD*
G04 APERTURE END LIST*
D10*
X226575000Y-147820000D03*
D11*
X224035000Y-147820000D03*
X226575000Y-145280000D03*
X224035000Y-145280000D03*
D12*
X209500000Y-129000000D03*
X209500000Y-131500000D03*
D13*
X204500000Y-134000000D03*
D12*
X209500000Y-139000000D03*
X209500000Y-136500000D03*
D14*
X234115000Y-107325000D03*
D15*
X241735000Y-107325000D03*
D14*
X226225000Y-107900000D03*
X221225000Y-107900000D03*
X253275000Y-117650000D03*
X248275000Y-117650000D03*
D16*
X218175000Y-111225000D03*
D15*
X218175000Y-113765000D03*
X218175000Y-116305000D03*
X225795000Y-116305000D03*
X225795000Y-113765000D03*
X225795000Y-111225000D03*
D16*
X245275000Y-121200000D03*
D15*
X245275000Y-123740000D03*
X245275000Y-126280000D03*
X252895000Y-126280000D03*
X252895000Y-123740000D03*
X252895000Y-121200000D03*
D10*
X233075000Y-147125000D03*
D11*
X233075000Y-144585000D03*
X233075000Y-142045000D03*
X233075000Y-139505000D03*
X233075000Y-136965000D03*
X233075000Y-134425000D03*
X233075000Y-131885000D03*
D14*
X213940000Y-104250000D03*
D15*
X221560000Y-104250000D03*
D14*
X217965000Y-123075000D03*
D15*
X225585000Y-123075000D03*
D17*
X239500000Y-147575000D03*
X239500000Y-141075000D03*
D14*
X256875000Y-105340000D03*
D15*
X256875000Y-112960000D03*
D12*
X209500000Y-104000000D03*
X209500000Y-106500000D03*
D13*
X204500000Y-109000000D03*
D12*
X209500000Y-114000000D03*
X209500000Y-111500000D03*
D14*
X256425000Y-118890000D03*
D15*
X256425000Y-126510000D03*
D14*
X233990000Y-110700000D03*
D15*
X241610000Y-110700000D03*
D14*
X217990000Y-126350000D03*
D15*
X225610000Y-126350000D03*
D14*
X218015000Y-119700000D03*
D15*
X225635000Y-119700000D03*
D14*
X253825000Y-104350000D03*
X248825000Y-104350000D03*
X234240000Y-121250000D03*
D15*
X241860000Y-121250000D03*
D10*
X217600000Y-147100000D03*
D11*
X217600000Y-144560000D03*
X217600000Y-142020000D03*
X217600000Y-139480000D03*
X217600000Y-136940000D03*
X217600000Y-134400000D03*
X217600000Y-131860000D03*
D14*
X234315000Y-124625000D03*
D15*
X241935000Y-124625000D03*
D16*
X214500000Y-107665000D03*
D15*
X214500000Y-115285000D03*
D10*
X239675000Y-137350000D03*
D11*
X239675000Y-134810000D03*
X239675000Y-132270000D03*
D16*
X245750000Y-107975000D03*
D15*
X245750000Y-110515000D03*
X245750000Y-113055000D03*
X253370000Y-113055000D03*
X253370000Y-110515000D03*
X253370000Y-107975000D03*
D18*
X233431290Y-147124510D03*
X233431290Y-144584510D03*
X233431290Y-142044510D03*
X233431290Y-139504510D03*
X233431290Y-136964510D03*
X233431290Y-134424510D03*
X233431290Y-131884510D03*
X217266730Y-131884510D03*
X217266730Y-134424510D03*
X217266730Y-136964510D03*
X217266730Y-139504510D03*
X217266730Y-142044510D03*
X217266730Y-144584510D03*
X217266730Y-147124510D03*
D19*
X226564410Y-130806690D03*
X224014410Y-130806690D03*
D20*
X226565607Y-147810877D03*
X224025607Y-147810877D03*
X226565607Y-145270877D03*
X224025607Y-145270877D03*
D10*
X208370000Y-98770000D03*
D11*
X208370000Y-96230000D03*
X210910000Y-98770000D03*
X210910000Y-96230000D03*
X213450000Y-98770000D03*
X213450000Y-96230000D03*
X215990000Y-98770000D03*
X215990000Y-96230000D03*
X218530000Y-98770000D03*
X218530000Y-96230000D03*
X221070000Y-98770000D03*
X221070000Y-96230000D03*
X223610000Y-98770000D03*
X223610000Y-96230000D03*
X226150000Y-98770000D03*
X226150000Y-96230000D03*
X228690000Y-98770000D03*
X228690000Y-96230000D03*
X231230000Y-98770000D03*
X231230000Y-96230000D03*
X233770000Y-98770000D03*
X233770000Y-96230000D03*
X236310000Y-98770000D03*
X236310000Y-96230000D03*
X238850000Y-98770000D03*
X238850000Y-96230000D03*
X241390000Y-98770000D03*
X241390000Y-96230000D03*
X243930000Y-98770000D03*
X243930000Y-96230000D03*
X246470000Y-98770000D03*
X246470000Y-96230000D03*
X249010000Y-98770000D03*
X249010000Y-96230000D03*
X251550000Y-98770000D03*
X251550000Y-96230000D03*
X254090000Y-98770000D03*
X254090000Y-96230000D03*
X256630000Y-98770000D03*
X256630000Y-96230000D03*
D21*
X182502300Y-103998740D03*
X182502300Y-114001260D03*
D22*
X192497200Y-101501920D03*
X192499740Y-109000000D03*
X192497200Y-116498080D03*
X194999100Y-104003820D03*
X194999100Y-113996180D03*
D21*
X182502300Y-139001260D03*
X182502300Y-128998740D03*
D22*
X192497200Y-126501920D03*
X192499740Y-134000000D03*
X192497200Y-141498080D03*
X194999100Y-129003820D03*
X194999100Y-138996180D03*
D23*
X252895000Y-118030000D02*
X253275000Y-117650000D01*
X252895000Y-121200000D02*
X252895000Y-118030000D01*
D24*
X211200000Y-139000000D02*
X209500000Y-139000000D01*
X213900000Y-136300000D02*
X211200000Y-139000000D01*
X213900000Y-130440000D02*
X213900000Y-136300000D01*
X216345000Y-127995000D02*
X213900000Y-130440000D01*
X216345000Y-127995000D02*
X217990000Y-126350000D01*
X215393070Y-128946930D02*
X216345000Y-127995000D01*
X192396180Y-104003820D02*
X194999100Y-104003820D01*
X189025000Y-119050000D02*
X189025000Y-107375000D01*
X189025000Y-107375000D02*
X192396180Y-104003820D01*
X191675000Y-121700000D02*
X189025000Y-119050000D01*
X211825000Y-114625000D02*
X204750000Y-121700000D01*
X204750000Y-121700000D02*
X191675000Y-121700000D01*
X211825000Y-104000000D02*
X211825000Y-114625000D01*
X188975000Y-125625000D02*
X188975000Y-135400000D01*
X191625000Y-122975000D02*
X188975000Y-125625000D01*
X188975000Y-135400000D02*
X192571180Y-138996180D01*
X192571180Y-138996180D02*
X194999100Y-138996180D01*
X215393070Y-128946930D02*
X209421140Y-122975000D01*
X209421140Y-122975000D02*
X191625000Y-122975000D01*
X211825000Y-104000000D02*
X213690000Y-104000000D01*
X209500000Y-104000000D02*
X211825000Y-104000000D01*
D23*
X221390000Y-123075000D02*
X218015000Y-119700000D01*
X225585000Y-123075000D02*
X221390000Y-123075000D01*
D25*
X241532500Y-101217500D02*
X253370000Y-113055000D01*
X221856490Y-101217500D02*
X241532500Y-101217500D01*
X219800000Y-99161010D02*
X221856490Y-101217500D01*
X219800000Y-97500000D02*
X219800000Y-99161010D01*
X218530000Y-96230000D02*
X219800000Y-97500000D01*
X236425000Y-115725000D02*
X236425000Y-122515000D01*
X236425000Y-122515000D02*
X234315000Y-124625000D01*
X219237500Y-102012500D02*
X222712500Y-102012500D01*
X217250000Y-97490000D02*
X217250000Y-100025000D01*
X217250000Y-100025000D02*
X219237500Y-102012500D01*
X222712500Y-102012500D02*
X236425000Y-115725000D01*
X215990000Y-96230000D02*
X217250000Y-97490000D01*
D23*
X242315000Y-115525000D02*
X251150000Y-115525000D01*
X251150000Y-115525000D02*
X253275000Y-117650000D01*
X234115000Y-107325000D02*
X242315000Y-115525000D01*
D24*
X250525000Y-128650000D02*
X252895000Y-126280000D01*
X220810000Y-128650000D02*
X250525000Y-128650000D01*
X217600000Y-131860000D02*
X220810000Y-128650000D01*
X244390000Y-124625000D02*
X245275000Y-123740000D01*
X241935000Y-124625000D02*
X244390000Y-124625000D01*
X242250000Y-121200000D02*
X245275000Y-121200000D01*
X242200000Y-121250000D02*
X242250000Y-121200000D01*
X241860000Y-121250000D02*
X242200000Y-121250000D01*
X225795000Y-116305000D02*
X225795000Y-119540000D01*
D25*
X221739730Y-140410270D02*
X232175000Y-129975000D01*
X221739730Y-145525000D02*
X221739730Y-140410270D01*
X237380000Y-129975000D02*
X239675000Y-132270000D01*
X224025607Y-147810877D02*
X221739730Y-145525000D01*
X232175000Y-129975000D02*
X237380000Y-129975000D01*
X241925000Y-139600000D02*
X239675000Y-137350000D01*
X240401960Y-149423040D02*
X241925000Y-147900000D01*
X241925000Y-147900000D02*
X241925000Y-139600000D01*
X228178040Y-149423040D02*
X240401960Y-149423040D01*
X226575000Y-147820000D02*
X228178040Y-149423040D01*
X238451480Y-148623520D02*
X239500000Y-147575000D01*
X229918520Y-148623520D02*
X238451480Y-148623520D01*
X226575000Y-145280000D02*
X229918520Y-148623520D01*
D24*
X202550000Y-124100000D02*
X207450000Y-129000000D01*
X196875000Y-124100000D02*
X202550000Y-124100000D01*
X207450000Y-129000000D02*
X209500000Y-129000000D01*
X194999100Y-125975900D02*
X196875000Y-124100000D01*
X194999100Y-129003820D02*
X194999100Y-125975900D01*
X213690000Y-104000000D02*
X213940000Y-104250000D01*
X196350000Y-120725000D02*
X202775000Y-120725000D01*
X194999100Y-119374100D02*
X196350000Y-120725000D01*
X202775000Y-120725000D02*
X209500000Y-114000000D01*
X194999100Y-113996180D02*
X194999100Y-119374100D01*
X214500000Y-115285000D02*
X216655000Y-115285000D01*
X216655000Y-115285000D02*
X218175000Y-113765000D01*
X221560000Y-104250000D02*
X217915000Y-104250000D01*
X217915000Y-104250000D02*
X214500000Y-107665000D01*
X214615000Y-107665000D02*
X218175000Y-111225000D01*
X214500000Y-107665000D02*
X214615000Y-107665000D01*
X256195000Y-126280000D02*
X256425000Y-126510000D01*
X252895000Y-126280000D02*
X256195000Y-126280000D01*
D23*
X255185000Y-117650000D02*
X256425000Y-118890000D01*
X253275000Y-117650000D02*
X255185000Y-117650000D01*
D24*
X256780000Y-113055000D02*
X256875000Y-112960000D01*
X253370000Y-113055000D02*
X256780000Y-113055000D01*
X245565000Y-110700000D02*
X245750000Y-110515000D01*
X241610000Y-110700000D02*
X245565000Y-110700000D01*
X245100000Y-107325000D02*
X245750000Y-107975000D01*
X241735000Y-107325000D02*
X245100000Y-107325000D01*
D23*
X232415000Y-123075000D02*
X234240000Y-121250000D01*
X225585000Y-123075000D02*
X232415000Y-123075000D01*
M02*
