G04 #@! TF.GenerationSoftware,KiCad,Pcbnew,(6.0.5)*
G04 #@! TF.CreationDate,2023-03-19T20:53:10+00:00*
G04 #@! TF.ProjectId,XiaoPiUSBMIDIDevice,5869616f-5069-4555-9342-4d4944494465,rev?*
G04 #@! TF.SameCoordinates,Original*
G04 #@! TF.FileFunction,Soldermask,Top*
G04 #@! TF.FilePolarity,Negative*
%FSLAX46Y46*%
G04 Gerber Fmt 4.6, Leading zero omitted, Abs format (unit mm)*
G04 Created by KiCad (PCBNEW (6.0.5)) date 2023-03-19 20:53:10*
%MOMM*%
%LPD*%
G01*
G04 APERTURE LIST*
%ADD10C,2.700000*%
%ADD11R,1.700000X1.700000*%
%ADD12O,1.700000X1.700000*%
%ADD13O,2.200000X1.200000*%
%ADD14O,1.200000X2.200000*%
%ADD15C,1.600000*%
%ADD16O,1.600000X1.600000*%
%ADD17R,1.600000X1.600000*%
%ADD18C,2.250000*%
%ADD19O,2.748280X1.998980*%
%ADD20O,1.016000X2.032000*%
%ADD21C,1.143000*%
%ADD22C,2.499360*%
G04 APERTURE END LIST*
D10*
X203500000Y-97500000D03*
X261500000Y-97500000D03*
X203500000Y-146500000D03*
X261500000Y-146500000D03*
D11*
X226575000Y-147820000D03*
D12*
X224035000Y-147820000D03*
X226575000Y-145280000D03*
X224035000Y-145280000D03*
D13*
X209500000Y-129000000D03*
X209500000Y-131500000D03*
D14*
X204500000Y-134000000D03*
D13*
X209500000Y-139000000D03*
X209500000Y-136500000D03*
D15*
X234115000Y-107325000D03*
D16*
X241735000Y-107325000D03*
D15*
X226225000Y-107900000D03*
X221225000Y-107900000D03*
X253275000Y-117650000D03*
X248275000Y-117650000D03*
D17*
X218175000Y-111225000D03*
D16*
X218175000Y-113765000D03*
X218175000Y-116305000D03*
X225795000Y-116305000D03*
X225795000Y-113765000D03*
X225795000Y-111225000D03*
D17*
X245275000Y-121200000D03*
D16*
X245275000Y-123740000D03*
X245275000Y-126280000D03*
X252895000Y-126280000D03*
X252895000Y-123740000D03*
X252895000Y-121200000D03*
D11*
X233075000Y-147125000D03*
D12*
X233075000Y-144585000D03*
X233075000Y-142045000D03*
X233075000Y-139505000D03*
X233075000Y-136965000D03*
X233075000Y-134425000D03*
X233075000Y-131885000D03*
D15*
X213940000Y-104250000D03*
D16*
X221560000Y-104250000D03*
D15*
X217965000Y-123075000D03*
D16*
X225585000Y-123075000D03*
D18*
X239500000Y-147575000D03*
X239500000Y-141075000D03*
D15*
X256875000Y-105340000D03*
D16*
X256875000Y-112960000D03*
D13*
X209500000Y-104000000D03*
X209500000Y-106500000D03*
D14*
X204500000Y-109000000D03*
D13*
X209500000Y-114000000D03*
X209500000Y-111500000D03*
D15*
X256425000Y-118890000D03*
D16*
X256425000Y-126510000D03*
D15*
X233990000Y-110700000D03*
D16*
X241610000Y-110700000D03*
D15*
X217990000Y-126350000D03*
D16*
X225610000Y-126350000D03*
D15*
X218015000Y-119700000D03*
D16*
X225635000Y-119700000D03*
D15*
X253825000Y-104350000D03*
X248825000Y-104350000D03*
X234240000Y-121250000D03*
D16*
X241860000Y-121250000D03*
D11*
X217600000Y-147100000D03*
D12*
X217600000Y-144560000D03*
X217600000Y-142020000D03*
X217600000Y-139480000D03*
X217600000Y-136940000D03*
X217600000Y-134400000D03*
X217600000Y-131860000D03*
D15*
X234315000Y-124625000D03*
D16*
X241935000Y-124625000D03*
D17*
X214500000Y-107665000D03*
D16*
X214500000Y-115285000D03*
D11*
X239675000Y-137350000D03*
D12*
X239675000Y-134810000D03*
X239675000Y-132270000D03*
D17*
X245750000Y-107975000D03*
D16*
X245750000Y-110515000D03*
X245750000Y-113055000D03*
X253370000Y-113055000D03*
X253370000Y-110515000D03*
X253370000Y-107975000D03*
D19*
X233431290Y-147124510D03*
X233431290Y-144584510D03*
X233431290Y-142044510D03*
X233431290Y-139504510D03*
X233431290Y-136964510D03*
X233431290Y-134424510D03*
X233431290Y-131884510D03*
X217266730Y-131884510D03*
X217266730Y-134424510D03*
X217266730Y-136964510D03*
X217266730Y-139504510D03*
X217266730Y-142044510D03*
X217266730Y-144584510D03*
X217266730Y-147124510D03*
D20*
X226564410Y-130806690D03*
X224014410Y-130806690D03*
D21*
X226565607Y-147810877D03*
X224025607Y-147810877D03*
X226565607Y-145270877D03*
X224025607Y-145270877D03*
D11*
X208370000Y-98770000D03*
D12*
X208370000Y-96230000D03*
X210910000Y-98770000D03*
X210910000Y-96230000D03*
X213450000Y-98770000D03*
X213450000Y-96230000D03*
X215990000Y-98770000D03*
X215990000Y-96230000D03*
X218530000Y-98770000D03*
X218530000Y-96230000D03*
X221070000Y-98770000D03*
X221070000Y-96230000D03*
X223610000Y-98770000D03*
X223610000Y-96230000D03*
X226150000Y-98770000D03*
X226150000Y-96230000D03*
X228690000Y-98770000D03*
X228690000Y-96230000D03*
X231230000Y-98770000D03*
X231230000Y-96230000D03*
X233770000Y-98770000D03*
X233770000Y-96230000D03*
X236310000Y-98770000D03*
X236310000Y-96230000D03*
X238850000Y-98770000D03*
X238850000Y-96230000D03*
X241390000Y-98770000D03*
X241390000Y-96230000D03*
X243930000Y-98770000D03*
X243930000Y-96230000D03*
X246470000Y-98770000D03*
X246470000Y-96230000D03*
X249010000Y-98770000D03*
X249010000Y-96230000D03*
X251550000Y-98770000D03*
X251550000Y-96230000D03*
X254090000Y-98770000D03*
X254090000Y-96230000D03*
X256630000Y-98770000D03*
X256630000Y-96230000D03*
D22*
X182502300Y-103998740D03*
X182502300Y-114001260D03*
X192497200Y-101501920D03*
X192499740Y-109000000D03*
X192497200Y-116498080D03*
X194999100Y-104003820D03*
X194999100Y-113996180D03*
X182502300Y-139001260D03*
X182502300Y-128998740D03*
X192497200Y-126501920D03*
X192499740Y-134000000D03*
X192497200Y-141498080D03*
X194999100Y-129003820D03*
X194999100Y-138996180D03*
M02*
