%TF.GenerationSoftware,KiCad,Pcbnew,8.0.4*%
%TF.CreationDate,2024-08-23T11:40:29+01:00*%
%TF.ProjectId,Esp32EduModular-Baby8,45737033-3245-4647-954d-6f64756c6172,rev?*%
%TF.SameCoordinates,Original*%
%TF.FileFunction,Soldermask,Bot*%
%TF.FilePolarity,Negative*%
%FSLAX46Y46*%
G04 Gerber Fmt 4.6, Leading zero omitted, Abs format (unit mm)*
G04 Created by KiCad (PCBNEW 8.0.4) date 2024-08-23 11:40:29*
%MOMM*%
%LPD*%
G01*
G04 APERTURE LIST*
G04 Aperture macros list*
%AMRoundRect*
0 Rectangle with rounded corners*
0 $1 Rounding radius*
0 $2 $3 $4 $5 $6 $7 $8 $9 X,Y pos of 4 corners*
0 Add a 4 corners polygon primitive as box body*
4,1,4,$2,$3,$4,$5,$6,$7,$8,$9,$2,$3,0*
0 Add four circle primitives for the rounded corners*
1,1,$1+$1,$2,$3*
1,1,$1+$1,$4,$5*
1,1,$1+$1,$6,$7*
1,1,$1+$1,$8,$9*
0 Add four rect primitives between the rounded corners*
20,1,$1+$1,$2,$3,$4,$5,0*
20,1,$1+$1,$4,$5,$6,$7,0*
20,1,$1+$1,$6,$7,$8,$9,0*
20,1,$1+$1,$8,$9,$2,$3,0*%
G04 Aperture macros list end*
%ADD10C,1.600000*%
%ADD11O,1.600000X1.600000*%
%ADD12R,1.800000X1.800000*%
%ADD13C,1.800000*%
%ADD14R,1.700000X1.700000*%
%ADD15O,1.700000X1.700000*%
%ADD16R,1.600000X1.600000*%
%ADD17RoundRect,0.750000X0.750000X-1.250000X0.750000X1.250000X-0.750000X1.250000X-0.750000X-1.250000X0*%
%ADD18C,2.700000*%
%ADD19O,1.600000X1.800000*%
%ADD20R,1.600000X1.800000*%
%ADD21O,3.000000X3.400000*%
G04 APERTURE END LIST*
D10*
%TO.C,R7*%
X99314000Y-106934000D03*
D11*
X91694000Y-106934000D03*
%TD*%
D10*
%TO.C,C5*%
X106934000Y-106934000D03*
X101934000Y-106934000D03*
%TD*%
D12*
%TO.C,D2*%
X72760000Y-94750000D03*
D13*
X75300000Y-94750000D03*
%TD*%
D14*
%TO.C,SW7*%
X102500000Y-137000000D03*
D15*
X102500000Y-139540000D03*
X102500000Y-142080000D03*
%TD*%
D16*
%TO.C,D17*%
X66000000Y-106000000D03*
D11*
X58380000Y-106000000D03*
%TD*%
D12*
%TO.C,RV5*%
X108290000Y-69020000D03*
D13*
X110790000Y-69020000D03*
X113290000Y-69020000D03*
D17*
X106390000Y-62020000D03*
X115190000Y-62020000D03*
%TD*%
D16*
%TO.C,D21*%
X120000000Y-76000000D03*
D11*
X120000000Y-68380000D03*
%TD*%
D18*
%TO.C,MK3*%
X64500000Y-128500000D03*
%TD*%
D16*
%TO.C,U2*%
X80670000Y-92900000D03*
D11*
X80670000Y-95440000D03*
X80670000Y-97980000D03*
X80670000Y-100520000D03*
X80670000Y-103060000D03*
X80670000Y-105600000D03*
X80670000Y-108140000D03*
X80670000Y-110680000D03*
X88290000Y-110680000D03*
X88290000Y-108140000D03*
X88290000Y-105600000D03*
X88290000Y-103060000D03*
X88290000Y-100520000D03*
X88290000Y-97980000D03*
X88290000Y-95440000D03*
X88290000Y-92900000D03*
%TD*%
D16*
%TO.C,D12*%
X97500000Y-133000000D03*
D11*
X97500000Y-125380000D03*
%TD*%
D16*
%TO.C,U1*%
X111840000Y-95520000D03*
D11*
X111840000Y-98060000D03*
X111840000Y-100600000D03*
X111840000Y-103140000D03*
X111840000Y-105680000D03*
X111840000Y-108220000D03*
X111840000Y-110760000D03*
X119460000Y-110760000D03*
X119460000Y-108220000D03*
X119460000Y-105680000D03*
X119460000Y-103140000D03*
X119460000Y-100600000D03*
X119460000Y-98060000D03*
X119460000Y-95520000D03*
%TD*%
D18*
%TO.C,MK1*%
X75000000Y-62500000D03*
%TD*%
D14*
%TO.C,SW10*%
X117500000Y-137000000D03*
D15*
X117500000Y-139540000D03*
X117500000Y-142080000D03*
%TD*%
D12*
%TO.C,D8*%
X123630000Y-109060000D03*
D13*
X126170000Y-109060000D03*
%TD*%
D16*
%TO.C,D14*%
X107500000Y-133000000D03*
D11*
X107500000Y-125380000D03*
%TD*%
D18*
%TO.C,MK4*%
X135500000Y-128500000D03*
%TD*%
D14*
%TO.C,SW9*%
X112500000Y-137000000D03*
D15*
X112500000Y-139540000D03*
X112500000Y-142080000D03*
%TD*%
D12*
%TO.C,D5*%
X105910000Y-74490000D03*
D13*
X108450000Y-74490000D03*
%TD*%
D14*
%TO.C,SW6*%
X97500000Y-137000000D03*
D15*
X97500000Y-139540000D03*
X97500000Y-142080000D03*
%TD*%
D16*
%TO.C,D23*%
X134000000Y-103000000D03*
D11*
X141620000Y-103000000D03*
%TD*%
D14*
%TO.C,J7*%
X147300000Y-91200000D03*
D15*
X147300000Y-93740000D03*
X147300000Y-96280000D03*
X147300000Y-98820000D03*
X147300000Y-101360000D03*
X147300000Y-103900000D03*
X147300000Y-106440000D03*
X147300000Y-108980000D03*
%TD*%
D14*
%TO.C,J6*%
X52700000Y-91200000D03*
D15*
X52700000Y-93740000D03*
X52700000Y-96280000D03*
X52700000Y-98820000D03*
X52700000Y-101360000D03*
X52700000Y-103900000D03*
X52700000Y-106440000D03*
X52700000Y-108980000D03*
%TD*%
D14*
%TO.C,SW8*%
X107500000Y-137000000D03*
D15*
X107500000Y-139540000D03*
X107500000Y-142080000D03*
%TD*%
D10*
%TO.C,R6*%
X116900000Y-121190000D03*
D11*
X109280000Y-121190000D03*
%TD*%
D12*
%TO.C,D1*%
X73830000Y-109060000D03*
D13*
X76370000Y-109060000D03*
%TD*%
D10*
%TO.C,C4*%
X69620000Y-103930000D03*
X74620000Y-103930000D03*
%TD*%
D16*
%TO.C,D16*%
X117500000Y-133000000D03*
D11*
X117500000Y-125380000D03*
%TD*%
D12*
%TO.C,RV6*%
X86630000Y-69020000D03*
D13*
X89130000Y-69020000D03*
X91630000Y-69020000D03*
D17*
X84730000Y-62020000D03*
X93530000Y-62020000D03*
%TD*%
D12*
%TO.C,RV7*%
X68140000Y-80310000D03*
D13*
X70640000Y-80310000D03*
X73140000Y-80310000D03*
D17*
X66240000Y-73310000D03*
X75040000Y-73310000D03*
%TD*%
D14*
%TO.C,SW4*%
X87500000Y-137000000D03*
D15*
X87500000Y-139540000D03*
X87500000Y-142080000D03*
%TD*%
D16*
%TO.C,D15*%
X112500000Y-133000000D03*
D11*
X112500000Y-125380000D03*
%TD*%
D16*
%TO.C,D10*%
X87500000Y-133000000D03*
D11*
X87500000Y-125380000D03*
%TD*%
D16*
%TO.C,D24*%
X134000000Y-106000000D03*
D11*
X141620000Y-106000000D03*
%TD*%
D16*
%TO.C,D22*%
X125000000Y-84000000D03*
D11*
X132620000Y-84000000D03*
%TD*%
D16*
%TO.C,D13*%
X102500000Y-133000000D03*
D11*
X102500000Y-125380000D03*
%TD*%
D14*
%TO.C,J8*%
X77000000Y-130048000D03*
D15*
X77000000Y-127508000D03*
%TD*%
D12*
%TO.C,D3*%
X79300000Y-81980000D03*
D13*
X81840000Y-81980000D03*
%TD*%
D10*
%TO.C,C3*%
X119400000Y-92230000D03*
X114400000Y-92230000D03*
%TD*%
%TO.C,R3*%
X90920000Y-118810000D03*
D11*
X83300000Y-118810000D03*
%TD*%
D12*
%TO.C,RV1*%
X97460000Y-121980000D03*
D13*
X99960000Y-121980000D03*
X102460000Y-121980000D03*
D17*
X95560000Y-114980000D03*
X104360000Y-114980000D03*
%TD*%
D14*
%TO.C,SW5*%
X92500000Y-137000000D03*
D15*
X92500000Y-139540000D03*
X92500000Y-142080000D03*
%TD*%
D10*
%TO.C,R1*%
X113970000Y-87390000D03*
D11*
X113970000Y-79770000D03*
%TD*%
D12*
%TO.C,D4*%
X91550000Y-74490000D03*
D13*
X94090000Y-74490000D03*
%TD*%
D12*
%TO.C,D6*%
X118100000Y-81980000D03*
D13*
X120640000Y-81980000D03*
%TD*%
D10*
%TO.C,C1*%
X88470000Y-87560000D03*
X83470000Y-87560000D03*
%TD*%
D16*
%TO.C,C2*%
X110550000Y-115174888D03*
D10*
X110550000Y-117674888D03*
%TD*%
%TO.C,R4*%
X74550000Y-121190000D03*
D11*
X74550000Y-113570000D03*
%TD*%
D18*
%TO.C,MK2*%
X125000000Y-62500000D03*
%TD*%
D12*
%TO.C,RV4*%
X126800000Y-80310000D03*
D13*
X129300000Y-80310000D03*
X131800000Y-80310000D03*
D17*
X124900000Y-73310000D03*
X133700000Y-73310000D03*
%TD*%
D12*
%TO.C,D7*%
X124700000Y-94750000D03*
D13*
X127240000Y-94750000D03*
%TD*%
D10*
%TO.C,R2*%
X90940000Y-115440000D03*
D11*
X83320000Y-115440000D03*
%TD*%
D14*
%TO.C,J5*%
X72898000Y-127508000D03*
D15*
X72898000Y-130048000D03*
X72898000Y-132588000D03*
%TD*%
D14*
%TO.C,J4*%
X128000000Y-134000000D03*
D15*
X125460000Y-134000000D03*
%TD*%
D16*
%TO.C,D11*%
X92500000Y-133000000D03*
D11*
X92500000Y-125380000D03*
%TD*%
D14*
%TO.C,J1*%
X128000000Y-130000000D03*
D15*
X125460000Y-130000000D03*
%TD*%
D14*
%TO.C,SW3*%
X82500000Y-137000000D03*
D15*
X82500000Y-139540000D03*
X82500000Y-142080000D03*
%TD*%
D16*
%TO.C,D9*%
X82500000Y-133000000D03*
D11*
X82500000Y-125380000D03*
%TD*%
D14*
%TO.C,SW1*%
X78185000Y-137030000D03*
D15*
X75645000Y-137030000D03*
X73105000Y-137030000D03*
%TD*%
D12*
%TO.C,RV3*%
X136300000Y-99590000D03*
D13*
X138800000Y-99590000D03*
X141300000Y-99590000D03*
D17*
X134400000Y-92590000D03*
X143200000Y-92590000D03*
%TD*%
D12*
%TO.C,RV8*%
X58700000Y-99590000D03*
D13*
X61200000Y-99590000D03*
X63700000Y-99590000D03*
D17*
X56800000Y-92590000D03*
X65600000Y-92590000D03*
%TD*%
D12*
%TO.C,RV2*%
X135050000Y-121200000D03*
D13*
X137550000Y-121200000D03*
X140050000Y-121200000D03*
D17*
X133150000Y-114200000D03*
X141950000Y-114200000D03*
%TD*%
D10*
%TO.C,R5*%
X71180000Y-121190000D03*
D11*
X71180000Y-113570000D03*
%TD*%
D16*
%TO.C,D20*%
X80000000Y-76000000D03*
D11*
X80000000Y-68380000D03*
%TD*%
D16*
%TO.C,D19*%
X74000000Y-84000000D03*
D11*
X66380000Y-84000000D03*
%TD*%
D14*
%TO.C,J2*%
X128000000Y-138000000D03*
D15*
X125460000Y-138000000D03*
%TD*%
D12*
%TO.C,RV9*%
X59870000Y-121200000D03*
D13*
X62370000Y-121200000D03*
X64870000Y-121200000D03*
D17*
X57970000Y-114200000D03*
X66770000Y-114200000D03*
%TD*%
D19*
%TO.C,SW2*%
X97500000Y-85700000D03*
X100000000Y-85700000D03*
X102500000Y-85700000D03*
X105000000Y-85700000D03*
X105000000Y-104000000D03*
X102500000Y-104000000D03*
X100000000Y-104000000D03*
X97500000Y-104000000D03*
D20*
X95000000Y-104000000D03*
D19*
X95000000Y-85700000D03*
D21*
X92000000Y-95950000D03*
X108000000Y-95950000D03*
%TD*%
D16*
%TO.C,D18*%
X66000000Y-103000000D03*
D11*
X58380000Y-103000000D03*
%TD*%
D14*
%TO.C,J3*%
X128000000Y-126000000D03*
D15*
X125460000Y-126000000D03*
%TD*%
M02*
