%TF.GenerationSoftware,KiCad,Pcbnew,8.0.4*%
%TF.CreationDate,2024-08-23T11:40:29+01:00*%
%TF.ProjectId,Esp32EduModular-Baby8,45737033-3245-4647-954d-6f64756c6172,rev?*%
%TF.SameCoordinates,Original*%
%TF.FileFunction,Legend,Bot*%
%TF.FilePolarity,Positive*%
%FSLAX46Y46*%
G04 Gerber Fmt 4.6, Leading zero omitted, Abs format (unit mm)*
G04 Created by KiCad (PCBNEW 8.0.4) date 2024-08-23 11:40:29*
%MOMM*%
%LPD*%
G01*
G04 APERTURE LIST*
%ADD10C,0.100000*%
G04 APERTURE END LIST*
D10*
X55594359Y-97569098D02*
X55594359Y-96769098D01*
X55213407Y-97569098D02*
X55213407Y-96769098D01*
X55213407Y-96769098D02*
X54756264Y-97569098D01*
X54756264Y-97569098D02*
X54756264Y-96769098D01*
X56775312Y-99345008D02*
X56508645Y-100145008D01*
X56508645Y-100145008D02*
X56241979Y-99345008D01*
X55518169Y-100068817D02*
X55556265Y-100106913D01*
X55556265Y-100106913D02*
X55670550Y-100145008D01*
X55670550Y-100145008D02*
X55746741Y-100145008D01*
X55746741Y-100145008D02*
X55861027Y-100106913D01*
X55861027Y-100106913D02*
X55937217Y-100030722D01*
X55937217Y-100030722D02*
X55975312Y-99954532D01*
X55975312Y-99954532D02*
X56013408Y-99802151D01*
X56013408Y-99802151D02*
X56013408Y-99687865D01*
X56013408Y-99687865D02*
X55975312Y-99535484D01*
X55975312Y-99535484D02*
X55937217Y-99459293D01*
X55937217Y-99459293D02*
X55861027Y-99383103D01*
X55861027Y-99383103D02*
X55746741Y-99345008D01*
X55746741Y-99345008D02*
X55670550Y-99345008D01*
X55670550Y-99345008D02*
X55556265Y-99383103D01*
X55556265Y-99383103D02*
X55518169Y-99421198D01*
X54718169Y-100068817D02*
X54756265Y-100106913D01*
X54756265Y-100106913D02*
X54870550Y-100145008D01*
X54870550Y-100145008D02*
X54946741Y-100145008D01*
X54946741Y-100145008D02*
X55061027Y-100106913D01*
X55061027Y-100106913D02*
X55137217Y-100030722D01*
X55137217Y-100030722D02*
X55175312Y-99954532D01*
X55175312Y-99954532D02*
X55213408Y-99802151D01*
X55213408Y-99802151D02*
X55213408Y-99687865D01*
X55213408Y-99687865D02*
X55175312Y-99535484D01*
X55175312Y-99535484D02*
X55137217Y-99459293D01*
X55137217Y-99459293D02*
X55061027Y-99383103D01*
X55061027Y-99383103D02*
X54946741Y-99345008D01*
X54946741Y-99345008D02*
X54870550Y-99345008D01*
X54870550Y-99345008D02*
X54756265Y-99383103D01*
X54756265Y-99383103D02*
X54718169Y-99421198D01*
X56394360Y-100671058D02*
X56470550Y-100632963D01*
X56470550Y-100632963D02*
X56584836Y-100632963D01*
X56584836Y-100632963D02*
X56699122Y-100671058D01*
X56699122Y-100671058D02*
X56775312Y-100747248D01*
X56775312Y-100747248D02*
X56813407Y-100823439D01*
X56813407Y-100823439D02*
X56851503Y-100975820D01*
X56851503Y-100975820D02*
X56851503Y-101090106D01*
X56851503Y-101090106D02*
X56813407Y-101242487D01*
X56813407Y-101242487D02*
X56775312Y-101318677D01*
X56775312Y-101318677D02*
X56699122Y-101394868D01*
X56699122Y-101394868D02*
X56584836Y-101432963D01*
X56584836Y-101432963D02*
X56508645Y-101432963D01*
X56508645Y-101432963D02*
X56394360Y-101394868D01*
X56394360Y-101394868D02*
X56356264Y-101356772D01*
X56356264Y-101356772D02*
X56356264Y-101090106D01*
X56356264Y-101090106D02*
X56508645Y-101090106D01*
X56013407Y-101432963D02*
X56013407Y-100632963D01*
X56013407Y-100632963D02*
X55556264Y-101432963D01*
X55556264Y-101432963D02*
X55556264Y-100632963D01*
X55175312Y-101432963D02*
X55175312Y-100632963D01*
X55175312Y-100632963D02*
X54984836Y-100632963D01*
X54984836Y-100632963D02*
X54870550Y-100671058D01*
X54870550Y-100671058D02*
X54794360Y-100747248D01*
X54794360Y-100747248D02*
X54756265Y-100823439D01*
X54756265Y-100823439D02*
X54718169Y-100975820D01*
X54718169Y-100975820D02*
X54718169Y-101090106D01*
X54718169Y-101090106D02*
X54756265Y-101242487D01*
X54756265Y-101242487D02*
X54794360Y-101318677D01*
X54794360Y-101318677D02*
X54870550Y-101394868D01*
X54870550Y-101394868D02*
X54984836Y-101432963D01*
X54984836Y-101432963D02*
X55175312Y-101432963D01*
X56165788Y-102644727D02*
X56203884Y-102682823D01*
X56203884Y-102682823D02*
X56318169Y-102720918D01*
X56318169Y-102720918D02*
X56394360Y-102720918D01*
X56394360Y-102720918D02*
X56508646Y-102682823D01*
X56508646Y-102682823D02*
X56584836Y-102606632D01*
X56584836Y-102606632D02*
X56622931Y-102530442D01*
X56622931Y-102530442D02*
X56661027Y-102378061D01*
X56661027Y-102378061D02*
X56661027Y-102263775D01*
X56661027Y-102263775D02*
X56622931Y-102111394D01*
X56622931Y-102111394D02*
X56584836Y-102035203D01*
X56584836Y-102035203D02*
X56508646Y-101959013D01*
X56508646Y-101959013D02*
X56394360Y-101920918D01*
X56394360Y-101920918D02*
X56318169Y-101920918D01*
X56318169Y-101920918D02*
X56203884Y-101959013D01*
X56203884Y-101959013D02*
X56165788Y-101997108D01*
X55441979Y-102720918D02*
X55822931Y-102720918D01*
X55822931Y-102720918D02*
X55822931Y-101920918D01*
X55175312Y-102720918D02*
X55175312Y-101920918D01*
X54718169Y-102720918D02*
X55061027Y-102263775D01*
X54718169Y-101920918D02*
X55175312Y-102378061D01*
X57080074Y-103208873D02*
X56622931Y-103208873D01*
X56851503Y-104008873D02*
X56851503Y-103208873D01*
X55899121Y-104008873D02*
X56165788Y-103627920D01*
X56356264Y-104008873D02*
X56356264Y-103208873D01*
X56356264Y-103208873D02*
X56051502Y-103208873D01*
X56051502Y-103208873D02*
X55975312Y-103246968D01*
X55975312Y-103246968D02*
X55937217Y-103285063D01*
X55937217Y-103285063D02*
X55899121Y-103361254D01*
X55899121Y-103361254D02*
X55899121Y-103475539D01*
X55899121Y-103475539D02*
X55937217Y-103551730D01*
X55937217Y-103551730D02*
X55975312Y-103589825D01*
X55975312Y-103589825D02*
X56051502Y-103627920D01*
X56051502Y-103627920D02*
X56356264Y-103627920D01*
X55556264Y-104008873D02*
X55556264Y-103208873D01*
X54756265Y-103246968D02*
X54832455Y-103208873D01*
X54832455Y-103208873D02*
X54946741Y-103208873D01*
X54946741Y-103208873D02*
X55061027Y-103246968D01*
X55061027Y-103246968D02*
X55137217Y-103323158D01*
X55137217Y-103323158D02*
X55175312Y-103399349D01*
X55175312Y-103399349D02*
X55213408Y-103551730D01*
X55213408Y-103551730D02*
X55213408Y-103666016D01*
X55213408Y-103666016D02*
X55175312Y-103818397D01*
X55175312Y-103818397D02*
X55137217Y-103894587D01*
X55137217Y-103894587D02*
X55061027Y-103970778D01*
X55061027Y-103970778D02*
X54946741Y-104008873D01*
X54946741Y-104008873D02*
X54870550Y-104008873D01*
X54870550Y-104008873D02*
X54756265Y-103970778D01*
X54756265Y-103970778D02*
X54718169Y-103932682D01*
X54718169Y-103932682D02*
X54718169Y-103666016D01*
X54718169Y-103666016D02*
X54870550Y-103666016D01*
X56775313Y-104534923D02*
X56851503Y-104496828D01*
X56851503Y-104496828D02*
X56965789Y-104496828D01*
X56965789Y-104496828D02*
X57080075Y-104534923D01*
X57080075Y-104534923D02*
X57156265Y-104611113D01*
X57156265Y-104611113D02*
X57194360Y-104687304D01*
X57194360Y-104687304D02*
X57232456Y-104839685D01*
X57232456Y-104839685D02*
X57232456Y-104953971D01*
X57232456Y-104953971D02*
X57194360Y-105106352D01*
X57194360Y-105106352D02*
X57156265Y-105182542D01*
X57156265Y-105182542D02*
X57080075Y-105258733D01*
X57080075Y-105258733D02*
X56965789Y-105296828D01*
X56965789Y-105296828D02*
X56889598Y-105296828D01*
X56889598Y-105296828D02*
X56775313Y-105258733D01*
X56775313Y-105258733D02*
X56737217Y-105220637D01*
X56737217Y-105220637D02*
X56737217Y-104953971D01*
X56737217Y-104953971D02*
X56889598Y-104953971D01*
X56432456Y-105068256D02*
X56051503Y-105068256D01*
X56508646Y-105296828D02*
X56241979Y-104496828D01*
X56241979Y-104496828D02*
X55975313Y-105296828D01*
X55822932Y-104496828D02*
X55365789Y-104496828D01*
X55594361Y-105296828D02*
X55594361Y-104496828D01*
X55099122Y-104877780D02*
X54832456Y-104877780D01*
X54718170Y-105296828D02*
X55099122Y-105296828D01*
X55099122Y-105296828D02*
X55099122Y-104496828D01*
X55099122Y-104496828D02*
X54718170Y-104496828D01*
X55403883Y-106508592D02*
X55441979Y-106546688D01*
X55441979Y-106546688D02*
X55556264Y-106584783D01*
X55556264Y-106584783D02*
X55632455Y-106584783D01*
X55632455Y-106584783D02*
X55746741Y-106546688D01*
X55746741Y-106546688D02*
X55822931Y-106470497D01*
X55822931Y-106470497D02*
X55861026Y-106394307D01*
X55861026Y-106394307D02*
X55899122Y-106241926D01*
X55899122Y-106241926D02*
X55899122Y-106127640D01*
X55899122Y-106127640D02*
X55861026Y-105975259D01*
X55861026Y-105975259D02*
X55822931Y-105899068D01*
X55822931Y-105899068D02*
X55746741Y-105822878D01*
X55746741Y-105822878D02*
X55632455Y-105784783D01*
X55632455Y-105784783D02*
X55556264Y-105784783D01*
X55556264Y-105784783D02*
X55441979Y-105822878D01*
X55441979Y-105822878D02*
X55403883Y-105860973D01*
X55175312Y-105784783D02*
X54908645Y-106584783D01*
X54908645Y-106584783D02*
X54641979Y-105784783D01*
X56470551Y-107453690D02*
X56203885Y-107453690D01*
X56089599Y-107872738D02*
X56470551Y-107872738D01*
X56470551Y-107872738D02*
X56470551Y-107072738D01*
X56470551Y-107072738D02*
X56089599Y-107072738D01*
X55822932Y-107072738D02*
X55289598Y-107872738D01*
X55289598Y-107072738D02*
X55822932Y-107872738D01*
X55099122Y-107072738D02*
X54641979Y-107072738D01*
X54870551Y-107872738D02*
X54870551Y-107072738D01*
X56165788Y-109160693D02*
X56432455Y-108779740D01*
X56622931Y-109160693D02*
X56622931Y-108360693D01*
X56622931Y-108360693D02*
X56318169Y-108360693D01*
X56318169Y-108360693D02*
X56241979Y-108398788D01*
X56241979Y-108398788D02*
X56203884Y-108436883D01*
X56203884Y-108436883D02*
X56165788Y-108513074D01*
X56165788Y-108513074D02*
X56165788Y-108627359D01*
X56165788Y-108627359D02*
X56203884Y-108703550D01*
X56203884Y-108703550D02*
X56241979Y-108741645D01*
X56241979Y-108741645D02*
X56318169Y-108779740D01*
X56318169Y-108779740D02*
X56622931Y-108779740D01*
X55937217Y-108360693D02*
X55480074Y-108360693D01*
X55708646Y-109160693D02*
X55708646Y-108360693D01*
X55213407Y-109160693D02*
X55213407Y-108360693D01*
X55213407Y-108360693D02*
X54756264Y-109160693D01*
X54756264Y-109160693D02*
X54756264Y-108360693D01*
X145091353Y-96769098D02*
X144938972Y-96769098D01*
X144938972Y-96769098D02*
X144862782Y-96807193D01*
X144862782Y-96807193D02*
X144786591Y-96883383D01*
X144786591Y-96883383D02*
X144748496Y-97035764D01*
X144748496Y-97035764D02*
X144748496Y-97302431D01*
X144748496Y-97302431D02*
X144786591Y-97454812D01*
X144786591Y-97454812D02*
X144862782Y-97531003D01*
X144862782Y-97531003D02*
X144938972Y-97569098D01*
X144938972Y-97569098D02*
X145091353Y-97569098D01*
X145091353Y-97569098D02*
X145167544Y-97531003D01*
X145167544Y-97531003D02*
X145243734Y-97454812D01*
X145243734Y-97454812D02*
X145281830Y-97302431D01*
X145281830Y-97302431D02*
X145281830Y-97035764D01*
X145281830Y-97035764D02*
X145243734Y-96883383D01*
X145243734Y-96883383D02*
X145167544Y-96807193D01*
X145167544Y-96807193D02*
X145091353Y-96769098D01*
X144405639Y-96769098D02*
X144405639Y-97416717D01*
X144405639Y-97416717D02*
X144367544Y-97492907D01*
X144367544Y-97492907D02*
X144329449Y-97531003D01*
X144329449Y-97531003D02*
X144253258Y-97569098D01*
X144253258Y-97569098D02*
X144100877Y-97569098D01*
X144100877Y-97569098D02*
X144024687Y-97531003D01*
X144024687Y-97531003D02*
X143986592Y-97492907D01*
X143986592Y-97492907D02*
X143948496Y-97416717D01*
X143948496Y-97416717D02*
X143948496Y-96769098D01*
X143681830Y-96769098D02*
X143224687Y-96769098D01*
X143453259Y-97569098D02*
X143453259Y-96769098D01*
X145358020Y-99345008D02*
X145091353Y-100145008D01*
X145091353Y-100145008D02*
X144824687Y-99345008D01*
X144100877Y-100068817D02*
X144138973Y-100106913D01*
X144138973Y-100106913D02*
X144253258Y-100145008D01*
X144253258Y-100145008D02*
X144329449Y-100145008D01*
X144329449Y-100145008D02*
X144443735Y-100106913D01*
X144443735Y-100106913D02*
X144519925Y-100030722D01*
X144519925Y-100030722D02*
X144558020Y-99954532D01*
X144558020Y-99954532D02*
X144596116Y-99802151D01*
X144596116Y-99802151D02*
X144596116Y-99687865D01*
X144596116Y-99687865D02*
X144558020Y-99535484D01*
X144558020Y-99535484D02*
X144519925Y-99459293D01*
X144519925Y-99459293D02*
X144443735Y-99383103D01*
X144443735Y-99383103D02*
X144329449Y-99345008D01*
X144329449Y-99345008D02*
X144253258Y-99345008D01*
X144253258Y-99345008D02*
X144138973Y-99383103D01*
X144138973Y-99383103D02*
X144100877Y-99421198D01*
X143300877Y-100068817D02*
X143338973Y-100106913D01*
X143338973Y-100106913D02*
X143453258Y-100145008D01*
X143453258Y-100145008D02*
X143529449Y-100145008D01*
X143529449Y-100145008D02*
X143643735Y-100106913D01*
X143643735Y-100106913D02*
X143719925Y-100030722D01*
X143719925Y-100030722D02*
X143758020Y-99954532D01*
X143758020Y-99954532D02*
X143796116Y-99802151D01*
X143796116Y-99802151D02*
X143796116Y-99687865D01*
X143796116Y-99687865D02*
X143758020Y-99535484D01*
X143758020Y-99535484D02*
X143719925Y-99459293D01*
X143719925Y-99459293D02*
X143643735Y-99383103D01*
X143643735Y-99383103D02*
X143529449Y-99345008D01*
X143529449Y-99345008D02*
X143453258Y-99345008D01*
X143453258Y-99345008D02*
X143338973Y-99383103D01*
X143338973Y-99383103D02*
X143300877Y-99421198D01*
X144824687Y-100671058D02*
X144900877Y-100632963D01*
X144900877Y-100632963D02*
X145015163Y-100632963D01*
X145015163Y-100632963D02*
X145129449Y-100671058D01*
X145129449Y-100671058D02*
X145205639Y-100747248D01*
X145205639Y-100747248D02*
X145243734Y-100823439D01*
X145243734Y-100823439D02*
X145281830Y-100975820D01*
X145281830Y-100975820D02*
X145281830Y-101090106D01*
X145281830Y-101090106D02*
X145243734Y-101242487D01*
X145243734Y-101242487D02*
X145205639Y-101318677D01*
X145205639Y-101318677D02*
X145129449Y-101394868D01*
X145129449Y-101394868D02*
X145015163Y-101432963D01*
X145015163Y-101432963D02*
X144938972Y-101432963D01*
X144938972Y-101432963D02*
X144824687Y-101394868D01*
X144824687Y-101394868D02*
X144786591Y-101356772D01*
X144786591Y-101356772D02*
X144786591Y-101090106D01*
X144786591Y-101090106D02*
X144938972Y-101090106D01*
X144443734Y-101432963D02*
X144443734Y-100632963D01*
X144443734Y-100632963D02*
X143986591Y-101432963D01*
X143986591Y-101432963D02*
X143986591Y-100632963D01*
X143605639Y-101432963D02*
X143605639Y-100632963D01*
X143605639Y-100632963D02*
X143415163Y-100632963D01*
X143415163Y-100632963D02*
X143300877Y-100671058D01*
X143300877Y-100671058D02*
X143224687Y-100747248D01*
X143224687Y-100747248D02*
X143186592Y-100823439D01*
X143186592Y-100823439D02*
X143148496Y-100975820D01*
X143148496Y-100975820D02*
X143148496Y-101090106D01*
X143148496Y-101090106D02*
X143186592Y-101242487D01*
X143186592Y-101242487D02*
X143224687Y-101318677D01*
X143224687Y-101318677D02*
X143300877Y-101394868D01*
X143300877Y-101394868D02*
X143415163Y-101432963D01*
X143415163Y-101432963D02*
X143605639Y-101432963D01*
X144786591Y-102644727D02*
X144824687Y-102682823D01*
X144824687Y-102682823D02*
X144938972Y-102720918D01*
X144938972Y-102720918D02*
X145015163Y-102720918D01*
X145015163Y-102720918D02*
X145129449Y-102682823D01*
X145129449Y-102682823D02*
X145205639Y-102606632D01*
X145205639Y-102606632D02*
X145243734Y-102530442D01*
X145243734Y-102530442D02*
X145281830Y-102378061D01*
X145281830Y-102378061D02*
X145281830Y-102263775D01*
X145281830Y-102263775D02*
X145243734Y-102111394D01*
X145243734Y-102111394D02*
X145205639Y-102035203D01*
X145205639Y-102035203D02*
X145129449Y-101959013D01*
X145129449Y-101959013D02*
X145015163Y-101920918D01*
X145015163Y-101920918D02*
X144938972Y-101920918D01*
X144938972Y-101920918D02*
X144824687Y-101959013D01*
X144824687Y-101959013D02*
X144786591Y-101997108D01*
X144062782Y-102720918D02*
X144443734Y-102720918D01*
X144443734Y-102720918D02*
X144443734Y-101920918D01*
X143796115Y-102720918D02*
X143796115Y-101920918D01*
X143338972Y-102720918D02*
X143681830Y-102263775D01*
X143338972Y-101920918D02*
X143796115Y-102378061D01*
X145358020Y-103208873D02*
X144900877Y-103208873D01*
X145129449Y-104008873D02*
X145129449Y-103208873D01*
X144177067Y-104008873D02*
X144443734Y-103627920D01*
X144634210Y-104008873D02*
X144634210Y-103208873D01*
X144634210Y-103208873D02*
X144329448Y-103208873D01*
X144329448Y-103208873D02*
X144253258Y-103246968D01*
X144253258Y-103246968D02*
X144215163Y-103285063D01*
X144215163Y-103285063D02*
X144177067Y-103361254D01*
X144177067Y-103361254D02*
X144177067Y-103475539D01*
X144177067Y-103475539D02*
X144215163Y-103551730D01*
X144215163Y-103551730D02*
X144253258Y-103589825D01*
X144253258Y-103589825D02*
X144329448Y-103627920D01*
X144329448Y-103627920D02*
X144634210Y-103627920D01*
X143834210Y-104008873D02*
X143834210Y-103208873D01*
X143034211Y-103246968D02*
X143110401Y-103208873D01*
X143110401Y-103208873D02*
X143224687Y-103208873D01*
X143224687Y-103208873D02*
X143338973Y-103246968D01*
X143338973Y-103246968D02*
X143415163Y-103323158D01*
X143415163Y-103323158D02*
X143453258Y-103399349D01*
X143453258Y-103399349D02*
X143491354Y-103551730D01*
X143491354Y-103551730D02*
X143491354Y-103666016D01*
X143491354Y-103666016D02*
X143453258Y-103818397D01*
X143453258Y-103818397D02*
X143415163Y-103894587D01*
X143415163Y-103894587D02*
X143338973Y-103970778D01*
X143338973Y-103970778D02*
X143224687Y-104008873D01*
X143224687Y-104008873D02*
X143148496Y-104008873D01*
X143148496Y-104008873D02*
X143034211Y-103970778D01*
X143034211Y-103970778D02*
X142996115Y-103932682D01*
X142996115Y-103932682D02*
X142996115Y-103666016D01*
X142996115Y-103666016D02*
X143148496Y-103666016D01*
X144824687Y-104534923D02*
X144900877Y-104496828D01*
X144900877Y-104496828D02*
X145015163Y-104496828D01*
X145015163Y-104496828D02*
X145129449Y-104534923D01*
X145129449Y-104534923D02*
X145205639Y-104611113D01*
X145205639Y-104611113D02*
X145243734Y-104687304D01*
X145243734Y-104687304D02*
X145281830Y-104839685D01*
X145281830Y-104839685D02*
X145281830Y-104953971D01*
X145281830Y-104953971D02*
X145243734Y-105106352D01*
X145243734Y-105106352D02*
X145205639Y-105182542D01*
X145205639Y-105182542D02*
X145129449Y-105258733D01*
X145129449Y-105258733D02*
X145015163Y-105296828D01*
X145015163Y-105296828D02*
X144938972Y-105296828D01*
X144938972Y-105296828D02*
X144824687Y-105258733D01*
X144824687Y-105258733D02*
X144786591Y-105220637D01*
X144786591Y-105220637D02*
X144786591Y-104953971D01*
X144786591Y-104953971D02*
X144938972Y-104953971D01*
X144481830Y-105068256D02*
X144100877Y-105068256D01*
X144558020Y-105296828D02*
X144291353Y-104496828D01*
X144291353Y-104496828D02*
X144024687Y-105296828D01*
X143872306Y-104496828D02*
X143415163Y-104496828D01*
X143643735Y-105296828D02*
X143643735Y-104496828D01*
X143148496Y-104877780D02*
X142881830Y-104877780D01*
X142767544Y-105296828D02*
X143148496Y-105296828D01*
X143148496Y-105296828D02*
X143148496Y-104496828D01*
X143148496Y-104496828D02*
X142767544Y-104496828D01*
X144786591Y-106508592D02*
X144824687Y-106546688D01*
X144824687Y-106546688D02*
X144938972Y-106584783D01*
X144938972Y-106584783D02*
X145015163Y-106584783D01*
X145015163Y-106584783D02*
X145129449Y-106546688D01*
X145129449Y-106546688D02*
X145205639Y-106470497D01*
X145205639Y-106470497D02*
X145243734Y-106394307D01*
X145243734Y-106394307D02*
X145281830Y-106241926D01*
X145281830Y-106241926D02*
X145281830Y-106127640D01*
X145281830Y-106127640D02*
X145243734Y-105975259D01*
X145243734Y-105975259D02*
X145205639Y-105899068D01*
X145205639Y-105899068D02*
X145129449Y-105822878D01*
X145129449Y-105822878D02*
X145015163Y-105784783D01*
X145015163Y-105784783D02*
X144938972Y-105784783D01*
X144938972Y-105784783D02*
X144824687Y-105822878D01*
X144824687Y-105822878D02*
X144786591Y-105860973D01*
X144558020Y-105784783D02*
X144291353Y-106584783D01*
X144291353Y-106584783D02*
X144024687Y-105784783D01*
X145243734Y-107453690D02*
X144977068Y-107453690D01*
X144862782Y-107872738D02*
X145243734Y-107872738D01*
X145243734Y-107872738D02*
X145243734Y-107072738D01*
X145243734Y-107072738D02*
X144862782Y-107072738D01*
X144596115Y-107072738D02*
X144062781Y-107872738D01*
X144062781Y-107072738D02*
X144596115Y-107872738D01*
X143872305Y-107072738D02*
X143415162Y-107072738D01*
X143643734Y-107872738D02*
X143643734Y-107072738D01*
X144786591Y-109160693D02*
X145053258Y-108779740D01*
X145243734Y-109160693D02*
X145243734Y-108360693D01*
X145243734Y-108360693D02*
X144938972Y-108360693D01*
X144938972Y-108360693D02*
X144862782Y-108398788D01*
X144862782Y-108398788D02*
X144824687Y-108436883D01*
X144824687Y-108436883D02*
X144786591Y-108513074D01*
X144786591Y-108513074D02*
X144786591Y-108627359D01*
X144786591Y-108627359D02*
X144824687Y-108703550D01*
X144824687Y-108703550D02*
X144862782Y-108741645D01*
X144862782Y-108741645D02*
X144938972Y-108779740D01*
X144938972Y-108779740D02*
X145243734Y-108779740D01*
X144558020Y-108360693D02*
X144100877Y-108360693D01*
X144329449Y-109160693D02*
X144329449Y-108360693D01*
X143834210Y-109160693D02*
X143834210Y-108360693D01*
X143834210Y-108360693D02*
X143377067Y-109160693D01*
X143377067Y-109160693D02*
X143377067Y-108360693D01*
M02*
