%TF.GenerationSoftware,KiCad,Pcbnew,(6.0.5)*%
%TF.CreationDate,2022-10-27T12:03:09+01:00*%
%TF.ProjectId,NanoMultiTone,4e616e6f-4d75-46c7-9469-546f6e652e6b,rev?*%
%TF.SameCoordinates,Original*%
%TF.FileFunction,Legend,Top*%
%TF.FilePolarity,Positive*%
%FSLAX46Y46*%
G04 Gerber Fmt 4.6, Leading zero omitted, Abs format (unit mm)*
G04 Created by KiCad (PCBNEW (6.0.5)) date 2022-10-27 12:03:09*
%MOMM*%
%LPD*%
G01*
G04 APERTURE LIST*
%ADD10C,0.150000*%
%ADD11C,0.200000*%
%ADD12C,0.100000*%
%ADD13C,0.300000*%
%ADD14C,0.120000*%
G04 APERTURE END LIST*
D10*
X112000000Y-134000000D02*
X103000000Y-134000000D01*
X103000000Y-134000000D02*
X103000000Y-141000000D01*
X103000000Y-141000000D02*
X112000000Y-141000000D01*
X112000000Y-141000000D02*
X112000000Y-134000000D01*
X112000000Y-109000000D02*
X103000000Y-109000000D01*
X103000000Y-109000000D02*
X103000000Y-116000000D01*
X103000000Y-116000000D02*
X112000000Y-116000000D01*
X112000000Y-116000000D02*
X112000000Y-109000000D01*
X112000000Y-84000000D02*
X103000000Y-84000000D01*
X103000000Y-84000000D02*
X103000000Y-91000000D01*
X103000000Y-91000000D02*
X112000000Y-91000000D01*
X112000000Y-91000000D02*
X112000000Y-84000000D01*
X112000000Y-59000000D02*
X103000000Y-59000000D01*
X103000000Y-59000000D02*
X103000000Y-66000000D01*
X103000000Y-66000000D02*
X112000000Y-66000000D01*
X112000000Y-66000000D02*
X112000000Y-59000000D01*
X58866190Y-114498571D02*
X59009047Y-114546190D01*
X59056666Y-114593809D01*
X59104285Y-114689047D01*
X59104285Y-114831904D01*
X59056666Y-114927142D01*
X59009047Y-114974761D01*
X58913809Y-115022380D01*
X58532857Y-115022380D01*
X58532857Y-114022380D01*
X58866190Y-114022380D01*
X58961428Y-114070000D01*
X59009047Y-114117619D01*
X59056666Y-114212857D01*
X59056666Y-114308095D01*
X59009047Y-114403333D01*
X58961428Y-114450952D01*
X58866190Y-114498571D01*
X58532857Y-114498571D01*
X60151904Y-114022380D02*
X60723333Y-114022380D01*
X60437619Y-115022380D02*
X60437619Y-114022380D01*
X60961428Y-114022380D02*
X61628095Y-115022380D01*
X61628095Y-114022380D02*
X60961428Y-115022380D01*
X63342380Y-115022380D02*
X63009047Y-114546190D01*
X62770952Y-115022380D02*
X62770952Y-114022380D01*
X63151904Y-114022380D01*
X63247142Y-114070000D01*
X63294761Y-114117619D01*
X63342380Y-114212857D01*
X63342380Y-114355714D01*
X63294761Y-114450952D01*
X63247142Y-114498571D01*
X63151904Y-114546190D01*
X62770952Y-114546190D01*
X63675714Y-114022380D02*
X64342380Y-115022380D01*
X64342380Y-114022380D02*
X63675714Y-115022380D01*
D11*
X144092857Y-85938095D02*
X144092857Y-84947619D01*
X143288095Y-83461904D02*
X143288095Y-82657142D01*
X143783333Y-83090476D01*
X143783333Y-82904761D01*
X143845238Y-82780952D01*
X143907142Y-82719047D01*
X144030952Y-82657142D01*
X144340476Y-82657142D01*
X144464285Y-82719047D01*
X144526190Y-82780952D01*
X144588095Y-82904761D01*
X144588095Y-83276190D01*
X144526190Y-83400000D01*
X144464285Y-83461904D01*
X144092857Y-81109523D02*
X144092857Y-80119047D01*
X143411904Y-78571428D02*
X143350000Y-78509523D01*
X143288095Y-78385714D01*
X143288095Y-78076190D01*
X143350000Y-77952380D01*
X143411904Y-77890476D01*
X143535714Y-77828571D01*
X143659523Y-77828571D01*
X143845238Y-77890476D01*
X144588095Y-78633333D01*
X144588095Y-77828571D01*
X144092857Y-76280952D02*
X144092857Y-75290476D01*
X144588095Y-73000000D02*
X144588095Y-73742857D01*
X144588095Y-73371428D02*
X143288095Y-73371428D01*
X143473809Y-73495238D01*
X143597619Y-73619047D01*
X143659523Y-73742857D01*
D10*
X114281904Y-90892380D02*
X114281904Y-89892380D01*
X114520000Y-89892380D01*
X114662857Y-89940000D01*
X114758095Y-90035238D01*
X114805714Y-90130476D01*
X114853333Y-90320952D01*
X114853333Y-90463809D01*
X114805714Y-90654285D01*
X114758095Y-90749523D01*
X114662857Y-90844761D01*
X114520000Y-90892380D01*
X114281904Y-90892380D01*
X115186666Y-89892380D02*
X115805714Y-89892380D01*
X115472380Y-90273333D01*
X115615238Y-90273333D01*
X115710476Y-90320952D01*
X115758095Y-90368571D01*
X115805714Y-90463809D01*
X115805714Y-90701904D01*
X115758095Y-90797142D01*
X115710476Y-90844761D01*
X115615238Y-90892380D01*
X115329523Y-90892380D01*
X115234285Y-90844761D01*
X115186666Y-90797142D01*
X114301904Y-74262380D02*
X114301904Y-73262380D01*
X114540000Y-73262380D01*
X114682857Y-73310000D01*
X114778095Y-73405238D01*
X114825714Y-73500476D01*
X114873333Y-73690952D01*
X114873333Y-73833809D01*
X114825714Y-74024285D01*
X114778095Y-74119523D01*
X114682857Y-74214761D01*
X114540000Y-74262380D01*
X114301904Y-74262380D01*
X115206666Y-73262380D02*
X115825714Y-73262380D01*
X115492380Y-73643333D01*
X115635238Y-73643333D01*
X115730476Y-73690952D01*
X115778095Y-73738571D01*
X115825714Y-73833809D01*
X115825714Y-74071904D01*
X115778095Y-74167142D01*
X115730476Y-74214761D01*
X115635238Y-74262380D01*
X115349523Y-74262380D01*
X115254285Y-74214761D01*
X115206666Y-74167142D01*
D12*
X119157142Y-143846666D02*
X119633333Y-143846666D01*
X119061904Y-144132380D02*
X119395238Y-143132380D01*
X119728571Y-144132380D01*
X120061904Y-144132380D02*
X120061904Y-143465714D01*
X120061904Y-143656190D02*
X120109523Y-143560952D01*
X120157142Y-143513333D01*
X120252380Y-143465714D01*
X120347619Y-143465714D01*
X121109523Y-144132380D02*
X121109523Y-143132380D01*
X121109523Y-144084761D02*
X121014285Y-144132380D01*
X120823809Y-144132380D01*
X120728571Y-144084761D01*
X120680952Y-144037142D01*
X120633333Y-143941904D01*
X120633333Y-143656190D01*
X120680952Y-143560952D01*
X120728571Y-143513333D01*
X120823809Y-143465714D01*
X121014285Y-143465714D01*
X121109523Y-143513333D01*
X122014285Y-143465714D02*
X122014285Y-144132380D01*
X121585714Y-143465714D02*
X121585714Y-143989523D01*
X121633333Y-144084761D01*
X121728571Y-144132380D01*
X121871428Y-144132380D01*
X121966666Y-144084761D01*
X122014285Y-144037142D01*
X122490476Y-144132380D02*
X122490476Y-143465714D01*
X122490476Y-143132380D02*
X122442857Y-143180000D01*
X122490476Y-143227619D01*
X122538095Y-143180000D01*
X122490476Y-143132380D01*
X122490476Y-143227619D01*
X122966666Y-143465714D02*
X122966666Y-144132380D01*
X122966666Y-143560952D02*
X123014285Y-143513333D01*
X123109523Y-143465714D01*
X123252380Y-143465714D01*
X123347619Y-143513333D01*
X123395238Y-143608571D01*
X123395238Y-144132380D01*
X124014285Y-144132380D02*
X123919047Y-144084761D01*
X123871428Y-144037142D01*
X123823809Y-143941904D01*
X123823809Y-143656190D01*
X123871428Y-143560952D01*
X123919047Y-143513333D01*
X124014285Y-143465714D01*
X124157142Y-143465714D01*
X124252380Y-143513333D01*
X124300000Y-143560952D01*
X124347619Y-143656190D01*
X124347619Y-143941904D01*
X124300000Y-144037142D01*
X124252380Y-144084761D01*
X124157142Y-144132380D01*
X124014285Y-144132380D01*
X125538095Y-144132380D02*
X125538095Y-143132380D01*
X126109523Y-144132380D01*
X126109523Y-143132380D01*
X127014285Y-144132380D02*
X127014285Y-143608571D01*
X126966666Y-143513333D01*
X126871428Y-143465714D01*
X126680952Y-143465714D01*
X126585714Y-143513333D01*
X127014285Y-144084761D02*
X126919047Y-144132380D01*
X126680952Y-144132380D01*
X126585714Y-144084761D01*
X126538095Y-143989523D01*
X126538095Y-143894285D01*
X126585714Y-143799047D01*
X126680952Y-143751428D01*
X126919047Y-143751428D01*
X127014285Y-143703809D01*
X127490476Y-143465714D02*
X127490476Y-144132380D01*
X127490476Y-143560952D02*
X127538095Y-143513333D01*
X127633333Y-143465714D01*
X127776190Y-143465714D01*
X127871428Y-143513333D01*
X127919047Y-143608571D01*
X127919047Y-144132380D01*
X128538095Y-144132380D02*
X128442857Y-144084761D01*
X128395238Y-144037142D01*
X128347619Y-143941904D01*
X128347619Y-143656190D01*
X128395238Y-143560952D01*
X128442857Y-143513333D01*
X128538095Y-143465714D01*
X128680952Y-143465714D01*
X128776190Y-143513333D01*
X128823809Y-143560952D01*
X128871428Y-143656190D01*
X128871428Y-143941904D01*
X128823809Y-144037142D01*
X128776190Y-144084761D01*
X128680952Y-144132380D01*
X128538095Y-144132380D01*
X130061904Y-144132380D02*
X130061904Y-143132380D01*
X130395238Y-143846666D01*
X130728571Y-143132380D01*
X130728571Y-144132380D01*
X131633333Y-143465714D02*
X131633333Y-144132380D01*
X131204761Y-143465714D02*
X131204761Y-143989523D01*
X131252380Y-144084761D01*
X131347619Y-144132380D01*
X131490476Y-144132380D01*
X131585714Y-144084761D01*
X131633333Y-144037142D01*
X132252380Y-144132380D02*
X132157142Y-144084761D01*
X132109523Y-143989523D01*
X132109523Y-143132380D01*
X132490476Y-143465714D02*
X132871428Y-143465714D01*
X132633333Y-143132380D02*
X132633333Y-143989523D01*
X132680952Y-144084761D01*
X132776190Y-144132380D01*
X132871428Y-144132380D01*
X133204761Y-144132380D02*
X133204761Y-143465714D01*
X133204761Y-143132380D02*
X133157142Y-143180000D01*
X133204761Y-143227619D01*
X133252380Y-143180000D01*
X133204761Y-143132380D01*
X133204761Y-143227619D01*
X134300000Y-143132380D02*
X134871428Y-143132380D01*
X134585714Y-144132380D02*
X134585714Y-143132380D01*
X135347619Y-144132380D02*
X135252380Y-144084761D01*
X135204761Y-144037142D01*
X135157142Y-143941904D01*
X135157142Y-143656190D01*
X135204761Y-143560952D01*
X135252380Y-143513333D01*
X135347619Y-143465714D01*
X135490476Y-143465714D01*
X135585714Y-143513333D01*
X135633333Y-143560952D01*
X135680952Y-143656190D01*
X135680952Y-143941904D01*
X135633333Y-144037142D01*
X135585714Y-144084761D01*
X135490476Y-144132380D01*
X135347619Y-144132380D01*
X136109523Y-143465714D02*
X136109523Y-144132380D01*
X136109523Y-143560952D02*
X136157142Y-143513333D01*
X136252380Y-143465714D01*
X136395238Y-143465714D01*
X136490476Y-143513333D01*
X136538095Y-143608571D01*
X136538095Y-144132380D01*
X137395238Y-144084761D02*
X137300000Y-144132380D01*
X137109523Y-144132380D01*
X137014285Y-144084761D01*
X136966666Y-143989523D01*
X136966666Y-143608571D01*
X137014285Y-143513333D01*
X137109523Y-143465714D01*
X137300000Y-143465714D01*
X137395238Y-143513333D01*
X137442857Y-143608571D01*
X137442857Y-143703809D01*
X136966666Y-143799047D01*
X123109523Y-145742380D02*
X123109523Y-144742380D01*
X123109523Y-145694761D02*
X123014285Y-145742380D01*
X122823809Y-145742380D01*
X122728571Y-145694761D01*
X122680952Y-145647142D01*
X122633333Y-145551904D01*
X122633333Y-145266190D01*
X122680952Y-145170952D01*
X122728571Y-145123333D01*
X122823809Y-145075714D01*
X123014285Y-145075714D01*
X123109523Y-145123333D01*
X123585714Y-145742380D02*
X123585714Y-145075714D01*
X123585714Y-144742380D02*
X123538095Y-144790000D01*
X123585714Y-144837619D01*
X123633333Y-144790000D01*
X123585714Y-144742380D01*
X123585714Y-144837619D01*
X123966666Y-145075714D02*
X124204761Y-145742380D01*
X124442857Y-145075714D02*
X124204761Y-145742380D01*
X124109523Y-145980476D01*
X124061904Y-146028095D01*
X123966666Y-146075714D01*
X125204761Y-145694761D02*
X125109523Y-145742380D01*
X124919047Y-145742380D01*
X124823809Y-145694761D01*
X124776190Y-145599523D01*
X124776190Y-145218571D01*
X124823809Y-145123333D01*
X124919047Y-145075714D01*
X125109523Y-145075714D01*
X125204761Y-145123333D01*
X125252380Y-145218571D01*
X125252380Y-145313809D01*
X124776190Y-145409047D01*
X125823809Y-145742380D02*
X125728571Y-145694761D01*
X125680952Y-145599523D01*
X125680952Y-144742380D01*
X126585714Y-145694761D02*
X126490476Y-145742380D01*
X126300000Y-145742380D01*
X126204761Y-145694761D01*
X126157142Y-145599523D01*
X126157142Y-145218571D01*
X126204761Y-145123333D01*
X126300000Y-145075714D01*
X126490476Y-145075714D01*
X126585714Y-145123333D01*
X126633333Y-145218571D01*
X126633333Y-145313809D01*
X126157142Y-145409047D01*
X127490476Y-145694761D02*
X127395238Y-145742380D01*
X127204761Y-145742380D01*
X127109523Y-145694761D01*
X127061904Y-145647142D01*
X127014285Y-145551904D01*
X127014285Y-145266190D01*
X127061904Y-145170952D01*
X127109523Y-145123333D01*
X127204761Y-145075714D01*
X127395238Y-145075714D01*
X127490476Y-145123333D01*
X127776190Y-145075714D02*
X128157142Y-145075714D01*
X127919047Y-144742380D02*
X127919047Y-145599523D01*
X127966666Y-145694761D01*
X128061904Y-145742380D01*
X128157142Y-145742380D01*
X128490476Y-145742380D02*
X128490476Y-145075714D01*
X128490476Y-145266190D02*
X128538095Y-145170952D01*
X128585714Y-145123333D01*
X128680952Y-145075714D01*
X128776190Y-145075714D01*
X129252380Y-145742380D02*
X129157142Y-145694761D01*
X129109523Y-145647142D01*
X129061904Y-145551904D01*
X129061904Y-145266190D01*
X129109523Y-145170952D01*
X129157142Y-145123333D01*
X129252380Y-145075714D01*
X129395238Y-145075714D01*
X129490476Y-145123333D01*
X129538095Y-145170952D01*
X129585714Y-145266190D01*
X129585714Y-145551904D01*
X129538095Y-145647142D01*
X129490476Y-145694761D01*
X129395238Y-145742380D01*
X129252380Y-145742380D01*
X130014285Y-145742380D02*
X130014285Y-145075714D01*
X130014285Y-145170952D02*
X130061904Y-145123333D01*
X130157142Y-145075714D01*
X130300000Y-145075714D01*
X130395238Y-145123333D01*
X130442857Y-145218571D01*
X130442857Y-145742380D01*
X130442857Y-145218571D02*
X130490476Y-145123333D01*
X130585714Y-145075714D01*
X130728571Y-145075714D01*
X130823809Y-145123333D01*
X130871428Y-145218571D01*
X130871428Y-145742380D01*
X131776190Y-145075714D02*
X131776190Y-145742380D01*
X131347619Y-145075714D02*
X131347619Y-145599523D01*
X131395238Y-145694761D01*
X131490476Y-145742380D01*
X131633333Y-145742380D01*
X131728571Y-145694761D01*
X131776190Y-145647142D01*
X132204761Y-145694761D02*
X132300000Y-145742380D01*
X132490476Y-145742380D01*
X132585714Y-145694761D01*
X132633333Y-145599523D01*
X132633333Y-145551904D01*
X132585714Y-145456666D01*
X132490476Y-145409047D01*
X132347619Y-145409047D01*
X132252380Y-145361428D01*
X132204761Y-145266190D01*
X132204761Y-145218571D01*
X132252380Y-145123333D01*
X132347619Y-145075714D01*
X132490476Y-145075714D01*
X132585714Y-145123333D01*
X133061904Y-145742380D02*
X133061904Y-145075714D01*
X133061904Y-144742380D02*
X133014285Y-144790000D01*
X133061904Y-144837619D01*
X133109523Y-144790000D01*
X133061904Y-144742380D01*
X133061904Y-144837619D01*
X133966666Y-145694761D02*
X133871428Y-145742380D01*
X133680952Y-145742380D01*
X133585714Y-145694761D01*
X133538095Y-145647142D01*
X133490476Y-145551904D01*
X133490476Y-145266190D01*
X133538095Y-145170952D01*
X133585714Y-145123333D01*
X133680952Y-145075714D01*
X133871428Y-145075714D01*
X133966666Y-145123333D01*
X124585714Y-146685714D02*
X124823809Y-147352380D01*
X125061904Y-146685714D01*
X125633333Y-146352380D02*
X125728571Y-146352380D01*
X125823809Y-146400000D01*
X125871428Y-146447619D01*
X125919047Y-146542857D01*
X125966666Y-146733333D01*
X125966666Y-146971428D01*
X125919047Y-147161904D01*
X125871428Y-147257142D01*
X125823809Y-147304761D01*
X125728571Y-147352380D01*
X125633333Y-147352380D01*
X125538095Y-147304761D01*
X125490476Y-147257142D01*
X125442857Y-147161904D01*
X125395238Y-146971428D01*
X125395238Y-146733333D01*
X125442857Y-146542857D01*
X125490476Y-146447619D01*
X125538095Y-146400000D01*
X125633333Y-146352380D01*
X126395238Y-147257142D02*
X126442857Y-147304761D01*
X126395238Y-147352380D01*
X126347619Y-147304761D01*
X126395238Y-147257142D01*
X126395238Y-147352380D01*
X127395238Y-147352380D02*
X126823809Y-147352380D01*
X127109523Y-147352380D02*
X127109523Y-146352380D01*
X127014285Y-146495238D01*
X126919047Y-146590476D01*
X126823809Y-146638095D01*
X128538095Y-146447619D02*
X128585714Y-146400000D01*
X128680952Y-146352380D01*
X128919047Y-146352380D01*
X129014285Y-146400000D01*
X129061904Y-146447619D01*
X129109523Y-146542857D01*
X129109523Y-146638095D01*
X129061904Y-146780952D01*
X128490476Y-147352380D01*
X129109523Y-147352380D01*
X129728571Y-146352380D02*
X129823809Y-146352380D01*
X129919047Y-146400000D01*
X129966666Y-146447619D01*
X130014285Y-146542857D01*
X130061904Y-146733333D01*
X130061904Y-146971428D01*
X130014285Y-147161904D01*
X129966666Y-147257142D01*
X129919047Y-147304761D01*
X129823809Y-147352380D01*
X129728571Y-147352380D01*
X129633333Y-147304761D01*
X129585714Y-147257142D01*
X129538095Y-147161904D01*
X129490476Y-146971428D01*
X129490476Y-146733333D01*
X129538095Y-146542857D01*
X129585714Y-146447619D01*
X129633333Y-146400000D01*
X129728571Y-146352380D01*
X130442857Y-146447619D02*
X130490476Y-146400000D01*
X130585714Y-146352380D01*
X130823809Y-146352380D01*
X130919047Y-146400000D01*
X130966666Y-146447619D01*
X131014285Y-146542857D01*
X131014285Y-146638095D01*
X130966666Y-146780952D01*
X130395238Y-147352380D01*
X131014285Y-147352380D01*
X131395238Y-146447619D02*
X131442857Y-146400000D01*
X131538095Y-146352380D01*
X131776190Y-146352380D01*
X131871428Y-146400000D01*
X131919047Y-146447619D01*
X131966666Y-146542857D01*
X131966666Y-146638095D01*
X131919047Y-146780952D01*
X131347619Y-147352380D01*
X131966666Y-147352380D01*
D10*
X58716666Y-89776666D02*
X59192857Y-89776666D01*
X58621428Y-90062380D02*
X58954761Y-89062380D01*
X59288095Y-90062380D01*
X60240476Y-89062380D02*
X60811904Y-89062380D01*
X60526190Y-90062380D02*
X60526190Y-89062380D01*
X61050000Y-89062380D02*
X61716666Y-90062380D01*
X61716666Y-89062380D02*
X61050000Y-90062380D01*
X63430952Y-90062380D02*
X63097619Y-89586190D01*
X62859523Y-90062380D02*
X62859523Y-89062380D01*
X63240476Y-89062380D01*
X63335714Y-89110000D01*
X63383333Y-89157619D01*
X63430952Y-89252857D01*
X63430952Y-89395714D01*
X63383333Y-89490952D01*
X63335714Y-89538571D01*
X63240476Y-89586190D01*
X62859523Y-89586190D01*
X63764285Y-89062380D02*
X64430952Y-90062380D01*
X64430952Y-89062380D02*
X63764285Y-90062380D01*
X59164285Y-140107142D02*
X59116666Y-140154761D01*
X58973809Y-140202380D01*
X58878571Y-140202380D01*
X58735714Y-140154761D01*
X58640476Y-140059523D01*
X58592857Y-139964285D01*
X58545238Y-139773809D01*
X58545238Y-139630952D01*
X58592857Y-139440476D01*
X58640476Y-139345238D01*
X58735714Y-139250000D01*
X58878571Y-139202380D01*
X58973809Y-139202380D01*
X59116666Y-139250000D01*
X59164285Y-139297619D01*
X60211904Y-139202380D02*
X60783333Y-139202380D01*
X60497619Y-140202380D02*
X60497619Y-139202380D01*
X61021428Y-139202380D02*
X61688095Y-140202380D01*
X61688095Y-139202380D02*
X61021428Y-140202380D01*
X63402380Y-140202380D02*
X63069047Y-139726190D01*
X62830952Y-140202380D02*
X62830952Y-139202380D01*
X63211904Y-139202380D01*
X63307142Y-139250000D01*
X63354761Y-139297619D01*
X63402380Y-139392857D01*
X63402380Y-139535714D01*
X63354761Y-139630952D01*
X63307142Y-139678571D01*
X63211904Y-139726190D01*
X62830952Y-139726190D01*
X63735714Y-139202380D02*
X64402380Y-140202380D01*
X64402380Y-139202380D02*
X63735714Y-140202380D01*
D11*
X144092857Y-105938095D02*
X144092857Y-104947619D01*
X143288095Y-103461904D02*
X143288095Y-102657142D01*
X143783333Y-103090476D01*
X143783333Y-102904761D01*
X143845238Y-102780952D01*
X143907142Y-102719047D01*
X144030952Y-102657142D01*
X144340476Y-102657142D01*
X144464285Y-102719047D01*
X144526190Y-102780952D01*
X144588095Y-102904761D01*
X144588095Y-103276190D01*
X144526190Y-103400000D01*
X144464285Y-103461904D01*
X144092857Y-101109523D02*
X144092857Y-100119047D01*
X143411904Y-98571428D02*
X143350000Y-98509523D01*
X143288095Y-98385714D01*
X143288095Y-98076190D01*
X143350000Y-97952380D01*
X143411904Y-97890476D01*
X143535714Y-97828571D01*
X143659523Y-97828571D01*
X143845238Y-97890476D01*
X144588095Y-98633333D01*
X144588095Y-97828571D01*
X144092857Y-96280952D02*
X144092857Y-95290476D01*
X144588095Y-93000000D02*
X144588095Y-93742857D01*
X144588095Y-93371428D02*
X143288095Y-93371428D01*
X143473809Y-93495238D01*
X143597619Y-93619047D01*
X143659523Y-93742857D01*
D10*
X114121904Y-141042380D02*
X114121904Y-140042380D01*
X114360000Y-140042380D01*
X114502857Y-140090000D01*
X114598095Y-140185238D01*
X114645714Y-140280476D01*
X114693333Y-140470952D01*
X114693333Y-140613809D01*
X114645714Y-140804285D01*
X114598095Y-140899523D01*
X114502857Y-140994761D01*
X114360000Y-141042380D01*
X114121904Y-141042380D01*
X115169523Y-141042380D02*
X115360000Y-141042380D01*
X115455238Y-140994761D01*
X115502857Y-140947142D01*
X115598095Y-140804285D01*
X115645714Y-140613809D01*
X115645714Y-140232857D01*
X115598095Y-140137619D01*
X115550476Y-140090000D01*
X115455238Y-140042380D01*
X115264761Y-140042380D01*
X115169523Y-140090000D01*
X115121904Y-140137619D01*
X115074285Y-140232857D01*
X115074285Y-140470952D01*
X115121904Y-140566190D01*
X115169523Y-140613809D01*
X115264761Y-140661428D01*
X115455238Y-140661428D01*
X115550476Y-140613809D01*
X115598095Y-140566190D01*
X115645714Y-140470952D01*
X114151904Y-120942380D02*
X114151904Y-119942380D01*
X114390000Y-119942380D01*
X114532857Y-119990000D01*
X114628095Y-120085238D01*
X114675714Y-120180476D01*
X114723333Y-120370952D01*
X114723333Y-120513809D01*
X114675714Y-120704285D01*
X114628095Y-120799523D01*
X114532857Y-120894761D01*
X114390000Y-120942380D01*
X114151904Y-120942380D01*
X115199523Y-120942380D02*
X115390000Y-120942380D01*
X115485238Y-120894761D01*
X115532857Y-120847142D01*
X115628095Y-120704285D01*
X115675714Y-120513809D01*
X115675714Y-120132857D01*
X115628095Y-120037619D01*
X115580476Y-119990000D01*
X115485238Y-119942380D01*
X115294761Y-119942380D01*
X115199523Y-119990000D01*
X115151904Y-120037619D01*
X115104285Y-120132857D01*
X115104285Y-120370952D01*
X115151904Y-120466190D01*
X115199523Y-120513809D01*
X115294761Y-120561428D01*
X115485238Y-120561428D01*
X115580476Y-120513809D01*
X115628095Y-120466190D01*
X115675714Y-120370952D01*
X114231904Y-83672380D02*
X114231904Y-82672380D01*
X114470000Y-82672380D01*
X114612857Y-82720000D01*
X114708095Y-82815238D01*
X114755714Y-82910476D01*
X114803333Y-83100952D01*
X114803333Y-83243809D01*
X114755714Y-83434285D01*
X114708095Y-83529523D01*
X114612857Y-83624761D01*
X114470000Y-83672380D01*
X114231904Y-83672380D01*
X115279523Y-83672380D02*
X115470000Y-83672380D01*
X115565238Y-83624761D01*
X115612857Y-83577142D01*
X115708095Y-83434285D01*
X115755714Y-83243809D01*
X115755714Y-82862857D01*
X115708095Y-82767619D01*
X115660476Y-82720000D01*
X115565238Y-82672380D01*
X115374761Y-82672380D01*
X115279523Y-82720000D01*
X115231904Y-82767619D01*
X115184285Y-82862857D01*
X115184285Y-83100952D01*
X115231904Y-83196190D01*
X115279523Y-83243809D01*
X115374761Y-83291428D01*
X115565238Y-83291428D01*
X115660476Y-83243809D01*
X115708095Y-83196190D01*
X115755714Y-83100952D01*
D11*
X144092857Y-145938095D02*
X144092857Y-144947619D01*
X143288095Y-143461904D02*
X143288095Y-142657142D01*
X143783333Y-143090476D01*
X143783333Y-142904761D01*
X143845238Y-142780952D01*
X143907142Y-142719047D01*
X144030952Y-142657142D01*
X144340476Y-142657142D01*
X144464285Y-142719047D01*
X144526190Y-142780952D01*
X144588095Y-142904761D01*
X144588095Y-143276190D01*
X144526190Y-143400000D01*
X144464285Y-143461904D01*
X144092857Y-141109523D02*
X144092857Y-140119047D01*
X143411904Y-138571428D02*
X143350000Y-138509523D01*
X143288095Y-138385714D01*
X143288095Y-138076190D01*
X143350000Y-137952380D01*
X143411904Y-137890476D01*
X143535714Y-137828571D01*
X143659523Y-137828571D01*
X143845238Y-137890476D01*
X144588095Y-138633333D01*
X144588095Y-137828571D01*
X144092857Y-136280952D02*
X144092857Y-135290476D01*
X144588095Y-133000000D02*
X144588095Y-133742857D01*
X144588095Y-133371428D02*
X143288095Y-133371428D01*
X143473809Y-133495238D01*
X143597619Y-133619047D01*
X143659523Y-133742857D01*
X85390476Y-98428095D02*
X84761904Y-98428095D01*
X85076190Y-98428095D02*
X85076190Y-97128095D01*
X84971428Y-97313809D01*
X84866666Y-97437619D01*
X84761904Y-97499523D01*
X87485714Y-97251904D02*
X87538095Y-97190000D01*
X87642857Y-97128095D01*
X87904761Y-97128095D01*
X88009523Y-97190000D01*
X88061904Y-97251904D01*
X88114285Y-97375714D01*
X88114285Y-97499523D01*
X88061904Y-97685238D01*
X87433333Y-98428095D01*
X88114285Y-98428095D01*
X90157142Y-97128095D02*
X90838095Y-97128095D01*
X90471428Y-97623333D01*
X90628571Y-97623333D01*
X90733333Y-97685238D01*
X90785714Y-97747142D01*
X90838095Y-97870952D01*
X90838095Y-98180476D01*
X90785714Y-98304285D01*
X90733333Y-98366190D01*
X90628571Y-98428095D01*
X90314285Y-98428095D01*
X90209523Y-98366190D01*
X90157142Y-98304285D01*
D10*
X114211904Y-101002380D02*
X114211904Y-100002380D01*
X114450000Y-100002380D01*
X114592857Y-100050000D01*
X114688095Y-100145238D01*
X114735714Y-100240476D01*
X114783333Y-100430952D01*
X114783333Y-100573809D01*
X114735714Y-100764285D01*
X114688095Y-100859523D01*
X114592857Y-100954761D01*
X114450000Y-101002380D01*
X114211904Y-101002380D01*
X115259523Y-101002380D02*
X115450000Y-101002380D01*
X115545238Y-100954761D01*
X115592857Y-100907142D01*
X115688095Y-100764285D01*
X115735714Y-100573809D01*
X115735714Y-100192857D01*
X115688095Y-100097619D01*
X115640476Y-100050000D01*
X115545238Y-100002380D01*
X115354761Y-100002380D01*
X115259523Y-100050000D01*
X115211904Y-100097619D01*
X115164285Y-100192857D01*
X115164285Y-100430952D01*
X115211904Y-100526190D01*
X115259523Y-100573809D01*
X115354761Y-100621428D01*
X115545238Y-100621428D01*
X115640476Y-100573809D01*
X115688095Y-100526190D01*
X115735714Y-100430952D01*
D11*
X85400476Y-123208095D02*
X84771904Y-123208095D01*
X85086190Y-123208095D02*
X85086190Y-121908095D01*
X84981428Y-122093809D01*
X84876666Y-122217619D01*
X84771904Y-122279523D01*
X87495714Y-122031904D02*
X87548095Y-121970000D01*
X87652857Y-121908095D01*
X87914761Y-121908095D01*
X88019523Y-121970000D01*
X88071904Y-122031904D01*
X88124285Y-122155714D01*
X88124285Y-122279523D01*
X88071904Y-122465238D01*
X87443333Y-123208095D01*
X88124285Y-123208095D01*
X90167142Y-121908095D02*
X90848095Y-121908095D01*
X90481428Y-122403333D01*
X90638571Y-122403333D01*
X90743333Y-122465238D01*
X90795714Y-122527142D01*
X90848095Y-122650952D01*
X90848095Y-122960476D01*
X90795714Y-123084285D01*
X90743333Y-123146190D01*
X90638571Y-123208095D01*
X90324285Y-123208095D01*
X90219523Y-123146190D01*
X90167142Y-123084285D01*
D13*
X56568571Y-100251428D02*
X55068571Y-100251428D01*
X55068571Y-99894285D01*
X55140000Y-99680000D01*
X55282857Y-99537142D01*
X55425714Y-99465714D01*
X55711428Y-99394285D01*
X55925714Y-99394285D01*
X56211428Y-99465714D01*
X56354285Y-99537142D01*
X56497142Y-99680000D01*
X56568571Y-99894285D01*
X56568571Y-100251428D01*
X56425714Y-96751428D02*
X56497142Y-96822857D01*
X56568571Y-97037142D01*
X56568571Y-97180000D01*
X56497142Y-97394285D01*
X56354285Y-97537142D01*
X56211428Y-97608571D01*
X55925714Y-97680000D01*
X55711428Y-97680000D01*
X55425714Y-97608571D01*
X55282857Y-97537142D01*
X55140000Y-97394285D01*
X55068571Y-97180000D01*
X55068571Y-97037142D01*
X55140000Y-96822857D01*
X55211428Y-96751428D01*
X55782857Y-94465714D02*
X55854285Y-94251428D01*
X55925714Y-94180000D01*
X56068571Y-94108571D01*
X56282857Y-94108571D01*
X56425714Y-94180000D01*
X56497142Y-94251428D01*
X56568571Y-94394285D01*
X56568571Y-94965714D01*
X55068571Y-94965714D01*
X55068571Y-94465714D01*
X55140000Y-94322857D01*
X55211428Y-94251428D01*
X55354285Y-94180000D01*
X55497142Y-94180000D01*
X55640000Y-94251428D01*
X55711428Y-94322857D01*
X55782857Y-94465714D01*
X55782857Y-94965714D01*
X56140000Y-92394285D02*
X56140000Y-91680000D01*
X56568571Y-92537142D02*
X55068571Y-92037142D01*
X56568571Y-91537142D01*
X55140000Y-89108571D02*
X55068571Y-89251428D01*
X55068571Y-89465714D01*
X55140000Y-89680000D01*
X55282857Y-89822857D01*
X55425714Y-89894285D01*
X55711428Y-89965714D01*
X55925714Y-89965714D01*
X56211428Y-89894285D01*
X56354285Y-89822857D01*
X56497142Y-89680000D01*
X56568571Y-89465714D01*
X56568571Y-89322857D01*
X56497142Y-89108571D01*
X56425714Y-89037142D01*
X55925714Y-89037142D01*
X55925714Y-89322857D01*
D10*
X114291904Y-130892380D02*
X114291904Y-129892380D01*
X114530000Y-129892380D01*
X114672857Y-129940000D01*
X114768095Y-130035238D01*
X114815714Y-130130476D01*
X114863333Y-130320952D01*
X114863333Y-130463809D01*
X114815714Y-130654285D01*
X114768095Y-130749523D01*
X114672857Y-130844761D01*
X114530000Y-130892380D01*
X114291904Y-130892380D01*
X115196666Y-129892380D02*
X115815714Y-129892380D01*
X115482380Y-130273333D01*
X115625238Y-130273333D01*
X115720476Y-130320952D01*
X115768095Y-130368571D01*
X115815714Y-130463809D01*
X115815714Y-130701904D01*
X115768095Y-130797142D01*
X115720476Y-130844761D01*
X115625238Y-130892380D01*
X115339523Y-130892380D01*
X115244285Y-130844761D01*
X115196666Y-130797142D01*
X114251904Y-110892380D02*
X114251904Y-109892380D01*
X114490000Y-109892380D01*
X114632857Y-109940000D01*
X114728095Y-110035238D01*
X114775714Y-110130476D01*
X114823333Y-110320952D01*
X114823333Y-110463809D01*
X114775714Y-110654285D01*
X114728095Y-110749523D01*
X114632857Y-110844761D01*
X114490000Y-110892380D01*
X114251904Y-110892380D01*
X115156666Y-109892380D02*
X115775714Y-109892380D01*
X115442380Y-110273333D01*
X115585238Y-110273333D01*
X115680476Y-110320952D01*
X115728095Y-110368571D01*
X115775714Y-110463809D01*
X115775714Y-110701904D01*
X115728095Y-110797142D01*
X115680476Y-110844761D01*
X115585238Y-110892380D01*
X115299523Y-110892380D01*
X115204285Y-110844761D01*
X115156666Y-110797142D01*
D11*
X85390476Y-73368095D02*
X84761904Y-73368095D01*
X85076190Y-73368095D02*
X85076190Y-72068095D01*
X84971428Y-72253809D01*
X84866666Y-72377619D01*
X84761904Y-72439523D01*
X87485714Y-72191904D02*
X87538095Y-72130000D01*
X87642857Y-72068095D01*
X87904761Y-72068095D01*
X88009523Y-72130000D01*
X88061904Y-72191904D01*
X88114285Y-72315714D01*
X88114285Y-72439523D01*
X88061904Y-72625238D01*
X87433333Y-73368095D01*
X88114285Y-73368095D01*
X90157142Y-72068095D02*
X90838095Y-72068095D01*
X90471428Y-72563333D01*
X90628571Y-72563333D01*
X90733333Y-72625238D01*
X90785714Y-72687142D01*
X90838095Y-72810952D01*
X90838095Y-73120476D01*
X90785714Y-73244285D01*
X90733333Y-73306190D01*
X90628571Y-73368095D01*
X90314285Y-73368095D01*
X90209523Y-73306190D01*
X90157142Y-73244285D01*
X144092857Y-125938095D02*
X144092857Y-124947619D01*
X143288095Y-123461904D02*
X143288095Y-122657142D01*
X143783333Y-123090476D01*
X143783333Y-122904761D01*
X143845238Y-122780952D01*
X143907142Y-122719047D01*
X144030952Y-122657142D01*
X144340476Y-122657142D01*
X144464285Y-122719047D01*
X144526190Y-122780952D01*
X144588095Y-122904761D01*
X144588095Y-123276190D01*
X144526190Y-123400000D01*
X144464285Y-123461904D01*
X144092857Y-121109523D02*
X144092857Y-120119047D01*
X143411904Y-118571428D02*
X143350000Y-118509523D01*
X143288095Y-118385714D01*
X143288095Y-118076190D01*
X143350000Y-117952380D01*
X143411904Y-117890476D01*
X143535714Y-117828571D01*
X143659523Y-117828571D01*
X143845238Y-117890476D01*
X144588095Y-118633333D01*
X144588095Y-117828571D01*
X144092857Y-116280952D02*
X144092857Y-115290476D01*
X144588095Y-113000000D02*
X144588095Y-113742857D01*
X144588095Y-113371428D02*
X143288095Y-113371428D01*
X143473809Y-113495238D01*
X143597619Y-113619047D01*
X143659523Y-113742857D01*
X85400476Y-148198095D02*
X84771904Y-148198095D01*
X85086190Y-148198095D02*
X85086190Y-146898095D01*
X84981428Y-147083809D01*
X84876666Y-147207619D01*
X84771904Y-147269523D01*
X87495714Y-147021904D02*
X87548095Y-146960000D01*
X87652857Y-146898095D01*
X87914761Y-146898095D01*
X88019523Y-146960000D01*
X88071904Y-147021904D01*
X88124285Y-147145714D01*
X88124285Y-147269523D01*
X88071904Y-147455238D01*
X87443333Y-148198095D01*
X88124285Y-148198095D01*
X90167142Y-146898095D02*
X90848095Y-146898095D01*
X90481428Y-147393333D01*
X90638571Y-147393333D01*
X90743333Y-147455238D01*
X90795714Y-147517142D01*
X90848095Y-147640952D01*
X90848095Y-147950476D01*
X90795714Y-148074285D01*
X90743333Y-148136190D01*
X90638571Y-148198095D01*
X90324285Y-148198095D01*
X90219523Y-148136190D01*
X90167142Y-148074285D01*
D10*
%TO.C,R17*%
X128512380Y-79799523D02*
X128512380Y-79132857D01*
X129512380Y-79561428D01*
X128512380Y-78275714D02*
X128512380Y-78751904D01*
X128988571Y-78799523D01*
X128940952Y-78751904D01*
X128893333Y-78656666D01*
X128893333Y-78418571D01*
X128940952Y-78323333D01*
X128988571Y-78275714D01*
X129083809Y-78228095D01*
X129321904Y-78228095D01*
X129417142Y-78275714D01*
X129464761Y-78323333D01*
X129512380Y-78418571D01*
X129512380Y-78656666D01*
X129464761Y-78751904D01*
X129417142Y-78799523D01*
%TO.C,R9*%
X132537619Y-117268095D02*
X132490000Y-117220476D01*
X132442380Y-117125238D01*
X132442380Y-116887142D01*
X132490000Y-116791904D01*
X132537619Y-116744285D01*
X132632857Y-116696666D01*
X132728095Y-116696666D01*
X132870952Y-116744285D01*
X133442380Y-117315714D01*
X133442380Y-116696666D01*
X132537619Y-116315714D02*
X132490000Y-116268095D01*
X132442380Y-116172857D01*
X132442380Y-115934761D01*
X132490000Y-115839523D01*
X132537619Y-115791904D01*
X132632857Y-115744285D01*
X132728095Y-115744285D01*
X132870952Y-115791904D01*
X133442380Y-116363333D01*
X133442380Y-115744285D01*
X132442380Y-115125238D02*
X132442380Y-115030000D01*
X132490000Y-114934761D01*
X132537619Y-114887142D01*
X132632857Y-114839523D01*
X132823333Y-114791904D01*
X133061428Y-114791904D01*
X133251904Y-114839523D01*
X133347142Y-114887142D01*
X133394761Y-114934761D01*
X133442380Y-115030000D01*
X133442380Y-115125238D01*
X133394761Y-115220476D01*
X133347142Y-115268095D01*
X133251904Y-115315714D01*
X133061428Y-115363333D01*
X132823333Y-115363333D01*
X132632857Y-115315714D01*
X132537619Y-115268095D01*
X132490000Y-115220476D01*
X132442380Y-115125238D01*
%TO.C,J6*%
X144904761Y-88196666D02*
X145380952Y-88196666D01*
X144809523Y-88482380D02*
X145142857Y-87482380D01*
X145476190Y-88482380D01*
X146523809Y-88434761D02*
X146666666Y-88482380D01*
X146904761Y-88482380D01*
X147000000Y-88434761D01*
X147047619Y-88387142D01*
X147095238Y-88291904D01*
X147095238Y-88196666D01*
X147047619Y-88101428D01*
X147000000Y-88053809D01*
X146904761Y-88006190D01*
X146714285Y-87958571D01*
X146619047Y-87910952D01*
X146571428Y-87863333D01*
X146523809Y-87768095D01*
X146523809Y-87672857D01*
X146571428Y-87577619D01*
X146619047Y-87530000D01*
X146714285Y-87482380D01*
X146952380Y-87482380D01*
X147095238Y-87530000D01*
X147523809Y-88482380D02*
X147523809Y-87482380D01*
X147904761Y-87482380D01*
X148000000Y-87530000D01*
X148047619Y-87577619D01*
X148095238Y-87672857D01*
X148095238Y-87815714D01*
X148047619Y-87910952D01*
X148000000Y-87958571D01*
X147904761Y-88006190D01*
X147523809Y-88006190D01*
X148523809Y-88482380D02*
X148523809Y-87482380D01*
X149095238Y-88482380D02*
X148666666Y-87910952D01*
X149095238Y-87482380D02*
X148523809Y-88053809D01*
%TO.C,R2*%
X136647619Y-80318095D02*
X136600000Y-80270476D01*
X136552380Y-80175238D01*
X136552380Y-79937142D01*
X136600000Y-79841904D01*
X136647619Y-79794285D01*
X136742857Y-79746666D01*
X136838095Y-79746666D01*
X136980952Y-79794285D01*
X137552380Y-80365714D01*
X137552380Y-79746666D01*
X136647619Y-79365714D02*
X136600000Y-79318095D01*
X136552380Y-79222857D01*
X136552380Y-78984761D01*
X136600000Y-78889523D01*
X136647619Y-78841904D01*
X136742857Y-78794285D01*
X136838095Y-78794285D01*
X136980952Y-78841904D01*
X137552380Y-79413333D01*
X137552380Y-78794285D01*
X136552380Y-78175238D02*
X136552380Y-78080000D01*
X136600000Y-77984761D01*
X136647619Y-77937142D01*
X136742857Y-77889523D01*
X136933333Y-77841904D01*
X137171428Y-77841904D01*
X137361904Y-77889523D01*
X137457142Y-77937142D01*
X137504761Y-77984761D01*
X137552380Y-78080000D01*
X137552380Y-78175238D01*
X137504761Y-78270476D01*
X137457142Y-78318095D01*
X137361904Y-78365714D01*
X137171428Y-78413333D01*
X136933333Y-78413333D01*
X136742857Y-78365714D01*
X136647619Y-78318095D01*
X136600000Y-78270476D01*
X136552380Y-78175238D01*
%TO.C,R11*%
X136437619Y-137338095D02*
X136390000Y-137290476D01*
X136342380Y-137195238D01*
X136342380Y-136957142D01*
X136390000Y-136861904D01*
X136437619Y-136814285D01*
X136532857Y-136766666D01*
X136628095Y-136766666D01*
X136770952Y-136814285D01*
X137342380Y-137385714D01*
X137342380Y-136766666D01*
X136437619Y-136385714D02*
X136390000Y-136338095D01*
X136342380Y-136242857D01*
X136342380Y-136004761D01*
X136390000Y-135909523D01*
X136437619Y-135861904D01*
X136532857Y-135814285D01*
X136628095Y-135814285D01*
X136770952Y-135861904D01*
X137342380Y-136433333D01*
X137342380Y-135814285D01*
X136342380Y-135195238D02*
X136342380Y-135100000D01*
X136390000Y-135004761D01*
X136437619Y-134957142D01*
X136532857Y-134909523D01*
X136723333Y-134861904D01*
X136961428Y-134861904D01*
X137151904Y-134909523D01*
X137247142Y-134957142D01*
X137294761Y-135004761D01*
X137342380Y-135100000D01*
X137342380Y-135195238D01*
X137294761Y-135290476D01*
X137247142Y-135338095D01*
X137151904Y-135385714D01*
X136961428Y-135433333D01*
X136723333Y-135433333D01*
X136532857Y-135385714D01*
X136437619Y-135338095D01*
X136390000Y-135290476D01*
X136342380Y-135195238D01*
%TO.C,R4*%
X140537619Y-97348095D02*
X140490000Y-97300476D01*
X140442380Y-97205238D01*
X140442380Y-96967142D01*
X140490000Y-96871904D01*
X140537619Y-96824285D01*
X140632857Y-96776666D01*
X140728095Y-96776666D01*
X140870952Y-96824285D01*
X141442380Y-97395714D01*
X141442380Y-96776666D01*
X140537619Y-96395714D02*
X140490000Y-96348095D01*
X140442380Y-96252857D01*
X140442380Y-96014761D01*
X140490000Y-95919523D01*
X140537619Y-95871904D01*
X140632857Y-95824285D01*
X140728095Y-95824285D01*
X140870952Y-95871904D01*
X141442380Y-96443333D01*
X141442380Y-95824285D01*
X140442380Y-95205238D02*
X140442380Y-95110000D01*
X140490000Y-95014761D01*
X140537619Y-94967142D01*
X140632857Y-94919523D01*
X140823333Y-94871904D01*
X141061428Y-94871904D01*
X141251904Y-94919523D01*
X141347142Y-94967142D01*
X141394761Y-95014761D01*
X141442380Y-95110000D01*
X141442380Y-95205238D01*
X141394761Y-95300476D01*
X141347142Y-95348095D01*
X141251904Y-95395714D01*
X141061428Y-95443333D01*
X140823333Y-95443333D01*
X140632857Y-95395714D01*
X140537619Y-95348095D01*
X140490000Y-95300476D01*
X140442380Y-95205238D01*
%TO.C,J2*%
X51766666Y-50764880D02*
X52433333Y-50764880D01*
X52004761Y-51764880D01*
X52814285Y-51383928D02*
X53576190Y-51383928D01*
X54576190Y-51764880D02*
X54004761Y-51764880D01*
X54290476Y-51764880D02*
X54290476Y-50764880D01*
X54195238Y-50907738D01*
X54100000Y-51002976D01*
X54004761Y-51050595D01*
X54957142Y-50860119D02*
X55004761Y-50812500D01*
X55100000Y-50764880D01*
X55338095Y-50764880D01*
X55433333Y-50812500D01*
X55480952Y-50860119D01*
X55528571Y-50955357D01*
X55528571Y-51050595D01*
X55480952Y-51193452D01*
X54909523Y-51764880D01*
X55528571Y-51764880D01*
X55814285Y-50764880D02*
X56147619Y-51764880D01*
X56480952Y-50764880D01*
%TO.C,R7*%
X140537619Y-117188095D02*
X140490000Y-117140476D01*
X140442380Y-117045238D01*
X140442380Y-116807142D01*
X140490000Y-116711904D01*
X140537619Y-116664285D01*
X140632857Y-116616666D01*
X140728095Y-116616666D01*
X140870952Y-116664285D01*
X141442380Y-117235714D01*
X141442380Y-116616666D01*
X140537619Y-116235714D02*
X140490000Y-116188095D01*
X140442380Y-116092857D01*
X140442380Y-115854761D01*
X140490000Y-115759523D01*
X140537619Y-115711904D01*
X140632857Y-115664285D01*
X140728095Y-115664285D01*
X140870952Y-115711904D01*
X141442380Y-116283333D01*
X141442380Y-115664285D01*
X140442380Y-115045238D02*
X140442380Y-114950000D01*
X140490000Y-114854761D01*
X140537619Y-114807142D01*
X140632857Y-114759523D01*
X140823333Y-114711904D01*
X141061428Y-114711904D01*
X141251904Y-114759523D01*
X141347142Y-114807142D01*
X141394761Y-114854761D01*
X141442380Y-114950000D01*
X141442380Y-115045238D01*
X141394761Y-115140476D01*
X141347142Y-115188095D01*
X141251904Y-115235714D01*
X141061428Y-115283333D01*
X140823333Y-115283333D01*
X140632857Y-115235714D01*
X140537619Y-115188095D01*
X140490000Y-115140476D01*
X140442380Y-115045238D01*
%TO.C,R1*%
X140627619Y-80398095D02*
X140580000Y-80350476D01*
X140532380Y-80255238D01*
X140532380Y-80017142D01*
X140580000Y-79921904D01*
X140627619Y-79874285D01*
X140722857Y-79826666D01*
X140818095Y-79826666D01*
X140960952Y-79874285D01*
X141532380Y-80445714D01*
X141532380Y-79826666D01*
X140627619Y-79445714D02*
X140580000Y-79398095D01*
X140532380Y-79302857D01*
X140532380Y-79064761D01*
X140580000Y-78969523D01*
X140627619Y-78921904D01*
X140722857Y-78874285D01*
X140818095Y-78874285D01*
X140960952Y-78921904D01*
X141532380Y-79493333D01*
X141532380Y-78874285D01*
X140532380Y-78255238D02*
X140532380Y-78160000D01*
X140580000Y-78064761D01*
X140627619Y-78017142D01*
X140722857Y-77969523D01*
X140913333Y-77921904D01*
X141151428Y-77921904D01*
X141341904Y-77969523D01*
X141437142Y-78017142D01*
X141484761Y-78064761D01*
X141532380Y-78160000D01*
X141532380Y-78255238D01*
X141484761Y-78350476D01*
X141437142Y-78398095D01*
X141341904Y-78445714D01*
X141151428Y-78493333D01*
X140913333Y-78493333D01*
X140722857Y-78445714D01*
X140627619Y-78398095D01*
X140580000Y-78350476D01*
X140532380Y-78255238D01*
%TO.C,R13*%
X121447619Y-80398095D02*
X121400000Y-80350476D01*
X121352380Y-80255238D01*
X121352380Y-80017142D01*
X121400000Y-79921904D01*
X121447619Y-79874285D01*
X121542857Y-79826666D01*
X121638095Y-79826666D01*
X121780952Y-79874285D01*
X122352380Y-80445714D01*
X122352380Y-79826666D01*
X121352380Y-79493333D02*
X121352380Y-78826666D01*
X122352380Y-79255238D01*
X121352380Y-78255238D02*
X121352380Y-78160000D01*
X121400000Y-78064761D01*
X121447619Y-78017142D01*
X121542857Y-77969523D01*
X121733333Y-77921904D01*
X121971428Y-77921904D01*
X122161904Y-77969523D01*
X122257142Y-78017142D01*
X122304761Y-78064761D01*
X122352380Y-78160000D01*
X122352380Y-78255238D01*
X122304761Y-78350476D01*
X122257142Y-78398095D01*
X122161904Y-78445714D01*
X121971428Y-78493333D01*
X121733333Y-78493333D01*
X121542857Y-78445714D01*
X121447619Y-78398095D01*
X121400000Y-78350476D01*
X121352380Y-78255238D01*
%TO.C,R12*%
X132497619Y-137298095D02*
X132450000Y-137250476D01*
X132402380Y-137155238D01*
X132402380Y-136917142D01*
X132450000Y-136821904D01*
X132497619Y-136774285D01*
X132592857Y-136726666D01*
X132688095Y-136726666D01*
X132830952Y-136774285D01*
X133402380Y-137345714D01*
X133402380Y-136726666D01*
X132497619Y-136345714D02*
X132450000Y-136298095D01*
X132402380Y-136202857D01*
X132402380Y-135964761D01*
X132450000Y-135869523D01*
X132497619Y-135821904D01*
X132592857Y-135774285D01*
X132688095Y-135774285D01*
X132830952Y-135821904D01*
X133402380Y-136393333D01*
X133402380Y-135774285D01*
X132402380Y-135155238D02*
X132402380Y-135060000D01*
X132450000Y-134964761D01*
X132497619Y-134917142D01*
X132592857Y-134869523D01*
X132783333Y-134821904D01*
X133021428Y-134821904D01*
X133211904Y-134869523D01*
X133307142Y-134917142D01*
X133354761Y-134964761D01*
X133402380Y-135060000D01*
X133402380Y-135155238D01*
X133354761Y-135250476D01*
X133307142Y-135298095D01*
X133211904Y-135345714D01*
X133021428Y-135393333D01*
X132783333Y-135393333D01*
X132592857Y-135345714D01*
X132497619Y-135298095D01*
X132450000Y-135250476D01*
X132402380Y-135155238D01*
%TO.C,J3*%
X58698571Y-96943571D02*
X58841428Y-96991190D01*
X58889047Y-97038809D01*
X58936666Y-97134047D01*
X58936666Y-97276904D01*
X58889047Y-97372142D01*
X58841428Y-97419761D01*
X58746190Y-97467380D01*
X58365238Y-97467380D01*
X58365238Y-96467380D01*
X58698571Y-96467380D01*
X58793809Y-96515000D01*
X58841428Y-96562619D01*
X58889047Y-96657857D01*
X58889047Y-96753095D01*
X58841428Y-96848333D01*
X58793809Y-96895952D01*
X58698571Y-96943571D01*
X58365238Y-96943571D01*
X60698571Y-97467380D02*
X60365238Y-96991190D01*
X60127142Y-97467380D02*
X60127142Y-96467380D01*
X60508095Y-96467380D01*
X60603333Y-96515000D01*
X60650952Y-96562619D01*
X60698571Y-96657857D01*
X60698571Y-96800714D01*
X60650952Y-96895952D01*
X60603333Y-96943571D01*
X60508095Y-96991190D01*
X60127142Y-96991190D01*
X61031904Y-96467380D02*
X61698571Y-97467380D01*
X61698571Y-96467380D02*
X61031904Y-97467380D01*
X62841428Y-97467380D02*
X62841428Y-96467380D01*
X63174761Y-97181666D01*
X63508095Y-96467380D01*
X63508095Y-97467380D01*
X64127142Y-97467380D02*
X64031904Y-97419761D01*
X63984285Y-97372142D01*
X63936666Y-97276904D01*
X63936666Y-96991190D01*
X63984285Y-96895952D01*
X64031904Y-96848333D01*
X64127142Y-96800714D01*
X64270000Y-96800714D01*
X64365238Y-96848333D01*
X64412857Y-96895952D01*
X64460476Y-96991190D01*
X64460476Y-97276904D01*
X64412857Y-97372142D01*
X64365238Y-97419761D01*
X64270000Y-97467380D01*
X64127142Y-97467380D01*
X65317619Y-97467380D02*
X65317619Y-96467380D01*
X65317619Y-97419761D02*
X65222380Y-97467380D01*
X65031904Y-97467380D01*
X64936666Y-97419761D01*
X64889047Y-97372142D01*
X64841428Y-97276904D01*
X64841428Y-96991190D01*
X64889047Y-96895952D01*
X64936666Y-96848333D01*
X65031904Y-96800714D01*
X65222380Y-96800714D01*
X65317619Y-96848333D01*
X66174761Y-97419761D02*
X66079523Y-97467380D01*
X65889047Y-97467380D01*
X65793809Y-97419761D01*
X65746190Y-97324523D01*
X65746190Y-96943571D01*
X65793809Y-96848333D01*
X65889047Y-96800714D01*
X66079523Y-96800714D01*
X66174761Y-96848333D01*
X66222380Y-96943571D01*
X66222380Y-97038809D01*
X65746190Y-97134047D01*
%TO.C,J11*%
X117668571Y-99056666D02*
X117716190Y-98913809D01*
X117763809Y-98866190D01*
X117859047Y-98818571D01*
X118001904Y-98818571D01*
X118097142Y-98866190D01*
X118144761Y-98913809D01*
X118192380Y-99009047D01*
X118192380Y-99390000D01*
X117192380Y-99390000D01*
X117192380Y-99056666D01*
X117240000Y-98961428D01*
X117287619Y-98913809D01*
X117382857Y-98866190D01*
X117478095Y-98866190D01*
X117573333Y-98913809D01*
X117620952Y-98961428D01*
X117668571Y-99056666D01*
X117668571Y-99390000D01*
X118192380Y-97628095D02*
X117192380Y-97628095D01*
X117192380Y-97247142D01*
X117240000Y-97151904D01*
X117287619Y-97104285D01*
X117382857Y-97056666D01*
X117525714Y-97056666D01*
X117620952Y-97104285D01*
X117668571Y-97151904D01*
X117716190Y-97247142D01*
X117716190Y-97628095D01*
X117192380Y-96723333D02*
X118192380Y-96485238D01*
X117478095Y-96294761D01*
X118192380Y-96104285D01*
X117192380Y-95866190D01*
X118192380Y-95485238D02*
X117192380Y-95485238D01*
X117906666Y-95151904D01*
X117192380Y-94818571D01*
X118192380Y-94818571D01*
X118144761Y-93628095D02*
X118192380Y-93485238D01*
X118192380Y-93247142D01*
X118144761Y-93151904D01*
X118097142Y-93104285D01*
X118001904Y-93056666D01*
X117906666Y-93056666D01*
X117811428Y-93104285D01*
X117763809Y-93151904D01*
X117716190Y-93247142D01*
X117668571Y-93437619D01*
X117620952Y-93532857D01*
X117573333Y-93580476D01*
X117478095Y-93628095D01*
X117382857Y-93628095D01*
X117287619Y-93580476D01*
X117240000Y-93532857D01*
X117192380Y-93437619D01*
X117192380Y-93199523D01*
X117240000Y-93056666D01*
X117668571Y-92628095D02*
X117668571Y-92294761D01*
X118192380Y-92151904D02*
X118192380Y-92628095D01*
X117192380Y-92628095D01*
X117192380Y-92151904D01*
X118192380Y-91247142D02*
X118192380Y-91723333D01*
X117192380Y-91723333D01*
%TO.C,R20*%
X128432380Y-136999523D02*
X128432380Y-136332857D01*
X129432380Y-136761428D01*
X128432380Y-135475714D02*
X128432380Y-135951904D01*
X128908571Y-135999523D01*
X128860952Y-135951904D01*
X128813333Y-135856666D01*
X128813333Y-135618571D01*
X128860952Y-135523333D01*
X128908571Y-135475714D01*
X129003809Y-135428095D01*
X129241904Y-135428095D01*
X129337142Y-135475714D01*
X129384761Y-135523333D01*
X129432380Y-135618571D01*
X129432380Y-135856666D01*
X129384761Y-135951904D01*
X129337142Y-135999523D01*
%TO.C,C1*%
X54539729Y-76242380D02*
X53968301Y-76242380D01*
X54254015Y-76242380D02*
X54254015Y-75242380D01*
X54158777Y-75385238D01*
X54063539Y-75480476D01*
X53968301Y-75528095D01*
X55158777Y-75242380D02*
X55254015Y-75242380D01*
X55349253Y-75290000D01*
X55396872Y-75337619D01*
X55444491Y-75432857D01*
X55492110Y-75623333D01*
X55492110Y-75861428D01*
X55444491Y-76051904D01*
X55396872Y-76147142D01*
X55349253Y-76194761D01*
X55254015Y-76242380D01*
X55158777Y-76242380D01*
X55063539Y-76194761D01*
X55015920Y-76147142D01*
X54968301Y-76051904D01*
X54920682Y-75861428D01*
X54920682Y-75623333D01*
X54968301Y-75432857D01*
X55015920Y-75337619D01*
X55063539Y-75290000D01*
X55158777Y-75242380D01*
X56111158Y-75242380D02*
X56206396Y-75242380D01*
X56301634Y-75290000D01*
X56349253Y-75337619D01*
X56396872Y-75432857D01*
X56444491Y-75623333D01*
X56444491Y-75861428D01*
X56396872Y-76051904D01*
X56349253Y-76147142D01*
X56301634Y-76194761D01*
X56206396Y-76242380D01*
X56111158Y-76242380D01*
X56015920Y-76194761D01*
X55968301Y-76147142D01*
X55920682Y-76051904D01*
X55873063Y-75861428D01*
X55873063Y-75623333D01*
X55920682Y-75432857D01*
X55968301Y-75337619D01*
X56015920Y-75290000D01*
X56111158Y-75242380D01*
X57301634Y-75575714D02*
X57301634Y-76242380D01*
X56873063Y-75575714D02*
X56873063Y-76099523D01*
X56920682Y-76194761D01*
X57015920Y-76242380D01*
X57158777Y-76242380D01*
X57254015Y-76194761D01*
X57301634Y-76147142D01*
X58111158Y-75718571D02*
X57777825Y-75718571D01*
X57777825Y-76242380D02*
X57777825Y-75242380D01*
X58254015Y-75242380D01*
%TO.C,R6*%
X132497619Y-97348095D02*
X132450000Y-97300476D01*
X132402380Y-97205238D01*
X132402380Y-96967142D01*
X132450000Y-96871904D01*
X132497619Y-96824285D01*
X132592857Y-96776666D01*
X132688095Y-96776666D01*
X132830952Y-96824285D01*
X133402380Y-97395714D01*
X133402380Y-96776666D01*
X132497619Y-96395714D02*
X132450000Y-96348095D01*
X132402380Y-96252857D01*
X132402380Y-96014761D01*
X132450000Y-95919523D01*
X132497619Y-95871904D01*
X132592857Y-95824285D01*
X132688095Y-95824285D01*
X132830952Y-95871904D01*
X133402380Y-96443333D01*
X133402380Y-95824285D01*
X132402380Y-95205238D02*
X132402380Y-95110000D01*
X132450000Y-95014761D01*
X132497619Y-94967142D01*
X132592857Y-94919523D01*
X132783333Y-94871904D01*
X133021428Y-94871904D01*
X133211904Y-94919523D01*
X133307142Y-94967142D01*
X133354761Y-95014761D01*
X133402380Y-95110000D01*
X133402380Y-95205238D01*
X133354761Y-95300476D01*
X133307142Y-95348095D01*
X133211904Y-95395714D01*
X133021428Y-95443333D01*
X132783333Y-95443333D01*
X132592857Y-95395714D01*
X132497619Y-95348095D01*
X132450000Y-95300476D01*
X132402380Y-95205238D01*
%TO.C,R21*%
X116342380Y-58570476D02*
X116342380Y-59141904D01*
X116342380Y-58856190D02*
X115342380Y-58856190D01*
X115485238Y-58951428D01*
X115580476Y-59046666D01*
X115628095Y-59141904D01*
X115342380Y-57951428D02*
X115342380Y-57856190D01*
X115390000Y-57760952D01*
X115437619Y-57713333D01*
X115532857Y-57665714D01*
X115723333Y-57618095D01*
X115961428Y-57618095D01*
X116151904Y-57665714D01*
X116247142Y-57713333D01*
X116294761Y-57760952D01*
X116342380Y-57856190D01*
X116342380Y-57951428D01*
X116294761Y-58046666D01*
X116247142Y-58094285D01*
X116151904Y-58141904D01*
X115961428Y-58189523D01*
X115723333Y-58189523D01*
X115532857Y-58141904D01*
X115437619Y-58094285D01*
X115390000Y-58046666D01*
X115342380Y-57951428D01*
X116342380Y-57189523D02*
X115342380Y-57189523D01*
X116342380Y-56618095D02*
X115770952Y-57046666D01*
X115342380Y-56618095D02*
X115913809Y-57189523D01*
%TO.C,J15*%
X141356666Y-64276666D02*
X141832857Y-64276666D01*
X141261428Y-64562380D02*
X141594761Y-63562380D01*
X141928095Y-64562380D01*
X142261428Y-63562380D02*
X142261428Y-64371904D01*
X142309047Y-64467142D01*
X142356666Y-64514761D01*
X142451904Y-64562380D01*
X142642380Y-64562380D01*
X142737619Y-64514761D01*
X142785238Y-64467142D01*
X142832857Y-64371904D01*
X142832857Y-63562380D01*
X143309047Y-64562380D02*
X143309047Y-63562380D01*
X143547142Y-63562380D01*
X143690000Y-63610000D01*
X143785238Y-63705238D01*
X143832857Y-63800476D01*
X143880476Y-63990952D01*
X143880476Y-64133809D01*
X143832857Y-64324285D01*
X143785238Y-64419523D01*
X143690000Y-64514761D01*
X143547142Y-64562380D01*
X143309047Y-64562380D01*
X144309047Y-64562380D02*
X144309047Y-63562380D01*
X144975714Y-63562380D02*
X145166190Y-63562380D01*
X145261428Y-63610000D01*
X145356666Y-63705238D01*
X145404285Y-63895714D01*
X145404285Y-64229047D01*
X145356666Y-64419523D01*
X145261428Y-64514761D01*
X145166190Y-64562380D01*
X144975714Y-64562380D01*
X144880476Y-64514761D01*
X144785238Y-64419523D01*
X144737619Y-64229047D01*
X144737619Y-63895714D01*
X144785238Y-63705238D01*
X144880476Y-63610000D01*
X144975714Y-63562380D01*
X146785238Y-63562380D02*
X146975714Y-63562380D01*
X147070952Y-63610000D01*
X147166190Y-63705238D01*
X147213809Y-63895714D01*
X147213809Y-64229047D01*
X147166190Y-64419523D01*
X147070952Y-64514761D01*
X146975714Y-64562380D01*
X146785238Y-64562380D01*
X146690000Y-64514761D01*
X146594761Y-64419523D01*
X146547142Y-64229047D01*
X146547142Y-63895714D01*
X146594761Y-63705238D01*
X146690000Y-63610000D01*
X146785238Y-63562380D01*
X147642380Y-63562380D02*
X147642380Y-64371904D01*
X147690000Y-64467142D01*
X147737619Y-64514761D01*
X147832857Y-64562380D01*
X148023333Y-64562380D01*
X148118571Y-64514761D01*
X148166190Y-64467142D01*
X148213809Y-64371904D01*
X148213809Y-63562380D01*
X148547142Y-63562380D02*
X149118571Y-63562380D01*
X148832857Y-64562380D02*
X148832857Y-63562380D01*
%TO.C,R3*%
X132497619Y-80318095D02*
X132450000Y-80270476D01*
X132402380Y-80175238D01*
X132402380Y-79937142D01*
X132450000Y-79841904D01*
X132497619Y-79794285D01*
X132592857Y-79746666D01*
X132688095Y-79746666D01*
X132830952Y-79794285D01*
X133402380Y-80365714D01*
X133402380Y-79746666D01*
X132497619Y-79365714D02*
X132450000Y-79318095D01*
X132402380Y-79222857D01*
X132402380Y-78984761D01*
X132450000Y-78889523D01*
X132497619Y-78841904D01*
X132592857Y-78794285D01*
X132688095Y-78794285D01*
X132830952Y-78841904D01*
X133402380Y-79413333D01*
X133402380Y-78794285D01*
X132402380Y-78175238D02*
X132402380Y-78080000D01*
X132450000Y-77984761D01*
X132497619Y-77937142D01*
X132592857Y-77889523D01*
X132783333Y-77841904D01*
X133021428Y-77841904D01*
X133211904Y-77889523D01*
X133307142Y-77937142D01*
X133354761Y-77984761D01*
X133402380Y-78080000D01*
X133402380Y-78175238D01*
X133354761Y-78270476D01*
X133307142Y-78318095D01*
X133211904Y-78365714D01*
X133021428Y-78413333D01*
X132783333Y-78413333D01*
X132592857Y-78365714D01*
X132497619Y-78318095D01*
X132450000Y-78270476D01*
X132402380Y-78175238D01*
%TO.C,C8*%
X123038571Y-72822380D02*
X122467142Y-72822380D01*
X122752857Y-72822380D02*
X122752857Y-71822380D01*
X122657619Y-71965238D01*
X122562380Y-72060476D01*
X122467142Y-72108095D01*
X123657619Y-71822380D02*
X123752857Y-71822380D01*
X123848095Y-71870000D01*
X123895714Y-71917619D01*
X123943333Y-72012857D01*
X123990952Y-72203333D01*
X123990952Y-72441428D01*
X123943333Y-72631904D01*
X123895714Y-72727142D01*
X123848095Y-72774761D01*
X123752857Y-72822380D01*
X123657619Y-72822380D01*
X123562380Y-72774761D01*
X123514761Y-72727142D01*
X123467142Y-72631904D01*
X123419523Y-72441428D01*
X123419523Y-72203333D01*
X123467142Y-72012857D01*
X123514761Y-71917619D01*
X123562380Y-71870000D01*
X123657619Y-71822380D01*
X124848095Y-72155714D02*
X124848095Y-72822380D01*
X124419523Y-72155714D02*
X124419523Y-72679523D01*
X124467142Y-72774761D01*
X124562380Y-72822380D01*
X124705238Y-72822380D01*
X124800476Y-72774761D01*
X124848095Y-72727142D01*
X125657619Y-72298571D02*
X125324285Y-72298571D01*
X125324285Y-72822380D02*
X125324285Y-71822380D01*
X125800476Y-71822380D01*
%TO.C,R14*%
X121407619Y-97218095D02*
X121360000Y-97170476D01*
X121312380Y-97075238D01*
X121312380Y-96837142D01*
X121360000Y-96741904D01*
X121407619Y-96694285D01*
X121502857Y-96646666D01*
X121598095Y-96646666D01*
X121740952Y-96694285D01*
X122312380Y-97265714D01*
X122312380Y-96646666D01*
X121312380Y-96313333D02*
X121312380Y-95646666D01*
X122312380Y-96075238D01*
X121312380Y-95075238D02*
X121312380Y-94980000D01*
X121360000Y-94884761D01*
X121407619Y-94837142D01*
X121502857Y-94789523D01*
X121693333Y-94741904D01*
X121931428Y-94741904D01*
X122121904Y-94789523D01*
X122217142Y-94837142D01*
X122264761Y-94884761D01*
X122312380Y-94980000D01*
X122312380Y-95075238D01*
X122264761Y-95170476D01*
X122217142Y-95218095D01*
X122121904Y-95265714D01*
X121931428Y-95313333D01*
X121693333Y-95313333D01*
X121502857Y-95265714D01*
X121407619Y-95218095D01*
X121360000Y-95170476D01*
X121312380Y-95075238D01*
%TO.C,J5*%
X58365238Y-147567380D02*
X58365238Y-146567380D01*
X58603333Y-146567380D01*
X58746190Y-146615000D01*
X58841428Y-146710238D01*
X58889047Y-146805476D01*
X58936666Y-146995952D01*
X58936666Y-147138809D01*
X58889047Y-147329285D01*
X58841428Y-147424523D01*
X58746190Y-147519761D01*
X58603333Y-147567380D01*
X58365238Y-147567380D01*
X60698571Y-147567380D02*
X60365238Y-147091190D01*
X60127142Y-147567380D02*
X60127142Y-146567380D01*
X60508095Y-146567380D01*
X60603333Y-146615000D01*
X60650952Y-146662619D01*
X60698571Y-146757857D01*
X60698571Y-146900714D01*
X60650952Y-146995952D01*
X60603333Y-147043571D01*
X60508095Y-147091190D01*
X60127142Y-147091190D01*
X61031904Y-146567380D02*
X61698571Y-147567380D01*
X61698571Y-146567380D02*
X61031904Y-147567380D01*
X62841428Y-147567380D02*
X62841428Y-146567380D01*
X63174761Y-147281666D01*
X63508095Y-146567380D01*
X63508095Y-147567380D01*
X64127142Y-147567380D02*
X64031904Y-147519761D01*
X63984285Y-147472142D01*
X63936666Y-147376904D01*
X63936666Y-147091190D01*
X63984285Y-146995952D01*
X64031904Y-146948333D01*
X64127142Y-146900714D01*
X64270000Y-146900714D01*
X64365238Y-146948333D01*
X64412857Y-146995952D01*
X64460476Y-147091190D01*
X64460476Y-147376904D01*
X64412857Y-147472142D01*
X64365238Y-147519761D01*
X64270000Y-147567380D01*
X64127142Y-147567380D01*
X65317619Y-147567380D02*
X65317619Y-146567380D01*
X65317619Y-147519761D02*
X65222380Y-147567380D01*
X65031904Y-147567380D01*
X64936666Y-147519761D01*
X64889047Y-147472142D01*
X64841428Y-147376904D01*
X64841428Y-147091190D01*
X64889047Y-146995952D01*
X64936666Y-146948333D01*
X65031904Y-146900714D01*
X65222380Y-146900714D01*
X65317619Y-146948333D01*
X66174761Y-147519761D02*
X66079523Y-147567380D01*
X65889047Y-147567380D01*
X65793809Y-147519761D01*
X65746190Y-147424523D01*
X65746190Y-147043571D01*
X65793809Y-146948333D01*
X65889047Y-146900714D01*
X66079523Y-146900714D01*
X66174761Y-146948333D01*
X66222380Y-147043571D01*
X66222380Y-147138809D01*
X65746190Y-147234047D01*
%TO.C,R22*%
X120322380Y-58480476D02*
X120322380Y-59051904D01*
X120322380Y-58766190D02*
X119322380Y-58766190D01*
X119465238Y-58861428D01*
X119560476Y-58956666D01*
X119608095Y-59051904D01*
X119322380Y-57861428D02*
X119322380Y-57766190D01*
X119370000Y-57670952D01*
X119417619Y-57623333D01*
X119512857Y-57575714D01*
X119703333Y-57528095D01*
X119941428Y-57528095D01*
X120131904Y-57575714D01*
X120227142Y-57623333D01*
X120274761Y-57670952D01*
X120322380Y-57766190D01*
X120322380Y-57861428D01*
X120274761Y-57956666D01*
X120227142Y-58004285D01*
X120131904Y-58051904D01*
X119941428Y-58099523D01*
X119703333Y-58099523D01*
X119512857Y-58051904D01*
X119417619Y-58004285D01*
X119370000Y-57956666D01*
X119322380Y-57861428D01*
X120322380Y-57099523D02*
X119322380Y-57099523D01*
X120322380Y-56528095D02*
X119750952Y-56956666D01*
X119322380Y-56528095D02*
X119893809Y-57099523D01*
%TO.C,C3*%
X124972380Y-78758095D02*
X124972380Y-78948571D01*
X125020000Y-79043809D01*
X125067619Y-79091428D01*
X125210476Y-79186666D01*
X125400952Y-79234285D01*
X125781904Y-79234285D01*
X125877142Y-79186666D01*
X125924761Y-79139047D01*
X125972380Y-79043809D01*
X125972380Y-78853333D01*
X125924761Y-78758095D01*
X125877142Y-78710476D01*
X125781904Y-78662857D01*
X125543809Y-78662857D01*
X125448571Y-78710476D01*
X125400952Y-78758095D01*
X125353333Y-78853333D01*
X125353333Y-79043809D01*
X125400952Y-79139047D01*
X125448571Y-79186666D01*
X125543809Y-79234285D01*
X125400952Y-78091428D02*
X125353333Y-78186666D01*
X125305714Y-78234285D01*
X125210476Y-78281904D01*
X125162857Y-78281904D01*
X125067619Y-78234285D01*
X125020000Y-78186666D01*
X124972380Y-78091428D01*
X124972380Y-77900952D01*
X125020000Y-77805714D01*
X125067619Y-77758095D01*
X125162857Y-77710476D01*
X125210476Y-77710476D01*
X125305714Y-77758095D01*
X125353333Y-77805714D01*
X125400952Y-77900952D01*
X125400952Y-78091428D01*
X125448571Y-78186666D01*
X125496190Y-78234285D01*
X125591428Y-78281904D01*
X125781904Y-78281904D01*
X125877142Y-78234285D01*
X125924761Y-78186666D01*
X125972380Y-78091428D01*
X125972380Y-77900952D01*
X125924761Y-77805714D01*
X125877142Y-77758095D01*
X125781904Y-77710476D01*
X125591428Y-77710476D01*
X125496190Y-77758095D01*
X125448571Y-77805714D01*
X125400952Y-77900952D01*
X125305714Y-77281904D02*
X125972380Y-77281904D01*
X125400952Y-77281904D02*
X125353333Y-77234285D01*
X125305714Y-77139047D01*
X125305714Y-76996190D01*
X125353333Y-76900952D01*
X125448571Y-76853333D01*
X125972380Y-76853333D01*
%TO.C,C9*%
X130948571Y-72872380D02*
X130377142Y-72872380D01*
X130662857Y-72872380D02*
X130662857Y-71872380D01*
X130567619Y-72015238D01*
X130472380Y-72110476D01*
X130377142Y-72158095D01*
X131567619Y-71872380D02*
X131662857Y-71872380D01*
X131758095Y-71920000D01*
X131805714Y-71967619D01*
X131853333Y-72062857D01*
X131900952Y-72253333D01*
X131900952Y-72491428D01*
X131853333Y-72681904D01*
X131805714Y-72777142D01*
X131758095Y-72824761D01*
X131662857Y-72872380D01*
X131567619Y-72872380D01*
X131472380Y-72824761D01*
X131424761Y-72777142D01*
X131377142Y-72681904D01*
X131329523Y-72491428D01*
X131329523Y-72253333D01*
X131377142Y-72062857D01*
X131424761Y-71967619D01*
X131472380Y-71920000D01*
X131567619Y-71872380D01*
X132758095Y-72205714D02*
X132758095Y-72872380D01*
X132329523Y-72205714D02*
X132329523Y-72729523D01*
X132377142Y-72824761D01*
X132472380Y-72872380D01*
X132615238Y-72872380D01*
X132710476Y-72824761D01*
X132758095Y-72777142D01*
X133567619Y-72348571D02*
X133234285Y-72348571D01*
X133234285Y-72872380D02*
X133234285Y-71872380D01*
X133710476Y-71872380D01*
%TO.C,R15*%
X121497619Y-117318095D02*
X121450000Y-117270476D01*
X121402380Y-117175238D01*
X121402380Y-116937142D01*
X121450000Y-116841904D01*
X121497619Y-116794285D01*
X121592857Y-116746666D01*
X121688095Y-116746666D01*
X121830952Y-116794285D01*
X122402380Y-117365714D01*
X122402380Y-116746666D01*
X121402380Y-116413333D02*
X121402380Y-115746666D01*
X122402380Y-116175238D01*
X121402380Y-115175238D02*
X121402380Y-115080000D01*
X121450000Y-114984761D01*
X121497619Y-114937142D01*
X121592857Y-114889523D01*
X121783333Y-114841904D01*
X122021428Y-114841904D01*
X122211904Y-114889523D01*
X122307142Y-114937142D01*
X122354761Y-114984761D01*
X122402380Y-115080000D01*
X122402380Y-115175238D01*
X122354761Y-115270476D01*
X122307142Y-115318095D01*
X122211904Y-115365714D01*
X122021428Y-115413333D01*
X121783333Y-115413333D01*
X121592857Y-115365714D01*
X121497619Y-115318095D01*
X121450000Y-115270476D01*
X121402380Y-115175238D01*
%TO.C,R8*%
X136647619Y-117228095D02*
X136600000Y-117180476D01*
X136552380Y-117085238D01*
X136552380Y-116847142D01*
X136600000Y-116751904D01*
X136647619Y-116704285D01*
X136742857Y-116656666D01*
X136838095Y-116656666D01*
X136980952Y-116704285D01*
X137552380Y-117275714D01*
X137552380Y-116656666D01*
X136647619Y-116275714D02*
X136600000Y-116228095D01*
X136552380Y-116132857D01*
X136552380Y-115894761D01*
X136600000Y-115799523D01*
X136647619Y-115751904D01*
X136742857Y-115704285D01*
X136838095Y-115704285D01*
X136980952Y-115751904D01*
X137552380Y-116323333D01*
X137552380Y-115704285D01*
X136552380Y-115085238D02*
X136552380Y-114990000D01*
X136600000Y-114894761D01*
X136647619Y-114847142D01*
X136742857Y-114799523D01*
X136933333Y-114751904D01*
X137171428Y-114751904D01*
X137361904Y-114799523D01*
X137457142Y-114847142D01*
X137504761Y-114894761D01*
X137552380Y-114990000D01*
X137552380Y-115085238D01*
X137504761Y-115180476D01*
X137457142Y-115228095D01*
X137361904Y-115275714D01*
X137171428Y-115323333D01*
X136933333Y-115323333D01*
X136742857Y-115275714D01*
X136647619Y-115228095D01*
X136600000Y-115180476D01*
X136552380Y-115085238D01*
%TO.C,R10*%
X140497619Y-137298095D02*
X140450000Y-137250476D01*
X140402380Y-137155238D01*
X140402380Y-136917142D01*
X140450000Y-136821904D01*
X140497619Y-136774285D01*
X140592857Y-136726666D01*
X140688095Y-136726666D01*
X140830952Y-136774285D01*
X141402380Y-137345714D01*
X141402380Y-136726666D01*
X140497619Y-136345714D02*
X140450000Y-136298095D01*
X140402380Y-136202857D01*
X140402380Y-135964761D01*
X140450000Y-135869523D01*
X140497619Y-135821904D01*
X140592857Y-135774285D01*
X140688095Y-135774285D01*
X140830952Y-135821904D01*
X141402380Y-136393333D01*
X141402380Y-135774285D01*
X140402380Y-135155238D02*
X140402380Y-135060000D01*
X140450000Y-134964761D01*
X140497619Y-134917142D01*
X140592857Y-134869523D01*
X140783333Y-134821904D01*
X141021428Y-134821904D01*
X141211904Y-134869523D01*
X141307142Y-134917142D01*
X141354761Y-134964761D01*
X141402380Y-135060000D01*
X141402380Y-135155238D01*
X141354761Y-135250476D01*
X141307142Y-135298095D01*
X141211904Y-135345714D01*
X141021428Y-135393333D01*
X140783333Y-135393333D01*
X140592857Y-135345714D01*
X140497619Y-135298095D01*
X140450000Y-135250476D01*
X140402380Y-135155238D01*
%TO.C,R5*%
X136557619Y-97348095D02*
X136510000Y-97300476D01*
X136462380Y-97205238D01*
X136462380Y-96967142D01*
X136510000Y-96871904D01*
X136557619Y-96824285D01*
X136652857Y-96776666D01*
X136748095Y-96776666D01*
X136890952Y-96824285D01*
X137462380Y-97395714D01*
X137462380Y-96776666D01*
X136557619Y-96395714D02*
X136510000Y-96348095D01*
X136462380Y-96252857D01*
X136462380Y-96014761D01*
X136510000Y-95919523D01*
X136557619Y-95871904D01*
X136652857Y-95824285D01*
X136748095Y-95824285D01*
X136890952Y-95871904D01*
X137462380Y-96443333D01*
X137462380Y-95824285D01*
X136462380Y-95205238D02*
X136462380Y-95110000D01*
X136510000Y-95014761D01*
X136557619Y-94967142D01*
X136652857Y-94919523D01*
X136843333Y-94871904D01*
X137081428Y-94871904D01*
X137271904Y-94919523D01*
X137367142Y-94967142D01*
X137414761Y-95014761D01*
X137462380Y-95110000D01*
X137462380Y-95205238D01*
X137414761Y-95300476D01*
X137367142Y-95348095D01*
X137271904Y-95395714D01*
X137081428Y-95443333D01*
X136843333Y-95443333D01*
X136652857Y-95395714D01*
X136557619Y-95348095D01*
X136510000Y-95300476D01*
X136462380Y-95205238D01*
%TO.C,C4*%
X124892380Y-95698095D02*
X124892380Y-95888571D01*
X124940000Y-95983809D01*
X124987619Y-96031428D01*
X125130476Y-96126666D01*
X125320952Y-96174285D01*
X125701904Y-96174285D01*
X125797142Y-96126666D01*
X125844761Y-96079047D01*
X125892380Y-95983809D01*
X125892380Y-95793333D01*
X125844761Y-95698095D01*
X125797142Y-95650476D01*
X125701904Y-95602857D01*
X125463809Y-95602857D01*
X125368571Y-95650476D01*
X125320952Y-95698095D01*
X125273333Y-95793333D01*
X125273333Y-95983809D01*
X125320952Y-96079047D01*
X125368571Y-96126666D01*
X125463809Y-96174285D01*
X125320952Y-95031428D02*
X125273333Y-95126666D01*
X125225714Y-95174285D01*
X125130476Y-95221904D01*
X125082857Y-95221904D01*
X124987619Y-95174285D01*
X124940000Y-95126666D01*
X124892380Y-95031428D01*
X124892380Y-94840952D01*
X124940000Y-94745714D01*
X124987619Y-94698095D01*
X125082857Y-94650476D01*
X125130476Y-94650476D01*
X125225714Y-94698095D01*
X125273333Y-94745714D01*
X125320952Y-94840952D01*
X125320952Y-95031428D01*
X125368571Y-95126666D01*
X125416190Y-95174285D01*
X125511428Y-95221904D01*
X125701904Y-95221904D01*
X125797142Y-95174285D01*
X125844761Y-95126666D01*
X125892380Y-95031428D01*
X125892380Y-94840952D01*
X125844761Y-94745714D01*
X125797142Y-94698095D01*
X125701904Y-94650476D01*
X125511428Y-94650476D01*
X125416190Y-94698095D01*
X125368571Y-94745714D01*
X125320952Y-94840952D01*
X125225714Y-94221904D02*
X125892380Y-94221904D01*
X125320952Y-94221904D02*
X125273333Y-94174285D01*
X125225714Y-94079047D01*
X125225714Y-93936190D01*
X125273333Y-93840952D01*
X125368571Y-93793333D01*
X125892380Y-93793333D01*
%TO.C,C7*%
X114998571Y-72822380D02*
X114427142Y-72822380D01*
X114712857Y-72822380D02*
X114712857Y-71822380D01*
X114617619Y-71965238D01*
X114522380Y-72060476D01*
X114427142Y-72108095D01*
X115617619Y-71822380D02*
X115712857Y-71822380D01*
X115808095Y-71870000D01*
X115855714Y-71917619D01*
X115903333Y-72012857D01*
X115950952Y-72203333D01*
X115950952Y-72441428D01*
X115903333Y-72631904D01*
X115855714Y-72727142D01*
X115808095Y-72774761D01*
X115712857Y-72822380D01*
X115617619Y-72822380D01*
X115522380Y-72774761D01*
X115474761Y-72727142D01*
X115427142Y-72631904D01*
X115379523Y-72441428D01*
X115379523Y-72203333D01*
X115427142Y-72012857D01*
X115474761Y-71917619D01*
X115522380Y-71870000D01*
X115617619Y-71822380D01*
X116808095Y-72155714D02*
X116808095Y-72822380D01*
X116379523Y-72155714D02*
X116379523Y-72679523D01*
X116427142Y-72774761D01*
X116522380Y-72822380D01*
X116665238Y-72822380D01*
X116760476Y-72774761D01*
X116808095Y-72727142D01*
X117617619Y-72298571D02*
X117284285Y-72298571D01*
X117284285Y-72822380D02*
X117284285Y-71822380D01*
X117760476Y-71822380D01*
%TO.C,J10*%
X117866666Y-82426190D02*
X117866666Y-81950000D01*
X118152380Y-82521428D02*
X117152380Y-82188095D01*
X118152380Y-81854761D01*
X118152380Y-80759523D02*
X117152380Y-80759523D01*
X117152380Y-80378571D01*
X117200000Y-80283333D01*
X117247619Y-80235714D01*
X117342857Y-80188095D01*
X117485714Y-80188095D01*
X117580952Y-80235714D01*
X117628571Y-80283333D01*
X117676190Y-80378571D01*
X117676190Y-80759523D01*
X117152380Y-79854761D02*
X118152380Y-79616666D01*
X117438095Y-79426190D01*
X118152380Y-79235714D01*
X117152380Y-78997619D01*
X118152380Y-78616666D02*
X117152380Y-78616666D01*
X117866666Y-78283333D01*
X117152380Y-77950000D01*
X118152380Y-77950000D01*
X118104761Y-76759523D02*
X118152380Y-76616666D01*
X118152380Y-76378571D01*
X118104761Y-76283333D01*
X118057142Y-76235714D01*
X117961904Y-76188095D01*
X117866666Y-76188095D01*
X117771428Y-76235714D01*
X117723809Y-76283333D01*
X117676190Y-76378571D01*
X117628571Y-76569047D01*
X117580952Y-76664285D01*
X117533333Y-76711904D01*
X117438095Y-76759523D01*
X117342857Y-76759523D01*
X117247619Y-76711904D01*
X117200000Y-76664285D01*
X117152380Y-76569047D01*
X117152380Y-76330952D01*
X117200000Y-76188095D01*
X117628571Y-75759523D02*
X117628571Y-75426190D01*
X118152380Y-75283333D02*
X118152380Y-75759523D01*
X117152380Y-75759523D01*
X117152380Y-75283333D01*
X118152380Y-74378571D02*
X118152380Y-74854761D01*
X117152380Y-74854761D01*
%TO.C,A3*%
X86526190Y-111562380D02*
X86526190Y-110562380D01*
X87097619Y-111562380D01*
X87097619Y-110562380D01*
X88002380Y-111562380D02*
X88002380Y-111038571D01*
X87954761Y-110943333D01*
X87859523Y-110895714D01*
X87669047Y-110895714D01*
X87573809Y-110943333D01*
X88002380Y-111514761D02*
X87907142Y-111562380D01*
X87669047Y-111562380D01*
X87573809Y-111514761D01*
X87526190Y-111419523D01*
X87526190Y-111324285D01*
X87573809Y-111229047D01*
X87669047Y-111181428D01*
X87907142Y-111181428D01*
X88002380Y-111133809D01*
X88478571Y-110895714D02*
X88478571Y-111562380D01*
X88478571Y-110990952D02*
X88526190Y-110943333D01*
X88621428Y-110895714D01*
X88764285Y-110895714D01*
X88859523Y-110943333D01*
X88907142Y-111038571D01*
X88907142Y-111562380D01*
X89526190Y-111562380D02*
X89430952Y-111514761D01*
X89383333Y-111467142D01*
X89335714Y-111371904D01*
X89335714Y-111086190D01*
X89383333Y-110990952D01*
X89430952Y-110943333D01*
X89526190Y-110895714D01*
X89669047Y-110895714D01*
X89764285Y-110943333D01*
X89811904Y-110990952D01*
X89859523Y-111086190D01*
X89859523Y-111371904D01*
X89811904Y-111467142D01*
X89764285Y-111514761D01*
X89669047Y-111562380D01*
X89526190Y-111562380D01*
X91621428Y-111467142D02*
X91573809Y-111514761D01*
X91430952Y-111562380D01*
X91335714Y-111562380D01*
X91192857Y-111514761D01*
X91097619Y-111419523D01*
X91050000Y-111324285D01*
X91002380Y-111133809D01*
X91002380Y-110990952D01*
X91050000Y-110800476D01*
X91097619Y-110705238D01*
X91192857Y-110610000D01*
X91335714Y-110562380D01*
X91430952Y-110562380D01*
X91573809Y-110610000D01*
X91621428Y-110657619D01*
%TO.C,C10*%
X139038571Y-72822380D02*
X138467142Y-72822380D01*
X138752857Y-72822380D02*
X138752857Y-71822380D01*
X138657619Y-71965238D01*
X138562380Y-72060476D01*
X138467142Y-72108095D01*
X139657619Y-71822380D02*
X139752857Y-71822380D01*
X139848095Y-71870000D01*
X139895714Y-71917619D01*
X139943333Y-72012857D01*
X139990952Y-72203333D01*
X139990952Y-72441428D01*
X139943333Y-72631904D01*
X139895714Y-72727142D01*
X139848095Y-72774761D01*
X139752857Y-72822380D01*
X139657619Y-72822380D01*
X139562380Y-72774761D01*
X139514761Y-72727142D01*
X139467142Y-72631904D01*
X139419523Y-72441428D01*
X139419523Y-72203333D01*
X139467142Y-72012857D01*
X139514761Y-71917619D01*
X139562380Y-71870000D01*
X139657619Y-71822380D01*
X140848095Y-72155714D02*
X140848095Y-72822380D01*
X140419523Y-72155714D02*
X140419523Y-72679523D01*
X140467142Y-72774761D01*
X140562380Y-72822380D01*
X140705238Y-72822380D01*
X140800476Y-72774761D01*
X140848095Y-72727142D01*
X141657619Y-72298571D02*
X141324285Y-72298571D01*
X141324285Y-72822380D02*
X141324285Y-71822380D01*
X141800476Y-71822380D01*
%TO.C,J1*%
X52402380Y-110192857D02*
X52402380Y-109621428D01*
X53402380Y-109907142D02*
X52402380Y-109907142D01*
X52402380Y-109430952D02*
X52402380Y-108859523D01*
X53402380Y-109145238D02*
X52402380Y-109145238D01*
X53402380Y-108050000D02*
X53402380Y-108526190D01*
X52402380Y-108526190D01*
X53402380Y-106954761D02*
X52402380Y-106954761D01*
X53116666Y-106621428D01*
X52402380Y-106288095D01*
X53402380Y-106288095D01*
X53402380Y-105811904D02*
X52402380Y-105811904D01*
X53402380Y-105335714D02*
X52402380Y-105335714D01*
X52402380Y-105097619D01*
X52450000Y-104954761D01*
X52545238Y-104859523D01*
X52640476Y-104811904D01*
X52830952Y-104764285D01*
X52973809Y-104764285D01*
X53164285Y-104811904D01*
X53259523Y-104859523D01*
X53354761Y-104954761D01*
X53402380Y-105097619D01*
X53402380Y-105335714D01*
X53402380Y-104335714D02*
X52402380Y-104335714D01*
X53402380Y-103097619D02*
X52402380Y-103097619D01*
X53402380Y-102621428D02*
X52402380Y-102621428D01*
X53402380Y-102050000D01*
X52402380Y-102050000D01*
%TO.C,J8*%
X145452380Y-128387142D02*
X145404761Y-128434761D01*
X145261904Y-128482380D01*
X145166666Y-128482380D01*
X145023809Y-128434761D01*
X144928571Y-128339523D01*
X144880952Y-128244285D01*
X144833333Y-128053809D01*
X144833333Y-127910952D01*
X144880952Y-127720476D01*
X144928571Y-127625238D01*
X145023809Y-127530000D01*
X145166666Y-127482380D01*
X145261904Y-127482380D01*
X145404761Y-127530000D01*
X145452380Y-127577619D01*
X146595238Y-128434761D02*
X146738095Y-128482380D01*
X146976190Y-128482380D01*
X147071428Y-128434761D01*
X147119047Y-128387142D01*
X147166666Y-128291904D01*
X147166666Y-128196666D01*
X147119047Y-128101428D01*
X147071428Y-128053809D01*
X146976190Y-128006190D01*
X146785714Y-127958571D01*
X146690476Y-127910952D01*
X146642857Y-127863333D01*
X146595238Y-127768095D01*
X146595238Y-127672857D01*
X146642857Y-127577619D01*
X146690476Y-127530000D01*
X146785714Y-127482380D01*
X147023809Y-127482380D01*
X147166666Y-127530000D01*
X147595238Y-128482380D02*
X147595238Y-127482380D01*
X147976190Y-127482380D01*
X148071428Y-127530000D01*
X148119047Y-127577619D01*
X148166666Y-127672857D01*
X148166666Y-127815714D01*
X148119047Y-127910952D01*
X148071428Y-127958571D01*
X147976190Y-128006190D01*
X147595238Y-128006190D01*
X148595238Y-128482380D02*
X148595238Y-127482380D01*
X149166666Y-128482380D02*
X148738095Y-127910952D01*
X149166666Y-127482380D02*
X148595238Y-128053809D01*
%TO.C,J12*%
X118037142Y-118898571D02*
X118084761Y-118946190D01*
X118132380Y-119089047D01*
X118132380Y-119184285D01*
X118084761Y-119327142D01*
X117989523Y-119422380D01*
X117894285Y-119470000D01*
X117703809Y-119517619D01*
X117560952Y-119517619D01*
X117370476Y-119470000D01*
X117275238Y-119422380D01*
X117180000Y-119327142D01*
X117132380Y-119184285D01*
X117132380Y-119089047D01*
X117180000Y-118946190D01*
X117227619Y-118898571D01*
X118132380Y-117708095D02*
X117132380Y-117708095D01*
X117132380Y-117327142D01*
X117180000Y-117231904D01*
X117227619Y-117184285D01*
X117322857Y-117136666D01*
X117465714Y-117136666D01*
X117560952Y-117184285D01*
X117608571Y-117231904D01*
X117656190Y-117327142D01*
X117656190Y-117708095D01*
X117132380Y-116803333D02*
X118132380Y-116565238D01*
X117418095Y-116374761D01*
X118132380Y-116184285D01*
X117132380Y-115946190D01*
X118132380Y-115565238D02*
X117132380Y-115565238D01*
X117846666Y-115231904D01*
X117132380Y-114898571D01*
X118132380Y-114898571D01*
X118084761Y-113708095D02*
X118132380Y-113565238D01*
X118132380Y-113327142D01*
X118084761Y-113231904D01*
X118037142Y-113184285D01*
X117941904Y-113136666D01*
X117846666Y-113136666D01*
X117751428Y-113184285D01*
X117703809Y-113231904D01*
X117656190Y-113327142D01*
X117608571Y-113517619D01*
X117560952Y-113612857D01*
X117513333Y-113660476D01*
X117418095Y-113708095D01*
X117322857Y-113708095D01*
X117227619Y-113660476D01*
X117180000Y-113612857D01*
X117132380Y-113517619D01*
X117132380Y-113279523D01*
X117180000Y-113136666D01*
X117608571Y-112708095D02*
X117608571Y-112374761D01*
X118132380Y-112231904D02*
X118132380Y-112708095D01*
X117132380Y-112708095D01*
X117132380Y-112231904D01*
X118132380Y-111327142D02*
X118132380Y-111803333D01*
X117132380Y-111803333D01*
%TO.C,J7*%
X145214285Y-107958571D02*
X145357142Y-108006190D01*
X145404761Y-108053809D01*
X145452380Y-108149047D01*
X145452380Y-108291904D01*
X145404761Y-108387142D01*
X145357142Y-108434761D01*
X145261904Y-108482380D01*
X144880952Y-108482380D01*
X144880952Y-107482380D01*
X145214285Y-107482380D01*
X145309523Y-107530000D01*
X145357142Y-107577619D01*
X145404761Y-107672857D01*
X145404761Y-107768095D01*
X145357142Y-107863333D01*
X145309523Y-107910952D01*
X145214285Y-107958571D01*
X144880952Y-107958571D01*
X146595238Y-108434761D02*
X146738095Y-108482380D01*
X146976190Y-108482380D01*
X147071428Y-108434761D01*
X147119047Y-108387142D01*
X147166666Y-108291904D01*
X147166666Y-108196666D01*
X147119047Y-108101428D01*
X147071428Y-108053809D01*
X146976190Y-108006190D01*
X146785714Y-107958571D01*
X146690476Y-107910952D01*
X146642857Y-107863333D01*
X146595238Y-107768095D01*
X146595238Y-107672857D01*
X146642857Y-107577619D01*
X146690476Y-107530000D01*
X146785714Y-107482380D01*
X147023809Y-107482380D01*
X147166666Y-107530000D01*
X147595238Y-108482380D02*
X147595238Y-107482380D01*
X147976190Y-107482380D01*
X148071428Y-107530000D01*
X148119047Y-107577619D01*
X148166666Y-107672857D01*
X148166666Y-107815714D01*
X148119047Y-107910952D01*
X148071428Y-107958571D01*
X147976190Y-108006190D01*
X147595238Y-108006190D01*
X148595238Y-108482380D02*
X148595238Y-107482380D01*
X149166666Y-108482380D02*
X148738095Y-107910952D01*
X149166666Y-107482380D02*
X148595238Y-108053809D01*
%TO.C,A1*%
X86597619Y-61562380D02*
X86597619Y-60562380D01*
X87169047Y-61562380D01*
X87169047Y-60562380D01*
X88073809Y-61562380D02*
X88073809Y-61038571D01*
X88026190Y-60943333D01*
X87930952Y-60895714D01*
X87740476Y-60895714D01*
X87645238Y-60943333D01*
X88073809Y-61514761D02*
X87978571Y-61562380D01*
X87740476Y-61562380D01*
X87645238Y-61514761D01*
X87597619Y-61419523D01*
X87597619Y-61324285D01*
X87645238Y-61229047D01*
X87740476Y-61181428D01*
X87978571Y-61181428D01*
X88073809Y-61133809D01*
X88550000Y-60895714D02*
X88550000Y-61562380D01*
X88550000Y-60990952D02*
X88597619Y-60943333D01*
X88692857Y-60895714D01*
X88835714Y-60895714D01*
X88930952Y-60943333D01*
X88978571Y-61038571D01*
X88978571Y-61562380D01*
X89597619Y-61562380D02*
X89502380Y-61514761D01*
X89454761Y-61467142D01*
X89407142Y-61371904D01*
X89407142Y-61086190D01*
X89454761Y-60990952D01*
X89502380Y-60943333D01*
X89597619Y-60895714D01*
X89740476Y-60895714D01*
X89835714Y-60943333D01*
X89883333Y-60990952D01*
X89930952Y-61086190D01*
X89930952Y-61371904D01*
X89883333Y-61467142D01*
X89835714Y-61514761D01*
X89740476Y-61562380D01*
X89597619Y-61562380D01*
X91073809Y-61276666D02*
X91550000Y-61276666D01*
X90978571Y-61562380D02*
X91311904Y-60562380D01*
X91645238Y-61562380D01*
%TO.C,A2*%
X86526190Y-86562380D02*
X86526190Y-85562380D01*
X87097619Y-86562380D01*
X87097619Y-85562380D01*
X88002380Y-86562380D02*
X88002380Y-86038571D01*
X87954761Y-85943333D01*
X87859523Y-85895714D01*
X87669047Y-85895714D01*
X87573809Y-85943333D01*
X88002380Y-86514761D02*
X87907142Y-86562380D01*
X87669047Y-86562380D01*
X87573809Y-86514761D01*
X87526190Y-86419523D01*
X87526190Y-86324285D01*
X87573809Y-86229047D01*
X87669047Y-86181428D01*
X87907142Y-86181428D01*
X88002380Y-86133809D01*
X88478571Y-85895714D02*
X88478571Y-86562380D01*
X88478571Y-85990952D02*
X88526190Y-85943333D01*
X88621428Y-85895714D01*
X88764285Y-85895714D01*
X88859523Y-85943333D01*
X88907142Y-86038571D01*
X88907142Y-86562380D01*
X89526190Y-86562380D02*
X89430952Y-86514761D01*
X89383333Y-86467142D01*
X89335714Y-86371904D01*
X89335714Y-86086190D01*
X89383333Y-85990952D01*
X89430952Y-85943333D01*
X89526190Y-85895714D01*
X89669047Y-85895714D01*
X89764285Y-85943333D01*
X89811904Y-85990952D01*
X89859523Y-86086190D01*
X89859523Y-86371904D01*
X89811904Y-86467142D01*
X89764285Y-86514761D01*
X89669047Y-86562380D01*
X89526190Y-86562380D01*
X91383333Y-86038571D02*
X91526190Y-86086190D01*
X91573809Y-86133809D01*
X91621428Y-86229047D01*
X91621428Y-86371904D01*
X91573809Y-86467142D01*
X91526190Y-86514761D01*
X91430952Y-86562380D01*
X91050000Y-86562380D01*
X91050000Y-85562380D01*
X91383333Y-85562380D01*
X91478571Y-85610000D01*
X91526190Y-85657619D01*
X91573809Y-85752857D01*
X91573809Y-85848095D01*
X91526190Y-85943333D01*
X91478571Y-85990952D01*
X91383333Y-86038571D01*
X91050000Y-86038571D01*
%TO.C,C6*%
X124802380Y-135738095D02*
X124802380Y-135928571D01*
X124850000Y-136023809D01*
X124897619Y-136071428D01*
X125040476Y-136166666D01*
X125230952Y-136214285D01*
X125611904Y-136214285D01*
X125707142Y-136166666D01*
X125754761Y-136119047D01*
X125802380Y-136023809D01*
X125802380Y-135833333D01*
X125754761Y-135738095D01*
X125707142Y-135690476D01*
X125611904Y-135642857D01*
X125373809Y-135642857D01*
X125278571Y-135690476D01*
X125230952Y-135738095D01*
X125183333Y-135833333D01*
X125183333Y-136023809D01*
X125230952Y-136119047D01*
X125278571Y-136166666D01*
X125373809Y-136214285D01*
X125230952Y-135071428D02*
X125183333Y-135166666D01*
X125135714Y-135214285D01*
X125040476Y-135261904D01*
X124992857Y-135261904D01*
X124897619Y-135214285D01*
X124850000Y-135166666D01*
X124802380Y-135071428D01*
X124802380Y-134880952D01*
X124850000Y-134785714D01*
X124897619Y-134738095D01*
X124992857Y-134690476D01*
X125040476Y-134690476D01*
X125135714Y-134738095D01*
X125183333Y-134785714D01*
X125230952Y-134880952D01*
X125230952Y-135071428D01*
X125278571Y-135166666D01*
X125326190Y-135214285D01*
X125421428Y-135261904D01*
X125611904Y-135261904D01*
X125707142Y-135214285D01*
X125754761Y-135166666D01*
X125802380Y-135071428D01*
X125802380Y-134880952D01*
X125754761Y-134785714D01*
X125707142Y-134738095D01*
X125611904Y-134690476D01*
X125421428Y-134690476D01*
X125326190Y-134738095D01*
X125278571Y-134785714D01*
X125230952Y-134880952D01*
X125135714Y-134261904D02*
X125802380Y-134261904D01*
X125230952Y-134261904D02*
X125183333Y-134214285D01*
X125135714Y-134119047D01*
X125135714Y-133976190D01*
X125183333Y-133880952D01*
X125278571Y-133833333D01*
X125802380Y-133833333D01*
%TO.C,A4*%
X86526190Y-136562380D02*
X86526190Y-135562380D01*
X87097619Y-136562380D01*
X87097619Y-135562380D01*
X88002380Y-136562380D02*
X88002380Y-136038571D01*
X87954761Y-135943333D01*
X87859523Y-135895714D01*
X87669047Y-135895714D01*
X87573809Y-135943333D01*
X88002380Y-136514761D02*
X87907142Y-136562380D01*
X87669047Y-136562380D01*
X87573809Y-136514761D01*
X87526190Y-136419523D01*
X87526190Y-136324285D01*
X87573809Y-136229047D01*
X87669047Y-136181428D01*
X87907142Y-136181428D01*
X88002380Y-136133809D01*
X88478571Y-135895714D02*
X88478571Y-136562380D01*
X88478571Y-135990952D02*
X88526190Y-135943333D01*
X88621428Y-135895714D01*
X88764285Y-135895714D01*
X88859523Y-135943333D01*
X88907142Y-136038571D01*
X88907142Y-136562380D01*
X89526190Y-136562380D02*
X89430952Y-136514761D01*
X89383333Y-136467142D01*
X89335714Y-136371904D01*
X89335714Y-136086190D01*
X89383333Y-135990952D01*
X89430952Y-135943333D01*
X89526190Y-135895714D01*
X89669047Y-135895714D01*
X89764285Y-135943333D01*
X89811904Y-135990952D01*
X89859523Y-136086190D01*
X89859523Y-136371904D01*
X89811904Y-136467142D01*
X89764285Y-136514761D01*
X89669047Y-136562380D01*
X89526190Y-136562380D01*
X91050000Y-136562380D02*
X91050000Y-135562380D01*
X91288095Y-135562380D01*
X91430952Y-135610000D01*
X91526190Y-135705238D01*
X91573809Y-135800476D01*
X91621428Y-135990952D01*
X91621428Y-136133809D01*
X91573809Y-136324285D01*
X91526190Y-136419523D01*
X91430952Y-136514761D01*
X91288095Y-136562380D01*
X91050000Y-136562380D01*
%TO.C,J9*%
X144880952Y-148482380D02*
X144880952Y-147482380D01*
X145119047Y-147482380D01*
X145261904Y-147530000D01*
X145357142Y-147625238D01*
X145404761Y-147720476D01*
X145452380Y-147910952D01*
X145452380Y-148053809D01*
X145404761Y-148244285D01*
X145357142Y-148339523D01*
X145261904Y-148434761D01*
X145119047Y-148482380D01*
X144880952Y-148482380D01*
X146595238Y-148434761D02*
X146738095Y-148482380D01*
X146976190Y-148482380D01*
X147071428Y-148434761D01*
X147119047Y-148387142D01*
X147166666Y-148291904D01*
X147166666Y-148196666D01*
X147119047Y-148101428D01*
X147071428Y-148053809D01*
X146976190Y-148006190D01*
X146785714Y-147958571D01*
X146690476Y-147910952D01*
X146642857Y-147863333D01*
X146595238Y-147768095D01*
X146595238Y-147672857D01*
X146642857Y-147577619D01*
X146690476Y-147530000D01*
X146785714Y-147482380D01*
X147023809Y-147482380D01*
X147166666Y-147530000D01*
X147595238Y-148482380D02*
X147595238Y-147482380D01*
X147976190Y-147482380D01*
X148071428Y-147530000D01*
X148119047Y-147577619D01*
X148166666Y-147672857D01*
X148166666Y-147815714D01*
X148119047Y-147910952D01*
X148071428Y-147958571D01*
X147976190Y-148006190D01*
X147595238Y-148006190D01*
X148595238Y-148482380D02*
X148595238Y-147482380D01*
X149166666Y-148482380D02*
X148738095Y-147910952D01*
X149166666Y-147482380D02*
X148595238Y-148053809D01*
%TO.C,J13*%
X118092380Y-139360000D02*
X117092380Y-139360000D01*
X117092380Y-139121904D01*
X117140000Y-138979047D01*
X117235238Y-138883809D01*
X117330476Y-138836190D01*
X117520952Y-138788571D01*
X117663809Y-138788571D01*
X117854285Y-138836190D01*
X117949523Y-138883809D01*
X118044761Y-138979047D01*
X118092380Y-139121904D01*
X118092380Y-139360000D01*
X118092380Y-137598095D02*
X117092380Y-137598095D01*
X117092380Y-137217142D01*
X117140000Y-137121904D01*
X117187619Y-137074285D01*
X117282857Y-137026666D01*
X117425714Y-137026666D01*
X117520952Y-137074285D01*
X117568571Y-137121904D01*
X117616190Y-137217142D01*
X117616190Y-137598095D01*
X117092380Y-136693333D02*
X118092380Y-136455238D01*
X117378095Y-136264761D01*
X118092380Y-136074285D01*
X117092380Y-135836190D01*
X118092380Y-135455238D02*
X117092380Y-135455238D01*
X117806666Y-135121904D01*
X117092380Y-134788571D01*
X118092380Y-134788571D01*
X118044761Y-133598095D02*
X118092380Y-133455238D01*
X118092380Y-133217142D01*
X118044761Y-133121904D01*
X117997142Y-133074285D01*
X117901904Y-133026666D01*
X117806666Y-133026666D01*
X117711428Y-133074285D01*
X117663809Y-133121904D01*
X117616190Y-133217142D01*
X117568571Y-133407619D01*
X117520952Y-133502857D01*
X117473333Y-133550476D01*
X117378095Y-133598095D01*
X117282857Y-133598095D01*
X117187619Y-133550476D01*
X117140000Y-133502857D01*
X117092380Y-133407619D01*
X117092380Y-133169523D01*
X117140000Y-133026666D01*
X117568571Y-132598095D02*
X117568571Y-132264761D01*
X118092380Y-132121904D02*
X118092380Y-132598095D01*
X117092380Y-132598095D01*
X117092380Y-132121904D01*
X118092380Y-131217142D02*
X118092380Y-131693333D01*
X117092380Y-131693333D01*
%TO.C,J4*%
X58936666Y-122412142D02*
X58889047Y-122459761D01*
X58746190Y-122507380D01*
X58650952Y-122507380D01*
X58508095Y-122459761D01*
X58412857Y-122364523D01*
X58365238Y-122269285D01*
X58317619Y-122078809D01*
X58317619Y-121935952D01*
X58365238Y-121745476D01*
X58412857Y-121650238D01*
X58508095Y-121555000D01*
X58650952Y-121507380D01*
X58746190Y-121507380D01*
X58889047Y-121555000D01*
X58936666Y-121602619D01*
X60698571Y-122507380D02*
X60365238Y-122031190D01*
X60127142Y-122507380D02*
X60127142Y-121507380D01*
X60508095Y-121507380D01*
X60603333Y-121555000D01*
X60650952Y-121602619D01*
X60698571Y-121697857D01*
X60698571Y-121840714D01*
X60650952Y-121935952D01*
X60603333Y-121983571D01*
X60508095Y-122031190D01*
X60127142Y-122031190D01*
X61031904Y-121507380D02*
X61698571Y-122507380D01*
X61698571Y-121507380D02*
X61031904Y-122507380D01*
X62841428Y-122507380D02*
X62841428Y-121507380D01*
X63174761Y-122221666D01*
X63508095Y-121507380D01*
X63508095Y-122507380D01*
X64127142Y-122507380D02*
X64031904Y-122459761D01*
X63984285Y-122412142D01*
X63936666Y-122316904D01*
X63936666Y-122031190D01*
X63984285Y-121935952D01*
X64031904Y-121888333D01*
X64127142Y-121840714D01*
X64270000Y-121840714D01*
X64365238Y-121888333D01*
X64412857Y-121935952D01*
X64460476Y-122031190D01*
X64460476Y-122316904D01*
X64412857Y-122412142D01*
X64365238Y-122459761D01*
X64270000Y-122507380D01*
X64127142Y-122507380D01*
X65317619Y-122507380D02*
X65317619Y-121507380D01*
X65317619Y-122459761D02*
X65222380Y-122507380D01*
X65031904Y-122507380D01*
X64936666Y-122459761D01*
X64889047Y-122412142D01*
X64841428Y-122316904D01*
X64841428Y-122031190D01*
X64889047Y-121935952D01*
X64936666Y-121888333D01*
X65031904Y-121840714D01*
X65222380Y-121840714D01*
X65317619Y-121888333D01*
X66174761Y-122459761D02*
X66079523Y-122507380D01*
X65889047Y-122507380D01*
X65793809Y-122459761D01*
X65746190Y-122364523D01*
X65746190Y-121983571D01*
X65793809Y-121888333D01*
X65889047Y-121840714D01*
X66079523Y-121840714D01*
X66174761Y-121888333D01*
X66222380Y-121983571D01*
X66222380Y-122078809D01*
X65746190Y-122174047D01*
%TO.C,R18*%
X128512380Y-96789523D02*
X128512380Y-96122857D01*
X129512380Y-96551428D01*
X128512380Y-95265714D02*
X128512380Y-95741904D01*
X128988571Y-95789523D01*
X128940952Y-95741904D01*
X128893333Y-95646666D01*
X128893333Y-95408571D01*
X128940952Y-95313333D01*
X128988571Y-95265714D01*
X129083809Y-95218095D01*
X129321904Y-95218095D01*
X129417142Y-95265714D01*
X129464761Y-95313333D01*
X129512380Y-95408571D01*
X129512380Y-95646666D01*
X129464761Y-95741904D01*
X129417142Y-95789523D01*
%TO.C,R16*%
X121407619Y-137338095D02*
X121360000Y-137290476D01*
X121312380Y-137195238D01*
X121312380Y-136957142D01*
X121360000Y-136861904D01*
X121407619Y-136814285D01*
X121502857Y-136766666D01*
X121598095Y-136766666D01*
X121740952Y-136814285D01*
X122312380Y-137385714D01*
X122312380Y-136766666D01*
X121312380Y-136433333D02*
X121312380Y-135766666D01*
X122312380Y-136195238D01*
X121312380Y-135195238D02*
X121312380Y-135100000D01*
X121360000Y-135004761D01*
X121407619Y-134957142D01*
X121502857Y-134909523D01*
X121693333Y-134861904D01*
X121931428Y-134861904D01*
X122121904Y-134909523D01*
X122217142Y-134957142D01*
X122264761Y-135004761D01*
X122312380Y-135100000D01*
X122312380Y-135195238D01*
X122264761Y-135290476D01*
X122217142Y-135338095D01*
X122121904Y-135385714D01*
X121931428Y-135433333D01*
X121693333Y-135433333D01*
X121502857Y-135385714D01*
X121407619Y-135338095D01*
X121360000Y-135290476D01*
X121312380Y-135195238D01*
%TO.C,R19*%
X128422380Y-116799523D02*
X128422380Y-116132857D01*
X129422380Y-116561428D01*
X128422380Y-115275714D02*
X128422380Y-115751904D01*
X128898571Y-115799523D01*
X128850952Y-115751904D01*
X128803333Y-115656666D01*
X128803333Y-115418571D01*
X128850952Y-115323333D01*
X128898571Y-115275714D01*
X128993809Y-115228095D01*
X129231904Y-115228095D01*
X129327142Y-115275714D01*
X129374761Y-115323333D01*
X129422380Y-115418571D01*
X129422380Y-115656666D01*
X129374761Y-115751904D01*
X129327142Y-115799523D01*
%TO.C,C5*%
X124802380Y-115758095D02*
X124802380Y-115948571D01*
X124850000Y-116043809D01*
X124897619Y-116091428D01*
X125040476Y-116186666D01*
X125230952Y-116234285D01*
X125611904Y-116234285D01*
X125707142Y-116186666D01*
X125754761Y-116139047D01*
X125802380Y-116043809D01*
X125802380Y-115853333D01*
X125754761Y-115758095D01*
X125707142Y-115710476D01*
X125611904Y-115662857D01*
X125373809Y-115662857D01*
X125278571Y-115710476D01*
X125230952Y-115758095D01*
X125183333Y-115853333D01*
X125183333Y-116043809D01*
X125230952Y-116139047D01*
X125278571Y-116186666D01*
X125373809Y-116234285D01*
X125230952Y-115091428D02*
X125183333Y-115186666D01*
X125135714Y-115234285D01*
X125040476Y-115281904D01*
X124992857Y-115281904D01*
X124897619Y-115234285D01*
X124850000Y-115186666D01*
X124802380Y-115091428D01*
X124802380Y-114900952D01*
X124850000Y-114805714D01*
X124897619Y-114758095D01*
X124992857Y-114710476D01*
X125040476Y-114710476D01*
X125135714Y-114758095D01*
X125183333Y-114805714D01*
X125230952Y-114900952D01*
X125230952Y-115091428D01*
X125278571Y-115186666D01*
X125326190Y-115234285D01*
X125421428Y-115281904D01*
X125611904Y-115281904D01*
X125707142Y-115234285D01*
X125754761Y-115186666D01*
X125802380Y-115091428D01*
X125802380Y-114900952D01*
X125754761Y-114805714D01*
X125707142Y-114758095D01*
X125611904Y-114710476D01*
X125421428Y-114710476D01*
X125326190Y-114758095D01*
X125278571Y-114805714D01*
X125230952Y-114900952D01*
X125135714Y-114281904D02*
X125802380Y-114281904D01*
X125230952Y-114281904D02*
X125183333Y-114234285D01*
X125135714Y-114139047D01*
X125135714Y-113996190D01*
X125183333Y-113900952D01*
X125278571Y-113853333D01*
X125802380Y-113853333D01*
%TO.C,R23*%
X124472380Y-58530476D02*
X124472380Y-59101904D01*
X124472380Y-58816190D02*
X123472380Y-58816190D01*
X123615238Y-58911428D01*
X123710476Y-59006666D01*
X123758095Y-59101904D01*
X123472380Y-57911428D02*
X123472380Y-57816190D01*
X123520000Y-57720952D01*
X123567619Y-57673333D01*
X123662857Y-57625714D01*
X123853333Y-57578095D01*
X124091428Y-57578095D01*
X124281904Y-57625714D01*
X124377142Y-57673333D01*
X124424761Y-57720952D01*
X124472380Y-57816190D01*
X124472380Y-57911428D01*
X124424761Y-58006666D01*
X124377142Y-58054285D01*
X124281904Y-58101904D01*
X124091428Y-58149523D01*
X123853333Y-58149523D01*
X123662857Y-58101904D01*
X123567619Y-58054285D01*
X123520000Y-58006666D01*
X123472380Y-57911428D01*
X124472380Y-57149523D02*
X123472380Y-57149523D01*
X124472380Y-56578095D02*
X123900952Y-57006666D01*
X123472380Y-56578095D02*
X124043809Y-57149523D01*
%TO.C,R24*%
X128362380Y-58390476D02*
X128362380Y-58961904D01*
X128362380Y-58676190D02*
X127362380Y-58676190D01*
X127505238Y-58771428D01*
X127600476Y-58866666D01*
X127648095Y-58961904D01*
X127362380Y-57771428D02*
X127362380Y-57676190D01*
X127410000Y-57580952D01*
X127457619Y-57533333D01*
X127552857Y-57485714D01*
X127743333Y-57438095D01*
X127981428Y-57438095D01*
X128171904Y-57485714D01*
X128267142Y-57533333D01*
X128314761Y-57580952D01*
X128362380Y-57676190D01*
X128362380Y-57771428D01*
X128314761Y-57866666D01*
X128267142Y-57914285D01*
X128171904Y-57961904D01*
X127981428Y-58009523D01*
X127743333Y-58009523D01*
X127552857Y-57961904D01*
X127457619Y-57914285D01*
X127410000Y-57866666D01*
X127362380Y-57771428D01*
X128362380Y-57009523D02*
X127362380Y-57009523D01*
X128362380Y-56438095D02*
X127790952Y-56866666D01*
X127362380Y-56438095D02*
X127933809Y-57009523D01*
%TO.C,C2*%
X55232380Y-82032380D02*
X54660952Y-82032380D01*
X54946666Y-82032380D02*
X54946666Y-81032380D01*
X54851428Y-81175238D01*
X54756190Y-81270476D01*
X54660952Y-81318095D01*
X55851428Y-81032380D02*
X55946666Y-81032380D01*
X56041904Y-81080000D01*
X56089523Y-81127619D01*
X56137142Y-81222857D01*
X56184761Y-81413333D01*
X56184761Y-81651428D01*
X56137142Y-81841904D01*
X56089523Y-81937142D01*
X56041904Y-81984761D01*
X55946666Y-82032380D01*
X55851428Y-82032380D01*
X55756190Y-81984761D01*
X55708571Y-81937142D01*
X55660952Y-81841904D01*
X55613333Y-81651428D01*
X55613333Y-81413333D01*
X55660952Y-81222857D01*
X55708571Y-81127619D01*
X55756190Y-81080000D01*
X55851428Y-81032380D01*
X56803809Y-81032380D02*
X56899047Y-81032380D01*
X56994285Y-81080000D01*
X57041904Y-81127619D01*
X57089523Y-81222857D01*
X57137142Y-81413333D01*
X57137142Y-81651428D01*
X57089523Y-81841904D01*
X57041904Y-81937142D01*
X56994285Y-81984761D01*
X56899047Y-82032380D01*
X56803809Y-82032380D01*
X56708571Y-81984761D01*
X56660952Y-81937142D01*
X56613333Y-81841904D01*
X56565714Y-81651428D01*
X56565714Y-81413333D01*
X56613333Y-81222857D01*
X56660952Y-81127619D01*
X56708571Y-81080000D01*
X56803809Y-81032380D01*
X57565714Y-81365714D02*
X57565714Y-82032380D01*
X57565714Y-81460952D02*
X57613333Y-81413333D01*
X57708571Y-81365714D01*
X57851428Y-81365714D01*
X57946666Y-81413333D01*
X57994285Y-81508571D01*
X57994285Y-82032380D01*
X58803809Y-81508571D02*
X58470476Y-81508571D01*
X58470476Y-82032380D02*
X58470476Y-81032380D01*
X58946666Y-81032380D01*
%TO.C,J14*%
X132019523Y-54012380D02*
X132019523Y-53012380D01*
X132352857Y-53726666D01*
X132686190Y-53012380D01*
X132686190Y-54012380D01*
X133305238Y-54012380D02*
X133210000Y-53964761D01*
X133162380Y-53917142D01*
X133114761Y-53821904D01*
X133114761Y-53536190D01*
X133162380Y-53440952D01*
X133210000Y-53393333D01*
X133305238Y-53345714D01*
X133448095Y-53345714D01*
X133543333Y-53393333D01*
X133590952Y-53440952D01*
X133638571Y-53536190D01*
X133638571Y-53821904D01*
X133590952Y-53917142D01*
X133543333Y-53964761D01*
X133448095Y-54012380D01*
X133305238Y-54012380D01*
X134067142Y-53345714D02*
X134067142Y-54012380D01*
X134067142Y-53440952D02*
X134114761Y-53393333D01*
X134210000Y-53345714D01*
X134352857Y-53345714D01*
X134448095Y-53393333D01*
X134495714Y-53488571D01*
X134495714Y-54012380D01*
X135114761Y-54012380D02*
X135019523Y-53964761D01*
X134971904Y-53917142D01*
X134924285Y-53821904D01*
X134924285Y-53536190D01*
X134971904Y-53440952D01*
X135019523Y-53393333D01*
X135114761Y-53345714D01*
X135257619Y-53345714D01*
X135352857Y-53393333D01*
X135400476Y-53440952D01*
X135448095Y-53536190D01*
X135448095Y-53821904D01*
X135400476Y-53917142D01*
X135352857Y-53964761D01*
X135257619Y-54012380D01*
X135114761Y-54012380D01*
D14*
%TO.C,R17*%
X127630000Y-82460000D02*
X127630000Y-75920000D01*
X127960000Y-82460000D02*
X127630000Y-82460000D01*
X127630000Y-75920000D02*
X127960000Y-75920000D01*
X130370000Y-75920000D02*
X130040000Y-75920000D01*
X130040000Y-82460000D02*
X130370000Y-82460000D01*
X130370000Y-82460000D02*
X130370000Y-75920000D01*
%TO.C,R9*%
X131630000Y-112920000D02*
X131960000Y-112920000D01*
X131630000Y-119460000D02*
X131630000Y-112920000D01*
X131960000Y-119460000D02*
X131630000Y-119460000D01*
X134040000Y-119460000D02*
X134370000Y-119460000D01*
X134370000Y-119460000D02*
X134370000Y-112920000D01*
X134370000Y-112920000D02*
X134040000Y-112920000D01*
%TO.C,J6*%
X145670000Y-73000000D02*
X145670000Y-71670000D01*
X148330000Y-74270000D02*
X148330000Y-87030000D01*
X145670000Y-71670000D02*
X147000000Y-71670000D01*
X145670000Y-74270000D02*
X148330000Y-74270000D01*
X145670000Y-74270000D02*
X145670000Y-87030000D01*
X145670000Y-87030000D02*
X148330000Y-87030000D01*
%TO.C,R2*%
X138370000Y-75920000D02*
X138040000Y-75920000D01*
X135630000Y-82460000D02*
X135630000Y-75920000D01*
X138040000Y-82460000D02*
X138370000Y-82460000D01*
X138370000Y-82460000D02*
X138370000Y-75920000D01*
X135630000Y-75920000D02*
X135960000Y-75920000D01*
X135960000Y-82460000D02*
X135630000Y-82460000D01*
%TO.C,R11*%
X135960000Y-139460000D02*
X135630000Y-139460000D01*
X135630000Y-132920000D02*
X135960000Y-132920000D01*
X138040000Y-139460000D02*
X138370000Y-139460000D01*
X138370000Y-132920000D02*
X138040000Y-132920000D01*
X135630000Y-139460000D02*
X135630000Y-132920000D01*
X138370000Y-139460000D02*
X138370000Y-132920000D01*
%TO.C,R4*%
X142370000Y-99460000D02*
X142370000Y-92920000D01*
X139630000Y-99460000D02*
X139630000Y-92920000D01*
X139960000Y-99460000D02*
X139630000Y-99460000D01*
X142370000Y-92920000D02*
X142040000Y-92920000D01*
X142040000Y-99460000D02*
X142370000Y-99460000D01*
X139630000Y-92920000D02*
X139960000Y-92920000D01*
%TO.C,J2*%
X61200000Y-52212500D02*
X61200000Y-54812500D01*
X46500000Y-52212500D02*
X61200000Y-52212500D01*
X61200000Y-58712500D02*
X61200000Y-61412500D01*
X61400000Y-53062500D02*
X61400000Y-52012500D01*
X55300000Y-61412500D02*
X46500000Y-61412500D01*
X46500000Y-61412500D02*
X46500000Y-52212500D01*
X60350000Y-52012500D02*
X61400000Y-52012500D01*
X61200000Y-61412500D02*
X59300000Y-61412500D01*
%TO.C,R7*%
X142370000Y-119460000D02*
X142370000Y-112920000D01*
X139630000Y-112920000D02*
X139960000Y-112920000D01*
X142370000Y-112920000D02*
X142040000Y-112920000D01*
X139630000Y-119460000D02*
X139630000Y-112920000D01*
X139960000Y-119460000D02*
X139630000Y-119460000D01*
X142040000Y-119460000D02*
X142370000Y-119460000D01*
%TO.C,R1*%
X142370000Y-75920000D02*
X142040000Y-75920000D01*
X139960000Y-82460000D02*
X139630000Y-82460000D01*
X139630000Y-82460000D02*
X139630000Y-75920000D01*
X142370000Y-82460000D02*
X142370000Y-75920000D01*
X142040000Y-82460000D02*
X142370000Y-82460000D01*
X139630000Y-75920000D02*
X139960000Y-75920000D01*
%TO.C,R13*%
X120630000Y-82380000D02*
X120960000Y-82380000D01*
X123040000Y-75840000D02*
X123370000Y-75840000D01*
X123370000Y-82380000D02*
X123040000Y-82380000D01*
X120960000Y-75840000D02*
X120630000Y-75840000D01*
X123370000Y-75840000D02*
X123370000Y-82380000D01*
X120630000Y-75840000D02*
X120630000Y-82380000D01*
%TO.C,R12*%
X131960000Y-139460000D02*
X131630000Y-139460000D01*
X131630000Y-139460000D02*
X131630000Y-132920000D01*
X131630000Y-132920000D02*
X131960000Y-132920000D01*
X134370000Y-132920000D02*
X134040000Y-132920000D01*
X134370000Y-139460000D02*
X134370000Y-132920000D01*
X134040000Y-139460000D02*
X134370000Y-139460000D01*
%TO.C,J3*%
X59670000Y-93415000D02*
X62270000Y-93415000D01*
X59670000Y-93415000D02*
X59670000Y-96015000D01*
X62270000Y-93415000D02*
X62270000Y-90815000D01*
X59670000Y-96015000D02*
X64870000Y-96015000D01*
X62270000Y-90815000D02*
X64870000Y-90815000D01*
X59670000Y-92145000D02*
X59670000Y-90815000D01*
X64870000Y-90815000D02*
X64870000Y-96015000D01*
X59670000Y-90815000D02*
X61000000Y-90815000D01*
%TO.C,J11*%
X116330000Y-96730000D02*
X116330000Y-91590000D01*
X116330000Y-91590000D02*
X113670000Y-91590000D01*
X113670000Y-96730000D02*
X113670000Y-91590000D01*
X116330000Y-99330000D02*
X115000000Y-99330000D01*
X116330000Y-96730000D02*
X113670000Y-96730000D01*
X116330000Y-98000000D02*
X116330000Y-99330000D01*
%TO.C,R20*%
X130370000Y-132920000D02*
X130040000Y-132920000D01*
X127630000Y-139460000D02*
X127630000Y-132920000D01*
X130040000Y-139460000D02*
X130370000Y-139460000D01*
X130370000Y-139460000D02*
X130370000Y-132920000D01*
X127960000Y-139460000D02*
X127630000Y-139460000D01*
X127630000Y-132920000D02*
X127960000Y-132920000D01*
%TO.C,C1*%
X56327349Y-66466000D02*
X56327349Y-74614000D01*
X57208349Y-66615000D02*
X57208349Y-69500000D01*
X57208349Y-71580000D02*
X57208349Y-74465000D01*
X57568349Y-66735000D02*
X57568349Y-69500000D01*
X58928349Y-67595000D02*
X58928349Y-73485000D01*
X58248349Y-71580000D02*
X58248349Y-74009000D01*
X59288349Y-67984000D02*
X59288349Y-73096000D01*
X59448349Y-68195000D02*
X59448349Y-72885000D01*
X57848349Y-71580000D02*
X57848349Y-74226000D01*
X56848349Y-71580000D02*
X56848349Y-74550000D01*
X58848349Y-67521000D02*
X58848349Y-69500000D01*
X57288349Y-71580000D02*
X57288349Y-74442000D01*
X58288349Y-71580000D02*
X58288349Y-73984000D01*
X56888349Y-71580000D02*
X56888349Y-74542000D01*
X57128349Y-66593000D02*
X57128349Y-69500000D01*
X59768349Y-68727000D02*
X59768349Y-72353000D01*
X57728349Y-71580000D02*
X57728349Y-74280000D01*
X58728349Y-67416000D02*
X58728349Y-69500000D01*
X58248349Y-67071000D02*
X58248349Y-69500000D01*
X57408349Y-66677000D02*
X57408349Y-69500000D01*
X59048349Y-67714000D02*
X59048349Y-73366000D01*
X58128349Y-67000000D02*
X58128349Y-69500000D01*
X58288349Y-67096000D02*
X58288349Y-69500000D01*
X58088349Y-66978000D02*
X58088349Y-69500000D01*
X56928349Y-71580000D02*
X56928349Y-74534000D01*
X59688349Y-68576000D02*
X59688349Y-72504000D01*
X58368349Y-67148000D02*
X58368349Y-69500000D01*
X57608349Y-66750000D02*
X57608349Y-69500000D01*
X57248349Y-71580000D02*
X57248349Y-74454000D01*
X58328349Y-71580000D02*
X58328349Y-73958000D01*
X58328349Y-67122000D02*
X58328349Y-69500000D01*
X57928349Y-66893000D02*
X57928349Y-69500000D01*
X57608349Y-71580000D02*
X57608349Y-74330000D01*
X58208349Y-67047000D02*
X58208349Y-69500000D01*
X57808349Y-71580000D02*
X57808349Y-74244000D01*
X57368349Y-66663000D02*
X57368349Y-69500000D01*
X57728349Y-66800000D02*
X57728349Y-69500000D01*
X57488349Y-66705000D02*
X57488349Y-69500000D01*
X56607349Y-66492000D02*
X56607349Y-74588000D01*
X59648349Y-68506000D02*
X59648349Y-72574000D01*
X58848349Y-71580000D02*
X58848349Y-73559000D01*
X56727349Y-66510000D02*
X56727349Y-74570000D01*
X58448349Y-67202000D02*
X58448349Y-69500000D01*
X56888349Y-66538000D02*
X56888349Y-69500000D01*
X59928349Y-69087000D02*
X59928349Y-71993000D01*
X58768349Y-71580000D02*
X58768349Y-73630000D01*
X57488349Y-71580000D02*
X57488349Y-74375000D01*
X57448349Y-66690000D02*
X57448349Y-69500000D01*
X59168349Y-67843000D02*
X59168349Y-73237000D01*
X59728349Y-68650000D02*
X59728349Y-72430000D01*
X58768349Y-67450000D02*
X58768349Y-69500000D01*
X51677651Y-68225000D02*
X52477651Y-68225000D01*
X58368349Y-71580000D02*
X58368349Y-73932000D01*
X59328349Y-68035000D02*
X59328349Y-73045000D01*
X58048349Y-71580000D02*
X58048349Y-74124000D01*
X57528349Y-66719000D02*
X57528349Y-69500000D01*
X57528349Y-71580000D02*
X57528349Y-74361000D01*
X60128349Y-69772000D02*
X60128349Y-71308000D01*
X59968349Y-69194000D02*
X59968349Y-71886000D01*
X57008349Y-66564000D02*
X57008349Y-69500000D01*
X58808349Y-71580000D02*
X58808349Y-73595000D01*
X57088349Y-71580000D02*
X57088349Y-74497000D01*
X58408349Y-71580000D02*
X58408349Y-73905000D01*
X58008349Y-71580000D02*
X58008349Y-74146000D01*
X59528349Y-68312000D02*
X59528349Y-72768000D01*
X59368349Y-68086000D02*
X59368349Y-72994000D01*
X58808349Y-67485000D02*
X58808349Y-69500000D01*
X56087349Y-66460000D02*
X56087349Y-74620000D01*
X58568349Y-71580000D02*
X58568349Y-73790000D01*
X57688349Y-71580000D02*
X57688349Y-74297000D01*
X57328349Y-71580000D02*
X57328349Y-74429000D01*
X56687349Y-66503000D02*
X56687349Y-74577000D01*
X57888349Y-71580000D02*
X57888349Y-74206000D01*
X58488349Y-67231000D02*
X58488349Y-69500000D01*
X57448349Y-71580000D02*
X57448349Y-74390000D01*
X57768349Y-71580000D02*
X57768349Y-74262000D01*
X56407349Y-66472000D02*
X56407349Y-74608000D01*
X59488349Y-68253000D02*
X59488349Y-72827000D01*
X57248349Y-66626000D02*
X57248349Y-69500000D01*
X57768349Y-66818000D02*
X57768349Y-69500000D01*
X56647349Y-66498000D02*
X56647349Y-74582000D01*
X52077651Y-67825000D02*
X52077651Y-68625000D01*
X56167349Y-66460000D02*
X56167349Y-74620000D01*
X57168349Y-66604000D02*
X57168349Y-69500000D01*
X58008349Y-66934000D02*
X58008349Y-69500000D01*
X60088349Y-69592000D02*
X60088349Y-71488000D01*
X60008349Y-69311000D02*
X60008349Y-71769000D01*
X58208349Y-71580000D02*
X58208349Y-74033000D01*
X59848349Y-68895000D02*
X59848349Y-72185000D01*
X58448349Y-71580000D02*
X58448349Y-73878000D01*
X57568349Y-71580000D02*
X57568349Y-74345000D01*
X57288349Y-66638000D02*
X57288349Y-69500000D01*
X60048349Y-69442000D02*
X60048349Y-71638000D01*
X57328349Y-66651000D02*
X57328349Y-69500000D01*
X57408349Y-71580000D02*
X57408349Y-74403000D01*
X58408349Y-67175000D02*
X58408349Y-69500000D01*
X56968349Y-71580000D02*
X56968349Y-74525000D01*
X56367349Y-66469000D02*
X56367349Y-74611000D01*
X58528349Y-71580000D02*
X58528349Y-73820000D01*
X57048349Y-66573000D02*
X57048349Y-69500000D01*
X60168349Y-70007000D02*
X60168349Y-71073000D01*
X58528349Y-67260000D02*
X58528349Y-69500000D01*
X56127349Y-66460000D02*
X56127349Y-74620000D01*
X59408349Y-68140000D02*
X59408349Y-72940000D01*
X58168349Y-67023000D02*
X58168349Y-69500000D01*
X59608349Y-68438000D02*
X59608349Y-72642000D01*
X58648349Y-67351000D02*
X58648349Y-69500000D01*
X58888349Y-67557000D02*
X58888349Y-73523000D01*
X58608349Y-71580000D02*
X58608349Y-73760000D01*
X59808349Y-68809000D02*
X59808349Y-72271000D01*
X58128349Y-71580000D02*
X58128349Y-74080000D01*
X59248349Y-67936000D02*
X59248349Y-73144000D01*
X56808349Y-66523000D02*
X56808349Y-69500000D01*
X59088349Y-67756000D02*
X59088349Y-73324000D01*
X57648349Y-66766000D02*
X57648349Y-69500000D01*
X58488349Y-71580000D02*
X58488349Y-73849000D01*
X56207349Y-66461000D02*
X56207349Y-74619000D01*
X57688349Y-66783000D02*
X57688349Y-69500000D01*
X58688349Y-67384000D02*
X58688349Y-69500000D01*
X57968349Y-66913000D02*
X57968349Y-69500000D01*
X59208349Y-67889000D02*
X59208349Y-73191000D01*
X56767349Y-66516000D02*
X56767349Y-74564000D01*
X57648349Y-71580000D02*
X57648349Y-74314000D01*
X56287349Y-66464000D02*
X56287349Y-74616000D01*
X58688349Y-71580000D02*
X58688349Y-73696000D01*
X56567349Y-66488000D02*
X56567349Y-74592000D01*
X58088349Y-71580000D02*
X58088349Y-74102000D01*
X58648349Y-71580000D02*
X58648349Y-73729000D01*
X59568349Y-68374000D02*
X59568349Y-72706000D01*
X56247349Y-66463000D02*
X56247349Y-74617000D01*
X56447349Y-66475000D02*
X56447349Y-74605000D01*
X57888349Y-66874000D02*
X57888349Y-69500000D01*
X58168349Y-71580000D02*
X58168349Y-74057000D01*
X56487349Y-66479000D02*
X56487349Y-74601000D01*
X57048349Y-71580000D02*
X57048349Y-74507000D01*
X57968349Y-71580000D02*
X57968349Y-74167000D01*
X57928349Y-71580000D02*
X57928349Y-74187000D01*
X56848349Y-66530000D02*
X56848349Y-69500000D01*
X58568349Y-67290000D02*
X58568349Y-69500000D01*
X59128349Y-67799000D02*
X59128349Y-73281000D01*
X56928349Y-66546000D02*
X56928349Y-69500000D01*
X57128349Y-71580000D02*
X57128349Y-74487000D01*
X56808349Y-71580000D02*
X56808349Y-74557000D01*
X57808349Y-66836000D02*
X57808349Y-69500000D01*
X58048349Y-66956000D02*
X58048349Y-69500000D01*
X57368349Y-71580000D02*
X57368349Y-74417000D01*
X57008349Y-71580000D02*
X57008349Y-74516000D01*
X59008349Y-67673000D02*
X59008349Y-73407000D01*
X56527349Y-66483000D02*
X56527349Y-74597000D01*
X58968349Y-67633000D02*
X58968349Y-73447000D01*
X58728349Y-71580000D02*
X58728349Y-73664000D01*
X57848349Y-66854000D02*
X57848349Y-69500000D01*
X58608349Y-67320000D02*
X58608349Y-69500000D01*
X59888349Y-68988000D02*
X59888349Y-72092000D01*
X57168349Y-71580000D02*
X57168349Y-74476000D01*
X57088349Y-66583000D02*
X57088349Y-69500000D01*
X56968349Y-66555000D02*
X56968349Y-69500000D01*
X60207349Y-70540000D02*
G75*
G03*
X60207349Y-70540000I-4120000J0D01*
G01*
%TO.C,R6*%
X131960000Y-99460000D02*
X131630000Y-99460000D01*
X131630000Y-92920000D02*
X131960000Y-92920000D01*
X134370000Y-92920000D02*
X134040000Y-92920000D01*
X134040000Y-99460000D02*
X134370000Y-99460000D01*
X134370000Y-99460000D02*
X134370000Y-92920000D01*
X131630000Y-99460000D02*
X131630000Y-92920000D01*
%TO.C,R21*%
X117040000Y-54540000D02*
X117370000Y-54540000D01*
X117370000Y-61080000D02*
X117040000Y-61080000D01*
X114630000Y-61080000D02*
X114960000Y-61080000D01*
X117370000Y-54540000D02*
X117370000Y-61080000D01*
X114960000Y-54540000D02*
X114630000Y-54540000D01*
X114630000Y-54540000D02*
X114630000Y-61080000D01*
%TO.C,J15*%
X148790000Y-63080000D02*
X137790000Y-63080000D01*
X149990000Y-61580000D02*
X148790000Y-61580000D01*
X149990000Y-54080000D02*
X151790000Y-54080000D01*
X137790000Y-51080000D02*
X148790000Y-51080000D01*
X151790000Y-54080000D02*
X151790000Y-60080000D01*
X148790000Y-61580000D02*
X148790000Y-63080000D01*
X148790000Y-55080000D02*
X148790000Y-59080000D01*
X137790000Y-63080000D02*
X137790000Y-51080000D01*
X149990000Y-60080000D02*
X149990000Y-61580000D01*
X149990000Y-52580000D02*
X149990000Y-54080000D01*
X148790000Y-52580000D02*
X149990000Y-52580000D01*
X151790000Y-55080000D02*
X148790000Y-55080000D01*
X151790000Y-60080000D02*
X149990000Y-60080000D01*
X148790000Y-51080000D02*
X148790000Y-52580000D01*
X148790000Y-59080000D02*
X151790000Y-59080000D01*
%TO.C,R3*%
X134370000Y-82460000D02*
X134370000Y-75920000D01*
X131960000Y-82460000D02*
X131630000Y-82460000D01*
X131630000Y-82460000D02*
X131630000Y-75920000D01*
X131630000Y-75920000D02*
X131960000Y-75920000D01*
X134370000Y-75920000D02*
X134040000Y-75920000D01*
X134040000Y-82460000D02*
X134370000Y-82460000D01*
%TO.C,C8*%
X122245000Y-71589749D02*
X122245000Y-70989749D01*
X121945000Y-71289749D02*
X122545000Y-71289749D01*
X127120000Y-68250000D02*
G75*
G03*
X127120000Y-68250000I-3120000J0D01*
G01*
%TO.C,R14*%
X123370000Y-99380000D02*
X123040000Y-99380000D01*
X123040000Y-92840000D02*
X123370000Y-92840000D01*
X123370000Y-92840000D02*
X123370000Y-99380000D01*
X120630000Y-99380000D02*
X120960000Y-99380000D01*
X120960000Y-92840000D02*
X120630000Y-92840000D01*
X120630000Y-92840000D02*
X120630000Y-99380000D01*
%TO.C,J5*%
X62270000Y-143515000D02*
X62270000Y-140915000D01*
X59670000Y-146115000D02*
X64870000Y-146115000D01*
X59670000Y-143515000D02*
X59670000Y-146115000D01*
X64870000Y-140915000D02*
X64870000Y-146115000D01*
X59670000Y-142245000D02*
X59670000Y-140915000D01*
X59670000Y-143515000D02*
X62270000Y-143515000D01*
X59670000Y-140915000D02*
X61000000Y-140915000D01*
X62270000Y-140915000D02*
X64870000Y-140915000D01*
%TO.C,R22*%
X118960000Y-54540000D02*
X118630000Y-54540000D01*
X121040000Y-54540000D02*
X121370000Y-54540000D01*
X118630000Y-54540000D02*
X118630000Y-61080000D01*
X121370000Y-54540000D02*
X121370000Y-61080000D01*
X121370000Y-61080000D02*
X121040000Y-61080000D01*
X118630000Y-61080000D02*
X118960000Y-61080000D01*
%TO.C,C3*%
X126570000Y-75630000D02*
X126570000Y-80170000D01*
X124430000Y-75630000D02*
X124430000Y-80170000D01*
X126570000Y-80170000D02*
X126555000Y-80170000D01*
X124445000Y-80170000D02*
X124430000Y-80170000D01*
X124445000Y-75630000D02*
X124430000Y-75630000D01*
X126570000Y-75630000D02*
X126555000Y-75630000D01*
%TO.C,C9*%
X129945000Y-71289749D02*
X130545000Y-71289749D01*
X130245000Y-71589749D02*
X130245000Y-70989749D01*
X135120000Y-68250000D02*
G75*
G03*
X135120000Y-68250000I-3120000J0D01*
G01*
%TO.C,R15*%
X123040000Y-112840000D02*
X123370000Y-112840000D01*
X120630000Y-119380000D02*
X120960000Y-119380000D01*
X120630000Y-112840000D02*
X120630000Y-119380000D01*
X120960000Y-112840000D02*
X120630000Y-112840000D01*
X123370000Y-119380000D02*
X123040000Y-119380000D01*
X123370000Y-112840000D02*
X123370000Y-119380000D01*
%TO.C,R8*%
X138370000Y-119460000D02*
X138370000Y-112920000D01*
X135960000Y-119460000D02*
X135630000Y-119460000D01*
X135630000Y-112920000D02*
X135960000Y-112920000D01*
X138370000Y-112920000D02*
X138040000Y-112920000D01*
X138040000Y-119460000D02*
X138370000Y-119460000D01*
X135630000Y-119460000D02*
X135630000Y-112920000D01*
%TO.C,R10*%
X142370000Y-139460000D02*
X142370000Y-132920000D01*
X139630000Y-139460000D02*
X139630000Y-132920000D01*
X142370000Y-132920000D02*
X142040000Y-132920000D01*
X139630000Y-132920000D02*
X139960000Y-132920000D01*
X139960000Y-139460000D02*
X139630000Y-139460000D01*
X142040000Y-139460000D02*
X142370000Y-139460000D01*
%TO.C,R5*%
X135960000Y-99460000D02*
X135630000Y-99460000D01*
X138370000Y-99460000D02*
X138370000Y-92920000D01*
X138040000Y-99460000D02*
X138370000Y-99460000D01*
X135630000Y-99460000D02*
X135630000Y-92920000D01*
X138370000Y-92920000D02*
X138040000Y-92920000D01*
X135630000Y-92920000D02*
X135960000Y-92920000D01*
%TO.C,C4*%
X126570000Y-92630000D02*
X126555000Y-92630000D01*
X124445000Y-92630000D02*
X124430000Y-92630000D01*
X126570000Y-92630000D02*
X126570000Y-97170000D01*
X124445000Y-97170000D02*
X124430000Y-97170000D01*
X124430000Y-92630000D02*
X124430000Y-97170000D01*
X126570000Y-97170000D02*
X126555000Y-97170000D01*
%TO.C,C7*%
X113945000Y-71289749D02*
X114545000Y-71289749D01*
X114245000Y-71589749D02*
X114245000Y-70989749D01*
X119120000Y-68250000D02*
G75*
G03*
X119120000Y-68250000I-3120000J0D01*
G01*
%TO.C,J10*%
X116330000Y-74590000D02*
X113670000Y-74590000D01*
X116330000Y-79730000D02*
X116330000Y-74590000D01*
X116330000Y-82330000D02*
X115000000Y-82330000D01*
X113670000Y-79730000D02*
X113670000Y-74590000D01*
X116330000Y-79730000D02*
X113670000Y-79730000D01*
X116330000Y-81000000D02*
X116330000Y-82330000D01*
%TO.C,A3*%
X68730000Y-106030000D02*
X106830000Y-106030000D01*
X109500000Y-103360000D02*
X66060000Y-103360000D01*
X71270000Y-118730000D02*
X68730000Y-118730000D01*
X68730000Y-118730000D02*
X68730000Y-121400000D01*
X71270000Y-121400000D02*
X109500000Y-121400000D01*
X109500000Y-121400000D02*
X109500000Y-103360000D01*
X106830000Y-118730000D02*
X106830000Y-121400000D01*
X66060000Y-103360000D02*
X66060000Y-121400000D01*
X68730000Y-106030000D02*
X68730000Y-103360000D01*
X71270000Y-118730000D02*
X106830000Y-118730000D01*
X66060000Y-121400000D02*
X68730000Y-121400000D01*
X106830000Y-106030000D02*
X106830000Y-103360000D01*
X71270000Y-118730000D02*
X71270000Y-121400000D01*
%TO.C,C10*%
X138245000Y-71589749D02*
X138245000Y-70989749D01*
X137945000Y-71289749D02*
X138545000Y-71289749D01*
X143120000Y-68250000D02*
G75*
G03*
X143120000Y-68250000I-3120000J0D01*
G01*
%TO.C,J1*%
X51520000Y-90855000D02*
X51520000Y-101075000D01*
X51520000Y-101075000D02*
X54180000Y-101075000D01*
X51520000Y-89585000D02*
X51520000Y-88255000D01*
X51520000Y-90855000D02*
X54180000Y-90855000D01*
X54180000Y-90855000D02*
X54180000Y-101075000D01*
X51520000Y-88255000D02*
X52850000Y-88255000D01*
%TO.C,J8*%
X148330000Y-114270000D02*
X148330000Y-127030000D01*
X145670000Y-114270000D02*
X148330000Y-114270000D01*
X145670000Y-111670000D02*
X147000000Y-111670000D01*
X145670000Y-127030000D02*
X148330000Y-127030000D01*
X145670000Y-114270000D02*
X145670000Y-127030000D01*
X145670000Y-113000000D02*
X145670000Y-111670000D01*
%TO.C,J12*%
X116330000Y-118000000D02*
X116330000Y-119330000D01*
X116330000Y-111590000D02*
X113670000Y-111590000D01*
X113670000Y-116730000D02*
X113670000Y-111590000D01*
X116330000Y-119330000D02*
X115000000Y-119330000D01*
X116330000Y-116730000D02*
X116330000Y-111590000D01*
X116330000Y-116730000D02*
X113670000Y-116730000D01*
%TO.C,J7*%
X145670000Y-94270000D02*
X148330000Y-94270000D01*
X145670000Y-91670000D02*
X147000000Y-91670000D01*
X145670000Y-93000000D02*
X145670000Y-91670000D01*
X145670000Y-107030000D02*
X148330000Y-107030000D01*
X148330000Y-94270000D02*
X148330000Y-107030000D01*
X145670000Y-94270000D02*
X145670000Y-107030000D01*
%TO.C,A1*%
X106830000Y-68730000D02*
X106830000Y-71400000D01*
X71270000Y-68730000D02*
X106830000Y-68730000D01*
X71270000Y-71400000D02*
X109500000Y-71400000D01*
X109500000Y-53360000D02*
X66060000Y-53360000D01*
X109500000Y-71400000D02*
X109500000Y-53360000D01*
X66060000Y-71400000D02*
X68730000Y-71400000D01*
X71270000Y-68730000D02*
X71270000Y-71400000D01*
X68730000Y-68730000D02*
X68730000Y-71400000D01*
X68730000Y-56030000D02*
X68730000Y-53360000D01*
X68730000Y-56030000D02*
X106830000Y-56030000D01*
X106830000Y-56030000D02*
X106830000Y-53360000D01*
X66060000Y-53360000D02*
X66060000Y-71400000D01*
X71270000Y-68730000D02*
X68730000Y-68730000D01*
%TO.C,A2*%
X71270000Y-93730000D02*
X71270000Y-96400000D01*
X109500000Y-96400000D02*
X109500000Y-78360000D01*
X71270000Y-93730000D02*
X68730000Y-93730000D01*
X106830000Y-93730000D02*
X106830000Y-96400000D01*
X68730000Y-81030000D02*
X106830000Y-81030000D01*
X68730000Y-81030000D02*
X68730000Y-78360000D01*
X71270000Y-96400000D02*
X109500000Y-96400000D01*
X109500000Y-78360000D02*
X66060000Y-78360000D01*
X66060000Y-78360000D02*
X66060000Y-96400000D01*
X66060000Y-96400000D02*
X68730000Y-96400000D01*
X106830000Y-81030000D02*
X106830000Y-78360000D01*
X71270000Y-93730000D02*
X106830000Y-93730000D01*
X68730000Y-93730000D02*
X68730000Y-96400000D01*
%TO.C,C6*%
X126570000Y-137170000D02*
X126555000Y-137170000D01*
X124430000Y-132630000D02*
X124430000Y-137170000D01*
X126570000Y-132630000D02*
X126555000Y-132630000D01*
X126570000Y-132630000D02*
X126570000Y-137170000D01*
X124445000Y-132630000D02*
X124430000Y-132630000D01*
X124445000Y-137170000D02*
X124430000Y-137170000D01*
%TO.C,A4*%
X106830000Y-143730000D02*
X106830000Y-146400000D01*
X68730000Y-143730000D02*
X68730000Y-146400000D01*
X106830000Y-131030000D02*
X106830000Y-128360000D01*
X71270000Y-146400000D02*
X109500000Y-146400000D01*
X68730000Y-131030000D02*
X68730000Y-128360000D01*
X109500000Y-128360000D02*
X66060000Y-128360000D01*
X71270000Y-143730000D02*
X106830000Y-143730000D01*
X109500000Y-146400000D02*
X109500000Y-128360000D01*
X71270000Y-143730000D02*
X71270000Y-146400000D01*
X66060000Y-128360000D02*
X66060000Y-146400000D01*
X71270000Y-143730000D02*
X68730000Y-143730000D01*
X66060000Y-146400000D02*
X68730000Y-146400000D01*
X68730000Y-131030000D02*
X106830000Y-131030000D01*
%TO.C,J9*%
X145670000Y-134270000D02*
X145670000Y-147030000D01*
X145670000Y-134270000D02*
X148330000Y-134270000D01*
X145670000Y-131670000D02*
X147000000Y-131670000D01*
X148330000Y-134270000D02*
X148330000Y-147030000D01*
X145670000Y-147030000D02*
X148330000Y-147030000D01*
X145670000Y-133000000D02*
X145670000Y-131670000D01*
%TO.C,J13*%
X116330000Y-131590000D02*
X113670000Y-131590000D01*
X116330000Y-139330000D02*
X115000000Y-139330000D01*
X116330000Y-138000000D02*
X116330000Y-139330000D01*
X116330000Y-136730000D02*
X113670000Y-136730000D01*
X116330000Y-136730000D02*
X116330000Y-131590000D01*
X113670000Y-136730000D02*
X113670000Y-131590000D01*
%TO.C,J4*%
X64870000Y-115855000D02*
X64870000Y-121055000D01*
X59670000Y-121055000D02*
X64870000Y-121055000D01*
X62270000Y-115855000D02*
X64870000Y-115855000D01*
X59670000Y-117185000D02*
X59670000Y-115855000D01*
X59670000Y-118455000D02*
X59670000Y-121055000D01*
X59670000Y-118455000D02*
X62270000Y-118455000D01*
X62270000Y-118455000D02*
X62270000Y-115855000D01*
X59670000Y-115855000D02*
X61000000Y-115855000D01*
%TO.C,R18*%
X127960000Y-99460000D02*
X127630000Y-99460000D01*
X127630000Y-92920000D02*
X127960000Y-92920000D01*
X127630000Y-99460000D02*
X127630000Y-92920000D01*
X130370000Y-99460000D02*
X130370000Y-92920000D01*
X130370000Y-92920000D02*
X130040000Y-92920000D01*
X130040000Y-99460000D02*
X130370000Y-99460000D01*
%TO.C,R16*%
X120960000Y-132840000D02*
X120630000Y-132840000D01*
X120630000Y-139380000D02*
X120960000Y-139380000D01*
X123370000Y-139380000D02*
X123040000Y-139380000D01*
X123040000Y-132840000D02*
X123370000Y-132840000D01*
X123370000Y-132840000D02*
X123370000Y-139380000D01*
X120630000Y-132840000D02*
X120630000Y-139380000D01*
%TO.C,R19*%
X130040000Y-119460000D02*
X130370000Y-119460000D01*
X130370000Y-119460000D02*
X130370000Y-112920000D01*
X127630000Y-119460000D02*
X127630000Y-112920000D01*
X127630000Y-112920000D02*
X127960000Y-112920000D01*
X127960000Y-119460000D02*
X127630000Y-119460000D01*
X130370000Y-112920000D02*
X130040000Y-112920000D01*
%TO.C,C5*%
X126570000Y-117170000D02*
X126555000Y-117170000D01*
X124445000Y-112630000D02*
X124430000Y-112630000D01*
X126570000Y-112630000D02*
X126555000Y-112630000D01*
X124430000Y-112630000D02*
X124430000Y-117170000D01*
X126570000Y-112630000D02*
X126570000Y-117170000D01*
X124445000Y-117170000D02*
X124430000Y-117170000D01*
%TO.C,R23*%
X122630000Y-54540000D02*
X122630000Y-61080000D01*
X122630000Y-61080000D02*
X122960000Y-61080000D01*
X125370000Y-54540000D02*
X125370000Y-61080000D01*
X122960000Y-54540000D02*
X122630000Y-54540000D01*
X125370000Y-61080000D02*
X125040000Y-61080000D01*
X125040000Y-54540000D02*
X125370000Y-54540000D01*
%TO.C,R24*%
X126630000Y-54540000D02*
X126630000Y-61080000D01*
X129370000Y-61080000D02*
X129040000Y-61080000D01*
X126630000Y-61080000D02*
X126960000Y-61080000D01*
X129040000Y-54540000D02*
X129370000Y-54540000D01*
X129370000Y-54540000D02*
X129370000Y-61080000D01*
X126960000Y-54540000D02*
X126630000Y-54540000D01*
%TO.C,C2*%
X52660000Y-77710000D02*
X60900000Y-77710000D01*
X52660000Y-80450000D02*
X60900000Y-80450000D01*
X60900000Y-77710000D02*
X60900000Y-80450000D01*
X52660000Y-77710000D02*
X52660000Y-80450000D01*
%TO.C,J14*%
X132380000Y-57655000D02*
X132380000Y-55055000D01*
X135040000Y-57655000D02*
X132380000Y-57655000D01*
X135040000Y-55055000D02*
X132380000Y-55055000D01*
X135040000Y-58925000D02*
X135040000Y-60255000D01*
X135040000Y-60255000D02*
X133710000Y-60255000D01*
X135040000Y-57655000D02*
X135040000Y-55055000D01*
%TD*%
M02*
