%TF.GenerationSoftware,KiCad,Pcbnew,(6.0.5)*%
%TF.CreationDate,2022-08-17T14:37:10+01:00*%
%TF.ProjectId,PicoMIDIProto,5069636f-4d49-4444-9950-726f746f2e6b,rev?*%
%TF.SameCoordinates,Original*%
%TF.FileFunction,Copper,L2,Bot*%
%TF.FilePolarity,Positive*%
%FSLAX46Y46*%
G04 Gerber Fmt 4.6, Leading zero omitted, Abs format (unit mm)*
G04 Created by KiCad (PCBNEW (6.0.5)) date 2022-08-17 14:37:10*
%MOMM*%
%LPD*%
G01*
G04 APERTURE LIST*
%TA.AperFunction,ComponentPad*%
%ADD10R,1.700000X1.700000*%
%TD*%
%TA.AperFunction,ComponentPad*%
%ADD11O,1.700000X1.700000*%
%TD*%
%TA.AperFunction,WasherPad*%
%ADD12R,4.000000X2.500000*%
%TD*%
%TA.AperFunction,ComponentPad*%
%ADD13C,2.499360*%
%TD*%
%TA.AperFunction,ComponentPad*%
%ADD14C,1.600000*%
%TD*%
%TA.AperFunction,ComponentPad*%
%ADD15O,1.600000X1.600000*%
%TD*%
%TA.AperFunction,ComponentPad*%
%ADD16R,1.600000X1.600000*%
%TD*%
%TA.AperFunction,Conductor*%
%ADD17C,0.600000*%
%TD*%
%TA.AperFunction,Conductor*%
%ADD18C,0.800000*%
%TD*%
%TA.AperFunction,Conductor*%
%ADD19C,0.200000*%
%TD*%
G04 APERTURE END LIST*
D10*
%TO.P,J6,1,Pin_1*%
%TO.N,/RX0*%
X66802000Y-75184000D03*
D11*
%TO.P,J6,2,Pin_2*%
%TO.N,Net-(R4-Pad2)*%
X66802000Y-77724000D03*
%TO.P,J6,3,Pin_3*%
%TO.N,/RX1*%
X66802000Y-80264000D03*
%TD*%
D10*
%TO.P,J5,1,Pin_1*%
%TO.N,/TX0*%
X67056000Y-93868000D03*
D11*
%TO.P,J5,2,Pin_2*%
%TO.N,Net-(R3-Pad2)*%
X67056000Y-96408000D03*
%TO.P,J5,3,Pin_3*%
%TO.N,/TX1*%
X67056000Y-98948000D03*
%TD*%
%TO.P,U2,43,SWDIO*%
%TO.N,unconnected-(U2-Pad43)*%
X85852000Y-117372000D03*
D10*
%TO.P,U2,42,GND*%
%TO.N,unconnected-(U2-Pad42)*%
X83312000Y-117372000D03*
D11*
%TO.P,U2,41,SWCLK*%
%TO.N,unconnected-(U2-Pad41)*%
X80772000Y-117372000D03*
%TO.P,U2,40,VBUS*%
%TO.N,Net-(J4-Pad1)*%
X92202000Y-69342000D03*
%TO.P,U2,39,VSYS*%
%TO.N,Net-(J4-Pad2)*%
X92202000Y-71882000D03*
D10*
%TO.P,U2,38,GND*%
%TO.N,GND*%
X92202000Y-74422000D03*
D11*
%TO.P,U2,37,3V3_EN*%
%TO.N,Net-(J4-Pad4)*%
X92202000Y-76962000D03*
%TO.P,U2,36,3V3*%
%TO.N,+3V3*%
X92202000Y-79502000D03*
%TO.P,U2,35,ADC_VREF*%
%TO.N,Net-(J4-Pad6)*%
X92202000Y-82042000D03*
%TO.P,U2,34,GPIO28_ADC2*%
%TO.N,Net-(J4-Pad7)*%
X92202000Y-84582000D03*
D10*
%TO.P,U2,33,AGND*%
%TO.N,GND*%
X92202000Y-87122000D03*
D11*
%TO.P,U2,32,GPIO27_ADC1*%
%TO.N,Net-(J4-Pad9)*%
X92202000Y-89662000D03*
%TO.P,U2,31,GPIO26_ADC0*%
%TO.N,Net-(J4-Pad10)*%
X92202000Y-92202000D03*
%TO.P,U2,30,RUN*%
%TO.N,Net-(J4-Pad11)*%
X92202000Y-94742000D03*
%TO.P,U2,29,GPIO22*%
%TO.N,Net-(J4-Pad12)*%
X92202000Y-97282000D03*
D10*
%TO.P,U2,28,GND*%
%TO.N,GND*%
X92202000Y-99822000D03*
D11*
%TO.P,U2,27,GPIO21*%
%TO.N,Net-(J4-Pad14)*%
X92202000Y-102362000D03*
%TO.P,U2,26,GPIO20*%
%TO.N,Net-(J4-Pad15)*%
X92202000Y-104902000D03*
%TO.P,U2,25,GPIO19*%
%TO.N,Net-(J4-Pad16)*%
X92202000Y-107442000D03*
%TO.P,U2,24,GPIO18*%
%TO.N,Net-(J4-Pad17)*%
X92202000Y-109982000D03*
D10*
%TO.P,U2,23,GND*%
%TO.N,GND*%
X92202000Y-112522000D03*
D11*
%TO.P,U2,22,GPIO17*%
%TO.N,Net-(J4-Pad19)*%
X92202000Y-115062000D03*
%TO.P,U2,21,GPIO16*%
%TO.N,Net-(J4-Pad20)*%
X92202000Y-117602000D03*
%TO.P,U2,20,GPIO15*%
%TO.N,Net-(J3-Pad20)*%
X74422000Y-117602000D03*
%TO.P,U2,19,GPIO14*%
%TO.N,Net-(J3-Pad19)*%
X74422000Y-115062000D03*
D10*
%TO.P,U2,18,GND*%
%TO.N,GND*%
X74422000Y-112522000D03*
D11*
%TO.P,U2,17,GPIO13*%
%TO.N,Net-(J3-Pad17)*%
X74422000Y-109982000D03*
%TO.P,U2,16,GPIO12*%
%TO.N,Net-(J3-Pad16)*%
X74422000Y-107442000D03*
%TO.P,U2,15,GPIO11*%
%TO.N,Net-(J3-Pad15)*%
X74422000Y-104902000D03*
%TO.P,U2,14,GPIO10*%
%TO.N,Net-(J3-Pad14)*%
X74422000Y-102362000D03*
D10*
%TO.P,U2,13,GND*%
%TO.N,GND*%
X74422000Y-99822000D03*
D11*
%TO.P,U2,12,GPIO9*%
%TO.N,Net-(J3-Pad12)*%
X74422000Y-97282000D03*
%TO.P,U2,11,GPIO8*%
%TO.N,Net-(J3-Pad11)*%
X74422000Y-94742000D03*
%TO.P,U2,10,GPIO7*%
%TO.N,Net-(J3-Pad10)*%
X74422000Y-92202000D03*
%TO.P,U2,9,GPIO6*%
%TO.N,Net-(J3-Pad9)*%
X74422000Y-89662000D03*
D10*
%TO.P,U2,8,GND*%
%TO.N,GND*%
X74422000Y-87122000D03*
D11*
%TO.P,U2,7,GPIO5*%
%TO.N,/RX1*%
X74422000Y-84582000D03*
%TO.P,U2,6,GPIO4*%
%TO.N,/TX1*%
X74422000Y-82042000D03*
%TO.P,U2,5,GPIO3*%
%TO.N,Net-(J3-Pad5)*%
X74422000Y-79502000D03*
%TO.P,U2,4,GPIO2*%
%TO.N,Net-(J3-Pad4)*%
X74422000Y-76962000D03*
D10*
%TO.P,U2,3,GND*%
%TO.N,GND*%
X74422000Y-74422000D03*
D11*
%TO.P,U2,2,GPIO1*%
%TO.N,/RX0*%
X74422000Y-71882000D03*
%TO.P,U2,1,GPIO0*%
%TO.N,/TX0*%
X74422000Y-69342000D03*
%TD*%
D12*
%TO.P,J1,*%
%TO.N,*%
X42640300Y-85676740D03*
X42570300Y-95679260D03*
D13*
%TO.P,J1,1*%
%TO.N,unconnected-(J1-Pad1)*%
X51765200Y-98176080D03*
%TO.P,J1,2*%
%TO.N,unconnected-(J1-Pad2)*%
X51767740Y-90678000D03*
%TO.P,J1,3*%
%TO.N,unconnected-(J1-Pad3)*%
X51765200Y-83179920D03*
%TO.P,J1,4*%
%TO.N,Net-(J1-Pad4)*%
X54267100Y-95674180D03*
%TO.P,J1,5*%
%TO.N,Net-(D1-Pad2)*%
X54267100Y-85681820D03*
%TD*%
D14*
%TO.P,R2,1*%
%TO.N,Net-(J2-Pad4)*%
X62484000Y-116967000D03*
D15*
%TO.P,R2,2*%
%TO.N,+3V3*%
X62484000Y-109347000D03*
%TD*%
%TO.P,R1,2*%
%TO.N,Net-(D1-Pad1)*%
X62484000Y-83312000D03*
D14*
%TO.P,R1,1*%
%TO.N,Net-(J1-Pad4)*%
X62484000Y-90932000D03*
%TD*%
D10*
%TO.P,J4,1,Pin_1*%
%TO.N,Net-(J4-Pad1)*%
X106680000Y-69347000D03*
D11*
%TO.P,J4,2,Pin_2*%
%TO.N,Net-(J4-Pad2)*%
X106680000Y-71887000D03*
%TO.P,J4,3,Pin_3*%
%TO.N,GND*%
X106680000Y-74427000D03*
%TO.P,J4,4,Pin_4*%
%TO.N,Net-(J4-Pad4)*%
X106680000Y-76967000D03*
%TO.P,J4,5,Pin_5*%
%TO.N,+3V3*%
X106680000Y-79507000D03*
%TO.P,J4,6,Pin_6*%
%TO.N,Net-(J4-Pad6)*%
X106680000Y-82047000D03*
%TO.P,J4,7,Pin_7*%
%TO.N,Net-(J4-Pad7)*%
X106680000Y-84587000D03*
%TO.P,J4,8,Pin_8*%
%TO.N,GND*%
X106680000Y-87127000D03*
%TO.P,J4,9,Pin_9*%
%TO.N,Net-(J4-Pad9)*%
X106680000Y-89667000D03*
%TO.P,J4,10,Pin_10*%
%TO.N,Net-(J4-Pad10)*%
X106680000Y-92207000D03*
%TO.P,J4,11,Pin_11*%
%TO.N,Net-(J4-Pad11)*%
X106680000Y-94747000D03*
%TO.P,J4,12,Pin_12*%
%TO.N,Net-(J4-Pad12)*%
X106680000Y-97287000D03*
%TO.P,J4,13,Pin_13*%
%TO.N,GND*%
X106680000Y-99827000D03*
%TO.P,J4,14,Pin_14*%
%TO.N,Net-(J4-Pad14)*%
X106680000Y-102367000D03*
%TO.P,J4,15,Pin_15*%
%TO.N,Net-(J4-Pad15)*%
X106680000Y-104907000D03*
%TO.P,J4,16,Pin_16*%
%TO.N,Net-(J4-Pad16)*%
X106680000Y-107447000D03*
%TO.P,J4,17,Pin_17*%
%TO.N,Net-(J4-Pad17)*%
X106680000Y-109987000D03*
%TO.P,J4,18,Pin_18*%
%TO.N,GND*%
X106680000Y-112527000D03*
%TO.P,J4,19,Pin_19*%
%TO.N,Net-(J4-Pad19)*%
X106680000Y-115067000D03*
%TO.P,J4,20,Pin_20*%
%TO.N,Net-(J4-Pad20)*%
X106680000Y-117607000D03*
%TD*%
D16*
%TO.P,U1,1*%
%TO.N,Net-(D1-Pad1)*%
X45730000Y-70094000D03*
D15*
%TO.P,U1,2*%
%TO.N,Net-(D1-Pad2)*%
X45730000Y-72634000D03*
%TO.P,U1,3*%
%TO.N,unconnected-(U1-Pad3)*%
X45730000Y-75174000D03*
%TO.P,U1,4*%
%TO.N,Net-(R4-Pad2)*%
X53350000Y-75174000D03*
%TO.P,U1,5*%
%TO.N,GND*%
X53350000Y-72634000D03*
%TO.P,U1,6*%
%TO.N,+3V3*%
X53350000Y-70094000D03*
%TD*%
D14*
%TO.P,R4,1*%
%TO.N,+3V3*%
X62611000Y-70104000D03*
D15*
%TO.P,R4,2*%
%TO.N,Net-(R4-Pad2)*%
X62611000Y-77724000D03*
%TD*%
D14*
%TO.P,R3,1*%
%TO.N,Net-(J2-Pad5)*%
X62484000Y-104140000D03*
D15*
%TO.P,R3,2*%
%TO.N,Net-(R3-Pad2)*%
X62484000Y-96520000D03*
%TD*%
D14*
%TO.P,C1,1*%
%TO.N,+3V3*%
X57150000Y-70144000D03*
%TO.P,C1,2*%
%TO.N,GND*%
X57150000Y-75144000D03*
%TD*%
D16*
%TO.P,D1,1,K*%
%TO.N,Net-(D1-Pad1)*%
X42164000Y-70104000D03*
D15*
%TO.P,D1,2,A*%
%TO.N,Net-(D1-Pad2)*%
X42164000Y-77724000D03*
%TD*%
D10*
%TO.P,J3,1,Pin_1*%
%TO.N,/TX0*%
X124460000Y-69347000D03*
D11*
%TO.P,J3,2,Pin_2*%
%TO.N,/RX0*%
X124460000Y-71887000D03*
%TO.P,J3,3,Pin_3*%
%TO.N,GND*%
X124460000Y-74427000D03*
%TO.P,J3,4,Pin_4*%
%TO.N,Net-(J3-Pad4)*%
X124460000Y-76967000D03*
%TO.P,J3,5,Pin_5*%
%TO.N,Net-(J3-Pad5)*%
X124460000Y-79507000D03*
%TO.P,J3,6,Pin_6*%
%TO.N,/TX1*%
X124460000Y-82047000D03*
%TO.P,J3,7,Pin_7*%
%TO.N,/RX1*%
X124460000Y-84587000D03*
%TO.P,J3,8,Pin_8*%
%TO.N,GND*%
X124460000Y-87127000D03*
%TO.P,J3,9,Pin_9*%
%TO.N,Net-(J3-Pad9)*%
X124460000Y-89667000D03*
%TO.P,J3,10,Pin_10*%
%TO.N,Net-(J3-Pad10)*%
X124460000Y-92207000D03*
%TO.P,J3,11,Pin_11*%
%TO.N,Net-(J3-Pad11)*%
X124460000Y-94747000D03*
%TO.P,J3,12,Pin_12*%
%TO.N,Net-(J3-Pad12)*%
X124460000Y-97287000D03*
%TO.P,J3,13,Pin_13*%
%TO.N,GND*%
X124460000Y-99827000D03*
%TO.P,J3,14,Pin_14*%
%TO.N,Net-(J3-Pad14)*%
X124460000Y-102367000D03*
%TO.P,J3,15,Pin_15*%
%TO.N,Net-(J3-Pad15)*%
X124460000Y-104907000D03*
%TO.P,J3,16,Pin_16*%
%TO.N,Net-(J3-Pad16)*%
X124460000Y-107447000D03*
%TO.P,J3,17,Pin_17*%
%TO.N,Net-(J3-Pad17)*%
X124460000Y-109987000D03*
%TO.P,J3,18,Pin_18*%
%TO.N,GND*%
X124460000Y-112527000D03*
%TO.P,J3,19,Pin_19*%
%TO.N,Net-(J3-Pad19)*%
X124460000Y-115067000D03*
%TO.P,J3,20,Pin_20*%
%TO.N,Net-(J3-Pad20)*%
X124460000Y-117607000D03*
%TD*%
D12*
%TO.P,J2,*%
%TO.N,*%
X42570300Y-115237260D03*
X42570300Y-105234740D03*
D13*
%TO.P,J2,1*%
%TO.N,unconnected-(J2-Pad1)*%
X51765200Y-117734080D03*
%TO.P,J2,2*%
%TO.N,GND*%
X51767740Y-110236000D03*
%TO.P,J2,3*%
%TO.N,unconnected-(J2-Pad3)*%
X51765200Y-102737920D03*
%TO.P,J2,4*%
%TO.N,Net-(J2-Pad4)*%
X54267100Y-115232180D03*
%TO.P,J2,5*%
%TO.N,Net-(J2-Pad5)*%
X54267100Y-105239820D03*
%TD*%
D17*
%TO.N,/TX0*%
X70231000Y-81280000D02*
X70231000Y-70485000D01*
X67056000Y-84455000D02*
X70231000Y-81280000D01*
X71374000Y-69342000D02*
X74422000Y-69342000D01*
X67056000Y-93868000D02*
X67056000Y-84455000D01*
X70231000Y-70485000D02*
X71374000Y-69342000D01*
%TO.N,/TX1*%
X70104000Y-84455000D02*
X72517000Y-82042000D01*
X70104000Y-95900000D02*
X70104000Y-84455000D01*
X72517000Y-82042000D02*
X74422000Y-82042000D01*
X67056000Y-98948000D02*
X70104000Y-95900000D01*
D18*
%TO.N,+3V3*%
X48768000Y-103632000D02*
X48768000Y-73152000D01*
X54483000Y-109347000D02*
X48768000Y-103632000D01*
X51826000Y-70094000D02*
X53350000Y-70094000D01*
X62484000Y-109347000D02*
X54483000Y-109347000D01*
X48768000Y-73152000D02*
X51826000Y-70094000D01*
D19*
%TO.N,/TX0*%
X87503000Y-67945000D02*
X75819000Y-67945000D01*
X90236489Y-70678489D02*
X87503000Y-67945000D01*
X90236489Y-70678489D02*
X123128511Y-70678489D01*
X75819000Y-67945000D02*
X74422000Y-69342000D01*
X123128511Y-70678489D02*
X124460000Y-69347000D01*
%TO.N,/RX0*%
X89854511Y-73090511D02*
X88011000Y-71247000D01*
X88011000Y-71247000D02*
X75057000Y-71247000D01*
X75057000Y-71247000D02*
X74422000Y-71882000D01*
X123256489Y-73090511D02*
X89854511Y-73090511D01*
%TO.N,Net-(J3-Pad20)*%
X123123511Y-116270511D02*
X88457511Y-116270511D01*
X124460000Y-117607000D02*
X123123511Y-116270511D01*
X88392000Y-116205000D02*
X87376000Y-115189000D01*
X88457511Y-116270511D02*
X88392000Y-116205000D01*
X87376000Y-115189000D02*
X76835000Y-115189000D01*
X76835000Y-115189000D02*
X74422000Y-117602000D01*
%TO.N,Net-(J3-Pad19)*%
X75753489Y-113730511D02*
X74422000Y-115062000D01*
X123123511Y-113730511D02*
X75753489Y-113730511D01*
X124460000Y-115067000D02*
X123123511Y-113730511D01*
%TO.N,Net-(J3-Pad17)*%
X75630511Y-111190511D02*
X74422000Y-109982000D01*
X124460000Y-109987000D02*
X123256489Y-111190511D01*
X123256489Y-111190511D02*
X75630511Y-111190511D01*
%TO.N,Net-(J3-Pad16)*%
X75630511Y-108650511D02*
X74422000Y-107442000D01*
X123256489Y-108650511D02*
X75630511Y-108650511D01*
X124460000Y-107447000D02*
X123256489Y-108650511D01*
%TO.N,Net-(J3-Pad15)*%
X123128511Y-106238489D02*
X75758489Y-106238489D01*
X124460000Y-104907000D02*
X123128511Y-106238489D01*
X75758489Y-106238489D02*
X74422000Y-104902000D01*
%TO.N,Net-(J3-Pad14)*%
X123256489Y-103570511D02*
X75630511Y-103570511D01*
X75630511Y-103570511D02*
X74422000Y-102362000D01*
X124460000Y-102367000D02*
X123256489Y-103570511D01*
%TO.N,Net-(J3-Pad12)*%
X75630511Y-98490511D02*
X74422000Y-97282000D01*
X123256489Y-98490511D02*
X75630511Y-98490511D01*
X124460000Y-97287000D02*
X123256489Y-98490511D01*
%TO.N,Net-(J3-Pad11)*%
X123256489Y-95950511D02*
X75630511Y-95950511D01*
X124460000Y-94747000D02*
X123256489Y-95950511D01*
X75630511Y-95950511D02*
X74422000Y-94742000D01*
%TO.N,Net-(J3-Pad10)*%
X123256489Y-93410511D02*
X75630511Y-93410511D01*
X75630511Y-93410511D02*
X74422000Y-92202000D01*
X124460000Y-92207000D02*
X123256489Y-93410511D01*
%TO.N,Net-(J3-Pad9)*%
X75630511Y-90870511D02*
X74422000Y-89662000D01*
X123256489Y-90870511D02*
X75630511Y-90870511D01*
X124460000Y-89667000D02*
X123256489Y-90870511D01*
%TO.N,/RX1*%
X75630511Y-85790511D02*
X74422000Y-84582000D01*
X123256489Y-85790511D02*
X75630511Y-85790511D01*
X124460000Y-84587000D02*
X123256489Y-85790511D01*
%TO.N,/TX1*%
X75630511Y-83250511D02*
X74422000Y-82042000D01*
X124460000Y-82047000D02*
X123256489Y-83250511D01*
X123256489Y-83250511D02*
X75630511Y-83250511D01*
%TO.N,Net-(J3-Pad5)*%
X123256489Y-80710511D02*
X75630511Y-80710511D01*
X75630511Y-80710511D02*
X74422000Y-79502000D01*
X124460000Y-79507000D02*
X123256489Y-80710511D01*
%TO.N,Net-(J3-Pad4)*%
X75630511Y-78170511D02*
X74422000Y-76962000D01*
X123256489Y-78170511D02*
X75630511Y-78170511D01*
X124460000Y-76967000D02*
X123256489Y-78170511D01*
%TO.N,/RX0*%
X124460000Y-71887000D02*
X123256489Y-73090511D01*
%TD*%
%TA.AperFunction,Conductor*%
%TO.N,GND*%
G36*
X73540566Y-68092502D02*
G01*
X73587059Y-68146158D01*
X73597163Y-68216432D01*
X73567669Y-68281012D01*
X73548100Y-68299258D01*
X73516965Y-68322635D01*
X73362629Y-68484138D01*
X73360632Y-68487065D01*
X73302603Y-68527148D01*
X73263102Y-68533500D01*
X71383214Y-68533500D01*
X71381894Y-68533493D01*
X71380819Y-68533482D01*
X71291779Y-68532549D01*
X71249403Y-68541711D01*
X71236837Y-68543769D01*
X71193745Y-68548603D01*
X71187094Y-68550919D01*
X71187090Y-68550920D01*
X71162070Y-68559633D01*
X71147258Y-68563796D01*
X71141482Y-68565045D01*
X71114490Y-68570881D01*
X71075187Y-68589208D01*
X71063411Y-68593990D01*
X71022448Y-68608255D01*
X71016473Y-68611989D01*
X71016470Y-68611990D01*
X70994005Y-68626027D01*
X70980488Y-68633366D01*
X70956486Y-68644559D01*
X70950098Y-68647538D01*
X70944533Y-68651855D01*
X70944531Y-68651856D01*
X70915847Y-68674106D01*
X70905388Y-68681402D01*
X70874596Y-68700642D01*
X70874593Y-68700644D01*
X70868624Y-68704374D01*
X70863629Y-68709334D01*
X70863628Y-68709335D01*
X70839821Y-68732976D01*
X70839196Y-68733561D01*
X70838530Y-68734078D01*
X70812540Y-68760068D01*
X70739918Y-68832185D01*
X70739260Y-68833222D01*
X70738157Y-68834451D01*
X69665842Y-69906766D01*
X69664905Y-69907694D01*
X69614948Y-69956616D01*
X69600493Y-69970771D01*
X69577002Y-70007221D01*
X69569583Y-70017546D01*
X69542524Y-70051443D01*
X69539459Y-70057784D01*
X69539458Y-70057785D01*
X69527928Y-70081637D01*
X69520399Y-70095054D01*
X69502235Y-70123238D01*
X69499827Y-70129855D01*
X69499824Y-70129860D01*
X69487408Y-70163973D01*
X69482447Y-70175716D01*
X69466646Y-70208403D01*
X69466644Y-70208408D01*
X69463579Y-70214749D01*
X69461996Y-70221607D01*
X69461995Y-70221609D01*
X69456035Y-70247426D01*
X69451668Y-70262169D01*
X69440197Y-70293685D01*
X69439314Y-70300675D01*
X69439312Y-70300683D01*
X69434762Y-70336701D01*
X69432526Y-70349253D01*
X69427255Y-70372087D01*
X69422776Y-70391485D01*
X69422751Y-70398531D01*
X69422751Y-70398534D01*
X69422634Y-70432056D01*
X69422605Y-70432938D01*
X69422500Y-70433769D01*
X69422500Y-70470419D01*
X69422499Y-70470859D01*
X69422218Y-70551494D01*
X69422143Y-70572870D01*
X69422411Y-70574070D01*
X69422500Y-70575707D01*
X69422500Y-80892918D01*
X69402498Y-80961039D01*
X69385595Y-80982013D01*
X66490842Y-83876766D01*
X66489905Y-83877694D01*
X66466336Y-83900775D01*
X66425493Y-83940771D01*
X66402002Y-83977221D01*
X66394583Y-83987546D01*
X66367524Y-84021443D01*
X66364459Y-84027784D01*
X66364458Y-84027785D01*
X66352928Y-84051637D01*
X66345399Y-84065054D01*
X66327235Y-84093238D01*
X66324827Y-84099855D01*
X66324824Y-84099860D01*
X66312408Y-84133973D01*
X66307447Y-84145716D01*
X66291646Y-84178403D01*
X66291644Y-84178408D01*
X66288579Y-84184749D01*
X66286996Y-84191607D01*
X66286995Y-84191609D01*
X66281035Y-84217426D01*
X66276668Y-84232169D01*
X66265197Y-84263685D01*
X66264314Y-84270675D01*
X66264312Y-84270683D01*
X66259762Y-84306701D01*
X66257526Y-84319253D01*
X66253497Y-84336707D01*
X66247776Y-84361485D01*
X66247751Y-84368531D01*
X66247751Y-84368534D01*
X66247634Y-84402056D01*
X66247605Y-84402938D01*
X66247500Y-84403769D01*
X66247500Y-84440419D01*
X66247499Y-84440859D01*
X66247221Y-84520599D01*
X66247143Y-84542870D01*
X66247411Y-84544070D01*
X66247500Y-84545707D01*
X66247500Y-92386709D01*
X66227498Y-92454830D01*
X66173842Y-92501323D01*
X66135108Y-92511972D01*
X66122914Y-92513297D01*
X66095684Y-92516255D01*
X65959295Y-92567385D01*
X65842739Y-92654739D01*
X65755385Y-92771295D01*
X65704255Y-92907684D01*
X65697500Y-92969866D01*
X65697500Y-94766134D01*
X65704255Y-94828316D01*
X65755385Y-94964705D01*
X65842739Y-95081261D01*
X65959295Y-95168615D01*
X65967704Y-95171767D01*
X65967705Y-95171768D01*
X66076451Y-95212535D01*
X66133216Y-95255176D01*
X66157916Y-95321738D01*
X66142709Y-95391087D01*
X66123316Y-95417568D01*
X66031353Y-95513802D01*
X65996629Y-95550138D01*
X65870743Y-95734680D01*
X65835533Y-95810533D01*
X65786620Y-95915909D01*
X65776688Y-95937305D01*
X65716989Y-96152570D01*
X65693251Y-96374695D01*
X65693548Y-96379848D01*
X65693548Y-96379851D01*
X65695886Y-96420401D01*
X65706110Y-96597715D01*
X65707247Y-96602761D01*
X65707248Y-96602767D01*
X65721230Y-96664807D01*
X65755222Y-96815639D01*
X65839266Y-97022616D01*
X65841965Y-97027020D01*
X65937642Y-97183151D01*
X65955987Y-97213088D01*
X66102250Y-97381938D01*
X66274126Y-97524632D01*
X66282212Y-97529357D01*
X66347445Y-97567476D01*
X66396169Y-97619114D01*
X66409240Y-97688897D01*
X66382509Y-97754669D01*
X66342055Y-97788027D01*
X66329607Y-97794507D01*
X66325474Y-97797610D01*
X66325471Y-97797612D01*
X66168491Y-97915476D01*
X66150965Y-97928635D01*
X65996629Y-98090138D01*
X65993715Y-98094410D01*
X65993714Y-98094411D01*
X65969487Y-98129927D01*
X65870743Y-98274680D01*
X65844521Y-98331171D01*
X65786470Y-98456232D01*
X65776688Y-98477305D01*
X65716989Y-98692570D01*
X65693251Y-98914695D01*
X65693548Y-98919848D01*
X65693548Y-98919851D01*
X65705500Y-99127144D01*
X65706110Y-99137715D01*
X65707247Y-99142761D01*
X65707248Y-99142767D01*
X65710431Y-99156890D01*
X65755222Y-99355639D01*
X65793461Y-99449811D01*
X65834097Y-99549885D01*
X65839266Y-99562616D01*
X65861837Y-99599448D01*
X65949086Y-99741826D01*
X65955987Y-99753088D01*
X66102250Y-99921938D01*
X66274126Y-100064632D01*
X66467000Y-100177338D01*
X66675692Y-100257030D01*
X66680760Y-100258061D01*
X66680763Y-100258062D01*
X66788017Y-100279883D01*
X66894597Y-100301567D01*
X66899772Y-100301757D01*
X66899774Y-100301757D01*
X67112673Y-100309564D01*
X67112677Y-100309564D01*
X67117837Y-100309753D01*
X67122957Y-100309097D01*
X67122959Y-100309097D01*
X67334288Y-100282025D01*
X67334289Y-100282025D01*
X67339416Y-100281368D01*
X67344366Y-100279883D01*
X67548429Y-100218661D01*
X67548434Y-100218659D01*
X67553384Y-100217174D01*
X67753994Y-100118896D01*
X67935860Y-99989173D01*
X68094096Y-99831489D01*
X68153594Y-99748689D01*
X68221435Y-99654277D01*
X68224453Y-99650077D01*
X68246769Y-99604925D01*
X68321136Y-99454453D01*
X68321137Y-99454451D01*
X68323430Y-99449811D01*
X68388370Y-99236069D01*
X68417529Y-99014590D01*
X68419156Y-98948000D01*
X68407242Y-98803087D01*
X68421595Y-98733558D01*
X68443723Y-98703669D01*
X69898697Y-97248695D01*
X73059251Y-97248695D01*
X73059548Y-97253848D01*
X73059548Y-97253851D01*
X73066996Y-97383027D01*
X73072110Y-97471715D01*
X73073247Y-97476761D01*
X73073248Y-97476767D01*
X73085100Y-97529357D01*
X73121222Y-97689639D01*
X73170956Y-97812119D01*
X73199336Y-97882011D01*
X73205266Y-97896616D01*
X73321987Y-98087088D01*
X73468250Y-98255938D01*
X73472225Y-98259238D01*
X73472231Y-98259244D01*
X73477425Y-98263556D01*
X73517059Y-98322460D01*
X73518555Y-98393441D01*
X73481439Y-98453962D01*
X73441168Y-98478480D01*
X73333946Y-98518676D01*
X73318351Y-98527214D01*
X73216276Y-98603715D01*
X73203715Y-98616276D01*
X73127214Y-98718351D01*
X73118676Y-98733946D01*
X73073522Y-98854394D01*
X73069895Y-98869649D01*
X73064369Y-98920514D01*
X73064000Y-98927328D01*
X73064000Y-99549885D01*
X73068475Y-99565124D01*
X73069865Y-99566329D01*
X73077548Y-99568000D01*
X75761884Y-99568000D01*
X75777123Y-99563525D01*
X75778328Y-99562135D01*
X75779999Y-99554452D01*
X75779999Y-99225011D01*
X75800001Y-99156890D01*
X75853657Y-99110397D01*
X75905999Y-99099011D01*
X90718000Y-99099011D01*
X90786121Y-99119013D01*
X90832614Y-99172669D01*
X90844000Y-99225011D01*
X90844000Y-99549885D01*
X90848475Y-99565124D01*
X90849865Y-99566329D01*
X90857548Y-99568000D01*
X93541884Y-99568000D01*
X93557123Y-99563525D01*
X93558328Y-99562135D01*
X93559999Y-99554452D01*
X93559999Y-99225011D01*
X93580001Y-99156890D01*
X93633657Y-99110397D01*
X93685999Y-99099011D01*
X105323271Y-99099011D01*
X105391392Y-99119013D01*
X105437885Y-99172669D01*
X105447989Y-99242943D01*
X105437559Y-99278062D01*
X105403337Y-99351788D01*
X105399775Y-99361470D01*
X105344389Y-99561183D01*
X105345912Y-99569607D01*
X105358292Y-99573000D01*
X107998344Y-99573000D01*
X108011875Y-99569027D01*
X108013180Y-99559947D01*
X107971214Y-99392875D01*
X107967894Y-99383124D01*
X107920991Y-99275253D01*
X107912171Y-99204807D01*
X107942838Y-99140775D01*
X108003255Y-99103487D01*
X108036541Y-99099011D01*
X123103271Y-99099011D01*
X123171392Y-99119013D01*
X123217885Y-99172669D01*
X123227989Y-99242943D01*
X123217559Y-99278062D01*
X123183337Y-99351788D01*
X123179775Y-99361470D01*
X123124389Y-99561183D01*
X123125912Y-99569607D01*
X123138292Y-99573000D01*
X125778344Y-99573000D01*
X125791875Y-99569027D01*
X125793180Y-99559947D01*
X125751214Y-99392875D01*
X125747894Y-99383124D01*
X125662972Y-99187814D01*
X125658105Y-99178739D01*
X125542426Y-98999926D01*
X125536136Y-98991757D01*
X125392806Y-98834240D01*
X125385273Y-98827215D01*
X125218139Y-98695222D01*
X125209556Y-98689520D01*
X125172602Y-98669120D01*
X125122631Y-98618687D01*
X125107859Y-98549245D01*
X125132975Y-98482839D01*
X125160327Y-98456232D01*
X125183797Y-98439491D01*
X125339860Y-98328173D01*
X125396747Y-98271485D01*
X125494435Y-98174137D01*
X125498096Y-98170489D01*
X125555222Y-98090990D01*
X125625435Y-97993277D01*
X125628453Y-97989077D01*
X125667080Y-97910922D01*
X125725136Y-97793453D01*
X125725137Y-97793451D01*
X125727430Y-97788811D01*
X125766612Y-97659849D01*
X125790865Y-97580023D01*
X125790865Y-97580021D01*
X125792370Y-97575069D01*
X125821529Y-97353590D01*
X125821876Y-97339387D01*
X125823074Y-97290365D01*
X125823074Y-97290361D01*
X125823156Y-97287000D01*
X125804852Y-97064361D01*
X125750431Y-96847702D01*
X125661354Y-96642840D01*
X125554265Y-96477306D01*
X125542822Y-96459617D01*
X125542820Y-96459614D01*
X125540014Y-96455277D01*
X125389670Y-96290051D01*
X125385619Y-96286852D01*
X125385615Y-96286848D01*
X125218414Y-96154800D01*
X125218410Y-96154798D01*
X125214359Y-96151598D01*
X125173053Y-96128796D01*
X125123084Y-96078364D01*
X125108312Y-96008921D01*
X125133428Y-95942516D01*
X125160780Y-95915909D01*
X125240924Y-95858743D01*
X125339860Y-95788173D01*
X125368642Y-95759492D01*
X125494435Y-95634137D01*
X125498096Y-95630489D01*
X125533933Y-95580617D01*
X125625435Y-95453277D01*
X125628453Y-95449077D01*
X125643700Y-95418228D01*
X125725136Y-95253453D01*
X125725137Y-95253451D01*
X125727430Y-95248811D01*
X125792370Y-95035069D01*
X125821529Y-94813590D01*
X125821733Y-94805240D01*
X125823074Y-94750365D01*
X125823074Y-94750361D01*
X125823156Y-94747000D01*
X125804852Y-94524361D01*
X125750431Y-94307702D01*
X125661354Y-94102840D01*
X125581009Y-93978645D01*
X125542822Y-93919617D01*
X125542820Y-93919614D01*
X125540014Y-93915277D01*
X125389670Y-93750051D01*
X125385619Y-93746852D01*
X125385615Y-93746848D01*
X125218414Y-93614800D01*
X125218410Y-93614798D01*
X125214359Y-93611598D01*
X125173053Y-93588796D01*
X125123084Y-93538364D01*
X125108312Y-93468921D01*
X125133428Y-93402516D01*
X125160780Y-93375909D01*
X125237420Y-93321242D01*
X125339860Y-93248173D01*
X125498096Y-93090489D01*
X125555222Y-93010990D01*
X125625435Y-92913277D01*
X125628453Y-92909077D01*
X125632799Y-92900285D01*
X125725136Y-92713453D01*
X125725137Y-92713451D01*
X125727430Y-92708811D01*
X125786192Y-92515402D01*
X125790865Y-92500023D01*
X125790865Y-92500021D01*
X125792370Y-92495069D01*
X125821529Y-92273590D01*
X125821733Y-92265240D01*
X125823074Y-92210365D01*
X125823074Y-92210361D01*
X125823156Y-92207000D01*
X125804852Y-91984361D01*
X125750431Y-91767702D01*
X125661354Y-91562840D01*
X125552852Y-91395121D01*
X125542822Y-91379617D01*
X125542820Y-91379614D01*
X125540014Y-91375277D01*
X125389670Y-91210051D01*
X125385619Y-91206852D01*
X125385615Y-91206848D01*
X125218414Y-91074800D01*
X125218410Y-91074798D01*
X125214359Y-91071598D01*
X125173053Y-91048796D01*
X125123084Y-90998364D01*
X125108312Y-90928921D01*
X125133428Y-90862516D01*
X125160780Y-90835909D01*
X125237420Y-90781242D01*
X125339860Y-90708173D01*
X125498096Y-90550489D01*
X125555222Y-90470990D01*
X125625435Y-90373277D01*
X125628453Y-90369077D01*
X125674825Y-90275251D01*
X125725136Y-90173453D01*
X125725137Y-90173451D01*
X125727430Y-90168811D01*
X125792370Y-89955069D01*
X125821529Y-89733590D01*
X125823156Y-89667000D01*
X125804852Y-89444361D01*
X125750431Y-89227702D01*
X125661354Y-89022840D01*
X125540014Y-88835277D01*
X125389670Y-88670051D01*
X125385619Y-88666852D01*
X125385615Y-88666848D01*
X125218414Y-88534800D01*
X125218410Y-88534798D01*
X125214359Y-88531598D01*
X125205302Y-88526598D01*
X125172569Y-88508529D01*
X125122598Y-88458097D01*
X125107826Y-88388654D01*
X125132942Y-88322248D01*
X125160294Y-88295641D01*
X125335328Y-88170792D01*
X125343200Y-88164139D01*
X125494052Y-88013812D01*
X125500730Y-88005965D01*
X125625003Y-87833020D01*
X125630313Y-87824183D01*
X125724670Y-87633267D01*
X125728469Y-87623672D01*
X125790377Y-87419910D01*
X125792555Y-87409837D01*
X125793986Y-87398962D01*
X125791775Y-87384778D01*
X125778617Y-87381000D01*
X123143225Y-87381000D01*
X123129694Y-87384973D01*
X123128257Y-87394966D01*
X123158565Y-87529446D01*
X123161645Y-87539275D01*
X123241770Y-87736603D01*
X123246413Y-87745794D01*
X123357694Y-87927388D01*
X123363777Y-87935699D01*
X123503213Y-88096667D01*
X123510580Y-88103883D01*
X123674434Y-88239916D01*
X123682881Y-88245831D01*
X123751969Y-88286203D01*
X123800693Y-88337842D01*
X123813764Y-88407625D01*
X123787033Y-88473396D01*
X123746584Y-88506752D01*
X123733607Y-88513507D01*
X123729474Y-88516610D01*
X123729471Y-88516612D01*
X123705247Y-88534800D01*
X123554965Y-88647635D01*
X123400629Y-88809138D01*
X123397715Y-88813410D01*
X123397714Y-88813411D01*
X123386209Y-88830277D01*
X123274743Y-88993680D01*
X123251723Y-89043273D01*
X123198073Y-89158853D01*
X123180688Y-89196305D01*
X123120989Y-89411570D01*
X123097251Y-89633695D01*
X123097548Y-89638848D01*
X123097548Y-89638851D01*
X123102914Y-89731908D01*
X123110110Y-89856715D01*
X123111247Y-89861762D01*
X123111248Y-89861766D01*
X123149956Y-90033521D01*
X123145420Y-90104372D01*
X123116134Y-90150317D01*
X123041345Y-90225106D01*
X122979033Y-90259132D01*
X122952250Y-90262011D01*
X108089082Y-90262011D01*
X108020961Y-90242009D01*
X107974468Y-90188353D01*
X107964364Y-90118079D01*
X107968524Y-90099382D01*
X107969000Y-90097817D01*
X108012370Y-89955069D01*
X108041529Y-89733590D01*
X108043156Y-89667000D01*
X108024852Y-89444361D01*
X107970431Y-89227702D01*
X107881354Y-89022840D01*
X107760014Y-88835277D01*
X107609670Y-88670051D01*
X107605619Y-88666852D01*
X107605615Y-88666848D01*
X107438414Y-88534800D01*
X107438410Y-88534798D01*
X107434359Y-88531598D01*
X107425302Y-88526598D01*
X107392569Y-88508529D01*
X107342598Y-88458097D01*
X107327826Y-88388654D01*
X107352942Y-88322248D01*
X107380294Y-88295641D01*
X107555328Y-88170792D01*
X107563200Y-88164139D01*
X107714052Y-88013812D01*
X107720730Y-88005965D01*
X107845003Y-87833020D01*
X107850313Y-87824183D01*
X107944670Y-87633267D01*
X107948469Y-87623672D01*
X108010377Y-87419910D01*
X108012555Y-87409837D01*
X108013986Y-87398962D01*
X108011775Y-87384778D01*
X107998617Y-87381000D01*
X105363225Y-87381000D01*
X105349694Y-87384973D01*
X105348257Y-87394966D01*
X105378565Y-87529446D01*
X105381645Y-87539275D01*
X105461770Y-87736603D01*
X105466413Y-87745794D01*
X105577694Y-87927388D01*
X105583777Y-87935699D01*
X105723213Y-88096667D01*
X105730580Y-88103883D01*
X105894434Y-88239916D01*
X105902881Y-88245831D01*
X105971969Y-88286203D01*
X106020693Y-88337842D01*
X106033764Y-88407625D01*
X106007033Y-88473396D01*
X105966584Y-88506752D01*
X105953607Y-88513507D01*
X105949474Y-88516610D01*
X105949471Y-88516612D01*
X105925247Y-88534800D01*
X105774965Y-88647635D01*
X105620629Y-88809138D01*
X105617715Y-88813410D01*
X105617714Y-88813411D01*
X105606209Y-88830277D01*
X105494743Y-88993680D01*
X105471723Y-89043273D01*
X105418073Y-89158853D01*
X105400688Y-89196305D01*
X105340989Y-89411570D01*
X105317251Y-89633695D01*
X105317548Y-89638848D01*
X105317548Y-89638851D01*
X105322914Y-89731908D01*
X105330110Y-89856715D01*
X105331247Y-89861761D01*
X105331248Y-89861767D01*
X105352265Y-89955022D01*
X105379222Y-90074639D01*
X105381165Y-90079425D01*
X105381166Y-90079427D01*
X105384893Y-90088605D01*
X105391990Y-90159246D01*
X105359769Y-90222510D01*
X105298460Y-90258311D01*
X105268151Y-90262011D01*
X93609563Y-90262011D01*
X93541442Y-90242009D01*
X93494949Y-90188353D01*
X93484845Y-90118079D01*
X93489005Y-90099382D01*
X93489481Y-90097817D01*
X93534370Y-89950069D01*
X93563529Y-89728590D01*
X93564227Y-89700039D01*
X93565074Y-89665365D01*
X93565074Y-89665361D01*
X93565156Y-89662000D01*
X93546852Y-89439361D01*
X93492431Y-89222702D01*
X93403354Y-89017840D01*
X93341093Y-88921599D01*
X93284822Y-88834617D01*
X93284820Y-88834614D01*
X93282014Y-88830277D01*
X93278540Y-88826459D01*
X93278533Y-88826450D01*
X93134435Y-88668088D01*
X93103383Y-88604242D01*
X93111779Y-88533744D01*
X93156956Y-88478976D01*
X93183400Y-88465307D01*
X93290052Y-88425325D01*
X93305649Y-88416786D01*
X93407724Y-88340285D01*
X93420285Y-88327724D01*
X93496786Y-88225649D01*
X93505324Y-88210054D01*
X93550478Y-88089606D01*
X93554105Y-88074351D01*
X93559631Y-88023486D01*
X93560000Y-88016672D01*
X93560000Y-87394115D01*
X93555525Y-87378876D01*
X93554135Y-87377671D01*
X93546452Y-87376000D01*
X90862116Y-87376000D01*
X90846877Y-87380475D01*
X90845672Y-87381865D01*
X90844001Y-87389548D01*
X90844001Y-88016669D01*
X90844371Y-88023490D01*
X90849895Y-88074352D01*
X90853521Y-88089604D01*
X90898676Y-88210054D01*
X90907214Y-88225649D01*
X90983715Y-88327724D01*
X90996276Y-88340285D01*
X91098351Y-88416786D01*
X91113946Y-88425324D01*
X91222827Y-88466142D01*
X91279591Y-88508784D01*
X91304291Y-88575345D01*
X91289083Y-88644694D01*
X91269691Y-88671175D01*
X91267116Y-88673870D01*
X91142629Y-88804138D01*
X91139715Y-88808410D01*
X91139714Y-88808411D01*
X91064794Y-88918240D01*
X91016743Y-88988680D01*
X90991402Y-89043273D01*
X90937752Y-89158853D01*
X90922688Y-89191305D01*
X90862989Y-89406570D01*
X90839251Y-89628695D01*
X90839548Y-89633848D01*
X90839548Y-89633851D01*
X90845011Y-89728590D01*
X90852110Y-89851715D01*
X90853247Y-89856761D01*
X90853248Y-89856767D01*
X90868246Y-89923315D01*
X90901222Y-90069639D01*
X90908189Y-90086796D01*
X90908924Y-90088607D01*
X90916020Y-90159248D01*
X90883798Y-90222512D01*
X90822488Y-90258312D01*
X90792181Y-90262011D01*
X75934750Y-90262011D01*
X75866629Y-90242009D01*
X75845655Y-90225106D01*
X75764979Y-90144430D01*
X75730953Y-90082118D01*
X75733516Y-90018706D01*
X75752865Y-89955022D01*
X75754370Y-89950069D01*
X75783529Y-89728590D01*
X75784227Y-89700039D01*
X75785074Y-89665365D01*
X75785074Y-89665361D01*
X75785156Y-89662000D01*
X75766852Y-89439361D01*
X75712431Y-89222702D01*
X75623354Y-89017840D01*
X75561093Y-88921599D01*
X75504822Y-88834617D01*
X75504820Y-88834614D01*
X75502014Y-88830277D01*
X75498540Y-88826459D01*
X75498533Y-88826450D01*
X75354435Y-88668088D01*
X75323383Y-88604242D01*
X75331779Y-88533744D01*
X75376956Y-88478976D01*
X75403400Y-88465307D01*
X75510052Y-88425325D01*
X75525649Y-88416786D01*
X75627724Y-88340285D01*
X75640285Y-88327724D01*
X75716786Y-88225649D01*
X75725324Y-88210054D01*
X75770478Y-88089606D01*
X75774105Y-88074351D01*
X75779631Y-88023486D01*
X75780000Y-88016672D01*
X75780000Y-87394115D01*
X75775525Y-87378876D01*
X75774135Y-87377671D01*
X75766452Y-87376000D01*
X73082116Y-87376000D01*
X73066877Y-87380475D01*
X73065672Y-87381865D01*
X73064001Y-87389548D01*
X73064001Y-88016669D01*
X73064371Y-88023490D01*
X73069895Y-88074352D01*
X73073521Y-88089604D01*
X73118676Y-88210054D01*
X73127214Y-88225649D01*
X73203715Y-88327724D01*
X73216276Y-88340285D01*
X73318351Y-88416786D01*
X73333946Y-88425324D01*
X73442827Y-88466142D01*
X73499591Y-88508784D01*
X73524291Y-88575345D01*
X73509083Y-88644694D01*
X73489691Y-88671175D01*
X73487116Y-88673870D01*
X73362629Y-88804138D01*
X73359715Y-88808410D01*
X73359714Y-88808411D01*
X73284794Y-88918240D01*
X73236743Y-88988680D01*
X73211402Y-89043273D01*
X73157752Y-89158853D01*
X73142688Y-89191305D01*
X73082989Y-89406570D01*
X73059251Y-89628695D01*
X73059548Y-89633848D01*
X73059548Y-89633851D01*
X73065011Y-89728590D01*
X73072110Y-89851715D01*
X73073247Y-89856761D01*
X73073248Y-89856767D01*
X73088246Y-89923315D01*
X73121222Y-90069639D01*
X73182673Y-90220976D01*
X73199336Y-90262011D01*
X73205266Y-90276616D01*
X73207965Y-90281020D01*
X73294387Y-90422048D01*
X73321987Y-90467088D01*
X73468250Y-90635938D01*
X73640126Y-90778632D01*
X73710595Y-90819811D01*
X73713445Y-90821476D01*
X73762169Y-90873114D01*
X73775240Y-90942897D01*
X73748509Y-91008669D01*
X73708055Y-91042027D01*
X73695607Y-91048507D01*
X73691474Y-91051610D01*
X73691471Y-91051612D01*
X73546996Y-91160087D01*
X73516965Y-91182635D01*
X73362629Y-91344138D01*
X73236743Y-91528680D01*
X73193798Y-91621198D01*
X73177990Y-91655254D01*
X73142688Y-91731305D01*
X73082989Y-91946570D01*
X73059251Y-92168695D01*
X73059548Y-92173848D01*
X73059548Y-92173851D01*
X73069488Y-92346243D01*
X73072110Y-92391715D01*
X73073247Y-92396761D01*
X73073248Y-92396767D01*
X73086334Y-92454830D01*
X73121222Y-92609639D01*
X73182673Y-92760976D01*
X73199336Y-92802011D01*
X73205266Y-92816616D01*
X73207965Y-92821020D01*
X73265887Y-92915540D01*
X73321987Y-93007088D01*
X73468250Y-93175938D01*
X73640126Y-93318632D01*
X73710595Y-93359811D01*
X73713445Y-93361476D01*
X73762169Y-93413114D01*
X73775240Y-93482897D01*
X73748509Y-93548669D01*
X73708055Y-93582027D01*
X73695607Y-93588507D01*
X73691474Y-93591610D01*
X73691471Y-93591612D01*
X73521100Y-93719530D01*
X73516965Y-93722635D01*
X73362629Y-93884138D01*
X73236743Y-94068680D01*
X73197619Y-94152966D01*
X73177990Y-94195254D01*
X73142688Y-94271305D01*
X73082989Y-94486570D01*
X73059251Y-94708695D01*
X73059548Y-94713848D01*
X73059548Y-94713851D01*
X73070921Y-94911086D01*
X73072110Y-94931715D01*
X73073247Y-94936761D01*
X73073248Y-94936767D01*
X73081164Y-94971891D01*
X73121222Y-95149639D01*
X73171150Y-95272598D01*
X73199336Y-95342011D01*
X73205266Y-95356616D01*
X73207965Y-95361020D01*
X73301048Y-95512918D01*
X73321987Y-95547088D01*
X73468250Y-95715938D01*
X73640126Y-95858632D01*
X73648031Y-95863251D01*
X73713445Y-95901476D01*
X73762169Y-95953114D01*
X73775240Y-96022897D01*
X73748509Y-96088669D01*
X73708055Y-96122027D01*
X73695607Y-96128507D01*
X73691474Y-96131610D01*
X73691471Y-96131612D01*
X73526947Y-96255140D01*
X73516965Y-96262635D01*
X73362629Y-96424138D01*
X73359715Y-96428410D01*
X73359714Y-96428411D01*
X73344396Y-96450867D01*
X73236743Y-96608680D01*
X73222905Y-96638492D01*
X73157021Y-96780428D01*
X73142688Y-96811305D01*
X73082989Y-97026570D01*
X73059251Y-97248695D01*
X69898697Y-97248695D01*
X70669158Y-96478234D01*
X70670095Y-96477306D01*
X70729475Y-96419157D01*
X70729476Y-96419156D01*
X70734507Y-96414229D01*
X70757998Y-96377779D01*
X70765417Y-96367454D01*
X70792476Y-96333557D01*
X70807073Y-96303362D01*
X70814602Y-96289945D01*
X70828948Y-96267684D01*
X70832765Y-96261762D01*
X70835173Y-96255145D01*
X70835176Y-96255140D01*
X70847592Y-96221027D01*
X70852553Y-96209284D01*
X70868353Y-96176600D01*
X70868356Y-96176591D01*
X70871421Y-96170251D01*
X70878966Y-96137572D01*
X70883334Y-96122825D01*
X70894803Y-96091315D01*
X70895685Y-96084330D01*
X70895687Y-96084323D01*
X70900237Y-96048308D01*
X70902472Y-96035757D01*
X70905441Y-96022897D01*
X70912225Y-95993515D01*
X70912303Y-95971338D01*
X70912367Y-95952928D01*
X70912396Y-95952058D01*
X70912500Y-95951231D01*
X70912500Y-95914590D01*
X70912695Y-95858632D01*
X70912845Y-95815657D01*
X70912845Y-95815652D01*
X70912857Y-95812130D01*
X70912589Y-95810930D01*
X70912500Y-95809292D01*
X70912500Y-84842082D01*
X70932502Y-84773961D01*
X70949405Y-84752987D01*
X72814987Y-82887405D01*
X72877299Y-82853379D01*
X72904082Y-82850500D01*
X73267389Y-82850500D01*
X73335510Y-82870502D01*
X73362625Y-82894001D01*
X73468250Y-83015938D01*
X73640126Y-83158632D01*
X73676556Y-83179920D01*
X73713445Y-83201476D01*
X73762169Y-83253114D01*
X73775240Y-83322897D01*
X73748509Y-83388669D01*
X73708055Y-83422027D01*
X73695607Y-83428507D01*
X73691474Y-83431610D01*
X73691471Y-83431612D01*
X73552530Y-83535932D01*
X73516965Y-83562635D01*
X73362629Y-83724138D01*
X73359715Y-83728410D01*
X73359714Y-83728411D01*
X73274556Y-83853249D01*
X73236743Y-83908680D01*
X73205436Y-83976125D01*
X73148001Y-84099860D01*
X73142688Y-84111305D01*
X73082989Y-84326570D01*
X73059251Y-84548695D01*
X73059548Y-84553848D01*
X73059548Y-84553851D01*
X73071030Y-84752987D01*
X73072110Y-84771715D01*
X73073247Y-84776761D01*
X73073248Y-84776767D01*
X73091662Y-84858474D01*
X73121222Y-84989639D01*
X73173369Y-85118063D01*
X73199336Y-85182011D01*
X73205266Y-85196616D01*
X73207965Y-85201020D01*
X73317838Y-85380317D01*
X73321987Y-85387088D01*
X73468250Y-85555938D01*
X73472225Y-85559238D01*
X73472231Y-85559244D01*
X73477425Y-85563556D01*
X73517059Y-85622460D01*
X73518555Y-85693441D01*
X73481439Y-85753962D01*
X73441168Y-85778480D01*
X73333946Y-85818676D01*
X73318351Y-85827214D01*
X73216276Y-85903715D01*
X73203715Y-85916276D01*
X73127214Y-86018351D01*
X73118676Y-86033946D01*
X73073522Y-86154394D01*
X73069895Y-86169649D01*
X73064369Y-86220514D01*
X73064000Y-86227328D01*
X73064000Y-86849885D01*
X73068475Y-86865124D01*
X73069865Y-86866329D01*
X73077548Y-86868000D01*
X75761884Y-86868000D01*
X75777123Y-86863525D01*
X75778328Y-86862135D01*
X75779999Y-86854452D01*
X75779999Y-86525011D01*
X75800001Y-86456890D01*
X75853657Y-86410397D01*
X75905999Y-86399011D01*
X90718000Y-86399011D01*
X90786121Y-86419013D01*
X90832614Y-86472669D01*
X90844000Y-86525011D01*
X90844000Y-86849885D01*
X90848475Y-86865124D01*
X90849865Y-86866329D01*
X90857548Y-86868000D01*
X93541884Y-86868000D01*
X93557123Y-86863525D01*
X93558328Y-86862135D01*
X93559999Y-86854452D01*
X93559999Y-86525011D01*
X93580001Y-86456890D01*
X93633657Y-86410397D01*
X93685999Y-86399011D01*
X105323271Y-86399011D01*
X105391392Y-86419013D01*
X105437885Y-86472669D01*
X105447989Y-86542943D01*
X105437559Y-86578062D01*
X105403337Y-86651788D01*
X105399775Y-86661470D01*
X105344389Y-86861183D01*
X105345912Y-86869607D01*
X105358292Y-86873000D01*
X107998344Y-86873000D01*
X108011875Y-86869027D01*
X108013180Y-86859947D01*
X107971214Y-86692875D01*
X107967894Y-86683124D01*
X107920991Y-86575253D01*
X107912171Y-86504807D01*
X107942838Y-86440775D01*
X108003255Y-86403487D01*
X108036541Y-86399011D01*
X123103271Y-86399011D01*
X123171392Y-86419013D01*
X123217885Y-86472669D01*
X123227989Y-86542943D01*
X123217559Y-86578062D01*
X123183337Y-86651788D01*
X123179775Y-86661470D01*
X123124389Y-86861183D01*
X123125912Y-86869607D01*
X123138292Y-86873000D01*
X125778344Y-86873000D01*
X125791875Y-86869027D01*
X125793180Y-86859947D01*
X125751214Y-86692875D01*
X125747894Y-86683124D01*
X125662972Y-86487814D01*
X125658105Y-86478739D01*
X125542426Y-86299926D01*
X125536136Y-86291757D01*
X125392806Y-86134240D01*
X125385273Y-86127215D01*
X125218139Y-85995222D01*
X125209556Y-85989520D01*
X125172602Y-85969120D01*
X125122631Y-85918687D01*
X125107859Y-85849245D01*
X125132975Y-85782839D01*
X125160327Y-85756232D01*
X125183797Y-85739491D01*
X125339860Y-85628173D01*
X125498096Y-85470489D01*
X125536775Y-85416662D01*
X125625435Y-85293277D01*
X125628453Y-85289077D01*
X125686863Y-85170894D01*
X125725136Y-85093453D01*
X125725137Y-85093451D01*
X125727430Y-85088811D01*
X125780692Y-84913507D01*
X125790865Y-84880023D01*
X125790865Y-84880021D01*
X125792370Y-84875069D01*
X125821529Y-84653590D01*
X125821733Y-84645240D01*
X125823074Y-84590365D01*
X125823074Y-84590361D01*
X125823156Y-84587000D01*
X125804852Y-84364361D01*
X125750431Y-84147702D01*
X125661354Y-83942840D01*
X125560671Y-83787208D01*
X125542822Y-83759617D01*
X125542820Y-83759614D01*
X125540014Y-83755277D01*
X125389670Y-83590051D01*
X125385619Y-83586852D01*
X125385615Y-83586848D01*
X125218414Y-83454800D01*
X125218410Y-83454798D01*
X125214359Y-83451598D01*
X125173053Y-83428796D01*
X125123084Y-83378364D01*
X125108312Y-83308921D01*
X125133428Y-83242516D01*
X125160780Y-83215909D01*
X125237420Y-83161242D01*
X125339860Y-83088173D01*
X125498096Y-82930489D01*
X125538861Y-82873759D01*
X125625435Y-82753277D01*
X125628453Y-82749077D01*
X125670285Y-82664437D01*
X125725136Y-82553453D01*
X125725137Y-82553451D01*
X125727430Y-82548811D01*
X125773036Y-82398706D01*
X125790865Y-82340023D01*
X125790865Y-82340021D01*
X125792370Y-82335069D01*
X125821529Y-82113590D01*
X125823156Y-82047000D01*
X125804852Y-81824361D01*
X125750431Y-81607702D01*
X125661354Y-81402840D01*
X125605422Y-81316382D01*
X125542822Y-81219617D01*
X125542820Y-81219614D01*
X125540014Y-81215277D01*
X125389670Y-81050051D01*
X125385619Y-81046852D01*
X125385615Y-81046848D01*
X125218414Y-80914800D01*
X125218410Y-80914798D01*
X125214359Y-80911598D01*
X125173053Y-80888796D01*
X125123084Y-80838364D01*
X125108312Y-80768921D01*
X125133428Y-80702516D01*
X125160780Y-80675909D01*
X125237420Y-80621242D01*
X125339860Y-80548173D01*
X125498096Y-80390489D01*
X125555222Y-80310990D01*
X125625435Y-80213277D01*
X125628453Y-80209077D01*
X125699608Y-80065106D01*
X125725136Y-80013453D01*
X125725137Y-80013451D01*
X125727430Y-80008811D01*
X125792370Y-79795069D01*
X125821529Y-79573590D01*
X125823156Y-79507000D01*
X125804852Y-79284361D01*
X125750431Y-79067702D01*
X125661354Y-78862840D01*
X125540014Y-78675277D01*
X125389670Y-78510051D01*
X125385619Y-78506852D01*
X125385615Y-78506848D01*
X125218414Y-78374800D01*
X125218410Y-78374798D01*
X125214359Y-78371598D01*
X125173053Y-78348796D01*
X125123084Y-78298364D01*
X125108312Y-78228921D01*
X125133428Y-78162516D01*
X125160780Y-78135909D01*
X125237420Y-78081242D01*
X125339860Y-78008173D01*
X125498096Y-77850489D01*
X125555222Y-77770990D01*
X125625435Y-77673277D01*
X125628453Y-77669077D01*
X125699608Y-77525106D01*
X125725136Y-77473453D01*
X125725137Y-77473451D01*
X125727430Y-77468811D01*
X125792370Y-77255069D01*
X125821529Y-77033590D01*
X125823156Y-76967000D01*
X125804852Y-76744361D01*
X125750431Y-76527702D01*
X125661354Y-76322840D01*
X125593249Y-76217566D01*
X125542822Y-76139617D01*
X125542820Y-76139614D01*
X125540014Y-76135277D01*
X125389670Y-75970051D01*
X125385619Y-75966852D01*
X125385615Y-75966848D01*
X125218414Y-75834800D01*
X125218410Y-75834798D01*
X125214359Y-75831598D01*
X125205302Y-75826598D01*
X125172569Y-75808529D01*
X125122598Y-75758097D01*
X125107826Y-75688654D01*
X125132942Y-75622248D01*
X125160294Y-75595641D01*
X125335328Y-75470792D01*
X125343200Y-75464139D01*
X125494052Y-75313812D01*
X125500730Y-75305965D01*
X125625004Y-75133019D01*
X125630313Y-75124183D01*
X125724670Y-74933267D01*
X125728469Y-74923672D01*
X125790377Y-74719910D01*
X125792555Y-74709837D01*
X125793986Y-74698962D01*
X125791775Y-74684778D01*
X125778617Y-74681000D01*
X123143225Y-74681000D01*
X123129694Y-74684973D01*
X123128257Y-74694966D01*
X123158565Y-74829446D01*
X123161645Y-74839275D01*
X123241770Y-75036603D01*
X123246413Y-75045794D01*
X123357694Y-75227388D01*
X123363777Y-75235699D01*
X123503213Y-75396667D01*
X123510580Y-75403883D01*
X123674434Y-75539916D01*
X123682881Y-75545831D01*
X123751969Y-75586203D01*
X123800693Y-75637842D01*
X123813764Y-75707625D01*
X123787033Y-75773396D01*
X123746584Y-75806752D01*
X123733607Y-75813507D01*
X123729474Y-75816610D01*
X123729471Y-75816612D01*
X123664349Y-75865507D01*
X123554965Y-75947635D01*
X123400629Y-76109138D01*
X123397715Y-76113410D01*
X123397714Y-76113411D01*
X123352155Y-76180198D01*
X123274743Y-76293680D01*
X123259003Y-76327590D01*
X123184651Y-76487768D01*
X123180688Y-76496305D01*
X123120989Y-76711570D01*
X123097251Y-76933695D01*
X123097548Y-76938848D01*
X123097548Y-76938851D01*
X123105951Y-77084590D01*
X123110110Y-77156715D01*
X123111247Y-77161762D01*
X123111248Y-77161766D01*
X123126492Y-77229408D01*
X123140085Y-77289720D01*
X123149956Y-77333521D01*
X123145420Y-77404372D01*
X123116134Y-77450317D01*
X123041345Y-77525106D01*
X122979033Y-77559132D01*
X122952250Y-77562011D01*
X108089082Y-77562011D01*
X108020961Y-77542009D01*
X107974468Y-77488353D01*
X107964364Y-77418079D01*
X107968524Y-77399382D01*
X107969000Y-77397817D01*
X108012370Y-77255069D01*
X108041529Y-77033590D01*
X108043156Y-76967000D01*
X108024852Y-76744361D01*
X107970431Y-76527702D01*
X107881354Y-76322840D01*
X107813249Y-76217566D01*
X107762822Y-76139617D01*
X107762820Y-76139614D01*
X107760014Y-76135277D01*
X107609670Y-75970051D01*
X107605619Y-75966852D01*
X107605615Y-75966848D01*
X107438414Y-75834800D01*
X107438410Y-75834798D01*
X107434359Y-75831598D01*
X107425302Y-75826598D01*
X107392569Y-75808529D01*
X107342598Y-75758097D01*
X107327826Y-75688654D01*
X107352942Y-75622248D01*
X107380294Y-75595641D01*
X107555328Y-75470792D01*
X107563200Y-75464139D01*
X107714052Y-75313812D01*
X107720730Y-75305965D01*
X107845004Y-75133019D01*
X107850313Y-75124183D01*
X107944670Y-74933267D01*
X107948469Y-74923672D01*
X108010377Y-74719910D01*
X108012555Y-74709837D01*
X108013986Y-74698962D01*
X108011775Y-74684778D01*
X107998617Y-74681000D01*
X105363225Y-74681000D01*
X105349694Y-74684973D01*
X105348257Y-74694966D01*
X105378565Y-74829446D01*
X105381645Y-74839275D01*
X105461770Y-75036603D01*
X105466413Y-75045794D01*
X105577694Y-75227388D01*
X105583777Y-75235699D01*
X105723213Y-75396667D01*
X105730580Y-75403883D01*
X105894434Y-75539916D01*
X105902881Y-75545831D01*
X105971969Y-75586203D01*
X106020693Y-75637842D01*
X106033764Y-75707625D01*
X106007033Y-75773396D01*
X105966584Y-75806752D01*
X105953607Y-75813507D01*
X105949474Y-75816610D01*
X105949471Y-75816612D01*
X105884349Y-75865507D01*
X105774965Y-75947635D01*
X105620629Y-76109138D01*
X105617715Y-76113410D01*
X105617714Y-76113411D01*
X105572155Y-76180198D01*
X105494743Y-76293680D01*
X105479003Y-76327590D01*
X105404651Y-76487768D01*
X105400688Y-76496305D01*
X105340989Y-76711570D01*
X105317251Y-76933695D01*
X105317548Y-76938848D01*
X105317548Y-76938851D01*
X105325951Y-77084590D01*
X105330110Y-77156715D01*
X105331247Y-77161761D01*
X105331248Y-77161767D01*
X105351878Y-77253305D01*
X105379222Y-77374639D01*
X105381165Y-77379425D01*
X105381166Y-77379427D01*
X105384893Y-77388605D01*
X105391990Y-77459246D01*
X105359769Y-77522510D01*
X105298460Y-77558311D01*
X105268151Y-77562011D01*
X93609563Y-77562011D01*
X93541442Y-77542009D01*
X93494949Y-77488353D01*
X93484845Y-77418079D01*
X93489005Y-77399382D01*
X93489481Y-77397817D01*
X93534370Y-77250069D01*
X93563529Y-77028590D01*
X93565156Y-76962000D01*
X93546852Y-76739361D01*
X93492431Y-76522702D01*
X93403354Y-76317840D01*
X93316353Y-76183357D01*
X93284822Y-76134617D01*
X93284820Y-76134614D01*
X93282014Y-76130277D01*
X93278540Y-76126459D01*
X93278533Y-76126450D01*
X93134435Y-75968088D01*
X93103383Y-75904242D01*
X93111779Y-75833744D01*
X93156956Y-75778976D01*
X93183400Y-75765307D01*
X93290052Y-75725325D01*
X93305649Y-75716786D01*
X93407724Y-75640285D01*
X93420285Y-75627724D01*
X93496786Y-75525649D01*
X93505324Y-75510054D01*
X93550478Y-75389606D01*
X93554105Y-75374351D01*
X93559631Y-75323486D01*
X93560000Y-75316672D01*
X93560000Y-74694115D01*
X93555525Y-74678876D01*
X93554135Y-74677671D01*
X93546452Y-74676000D01*
X90862116Y-74676000D01*
X90846877Y-74680475D01*
X90845672Y-74681865D01*
X90844001Y-74689548D01*
X90844001Y-75316669D01*
X90844371Y-75323490D01*
X90849895Y-75374352D01*
X90853521Y-75389604D01*
X90898676Y-75510054D01*
X90907214Y-75525649D01*
X90983715Y-75627724D01*
X90996276Y-75640285D01*
X91098351Y-75716786D01*
X91113946Y-75725324D01*
X91222827Y-75766142D01*
X91279591Y-75808784D01*
X91304291Y-75875345D01*
X91289083Y-75944694D01*
X91269691Y-75971175D01*
X91160410Y-76085531D01*
X91142629Y-76104138D01*
X91016743Y-76288680D01*
X90969715Y-76389993D01*
X90933496Y-76468022D01*
X90922688Y-76491305D01*
X90862989Y-76706570D01*
X90839251Y-76928695D01*
X90839548Y-76933848D01*
X90839548Y-76933851D01*
X90845011Y-77028590D01*
X90852110Y-77151715D01*
X90853247Y-77156761D01*
X90853248Y-77156767D01*
X90874246Y-77249939D01*
X90901222Y-77369639D01*
X90906289Y-77382118D01*
X90908924Y-77388607D01*
X90916020Y-77459248D01*
X90883798Y-77522512D01*
X90822488Y-77558312D01*
X90792181Y-77562011D01*
X75934750Y-77562011D01*
X75866629Y-77542009D01*
X75845655Y-77525106D01*
X75764979Y-77444430D01*
X75730953Y-77382118D01*
X75733516Y-77318706D01*
X75743848Y-77284702D01*
X75754370Y-77250069D01*
X75783529Y-77028590D01*
X75785156Y-76962000D01*
X75766852Y-76739361D01*
X75712431Y-76522702D01*
X75623354Y-76317840D01*
X75536353Y-76183357D01*
X75504822Y-76134617D01*
X75504820Y-76134614D01*
X75502014Y-76130277D01*
X75498540Y-76126459D01*
X75498533Y-76126450D01*
X75354435Y-75968088D01*
X75323383Y-75904242D01*
X75331779Y-75833744D01*
X75376956Y-75778976D01*
X75403400Y-75765307D01*
X75510052Y-75725325D01*
X75525649Y-75716786D01*
X75627724Y-75640285D01*
X75640285Y-75627724D01*
X75716786Y-75525649D01*
X75725324Y-75510054D01*
X75770478Y-75389606D01*
X75774105Y-75374351D01*
X75779631Y-75323486D01*
X75780000Y-75316672D01*
X75780000Y-74694115D01*
X75775525Y-74678876D01*
X75774135Y-74677671D01*
X75766452Y-74676000D01*
X73082116Y-74676000D01*
X73066877Y-74680475D01*
X73065672Y-74681865D01*
X73064001Y-74689548D01*
X73064001Y-75316669D01*
X73064371Y-75323490D01*
X73069895Y-75374352D01*
X73073521Y-75389604D01*
X73118676Y-75510054D01*
X73127214Y-75525649D01*
X73203715Y-75627724D01*
X73216276Y-75640285D01*
X73318351Y-75716786D01*
X73333946Y-75725324D01*
X73442827Y-75766142D01*
X73499591Y-75808784D01*
X73524291Y-75875345D01*
X73509083Y-75944694D01*
X73489691Y-75971175D01*
X73380410Y-76085531D01*
X73362629Y-76104138D01*
X73236743Y-76288680D01*
X73189715Y-76389993D01*
X73153496Y-76468022D01*
X73142688Y-76491305D01*
X73082989Y-76706570D01*
X73059251Y-76928695D01*
X73059548Y-76933848D01*
X73059548Y-76933851D01*
X73065011Y-77028590D01*
X73072110Y-77151715D01*
X73073247Y-77156761D01*
X73073248Y-77156767D01*
X73094246Y-77249939D01*
X73121222Y-77369639D01*
X73170338Y-77490598D01*
X73199336Y-77562011D01*
X73205266Y-77576616D01*
X73207965Y-77581020D01*
X73292228Y-77718525D01*
X73321987Y-77767088D01*
X73468250Y-77935938D01*
X73640126Y-78078632D01*
X73710595Y-78119811D01*
X73713445Y-78121476D01*
X73762169Y-78173114D01*
X73775240Y-78242897D01*
X73748509Y-78308669D01*
X73708055Y-78342027D01*
X73695607Y-78348507D01*
X73691474Y-78351610D01*
X73691471Y-78351612D01*
X73592293Y-78426077D01*
X73516965Y-78482635D01*
X73490766Y-78510051D01*
X73394166Y-78611137D01*
X73362629Y-78644138D01*
X73236743Y-78828680D01*
X73222905Y-78858492D01*
X73148854Y-79018022D01*
X73142688Y-79031305D01*
X73082989Y-79246570D01*
X73059251Y-79468695D01*
X73059548Y-79473848D01*
X73059548Y-79473851D01*
X73065011Y-79568590D01*
X73072110Y-79691715D01*
X73073247Y-79696761D01*
X73073248Y-79696767D01*
X73094246Y-79789939D01*
X73121222Y-79909639D01*
X73172670Y-80036342D01*
X73199336Y-80102011D01*
X73205266Y-80116616D01*
X73321987Y-80307088D01*
X73468250Y-80475938D01*
X73640126Y-80618632D01*
X73710595Y-80659811D01*
X73713445Y-80661476D01*
X73762169Y-80713114D01*
X73775240Y-80782897D01*
X73748509Y-80848669D01*
X73708055Y-80882027D01*
X73695607Y-80888507D01*
X73691474Y-80891610D01*
X73691471Y-80891612D01*
X73521100Y-81019530D01*
X73516965Y-81022635D01*
X73362629Y-81184138D01*
X73360632Y-81187065D01*
X73302603Y-81227148D01*
X73263102Y-81233500D01*
X72526165Y-81233500D01*
X72524846Y-81233493D01*
X72434779Y-81232550D01*
X72427893Y-81234039D01*
X72427891Y-81234039D01*
X72409859Y-81237938D01*
X72392414Y-81241710D01*
X72379835Y-81243770D01*
X72343741Y-81247818D01*
X72343738Y-81247819D01*
X72336745Y-81248603D01*
X72305068Y-81259634D01*
X72290258Y-81263796D01*
X72264378Y-81269391D01*
X72264374Y-81269392D01*
X72257489Y-81270881D01*
X72251105Y-81273858D01*
X72251099Y-81273860D01*
X72218193Y-81289204D01*
X72206384Y-81293999D01*
X72165448Y-81308255D01*
X72159476Y-81311987D01*
X72159469Y-81311990D01*
X72137005Y-81326027D01*
X72123488Y-81333366D01*
X72099481Y-81344561D01*
X72099477Y-81344563D01*
X72093098Y-81347538D01*
X72076033Y-81360775D01*
X72058844Y-81374108D01*
X72048395Y-81381397D01*
X72011624Y-81404374D01*
X72006625Y-81409339D01*
X72006623Y-81409340D01*
X71982815Y-81432983D01*
X71982192Y-81433566D01*
X71981530Y-81434079D01*
X71955682Y-81459927D01*
X71912488Y-81502821D01*
X71882918Y-81532185D01*
X71882259Y-81533223D01*
X71881153Y-81534456D01*
X69538842Y-83876766D01*
X69537905Y-83877694D01*
X69514336Y-83900775D01*
X69473493Y-83940771D01*
X69450002Y-83977221D01*
X69442583Y-83987546D01*
X69415524Y-84021443D01*
X69412459Y-84027784D01*
X69412458Y-84027785D01*
X69400928Y-84051637D01*
X69393399Y-84065054D01*
X69375235Y-84093238D01*
X69372827Y-84099855D01*
X69372824Y-84099860D01*
X69360408Y-84133973D01*
X69355447Y-84145716D01*
X69339646Y-84178403D01*
X69339644Y-84178408D01*
X69336579Y-84184749D01*
X69334996Y-84191607D01*
X69334995Y-84191609D01*
X69329035Y-84217426D01*
X69324668Y-84232169D01*
X69313197Y-84263685D01*
X69312314Y-84270675D01*
X69312312Y-84270683D01*
X69307762Y-84306701D01*
X69305526Y-84319253D01*
X69301497Y-84336707D01*
X69295776Y-84361485D01*
X69295751Y-84368531D01*
X69295751Y-84368534D01*
X69295634Y-84402056D01*
X69295605Y-84402938D01*
X69295500Y-84403769D01*
X69295500Y-84440419D01*
X69295499Y-84440859D01*
X69295221Y-84520599D01*
X69295143Y-84542870D01*
X69295411Y-84544070D01*
X69295500Y-84545707D01*
X69295500Y-95512918D01*
X69275498Y-95581039D01*
X69258595Y-95602013D01*
X68612818Y-96247790D01*
X68550506Y-96281816D01*
X68479691Y-96276751D01*
X68422855Y-96234204D01*
X68401901Y-96185097D01*
X68400852Y-96185361D01*
X68390802Y-96145351D01*
X68346431Y-95968702D01*
X68257354Y-95763840D01*
X68197313Y-95671031D01*
X68138822Y-95580617D01*
X68138820Y-95580614D01*
X68136014Y-95576277D01*
X68125851Y-95565108D01*
X67988798Y-95414488D01*
X67957746Y-95350642D01*
X67966141Y-95280143D01*
X68011317Y-95225375D01*
X68037761Y-95211706D01*
X68144297Y-95171767D01*
X68152705Y-95168615D01*
X68269261Y-95081261D01*
X68356615Y-94964705D01*
X68407745Y-94828316D01*
X68414500Y-94766134D01*
X68414500Y-92969866D01*
X68407745Y-92907684D01*
X68356615Y-92771295D01*
X68269261Y-92654739D01*
X68152705Y-92567385D01*
X68016316Y-92516255D01*
X67989086Y-92513297D01*
X67976892Y-92511972D01*
X67911330Y-92484730D01*
X67870904Y-92426366D01*
X67864500Y-92386709D01*
X67864500Y-84842082D01*
X67884502Y-84773961D01*
X67901405Y-84752987D01*
X70796158Y-81858234D01*
X70797095Y-81857306D01*
X70856475Y-81799157D01*
X70856476Y-81799156D01*
X70861507Y-81794229D01*
X70884998Y-81757779D01*
X70892417Y-81747454D01*
X70919476Y-81713557D01*
X70934073Y-81683362D01*
X70941602Y-81669945D01*
X70955948Y-81647684D01*
X70959765Y-81641762D01*
X70962173Y-81635145D01*
X70962176Y-81635140D01*
X70974592Y-81601027D01*
X70979553Y-81589284D01*
X70995354Y-81556597D01*
X70995356Y-81556592D01*
X70998421Y-81550251D01*
X71005965Y-81517572D01*
X71010332Y-81502831D01*
X71021803Y-81471315D01*
X71022686Y-81464325D01*
X71022688Y-81464317D01*
X71027238Y-81428299D01*
X71029474Y-81415747D01*
X71037638Y-81380386D01*
X71037638Y-81380383D01*
X71039224Y-81373515D01*
X71039269Y-81360775D01*
X71039366Y-81332944D01*
X71039395Y-81332062D01*
X71039500Y-81331231D01*
X71039500Y-81294428D01*
X71039613Y-81262166D01*
X71039845Y-81195657D01*
X71039845Y-81195652D01*
X71039857Y-81192130D01*
X71039589Y-81190930D01*
X71039500Y-81189293D01*
X71039500Y-70872082D01*
X71059502Y-70803961D01*
X71076405Y-70782987D01*
X71671987Y-70187405D01*
X71734299Y-70153379D01*
X71761082Y-70150500D01*
X73267389Y-70150500D01*
X73335510Y-70170502D01*
X73362625Y-70194001D01*
X73468250Y-70315938D01*
X73640126Y-70458632D01*
X73660297Y-70470419D01*
X73713445Y-70501476D01*
X73762169Y-70553114D01*
X73775240Y-70622897D01*
X73748509Y-70688669D01*
X73708055Y-70722027D01*
X73695607Y-70728507D01*
X73691474Y-70731610D01*
X73691471Y-70731612D01*
X73532773Y-70850766D01*
X73516965Y-70862635D01*
X73513393Y-70866373D01*
X73379523Y-71006460D01*
X73362629Y-71024138D01*
X73359715Y-71028410D01*
X73359714Y-71028411D01*
X73343998Y-71051450D01*
X73236743Y-71208680D01*
X73214193Y-71257261D01*
X73147950Y-71399970D01*
X73142688Y-71411305D01*
X73082989Y-71626570D01*
X73059251Y-71848695D01*
X73059548Y-71853848D01*
X73059548Y-71853851D01*
X73065960Y-71965053D01*
X73072110Y-72071715D01*
X73073247Y-72076761D01*
X73073248Y-72076767D01*
X73074375Y-72081766D01*
X73121222Y-72289639D01*
X73170661Y-72411393D01*
X73199336Y-72482011D01*
X73205266Y-72496616D01*
X73222022Y-72523959D01*
X73305603Y-72660351D01*
X73321987Y-72687088D01*
X73468250Y-72855938D01*
X73472225Y-72859238D01*
X73472231Y-72859244D01*
X73477425Y-72863556D01*
X73517059Y-72922460D01*
X73518555Y-72993441D01*
X73481439Y-73053962D01*
X73441168Y-73078480D01*
X73333946Y-73118676D01*
X73318351Y-73127214D01*
X73216276Y-73203715D01*
X73203715Y-73216276D01*
X73127214Y-73318351D01*
X73118676Y-73333946D01*
X73073522Y-73454394D01*
X73069895Y-73469649D01*
X73064369Y-73520514D01*
X73064000Y-73527328D01*
X73064000Y-74149885D01*
X73068475Y-74165124D01*
X73069865Y-74166329D01*
X73077548Y-74168000D01*
X75761884Y-74168000D01*
X75777123Y-74163525D01*
X75778328Y-74162135D01*
X75779999Y-74154452D01*
X75779999Y-73527331D01*
X75779629Y-73520510D01*
X75774105Y-73469648D01*
X75770479Y-73454396D01*
X75725324Y-73333946D01*
X75716786Y-73318351D01*
X75640285Y-73216276D01*
X75627724Y-73203715D01*
X75525649Y-73127214D01*
X75510054Y-73118676D01*
X75399813Y-73077348D01*
X75343049Y-73034706D01*
X75318349Y-72968145D01*
X75333557Y-72898796D01*
X75355104Y-72870115D01*
X75456430Y-72769144D01*
X75456440Y-72769132D01*
X75460096Y-72765489D01*
X75493967Y-72718353D01*
X75587435Y-72588277D01*
X75590453Y-72584077D01*
X75600262Y-72564231D01*
X75687136Y-72388453D01*
X75687137Y-72388451D01*
X75689430Y-72383811D01*
X75748294Y-72190067D01*
X75752865Y-72175023D01*
X75752865Y-72175021D01*
X75754370Y-72170069D01*
X75772186Y-72034750D01*
X75781362Y-71965053D01*
X75810085Y-71900126D01*
X75869350Y-71861035D01*
X75906284Y-71855500D01*
X79602087Y-71855500D01*
X79670208Y-71875502D01*
X79716701Y-71929158D01*
X79726805Y-71999432D01*
X79716282Y-72034750D01*
X79702204Y-72064939D01*
X79702202Y-72064944D01*
X79699880Y-72069924D01*
X79642885Y-72282629D01*
X79623693Y-72502000D01*
X79642885Y-72721371D01*
X79699880Y-72934076D01*
X79727562Y-72993441D01*
X79790618Y-73128666D01*
X79790621Y-73128671D01*
X79792944Y-73133653D01*
X79796100Y-73138160D01*
X79796101Y-73138162D01*
X79862800Y-73233417D01*
X79919251Y-73314038D01*
X80074962Y-73469749D01*
X80079471Y-73472906D01*
X80079473Y-73472908D01*
X80135848Y-73512382D01*
X80255346Y-73596056D01*
X80454924Y-73689120D01*
X80667629Y-73746115D01*
X80887000Y-73765307D01*
X81106371Y-73746115D01*
X81319076Y-73689120D01*
X81518654Y-73596056D01*
X81638152Y-73512382D01*
X81694527Y-73472908D01*
X81694529Y-73472906D01*
X81699038Y-73469749D01*
X81854749Y-73314038D01*
X81911201Y-73233417D01*
X81977899Y-73138162D01*
X81977900Y-73138160D01*
X81981056Y-73133653D01*
X81983379Y-73128671D01*
X81983382Y-73128666D01*
X82046438Y-72993441D01*
X82074120Y-72934076D01*
X82131115Y-72721371D01*
X82150307Y-72502000D01*
X82131115Y-72282629D01*
X82074120Y-72069924D01*
X82071798Y-72064944D01*
X82071796Y-72064939D01*
X82057718Y-72034750D01*
X82047057Y-71964559D01*
X82076037Y-71899746D01*
X82135456Y-71860889D01*
X82171913Y-71855500D01*
X84452087Y-71855500D01*
X84520208Y-71875502D01*
X84566701Y-71929158D01*
X84576805Y-71999432D01*
X84566282Y-72034750D01*
X84552204Y-72064939D01*
X84552202Y-72064944D01*
X84549880Y-72069924D01*
X84492885Y-72282629D01*
X84473693Y-72502000D01*
X84492885Y-72721371D01*
X84549880Y-72934076D01*
X84577562Y-72993441D01*
X84640618Y-73128666D01*
X84640621Y-73128671D01*
X84642944Y-73133653D01*
X84646100Y-73138160D01*
X84646101Y-73138162D01*
X84712800Y-73233417D01*
X84769251Y-73314038D01*
X84924962Y-73469749D01*
X84929471Y-73472906D01*
X84929473Y-73472908D01*
X84985848Y-73512382D01*
X85105346Y-73596056D01*
X85304924Y-73689120D01*
X85517629Y-73746115D01*
X85737000Y-73765307D01*
X85956371Y-73746115D01*
X86169076Y-73689120D01*
X86368654Y-73596056D01*
X86488152Y-73512382D01*
X86544527Y-73472908D01*
X86544529Y-73472906D01*
X86549038Y-73469749D01*
X86704749Y-73314038D01*
X86761201Y-73233417D01*
X86827899Y-73138162D01*
X86827900Y-73138160D01*
X86831056Y-73133653D01*
X86833379Y-73128671D01*
X86833382Y-73128666D01*
X86896438Y-72993441D01*
X86924120Y-72934076D01*
X86981115Y-72721371D01*
X87000307Y-72502000D01*
X86981115Y-72282629D01*
X86924120Y-72069924D01*
X86921798Y-72064944D01*
X86921796Y-72064939D01*
X86907718Y-72034750D01*
X86897057Y-71964559D01*
X86926037Y-71899746D01*
X86985456Y-71860889D01*
X87021913Y-71855500D01*
X87706761Y-71855500D01*
X87774882Y-71875502D01*
X87795856Y-71892405D01*
X89390196Y-73486745D01*
X89401063Y-73499136D01*
X89420524Y-73524498D01*
X89452436Y-73548985D01*
X89452439Y-73548988D01*
X89475551Y-73566722D01*
X89547636Y-73622035D01*
X89695661Y-73683349D01*
X89814626Y-73699011D01*
X89814631Y-73699011D01*
X89814640Y-73699012D01*
X89846323Y-73703183D01*
X89854511Y-73704261D01*
X89886204Y-73700089D01*
X89902647Y-73699011D01*
X90718000Y-73699011D01*
X90786121Y-73719013D01*
X90832614Y-73772669D01*
X90844000Y-73825011D01*
X90844000Y-74149885D01*
X90848475Y-74165124D01*
X90849865Y-74166329D01*
X90857548Y-74168000D01*
X93541884Y-74168000D01*
X93557123Y-74163525D01*
X93558328Y-74162135D01*
X93559999Y-74154452D01*
X93559999Y-73825011D01*
X93580001Y-73756890D01*
X93633657Y-73710397D01*
X93685999Y-73699011D01*
X105323271Y-73699011D01*
X105391392Y-73719013D01*
X105437885Y-73772669D01*
X105447989Y-73842943D01*
X105437559Y-73878062D01*
X105403337Y-73951788D01*
X105399775Y-73961470D01*
X105344389Y-74161183D01*
X105345912Y-74169607D01*
X105358292Y-74173000D01*
X107998344Y-74173000D01*
X108011875Y-74169027D01*
X108013180Y-74159947D01*
X107971214Y-73992875D01*
X107967894Y-73983124D01*
X107920991Y-73875253D01*
X107912171Y-73804807D01*
X107942838Y-73740775D01*
X108003255Y-73703487D01*
X108036541Y-73699011D01*
X123103271Y-73699011D01*
X123171392Y-73719013D01*
X123217885Y-73772669D01*
X123227989Y-73842943D01*
X123217559Y-73878062D01*
X123183337Y-73951788D01*
X123179775Y-73961470D01*
X123124389Y-74161183D01*
X123125912Y-74169607D01*
X123138292Y-74173000D01*
X125778344Y-74173000D01*
X125791875Y-74169027D01*
X125793180Y-74159947D01*
X125751214Y-73992875D01*
X125747894Y-73983124D01*
X125662972Y-73787814D01*
X125658105Y-73778739D01*
X125542426Y-73599926D01*
X125536136Y-73591757D01*
X125392806Y-73434240D01*
X125385273Y-73427215D01*
X125218139Y-73295222D01*
X125209556Y-73289520D01*
X125172602Y-73269120D01*
X125122631Y-73218687D01*
X125107859Y-73149245D01*
X125132975Y-73082839D01*
X125160327Y-73056232D01*
X125226408Y-73009097D01*
X125339860Y-72928173D01*
X125362616Y-72905497D01*
X125494435Y-72774137D01*
X125498096Y-72770489D01*
X125555222Y-72690990D01*
X125625435Y-72593277D01*
X125628453Y-72589077D01*
X125641945Y-72561779D01*
X125725136Y-72393453D01*
X125725137Y-72393451D01*
X125727430Y-72388811D01*
X125792370Y-72175069D01*
X125821529Y-71953590D01*
X125823156Y-71887000D01*
X125804852Y-71664361D01*
X125750431Y-71447702D01*
X125661354Y-71242840D01*
X125592859Y-71136963D01*
X125542822Y-71059617D01*
X125542820Y-71059614D01*
X125540014Y-71055277D01*
X125509475Y-71021715D01*
X125392798Y-70893488D01*
X125361746Y-70829642D01*
X125370141Y-70759143D01*
X125415317Y-70704375D01*
X125441761Y-70690706D01*
X125542614Y-70652897D01*
X125556705Y-70647615D01*
X125673261Y-70560261D01*
X125760615Y-70443705D01*
X125811745Y-70307316D01*
X125818500Y-70245134D01*
X125818500Y-68448866D01*
X125811745Y-68386684D01*
X125760615Y-68250295D01*
X125761922Y-68249805D01*
X125748766Y-68189654D01*
X125773501Y-68123106D01*
X125830288Y-68080495D01*
X125874455Y-68072500D01*
X129378500Y-68072500D01*
X129446621Y-68092502D01*
X129493114Y-68146158D01*
X129504500Y-68198500D01*
X129504500Y-120421500D01*
X129484498Y-120489621D01*
X129430842Y-120536114D01*
X129378500Y-120547500D01*
X39658500Y-120547500D01*
X39590379Y-120527498D01*
X39543886Y-120473842D01*
X39532500Y-120421500D01*
X39532500Y-117687927D01*
X50002694Y-117687927D01*
X50002918Y-117692593D01*
X50002918Y-117692598D01*
X50007922Y-117796767D01*
X50015232Y-117948949D01*
X50066214Y-118205251D01*
X50154519Y-118451201D01*
X50156736Y-118455327D01*
X50273489Y-118672615D01*
X50278208Y-118681398D01*
X50281003Y-118685142D01*
X50281005Y-118685144D01*
X50431772Y-118887046D01*
X50431777Y-118887052D01*
X50434564Y-118890784D01*
X50437873Y-118894064D01*
X50437878Y-118894070D01*
X50616835Y-119071471D01*
X50620152Y-119074759D01*
X50623914Y-119077517D01*
X50623917Y-119077520D01*
X50827120Y-119226515D01*
X50830894Y-119229282D01*
X50835037Y-119231462D01*
X50835039Y-119231463D01*
X51058012Y-119348775D01*
X51058017Y-119348777D01*
X51062162Y-119350958D01*
X51066585Y-119352503D01*
X51066586Y-119352503D01*
X51304457Y-119435571D01*
X51304463Y-119435573D01*
X51308874Y-119437113D01*
X51313467Y-119437985D01*
X51561021Y-119484985D01*
X51561024Y-119484985D01*
X51565610Y-119485856D01*
X51696171Y-119490986D01*
X51822064Y-119495933D01*
X51822070Y-119495933D01*
X51826732Y-119496116D01*
X51918746Y-119486039D01*
X52081848Y-119468177D01*
X52081854Y-119468176D01*
X52086501Y-119467667D01*
X52339212Y-119401133D01*
X52579314Y-119297978D01*
X52583294Y-119295515D01*
X52583298Y-119295513D01*
X52797557Y-119162925D01*
X52797561Y-119162922D01*
X52801530Y-119160466D01*
X53000980Y-118991619D01*
X53092688Y-118887046D01*
X53170200Y-118798661D01*
X53170203Y-118798656D01*
X53173282Y-118795146D01*
X53217603Y-118726242D01*
X53271034Y-118643173D01*
X53314651Y-118575363D01*
X53421981Y-118337099D01*
X53485056Y-118113453D01*
X53491645Y-118090092D01*
X53491646Y-118090089D01*
X53492915Y-118085588D01*
X53502577Y-118009639D01*
X53525496Y-117829485D01*
X53525496Y-117829479D01*
X53525894Y-117826354D01*
X53528310Y-117734080D01*
X53524534Y-117683273D01*
X53509290Y-117478128D01*
X53509289Y-117478124D01*
X53508944Y-117473476D01*
X53499690Y-117432577D01*
X53452301Y-117223154D01*
X53451270Y-117218597D01*
X53444195Y-117200402D01*
X53409657Y-117111588D01*
X53363728Y-116993482D01*
X53357681Y-116922745D01*
X53390837Y-116859966D01*
X53452671Y-116825079D01*
X53523550Y-116829160D01*
X53539818Y-116836303D01*
X53564062Y-116849058D01*
X53568485Y-116850603D01*
X53568486Y-116850603D01*
X53806357Y-116933671D01*
X53806363Y-116933673D01*
X53810774Y-116935213D01*
X53815367Y-116936085D01*
X54062921Y-116983085D01*
X54062924Y-116983085D01*
X54067510Y-116983956D01*
X54196010Y-116989005D01*
X54323964Y-116994033D01*
X54323970Y-116994033D01*
X54328632Y-116994216D01*
X54420646Y-116984139D01*
X54577146Y-116967000D01*
X61170502Y-116967000D01*
X61190457Y-117195087D01*
X61191881Y-117200400D01*
X61191881Y-117200402D01*
X61238489Y-117374342D01*
X61249716Y-117416243D01*
X61252039Y-117421224D01*
X61252039Y-117421225D01*
X61344151Y-117618762D01*
X61344154Y-117618767D01*
X61346477Y-117623749D01*
X61388156Y-117683273D01*
X61463971Y-117791547D01*
X61477802Y-117811300D01*
X61639700Y-117973198D01*
X61644208Y-117976355D01*
X61644211Y-117976357D01*
X61691743Y-118009639D01*
X61827251Y-118104523D01*
X61832233Y-118106846D01*
X61832238Y-118106849D01*
X61973434Y-118172689D01*
X62034757Y-118201284D01*
X62040065Y-118202706D01*
X62040067Y-118202707D01*
X62250598Y-118259119D01*
X62250600Y-118259119D01*
X62255913Y-118260543D01*
X62484000Y-118280498D01*
X62712087Y-118260543D01*
X62717400Y-118259119D01*
X62717402Y-118259119D01*
X62927933Y-118202707D01*
X62927935Y-118202706D01*
X62933243Y-118201284D01*
X62994566Y-118172689D01*
X63135762Y-118106849D01*
X63135767Y-118106846D01*
X63140749Y-118104523D01*
X63276257Y-118009639D01*
X63323789Y-117976357D01*
X63323792Y-117976355D01*
X63328300Y-117973198D01*
X63490198Y-117811300D01*
X63504030Y-117791547D01*
X63579844Y-117683273D01*
X63621523Y-117623749D01*
X63623846Y-117618767D01*
X63623849Y-117618762D01*
X63647195Y-117568695D01*
X73059251Y-117568695D01*
X73059548Y-117573848D01*
X73059548Y-117573851D01*
X73065011Y-117668590D01*
X73072110Y-117791715D01*
X73073247Y-117796761D01*
X73073248Y-117796767D01*
X73093119Y-117884939D01*
X73121222Y-118009639D01*
X73205266Y-118216616D01*
X73232478Y-118261022D01*
X73287213Y-118350341D01*
X73321987Y-118407088D01*
X73468250Y-118575938D01*
X73640126Y-118718632D01*
X73833000Y-118831338D01*
X73837825Y-118833180D01*
X73837826Y-118833181D01*
X73850920Y-118838181D01*
X74041692Y-118911030D01*
X74046760Y-118912061D01*
X74046763Y-118912062D01*
X74154017Y-118933883D01*
X74260597Y-118955567D01*
X74265772Y-118955757D01*
X74265774Y-118955757D01*
X74478673Y-118963564D01*
X74478677Y-118963564D01*
X74483837Y-118963753D01*
X74488957Y-118963097D01*
X74488959Y-118963097D01*
X74700288Y-118936025D01*
X74700289Y-118936025D01*
X74705416Y-118935368D01*
X74766433Y-118917062D01*
X74914429Y-118872661D01*
X74914434Y-118872659D01*
X74919384Y-118871174D01*
X75119994Y-118772896D01*
X75301860Y-118643173D01*
X75343842Y-118601338D01*
X75402488Y-118542896D01*
X75460096Y-118485489D01*
X75472157Y-118468705D01*
X75587435Y-118308277D01*
X75590453Y-118304077D01*
X75602107Y-118280498D01*
X75687136Y-118108453D01*
X75687137Y-118108451D01*
X75689430Y-118103811D01*
X75754370Y-117890069D01*
X75783529Y-117668590D01*
X75783863Y-117654939D01*
X75785074Y-117605365D01*
X75785074Y-117605361D01*
X75785156Y-117602000D01*
X75766852Y-117379361D01*
X75731723Y-117239508D01*
X75734527Y-117168567D01*
X75764832Y-117119717D01*
X77050144Y-115834405D01*
X77112456Y-115800379D01*
X77139239Y-115797500D01*
X80428238Y-115797500D01*
X80496359Y-115817502D01*
X80542852Y-115871158D01*
X80552956Y-115941432D01*
X80523462Y-116006012D01*
X80458144Y-116045641D01*
X80456091Y-116045955D01*
X80243756Y-116115357D01*
X80213443Y-116131137D01*
X80052473Y-116214933D01*
X80045607Y-116218507D01*
X80041474Y-116221610D01*
X80041471Y-116221612D01*
X79876658Y-116345357D01*
X79866965Y-116352635D01*
X79832325Y-116388884D01*
X79739320Y-116486208D01*
X79712629Y-116514138D01*
X79709715Y-116518410D01*
X79709714Y-116518411D01*
X79647202Y-116610051D01*
X79586743Y-116698680D01*
X79542677Y-116793613D01*
X79510307Y-116863349D01*
X79492688Y-116901305D01*
X79432989Y-117116570D01*
X79409251Y-117338695D01*
X79409548Y-117343848D01*
X79409548Y-117343851D01*
X79415011Y-117438590D01*
X79422110Y-117561715D01*
X79423247Y-117566761D01*
X79423248Y-117566767D01*
X79433074Y-117610365D01*
X79471222Y-117779639D01*
X79532673Y-117930976D01*
X79549818Y-117973198D01*
X79555266Y-117986616D01*
X79575371Y-118019425D01*
X79632992Y-118113453D01*
X79671987Y-118177088D01*
X79818250Y-118345938D01*
X79990126Y-118488632D01*
X80183000Y-118601338D01*
X80391692Y-118681030D01*
X80396760Y-118682061D01*
X80396763Y-118682062D01*
X80504017Y-118703883D01*
X80610597Y-118725567D01*
X80615772Y-118725757D01*
X80615774Y-118725757D01*
X80828673Y-118733564D01*
X80828677Y-118733564D01*
X80833837Y-118733753D01*
X80838957Y-118733097D01*
X80838959Y-118733097D01*
X81050288Y-118706025D01*
X81050289Y-118706025D01*
X81055416Y-118705368D01*
X81122826Y-118685144D01*
X81264429Y-118642661D01*
X81264434Y-118642659D01*
X81269384Y-118641174D01*
X81469994Y-118542896D01*
X81651860Y-118413173D01*
X81760091Y-118305319D01*
X81822462Y-118271404D01*
X81893268Y-118276592D01*
X81950030Y-118319238D01*
X81967012Y-118350341D01*
X81990160Y-118412088D01*
X82011385Y-118468705D01*
X82098739Y-118585261D01*
X82215295Y-118672615D01*
X82351684Y-118723745D01*
X82413866Y-118730500D01*
X84210134Y-118730500D01*
X84272316Y-118723745D01*
X84408705Y-118672615D01*
X84525261Y-118585261D01*
X84612615Y-118468705D01*
X84633840Y-118412088D01*
X84656598Y-118351382D01*
X84699240Y-118294618D01*
X84765802Y-118269918D01*
X84835150Y-118285126D01*
X84869817Y-118313114D01*
X84898250Y-118345938D01*
X85070126Y-118488632D01*
X85263000Y-118601338D01*
X85471692Y-118681030D01*
X85476760Y-118682061D01*
X85476763Y-118682062D01*
X85584017Y-118703883D01*
X85690597Y-118725567D01*
X85695772Y-118725757D01*
X85695774Y-118725757D01*
X85908673Y-118733564D01*
X85908677Y-118733564D01*
X85913837Y-118733753D01*
X85918957Y-118733097D01*
X85918959Y-118733097D01*
X86130288Y-118706025D01*
X86130289Y-118706025D01*
X86135416Y-118705368D01*
X86202826Y-118685144D01*
X86344429Y-118642661D01*
X86344434Y-118642659D01*
X86349384Y-118641174D01*
X86549994Y-118542896D01*
X86731860Y-118413173D01*
X86737967Y-118407088D01*
X86837123Y-118308277D01*
X86890096Y-118255489D01*
X86926196Y-118205251D01*
X87017435Y-118078277D01*
X87020453Y-118074077D01*
X87052322Y-118009596D01*
X87117136Y-117878453D01*
X87117137Y-117878451D01*
X87119430Y-117873811D01*
X87184370Y-117660069D01*
X87213529Y-117438590D01*
X87215156Y-117372000D01*
X87196852Y-117149361D01*
X87142431Y-116932702D01*
X87053354Y-116727840D01*
X87006586Y-116655548D01*
X86934822Y-116544617D01*
X86934820Y-116544614D01*
X86932014Y-116540277D01*
X86781670Y-116375051D01*
X86777619Y-116371852D01*
X86777615Y-116371848D01*
X86610414Y-116239800D01*
X86610410Y-116239798D01*
X86606359Y-116236598D01*
X86578966Y-116221476D01*
X86495366Y-116175327D01*
X86410789Y-116128638D01*
X86405920Y-116126914D01*
X86405916Y-116126912D01*
X86205087Y-116055795D01*
X86205083Y-116055794D01*
X86200212Y-116054069D01*
X86195119Y-116053162D01*
X86195116Y-116053161D01*
X86163598Y-116047547D01*
X86100040Y-116015909D01*
X86063677Y-115954932D01*
X86066054Y-115883975D01*
X86106415Y-115825567D01*
X86171947Y-115798252D01*
X86185694Y-115797500D01*
X87071761Y-115797500D01*
X87139882Y-115817502D01*
X87160856Y-115834405D01*
X87993196Y-116666745D01*
X88004063Y-116679136D01*
X88023524Y-116704498D01*
X88030074Y-116709524D01*
X88055432Y-116728982D01*
X88055448Y-116728996D01*
X88080425Y-116748161D01*
X88150635Y-116802035D01*
X88298660Y-116863349D01*
X88457511Y-116884262D01*
X88489210Y-116880089D01*
X88505655Y-116879011D01*
X90842399Y-116879011D01*
X90910520Y-116899013D01*
X90957013Y-116952669D01*
X90967117Y-117022943D01*
X90956686Y-117058062D01*
X90924869Y-117126604D01*
X90924867Y-117126610D01*
X90922688Y-117131305D01*
X90862989Y-117346570D01*
X90839251Y-117568695D01*
X90839548Y-117573848D01*
X90839548Y-117573851D01*
X90845011Y-117668590D01*
X90852110Y-117791715D01*
X90853247Y-117796761D01*
X90853248Y-117796767D01*
X90873119Y-117884939D01*
X90901222Y-118009639D01*
X90985266Y-118216616D01*
X91012478Y-118261022D01*
X91067213Y-118350341D01*
X91101987Y-118407088D01*
X91248250Y-118575938D01*
X91420126Y-118718632D01*
X91613000Y-118831338D01*
X91617825Y-118833180D01*
X91617826Y-118833181D01*
X91630920Y-118838181D01*
X91821692Y-118911030D01*
X91826760Y-118912061D01*
X91826763Y-118912062D01*
X91934017Y-118933883D01*
X92040597Y-118955567D01*
X92045772Y-118955757D01*
X92045774Y-118955757D01*
X92258673Y-118963564D01*
X92258677Y-118963564D01*
X92263837Y-118963753D01*
X92268957Y-118963097D01*
X92268959Y-118963097D01*
X92480288Y-118936025D01*
X92480289Y-118936025D01*
X92485416Y-118935368D01*
X92546433Y-118917062D01*
X92694429Y-118872661D01*
X92694434Y-118872659D01*
X92699384Y-118871174D01*
X92899994Y-118772896D01*
X93081860Y-118643173D01*
X93123842Y-118601338D01*
X93182488Y-118542896D01*
X93240096Y-118485489D01*
X93252157Y-118468705D01*
X93367435Y-118308277D01*
X93370453Y-118304077D01*
X93382107Y-118280498D01*
X93467136Y-118108453D01*
X93467137Y-118108451D01*
X93469430Y-118103811D01*
X93534370Y-117890069D01*
X93563529Y-117668590D01*
X93563863Y-117654939D01*
X93565074Y-117605365D01*
X93565074Y-117605361D01*
X93565156Y-117602000D01*
X93546852Y-117379361D01*
X93492431Y-117162702D01*
X93445711Y-117055254D01*
X93436890Y-116984807D01*
X93467557Y-116920775D01*
X93527973Y-116883487D01*
X93561260Y-116879011D01*
X105322720Y-116879011D01*
X105390841Y-116899013D01*
X105437334Y-116952669D01*
X105447438Y-117022943D01*
X105437007Y-117058062D01*
X105402869Y-117131605D01*
X105402866Y-117131612D01*
X105400688Y-117136305D01*
X105340989Y-117351570D01*
X105317251Y-117573695D01*
X105317548Y-117578848D01*
X105317548Y-117578851D01*
X105326681Y-117737240D01*
X105330110Y-117796715D01*
X105331247Y-117801761D01*
X105331248Y-117801767D01*
X105352265Y-117895023D01*
X105379222Y-118014639D01*
X105417316Y-118108453D01*
X105458406Y-118209646D01*
X105463266Y-118221616D01*
X105492998Y-118270134D01*
X105542149Y-118350341D01*
X105579987Y-118412088D01*
X105726250Y-118580938D01*
X105798805Y-118641174D01*
X105888123Y-118715327D01*
X105898126Y-118723632D01*
X106091000Y-118836338D01*
X106299692Y-118916030D01*
X106304760Y-118917061D01*
X106304763Y-118917062D01*
X106397970Y-118936025D01*
X106518597Y-118960567D01*
X106523772Y-118960757D01*
X106523774Y-118960757D01*
X106736673Y-118968564D01*
X106736677Y-118968564D01*
X106741837Y-118968753D01*
X106746957Y-118968097D01*
X106746959Y-118968097D01*
X106958288Y-118941025D01*
X106958289Y-118941025D01*
X106963416Y-118940368D01*
X106980082Y-118935368D01*
X107172429Y-118877661D01*
X107172434Y-118877659D01*
X107177384Y-118876174D01*
X107377994Y-118777896D01*
X107559860Y-118648173D01*
X107565392Y-118642661D01*
X107663221Y-118545173D01*
X107718096Y-118490489D01*
X107775222Y-118410990D01*
X107845435Y-118313277D01*
X107848453Y-118309077D01*
X107860291Y-118285126D01*
X107945136Y-118113453D01*
X107945137Y-118113451D01*
X107947430Y-118108811D01*
X108012370Y-117895069D01*
X108041529Y-117673590D01*
X108041738Y-117665023D01*
X108043074Y-117610365D01*
X108043074Y-117610361D01*
X108043156Y-117607000D01*
X108024852Y-117384361D01*
X107970431Y-117167702D01*
X107921537Y-117055254D01*
X107912716Y-116984807D01*
X107943383Y-116920775D01*
X108003799Y-116883487D01*
X108037086Y-116879011D01*
X122819272Y-116879011D01*
X122887393Y-116899013D01*
X122908367Y-116915916D01*
X123117454Y-117125003D01*
X123151480Y-117187315D01*
X123149776Y-117247769D01*
X123120989Y-117351570D01*
X123120441Y-117356700D01*
X123120440Y-117356704D01*
X123113545Y-117421225D01*
X123097251Y-117573695D01*
X123097548Y-117578848D01*
X123097548Y-117578851D01*
X123106681Y-117737240D01*
X123110110Y-117796715D01*
X123111247Y-117801761D01*
X123111248Y-117801767D01*
X123132265Y-117895023D01*
X123159222Y-118014639D01*
X123197316Y-118108453D01*
X123238406Y-118209646D01*
X123243266Y-118221616D01*
X123272998Y-118270134D01*
X123322149Y-118350341D01*
X123359987Y-118412088D01*
X123506250Y-118580938D01*
X123578805Y-118641174D01*
X123668123Y-118715327D01*
X123678126Y-118723632D01*
X123871000Y-118836338D01*
X124079692Y-118916030D01*
X124084760Y-118917061D01*
X124084763Y-118917062D01*
X124177970Y-118936025D01*
X124298597Y-118960567D01*
X124303772Y-118960757D01*
X124303774Y-118960757D01*
X124516673Y-118968564D01*
X124516677Y-118968564D01*
X124521837Y-118968753D01*
X124526957Y-118968097D01*
X124526959Y-118968097D01*
X124738288Y-118941025D01*
X124738289Y-118941025D01*
X124743416Y-118940368D01*
X124760082Y-118935368D01*
X124952429Y-118877661D01*
X124952434Y-118877659D01*
X124957384Y-118876174D01*
X125157994Y-118777896D01*
X125339860Y-118648173D01*
X125345392Y-118642661D01*
X125443221Y-118545173D01*
X125498096Y-118490489D01*
X125555222Y-118410990D01*
X125625435Y-118313277D01*
X125628453Y-118309077D01*
X125640291Y-118285126D01*
X125725136Y-118113453D01*
X125725137Y-118113451D01*
X125727430Y-118108811D01*
X125792370Y-117895069D01*
X125821529Y-117673590D01*
X125821738Y-117665023D01*
X125823074Y-117610365D01*
X125823074Y-117610361D01*
X125823156Y-117607000D01*
X125804852Y-117384361D01*
X125750431Y-117167702D01*
X125661354Y-116962840D01*
X125587745Y-116849058D01*
X125542822Y-116779617D01*
X125542820Y-116779614D01*
X125540014Y-116775277D01*
X125389670Y-116610051D01*
X125385619Y-116606852D01*
X125385615Y-116606848D01*
X125218414Y-116474800D01*
X125218410Y-116474798D01*
X125214359Y-116471598D01*
X125173053Y-116448796D01*
X125123084Y-116398364D01*
X125108312Y-116328921D01*
X125133428Y-116262516D01*
X125160780Y-116235909D01*
X125218704Y-116194592D01*
X125339860Y-116108173D01*
X125365499Y-116082624D01*
X125470872Y-115977618D01*
X125498096Y-115950489D01*
X125555222Y-115870990D01*
X125625435Y-115773277D01*
X125628453Y-115769077D01*
X125658765Y-115707746D01*
X125725136Y-115573453D01*
X125725137Y-115573451D01*
X125727430Y-115568811D01*
X125792370Y-115355069D01*
X125821529Y-115133590D01*
X125821733Y-115125240D01*
X125823074Y-115070365D01*
X125823074Y-115070361D01*
X125823156Y-115067000D01*
X125804852Y-114844361D01*
X125750431Y-114627702D01*
X125661354Y-114422840D01*
X125540014Y-114235277D01*
X125389670Y-114070051D01*
X125385619Y-114066852D01*
X125385615Y-114066848D01*
X125218414Y-113934800D01*
X125218410Y-113934798D01*
X125214359Y-113931598D01*
X125172569Y-113908529D01*
X125122598Y-113858097D01*
X125107826Y-113788654D01*
X125132942Y-113722248D01*
X125160294Y-113695641D01*
X125335328Y-113570792D01*
X125343200Y-113564139D01*
X125494052Y-113413812D01*
X125500730Y-113405965D01*
X125625003Y-113233020D01*
X125630313Y-113224183D01*
X125724670Y-113033267D01*
X125728469Y-113023672D01*
X125790377Y-112819910D01*
X125792555Y-112809837D01*
X125793986Y-112798962D01*
X125791775Y-112784778D01*
X125778617Y-112781000D01*
X123143225Y-112781000D01*
X123129694Y-112784973D01*
X123128257Y-112794966D01*
X123158565Y-112929446D01*
X123161645Y-112939276D01*
X123165433Y-112948605D01*
X123172530Y-113019246D01*
X123140310Y-113082510D01*
X123079001Y-113118311D01*
X123048691Y-113122011D01*
X108088560Y-113122011D01*
X108020439Y-113102009D01*
X107973946Y-113048353D01*
X107963842Y-112978079D01*
X107968002Y-112959382D01*
X108010377Y-112819910D01*
X108012555Y-112809837D01*
X108013986Y-112798962D01*
X108011775Y-112784778D01*
X107998617Y-112781000D01*
X105363225Y-112781000D01*
X105349694Y-112784973D01*
X105348257Y-112794966D01*
X105378565Y-112929446D01*
X105381645Y-112939276D01*
X105385433Y-112948605D01*
X105392530Y-113019246D01*
X105360310Y-113082510D01*
X105299001Y-113118311D01*
X105268691Y-113122011D01*
X93686000Y-113122011D01*
X93617879Y-113102009D01*
X93571386Y-113048353D01*
X93560000Y-112996011D01*
X93560000Y-112794115D01*
X93555525Y-112778876D01*
X93554135Y-112777671D01*
X93546452Y-112776000D01*
X90862116Y-112776000D01*
X90846877Y-112780475D01*
X90845672Y-112781865D01*
X90844001Y-112789548D01*
X90844001Y-112996011D01*
X90823999Y-113064132D01*
X90770343Y-113110625D01*
X90718001Y-113122011D01*
X75906000Y-113122011D01*
X75837879Y-113102009D01*
X75791386Y-113048353D01*
X75780000Y-112996011D01*
X75780000Y-112794115D01*
X75775525Y-112778876D01*
X75774135Y-112777671D01*
X75766452Y-112776000D01*
X73082116Y-112776000D01*
X73066877Y-112780475D01*
X73065672Y-112781865D01*
X73064001Y-112789548D01*
X73064001Y-113416669D01*
X73064371Y-113423490D01*
X73069895Y-113474352D01*
X73073521Y-113489604D01*
X73118676Y-113610054D01*
X73127214Y-113625649D01*
X73203715Y-113727724D01*
X73216276Y-113740285D01*
X73318351Y-113816786D01*
X73333946Y-113825324D01*
X73442827Y-113866142D01*
X73499591Y-113908784D01*
X73524291Y-113975345D01*
X73509083Y-114044694D01*
X73489691Y-114071175D01*
X73487116Y-114073870D01*
X73362629Y-114204138D01*
X73236743Y-114388680D01*
X73222905Y-114418492D01*
X73145194Y-114585907D01*
X73142688Y-114591305D01*
X73082989Y-114806570D01*
X73059251Y-115028695D01*
X73059548Y-115033848D01*
X73059548Y-115033851D01*
X73070802Y-115229031D01*
X73072110Y-115251715D01*
X73073247Y-115256761D01*
X73073248Y-115256767D01*
X73089208Y-115327585D01*
X73121222Y-115469639D01*
X73182673Y-115620976D01*
X73199336Y-115662011D01*
X73205266Y-115676616D01*
X73238772Y-115731293D01*
X73300874Y-115832634D01*
X73321987Y-115867088D01*
X73468250Y-116035938D01*
X73640126Y-116178632D01*
X73702248Y-116214933D01*
X73713445Y-116221476D01*
X73762169Y-116273114D01*
X73775240Y-116342897D01*
X73748509Y-116408669D01*
X73708055Y-116442027D01*
X73695607Y-116448507D01*
X73691474Y-116451610D01*
X73691471Y-116451612D01*
X73567600Y-116544617D01*
X73516965Y-116582635D01*
X73490766Y-116610051D01*
X73372351Y-116733965D01*
X73362629Y-116744138D01*
X73359715Y-116748410D01*
X73359714Y-116748411D01*
X73283464Y-116860189D01*
X73236743Y-116928680D01*
X73222905Y-116958492D01*
X73149528Y-117116570D01*
X73142688Y-117131305D01*
X73082989Y-117346570D01*
X73059251Y-117568695D01*
X63647195Y-117568695D01*
X63715961Y-117421225D01*
X63715961Y-117421224D01*
X63718284Y-117416243D01*
X63729512Y-117374342D01*
X63776119Y-117200402D01*
X63776119Y-117200400D01*
X63777543Y-117195087D01*
X63797498Y-116967000D01*
X63777543Y-116738913D01*
X63768896Y-116706643D01*
X63719707Y-116523067D01*
X63719706Y-116523065D01*
X63718284Y-116517757D01*
X63698253Y-116474800D01*
X63623849Y-116315238D01*
X63623846Y-116315233D01*
X63621523Y-116310251D01*
X63548098Y-116205389D01*
X63493357Y-116127211D01*
X63493355Y-116127208D01*
X63490198Y-116122700D01*
X63328300Y-115960802D01*
X63323792Y-115957645D01*
X63323789Y-115957643D01*
X63200275Y-115871158D01*
X63140749Y-115829477D01*
X63135767Y-115827154D01*
X63135762Y-115827151D01*
X62938225Y-115735039D01*
X62938224Y-115735039D01*
X62933243Y-115732716D01*
X62927935Y-115731294D01*
X62927933Y-115731293D01*
X62717402Y-115674881D01*
X62717400Y-115674881D01*
X62712087Y-115673457D01*
X62484000Y-115653502D01*
X62255913Y-115673457D01*
X62250600Y-115674881D01*
X62250598Y-115674881D01*
X62040067Y-115731293D01*
X62040065Y-115731294D01*
X62034757Y-115732716D01*
X62029776Y-115735039D01*
X62029775Y-115735039D01*
X61832238Y-115827151D01*
X61832233Y-115827154D01*
X61827251Y-115829477D01*
X61767725Y-115871158D01*
X61644211Y-115957643D01*
X61644208Y-115957645D01*
X61639700Y-115960802D01*
X61477802Y-116122700D01*
X61474645Y-116127208D01*
X61474643Y-116127211D01*
X61419902Y-116205389D01*
X61346477Y-116310251D01*
X61344154Y-116315233D01*
X61344151Y-116315238D01*
X61269747Y-116474800D01*
X61249716Y-116517757D01*
X61248294Y-116523065D01*
X61248293Y-116523067D01*
X61199104Y-116706643D01*
X61190457Y-116738913D01*
X61170502Y-116967000D01*
X54577146Y-116967000D01*
X54583748Y-116966277D01*
X54583754Y-116966276D01*
X54588401Y-116965767D01*
X54599519Y-116962840D01*
X54694341Y-116937875D01*
X54841112Y-116899233D01*
X55081214Y-116796078D01*
X55085194Y-116793615D01*
X55085198Y-116793613D01*
X55299457Y-116661025D01*
X55299461Y-116661022D01*
X55303430Y-116658566D01*
X55475645Y-116512775D01*
X55499314Y-116492738D01*
X55499315Y-116492737D01*
X55502880Y-116489719D01*
X55591310Y-116388884D01*
X55672100Y-116296761D01*
X55672103Y-116296756D01*
X55675182Y-116293246D01*
X55686729Y-116275295D01*
X55789604Y-116115357D01*
X55816551Y-116073463D01*
X55923881Y-115835199D01*
X55941345Y-115773277D01*
X55993545Y-115588192D01*
X55993546Y-115588189D01*
X55994815Y-115583688D01*
X56009324Y-115469639D01*
X56027396Y-115327585D01*
X56027396Y-115327579D01*
X56027794Y-115324454D01*
X56030210Y-115232180D01*
X56017564Y-115062000D01*
X56011190Y-114976228D01*
X56011189Y-114976224D01*
X56010844Y-114971576D01*
X56001590Y-114930677D01*
X55956299Y-114730526D01*
X55953170Y-114716697D01*
X55946486Y-114699508D01*
X55860150Y-114477495D01*
X55860149Y-114477493D01*
X55858457Y-114473142D01*
X55728784Y-114246261D01*
X55567001Y-114041040D01*
X55392562Y-113876944D01*
X55380062Y-113865185D01*
X55380059Y-113865183D01*
X55376661Y-113861986D01*
X55255313Y-113777804D01*
X55165782Y-113715694D01*
X55165781Y-113715693D01*
X55161946Y-113713033D01*
X55120699Y-113692692D01*
X54931761Y-113599518D01*
X54931758Y-113599517D01*
X54927573Y-113597453D01*
X54881432Y-113582683D01*
X54823500Y-113564139D01*
X54678690Y-113517785D01*
X54674083Y-113517035D01*
X54674080Y-113517034D01*
X54470612Y-113483897D01*
X54420765Y-113475779D01*
X54294080Y-113474121D01*
X54164142Y-113472420D01*
X54164139Y-113472420D01*
X54159465Y-113472359D01*
X53900529Y-113507598D01*
X53896039Y-113508907D01*
X53896033Y-113508908D01*
X53789355Y-113540002D01*
X53649646Y-113580724D01*
X53645399Y-113582682D01*
X53645396Y-113582683D01*
X53608878Y-113599518D01*
X53412327Y-113690129D01*
X53377393Y-113713033D01*
X53197700Y-113830845D01*
X53197695Y-113830848D01*
X53193787Y-113833411D01*
X52998825Y-114007421D01*
X52831725Y-114208337D01*
X52829302Y-114212330D01*
X52719256Y-114393680D01*
X52696157Y-114431745D01*
X52694348Y-114436059D01*
X52694346Y-114436063D01*
X52634107Y-114579717D01*
X52595101Y-114672737D01*
X52530776Y-114926019D01*
X52504594Y-115186027D01*
X52504818Y-115190693D01*
X52504818Y-115190698D01*
X52507501Y-115246547D01*
X52517132Y-115447049D01*
X52568114Y-115703351D01*
X52656419Y-115949301D01*
X52658636Y-115953427D01*
X52662985Y-115961521D01*
X52677608Y-116030995D01*
X52652350Y-116097347D01*
X52595228Y-116139509D01*
X52524380Y-116144096D01*
X52496265Y-116134165D01*
X52429861Y-116101418D01*
X52429858Y-116101417D01*
X52425673Y-116099353D01*
X52419407Y-116097347D01*
X52289598Y-116055795D01*
X52176790Y-116019685D01*
X52172183Y-116018935D01*
X52172180Y-116018934D01*
X51923476Y-115978430D01*
X51923477Y-115978430D01*
X51918865Y-115977679D01*
X51792180Y-115976021D01*
X51662242Y-115974320D01*
X51662239Y-115974320D01*
X51657565Y-115974259D01*
X51398629Y-116009498D01*
X51394139Y-116010807D01*
X51394133Y-116010808D01*
X51324876Y-116030995D01*
X51147746Y-116082624D01*
X51143499Y-116084582D01*
X51143496Y-116084583D01*
X51085822Y-116111171D01*
X50910427Y-116192029D01*
X50906518Y-116194592D01*
X50695800Y-116332745D01*
X50695795Y-116332748D01*
X50691887Y-116335311D01*
X50626236Y-116393907D01*
X50515505Y-116492738D01*
X50496925Y-116509321D01*
X50329825Y-116710237D01*
X50327402Y-116714230D01*
X50216731Y-116896610D01*
X50194257Y-116933645D01*
X50192448Y-116937959D01*
X50192446Y-116937963D01*
X50111246Y-117131605D01*
X50093201Y-117174637D01*
X50028876Y-117427919D01*
X50002694Y-117687927D01*
X39532500Y-117687927D01*
X39532500Y-116535394D01*
X40061800Y-116535394D01*
X40068555Y-116597576D01*
X40119685Y-116733965D01*
X40207039Y-116850521D01*
X40323595Y-116937875D01*
X40459984Y-116989005D01*
X40522166Y-116995760D01*
X44618434Y-116995760D01*
X44680616Y-116989005D01*
X44817005Y-116937875D01*
X44933561Y-116850521D01*
X45020915Y-116733965D01*
X45072045Y-116597576D01*
X45078800Y-116535394D01*
X45078800Y-113939126D01*
X45072045Y-113876944D01*
X45020915Y-113740555D01*
X44933561Y-113623999D01*
X44817005Y-113536645D01*
X44680616Y-113485515D01*
X44618434Y-113478760D01*
X40522166Y-113478760D01*
X40459984Y-113485515D01*
X40323595Y-113536645D01*
X40207039Y-113623999D01*
X40119685Y-113740555D01*
X40068555Y-113876944D01*
X40061800Y-113939126D01*
X40061800Y-116535394D01*
X39532500Y-116535394D01*
X39532500Y-111644904D01*
X50723581Y-111644904D01*
X50732294Y-111656424D01*
X50829929Y-111728012D01*
X50837839Y-111732955D01*
X51060758Y-111850238D01*
X51069321Y-111853961D01*
X51307127Y-111937008D01*
X51316136Y-111939422D01*
X51563619Y-111986408D01*
X51572874Y-111987462D01*
X51824586Y-111997352D01*
X51833900Y-111997026D01*
X52084297Y-111969604D01*
X52093474Y-111967903D01*
X52337066Y-111903771D01*
X52345885Y-111900734D01*
X52577332Y-111801296D01*
X52585591Y-111796997D01*
X52799808Y-111664436D01*
X52806707Y-111659424D01*
X52815031Y-111646792D01*
X52808967Y-111636437D01*
X51780552Y-110608022D01*
X51766608Y-110600408D01*
X51764775Y-110600539D01*
X51758160Y-110604790D01*
X50730239Y-111632711D01*
X50723581Y-111644904D01*
X39532500Y-111644904D01*
X39532500Y-110194532D01*
X50005959Y-110194532D01*
X50018045Y-110446136D01*
X50019182Y-110455396D01*
X50068325Y-110702457D01*
X50070814Y-110711432D01*
X50155936Y-110948514D01*
X50159733Y-110957042D01*
X50278957Y-111178928D01*
X50283968Y-111186795D01*
X50347415Y-111271761D01*
X50358673Y-111280210D01*
X50371092Y-111273438D01*
X51395718Y-110248812D01*
X51403332Y-110234868D01*
X51403201Y-110233035D01*
X51398950Y-110226420D01*
X50369289Y-109196759D01*
X50355981Y-109189492D01*
X50345942Y-109196614D01*
X50335762Y-109208854D01*
X50330350Y-109216441D01*
X50199666Y-109431800D01*
X50195437Y-109440101D01*
X50098025Y-109672401D01*
X50095064Y-109681251D01*
X50033062Y-109925387D01*
X50031440Y-109934584D01*
X50006204Y-110185206D01*
X50005959Y-110194532D01*
X39532500Y-110194532D01*
X39532500Y-106532874D01*
X40061800Y-106532874D01*
X40068555Y-106595056D01*
X40119685Y-106731445D01*
X40207039Y-106848001D01*
X40323595Y-106935355D01*
X40459984Y-106986485D01*
X40522166Y-106993240D01*
X44618434Y-106993240D01*
X44680616Y-106986485D01*
X44817005Y-106935355D01*
X44933561Y-106848001D01*
X45020915Y-106731445D01*
X45072045Y-106595056D01*
X45078800Y-106532874D01*
X45078800Y-103936606D01*
X45072045Y-103874424D01*
X45020915Y-103738035D01*
X44933561Y-103621479D01*
X44883806Y-103584190D01*
X47855748Y-103584190D01*
X47856093Y-103590777D01*
X47856093Y-103590782D01*
X47859327Y-103652480D01*
X47859500Y-103659074D01*
X47859500Y-103679610D01*
X47859844Y-103682882D01*
X47859844Y-103682884D01*
X47861647Y-103700042D01*
X47862164Y-103706616D01*
X47864360Y-103748507D01*
X47865743Y-103774903D01*
X47867453Y-103781284D01*
X47867453Y-103781286D01*
X47869383Y-103788491D01*
X47872985Y-103807925D01*
X47873766Y-103815354D01*
X47873768Y-103815363D01*
X47874458Y-103821928D01*
X47895600Y-103886997D01*
X47897467Y-103893299D01*
X47915171Y-103959370D01*
X47921559Y-103971907D01*
X47929125Y-103990173D01*
X47933473Y-104003556D01*
X47936776Y-104009278D01*
X47936777Y-104009279D01*
X47967667Y-104062782D01*
X47970814Y-104068577D01*
X48001871Y-104129530D01*
X48006024Y-104134658D01*
X48006025Y-104134660D01*
X48010727Y-104140466D01*
X48021927Y-104156763D01*
X48025657Y-104163224D01*
X48025660Y-104163228D01*
X48028960Y-104168944D01*
X48033377Y-104173850D01*
X48033381Y-104173855D01*
X48074722Y-104219769D01*
X48079006Y-104224784D01*
X48091928Y-104240741D01*
X48106443Y-104255256D01*
X48110984Y-104260041D01*
X48156747Y-104310866D01*
X48162086Y-104314745D01*
X48162087Y-104314746D01*
X48168135Y-104319140D01*
X48183168Y-104331981D01*
X52134776Y-108283589D01*
X52168802Y-108345901D01*
X52163737Y-108416716D01*
X52121190Y-108473552D01*
X52054670Y-108498363D01*
X52025428Y-108497046D01*
X51925974Y-108480849D01*
X51916685Y-108480037D01*
X51664812Y-108476740D01*
X51655500Y-108477310D01*
X51405903Y-108511278D01*
X51396785Y-108513216D01*
X51154960Y-108583702D01*
X51146207Y-108586974D01*
X50917456Y-108692430D01*
X50909301Y-108696950D01*
X50730325Y-108814292D01*
X50721187Y-108825034D01*
X50725760Y-108834810D01*
X53167422Y-111276472D01*
X53179802Y-111283232D01*
X53188143Y-111276988D01*
X53314223Y-111080975D01*
X53318670Y-111072783D01*
X53422128Y-110843116D01*
X53425323Y-110834338D01*
X53493695Y-110591906D01*
X53495553Y-110582777D01*
X53527535Y-110331378D01*
X53528016Y-110325092D01*
X53530266Y-110239160D01*
X53530115Y-110232851D01*
X53510988Y-109975470D01*
X53512483Y-109975359D01*
X53521302Y-109911503D01*
X53567496Y-109857590D01*
X53635505Y-109837210D01*
X53703736Y-109856833D01*
X53725300Y-109874113D01*
X53783019Y-109931832D01*
X53795860Y-109946865D01*
X53804134Y-109958253D01*
X53809043Y-109962673D01*
X53854959Y-110004016D01*
X53859744Y-110008557D01*
X53874259Y-110023072D01*
X53876823Y-110025148D01*
X53890216Y-110035994D01*
X53895231Y-110040278D01*
X53941145Y-110081619D01*
X53941150Y-110081623D01*
X53946056Y-110086040D01*
X53951772Y-110089340D01*
X53951776Y-110089343D01*
X53958237Y-110093073D01*
X53974533Y-110104273D01*
X53985470Y-110113129D01*
X53991348Y-110116124D01*
X53991351Y-110116126D01*
X54046426Y-110144188D01*
X54052223Y-110147336D01*
X54085498Y-110166547D01*
X54111444Y-110181527D01*
X54124826Y-110185875D01*
X54143085Y-110193438D01*
X54155630Y-110199830D01*
X54162000Y-110201537D01*
X54162003Y-110201538D01*
X54201074Y-110212007D01*
X54221712Y-110217537D01*
X54228025Y-110219407D01*
X54263803Y-110231032D01*
X54269968Y-110233035D01*
X54293072Y-110240542D01*
X54307075Y-110242014D01*
X54326504Y-110245615D01*
X54340097Y-110249257D01*
X54346694Y-110249603D01*
X54346696Y-110249603D01*
X54408384Y-110252836D01*
X54414958Y-110253353D01*
X54432116Y-110255156D01*
X54432118Y-110255156D01*
X54435390Y-110255500D01*
X54455926Y-110255500D01*
X54462520Y-110255673D01*
X54524218Y-110258907D01*
X54524223Y-110258907D01*
X54530810Y-110259252D01*
X54537326Y-110258220D01*
X54537327Y-110258220D01*
X54544707Y-110257051D01*
X54564417Y-110255500D01*
X61489812Y-110255500D01*
X61557933Y-110275502D01*
X61578907Y-110292405D01*
X61639700Y-110353198D01*
X61644208Y-110356355D01*
X61644211Y-110356357D01*
X61691743Y-110389639D01*
X61827251Y-110484523D01*
X61832233Y-110486846D01*
X61832238Y-110486849D01*
X61993421Y-110562009D01*
X62034757Y-110581284D01*
X62040065Y-110582706D01*
X62040067Y-110582707D01*
X62250598Y-110639119D01*
X62250600Y-110639119D01*
X62255913Y-110640543D01*
X62484000Y-110660498D01*
X62712087Y-110640543D01*
X62717400Y-110639119D01*
X62717402Y-110639119D01*
X62927933Y-110582707D01*
X62927935Y-110582706D01*
X62933243Y-110581284D01*
X62974579Y-110562009D01*
X63135762Y-110486849D01*
X63135767Y-110486846D01*
X63140749Y-110484523D01*
X63276257Y-110389639D01*
X63323789Y-110356357D01*
X63323792Y-110356355D01*
X63328300Y-110353198D01*
X63490198Y-110191300D01*
X63493998Y-110185874D01*
X63566998Y-110081619D01*
X63621523Y-110003749D01*
X63623846Y-109998767D01*
X63623849Y-109998762D01*
X63647195Y-109948695D01*
X73059251Y-109948695D01*
X73059548Y-109953848D01*
X73059548Y-109953851D01*
X73068732Y-110113129D01*
X73072110Y-110171715D01*
X73073247Y-110176761D01*
X73073248Y-110176767D01*
X73093119Y-110264939D01*
X73121222Y-110389639D01*
X73182673Y-110540976D01*
X73199647Y-110582777D01*
X73205266Y-110596616D01*
X73321987Y-110787088D01*
X73468250Y-110955938D01*
X73472225Y-110959238D01*
X73472231Y-110959244D01*
X73477425Y-110963556D01*
X73517059Y-111022460D01*
X73518555Y-111093441D01*
X73481439Y-111153962D01*
X73441168Y-111178480D01*
X73333946Y-111218676D01*
X73318351Y-111227214D01*
X73216276Y-111303715D01*
X73203715Y-111316276D01*
X73127214Y-111418351D01*
X73118676Y-111433946D01*
X73073522Y-111554394D01*
X73069895Y-111569649D01*
X73064369Y-111620514D01*
X73064000Y-111627328D01*
X73064000Y-112249885D01*
X73068475Y-112265124D01*
X73069865Y-112266329D01*
X73077548Y-112268000D01*
X75761884Y-112268000D01*
X75777123Y-112263525D01*
X75778328Y-112262135D01*
X75779999Y-112254452D01*
X75779999Y-111925011D01*
X75800001Y-111856890D01*
X75853657Y-111810397D01*
X75905999Y-111799011D01*
X90718000Y-111799011D01*
X90786121Y-111819013D01*
X90832614Y-111872669D01*
X90844000Y-111925011D01*
X90844000Y-112249885D01*
X90848475Y-112265124D01*
X90849865Y-112266329D01*
X90857548Y-112268000D01*
X93541884Y-112268000D01*
X93557123Y-112263525D01*
X93558328Y-112262135D01*
X93559999Y-112254452D01*
X93559999Y-111925011D01*
X93580001Y-111856890D01*
X93633657Y-111810397D01*
X93685999Y-111799011D01*
X105323271Y-111799011D01*
X105391392Y-111819013D01*
X105437885Y-111872669D01*
X105447989Y-111942943D01*
X105437559Y-111978062D01*
X105403337Y-112051788D01*
X105399775Y-112061470D01*
X105344389Y-112261183D01*
X105345912Y-112269607D01*
X105358292Y-112273000D01*
X107998344Y-112273000D01*
X108011875Y-112269027D01*
X108013180Y-112259947D01*
X107971214Y-112092875D01*
X107967894Y-112083124D01*
X107920991Y-111975253D01*
X107912171Y-111904807D01*
X107942838Y-111840775D01*
X108003255Y-111803487D01*
X108036541Y-111799011D01*
X123103271Y-111799011D01*
X123171392Y-111819013D01*
X123217885Y-111872669D01*
X123227989Y-111942943D01*
X123217559Y-111978062D01*
X123183337Y-112051788D01*
X123179775Y-112061470D01*
X123124389Y-112261183D01*
X123125912Y-112269607D01*
X123138292Y-112273000D01*
X125778344Y-112273000D01*
X125791875Y-112269027D01*
X125793180Y-112259947D01*
X125751214Y-112092875D01*
X125747894Y-112083124D01*
X125662972Y-111887814D01*
X125658105Y-111878739D01*
X125542426Y-111699926D01*
X125536136Y-111691757D01*
X125392806Y-111534240D01*
X125385273Y-111527215D01*
X125218139Y-111395222D01*
X125209556Y-111389520D01*
X125172602Y-111369120D01*
X125122631Y-111318687D01*
X125107859Y-111249245D01*
X125132975Y-111182839D01*
X125160327Y-111156232D01*
X125183797Y-111139491D01*
X125339860Y-111028173D01*
X125498096Y-110870489D01*
X125517766Y-110843116D01*
X125625435Y-110693277D01*
X125628453Y-110689077D01*
X125642815Y-110660019D01*
X125725136Y-110493453D01*
X125725137Y-110493451D01*
X125727430Y-110488811D01*
X125792370Y-110275069D01*
X125821529Y-110053590D01*
X125822637Y-110008257D01*
X125823074Y-109990365D01*
X125823074Y-109990361D01*
X125823156Y-109987000D01*
X125804852Y-109764361D01*
X125750431Y-109547702D01*
X125661354Y-109342840D01*
X125540014Y-109155277D01*
X125389670Y-108990051D01*
X125385619Y-108986852D01*
X125385615Y-108986848D01*
X125218414Y-108854800D01*
X125218410Y-108854798D01*
X125214359Y-108851598D01*
X125173053Y-108828796D01*
X125123084Y-108778364D01*
X125108312Y-108708921D01*
X125133428Y-108642516D01*
X125160780Y-108615909D01*
X125237420Y-108561242D01*
X125339860Y-108488173D01*
X125348025Y-108480037D01*
X125494435Y-108334137D01*
X125498096Y-108330489D01*
X125555222Y-108250990D01*
X125625435Y-108153277D01*
X125628453Y-108149077D01*
X125675008Y-108054881D01*
X125725136Y-107953453D01*
X125725137Y-107953451D01*
X125727430Y-107948811D01*
X125792370Y-107735069D01*
X125821529Y-107513590D01*
X125823156Y-107447000D01*
X125804852Y-107224361D01*
X125750431Y-107007702D01*
X125661354Y-106802840D01*
X125617481Y-106735022D01*
X125542822Y-106619617D01*
X125542820Y-106619614D01*
X125540014Y-106615277D01*
X125389670Y-106450051D01*
X125385619Y-106446852D01*
X125385615Y-106446848D01*
X125218414Y-106314800D01*
X125218410Y-106314798D01*
X125214359Y-106311598D01*
X125173053Y-106288796D01*
X125123084Y-106238364D01*
X125108312Y-106168921D01*
X125133428Y-106102516D01*
X125160780Y-106075909D01*
X125237420Y-106021242D01*
X125339860Y-105948173D01*
X125498096Y-105790489D01*
X125555222Y-105710990D01*
X125625435Y-105613277D01*
X125628453Y-105609077D01*
X125639518Y-105586690D01*
X125725136Y-105413453D01*
X125725138Y-105413448D01*
X125727430Y-105408811D01*
X125766612Y-105279849D01*
X125790865Y-105200023D01*
X125790865Y-105200021D01*
X125792370Y-105195069D01*
X125821529Y-104973590D01*
X125823156Y-104907000D01*
X125804852Y-104684361D01*
X125750431Y-104467702D01*
X125661354Y-104262840D01*
X125600610Y-104168944D01*
X125542822Y-104079617D01*
X125542820Y-104079614D01*
X125540014Y-104075277D01*
X125389670Y-103910051D01*
X125385619Y-103906852D01*
X125385615Y-103906848D01*
X125218414Y-103774800D01*
X125218410Y-103774798D01*
X125214359Y-103771598D01*
X125173053Y-103748796D01*
X125123084Y-103698364D01*
X125108312Y-103628921D01*
X125133428Y-103562516D01*
X125160780Y-103535909D01*
X125204603Y-103504650D01*
X125339860Y-103408173D01*
X125498096Y-103250489D01*
X125555222Y-103170990D01*
X125625435Y-103073277D01*
X125628453Y-103069077D01*
X125659809Y-103005634D01*
X125725136Y-102873453D01*
X125725137Y-102873451D01*
X125727430Y-102868811D01*
X125792370Y-102655069D01*
X125821529Y-102433590D01*
X125823156Y-102367000D01*
X125804852Y-102144361D01*
X125750431Y-101927702D01*
X125661354Y-101722840D01*
X125547456Y-101546780D01*
X125542822Y-101539617D01*
X125542820Y-101539614D01*
X125540014Y-101535277D01*
X125389670Y-101370051D01*
X125385619Y-101366852D01*
X125385615Y-101366848D01*
X125218414Y-101234800D01*
X125218410Y-101234798D01*
X125214359Y-101231598D01*
X125205302Y-101226598D01*
X125172569Y-101208529D01*
X125122598Y-101158097D01*
X125107826Y-101088654D01*
X125132942Y-101022248D01*
X125160294Y-100995641D01*
X125335328Y-100870792D01*
X125343200Y-100864139D01*
X125494052Y-100713812D01*
X125500730Y-100705965D01*
X125625003Y-100533020D01*
X125630313Y-100524183D01*
X125724670Y-100333267D01*
X125728469Y-100323672D01*
X125790377Y-100119910D01*
X125792555Y-100109837D01*
X125793986Y-100098962D01*
X125791775Y-100084778D01*
X125778617Y-100081000D01*
X123143225Y-100081000D01*
X123129694Y-100084973D01*
X123128257Y-100094966D01*
X123158565Y-100229446D01*
X123161645Y-100239275D01*
X123241770Y-100436603D01*
X123246413Y-100445794D01*
X123357694Y-100627388D01*
X123363777Y-100635699D01*
X123503213Y-100796667D01*
X123510580Y-100803883D01*
X123674434Y-100939916D01*
X123682881Y-100945831D01*
X123751969Y-100986203D01*
X123800693Y-101037842D01*
X123813764Y-101107625D01*
X123787033Y-101173396D01*
X123746584Y-101206752D01*
X123733607Y-101213507D01*
X123729474Y-101216610D01*
X123729471Y-101216612D01*
X123562113Y-101342268D01*
X123554965Y-101347635D01*
X123400629Y-101509138D01*
X123397715Y-101513410D01*
X123397714Y-101513411D01*
X123386209Y-101530277D01*
X123274743Y-101693680D01*
X123180688Y-101896305D01*
X123120989Y-102111570D01*
X123097251Y-102333695D01*
X123097548Y-102338848D01*
X123097548Y-102338851D01*
X123102905Y-102431759D01*
X123110110Y-102556715D01*
X123111247Y-102561762D01*
X123111248Y-102561766D01*
X123126492Y-102629408D01*
X123141599Y-102696438D01*
X123149956Y-102733521D01*
X123145420Y-102804372D01*
X123116134Y-102850317D01*
X123041345Y-102925106D01*
X122979033Y-102959132D01*
X122952250Y-102962011D01*
X108089082Y-102962011D01*
X108020961Y-102942009D01*
X107974468Y-102888353D01*
X107964364Y-102818079D01*
X107968524Y-102799382D01*
X107969000Y-102797817D01*
X108012370Y-102655069D01*
X108041529Y-102433590D01*
X108043156Y-102367000D01*
X108024852Y-102144361D01*
X107970431Y-101927702D01*
X107881354Y-101722840D01*
X107767456Y-101546780D01*
X107762822Y-101539617D01*
X107762820Y-101539614D01*
X107760014Y-101535277D01*
X107609670Y-101370051D01*
X107605619Y-101366852D01*
X107605615Y-101366848D01*
X107438414Y-101234800D01*
X107438410Y-101234798D01*
X107434359Y-101231598D01*
X107425302Y-101226598D01*
X107392569Y-101208529D01*
X107342598Y-101158097D01*
X107327826Y-101088654D01*
X107352942Y-101022248D01*
X107380294Y-100995641D01*
X107555328Y-100870792D01*
X107563200Y-100864139D01*
X107714052Y-100713812D01*
X107720730Y-100705965D01*
X107845003Y-100533020D01*
X107850313Y-100524183D01*
X107944670Y-100333267D01*
X107948469Y-100323672D01*
X108010377Y-100119910D01*
X108012555Y-100109837D01*
X108013986Y-100098962D01*
X108011775Y-100084778D01*
X107998617Y-100081000D01*
X105363225Y-100081000D01*
X105349694Y-100084973D01*
X105348257Y-100094966D01*
X105378565Y-100229446D01*
X105381645Y-100239275D01*
X105461770Y-100436603D01*
X105466413Y-100445794D01*
X105577694Y-100627388D01*
X105583777Y-100635699D01*
X105723213Y-100796667D01*
X105730580Y-100803883D01*
X105894434Y-100939916D01*
X105902881Y-100945831D01*
X105971969Y-100986203D01*
X106020693Y-101037842D01*
X106033764Y-101107625D01*
X106007033Y-101173396D01*
X105966584Y-101206752D01*
X105953607Y-101213507D01*
X105949474Y-101216610D01*
X105949471Y-101216612D01*
X105782113Y-101342268D01*
X105774965Y-101347635D01*
X105620629Y-101509138D01*
X105617715Y-101513410D01*
X105617714Y-101513411D01*
X105606209Y-101530277D01*
X105494743Y-101693680D01*
X105400688Y-101896305D01*
X105340989Y-102111570D01*
X105317251Y-102333695D01*
X105317548Y-102338848D01*
X105317548Y-102338851D01*
X105322905Y-102431759D01*
X105330110Y-102556715D01*
X105331247Y-102561761D01*
X105331248Y-102561767D01*
X105352265Y-102655022D01*
X105379222Y-102774639D01*
X105381165Y-102779425D01*
X105381166Y-102779427D01*
X105384893Y-102788605D01*
X105391990Y-102859246D01*
X105359769Y-102922510D01*
X105298460Y-102958311D01*
X105268151Y-102962011D01*
X93609563Y-102962011D01*
X93541442Y-102942009D01*
X93494949Y-102888353D01*
X93484845Y-102818079D01*
X93489005Y-102799382D01*
X93489481Y-102797817D01*
X93534370Y-102650069D01*
X93563529Y-102428590D01*
X93565156Y-102362000D01*
X93546852Y-102139361D01*
X93492431Y-101922702D01*
X93403354Y-101717840D01*
X93295063Y-101550448D01*
X93284822Y-101534617D01*
X93284820Y-101534614D01*
X93282014Y-101530277D01*
X93278540Y-101526459D01*
X93278533Y-101526450D01*
X93134435Y-101368088D01*
X93103383Y-101304242D01*
X93111779Y-101233744D01*
X93156956Y-101178976D01*
X93183400Y-101165307D01*
X93290052Y-101125325D01*
X93305649Y-101116786D01*
X93407724Y-101040285D01*
X93420285Y-101027724D01*
X93496786Y-100925649D01*
X93505324Y-100910054D01*
X93550478Y-100789606D01*
X93554105Y-100774351D01*
X93559631Y-100723486D01*
X93560000Y-100716672D01*
X93560000Y-100094115D01*
X93555525Y-100078876D01*
X93554135Y-100077671D01*
X93546452Y-100076000D01*
X90862116Y-100076000D01*
X90846877Y-100080475D01*
X90845672Y-100081865D01*
X90844001Y-100089548D01*
X90844001Y-100716669D01*
X90844371Y-100723490D01*
X90849895Y-100774352D01*
X90853521Y-100789604D01*
X90898676Y-100910054D01*
X90907214Y-100925649D01*
X90983715Y-101027724D01*
X90996276Y-101040285D01*
X91098351Y-101116786D01*
X91113946Y-101125324D01*
X91222827Y-101166142D01*
X91279591Y-101208784D01*
X91304291Y-101275345D01*
X91289083Y-101344694D01*
X91269691Y-101371175D01*
X91267117Y-101373869D01*
X91142629Y-101504138D01*
X91139715Y-101508410D01*
X91139714Y-101508411D01*
X91111038Y-101550448D01*
X91016743Y-101688680D01*
X90922688Y-101891305D01*
X90862989Y-102106570D01*
X90839251Y-102328695D01*
X90839548Y-102333848D01*
X90839548Y-102333851D01*
X90845202Y-102431908D01*
X90852110Y-102551715D01*
X90853247Y-102556761D01*
X90853248Y-102556767D01*
X90854375Y-102561766D01*
X90901222Y-102769639D01*
X90906289Y-102782118D01*
X90908924Y-102788607D01*
X90916020Y-102859248D01*
X90883798Y-102922512D01*
X90822488Y-102958312D01*
X90792181Y-102962011D01*
X75934750Y-102962011D01*
X75866629Y-102942009D01*
X75845655Y-102925106D01*
X75764979Y-102844430D01*
X75730953Y-102782118D01*
X75733516Y-102718706D01*
X75752865Y-102655022D01*
X75754370Y-102650069D01*
X75783529Y-102428590D01*
X75785156Y-102362000D01*
X75766852Y-102139361D01*
X75712431Y-101922702D01*
X75623354Y-101717840D01*
X75515063Y-101550448D01*
X75504822Y-101534617D01*
X75504820Y-101534614D01*
X75502014Y-101530277D01*
X75498540Y-101526459D01*
X75498533Y-101526450D01*
X75354435Y-101368088D01*
X75323383Y-101304242D01*
X75331779Y-101233744D01*
X75376956Y-101178976D01*
X75403400Y-101165307D01*
X75510052Y-101125325D01*
X75525649Y-101116786D01*
X75627724Y-101040285D01*
X75640285Y-101027724D01*
X75716786Y-100925649D01*
X75725324Y-100910054D01*
X75770478Y-100789606D01*
X75774105Y-100774351D01*
X75779631Y-100723486D01*
X75780000Y-100716672D01*
X75780000Y-100094115D01*
X75775525Y-100078876D01*
X75774135Y-100077671D01*
X75766452Y-100076000D01*
X73082116Y-100076000D01*
X73066877Y-100080475D01*
X73065672Y-100081865D01*
X73064001Y-100089548D01*
X73064001Y-100716669D01*
X73064371Y-100723490D01*
X73069895Y-100774352D01*
X73073521Y-100789604D01*
X73118676Y-100910054D01*
X73127214Y-100925649D01*
X73203715Y-101027724D01*
X73216276Y-101040285D01*
X73318351Y-101116786D01*
X73333946Y-101125324D01*
X73442827Y-101166142D01*
X73499591Y-101208784D01*
X73524291Y-101275345D01*
X73509083Y-101344694D01*
X73489691Y-101371175D01*
X73487117Y-101373869D01*
X73362629Y-101504138D01*
X73359715Y-101508410D01*
X73359714Y-101508411D01*
X73331038Y-101550448D01*
X73236743Y-101688680D01*
X73142688Y-101891305D01*
X73082989Y-102106570D01*
X73059251Y-102328695D01*
X73059548Y-102333848D01*
X73059548Y-102333851D01*
X73065202Y-102431908D01*
X73072110Y-102551715D01*
X73073247Y-102556761D01*
X73073248Y-102556767D01*
X73074375Y-102561766D01*
X73121222Y-102769639D01*
X73175899Y-102904293D01*
X73199336Y-102962011D01*
X73205266Y-102976616D01*
X73207965Y-102981020D01*
X73299654Y-103130643D01*
X73321987Y-103167088D01*
X73468250Y-103335938D01*
X73640126Y-103478632D01*
X73701690Y-103514607D01*
X73713445Y-103521476D01*
X73762169Y-103573114D01*
X73775240Y-103642897D01*
X73748509Y-103708669D01*
X73708055Y-103742027D01*
X73695607Y-103748507D01*
X73691474Y-103751610D01*
X73691471Y-103751612D01*
X73527901Y-103874424D01*
X73516965Y-103882635D01*
X73362629Y-104044138D01*
X73359715Y-104048410D01*
X73359714Y-104048411D01*
X73293502Y-104145475D01*
X73236743Y-104228680D01*
X73223152Y-104257959D01*
X73155768Y-104403127D01*
X73142688Y-104431305D01*
X73082989Y-104646570D01*
X73059251Y-104868695D01*
X73059548Y-104873848D01*
X73059548Y-104873851D01*
X73066141Y-104988197D01*
X73072110Y-105091715D01*
X73073247Y-105096761D01*
X73073248Y-105096767D01*
X73074375Y-105101766D01*
X73121222Y-105309639D01*
X73205266Y-105516616D01*
X73321987Y-105707088D01*
X73468250Y-105875938D01*
X73640126Y-106018632D01*
X73656625Y-106028273D01*
X73713445Y-106061476D01*
X73762169Y-106113114D01*
X73775240Y-106182897D01*
X73748509Y-106248669D01*
X73708055Y-106282027D01*
X73695607Y-106288507D01*
X73691474Y-106291610D01*
X73691471Y-106291612D01*
X73521100Y-106419530D01*
X73516965Y-106422635D01*
X73362629Y-106584138D01*
X73236743Y-106768680D01*
X73200393Y-106846989D01*
X73148123Y-106959597D01*
X73142688Y-106971305D01*
X73082989Y-107186570D01*
X73059251Y-107408695D01*
X73059548Y-107413848D01*
X73059548Y-107413851D01*
X73065011Y-107508590D01*
X73072110Y-107631715D01*
X73073247Y-107636761D01*
X73073248Y-107636767D01*
X73074375Y-107641766D01*
X73121222Y-107849639D01*
X73182673Y-108000976D01*
X73199336Y-108042011D01*
X73205266Y-108056616D01*
X73207965Y-108061020D01*
X73300874Y-108212634D01*
X73321987Y-108247088D01*
X73468250Y-108415938D01*
X73640126Y-108558632D01*
X73688628Y-108586974D01*
X73713445Y-108601476D01*
X73762169Y-108653114D01*
X73775240Y-108722897D01*
X73748509Y-108788669D01*
X73708055Y-108822027D01*
X73702279Y-108825034D01*
X73695607Y-108828507D01*
X73691474Y-108831610D01*
X73691471Y-108831612D01*
X73596302Y-108903067D01*
X73516965Y-108962635D01*
X73362629Y-109124138D01*
X73359715Y-109128410D01*
X73359714Y-109128411D01*
X73313189Y-109196614D01*
X73236743Y-109308680D01*
X73222905Y-109338492D01*
X73177990Y-109435254D01*
X73142688Y-109511305D01*
X73082989Y-109726570D01*
X73059251Y-109948695D01*
X63647195Y-109948695D01*
X63715961Y-109801225D01*
X63715961Y-109801224D01*
X63718284Y-109796243D01*
X63729512Y-109754342D01*
X63776119Y-109580402D01*
X63776119Y-109580400D01*
X63777543Y-109575087D01*
X63797498Y-109347000D01*
X63777543Y-109118913D01*
X63718284Y-108897757D01*
X63688932Y-108834810D01*
X63623849Y-108695238D01*
X63623846Y-108695233D01*
X63621523Y-108690251D01*
X63527048Y-108555327D01*
X63493357Y-108507211D01*
X63493355Y-108507208D01*
X63490198Y-108502700D01*
X63328300Y-108340802D01*
X63323792Y-108337645D01*
X63323789Y-108337643D01*
X63245611Y-108282902D01*
X63140749Y-108209477D01*
X63135767Y-108207154D01*
X63135762Y-108207151D01*
X62938225Y-108115039D01*
X62938224Y-108115039D01*
X62933243Y-108112716D01*
X62927935Y-108111294D01*
X62927933Y-108111293D01*
X62717402Y-108054881D01*
X62717400Y-108054881D01*
X62712087Y-108053457D01*
X62484000Y-108033502D01*
X62255913Y-108053457D01*
X62250600Y-108054881D01*
X62250598Y-108054881D01*
X62040067Y-108111293D01*
X62040065Y-108111294D01*
X62034757Y-108112716D01*
X62029776Y-108115039D01*
X62029775Y-108115039D01*
X61832238Y-108207151D01*
X61832233Y-108207154D01*
X61827251Y-108209477D01*
X61722389Y-108282902D01*
X61644211Y-108337643D01*
X61644208Y-108337645D01*
X61639700Y-108340802D01*
X61578907Y-108401595D01*
X61516595Y-108435621D01*
X61489812Y-108438500D01*
X54911503Y-108438500D01*
X54843382Y-108418498D01*
X54822408Y-108401595D01*
X53513537Y-107092724D01*
X53479511Y-107030412D01*
X53484576Y-106959597D01*
X53527123Y-106902761D01*
X53593643Y-106877950D01*
X53644173Y-106884674D01*
X53806357Y-106941311D01*
X53806363Y-106941313D01*
X53810774Y-106942853D01*
X53815367Y-106943725D01*
X54062921Y-106990725D01*
X54062924Y-106990725D01*
X54067510Y-106991596D01*
X54198071Y-106996726D01*
X54323964Y-107001673D01*
X54323970Y-107001673D01*
X54328632Y-107001856D01*
X54420646Y-106991779D01*
X54583748Y-106973917D01*
X54583754Y-106973916D01*
X54588401Y-106973407D01*
X54640855Y-106959597D01*
X54704452Y-106942853D01*
X54841112Y-106906873D01*
X55081214Y-106803718D01*
X55085194Y-106801255D01*
X55085198Y-106801253D01*
X55299457Y-106668665D01*
X55299461Y-106668662D01*
X55303430Y-106666206D01*
X55502880Y-106497359D01*
X55665788Y-106311598D01*
X55672100Y-106304401D01*
X55672103Y-106304396D01*
X55675182Y-106300886D01*
X55683145Y-106288507D01*
X55814023Y-106085033D01*
X55816551Y-106081103D01*
X55923881Y-105842839D01*
X55925151Y-105838336D01*
X55993545Y-105595832D01*
X55993546Y-105595829D01*
X55994815Y-105591328D01*
X56017444Y-105413453D01*
X56027396Y-105335225D01*
X56027396Y-105335219D01*
X56027794Y-105332094D01*
X56030210Y-105239820D01*
X56027127Y-105198338D01*
X56011190Y-104983868D01*
X56011189Y-104983864D01*
X56010844Y-104979216D01*
X56009191Y-104971908D01*
X55954201Y-104728894D01*
X55953170Y-104724337D01*
X55939631Y-104689522D01*
X55860150Y-104485135D01*
X55860149Y-104485133D01*
X55858457Y-104480782D01*
X55853448Y-104472017D01*
X55794047Y-104368087D01*
X55728784Y-104253901D01*
X55638992Y-104140000D01*
X61170502Y-104140000D01*
X61190457Y-104368087D01*
X61191881Y-104373400D01*
X61191881Y-104373402D01*
X61218494Y-104472720D01*
X61249716Y-104589243D01*
X61252039Y-104594224D01*
X61252039Y-104594225D01*
X61344151Y-104791762D01*
X61344154Y-104791767D01*
X61346477Y-104796749D01*
X61349634Y-104801257D01*
X61470303Y-104973590D01*
X61477802Y-104984300D01*
X61639700Y-105146198D01*
X61644208Y-105149355D01*
X61644211Y-105149357D01*
X61709428Y-105195022D01*
X61827251Y-105277523D01*
X61832233Y-105279846D01*
X61832238Y-105279849D01*
X61970610Y-105344372D01*
X62034757Y-105374284D01*
X62040065Y-105375706D01*
X62040067Y-105375707D01*
X62250598Y-105432119D01*
X62250600Y-105432119D01*
X62255913Y-105433543D01*
X62484000Y-105453498D01*
X62712087Y-105433543D01*
X62717400Y-105432119D01*
X62717402Y-105432119D01*
X62927933Y-105375707D01*
X62927935Y-105375706D01*
X62933243Y-105374284D01*
X62997390Y-105344372D01*
X63135762Y-105279849D01*
X63135767Y-105279846D01*
X63140749Y-105277523D01*
X63258572Y-105195022D01*
X63323789Y-105149357D01*
X63323792Y-105149355D01*
X63328300Y-105146198D01*
X63490198Y-104984300D01*
X63497698Y-104973590D01*
X63618366Y-104801257D01*
X63621523Y-104796749D01*
X63623846Y-104791767D01*
X63623849Y-104791762D01*
X63715961Y-104594225D01*
X63715961Y-104594224D01*
X63718284Y-104589243D01*
X63749507Y-104472720D01*
X63776119Y-104373402D01*
X63776119Y-104373400D01*
X63777543Y-104368087D01*
X63797498Y-104140000D01*
X63777543Y-103911913D01*
X63776119Y-103906598D01*
X63719707Y-103696067D01*
X63719706Y-103696065D01*
X63718284Y-103690757D01*
X63715961Y-103685775D01*
X63623849Y-103488238D01*
X63623846Y-103488233D01*
X63621523Y-103483251D01*
X63518373Y-103335938D01*
X63493357Y-103300211D01*
X63493355Y-103300208D01*
X63490198Y-103295700D01*
X63328300Y-103133802D01*
X63323792Y-103130645D01*
X63323789Y-103130643D01*
X63229238Y-103064438D01*
X63140749Y-103002477D01*
X63135767Y-103000154D01*
X63135762Y-103000151D01*
X62938225Y-102908039D01*
X62938224Y-102908039D01*
X62933243Y-102905716D01*
X62927935Y-102904294D01*
X62927933Y-102904293D01*
X62717402Y-102847881D01*
X62717400Y-102847881D01*
X62712087Y-102846457D01*
X62484000Y-102826502D01*
X62255913Y-102846457D01*
X62250600Y-102847881D01*
X62250598Y-102847881D01*
X62040067Y-102904293D01*
X62040065Y-102904294D01*
X62034757Y-102905716D01*
X62029776Y-102908039D01*
X62029775Y-102908039D01*
X61832238Y-103000151D01*
X61832233Y-103000154D01*
X61827251Y-103002477D01*
X61738762Y-103064438D01*
X61644211Y-103130643D01*
X61644208Y-103130645D01*
X61639700Y-103133802D01*
X61477802Y-103295700D01*
X61474645Y-103300208D01*
X61474643Y-103300211D01*
X61449627Y-103335938D01*
X61346477Y-103483251D01*
X61344154Y-103488233D01*
X61344151Y-103488238D01*
X61252039Y-103685775D01*
X61249716Y-103690757D01*
X61248294Y-103696065D01*
X61248293Y-103696067D01*
X61191881Y-103906598D01*
X61190457Y-103911913D01*
X61170502Y-104140000D01*
X55638992Y-104140000D01*
X55567001Y-104048680D01*
X55423694Y-103913870D01*
X55380062Y-103872825D01*
X55380059Y-103872823D01*
X55376661Y-103869626D01*
X55230612Y-103768308D01*
X55165782Y-103723334D01*
X55165781Y-103723333D01*
X55161946Y-103720673D01*
X55157755Y-103718606D01*
X54931761Y-103607158D01*
X54931758Y-103607157D01*
X54927573Y-103605093D01*
X54884603Y-103591338D01*
X54818864Y-103570295D01*
X54678690Y-103525425D01*
X54674083Y-103524675D01*
X54674080Y-103524674D01*
X54470612Y-103491537D01*
X54420765Y-103483419D01*
X54294080Y-103481761D01*
X54164142Y-103480060D01*
X54164139Y-103480060D01*
X54159465Y-103479999D01*
X53900529Y-103515238D01*
X53896039Y-103516547D01*
X53896033Y-103516548D01*
X53829610Y-103535909D01*
X53649646Y-103588364D01*
X53645399Y-103590322D01*
X53645396Y-103590323D01*
X53527688Y-103644587D01*
X53457450Y-103654942D01*
X53392765Y-103625679D01*
X53354168Y-103566090D01*
X53353915Y-103495094D01*
X53360055Y-103478411D01*
X53420058Y-103345208D01*
X53421981Y-103340939D01*
X53447491Y-103250489D01*
X53491645Y-103093932D01*
X53491646Y-103093929D01*
X53492915Y-103089428D01*
X53515991Y-102908039D01*
X53525496Y-102833325D01*
X53525496Y-102833319D01*
X53525894Y-102830194D01*
X53528310Y-102737920D01*
X53521772Y-102649939D01*
X53509290Y-102481968D01*
X53509289Y-102481964D01*
X53508944Y-102477316D01*
X53499801Y-102436908D01*
X53452301Y-102226994D01*
X53451270Y-102222437D01*
X53449577Y-102218083D01*
X53358250Y-101983235D01*
X53358249Y-101983233D01*
X53356557Y-101978882D01*
X53226884Y-101752001D01*
X53065101Y-101546780D01*
X52978656Y-101465460D01*
X52878162Y-101370925D01*
X52878159Y-101370923D01*
X52874761Y-101367726D01*
X52660046Y-101218773D01*
X52649368Y-101213507D01*
X52429861Y-101105258D01*
X52429858Y-101105257D01*
X52425673Y-101103193D01*
X52379532Y-101088423D01*
X52326933Y-101071586D01*
X52176790Y-101023525D01*
X52172183Y-101022775D01*
X52172180Y-101022774D01*
X51923476Y-100982270D01*
X51923477Y-100982270D01*
X51918865Y-100981519D01*
X51792180Y-100979861D01*
X51662242Y-100978160D01*
X51662239Y-100978160D01*
X51657565Y-100978099D01*
X51398629Y-101013338D01*
X51394139Y-101014647D01*
X51394133Y-101014648D01*
X51293196Y-101044069D01*
X51147746Y-101086464D01*
X51143499Y-101088422D01*
X51143496Y-101088423D01*
X51054961Y-101129238D01*
X50910427Y-101195869D01*
X50875493Y-101218773D01*
X50695800Y-101336585D01*
X50695795Y-101336588D01*
X50691887Y-101339151D01*
X50496925Y-101513161D01*
X50329825Y-101714077D01*
X50327402Y-101718070D01*
X50200194Y-101927702D01*
X50194257Y-101937485D01*
X50192448Y-101941799D01*
X50192446Y-101941803D01*
X50176898Y-101978882D01*
X50093201Y-102178477D01*
X50028876Y-102431759D01*
X50002694Y-102691767D01*
X50002918Y-102696433D01*
X50002918Y-102696438D01*
X50007346Y-102788607D01*
X50015232Y-102952789D01*
X50066214Y-103209091D01*
X50067792Y-103213486D01*
X50120523Y-103360355D01*
X50124717Y-103431227D01*
X50089928Y-103493116D01*
X50027202Y-103526373D01*
X49956454Y-103520437D01*
X49912840Y-103492027D01*
X49713405Y-103292592D01*
X49679379Y-103230280D01*
X49676500Y-103203497D01*
X49676500Y-98129927D01*
X50002694Y-98129927D01*
X50002918Y-98134593D01*
X50002918Y-98134598D01*
X50008559Y-98252031D01*
X50015232Y-98390949D01*
X50066214Y-98647251D01*
X50154519Y-98893201D01*
X50278208Y-99123398D01*
X50281003Y-99127142D01*
X50281005Y-99127144D01*
X50431772Y-99329046D01*
X50431777Y-99329052D01*
X50434564Y-99332784D01*
X50437873Y-99336064D01*
X50437878Y-99336070D01*
X50616835Y-99513471D01*
X50620152Y-99516759D01*
X50623914Y-99519517D01*
X50623917Y-99519520D01*
X50795647Y-99645438D01*
X50830894Y-99671282D01*
X50835037Y-99673462D01*
X50835039Y-99673463D01*
X51058012Y-99790775D01*
X51058017Y-99790777D01*
X51062162Y-99792958D01*
X51066585Y-99794503D01*
X51066586Y-99794503D01*
X51304457Y-99877571D01*
X51304463Y-99877573D01*
X51308874Y-99879113D01*
X51313467Y-99879985D01*
X51561021Y-99926985D01*
X51561024Y-99926985D01*
X51565610Y-99927856D01*
X51696171Y-99932986D01*
X51822064Y-99937933D01*
X51822070Y-99937933D01*
X51826732Y-99938116D01*
X51918746Y-99928039D01*
X52081848Y-99910177D01*
X52081854Y-99910176D01*
X52086501Y-99909667D01*
X52339212Y-99843133D01*
X52579314Y-99739978D01*
X52583294Y-99737515D01*
X52583298Y-99737513D01*
X52797557Y-99604925D01*
X52797561Y-99604922D01*
X52801530Y-99602466D01*
X52842243Y-99568000D01*
X52997414Y-99436638D01*
X52997415Y-99436637D01*
X53000980Y-99433619D01*
X53020116Y-99411799D01*
X53170200Y-99240661D01*
X53170203Y-99240656D01*
X53173282Y-99237146D01*
X53177275Y-99230939D01*
X53312123Y-99021293D01*
X53314651Y-99017363D01*
X53421981Y-98779099D01*
X53460457Y-98642674D01*
X53491645Y-98532092D01*
X53491646Y-98532089D01*
X53492915Y-98527588D01*
X53501993Y-98456232D01*
X53525496Y-98271485D01*
X53525496Y-98271479D01*
X53525894Y-98268354D01*
X53526322Y-98252031D01*
X53528227Y-98179240D01*
X53528310Y-98176080D01*
X53521987Y-98090990D01*
X53509290Y-97920128D01*
X53509289Y-97920124D01*
X53508944Y-97915476D01*
X53504677Y-97896616D01*
X53452301Y-97665154D01*
X53451270Y-97660597D01*
X53363728Y-97435482D01*
X53357681Y-97364745D01*
X53390837Y-97301966D01*
X53452671Y-97267079D01*
X53523550Y-97271160D01*
X53539818Y-97278303D01*
X53564062Y-97291058D01*
X53568485Y-97292603D01*
X53568486Y-97292603D01*
X53806357Y-97375671D01*
X53806363Y-97375673D01*
X53810774Y-97377213D01*
X53815367Y-97378085D01*
X54062921Y-97425085D01*
X54062924Y-97425085D01*
X54067510Y-97425956D01*
X54196010Y-97431005D01*
X54323964Y-97436033D01*
X54323970Y-97436033D01*
X54328632Y-97436216D01*
X54420646Y-97426139D01*
X54583748Y-97408277D01*
X54583754Y-97408276D01*
X54588401Y-97407767D01*
X54841112Y-97341233D01*
X55081214Y-97238078D01*
X55085194Y-97235615D01*
X55085198Y-97235613D01*
X55299457Y-97103025D01*
X55299461Y-97103022D01*
X55303430Y-97100566D01*
X55384754Y-97031720D01*
X55499314Y-96934738D01*
X55499315Y-96934737D01*
X55502880Y-96931719D01*
X55591310Y-96830884D01*
X55672100Y-96738761D01*
X55672103Y-96738756D01*
X55675182Y-96735246D01*
X55734620Y-96642840D01*
X55813633Y-96520000D01*
X61170502Y-96520000D01*
X61190457Y-96748087D01*
X61191881Y-96753400D01*
X61191881Y-96753402D01*
X61244079Y-96948204D01*
X61249716Y-96969243D01*
X61252039Y-96974224D01*
X61252039Y-96974225D01*
X61344151Y-97171762D01*
X61344154Y-97171767D01*
X61346477Y-97176749D01*
X61417589Y-97278307D01*
X61470303Y-97353590D01*
X61477802Y-97364300D01*
X61639700Y-97526198D01*
X61644208Y-97529355D01*
X61644211Y-97529357D01*
X61695028Y-97564939D01*
X61827251Y-97657523D01*
X61832233Y-97659846D01*
X61832238Y-97659849D01*
X61970610Y-97724372D01*
X62034757Y-97754284D01*
X62040065Y-97755706D01*
X62040067Y-97755707D01*
X62250598Y-97812119D01*
X62250600Y-97812119D01*
X62255913Y-97813543D01*
X62484000Y-97833498D01*
X62712087Y-97813543D01*
X62717400Y-97812119D01*
X62717402Y-97812119D01*
X62927933Y-97755707D01*
X62927935Y-97755706D01*
X62933243Y-97754284D01*
X62997390Y-97724372D01*
X63135762Y-97659849D01*
X63135767Y-97659846D01*
X63140749Y-97657523D01*
X63272972Y-97564939D01*
X63323789Y-97529357D01*
X63323792Y-97529355D01*
X63328300Y-97526198D01*
X63490198Y-97364300D01*
X63497698Y-97353590D01*
X63550411Y-97278307D01*
X63621523Y-97176749D01*
X63623846Y-97171767D01*
X63623849Y-97171762D01*
X63715961Y-96974225D01*
X63715961Y-96974224D01*
X63718284Y-96969243D01*
X63723922Y-96948204D01*
X63776119Y-96753402D01*
X63776119Y-96753400D01*
X63777543Y-96748087D01*
X63797498Y-96520000D01*
X63777543Y-96291913D01*
X63776119Y-96286598D01*
X63719707Y-96076067D01*
X63719706Y-96076065D01*
X63718284Y-96070757D01*
X63704866Y-96041981D01*
X63623849Y-95868238D01*
X63623846Y-95868233D01*
X63621523Y-95863251D01*
X63518373Y-95715938D01*
X63493357Y-95680211D01*
X63493355Y-95680208D01*
X63490198Y-95675700D01*
X63328300Y-95513802D01*
X63323792Y-95510645D01*
X63323789Y-95510643D01*
X63229238Y-95444438D01*
X63140749Y-95382477D01*
X63135767Y-95380154D01*
X63135762Y-95380151D01*
X62938225Y-95288039D01*
X62938224Y-95288039D01*
X62933243Y-95285716D01*
X62927935Y-95284294D01*
X62927933Y-95284293D01*
X62717402Y-95227881D01*
X62717400Y-95227881D01*
X62712087Y-95226457D01*
X62484000Y-95206502D01*
X62255913Y-95226457D01*
X62250600Y-95227881D01*
X62250598Y-95227881D01*
X62040067Y-95284293D01*
X62040065Y-95284294D01*
X62034757Y-95285716D01*
X62029776Y-95288039D01*
X62029775Y-95288039D01*
X61832238Y-95380151D01*
X61832233Y-95380154D01*
X61827251Y-95382477D01*
X61738762Y-95444438D01*
X61644211Y-95510643D01*
X61644208Y-95510645D01*
X61639700Y-95513802D01*
X61477802Y-95675700D01*
X61474645Y-95680208D01*
X61474643Y-95680211D01*
X61449627Y-95715938D01*
X61346477Y-95863251D01*
X61344154Y-95868233D01*
X61344151Y-95868238D01*
X61263134Y-96041981D01*
X61249716Y-96070757D01*
X61248294Y-96076065D01*
X61248293Y-96076067D01*
X61191881Y-96286598D01*
X61190457Y-96291913D01*
X61170502Y-96520000D01*
X55813633Y-96520000D01*
X55814023Y-96519393D01*
X55816551Y-96515463D01*
X55923881Y-96277199D01*
X55955980Y-96163386D01*
X55993545Y-96030192D01*
X55993546Y-96030189D01*
X55994815Y-96025688D01*
X56012792Y-95884379D01*
X56027396Y-95769585D01*
X56027396Y-95769579D01*
X56027794Y-95766454D01*
X56027977Y-95759492D01*
X56030127Y-95677340D01*
X56030210Y-95674180D01*
X56020766Y-95547088D01*
X56011190Y-95418228D01*
X56011189Y-95418224D01*
X56010844Y-95413576D01*
X56005756Y-95391087D01*
X55958980Y-95184372D01*
X55953170Y-95158697D01*
X55949631Y-95149596D01*
X55860150Y-94919495D01*
X55860149Y-94919493D01*
X55858457Y-94915142D01*
X55728784Y-94688261D01*
X55567001Y-94483040D01*
X55385946Y-94312720D01*
X55380062Y-94307185D01*
X55380059Y-94307183D01*
X55376661Y-94303986D01*
X55161946Y-94155033D01*
X55120699Y-94134692D01*
X54931761Y-94041518D01*
X54931758Y-94041517D01*
X54927573Y-94039453D01*
X54881432Y-94024683D01*
X54828833Y-94007846D01*
X54678690Y-93959785D01*
X54674083Y-93959035D01*
X54674080Y-93959034D01*
X54470612Y-93925897D01*
X54420765Y-93917779D01*
X54294080Y-93916121D01*
X54164142Y-93914420D01*
X54164139Y-93914420D01*
X54159465Y-93914359D01*
X53900529Y-93949598D01*
X53896039Y-93950907D01*
X53896033Y-93950908D01*
X53789355Y-93982002D01*
X53649646Y-94022724D01*
X53645399Y-94024682D01*
X53645396Y-94024683D01*
X53608878Y-94041518D01*
X53412327Y-94132129D01*
X53377393Y-94155033D01*
X53197700Y-94272845D01*
X53197695Y-94272848D01*
X53193787Y-94275411D01*
X52998825Y-94449421D01*
X52831725Y-94650337D01*
X52829302Y-94654330D01*
X52778138Y-94738646D01*
X52696157Y-94873745D01*
X52694348Y-94878059D01*
X52694346Y-94878063D01*
X52667633Y-94941767D01*
X52595101Y-95114737D01*
X52530776Y-95368019D01*
X52504594Y-95628027D01*
X52504818Y-95632693D01*
X52504818Y-95632698D01*
X52510909Y-95759492D01*
X52517132Y-95889049D01*
X52568114Y-96145351D01*
X52656419Y-96391301D01*
X52658636Y-96395427D01*
X52662985Y-96403521D01*
X52677608Y-96472995D01*
X52652350Y-96539347D01*
X52595228Y-96581509D01*
X52524380Y-96586096D01*
X52496265Y-96576165D01*
X52429861Y-96543418D01*
X52429858Y-96543417D01*
X52425673Y-96541353D01*
X52419407Y-96539347D01*
X52228489Y-96478234D01*
X52176790Y-96461685D01*
X52172183Y-96460935D01*
X52172180Y-96460934D01*
X51923476Y-96420430D01*
X51923477Y-96420430D01*
X51918865Y-96419679D01*
X51792180Y-96418021D01*
X51662242Y-96416320D01*
X51662239Y-96416320D01*
X51657565Y-96416259D01*
X51398629Y-96451498D01*
X51394139Y-96452807D01*
X51394133Y-96452808D01*
X51324876Y-96472995D01*
X51147746Y-96524624D01*
X51143499Y-96526582D01*
X51143496Y-96526583D01*
X51073154Y-96559011D01*
X50910427Y-96634029D01*
X50906518Y-96636592D01*
X50695800Y-96774745D01*
X50695795Y-96774748D01*
X50691887Y-96777311D01*
X50613000Y-96847720D01*
X50515505Y-96934738D01*
X50496925Y-96951321D01*
X50329825Y-97152237D01*
X50194257Y-97375645D01*
X50192448Y-97379959D01*
X50192446Y-97379963D01*
X50110652Y-97575022D01*
X50093201Y-97616637D01*
X50028876Y-97869919D01*
X50002694Y-98129927D01*
X49676500Y-98129927D01*
X49676500Y-90631847D01*
X50005234Y-90631847D01*
X50005458Y-90636513D01*
X50005458Y-90636518D01*
X50008725Y-90704529D01*
X50017772Y-90892869D01*
X50068754Y-91149171D01*
X50157059Y-91395121D01*
X50159276Y-91399247D01*
X50204956Y-91484261D01*
X50280748Y-91625318D01*
X50283543Y-91629062D01*
X50283545Y-91629064D01*
X50434312Y-91830966D01*
X50434317Y-91830972D01*
X50437104Y-91834704D01*
X50440413Y-91837984D01*
X50440418Y-91837990D01*
X50593279Y-91989522D01*
X50622692Y-92018679D01*
X50626454Y-92021437D01*
X50626457Y-92021440D01*
X50827106Y-92168562D01*
X50833434Y-92173202D01*
X50837577Y-92175382D01*
X50837579Y-92175383D01*
X51060552Y-92292695D01*
X51060557Y-92292697D01*
X51064702Y-92294878D01*
X51069125Y-92296423D01*
X51069126Y-92296423D01*
X51306997Y-92379491D01*
X51307003Y-92379493D01*
X51311414Y-92381033D01*
X51316007Y-92381905D01*
X51563561Y-92428905D01*
X51563564Y-92428905D01*
X51568150Y-92429776D01*
X51698711Y-92434906D01*
X51824604Y-92439853D01*
X51824610Y-92439853D01*
X51829272Y-92440036D01*
X51921286Y-92429959D01*
X52084388Y-92412097D01*
X52084394Y-92412096D01*
X52089041Y-92411587D01*
X52341752Y-92345053D01*
X52581854Y-92241898D01*
X52585834Y-92239435D01*
X52585838Y-92239433D01*
X52800097Y-92106845D01*
X52800101Y-92106842D01*
X52804070Y-92104386D01*
X52945849Y-91984361D01*
X52999954Y-91938558D01*
X52999955Y-91938557D01*
X53003520Y-91935539D01*
X53095228Y-91830966D01*
X53172740Y-91742581D01*
X53172743Y-91742576D01*
X53175822Y-91739066D01*
X53227926Y-91658062D01*
X53295716Y-91552669D01*
X53317191Y-91519283D01*
X53424521Y-91281019D01*
X53482681Y-91074800D01*
X53494185Y-91034012D01*
X53494186Y-91034009D01*
X53495455Y-91029508D01*
X53503835Y-90963638D01*
X53507860Y-90932000D01*
X61170502Y-90932000D01*
X61190457Y-91160087D01*
X61191881Y-91165400D01*
X61191881Y-91165402D01*
X61240919Y-91348411D01*
X61249716Y-91381243D01*
X61252039Y-91386224D01*
X61252039Y-91386225D01*
X61344151Y-91583762D01*
X61344154Y-91583767D01*
X61346477Y-91588749D01*
X61395011Y-91658062D01*
X61471782Y-91767702D01*
X61477802Y-91776300D01*
X61639700Y-91938198D01*
X61644208Y-91941355D01*
X61644211Y-91941357D01*
X61698487Y-91979361D01*
X61827251Y-92069523D01*
X61832233Y-92071846D01*
X61832238Y-92071849D01*
X62029775Y-92163961D01*
X62034757Y-92166284D01*
X62040065Y-92167706D01*
X62040067Y-92167707D01*
X62250598Y-92224119D01*
X62250600Y-92224119D01*
X62255913Y-92225543D01*
X62484000Y-92245498D01*
X62712087Y-92225543D01*
X62717400Y-92224119D01*
X62717402Y-92224119D01*
X62927933Y-92167707D01*
X62927935Y-92167706D01*
X62933243Y-92166284D01*
X62938225Y-92163961D01*
X63135762Y-92071849D01*
X63135767Y-92071846D01*
X63140749Y-92069523D01*
X63269513Y-91979361D01*
X63323789Y-91941357D01*
X63323792Y-91941355D01*
X63328300Y-91938198D01*
X63490198Y-91776300D01*
X63496219Y-91767702D01*
X63572989Y-91658062D01*
X63621523Y-91588749D01*
X63623846Y-91583767D01*
X63623849Y-91583762D01*
X63715961Y-91386225D01*
X63715961Y-91386224D01*
X63718284Y-91381243D01*
X63727082Y-91348411D01*
X63776119Y-91165402D01*
X63776119Y-91165400D01*
X63777543Y-91160087D01*
X63797498Y-90932000D01*
X63777543Y-90703913D01*
X63760214Y-90639240D01*
X63719707Y-90488067D01*
X63719706Y-90488065D01*
X63718284Y-90482757D01*
X63712797Y-90470990D01*
X63623849Y-90280238D01*
X63623846Y-90280233D01*
X63621523Y-90275251D01*
X63514978Y-90123089D01*
X63493357Y-90092211D01*
X63493355Y-90092208D01*
X63490198Y-90087700D01*
X63328300Y-89925802D01*
X63323792Y-89922645D01*
X63323789Y-89922643D01*
X63215112Y-89846547D01*
X63140749Y-89794477D01*
X63135767Y-89792154D01*
X63135762Y-89792151D01*
X62938225Y-89700039D01*
X62938224Y-89700039D01*
X62933243Y-89697716D01*
X62927935Y-89696294D01*
X62927933Y-89696293D01*
X62717402Y-89639881D01*
X62717400Y-89639881D01*
X62712087Y-89638457D01*
X62484000Y-89618502D01*
X62255913Y-89638457D01*
X62250600Y-89639881D01*
X62250598Y-89639881D01*
X62040067Y-89696293D01*
X62040065Y-89696294D01*
X62034757Y-89697716D01*
X62029776Y-89700039D01*
X62029775Y-89700039D01*
X61832238Y-89792151D01*
X61832233Y-89792154D01*
X61827251Y-89794477D01*
X61752888Y-89846547D01*
X61644211Y-89922643D01*
X61644208Y-89922645D01*
X61639700Y-89925802D01*
X61477802Y-90087700D01*
X61474645Y-90092208D01*
X61474643Y-90092211D01*
X61453022Y-90123089D01*
X61346477Y-90275251D01*
X61344154Y-90280233D01*
X61344151Y-90280238D01*
X61255203Y-90470990D01*
X61249716Y-90482757D01*
X61248294Y-90488065D01*
X61248293Y-90488067D01*
X61207786Y-90639240D01*
X61190457Y-90703913D01*
X61170502Y-90932000D01*
X53507860Y-90932000D01*
X53528036Y-90773405D01*
X53528036Y-90773399D01*
X53528434Y-90770274D01*
X53530850Y-90678000D01*
X53527074Y-90627193D01*
X53511830Y-90422048D01*
X53511829Y-90422044D01*
X53511484Y-90417396D01*
X53502230Y-90376497D01*
X53459656Y-90188353D01*
X53453810Y-90162517D01*
X53449066Y-90150317D01*
X53360790Y-89923315D01*
X53360789Y-89923313D01*
X53359097Y-89918962D01*
X53317709Y-89846547D01*
X53286619Y-89792151D01*
X53229424Y-89692081D01*
X53067641Y-89486860D01*
X52877301Y-89307806D01*
X52769065Y-89232720D01*
X52666422Y-89161514D01*
X52666421Y-89161513D01*
X52662586Y-89158853D01*
X52621339Y-89138512D01*
X52432401Y-89045338D01*
X52432398Y-89045337D01*
X52428213Y-89043273D01*
X52382072Y-89028503D01*
X52329473Y-89011666D01*
X52179330Y-88963605D01*
X52174723Y-88962855D01*
X52174720Y-88962854D01*
X51926016Y-88922350D01*
X51926017Y-88922350D01*
X51921405Y-88921599D01*
X51794720Y-88919941D01*
X51664782Y-88918240D01*
X51664779Y-88918240D01*
X51660105Y-88918179D01*
X51401169Y-88953418D01*
X51396679Y-88954727D01*
X51396673Y-88954728D01*
X51289995Y-88985822D01*
X51150286Y-89026544D01*
X51146039Y-89028502D01*
X51146036Y-89028503D01*
X51109518Y-89045338D01*
X50912967Y-89135949D01*
X50878033Y-89158853D01*
X50698340Y-89276665D01*
X50698335Y-89276668D01*
X50694427Y-89279231D01*
X50658827Y-89311005D01*
X50503632Y-89449522D01*
X50499465Y-89453241D01*
X50468454Y-89490528D01*
X50345423Y-89638457D01*
X50332365Y-89654157D01*
X50329942Y-89658150D01*
X50206384Y-89861767D01*
X50196797Y-89877565D01*
X50194988Y-89881879D01*
X50194986Y-89881883D01*
X50108680Y-90087700D01*
X50095741Y-90118557D01*
X50031416Y-90371839D01*
X50005234Y-90631847D01*
X49676500Y-90631847D01*
X49676500Y-83133767D01*
X50002694Y-83133767D01*
X50002918Y-83138433D01*
X50002918Y-83138438D01*
X50006735Y-83217896D01*
X50015232Y-83394789D01*
X50066214Y-83651091D01*
X50154519Y-83897041D01*
X50156736Y-83901167D01*
X50272334Y-84116305D01*
X50278208Y-84127238D01*
X50281003Y-84130982D01*
X50281005Y-84130984D01*
X50431772Y-84332886D01*
X50431777Y-84332892D01*
X50434564Y-84336624D01*
X50437873Y-84339904D01*
X50437878Y-84339910D01*
X50593671Y-84494348D01*
X50620152Y-84520599D01*
X50623914Y-84523357D01*
X50623917Y-84523360D01*
X50790140Y-84645240D01*
X50830894Y-84675122D01*
X50835037Y-84677302D01*
X50835039Y-84677303D01*
X51058012Y-84794615D01*
X51058017Y-84794617D01*
X51062162Y-84796798D01*
X51066585Y-84798343D01*
X51066586Y-84798343D01*
X51304457Y-84881411D01*
X51304463Y-84881413D01*
X51308874Y-84882953D01*
X51313467Y-84883825D01*
X51561021Y-84930825D01*
X51561024Y-84930825D01*
X51565610Y-84931696D01*
X51696171Y-84936826D01*
X51822064Y-84941773D01*
X51822070Y-84941773D01*
X51826732Y-84941956D01*
X51918746Y-84931879D01*
X52081848Y-84914017D01*
X52081854Y-84914016D01*
X52086501Y-84913507D01*
X52339212Y-84846973D01*
X52422325Y-84811265D01*
X52505663Y-84775461D01*
X52576147Y-84766949D01*
X52640045Y-84797895D01*
X52677068Y-84858474D01*
X52675462Y-84929452D01*
X52671597Y-84939954D01*
X52638290Y-85019382D01*
X52595101Y-85122377D01*
X52530776Y-85375659D01*
X52504594Y-85635667D01*
X52504818Y-85640333D01*
X52504818Y-85640338D01*
X52507369Y-85693441D01*
X52517132Y-85896689D01*
X52568114Y-86152991D01*
X52656419Y-86398941D01*
X52658636Y-86403067D01*
X52751155Y-86575253D01*
X52780108Y-86629138D01*
X52782903Y-86632882D01*
X52782905Y-86632884D01*
X52933672Y-86834786D01*
X52933677Y-86834792D01*
X52936464Y-86838524D01*
X52939773Y-86841804D01*
X52939778Y-86841810D01*
X53070562Y-86971457D01*
X53122052Y-87022499D01*
X53125814Y-87025257D01*
X53125817Y-87025260D01*
X53329020Y-87174255D01*
X53332794Y-87177022D01*
X53336937Y-87179202D01*
X53336939Y-87179203D01*
X53559912Y-87296515D01*
X53559917Y-87296517D01*
X53564062Y-87298698D01*
X53568485Y-87300243D01*
X53568486Y-87300243D01*
X53806357Y-87383311D01*
X53806363Y-87383313D01*
X53810774Y-87384853D01*
X53815367Y-87385725D01*
X54062921Y-87432725D01*
X54062924Y-87432725D01*
X54067510Y-87433596D01*
X54198071Y-87438726D01*
X54323964Y-87443673D01*
X54323970Y-87443673D01*
X54328632Y-87443856D01*
X54420646Y-87433779D01*
X54583748Y-87415917D01*
X54583754Y-87415916D01*
X54588401Y-87415407D01*
X54841112Y-87348873D01*
X55081214Y-87245718D01*
X55085194Y-87243255D01*
X55085198Y-87243253D01*
X55299457Y-87110665D01*
X55299461Y-87110662D01*
X55303430Y-87108206D01*
X55502880Y-86939359D01*
X55564051Y-86869607D01*
X55672100Y-86746401D01*
X55672103Y-86746396D01*
X55675182Y-86742886D01*
X55727551Y-86661470D01*
X55814023Y-86527033D01*
X55816551Y-86523103D01*
X55923881Y-86284839D01*
X55994815Y-86033328D01*
X56005574Y-85948753D01*
X56027396Y-85777225D01*
X56027396Y-85777219D01*
X56027794Y-85774094D01*
X56030210Y-85681820D01*
X56021101Y-85559244D01*
X56011190Y-85425868D01*
X56011189Y-85425864D01*
X56010844Y-85421216D01*
X56004005Y-85390990D01*
X55961018Y-85201020D01*
X55953170Y-85166337D01*
X55943904Y-85142510D01*
X55860150Y-84927135D01*
X55860149Y-84927133D01*
X55858457Y-84922782D01*
X55853448Y-84914017D01*
X55731103Y-84699959D01*
X55728784Y-84695901D01*
X55567001Y-84490680D01*
X55422359Y-84354614D01*
X55380062Y-84314825D01*
X55380059Y-84314823D01*
X55376661Y-84311626D01*
X55199093Y-84188443D01*
X55165782Y-84165334D01*
X55165781Y-84165333D01*
X55161946Y-84162673D01*
X55157755Y-84160606D01*
X54931761Y-84049158D01*
X54931758Y-84049157D01*
X54927573Y-84047093D01*
X54881432Y-84032323D01*
X54828833Y-84015486D01*
X54678690Y-83967425D01*
X54674083Y-83966675D01*
X54674080Y-83966674D01*
X54425376Y-83926170D01*
X54425377Y-83926170D01*
X54420765Y-83925419D01*
X54294080Y-83923761D01*
X54164142Y-83922060D01*
X54164139Y-83922060D01*
X54159465Y-83921999D01*
X53900529Y-83957238D01*
X53896039Y-83958547D01*
X53896033Y-83958548D01*
X53817252Y-83981511D01*
X53649646Y-84030364D01*
X53645399Y-84032322D01*
X53645396Y-84032323D01*
X53527688Y-84086587D01*
X53457450Y-84096942D01*
X53392765Y-84067679D01*
X53354168Y-84008090D01*
X53353915Y-83937094D01*
X53360055Y-83920411D01*
X53420058Y-83787208D01*
X53421981Y-83782939D01*
X53460457Y-83646514D01*
X53491645Y-83535932D01*
X53491646Y-83535929D01*
X53492915Y-83531428D01*
X53505613Y-83431612D01*
X53520830Y-83312000D01*
X61170502Y-83312000D01*
X61190457Y-83540087D01*
X61191881Y-83545400D01*
X61191881Y-83545402D01*
X61240919Y-83728411D01*
X61249716Y-83761243D01*
X61252039Y-83766224D01*
X61252039Y-83766225D01*
X61344151Y-83963762D01*
X61344154Y-83963767D01*
X61346477Y-83968749D01*
X61395011Y-84038062D01*
X61471782Y-84147702D01*
X61477802Y-84156300D01*
X61639700Y-84318198D01*
X61644208Y-84321355D01*
X61644211Y-84321357D01*
X61698487Y-84359361D01*
X61827251Y-84449523D01*
X61832233Y-84451846D01*
X61832238Y-84451849D01*
X62029775Y-84543961D01*
X62034757Y-84546284D01*
X62040065Y-84547706D01*
X62040067Y-84547707D01*
X62250598Y-84604119D01*
X62250600Y-84604119D01*
X62255913Y-84605543D01*
X62484000Y-84625498D01*
X62712087Y-84605543D01*
X62717400Y-84604119D01*
X62717402Y-84604119D01*
X62927933Y-84547707D01*
X62927935Y-84547706D01*
X62933243Y-84546284D01*
X62938225Y-84543961D01*
X63135762Y-84451849D01*
X63135767Y-84451846D01*
X63140749Y-84449523D01*
X63269513Y-84359361D01*
X63323789Y-84321357D01*
X63323792Y-84321355D01*
X63328300Y-84318198D01*
X63490198Y-84156300D01*
X63496219Y-84147702D01*
X63572989Y-84038062D01*
X63621523Y-83968749D01*
X63623846Y-83963767D01*
X63623849Y-83963762D01*
X63715961Y-83766225D01*
X63715961Y-83766224D01*
X63718284Y-83761243D01*
X63727082Y-83728411D01*
X63776119Y-83545402D01*
X63776119Y-83545400D01*
X63777543Y-83540087D01*
X63797498Y-83312000D01*
X63777543Y-83083913D01*
X63758282Y-83012031D01*
X63719707Y-82868067D01*
X63719706Y-82868065D01*
X63718284Y-82862757D01*
X63667233Y-82753277D01*
X63623849Y-82660238D01*
X63623846Y-82660233D01*
X63621523Y-82655251D01*
X63490198Y-82467700D01*
X63328300Y-82305802D01*
X63323792Y-82302645D01*
X63323789Y-82302643D01*
X63168632Y-82194001D01*
X63140749Y-82174477D01*
X63135767Y-82172154D01*
X63135762Y-82172151D01*
X62938225Y-82080039D01*
X62938224Y-82080039D01*
X62933243Y-82077716D01*
X62927935Y-82076294D01*
X62927933Y-82076293D01*
X62717402Y-82019881D01*
X62717400Y-82019881D01*
X62712087Y-82018457D01*
X62484000Y-81998502D01*
X62255913Y-82018457D01*
X62250600Y-82019881D01*
X62250598Y-82019881D01*
X62040067Y-82076293D01*
X62040065Y-82076294D01*
X62034757Y-82077716D01*
X62029776Y-82080039D01*
X62029775Y-82080039D01*
X61832238Y-82172151D01*
X61832233Y-82172154D01*
X61827251Y-82174477D01*
X61799368Y-82194001D01*
X61644211Y-82302643D01*
X61644208Y-82302645D01*
X61639700Y-82305802D01*
X61477802Y-82467700D01*
X61346477Y-82655251D01*
X61344154Y-82660233D01*
X61344151Y-82660238D01*
X61300767Y-82753277D01*
X61249716Y-82862757D01*
X61248294Y-82868065D01*
X61248293Y-82868067D01*
X61209718Y-83012031D01*
X61190457Y-83083913D01*
X61170502Y-83312000D01*
X53520830Y-83312000D01*
X53525496Y-83275325D01*
X53525496Y-83275319D01*
X53525894Y-83272194D01*
X53528310Y-83179920D01*
X53515834Y-83012031D01*
X53509290Y-82923968D01*
X53509289Y-82923964D01*
X53508944Y-82919316D01*
X53503217Y-82894003D01*
X53452301Y-82668994D01*
X53451270Y-82664437D01*
X53442549Y-82642011D01*
X53358250Y-82425235D01*
X53358249Y-82425233D01*
X53356557Y-82420882D01*
X53343883Y-82398706D01*
X53248343Y-82231547D01*
X53226884Y-82194001D01*
X53065101Y-81988780D01*
X52890490Y-81824522D01*
X52878162Y-81812925D01*
X52878159Y-81812923D01*
X52874761Y-81809726D01*
X52792166Y-81752428D01*
X52663882Y-81663434D01*
X52663881Y-81663433D01*
X52660046Y-81660773D01*
X52655855Y-81658706D01*
X52429861Y-81547258D01*
X52429858Y-81547257D01*
X52425673Y-81545193D01*
X52379532Y-81530423D01*
X52293303Y-81502821D01*
X52176790Y-81465525D01*
X52172183Y-81464775D01*
X52172180Y-81464774D01*
X51948215Y-81428299D01*
X51918865Y-81423519D01*
X51792180Y-81421861D01*
X51662242Y-81420160D01*
X51662239Y-81420160D01*
X51657565Y-81420099D01*
X51398629Y-81455338D01*
X51394139Y-81456647D01*
X51394133Y-81456648D01*
X51321102Y-81477935D01*
X51147746Y-81528464D01*
X51143499Y-81530422D01*
X51143496Y-81530423D01*
X51055077Y-81571185D01*
X50910427Y-81637869D01*
X50875493Y-81660773D01*
X50695800Y-81778585D01*
X50695795Y-81778588D01*
X50691887Y-81781151D01*
X50496925Y-81955161D01*
X50452512Y-82008562D01*
X50369320Y-82108590D01*
X50329825Y-82156077D01*
X50327402Y-82160070D01*
X50224244Y-82330069D01*
X50194257Y-82379485D01*
X50192448Y-82383799D01*
X50192446Y-82383803D01*
X50133477Y-82524430D01*
X50093201Y-82620477D01*
X50028876Y-82873759D01*
X50002694Y-83133767D01*
X49676500Y-83133767D01*
X49676500Y-80230695D01*
X65439251Y-80230695D01*
X65439548Y-80235848D01*
X65439548Y-80235851D01*
X65445011Y-80330590D01*
X65452110Y-80453715D01*
X65453247Y-80458761D01*
X65453248Y-80458767D01*
X65457118Y-80475938D01*
X65501222Y-80671639D01*
X65585266Y-80878616D01*
X65587965Y-80883020D01*
X65673521Y-81022635D01*
X65701987Y-81069088D01*
X65848250Y-81237938D01*
X65963194Y-81333366D01*
X66011554Y-81373515D01*
X66020126Y-81380632D01*
X66213000Y-81493338D01*
X66421692Y-81573030D01*
X66426760Y-81574061D01*
X66426763Y-81574062D01*
X66501582Y-81589284D01*
X66640597Y-81617567D01*
X66645772Y-81617757D01*
X66645774Y-81617757D01*
X66858673Y-81625564D01*
X66858677Y-81625564D01*
X66863837Y-81625753D01*
X66868957Y-81625097D01*
X66868959Y-81625097D01*
X67080288Y-81598025D01*
X67080289Y-81598025D01*
X67085416Y-81597368D01*
X67090366Y-81595883D01*
X67294429Y-81534661D01*
X67294434Y-81534659D01*
X67299384Y-81533174D01*
X67499994Y-81434896D01*
X67681860Y-81305173D01*
X67695181Y-81291899D01*
X67763209Y-81224107D01*
X67840096Y-81147489D01*
X67899594Y-81064689D01*
X67967435Y-80970277D01*
X67970453Y-80966077D01*
X67980817Y-80945108D01*
X68067136Y-80770453D01*
X68067137Y-80770451D01*
X68069430Y-80765811D01*
X68134370Y-80552069D01*
X68163529Y-80330590D01*
X68165156Y-80264000D01*
X68146852Y-80041361D01*
X68092431Y-79824702D01*
X68003354Y-79619840D01*
X67963906Y-79558862D01*
X67884822Y-79436617D01*
X67884820Y-79436614D01*
X67882014Y-79432277D01*
X67731670Y-79267051D01*
X67727619Y-79263852D01*
X67727615Y-79263848D01*
X67560414Y-79131800D01*
X67560410Y-79131798D01*
X67556359Y-79128598D01*
X67515053Y-79105796D01*
X67465084Y-79055364D01*
X67450312Y-78985921D01*
X67475428Y-78919516D01*
X67502780Y-78892909D01*
X67559194Y-78852669D01*
X67681860Y-78765173D01*
X67713788Y-78733357D01*
X67763209Y-78684107D01*
X67840096Y-78607489D01*
X67871498Y-78563789D01*
X67967435Y-78430277D01*
X67970453Y-78426077D01*
X67990628Y-78385257D01*
X68067136Y-78230453D01*
X68067137Y-78230451D01*
X68069430Y-78225811D01*
X68134370Y-78012069D01*
X68163529Y-77790590D01*
X68165156Y-77724000D01*
X68146852Y-77501361D01*
X68092431Y-77284702D01*
X68003354Y-77079840D01*
X67963906Y-77018862D01*
X67884822Y-76896617D01*
X67884820Y-76896614D01*
X67882014Y-76892277D01*
X67867024Y-76875803D01*
X67734798Y-76730488D01*
X67703746Y-76666642D01*
X67712141Y-76596143D01*
X67757317Y-76541375D01*
X67783761Y-76527706D01*
X67890297Y-76487767D01*
X67898705Y-76484615D01*
X68015261Y-76397261D01*
X68102615Y-76280705D01*
X68153745Y-76144316D01*
X68160500Y-76082134D01*
X68160500Y-74285866D01*
X68153745Y-74223684D01*
X68102615Y-74087295D01*
X68015261Y-73970739D01*
X67898705Y-73883385D01*
X67762316Y-73832255D01*
X67700134Y-73825500D01*
X65903866Y-73825500D01*
X65841684Y-73832255D01*
X65705295Y-73883385D01*
X65588739Y-73970739D01*
X65501385Y-74087295D01*
X65450255Y-74223684D01*
X65443500Y-74285866D01*
X65443500Y-76082134D01*
X65450255Y-76144316D01*
X65501385Y-76280705D01*
X65588739Y-76397261D01*
X65705295Y-76484615D01*
X65713704Y-76487767D01*
X65713705Y-76487768D01*
X65822451Y-76528535D01*
X65879216Y-76571176D01*
X65903916Y-76637738D01*
X65888709Y-76707087D01*
X65869316Y-76733568D01*
X65742629Y-76866138D01*
X65739715Y-76870410D01*
X65739714Y-76870411D01*
X65679524Y-76958646D01*
X65616743Y-77050680D01*
X65522688Y-77253305D01*
X65462989Y-77468570D01*
X65439251Y-77690695D01*
X65439548Y-77695848D01*
X65439548Y-77695851D01*
X65445011Y-77790590D01*
X65452110Y-77913715D01*
X65453247Y-77918761D01*
X65453248Y-77918767D01*
X65461955Y-77957402D01*
X65501222Y-78131639D01*
X65585266Y-78338616D01*
X65587965Y-78343020D01*
X65673521Y-78482635D01*
X65701987Y-78529088D01*
X65848250Y-78697938D01*
X66020126Y-78840632D01*
X66066259Y-78867590D01*
X66093445Y-78883476D01*
X66142169Y-78935114D01*
X66155240Y-79004897D01*
X66128509Y-79070669D01*
X66088055Y-79104027D01*
X66075607Y-79110507D01*
X66071474Y-79113610D01*
X66071471Y-79113612D01*
X66047247Y-79131800D01*
X65896965Y-79244635D01*
X65742629Y-79406138D01*
X65739715Y-79410410D01*
X65739714Y-79410411D01*
X65679524Y-79498646D01*
X65616743Y-79590680D01*
X65522688Y-79793305D01*
X65462989Y-80008570D01*
X65439251Y-80230695D01*
X49676500Y-80230695D01*
X49676500Y-77724000D01*
X61297502Y-77724000D01*
X61317457Y-77952087D01*
X61318881Y-77957400D01*
X61318881Y-77957402D01*
X61366851Y-78136425D01*
X61376716Y-78173243D01*
X61379039Y-78178224D01*
X61379039Y-78178225D01*
X61471151Y-78375762D01*
X61471154Y-78375767D01*
X61473477Y-78380749D01*
X61476634Y-78385257D01*
X61580078Y-78532990D01*
X61604802Y-78568300D01*
X61766700Y-78730198D01*
X61771208Y-78733355D01*
X61771211Y-78733357D01*
X61811445Y-78761529D01*
X61954251Y-78861523D01*
X61959233Y-78863846D01*
X61959238Y-78863849D01*
X62078618Y-78919516D01*
X62161757Y-78958284D01*
X62167065Y-78959706D01*
X62167067Y-78959707D01*
X62377598Y-79016119D01*
X62377600Y-79016119D01*
X62382913Y-79017543D01*
X62611000Y-79037498D01*
X62839087Y-79017543D01*
X62844400Y-79016119D01*
X62844402Y-79016119D01*
X63054933Y-78959707D01*
X63054935Y-78959706D01*
X63060243Y-78958284D01*
X63143382Y-78919516D01*
X63262762Y-78863849D01*
X63262767Y-78863846D01*
X63267749Y-78861523D01*
X63410555Y-78761529D01*
X63450789Y-78733357D01*
X63450792Y-78733355D01*
X63455300Y-78730198D01*
X63617198Y-78568300D01*
X63641923Y-78532990D01*
X63745366Y-78385257D01*
X63748523Y-78380749D01*
X63750846Y-78375767D01*
X63750849Y-78375762D01*
X63842961Y-78178225D01*
X63842961Y-78178224D01*
X63845284Y-78173243D01*
X63855150Y-78136425D01*
X63903119Y-77957402D01*
X63903119Y-77957400D01*
X63904543Y-77952087D01*
X63924498Y-77724000D01*
X63904543Y-77495913D01*
X63897281Y-77468811D01*
X63846707Y-77280067D01*
X63846706Y-77280065D01*
X63845284Y-77274757D01*
X63842961Y-77269775D01*
X63750849Y-77072238D01*
X63750846Y-77072233D01*
X63748523Y-77067251D01*
X63647911Y-76923562D01*
X63620357Y-76884211D01*
X63620355Y-76884208D01*
X63617198Y-76879700D01*
X63455300Y-76717802D01*
X63450792Y-76714645D01*
X63450789Y-76714643D01*
X63281553Y-76596143D01*
X63267749Y-76586477D01*
X63262767Y-76584154D01*
X63262762Y-76584151D01*
X63065225Y-76492039D01*
X63065224Y-76492039D01*
X63060243Y-76489716D01*
X63054935Y-76488294D01*
X63054933Y-76488293D01*
X62844402Y-76431881D01*
X62844400Y-76431881D01*
X62839087Y-76430457D01*
X62611000Y-76410502D01*
X62382913Y-76430457D01*
X62377600Y-76431881D01*
X62377598Y-76431881D01*
X62167067Y-76488293D01*
X62167065Y-76488294D01*
X62161757Y-76489716D01*
X62156776Y-76492039D01*
X62156775Y-76492039D01*
X61959238Y-76584151D01*
X61959233Y-76584154D01*
X61954251Y-76586477D01*
X61940447Y-76596143D01*
X61771211Y-76714643D01*
X61771208Y-76714645D01*
X61766700Y-76717802D01*
X61604802Y-76879700D01*
X61601645Y-76884208D01*
X61601643Y-76884211D01*
X61574089Y-76923562D01*
X61473477Y-77067251D01*
X61471154Y-77072233D01*
X61471151Y-77072238D01*
X61379039Y-77269775D01*
X61376716Y-77274757D01*
X61375294Y-77280065D01*
X61375293Y-77280067D01*
X61324719Y-77468811D01*
X61317457Y-77495913D01*
X61297502Y-77724000D01*
X49676500Y-77724000D01*
X49676500Y-75174000D01*
X52036502Y-75174000D01*
X52056457Y-75402087D01*
X52057881Y-75407400D01*
X52057881Y-75407402D01*
X52106209Y-75587761D01*
X52115716Y-75623243D01*
X52118039Y-75628224D01*
X52118039Y-75628225D01*
X52210151Y-75825762D01*
X52210154Y-75825767D01*
X52212477Y-75830749D01*
X52285902Y-75935611D01*
X52310805Y-75971175D01*
X52343802Y-76018300D01*
X52505700Y-76180198D01*
X52510208Y-76183355D01*
X52510211Y-76183357D01*
X52576913Y-76230062D01*
X52693251Y-76311523D01*
X52698233Y-76313846D01*
X52698238Y-76313849D01*
X52895775Y-76405961D01*
X52900757Y-76408284D01*
X52906065Y-76409706D01*
X52906067Y-76409707D01*
X53116598Y-76466119D01*
X53116600Y-76466119D01*
X53121913Y-76467543D01*
X53350000Y-76487498D01*
X53578087Y-76467543D01*
X53583400Y-76466119D01*
X53583402Y-76466119D01*
X53793933Y-76409707D01*
X53793935Y-76409706D01*
X53799243Y-76408284D01*
X53804225Y-76405961D01*
X54001762Y-76313849D01*
X54001767Y-76313846D01*
X54006749Y-76311523D01*
X54123087Y-76230062D01*
X56428493Y-76230062D01*
X56437789Y-76242077D01*
X56488994Y-76277931D01*
X56498489Y-76283414D01*
X56695947Y-76375490D01*
X56706239Y-76379236D01*
X56916688Y-76435625D01*
X56927481Y-76437528D01*
X57144525Y-76456517D01*
X57155475Y-76456517D01*
X57372519Y-76437528D01*
X57383312Y-76435625D01*
X57593761Y-76379236D01*
X57604053Y-76375490D01*
X57801511Y-76283414D01*
X57811006Y-76277931D01*
X57863048Y-76241491D01*
X57871424Y-76231012D01*
X57864356Y-76217566D01*
X57162812Y-75516022D01*
X57148868Y-75508408D01*
X57147035Y-75508539D01*
X57140420Y-75512790D01*
X56434923Y-76218287D01*
X56428493Y-76230062D01*
X54123087Y-76230062D01*
X54189789Y-76183357D01*
X54189792Y-76183355D01*
X54194300Y-76180198D01*
X54356198Y-76018300D01*
X54389196Y-75971175D01*
X54414098Y-75935611D01*
X54487523Y-75830749D01*
X54489846Y-75825767D01*
X54489849Y-75825762D01*
X54581961Y-75628225D01*
X54581961Y-75628224D01*
X54584284Y-75623243D01*
X54593792Y-75587761D01*
X54642119Y-75407402D01*
X54642119Y-75407400D01*
X54643543Y-75402087D01*
X54663498Y-75174000D01*
X54661352Y-75149475D01*
X55837483Y-75149475D01*
X55856472Y-75366519D01*
X55858375Y-75377312D01*
X55914764Y-75587761D01*
X55918510Y-75598053D01*
X56010586Y-75795511D01*
X56016069Y-75805006D01*
X56052509Y-75857048D01*
X56062988Y-75865424D01*
X56076434Y-75858356D01*
X56777978Y-75156812D01*
X56784356Y-75145132D01*
X57514408Y-75145132D01*
X57514539Y-75146965D01*
X57518790Y-75153580D01*
X58224287Y-75859077D01*
X58236062Y-75865507D01*
X58248077Y-75856211D01*
X58283931Y-75805006D01*
X58289414Y-75795511D01*
X58381490Y-75598053D01*
X58385236Y-75587761D01*
X58441625Y-75377312D01*
X58443528Y-75366519D01*
X58462517Y-75149475D01*
X58462517Y-75138525D01*
X58443528Y-74921481D01*
X58441625Y-74910688D01*
X58385236Y-74700239D01*
X58381490Y-74689947D01*
X58289414Y-74492489D01*
X58283931Y-74482994D01*
X58247491Y-74430952D01*
X58237012Y-74422576D01*
X58223566Y-74429644D01*
X57522022Y-75131188D01*
X57514408Y-75145132D01*
X56784356Y-75145132D01*
X56785592Y-75142868D01*
X56785461Y-75141035D01*
X56781210Y-75134420D01*
X56075713Y-74428923D01*
X56063938Y-74422493D01*
X56051923Y-74431789D01*
X56016069Y-74482994D01*
X56010586Y-74492489D01*
X55918510Y-74689947D01*
X55914764Y-74700239D01*
X55858375Y-74910688D01*
X55856472Y-74921481D01*
X55837483Y-75138525D01*
X55837483Y-75149475D01*
X54661352Y-75149475D01*
X54643543Y-74945913D01*
X54642119Y-74940598D01*
X54585707Y-74730067D01*
X54585706Y-74730065D01*
X54584284Y-74724757D01*
X54572256Y-74698962D01*
X54489849Y-74522238D01*
X54489846Y-74522233D01*
X54487523Y-74517251D01*
X54356198Y-74329700D01*
X54194300Y-74167802D01*
X54189792Y-74164645D01*
X54189789Y-74164643D01*
X54079324Y-74087295D01*
X54036041Y-74056988D01*
X56428576Y-74056988D01*
X56435644Y-74070434D01*
X57137188Y-74771978D01*
X57151132Y-74779592D01*
X57152965Y-74779461D01*
X57159580Y-74775210D01*
X57865077Y-74069713D01*
X57871507Y-74057938D01*
X57862211Y-74045923D01*
X57811006Y-74010069D01*
X57801511Y-74004586D01*
X57604053Y-73912510D01*
X57593761Y-73908764D01*
X57383312Y-73852375D01*
X57372519Y-73850472D01*
X57155475Y-73831483D01*
X57144525Y-73831483D01*
X56927481Y-73850472D01*
X56916688Y-73852375D01*
X56706239Y-73908764D01*
X56695947Y-73912510D01*
X56498489Y-74004586D01*
X56488994Y-74010069D01*
X56436952Y-74046509D01*
X56428576Y-74056988D01*
X54036041Y-74056988D01*
X54006749Y-74036477D01*
X54001767Y-74034154D01*
X54001762Y-74034151D01*
X53966951Y-74017919D01*
X53913666Y-73971002D01*
X53894205Y-73902725D01*
X53914747Y-73834765D01*
X53966951Y-73789529D01*
X54001511Y-73773414D01*
X54011007Y-73767931D01*
X54189467Y-73642972D01*
X54197875Y-73635916D01*
X54351916Y-73481875D01*
X54358972Y-73473467D01*
X54483931Y-73295007D01*
X54489414Y-73285511D01*
X54581490Y-73088053D01*
X54585236Y-73077761D01*
X54631394Y-72905497D01*
X54631058Y-72891401D01*
X54623116Y-72888000D01*
X52082033Y-72888000D01*
X52068502Y-72891973D01*
X52067273Y-72900522D01*
X52114764Y-73077761D01*
X52118510Y-73088053D01*
X52210586Y-73285511D01*
X52216069Y-73295007D01*
X52341028Y-73473467D01*
X52348084Y-73481875D01*
X52502125Y-73635916D01*
X52510533Y-73642972D01*
X52688993Y-73767931D01*
X52698489Y-73773414D01*
X52733049Y-73789529D01*
X52786334Y-73836446D01*
X52805795Y-73904723D01*
X52785253Y-73972683D01*
X52733049Y-74017919D01*
X52698238Y-74034151D01*
X52698233Y-74034154D01*
X52693251Y-74036477D01*
X52620676Y-74087295D01*
X52510211Y-74164643D01*
X52510208Y-74164645D01*
X52505700Y-74167802D01*
X52343802Y-74329700D01*
X52212477Y-74517251D01*
X52210154Y-74522233D01*
X52210151Y-74522238D01*
X52127744Y-74698962D01*
X52115716Y-74724757D01*
X52114294Y-74730065D01*
X52114293Y-74730067D01*
X52057881Y-74940598D01*
X52056457Y-74945913D01*
X52036502Y-75174000D01*
X49676500Y-75174000D01*
X49676500Y-73580503D01*
X49696502Y-73512382D01*
X49713405Y-73491408D01*
X52165408Y-71039405D01*
X52227720Y-71005379D01*
X52254503Y-71002500D01*
X52355812Y-71002500D01*
X52423933Y-71022502D01*
X52444907Y-71039405D01*
X52505700Y-71100198D01*
X52510208Y-71103355D01*
X52510211Y-71103357D01*
X52551542Y-71132297D01*
X52693251Y-71231523D01*
X52698233Y-71233846D01*
X52698238Y-71233849D01*
X52733049Y-71250081D01*
X52786334Y-71296998D01*
X52805795Y-71365275D01*
X52785253Y-71433235D01*
X52733049Y-71478471D01*
X52698489Y-71494586D01*
X52688993Y-71500069D01*
X52510533Y-71625028D01*
X52502125Y-71632084D01*
X52348084Y-71786125D01*
X52341028Y-71794533D01*
X52216069Y-71972993D01*
X52210586Y-71982489D01*
X52118510Y-72179947D01*
X52114764Y-72190239D01*
X52068606Y-72362503D01*
X52068942Y-72376599D01*
X52076884Y-72380000D01*
X54617967Y-72380000D01*
X54631498Y-72376027D01*
X54632727Y-72367478D01*
X54585236Y-72190239D01*
X54581490Y-72179947D01*
X54489414Y-71982489D01*
X54483931Y-71972993D01*
X54358972Y-71794533D01*
X54351916Y-71786125D01*
X54197875Y-71632084D01*
X54189467Y-71625028D01*
X54011007Y-71500069D01*
X54001511Y-71494586D01*
X53966951Y-71478471D01*
X53913666Y-71431554D01*
X53894205Y-71363277D01*
X53914747Y-71295317D01*
X53966951Y-71250081D01*
X54001762Y-71233849D01*
X54001767Y-71233846D01*
X54006749Y-71231523D01*
X54148458Y-71132297D01*
X54189789Y-71103357D01*
X54189792Y-71103355D01*
X54194300Y-71100198D01*
X54356198Y-70938300D01*
X54389983Y-70890051D01*
X54450263Y-70803961D01*
X54487523Y-70750749D01*
X54489846Y-70745767D01*
X54489849Y-70745762D01*
X54581961Y-70548225D01*
X54581961Y-70548224D01*
X54584284Y-70543243D01*
X54603680Y-70470859D01*
X54642119Y-70327402D01*
X54642119Y-70327400D01*
X54643543Y-70322087D01*
X54659124Y-70144000D01*
X55836502Y-70144000D01*
X55856457Y-70372087D01*
X55857881Y-70377400D01*
X55857881Y-70377402D01*
X55909847Y-70571338D01*
X55915716Y-70593243D01*
X55918039Y-70598224D01*
X55918039Y-70598225D01*
X56010151Y-70795762D01*
X56010154Y-70795767D01*
X56012477Y-70800749D01*
X56053636Y-70859530D01*
X56116086Y-70948717D01*
X56143802Y-70988300D01*
X56305700Y-71150198D01*
X56310208Y-71153355D01*
X56310211Y-71153357D01*
X56383110Y-71204401D01*
X56493251Y-71281523D01*
X56498233Y-71283846D01*
X56498238Y-71283849D01*
X56662934Y-71360647D01*
X56700757Y-71378284D01*
X56706065Y-71379706D01*
X56706067Y-71379707D01*
X56916598Y-71436119D01*
X56916600Y-71436119D01*
X56921913Y-71437543D01*
X57150000Y-71457498D01*
X57378087Y-71437543D01*
X57383400Y-71436119D01*
X57383402Y-71436119D01*
X57593933Y-71379707D01*
X57593935Y-71379706D01*
X57599243Y-71378284D01*
X57637066Y-71360647D01*
X57801762Y-71283849D01*
X57801767Y-71283846D01*
X57806749Y-71281523D01*
X57916890Y-71204401D01*
X57989789Y-71153357D01*
X57989792Y-71153355D01*
X57994300Y-71150198D01*
X58156198Y-70988300D01*
X58183915Y-70948717D01*
X58246364Y-70859530D01*
X58287523Y-70800749D01*
X58289846Y-70795767D01*
X58289849Y-70795762D01*
X58381961Y-70598225D01*
X58381961Y-70598224D01*
X58384284Y-70593243D01*
X58390154Y-70571338D01*
X58442119Y-70377402D01*
X58442119Y-70377400D01*
X58443543Y-70372087D01*
X58463498Y-70144000D01*
X58459998Y-70104000D01*
X61297502Y-70104000D01*
X61317457Y-70332087D01*
X61318881Y-70337400D01*
X61318881Y-70337402D01*
X61372614Y-70537933D01*
X61376716Y-70553243D01*
X61379039Y-70558224D01*
X61379039Y-70558225D01*
X61471151Y-70755762D01*
X61471154Y-70755767D01*
X61473477Y-70760749D01*
X61532418Y-70844925D01*
X61600529Y-70942197D01*
X61604802Y-70948300D01*
X61766700Y-71110198D01*
X61771208Y-71113355D01*
X61771211Y-71113357D01*
X61810268Y-71140705D01*
X61954251Y-71241523D01*
X61959233Y-71243846D01*
X61959238Y-71243849D01*
X62156775Y-71335961D01*
X62161757Y-71338284D01*
X62167065Y-71339706D01*
X62167067Y-71339707D01*
X62377598Y-71396119D01*
X62377600Y-71396119D01*
X62382913Y-71397543D01*
X62611000Y-71417498D01*
X62839087Y-71397543D01*
X62844400Y-71396119D01*
X62844402Y-71396119D01*
X63054933Y-71339707D01*
X63054935Y-71339706D01*
X63060243Y-71338284D01*
X63065225Y-71335961D01*
X63262762Y-71243849D01*
X63262767Y-71243846D01*
X63267749Y-71241523D01*
X63411732Y-71140705D01*
X63450789Y-71113357D01*
X63450792Y-71113355D01*
X63455300Y-71110198D01*
X63617198Y-70948300D01*
X63621472Y-70942197D01*
X63689582Y-70844925D01*
X63748523Y-70760749D01*
X63750846Y-70755767D01*
X63750849Y-70755762D01*
X63842961Y-70558225D01*
X63842961Y-70558224D01*
X63845284Y-70553243D01*
X63849387Y-70537933D01*
X63903119Y-70337402D01*
X63903119Y-70337400D01*
X63904543Y-70332087D01*
X63924498Y-70104000D01*
X63904543Y-69875913D01*
X63903119Y-69870598D01*
X63846707Y-69660067D01*
X63846706Y-69660065D01*
X63845284Y-69654757D01*
X63785499Y-69526547D01*
X63750849Y-69452238D01*
X63750846Y-69452233D01*
X63748523Y-69447251D01*
X63647911Y-69303562D01*
X63620357Y-69264211D01*
X63620355Y-69264208D01*
X63617198Y-69259700D01*
X63455300Y-69097802D01*
X63450792Y-69094645D01*
X63450789Y-69094643D01*
X63346397Y-69021547D01*
X63267749Y-68966477D01*
X63262767Y-68964154D01*
X63262762Y-68964151D01*
X63065225Y-68872039D01*
X63065224Y-68872039D01*
X63060243Y-68869716D01*
X63054935Y-68868294D01*
X63054933Y-68868293D01*
X62844402Y-68811881D01*
X62844400Y-68811881D01*
X62839087Y-68810457D01*
X62611000Y-68790502D01*
X62382913Y-68810457D01*
X62377600Y-68811881D01*
X62377598Y-68811881D01*
X62167067Y-68868293D01*
X62167065Y-68868294D01*
X62161757Y-68869716D01*
X62156776Y-68872039D01*
X62156775Y-68872039D01*
X61959238Y-68964151D01*
X61959233Y-68964154D01*
X61954251Y-68966477D01*
X61875603Y-69021547D01*
X61771211Y-69094643D01*
X61771208Y-69094645D01*
X61766700Y-69097802D01*
X61604802Y-69259700D01*
X61601645Y-69264208D01*
X61601643Y-69264211D01*
X61574089Y-69303562D01*
X61473477Y-69447251D01*
X61471154Y-69452233D01*
X61471151Y-69452238D01*
X61436501Y-69526547D01*
X61376716Y-69654757D01*
X61375294Y-69660065D01*
X61375293Y-69660067D01*
X61318881Y-69870598D01*
X61317457Y-69875913D01*
X61297502Y-70104000D01*
X58459998Y-70104000D01*
X58443543Y-69915913D01*
X58438364Y-69896585D01*
X58385707Y-69700067D01*
X58385706Y-69700065D01*
X58384284Y-69694757D01*
X58312606Y-69541041D01*
X58289849Y-69492238D01*
X58289846Y-69492233D01*
X58287523Y-69487251D01*
X58185817Y-69342000D01*
X58159357Y-69304211D01*
X58159355Y-69304208D01*
X58156198Y-69299700D01*
X57994300Y-69137802D01*
X57989792Y-69134645D01*
X57989789Y-69134643D01*
X57877051Y-69055703D01*
X57806749Y-69006477D01*
X57801767Y-69004154D01*
X57801762Y-69004151D01*
X57604225Y-68912039D01*
X57604224Y-68912039D01*
X57599243Y-68909716D01*
X57593935Y-68908294D01*
X57593933Y-68908293D01*
X57383402Y-68851881D01*
X57383400Y-68851881D01*
X57378087Y-68850457D01*
X57150000Y-68830502D01*
X56921913Y-68850457D01*
X56916600Y-68851881D01*
X56916598Y-68851881D01*
X56706067Y-68908293D01*
X56706065Y-68908294D01*
X56700757Y-68909716D01*
X56695776Y-68912039D01*
X56695775Y-68912039D01*
X56498238Y-69004151D01*
X56498233Y-69004154D01*
X56493251Y-69006477D01*
X56422949Y-69055703D01*
X56310211Y-69134643D01*
X56310208Y-69134645D01*
X56305700Y-69137802D01*
X56143802Y-69299700D01*
X56140645Y-69304208D01*
X56140643Y-69304211D01*
X56114183Y-69342000D01*
X56012477Y-69487251D01*
X56010154Y-69492233D01*
X56010151Y-69492238D01*
X55987394Y-69541041D01*
X55915716Y-69694757D01*
X55914294Y-69700065D01*
X55914293Y-69700067D01*
X55861636Y-69896585D01*
X55856457Y-69915913D01*
X55836502Y-70144000D01*
X54659124Y-70144000D01*
X54663498Y-70094000D01*
X54643543Y-69865913D01*
X54611036Y-69744596D01*
X54585707Y-69650067D01*
X54585706Y-69650065D01*
X54584284Y-69644757D01*
X54529162Y-69526547D01*
X54489849Y-69442238D01*
X54489846Y-69442233D01*
X54487523Y-69437251D01*
X54393913Y-69303562D01*
X54359357Y-69254211D01*
X54359355Y-69254208D01*
X54356198Y-69249700D01*
X54194300Y-69087802D01*
X54189792Y-69084645D01*
X54189789Y-69084643D01*
X54099674Y-69021544D01*
X54006749Y-68956477D01*
X54001767Y-68954154D01*
X54001762Y-68954151D01*
X53804225Y-68862039D01*
X53804224Y-68862039D01*
X53799243Y-68859716D01*
X53793935Y-68858294D01*
X53793933Y-68858293D01*
X53583402Y-68801881D01*
X53583400Y-68801881D01*
X53578087Y-68800457D01*
X53350000Y-68780502D01*
X53121913Y-68800457D01*
X53116600Y-68801881D01*
X53116598Y-68801881D01*
X52906067Y-68858293D01*
X52906065Y-68858294D01*
X52900757Y-68859716D01*
X52895776Y-68862039D01*
X52895775Y-68862039D01*
X52698238Y-68954151D01*
X52698233Y-68954154D01*
X52693251Y-68956477D01*
X52600326Y-69021544D01*
X52510211Y-69084643D01*
X52510208Y-69084645D01*
X52505700Y-69087802D01*
X52444907Y-69148595D01*
X52382595Y-69182621D01*
X52355812Y-69185500D01*
X51907417Y-69185500D01*
X51887708Y-69183949D01*
X51873810Y-69181748D01*
X51867223Y-69182093D01*
X51867218Y-69182093D01*
X51805519Y-69185327D01*
X51798925Y-69185500D01*
X51778390Y-69185500D01*
X51772222Y-69186148D01*
X51757960Y-69187647D01*
X51751385Y-69188164D01*
X51689696Y-69191397D01*
X51689695Y-69191397D01*
X51683096Y-69191743D01*
X51669508Y-69195384D01*
X51650061Y-69198988D01*
X51642644Y-69199767D01*
X51642640Y-69199768D01*
X51636072Y-69200458D01*
X51599623Y-69212301D01*
X51571009Y-69221598D01*
X51564685Y-69223471D01*
X51505010Y-69239461D01*
X51505006Y-69239462D01*
X51498630Y-69241171D01*
X51488529Y-69246318D01*
X51486093Y-69247559D01*
X51467826Y-69255125D01*
X51460728Y-69257431D01*
X51460726Y-69257432D01*
X51454444Y-69259473D01*
X51448722Y-69262776D01*
X51448721Y-69262777D01*
X51395218Y-69293667D01*
X51389423Y-69296814D01*
X51328470Y-69327871D01*
X51323342Y-69332024D01*
X51323340Y-69332025D01*
X51317534Y-69336727D01*
X51301237Y-69347927D01*
X51294776Y-69351657D01*
X51294772Y-69351660D01*
X51289056Y-69354960D01*
X51284150Y-69359377D01*
X51284145Y-69359381D01*
X51238231Y-69400722D01*
X51233216Y-69405006D01*
X51224718Y-69411888D01*
X51217259Y-69417928D01*
X51202744Y-69432443D01*
X51197959Y-69436984D01*
X51147134Y-69482747D01*
X51143255Y-69488086D01*
X51143254Y-69488087D01*
X51138860Y-69494135D01*
X51126019Y-69509168D01*
X48183168Y-72452019D01*
X48168135Y-72464860D01*
X48156747Y-72473134D01*
X48152327Y-72478043D01*
X48110984Y-72523959D01*
X48106443Y-72528744D01*
X48091928Y-72543259D01*
X48089852Y-72545823D01*
X48079006Y-72559216D01*
X48074722Y-72564231D01*
X48033381Y-72610145D01*
X48033377Y-72610150D01*
X48028960Y-72615056D01*
X48025660Y-72620772D01*
X48025657Y-72620776D01*
X48021927Y-72627237D01*
X48010727Y-72643533D01*
X48001871Y-72654470D01*
X47983263Y-72690990D01*
X47970815Y-72715421D01*
X47967667Y-72721218D01*
X47941644Y-72766292D01*
X47933473Y-72780444D01*
X47931432Y-72786726D01*
X47931431Y-72786728D01*
X47929125Y-72793826D01*
X47921560Y-72812092D01*
X47915171Y-72824630D01*
X47913463Y-72831003D01*
X47913463Y-72831004D01*
X47897469Y-72890695D01*
X47895600Y-72897003D01*
X47874458Y-72962072D01*
X47873768Y-72968637D01*
X47873766Y-72968646D01*
X47872985Y-72976075D01*
X47869383Y-72995509D01*
X47867453Y-73002714D01*
X47865743Y-73009097D01*
X47865398Y-73015688D01*
X47865397Y-73015692D01*
X47862164Y-73077384D01*
X47861647Y-73083958D01*
X47861217Y-73088053D01*
X47859500Y-73104390D01*
X47859500Y-73124926D01*
X47859327Y-73131520D01*
X47855748Y-73199810D01*
X47856780Y-73206325D01*
X47857949Y-73213705D01*
X47859500Y-73233417D01*
X47859500Y-103550583D01*
X47857949Y-103570292D01*
X47855748Y-103584190D01*
X44883806Y-103584190D01*
X44817005Y-103534125D01*
X44680616Y-103482995D01*
X44618434Y-103476240D01*
X40522166Y-103476240D01*
X40459984Y-103482995D01*
X40323595Y-103534125D01*
X40207039Y-103621479D01*
X40119685Y-103738035D01*
X40068555Y-103874424D01*
X40061800Y-103936606D01*
X40061800Y-106532874D01*
X39532500Y-106532874D01*
X39532500Y-96977394D01*
X40061800Y-96977394D01*
X40068555Y-97039576D01*
X40119685Y-97175965D01*
X40207039Y-97292521D01*
X40323595Y-97379875D01*
X40459984Y-97431005D01*
X40522166Y-97437760D01*
X44618434Y-97437760D01*
X44680616Y-97431005D01*
X44817005Y-97379875D01*
X44933561Y-97292521D01*
X45020915Y-97175965D01*
X45072045Y-97039576D01*
X45078800Y-96977394D01*
X45078800Y-94381126D01*
X45072045Y-94318944D01*
X45020915Y-94182555D01*
X44933561Y-94065999D01*
X44817005Y-93978645D01*
X44680616Y-93927515D01*
X44618434Y-93920760D01*
X40522166Y-93920760D01*
X40459984Y-93927515D01*
X40323595Y-93978645D01*
X40207039Y-94065999D01*
X40119685Y-94182555D01*
X40068555Y-94318944D01*
X40061800Y-94381126D01*
X40061800Y-96977394D01*
X39532500Y-96977394D01*
X39532500Y-86974874D01*
X40131800Y-86974874D01*
X40138555Y-87037056D01*
X40189685Y-87173445D01*
X40277039Y-87290001D01*
X40393595Y-87377355D01*
X40529984Y-87428485D01*
X40592166Y-87435240D01*
X44688434Y-87435240D01*
X44750616Y-87428485D01*
X44887005Y-87377355D01*
X45003561Y-87290001D01*
X45090915Y-87173445D01*
X45142045Y-87037056D01*
X45148800Y-86974874D01*
X45148800Y-84378606D01*
X45142045Y-84316424D01*
X45090915Y-84180035D01*
X45003561Y-84063479D01*
X44887005Y-83976125D01*
X44750616Y-83924995D01*
X44688434Y-83918240D01*
X40592166Y-83918240D01*
X40529984Y-83924995D01*
X40393595Y-83976125D01*
X40277039Y-84063479D01*
X40189685Y-84180035D01*
X40138555Y-84316424D01*
X40131800Y-84378606D01*
X40131800Y-86974874D01*
X39532500Y-86974874D01*
X39532500Y-77724000D01*
X40850502Y-77724000D01*
X40870457Y-77952087D01*
X40871881Y-77957400D01*
X40871881Y-77957402D01*
X40919851Y-78136425D01*
X40929716Y-78173243D01*
X40932039Y-78178224D01*
X40932039Y-78178225D01*
X41024151Y-78375762D01*
X41024154Y-78375767D01*
X41026477Y-78380749D01*
X41029634Y-78385257D01*
X41133078Y-78532990D01*
X41157802Y-78568300D01*
X41319700Y-78730198D01*
X41324208Y-78733355D01*
X41324211Y-78733357D01*
X41364445Y-78761529D01*
X41507251Y-78861523D01*
X41512233Y-78863846D01*
X41512238Y-78863849D01*
X41631618Y-78919516D01*
X41714757Y-78958284D01*
X41720065Y-78959706D01*
X41720067Y-78959707D01*
X41930598Y-79016119D01*
X41930600Y-79016119D01*
X41935913Y-79017543D01*
X42164000Y-79037498D01*
X42392087Y-79017543D01*
X42397400Y-79016119D01*
X42397402Y-79016119D01*
X42607933Y-78959707D01*
X42607935Y-78959706D01*
X42613243Y-78958284D01*
X42696382Y-78919516D01*
X42815762Y-78863849D01*
X42815767Y-78863846D01*
X42820749Y-78861523D01*
X42963555Y-78761529D01*
X43003789Y-78733357D01*
X43003792Y-78733355D01*
X43008300Y-78730198D01*
X43170198Y-78568300D01*
X43194923Y-78532990D01*
X43298366Y-78385257D01*
X43301523Y-78380749D01*
X43303846Y-78375767D01*
X43303849Y-78375762D01*
X43395961Y-78178225D01*
X43395961Y-78178224D01*
X43398284Y-78173243D01*
X43408150Y-78136425D01*
X43456119Y-77957402D01*
X43456119Y-77957400D01*
X43457543Y-77952087D01*
X43477498Y-77724000D01*
X43457543Y-77495913D01*
X43450281Y-77468811D01*
X43399707Y-77280067D01*
X43399706Y-77280065D01*
X43398284Y-77274757D01*
X43395961Y-77269775D01*
X43303849Y-77072238D01*
X43303846Y-77072233D01*
X43301523Y-77067251D01*
X43200911Y-76923562D01*
X43173357Y-76884211D01*
X43173355Y-76884208D01*
X43170198Y-76879700D01*
X43008300Y-76717802D01*
X43003792Y-76714645D01*
X43003789Y-76714643D01*
X42834553Y-76596143D01*
X42820749Y-76586477D01*
X42815767Y-76584154D01*
X42815762Y-76584151D01*
X42618225Y-76492039D01*
X42618224Y-76492039D01*
X42613243Y-76489716D01*
X42607935Y-76488294D01*
X42607933Y-76488293D01*
X42397402Y-76431881D01*
X42397400Y-76431881D01*
X42392087Y-76430457D01*
X42164000Y-76410502D01*
X41935913Y-76430457D01*
X41930600Y-76431881D01*
X41930598Y-76431881D01*
X41720067Y-76488293D01*
X41720065Y-76488294D01*
X41714757Y-76489716D01*
X41709776Y-76492039D01*
X41709775Y-76492039D01*
X41512238Y-76584151D01*
X41512233Y-76584154D01*
X41507251Y-76586477D01*
X41493447Y-76596143D01*
X41324211Y-76714643D01*
X41324208Y-76714645D01*
X41319700Y-76717802D01*
X41157802Y-76879700D01*
X41154645Y-76884208D01*
X41154643Y-76884211D01*
X41127089Y-76923562D01*
X41026477Y-77067251D01*
X41024154Y-77072233D01*
X41024151Y-77072238D01*
X40932039Y-77269775D01*
X40929716Y-77274757D01*
X40928294Y-77280065D01*
X40928293Y-77280067D01*
X40877719Y-77468811D01*
X40870457Y-77495913D01*
X40850502Y-77724000D01*
X39532500Y-77724000D01*
X39532500Y-75174000D01*
X44416502Y-75174000D01*
X44436457Y-75402087D01*
X44437881Y-75407400D01*
X44437881Y-75407402D01*
X44486209Y-75587761D01*
X44495716Y-75623243D01*
X44498039Y-75628224D01*
X44498039Y-75628225D01*
X44590151Y-75825762D01*
X44590154Y-75825767D01*
X44592477Y-75830749D01*
X44665902Y-75935611D01*
X44690805Y-75971175D01*
X44723802Y-76018300D01*
X44885700Y-76180198D01*
X44890208Y-76183355D01*
X44890211Y-76183357D01*
X44956913Y-76230062D01*
X45073251Y-76311523D01*
X45078233Y-76313846D01*
X45078238Y-76313849D01*
X45275775Y-76405961D01*
X45280757Y-76408284D01*
X45286065Y-76409706D01*
X45286067Y-76409707D01*
X45496598Y-76466119D01*
X45496600Y-76466119D01*
X45501913Y-76467543D01*
X45730000Y-76487498D01*
X45958087Y-76467543D01*
X45963400Y-76466119D01*
X45963402Y-76466119D01*
X46173933Y-76409707D01*
X46173935Y-76409706D01*
X46179243Y-76408284D01*
X46184225Y-76405961D01*
X46381762Y-76313849D01*
X46381767Y-76313846D01*
X46386749Y-76311523D01*
X46503087Y-76230062D01*
X46569789Y-76183357D01*
X46569792Y-76183355D01*
X46574300Y-76180198D01*
X46736198Y-76018300D01*
X46769196Y-75971175D01*
X46794098Y-75935611D01*
X46867523Y-75830749D01*
X46869846Y-75825767D01*
X46869849Y-75825762D01*
X46961961Y-75628225D01*
X46961961Y-75628224D01*
X46964284Y-75623243D01*
X46973792Y-75587761D01*
X47022119Y-75407402D01*
X47022119Y-75407400D01*
X47023543Y-75402087D01*
X47043498Y-75174000D01*
X47023543Y-74945913D01*
X47022119Y-74940598D01*
X46965707Y-74730067D01*
X46965706Y-74730065D01*
X46964284Y-74724757D01*
X46952256Y-74698962D01*
X46869849Y-74522238D01*
X46869846Y-74522233D01*
X46867523Y-74517251D01*
X46736198Y-74329700D01*
X46574300Y-74167802D01*
X46569792Y-74164645D01*
X46569789Y-74164643D01*
X46459324Y-74087295D01*
X46386749Y-74036477D01*
X46381767Y-74034154D01*
X46381762Y-74034151D01*
X46347543Y-74018195D01*
X46294258Y-73971278D01*
X46274797Y-73903001D01*
X46295339Y-73835041D01*
X46347543Y-73789805D01*
X46381762Y-73773849D01*
X46381767Y-73773846D01*
X46386749Y-73771523D01*
X46517187Y-73680189D01*
X46569789Y-73643357D01*
X46569792Y-73643355D01*
X46574300Y-73640198D01*
X46736198Y-73478300D01*
X46742186Y-73469749D01*
X46837276Y-73333946D01*
X46867523Y-73290749D01*
X46869846Y-73285767D01*
X46869849Y-73285762D01*
X46961961Y-73088225D01*
X46961961Y-73088224D01*
X46964284Y-73083243D01*
X46982385Y-73015692D01*
X47022119Y-72867402D01*
X47022119Y-72867400D01*
X47023543Y-72862087D01*
X47043498Y-72634000D01*
X47023543Y-72405913D01*
X47020204Y-72393453D01*
X46965707Y-72190067D01*
X46965706Y-72190065D01*
X46964284Y-72184757D01*
X46961961Y-72179775D01*
X46869849Y-71982238D01*
X46869846Y-71982233D01*
X46867523Y-71977251D01*
X46736198Y-71789700D01*
X46574300Y-71627802D01*
X46569789Y-71624643D01*
X46565576Y-71621108D01*
X46566527Y-71619974D01*
X46526529Y-71569929D01*
X46519224Y-71499310D01*
X46551258Y-71435951D01*
X46612462Y-71399970D01*
X46629517Y-71396918D01*
X46640316Y-71395745D01*
X46776705Y-71344615D01*
X46893261Y-71257261D01*
X46980615Y-71140705D01*
X47031745Y-71004316D01*
X47038500Y-70942134D01*
X47038500Y-69245866D01*
X47031745Y-69183684D01*
X46980615Y-69047295D01*
X46893261Y-68930739D01*
X46776705Y-68843385D01*
X46640316Y-68792255D01*
X46578134Y-68785500D01*
X44881866Y-68785500D01*
X44819684Y-68792255D01*
X44683295Y-68843385D01*
X44566739Y-68930739D01*
X44479385Y-69047295D01*
X44428255Y-69183684D01*
X44421500Y-69245866D01*
X44421500Y-70942134D01*
X44428255Y-71004316D01*
X44479385Y-71140705D01*
X44566739Y-71257261D01*
X44683295Y-71344615D01*
X44819684Y-71395745D01*
X44830474Y-71396917D01*
X44832606Y-71397803D01*
X44835222Y-71398425D01*
X44835121Y-71398848D01*
X44896035Y-71424155D01*
X44936463Y-71482517D01*
X44938922Y-71553471D01*
X44902629Y-71614490D01*
X44893969Y-71621489D01*
X44890207Y-71624646D01*
X44885700Y-71627802D01*
X44723802Y-71789700D01*
X44592477Y-71977251D01*
X44590154Y-71982233D01*
X44590151Y-71982238D01*
X44498039Y-72179775D01*
X44495716Y-72184757D01*
X44494294Y-72190065D01*
X44494293Y-72190067D01*
X44439796Y-72393453D01*
X44436457Y-72405913D01*
X44416502Y-72634000D01*
X44436457Y-72862087D01*
X44437881Y-72867400D01*
X44437881Y-72867402D01*
X44477616Y-73015692D01*
X44495716Y-73083243D01*
X44498039Y-73088224D01*
X44498039Y-73088225D01*
X44590151Y-73285762D01*
X44590154Y-73285767D01*
X44592477Y-73290749D01*
X44622724Y-73333946D01*
X44717815Y-73469749D01*
X44723802Y-73478300D01*
X44885700Y-73640198D01*
X44890208Y-73643355D01*
X44890211Y-73643357D01*
X44942813Y-73680189D01*
X45073251Y-73771523D01*
X45078233Y-73773846D01*
X45078238Y-73773849D01*
X45112457Y-73789805D01*
X45165742Y-73836722D01*
X45185203Y-73904999D01*
X45164661Y-73972959D01*
X45112457Y-74018195D01*
X45078238Y-74034151D01*
X45078233Y-74034154D01*
X45073251Y-74036477D01*
X45000676Y-74087295D01*
X44890211Y-74164643D01*
X44890208Y-74164645D01*
X44885700Y-74167802D01*
X44723802Y-74329700D01*
X44592477Y-74517251D01*
X44590154Y-74522233D01*
X44590151Y-74522238D01*
X44507744Y-74698962D01*
X44495716Y-74724757D01*
X44494294Y-74730065D01*
X44494293Y-74730067D01*
X44437881Y-74940598D01*
X44436457Y-74945913D01*
X44416502Y-75174000D01*
X39532500Y-75174000D01*
X39532500Y-70952134D01*
X40855500Y-70952134D01*
X40862255Y-71014316D01*
X40913385Y-71150705D01*
X41000739Y-71267261D01*
X41117295Y-71354615D01*
X41253684Y-71405745D01*
X41315866Y-71412500D01*
X43012134Y-71412500D01*
X43074316Y-71405745D01*
X43210705Y-71354615D01*
X43327261Y-71267261D01*
X43414615Y-71150705D01*
X43465745Y-71014316D01*
X43472500Y-70952134D01*
X43472500Y-69255866D01*
X43465745Y-69193684D01*
X43414615Y-69057295D01*
X43327261Y-68940739D01*
X43210705Y-68853385D01*
X43074316Y-68802255D01*
X43012134Y-68795500D01*
X41315866Y-68795500D01*
X41253684Y-68802255D01*
X41117295Y-68853385D01*
X41000739Y-68940739D01*
X40913385Y-69057295D01*
X40862255Y-69193684D01*
X40855500Y-69255866D01*
X40855500Y-70952134D01*
X39532500Y-70952134D01*
X39532500Y-68198500D01*
X39552502Y-68130379D01*
X39606158Y-68083886D01*
X39658500Y-68072500D01*
X73472445Y-68072500D01*
X73540566Y-68092502D01*
G37*
%TD.AperFunction*%
%TD*%
M02*
