M48
; DRILL file {KiCad 9.0.7} date 2026-04-29T10:54:38+0100
; FORMAT={-:-/ absolute / metric / decimal}
; #@! TF.CreationDate,2026-04-29T10:54:38+01:00
; #@! TF.GenerationSoftware,Kicad,Pcbnew,9.0.7
; #@! TF.FileFunction,MixedPlating,1,2
FMAT,2
METRIC
; #@! TA.AperFunction,Plated,PTH,ViaDrill
T1C0.300
; #@! TA.AperFunction,Plated,PTH,ComponentDrill
T2C0.800
; #@! TA.AperFunction,Plated,PTH,ComponentDrill
T3C1.000
%
G90
G05
T1
X53.021Y-53.848
X53.422Y-56.35
X53.848Y-58.928
X54.102Y-150.114
X54.224Y-61.43
X54.625Y-63.97
X55.026Y-66.51
X55.427Y-69.05
X55.88Y-71.628
X56.229Y-74.13
X56.63Y-76.67
X57.031Y-79.21
X57.432Y-81.75
X57.833Y-84.29
X57.912Y-51.562
X58.234Y-86.83
X58.635Y-89.37
X58.928Y-66.548
X58.928Y-72.898
X58.928Y-77.978
X58.928Y-82.804
X59.182Y-87.884
X59.436Y-92.71
X59.436Y-95.758
X59.436Y-98.044
X59.436Y-100.838
X59.436Y-103.378
X59.944Y-119.888
X60.198Y-135.89
X60.93Y-117.709
X61.214Y-121.666
X61.41Y-117.069
X61.722Y-116.332
X62.191Y-115.675
X62.467Y-114.924
X62.934Y-114.275
X63.246Y-113.538
X63.5Y-112.776
X63.754Y-112.014
X63.754Y-150.114
X64.008Y-51.816
X64.262Y-111.252
X64.77Y-110.49
X65.024Y-113.538
X65.278Y-109.728
X65.278Y-121.666
X65.786Y-108.966
X66.294Y-108.204
X66.735Y-107.525
X66.802Y-95.504
X67.056Y-142.748
X67.236Y-106.902
X67.564Y-106.172
X67.818Y-108.966
X68.072Y-105.41
X68.326Y-103.378
X68.418Y-104.61
X68.58Y-99.822
X69.596Y-92.71
X69.596Y-97.79
X70.104Y-104.648
X70.612Y-51.562
X70.928Y-104.648
X71.12Y-105.918
X71.766Y-104.648
X72.898Y-113.792
X73.406Y-88.9
X73.914Y-150.114
X74.168Y-96.774
X74.168Y-100.33
X74.422Y-105.664
T2
X73.152Y-107.208
X73.152Y-109.708
T3
X51.27Y-51.27
X51.27Y-53.81
X51.27Y-56.35
X51.27Y-58.89
X51.27Y-61.43
X51.27Y-63.97
X51.27Y-66.51
X51.27Y-69.05
X51.27Y-71.59
X51.27Y-74.13
X51.27Y-76.67
X51.27Y-79.21
X51.27Y-81.75
X51.27Y-84.29
X51.27Y-86.83
X51.27Y-89.37
X51.27Y-91.91
X51.27Y-94.45
X51.27Y-96.99
X51.27Y-99.53
X51.27Y-102.07
X51.27Y-104.61
X51.27Y-107.15
X51.27Y-109.69
X51.27Y-112.23
X51.27Y-114.77
X51.27Y-117.31
X51.27Y-119.85
X51.27Y-122.39
X51.27Y-124.93
X51.27Y-127.47
X51.27Y-130.01
X51.27Y-132.55
X51.27Y-135.09
X51.27Y-137.63
X51.27Y-140.17
X51.27Y-142.71
X51.27Y-145.25
X51.27Y-147.79
X51.27Y-150.33
X71.882Y-97.531
X71.882Y-100.071
X76.67Y-51.27
X76.67Y-53.81
X76.67Y-56.35
X76.67Y-58.89
X76.67Y-61.43
X76.67Y-63.97
X76.67Y-66.51
X76.67Y-69.05
X76.67Y-71.59
X76.67Y-74.13
X76.67Y-76.67
X76.67Y-79.21
X76.67Y-81.75
X76.67Y-84.29
X76.67Y-86.83
X76.67Y-89.37
X76.67Y-91.91
X76.67Y-94.45
X76.67Y-96.99
X76.67Y-99.53
X76.67Y-102.07
X76.67Y-104.61
X76.67Y-107.15
X76.67Y-109.69
X76.67Y-112.23
X76.67Y-114.77
X76.67Y-117.31
X76.67Y-119.85
X76.67Y-122.39
X76.67Y-124.93
X76.67Y-127.47
X76.67Y-130.01
X76.67Y-132.55
X76.67Y-135.09
X76.67Y-137.63
X76.67Y-140.17
X76.67Y-142.71
X76.67Y-145.25
X76.67Y-147.79
X76.67Y-150.33
M30
