%TF.GenerationSoftware,KiCad,Pcbnew,8.0.7*%
%TF.CreationDate,2025-07-31T15:36:56+01:00*%
%TF.ProjectId,PWMOutputFilter,50574d4f-7574-4707-9574-46696c746572,rev?*%
%TF.SameCoordinates,Original*%
%TF.FileFunction,Copper,L1,Top*%
%TF.FilePolarity,Positive*%
%FSLAX46Y46*%
G04 Gerber Fmt 4.6, Leading zero omitted, Abs format (unit mm)*
G04 Created by KiCad (PCBNEW 8.0.7) date 2025-07-31 15:36:56*
%MOMM*%
%LPD*%
G01*
G04 APERTURE LIST*
%TA.AperFunction,ComponentPad*%
%ADD10C,1.600000*%
%TD*%
%TA.AperFunction,ComponentPad*%
%ADD11O,1.600000X1.600000*%
%TD*%
%TA.AperFunction,ComponentPad*%
%ADD12R,1.700000X1.700000*%
%TD*%
%TA.AperFunction,ComponentPad*%
%ADD13O,1.700000X1.700000*%
%TD*%
%TA.AperFunction,ComponentPad*%
%ADD14O,2.500000X1.600000*%
%TD*%
%TA.AperFunction,ComponentPad*%
%ADD15O,2.200000X1.200000*%
%TD*%
%TA.AperFunction,ComponentPad*%
%ADD16O,1.200000X2.200000*%
%TD*%
%TA.AperFunction,ComponentPad*%
%ADD17O,2.300000X1.600000*%
%TD*%
%TA.AperFunction,ComponentPad*%
%ADD18R,1.600000X1.600000*%
%TD*%
%TA.AperFunction,Conductor*%
%ADD19C,0.400000*%
%TD*%
G04 APERTURE END LIST*
D10*
%TO.P,C2,1*%
%TO.N,Net-(C2-Pad1)*%
X81200000Y-71500000D03*
%TO.P,C2,2*%
%TO.N,GND*%
X81200000Y-76500000D03*
%TD*%
%TO.P,C1,1*%
%TO.N,Net-(C1-Pad1)*%
X71200000Y-71500000D03*
%TO.P,C1,2*%
%TO.N,GND*%
X71200000Y-76500000D03*
%TD*%
%TO.P,C5,1*%
%TO.N,Net-(C5-Pad1)*%
X73200000Y-60500000D03*
%TO.P,C5,2*%
%TO.N,GND*%
X73200000Y-65500000D03*
%TD*%
%TO.P,C4,1*%
%TO.N,Net-(C4-Pad1)*%
X63200000Y-60500000D03*
%TO.P,C4,2*%
%TO.N,GND*%
X63200000Y-65500000D03*
%TD*%
%TO.P,R6,1*%
%TO.N,GND*%
X77000000Y-65125000D03*
D11*
%TO.P,R6,2*%
%TO.N,Net-(C5-Pad1)*%
X77000000Y-57505000D03*
%TD*%
D10*
%TO.P,R5,1*%
%TO.N,Net-(C4-Pad1)*%
X66000000Y-57500000D03*
D11*
%TO.P,R5,2*%
%TO.N,Net-(C5-Pad1)*%
X73620000Y-57500000D03*
%TD*%
D10*
%TO.P,R4,1*%
%TO.N,Net-(J3-Pin_3)*%
X56000000Y-57500000D03*
D11*
%TO.P,R4,2*%
%TO.N,Net-(C4-Pad1)*%
X63620000Y-57500000D03*
%TD*%
D10*
%TO.P,R3,1*%
%TO.N,GND*%
X85000000Y-76125000D03*
D11*
%TO.P,R3,2*%
%TO.N,Net-(C2-Pad1)*%
X85000000Y-68505000D03*
%TD*%
D10*
%TO.P,R2,1*%
%TO.N,Net-(C1-Pad1)*%
X74000000Y-68500000D03*
D11*
%TO.P,R2,2*%
%TO.N,Net-(C2-Pad1)*%
X81620000Y-68500000D03*
%TD*%
D10*
%TO.P,R1,1*%
%TO.N,Net-(J3-Pin_2)*%
X64000000Y-68500000D03*
D11*
%TO.P,R1,2*%
%TO.N,Net-(C1-Pad1)*%
X71620000Y-68500000D03*
%TD*%
D12*
%TO.P,J4,1,Pin_1*%
%TO.N,GND*%
X98000000Y-63080000D03*
D13*
%TO.P,J4,2,Pin_2*%
%TO.N,Net-(J4-Pin_2)*%
X98000000Y-60540000D03*
%TO.P,J4,3,Pin_3*%
%TO.N,Net-(J4-Pin_3)*%
X98000000Y-58000000D03*
%TD*%
D12*
%TO.P,J3,1,Pin_1*%
%TO.N,GND*%
X52000000Y-63080000D03*
D13*
%TO.P,J3,2,Pin_2*%
%TO.N,Net-(J3-Pin_2)*%
X52000000Y-60540000D03*
%TO.P,J3,3,Pin_3*%
%TO.N,Net-(J3-Pin_3)*%
X52000000Y-58000000D03*
%TD*%
D14*
%TO.P,J2,TN*%
%TO.N,unconnected-(J2-PadTN)*%
X59500000Y-75900000D03*
D15*
%TO.P,J2,T*%
%TO.N,Net-(J3-Pin_2)*%
X59500000Y-78400000D03*
D16*
%TO.P,J2,S*%
%TO.N,GND*%
X54500000Y-73400000D03*
D17*
%TO.P,J2,RN*%
%TO.N,unconnected-(J2-PadRN)*%
X59500000Y-70900000D03*
D15*
%TO.P,J2,R*%
%TO.N,Net-(J3-Pin_3)*%
X59500000Y-68400000D03*
%TD*%
D14*
%TO.P,J1,TN*%
%TO.N,unconnected-(J1-PadTN)*%
X90500000Y-70900000D03*
D15*
%TO.P,J1,T*%
%TO.N,Net-(J4-Pin_2)*%
X90500000Y-68400000D03*
D16*
%TO.P,J1,S*%
%TO.N,GND*%
X95500000Y-73400000D03*
D17*
%TO.P,J1,RN*%
%TO.N,unconnected-(J1-PadRN)*%
X90500000Y-75900000D03*
D15*
%TO.P,J1,R*%
%TO.N,Net-(J4-Pin_3)*%
X90500000Y-78400000D03*
%TD*%
D18*
%TO.P,C6,1*%
%TO.N,Net-(C5-Pad1)*%
X93000000Y-56900000D03*
D10*
%TO.P,C6,2*%
%TO.N,Net-(J4-Pin_3)*%
X93000000Y-59400000D03*
%TD*%
D18*
%TO.P,C3,1*%
%TO.N,Net-(C2-Pad1)*%
X93000000Y-62800000D03*
D10*
%TO.P,C3,2*%
%TO.N,Net-(J4-Pin_2)*%
X93000000Y-65300000D03*
%TD*%
D19*
%TO.N,Net-(J4-Pin_3)*%
X94825000Y-63375000D02*
X94825000Y-61225000D01*
X94825000Y-61225000D02*
X93000000Y-59400000D01*
X94200000Y-64000000D02*
X94825000Y-63375000D01*
X92525000Y-64000000D02*
X94200000Y-64000000D01*
X88850000Y-76750000D02*
X88850000Y-67675000D01*
X90500000Y-78400000D02*
X88850000Y-76750000D01*
X88850000Y-67675000D02*
X92525000Y-64000000D01*
%TO.N,Net-(J4-Pin_2)*%
X94800000Y-65300000D02*
X93000000Y-65300000D01*
X95532500Y-64567500D02*
X94800000Y-65300000D01*
X95532500Y-61967500D02*
X95532500Y-64567500D01*
X96960000Y-60540000D02*
X95532500Y-61967500D01*
X98000000Y-60540000D02*
X96960000Y-60540000D01*
%TO.N,Net-(J3-Pin_2)*%
X56492500Y-76867500D02*
X58025000Y-78400000D01*
X58025000Y-78400000D02*
X59500000Y-78400000D01*
X54440000Y-60540000D02*
X56492500Y-62592500D01*
X56492500Y-62592500D02*
X56492500Y-76867500D01*
X52000000Y-60540000D02*
X54440000Y-60540000D01*
%TO.N,Net-(C2-Pad1)*%
X93000000Y-62800000D02*
X90705000Y-62800000D01*
X90705000Y-62800000D02*
X85000000Y-68505000D01*
%TO.N,Net-(J3-Pin_2)*%
X64000000Y-76475000D02*
X62075000Y-78400000D01*
X62075000Y-78400000D02*
X59500000Y-78400000D01*
X64000000Y-68500000D02*
X64000000Y-76475000D01*
%TO.N,Net-(J4-Pin_2)*%
X90500000Y-67800000D02*
X93000000Y-65300000D01*
X90500000Y-68400000D02*
X90500000Y-67800000D01*
%TO.N,Net-(C5-Pad1)*%
X92395000Y-57505000D02*
X93000000Y-56900000D01*
X77000000Y-57505000D02*
X92395000Y-57505000D01*
%TO.N,Net-(C2-Pad1)*%
X81200000Y-68920000D02*
X81620000Y-68500000D01*
X81200000Y-71500000D02*
X81200000Y-68920000D01*
X81625000Y-68505000D02*
X81620000Y-68500000D01*
X85000000Y-68505000D02*
X81625000Y-68505000D01*
%TO.N,Net-(C1-Pad1)*%
X71200000Y-68920000D02*
X71620000Y-68500000D01*
X71200000Y-71500000D02*
X71200000Y-68920000D01*
X74000000Y-68500000D02*
X71620000Y-68500000D01*
%TO.N,Net-(J3-Pin_3)*%
X59500000Y-61000000D02*
X56000000Y-57500000D01*
X59500000Y-68400000D02*
X59500000Y-61000000D01*
%TO.N,Net-(C5-Pad1)*%
X73200000Y-60500000D02*
X73200000Y-57920000D01*
X73200000Y-57920000D02*
X73620000Y-57500000D01*
X73625000Y-57505000D02*
X73620000Y-57500000D01*
X77000000Y-57505000D02*
X73625000Y-57505000D01*
%TO.N,Net-(C4-Pad1)*%
X63200000Y-57920000D02*
X63620000Y-57500000D01*
X63200000Y-60500000D02*
X63200000Y-57920000D01*
X66000000Y-57500000D02*
X63620000Y-57500000D01*
%TO.N,Net-(J3-Pin_3)*%
X52500000Y-57500000D02*
X52000000Y-58000000D01*
X56000000Y-57500000D02*
X52500000Y-57500000D01*
%TO.N,Net-(J4-Pin_3)*%
X93000000Y-59400000D02*
X94400000Y-58000000D01*
X94400000Y-58000000D02*
X98000000Y-58000000D01*
%TD*%
M02*
