%TF.GenerationSoftware,KiCad,Pcbnew,8.0.7*%
%TF.CreationDate,2025-07-31T15:36:56+01:00*%
%TF.ProjectId,PWMOutputFilter,50574d4f-7574-4707-9574-46696c746572,rev?*%
%TF.SameCoordinates,Original*%
%TF.FileFunction,Copper,L2,Bot*%
%TF.FilePolarity,Positive*%
%FSLAX46Y46*%
G04 Gerber Fmt 4.6, Leading zero omitted, Abs format (unit mm)*
G04 Created by KiCad (PCBNEW 8.0.7) date 2025-07-31 15:36:56*
%MOMM*%
%LPD*%
G01*
G04 APERTURE LIST*
%TA.AperFunction,ComponentPad*%
%ADD10C,1.600000*%
%TD*%
%TA.AperFunction,ComponentPad*%
%ADD11O,1.600000X1.600000*%
%TD*%
%TA.AperFunction,ComponentPad*%
%ADD12R,1.700000X1.700000*%
%TD*%
%TA.AperFunction,ComponentPad*%
%ADD13O,1.700000X1.700000*%
%TD*%
%TA.AperFunction,ComponentPad*%
%ADD14O,2.500000X1.600000*%
%TD*%
%TA.AperFunction,ComponentPad*%
%ADD15O,2.200000X1.200000*%
%TD*%
%TA.AperFunction,ComponentPad*%
%ADD16O,1.200000X2.200000*%
%TD*%
%TA.AperFunction,ComponentPad*%
%ADD17O,2.300000X1.600000*%
%TD*%
%TA.AperFunction,ComponentPad*%
%ADD18R,1.600000X1.600000*%
%TD*%
G04 APERTURE END LIST*
D10*
%TO.P,C2,1*%
%TO.N,Net-(C2-Pad1)*%
X81200000Y-71500000D03*
%TO.P,C2,2*%
%TO.N,GND*%
X81200000Y-76500000D03*
%TD*%
%TO.P,C1,1*%
%TO.N,Net-(C1-Pad1)*%
X71200000Y-71500000D03*
%TO.P,C1,2*%
%TO.N,GND*%
X71200000Y-76500000D03*
%TD*%
%TO.P,C5,1*%
%TO.N,Net-(C5-Pad1)*%
X73200000Y-60500000D03*
%TO.P,C5,2*%
%TO.N,GND*%
X73200000Y-65500000D03*
%TD*%
%TO.P,C4,1*%
%TO.N,Net-(C4-Pad1)*%
X63200000Y-60500000D03*
%TO.P,C4,2*%
%TO.N,GND*%
X63200000Y-65500000D03*
%TD*%
%TO.P,R6,1*%
%TO.N,GND*%
X77000000Y-65125000D03*
D11*
%TO.P,R6,2*%
%TO.N,Net-(C5-Pad1)*%
X77000000Y-57505000D03*
%TD*%
D10*
%TO.P,R5,1*%
%TO.N,Net-(C4-Pad1)*%
X66000000Y-57500000D03*
D11*
%TO.P,R5,2*%
%TO.N,Net-(C5-Pad1)*%
X73620000Y-57500000D03*
%TD*%
D10*
%TO.P,R4,1*%
%TO.N,Net-(J3-Pin_3)*%
X56000000Y-57500000D03*
D11*
%TO.P,R4,2*%
%TO.N,Net-(C4-Pad1)*%
X63620000Y-57500000D03*
%TD*%
D10*
%TO.P,R3,1*%
%TO.N,GND*%
X85000000Y-76125000D03*
D11*
%TO.P,R3,2*%
%TO.N,Net-(C2-Pad1)*%
X85000000Y-68505000D03*
%TD*%
D10*
%TO.P,R2,1*%
%TO.N,Net-(C1-Pad1)*%
X74000000Y-68500000D03*
D11*
%TO.P,R2,2*%
%TO.N,Net-(C2-Pad1)*%
X81620000Y-68500000D03*
%TD*%
D10*
%TO.P,R1,1*%
%TO.N,Net-(J3-Pin_2)*%
X64000000Y-68500000D03*
D11*
%TO.P,R1,2*%
%TO.N,Net-(C1-Pad1)*%
X71620000Y-68500000D03*
%TD*%
D12*
%TO.P,J4,1,Pin_1*%
%TO.N,GND*%
X98000000Y-63080000D03*
D13*
%TO.P,J4,2,Pin_2*%
%TO.N,Net-(J4-Pin_2)*%
X98000000Y-60540000D03*
%TO.P,J4,3,Pin_3*%
%TO.N,Net-(J4-Pin_3)*%
X98000000Y-58000000D03*
%TD*%
D12*
%TO.P,J3,1,Pin_1*%
%TO.N,GND*%
X52000000Y-63080000D03*
D13*
%TO.P,J3,2,Pin_2*%
%TO.N,Net-(J3-Pin_2)*%
X52000000Y-60540000D03*
%TO.P,J3,3,Pin_3*%
%TO.N,Net-(J3-Pin_3)*%
X52000000Y-58000000D03*
%TD*%
D14*
%TO.P,J2,TN*%
%TO.N,unconnected-(J2-PadTN)*%
X59500000Y-75900000D03*
D15*
%TO.P,J2,T*%
%TO.N,Net-(J3-Pin_2)*%
X59500000Y-78400000D03*
D16*
%TO.P,J2,S*%
%TO.N,GND*%
X54500000Y-73400000D03*
D17*
%TO.P,J2,RN*%
%TO.N,unconnected-(J2-PadRN)*%
X59500000Y-70900000D03*
D15*
%TO.P,J2,R*%
%TO.N,Net-(J3-Pin_3)*%
X59500000Y-68400000D03*
%TD*%
D14*
%TO.P,J1,TN*%
%TO.N,unconnected-(J1-PadTN)*%
X90500000Y-70900000D03*
D15*
%TO.P,J1,T*%
%TO.N,Net-(J4-Pin_2)*%
X90500000Y-68400000D03*
D16*
%TO.P,J1,S*%
%TO.N,GND*%
X95500000Y-73400000D03*
D17*
%TO.P,J1,RN*%
%TO.N,unconnected-(J1-PadRN)*%
X90500000Y-75900000D03*
D15*
%TO.P,J1,R*%
%TO.N,Net-(J4-Pin_3)*%
X90500000Y-78400000D03*
%TD*%
D18*
%TO.P,C6,1*%
%TO.N,Net-(C5-Pad1)*%
X93000000Y-56900000D03*
D10*
%TO.P,C6,2*%
%TO.N,Net-(J4-Pin_3)*%
X93000000Y-59400000D03*
%TD*%
D18*
%TO.P,C3,1*%
%TO.N,Net-(C2-Pad1)*%
X93000000Y-62800000D03*
D10*
%TO.P,C3,2*%
%TO.N,Net-(J4-Pin_2)*%
X93000000Y-65300000D03*
%TD*%
%TA.AperFunction,Conductor*%
%TO.N,GND*%
G36*
X91860145Y-55520185D02*
G01*
X91905900Y-55572989D01*
X91915844Y-55642147D01*
X91886819Y-55705703D01*
X91867418Y-55723766D01*
X91842452Y-55742455D01*
X91756206Y-55857664D01*
X91756202Y-55857671D01*
X91705908Y-55992517D01*
X91699501Y-56052116D01*
X91699501Y-56052123D01*
X91699500Y-56052135D01*
X91699500Y-57747870D01*
X91699501Y-57747876D01*
X91705908Y-57807483D01*
X91756202Y-57942328D01*
X91756206Y-57942335D01*
X91842452Y-58057544D01*
X91842455Y-58057547D01*
X91957664Y-58143793D01*
X91957671Y-58143797D01*
X91981633Y-58152734D01*
X92092517Y-58194091D01*
X92092527Y-58194092D01*
X92097913Y-58195365D01*
X92158631Y-58229935D01*
X92191021Y-58291843D01*
X92184799Y-58361435D01*
X92157088Y-58403725D01*
X91999951Y-58560862D01*
X91869432Y-58747265D01*
X91869431Y-58747267D01*
X91773261Y-58953502D01*
X91773258Y-58953511D01*
X91714366Y-59173302D01*
X91714364Y-59173313D01*
X91694532Y-59399998D01*
X91694532Y-59400001D01*
X91714364Y-59626686D01*
X91714366Y-59626697D01*
X91773258Y-59846488D01*
X91773261Y-59846497D01*
X91869431Y-60052732D01*
X91869432Y-60052734D01*
X91999954Y-60239141D01*
X92160858Y-60400045D01*
X92160861Y-60400047D01*
X92347266Y-60530568D01*
X92553504Y-60626739D01*
X92773308Y-60685635D01*
X92935230Y-60699801D01*
X92999998Y-60705468D01*
X93000000Y-60705468D01*
X93000002Y-60705468D01*
X93056673Y-60700509D01*
X93226692Y-60685635D01*
X93446496Y-60626739D01*
X93652734Y-60530568D01*
X93839139Y-60400047D01*
X94000047Y-60239139D01*
X94130568Y-60052734D01*
X94226739Y-59846496D01*
X94285635Y-59626692D01*
X94305468Y-59400000D01*
X94285635Y-59173308D01*
X94226739Y-58953504D01*
X94130568Y-58747266D01*
X94000047Y-58560861D01*
X94000045Y-58560858D01*
X93842913Y-58403726D01*
X93809428Y-58342403D01*
X93814412Y-58272711D01*
X93856284Y-58216778D01*
X93902078Y-58195368D01*
X93907480Y-58194091D01*
X93907483Y-58194091D01*
X94042331Y-58143796D01*
X94157546Y-58057546D01*
X94243796Y-57942331D01*
X94294091Y-57807483D01*
X94300500Y-57747873D01*
X94300499Y-56052128D01*
X94294091Y-55992517D01*
X94243796Y-55857669D01*
X94243795Y-55857668D01*
X94243793Y-55857664D01*
X94157547Y-55742455D01*
X94132582Y-55723766D01*
X94090712Y-55667832D01*
X94085728Y-55598140D01*
X94119214Y-55536818D01*
X94180538Y-55503333D01*
X94206894Y-55500500D01*
X99375500Y-55500500D01*
X99442539Y-55520185D01*
X99488294Y-55572989D01*
X99499500Y-55624500D01*
X99499500Y-57460803D01*
X99479815Y-57527842D01*
X99427011Y-57573597D01*
X99357853Y-57583541D01*
X99294297Y-57554516D01*
X99263118Y-57513208D01*
X99174035Y-57322171D01*
X99174034Y-57322169D01*
X99038494Y-57128597D01*
X98871402Y-56961506D01*
X98871395Y-56961501D01*
X98677834Y-56825967D01*
X98677830Y-56825965D01*
X98635821Y-56806376D01*
X98463663Y-56726097D01*
X98463659Y-56726096D01*
X98463655Y-56726094D01*
X98235413Y-56664938D01*
X98235403Y-56664936D01*
X98000001Y-56644341D01*
X97999999Y-56644341D01*
X97764596Y-56664936D01*
X97764586Y-56664938D01*
X97536344Y-56726094D01*
X97536335Y-56726098D01*
X97322171Y-56825964D01*
X97322169Y-56825965D01*
X97128597Y-56961505D01*
X96961505Y-57128597D01*
X96825965Y-57322169D01*
X96825964Y-57322171D01*
X96726098Y-57536335D01*
X96726094Y-57536344D01*
X96664938Y-57764586D01*
X96664936Y-57764596D01*
X96644341Y-57999999D01*
X96644341Y-58000000D01*
X96664936Y-58235403D01*
X96664938Y-58235413D01*
X96726094Y-58463655D01*
X96726096Y-58463659D01*
X96726097Y-58463663D01*
X96771422Y-58560862D01*
X96825965Y-58677830D01*
X96825967Y-58677834D01*
X96961501Y-58871395D01*
X96961506Y-58871402D01*
X97128597Y-59038493D01*
X97128603Y-59038498D01*
X97314158Y-59168425D01*
X97357783Y-59223002D01*
X97364977Y-59292500D01*
X97333454Y-59354855D01*
X97314158Y-59371575D01*
X97128597Y-59501505D01*
X96961505Y-59668597D01*
X96825965Y-59862169D01*
X96825964Y-59862171D01*
X96726098Y-60076335D01*
X96726094Y-60076344D01*
X96664938Y-60304586D01*
X96664936Y-60304596D01*
X96644341Y-60539999D01*
X96644341Y-60540000D01*
X96664936Y-60775403D01*
X96664938Y-60775413D01*
X96726094Y-61003655D01*
X96726096Y-61003659D01*
X96726097Y-61003663D01*
X96761319Y-61079196D01*
X96825965Y-61217830D01*
X96825967Y-61217834D01*
X96910908Y-61339141D01*
X96961501Y-61411396D01*
X96961506Y-61411402D01*
X97083818Y-61533714D01*
X97117303Y-61595037D01*
X97112319Y-61664729D01*
X97070447Y-61720662D01*
X97039471Y-61737577D01*
X96907912Y-61786646D01*
X96907906Y-61786649D01*
X96792812Y-61872809D01*
X96792809Y-61872812D01*
X96706649Y-61987906D01*
X96706645Y-61987913D01*
X96656403Y-62122620D01*
X96656401Y-62122627D01*
X96650000Y-62182155D01*
X96650000Y-62830000D01*
X97566988Y-62830000D01*
X97534075Y-62887007D01*
X97500000Y-63014174D01*
X97500000Y-63145826D01*
X97534075Y-63272993D01*
X97566988Y-63330000D01*
X96650000Y-63330000D01*
X96650000Y-63977844D01*
X96656401Y-64037372D01*
X96656403Y-64037379D01*
X96706645Y-64172086D01*
X96706649Y-64172093D01*
X96792809Y-64287187D01*
X96792812Y-64287190D01*
X96907906Y-64373350D01*
X96907913Y-64373354D01*
X97042620Y-64423596D01*
X97042627Y-64423598D01*
X97102155Y-64429999D01*
X97102172Y-64430000D01*
X97750000Y-64430000D01*
X97750000Y-63513012D01*
X97807007Y-63545925D01*
X97934174Y-63580000D01*
X98065826Y-63580000D01*
X98192993Y-63545925D01*
X98250000Y-63513012D01*
X98250000Y-64430000D01*
X98897828Y-64430000D01*
X98897844Y-64429999D01*
X98957372Y-64423598D01*
X98957379Y-64423596D01*
X99092086Y-64373354D01*
X99092093Y-64373350D01*
X99207187Y-64287190D01*
X99207190Y-64287187D01*
X99276234Y-64194958D01*
X99332168Y-64153087D01*
X99401859Y-64148103D01*
X99463182Y-64181589D01*
X99496666Y-64242912D01*
X99499500Y-64269269D01*
X99499500Y-70575500D01*
X99479815Y-70642539D01*
X99427011Y-70688294D01*
X99375500Y-70699500D01*
X98911306Y-70699500D01*
X98737341Y-70734103D01*
X98737332Y-70734106D01*
X98573459Y-70801983D01*
X98573446Y-70801990D01*
X98425965Y-70900535D01*
X98425961Y-70900538D01*
X98300538Y-71025961D01*
X98300535Y-71025965D01*
X98201990Y-71173446D01*
X98201983Y-71173459D01*
X98134106Y-71337332D01*
X98134103Y-71337341D01*
X98099500Y-71511304D01*
X98099500Y-75288695D01*
X98134103Y-75462658D01*
X98134106Y-75462667D01*
X98201983Y-75626540D01*
X98201990Y-75626553D01*
X98300535Y-75774034D01*
X98300538Y-75774038D01*
X98425961Y-75899461D01*
X98425965Y-75899464D01*
X98573446Y-75998009D01*
X98573459Y-75998016D01*
X98696363Y-76048923D01*
X98737334Y-76065894D01*
X98737336Y-76065894D01*
X98737341Y-76065896D01*
X98911304Y-76100499D01*
X98911307Y-76100500D01*
X98911309Y-76100500D01*
X98934108Y-76100500D01*
X99375500Y-76100500D01*
X99442539Y-76120185D01*
X99488294Y-76172989D01*
X99499500Y-76224500D01*
X99499500Y-79375500D01*
X99479815Y-79442539D01*
X99427011Y-79488294D01*
X99375500Y-79499500D01*
X91740583Y-79499500D01*
X91673544Y-79479815D01*
X91627789Y-79427011D01*
X91617845Y-79357853D01*
X91646870Y-79294297D01*
X91667694Y-79275184D01*
X91716928Y-79239414D01*
X91839414Y-79116928D01*
X91941232Y-78976788D01*
X92019873Y-78822445D01*
X92073402Y-78657701D01*
X92100500Y-78486611D01*
X92100500Y-78316228D01*
X94649500Y-78316228D01*
X94649500Y-78483771D01*
X94682182Y-78648074D01*
X94682184Y-78648082D01*
X94746295Y-78802860D01*
X94839373Y-78942162D01*
X94957837Y-79060626D01*
X95050494Y-79122537D01*
X95097137Y-79153703D01*
X95251918Y-79217816D01*
X95416228Y-79250499D01*
X95416232Y-79250500D01*
X95416233Y-79250500D01*
X95583768Y-79250500D01*
X95583769Y-79250499D01*
X95748082Y-79217816D01*
X95902863Y-79153703D01*
X96042162Y-79060626D01*
X96160626Y-78942162D01*
X96253703Y-78802863D01*
X96317816Y-78648082D01*
X96350500Y-78483767D01*
X96350500Y-78316233D01*
X96350499Y-78316228D01*
X97149500Y-78316228D01*
X97149500Y-78483771D01*
X97182182Y-78648074D01*
X97182184Y-78648082D01*
X97246295Y-78802860D01*
X97339373Y-78942162D01*
X97457837Y-79060626D01*
X97550494Y-79122537D01*
X97597137Y-79153703D01*
X97751918Y-79217816D01*
X97916228Y-79250499D01*
X97916232Y-79250500D01*
X97916233Y-79250500D01*
X98083768Y-79250500D01*
X98083769Y-79250499D01*
X98248082Y-79217816D01*
X98402863Y-79153703D01*
X98542162Y-79060626D01*
X98660626Y-78942162D01*
X98753703Y-78802863D01*
X98817816Y-78648082D01*
X98850500Y-78483767D01*
X98850500Y-78316233D01*
X98817816Y-78151918D01*
X98753703Y-77997137D01*
X98722537Y-77950494D01*
X98660626Y-77857837D01*
X98542162Y-77739373D01*
X98402860Y-77646295D01*
X98248082Y-77582184D01*
X98248074Y-77582182D01*
X98083771Y-77549500D01*
X98083767Y-77549500D01*
X97916233Y-77549500D01*
X97916228Y-77549500D01*
X97751925Y-77582182D01*
X97751917Y-77582184D01*
X97597139Y-77646295D01*
X97457837Y-77739373D01*
X97339373Y-77857837D01*
X97246295Y-77997139D01*
X97182184Y-78151917D01*
X97182182Y-78151925D01*
X97149500Y-78316228D01*
X96350499Y-78316228D01*
X96317816Y-78151918D01*
X96253703Y-77997137D01*
X96222537Y-77950494D01*
X96160626Y-77857837D01*
X96042162Y-77739373D01*
X95902860Y-77646295D01*
X95748082Y-77582184D01*
X95748074Y-77582182D01*
X95583771Y-77549500D01*
X95583767Y-77549500D01*
X95416233Y-77549500D01*
X95416228Y-77549500D01*
X95251925Y-77582182D01*
X95251917Y-77582184D01*
X95097139Y-77646295D01*
X94957837Y-77739373D01*
X94839373Y-77857837D01*
X94746295Y-77997139D01*
X94682184Y-78151917D01*
X94682182Y-78151925D01*
X94649500Y-78316228D01*
X92100500Y-78316228D01*
X92100500Y-78313389D01*
X92073402Y-78142299D01*
X92019873Y-77977555D01*
X91941232Y-77823212D01*
X91839414Y-77683072D01*
X91716928Y-77560586D01*
X91576788Y-77458768D01*
X91422445Y-77380127D01*
X91325746Y-77348707D01*
X91268071Y-77309270D01*
X91240873Y-77244912D01*
X91252788Y-77176065D01*
X91300032Y-77124590D01*
X91325746Y-77112846D01*
X91349219Y-77105220D01*
X91531610Y-77012287D01*
X91624590Y-76944732D01*
X91697213Y-76891971D01*
X91697215Y-76891968D01*
X91697219Y-76891966D01*
X91841966Y-76747219D01*
X91841968Y-76747215D01*
X91841971Y-76747213D01*
X91909407Y-76654394D01*
X91962287Y-76581610D01*
X92055220Y-76399219D01*
X92118477Y-76204534D01*
X92150500Y-76002352D01*
X92150500Y-75797648D01*
X92146838Y-75774526D01*
X92118477Y-75595465D01*
X92061781Y-75420974D01*
X92055220Y-75400781D01*
X92055218Y-75400778D01*
X92055218Y-75400776D01*
X92021503Y-75334607D01*
X91962287Y-75218390D01*
X91945318Y-75195034D01*
X91841971Y-75052786D01*
X91697213Y-74908028D01*
X91531613Y-74787715D01*
X91531612Y-74787714D01*
X91531610Y-74787713D01*
X91474653Y-74758691D01*
X91349223Y-74694781D01*
X91154534Y-74631522D01*
X90979995Y-74603878D01*
X90952352Y-74599500D01*
X90047648Y-74599500D01*
X90023329Y-74603351D01*
X89845465Y-74631522D01*
X89650776Y-74694781D01*
X89468386Y-74787715D01*
X89302786Y-74908028D01*
X89158028Y-75052786D01*
X89037715Y-75218386D01*
X88944781Y-75400776D01*
X88881522Y-75595465D01*
X88849500Y-75797648D01*
X88849500Y-76002351D01*
X88881522Y-76204534D01*
X88944781Y-76399223D01*
X89008691Y-76524653D01*
X89032468Y-76571317D01*
X89037715Y-76581613D01*
X89158028Y-76747213D01*
X89302786Y-76891971D01*
X89457749Y-77004556D01*
X89468390Y-77012287D01*
X89584607Y-77071503D01*
X89650776Y-77105218D01*
X89650778Y-77105218D01*
X89650781Y-77105220D01*
X89674254Y-77112846D01*
X89731928Y-77152284D01*
X89759126Y-77216643D01*
X89747211Y-77285489D01*
X89699967Y-77336965D01*
X89674255Y-77348706D01*
X89640368Y-77359717D01*
X89577550Y-77380128D01*
X89423211Y-77458768D01*
X89343256Y-77516859D01*
X89283072Y-77560586D01*
X89283070Y-77560588D01*
X89283069Y-77560588D01*
X89160588Y-77683069D01*
X89160588Y-77683070D01*
X89160586Y-77683072D01*
X89119681Y-77739373D01*
X89058768Y-77823211D01*
X88980128Y-77977552D01*
X88926597Y-78142302D01*
X88925074Y-78151918D01*
X88899500Y-78313389D01*
X88899500Y-78486611D01*
X88926598Y-78657701D01*
X88980127Y-78822445D01*
X89058768Y-78976788D01*
X89160586Y-79116928D01*
X89283072Y-79239414D01*
X89332303Y-79275183D01*
X89374968Y-79330512D01*
X89380947Y-79400126D01*
X89348341Y-79461921D01*
X89287502Y-79496278D01*
X89259417Y-79499500D01*
X60740583Y-79499500D01*
X60673544Y-79479815D01*
X60627789Y-79427011D01*
X60617845Y-79357853D01*
X60646870Y-79294297D01*
X60667694Y-79275184D01*
X60716928Y-79239414D01*
X60839414Y-79116928D01*
X60941232Y-78976788D01*
X61019873Y-78822445D01*
X61073402Y-78657701D01*
X61100500Y-78486611D01*
X61100500Y-78313389D01*
X61073402Y-78142299D01*
X61019873Y-77977555D01*
X60941232Y-77823212D01*
X60839414Y-77683072D01*
X60716928Y-77560586D01*
X60576788Y-77458768D01*
X60422445Y-77380127D01*
X60375744Y-77364952D01*
X60318071Y-77325516D01*
X60290873Y-77261157D01*
X60302788Y-77192311D01*
X60350032Y-77140835D01*
X60375743Y-77129093D01*
X60449219Y-77105220D01*
X60631610Y-77012287D01*
X60724590Y-76944732D01*
X60797213Y-76891971D01*
X60797215Y-76891968D01*
X60797219Y-76891966D01*
X60941966Y-76747219D01*
X60941968Y-76747215D01*
X60941971Y-76747213D01*
X61009407Y-76654394D01*
X61062287Y-76581610D01*
X61103871Y-76499997D01*
X69895034Y-76499997D01*
X69895034Y-76500002D01*
X69914858Y-76726599D01*
X69914860Y-76726610D01*
X69973730Y-76946317D01*
X69973735Y-76946331D01*
X70069863Y-77152478D01*
X70120974Y-77225472D01*
X70800000Y-76546446D01*
X70800000Y-76552661D01*
X70827259Y-76654394D01*
X70879920Y-76745606D01*
X70954394Y-76820080D01*
X71045606Y-76872741D01*
X71147339Y-76900000D01*
X71153553Y-76900000D01*
X70474526Y-77579025D01*
X70547513Y-77630132D01*
X70547521Y-77630136D01*
X70753668Y-77726264D01*
X70753682Y-77726269D01*
X70973389Y-77785139D01*
X70973400Y-77785141D01*
X71199998Y-77804966D01*
X71200002Y-77804966D01*
X71426599Y-77785141D01*
X71426610Y-77785139D01*
X71646317Y-77726269D01*
X71646331Y-77726264D01*
X71852478Y-77630136D01*
X71925471Y-77579024D01*
X71246447Y-76900000D01*
X71252661Y-76900000D01*
X71354394Y-76872741D01*
X71445606Y-76820080D01*
X71520080Y-76745606D01*
X71572741Y-76654394D01*
X71600000Y-76552661D01*
X71600000Y-76546447D01*
X72279024Y-77225471D01*
X72330136Y-77152478D01*
X72426264Y-76946331D01*
X72426269Y-76946317D01*
X72485139Y-76726610D01*
X72485141Y-76726599D01*
X72504966Y-76500002D01*
X72504966Y-76499997D01*
X79895034Y-76499997D01*
X79895034Y-76500002D01*
X79914858Y-76726599D01*
X79914860Y-76726610D01*
X79973730Y-76946317D01*
X79973735Y-76946331D01*
X80069863Y-77152478D01*
X80120974Y-77225472D01*
X80800000Y-76546446D01*
X80800000Y-76552661D01*
X80827259Y-76654394D01*
X80879920Y-76745606D01*
X80954394Y-76820080D01*
X81045606Y-76872741D01*
X81147339Y-76900000D01*
X81153553Y-76900000D01*
X80474526Y-77579025D01*
X80547513Y-77630132D01*
X80547521Y-77630136D01*
X80753668Y-77726264D01*
X80753682Y-77726269D01*
X80973389Y-77785139D01*
X80973400Y-77785141D01*
X81199998Y-77804966D01*
X81200002Y-77804966D01*
X81426599Y-77785141D01*
X81426610Y-77785139D01*
X81646317Y-77726269D01*
X81646331Y-77726264D01*
X81852478Y-77630136D01*
X81925471Y-77579024D01*
X81246447Y-76900000D01*
X81252661Y-76900000D01*
X81354394Y-76872741D01*
X81445606Y-76820080D01*
X81520080Y-76745606D01*
X81572741Y-76654394D01*
X81600000Y-76552661D01*
X81600000Y-76546447D01*
X82279024Y-77225471D01*
X82330136Y-77152478D01*
X82426264Y-76946331D01*
X82426269Y-76946317D01*
X82485139Y-76726610D01*
X82485141Y-76726599D01*
X82504966Y-76500002D01*
X82504966Y-76499997D01*
X82485141Y-76273400D01*
X82485139Y-76273389D01*
X82445378Y-76124997D01*
X83695034Y-76124997D01*
X83695034Y-76125002D01*
X83714858Y-76351599D01*
X83714860Y-76351610D01*
X83773730Y-76571317D01*
X83773735Y-76571331D01*
X83869863Y-76777478D01*
X83920974Y-76850472D01*
X84600000Y-76171446D01*
X84600000Y-76177661D01*
X84627259Y-76279394D01*
X84679920Y-76370606D01*
X84754394Y-76445080D01*
X84845606Y-76497741D01*
X84947339Y-76525000D01*
X84953553Y-76525000D01*
X84274526Y-77204025D01*
X84347513Y-77255132D01*
X84347521Y-77255136D01*
X84553668Y-77351264D01*
X84553682Y-77351269D01*
X84773389Y-77410139D01*
X84773400Y-77410141D01*
X84999998Y-77429966D01*
X85000002Y-77429966D01*
X85226599Y-77410141D01*
X85226610Y-77410139D01*
X85446317Y-77351269D01*
X85446331Y-77351264D01*
X85652478Y-77255136D01*
X85725471Y-77204024D01*
X85046447Y-76525000D01*
X85052661Y-76525000D01*
X85154394Y-76497741D01*
X85245606Y-76445080D01*
X85320080Y-76370606D01*
X85372741Y-76279394D01*
X85400000Y-76177661D01*
X85400000Y-76171447D01*
X86079024Y-76850471D01*
X86130136Y-76777478D01*
X86226264Y-76571331D01*
X86226269Y-76571317D01*
X86285139Y-76351610D01*
X86285141Y-76351599D01*
X86304966Y-76125002D01*
X86304966Y-76124997D01*
X86285141Y-75898400D01*
X86285139Y-75898389D01*
X86226269Y-75678682D01*
X86226264Y-75678668D01*
X86130136Y-75472521D01*
X86130132Y-75472513D01*
X86079025Y-75399526D01*
X85400000Y-76078551D01*
X85400000Y-76072339D01*
X85372741Y-75970606D01*
X85320080Y-75879394D01*
X85245606Y-75804920D01*
X85154394Y-75752259D01*
X85052661Y-75725000D01*
X85046445Y-75725000D01*
X85725472Y-75045974D01*
X85652478Y-74994863D01*
X85446331Y-74898735D01*
X85446317Y-74898730D01*
X85226610Y-74839860D01*
X85226599Y-74839858D01*
X85000002Y-74820034D01*
X84999998Y-74820034D01*
X84773400Y-74839858D01*
X84773389Y-74839860D01*
X84553682Y-74898730D01*
X84553673Y-74898734D01*
X84347516Y-74994866D01*
X84347512Y-74994868D01*
X84274526Y-75045973D01*
X84274526Y-75045974D01*
X84953553Y-75725000D01*
X84947339Y-75725000D01*
X84845606Y-75752259D01*
X84754394Y-75804920D01*
X84679920Y-75879394D01*
X84627259Y-75970606D01*
X84600000Y-76072339D01*
X84600000Y-76078552D01*
X83920974Y-75399526D01*
X83920973Y-75399526D01*
X83869868Y-75472512D01*
X83869866Y-75472516D01*
X83773734Y-75678673D01*
X83773730Y-75678682D01*
X83714860Y-75898389D01*
X83714858Y-75898400D01*
X83695034Y-76124997D01*
X82445378Y-76124997D01*
X82426269Y-76053682D01*
X82426264Y-76053668D01*
X82330136Y-75847521D01*
X82330132Y-75847513D01*
X82279025Y-75774526D01*
X81600000Y-76453551D01*
X81600000Y-76447339D01*
X81572741Y-76345606D01*
X81520080Y-76254394D01*
X81445606Y-76179920D01*
X81354394Y-76127259D01*
X81252661Y-76100000D01*
X81246445Y-76100000D01*
X81925472Y-75420974D01*
X81852478Y-75369863D01*
X81646331Y-75273735D01*
X81646317Y-75273730D01*
X81426610Y-75214860D01*
X81426599Y-75214858D01*
X81200002Y-75195034D01*
X81199998Y-75195034D01*
X80973400Y-75214858D01*
X80973389Y-75214860D01*
X80753682Y-75273730D01*
X80753673Y-75273734D01*
X80547516Y-75369866D01*
X80547512Y-75369868D01*
X80474526Y-75420973D01*
X80474526Y-75420974D01*
X81153553Y-76100000D01*
X81147339Y-76100000D01*
X81045606Y-76127259D01*
X80954394Y-76179920D01*
X80879920Y-76254394D01*
X80827259Y-76345606D01*
X80800000Y-76447339D01*
X80800000Y-76453552D01*
X80120974Y-75774526D01*
X80120973Y-75774526D01*
X80069868Y-75847512D01*
X80069866Y-75847516D01*
X79973734Y-76053673D01*
X79973730Y-76053682D01*
X79914860Y-76273389D01*
X79914858Y-76273400D01*
X79895034Y-76499997D01*
X72504966Y-76499997D01*
X72485141Y-76273400D01*
X72485139Y-76273389D01*
X72426269Y-76053682D01*
X72426264Y-76053668D01*
X72330136Y-75847521D01*
X72330132Y-75847513D01*
X72279025Y-75774526D01*
X71600000Y-76453551D01*
X71600000Y-76447339D01*
X71572741Y-76345606D01*
X71520080Y-76254394D01*
X71445606Y-76179920D01*
X71354394Y-76127259D01*
X71252661Y-76100000D01*
X71246445Y-76100000D01*
X71925472Y-75420974D01*
X71852478Y-75369863D01*
X71646331Y-75273735D01*
X71646317Y-75273730D01*
X71426610Y-75214860D01*
X71426599Y-75214858D01*
X71200002Y-75195034D01*
X71199998Y-75195034D01*
X70973400Y-75214858D01*
X70973389Y-75214860D01*
X70753682Y-75273730D01*
X70753673Y-75273734D01*
X70547516Y-75369866D01*
X70547512Y-75369868D01*
X70474526Y-75420973D01*
X70474526Y-75420974D01*
X71153553Y-76100000D01*
X71147339Y-76100000D01*
X71045606Y-76127259D01*
X70954394Y-76179920D01*
X70879920Y-76254394D01*
X70827259Y-76345606D01*
X70800000Y-76447339D01*
X70800000Y-76453552D01*
X70120974Y-75774526D01*
X70120973Y-75774526D01*
X70069868Y-75847512D01*
X70069866Y-75847516D01*
X69973734Y-76053673D01*
X69973730Y-76053682D01*
X69914860Y-76273389D01*
X69914858Y-76273400D01*
X69895034Y-76499997D01*
X61103871Y-76499997D01*
X61155220Y-76399219D01*
X61218477Y-76204534D01*
X61250500Y-76002352D01*
X61250500Y-75797648D01*
X61246838Y-75774526D01*
X61218477Y-75595465D01*
X61161781Y-75420974D01*
X61155220Y-75400781D01*
X61155218Y-75400778D01*
X61155218Y-75400776D01*
X61121503Y-75334607D01*
X61062287Y-75218390D01*
X61045318Y-75195034D01*
X60941971Y-75052786D01*
X60797213Y-74908028D01*
X60631613Y-74787715D01*
X60631612Y-74787714D01*
X60631610Y-74787713D01*
X60574653Y-74758691D01*
X60449223Y-74694781D01*
X60254534Y-74631522D01*
X60079995Y-74603878D01*
X60052352Y-74599500D01*
X58947648Y-74599500D01*
X58923329Y-74603351D01*
X58745465Y-74631522D01*
X58550776Y-74694781D01*
X58368386Y-74787715D01*
X58202786Y-74908028D01*
X58058028Y-75052786D01*
X57937715Y-75218386D01*
X57844781Y-75400776D01*
X57781522Y-75595465D01*
X57749500Y-75797648D01*
X57749500Y-76002351D01*
X57781522Y-76204534D01*
X57844781Y-76399223D01*
X57908691Y-76524653D01*
X57932468Y-76571317D01*
X57937715Y-76581613D01*
X58058028Y-76747213D01*
X58202786Y-76891971D01*
X58357749Y-77004556D01*
X58368390Y-77012287D01*
X58550781Y-77105220D01*
X58624252Y-77129092D01*
X58681928Y-77168530D01*
X58709126Y-77232888D01*
X58697211Y-77301735D01*
X58649967Y-77353210D01*
X58624254Y-77364953D01*
X58612017Y-77368929D01*
X58577550Y-77380128D01*
X58423211Y-77458768D01*
X58343256Y-77516859D01*
X58283072Y-77560586D01*
X58283070Y-77560588D01*
X58283069Y-77560588D01*
X58160588Y-77683069D01*
X58160588Y-77683070D01*
X58160586Y-77683072D01*
X58119681Y-77739373D01*
X58058768Y-77823211D01*
X57980128Y-77977552D01*
X57926597Y-78142302D01*
X57925074Y-78151918D01*
X57899500Y-78313389D01*
X57899500Y-78486611D01*
X57926598Y-78657701D01*
X57980127Y-78822445D01*
X58058768Y-78976788D01*
X58160586Y-79116928D01*
X58283072Y-79239414D01*
X58332303Y-79275183D01*
X58374968Y-79330512D01*
X58380947Y-79400126D01*
X58348341Y-79461921D01*
X58287502Y-79496278D01*
X58259417Y-79499500D01*
X50624500Y-79499500D01*
X50557461Y-79479815D01*
X50511706Y-79427011D01*
X50500500Y-79375500D01*
X50500500Y-78316228D01*
X51149500Y-78316228D01*
X51149500Y-78483771D01*
X51182182Y-78648074D01*
X51182184Y-78648082D01*
X51246295Y-78802860D01*
X51339373Y-78942162D01*
X51457837Y-79060626D01*
X51550494Y-79122537D01*
X51597137Y-79153703D01*
X51751918Y-79217816D01*
X51916228Y-79250499D01*
X51916232Y-79250500D01*
X51916233Y-79250500D01*
X52083768Y-79250500D01*
X52083769Y-79250499D01*
X52248082Y-79217816D01*
X52402863Y-79153703D01*
X52542162Y-79060626D01*
X52660626Y-78942162D01*
X52753703Y-78802863D01*
X52817816Y-78648082D01*
X52850500Y-78483767D01*
X52850500Y-78316233D01*
X52850499Y-78316228D01*
X53649500Y-78316228D01*
X53649500Y-78483771D01*
X53682182Y-78648074D01*
X53682184Y-78648082D01*
X53746295Y-78802860D01*
X53839373Y-78942162D01*
X53957837Y-79060626D01*
X54050494Y-79122537D01*
X54097137Y-79153703D01*
X54251918Y-79217816D01*
X54416228Y-79250499D01*
X54416232Y-79250500D01*
X54416233Y-79250500D01*
X54583768Y-79250500D01*
X54583769Y-79250499D01*
X54748082Y-79217816D01*
X54902863Y-79153703D01*
X55042162Y-79060626D01*
X55160626Y-78942162D01*
X55253703Y-78802863D01*
X55317816Y-78648082D01*
X55350500Y-78483767D01*
X55350500Y-78316233D01*
X55317816Y-78151918D01*
X55253703Y-77997137D01*
X55222537Y-77950494D01*
X55160626Y-77857837D01*
X55042162Y-77739373D01*
X54902860Y-77646295D01*
X54748082Y-77582184D01*
X54748074Y-77582182D01*
X54583771Y-77549500D01*
X54583767Y-77549500D01*
X54416233Y-77549500D01*
X54416228Y-77549500D01*
X54251925Y-77582182D01*
X54251917Y-77582184D01*
X54097139Y-77646295D01*
X53957837Y-77739373D01*
X53839373Y-77857837D01*
X53746295Y-77997139D01*
X53682184Y-78151917D01*
X53682182Y-78151925D01*
X53649500Y-78316228D01*
X52850499Y-78316228D01*
X52817816Y-78151918D01*
X52753703Y-77997137D01*
X52722537Y-77950494D01*
X52660626Y-77857837D01*
X52542162Y-77739373D01*
X52402860Y-77646295D01*
X52248082Y-77582184D01*
X52248074Y-77582182D01*
X52083771Y-77549500D01*
X52083767Y-77549500D01*
X51916233Y-77549500D01*
X51916228Y-77549500D01*
X51751925Y-77582182D01*
X51751917Y-77582184D01*
X51597139Y-77646295D01*
X51457837Y-77739373D01*
X51339373Y-77857837D01*
X51246295Y-77997139D01*
X51182184Y-78151917D01*
X51182182Y-78151925D01*
X51149500Y-78316228D01*
X50500500Y-78316228D01*
X50500500Y-76224500D01*
X50520185Y-76157461D01*
X50572989Y-76111706D01*
X50624500Y-76100500D01*
X51088693Y-76100500D01*
X51088694Y-76100499D01*
X51146682Y-76088964D01*
X51262658Y-76065896D01*
X51262661Y-76065894D01*
X51262666Y-76065894D01*
X51426547Y-75998013D01*
X51574035Y-75899464D01*
X51699464Y-75774035D01*
X51798013Y-75626547D01*
X51865894Y-75462666D01*
X51874188Y-75420973D01*
X51900499Y-75288695D01*
X51900500Y-75288693D01*
X51900500Y-73986571D01*
X53400000Y-73986571D01*
X53427085Y-74157584D01*
X53480591Y-74322257D01*
X53559195Y-74476524D01*
X53660967Y-74616602D01*
X53783397Y-74739032D01*
X53923475Y-74840804D01*
X54077744Y-74919408D01*
X54242415Y-74972914D01*
X54242414Y-74972914D01*
X54249999Y-74974115D01*
X54750000Y-74974115D01*
X54757584Y-74972914D01*
X54922255Y-74919408D01*
X55076524Y-74840804D01*
X55216602Y-74739032D01*
X55339032Y-74616602D01*
X55440804Y-74476524D01*
X55519408Y-74322257D01*
X55572914Y-74157584D01*
X55600000Y-73986571D01*
X55600000Y-73650000D01*
X54750000Y-73650000D01*
X54750000Y-74974115D01*
X54249999Y-74974115D01*
X54250000Y-74974114D01*
X54250000Y-73650000D01*
X53400000Y-73650000D01*
X53400000Y-73986571D01*
X51900500Y-73986571D01*
X51900500Y-72813428D01*
X53400000Y-72813428D01*
X53400000Y-73150000D01*
X54250000Y-73150000D01*
X54250000Y-72860218D01*
X54300000Y-72860218D01*
X54300000Y-73939782D01*
X54330448Y-74013291D01*
X54386709Y-74069552D01*
X54460218Y-74100000D01*
X54539782Y-74100000D01*
X54613291Y-74069552D01*
X54669552Y-74013291D01*
X54700000Y-73939782D01*
X54700000Y-73316228D01*
X58649500Y-73316228D01*
X58649500Y-73483771D01*
X58682182Y-73648074D01*
X58682184Y-73648082D01*
X58746295Y-73802860D01*
X58839373Y-73942162D01*
X58957837Y-74060626D01*
X59016765Y-74100000D01*
X59097137Y-74153703D01*
X59251918Y-74217816D01*
X59416228Y-74250499D01*
X59416232Y-74250500D01*
X59416233Y-74250500D01*
X59583768Y-74250500D01*
X59583769Y-74250499D01*
X59748082Y-74217816D01*
X59902863Y-74153703D01*
X60042162Y-74060626D01*
X60160626Y-73942162D01*
X60253703Y-73802863D01*
X60317816Y-73648082D01*
X60350500Y-73483767D01*
X60350500Y-73316233D01*
X60350499Y-73316228D01*
X89649500Y-73316228D01*
X89649500Y-73483771D01*
X89682182Y-73648074D01*
X89682184Y-73648082D01*
X89746295Y-73802860D01*
X89839373Y-73942162D01*
X89957837Y-74060626D01*
X90016765Y-74100000D01*
X90097137Y-74153703D01*
X90251918Y-74217816D01*
X90416228Y-74250499D01*
X90416232Y-74250500D01*
X90416233Y-74250500D01*
X90583768Y-74250500D01*
X90583769Y-74250499D01*
X90748082Y-74217816D01*
X90902863Y-74153703D01*
X91042162Y-74060626D01*
X91116217Y-73986571D01*
X94400000Y-73986571D01*
X94427085Y-74157584D01*
X94480591Y-74322257D01*
X94559195Y-74476524D01*
X94660967Y-74616602D01*
X94783397Y-74739032D01*
X94923475Y-74840804D01*
X95077744Y-74919408D01*
X95242415Y-74972914D01*
X95242414Y-74972914D01*
X95249999Y-74974115D01*
X95750000Y-74974115D01*
X95757584Y-74972914D01*
X95922255Y-74919408D01*
X96076524Y-74840804D01*
X96216602Y-74739032D01*
X96339032Y-74616602D01*
X96440804Y-74476524D01*
X96519408Y-74322257D01*
X96572914Y-74157584D01*
X96600000Y-73986571D01*
X96600000Y-73650000D01*
X95750000Y-73650000D01*
X95750000Y-74974115D01*
X95249999Y-74974115D01*
X95250000Y-74974114D01*
X95250000Y-73650000D01*
X94400000Y-73650000D01*
X94400000Y-73986571D01*
X91116217Y-73986571D01*
X91160626Y-73942162D01*
X91253703Y-73802863D01*
X91317816Y-73648082D01*
X91350500Y-73483767D01*
X91350500Y-73316233D01*
X91317816Y-73151918D01*
X91253703Y-72997137D01*
X91222537Y-72950494D01*
X91160626Y-72857837D01*
X91116217Y-72813428D01*
X94400000Y-72813428D01*
X94400000Y-73150000D01*
X95250000Y-73150000D01*
X95250000Y-72860218D01*
X95300000Y-72860218D01*
X95300000Y-73939782D01*
X95330448Y-74013291D01*
X95386709Y-74069552D01*
X95460218Y-74100000D01*
X95539782Y-74100000D01*
X95613291Y-74069552D01*
X95669552Y-74013291D01*
X95700000Y-73939782D01*
X95700000Y-73150000D01*
X95750000Y-73150000D01*
X96600000Y-73150000D01*
X96600000Y-72813428D01*
X96572914Y-72642415D01*
X96519408Y-72477742D01*
X96440804Y-72323475D01*
X96339032Y-72183397D01*
X96216602Y-72060967D01*
X96076524Y-71959195D01*
X95922257Y-71880591D01*
X95757589Y-71827087D01*
X95757581Y-71827085D01*
X95750000Y-71825884D01*
X95750000Y-73150000D01*
X95700000Y-73150000D01*
X95700000Y-72860218D01*
X95669552Y-72786709D01*
X95613291Y-72730448D01*
X95539782Y-72700000D01*
X95460218Y-72700000D01*
X95386709Y-72730448D01*
X95330448Y-72786709D01*
X95300000Y-72860218D01*
X95250000Y-72860218D01*
X95250000Y-71825884D01*
X95249999Y-71825884D01*
X95242418Y-71827085D01*
X95242410Y-71827087D01*
X95077742Y-71880591D01*
X94923475Y-71959195D01*
X94783397Y-72060967D01*
X94660967Y-72183397D01*
X94559195Y-72323475D01*
X94480591Y-72477742D01*
X94427085Y-72642415D01*
X94400000Y-72813428D01*
X91116217Y-72813428D01*
X91042162Y-72739373D01*
X90902860Y-72646295D01*
X90748082Y-72582184D01*
X90748074Y-72582182D01*
X90583771Y-72549500D01*
X90583767Y-72549500D01*
X90416233Y-72549500D01*
X90416228Y-72549500D01*
X90251925Y-72582182D01*
X90251917Y-72582184D01*
X90097139Y-72646295D01*
X89957837Y-72739373D01*
X89839373Y-72857837D01*
X89746295Y-72997139D01*
X89682184Y-73151917D01*
X89682182Y-73151925D01*
X89649500Y-73316228D01*
X60350499Y-73316228D01*
X60317816Y-73151918D01*
X60253703Y-72997137D01*
X60222537Y-72950494D01*
X60160626Y-72857837D01*
X60042162Y-72739373D01*
X59902860Y-72646295D01*
X59748082Y-72582184D01*
X59748074Y-72582182D01*
X59583771Y-72549500D01*
X59583767Y-72549500D01*
X59416233Y-72549500D01*
X59416228Y-72549500D01*
X59251925Y-72582182D01*
X59251917Y-72582184D01*
X59097139Y-72646295D01*
X58957837Y-72739373D01*
X58839373Y-72857837D01*
X58746295Y-72997139D01*
X58682184Y-73151917D01*
X58682182Y-73151925D01*
X58649500Y-73316228D01*
X54700000Y-73316228D01*
X54700000Y-73150000D01*
X54750000Y-73150000D01*
X55600000Y-73150000D01*
X55600000Y-72813428D01*
X55572914Y-72642415D01*
X55519408Y-72477742D01*
X55440804Y-72323475D01*
X55339032Y-72183397D01*
X55216602Y-72060967D01*
X55076524Y-71959195D01*
X54922257Y-71880591D01*
X54757589Y-71827087D01*
X54757581Y-71827085D01*
X54750000Y-71825884D01*
X54750000Y-73150000D01*
X54700000Y-73150000D01*
X54700000Y-72860218D01*
X54669552Y-72786709D01*
X54613291Y-72730448D01*
X54539782Y-72700000D01*
X54460218Y-72700000D01*
X54386709Y-72730448D01*
X54330448Y-72786709D01*
X54300000Y-72860218D01*
X54250000Y-72860218D01*
X54250000Y-71825884D01*
X54249999Y-71825884D01*
X54242418Y-71827085D01*
X54242410Y-71827087D01*
X54077742Y-71880591D01*
X53923475Y-71959195D01*
X53783397Y-72060967D01*
X53660967Y-72183397D01*
X53559195Y-72323475D01*
X53480591Y-72477742D01*
X53427085Y-72642415D01*
X53400000Y-72813428D01*
X51900500Y-72813428D01*
X51900500Y-71511306D01*
X51900499Y-71511304D01*
X51865896Y-71337341D01*
X51865893Y-71337332D01*
X51798016Y-71173459D01*
X51798009Y-71173446D01*
X51699464Y-71025965D01*
X51699461Y-71025961D01*
X51574038Y-70900538D01*
X51574034Y-70900535D01*
X51426553Y-70801990D01*
X51426540Y-70801983D01*
X51416074Y-70797648D01*
X57849500Y-70797648D01*
X57849500Y-71002351D01*
X57881522Y-71204534D01*
X57944781Y-71399223D01*
X57996131Y-71500001D01*
X58013509Y-71534108D01*
X58037715Y-71581613D01*
X58158028Y-71747213D01*
X58302786Y-71891971D01*
X58457749Y-72004556D01*
X58468390Y-72012287D01*
X58563930Y-72060967D01*
X58650776Y-72105218D01*
X58650778Y-72105218D01*
X58650781Y-72105220D01*
X58755137Y-72139127D01*
X58845465Y-72168477D01*
X58939666Y-72183397D01*
X59047648Y-72200500D01*
X59047649Y-72200500D01*
X59952351Y-72200500D01*
X59952352Y-72200500D01*
X60154534Y-72168477D01*
X60349219Y-72105220D01*
X60531610Y-72012287D01*
X60624590Y-71944732D01*
X60697213Y-71891971D01*
X60697215Y-71891968D01*
X60697219Y-71891966D01*
X60841966Y-71747219D01*
X60841968Y-71747215D01*
X60841971Y-71747213D01*
X60900690Y-71666392D01*
X60962287Y-71581610D01*
X61003870Y-71499998D01*
X69894532Y-71499998D01*
X69894532Y-71500001D01*
X69914364Y-71726686D01*
X69914366Y-71726697D01*
X69973258Y-71946488D01*
X69973261Y-71946497D01*
X70069431Y-72152732D01*
X70069432Y-72152734D01*
X70199954Y-72339141D01*
X70360858Y-72500045D01*
X70360861Y-72500047D01*
X70547266Y-72630568D01*
X70753504Y-72726739D01*
X70973308Y-72785635D01*
X71135230Y-72799801D01*
X71199998Y-72805468D01*
X71200000Y-72805468D01*
X71200002Y-72805468D01*
X71256673Y-72800509D01*
X71426692Y-72785635D01*
X71646496Y-72726739D01*
X71852734Y-72630568D01*
X72039139Y-72500047D01*
X72200047Y-72339139D01*
X72330568Y-72152734D01*
X72426739Y-71946496D01*
X72485635Y-71726692D01*
X72505468Y-71500000D01*
X72505468Y-71499998D01*
X79894532Y-71499998D01*
X79894532Y-71500001D01*
X79914364Y-71726686D01*
X79914366Y-71726697D01*
X79973258Y-71946488D01*
X79973261Y-71946497D01*
X80069431Y-72152732D01*
X80069432Y-72152734D01*
X80199954Y-72339141D01*
X80360858Y-72500045D01*
X80360861Y-72500047D01*
X80547266Y-72630568D01*
X80753504Y-72726739D01*
X80973308Y-72785635D01*
X81135230Y-72799801D01*
X81199998Y-72805468D01*
X81200000Y-72805468D01*
X81200002Y-72805468D01*
X81256673Y-72800509D01*
X81426692Y-72785635D01*
X81646496Y-72726739D01*
X81852734Y-72630568D01*
X82039139Y-72500047D01*
X82200047Y-72339139D01*
X82330568Y-72152734D01*
X82426739Y-71946496D01*
X82485635Y-71726692D01*
X82505468Y-71500000D01*
X82485635Y-71273308D01*
X82426739Y-71053504D01*
X82330568Y-70847266D01*
X82295825Y-70797648D01*
X88749500Y-70797648D01*
X88749500Y-71002351D01*
X88781522Y-71204534D01*
X88844781Y-71399223D01*
X88896131Y-71500001D01*
X88913509Y-71534108D01*
X88937715Y-71581613D01*
X89058028Y-71747213D01*
X89202786Y-71891971D01*
X89357749Y-72004556D01*
X89368390Y-72012287D01*
X89463930Y-72060967D01*
X89550776Y-72105218D01*
X89550778Y-72105218D01*
X89550781Y-72105220D01*
X89655137Y-72139127D01*
X89745465Y-72168477D01*
X89839666Y-72183397D01*
X89947648Y-72200500D01*
X89947649Y-72200500D01*
X91052351Y-72200500D01*
X91052352Y-72200500D01*
X91254534Y-72168477D01*
X91449219Y-72105220D01*
X91631610Y-72012287D01*
X91724590Y-71944732D01*
X91797213Y-71891971D01*
X91797215Y-71891968D01*
X91797219Y-71891966D01*
X91941966Y-71747219D01*
X91941968Y-71747215D01*
X91941971Y-71747213D01*
X92000690Y-71666392D01*
X92062287Y-71581610D01*
X92155220Y-71399219D01*
X92218477Y-71204534D01*
X92250500Y-71002352D01*
X92250500Y-70797648D01*
X92218477Y-70595466D01*
X92155220Y-70400781D01*
X92155218Y-70400778D01*
X92155218Y-70400776D01*
X92090245Y-70273261D01*
X92062287Y-70218390D01*
X92044953Y-70194532D01*
X91941971Y-70052786D01*
X91797213Y-69908028D01*
X91631613Y-69787715D01*
X91631612Y-69787714D01*
X91631610Y-69787713D01*
X91511940Y-69726738D01*
X91449222Y-69694781D01*
X91375746Y-69670907D01*
X91318071Y-69631469D01*
X91290873Y-69567110D01*
X91302788Y-69498264D01*
X91350033Y-69446788D01*
X91375737Y-69435049D01*
X91422445Y-69419873D01*
X91576788Y-69341232D01*
X91716928Y-69239414D01*
X91839414Y-69116928D01*
X91941232Y-68976788D01*
X92019873Y-68822445D01*
X92073402Y-68657701D01*
X92100500Y-68486611D01*
X92100500Y-68316228D01*
X94649500Y-68316228D01*
X94649500Y-68483771D01*
X94682182Y-68648074D01*
X94682184Y-68648082D01*
X94746295Y-68802860D01*
X94839373Y-68942162D01*
X94957837Y-69060626D01*
X95050494Y-69122537D01*
X95097137Y-69153703D01*
X95097138Y-69153703D01*
X95097139Y-69153704D01*
X95117411Y-69162101D01*
X95251918Y-69217816D01*
X95416228Y-69250499D01*
X95416232Y-69250500D01*
X95416233Y-69250500D01*
X95583768Y-69250500D01*
X95583769Y-69250499D01*
X95748082Y-69217816D01*
X95902863Y-69153703D01*
X96042162Y-69060626D01*
X96160626Y-68942162D01*
X96253703Y-68802863D01*
X96317816Y-68648082D01*
X96350500Y-68483767D01*
X96350500Y-68316233D01*
X96350499Y-68316228D01*
X97149500Y-68316228D01*
X97149500Y-68483771D01*
X97182182Y-68648074D01*
X97182184Y-68648082D01*
X97246295Y-68802860D01*
X97339373Y-68942162D01*
X97457837Y-69060626D01*
X97550494Y-69122537D01*
X97597137Y-69153703D01*
X97597138Y-69153703D01*
X97597139Y-69153704D01*
X97617411Y-69162101D01*
X97751918Y-69217816D01*
X97916228Y-69250499D01*
X97916232Y-69250500D01*
X97916233Y-69250500D01*
X98083768Y-69250500D01*
X98083769Y-69250499D01*
X98248082Y-69217816D01*
X98402863Y-69153703D01*
X98542162Y-69060626D01*
X98660626Y-68942162D01*
X98753703Y-68802863D01*
X98817816Y-68648082D01*
X98850500Y-68483767D01*
X98850500Y-68316233D01*
X98817816Y-68151918D01*
X98753703Y-67997137D01*
X98722537Y-67950494D01*
X98660626Y-67857837D01*
X98542162Y-67739373D01*
X98402860Y-67646295D01*
X98248082Y-67582184D01*
X98248074Y-67582182D01*
X98083771Y-67549500D01*
X98083767Y-67549500D01*
X97916233Y-67549500D01*
X97916228Y-67549500D01*
X97751925Y-67582182D01*
X97751917Y-67582184D01*
X97597139Y-67646295D01*
X97457837Y-67739373D01*
X97339373Y-67857837D01*
X97246295Y-67997139D01*
X97182184Y-68151917D01*
X97182182Y-68151925D01*
X97149500Y-68316228D01*
X96350499Y-68316228D01*
X96317816Y-68151918D01*
X96253703Y-67997137D01*
X96222537Y-67950494D01*
X96160626Y-67857837D01*
X96042162Y-67739373D01*
X95902860Y-67646295D01*
X95748082Y-67582184D01*
X95748074Y-67582182D01*
X95583771Y-67549500D01*
X95583767Y-67549500D01*
X95416233Y-67549500D01*
X95416228Y-67549500D01*
X95251925Y-67582182D01*
X95251917Y-67582184D01*
X95097139Y-67646295D01*
X94957837Y-67739373D01*
X94839373Y-67857837D01*
X94746295Y-67997139D01*
X94682184Y-68151917D01*
X94682182Y-68151925D01*
X94649500Y-68316228D01*
X92100500Y-68316228D01*
X92100500Y-68313389D01*
X92073402Y-68142299D01*
X92019873Y-67977555D01*
X91941232Y-67823212D01*
X91839414Y-67683072D01*
X91716928Y-67560586D01*
X91576788Y-67458768D01*
X91422445Y-67380127D01*
X91257701Y-67326598D01*
X91257699Y-67326597D01*
X91257698Y-67326597D01*
X91126271Y-67305781D01*
X91086611Y-67299500D01*
X89913389Y-67299500D01*
X89873728Y-67305781D01*
X89742302Y-67326597D01*
X89577552Y-67380128D01*
X89423211Y-67458768D01*
X89343256Y-67516859D01*
X89283072Y-67560586D01*
X89283070Y-67560588D01*
X89283069Y-67560588D01*
X89160588Y-67683069D01*
X89160588Y-67683070D01*
X89160586Y-67683072D01*
X89119681Y-67739373D01*
X89058768Y-67823211D01*
X88980128Y-67977552D01*
X88926597Y-68142302D01*
X88925074Y-68151918D01*
X88899500Y-68313389D01*
X88899500Y-68486611D01*
X88926598Y-68657701D01*
X88980127Y-68822445D01*
X89058768Y-68976788D01*
X89160586Y-69116928D01*
X89283072Y-69239414D01*
X89423212Y-69341232D01*
X89577555Y-69419873D01*
X89624252Y-69435046D01*
X89681927Y-69474482D01*
X89709126Y-69538840D01*
X89697212Y-69607687D01*
X89649968Y-69659163D01*
X89624254Y-69670906D01*
X89550780Y-69694779D01*
X89368386Y-69787715D01*
X89202786Y-69908028D01*
X89058028Y-70052786D01*
X88937715Y-70218386D01*
X88844781Y-70400776D01*
X88781522Y-70595465D01*
X88749500Y-70797648D01*
X82295825Y-70797648D01*
X82200047Y-70660861D01*
X82200045Y-70660858D01*
X82039141Y-70499954D01*
X81852734Y-70369432D01*
X81852732Y-70369431D01*
X81646497Y-70273261D01*
X81646488Y-70273258D01*
X81426697Y-70214366D01*
X81426693Y-70214365D01*
X81426692Y-70214365D01*
X81426691Y-70214364D01*
X81426686Y-70214364D01*
X81200002Y-70194532D01*
X81199998Y-70194532D01*
X80973313Y-70214364D01*
X80973302Y-70214366D01*
X80753511Y-70273258D01*
X80753502Y-70273261D01*
X80547267Y-70369431D01*
X80547265Y-70369432D01*
X80360858Y-70499954D01*
X80199954Y-70660858D01*
X80069432Y-70847265D01*
X80069431Y-70847267D01*
X79973261Y-71053502D01*
X79973258Y-71053511D01*
X79914366Y-71273302D01*
X79914364Y-71273313D01*
X79894532Y-71499998D01*
X72505468Y-71499998D01*
X72485635Y-71273308D01*
X72426739Y-71053504D01*
X72330568Y-70847266D01*
X72200047Y-70660861D01*
X72200045Y-70660858D01*
X72039141Y-70499954D01*
X71852734Y-70369432D01*
X71852732Y-70369431D01*
X71646497Y-70273261D01*
X71646488Y-70273258D01*
X71426697Y-70214366D01*
X71426693Y-70214365D01*
X71426692Y-70214365D01*
X71426691Y-70214364D01*
X71426686Y-70214364D01*
X71200002Y-70194532D01*
X71199998Y-70194532D01*
X70973313Y-70214364D01*
X70973302Y-70214366D01*
X70753511Y-70273258D01*
X70753502Y-70273261D01*
X70547267Y-70369431D01*
X70547265Y-70369432D01*
X70360858Y-70499954D01*
X70199954Y-70660858D01*
X70069432Y-70847265D01*
X70069431Y-70847267D01*
X69973261Y-71053502D01*
X69973258Y-71053511D01*
X69914366Y-71273302D01*
X69914364Y-71273313D01*
X69894532Y-71499998D01*
X61003870Y-71499998D01*
X61055220Y-71399219D01*
X61118477Y-71204534D01*
X61150500Y-71002352D01*
X61150500Y-70797648D01*
X61118477Y-70595466D01*
X61055220Y-70400781D01*
X61055218Y-70400778D01*
X61055218Y-70400776D01*
X60990245Y-70273261D01*
X60962287Y-70218390D01*
X60944953Y-70194532D01*
X60841971Y-70052786D01*
X60697213Y-69908028D01*
X60531613Y-69787715D01*
X60531612Y-69787714D01*
X60531610Y-69787713D01*
X60411940Y-69726738D01*
X60349220Y-69694780D01*
X60325744Y-69687152D01*
X60268069Y-69647713D01*
X60240873Y-69583354D01*
X60252789Y-69514508D01*
X60300034Y-69463033D01*
X60325740Y-69451294D01*
X60422445Y-69419873D01*
X60576788Y-69341232D01*
X60716928Y-69239414D01*
X60839414Y-69116928D01*
X60941232Y-68976788D01*
X61019873Y-68822445D01*
X61073402Y-68657701D01*
X61098380Y-68499998D01*
X62694532Y-68499998D01*
X62694532Y-68500001D01*
X62714364Y-68726686D01*
X62714366Y-68726697D01*
X62773258Y-68946488D01*
X62773261Y-68946497D01*
X62869431Y-69152732D01*
X62869432Y-69152734D01*
X62999954Y-69339141D01*
X63160858Y-69500045D01*
X63160861Y-69500047D01*
X63347266Y-69630568D01*
X63553504Y-69726739D01*
X63553509Y-69726740D01*
X63553511Y-69726741D01*
X63572164Y-69731739D01*
X63773308Y-69785635D01*
X63935230Y-69799801D01*
X63999998Y-69805468D01*
X64000000Y-69805468D01*
X64000002Y-69805468D01*
X64056673Y-69800509D01*
X64226692Y-69785635D01*
X64446496Y-69726739D01*
X64652734Y-69630568D01*
X64839139Y-69500047D01*
X65000047Y-69339139D01*
X65130568Y-69152734D01*
X65226739Y-68946496D01*
X65285635Y-68726692D01*
X65302634Y-68532384D01*
X65305468Y-68500001D01*
X65305468Y-68499998D01*
X70314532Y-68499998D01*
X70314532Y-68500001D01*
X70334364Y-68726686D01*
X70334366Y-68726697D01*
X70393258Y-68946488D01*
X70393261Y-68946497D01*
X70489431Y-69152732D01*
X70489432Y-69152734D01*
X70619954Y-69339141D01*
X70780858Y-69500045D01*
X70780861Y-69500047D01*
X70967266Y-69630568D01*
X71173504Y-69726739D01*
X71173509Y-69726740D01*
X71173511Y-69726741D01*
X71192164Y-69731739D01*
X71393308Y-69785635D01*
X71555230Y-69799801D01*
X71619998Y-69805468D01*
X71620000Y-69805468D01*
X71620002Y-69805468D01*
X71676673Y-69800509D01*
X71846692Y-69785635D01*
X72066496Y-69726739D01*
X72272734Y-69630568D01*
X72459139Y-69500047D01*
X72620047Y-69339139D01*
X72708426Y-69212919D01*
X72763001Y-69169295D01*
X72832499Y-69162101D01*
X72894854Y-69193623D01*
X72911570Y-69212915D01*
X72991816Y-69327518D01*
X72999955Y-69339142D01*
X73160858Y-69500045D01*
X73160861Y-69500047D01*
X73347266Y-69630568D01*
X73553504Y-69726739D01*
X73553509Y-69726740D01*
X73553511Y-69726741D01*
X73572164Y-69731739D01*
X73773308Y-69785635D01*
X73935230Y-69799801D01*
X73999998Y-69805468D01*
X74000000Y-69805468D01*
X74000002Y-69805468D01*
X74056673Y-69800509D01*
X74226692Y-69785635D01*
X74446496Y-69726739D01*
X74652734Y-69630568D01*
X74839139Y-69500047D01*
X75000047Y-69339139D01*
X75130568Y-69152734D01*
X75226739Y-68946496D01*
X75285635Y-68726692D01*
X75302634Y-68532384D01*
X75305468Y-68500001D01*
X75305468Y-68499998D01*
X80314532Y-68499998D01*
X80314532Y-68500001D01*
X80334364Y-68726686D01*
X80334366Y-68726697D01*
X80393258Y-68946488D01*
X80393261Y-68946497D01*
X80489431Y-69152732D01*
X80489432Y-69152734D01*
X80619954Y-69339141D01*
X80780858Y-69500045D01*
X80780861Y-69500047D01*
X80967266Y-69630568D01*
X81173504Y-69726739D01*
X81173509Y-69726740D01*
X81173511Y-69726741D01*
X81192164Y-69731739D01*
X81393308Y-69785635D01*
X81555230Y-69799801D01*
X81619998Y-69805468D01*
X81620000Y-69805468D01*
X81620002Y-69805468D01*
X81676673Y-69800509D01*
X81846692Y-69785635D01*
X82066496Y-69726739D01*
X82272734Y-69630568D01*
X82459139Y-69500047D01*
X82620047Y-69339139D01*
X82750568Y-69152734D01*
X82846739Y-68946496D01*
X82905635Y-68726692D01*
X82922634Y-68532384D01*
X82925031Y-68504998D01*
X83694532Y-68504998D01*
X83694532Y-68505001D01*
X83714364Y-68731686D01*
X83714366Y-68731697D01*
X83773258Y-68951488D01*
X83773261Y-68951497D01*
X83869431Y-69157732D01*
X83869432Y-69157734D01*
X83999954Y-69344141D01*
X84160858Y-69505045D01*
X84160861Y-69505047D01*
X84347266Y-69635568D01*
X84553504Y-69731739D01*
X84773308Y-69790635D01*
X84935230Y-69804801D01*
X84999998Y-69810468D01*
X85000000Y-69810468D01*
X85000002Y-69810468D01*
X85057150Y-69805468D01*
X85226692Y-69790635D01*
X85446496Y-69731739D01*
X85652734Y-69635568D01*
X85839139Y-69505047D01*
X86000047Y-69344139D01*
X86130568Y-69157734D01*
X86226739Y-68951496D01*
X86285635Y-68731692D01*
X86305468Y-68505000D01*
X86305030Y-68499998D01*
X86288953Y-68316232D01*
X86285635Y-68278308D01*
X86226739Y-68058504D01*
X86130568Y-67852266D01*
X86000047Y-67665861D01*
X86000045Y-67665858D01*
X85839141Y-67504954D01*
X85652734Y-67374432D01*
X85652732Y-67374431D01*
X85446497Y-67278261D01*
X85446488Y-67278258D01*
X85226697Y-67219366D01*
X85226693Y-67219365D01*
X85226692Y-67219365D01*
X85226691Y-67219364D01*
X85226686Y-67219364D01*
X85000002Y-67199532D01*
X84999998Y-67199532D01*
X84773313Y-67219364D01*
X84773302Y-67219366D01*
X84553511Y-67278258D01*
X84553502Y-67278261D01*
X84347267Y-67374431D01*
X84347265Y-67374432D01*
X84160858Y-67504954D01*
X83999954Y-67665858D01*
X83869432Y-67852265D01*
X83869431Y-67852267D01*
X83773261Y-68058502D01*
X83773258Y-68058511D01*
X83714366Y-68278302D01*
X83714364Y-68278313D01*
X83694532Y-68504998D01*
X82925031Y-68504998D01*
X82925468Y-68500001D01*
X82925468Y-68499998D01*
X82909390Y-68316228D01*
X82905635Y-68273308D01*
X82846739Y-68053504D01*
X82750568Y-67847266D01*
X82620047Y-67660861D01*
X82620045Y-67660858D01*
X82459141Y-67499954D01*
X82272734Y-67369432D01*
X82272732Y-67369431D01*
X82066497Y-67273261D01*
X82066488Y-67273258D01*
X81846697Y-67214366D01*
X81846693Y-67214365D01*
X81846692Y-67214365D01*
X81846691Y-67214364D01*
X81846686Y-67214364D01*
X81620002Y-67194532D01*
X81619998Y-67194532D01*
X81393313Y-67214364D01*
X81393302Y-67214366D01*
X81173511Y-67273258D01*
X81173502Y-67273261D01*
X80967267Y-67369431D01*
X80967265Y-67369432D01*
X80780858Y-67499954D01*
X80619954Y-67660858D01*
X80489432Y-67847265D01*
X80489431Y-67847267D01*
X80393261Y-68053502D01*
X80393258Y-68053511D01*
X80334366Y-68273302D01*
X80334364Y-68273313D01*
X80314532Y-68499998D01*
X75305468Y-68499998D01*
X75289390Y-68316228D01*
X75285635Y-68273308D01*
X75226739Y-68053504D01*
X75130568Y-67847266D01*
X75000047Y-67660861D01*
X75000045Y-67660858D01*
X74839141Y-67499954D01*
X74652734Y-67369432D01*
X74652732Y-67369431D01*
X74446497Y-67273261D01*
X74446488Y-67273258D01*
X74226697Y-67214366D01*
X74226693Y-67214365D01*
X74226692Y-67214365D01*
X74226691Y-67214364D01*
X74226686Y-67214364D01*
X74000002Y-67194532D01*
X73999998Y-67194532D01*
X73773313Y-67214364D01*
X73773302Y-67214366D01*
X73553511Y-67273258D01*
X73553502Y-67273261D01*
X73347267Y-67369431D01*
X73347265Y-67369432D01*
X73160858Y-67499954D01*
X72999954Y-67660858D01*
X72911575Y-67787079D01*
X72856999Y-67830704D01*
X72787500Y-67837898D01*
X72725145Y-67806376D01*
X72708425Y-67787079D01*
X72620045Y-67660858D01*
X72459141Y-67499954D01*
X72272734Y-67369432D01*
X72272732Y-67369431D01*
X72066497Y-67273261D01*
X72066488Y-67273258D01*
X71846697Y-67214366D01*
X71846693Y-67214365D01*
X71846692Y-67214365D01*
X71846691Y-67214364D01*
X71846686Y-67214364D01*
X71620002Y-67194532D01*
X71619998Y-67194532D01*
X71393313Y-67214364D01*
X71393302Y-67214366D01*
X71173511Y-67273258D01*
X71173502Y-67273261D01*
X70967267Y-67369431D01*
X70967265Y-67369432D01*
X70780858Y-67499954D01*
X70619954Y-67660858D01*
X70489432Y-67847265D01*
X70489431Y-67847267D01*
X70393261Y-68053502D01*
X70393258Y-68053511D01*
X70334366Y-68273302D01*
X70334364Y-68273313D01*
X70314532Y-68499998D01*
X65305468Y-68499998D01*
X65289390Y-68316228D01*
X65285635Y-68273308D01*
X65226739Y-68053504D01*
X65130568Y-67847266D01*
X65000047Y-67660861D01*
X65000045Y-67660858D01*
X64839141Y-67499954D01*
X64652734Y-67369432D01*
X64652732Y-67369431D01*
X64446497Y-67273261D01*
X64446488Y-67273258D01*
X64226697Y-67214366D01*
X64226693Y-67214365D01*
X64226692Y-67214365D01*
X64226691Y-67214364D01*
X64226686Y-67214364D01*
X64000002Y-67194532D01*
X63999998Y-67194532D01*
X63773313Y-67214364D01*
X63773302Y-67214366D01*
X63553511Y-67273258D01*
X63553502Y-67273261D01*
X63347267Y-67369431D01*
X63347265Y-67369432D01*
X63160858Y-67499954D01*
X62999954Y-67660858D01*
X62869432Y-67847265D01*
X62869431Y-67847267D01*
X62773261Y-68053502D01*
X62773258Y-68053511D01*
X62714366Y-68273302D01*
X62714364Y-68273313D01*
X62694532Y-68499998D01*
X61098380Y-68499998D01*
X61100500Y-68486611D01*
X61100500Y-68313389D01*
X61073402Y-68142299D01*
X61019873Y-67977555D01*
X60941232Y-67823212D01*
X60839414Y-67683072D01*
X60716928Y-67560586D01*
X60576788Y-67458768D01*
X60422445Y-67380127D01*
X60257701Y-67326598D01*
X60257699Y-67326597D01*
X60257698Y-67326597D01*
X60126271Y-67305781D01*
X60086611Y-67299500D01*
X58913389Y-67299500D01*
X58873728Y-67305781D01*
X58742302Y-67326597D01*
X58577552Y-67380128D01*
X58423211Y-67458768D01*
X58343256Y-67516859D01*
X58283072Y-67560586D01*
X58283070Y-67560588D01*
X58283069Y-67560588D01*
X58160588Y-67683069D01*
X58160588Y-67683070D01*
X58160586Y-67683072D01*
X58119681Y-67739373D01*
X58058768Y-67823211D01*
X57980128Y-67977552D01*
X57926597Y-68142302D01*
X57925074Y-68151918D01*
X57899500Y-68313389D01*
X57899500Y-68486611D01*
X57926598Y-68657701D01*
X57980127Y-68822445D01*
X58058768Y-68976788D01*
X58160586Y-69116928D01*
X58283072Y-69239414D01*
X58423212Y-69341232D01*
X58577555Y-69419873D01*
X58674254Y-69451292D01*
X58731927Y-69490728D01*
X58759126Y-69555087D01*
X58747212Y-69623933D01*
X58699968Y-69675409D01*
X58674256Y-69687152D01*
X58650777Y-69694781D01*
X58468386Y-69787715D01*
X58302786Y-69908028D01*
X58158028Y-70052786D01*
X58037715Y-70218386D01*
X57944781Y-70400776D01*
X57881522Y-70595465D01*
X57849500Y-70797648D01*
X51416074Y-70797648D01*
X51262667Y-70734106D01*
X51262658Y-70734103D01*
X51088694Y-70699500D01*
X51088691Y-70699500D01*
X51065892Y-70699500D01*
X50624500Y-70699500D01*
X50557461Y-70679815D01*
X50511706Y-70627011D01*
X50500500Y-70575500D01*
X50500500Y-68316228D01*
X51149500Y-68316228D01*
X51149500Y-68483771D01*
X51182182Y-68648074D01*
X51182184Y-68648082D01*
X51246295Y-68802860D01*
X51339373Y-68942162D01*
X51457837Y-69060626D01*
X51550494Y-69122537D01*
X51597137Y-69153703D01*
X51597138Y-69153703D01*
X51597139Y-69153704D01*
X51617411Y-69162101D01*
X51751918Y-69217816D01*
X51916228Y-69250499D01*
X51916232Y-69250500D01*
X51916233Y-69250500D01*
X52083768Y-69250500D01*
X52083769Y-69250499D01*
X52248082Y-69217816D01*
X52402863Y-69153703D01*
X52542162Y-69060626D01*
X52660626Y-68942162D01*
X52753703Y-68802863D01*
X52817816Y-68648082D01*
X52850500Y-68483767D01*
X52850500Y-68316233D01*
X52850499Y-68316228D01*
X53649500Y-68316228D01*
X53649500Y-68483771D01*
X53682182Y-68648074D01*
X53682184Y-68648082D01*
X53746295Y-68802860D01*
X53839373Y-68942162D01*
X53957837Y-69060626D01*
X54050494Y-69122537D01*
X54097137Y-69153703D01*
X54097138Y-69153703D01*
X54097139Y-69153704D01*
X54117411Y-69162101D01*
X54251918Y-69217816D01*
X54416228Y-69250499D01*
X54416232Y-69250500D01*
X54416233Y-69250500D01*
X54583768Y-69250500D01*
X54583769Y-69250499D01*
X54748082Y-69217816D01*
X54902863Y-69153703D01*
X55042162Y-69060626D01*
X55160626Y-68942162D01*
X55253703Y-68802863D01*
X55317816Y-68648082D01*
X55350500Y-68483767D01*
X55350500Y-68316233D01*
X55317816Y-68151918D01*
X55253703Y-67997137D01*
X55222537Y-67950494D01*
X55160626Y-67857837D01*
X55042162Y-67739373D01*
X54902860Y-67646295D01*
X54748082Y-67582184D01*
X54748074Y-67582182D01*
X54583771Y-67549500D01*
X54583767Y-67549500D01*
X54416233Y-67549500D01*
X54416228Y-67549500D01*
X54251925Y-67582182D01*
X54251917Y-67582184D01*
X54097139Y-67646295D01*
X53957837Y-67739373D01*
X53839373Y-67857837D01*
X53746295Y-67997139D01*
X53682184Y-68151917D01*
X53682182Y-68151925D01*
X53649500Y-68316228D01*
X52850499Y-68316228D01*
X52817816Y-68151918D01*
X52753703Y-67997137D01*
X52722537Y-67950494D01*
X52660626Y-67857837D01*
X52542162Y-67739373D01*
X52402860Y-67646295D01*
X52248082Y-67582184D01*
X52248074Y-67582182D01*
X52083771Y-67549500D01*
X52083767Y-67549500D01*
X51916233Y-67549500D01*
X51916228Y-67549500D01*
X51751925Y-67582182D01*
X51751917Y-67582184D01*
X51597139Y-67646295D01*
X51457837Y-67739373D01*
X51339373Y-67857837D01*
X51246295Y-67997139D01*
X51182184Y-68151917D01*
X51182182Y-68151925D01*
X51149500Y-68316228D01*
X50500500Y-68316228D01*
X50500500Y-65499997D01*
X61895034Y-65499997D01*
X61895034Y-65500002D01*
X61914858Y-65726599D01*
X61914860Y-65726610D01*
X61973730Y-65946317D01*
X61973735Y-65946331D01*
X62069863Y-66152478D01*
X62120974Y-66225472D01*
X62800000Y-65546446D01*
X62800000Y-65552661D01*
X62827259Y-65654394D01*
X62879920Y-65745606D01*
X62954394Y-65820080D01*
X63045606Y-65872741D01*
X63147339Y-65900000D01*
X63153553Y-65900000D01*
X62474526Y-66579025D01*
X62547513Y-66630132D01*
X62547521Y-66630136D01*
X62753668Y-66726264D01*
X62753682Y-66726269D01*
X62973389Y-66785139D01*
X62973400Y-66785141D01*
X63199998Y-66804966D01*
X63200002Y-66804966D01*
X63426599Y-66785141D01*
X63426610Y-66785139D01*
X63646317Y-66726269D01*
X63646331Y-66726264D01*
X63852478Y-66630136D01*
X63925471Y-66579024D01*
X63246447Y-65900000D01*
X63252661Y-65900000D01*
X63354394Y-65872741D01*
X63445606Y-65820080D01*
X63520080Y-65745606D01*
X63572741Y-65654394D01*
X63600000Y-65552661D01*
X63600000Y-65546447D01*
X64279024Y-66225471D01*
X64330136Y-66152478D01*
X64426264Y-65946331D01*
X64426269Y-65946317D01*
X64485139Y-65726610D01*
X64485141Y-65726599D01*
X64504966Y-65500002D01*
X64504966Y-65499997D01*
X71895034Y-65499997D01*
X71895034Y-65500002D01*
X71914858Y-65726599D01*
X71914860Y-65726610D01*
X71973730Y-65946317D01*
X71973735Y-65946331D01*
X72069863Y-66152478D01*
X72120974Y-66225472D01*
X72800000Y-65546446D01*
X72800000Y-65552661D01*
X72827259Y-65654394D01*
X72879920Y-65745606D01*
X72954394Y-65820080D01*
X73045606Y-65872741D01*
X73147339Y-65900000D01*
X73153553Y-65900000D01*
X72474526Y-66579025D01*
X72547513Y-66630132D01*
X72547521Y-66630136D01*
X72753668Y-66726264D01*
X72753682Y-66726269D01*
X72973389Y-66785139D01*
X72973400Y-66785141D01*
X73199998Y-66804966D01*
X73200002Y-66804966D01*
X73426599Y-66785141D01*
X73426610Y-66785139D01*
X73646317Y-66726269D01*
X73646331Y-66726264D01*
X73852478Y-66630136D01*
X73925471Y-66579024D01*
X73246447Y-65900000D01*
X73252661Y-65900000D01*
X73354394Y-65872741D01*
X73445606Y-65820080D01*
X73520080Y-65745606D01*
X73572741Y-65654394D01*
X73600000Y-65552661D01*
X73600000Y-65546447D01*
X74279024Y-66225471D01*
X74330136Y-66152478D01*
X74426264Y-65946331D01*
X74426269Y-65946317D01*
X74485139Y-65726610D01*
X74485141Y-65726599D01*
X74504966Y-65500002D01*
X74504966Y-65499997D01*
X74485141Y-65273400D01*
X74485139Y-65273389D01*
X74445378Y-65124997D01*
X75695034Y-65124997D01*
X75695034Y-65125002D01*
X75714858Y-65351599D01*
X75714860Y-65351610D01*
X75773730Y-65571317D01*
X75773735Y-65571331D01*
X75869863Y-65777478D01*
X75920974Y-65850472D01*
X76600000Y-65171446D01*
X76600000Y-65177661D01*
X76627259Y-65279394D01*
X76679920Y-65370606D01*
X76754394Y-65445080D01*
X76845606Y-65497741D01*
X76947339Y-65525000D01*
X76953553Y-65525000D01*
X76274526Y-66204025D01*
X76347513Y-66255132D01*
X76347521Y-66255136D01*
X76553668Y-66351264D01*
X76553682Y-66351269D01*
X76773389Y-66410139D01*
X76773400Y-66410141D01*
X76999998Y-66429966D01*
X77000002Y-66429966D01*
X77226599Y-66410141D01*
X77226610Y-66410139D01*
X77446317Y-66351269D01*
X77446331Y-66351264D01*
X77652478Y-66255136D01*
X77725471Y-66204024D01*
X77046447Y-65525000D01*
X77052661Y-65525000D01*
X77154394Y-65497741D01*
X77245606Y-65445080D01*
X77320080Y-65370606D01*
X77372741Y-65279394D01*
X77400000Y-65177661D01*
X77400000Y-65171447D01*
X78079024Y-65850471D01*
X78130136Y-65777478D01*
X78226264Y-65571331D01*
X78226269Y-65571317D01*
X78285139Y-65351610D01*
X78285141Y-65351599D01*
X78289656Y-65299998D01*
X91694532Y-65299998D01*
X91694532Y-65300001D01*
X91714364Y-65526686D01*
X91714366Y-65526697D01*
X91773258Y-65746488D01*
X91773261Y-65746497D01*
X91869431Y-65952732D01*
X91869432Y-65952734D01*
X91999954Y-66139141D01*
X92160858Y-66300045D01*
X92160861Y-66300047D01*
X92347266Y-66430568D01*
X92553504Y-66526739D01*
X92773308Y-66585635D01*
X92935230Y-66599801D01*
X92999998Y-66605468D01*
X93000000Y-66605468D01*
X93000002Y-66605468D01*
X93056673Y-66600509D01*
X93226692Y-66585635D01*
X93446496Y-66526739D01*
X93652734Y-66430568D01*
X93839139Y-66300047D01*
X94000047Y-66139139D01*
X94130568Y-65952734D01*
X94226739Y-65746496D01*
X94285635Y-65526692D01*
X94305468Y-65300000D01*
X94285635Y-65073308D01*
X94226739Y-64853504D01*
X94130568Y-64647266D01*
X94000047Y-64460861D01*
X94000045Y-64460858D01*
X93842913Y-64303726D01*
X93809428Y-64242403D01*
X93814412Y-64172711D01*
X93856284Y-64116778D01*
X93902078Y-64095368D01*
X93907480Y-64094091D01*
X93907483Y-64094091D01*
X94042331Y-64043796D01*
X94157546Y-63957546D01*
X94243796Y-63842331D01*
X94294091Y-63707483D01*
X94300500Y-63647873D01*
X94300499Y-61952128D01*
X94294091Y-61892517D01*
X94293424Y-61890730D01*
X94243797Y-61757671D01*
X94243793Y-61757664D01*
X94157547Y-61642455D01*
X94157544Y-61642452D01*
X94042335Y-61556206D01*
X94042328Y-61556202D01*
X93907482Y-61505908D01*
X93907483Y-61505908D01*
X93847883Y-61499501D01*
X93847881Y-61499500D01*
X93847873Y-61499500D01*
X93847864Y-61499500D01*
X92152129Y-61499500D01*
X92152123Y-61499501D01*
X92092516Y-61505908D01*
X91957671Y-61556202D01*
X91957664Y-61556206D01*
X91842455Y-61642452D01*
X91842452Y-61642455D01*
X91756206Y-61757664D01*
X91756202Y-61757671D01*
X91705908Y-61892517D01*
X91703267Y-61917086D01*
X91699501Y-61952123D01*
X91699500Y-61952135D01*
X91699500Y-63647870D01*
X91699501Y-63647876D01*
X91705908Y-63707483D01*
X91756202Y-63842328D01*
X91756206Y-63842335D01*
X91842452Y-63957544D01*
X91842455Y-63957547D01*
X91957664Y-64043793D01*
X91957671Y-64043797D01*
X92010927Y-64063660D01*
X92092517Y-64094091D01*
X92092527Y-64094092D01*
X92097913Y-64095365D01*
X92158631Y-64129935D01*
X92191021Y-64191843D01*
X92184799Y-64261435D01*
X92157088Y-64303725D01*
X91999951Y-64460862D01*
X91869432Y-64647265D01*
X91869431Y-64647267D01*
X91773261Y-64853502D01*
X91773258Y-64853511D01*
X91714366Y-65073302D01*
X91714364Y-65073313D01*
X91694532Y-65299998D01*
X78289656Y-65299998D01*
X78304966Y-65125002D01*
X78304966Y-65124997D01*
X78285141Y-64898400D01*
X78285139Y-64898389D01*
X78226269Y-64678682D01*
X78226264Y-64678668D01*
X78130136Y-64472521D01*
X78130132Y-64472513D01*
X78079025Y-64399526D01*
X77400000Y-65078551D01*
X77400000Y-65072339D01*
X77372741Y-64970606D01*
X77320080Y-64879394D01*
X77245606Y-64804920D01*
X77154394Y-64752259D01*
X77052661Y-64725000D01*
X77046445Y-64725000D01*
X77725472Y-64045974D01*
X77652478Y-63994863D01*
X77446331Y-63898735D01*
X77446317Y-63898730D01*
X77226610Y-63839860D01*
X77226599Y-63839858D01*
X77000002Y-63820034D01*
X76999998Y-63820034D01*
X76773400Y-63839858D01*
X76773389Y-63839860D01*
X76553682Y-63898730D01*
X76553673Y-63898734D01*
X76347516Y-63994866D01*
X76347512Y-63994868D01*
X76274526Y-64045973D01*
X76274526Y-64045974D01*
X76953553Y-64725000D01*
X76947339Y-64725000D01*
X76845606Y-64752259D01*
X76754394Y-64804920D01*
X76679920Y-64879394D01*
X76627259Y-64970606D01*
X76600000Y-65072339D01*
X76600000Y-65078552D01*
X75920974Y-64399526D01*
X75920973Y-64399526D01*
X75869868Y-64472512D01*
X75869866Y-64472516D01*
X75773734Y-64678673D01*
X75773730Y-64678682D01*
X75714860Y-64898389D01*
X75714858Y-64898400D01*
X75695034Y-65124997D01*
X74445378Y-65124997D01*
X74426269Y-65053682D01*
X74426264Y-65053668D01*
X74330136Y-64847521D01*
X74330132Y-64847513D01*
X74279025Y-64774526D01*
X73600000Y-65453551D01*
X73600000Y-65447339D01*
X73572741Y-65345606D01*
X73520080Y-65254394D01*
X73445606Y-65179920D01*
X73354394Y-65127259D01*
X73252661Y-65100000D01*
X73246445Y-65100000D01*
X73925472Y-64420974D01*
X73852478Y-64369863D01*
X73646331Y-64273735D01*
X73646317Y-64273730D01*
X73426610Y-64214860D01*
X73426599Y-64214858D01*
X73200002Y-64195034D01*
X73199998Y-64195034D01*
X72973400Y-64214858D01*
X72973389Y-64214860D01*
X72753682Y-64273730D01*
X72753673Y-64273734D01*
X72547516Y-64369866D01*
X72547512Y-64369868D01*
X72474526Y-64420973D01*
X72474526Y-64420974D01*
X73153553Y-65100000D01*
X73147339Y-65100000D01*
X73045606Y-65127259D01*
X72954394Y-65179920D01*
X72879920Y-65254394D01*
X72827259Y-65345606D01*
X72800000Y-65447339D01*
X72800000Y-65453552D01*
X72120974Y-64774526D01*
X72120973Y-64774526D01*
X72069868Y-64847512D01*
X72069866Y-64847516D01*
X71973734Y-65053673D01*
X71973730Y-65053682D01*
X71914860Y-65273389D01*
X71914858Y-65273400D01*
X71895034Y-65499997D01*
X64504966Y-65499997D01*
X64485141Y-65273400D01*
X64485139Y-65273389D01*
X64426269Y-65053682D01*
X64426264Y-65053668D01*
X64330136Y-64847521D01*
X64330132Y-64847513D01*
X64279025Y-64774526D01*
X63600000Y-65453551D01*
X63600000Y-65447339D01*
X63572741Y-65345606D01*
X63520080Y-65254394D01*
X63445606Y-65179920D01*
X63354394Y-65127259D01*
X63252661Y-65100000D01*
X63246445Y-65100000D01*
X63925472Y-64420974D01*
X63852478Y-64369863D01*
X63646331Y-64273735D01*
X63646317Y-64273730D01*
X63426610Y-64214860D01*
X63426599Y-64214858D01*
X63200002Y-64195034D01*
X63199998Y-64195034D01*
X62973400Y-64214858D01*
X62973389Y-64214860D01*
X62753682Y-64273730D01*
X62753673Y-64273734D01*
X62547516Y-64369866D01*
X62547512Y-64369868D01*
X62474526Y-64420973D01*
X62474526Y-64420974D01*
X63153553Y-65100000D01*
X63147339Y-65100000D01*
X63045606Y-65127259D01*
X62954394Y-65179920D01*
X62879920Y-65254394D01*
X62827259Y-65345606D01*
X62800000Y-65447339D01*
X62800000Y-65453552D01*
X62120974Y-64774526D01*
X62120973Y-64774526D01*
X62069868Y-64847512D01*
X62069866Y-64847516D01*
X61973734Y-65053673D01*
X61973730Y-65053682D01*
X61914860Y-65273389D01*
X61914858Y-65273400D01*
X61895034Y-65499997D01*
X50500500Y-65499997D01*
X50500500Y-64269269D01*
X50520185Y-64202230D01*
X50572989Y-64156475D01*
X50642147Y-64146531D01*
X50705703Y-64175556D01*
X50723766Y-64194958D01*
X50792809Y-64287187D01*
X50792812Y-64287190D01*
X50907906Y-64373350D01*
X50907913Y-64373354D01*
X51042620Y-64423596D01*
X51042627Y-64423598D01*
X51102155Y-64429999D01*
X51102172Y-64430000D01*
X51750000Y-64430000D01*
X51750000Y-63513012D01*
X51807007Y-63545925D01*
X51934174Y-63580000D01*
X52065826Y-63580000D01*
X52192993Y-63545925D01*
X52250000Y-63513012D01*
X52250000Y-64430000D01*
X52897828Y-64430000D01*
X52897844Y-64429999D01*
X52957372Y-64423598D01*
X52957379Y-64423596D01*
X53092086Y-64373354D01*
X53092093Y-64373350D01*
X53207187Y-64287190D01*
X53207190Y-64287187D01*
X53293350Y-64172093D01*
X53293354Y-64172086D01*
X53343596Y-64037379D01*
X53343598Y-64037372D01*
X53349999Y-63977844D01*
X53350000Y-63977827D01*
X53350000Y-63330000D01*
X52433012Y-63330000D01*
X52465925Y-63272993D01*
X52500000Y-63145826D01*
X52500000Y-63014174D01*
X52465925Y-62887007D01*
X52433012Y-62830000D01*
X53350000Y-62830000D01*
X53350000Y-62182172D01*
X53349999Y-62182155D01*
X53343598Y-62122627D01*
X53343596Y-62122620D01*
X53293354Y-61987913D01*
X53293350Y-61987906D01*
X53207190Y-61872812D01*
X53207187Y-61872809D01*
X53092093Y-61786649D01*
X53092088Y-61786646D01*
X52960528Y-61737577D01*
X52904595Y-61695705D01*
X52880178Y-61630241D01*
X52895030Y-61561968D01*
X52916175Y-61533720D01*
X53038495Y-61411401D01*
X53174035Y-61217830D01*
X53273903Y-61003663D01*
X53335063Y-60775408D01*
X53355659Y-60540000D01*
X53352159Y-60499998D01*
X61894532Y-60499998D01*
X61894532Y-60500001D01*
X61914364Y-60726686D01*
X61914366Y-60726697D01*
X61973258Y-60946488D01*
X61973261Y-60946497D01*
X62069431Y-61152732D01*
X62069432Y-61152734D01*
X62199954Y-61339141D01*
X62360858Y-61500045D01*
X62360861Y-61500047D01*
X62547266Y-61630568D01*
X62753504Y-61726739D01*
X62973308Y-61785635D01*
X63135230Y-61799801D01*
X63199998Y-61805468D01*
X63200000Y-61805468D01*
X63200002Y-61805468D01*
X63256673Y-61800509D01*
X63426692Y-61785635D01*
X63646496Y-61726739D01*
X63852734Y-61630568D01*
X64039139Y-61500047D01*
X64200047Y-61339139D01*
X64330568Y-61152734D01*
X64426739Y-60946496D01*
X64485635Y-60726692D01*
X64505468Y-60500000D01*
X64505468Y-60499998D01*
X71894532Y-60499998D01*
X71894532Y-60500001D01*
X71914364Y-60726686D01*
X71914366Y-60726697D01*
X71973258Y-60946488D01*
X71973261Y-60946497D01*
X72069431Y-61152732D01*
X72069432Y-61152734D01*
X72199954Y-61339141D01*
X72360858Y-61500045D01*
X72360861Y-61500047D01*
X72547266Y-61630568D01*
X72753504Y-61726739D01*
X72973308Y-61785635D01*
X73135230Y-61799801D01*
X73199998Y-61805468D01*
X73200000Y-61805468D01*
X73200002Y-61805468D01*
X73256673Y-61800509D01*
X73426692Y-61785635D01*
X73646496Y-61726739D01*
X73852734Y-61630568D01*
X74039139Y-61500047D01*
X74200047Y-61339139D01*
X74330568Y-61152734D01*
X74426739Y-60946496D01*
X74485635Y-60726692D01*
X74505468Y-60500000D01*
X74485635Y-60273308D01*
X74426739Y-60053504D01*
X74330568Y-59847266D01*
X74200047Y-59660861D01*
X74200045Y-59660858D01*
X74039141Y-59499954D01*
X73852734Y-59369432D01*
X73852732Y-59369431D01*
X73646497Y-59273261D01*
X73646488Y-59273258D01*
X73426697Y-59214366D01*
X73426693Y-59214365D01*
X73426692Y-59214365D01*
X73426691Y-59214364D01*
X73426686Y-59214364D01*
X73200002Y-59194532D01*
X73199998Y-59194532D01*
X72973313Y-59214364D01*
X72973302Y-59214366D01*
X72753511Y-59273258D01*
X72753502Y-59273261D01*
X72547267Y-59369431D01*
X72547265Y-59369432D01*
X72360858Y-59499954D01*
X72199954Y-59660858D01*
X72069432Y-59847265D01*
X72069431Y-59847267D01*
X71973261Y-60053502D01*
X71973258Y-60053511D01*
X71914366Y-60273302D01*
X71914364Y-60273313D01*
X71894532Y-60499998D01*
X64505468Y-60499998D01*
X64485635Y-60273308D01*
X64426739Y-60053504D01*
X64330568Y-59847266D01*
X64200047Y-59660861D01*
X64200045Y-59660858D01*
X64039141Y-59499954D01*
X63852734Y-59369432D01*
X63852732Y-59369431D01*
X63646497Y-59273261D01*
X63646488Y-59273258D01*
X63426697Y-59214366D01*
X63426693Y-59214365D01*
X63426692Y-59214365D01*
X63426691Y-59214364D01*
X63426686Y-59214364D01*
X63200002Y-59194532D01*
X63199998Y-59194532D01*
X62973313Y-59214364D01*
X62973302Y-59214366D01*
X62753511Y-59273258D01*
X62753502Y-59273261D01*
X62547267Y-59369431D01*
X62547265Y-59369432D01*
X62360858Y-59499954D01*
X62199954Y-59660858D01*
X62069432Y-59847265D01*
X62069431Y-59847267D01*
X61973261Y-60053502D01*
X61973258Y-60053511D01*
X61914366Y-60273302D01*
X61914364Y-60273313D01*
X61894532Y-60499998D01*
X53352159Y-60499998D01*
X53335063Y-60304592D01*
X53283887Y-60113597D01*
X53273905Y-60076344D01*
X53273904Y-60076343D01*
X53273903Y-60076337D01*
X53174035Y-59862171D01*
X53163600Y-59847267D01*
X53038494Y-59668597D01*
X52871402Y-59501506D01*
X52871396Y-59501501D01*
X52685842Y-59371575D01*
X52642217Y-59316998D01*
X52635023Y-59247500D01*
X52666546Y-59185145D01*
X52685842Y-59168425D01*
X52708026Y-59152891D01*
X52871401Y-59038495D01*
X53038495Y-58871401D01*
X53174035Y-58677830D01*
X53273903Y-58463663D01*
X53335063Y-58235408D01*
X53355659Y-58000000D01*
X53335063Y-57764592D01*
X53283887Y-57573597D01*
X53273905Y-57536344D01*
X53273904Y-57536343D01*
X53273903Y-57536337D01*
X53256958Y-57499998D01*
X54694532Y-57499998D01*
X54694532Y-57500001D01*
X54714364Y-57726686D01*
X54714366Y-57726697D01*
X54773258Y-57946488D01*
X54773261Y-57946497D01*
X54869431Y-58152732D01*
X54869432Y-58152734D01*
X54999954Y-58339141D01*
X55160858Y-58500045D01*
X55160861Y-58500047D01*
X55347266Y-58630568D01*
X55553504Y-58726739D01*
X55553509Y-58726740D01*
X55553511Y-58726741D01*
X55572164Y-58731739D01*
X55773308Y-58785635D01*
X55935230Y-58799801D01*
X55999998Y-58805468D01*
X56000000Y-58805468D01*
X56000002Y-58805468D01*
X56056673Y-58800509D01*
X56226692Y-58785635D01*
X56446496Y-58726739D01*
X56652734Y-58630568D01*
X56839139Y-58500047D01*
X57000047Y-58339139D01*
X57130568Y-58152734D01*
X57226739Y-57946496D01*
X57285635Y-57726692D01*
X57303032Y-57527842D01*
X57305468Y-57500001D01*
X57305468Y-57499998D01*
X62314532Y-57499998D01*
X62314532Y-57500001D01*
X62334364Y-57726686D01*
X62334366Y-57726697D01*
X62393258Y-57946488D01*
X62393261Y-57946497D01*
X62489431Y-58152732D01*
X62489432Y-58152734D01*
X62619954Y-58339141D01*
X62780858Y-58500045D01*
X62780861Y-58500047D01*
X62967266Y-58630568D01*
X63173504Y-58726739D01*
X63173509Y-58726740D01*
X63173511Y-58726741D01*
X63192164Y-58731739D01*
X63393308Y-58785635D01*
X63555230Y-58799801D01*
X63619998Y-58805468D01*
X63620000Y-58805468D01*
X63620002Y-58805468D01*
X63676673Y-58800509D01*
X63846692Y-58785635D01*
X64066496Y-58726739D01*
X64272734Y-58630568D01*
X64459139Y-58500047D01*
X64620047Y-58339139D01*
X64708426Y-58212919D01*
X64763001Y-58169295D01*
X64832499Y-58162101D01*
X64894854Y-58193623D01*
X64911570Y-58212915D01*
X64991816Y-58327518D01*
X64999955Y-58339142D01*
X65160858Y-58500045D01*
X65160861Y-58500047D01*
X65347266Y-58630568D01*
X65553504Y-58726739D01*
X65553509Y-58726740D01*
X65553511Y-58726741D01*
X65572164Y-58731739D01*
X65773308Y-58785635D01*
X65935230Y-58799801D01*
X65999998Y-58805468D01*
X66000000Y-58805468D01*
X66000002Y-58805468D01*
X66056673Y-58800509D01*
X66226692Y-58785635D01*
X66446496Y-58726739D01*
X66652734Y-58630568D01*
X66839139Y-58500047D01*
X67000047Y-58339139D01*
X67130568Y-58152734D01*
X67226739Y-57946496D01*
X67285635Y-57726692D01*
X67303032Y-57527842D01*
X67305468Y-57500001D01*
X67305468Y-57499998D01*
X72314532Y-57499998D01*
X72314532Y-57500001D01*
X72334364Y-57726686D01*
X72334366Y-57726697D01*
X72393258Y-57946488D01*
X72393261Y-57946497D01*
X72489431Y-58152732D01*
X72489432Y-58152734D01*
X72619954Y-58339141D01*
X72780858Y-58500045D01*
X72780861Y-58500047D01*
X72967266Y-58630568D01*
X73173504Y-58726739D01*
X73173509Y-58726740D01*
X73173511Y-58726741D01*
X73192164Y-58731739D01*
X73393308Y-58785635D01*
X73555230Y-58799801D01*
X73619998Y-58805468D01*
X73620000Y-58805468D01*
X73620002Y-58805468D01*
X73676673Y-58800509D01*
X73846692Y-58785635D01*
X74066496Y-58726739D01*
X74272734Y-58630568D01*
X74459139Y-58500047D01*
X74620047Y-58339139D01*
X74750568Y-58152734D01*
X74846739Y-57946496D01*
X74905635Y-57726692D01*
X74923032Y-57527842D01*
X74925031Y-57504998D01*
X75694532Y-57504998D01*
X75694532Y-57505001D01*
X75714364Y-57731686D01*
X75714366Y-57731697D01*
X75773258Y-57951488D01*
X75773261Y-57951497D01*
X75869431Y-58157732D01*
X75869432Y-58157734D01*
X75999954Y-58344141D01*
X76160858Y-58505045D01*
X76160861Y-58505047D01*
X76347266Y-58635568D01*
X76553504Y-58731739D01*
X76773308Y-58790635D01*
X76935230Y-58804801D01*
X76999998Y-58810468D01*
X77000000Y-58810468D01*
X77000002Y-58810468D01*
X77057150Y-58805468D01*
X77226692Y-58790635D01*
X77446496Y-58731739D01*
X77652734Y-58635568D01*
X77839139Y-58505047D01*
X78000047Y-58344139D01*
X78130568Y-58157734D01*
X78226739Y-57951496D01*
X78285635Y-57731692D01*
X78304750Y-57513208D01*
X78305468Y-57505001D01*
X78305468Y-57504998D01*
X78299801Y-57440230D01*
X78285635Y-57278308D01*
X78226739Y-57058504D01*
X78130568Y-56852266D01*
X78000047Y-56665861D01*
X78000045Y-56665858D01*
X77839141Y-56504954D01*
X77652734Y-56374432D01*
X77652732Y-56374431D01*
X77446497Y-56278261D01*
X77446488Y-56278258D01*
X77226697Y-56219366D01*
X77226693Y-56219365D01*
X77226692Y-56219365D01*
X77226691Y-56219364D01*
X77226686Y-56219364D01*
X77000002Y-56199532D01*
X76999998Y-56199532D01*
X76773313Y-56219364D01*
X76773302Y-56219366D01*
X76553511Y-56278258D01*
X76553502Y-56278261D01*
X76347267Y-56374431D01*
X76347265Y-56374432D01*
X76160858Y-56504954D01*
X75999954Y-56665858D01*
X75869432Y-56852265D01*
X75869431Y-56852267D01*
X75773261Y-57058502D01*
X75773258Y-57058511D01*
X75714366Y-57278302D01*
X75714364Y-57278313D01*
X75694532Y-57504998D01*
X74925031Y-57504998D01*
X74925468Y-57500001D01*
X74925468Y-57499998D01*
X74909910Y-57322171D01*
X74905635Y-57273308D01*
X74846739Y-57053504D01*
X74750568Y-56847266D01*
X74620047Y-56660861D01*
X74620045Y-56660858D01*
X74459141Y-56499954D01*
X74272734Y-56369432D01*
X74272732Y-56369431D01*
X74066497Y-56273261D01*
X74066488Y-56273258D01*
X73846697Y-56214366D01*
X73846693Y-56214365D01*
X73846692Y-56214365D01*
X73846691Y-56214364D01*
X73846686Y-56214364D01*
X73620002Y-56194532D01*
X73619998Y-56194532D01*
X73393313Y-56214364D01*
X73393302Y-56214366D01*
X73173511Y-56273258D01*
X73173502Y-56273261D01*
X72967267Y-56369431D01*
X72967265Y-56369432D01*
X72780858Y-56499954D01*
X72619954Y-56660858D01*
X72489432Y-56847265D01*
X72489431Y-56847267D01*
X72393261Y-57053502D01*
X72393258Y-57053511D01*
X72334366Y-57273302D01*
X72334364Y-57273313D01*
X72314532Y-57499998D01*
X67305468Y-57499998D01*
X67289910Y-57322171D01*
X67285635Y-57273308D01*
X67226739Y-57053504D01*
X67130568Y-56847266D01*
X67000047Y-56660861D01*
X67000045Y-56660858D01*
X66839141Y-56499954D01*
X66652734Y-56369432D01*
X66652732Y-56369431D01*
X66446497Y-56273261D01*
X66446488Y-56273258D01*
X66226697Y-56214366D01*
X66226693Y-56214365D01*
X66226692Y-56214365D01*
X66226691Y-56214364D01*
X66226686Y-56214364D01*
X66000002Y-56194532D01*
X65999998Y-56194532D01*
X65773313Y-56214364D01*
X65773302Y-56214366D01*
X65553511Y-56273258D01*
X65553502Y-56273261D01*
X65347267Y-56369431D01*
X65347265Y-56369432D01*
X65160858Y-56499954D01*
X64999954Y-56660858D01*
X64911575Y-56787079D01*
X64856999Y-56830704D01*
X64787500Y-56837898D01*
X64725145Y-56806376D01*
X64708425Y-56787079D01*
X64620045Y-56660858D01*
X64459141Y-56499954D01*
X64272734Y-56369432D01*
X64272732Y-56369431D01*
X64066497Y-56273261D01*
X64066488Y-56273258D01*
X63846697Y-56214366D01*
X63846693Y-56214365D01*
X63846692Y-56214365D01*
X63846691Y-56214364D01*
X63846686Y-56214364D01*
X63620002Y-56194532D01*
X63619998Y-56194532D01*
X63393313Y-56214364D01*
X63393302Y-56214366D01*
X63173511Y-56273258D01*
X63173502Y-56273261D01*
X62967267Y-56369431D01*
X62967265Y-56369432D01*
X62780858Y-56499954D01*
X62619954Y-56660858D01*
X62489432Y-56847265D01*
X62489431Y-56847267D01*
X62393261Y-57053502D01*
X62393258Y-57053511D01*
X62334366Y-57273302D01*
X62334364Y-57273313D01*
X62314532Y-57499998D01*
X57305468Y-57499998D01*
X57289910Y-57322171D01*
X57285635Y-57273308D01*
X57226739Y-57053504D01*
X57130568Y-56847266D01*
X57000047Y-56660861D01*
X57000045Y-56660858D01*
X56839141Y-56499954D01*
X56652734Y-56369432D01*
X56652732Y-56369431D01*
X56446497Y-56273261D01*
X56446488Y-56273258D01*
X56226697Y-56214366D01*
X56226693Y-56214365D01*
X56226692Y-56214365D01*
X56226691Y-56214364D01*
X56226686Y-56214364D01*
X56000002Y-56194532D01*
X55999998Y-56194532D01*
X55773313Y-56214364D01*
X55773302Y-56214366D01*
X55553511Y-56273258D01*
X55553502Y-56273261D01*
X55347267Y-56369431D01*
X55347265Y-56369432D01*
X55160858Y-56499954D01*
X54999954Y-56660858D01*
X54869432Y-56847265D01*
X54869431Y-56847267D01*
X54773261Y-57053502D01*
X54773258Y-57053511D01*
X54714366Y-57273302D01*
X54714364Y-57273313D01*
X54694532Y-57499998D01*
X53256958Y-57499998D01*
X53174035Y-57322171D01*
X53143326Y-57278313D01*
X53038494Y-57128597D01*
X52871402Y-56961506D01*
X52871395Y-56961501D01*
X52677834Y-56825967D01*
X52677830Y-56825965D01*
X52635821Y-56806376D01*
X52463663Y-56726097D01*
X52463659Y-56726096D01*
X52463655Y-56726094D01*
X52235413Y-56664938D01*
X52235403Y-56664936D01*
X52000001Y-56644341D01*
X51999999Y-56644341D01*
X51764596Y-56664936D01*
X51764586Y-56664938D01*
X51536344Y-56726094D01*
X51536335Y-56726098D01*
X51322171Y-56825964D01*
X51322169Y-56825965D01*
X51128597Y-56961505D01*
X50961505Y-57128597D01*
X50825965Y-57322169D01*
X50825964Y-57322171D01*
X50736882Y-57513208D01*
X50690709Y-57565647D01*
X50623516Y-57584799D01*
X50556635Y-57564583D01*
X50511300Y-57511418D01*
X50500500Y-57460803D01*
X50500500Y-55624500D01*
X50520185Y-55557461D01*
X50572989Y-55511706D01*
X50624500Y-55500500D01*
X91793106Y-55500500D01*
X91860145Y-55520185D01*
G37*
%TD.AperFunction*%
%TD*%
M02*
