%TF.GenerationSoftware,KiCad,Pcbnew,(6.0.5)*%
%TF.CreationDate,2022-06-13T14:52:15+01:00*%
%TF.ProjectId,ArduinoUnoMIDIMergeShield,41726475-696e-46f5-956e-6f4d4944494d,rev?*%
%TF.SameCoordinates,Original*%
%TF.FileFunction,Legend,Top*%
%TF.FilePolarity,Positive*%
%FSLAX46Y46*%
G04 Gerber Fmt 4.6, Leading zero omitted, Abs format (unit mm)*
G04 Created by KiCad (PCBNEW (6.0.5)) date 2022-06-13 14:52:15*
%MOMM*%
%LPD*%
G01*
G04 APERTURE LIST*
%ADD10C,0.200000*%
%ADD11C,0.150000*%
%ADD12C,0.304800*%
%ADD13C,0.120000*%
%ADD14O,1.727200X2.032000*%
%ADD15C,4.064000*%
%ADD16C,2.499360*%
G04 APERTURE END LIST*
D10*
X158504666Y-116657380D02*
X158504666Y-115657380D01*
X158838000Y-116371666D01*
X159171333Y-115657380D01*
X159171333Y-116657380D01*
X159647523Y-116657380D02*
X159647523Y-115657380D01*
X160123714Y-116657380D02*
X160123714Y-115657380D01*
X160361809Y-115657380D01*
X160504666Y-115705000D01*
X160599904Y-115800238D01*
X160647523Y-115895476D01*
X160695142Y-116085952D01*
X160695142Y-116228809D01*
X160647523Y-116419285D01*
X160599904Y-116514523D01*
X160504666Y-116609761D01*
X160361809Y-116657380D01*
X160123714Y-116657380D01*
X161123714Y-116657380D02*
X161123714Y-115657380D01*
X162361809Y-116657380D02*
X162361809Y-115657380D01*
X162695142Y-116371666D01*
X163028476Y-115657380D01*
X163028476Y-116657380D01*
X163885619Y-116609761D02*
X163790380Y-116657380D01*
X163599904Y-116657380D01*
X163504666Y-116609761D01*
X163457047Y-116514523D01*
X163457047Y-116133571D01*
X163504666Y-116038333D01*
X163599904Y-115990714D01*
X163790380Y-115990714D01*
X163885619Y-116038333D01*
X163933238Y-116133571D01*
X163933238Y-116228809D01*
X163457047Y-116324047D01*
X164361809Y-116657380D02*
X164361809Y-115990714D01*
X164361809Y-116181190D02*
X164409428Y-116085952D01*
X164457047Y-116038333D01*
X164552285Y-115990714D01*
X164647523Y-115990714D01*
X165409428Y-115990714D02*
X165409428Y-116800238D01*
X165361809Y-116895476D01*
X165314190Y-116943095D01*
X165218952Y-116990714D01*
X165076095Y-116990714D01*
X164980857Y-116943095D01*
X165409428Y-116609761D02*
X165314190Y-116657380D01*
X165123714Y-116657380D01*
X165028476Y-116609761D01*
X164980857Y-116562142D01*
X164933238Y-116466904D01*
X164933238Y-116181190D01*
X164980857Y-116085952D01*
X165028476Y-116038333D01*
X165123714Y-115990714D01*
X165314190Y-115990714D01*
X165409428Y-116038333D01*
X166266571Y-116609761D02*
X166171333Y-116657380D01*
X165980857Y-116657380D01*
X165885619Y-116609761D01*
X165838000Y-116514523D01*
X165838000Y-116133571D01*
X165885619Y-116038333D01*
X165980857Y-115990714D01*
X166171333Y-115990714D01*
X166266571Y-116038333D01*
X166314190Y-116133571D01*
X166314190Y-116228809D01*
X165838000Y-116324047D01*
X167409428Y-115990714D02*
X167647523Y-116657380D01*
X167885619Y-115990714D01*
X168457047Y-115657380D02*
X168552285Y-115657380D01*
X168647523Y-115705000D01*
X168695142Y-115752619D01*
X168742761Y-115847857D01*
X168790380Y-116038333D01*
X168790380Y-116276428D01*
X168742761Y-116466904D01*
X168695142Y-116562142D01*
X168647523Y-116609761D01*
X168552285Y-116657380D01*
X168457047Y-116657380D01*
X168361809Y-116609761D01*
X168314190Y-116562142D01*
X168266571Y-116466904D01*
X168218952Y-116276428D01*
X168218952Y-116038333D01*
X168266571Y-115847857D01*
X168314190Y-115752619D01*
X168361809Y-115705000D01*
X168457047Y-115657380D01*
X169218952Y-116562142D02*
X169266571Y-116609761D01*
X169218952Y-116657380D01*
X169171333Y-116609761D01*
X169218952Y-116562142D01*
X169218952Y-116657380D01*
X169599904Y-115657380D02*
X170218952Y-115657380D01*
X169885619Y-116038333D01*
X170028476Y-116038333D01*
X170123714Y-116085952D01*
X170171333Y-116133571D01*
X170218952Y-116228809D01*
X170218952Y-116466904D01*
X170171333Y-116562142D01*
X170123714Y-116609761D01*
X170028476Y-116657380D01*
X169742761Y-116657380D01*
X169647523Y-116609761D01*
X169599904Y-116562142D01*
X156861809Y-119197380D02*
X156861809Y-118197380D01*
X156861809Y-119149761D02*
X156766571Y-119197380D01*
X156576095Y-119197380D01*
X156480857Y-119149761D01*
X156433238Y-119102142D01*
X156385619Y-119006904D01*
X156385619Y-118721190D01*
X156433238Y-118625952D01*
X156480857Y-118578333D01*
X156576095Y-118530714D01*
X156766571Y-118530714D01*
X156861809Y-118578333D01*
X157338000Y-119197380D02*
X157338000Y-118530714D01*
X157338000Y-118197380D02*
X157290380Y-118245000D01*
X157338000Y-118292619D01*
X157385619Y-118245000D01*
X157338000Y-118197380D01*
X157338000Y-118292619D01*
X157718952Y-118530714D02*
X157957047Y-119197380D01*
X158195142Y-118530714D02*
X157957047Y-119197380D01*
X157861809Y-119435476D01*
X157814190Y-119483095D01*
X157718952Y-119530714D01*
X158957047Y-119149761D02*
X158861809Y-119197380D01*
X158671333Y-119197380D01*
X158576095Y-119149761D01*
X158528476Y-119054523D01*
X158528476Y-118673571D01*
X158576095Y-118578333D01*
X158671333Y-118530714D01*
X158861809Y-118530714D01*
X158957047Y-118578333D01*
X159004666Y-118673571D01*
X159004666Y-118768809D01*
X158528476Y-118864047D01*
X159576095Y-119197380D02*
X159480857Y-119149761D01*
X159433238Y-119054523D01*
X159433238Y-118197380D01*
X160338000Y-119149761D02*
X160242761Y-119197380D01*
X160052285Y-119197380D01*
X159957047Y-119149761D01*
X159909428Y-119054523D01*
X159909428Y-118673571D01*
X159957047Y-118578333D01*
X160052285Y-118530714D01*
X160242761Y-118530714D01*
X160338000Y-118578333D01*
X160385619Y-118673571D01*
X160385619Y-118768809D01*
X159909428Y-118864047D01*
X161242761Y-119149761D02*
X161147523Y-119197380D01*
X160957047Y-119197380D01*
X160861809Y-119149761D01*
X160814190Y-119102142D01*
X160766571Y-119006904D01*
X160766571Y-118721190D01*
X160814190Y-118625952D01*
X160861809Y-118578333D01*
X160957047Y-118530714D01*
X161147523Y-118530714D01*
X161242761Y-118578333D01*
X161528476Y-118530714D02*
X161909428Y-118530714D01*
X161671333Y-118197380D02*
X161671333Y-119054523D01*
X161718952Y-119149761D01*
X161814190Y-119197380D01*
X161909428Y-119197380D01*
X162242761Y-119197380D02*
X162242761Y-118530714D01*
X162242761Y-118721190D02*
X162290380Y-118625952D01*
X162338000Y-118578333D01*
X162433238Y-118530714D01*
X162528476Y-118530714D01*
X163004666Y-119197380D02*
X162909428Y-119149761D01*
X162861809Y-119102142D01*
X162814190Y-119006904D01*
X162814190Y-118721190D01*
X162861809Y-118625952D01*
X162909428Y-118578333D01*
X163004666Y-118530714D01*
X163147523Y-118530714D01*
X163242761Y-118578333D01*
X163290380Y-118625952D01*
X163338000Y-118721190D01*
X163338000Y-119006904D01*
X163290380Y-119102142D01*
X163242761Y-119149761D01*
X163147523Y-119197380D01*
X163004666Y-119197380D01*
X163766571Y-119197380D02*
X163766571Y-118530714D01*
X163766571Y-118625952D02*
X163814190Y-118578333D01*
X163909428Y-118530714D01*
X164052285Y-118530714D01*
X164147523Y-118578333D01*
X164195142Y-118673571D01*
X164195142Y-119197380D01*
X164195142Y-118673571D02*
X164242761Y-118578333D01*
X164338000Y-118530714D01*
X164480857Y-118530714D01*
X164576095Y-118578333D01*
X164623714Y-118673571D01*
X164623714Y-119197380D01*
X165528476Y-118530714D02*
X165528476Y-119197380D01*
X165099904Y-118530714D02*
X165099904Y-119054523D01*
X165147523Y-119149761D01*
X165242761Y-119197380D01*
X165385619Y-119197380D01*
X165480857Y-119149761D01*
X165528476Y-119102142D01*
X165957047Y-119149761D02*
X166052285Y-119197380D01*
X166242761Y-119197380D01*
X166338000Y-119149761D01*
X166385619Y-119054523D01*
X166385619Y-119006904D01*
X166338000Y-118911666D01*
X166242761Y-118864047D01*
X166099904Y-118864047D01*
X166004666Y-118816428D01*
X165957047Y-118721190D01*
X165957047Y-118673571D01*
X166004666Y-118578333D01*
X166099904Y-118530714D01*
X166242761Y-118530714D01*
X166338000Y-118578333D01*
X166814190Y-119197380D02*
X166814190Y-118530714D01*
X166814190Y-118197380D02*
X166766571Y-118245000D01*
X166814190Y-118292619D01*
X166861809Y-118245000D01*
X166814190Y-118197380D01*
X166814190Y-118292619D01*
X167718952Y-119149761D02*
X167623714Y-119197380D01*
X167433238Y-119197380D01*
X167338000Y-119149761D01*
X167290380Y-119102142D01*
X167242761Y-119006904D01*
X167242761Y-118721190D01*
X167290380Y-118625952D01*
X167338000Y-118578333D01*
X167433238Y-118530714D01*
X167623714Y-118530714D01*
X167718952Y-118578333D01*
X168861809Y-118292619D02*
X168909428Y-118245000D01*
X169004666Y-118197380D01*
X169242761Y-118197380D01*
X169338000Y-118245000D01*
X169385619Y-118292619D01*
X169433238Y-118387857D01*
X169433238Y-118483095D01*
X169385619Y-118625952D01*
X168814190Y-119197380D01*
X169433238Y-119197380D01*
X170052285Y-118197380D02*
X170147523Y-118197380D01*
X170242761Y-118245000D01*
X170290380Y-118292619D01*
X170338000Y-118387857D01*
X170385619Y-118578333D01*
X170385619Y-118816428D01*
X170338000Y-119006904D01*
X170290380Y-119102142D01*
X170242761Y-119149761D01*
X170147523Y-119197380D01*
X170052285Y-119197380D01*
X169957047Y-119149761D01*
X169909428Y-119102142D01*
X169861809Y-119006904D01*
X169814190Y-118816428D01*
X169814190Y-118578333D01*
X169861809Y-118387857D01*
X169909428Y-118292619D01*
X169957047Y-118245000D01*
X170052285Y-118197380D01*
X170766571Y-118292619D02*
X170814190Y-118245000D01*
X170909428Y-118197380D01*
X171147523Y-118197380D01*
X171242761Y-118245000D01*
X171290380Y-118292619D01*
X171338000Y-118387857D01*
X171338000Y-118483095D01*
X171290380Y-118625952D01*
X170718952Y-119197380D01*
X171338000Y-119197380D01*
X171718952Y-118292619D02*
X171766571Y-118245000D01*
X171861809Y-118197380D01*
X172099904Y-118197380D01*
X172195142Y-118245000D01*
X172242761Y-118292619D01*
X172290380Y-118387857D01*
X172290380Y-118483095D01*
X172242761Y-118625952D01*
X171671333Y-119197380D01*
X172290380Y-119197380D01*
D11*
X139390380Y-120999285D02*
X139390380Y-121570714D01*
X139390380Y-121285000D02*
X138390380Y-121285000D01*
X138533238Y-121380238D01*
X138628476Y-121475476D01*
X138676095Y-121570714D01*
%TO.C,P1*%
X147089904Y-121737380D02*
X147089904Y-120737380D01*
X147470857Y-120737380D01*
X147566095Y-120785000D01*
X147613714Y-120832619D01*
X147661333Y-120927857D01*
X147661333Y-121070714D01*
X147613714Y-121165952D01*
X147566095Y-121213571D01*
X147470857Y-121261190D01*
X147089904Y-121261190D01*
X148613714Y-121737380D02*
X148042285Y-121737380D01*
X148328000Y-121737380D02*
X148328000Y-120737380D01*
X148232761Y-120880238D01*
X148137523Y-120975476D01*
X148042285Y-121023095D01*
%TO.C,P2*%
X167663904Y-121737380D02*
X167663904Y-120737380D01*
X168044857Y-120737380D01*
X168140095Y-120785000D01*
X168187714Y-120832619D01*
X168235333Y-120927857D01*
X168235333Y-121070714D01*
X168187714Y-121165952D01*
X168140095Y-121213571D01*
X168044857Y-121261190D01*
X167663904Y-121261190D01*
X168616285Y-120832619D02*
X168663904Y-120785000D01*
X168759142Y-120737380D01*
X168997238Y-120737380D01*
X169092476Y-120785000D01*
X169140095Y-120832619D01*
X169187714Y-120927857D01*
X169187714Y-121023095D01*
X169140095Y-121165952D01*
X168568666Y-121737380D01*
X169187714Y-121737380D01*
%TO.C,P3*%
X140485904Y-78811380D02*
X140485904Y-77811380D01*
X140866857Y-77811380D01*
X140962095Y-77859000D01*
X141009714Y-77906619D01*
X141057333Y-78001857D01*
X141057333Y-78144714D01*
X141009714Y-78239952D01*
X140962095Y-78287571D01*
X140866857Y-78335190D01*
X140485904Y-78335190D01*
X141390666Y-77811380D02*
X142009714Y-77811380D01*
X141676380Y-78192333D01*
X141819238Y-78192333D01*
X141914476Y-78239952D01*
X141962095Y-78287571D01*
X142009714Y-78382809D01*
X142009714Y-78620904D01*
X141962095Y-78716142D01*
X141914476Y-78763761D01*
X141819238Y-78811380D01*
X141533523Y-78811380D01*
X141438285Y-78763761D01*
X141390666Y-78716142D01*
%TO.C,P4*%
X164869904Y-78811380D02*
X164869904Y-77811380D01*
X165250857Y-77811380D01*
X165346095Y-77859000D01*
X165393714Y-77906619D01*
X165441333Y-78001857D01*
X165441333Y-78144714D01*
X165393714Y-78239952D01*
X165346095Y-78287571D01*
X165250857Y-78335190D01*
X164869904Y-78335190D01*
X166298476Y-78144714D02*
X166298476Y-78811380D01*
X166060380Y-77763761D02*
X165822285Y-78478047D01*
X166441333Y-78478047D01*
%TO.C,D1*%
X136850380Y-83923095D02*
X135850380Y-83923095D01*
X135850380Y-83685000D01*
X135898000Y-83542142D01*
X135993238Y-83446904D01*
X136088476Y-83399285D01*
X136278952Y-83351666D01*
X136421809Y-83351666D01*
X136612285Y-83399285D01*
X136707523Y-83446904D01*
X136802761Y-83542142D01*
X136850380Y-83685000D01*
X136850380Y-83923095D01*
X136850380Y-82399285D02*
X136850380Y-82970714D01*
X136850380Y-82685000D02*
X135850380Y-82685000D01*
X135993238Y-82780238D01*
X136088476Y-82875476D01*
X136136095Y-82970714D01*
%TO.C,D2*%
X136850380Y-104243095D02*
X135850380Y-104243095D01*
X135850380Y-104005000D01*
X135898000Y-103862142D01*
X135993238Y-103766904D01*
X136088476Y-103719285D01*
X136278952Y-103671666D01*
X136421809Y-103671666D01*
X136612285Y-103719285D01*
X136707523Y-103766904D01*
X136802761Y-103862142D01*
X136850380Y-104005000D01*
X136850380Y-104243095D01*
X135945619Y-103290714D02*
X135898000Y-103243095D01*
X135850380Y-103147857D01*
X135850380Y-102909761D01*
X135898000Y-102814523D01*
X135945619Y-102766904D01*
X136040857Y-102719285D01*
X136136095Y-102719285D01*
X136278952Y-102766904D01*
X136850380Y-103338333D01*
X136850380Y-102719285D01*
D12*
%TO.C,IN1*%
X118364000Y-90224428D02*
X118364000Y-88700428D01*
X119089714Y-90224428D02*
X119089714Y-88700428D01*
X119960571Y-90224428D01*
X119960571Y-88700428D01*
X121484571Y-90224428D02*
X120613714Y-90224428D01*
X121049142Y-90224428D02*
X121049142Y-88700428D01*
X120904000Y-88918142D01*
X120758857Y-89063285D01*
X120613714Y-89135857D01*
X115243428Y-78794428D02*
X115243428Y-77270428D01*
X115969142Y-78794428D02*
X115969142Y-77270428D01*
X116840000Y-78794428D01*
X116840000Y-77270428D01*
X119525142Y-78794428D02*
X118654285Y-78794428D01*
X119089714Y-78794428D02*
X119089714Y-77270428D01*
X118944571Y-77488142D01*
X118799428Y-77633285D01*
X118654285Y-77705857D01*
%TO.C,IN2*%
X118364000Y-110544428D02*
X118364000Y-109020428D01*
X119089714Y-110544428D02*
X119089714Y-109020428D01*
X119960571Y-110544428D01*
X119960571Y-109020428D01*
X120613714Y-109165571D02*
X120686285Y-109093000D01*
X120831428Y-109020428D01*
X121194285Y-109020428D01*
X121339428Y-109093000D01*
X121412000Y-109165571D01*
X121484571Y-109310714D01*
X121484571Y-109455857D01*
X121412000Y-109673571D01*
X120541142Y-110544428D01*
X121484571Y-110544428D01*
X115243428Y-121974428D02*
X115243428Y-120450428D01*
X115969142Y-121974428D02*
X115969142Y-120450428D01*
X116840000Y-121974428D01*
X116840000Y-120450428D01*
X118654285Y-120595571D02*
X118726857Y-120523000D01*
X118872000Y-120450428D01*
X119234857Y-120450428D01*
X119380000Y-120523000D01*
X119452571Y-120595571D01*
X119525142Y-120740714D01*
X119525142Y-120885857D01*
X119452571Y-121103571D01*
X118581714Y-121974428D01*
X119525142Y-121974428D01*
%TO.C,OUT1*%
X170978285Y-103940428D02*
X171268571Y-103940428D01*
X171413714Y-104013000D01*
X171558857Y-104158142D01*
X171631428Y-104448428D01*
X171631428Y-104956428D01*
X171558857Y-105246714D01*
X171413714Y-105391857D01*
X171268571Y-105464428D01*
X170978285Y-105464428D01*
X170833142Y-105391857D01*
X170688000Y-105246714D01*
X170615428Y-104956428D01*
X170615428Y-104448428D01*
X170688000Y-104158142D01*
X170833142Y-104013000D01*
X170978285Y-103940428D01*
X172284571Y-103940428D02*
X172284571Y-105174142D01*
X172357142Y-105319285D01*
X172429714Y-105391857D01*
X172574857Y-105464428D01*
X172865142Y-105464428D01*
X173010285Y-105391857D01*
X173082857Y-105319285D01*
X173155428Y-105174142D01*
X173155428Y-103940428D01*
X173663428Y-103940428D02*
X174534285Y-103940428D01*
X174098857Y-105464428D02*
X174098857Y-103940428D01*
X175840571Y-105464428D02*
X174969714Y-105464428D01*
X175405142Y-105464428D02*
X175405142Y-103940428D01*
X175260000Y-104158142D01*
X175114857Y-104303285D01*
X174969714Y-104375857D01*
X170434000Y-92510428D02*
X170724285Y-92510428D01*
X170869428Y-92583000D01*
X171014571Y-92728142D01*
X171087142Y-93018428D01*
X171087142Y-93526428D01*
X171014571Y-93816714D01*
X170869428Y-93961857D01*
X170724285Y-94034428D01*
X170434000Y-94034428D01*
X170288857Y-93961857D01*
X170143714Y-93816714D01*
X170071142Y-93526428D01*
X170071142Y-93018428D01*
X170143714Y-92728142D01*
X170288857Y-92583000D01*
X170434000Y-92510428D01*
X171740285Y-92510428D02*
X171740285Y-93744142D01*
X171812857Y-93889285D01*
X171885428Y-93961857D01*
X172030571Y-94034428D01*
X172320857Y-94034428D01*
X172466000Y-93961857D01*
X172538571Y-93889285D01*
X172611142Y-93744142D01*
X172611142Y-92510428D01*
X173119142Y-92510428D02*
X173990000Y-92510428D01*
X173554571Y-94034428D02*
X173554571Y-92510428D01*
D11*
%TO.C,R1*%
X133040380Y-83351666D02*
X132564190Y-83685000D01*
X133040380Y-83923095D02*
X132040380Y-83923095D01*
X132040380Y-83542142D01*
X132088000Y-83446904D01*
X132135619Y-83399285D01*
X132230857Y-83351666D01*
X132373714Y-83351666D01*
X132468952Y-83399285D01*
X132516571Y-83446904D01*
X132564190Y-83542142D01*
X132564190Y-83923095D01*
X133040380Y-82399285D02*
X133040380Y-82970714D01*
X133040380Y-82685000D02*
X132040380Y-82685000D01*
X132183238Y-82780238D01*
X132278476Y-82875476D01*
X132326095Y-82970714D01*
X132135619Y-90773095D02*
X132088000Y-90725476D01*
X132040380Y-90630238D01*
X132040380Y-90392142D01*
X132088000Y-90296904D01*
X132135619Y-90249285D01*
X132230857Y-90201666D01*
X132326095Y-90201666D01*
X132468952Y-90249285D01*
X133040380Y-90820714D01*
X133040380Y-90201666D01*
X132135619Y-89820714D02*
X132088000Y-89773095D01*
X132040380Y-89677857D01*
X132040380Y-89439761D01*
X132088000Y-89344523D01*
X132135619Y-89296904D01*
X132230857Y-89249285D01*
X132326095Y-89249285D01*
X132468952Y-89296904D01*
X133040380Y-89868333D01*
X133040380Y-89249285D01*
X132040380Y-88630238D02*
X132040380Y-88535000D01*
X132088000Y-88439761D01*
X132135619Y-88392142D01*
X132230857Y-88344523D01*
X132421333Y-88296904D01*
X132659428Y-88296904D01*
X132849904Y-88344523D01*
X132945142Y-88392142D01*
X132992761Y-88439761D01*
X133040380Y-88535000D01*
X133040380Y-88630238D01*
X132992761Y-88725476D01*
X132945142Y-88773095D01*
X132849904Y-88820714D01*
X132659428Y-88868333D01*
X132421333Y-88868333D01*
X132230857Y-88820714D01*
X132135619Y-88773095D01*
X132088000Y-88725476D01*
X132040380Y-88630238D01*
%TO.C,R2*%
X133040380Y-103671666D02*
X132564190Y-104005000D01*
X133040380Y-104243095D02*
X132040380Y-104243095D01*
X132040380Y-103862142D01*
X132088000Y-103766904D01*
X132135619Y-103719285D01*
X132230857Y-103671666D01*
X132373714Y-103671666D01*
X132468952Y-103719285D01*
X132516571Y-103766904D01*
X132564190Y-103862142D01*
X132564190Y-104243095D01*
X132135619Y-103290714D02*
X132088000Y-103243095D01*
X132040380Y-103147857D01*
X132040380Y-102909761D01*
X132088000Y-102814523D01*
X132135619Y-102766904D01*
X132230857Y-102719285D01*
X132326095Y-102719285D01*
X132468952Y-102766904D01*
X133040380Y-103338333D01*
X133040380Y-102719285D01*
X132135619Y-111347095D02*
X132088000Y-111299476D01*
X132040380Y-111204238D01*
X132040380Y-110966142D01*
X132088000Y-110870904D01*
X132135619Y-110823285D01*
X132230857Y-110775666D01*
X132326095Y-110775666D01*
X132468952Y-110823285D01*
X133040380Y-111394714D01*
X133040380Y-110775666D01*
X132135619Y-110394714D02*
X132088000Y-110347095D01*
X132040380Y-110251857D01*
X132040380Y-110013761D01*
X132088000Y-109918523D01*
X132135619Y-109870904D01*
X132230857Y-109823285D01*
X132326095Y-109823285D01*
X132468952Y-109870904D01*
X133040380Y-110442333D01*
X133040380Y-109823285D01*
X132040380Y-109204238D02*
X132040380Y-109109000D01*
X132088000Y-109013761D01*
X132135619Y-108966142D01*
X132230857Y-108918523D01*
X132421333Y-108870904D01*
X132659428Y-108870904D01*
X132849904Y-108918523D01*
X132945142Y-108966142D01*
X132992761Y-109013761D01*
X133040380Y-109109000D01*
X133040380Y-109204238D01*
X132992761Y-109299476D01*
X132945142Y-109347095D01*
X132849904Y-109394714D01*
X132659428Y-109442333D01*
X132421333Y-109442333D01*
X132230857Y-109394714D01*
X132135619Y-109347095D01*
X132088000Y-109299476D01*
X132040380Y-109204238D01*
%TO.C,R3*%
X158420380Y-92241666D02*
X157944190Y-92575000D01*
X158420380Y-92813095D02*
X157420380Y-92813095D01*
X157420380Y-92432142D01*
X157468000Y-92336904D01*
X157515619Y-92289285D01*
X157610857Y-92241666D01*
X157753714Y-92241666D01*
X157848952Y-92289285D01*
X157896571Y-92336904D01*
X157944190Y-92432142D01*
X157944190Y-92813095D01*
X157420380Y-91908333D02*
X157420380Y-91289285D01*
X157801333Y-91622619D01*
X157801333Y-91479761D01*
X157848952Y-91384523D01*
X157896571Y-91336904D01*
X157991809Y-91289285D01*
X158229904Y-91289285D01*
X158325142Y-91336904D01*
X158372761Y-91384523D01*
X158420380Y-91479761D01*
X158420380Y-91765476D01*
X158372761Y-91860714D01*
X158325142Y-91908333D01*
X155233714Y-92860714D02*
X155900380Y-92860714D01*
X154852761Y-93098809D02*
X155567047Y-93336904D01*
X155567047Y-92717857D01*
X155900380Y-92336904D02*
X154900380Y-92336904D01*
X155900380Y-91765476D02*
X155328952Y-92194047D01*
X154900380Y-91765476D02*
X155471809Y-92336904D01*
X154900380Y-91432142D02*
X154900380Y-90765476D01*
X155900380Y-91194047D01*
%TO.C,R4*%
X158420380Y-112561666D02*
X157944190Y-112895000D01*
X158420380Y-113133095D02*
X157420380Y-113133095D01*
X157420380Y-112752142D01*
X157468000Y-112656904D01*
X157515619Y-112609285D01*
X157610857Y-112561666D01*
X157753714Y-112561666D01*
X157848952Y-112609285D01*
X157896571Y-112656904D01*
X157944190Y-112752142D01*
X157944190Y-113133095D01*
X157753714Y-111704523D02*
X158420380Y-111704523D01*
X157372761Y-111942619D02*
X158087047Y-112180714D01*
X158087047Y-111561666D01*
X155233714Y-113180714D02*
X155900380Y-113180714D01*
X154852761Y-113418809D02*
X155567047Y-113656904D01*
X155567047Y-113037857D01*
X155900380Y-112656904D02*
X154900380Y-112656904D01*
X155900380Y-112085476D02*
X155328952Y-112514047D01*
X154900380Y-112085476D02*
X155471809Y-112656904D01*
X154900380Y-111752142D02*
X154900380Y-111085476D01*
X155900380Y-111514047D01*
%TO.C,R5*%
X154011333Y-79847380D02*
X153678000Y-79371190D01*
X153439904Y-79847380D02*
X153439904Y-78847380D01*
X153820857Y-78847380D01*
X153916095Y-78895000D01*
X153963714Y-78942619D01*
X154011333Y-79037857D01*
X154011333Y-79180714D01*
X153963714Y-79275952D01*
X153916095Y-79323571D01*
X153820857Y-79371190D01*
X153439904Y-79371190D01*
X154916095Y-78847380D02*
X154439904Y-78847380D01*
X154392285Y-79323571D01*
X154439904Y-79275952D01*
X154535142Y-79228333D01*
X154773238Y-79228333D01*
X154868476Y-79275952D01*
X154916095Y-79323571D01*
X154963714Y-79418809D01*
X154963714Y-79656904D01*
X154916095Y-79752142D01*
X154868476Y-79799761D01*
X154773238Y-79847380D01*
X154535142Y-79847380D01*
X154439904Y-79799761D01*
X154392285Y-79752142D01*
X152939904Y-81462619D02*
X152987523Y-81415000D01*
X153082761Y-81367380D01*
X153320857Y-81367380D01*
X153416095Y-81415000D01*
X153463714Y-81462619D01*
X153511333Y-81557857D01*
X153511333Y-81653095D01*
X153463714Y-81795952D01*
X152892285Y-82367380D01*
X153511333Y-82367380D01*
X153892285Y-81462619D02*
X153939904Y-81415000D01*
X154035142Y-81367380D01*
X154273238Y-81367380D01*
X154368476Y-81415000D01*
X154416095Y-81462619D01*
X154463714Y-81557857D01*
X154463714Y-81653095D01*
X154416095Y-81795952D01*
X153844666Y-82367380D01*
X154463714Y-82367380D01*
X155082761Y-81367380D02*
X155178000Y-81367380D01*
X155273238Y-81415000D01*
X155320857Y-81462619D01*
X155368476Y-81557857D01*
X155416095Y-81748333D01*
X155416095Y-81986428D01*
X155368476Y-82176904D01*
X155320857Y-82272142D01*
X155273238Y-82319761D01*
X155178000Y-82367380D01*
X155082761Y-82367380D01*
X154987523Y-82319761D01*
X154939904Y-82272142D01*
X154892285Y-82176904D01*
X154844666Y-81986428D01*
X154844666Y-81748333D01*
X154892285Y-81557857D01*
X154939904Y-81462619D01*
X154987523Y-81415000D01*
X155082761Y-81367380D01*
%TO.C,R6*%
X154011333Y-100167380D02*
X153678000Y-99691190D01*
X153439904Y-100167380D02*
X153439904Y-99167380D01*
X153820857Y-99167380D01*
X153916095Y-99215000D01*
X153963714Y-99262619D01*
X154011333Y-99357857D01*
X154011333Y-99500714D01*
X153963714Y-99595952D01*
X153916095Y-99643571D01*
X153820857Y-99691190D01*
X153439904Y-99691190D01*
X154868476Y-99167380D02*
X154678000Y-99167380D01*
X154582761Y-99215000D01*
X154535142Y-99262619D01*
X154439904Y-99405476D01*
X154392285Y-99595952D01*
X154392285Y-99976904D01*
X154439904Y-100072142D01*
X154487523Y-100119761D01*
X154582761Y-100167380D01*
X154773238Y-100167380D01*
X154868476Y-100119761D01*
X154916095Y-100072142D01*
X154963714Y-99976904D01*
X154963714Y-99738809D01*
X154916095Y-99643571D01*
X154868476Y-99595952D01*
X154773238Y-99548333D01*
X154582761Y-99548333D01*
X154487523Y-99595952D01*
X154439904Y-99643571D01*
X154392285Y-99738809D01*
X152939904Y-101782619D02*
X152987523Y-101735000D01*
X153082761Y-101687380D01*
X153320857Y-101687380D01*
X153416095Y-101735000D01*
X153463714Y-101782619D01*
X153511333Y-101877857D01*
X153511333Y-101973095D01*
X153463714Y-102115952D01*
X152892285Y-102687380D01*
X153511333Y-102687380D01*
X153892285Y-101782619D02*
X153939904Y-101735000D01*
X154035142Y-101687380D01*
X154273238Y-101687380D01*
X154368476Y-101735000D01*
X154416095Y-101782619D01*
X154463714Y-101877857D01*
X154463714Y-101973095D01*
X154416095Y-102115952D01*
X153844666Y-102687380D01*
X154463714Y-102687380D01*
X155082761Y-101687380D02*
X155178000Y-101687380D01*
X155273238Y-101735000D01*
X155320857Y-101782619D01*
X155368476Y-101877857D01*
X155416095Y-102068333D01*
X155416095Y-102306428D01*
X155368476Y-102496904D01*
X155320857Y-102592142D01*
X155273238Y-102639761D01*
X155178000Y-102687380D01*
X155082761Y-102687380D01*
X154987523Y-102639761D01*
X154939904Y-102592142D01*
X154892285Y-102496904D01*
X154844666Y-102306428D01*
X154844666Y-102068333D01*
X154892285Y-101877857D01*
X154939904Y-101782619D01*
X154987523Y-101735000D01*
X155082761Y-101687380D01*
%TO.C,R7*%
X163500380Y-89701666D02*
X163024190Y-90035000D01*
X163500380Y-90273095D02*
X162500380Y-90273095D01*
X162500380Y-89892142D01*
X162548000Y-89796904D01*
X162595619Y-89749285D01*
X162690857Y-89701666D01*
X162833714Y-89701666D01*
X162928952Y-89749285D01*
X162976571Y-89796904D01*
X163024190Y-89892142D01*
X163024190Y-90273095D01*
X162500380Y-89368333D02*
X162500380Y-88701666D01*
X163500380Y-89130238D01*
X160075619Y-90773095D02*
X160028000Y-90725476D01*
X159980380Y-90630238D01*
X159980380Y-90392142D01*
X160028000Y-90296904D01*
X160075619Y-90249285D01*
X160170857Y-90201666D01*
X160266095Y-90201666D01*
X160408952Y-90249285D01*
X160980380Y-90820714D01*
X160980380Y-90201666D01*
X160075619Y-89820714D02*
X160028000Y-89773095D01*
X159980380Y-89677857D01*
X159980380Y-89439761D01*
X160028000Y-89344523D01*
X160075619Y-89296904D01*
X160170857Y-89249285D01*
X160266095Y-89249285D01*
X160408952Y-89296904D01*
X160980380Y-89868333D01*
X160980380Y-89249285D01*
X159980380Y-88630238D02*
X159980380Y-88535000D01*
X160028000Y-88439761D01*
X160075619Y-88392142D01*
X160170857Y-88344523D01*
X160361333Y-88296904D01*
X160599428Y-88296904D01*
X160789904Y-88344523D01*
X160885142Y-88392142D01*
X160932761Y-88439761D01*
X160980380Y-88535000D01*
X160980380Y-88630238D01*
X160932761Y-88725476D01*
X160885142Y-88773095D01*
X160789904Y-88820714D01*
X160599428Y-88868333D01*
X160361333Y-88868333D01*
X160170857Y-88820714D01*
X160075619Y-88773095D01*
X160028000Y-88725476D01*
X159980380Y-88630238D01*
%TO.C,R8*%
X168580380Y-89701666D02*
X168104190Y-90035000D01*
X168580380Y-90273095D02*
X167580380Y-90273095D01*
X167580380Y-89892142D01*
X167628000Y-89796904D01*
X167675619Y-89749285D01*
X167770857Y-89701666D01*
X167913714Y-89701666D01*
X168008952Y-89749285D01*
X168056571Y-89796904D01*
X168104190Y-89892142D01*
X168104190Y-90273095D01*
X168008952Y-89130238D02*
X167961333Y-89225476D01*
X167913714Y-89273095D01*
X167818476Y-89320714D01*
X167770857Y-89320714D01*
X167675619Y-89273095D01*
X167628000Y-89225476D01*
X167580380Y-89130238D01*
X167580380Y-88939761D01*
X167628000Y-88844523D01*
X167675619Y-88796904D01*
X167770857Y-88749285D01*
X167818476Y-88749285D01*
X167913714Y-88796904D01*
X167961333Y-88844523D01*
X168008952Y-88939761D01*
X168008952Y-89130238D01*
X168056571Y-89225476D01*
X168104190Y-89273095D01*
X168199428Y-89320714D01*
X168389904Y-89320714D01*
X168485142Y-89273095D01*
X168532761Y-89225476D01*
X168580380Y-89130238D01*
X168580380Y-88939761D01*
X168532761Y-88844523D01*
X168485142Y-88796904D01*
X168389904Y-88749285D01*
X168199428Y-88749285D01*
X168104190Y-88796904D01*
X168056571Y-88844523D01*
X168008952Y-88939761D01*
X165155619Y-90519095D02*
X165108000Y-90471476D01*
X165060380Y-90376238D01*
X165060380Y-90138142D01*
X165108000Y-90042904D01*
X165155619Y-89995285D01*
X165250857Y-89947666D01*
X165346095Y-89947666D01*
X165488952Y-89995285D01*
X166060380Y-90566714D01*
X166060380Y-89947666D01*
X165155619Y-89566714D02*
X165108000Y-89519095D01*
X165060380Y-89423857D01*
X165060380Y-89185761D01*
X165108000Y-89090523D01*
X165155619Y-89042904D01*
X165250857Y-88995285D01*
X165346095Y-88995285D01*
X165488952Y-89042904D01*
X166060380Y-89614333D01*
X166060380Y-88995285D01*
X165060380Y-88376238D02*
X165060380Y-88281000D01*
X165108000Y-88185761D01*
X165155619Y-88138142D01*
X165250857Y-88090523D01*
X165441333Y-88042904D01*
X165679428Y-88042904D01*
X165869904Y-88090523D01*
X165965142Y-88138142D01*
X166012761Y-88185761D01*
X166060380Y-88281000D01*
X166060380Y-88376238D01*
X166012761Y-88471476D01*
X165965142Y-88519095D01*
X165869904Y-88566714D01*
X165679428Y-88614333D01*
X165441333Y-88614333D01*
X165250857Y-88566714D01*
X165155619Y-88519095D01*
X165108000Y-88471476D01*
X165060380Y-88376238D01*
%TO.C,SW1*%
X176552761Y-84478333D02*
X176600380Y-84335476D01*
X176600380Y-84097380D01*
X176552761Y-84002142D01*
X176505142Y-83954523D01*
X176409904Y-83906904D01*
X176314666Y-83906904D01*
X176219428Y-83954523D01*
X176171809Y-84002142D01*
X176124190Y-84097380D01*
X176076571Y-84287857D01*
X176028952Y-84383095D01*
X175981333Y-84430714D01*
X175886095Y-84478333D01*
X175790857Y-84478333D01*
X175695619Y-84430714D01*
X175648000Y-84383095D01*
X175600380Y-84287857D01*
X175600380Y-84049761D01*
X175648000Y-83906904D01*
X175600380Y-83573571D02*
X176600380Y-83335476D01*
X175886095Y-83145000D01*
X176600380Y-82954523D01*
X175600380Y-82716428D01*
X176600380Y-81811666D02*
X176600380Y-82383095D01*
X176600380Y-82097380D02*
X175600380Y-82097380D01*
X175743238Y-82192619D01*
X175838476Y-82287857D01*
X175886095Y-82383095D01*
X169870380Y-87835476D02*
X168870380Y-87835476D01*
X169584666Y-87502142D01*
X168870380Y-87168809D01*
X169870380Y-87168809D01*
X169870380Y-86692619D02*
X168870380Y-86692619D01*
X169870380Y-86216428D02*
X168870380Y-86216428D01*
X168870380Y-85978333D01*
X168918000Y-85835476D01*
X169013238Y-85740238D01*
X169108476Y-85692619D01*
X169298952Y-85645000D01*
X169441809Y-85645000D01*
X169632285Y-85692619D01*
X169727523Y-85740238D01*
X169822761Y-85835476D01*
X169870380Y-85978333D01*
X169870380Y-86216428D01*
X169870380Y-85216428D02*
X168870380Y-85216428D01*
X169870380Y-83978333D02*
X168870380Y-83978333D01*
X168870380Y-83740238D01*
X168918000Y-83597380D01*
X169013238Y-83502142D01*
X169108476Y-83454523D01*
X169298952Y-83406904D01*
X169441809Y-83406904D01*
X169632285Y-83454523D01*
X169727523Y-83502142D01*
X169822761Y-83597380D01*
X169870380Y-83740238D01*
X169870380Y-83978333D01*
X169870380Y-82978333D02*
X168870380Y-82978333D01*
X169822761Y-82549761D02*
X169870380Y-82406904D01*
X169870380Y-82168809D01*
X169822761Y-82073571D01*
X169775142Y-82025952D01*
X169679904Y-81978333D01*
X169584666Y-81978333D01*
X169489428Y-82025952D01*
X169441809Y-82073571D01*
X169394190Y-82168809D01*
X169346571Y-82359285D01*
X169298952Y-82454523D01*
X169251333Y-82502142D01*
X169156095Y-82549761D01*
X169060857Y-82549761D01*
X168965619Y-82502142D01*
X168918000Y-82454523D01*
X168870380Y-82359285D01*
X168870380Y-82121190D01*
X168918000Y-81978333D01*
X169584666Y-81597380D02*
X169584666Y-81121190D01*
X169870380Y-81692619D02*
X168870380Y-81359285D01*
X169870380Y-81025952D01*
X169346571Y-80359285D02*
X169394190Y-80216428D01*
X169441809Y-80168809D01*
X169537047Y-80121190D01*
X169679904Y-80121190D01*
X169775142Y-80168809D01*
X169822761Y-80216428D01*
X169870380Y-80311666D01*
X169870380Y-80692619D01*
X168870380Y-80692619D01*
X168870380Y-80359285D01*
X168918000Y-80264047D01*
X168965619Y-80216428D01*
X169060857Y-80168809D01*
X169156095Y-80168809D01*
X169251333Y-80216428D01*
X169298952Y-80264047D01*
X169346571Y-80359285D01*
X169346571Y-80692619D01*
X169870380Y-79216428D02*
X169870380Y-79692619D01*
X168870380Y-79692619D01*
X169346571Y-78883095D02*
X169346571Y-78549761D01*
X169870380Y-78406904D02*
X169870380Y-78883095D01*
X168870380Y-78883095D01*
X168870380Y-78406904D01*
%TO.C,6N138*%
X143526095Y-82847380D02*
X143335619Y-82847380D01*
X143240380Y-82895000D01*
X143192761Y-82942619D01*
X143097523Y-83085476D01*
X143049904Y-83275952D01*
X143049904Y-83656904D01*
X143097523Y-83752142D01*
X143145142Y-83799761D01*
X143240380Y-83847380D01*
X143430857Y-83847380D01*
X143526095Y-83799761D01*
X143573714Y-83752142D01*
X143621333Y-83656904D01*
X143621333Y-83418809D01*
X143573714Y-83323571D01*
X143526095Y-83275952D01*
X143430857Y-83228333D01*
X143240380Y-83228333D01*
X143145142Y-83275952D01*
X143097523Y-83323571D01*
X143049904Y-83418809D01*
X144049904Y-83847380D02*
X144049904Y-82847380D01*
X144621333Y-83847380D01*
X144621333Y-82847380D01*
X145621333Y-83847380D02*
X145049904Y-83847380D01*
X145335619Y-83847380D02*
X145335619Y-82847380D01*
X145240380Y-82990238D01*
X145145142Y-83085476D01*
X145049904Y-83133095D01*
X145954666Y-82847380D02*
X146573714Y-82847380D01*
X146240380Y-83228333D01*
X146383238Y-83228333D01*
X146478476Y-83275952D01*
X146526095Y-83323571D01*
X146573714Y-83418809D01*
X146573714Y-83656904D01*
X146526095Y-83752142D01*
X146478476Y-83799761D01*
X146383238Y-83847380D01*
X146097523Y-83847380D01*
X146002285Y-83799761D01*
X145954666Y-83752142D01*
X147145142Y-83275952D02*
X147049904Y-83228333D01*
X147002285Y-83180714D01*
X146954666Y-83085476D01*
X146954666Y-83037857D01*
X147002285Y-82942619D01*
X147049904Y-82895000D01*
X147145142Y-82847380D01*
X147335619Y-82847380D01*
X147430857Y-82895000D01*
X147478476Y-82942619D01*
X147526095Y-83037857D01*
X147526095Y-83085476D01*
X147478476Y-83180714D01*
X147430857Y-83228333D01*
X147335619Y-83275952D01*
X147145142Y-83275952D01*
X147049904Y-83323571D01*
X147002285Y-83371190D01*
X146954666Y-83466428D01*
X146954666Y-83656904D01*
X147002285Y-83752142D01*
X147049904Y-83799761D01*
X147145142Y-83847380D01*
X147335619Y-83847380D01*
X147430857Y-83799761D01*
X147478476Y-83752142D01*
X147526095Y-83656904D01*
X147526095Y-83466428D01*
X147478476Y-83371190D01*
X147430857Y-83323571D01*
X147335619Y-83275952D01*
X143526095Y-103167380D02*
X143335619Y-103167380D01*
X143240380Y-103215000D01*
X143192761Y-103262619D01*
X143097523Y-103405476D01*
X143049904Y-103595952D01*
X143049904Y-103976904D01*
X143097523Y-104072142D01*
X143145142Y-104119761D01*
X143240380Y-104167380D01*
X143430857Y-104167380D01*
X143526095Y-104119761D01*
X143573714Y-104072142D01*
X143621333Y-103976904D01*
X143621333Y-103738809D01*
X143573714Y-103643571D01*
X143526095Y-103595952D01*
X143430857Y-103548333D01*
X143240380Y-103548333D01*
X143145142Y-103595952D01*
X143097523Y-103643571D01*
X143049904Y-103738809D01*
X144049904Y-104167380D02*
X144049904Y-103167380D01*
X144621333Y-104167380D01*
X144621333Y-103167380D01*
X145621333Y-104167380D02*
X145049904Y-104167380D01*
X145335619Y-104167380D02*
X145335619Y-103167380D01*
X145240380Y-103310238D01*
X145145142Y-103405476D01*
X145049904Y-103453095D01*
X145954666Y-103167380D02*
X146573714Y-103167380D01*
X146240380Y-103548333D01*
X146383238Y-103548333D01*
X146478476Y-103595952D01*
X146526095Y-103643571D01*
X146573714Y-103738809D01*
X146573714Y-103976904D01*
X146526095Y-104072142D01*
X146478476Y-104119761D01*
X146383238Y-104167380D01*
X146097523Y-104167380D01*
X146002285Y-104119761D01*
X145954666Y-104072142D01*
X147145142Y-103595952D02*
X147049904Y-103548333D01*
X147002285Y-103500714D01*
X146954666Y-103405476D01*
X146954666Y-103357857D01*
X147002285Y-103262619D01*
X147049904Y-103215000D01*
X147145142Y-103167380D01*
X147335619Y-103167380D01*
X147430857Y-103215000D01*
X147478476Y-103262619D01*
X147526095Y-103357857D01*
X147526095Y-103405476D01*
X147478476Y-103500714D01*
X147430857Y-103548333D01*
X147335619Y-103595952D01*
X147145142Y-103595952D01*
X147049904Y-103643571D01*
X147002285Y-103691190D01*
X146954666Y-103786428D01*
X146954666Y-103976904D01*
X147002285Y-104072142D01*
X147049904Y-104119761D01*
X147145142Y-104167380D01*
X147335619Y-104167380D01*
X147430857Y-104119761D01*
X147478476Y-104072142D01*
X147526095Y-103976904D01*
X147526095Y-103786428D01*
X147478476Y-103691190D01*
X147430857Y-103643571D01*
X147335619Y-103595952D01*
%TO.C,C1*%
X142581333Y-97512142D02*
X142533714Y-97559761D01*
X142390857Y-97607380D01*
X142295619Y-97607380D01*
X142152761Y-97559761D01*
X142057523Y-97464523D01*
X142009904Y-97369285D01*
X141962285Y-97178809D01*
X141962285Y-97035952D01*
X142009904Y-96845476D01*
X142057523Y-96750238D01*
X142152761Y-96655000D01*
X142295619Y-96607380D01*
X142390857Y-96607380D01*
X142533714Y-96655000D01*
X142581333Y-96702619D01*
X143533714Y-97607380D02*
X142962285Y-97607380D01*
X143248000Y-97607380D02*
X143248000Y-96607380D01*
X143152761Y-96750238D01*
X143057523Y-96845476D01*
X142962285Y-96893095D01*
%TO.C,C2*%
X142581333Y-117832142D02*
X142533714Y-117879761D01*
X142390857Y-117927380D01*
X142295619Y-117927380D01*
X142152761Y-117879761D01*
X142057523Y-117784523D01*
X142009904Y-117689285D01*
X141962285Y-117498809D01*
X141962285Y-117355952D01*
X142009904Y-117165476D01*
X142057523Y-117070238D01*
X142152761Y-116975000D01*
X142295619Y-116927380D01*
X142390857Y-116927380D01*
X142533714Y-116975000D01*
X142581333Y-117022619D01*
X142962285Y-117022619D02*
X143009904Y-116975000D01*
X143105142Y-116927380D01*
X143343238Y-116927380D01*
X143438476Y-116975000D01*
X143486095Y-117022619D01*
X143533714Y-117117857D01*
X143533714Y-117213095D01*
X143486095Y-117355952D01*
X142914666Y-117927380D01*
X143533714Y-117927380D01*
%TO.C,P1*%
X140208000Y-125095000D02*
X157988000Y-125095000D01*
X137388000Y-122275000D02*
X137388000Y-125375000D01*
X140208000Y-125095000D02*
X140208000Y-122555000D01*
X157988000Y-122555000D02*
X140208000Y-122555000D01*
X137388000Y-125375000D02*
X138938000Y-125375000D01*
X138938000Y-122275000D02*
X137388000Y-122275000D01*
X157988000Y-125095000D02*
X157988000Y-122555000D01*
%TO.C,P2*%
X175768000Y-122555000D02*
X163068000Y-122555000D01*
X160248000Y-122275000D02*
X160248000Y-125375000D01*
X160248000Y-125375000D02*
X161798000Y-125375000D01*
X161798000Y-122275000D02*
X160248000Y-122275000D01*
X163068000Y-125095000D02*
X163068000Y-122555000D01*
X175768000Y-125095000D02*
X175768000Y-122555000D01*
X163068000Y-125095000D02*
X175768000Y-125095000D01*
%TO.C,P3*%
X128244000Y-77115000D02*
X129794000Y-77115000D01*
X128244000Y-74015000D02*
X128244000Y-77115000D01*
X153924000Y-74295000D02*
X131064000Y-74295000D01*
X131064000Y-76835000D02*
X131064000Y-74295000D01*
X131064000Y-76835000D02*
X153924000Y-76835000D01*
X153924000Y-76835000D02*
X153924000Y-74295000D01*
X129794000Y-74015000D02*
X128244000Y-74015000D01*
%TO.C,P4*%
X157988000Y-76835000D02*
X175768000Y-76835000D01*
X156718000Y-74015000D02*
X155168000Y-74015000D01*
X155168000Y-77115000D02*
X156718000Y-77115000D01*
X175768000Y-74295000D02*
X157988000Y-74295000D01*
X155168000Y-74015000D02*
X155168000Y-77115000D01*
X157988000Y-76835000D02*
X157988000Y-74295000D01*
X175768000Y-76835000D02*
X175768000Y-74295000D01*
%TO.C,P5*%
X127254000Y-123825000D02*
G75*
G03*
X127254000Y-123825000I-2286000J0D01*
G01*
%TO.C,P6*%
X179324000Y-118745000D02*
G75*
G03*
X179324000Y-118745000I-2286000J0D01*
G01*
%TO.C,P7*%
X128524000Y-75565000D02*
G75*
G03*
X128524000Y-75565000I-2286000J0D01*
G01*
%TO.C,P8*%
X179324000Y-90805000D02*
G75*
G03*
X179324000Y-90805000I-2286000J0D01*
G01*
D13*
%TO.C,D1*%
X137518000Y-88015000D02*
X135278000Y-88015000D01*
X137518000Y-87415000D02*
X135278000Y-87415000D01*
X135278000Y-87415000D02*
X135278000Y-91655000D01*
X135278000Y-91655000D02*
X137518000Y-91655000D01*
X137518000Y-91655000D02*
X137518000Y-87415000D01*
X137518000Y-88135000D02*
X135278000Y-88135000D01*
X137518000Y-88255000D02*
X135278000Y-88255000D01*
X136398000Y-92305000D02*
X136398000Y-91655000D01*
X136398000Y-86765000D02*
X136398000Y-87415000D01*
%TO.C,D2*%
X135278000Y-107735000D02*
X135278000Y-111975000D01*
X136398000Y-112625000D02*
X136398000Y-111975000D01*
X137518000Y-108335000D02*
X135278000Y-108335000D01*
X137518000Y-108455000D02*
X135278000Y-108455000D01*
X135278000Y-111975000D02*
X137518000Y-111975000D01*
X137518000Y-111975000D02*
X137518000Y-107735000D01*
X137518000Y-107735000D02*
X135278000Y-107735000D01*
X137518000Y-108575000D02*
X135278000Y-108575000D01*
X136398000Y-107085000D02*
X136398000Y-107735000D01*
D12*
%TO.C,IN1*%
X113157000Y-81036160D02*
X112659160Y-81036160D01*
X112659160Y-98033840D02*
X113157000Y-98033840D01*
X112659160Y-80535780D02*
X112659160Y-100035360D01*
X130157220Y-80535780D02*
X113157000Y-80535780D01*
X112659160Y-100035360D02*
X112158780Y-100035360D01*
X130157220Y-95034100D02*
X128158240Y-95034100D01*
X130157220Y-80535780D02*
X130657600Y-81036160D01*
X130657600Y-83535520D02*
X130157220Y-84035900D01*
X111658400Y-98534220D02*
X111658400Y-79034640D01*
X130157220Y-84035900D02*
X128158240Y-84035900D01*
X112158780Y-98534220D02*
X111658400Y-98534220D01*
X130157220Y-87536020D02*
X128158240Y-87536020D01*
X130657600Y-98033840D02*
X130657600Y-96034860D01*
X112407700Y-80535780D02*
X112407700Y-100035360D01*
X112158780Y-98534220D02*
X112158780Y-80535780D01*
X130157220Y-98534220D02*
X113157000Y-98534220D01*
X112158780Y-80535780D02*
X112659160Y-80535780D01*
X130657600Y-81036160D02*
X130657600Y-83535520D01*
X130657600Y-88033860D02*
X130157220Y-87536020D01*
X113157000Y-80535780D02*
X113157000Y-81036160D01*
X130657600Y-95534480D02*
X130157220Y-95034100D01*
X130657600Y-96034860D02*
X130657600Y-95534480D01*
X113157000Y-98534220D02*
X113157000Y-98033840D01*
X130657600Y-91036140D02*
X130157220Y-91533980D01*
X112158780Y-100035360D02*
X112158780Y-98534220D01*
X128158240Y-95034100D02*
X128158240Y-91533980D01*
X128158240Y-84035900D02*
X128158240Y-87536020D01*
X111907320Y-79034640D02*
X111907320Y-98534220D01*
X130657600Y-88033860D02*
X130657600Y-91036140D01*
X130157220Y-98534220D02*
X130657600Y-98033840D01*
X112158780Y-79034640D02*
X112158780Y-80535780D01*
X130157220Y-91533980D02*
X128158240Y-91533980D01*
X111658400Y-79034640D02*
X112158780Y-79034640D01*
%TO.C,IN2*%
X128158240Y-115354100D02*
X128158240Y-111853980D01*
X130157220Y-115354100D02*
X128158240Y-115354100D01*
X130157220Y-100855780D02*
X130657600Y-101356160D01*
X111907320Y-99354640D02*
X111907320Y-118854220D01*
X130657600Y-103855520D02*
X130157220Y-104355900D01*
X113157000Y-100855780D02*
X113157000Y-101356160D01*
X130157220Y-118854220D02*
X113157000Y-118854220D01*
X130657600Y-108353860D02*
X130157220Y-107856020D01*
X130657600Y-111356140D02*
X130157220Y-111853980D01*
X128158240Y-104355900D02*
X128158240Y-107856020D01*
X130157220Y-118854220D02*
X130657600Y-118353840D01*
X112158780Y-99354640D02*
X112158780Y-100855780D01*
X130657600Y-101356160D02*
X130657600Y-103855520D01*
X113157000Y-101356160D02*
X112659160Y-101356160D01*
X112158780Y-118854220D02*
X111658400Y-118854220D01*
X111658400Y-118854220D02*
X111658400Y-99354640D01*
X130157220Y-107856020D02*
X128158240Y-107856020D01*
X130657600Y-108353860D02*
X130657600Y-111356140D01*
X111658400Y-99354640D02*
X112158780Y-99354640D01*
X112158780Y-120355360D02*
X112158780Y-118854220D01*
X130157220Y-104355900D02*
X128158240Y-104355900D01*
X112659160Y-118353840D02*
X113157000Y-118353840D01*
X112158780Y-118854220D02*
X112158780Y-100855780D01*
X130157220Y-111853980D02*
X128158240Y-111853980D01*
X130657600Y-118353840D02*
X130657600Y-116354860D01*
X112659160Y-120355360D02*
X112158780Y-120355360D01*
X130657600Y-116354860D02*
X130657600Y-115854480D01*
X112158780Y-100855780D02*
X112659160Y-100855780D01*
X130657600Y-115854480D02*
X130157220Y-115354100D01*
X130157220Y-100855780D02*
X113157000Y-100855780D01*
X113157000Y-118854220D02*
X113157000Y-118353840D01*
X112659160Y-100855780D02*
X112659160Y-120355360D01*
X112407700Y-100855780D02*
X112407700Y-120355360D01*
%TO.C,OUT1*%
X159918400Y-98275140D02*
X159918400Y-98775520D01*
X159918400Y-110774480D02*
X160418780Y-110274100D01*
X160418780Y-113774220D02*
X159918400Y-113273840D01*
X177916840Y-96276160D02*
X177419000Y-96276160D01*
X177916840Y-94274640D02*
X178417220Y-94274640D01*
X160418780Y-102776020D02*
X162417760Y-102776020D01*
X177419000Y-95775780D02*
X177419000Y-96276160D01*
X160418780Y-99275900D02*
X162417760Y-99275900D01*
X178917600Y-95775780D02*
X178917600Y-115275360D01*
X178417220Y-113774220D02*
X177916840Y-113774220D01*
X159918400Y-113273840D02*
X159918400Y-110774480D01*
X159918400Y-106276140D02*
X159918400Y-103273860D01*
X178917600Y-115275360D02*
X178417220Y-115275360D01*
X159918400Y-103273860D02*
X160418780Y-102776020D01*
X177419000Y-113273840D02*
X177916840Y-113273840D01*
X177916840Y-113774220D02*
X177916840Y-94274640D01*
X178417220Y-95775780D02*
X178917600Y-95775780D01*
X178668680Y-115275360D02*
X178668680Y-95775780D01*
X159918400Y-96276160D02*
X159918400Y-98275140D01*
X160418780Y-95775780D02*
X177419000Y-95775780D01*
X178417220Y-94274640D02*
X178417220Y-95775780D01*
X162417760Y-110274100D02*
X162417760Y-106773980D01*
X160418780Y-95775780D02*
X159918400Y-96276160D01*
X178168300Y-113774220D02*
X178168300Y-94274640D01*
X159918400Y-98775520D02*
X160418780Y-99275900D01*
X178417220Y-95775780D02*
X178417220Y-113774220D01*
X178417220Y-115275360D02*
X178417220Y-113774220D01*
X159918400Y-106276140D02*
X160418780Y-106773980D01*
X160418780Y-106773980D02*
X162417760Y-106773980D01*
X160418780Y-110274100D02*
X162417760Y-110274100D01*
X177419000Y-113774220D02*
X177419000Y-113273840D01*
X162417760Y-99275900D02*
X162417760Y-102776020D01*
X160418780Y-113774220D02*
X177419000Y-113774220D01*
D13*
%TO.C,R1*%
X133958000Y-92805000D02*
X133958000Y-86265000D01*
X133628000Y-92805000D02*
X133958000Y-92805000D01*
X131218000Y-86265000D02*
X131548000Y-86265000D01*
X133958000Y-86265000D02*
X133628000Y-86265000D01*
X131218000Y-92805000D02*
X131218000Y-86265000D01*
X131548000Y-92805000D02*
X131218000Y-92805000D01*
%TO.C,R2*%
X133958000Y-106585000D02*
X133628000Y-106585000D01*
X131548000Y-113125000D02*
X131218000Y-113125000D01*
X131218000Y-113125000D02*
X131218000Y-106585000D01*
X133958000Y-113125000D02*
X133958000Y-106585000D01*
X131218000Y-106585000D02*
X131548000Y-106585000D01*
X133628000Y-113125000D02*
X133958000Y-113125000D01*
%TO.C,R3*%
X156818000Y-88805000D02*
X156818000Y-95345000D01*
X156488000Y-88805000D02*
X156818000Y-88805000D01*
X154408000Y-88805000D02*
X154078000Y-88805000D01*
X156818000Y-95345000D02*
X156488000Y-95345000D01*
X154078000Y-95345000D02*
X154408000Y-95345000D01*
X154078000Y-88805000D02*
X154078000Y-95345000D01*
%TO.C,R4*%
X156818000Y-109125000D02*
X156818000Y-115665000D01*
X154408000Y-109125000D02*
X154078000Y-109125000D01*
X156488000Y-109125000D02*
X156818000Y-109125000D01*
X154078000Y-115665000D02*
X154408000Y-115665000D01*
X154078000Y-109125000D02*
X154078000Y-115665000D01*
X156818000Y-115665000D02*
X156488000Y-115665000D01*
%TO.C,R5*%
X157448000Y-80545000D02*
X157448000Y-80875000D01*
X150908000Y-82955000D02*
X150908000Y-83285000D01*
X157448000Y-83285000D02*
X157448000Y-82955000D01*
X150908000Y-83285000D02*
X157448000Y-83285000D01*
X150908000Y-80545000D02*
X157448000Y-80545000D01*
X150908000Y-80875000D02*
X150908000Y-80545000D01*
%TO.C,R6*%
X157448000Y-103605000D02*
X157448000Y-103275000D01*
X150908000Y-101195000D02*
X150908000Y-100865000D01*
X157448000Y-100865000D02*
X157448000Y-101195000D01*
X150908000Y-103275000D02*
X150908000Y-103605000D01*
X150908000Y-100865000D02*
X157448000Y-100865000D01*
X150908000Y-103605000D02*
X157448000Y-103605000D01*
%TO.C,R7*%
X159158000Y-92805000D02*
X159488000Y-92805000D01*
X161898000Y-92805000D02*
X161568000Y-92805000D01*
X161898000Y-86265000D02*
X161898000Y-92805000D01*
X159488000Y-86265000D02*
X159158000Y-86265000D01*
X161568000Y-86265000D02*
X161898000Y-86265000D01*
X159158000Y-86265000D02*
X159158000Y-92805000D01*
%TO.C,R8*%
X164568000Y-86265000D02*
X164238000Y-86265000D01*
X166978000Y-86265000D02*
X166978000Y-92805000D01*
X166648000Y-86265000D02*
X166978000Y-86265000D01*
X166978000Y-92805000D02*
X166648000Y-92805000D01*
X164238000Y-86265000D02*
X164238000Y-92805000D01*
X164238000Y-92805000D02*
X164568000Y-92805000D01*
%TO.C,SW1*%
X174048000Y-78495000D02*
X175048000Y-78495000D01*
X171048000Y-84665000D02*
X171048000Y-84115000D01*
X171048000Y-82175000D02*
X171048000Y-81615000D01*
X174748000Y-84115000D02*
X174748000Y-84675000D01*
X171048000Y-79675000D02*
X171048000Y-78795000D01*
X174748000Y-87495000D02*
X171048000Y-87495000D01*
X171048000Y-78795000D02*
X174748000Y-78795000D01*
X175048000Y-78495000D02*
X175048000Y-79495000D01*
X174748000Y-81645000D02*
X174748000Y-82175000D01*
X174748000Y-86615000D02*
X174748000Y-87495000D01*
X174748000Y-78795000D02*
X174748000Y-79645000D01*
X171048000Y-87495000D02*
X171048000Y-86625000D01*
%TO.C,6N138*%
X142053000Y-94675000D02*
X148523000Y-94675000D01*
X144288000Y-84395000D02*
X142053000Y-84395000D01*
X148523000Y-94675000D02*
X148523000Y-84395000D01*
X148523000Y-84395000D02*
X146288000Y-84395000D01*
X142053000Y-84395000D02*
X142053000Y-94675000D01*
X144288000Y-84395000D02*
G75*
G03*
X146288000Y-84395000I1000000J0D01*
G01*
X142053000Y-104715000D02*
X142053000Y-114995000D01*
X142053000Y-114995000D02*
X148523000Y-114995000D01*
X148523000Y-114995000D02*
X148523000Y-104715000D01*
X148523000Y-104715000D02*
X146288000Y-104715000D01*
X144288000Y-104715000D02*
X142053000Y-104715000D01*
X144288000Y-104715000D02*
G75*
G03*
X146288000Y-104715000I1000000J0D01*
G01*
%TO.C,C1*%
X144668000Y-98525000D02*
X150908000Y-98525000D01*
X144668000Y-95785000D02*
X150908000Y-95785000D01*
X150908000Y-98080000D02*
X150908000Y-98525000D01*
X144668000Y-98080000D02*
X144668000Y-98525000D01*
X150908000Y-95785000D02*
X150908000Y-96230000D01*
X144668000Y-95785000D02*
X144668000Y-96230000D01*
%TO.C,C2*%
X144668000Y-118845000D02*
X150908000Y-118845000D01*
X150908000Y-116105000D02*
X150908000Y-116550000D01*
X150908000Y-118400000D02*
X150908000Y-118845000D01*
X144668000Y-118400000D02*
X144668000Y-118845000D01*
X144668000Y-116105000D02*
X144668000Y-116550000D01*
X144668000Y-116105000D02*
X150908000Y-116105000D01*
%TD*%
D14*
%TO.C,P1*%
X138938000Y-123825000D03*
X141478000Y-123825000D03*
X144018000Y-123825000D03*
X146558000Y-123825000D03*
X149098000Y-123825000D03*
X151638000Y-123825000D03*
X154178000Y-123825000D03*
X156718000Y-123825000D03*
%TD*%
%TO.C,P2*%
X161798000Y-123825000D03*
X164338000Y-123825000D03*
X166878000Y-123825000D03*
X169418000Y-123825000D03*
X171958000Y-123825000D03*
X174498000Y-123825000D03*
%TD*%
%TO.C,P3*%
X129794000Y-75565000D03*
X132334000Y-75565000D03*
X134874000Y-75565000D03*
X137414000Y-75565000D03*
X139954000Y-75565000D03*
X142494000Y-75565000D03*
X145034000Y-75565000D03*
X147574000Y-75565000D03*
X150114000Y-75565000D03*
X152654000Y-75565000D03*
%TD*%
%TO.C,P4*%
X156718000Y-75565000D03*
X159258000Y-75565000D03*
X161798000Y-75565000D03*
X164338000Y-75565000D03*
X166878000Y-75565000D03*
X169418000Y-75565000D03*
X171958000Y-75565000D03*
X174498000Y-75565000D03*
%TD*%
D15*
%TO.C,P5*%
X124968000Y-123825000D03*
%TD*%
%TO.C,P6*%
X177038000Y-118745000D03*
%TD*%
%TO.C,P7*%
X126238000Y-75565000D03*
%TD*%
%TO.C,P8*%
X177038000Y-90805000D03*
%TD*%
D16*
%TO.C,IN1*%
X114160300Y-84533740D03*
X114160300Y-94536260D03*
X124155200Y-97033080D03*
X124157740Y-89535000D03*
X124155200Y-82036920D03*
X126657100Y-94531180D03*
X126657100Y-84538820D03*
%TD*%
%TO.C,IN2*%
X114160300Y-114856260D03*
X114160300Y-104853740D03*
X124155200Y-117353080D03*
X124157740Y-109855000D03*
X124155200Y-102356920D03*
X126657100Y-114851180D03*
X126657100Y-104858820D03*
%TD*%
%TO.C,OUT1*%
X176415700Y-99773740D03*
X176415700Y-109776260D03*
X166420800Y-97276920D03*
X166418260Y-104775000D03*
X166420800Y-112273080D03*
X163918900Y-99778820D03*
X163918900Y-109771180D03*
%TD*%
M02*
