%TF.GenerationSoftware,KiCad,Pcbnew,(6.0.5)*%
%TF.CreationDate,2022-06-13T14:52:15+01:00*%
%TF.ProjectId,ArduinoUnoMIDIMergeShield,41726475-696e-46f5-956e-6f4d4944494d,rev?*%
%TF.SameCoordinates,Original*%
%TF.FileFunction,Copper,L2,Bot*%
%TF.FilePolarity,Positive*%
%FSLAX46Y46*%
G04 Gerber Fmt 4.6, Leading zero omitted, Abs format (unit mm)*
G04 Created by KiCad (PCBNEW (6.0.5)) date 2022-06-13 14:52:15*
%MOMM*%
%LPD*%
G01*
G04 APERTURE LIST*
%TA.AperFunction,ComponentPad*%
%ADD10O,1.727200X2.032000*%
%TD*%
%TA.AperFunction,ComponentPad*%
%ADD11C,4.064000*%
%TD*%
%TA.AperFunction,ComponentPad*%
%ADD12R,1.600000X1.600000*%
%TD*%
%TA.AperFunction,ComponentPad*%
%ADD13O,1.600000X1.600000*%
%TD*%
%TA.AperFunction,WasherPad*%
%ADD14C,2.499360*%
%TD*%
%TA.AperFunction,ComponentPad*%
%ADD15C,2.499360*%
%TD*%
%TA.AperFunction,ComponentPad*%
%ADD16C,1.600000*%
%TD*%
%TA.AperFunction,Conductor*%
%ADD17C,0.600000*%
%TD*%
G04 APERTURE END LIST*
D10*
%TO.P,P1,1*%
%TO.N,Net-(P1-Pad1)*%
X138938000Y-123825000D03*
%TO.P,P1,2*%
%TO.N,/IOREF*%
X141478000Y-123825000D03*
%TO.P,P1,3*%
%TO.N,/Reset*%
X144018000Y-123825000D03*
%TO.P,P1,4*%
%TO.N,+3V3*%
X146558000Y-123825000D03*
%TO.P,P1,5*%
%TO.N,+5V*%
X149098000Y-123825000D03*
%TO.P,P1,6*%
%TO.N,GND*%
X151638000Y-123825000D03*
%TO.P,P1,7*%
X154178000Y-123825000D03*
%TO.P,P1,8*%
%TO.N,/Vin*%
X156718000Y-123825000D03*
%TD*%
%TO.P,P2,1*%
%TO.N,/A0*%
X161798000Y-123825000D03*
%TO.P,P2,2*%
%TO.N,/A1*%
X164338000Y-123825000D03*
%TO.P,P2,3*%
%TO.N,/A2*%
X166878000Y-123825000D03*
%TO.P,P2,4*%
%TO.N,/A3*%
X169418000Y-123825000D03*
%TO.P,P2,5*%
%TO.N,/A4(SDA)*%
X171958000Y-123825000D03*
%TO.P,P2,6*%
%TO.N,/A5(SCL)*%
X174498000Y-123825000D03*
%TD*%
%TO.P,P3,1*%
%TO.N,/A5(SCL)*%
X129794000Y-75565000D03*
%TO.P,P3,2*%
%TO.N,/A4(SDA)*%
X132334000Y-75565000D03*
%TO.P,P3,3*%
%TO.N,/AREF*%
X134874000Y-75565000D03*
%TO.P,P3,4*%
%TO.N,GND*%
X137414000Y-75565000D03*
%TO.P,P3,5*%
%TO.N,/13(SCK)*%
X139954000Y-75565000D03*
%TO.P,P3,6*%
%TO.N,/12(MISO)*%
X142494000Y-75565000D03*
%TO.P,P3,7*%
%TO.N,/11(\u002A\u002A/MOSI)*%
X145034000Y-75565000D03*
%TO.P,P3,8*%
%TO.N,/10(\u002A\u002A/SS)*%
X147574000Y-75565000D03*
%TO.P,P3,9*%
%TO.N,/9(\u002A\u002A)*%
X150114000Y-75565000D03*
%TO.P,P3,10*%
%TO.N,/8*%
X152654000Y-75565000D03*
%TD*%
%TO.P,P4,1*%
%TO.N,/7*%
X156718000Y-75565000D03*
%TO.P,P4,2*%
%TO.N,/6(\u002A\u002A)*%
X159258000Y-75565000D03*
%TO.P,P4,3*%
%TO.N,/5(\u002A\u002A)*%
X161798000Y-75565000D03*
%TO.P,P4,4*%
%TO.N,/4*%
X164338000Y-75565000D03*
%TO.P,P4,5*%
%TO.N,/3(\u002A\u002A)*%
X166878000Y-75565000D03*
%TO.P,P4,6*%
%TO.N,/2*%
X169418000Y-75565000D03*
%TO.P,P4,7*%
%TO.N,/1(Tx)*%
X171958000Y-75565000D03*
%TO.P,P4,8*%
%TO.N,/0(Rx)*%
X174498000Y-75565000D03*
%TD*%
D11*
%TO.P,P5,1*%
%TO.N,Net-(P5-Pad1)*%
X124968000Y-123825000D03*
%TD*%
%TO.P,P6,1*%
%TO.N,Net-(P6-Pad1)*%
X177038000Y-118745000D03*
%TD*%
%TO.P,P7,1*%
%TO.N,Net-(P7-Pad1)*%
X126238000Y-75565000D03*
%TD*%
%TO.P,P8,1*%
%TO.N,Net-(P8-Pad1)*%
X177038000Y-90805000D03*
%TD*%
D12*
%TO.P,D1,1*%
%TO.N,Net-(D1-Pad1)*%
X136398000Y-85725000D03*
D13*
%TO.P,D1,2*%
%TO.N,Net-(D1-Pad2)*%
X136398000Y-93345000D03*
%TD*%
D12*
%TO.P,D2,1*%
%TO.N,Net-(D2-Pad1)*%
X136398000Y-106045000D03*
D13*
%TO.P,D2,2*%
%TO.N,Net-(D2-Pad2)*%
X136398000Y-113665000D03*
%TD*%
D14*
%TO.P,IN1,*%
%TO.N,*%
X114160300Y-84533740D03*
X114160300Y-94536260D03*
D15*
%TO.P,IN1,1*%
%TO.N,Net-(IN1-Pad1)*%
X124155200Y-97033080D03*
%TO.P,IN1,2*%
%TO.N,Net-(IN1-Pad2)*%
X124157740Y-89535000D03*
%TO.P,IN1,3*%
%TO.N,Net-(IN1-Pad3)*%
X124155200Y-82036920D03*
%TO.P,IN1,4*%
%TO.N,Net-(IN1-Pad4)*%
X126657100Y-94531180D03*
%TO.P,IN1,5*%
%TO.N,Net-(D1-Pad2)*%
X126657100Y-84538820D03*
%TD*%
D14*
%TO.P,IN2,*%
%TO.N,*%
X114160300Y-114856260D03*
X114160300Y-104853740D03*
D15*
%TO.P,IN2,1*%
%TO.N,Net-(IN2-Pad1)*%
X124155200Y-117353080D03*
%TO.P,IN2,2*%
%TO.N,Net-(IN2-Pad2)*%
X124157740Y-109855000D03*
%TO.P,IN2,3*%
%TO.N,Net-(IN2-Pad3)*%
X124155200Y-102356920D03*
%TO.P,IN2,4*%
%TO.N,Net-(IN2-Pad4)*%
X126657100Y-114851180D03*
%TO.P,IN2,5*%
%TO.N,Net-(D2-Pad2)*%
X126657100Y-104858820D03*
%TD*%
D14*
%TO.P,OUT1,*%
%TO.N,*%
X176415700Y-99773740D03*
X176415700Y-109776260D03*
D15*
%TO.P,OUT1,1*%
%TO.N,Net-(OUT1-Pad1)*%
X166420800Y-97276920D03*
%TO.P,OUT1,2*%
%TO.N,GND*%
X166418260Y-104775000D03*
%TO.P,OUT1,3*%
%TO.N,Net-(OUT1-Pad3)*%
X166420800Y-112273080D03*
%TO.P,OUT1,4*%
%TO.N,Net-(OUT1-Pad4)*%
X163918900Y-99778820D03*
%TO.P,OUT1,5*%
%TO.N,Net-(OUT1-Pad5)*%
X163918900Y-109771180D03*
%TD*%
D16*
%TO.P,R1,1*%
%TO.N,Net-(IN1-Pad4)*%
X132588000Y-93345000D03*
D13*
%TO.P,R1,2*%
%TO.N,Net-(D1-Pad1)*%
X132588000Y-85725000D03*
%TD*%
D16*
%TO.P,R2,1*%
%TO.N,Net-(IN2-Pad4)*%
X132588000Y-113665000D03*
D13*
%TO.P,R2,2*%
%TO.N,Net-(D2-Pad1)*%
X132588000Y-106045000D03*
%TD*%
D16*
%TO.P,R3,1*%
%TO.N,Net-(R3-Pad1)*%
X155448000Y-88265000D03*
D13*
%TO.P,R3,2*%
%TO.N,GND*%
X155448000Y-95885000D03*
%TD*%
D16*
%TO.P,R4,1*%
%TO.N,Net-(R4-Pad1)*%
X155448000Y-108585000D03*
D13*
%TO.P,R4,2*%
%TO.N,GND*%
X155448000Y-116205000D03*
%TD*%
D16*
%TO.P,R5,1*%
%TO.N,+5V*%
X150368000Y-81915000D03*
D13*
%TO.P,R5,2*%
%TO.N,/2*%
X157988000Y-81915000D03*
%TD*%
D16*
%TO.P,R6,1*%
%TO.N,+5V*%
X150368000Y-102235000D03*
D13*
%TO.P,R6,2*%
%TO.N,Net-(R6-Pad2)*%
X157988000Y-102235000D03*
%TD*%
D16*
%TO.P,R7,1*%
%TO.N,+5V*%
X160528000Y-85725000D03*
D13*
%TO.P,R7,2*%
%TO.N,Net-(OUT1-Pad4)*%
X160528000Y-93345000D03*
%TD*%
D16*
%TO.P,R8,1*%
%TO.N,Net-(R8-Pad1)*%
X165608000Y-85725000D03*
D13*
%TO.P,R8,2*%
%TO.N,Net-(OUT1-Pad5)*%
X165608000Y-93345000D03*
%TD*%
D12*
%TO.P,SW1,1*%
%TO.N,/0(Rx)*%
X174498000Y-80645000D03*
D16*
%TO.P,SW1,2*%
%TO.N,Net-(R6-Pad2)*%
X174498000Y-83145000D03*
%TO.P,SW1,3*%
X174498000Y-85645000D03*
%TO.P,SW1,4*%
%TO.N,/1(Tx)*%
X171298000Y-80645000D03*
%TO.P,SW1,5*%
%TO.N,Net-(R8-Pad1)*%
X171298000Y-83145000D03*
%TO.P,SW1,6*%
X171298000Y-85645000D03*
%TD*%
D12*
%TO.P,6N138,1*%
%TO.N,Net-(U1-Pad1)*%
X140208000Y-85725000D03*
D13*
%TO.P,6N138,2*%
%TO.N,Net-(D1-Pad1)*%
X140208000Y-88265000D03*
%TO.P,6N138,3*%
%TO.N,Net-(D1-Pad2)*%
X140208000Y-90805000D03*
%TO.P,6N138,4*%
%TO.N,Net-(U1-Pad4)*%
X140208000Y-93345000D03*
%TO.P,6N138,5*%
%TO.N,GND*%
X150368000Y-93345000D03*
%TO.P,6N138,6*%
%TO.N,/2*%
X150368000Y-90805000D03*
%TO.P,6N138,7*%
%TO.N,Net-(R3-Pad1)*%
X150368000Y-88265000D03*
%TO.P,6N138,8*%
%TO.N,+5V*%
X150368000Y-85725000D03*
%TD*%
D12*
%TO.P,6N138,1*%
%TO.N,Net-(U2-Pad1)*%
X140208000Y-106045000D03*
D13*
%TO.P,6N138,2*%
%TO.N,Net-(D2-Pad1)*%
X140208000Y-108585000D03*
%TO.P,6N138,3*%
%TO.N,Net-(D2-Pad2)*%
X140208000Y-111125000D03*
%TO.P,6N138,4*%
%TO.N,Net-(U2-Pad4)*%
X140208000Y-113665000D03*
%TO.P,6N138,5*%
%TO.N,GND*%
X150368000Y-113665000D03*
%TO.P,6N138,6*%
%TO.N,Net-(R6-Pad2)*%
X150368000Y-111125000D03*
%TO.P,6N138,7*%
%TO.N,Net-(R4-Pad1)*%
X150368000Y-108585000D03*
%TO.P,6N138,8*%
%TO.N,+5V*%
X150368000Y-106045000D03*
%TD*%
D16*
%TO.P,C1,1*%
%TO.N,+5V*%
X145288000Y-97155000D03*
%TO.P,C1,2*%
%TO.N,GND*%
X150288000Y-97155000D03*
%TD*%
%TO.P,C2,1*%
%TO.N,+5V*%
X145288000Y-117475000D03*
%TO.P,C2,2*%
%TO.N,GND*%
X150288000Y-117475000D03*
%TD*%
D17*
%TO.N,GND*%
X151638000Y-118825000D02*
X150288000Y-117475000D01*
X155448000Y-116205000D02*
X154258000Y-116205000D01*
X164338000Y-104775000D02*
X155448000Y-113665000D01*
X154178000Y-97155000D02*
X155448000Y-95885000D01*
X155448000Y-95885000D02*
X164338000Y-104775000D01*
X154258000Y-116205000D02*
X151638000Y-118825000D01*
X150368000Y-93345000D02*
X150368000Y-97075000D01*
X150288000Y-117475000D02*
X150288000Y-113745000D01*
X166418260Y-104775000D02*
X164338000Y-104775000D01*
X155448000Y-113665000D02*
X155448000Y-116205000D01*
X154178000Y-123825000D02*
X151638000Y-123825000D01*
X151638000Y-123825000D02*
X151638000Y-118825000D01*
X150288000Y-97155000D02*
X154178000Y-97155000D01*
%TD*%
M02*
