M48
; DRILL file {KiCad (6.0.5)} date Mon Jun 13 14:52:18 2022
; FORMAT={-:-/ absolute / inch / decimal}
; #@! TF.CreationDate,2022-06-13T14:52:18+01:00
; #@! TF.GenerationSoftware,Kicad,Pcbnew,(6.0.5)
; #@! TF.FileFunction,MixedPlating,1,2
FMAT,2
INCH
; #@! TA.AperFunction,Plated,PTH,ComponentDrill
T1C0.0315
; #@! TA.AperFunction,Plated,PTH,ComponentDrill
T2C0.0400
; #@! TA.AperFunction,Plated,PTH,ComponentDrill
T3C0.0550
; #@! TA.AperFunction,Plated,PTH,ComponentDrill
T4C0.1200
; #@! TA.AperFunction,NonPlated,NPTH,ComponentDrill
T5C0.0550
%
G90
G05
T1
X5.22Y-3.375
X5.22Y-3.675
X5.22Y-4.175
X5.22Y-4.475
X5.37Y-3.375
X5.37Y-3.675
X5.37Y-4.175
X5.37Y-4.475
X5.52Y-3.375
X5.52Y-3.475
X5.52Y-3.575
X5.52Y-3.675
X5.52Y-4.175
X5.52Y-4.275
X5.52Y-4.375
X5.52Y-4.475
X5.72Y-3.825
X5.72Y-4.625
X5.9169Y-3.825
X5.9169Y-4.625
X5.92Y-3.225
X5.92Y-3.375
X5.92Y-3.475
X5.92Y-3.575
X5.92Y-3.675
X5.92Y-4.025
X5.92Y-4.175
X5.92Y-4.275
X5.92Y-4.375
X5.92Y-4.475
X6.12Y-3.475
X6.12Y-3.775
X6.12Y-4.275
X6.12Y-4.575
X6.22Y-3.225
X6.22Y-4.025
X6.32Y-3.375
X6.32Y-3.675
X6.52Y-3.375
X6.52Y-3.675
X6.744Y-3.175
X6.744Y-3.2734
X6.744Y-3.3719
X6.87Y-3.175
X6.87Y-3.2734
X6.87Y-3.3719
T2
X5.11Y-2.975
X5.21Y-2.975
X5.31Y-2.975
X5.41Y-2.975
X5.47Y-4.875
X5.51Y-2.975
X5.57Y-4.875
X5.61Y-2.975
X5.67Y-4.875
X5.71Y-2.975
X5.77Y-4.875
X5.81Y-2.975
X5.87Y-4.875
X5.91Y-2.975
X5.97Y-4.875
X6.01Y-2.975
X6.07Y-4.875
X6.17Y-2.975
X6.17Y-4.875
X6.27Y-2.975
X6.37Y-2.975
X6.37Y-4.875
X6.47Y-2.975
X6.47Y-4.875
X6.57Y-2.975
X6.57Y-4.875
X6.67Y-2.975
X6.67Y-4.875
X6.77Y-2.975
X6.77Y-4.875
X6.87Y-2.975
X6.87Y-4.875
T3
X4.888Y-3.2298
X4.888Y-3.8202
X4.888Y-4.0298
X4.888Y-4.6202
X4.8881Y-3.525
X4.8881Y-4.325
X4.9865Y-3.3283
X4.9865Y-3.7217
X4.9865Y-4.1283
X4.9865Y-4.5217
X6.4535Y-3.9283
X6.4535Y-4.3217
X6.5519Y-4.125
X6.552Y-3.8298
X6.552Y-4.4202
T4
X4.92Y-4.875
X4.97Y-2.975
X6.97Y-3.575
X6.97Y-4.675
T5
X4.4945Y-3.3281
X4.4945Y-3.7219
X4.4945Y-4.1281
X4.4945Y-4.5219
X6.9455Y-3.9281
X6.9455Y-4.3219
T0
M30
