%TF.GenerationSoftware,KiCad,Pcbnew,(6.0.5)*%
%TF.CreationDate,2023-01-02T20:32:54+00:00*%
%TF.ProjectId,NanoPicoKeyboardMatrix,4e616e6f-5069-4636-9f4b-6579626f6172,rev?*%
%TF.SameCoordinates,Original*%
%TF.FileFunction,Copper,L1,Top*%
%TF.FilePolarity,Positive*%
%FSLAX46Y46*%
G04 Gerber Fmt 4.6, Leading zero omitted, Abs format (unit mm)*
G04 Created by KiCad (PCBNEW (6.0.5)) date 2023-01-02 20:32:54*
%MOMM*%
%LPD*%
G01*
G04 APERTURE LIST*
%TA.AperFunction,ComponentPad*%
%ADD10R,1.700000X1.700000*%
%TD*%
%TA.AperFunction,ComponentPad*%
%ADD11O,1.700000X1.700000*%
%TD*%
%TA.AperFunction,ComponentPad*%
%ADD12R,1.600000X1.600000*%
%TD*%
%TA.AperFunction,ComponentPad*%
%ADD13O,1.600000X1.600000*%
%TD*%
%TA.AperFunction,SMDPad,CuDef*%
%ADD14R,3.500000X1.700000*%
%TD*%
%TA.AperFunction,SMDPad,CuDef*%
%ADD15R,1.700000X3.500000*%
%TD*%
%TA.AperFunction,Conductor*%
%ADD16C,0.800000*%
%TD*%
%TA.AperFunction,Conductor*%
%ADD17C,0.200000*%
%TD*%
G04 APERTURE END LIST*
D10*
%TO.P,J1,1,Pin_1*%
%TO.N,/M1*%
X157570000Y-65235000D03*
D11*
%TO.P,J1,2,Pin_2*%
%TO.N,/M2*%
X157570000Y-67775000D03*
%TO.P,J1,3,Pin_3*%
%TO.N,/M3*%
X157570000Y-70315000D03*
%TO.P,J1,4,Pin_4*%
%TO.N,/M4*%
X157570000Y-72855000D03*
%TO.P,J1,5,Pin_5*%
%TO.N,/M5*%
X157570000Y-75395000D03*
%TO.P,J1,6,Pin_6*%
%TO.N,/M6*%
X157570000Y-77935000D03*
%TO.P,J1,7,Pin_7*%
%TO.N,/M7*%
X157570000Y-80475000D03*
%TO.P,J1,8,Pin_8*%
%TO.N,/M8*%
X157570000Y-83015000D03*
%TD*%
%TO.P,J6,12,Pin_12*%
%TO.N,/M1*%
X136230000Y-49130000D03*
%TO.P,J6,11,Pin_11*%
%TO.N,/M2*%
X133690000Y-49130000D03*
%TO.P,J6,10,Pin_10*%
%TO.N,/M3*%
X131150000Y-49130000D03*
%TO.P,J6,9,Pin_9*%
%TO.N,/M4*%
X128610000Y-49130000D03*
%TO.P,J6,8,Pin_8*%
%TO.N,/M5*%
X126070000Y-49130000D03*
%TO.P,J6,7,Pin_7*%
%TO.N,/M6*%
X123530000Y-49130000D03*
%TO.P,J6,6,Pin_6*%
%TO.N,/M7*%
X120990000Y-49130000D03*
%TO.P,J6,5,Pin_5*%
%TO.N,/M8*%
X118450000Y-49130000D03*
%TO.P,J6,4,Pin_4*%
%TO.N,+3V3*%
X115910000Y-49130000D03*
%TO.P,J6,3,Pin_3*%
%TO.N,/RST*%
X113370000Y-49130000D03*
%TO.P,J6,2,Pin_2*%
%TO.N,GND*%
X110830000Y-49130000D03*
D10*
%TO.P,J6,1,Pin_1*%
%TO.N,+5V*%
X108290000Y-49130000D03*
%TD*%
%TO.P,J5,1,Pin_1*%
%TO.N,/TX0*%
X108290000Y-64370000D03*
D11*
%TO.P,J5,2,Pin_2*%
%TO.N,/RX0*%
X110830000Y-64370000D03*
%TO.P,J5,3,Pin_3*%
%TO.N,GND*%
X113370000Y-64370000D03*
%TO.P,J5,4,Pin_4*%
X115910000Y-64370000D03*
%TO.P,J5,5,Pin_5*%
%TO.N,/IO1*%
X118450000Y-64370000D03*
%TO.P,J5,6,Pin_6*%
%TO.N,/IO2*%
X120990000Y-64370000D03*
%TO.P,J5,7,Pin_7*%
%TO.N,/IO3*%
X123530000Y-64370000D03*
%TO.P,J5,8,Pin_8*%
%TO.N,/IO4*%
X126070000Y-64370000D03*
%TO.P,J5,9,Pin_9*%
%TO.N,/IO5*%
X128610000Y-64370000D03*
%TO.P,J5,10,Pin_10*%
%TO.N,/IO6*%
X131150000Y-64370000D03*
%TO.P,J5,11,Pin_11*%
%TO.N,/IO7*%
X133690000Y-64370000D03*
%TO.P,J5,12,Pin_12*%
%TO.N,/IO8*%
X136230000Y-64370000D03*
%TD*%
D12*
%TO.P,A1,1,D1/TX*%
%TO.N,/TX0*%
X108290000Y-67490000D03*
D13*
%TO.P,A1,2,D0/RX*%
%TO.N,/RX0*%
X110830000Y-67490000D03*
%TO.P,A1,3,~{RESET}*%
%TO.N,unconnected-(A1-Pad3)*%
X113370000Y-67490000D03*
%TO.P,A1,4,GND*%
%TO.N,GND*%
X115910000Y-67490000D03*
%TO.P,A1,5,D2*%
%TO.N,/IO1*%
X118450000Y-67490000D03*
%TO.P,A1,6,D3*%
%TO.N,/IO2*%
X120990000Y-67490000D03*
%TO.P,A1,7,D4*%
%TO.N,/IO3*%
X123530000Y-67490000D03*
%TO.P,A1,8,D5*%
%TO.N,/IO4*%
X126070000Y-67490000D03*
%TO.P,A1,9,D6*%
%TO.N,/IO5*%
X128610000Y-67490000D03*
%TO.P,A1,10,D7*%
%TO.N,/IO6*%
X131150000Y-67490000D03*
%TO.P,A1,11,D8*%
%TO.N,/IO7*%
X133690000Y-67490000D03*
%TO.P,A1,12,D9*%
%TO.N,/IO8*%
X136230000Y-67490000D03*
%TO.P,A1,13,D10*%
%TO.N,/IO9*%
X138770000Y-67490000D03*
%TO.P,A1,14,D11*%
%TO.N,/IO10*%
X141310000Y-67490000D03*
%TO.P,A1,15,D12*%
%TO.N,/IO11*%
X143850000Y-67490000D03*
%TO.P,A1,16,D13*%
%TO.N,/IO12*%
X143850000Y-52250000D03*
%TO.P,A1,17,3V3*%
%TO.N,+3V3*%
X141310000Y-52250000D03*
%TO.P,A1,18,AREF*%
%TO.N,unconnected-(A1-Pad18)*%
X138770000Y-52250000D03*
%TO.P,A1,19,A0*%
%TO.N,/M1*%
X136230000Y-52250000D03*
%TO.P,A1,20,A1*%
%TO.N,/M2*%
X133690000Y-52250000D03*
%TO.P,A1,21,A2*%
%TO.N,/M3*%
X131150000Y-52250000D03*
%TO.P,A1,22,A3*%
%TO.N,/M4*%
X128610000Y-52250000D03*
%TO.P,A1,23,A4*%
%TO.N,/M5*%
X126070000Y-52250000D03*
%TO.P,A1,24,A5*%
%TO.N,/M6*%
X123530000Y-52250000D03*
%TO.P,A1,25,A6*%
%TO.N,/M7*%
X120990000Y-52250000D03*
%TO.P,A1,26,A7*%
%TO.N,/M8*%
X118450000Y-52250000D03*
%TO.P,A1,27,+5V*%
%TO.N,+5V*%
X115910000Y-52250000D03*
%TO.P,A1,28,~{RESET}*%
%TO.N,unconnected-(A1-Pad28)*%
X113370000Y-52250000D03*
%TO.P,A1,29,GND*%
%TO.N,GND*%
X110830000Y-52250000D03*
%TO.P,A1,30,VIN*%
%TO.N,unconnected-(A1-Pad30)*%
X108290000Y-52250000D03*
%TD*%
D14*
%TO.P,U1,43,SWDIO*%
%TO.N,unconnected-(U1-Pad43)*%
X151965000Y-65370000D03*
D11*
X151065000Y-65370000D03*
D14*
%TO.P,U1,42,GND*%
%TO.N,unconnected-(U1-Pad42)*%
X151965000Y-67910000D03*
D10*
X151065000Y-67910000D03*
D11*
%TO.P,U1,41,SWCLK*%
%TO.N,unconnected-(U1-Pad41)*%
X151065000Y-70450000D03*
D14*
X151965000Y-70450000D03*
D15*
%TO.P,U1,40,VBUS*%
%TO.N,+5V*%
X103035000Y-58120000D03*
D11*
X103035000Y-59020000D03*
%TO.P,U1,39,VSYS*%
%TO.N,unconnected-(U1-Pad39)*%
X105575000Y-59020000D03*
D15*
X105575000Y-58120000D03*
D10*
%TO.P,U1,38,GND*%
%TO.N,GND*%
X108115000Y-59020000D03*
D15*
X108115000Y-58120000D03*
D11*
%TO.P,U1,37,3V3_EN*%
%TO.N,unconnected-(U1-Pad37)*%
X110655000Y-59020000D03*
D15*
X110655000Y-58120000D03*
%TO.P,U1,36,3V3*%
%TO.N,+3V3*%
X113195000Y-58120000D03*
D11*
X113195000Y-59020000D03*
%TO.P,U1,35,ADC_VREF*%
%TO.N,unconnected-(U1-Pad35)*%
X115735000Y-59020000D03*
D15*
X115735000Y-58120000D03*
D11*
%TO.P,U1,34,GPIO28_ADC2*%
%TO.N,/M8*%
X118275000Y-59020000D03*
D15*
X118275000Y-58120000D03*
D10*
%TO.P,U1,33,AGND*%
%TO.N,GND*%
X120815000Y-59020000D03*
D15*
X120815000Y-58120000D03*
%TO.P,U1,32,GPIO27_ADC1*%
%TO.N,/M7*%
X123355000Y-58120000D03*
D11*
X123355000Y-59020000D03*
D15*
%TO.P,U1,31,GPIO26_ADC0*%
%TO.N,/M6*%
X125895000Y-58120000D03*
D11*
X125895000Y-59020000D03*
%TO.P,U1,30,RUN*%
%TO.N,unconnected-(U1-Pad30)*%
X128435000Y-59020000D03*
D15*
X128435000Y-58120000D03*
%TO.P,U1,29,GPIO22*%
%TO.N,/M5*%
X130975000Y-58120000D03*
D11*
X130975000Y-59020000D03*
D15*
%TO.P,U1,28,GND*%
%TO.N,GND*%
X133515000Y-58120000D03*
D10*
X133515000Y-59020000D03*
D15*
%TO.P,U1,27,GPIO21*%
%TO.N,/M4*%
X136055000Y-58120000D03*
D11*
X136055000Y-59020000D03*
%TO.P,U1,26,GPIO20*%
%TO.N,/M3*%
X138595000Y-59020000D03*
D15*
X138595000Y-58120000D03*
D11*
%TO.P,U1,25,GPIO19*%
%TO.N,/M2*%
X141135000Y-59020000D03*
D15*
X141135000Y-58120000D03*
%TO.P,U1,24,GPIO18*%
%TO.N,/M1*%
X143675000Y-58120000D03*
D11*
X143675000Y-59020000D03*
D10*
%TO.P,U1,23,GND*%
%TO.N,GND*%
X146215000Y-59020000D03*
D15*
X146215000Y-58120000D03*
D11*
%TO.P,U1,22,GPIO17*%
%TO.N,unconnected-(U1-Pad22)*%
X148755000Y-59020000D03*
D15*
X148755000Y-58120000D03*
D11*
%TO.P,U1,21,GPIO16*%
%TO.N,unconnected-(U1-Pad21)*%
X151295000Y-59020000D03*
D15*
X151295000Y-58120000D03*
D11*
%TO.P,U1,20,GPIO15*%
%TO.N,unconnected-(U1-Pad20)*%
X151295000Y-76800000D03*
D15*
X151295000Y-77700000D03*
%TO.P,U1,19,GPIO14*%
%TO.N,unconnected-(U1-Pad19)*%
X148755000Y-77700000D03*
D11*
X148755000Y-76800000D03*
D10*
%TO.P,U1,18,GND*%
%TO.N,GND*%
X146215000Y-76800000D03*
D15*
X146215000Y-77700000D03*
D11*
%TO.P,U1,17,GPIO13*%
%TO.N,/IO12*%
X143675000Y-76800000D03*
D15*
X143675000Y-77700000D03*
D11*
%TO.P,U1,16,GPIO12*%
%TO.N,/IO11*%
X141135000Y-76800000D03*
D15*
X141135000Y-77700000D03*
%TO.P,U1,15,GPIO11*%
%TO.N,/IO10*%
X138595000Y-77700000D03*
D11*
X138595000Y-76800000D03*
%TO.P,U1,14,GPIO10*%
%TO.N,/IO9*%
X136055000Y-76800000D03*
D15*
X136055000Y-77700000D03*
%TO.P,U1,13,GND*%
%TO.N,GND*%
X133515000Y-77700000D03*
D10*
X133515000Y-76800000D03*
D15*
%TO.P,U1,12,GPIO9*%
%TO.N,/IO8*%
X130975000Y-77700000D03*
D11*
X130975000Y-76800000D03*
%TO.P,U1,11,GPIO8*%
%TO.N,/IO7*%
X128435000Y-76800000D03*
D15*
X128435000Y-77700000D03*
%TO.P,U1,10,GPIO7*%
%TO.N,/IO6*%
X125895000Y-77700000D03*
D11*
X125895000Y-76800000D03*
%TO.P,U1,9,GPIO6*%
%TO.N,/IO5*%
X123355000Y-76800000D03*
D15*
X123355000Y-77700000D03*
%TO.P,U1,8,GND*%
%TO.N,GND*%
X120815000Y-77700000D03*
D10*
X120815000Y-76800000D03*
D11*
%TO.P,U1,7,GPIO5*%
%TO.N,/IO4*%
X118275000Y-76800000D03*
D15*
X118275000Y-77700000D03*
%TO.P,U1,6,GPIO4*%
%TO.N,/IO3*%
X115735000Y-77700000D03*
D11*
X115735000Y-76800000D03*
D15*
%TO.P,U1,5,GPIO3*%
%TO.N,/IO2*%
X113195000Y-77700000D03*
D11*
X113195000Y-76800000D03*
D15*
%TO.P,U1,4,GPIO2*%
%TO.N,/IO1*%
X110655000Y-77700000D03*
D11*
X110655000Y-76800000D03*
D10*
%TO.P,U1,3,GND*%
%TO.N,GND*%
X108115000Y-76800000D03*
D15*
X108115000Y-77700000D03*
%TO.P,U1,2,GPIO1*%
%TO.N,/RX0*%
X105575000Y-77700000D03*
D11*
X105575000Y-76800000D03*
D15*
%TO.P,U1,1,GPIO0*%
%TO.N,/TX0*%
X103035000Y-77700000D03*
D11*
X103035000Y-76800000D03*
%TD*%
D10*
%TO.P,J4,1,Pin_1*%
%TO.N,GND*%
X157570000Y-49350000D03*
D11*
%TO.P,J4,2,Pin_2*%
%TO.N,+3V3*%
X157570000Y-51890000D03*
%TO.P,J4,3,Pin_3*%
%TO.N,+5V*%
X157570000Y-54430000D03*
%TD*%
D10*
%TO.P,J3,1,Pin_1*%
%TO.N,GND*%
X108100000Y-83000000D03*
D11*
%TO.P,J3,2,Pin_2*%
%TO.N,/RX0*%
X105560000Y-83000000D03*
%TO.P,J3,3,Pin_3*%
%TO.N,/TX0*%
X103020000Y-83000000D03*
%TD*%
D10*
%TO.P,J2,1,Pin_1*%
%TO.N,/IO1*%
X113800000Y-83000000D03*
D11*
%TO.P,J2,2,Pin_2*%
%TO.N,/IO2*%
X116340000Y-83000000D03*
%TO.P,J2,3,Pin_3*%
%TO.N,/IO3*%
X118880000Y-83000000D03*
%TO.P,J2,4,Pin_4*%
%TO.N,/IO4*%
X121420000Y-83000000D03*
%TO.P,J2,5,Pin_5*%
%TO.N,/IO5*%
X123960000Y-83000000D03*
%TO.P,J2,6,Pin_6*%
%TO.N,/IO6*%
X126500000Y-83000000D03*
%TO.P,J2,7,Pin_7*%
%TO.N,/IO7*%
X129040000Y-83000000D03*
%TO.P,J2,8,Pin_8*%
%TO.N,/IO8*%
X131580000Y-83000000D03*
%TO.P,J2,9,Pin_9*%
%TO.N,/IO9*%
X134120000Y-83000000D03*
%TO.P,J2,10,Pin_10*%
%TO.N,/IO10*%
X136660000Y-83000000D03*
%TO.P,J2,11,Pin_11*%
%TO.N,/IO11*%
X139200000Y-83000000D03*
%TO.P,J2,12,Pin_12*%
%TO.N,/IO12*%
X141740000Y-83000000D03*
%TD*%
D16*
%TO.N,+5V*%
X146890000Y-47380000D02*
X154010000Y-54500000D01*
X154010000Y-54500000D02*
X157570000Y-54500000D01*
D17*
%TO.N,/M1*%
X152552500Y-60267500D02*
X157570000Y-65285000D01*
X144922500Y-60267500D02*
X152552500Y-60267500D01*
X143675000Y-59020000D02*
X144922500Y-60267500D01*
%TO.N,/M2*%
X142782020Y-60667020D02*
X141135000Y-59020000D01*
X152304912Y-60667020D02*
X142782020Y-60667020D01*
X155559519Y-65814519D02*
X155559519Y-63921627D01*
X155559519Y-63921627D02*
X152304912Y-60667020D01*
X157570000Y-67825000D02*
X155559519Y-65814519D01*
%TO.N,/M3*%
X155159999Y-67954999D02*
X157570000Y-70365000D01*
X155159999Y-64087113D02*
X155159999Y-67954999D01*
X152139427Y-61066541D02*
X155159999Y-64087113D01*
X140641540Y-61066540D02*
X152139427Y-61066541D01*
X138595000Y-59020000D02*
X140641540Y-61066540D01*
%TO.N,/M4*%
X154760480Y-70095480D02*
X157570000Y-72905000D01*
X154760479Y-64252599D02*
X154760480Y-70095480D01*
X138501060Y-61466060D02*
X151973940Y-61466060D01*
X136055000Y-59020000D02*
X138501060Y-61466060D01*
X151973940Y-61466060D02*
X154760479Y-64252599D01*
D16*
%TO.N,+5V*%
X146890000Y-47380000D02*
X110040000Y-47380000D01*
X110040000Y-47380000D02*
X108290000Y-49130000D01*
X104720000Y-54760000D02*
X103100000Y-54760000D01*
X103035000Y-54825000D02*
X103035000Y-52255000D01*
X103035000Y-59020000D02*
X103035000Y-54825000D01*
X104720000Y-54760000D02*
X114750000Y-54760000D01*
X103035000Y-52255000D02*
X104415000Y-50875000D01*
X104415000Y-50875000D02*
X106160000Y-49130000D01*
X106160000Y-49130000D02*
X108290000Y-49130000D01*
D17*
%TO.N,/IO12*%
X159320000Y-62560000D02*
X159320000Y-83400000D01*
X143850000Y-52250000D02*
X149010000Y-52250000D01*
X149010000Y-52250000D02*
X159320000Y-62560000D01*
%TO.N,/M5*%
X155595006Y-75445000D02*
X157570000Y-75445000D01*
X152800000Y-72649994D02*
X155595006Y-75445000D01*
X149445018Y-72610000D02*
X152800000Y-72610000D01*
X148319039Y-71484021D02*
X149445018Y-72610000D01*
X143560597Y-61865579D02*
X148319039Y-66624021D01*
X152800000Y-72610000D02*
X152800000Y-72649994D01*
X133820579Y-61865579D02*
X143560597Y-61865579D01*
X148319039Y-66624021D02*
X148319039Y-71484021D01*
X130975000Y-59020000D02*
X133820579Y-61865579D01*
D16*
%TO.N,+5V*%
X103035000Y-59020000D02*
X103035000Y-55615000D01*
X114750000Y-54760000D02*
X115910000Y-53600000D01*
X115910000Y-53600000D02*
X115910000Y-52250000D01*
D17*
%TO.N,/M1*%
X137820000Y-53840000D02*
X136230000Y-52250000D01*
X140510000Y-53840000D02*
X137820000Y-53840000D01*
X143675000Y-57005000D02*
X140510000Y-53840000D01*
X143675000Y-59020000D02*
X143675000Y-57005000D01*
%TO.N,/M2*%
X141135000Y-57145000D02*
X141135000Y-59020000D01*
X135679519Y-54239519D02*
X138229519Y-54239519D01*
X138229519Y-54239519D02*
X141135000Y-57145000D01*
X133690000Y-52250000D02*
X135679519Y-54239519D01*
%TO.N,/M3*%
X138595000Y-57125000D02*
X138595000Y-59020000D01*
X136109038Y-54639038D02*
X138595000Y-57125000D01*
X133539038Y-54639038D02*
X136109038Y-54639038D01*
%TO.N,/M4*%
X136055000Y-57015000D02*
X136055000Y-59020000D01*
X134078558Y-55038558D02*
X136055000Y-57015000D01*
X134078558Y-55038558D02*
X131398558Y-55038558D01*
%TO.N,/M3*%
X131150000Y-52250000D02*
X133539038Y-54639038D01*
%TO.N,/M4*%
X131398558Y-55038558D02*
X128610000Y-52250000D01*
%TO.N,/TX0*%
X108290000Y-71545000D02*
X108290000Y-67490000D01*
X103035000Y-76800000D02*
X108290000Y-71545000D01*
%TO.N,/M1*%
X136230000Y-49130000D02*
X136230000Y-52250000D01*
%TO.N,/M2*%
X133690000Y-49130000D02*
X133690000Y-52250000D01*
%TO.N,/M3*%
X131150000Y-49130000D02*
X131150000Y-52250000D01*
%TO.N,/M4*%
X128610000Y-49130000D02*
X128610000Y-52250000D01*
%TO.N,/M5*%
X126070000Y-49130000D02*
X126070000Y-52250000D01*
%TO.N,/M6*%
X123530000Y-49130000D02*
X123530000Y-52250000D01*
%TO.N,/M7*%
X120990000Y-49130000D02*
X120990000Y-52250000D01*
%TO.N,/M8*%
X118450000Y-49130000D02*
X118450000Y-52250000D01*
%TO.N,/IO8*%
X136230000Y-64370000D02*
X136230000Y-67490000D01*
%TO.N,/IO7*%
X133690000Y-64370000D02*
X133690000Y-67490000D01*
%TO.N,/IO6*%
X131150000Y-64370000D02*
X131150000Y-67490000D01*
%TO.N,/IO5*%
X128610000Y-64370000D02*
X128610000Y-67490000D01*
%TO.N,/IO4*%
X126070000Y-64370000D02*
X126070000Y-67490000D01*
%TO.N,/IO3*%
X123530000Y-64370000D02*
X123530000Y-67490000D01*
%TO.N,/IO2*%
X120990000Y-64370000D02*
X120990000Y-67490000D01*
%TO.N,/IO1*%
X118450000Y-64370000D02*
X118450000Y-67490000D01*
%TO.N,/RX0*%
X110830000Y-64370000D02*
X110830000Y-67490000D01*
%TO.N,/TX0*%
X108290000Y-64370000D02*
X108290000Y-67490000D01*
%TO.N,/M8*%
X122319139Y-63064139D02*
X118275000Y-59020000D01*
X143064139Y-63064139D02*
X122319139Y-63064139D01*
X148959038Y-73819038D02*
X147120000Y-71980000D01*
X147120000Y-67120000D02*
X143064139Y-63064139D01*
X155020480Y-76565492D02*
X152274026Y-73819038D01*
X155020481Y-80515481D02*
X155020480Y-76565492D01*
X152274026Y-73819038D02*
X148959038Y-73819038D01*
X157570000Y-83065000D02*
X155020481Y-80515481D01*
X147120000Y-71980000D02*
X147120000Y-67120000D01*
%TO.N,/M7*%
X126999619Y-62664619D02*
X123355000Y-59020000D01*
X143229625Y-62664619D02*
X126999619Y-62664619D01*
X147520000Y-66954994D02*
X143229625Y-62664619D01*
X147520000Y-71814994D02*
X147520000Y-66954994D01*
X149124525Y-73419519D02*
X147520000Y-71814994D01*
X152439514Y-73419520D02*
X149124525Y-73419519D01*
X155420000Y-76400006D02*
X152439514Y-73419520D01*
X157570000Y-80525000D02*
X155420000Y-78375000D01*
X155420000Y-78375000D02*
X155420000Y-76400006D01*
%TO.N,/M6*%
X143395111Y-62265099D02*
X129140099Y-62265099D01*
X147919520Y-71649508D02*
X147919520Y-66789508D01*
X129140099Y-62265099D02*
X125895000Y-59020000D01*
X149290012Y-73020000D02*
X147919520Y-71649508D01*
X152605000Y-73020000D02*
X149290012Y-73020000D01*
X157570000Y-77985000D02*
X152605000Y-73020000D01*
X147919520Y-66789508D02*
X143395111Y-62265099D01*
%TO.N,/M7*%
X123355000Y-54615000D02*
X123355000Y-59020000D01*
%TO.N,/IO12*%
X143370000Y-84630000D02*
X141740000Y-83000000D01*
X158090000Y-84630000D02*
X143370000Y-84630000D01*
X159320000Y-83400000D02*
X158090000Y-84630000D01*
X143675000Y-81065000D02*
X141740000Y-83000000D01*
X143675000Y-76800000D02*
X143675000Y-81065000D01*
%TO.N,/IO11*%
X141135000Y-81065000D02*
X139200000Y-83000000D01*
X141135000Y-76800000D02*
X141135000Y-81065000D01*
%TO.N,/IO10*%
X138595000Y-81065000D02*
X136660000Y-83000000D01*
X138595000Y-76800000D02*
X138595000Y-81065000D01*
%TO.N,/IO9*%
X136055000Y-81065000D02*
X134120000Y-83000000D01*
X136055000Y-76800000D02*
X136055000Y-81065000D01*
%TO.N,/IO8*%
X130975000Y-82395000D02*
X131580000Y-83000000D01*
X130975000Y-76800000D02*
X130975000Y-82395000D01*
%TO.N,/IO7*%
X128435000Y-82395000D02*
X129040000Y-83000000D01*
X128435000Y-76800000D02*
X128435000Y-82395000D01*
%TO.N,/IO6*%
X125895000Y-82395000D02*
X126500000Y-83000000D01*
X125895000Y-76800000D02*
X125895000Y-82395000D01*
%TO.N,/IO5*%
X123355000Y-82395000D02*
X123960000Y-83000000D01*
X123355000Y-76800000D02*
X123355000Y-82395000D01*
%TO.N,/IO4*%
X121420000Y-83000000D02*
X118275000Y-79855000D01*
X118275000Y-79855000D02*
X118275000Y-76800000D01*
%TO.N,/IO3*%
X115735000Y-79855000D02*
X118880000Y-83000000D01*
X115735000Y-76800000D02*
X115735000Y-79855000D01*
%TO.N,/IO2*%
X113195000Y-79855000D02*
X116340000Y-83000000D01*
X113195000Y-76800000D02*
X113195000Y-79855000D01*
%TO.N,/IO1*%
X110655000Y-79855000D02*
X113800000Y-83000000D01*
X110655000Y-76800000D02*
X110655000Y-79855000D01*
%TO.N,GND*%
X108115000Y-82990000D02*
X108105000Y-83000000D01*
X108115000Y-76800000D02*
X108115000Y-82990000D01*
%TO.N,/RX0*%
X105565000Y-76810000D02*
X105565000Y-83000000D01*
X105575000Y-76800000D02*
X105565000Y-76810000D01*
%TO.N,/TX0*%
X103035000Y-76800000D02*
X103025000Y-76810000D01*
X103025000Y-76810000D02*
X103025000Y-83000000D01*
%TO.N,/M5*%
X130975000Y-57155000D02*
X130975000Y-59020000D01*
X126070000Y-52250000D02*
X130975000Y-57155000D01*
%TO.N,/M6*%
X123530000Y-52250000D02*
X125895000Y-54615000D01*
X125895000Y-54615000D02*
X125895000Y-59020000D01*
%TO.N,/M7*%
X120990000Y-52250000D02*
X123355000Y-54615000D01*
%TO.N,/M8*%
X118450000Y-58845000D02*
X118275000Y-59020000D01*
X118450000Y-52250000D02*
X118450000Y-58845000D01*
%TO.N,/IO11*%
X143850000Y-67490000D02*
X143850000Y-74085000D01*
X143850000Y-74085000D02*
X141135000Y-76800000D01*
%TO.N,/IO10*%
X141310000Y-74085000D02*
X138595000Y-76800000D01*
X141310000Y-67490000D02*
X141310000Y-74085000D01*
%TO.N,/IO9*%
X138770000Y-74085000D02*
X136055000Y-76800000D01*
X138770000Y-67490000D02*
X138770000Y-74085000D01*
%TO.N,/IO8*%
X136230000Y-67490000D02*
X136230000Y-71545000D01*
X136230000Y-71545000D02*
X130975000Y-76800000D01*
%TO.N,/IO7*%
X133690000Y-71785978D02*
X128675978Y-76800000D01*
X133690000Y-67490000D02*
X133690000Y-71785978D01*
%TO.N,/IO6*%
X131150000Y-71545000D02*
X125895000Y-76800000D01*
X131150000Y-67490000D02*
X131150000Y-71545000D01*
%TO.N,/IO5*%
X128610000Y-71545000D02*
X123355000Y-76800000D01*
X128610000Y-67490000D02*
X128610000Y-71545000D01*
%TO.N,/IO4*%
X126070000Y-67490000D02*
X126070000Y-69005000D01*
X126070000Y-69005000D02*
X118275000Y-76800000D01*
%TO.N,/IO3*%
X123530000Y-69005000D02*
X115735000Y-76800000D01*
X123530000Y-67490000D02*
X123530000Y-69005000D01*
%TO.N,/IO2*%
X120990000Y-69005000D02*
X113195000Y-76800000D01*
X120990000Y-67490000D02*
X120990000Y-69005000D01*
%TO.N,/IO1*%
X118450000Y-69005000D02*
X110655000Y-76800000D01*
X118450000Y-67490000D02*
X118450000Y-69005000D01*
%TO.N,/RX0*%
X105575000Y-76800000D02*
X110830000Y-71545000D01*
X110830000Y-71545000D02*
X110830000Y-67490000D01*
%TD*%
M02*
