M48
; DRILL file {KiCad (6.0.5)} date Mon Jan  2 20:32:55 2023
; FORMAT={-:-/ absolute / inch / decimal}
; #@! TF.CreationDate,2023-01-02T20:32:55+00:00
; #@! TF.GenerationSoftware,Kicad,Pcbnew,(6.0.5)
; #@! TF.FileFunction,MixedPlating,1,2
FMAT,2
INCH
; #@! TA.AperFunction,Plated,PTH,ComponentDrill
T1C0.0394
; #@! TA.AperFunction,Plated,PTH,ComponentDrill
T2C0.0402
; #@! TA.AperFunction,NonPlated,NPTH,ComponentDrill
T3C0.0591
; #@! TA.AperFunction,NonPlated,NPTH,ComponentDrill
T4C0.0709
%
G90
G05
T1
X4.0559Y-3.2677
X4.1559Y-3.2677
X4.2559Y-3.2677
X4.2634Y-1.9343
X4.2634Y-2.0571
X4.2634Y-2.5343
X4.2634Y-2.6571
X4.3634Y-1.9343
X4.3634Y-2.0571
X4.3634Y-2.5343
X4.3634Y-2.6571
X4.4634Y-1.9343
X4.4634Y-2.0571
X4.4634Y-2.5343
X4.4634Y-2.6571
X4.4803Y-3.2677
X4.5634Y-1.9343
X4.5634Y-2.0571
X4.5634Y-2.5343
X4.5634Y-2.6571
X4.5803Y-3.2677
X4.6634Y-1.9343
X4.6634Y-2.0571
X4.6634Y-2.5343
X4.6634Y-2.6571
X4.6803Y-3.2677
X4.7634Y-1.9343
X4.7634Y-2.0571
X4.7634Y-2.5343
X4.7634Y-2.6571
X4.7803Y-3.2677
X4.8634Y-1.9343
X4.8634Y-2.0571
X4.8634Y-2.5343
X4.8634Y-2.6571
X4.8803Y-3.2677
X4.9634Y-1.9343
X4.9634Y-2.0571
X4.9634Y-2.5343
X4.9634Y-2.6571
X4.9803Y-3.2677
X5.0634Y-1.9343
X5.0634Y-2.0571
X5.0634Y-2.5343
X5.0634Y-2.6571
X5.0803Y-3.2677
X5.1634Y-1.9343
X5.1634Y-2.0571
X5.1634Y-2.5343
X5.1634Y-2.6571
X5.1803Y-3.2677
X5.2634Y-1.9343
X5.2634Y-2.0571
X5.2634Y-2.5343
X5.2634Y-2.6571
X5.2803Y-3.2677
X5.3634Y-1.9343
X5.3634Y-2.0571
X5.3634Y-2.5343
X5.3634Y-2.6571
X5.3803Y-3.2677
X5.4634Y-2.0571
X5.4634Y-2.6571
X5.4803Y-3.2677
X5.5634Y-2.0571
X5.5634Y-2.6571
X5.5803Y-3.2677
X5.6634Y-2.0571
X5.6634Y-2.6571
X6.2035Y-1.9429
X6.2035Y-2.0429
X6.2035Y-2.1429
X6.2035Y-2.5683
X6.2035Y-2.6683
X6.2035Y-2.7683
X6.2035Y-2.8683
X6.2035Y-2.9683
X6.2035Y-3.0683
X6.2035Y-3.1683
X6.2035Y-3.2683
T2
X4.0565Y-2.3236
X4.0565Y-3.0236
X4.1565Y-2.3236
X4.1565Y-3.0236
X4.2565Y-2.3236
X4.2565Y-3.0236
X4.3565Y-2.3236
X4.3565Y-3.0236
X4.4565Y-2.3236
X4.4565Y-3.0236
X4.5565Y-2.3236
X4.5565Y-3.0236
X4.6565Y-2.3236
X4.6565Y-3.0236
X4.7565Y-2.3236
X4.7565Y-3.0236
X4.8565Y-2.3236
X4.8565Y-3.0236
X4.9565Y-2.3236
X4.9565Y-3.0236
X5.0565Y-2.3236
X5.0565Y-3.0236
X5.1565Y-2.3236
X5.1565Y-3.0236
X5.2565Y-2.3236
X5.2565Y-3.0236
X5.3565Y-2.3236
X5.3565Y-3.0236
X5.4565Y-2.3236
X5.4565Y-3.0236
X5.5565Y-2.3236
X5.5565Y-3.0236
X5.6565Y-2.3236
X5.6565Y-3.0236
X5.7565Y-2.3236
X5.7565Y-3.0236
X5.8565Y-2.3236
X5.8565Y-3.0236
X5.9474Y-2.5736
X5.9474Y-2.6736
X5.9474Y-2.7736
X5.9565Y-2.3236
X5.9565Y-3.0236
T3
X4.1809Y-2.5781
X4.1809Y-2.7691
T4
X4.0616Y-2.5663
X4.0616Y-2.7809
T0
M30
