%TF.GenerationSoftware,KiCad,Pcbnew,8.0.7*%
%TF.CreationDate,2025-05-07T21:37:47+01:00*%
%TF.ProjectId,ArduinoProMiniUSBHostProto,41726475-696e-46f5-9072-6f4d696e6955,rev?*%
%TF.SameCoordinates,Original*%
%TF.FileFunction,Copper,L1,Top*%
%TF.FilePolarity,Positive*%
%FSLAX46Y46*%
G04 Gerber Fmt 4.6, Leading zero omitted, Abs format (unit mm)*
G04 Created by KiCad (PCBNEW 8.0.7) date 2025-05-07 21:37:47*
%MOMM*%
%LPD*%
G01*
G04 APERTURE LIST*
G04 Aperture macros list*
%AMRoundRect*
0 Rectangle with rounded corners*
0 $1 Rounding radius*
0 $2 $3 $4 $5 $6 $7 $8 $9 X,Y pos of 4 corners*
0 Add a 4 corners polygon primitive as box body*
4,1,4,$2,$3,$4,$5,$6,$7,$8,$9,$2,$3,0*
0 Add four circle primitives for the rounded corners*
1,1,$1+$1,$2,$3*
1,1,$1+$1,$4,$5*
1,1,$1+$1,$6,$7*
1,1,$1+$1,$8,$9*
0 Add four rect primitives between the rounded corners*
20,1,$1+$1,$2,$3,$4,$5,0*
20,1,$1+$1,$4,$5,$6,$7,0*
20,1,$1+$1,$6,$7,$8,$9,0*
20,1,$1+$1,$8,$9,$2,$3,0*%
G04 Aperture macros list end*
%TA.AperFunction,ComponentPad*%
%ADD10O,1.700000X1.700000*%
%TD*%
%TA.AperFunction,ComponentPad*%
%ADD11R,1.600000X1.600000*%
%TD*%
%TA.AperFunction,ComponentPad*%
%ADD12O,1.600000X1.600000*%
%TD*%
%TA.AperFunction,ComponentPad*%
%ADD13R,1.700000X1.700000*%
%TD*%
%TA.AperFunction,ComponentPad*%
%ADD14R,2.000000X1.905000*%
%TD*%
%TA.AperFunction,ComponentPad*%
%ADD15O,2.000000X1.905000*%
%TD*%
%TA.AperFunction,ComponentPad*%
%ADD16C,1.600000*%
%TD*%
%TA.AperFunction,ComponentPad*%
%ADD17R,3.500000X3.500000*%
%TD*%
%TA.AperFunction,ComponentPad*%
%ADD18RoundRect,0.750000X-1.000000X0.750000X-1.000000X-0.750000X1.000000X-0.750000X1.000000X0.750000X0*%
%TD*%
%TA.AperFunction,ComponentPad*%
%ADD19RoundRect,0.875000X-0.875000X0.875000X-0.875000X-0.875000X0.875000X-0.875000X0.875000X0.875000X0*%
%TD*%
%TA.AperFunction,Conductor*%
%ADD20C,0.800000*%
%TD*%
%TA.AperFunction,Conductor*%
%ADD21C,0.250000*%
%TD*%
%TA.AperFunction,Conductor*%
%ADD22C,0.400000*%
%TD*%
%TA.AperFunction,Conductor*%
%ADD23C,0.600000*%
%TD*%
G04 APERTURE END LIST*
D10*
%TO.P,,1,Pin_12*%
%TO.N,N/C*%
X121120000Y-77940000D03*
%TD*%
%TO.P,,1,Pin_12*%
%TO.N,N/C*%
X110960000Y-55080000D03*
%TD*%
%TO.P,,1,Pin_12*%
%TO.N,N/C*%
X105880000Y-80480000D03*
%TD*%
%TO.P,,1,Pin_12*%
%TO.N,N/C*%
X108420000Y-60160000D03*
%TD*%
%TO.P,,1,Pin_12*%
%TO.N,N/C*%
X103340000Y-60160000D03*
%TD*%
%TO.P,,1,Pin_12*%
%TO.N,N/C*%
X108420000Y-55080000D03*
%TD*%
%TO.P,,1,Pin_12*%
%TO.N,N/C*%
X118580000Y-72860000D03*
%TD*%
%TO.P,,1,Pin_12*%
%TO.N,N/C*%
X121120000Y-57620000D03*
%TD*%
%TO.P,,1,Pin_12*%
%TO.N,N/C*%
X123660000Y-55080000D03*
%TD*%
%TO.P,,1,Pin_12*%
%TO.N,N/C*%
X116040000Y-60160000D03*
%TD*%
%TO.P,,1,Pin_12*%
%TO.N,N/C*%
X108420000Y-77940000D03*
%TD*%
%TO.P,,1,Pin_12*%
%TO.N,N/C*%
X123660000Y-80480000D03*
%TD*%
%TO.P,,1,Pin_12*%
%TO.N,N/C*%
X118580000Y-67780000D03*
%TD*%
%TO.P,,1,Pin_12*%
%TO.N,N/C*%
X121120000Y-62700000D03*
%TD*%
%TO.P,,1,Pin_12*%
%TO.N,N/C*%
X126200000Y-70320000D03*
%TD*%
%TO.P,,1,Pin_12*%
%TO.N,N/C*%
X121120000Y-72860000D03*
%TD*%
%TO.P,,1,Pin_12*%
%TO.N,N/C*%
X118580000Y-57620000D03*
%TD*%
%TO.P,,1,Pin_12*%
%TO.N,N/C*%
X98260000Y-55080000D03*
%TD*%
D11*
%TO.P,U1,1,D1/TX*%
%TO.N,Net-(J4-Pin_1)*%
X88100000Y-80480000D03*
D12*
%TO.P,U1,2,D0/RX*%
%TO.N,Net-(J4-Pin_2)*%
X88100000Y-77940000D03*
%TO.P,U1,3,RST*%
%TO.N,/MAX_RST*%
X88100000Y-75400000D03*
%TO.P,U1,4,GND*%
%TO.N,GND*%
X88100000Y-72860000D03*
%TO.P,U1,5,D2*%
%TO.N,Net-(J4-Pin_5)*%
X88100000Y-70320000D03*
%TO.P,U1,6,~D3*%
%TO.N,Net-(J4-Pin_6)*%
X88100000Y-67780000D03*
%TO.P,U1,7,D4*%
%TO.N,Net-(J4-Pin_7)*%
X88100000Y-65240000D03*
%TO.P,U1,8,~D5*%
%TO.N,Net-(J4-Pin_8)*%
X88100000Y-62700000D03*
%TO.P,U1,9,~D6*%
%TO.N,Net-(J4-Pin_9)*%
X88100000Y-60160000D03*
%TO.P,U1,10,D7*%
%TO.N,Net-(J4-Pin_10)*%
X88100000Y-57620000D03*
%TO.P,U1,11,D8*%
%TO.N,Net-(J4-Pin_11)*%
X88100000Y-55080000D03*
%TO.P,U1,12,~D9*%
%TO.N,/INT*%
X88100000Y-52540000D03*
%TO.P,U1,13,~D10*%
%TO.N,/SPI_SS*%
X72860000Y-52540000D03*
%TO.P,U1,14,~D11*%
%TO.N,/SPI_MOSI*%
X72860000Y-55080000D03*
%TO.P,U1,15,D12*%
%TO.N,/SPI_MISO*%
X72860000Y-57620000D03*
%TO.P,U1,16,D13*%
%TO.N,/SPI_CLK*%
X72860000Y-60160000D03*
%TO.P,U1,17,D14/A0*%
%TO.N,Net-(J5-Pin_8)*%
X72860000Y-62700000D03*
%TO.P,U1,18,D15/A1*%
%TO.N,Net-(J5-Pin_7)*%
X72860000Y-65240000D03*
%TO.P,U1,19,D16/A2*%
%TO.N,Net-(J5-Pin_6)*%
X72860000Y-67780000D03*
%TO.P,U1,20,D17/A3*%
%TO.N,Net-(J5-Pin_5)*%
X72860000Y-70320000D03*
%TO.P,U1,21,VCC*%
%TO.N,+3V3*%
X72860000Y-72860000D03*
%TO.P,U1,22,RST*%
%TO.N,Net-(J5-Pin_3)*%
X72860000Y-75400000D03*
%TO.P,U1,23,GND*%
%TO.N,GND*%
X72860000Y-77940000D03*
%TO.P,U1,24,RAW*%
%TO.N,+5V*%
X72860000Y-80480000D03*
%TO.P,U1,A4,A4*%
%TO.N,unconnected-(U1-PadA4)*%
X75400000Y-69050000D03*
%TO.P,U1,A5,A5*%
%TO.N,unconnected-(U1-PadA5)*%
X75400000Y-71590000D03*
%TO.P,U1,A6,A6*%
%TO.N,unconnected-(U1-PadA6)*%
X75400000Y-52540000D03*
%TO.P,U1,A7,A7*%
%TO.N,unconnected-(U1-PadA7)*%
X77940000Y-52540000D03*
%TO.P,U1,G,GND*%
%TO.N,GND*%
X80480000Y-52540000D03*
%TO.P,U1,H1,DTR*%
%TO.N,unconnected-(U1-DTR-PadH1)*%
X86830000Y-83020000D03*
%TO.P,U1,H2,TX*%
%TO.N,unconnected-(U1-TX-PadH2)*%
X84290000Y-83020000D03*
%TO.P,U1,H3,RX*%
%TO.N,unconnected-(U1-RX-PadH3)*%
X81750000Y-83020000D03*
%TO.P,U1,H4,VCC*%
%TO.N,unconnected-(U1-VCC-PadH4)*%
X79210000Y-83020000D03*
%TO.P,U1,H5,GND*%
%TO.N,GND*%
X76670000Y-83020000D03*
%TO.P,U1,H6,GND*%
X74130000Y-83020000D03*
%TD*%
D10*
%TO.P,,1,Pin_12*%
%TO.N,N/C*%
X116040000Y-70320000D03*
%TD*%
%TO.P,,1,Pin_12*%
%TO.N,N/C*%
X126200000Y-57620000D03*
%TD*%
%TO.P,,1,Pin_12*%
%TO.N,N/C*%
X105880000Y-67780000D03*
%TD*%
%TO.P,,1,Pin_12*%
%TO.N,N/C*%
X128740000Y-57620000D03*
%TD*%
%TO.P,,1,Pin_12*%
%TO.N,N/C*%
X103340000Y-55080000D03*
%TD*%
%TO.P,,1,Pin_12*%
%TO.N,N/C*%
X118580000Y-77940000D03*
%TD*%
%TO.P,,1,Pin_12*%
%TO.N,N/C*%
X110960000Y-57620000D03*
%TD*%
%TO.P,,1,Pin_12*%
%TO.N,N/C*%
X116040000Y-72860000D03*
%TD*%
%TO.P,,1,Pin_12*%
%TO.N,N/C*%
X116040000Y-67780000D03*
%TD*%
%TO.P,,1,Pin_12*%
%TO.N,N/C*%
X100800000Y-67780000D03*
%TD*%
%TO.P,,1,Pin_12*%
%TO.N,N/C*%
X100800000Y-70320000D03*
%TD*%
%TO.P,J10,1,Pin_1*%
%TO.N,GND*%
X98260000Y-83020000D03*
%TO.P,J10,2,Pin_2*%
X100800000Y-83020000D03*
%TO.P,J10,3,Pin_3*%
X103340000Y-83020000D03*
%TO.P,J10,4,Pin_4*%
X105880000Y-83020000D03*
%TO.P,J10,5,Pin_5*%
X108420000Y-83020000D03*
%TO.P,J10,6,Pin_6*%
X110960000Y-83020000D03*
%TD*%
%TO.P,,1,Pin_12*%
%TO.N,N/C*%
X98260000Y-60160000D03*
%TD*%
%TO.P,,1,Pin_12*%
%TO.N,N/C*%
X126200000Y-75400000D03*
%TD*%
%TO.P,,1,Pin_12*%
%TO.N,N/C*%
X110960000Y-75400000D03*
%TD*%
%TO.P,,1,Pin_12*%
%TO.N,N/C*%
X98260000Y-67780000D03*
%TD*%
%TO.P,,1,Pin_12*%
%TO.N,N/C*%
X126200000Y-55080000D03*
%TD*%
%TO.P,,1,Pin_12*%
%TO.N,N/C*%
X98260000Y-65240000D03*
%TD*%
%TO.P,,1,Pin_12*%
%TO.N,N/C*%
X100800000Y-57620000D03*
%TD*%
%TO.P,,1,Pin_12*%
%TO.N,N/C*%
X110960000Y-67780000D03*
%TD*%
%TO.P,,1,Pin_12*%
%TO.N,N/C*%
X100800000Y-62700000D03*
%TD*%
%TO.P,,1,Pin_12*%
%TO.N,N/C*%
X116040000Y-80480000D03*
%TD*%
%TO.P,,1,Pin_12*%
%TO.N,N/C*%
X108420000Y-57620000D03*
%TD*%
%TO.P,,1,Pin_12*%
%TO.N,N/C*%
X100800000Y-75400000D03*
%TD*%
%TO.P,,1,Pin_12*%
%TO.N,N/C*%
X126200000Y-77940000D03*
%TD*%
%TO.P,,1,Pin_12*%
%TO.N,N/C*%
X103340000Y-57620000D03*
%TD*%
%TO.P,,1,Pin_12*%
%TO.N,N/C*%
X98260000Y-72860000D03*
%TD*%
%TO.P,,1,Pin_12*%
%TO.N,N/C*%
X128740000Y-77940000D03*
%TD*%
%TO.P,,1,Pin_12*%
%TO.N,N/C*%
X113500000Y-70320000D03*
%TD*%
%TO.P,,1,Pin_12*%
%TO.N,N/C*%
X108420000Y-62700000D03*
%TD*%
%TO.P,,1,Pin_12*%
%TO.N,N/C*%
X123660000Y-67780000D03*
%TD*%
%TO.P,,1,Pin_12*%
%TO.N,N/C*%
X116040000Y-65240000D03*
%TD*%
%TO.P,,1,Pin_12*%
%TO.N,N/C*%
X113500000Y-57620000D03*
%TD*%
%TO.P,,1,Pin_12*%
%TO.N,N/C*%
X121120000Y-60160000D03*
%TD*%
%TO.P,,1,Pin_12*%
%TO.N,N/C*%
X103340000Y-77940000D03*
%TD*%
%TO.P,,1,Pin_12*%
%TO.N,N/C*%
X110960000Y-65240000D03*
%TD*%
D13*
%TO.P,J2,1,Pin_1*%
%TO.N,/INT*%
X67780000Y-52540000D03*
D10*
%TO.P,J2,2,Pin_2*%
%TO.N,unconnected-(J2-Pin_2-Pad2)*%
X67780000Y-55080000D03*
%TO.P,J2,3,Pin_3*%
%TO.N,unconnected-(J2-Pin_3-Pad3)*%
X67780000Y-57620000D03*
%TO.P,J2,4,Pin_4*%
%TO.N,unconnected-(J2-Pin_4-Pad4)*%
X67780000Y-60160000D03*
%TO.P,J2,5,Pin_5*%
%TO.N,unconnected-(J2-Pin_5-Pad5)*%
X67780000Y-62700000D03*
%TO.P,J2,6,Pin_6*%
%TO.N,unconnected-(J2-Pin_6-Pad6)*%
X67780000Y-65240000D03*
%TO.P,J2,7,Pin_7*%
%TO.N,unconnected-(J2-Pin_7-Pad7)*%
X67780000Y-67780000D03*
%TO.P,J2,8,Pin_8*%
%TO.N,unconnected-(J2-Pin_8-Pad8)*%
X67780000Y-70320000D03*
%TO.P,J2,9,Pin_9*%
%TO.N,GND*%
X67780000Y-72860000D03*
%TO.P,J2,10,Pin_10*%
%TO.N,/MAX_RST*%
X67780000Y-75400000D03*
%TO.P,J2,11,Pin_11*%
%TO.N,unconnected-(J2-Pin_11-Pad11)*%
X67780000Y-77940000D03*
%TO.P,J2,12,Pin_12*%
%TO.N,unconnected-(J2-Pin_12-Pad12)*%
X67780000Y-80480000D03*
%TD*%
%TO.P,,1,Pin_12*%
%TO.N,N/C*%
X113500000Y-80480000D03*
%TD*%
%TO.P,,1,Pin_12*%
%TO.N,N/C*%
X123660000Y-60160000D03*
%TD*%
%TO.P,,1,Pin_12*%
%TO.N,N/C*%
X103340000Y-72860000D03*
%TD*%
%TO.P,,1,Pin_12*%
%TO.N,N/C*%
X100800000Y-65240000D03*
%TD*%
D14*
%TO.P,U2,1,IN*%
%TO.N,VCC*%
X39800000Y-82200000D03*
D15*
%TO.P,U2,2,GND*%
%TO.N,GND*%
X39800000Y-79660000D03*
%TO.P,U2,3,OUT*%
%TO.N,+5V*%
X39800000Y-77120000D03*
%TD*%
D10*
%TO.P,,1,Pin_12*%
%TO.N,N/C*%
X108420000Y-65240000D03*
%TD*%
%TO.P,,1,Pin_12*%
%TO.N,N/C*%
X128740000Y-65240000D03*
%TD*%
%TO.P,,1,Pin_12*%
%TO.N,N/C*%
X123660000Y-75400000D03*
%TD*%
%TO.P,,1,Pin_12*%
%TO.N,N/C*%
X121120000Y-70320000D03*
%TD*%
%TO.P,,1,Pin_12*%
%TO.N,N/C*%
X100800000Y-72860000D03*
%TD*%
D13*
%TO.P,J12,1,Pin_1*%
%TO.N,+5V*%
X61430000Y-83020000D03*
D10*
%TO.P,J12,2,Pin_2*%
%TO.N,GND*%
X58890000Y-83020000D03*
%TD*%
%TO.P,,1,Pin_12*%
%TO.N,N/C*%
X116040000Y-77940000D03*
%TD*%
%TO.P,,1,Pin_12*%
%TO.N,N/C*%
X103340000Y-75400000D03*
%TD*%
%TO.P,,1,Pin_12*%
%TO.N,N/C*%
X123660000Y-57620000D03*
%TD*%
%TO.P,,1,Pin_12*%
%TO.N,N/C*%
X113500000Y-55080000D03*
%TD*%
%TO.P,,1,Pin_12*%
%TO.N,N/C*%
X126200000Y-80480000D03*
%TD*%
%TO.P,,1,Pin_12*%
%TO.N,N/C*%
X105880000Y-77940000D03*
%TD*%
%TO.P,,1,Pin_12*%
%TO.N,N/C*%
X126200000Y-62700000D03*
%TD*%
D16*
%TO.P,C3,1*%
%TO.N,+5V*%
X43500000Y-81000000D03*
%TO.P,C3,2*%
%TO.N,GND*%
X48500000Y-81000000D03*
%TD*%
D13*
%TO.P,J3,1,Pin_1*%
%TO.N,+5V*%
X65240000Y-52280000D03*
%TD*%
D10*
%TO.P,,1,Pin_12*%
%TO.N,N/C*%
X108420000Y-72860000D03*
%TD*%
%TO.P,,1,Pin_12*%
%TO.N,N/C*%
X113500000Y-75400000D03*
%TD*%
%TO.P,,1,Pin_12*%
%TO.N,N/C*%
X103340000Y-65240000D03*
%TD*%
D17*
%TO.P,J8,1*%
%TO.N,Net-(SW1-A)*%
X42990000Y-60920000D03*
D18*
%TO.P,J8,2*%
%TO.N,GND*%
X42990000Y-54920000D03*
D19*
%TO.P,J8,3*%
%TO.N,unconnected-(J8-Pad3)*%
X38290000Y-57920000D03*
%TD*%
D10*
%TO.P,,1,Pin_12*%
%TO.N,N/C*%
X110960000Y-77940000D03*
%TD*%
%TO.P,J5,1,Pin_1*%
%TO.N,+5V*%
X93180000Y-80480000D03*
%TO.P,J5,2,Pin_2*%
%TO.N,GND*%
X93180000Y-77940000D03*
%TO.P,J5,3,Pin_3*%
%TO.N,Net-(J5-Pin_3)*%
X93180000Y-75400000D03*
%TO.P,J5,4,Pin_4*%
%TO.N,+3V3*%
X93180000Y-72860000D03*
%TO.P,J5,5,Pin_5*%
%TO.N,Net-(J5-Pin_5)*%
X93180000Y-70320000D03*
%TO.P,J5,6,Pin_6*%
%TO.N,Net-(J5-Pin_6)*%
X93180000Y-67780000D03*
%TO.P,J5,7,Pin_7*%
%TO.N,Net-(J5-Pin_7)*%
X93180000Y-65240000D03*
%TO.P,J5,8,Pin_8*%
%TO.N,Net-(J5-Pin_8)*%
X93180000Y-62700000D03*
%TO.P,J5,9,Pin_9*%
%TO.N,/SPI_CLK*%
X93180000Y-60160000D03*
%TO.P,J5,10,Pin_10*%
%TO.N,/SPI_MISO*%
X93180000Y-57620000D03*
%TO.P,J5,11,Pin_11*%
%TO.N,/SPI_MOSI*%
X93180000Y-55080000D03*
%TO.P,J5,12,Pin_12*%
%TO.N,/SPI_SS*%
X93180000Y-52540000D03*
%TD*%
%TO.P,,1,Pin_12*%
%TO.N,N/C*%
X110960000Y-62700000D03*
%TD*%
%TO.P,,1,Pin_12*%
%TO.N,N/C*%
X98260000Y-80480000D03*
%TD*%
%TO.P,,1,Pin_12*%
%TO.N,N/C*%
X128740000Y-72860000D03*
%TD*%
%TO.P,,1,Pin_12*%
%TO.N,N/C*%
X108420000Y-70320000D03*
%TD*%
D13*
%TO.P,SW1,1,A*%
%TO.N,Net-(SW1-A)*%
X38390000Y-64690000D03*
D10*
%TO.P,SW1,2,B*%
%TO.N,VCC*%
X38390000Y-67230000D03*
%TO.P,SW1,3*%
%TO.N,N/C*%
X38390000Y-69770000D03*
%TD*%
D13*
%TO.P,J1,1,Pin_1*%
%TO.N,/SPI_SS*%
X52540000Y-52540000D03*
D10*
%TO.P,J1,2,Pin_2*%
%TO.N,/SPI_MOSI*%
X52540000Y-55080000D03*
%TO.P,J1,3,Pin_3*%
%TO.N,/SPI_MISO*%
X52540000Y-57620000D03*
%TO.P,J1,4,Pin_4*%
%TO.N,/SPI_CLK*%
X52540000Y-60160000D03*
%TO.P,J1,5,Pin_5*%
%TO.N,unconnected-(J1-Pin_5-Pad5)*%
X52540000Y-62700000D03*
%TO.P,J1,6,Pin_6*%
%TO.N,unconnected-(J1-Pin_6-Pad6)*%
X52540000Y-65240000D03*
%TO.P,J1,7,Pin_7*%
%TO.N,unconnected-(J1-Pin_7-Pad7)*%
X52540000Y-67780000D03*
%TO.P,J1,8,Pin_8*%
%TO.N,unconnected-(J1-Pin_8-Pad8)*%
X52540000Y-70320000D03*
%TO.P,J1,9,Pin_9*%
%TO.N,+3V3*%
X52540000Y-72860000D03*
%TO.P,J1,10,Pin_10*%
%TO.N,unconnected-(J1-Pin_10-Pad10)*%
X52540000Y-75400000D03*
%TO.P,J1,11,Pin_11*%
%TO.N,GND*%
X52540000Y-77940000D03*
%TO.P,J1,12,Pin_12*%
%TO.N,unconnected-(J1-Pin_12-Pad12)*%
X52540000Y-80480000D03*
%TD*%
%TO.P,,1,Pin_12*%
%TO.N,N/C*%
X128740000Y-70320000D03*
%TD*%
%TO.P,,1,Pin_12*%
%TO.N,N/C*%
X123660000Y-62700000D03*
%TD*%
%TO.P,,1,Pin_12*%
%TO.N,N/C*%
X128740000Y-62700000D03*
%TD*%
%TO.P,,1,Pin_12*%
%TO.N,N/C*%
X103340000Y-80480000D03*
%TD*%
%TO.P,,1,Pin_12*%
%TO.N,N/C*%
X100800000Y-60160000D03*
%TD*%
D11*
%TO.P,C1,1*%
%TO.N,VCC*%
X44000000Y-67500000D03*
D16*
%TO.P,C1,2*%
%TO.N,GND*%
X47500000Y-67500000D03*
%TD*%
D10*
%TO.P,,1,Pin_12*%
%TO.N,N/C*%
X118580000Y-75400000D03*
%TD*%
%TO.P,,1,Pin_12*%
%TO.N,N/C*%
X123660000Y-70320000D03*
%TD*%
%TO.P,,1,Pin_12*%
%TO.N,N/C*%
X110960000Y-80480000D03*
%TD*%
%TO.P,,1,Pin_12*%
%TO.N,N/C*%
X105880000Y-72860000D03*
%TD*%
%TO.P,,1,Pin_12*%
%TO.N,N/C*%
X113500000Y-60160000D03*
%TD*%
%TO.P,,1,Pin_12*%
%TO.N,N/C*%
X116040000Y-57620000D03*
%TD*%
%TO.P,,1,Pin_12*%
%TO.N,N/C*%
X108420000Y-75400000D03*
%TD*%
%TO.P,J6,1,Pin_1*%
%TO.N,+5V*%
X98260000Y-52540000D03*
%TO.P,J6,2,Pin_2*%
X100800000Y-52540000D03*
%TO.P,J6,3,Pin_3*%
X103340000Y-52540000D03*
%TO.P,J6,4,Pin_4*%
X105880000Y-52540000D03*
%TO.P,J6,5,Pin_5*%
X108420000Y-52540000D03*
%TO.P,J6,6,Pin_6*%
X110960000Y-52540000D03*
%TD*%
%TO.P,,1,Pin_12*%
%TO.N,N/C*%
X118580000Y-55080000D03*
%TD*%
%TO.P,,1,Pin_12*%
%TO.N,N/C*%
X105880000Y-62700000D03*
%TD*%
%TO.P,,1,Pin_12*%
%TO.N,N/C*%
X126200000Y-60160000D03*
%TD*%
%TO.P,,1,Pin_12*%
%TO.N,N/C*%
X98260000Y-75400000D03*
%TD*%
%TO.P,,1,Pin_12*%
%TO.N,N/C*%
X98260000Y-70320000D03*
%TD*%
%TO.P,,1,Pin_12*%
%TO.N,N/C*%
X98260000Y-77940000D03*
%TD*%
%TO.P,,1,Pin_12*%
%TO.N,N/C*%
X118580000Y-62700000D03*
%TD*%
%TO.P,,1,Pin_12*%
%TO.N,N/C*%
X126200000Y-72860000D03*
%TD*%
%TO.P,,1,Pin_12*%
%TO.N,N/C*%
X105880000Y-75400000D03*
%TD*%
%TO.P,,1,Pin_12*%
%TO.N,N/C*%
X105880000Y-65240000D03*
%TD*%
%TO.P,,1,Pin_12*%
%TO.N,N/C*%
X123660000Y-72860000D03*
%TD*%
%TO.P,,1,Pin_12*%
%TO.N,N/C*%
X128740000Y-55080000D03*
%TD*%
%TO.P,,1,Pin_12*%
%TO.N,N/C*%
X128740000Y-67780000D03*
%TD*%
%TO.P,,1,Pin_12*%
%TO.N,N/C*%
X123660000Y-77940000D03*
%TD*%
D11*
%TO.P,C2,1*%
%TO.N,+5V*%
X44500000Y-76020000D03*
D16*
%TO.P,C2,2*%
%TO.N,GND*%
X47000000Y-76020000D03*
%TD*%
D10*
%TO.P,,1,Pin_12*%
%TO.N,N/C*%
X121120000Y-80480000D03*
%TD*%
%TO.P,,1,Pin_12*%
%TO.N,N/C*%
X128740000Y-80480000D03*
%TD*%
%TO.P,,1,Pin_12*%
%TO.N,N/C*%
X108420000Y-80480000D03*
%TD*%
%TO.P,,1,Pin_12*%
%TO.N,N/C*%
X110960000Y-60160000D03*
%TD*%
%TO.P,,1,Pin_12*%
%TO.N,N/C*%
X105880000Y-57620000D03*
%TD*%
%TO.P,,1,Pin_12*%
%TO.N,N/C*%
X121120000Y-67780000D03*
%TD*%
%TO.P,,1,Pin_12*%
%TO.N,N/C*%
X118580000Y-80480000D03*
%TD*%
%TO.P,,1,Pin_12*%
%TO.N,N/C*%
X100800000Y-80480000D03*
%TD*%
%TO.P,,1,Pin_12*%
%TO.N,N/C*%
X123660000Y-65240000D03*
%TD*%
%TO.P,J11,1,Pin_1*%
%TO.N,GND*%
X116040000Y-83020000D03*
%TO.P,J11,2,Pin_2*%
X118580000Y-83020000D03*
%TO.P,J11,3,Pin_3*%
X121120000Y-83020000D03*
%TO.P,J11,4,Pin_4*%
X123660000Y-83020000D03*
%TO.P,J11,5,Pin_5*%
X126200000Y-83020000D03*
%TO.P,J11,6,Pin_6*%
X128740000Y-83020000D03*
%TD*%
%TO.P,,1,Pin_12*%
%TO.N,N/C*%
X98260000Y-57620000D03*
%TD*%
%TO.P,,1,Pin_12*%
%TO.N,N/C*%
X113500000Y-67780000D03*
%TD*%
%TO.P,,1,Pin_12*%
%TO.N,N/C*%
X100800000Y-77940000D03*
%TD*%
%TO.P,,1,Pin_12*%
%TO.N,N/C*%
X108420000Y-67780000D03*
%TD*%
%TO.P,,1,Pin_12*%
%TO.N,N/C*%
X103340000Y-70320000D03*
%TD*%
%TO.P,,1,Pin_12*%
%TO.N,N/C*%
X110960000Y-70320000D03*
%TD*%
%TO.P,,1,Pin_12*%
%TO.N,N/C*%
X116040000Y-62700000D03*
%TD*%
%TO.P,,1,Pin_12*%
%TO.N,N/C*%
X116040000Y-75400000D03*
%TD*%
%TO.P,J4,1,Pin_1*%
%TO.N,Net-(J4-Pin_1)*%
X133820000Y-80480000D03*
%TO.P,J4,2,Pin_2*%
%TO.N,Net-(J4-Pin_2)*%
X133820000Y-77940000D03*
%TO.P,J4,3,Pin_3*%
%TO.N,/MAX_RST*%
X133820000Y-75400000D03*
%TO.P,J4,4,Pin_4*%
%TO.N,GND*%
X133820000Y-72860000D03*
%TO.P,J4,5,Pin_5*%
%TO.N,Net-(J4-Pin_5)*%
X133820000Y-70320000D03*
%TO.P,J4,6,Pin_6*%
%TO.N,Net-(J4-Pin_6)*%
X133820000Y-67780000D03*
%TO.P,J4,7,Pin_7*%
%TO.N,Net-(J4-Pin_7)*%
X133820000Y-65240000D03*
%TO.P,J4,8,Pin_8*%
%TO.N,Net-(J4-Pin_8)*%
X133820000Y-62700000D03*
%TO.P,J4,9,Pin_9*%
%TO.N,Net-(J4-Pin_9)*%
X133820000Y-60160000D03*
%TO.P,J4,10,Pin_10*%
%TO.N,Net-(J4-Pin_10)*%
X133820000Y-57620000D03*
%TO.P,J4,11,Pin_11*%
%TO.N,Net-(J4-Pin_11)*%
X133820000Y-55080000D03*
%TO.P,J4,12,Pin_12*%
%TO.N,/INT*%
X133820000Y-52540000D03*
%TD*%
%TO.P,,1,Pin_12*%
%TO.N,N/C*%
X103340000Y-67780000D03*
%TD*%
%TO.P,,1,Pin_12*%
%TO.N,N/C*%
X121120000Y-55080000D03*
%TD*%
%TO.P,,1,Pin_12*%
%TO.N,N/C*%
X105880000Y-55080000D03*
%TD*%
%TO.P,,1,Pin_12*%
%TO.N,N/C*%
X100800000Y-55080000D03*
%TD*%
%TO.P,J7,1,Pin_1*%
%TO.N,+3V3*%
X116040000Y-52540000D03*
%TO.P,J7,2,Pin_2*%
X118580000Y-52540000D03*
%TO.P,J7,3,Pin_3*%
X121120000Y-52540000D03*
%TO.P,J7,4,Pin_4*%
X123660000Y-52540000D03*
%TO.P,J7,5,Pin_5*%
X126200000Y-52540000D03*
%TO.P,J7,6,Pin_6*%
X128740000Y-52540000D03*
%TD*%
%TO.P,,1,Pin_12*%
%TO.N,N/C*%
X113500000Y-77940000D03*
%TD*%
%TO.P,,1,Pin_12*%
%TO.N,N/C*%
X113500000Y-72860000D03*
%TD*%
%TO.P,,1,Pin_12*%
%TO.N,N/C*%
X103340000Y-62700000D03*
%TD*%
%TO.P,,1,Pin_12*%
%TO.N,N/C*%
X128740000Y-60160000D03*
%TD*%
%TO.P,,1,Pin_12*%
%TO.N,N/C*%
X126200000Y-67780000D03*
%TD*%
%TO.P,,1,Pin_12*%
%TO.N,N/C*%
X116040000Y-55080000D03*
%TD*%
%TO.P,,1,Pin_12*%
%TO.N,N/C*%
X98260000Y-62700000D03*
%TD*%
%TO.P,,1,Pin_12*%
%TO.N,N/C*%
X105880000Y-60160000D03*
%TD*%
%TO.P,,1,Pin_12*%
%TO.N,N/C*%
X118580000Y-70320000D03*
%TD*%
%TO.P,,1,Pin_12*%
%TO.N,N/C*%
X121120000Y-75400000D03*
%TD*%
%TO.P,,1,Pin_12*%
%TO.N,N/C*%
X121120000Y-65240000D03*
%TD*%
%TO.P,,1,Pin_12*%
%TO.N,N/C*%
X105880000Y-70320000D03*
%TD*%
%TO.P,,1,Pin_12*%
%TO.N,N/C*%
X128740000Y-75400000D03*
%TD*%
%TO.P,,1,Pin_12*%
%TO.N,N/C*%
X110960000Y-72860000D03*
%TD*%
%TO.P,,1,Pin_12*%
%TO.N,N/C*%
X118580000Y-60160000D03*
%TD*%
%TO.P,,1,Pin_12*%
%TO.N,N/C*%
X118580000Y-65240000D03*
%TD*%
%TO.P,,1,Pin_12*%
%TO.N,N/C*%
X126200000Y-65240000D03*
%TD*%
%TO.P,,1,Pin_12*%
%TO.N,N/C*%
X113500000Y-62700000D03*
%TD*%
%TO.P,,1,Pin_12*%
%TO.N,N/C*%
X113500000Y-65240000D03*
%TD*%
D20*
%TO.N,VCC*%
X36750000Y-80840000D02*
X36750000Y-68870000D01*
X38390000Y-67230000D02*
X44420000Y-67230000D01*
X36960000Y-81050000D02*
X38110000Y-82200000D01*
X38110000Y-82200000D02*
X39625000Y-82200000D01*
X36940000Y-81050000D02*
X36960000Y-81050000D01*
X36960000Y-81050000D02*
X36750000Y-80840000D01*
X36750000Y-68870000D02*
X38390000Y-67230000D01*
X44420000Y-67230000D02*
X44470000Y-67180000D01*
%TO.N,+5V*%
X50260000Y-68220000D02*
X50260000Y-84420000D01*
X50260000Y-84420000D02*
X50310000Y-84470000D01*
X44990000Y-84470000D02*
X50310000Y-84470000D01*
X44500000Y-80000000D02*
X43500000Y-81000000D01*
X44500000Y-76020000D02*
X44500000Y-80000000D01*
X50260000Y-68220000D02*
X50260000Y-51960000D01*
X93180000Y-82780000D02*
X93180000Y-80480000D01*
X91490000Y-84470000D02*
X93180000Y-82780000D01*
X43500000Y-82980000D02*
X44990000Y-84470000D01*
X65240000Y-52280000D02*
X65270000Y-52250000D01*
X61430000Y-84400000D02*
X61500000Y-84470000D01*
X65270000Y-52250000D02*
X65270000Y-50930000D01*
X43500000Y-81000000D02*
X43500000Y-82980000D01*
X72860000Y-80480000D02*
X72060001Y-81279999D01*
X72060001Y-84419999D02*
X72060000Y-84420000D01*
X51290000Y-50930000D02*
X65270000Y-50930000D01*
X50310000Y-84470000D02*
X61500000Y-84470000D01*
X96650000Y-50930000D02*
X98260000Y-52540000D01*
X40725000Y-76020000D02*
X39625000Y-77120000D01*
X65270000Y-50930000D02*
X96650000Y-50930000D01*
X50260000Y-51960000D02*
X51290000Y-50930000D01*
X72060001Y-81279999D02*
X72060001Y-84419999D01*
X110960000Y-52540000D02*
X98260000Y-52540000D01*
X61430000Y-83020000D02*
X61430000Y-84400000D01*
X40725000Y-76020000D02*
X44500000Y-76020000D01*
X61500000Y-84470000D02*
X91490000Y-84470000D01*
D21*
%TO.N,/SPI_CLK*%
X53715000Y-61335000D02*
X52540000Y-60160000D01*
X92055000Y-59035000D02*
X93180000Y-60160000D01*
X71685000Y-61335000D02*
X53715000Y-61335000D01*
X72860000Y-60160000D02*
X73985000Y-59035000D01*
X73985000Y-59035000D02*
X92055000Y-59035000D01*
X72860000Y-60160000D02*
X71685000Y-61335000D01*
%TO.N,/SPI_MISO*%
X72860000Y-57620000D02*
X72780000Y-57620000D01*
X53715000Y-58795000D02*
X52540000Y-57620000D01*
X92055000Y-56495000D02*
X93180000Y-57620000D01*
X72860000Y-57620000D02*
X73985000Y-56495000D01*
X71605000Y-58795000D02*
X53715000Y-58795000D01*
X73985000Y-56495000D02*
X92055000Y-56495000D01*
X72780000Y-57620000D02*
X71605000Y-58795000D01*
%TO.N,/SPI_MOSI*%
X72860000Y-55080000D02*
X71685000Y-56255000D01*
X92055000Y-53955000D02*
X85135000Y-53955000D01*
X85135000Y-53955000D02*
X84010000Y-55080000D01*
X93180000Y-55080000D02*
X92055000Y-53955000D01*
X71685000Y-56255000D02*
X53715000Y-56255000D01*
X84010000Y-55080000D02*
X72860000Y-55080000D01*
X53715000Y-56255000D02*
X52540000Y-55080000D01*
D22*
%TO.N,+3V3*%
X81060000Y-71660000D02*
X90040000Y-71660000D01*
X97742233Y-74110000D02*
X130040000Y-74110000D01*
X79860000Y-72860000D02*
X81060000Y-71660000D01*
X136170000Y-69790000D02*
X136170000Y-52500000D01*
X130040000Y-74110000D02*
X132580000Y-71570000D01*
X132580000Y-71570000D02*
X134390000Y-71570000D01*
X71610000Y-71610000D02*
X72860000Y-72860000D01*
X91240000Y-72860000D02*
X93180000Y-72860000D01*
X96492233Y-72860000D02*
X97742233Y-74110000D01*
D23*
X128740000Y-52540000D02*
X116040000Y-52540000D01*
D22*
X53790000Y-71610000D02*
X71610000Y-71610000D01*
X134960000Y-51290000D02*
X129990000Y-51290000D01*
X90040000Y-71660000D02*
X91240000Y-72860000D01*
X52540000Y-72860000D02*
X53790000Y-71610000D01*
X93180000Y-72860000D02*
X96492233Y-72860000D01*
X72860000Y-72860000D02*
X79860000Y-72860000D01*
X136170000Y-52500000D02*
X134960000Y-51290000D01*
X129990000Y-51290000D02*
X128740000Y-52540000D01*
X134390000Y-71570000D02*
X136170000Y-69790000D01*
D21*
%TO.N,/MAX_RST*%
X68905000Y-74275000D02*
X86975000Y-74275000D01*
X89310000Y-74190000D02*
X88100000Y-75400000D01*
X67780000Y-75400000D02*
X68905000Y-74275000D01*
X132486701Y-76733299D02*
X133820000Y-75400000D01*
X86975000Y-74275000D02*
X88100000Y-75400000D01*
X96473299Y-76733299D02*
X132486701Y-76733299D01*
X93930000Y-74190000D02*
X89310000Y-74190000D01*
X93930000Y-74190000D02*
X96473299Y-76733299D01*
%TO.N,/INT*%
X68905000Y-53665000D02*
X84788604Y-53665000D01*
X92748299Y-53770000D02*
X132590000Y-53770000D01*
X85913604Y-52540000D02*
X88100000Y-52540000D01*
X84788604Y-53665000D02*
X85913604Y-52540000D01*
X88100000Y-52540000D02*
X91518299Y-52540000D01*
X132590000Y-53770000D02*
X133820000Y-52540000D01*
X91518299Y-52540000D02*
X92748299Y-53770000D01*
X67780000Y-52540000D02*
X68905000Y-53665000D01*
%TO.N,Net-(J4-Pin_5)*%
X90615000Y-70320000D02*
X91790000Y-71495000D01*
X133820000Y-70320000D02*
X131535000Y-70320000D01*
X131535000Y-70320000D02*
X130360000Y-71495000D01*
X130360000Y-71495000D02*
X91790000Y-71495000D01*
X88100000Y-70320000D02*
X90615000Y-70320000D01*
%TO.N,Net-(J4-Pin_6)*%
X88100000Y-67780000D02*
X91518299Y-67780000D01*
X91518299Y-67780000D02*
X92693299Y-68955000D01*
X92693299Y-68955000D02*
X132645000Y-68955000D01*
X132645000Y-68955000D02*
X133820000Y-67780000D01*
%TO.N,Net-(J4-Pin_7)*%
X91518299Y-65240000D02*
X92693299Y-66415000D01*
X132645000Y-66415000D02*
X133820000Y-65240000D01*
X92693299Y-66415000D02*
X132645000Y-66415000D01*
X88100000Y-65240000D02*
X91518299Y-65240000D01*
%TO.N,Net-(J4-Pin_10)*%
X132645000Y-58795000D02*
X133820000Y-57620000D01*
X91518299Y-57620000D02*
X92693299Y-58795000D01*
X92693299Y-58795000D02*
X132645000Y-58795000D01*
X88100000Y-57620000D02*
X91518299Y-57620000D01*
%TO.N,Net-(J4-Pin_1)*%
X94355000Y-79305000D02*
X89275000Y-79305000D01*
X132455000Y-81845000D02*
X96895000Y-81845000D01*
X89275000Y-79305000D02*
X88100000Y-80480000D01*
X96895000Y-81845000D02*
X94355000Y-79305000D01*
X133820000Y-80480000D02*
X132455000Y-81845000D01*
%TO.N,Net-(J4-Pin_11)*%
X91518299Y-55080000D02*
X92693299Y-56255000D01*
X88100000Y-55080000D02*
X91518299Y-55080000D01*
X132645000Y-56255000D02*
X133820000Y-55080000D01*
X92693299Y-56255000D02*
X132645000Y-56255000D01*
%TO.N,Net-(J4-Pin_8)*%
X132645000Y-63875000D02*
X133820000Y-62700000D01*
X91518299Y-62700000D02*
X92693299Y-63875000D01*
X92693299Y-63875000D02*
X132645000Y-63875000D01*
X88100000Y-62700000D02*
X91518299Y-62700000D01*
%TO.N,Net-(J4-Pin_9)*%
X92693299Y-61335000D02*
X132645000Y-61335000D01*
X88100000Y-60160000D02*
X91518299Y-60160000D01*
X132645000Y-61335000D02*
X133820000Y-60160000D01*
X91518299Y-60160000D02*
X92693299Y-61335000D01*
%TO.N,Net-(J4-Pin_2)*%
X133820000Y-77940000D02*
X132645000Y-79115000D01*
X91515000Y-76765000D02*
X90340000Y-77940000D01*
X96900000Y-79115000D02*
X94550000Y-76765000D01*
X94550000Y-76765000D02*
X91515000Y-76765000D01*
X132645000Y-79115000D02*
X96900000Y-79115000D01*
X90340000Y-77940000D02*
X88100000Y-77940000D01*
%TO.N,Net-(J5-Pin_3)*%
X86580000Y-76525000D02*
X89935000Y-76525000D01*
X91060000Y-75400000D02*
X93180000Y-75400000D01*
X72860000Y-75400000D02*
X85455000Y-75400000D01*
X85455000Y-75400000D02*
X86580000Y-76525000D01*
X89935000Y-76525000D02*
X91060000Y-75400000D01*
%TO.N,Net-(J5-Pin_5)*%
X72860000Y-69930000D02*
X72860000Y-70320000D01*
X81185000Y-69195000D02*
X79915000Y-67925000D01*
X74865000Y-67925000D02*
X72860000Y-69930000D01*
X79915000Y-67925000D02*
X74865000Y-67925000D01*
X81185000Y-69195000D02*
X92055000Y-69195000D01*
X92055000Y-69195000D02*
X93180000Y-70320000D01*
%TO.N,Net-(J5-Pin_6)*%
X92055000Y-66655000D02*
X93180000Y-67780000D01*
X73985000Y-66655000D02*
X92055000Y-66655000D01*
X72860000Y-67780000D02*
X73985000Y-66655000D01*
%TO.N,Net-(J5-Pin_8)*%
X92055000Y-61575000D02*
X93180000Y-62700000D01*
X73985000Y-61575000D02*
X92055000Y-61575000D01*
X72860000Y-62700000D02*
X73985000Y-61575000D01*
%TO.N,Net-(J5-Pin_7)*%
X74275000Y-63825000D02*
X91765000Y-63825000D01*
X91765000Y-63825000D02*
X93180000Y-65240000D01*
X72860000Y-65240000D02*
X74275000Y-63825000D01*
D20*
%TO.N,Net-(SW1-A)*%
X38390000Y-62270000D02*
X38390000Y-64690000D01*
X42990000Y-60920000D02*
X39740000Y-60920000D01*
X39740000Y-60920000D02*
X38390000Y-62270000D01*
%TD*%
%TA.AperFunction,Conductor*%
%TO.N,GND*%
G36*
X136518834Y-70534336D02*
G01*
X136574767Y-70576208D01*
X136599184Y-70641672D01*
X136599500Y-70650518D01*
X136599500Y-85875500D01*
X136579815Y-85942539D01*
X136527011Y-85988294D01*
X136475500Y-85999500D01*
X36474500Y-85999500D01*
X36407461Y-85979815D01*
X36361706Y-85927011D01*
X36350500Y-85875500D01*
X36350500Y-82013361D01*
X36370185Y-81946322D01*
X36422989Y-81900567D01*
X36492147Y-81890623D01*
X36555703Y-81919648D01*
X36562168Y-81925668D01*
X37410536Y-82774035D01*
X37535965Y-82899464D01*
X37683453Y-82998013D01*
X37683454Y-82998013D01*
X37683455Y-82998014D01*
X37683457Y-82998015D01*
X37726821Y-83015977D01*
X37726822Y-83015977D01*
X37847334Y-83065895D01*
X38021304Y-83100499D01*
X38021308Y-83100500D01*
X38021309Y-83100500D01*
X38177380Y-83100500D01*
X38244419Y-83120185D01*
X38290174Y-83172989D01*
X38300670Y-83211247D01*
X38305908Y-83259983D01*
X38356202Y-83394828D01*
X38356206Y-83394835D01*
X38442452Y-83510044D01*
X38442455Y-83510047D01*
X38557664Y-83596293D01*
X38557671Y-83596297D01*
X38692517Y-83646591D01*
X38692516Y-83646591D01*
X38699444Y-83647335D01*
X38752127Y-83653000D01*
X40847872Y-83652999D01*
X40907483Y-83646591D01*
X41042331Y-83596296D01*
X41157546Y-83510046D01*
X41243796Y-83394831D01*
X41294091Y-83259983D01*
X41300500Y-83200373D01*
X41300499Y-81199628D01*
X41294843Y-81147011D01*
X41294091Y-81140016D01*
X41243797Y-81005171D01*
X41243793Y-81005164D01*
X41157547Y-80889955D01*
X41157544Y-80889952D01*
X41042335Y-80803706D01*
X41042326Y-80803701D01*
X41013974Y-80793127D01*
X40958040Y-80751257D01*
X40933622Y-80685792D01*
X40948473Y-80617519D01*
X40956988Y-80604059D01*
X41089788Y-80421276D01*
X41193582Y-80217570D01*
X41264234Y-80000128D01*
X41278509Y-79910000D01*
X40290748Y-79910000D01*
X40312518Y-79872292D01*
X40350000Y-79732409D01*
X40350000Y-79587591D01*
X40312518Y-79447708D01*
X40290748Y-79410000D01*
X41278509Y-79410000D01*
X41264234Y-79319871D01*
X41193582Y-79102429D01*
X41089788Y-78898723D01*
X40955402Y-78713757D01*
X40793742Y-78552097D01*
X40709135Y-78490626D01*
X40666470Y-78435296D01*
X40660491Y-78365682D01*
X40693097Y-78303887D01*
X40709125Y-78289999D01*
X40794066Y-78228286D01*
X40955786Y-78066566D01*
X41090217Y-77881538D01*
X41194048Y-77677758D01*
X41253861Y-77493673D01*
X41264721Y-77460249D01*
X41264721Y-77460248D01*
X41264722Y-77460245D01*
X41300500Y-77234354D01*
X41300500Y-77044500D01*
X41320185Y-76977461D01*
X41372989Y-76931706D01*
X41424500Y-76920500D01*
X43117209Y-76920500D01*
X43184248Y-76940185D01*
X43230003Y-76992989D01*
X43233391Y-77001167D01*
X43256202Y-77062328D01*
X43256206Y-77062335D01*
X43342452Y-77177544D01*
X43342455Y-77177547D01*
X43457664Y-77263793D01*
X43457669Y-77263796D01*
X43518833Y-77286608D01*
X43574766Y-77328478D01*
X43599184Y-77393942D01*
X43599500Y-77402790D01*
X43599500Y-79572201D01*
X43579815Y-79639240D01*
X43527011Y-79684995D01*
X43486308Y-79695729D01*
X43273312Y-79714364D01*
X43273302Y-79714366D01*
X43053511Y-79773258D01*
X43053502Y-79773261D01*
X42847267Y-79869431D01*
X42847265Y-79869432D01*
X42660858Y-79999954D01*
X42499954Y-80160858D01*
X42369432Y-80347265D01*
X42369431Y-80347267D01*
X42273261Y-80553502D01*
X42273258Y-80553511D01*
X42214366Y-80773302D01*
X42214364Y-80773313D01*
X42194532Y-80999998D01*
X42194532Y-81000001D01*
X42214364Y-81226686D01*
X42214366Y-81226697D01*
X42273258Y-81446488D01*
X42273261Y-81446497D01*
X42369431Y-81652732D01*
X42369432Y-81652734D01*
X42499951Y-81839137D01*
X42499952Y-81839138D01*
X42499953Y-81839139D01*
X42563182Y-81902368D01*
X42596666Y-81963689D01*
X42599500Y-81990048D01*
X42599500Y-83068695D01*
X42634103Y-83242658D01*
X42634106Y-83242670D01*
X42650674Y-83282667D01*
X42701985Y-83406544D01*
X42742040Y-83466491D01*
X42742041Y-83466492D01*
X42742044Y-83466496D01*
X42771142Y-83510044D01*
X42800537Y-83554038D01*
X44415961Y-85169462D01*
X44415964Y-85169464D01*
X44458691Y-85198013D01*
X44563453Y-85268013D01*
X44645393Y-85301953D01*
X44727334Y-85335895D01*
X44901303Y-85370499D01*
X44901307Y-85370500D01*
X44901308Y-85370500D01*
X91578693Y-85370500D01*
X91578694Y-85370499D01*
X91752666Y-85335895D01*
X91834606Y-85301953D01*
X91916547Y-85268013D01*
X92021309Y-85198013D01*
X92064036Y-85169464D01*
X93879464Y-83354036D01*
X93918936Y-83294959D01*
X93978013Y-83206547D01*
X94035114Y-83068692D01*
X94045895Y-83042666D01*
X94080500Y-82868692D01*
X94080500Y-82691308D01*
X94080500Y-81540758D01*
X94100185Y-81473719D01*
X94116819Y-81453077D01*
X94123579Y-81446317D01*
X94218495Y-81351401D01*
X94354035Y-81157830D01*
X94453903Y-80943663D01*
X94515063Y-80715408D01*
X94521312Y-80643982D01*
X94546763Y-80578916D01*
X94603353Y-80537937D01*
X94673115Y-80534058D01*
X94732519Y-80567109D01*
X96409141Y-82243732D01*
X96409142Y-82243733D01*
X96496267Y-82330858D01*
X96573133Y-82382218D01*
X96598714Y-82399311D01*
X96712548Y-82446463D01*
X96833388Y-82470499D01*
X96833392Y-82470500D01*
X96848015Y-82470500D01*
X96915054Y-82490185D01*
X96960809Y-82542989D01*
X96970753Y-82612147D01*
X96967790Y-82626594D01*
X96929364Y-82769999D01*
X96929364Y-82770000D01*
X97826988Y-82770000D01*
X97794075Y-82827007D01*
X97760000Y-82954174D01*
X97760000Y-83085826D01*
X97794075Y-83212993D01*
X97826988Y-83270000D01*
X96929364Y-83270000D01*
X96986567Y-83483486D01*
X96986570Y-83483492D01*
X97086399Y-83697578D01*
X97221894Y-83891082D01*
X97388917Y-84058105D01*
X97582421Y-84193600D01*
X97796507Y-84293429D01*
X97796516Y-84293433D01*
X98010000Y-84350634D01*
X98010000Y-83453012D01*
X98067007Y-83485925D01*
X98194174Y-83520000D01*
X98325826Y-83520000D01*
X98452993Y-83485925D01*
X98510000Y-83453012D01*
X98510000Y-84350633D01*
X98723483Y-84293433D01*
X98723492Y-84293429D01*
X98937578Y-84193600D01*
X99131082Y-84058105D01*
X99298105Y-83891082D01*
X99428425Y-83704968D01*
X99483002Y-83661344D01*
X99552501Y-83654151D01*
X99614855Y-83685673D01*
X99631575Y-83704968D01*
X99761894Y-83891082D01*
X99928917Y-84058105D01*
X100122421Y-84193600D01*
X100336507Y-84293429D01*
X100336516Y-84293433D01*
X100550000Y-84350634D01*
X100550000Y-83453012D01*
X100607007Y-83485925D01*
X100734174Y-83520000D01*
X100865826Y-83520000D01*
X100992993Y-83485925D01*
X101050000Y-83453012D01*
X101050000Y-84350633D01*
X101263483Y-84293433D01*
X101263492Y-84293429D01*
X101477578Y-84193600D01*
X101671082Y-84058105D01*
X101838105Y-83891082D01*
X101968425Y-83704968D01*
X102023002Y-83661344D01*
X102092501Y-83654151D01*
X102154855Y-83685673D01*
X102171575Y-83704968D01*
X102301894Y-83891082D01*
X102468917Y-84058105D01*
X102662421Y-84193600D01*
X102876507Y-84293429D01*
X102876516Y-84293433D01*
X103090000Y-84350634D01*
X103090000Y-83453012D01*
X103147007Y-83485925D01*
X103274174Y-83520000D01*
X103405826Y-83520000D01*
X103532993Y-83485925D01*
X103590000Y-83453012D01*
X103590000Y-84350633D01*
X103803483Y-84293433D01*
X103803492Y-84293429D01*
X104017578Y-84193600D01*
X104211082Y-84058105D01*
X104378105Y-83891082D01*
X104508425Y-83704968D01*
X104563002Y-83661344D01*
X104632501Y-83654151D01*
X104694855Y-83685673D01*
X104711575Y-83704968D01*
X104841894Y-83891082D01*
X105008917Y-84058105D01*
X105202421Y-84193600D01*
X105416507Y-84293429D01*
X105416516Y-84293433D01*
X105630000Y-84350634D01*
X105630000Y-83453012D01*
X105687007Y-83485925D01*
X105814174Y-83520000D01*
X105945826Y-83520000D01*
X106072993Y-83485925D01*
X106130000Y-83453012D01*
X106130000Y-84350633D01*
X106343483Y-84293433D01*
X106343492Y-84293429D01*
X106557578Y-84193600D01*
X106751082Y-84058105D01*
X106918105Y-83891082D01*
X107048425Y-83704968D01*
X107103002Y-83661344D01*
X107172501Y-83654151D01*
X107234855Y-83685673D01*
X107251575Y-83704968D01*
X107381894Y-83891082D01*
X107548917Y-84058105D01*
X107742421Y-84193600D01*
X107956507Y-84293429D01*
X107956516Y-84293433D01*
X108170000Y-84350634D01*
X108170000Y-83453012D01*
X108227007Y-83485925D01*
X108354174Y-83520000D01*
X108485826Y-83520000D01*
X108612993Y-83485925D01*
X108670000Y-83453012D01*
X108670000Y-84350633D01*
X108883483Y-84293433D01*
X108883492Y-84293429D01*
X109097578Y-84193600D01*
X109291082Y-84058105D01*
X109458105Y-83891082D01*
X109588425Y-83704968D01*
X109643002Y-83661344D01*
X109712501Y-83654151D01*
X109774855Y-83685673D01*
X109791575Y-83704968D01*
X109921894Y-83891082D01*
X110088917Y-84058105D01*
X110282421Y-84193600D01*
X110496507Y-84293429D01*
X110496516Y-84293433D01*
X110710000Y-84350634D01*
X110710000Y-83453012D01*
X110767007Y-83485925D01*
X110894174Y-83520000D01*
X111025826Y-83520000D01*
X111152993Y-83485925D01*
X111210000Y-83453012D01*
X111210000Y-84350633D01*
X111423483Y-84293433D01*
X111423492Y-84293429D01*
X111637578Y-84193600D01*
X111831082Y-84058105D01*
X111998105Y-83891082D01*
X112133600Y-83697578D01*
X112233429Y-83483492D01*
X112233432Y-83483486D01*
X112290636Y-83270000D01*
X111393012Y-83270000D01*
X111425925Y-83212993D01*
X111460000Y-83085826D01*
X111460000Y-82954174D01*
X111425925Y-82827007D01*
X111393012Y-82770000D01*
X112290636Y-82770000D01*
X112290635Y-82769999D01*
X112252210Y-82626594D01*
X112253873Y-82556744D01*
X112293035Y-82498881D01*
X112357264Y-82471377D01*
X112371985Y-82470500D01*
X114628015Y-82470500D01*
X114695054Y-82490185D01*
X114740809Y-82542989D01*
X114750753Y-82612147D01*
X114747790Y-82626594D01*
X114709364Y-82769999D01*
X114709364Y-82770000D01*
X115606988Y-82770000D01*
X115574075Y-82827007D01*
X115540000Y-82954174D01*
X115540000Y-83085826D01*
X115574075Y-83212993D01*
X115606988Y-83270000D01*
X114709364Y-83270000D01*
X114766567Y-83483486D01*
X114766570Y-83483492D01*
X114866399Y-83697578D01*
X115001894Y-83891082D01*
X115168917Y-84058105D01*
X115362421Y-84193600D01*
X115576507Y-84293429D01*
X115576516Y-84293433D01*
X115790000Y-84350634D01*
X115790000Y-83453012D01*
X115847007Y-83485925D01*
X115974174Y-83520000D01*
X116105826Y-83520000D01*
X116232993Y-83485925D01*
X116290000Y-83453012D01*
X116290000Y-84350633D01*
X116503483Y-84293433D01*
X116503492Y-84293429D01*
X116717578Y-84193600D01*
X116911082Y-84058105D01*
X117078105Y-83891082D01*
X117208425Y-83704968D01*
X117263002Y-83661344D01*
X117332501Y-83654151D01*
X117394855Y-83685673D01*
X117411575Y-83704968D01*
X117541894Y-83891082D01*
X117708917Y-84058105D01*
X117902421Y-84193600D01*
X118116507Y-84293429D01*
X118116516Y-84293433D01*
X118330000Y-84350634D01*
X118330000Y-83453012D01*
X118387007Y-83485925D01*
X118514174Y-83520000D01*
X118645826Y-83520000D01*
X118772993Y-83485925D01*
X118830000Y-83453012D01*
X118830000Y-84350633D01*
X119043483Y-84293433D01*
X119043492Y-84293429D01*
X119257578Y-84193600D01*
X119451082Y-84058105D01*
X119618105Y-83891082D01*
X119748425Y-83704968D01*
X119803002Y-83661344D01*
X119872501Y-83654151D01*
X119934855Y-83685673D01*
X119951575Y-83704968D01*
X120081894Y-83891082D01*
X120248917Y-84058105D01*
X120442421Y-84193600D01*
X120656507Y-84293429D01*
X120656516Y-84293433D01*
X120870000Y-84350634D01*
X120870000Y-83453012D01*
X120927007Y-83485925D01*
X121054174Y-83520000D01*
X121185826Y-83520000D01*
X121312993Y-83485925D01*
X121370000Y-83453012D01*
X121370000Y-84350633D01*
X121583483Y-84293433D01*
X121583492Y-84293429D01*
X121797578Y-84193600D01*
X121991082Y-84058105D01*
X122158105Y-83891082D01*
X122288425Y-83704968D01*
X122343002Y-83661344D01*
X122412501Y-83654151D01*
X122474855Y-83685673D01*
X122491575Y-83704968D01*
X122621894Y-83891082D01*
X122788917Y-84058105D01*
X122982421Y-84193600D01*
X123196507Y-84293429D01*
X123196516Y-84293433D01*
X123410000Y-84350634D01*
X123410000Y-83453012D01*
X123467007Y-83485925D01*
X123594174Y-83520000D01*
X123725826Y-83520000D01*
X123852993Y-83485925D01*
X123910000Y-83453012D01*
X123910000Y-84350633D01*
X124123483Y-84293433D01*
X124123492Y-84293429D01*
X124337578Y-84193600D01*
X124531082Y-84058105D01*
X124698105Y-83891082D01*
X124828425Y-83704968D01*
X124883002Y-83661344D01*
X124952501Y-83654151D01*
X125014855Y-83685673D01*
X125031575Y-83704968D01*
X125161894Y-83891082D01*
X125328917Y-84058105D01*
X125522421Y-84193600D01*
X125736507Y-84293429D01*
X125736516Y-84293433D01*
X125950000Y-84350634D01*
X125950000Y-83453012D01*
X126007007Y-83485925D01*
X126134174Y-83520000D01*
X126265826Y-83520000D01*
X126392993Y-83485925D01*
X126450000Y-83453012D01*
X126450000Y-84350634D01*
X126663483Y-84293433D01*
X126663492Y-84293429D01*
X126877578Y-84193600D01*
X127071082Y-84058105D01*
X127238105Y-83891082D01*
X127368425Y-83704968D01*
X127423002Y-83661344D01*
X127492501Y-83654151D01*
X127554855Y-83685673D01*
X127571575Y-83704968D01*
X127701894Y-83891082D01*
X127868917Y-84058105D01*
X128062421Y-84193600D01*
X128276507Y-84293429D01*
X128276516Y-84293433D01*
X128490000Y-84350634D01*
X128490000Y-83453012D01*
X128547007Y-83485925D01*
X128674174Y-83520000D01*
X128805826Y-83520000D01*
X128932993Y-83485925D01*
X128990000Y-83453012D01*
X128990000Y-84350633D01*
X129203483Y-84293433D01*
X129203492Y-84293429D01*
X129417578Y-84193600D01*
X129611082Y-84058105D01*
X129778105Y-83891082D01*
X129913600Y-83697578D01*
X130013429Y-83483492D01*
X130013432Y-83483486D01*
X130070636Y-83270000D01*
X129173012Y-83270000D01*
X129205925Y-83212993D01*
X129240000Y-83085826D01*
X129240000Y-82954174D01*
X129205925Y-82827007D01*
X129173012Y-82770000D01*
X130070636Y-82770000D01*
X130070635Y-82769999D01*
X130032210Y-82626594D01*
X130033873Y-82556744D01*
X130073035Y-82498881D01*
X130137264Y-82471377D01*
X130151985Y-82470500D01*
X132516607Y-82470500D01*
X132577029Y-82458481D01*
X132637452Y-82446463D01*
X132637455Y-82446461D01*
X132637458Y-82446461D01*
X132670787Y-82432654D01*
X132670786Y-82432654D01*
X132670792Y-82432652D01*
X132751286Y-82399312D01*
X132819917Y-82353453D01*
X132853733Y-82330858D01*
X132940858Y-82243733D01*
X132940858Y-82243731D01*
X132951066Y-82233524D01*
X132951068Y-82233521D01*
X133364353Y-81820235D01*
X133425674Y-81786752D01*
X133484125Y-81788143D01*
X133504995Y-81793735D01*
X133584592Y-81815063D01*
X133772918Y-81831539D01*
X133819999Y-81835659D01*
X133820000Y-81835659D01*
X133820001Y-81835659D01*
X133859234Y-81832226D01*
X134055408Y-81815063D01*
X134283663Y-81753903D01*
X134497830Y-81654035D01*
X134691401Y-81518495D01*
X134858495Y-81351401D01*
X134994035Y-81157830D01*
X135093903Y-80943663D01*
X135155063Y-80715408D01*
X135175659Y-80480000D01*
X135155063Y-80244592D01*
X135093903Y-80016337D01*
X134994035Y-79802171D01*
X134976144Y-79776619D01*
X134858494Y-79608597D01*
X134691402Y-79441506D01*
X134691396Y-79441501D01*
X134505842Y-79311575D01*
X134462217Y-79256998D01*
X134455023Y-79187500D01*
X134486546Y-79125145D01*
X134505842Y-79108425D01*
X134559907Y-79070568D01*
X134691401Y-78978495D01*
X134858495Y-78811401D01*
X134994035Y-78617830D01*
X135093903Y-78403663D01*
X135155063Y-78175408D01*
X135175659Y-77940000D01*
X135155063Y-77704592D01*
X135093903Y-77476337D01*
X134994035Y-77262171D01*
X134988047Y-77253618D01*
X134858494Y-77068597D01*
X134691402Y-76901506D01*
X134691396Y-76901501D01*
X134505842Y-76771575D01*
X134462217Y-76716998D01*
X134455023Y-76647500D01*
X134486546Y-76585145D01*
X134505842Y-76568425D01*
X134651667Y-76466317D01*
X134691401Y-76438495D01*
X134858495Y-76271401D01*
X134994035Y-76077830D01*
X135093903Y-75863663D01*
X135155063Y-75635408D01*
X135175659Y-75400000D01*
X135155063Y-75164592D01*
X135096049Y-74944347D01*
X135093905Y-74936344D01*
X135093904Y-74936343D01*
X135093903Y-74936337D01*
X134994035Y-74722171D01*
X134992166Y-74719501D01*
X134858494Y-74528597D01*
X134691402Y-74361506D01*
X134691401Y-74361505D01*
X134505405Y-74231269D01*
X134461781Y-74176692D01*
X134454588Y-74107193D01*
X134486110Y-74044839D01*
X134505405Y-74028119D01*
X134691082Y-73898105D01*
X134858105Y-73731082D01*
X134993600Y-73537578D01*
X135093429Y-73323492D01*
X135093432Y-73323486D01*
X135150636Y-73110000D01*
X134253012Y-73110000D01*
X134285925Y-73052993D01*
X134320000Y-72925826D01*
X134320000Y-72794174D01*
X134285925Y-72667007D01*
X134253012Y-72610000D01*
X135150636Y-72610000D01*
X135150635Y-72609999D01*
X135093432Y-72396513D01*
X135093429Y-72396507D01*
X134993601Y-72182424D01*
X134960465Y-72135101D01*
X134938138Y-72068894D01*
X134955148Y-72001127D01*
X134974352Y-71976304D01*
X136387821Y-70562835D01*
X136449142Y-70529352D01*
X136518834Y-70534336D01*
G37*
%TD.AperFunction*%
%TA.AperFunction,Conductor*%
G36*
X50213677Y-50520185D02*
G01*
X50259432Y-50572989D01*
X50269376Y-50642147D01*
X50240351Y-50705703D01*
X50234319Y-50712181D01*
X49560538Y-51385960D01*
X49560537Y-51385961D01*
X49521064Y-51445039D01*
X49521063Y-51445040D01*
X49461985Y-51533455D01*
X49428046Y-51615393D01*
X49394106Y-51697329D01*
X49394103Y-51697341D01*
X49359500Y-51871303D01*
X49359500Y-79776619D01*
X49339815Y-79843658D01*
X49287011Y-79889413D01*
X49217853Y-79899357D01*
X49164376Y-79878194D01*
X49152482Y-79869866D01*
X48946326Y-79773734D01*
X48946317Y-79773730D01*
X48726610Y-79714860D01*
X48726599Y-79714858D01*
X48500002Y-79695034D01*
X48499998Y-79695034D01*
X48273400Y-79714858D01*
X48273389Y-79714860D01*
X48053682Y-79773730D01*
X48053673Y-79773734D01*
X47847516Y-79869866D01*
X47847512Y-79869868D01*
X47774526Y-79920973D01*
X47774526Y-79920974D01*
X48453553Y-80600000D01*
X48447339Y-80600000D01*
X48345606Y-80627259D01*
X48254394Y-80679920D01*
X48179920Y-80754394D01*
X48127259Y-80845606D01*
X48100000Y-80947339D01*
X48100000Y-80953552D01*
X47420974Y-80274526D01*
X47420973Y-80274526D01*
X47369868Y-80347512D01*
X47369866Y-80347516D01*
X47273734Y-80553673D01*
X47273730Y-80553682D01*
X47214860Y-80773389D01*
X47214858Y-80773400D01*
X47195034Y-80999997D01*
X47195034Y-81000002D01*
X47214858Y-81226599D01*
X47214860Y-81226610D01*
X47273730Y-81446317D01*
X47273735Y-81446331D01*
X47369863Y-81652478D01*
X47420974Y-81725472D01*
X48100000Y-81046446D01*
X48100000Y-81052661D01*
X48127259Y-81154394D01*
X48179920Y-81245606D01*
X48254394Y-81320080D01*
X48345606Y-81372741D01*
X48447339Y-81400000D01*
X48453552Y-81400000D01*
X47774526Y-82079025D01*
X47847513Y-82130132D01*
X47847521Y-82130136D01*
X48053668Y-82226264D01*
X48053682Y-82226269D01*
X48273389Y-82285139D01*
X48273400Y-82285141D01*
X48499998Y-82304966D01*
X48500002Y-82304966D01*
X48726599Y-82285141D01*
X48726610Y-82285139D01*
X48946317Y-82226269D01*
X48946326Y-82226265D01*
X49152482Y-82130134D01*
X49164372Y-82121808D01*
X49230577Y-82099478D01*
X49298346Y-82116485D01*
X49346161Y-82167431D01*
X49359500Y-82223380D01*
X49359500Y-83445500D01*
X49339815Y-83512539D01*
X49287011Y-83558294D01*
X49235500Y-83569500D01*
X45414362Y-83569500D01*
X45347323Y-83549815D01*
X45326681Y-83533181D01*
X44436819Y-82643319D01*
X44403334Y-82581996D01*
X44400500Y-82555638D01*
X44400500Y-81990048D01*
X44420185Y-81923009D01*
X44436814Y-81902371D01*
X44500047Y-81839139D01*
X44630568Y-81652734D01*
X44726739Y-81446496D01*
X44785635Y-81226692D01*
X44804599Y-81009924D01*
X44830051Y-80944857D01*
X44840438Y-80933060D01*
X45199464Y-80574035D01*
X45221132Y-80541607D01*
X45298013Y-80426547D01*
X45317895Y-80378547D01*
X45365895Y-80262666D01*
X45400500Y-80088691D01*
X45400500Y-79911308D01*
X45400500Y-77402790D01*
X45420185Y-77335751D01*
X45472989Y-77289996D01*
X45481146Y-77286616D01*
X45542331Y-77263796D01*
X45657546Y-77177546D01*
X45743796Y-77062331D01*
X45794091Y-76927483D01*
X45800500Y-76867873D01*
X45800499Y-76867845D01*
X45800678Y-76864547D01*
X45802183Y-76864627D01*
X45820112Y-76803326D01*
X45872868Y-76757514D01*
X45916465Y-76749981D01*
X46600000Y-76066446D01*
X46600000Y-76072661D01*
X46627259Y-76174394D01*
X46679920Y-76265606D01*
X46754394Y-76340080D01*
X46845606Y-76392741D01*
X46947339Y-76420000D01*
X46953553Y-76420000D01*
X46274526Y-77099025D01*
X46347513Y-77150132D01*
X46347521Y-77150136D01*
X46553668Y-77246264D01*
X46553682Y-77246269D01*
X46773389Y-77305139D01*
X46773400Y-77305141D01*
X46999998Y-77324966D01*
X47000002Y-77324966D01*
X47226599Y-77305141D01*
X47226610Y-77305139D01*
X47446317Y-77246269D01*
X47446331Y-77246264D01*
X47652478Y-77150136D01*
X47725471Y-77099024D01*
X47046447Y-76420000D01*
X47052661Y-76420000D01*
X47154394Y-76392741D01*
X47245606Y-76340080D01*
X47320080Y-76265606D01*
X47372741Y-76174394D01*
X47400000Y-76072661D01*
X47400000Y-76066447D01*
X48079024Y-76745471D01*
X48130136Y-76672478D01*
X48226264Y-76466331D01*
X48226269Y-76466317D01*
X48285139Y-76246610D01*
X48285141Y-76246599D01*
X48304966Y-76020002D01*
X48304966Y-76019997D01*
X48285141Y-75793400D01*
X48285139Y-75793389D01*
X48226269Y-75573682D01*
X48226264Y-75573668D01*
X48130136Y-75367521D01*
X48130132Y-75367513D01*
X48079025Y-75294526D01*
X47400000Y-75973551D01*
X47400000Y-75967339D01*
X47372741Y-75865606D01*
X47320080Y-75774394D01*
X47245606Y-75699920D01*
X47154394Y-75647259D01*
X47052661Y-75620000D01*
X47046445Y-75620000D01*
X47725472Y-74940974D01*
X47652478Y-74889863D01*
X47446331Y-74793735D01*
X47446317Y-74793730D01*
X47226610Y-74734860D01*
X47226599Y-74734858D01*
X47000002Y-74715034D01*
X46999998Y-74715034D01*
X46773400Y-74734858D01*
X46773389Y-74734860D01*
X46553682Y-74793730D01*
X46553673Y-74793734D01*
X46347516Y-74889866D01*
X46347512Y-74889868D01*
X46274526Y-74940973D01*
X46274526Y-74940974D01*
X46953553Y-75620000D01*
X46947339Y-75620000D01*
X46845606Y-75647259D01*
X46754394Y-75699920D01*
X46679920Y-75774394D01*
X46627259Y-75865606D01*
X46600000Y-75967339D01*
X46600000Y-75973552D01*
X45915799Y-75289351D01*
X45866805Y-75279505D01*
X45816622Y-75230889D01*
X45801981Y-75175366D01*
X45800900Y-75175423D01*
X45800854Y-75175429D01*
X45800853Y-75175426D01*
X45800676Y-75175436D01*
X45800499Y-75172141D01*
X45800499Y-75172128D01*
X45794091Y-75112517D01*
X45765477Y-75035800D01*
X45743797Y-74977671D01*
X45743793Y-74977664D01*
X45657547Y-74862455D01*
X45657544Y-74862452D01*
X45542335Y-74776206D01*
X45542328Y-74776202D01*
X45407482Y-74725908D01*
X45407483Y-74725908D01*
X45347883Y-74719501D01*
X45347881Y-74719500D01*
X45347873Y-74719500D01*
X45347864Y-74719500D01*
X43652129Y-74719500D01*
X43652123Y-74719501D01*
X43592516Y-74725908D01*
X43457671Y-74776202D01*
X43457664Y-74776206D01*
X43342455Y-74862452D01*
X43342452Y-74862455D01*
X43256206Y-74977664D01*
X43256202Y-74977671D01*
X43233391Y-75038833D01*
X43191520Y-75094767D01*
X43126056Y-75119184D01*
X43117209Y-75119500D01*
X40636303Y-75119500D01*
X40462341Y-75154103D01*
X40462329Y-75154106D01*
X40380392Y-75188045D01*
X40380393Y-75188046D01*
X40298455Y-75221985D01*
X40210040Y-75281063D01*
X40210039Y-75281064D01*
X40150961Y-75320537D01*
X40150960Y-75320538D01*
X39840819Y-75630681D01*
X39779496Y-75664166D01*
X39753138Y-75667000D01*
X39638146Y-75667000D01*
X39569624Y-75677853D01*
X39412253Y-75702778D01*
X39412250Y-75702778D01*
X39194744Y-75773450D01*
X38990961Y-75877283D01*
X38885396Y-75953980D01*
X38805934Y-76011714D01*
X38805932Y-76011716D01*
X38805931Y-76011716D01*
X38644216Y-76173431D01*
X38644216Y-76173432D01*
X38644214Y-76173434D01*
X38596475Y-76239141D01*
X38509783Y-76358461D01*
X38405950Y-76562244D01*
X38335278Y-76779750D01*
X38335278Y-76779753D01*
X38312474Y-76923733D01*
X38299500Y-77005646D01*
X38299500Y-77234354D01*
X38301387Y-77246269D01*
X38335278Y-77460246D01*
X38335278Y-77460249D01*
X38405950Y-77677755D01*
X38441236Y-77747007D01*
X38509783Y-77881538D01*
X38644214Y-78066566D01*
X38805934Y-78228286D01*
X38890864Y-78289991D01*
X38933529Y-78345321D01*
X38939508Y-78414935D01*
X38906902Y-78476730D01*
X38890864Y-78490627D01*
X38806257Y-78552097D01*
X38644597Y-78713757D01*
X38510211Y-78898723D01*
X38406417Y-79102429D01*
X38335765Y-79319871D01*
X38321491Y-79410000D01*
X39309252Y-79410000D01*
X39287482Y-79447708D01*
X39250000Y-79587591D01*
X39250000Y-79732409D01*
X39287482Y-79872292D01*
X39309252Y-79910000D01*
X38321491Y-79910000D01*
X38335765Y-80000128D01*
X38406417Y-80217570D01*
X38510213Y-80421279D01*
X38643011Y-80604060D01*
X38666491Y-80669866D01*
X38650666Y-80737920D01*
X38600560Y-80786615D01*
X38586026Y-80793127D01*
X38557671Y-80803702D01*
X38557664Y-80803706D01*
X38442455Y-80889952D01*
X38370237Y-80986421D01*
X38314302Y-81028292D01*
X38244610Y-81033275D01*
X38183290Y-80999790D01*
X37686819Y-80503319D01*
X37653334Y-80441996D01*
X37650500Y-80415638D01*
X37650500Y-71109918D01*
X37670185Y-71042879D01*
X37722989Y-70997124D01*
X37792147Y-70987180D01*
X37826899Y-70997534D01*
X37926337Y-71043903D01*
X38154592Y-71105063D01*
X38342918Y-71121539D01*
X38389999Y-71125659D01*
X38390000Y-71125659D01*
X38390001Y-71125659D01*
X38429234Y-71122226D01*
X38625408Y-71105063D01*
X38853663Y-71043903D01*
X39067830Y-70944035D01*
X39261401Y-70808495D01*
X39428495Y-70641401D01*
X39564035Y-70447830D01*
X39663903Y-70233663D01*
X39725063Y-70005408D01*
X39745659Y-69770000D01*
X39725063Y-69534592D01*
X39663903Y-69306337D01*
X39564035Y-69092171D01*
X39550262Y-69072500D01*
X39428494Y-68898597D01*
X39261402Y-68731506D01*
X39261396Y-68731501D01*
X39075842Y-68601575D01*
X39032217Y-68546998D01*
X39025023Y-68477500D01*
X39056546Y-68415145D01*
X39075842Y-68398425D01*
X39148033Y-68347876D01*
X39261401Y-68268495D01*
X39363077Y-68166819D01*
X39424400Y-68133334D01*
X39450758Y-68130500D01*
X42575501Y-68130500D01*
X42642540Y-68150185D01*
X42688295Y-68202989D01*
X42699501Y-68254500D01*
X42699501Y-68347876D01*
X42705908Y-68407483D01*
X42756202Y-68542328D01*
X42756206Y-68542335D01*
X42842452Y-68657544D01*
X42842455Y-68657547D01*
X42957664Y-68743793D01*
X42957671Y-68743797D01*
X43092517Y-68794091D01*
X43092516Y-68794091D01*
X43099444Y-68794835D01*
X43152127Y-68800500D01*
X44847872Y-68800499D01*
X44907483Y-68794091D01*
X45042331Y-68743796D01*
X45157546Y-68657546D01*
X45243796Y-68542331D01*
X45294091Y-68407483D01*
X45300500Y-68347873D01*
X45300499Y-67552782D01*
X45309938Y-67505329D01*
X45312145Y-67500001D01*
X45312147Y-67499997D01*
X46195034Y-67499997D01*
X46195034Y-67500002D01*
X46214858Y-67726599D01*
X46214860Y-67726610D01*
X46273730Y-67946317D01*
X46273735Y-67946331D01*
X46369863Y-68152478D01*
X46420974Y-68225472D01*
X47100000Y-67546446D01*
X47100000Y-67552661D01*
X47127259Y-67654394D01*
X47179920Y-67745606D01*
X47254394Y-67820080D01*
X47345606Y-67872741D01*
X47447339Y-67900000D01*
X47453553Y-67900000D01*
X46774526Y-68579025D01*
X46847513Y-68630132D01*
X46847521Y-68630136D01*
X47053668Y-68726264D01*
X47053682Y-68726269D01*
X47273389Y-68785139D01*
X47273400Y-68785141D01*
X47499998Y-68804966D01*
X47500002Y-68804966D01*
X47726599Y-68785141D01*
X47726610Y-68785139D01*
X47946317Y-68726269D01*
X47946331Y-68726264D01*
X48152478Y-68630136D01*
X48225471Y-68579024D01*
X47546447Y-67900000D01*
X47552661Y-67900000D01*
X47654394Y-67872741D01*
X47745606Y-67820080D01*
X47820080Y-67745606D01*
X47872741Y-67654394D01*
X47900000Y-67552661D01*
X47900000Y-67546447D01*
X48579024Y-68225471D01*
X48630136Y-68152478D01*
X48726264Y-67946331D01*
X48726269Y-67946317D01*
X48785139Y-67726610D01*
X48785141Y-67726599D01*
X48804966Y-67500002D01*
X48804966Y-67499997D01*
X48785141Y-67273400D01*
X48785139Y-67273389D01*
X48726269Y-67053682D01*
X48726264Y-67053668D01*
X48630136Y-66847521D01*
X48630132Y-66847513D01*
X48579025Y-66774526D01*
X47900000Y-67453551D01*
X47900000Y-67447339D01*
X47872741Y-67345606D01*
X47820080Y-67254394D01*
X47745606Y-67179920D01*
X47654394Y-67127259D01*
X47552661Y-67100000D01*
X47546445Y-67100000D01*
X48225472Y-66420974D01*
X48152478Y-66369863D01*
X47946331Y-66273735D01*
X47946317Y-66273730D01*
X47726610Y-66214860D01*
X47726599Y-66214858D01*
X47500002Y-66195034D01*
X47499998Y-66195034D01*
X47273400Y-66214858D01*
X47273389Y-66214860D01*
X47053682Y-66273730D01*
X47053673Y-66273734D01*
X46847516Y-66369866D01*
X46847512Y-66369868D01*
X46774526Y-66420973D01*
X46774526Y-66420974D01*
X47453553Y-67100000D01*
X47447339Y-67100000D01*
X47345606Y-67127259D01*
X47254394Y-67179920D01*
X47179920Y-67254394D01*
X47127259Y-67345606D01*
X47100000Y-67447339D01*
X47100000Y-67453552D01*
X46420974Y-66774526D01*
X46420973Y-66774526D01*
X46369868Y-66847512D01*
X46369866Y-66847516D01*
X46273734Y-67053673D01*
X46273730Y-67053682D01*
X46214860Y-67273389D01*
X46214858Y-67273400D01*
X46195034Y-67499997D01*
X45312147Y-67499997D01*
X45335895Y-67442666D01*
X45370500Y-67268691D01*
X45370500Y-67091308D01*
X45335895Y-66917334D01*
X45332276Y-66908597D01*
X45309938Y-66854667D01*
X45300499Y-66807215D01*
X45300499Y-66652129D01*
X45300498Y-66652123D01*
X45294091Y-66592516D01*
X45243797Y-66457671D01*
X45243793Y-66457664D01*
X45157547Y-66342455D01*
X45157544Y-66342452D01*
X45042335Y-66256206D01*
X45042328Y-66256202D01*
X44907482Y-66205908D01*
X44907483Y-66205908D01*
X44847883Y-66199501D01*
X44847881Y-66199500D01*
X44847873Y-66199500D01*
X44847864Y-66199500D01*
X43152129Y-66199500D01*
X43152123Y-66199501D01*
X43092516Y-66205908D01*
X42957671Y-66256202D01*
X42957668Y-66256204D01*
X42892797Y-66304767D01*
X42827333Y-66329184D01*
X42818486Y-66329500D01*
X39450758Y-66329500D01*
X39383719Y-66309815D01*
X39363077Y-66293181D01*
X39306569Y-66236673D01*
X39273084Y-66175350D01*
X39278068Y-66105658D01*
X39319940Y-66049725D01*
X39350915Y-66032810D01*
X39482331Y-65983796D01*
X39597546Y-65897546D01*
X39683796Y-65782331D01*
X39734091Y-65647483D01*
X39740500Y-65587873D01*
X39740499Y-63792128D01*
X39734091Y-63732517D01*
X39721980Y-63700047D01*
X39683797Y-63597671D01*
X39683793Y-63597664D01*
X39597547Y-63482455D01*
X39597544Y-63482452D01*
X39482335Y-63396206D01*
X39482329Y-63396203D01*
X39371166Y-63354741D01*
X39315233Y-63312869D01*
X39290816Y-63247405D01*
X39290500Y-63238559D01*
X39290500Y-62694361D01*
X39310185Y-62627322D01*
X39326819Y-62606680D01*
X40076680Y-61856819D01*
X40138003Y-61823334D01*
X40164361Y-61820500D01*
X40615501Y-61820500D01*
X40682540Y-61840185D01*
X40728295Y-61892989D01*
X40739501Y-61944500D01*
X40739501Y-62717876D01*
X40745908Y-62777483D01*
X40796202Y-62912328D01*
X40796206Y-62912335D01*
X40882452Y-63027544D01*
X40882455Y-63027547D01*
X40997664Y-63113793D01*
X40997671Y-63113797D01*
X41132517Y-63164091D01*
X41132516Y-63164091D01*
X41139444Y-63164835D01*
X41192127Y-63170500D01*
X44787872Y-63170499D01*
X44847483Y-63164091D01*
X44982331Y-63113796D01*
X45097546Y-63027546D01*
X45183796Y-62912331D01*
X45234091Y-62777483D01*
X45240500Y-62717873D01*
X45240499Y-59122128D01*
X45234091Y-59062517D01*
X45222288Y-59030872D01*
X45183797Y-58927671D01*
X45183793Y-58927664D01*
X45097547Y-58812455D01*
X45097544Y-58812452D01*
X44982335Y-58726206D01*
X44982328Y-58726202D01*
X44847482Y-58675908D01*
X44847483Y-58675908D01*
X44787883Y-58669501D01*
X44787881Y-58669500D01*
X44787873Y-58669500D01*
X44787864Y-58669500D01*
X41192129Y-58669500D01*
X41192123Y-58669501D01*
X41132516Y-58675908D01*
X40997671Y-58726202D01*
X40997664Y-58726206D01*
X40882455Y-58812452D01*
X40882452Y-58812455D01*
X40796206Y-58927664D01*
X40796203Y-58927669D01*
X40778573Y-58974939D01*
X40736701Y-59030872D01*
X40671237Y-59055289D01*
X40602964Y-59040437D01*
X40553559Y-58991032D01*
X40538566Y-58925025D01*
X40540499Y-58888650D01*
X40540500Y-58888613D01*
X40540500Y-56951386D01*
X40540498Y-56951347D01*
X40540011Y-56942171D01*
X40537705Y-56898759D01*
X40493245Y-56668874D01*
X40410574Y-56449810D01*
X40292070Y-56247868D01*
X40292065Y-56247861D01*
X40141143Y-56068858D01*
X40141141Y-56068856D01*
X39962138Y-55917934D01*
X39962131Y-55917929D01*
X39760189Y-55799425D01*
X39649978Y-55757834D01*
X39541126Y-55716755D01*
X39482931Y-55705500D01*
X39311243Y-55672295D01*
X39258652Y-55669501D01*
X39258629Y-55669500D01*
X39258622Y-55669500D01*
X37321378Y-55669500D01*
X37321370Y-55669500D01*
X37321347Y-55669501D01*
X37268756Y-55672295D01*
X37268755Y-55672295D01*
X37038878Y-55716754D01*
X37038876Y-55716754D01*
X37038874Y-55716755D01*
X36964933Y-55744659D01*
X36819810Y-55799425D01*
X36617868Y-55917929D01*
X36554429Y-55971417D01*
X36490487Y-55999580D01*
X36421469Y-55988703D01*
X36369288Y-55942239D01*
X36350500Y-55876615D01*
X36350500Y-54105803D01*
X40740000Y-54105803D01*
X40740000Y-54670000D01*
X41556988Y-54670000D01*
X41524075Y-54727007D01*
X41490000Y-54854174D01*
X41490000Y-54985826D01*
X41524075Y-55112993D01*
X41556988Y-55170000D01*
X40740001Y-55170000D01*
X40740001Y-55734197D01*
X40750400Y-55866332D01*
X40805377Y-56084519D01*
X40898428Y-56289374D01*
X40898431Y-56289380D01*
X41026559Y-56474323D01*
X41026569Y-56474335D01*
X41185664Y-56633430D01*
X41185676Y-56633440D01*
X41370619Y-56761568D01*
X41370625Y-56761571D01*
X41575480Y-56854622D01*
X41793667Y-56909599D01*
X41925810Y-56919999D01*
X42739999Y-56919999D01*
X42740000Y-56919998D01*
X42740000Y-55420000D01*
X43240000Y-55420000D01*
X43240000Y-56919999D01*
X44054182Y-56919999D01*
X44054197Y-56919998D01*
X44186332Y-56909599D01*
X44404519Y-56854622D01*
X44609374Y-56761571D01*
X44609380Y-56761568D01*
X44794323Y-56633440D01*
X44794335Y-56633430D01*
X44953430Y-56474335D01*
X44953440Y-56474323D01*
X45081568Y-56289380D01*
X45081571Y-56289374D01*
X45174622Y-56084519D01*
X45229599Y-55866332D01*
X45239999Y-55734196D01*
X45240000Y-55734184D01*
X45240000Y-55170000D01*
X44423012Y-55170000D01*
X44455925Y-55112993D01*
X44490000Y-54985826D01*
X44490000Y-54854174D01*
X44455925Y-54727007D01*
X44423012Y-54670000D01*
X45239999Y-54670000D01*
X45239999Y-54105817D01*
X45239998Y-54105802D01*
X45229599Y-53973667D01*
X45174622Y-53755480D01*
X45081571Y-53550625D01*
X45081568Y-53550619D01*
X44953440Y-53365676D01*
X44953430Y-53365664D01*
X44794335Y-53206569D01*
X44794323Y-53206559D01*
X44609380Y-53078431D01*
X44609374Y-53078428D01*
X44404519Y-52985377D01*
X44186332Y-52930400D01*
X44054196Y-52920000D01*
X43240000Y-52920000D01*
X43240000Y-54420000D01*
X42740000Y-54420000D01*
X42740000Y-52920000D01*
X41925817Y-52920000D01*
X41925802Y-52920001D01*
X41793667Y-52930400D01*
X41575480Y-52985377D01*
X41370625Y-53078428D01*
X41370619Y-53078431D01*
X41185676Y-53206559D01*
X41185664Y-53206569D01*
X41026569Y-53365664D01*
X41026559Y-53365676D01*
X40898431Y-53550619D01*
X40898428Y-53550625D01*
X40805377Y-53755480D01*
X40750400Y-53973667D01*
X40740000Y-54105803D01*
X36350500Y-54105803D01*
X36350500Y-50624500D01*
X36370185Y-50557461D01*
X36422989Y-50511706D01*
X36474500Y-50500500D01*
X50146638Y-50500500D01*
X50213677Y-50520185D01*
G37*
%TD.AperFunction*%
%TA.AperFunction,Conductor*%
G36*
X66435054Y-72330185D02*
G01*
X66480809Y-72382989D01*
X66490753Y-72452147D01*
X66487790Y-72466594D01*
X66449364Y-72609999D01*
X66449364Y-72610000D01*
X67346988Y-72610000D01*
X67314075Y-72667007D01*
X67280000Y-72794174D01*
X67280000Y-72925826D01*
X67314075Y-73052993D01*
X67346988Y-73110000D01*
X66449364Y-73110000D01*
X66506567Y-73323486D01*
X66506570Y-73323492D01*
X66606399Y-73537578D01*
X66741894Y-73731082D01*
X66908917Y-73898105D01*
X67094595Y-74028119D01*
X67138219Y-74082696D01*
X67145412Y-74152195D01*
X67113890Y-74214549D01*
X67094595Y-74231269D01*
X66908594Y-74361508D01*
X66741505Y-74528597D01*
X66605965Y-74722169D01*
X66605964Y-74722171D01*
X66506098Y-74936335D01*
X66506094Y-74936344D01*
X66444938Y-75164586D01*
X66444936Y-75164596D01*
X66424341Y-75399999D01*
X66424341Y-75400000D01*
X66444936Y-75635403D01*
X66444938Y-75635413D01*
X66506094Y-75863655D01*
X66506096Y-75863659D01*
X66506097Y-75863663D01*
X66578997Y-76019997D01*
X66605965Y-76077830D01*
X66605967Y-76077834D01*
X66673580Y-76174394D01*
X66741501Y-76271396D01*
X66741506Y-76271402D01*
X66908597Y-76438493D01*
X66908603Y-76438498D01*
X67094158Y-76568425D01*
X67137783Y-76623002D01*
X67144977Y-76692500D01*
X67113454Y-76754855D01*
X67094158Y-76771575D01*
X66908597Y-76901505D01*
X66741505Y-77068597D01*
X66605965Y-77262169D01*
X66605964Y-77262171D01*
X66506098Y-77476335D01*
X66506094Y-77476344D01*
X66444938Y-77704586D01*
X66444936Y-77704596D01*
X66424341Y-77939999D01*
X66424341Y-77940000D01*
X66444936Y-78175403D01*
X66444938Y-78175413D01*
X66506094Y-78403655D01*
X66506096Y-78403659D01*
X66506097Y-78403663D01*
X66599519Y-78604006D01*
X66605965Y-78617830D01*
X66605967Y-78617834D01*
X66741501Y-78811395D01*
X66741506Y-78811402D01*
X66908597Y-78978493D01*
X66908603Y-78978498D01*
X67094158Y-79108425D01*
X67137783Y-79163002D01*
X67144977Y-79232500D01*
X67113454Y-79294855D01*
X67094158Y-79311575D01*
X66908597Y-79441505D01*
X66741505Y-79608597D01*
X66605965Y-79802169D01*
X66605964Y-79802171D01*
X66506098Y-80016335D01*
X66506094Y-80016344D01*
X66444938Y-80244586D01*
X66444936Y-80244596D01*
X66424341Y-80479999D01*
X66424341Y-80480000D01*
X66444936Y-80715403D01*
X66444938Y-80715413D01*
X66506094Y-80943655D01*
X66506096Y-80943659D01*
X66506097Y-80943663D01*
X66547884Y-81033275D01*
X66605965Y-81157830D01*
X66605967Y-81157834D01*
X66654186Y-81226697D01*
X66741505Y-81351401D01*
X66908599Y-81518495D01*
X66940394Y-81540758D01*
X67102165Y-81654032D01*
X67102167Y-81654033D01*
X67102170Y-81654035D01*
X67316337Y-81753903D01*
X67316343Y-81753904D01*
X67316344Y-81753905D01*
X67360114Y-81765633D01*
X67544592Y-81815063D01*
X67732918Y-81831539D01*
X67779999Y-81835659D01*
X67780000Y-81835659D01*
X67780001Y-81835659D01*
X67819234Y-81832226D01*
X68015408Y-81815063D01*
X68243663Y-81753903D01*
X68457830Y-81654035D01*
X68651401Y-81518495D01*
X68818495Y-81351401D01*
X68954035Y-81157830D01*
X69053903Y-80943663D01*
X69115063Y-80715408D01*
X69135659Y-80480000D01*
X69115063Y-80244592D01*
X69053903Y-80016337D01*
X68954035Y-79802171D01*
X68936144Y-79776619D01*
X68818494Y-79608597D01*
X68651402Y-79441506D01*
X68651396Y-79441501D01*
X68465842Y-79311575D01*
X68422217Y-79256998D01*
X68415023Y-79187500D01*
X68446546Y-79125145D01*
X68465842Y-79108425D01*
X68519907Y-79070568D01*
X68651401Y-78978495D01*
X68818495Y-78811401D01*
X68954035Y-78617830D01*
X69053903Y-78403663D01*
X69115063Y-78175408D01*
X69135659Y-77940000D01*
X69115063Y-77704592D01*
X69053903Y-77476337D01*
X68954035Y-77262171D01*
X68948047Y-77253618D01*
X68818494Y-77068597D01*
X68651402Y-76901506D01*
X68651396Y-76901501D01*
X68465842Y-76771575D01*
X68422217Y-76716998D01*
X68415023Y-76647500D01*
X68446546Y-76585145D01*
X68465842Y-76568425D01*
X68611667Y-76466317D01*
X68651401Y-76438495D01*
X68818495Y-76271401D01*
X68954035Y-76077830D01*
X69053903Y-75863663D01*
X69115063Y-75635408D01*
X69135659Y-75400000D01*
X69115063Y-75164592D01*
X69088143Y-75064125D01*
X69089806Y-74994278D01*
X69120243Y-74944347D01*
X69127778Y-74936813D01*
X69189103Y-74903332D01*
X69215453Y-74900500D01*
X71485863Y-74900500D01*
X71552902Y-74920185D01*
X71598657Y-74972989D01*
X71608601Y-75042147D01*
X71605638Y-75056593D01*
X71574366Y-75173302D01*
X71574364Y-75173313D01*
X71554532Y-75399998D01*
X71554532Y-75400001D01*
X71574364Y-75626686D01*
X71574366Y-75626697D01*
X71633258Y-75846488D01*
X71633261Y-75846497D01*
X71729431Y-76052732D01*
X71729432Y-76052734D01*
X71859954Y-76239141D01*
X72020858Y-76400045D01*
X72020861Y-76400047D01*
X72207266Y-76530568D01*
X72265865Y-76557893D01*
X72318305Y-76604065D01*
X72337457Y-76671258D01*
X72317242Y-76738139D01*
X72265867Y-76782657D01*
X72207515Y-76809867D01*
X72021179Y-76940342D01*
X71860342Y-77101179D01*
X71729865Y-77287517D01*
X71633734Y-77493673D01*
X71633730Y-77493682D01*
X71581127Y-77689999D01*
X71581128Y-77690000D01*
X72544314Y-77690000D01*
X72539920Y-77694394D01*
X72487259Y-77785606D01*
X72460000Y-77887339D01*
X72460000Y-77992661D01*
X72487259Y-78094394D01*
X72539920Y-78185606D01*
X72544314Y-78190000D01*
X71581128Y-78190000D01*
X71633730Y-78386317D01*
X71633734Y-78386326D01*
X71729865Y-78592482D01*
X71860342Y-78778820D01*
X72021179Y-78939657D01*
X72207518Y-79070134D01*
X72207520Y-79070135D01*
X72265865Y-79097342D01*
X72318305Y-79143514D01*
X72337457Y-79210707D01*
X72317242Y-79277589D01*
X72265867Y-79322105D01*
X72207268Y-79349431D01*
X72207264Y-79349433D01*
X72020858Y-79479954D01*
X71859954Y-79640858D01*
X71729432Y-79827265D01*
X71729431Y-79827267D01*
X71633261Y-80033502D01*
X71633258Y-80033511D01*
X71574366Y-80253302D01*
X71574364Y-80253312D01*
X71555400Y-80470072D01*
X71529947Y-80535140D01*
X71519554Y-80546945D01*
X71360536Y-80705964D01*
X71339576Y-80737334D01*
X71261989Y-80853448D01*
X71239996Y-80906546D01*
X71194106Y-81017332D01*
X71194104Y-81017340D01*
X71176568Y-81105498D01*
X71176569Y-81105499D01*
X71176569Y-81105500D01*
X71160448Y-81186550D01*
X71159501Y-81191309D01*
X71159501Y-83445500D01*
X71139816Y-83512539D01*
X71087012Y-83558294D01*
X71035501Y-83569500D01*
X62904500Y-83569500D01*
X62837461Y-83549815D01*
X62791706Y-83497011D01*
X62780500Y-83445500D01*
X62780499Y-82122129D01*
X62780498Y-82122123D01*
X62780464Y-82121808D01*
X62774091Y-82062517D01*
X62773002Y-82059598D01*
X62723797Y-81927671D01*
X62723793Y-81927664D01*
X62637547Y-81812455D01*
X62637544Y-81812452D01*
X62522335Y-81726206D01*
X62522328Y-81726202D01*
X62387482Y-81675908D01*
X62387483Y-81675908D01*
X62327883Y-81669501D01*
X62327881Y-81669500D01*
X62327873Y-81669500D01*
X62327864Y-81669500D01*
X60532129Y-81669500D01*
X60532123Y-81669501D01*
X60472516Y-81675908D01*
X60337671Y-81726202D01*
X60337664Y-81726206D01*
X60222455Y-81812452D01*
X60222452Y-81812455D01*
X60136206Y-81927664D01*
X60136202Y-81927671D01*
X60086997Y-82059598D01*
X60045126Y-82115532D01*
X59979661Y-82139949D01*
X59911388Y-82125097D01*
X59883134Y-82103946D01*
X59761082Y-81981894D01*
X59567578Y-81846399D01*
X59353492Y-81746570D01*
X59353486Y-81746567D01*
X59140000Y-81689364D01*
X59140000Y-82586988D01*
X59082993Y-82554075D01*
X58955826Y-82520000D01*
X58824174Y-82520000D01*
X58697007Y-82554075D01*
X58640000Y-82586988D01*
X58640000Y-81689364D01*
X58639999Y-81689364D01*
X58426513Y-81746567D01*
X58426507Y-81746570D01*
X58212422Y-81846399D01*
X58212420Y-81846400D01*
X58018926Y-81981886D01*
X58018920Y-81981891D01*
X57851891Y-82148920D01*
X57851886Y-82148926D01*
X57716400Y-82342420D01*
X57716399Y-82342422D01*
X57616570Y-82556507D01*
X57616567Y-82556513D01*
X57559364Y-82769999D01*
X57559364Y-82770000D01*
X58456988Y-82770000D01*
X58424075Y-82827007D01*
X58390000Y-82954174D01*
X58390000Y-83085826D01*
X58424075Y-83212993D01*
X58456988Y-83270000D01*
X57559364Y-83270000D01*
X57597790Y-83413406D01*
X57596127Y-83483256D01*
X57556965Y-83541119D01*
X57492736Y-83568623D01*
X57478015Y-83569500D01*
X51284500Y-83569500D01*
X51217461Y-83549815D01*
X51171706Y-83497011D01*
X51160500Y-83445500D01*
X51160500Y-81257673D01*
X51180185Y-81190634D01*
X51232989Y-81144879D01*
X51302147Y-81134935D01*
X51365703Y-81163960D01*
X51386075Y-81186550D01*
X51501500Y-81351395D01*
X51501505Y-81351401D01*
X51668599Y-81518495D01*
X51700394Y-81540758D01*
X51862165Y-81654032D01*
X51862167Y-81654033D01*
X51862170Y-81654035D01*
X52076337Y-81753903D01*
X52076343Y-81753904D01*
X52076344Y-81753905D01*
X52120114Y-81765633D01*
X52304592Y-81815063D01*
X52492918Y-81831539D01*
X52539999Y-81835659D01*
X52540000Y-81835659D01*
X52540001Y-81835659D01*
X52579234Y-81832226D01*
X52775408Y-81815063D01*
X53003663Y-81753903D01*
X53217830Y-81654035D01*
X53411401Y-81518495D01*
X53578495Y-81351401D01*
X53714035Y-81157830D01*
X53813903Y-80943663D01*
X53875063Y-80715408D01*
X53895659Y-80480000D01*
X53875063Y-80244592D01*
X53813903Y-80016337D01*
X53714035Y-79802171D01*
X53696144Y-79776619D01*
X53578494Y-79608597D01*
X53411402Y-79441506D01*
X53411401Y-79441505D01*
X53225405Y-79311269D01*
X53181781Y-79256692D01*
X53174588Y-79187193D01*
X53206110Y-79124839D01*
X53225405Y-79108119D01*
X53411082Y-78978105D01*
X53578105Y-78811082D01*
X53713600Y-78617578D01*
X53813429Y-78403492D01*
X53813432Y-78403486D01*
X53870636Y-78190000D01*
X52973012Y-78190000D01*
X53005925Y-78132993D01*
X53040000Y-78005826D01*
X53040000Y-77874174D01*
X53005925Y-77747007D01*
X52973012Y-77690000D01*
X53870636Y-77690000D01*
X53870635Y-77689999D01*
X53813432Y-77476513D01*
X53813429Y-77476507D01*
X53713600Y-77262422D01*
X53713599Y-77262420D01*
X53578113Y-77068926D01*
X53578108Y-77068920D01*
X53411078Y-76901890D01*
X53225405Y-76771879D01*
X53181780Y-76717302D01*
X53174588Y-76647804D01*
X53206110Y-76585449D01*
X53225406Y-76568730D01*
X53240883Y-76557893D01*
X53411401Y-76438495D01*
X53578495Y-76271401D01*
X53714035Y-76077830D01*
X53813903Y-75863663D01*
X53875063Y-75635408D01*
X53895659Y-75400000D01*
X53875063Y-75164592D01*
X53816049Y-74944347D01*
X53813905Y-74936344D01*
X53813904Y-74936343D01*
X53813903Y-74936337D01*
X53714035Y-74722171D01*
X53712166Y-74719501D01*
X53578494Y-74528597D01*
X53411402Y-74361506D01*
X53411396Y-74361501D01*
X53225842Y-74231575D01*
X53182217Y-74176998D01*
X53175023Y-74107500D01*
X53206546Y-74045145D01*
X53225842Y-74028425D01*
X53248026Y-74012891D01*
X53411401Y-73898495D01*
X53578495Y-73731401D01*
X53714035Y-73537830D01*
X53813903Y-73323663D01*
X53875063Y-73095408D01*
X53895659Y-72860000D01*
X53875063Y-72624592D01*
X53870558Y-72607779D01*
X53872219Y-72537932D01*
X53902647Y-72488008D01*
X54043839Y-72346816D01*
X54105162Y-72313334D01*
X54131519Y-72310500D01*
X66368015Y-72310500D01*
X66435054Y-72330185D01*
G37*
%TD.AperFunction*%
%TA.AperFunction,Conductor*%
G36*
X76349920Y-82774394D02*
G01*
X76297259Y-82865606D01*
X76270000Y-82967339D01*
X76270000Y-83072661D01*
X76297259Y-83174394D01*
X76349920Y-83265606D01*
X76354314Y-83270000D01*
X74445686Y-83270000D01*
X74450080Y-83265606D01*
X74502741Y-83174394D01*
X74530000Y-83072661D01*
X74530000Y-82967339D01*
X74502741Y-82865606D01*
X74450080Y-82774394D01*
X74445686Y-82770000D01*
X76354314Y-82770000D01*
X76349920Y-82774394D01*
G37*
%TD.AperFunction*%
%TA.AperFunction,Conductor*%
G36*
X100334075Y-82827007D02*
G01*
X100300000Y-82954174D01*
X100300000Y-83085826D01*
X100334075Y-83212993D01*
X100366988Y-83270000D01*
X98693012Y-83270000D01*
X98725925Y-83212993D01*
X98760000Y-83085826D01*
X98760000Y-82954174D01*
X98725925Y-82827007D01*
X98693012Y-82770000D01*
X100366988Y-82770000D01*
X100334075Y-82827007D01*
G37*
%TD.AperFunction*%
%TA.AperFunction,Conductor*%
G36*
X102874075Y-82827007D02*
G01*
X102840000Y-82954174D01*
X102840000Y-83085826D01*
X102874075Y-83212993D01*
X102906988Y-83270000D01*
X101233012Y-83270000D01*
X101265925Y-83212993D01*
X101300000Y-83085826D01*
X101300000Y-82954174D01*
X101265925Y-82827007D01*
X101233012Y-82770000D01*
X102906988Y-82770000D01*
X102874075Y-82827007D01*
G37*
%TD.AperFunction*%
%TA.AperFunction,Conductor*%
G36*
X105414075Y-82827007D02*
G01*
X105380000Y-82954174D01*
X105380000Y-83085826D01*
X105414075Y-83212993D01*
X105446988Y-83270000D01*
X103773012Y-83270000D01*
X103805925Y-83212993D01*
X103840000Y-83085826D01*
X103840000Y-82954174D01*
X103805925Y-82827007D01*
X103773012Y-82770000D01*
X105446988Y-82770000D01*
X105414075Y-82827007D01*
G37*
%TD.AperFunction*%
%TA.AperFunction,Conductor*%
G36*
X107954075Y-82827007D02*
G01*
X107920000Y-82954174D01*
X107920000Y-83085826D01*
X107954075Y-83212993D01*
X107986988Y-83270000D01*
X106313012Y-83270000D01*
X106345925Y-83212993D01*
X106380000Y-83085826D01*
X106380000Y-82954174D01*
X106345925Y-82827007D01*
X106313012Y-82770000D01*
X107986988Y-82770000D01*
X107954075Y-82827007D01*
G37*
%TD.AperFunction*%
%TA.AperFunction,Conductor*%
G36*
X110494075Y-82827007D02*
G01*
X110460000Y-82954174D01*
X110460000Y-83085826D01*
X110494075Y-83212993D01*
X110526988Y-83270000D01*
X108853012Y-83270000D01*
X108885925Y-83212993D01*
X108920000Y-83085826D01*
X108920000Y-82954174D01*
X108885925Y-82827007D01*
X108853012Y-82770000D01*
X110526988Y-82770000D01*
X110494075Y-82827007D01*
G37*
%TD.AperFunction*%
%TA.AperFunction,Conductor*%
G36*
X118114075Y-82827007D02*
G01*
X118080000Y-82954174D01*
X118080000Y-83085826D01*
X118114075Y-83212993D01*
X118146988Y-83270000D01*
X116473012Y-83270000D01*
X116505925Y-83212993D01*
X116540000Y-83085826D01*
X116540000Y-82954174D01*
X116505925Y-82827007D01*
X116473012Y-82770000D01*
X118146988Y-82770000D01*
X118114075Y-82827007D01*
G37*
%TD.AperFunction*%
%TA.AperFunction,Conductor*%
G36*
X120654075Y-82827007D02*
G01*
X120620000Y-82954174D01*
X120620000Y-83085826D01*
X120654075Y-83212993D01*
X120686988Y-83270000D01*
X119013012Y-83270000D01*
X119045925Y-83212993D01*
X119080000Y-83085826D01*
X119080000Y-82954174D01*
X119045925Y-82827007D01*
X119013012Y-82770000D01*
X120686988Y-82770000D01*
X120654075Y-82827007D01*
G37*
%TD.AperFunction*%
%TA.AperFunction,Conductor*%
G36*
X123194075Y-82827007D02*
G01*
X123160000Y-82954174D01*
X123160000Y-83085826D01*
X123194075Y-83212993D01*
X123226988Y-83270000D01*
X121553012Y-83270000D01*
X121585925Y-83212993D01*
X121620000Y-83085826D01*
X121620000Y-82954174D01*
X121585925Y-82827007D01*
X121553012Y-82770000D01*
X123226988Y-82770000D01*
X123194075Y-82827007D01*
G37*
%TD.AperFunction*%
%TA.AperFunction,Conductor*%
G36*
X125734075Y-82827007D02*
G01*
X125700000Y-82954174D01*
X125700000Y-83085826D01*
X125734075Y-83212993D01*
X125766988Y-83270000D01*
X124093012Y-83270000D01*
X124125925Y-83212993D01*
X124160000Y-83085826D01*
X124160000Y-82954174D01*
X124125925Y-82827007D01*
X124093012Y-82770000D01*
X125766988Y-82770000D01*
X125734075Y-82827007D01*
G37*
%TD.AperFunction*%
%TA.AperFunction,Conductor*%
G36*
X128274075Y-82827007D02*
G01*
X128240000Y-82954174D01*
X128240000Y-83085826D01*
X128274075Y-83212993D01*
X128306988Y-83270000D01*
X126633012Y-83270000D01*
X126665925Y-83212993D01*
X126700000Y-83085826D01*
X126700000Y-82954174D01*
X126665925Y-82827007D01*
X126633012Y-82770000D01*
X128306988Y-82770000D01*
X128274075Y-82827007D01*
G37*
%TD.AperFunction*%
%TA.AperFunction,Conductor*%
G36*
X85211587Y-76045185D02*
G01*
X85232229Y-76061819D01*
X86091016Y-76920606D01*
X86091045Y-76920637D01*
X86181263Y-77010855D01*
X86181267Y-77010858D01*
X86283707Y-77079307D01*
X86283713Y-77079310D01*
X86283714Y-77079311D01*
X86397548Y-77126463D01*
X86457971Y-77138481D01*
X86518393Y-77150500D01*
X86518394Y-77150500D01*
X86838566Y-77150500D01*
X86905605Y-77170185D01*
X86951360Y-77222989D01*
X86961304Y-77292147D01*
X86950948Y-77326904D01*
X86895859Y-77445042D01*
X86873262Y-77493502D01*
X86873258Y-77493511D01*
X86814366Y-77713302D01*
X86814364Y-77713313D01*
X86794532Y-77939998D01*
X86794532Y-77940001D01*
X86814364Y-78166686D01*
X86814366Y-78166697D01*
X86873258Y-78386488D01*
X86873261Y-78386497D01*
X86969431Y-78592732D01*
X86969432Y-78592734D01*
X87099954Y-78779141D01*
X87260858Y-78940045D01*
X87285462Y-78957273D01*
X87329087Y-79011849D01*
X87336281Y-79081348D01*
X87304758Y-79143703D01*
X87244529Y-79179117D01*
X87227593Y-79182138D01*
X87192516Y-79185908D01*
X87057671Y-79236202D01*
X87057664Y-79236206D01*
X86942455Y-79322452D01*
X86942452Y-79322455D01*
X86856206Y-79437664D01*
X86856202Y-79437671D01*
X86805908Y-79572517D01*
X86799501Y-79632116D01*
X86799500Y-79632127D01*
X86799500Y-81327870D01*
X86799501Y-81327876D01*
X86805908Y-81387483D01*
X86856202Y-81522328D01*
X86860454Y-81530114D01*
X86859278Y-81530755D01*
X86880486Y-81587619D01*
X86865633Y-81655891D01*
X86816226Y-81705296D01*
X86767610Y-81719990D01*
X86603312Y-81734364D01*
X86603302Y-81734366D01*
X86383511Y-81793258D01*
X86383502Y-81793261D01*
X86177267Y-81889431D01*
X86177265Y-81889432D01*
X85990858Y-82019954D01*
X85829954Y-82180858D01*
X85699432Y-82367265D01*
X85699431Y-82367267D01*
X85672382Y-82425275D01*
X85626209Y-82477714D01*
X85559016Y-82496866D01*
X85492135Y-82476650D01*
X85447618Y-82425275D01*
X85435510Y-82399309D01*
X85420568Y-82367266D01*
X85290047Y-82180861D01*
X85290045Y-82180858D01*
X85129141Y-82019954D01*
X84942734Y-81889432D01*
X84942732Y-81889431D01*
X84736497Y-81793261D01*
X84736488Y-81793258D01*
X84516697Y-81734366D01*
X84516693Y-81734365D01*
X84516692Y-81734365D01*
X84516691Y-81734364D01*
X84516686Y-81734364D01*
X84290002Y-81714532D01*
X84289998Y-81714532D01*
X84063313Y-81734364D01*
X84063302Y-81734366D01*
X83843511Y-81793258D01*
X83843502Y-81793261D01*
X83637267Y-81889431D01*
X83637265Y-81889432D01*
X83450858Y-82019954D01*
X83289954Y-82180858D01*
X83159432Y-82367265D01*
X83159431Y-82367267D01*
X83132382Y-82425275D01*
X83086209Y-82477714D01*
X83019016Y-82496866D01*
X82952135Y-82476650D01*
X82907618Y-82425275D01*
X82895510Y-82399309D01*
X82880568Y-82367266D01*
X82750047Y-82180861D01*
X82750045Y-82180858D01*
X82589141Y-82019954D01*
X82402734Y-81889432D01*
X82402732Y-81889431D01*
X82196497Y-81793261D01*
X82196488Y-81793258D01*
X81976697Y-81734366D01*
X81976693Y-81734365D01*
X81976692Y-81734365D01*
X81976691Y-81734364D01*
X81976686Y-81734364D01*
X81750002Y-81714532D01*
X81749998Y-81714532D01*
X81523313Y-81734364D01*
X81523302Y-81734366D01*
X81303511Y-81793258D01*
X81303502Y-81793261D01*
X81097267Y-81889431D01*
X81097265Y-81889432D01*
X80910858Y-82019954D01*
X80749954Y-82180858D01*
X80619432Y-82367265D01*
X80619431Y-82367267D01*
X80592382Y-82425275D01*
X80546209Y-82477714D01*
X80479016Y-82496866D01*
X80412135Y-82476650D01*
X80367618Y-82425275D01*
X80355510Y-82399309D01*
X80340568Y-82367266D01*
X80210047Y-82180861D01*
X80210045Y-82180858D01*
X80049141Y-82019954D01*
X79862734Y-81889432D01*
X79862732Y-81889431D01*
X79656497Y-81793261D01*
X79656488Y-81793258D01*
X79436697Y-81734366D01*
X79436693Y-81734365D01*
X79436692Y-81734365D01*
X79436691Y-81734364D01*
X79436686Y-81734364D01*
X79210002Y-81714532D01*
X79209998Y-81714532D01*
X78983313Y-81734364D01*
X78983302Y-81734366D01*
X78763511Y-81793258D01*
X78763502Y-81793261D01*
X78557267Y-81889431D01*
X78557265Y-81889432D01*
X78370858Y-82019954D01*
X78209954Y-82180858D01*
X78079433Y-82367264D01*
X78079432Y-82367266D01*
X78053594Y-82422677D01*
X78052106Y-82425867D01*
X78005933Y-82478306D01*
X77938739Y-82497457D01*
X77871858Y-82477241D01*
X77827342Y-82425865D01*
X77800135Y-82367520D01*
X77800134Y-82367518D01*
X77669657Y-82181179D01*
X77508820Y-82020342D01*
X77322482Y-81889865D01*
X77116328Y-81793734D01*
X76920000Y-81741127D01*
X76920000Y-82704314D01*
X76915606Y-82699920D01*
X76824394Y-82647259D01*
X76722661Y-82620000D01*
X76617339Y-82620000D01*
X76515606Y-82647259D01*
X76424394Y-82699920D01*
X76420000Y-82704314D01*
X76420000Y-81741127D01*
X76223671Y-81793734D01*
X76017517Y-81889865D01*
X75831179Y-82020342D01*
X75670342Y-82181179D01*
X75539865Y-82367517D01*
X75512382Y-82426457D01*
X75466210Y-82478896D01*
X75399016Y-82498048D01*
X75332135Y-82477832D01*
X75287618Y-82426457D01*
X75260134Y-82367517D01*
X75129657Y-82181179D01*
X74968820Y-82020342D01*
X74782482Y-81889865D01*
X74576328Y-81793734D01*
X74380000Y-81741127D01*
X74380000Y-82704314D01*
X74375606Y-82699920D01*
X74284394Y-82647259D01*
X74182661Y-82620000D01*
X74077339Y-82620000D01*
X73975606Y-82647259D01*
X73884394Y-82699920D01*
X73880000Y-82704314D01*
X73880000Y-81741127D01*
X73683668Y-81793735D01*
X73673380Y-81798533D01*
X73604302Y-81809024D01*
X73540519Y-81780502D01*
X73502281Y-81722025D01*
X73501728Y-81652157D01*
X73539036Y-81593082D01*
X73549833Y-81584590D01*
X73699139Y-81480047D01*
X73860047Y-81319139D01*
X73990568Y-81132734D01*
X74086739Y-80926496D01*
X74145635Y-80706692D01*
X74165468Y-80480000D01*
X74164599Y-80470072D01*
X74147491Y-80274526D01*
X74145635Y-80253308D01*
X74097093Y-80072147D01*
X74086741Y-80033511D01*
X74086738Y-80033502D01*
X74074831Y-80007967D01*
X73990568Y-79827266D01*
X73860047Y-79640861D01*
X73860045Y-79640858D01*
X73699141Y-79479954D01*
X73512734Y-79349432D01*
X73512732Y-79349431D01*
X73501275Y-79344088D01*
X73454132Y-79322105D01*
X73401694Y-79275934D01*
X73382542Y-79208740D01*
X73402758Y-79141859D01*
X73454134Y-79097341D01*
X73512484Y-79070132D01*
X73698820Y-78939657D01*
X73859657Y-78778820D01*
X73990134Y-78592482D01*
X74086265Y-78386326D01*
X74086269Y-78386317D01*
X74138872Y-78190000D01*
X73175686Y-78190000D01*
X73180080Y-78185606D01*
X73232741Y-78094394D01*
X73260000Y-77992661D01*
X73260000Y-77887339D01*
X73232741Y-77785606D01*
X73180080Y-77694394D01*
X73175686Y-77690000D01*
X74138872Y-77690000D01*
X74138872Y-77689999D01*
X74086269Y-77493682D01*
X74086265Y-77493673D01*
X73990134Y-77287517D01*
X73859657Y-77101179D01*
X73698820Y-76940342D01*
X73512482Y-76809865D01*
X73454133Y-76782657D01*
X73401694Y-76736484D01*
X73382542Y-76669291D01*
X73402758Y-76602410D01*
X73454129Y-76557895D01*
X73512734Y-76530568D01*
X73699139Y-76400047D01*
X73860047Y-76239139D01*
X73950026Y-76110634D01*
X73972613Y-76078377D01*
X74027189Y-76034752D01*
X74074188Y-76025500D01*
X85144548Y-76025500D01*
X85211587Y-76045185D01*
G37*
%TD.AperFunction*%
%TA.AperFunction,Conductor*%
G36*
X94606087Y-77709685D02*
G01*
X94626729Y-77726319D01*
X96411016Y-79510606D01*
X96411045Y-79510637D01*
X96501264Y-79600856D01*
X96501267Y-79600858D01*
X96548066Y-79632128D01*
X96603715Y-79669312D01*
X96664602Y-79694532D01*
X96664603Y-79694532D01*
X96664604Y-79694533D01*
X96670809Y-79697103D01*
X96717548Y-79716463D01*
X96777971Y-79728481D01*
X96838393Y-79740500D01*
X96838394Y-79740500D01*
X96920081Y-79740500D01*
X96987120Y-79760185D01*
X97032875Y-79812989D01*
X97042819Y-79882147D01*
X97032463Y-79916905D01*
X96986098Y-80016335D01*
X96986094Y-80016344D01*
X96924938Y-80244586D01*
X96924936Y-80244596D01*
X96904341Y-80479999D01*
X96904341Y-80480001D01*
X96921604Y-80677316D01*
X96907837Y-80745816D01*
X96859222Y-80795999D01*
X96791194Y-80811932D01*
X96725350Y-80788557D01*
X96710395Y-80775804D01*
X94847928Y-78913338D01*
X94847925Y-78913334D01*
X94847925Y-78913335D01*
X94840858Y-78906268D01*
X94840858Y-78906267D01*
X94753733Y-78819142D01*
X94753732Y-78819141D01*
X94753731Y-78819140D01*
X94702509Y-78784915D01*
X94693387Y-78778820D01*
X94651286Y-78750688D01*
X94568185Y-78716267D01*
X94568183Y-78716265D01*
X94537456Y-78703538D01*
X94537446Y-78703535D01*
X94487489Y-78693598D01*
X94425578Y-78661213D01*
X94391004Y-78600497D01*
X94394745Y-78530727D01*
X94399299Y-78519576D01*
X94453430Y-78403492D01*
X94453432Y-78403486D01*
X94510636Y-78190000D01*
X93613012Y-78190000D01*
X93645925Y-78132993D01*
X93680000Y-78005826D01*
X93680000Y-77874174D01*
X93645925Y-77747007D01*
X93613012Y-77690000D01*
X94539048Y-77690000D01*
X94606087Y-77709685D01*
G37*
%TD.AperFunction*%
%TA.AperFunction,Conductor*%
G36*
X91790325Y-77476778D02*
G01*
X91846258Y-77518650D01*
X91870675Y-77584114D01*
X91866766Y-77625053D01*
X91849363Y-77689999D01*
X91849364Y-77690000D01*
X92746988Y-77690000D01*
X92714075Y-77747007D01*
X92680000Y-77874174D01*
X92680000Y-78005826D01*
X92714075Y-78132993D01*
X92746988Y-78190000D01*
X91849364Y-78190000D01*
X91906567Y-78403486D01*
X91906571Y-78403497D01*
X91953015Y-78503096D01*
X91963507Y-78572173D01*
X91934987Y-78635957D01*
X91876510Y-78674196D01*
X91840633Y-78679500D01*
X90767903Y-78679500D01*
X90700864Y-78659815D01*
X90655109Y-78607011D01*
X90645165Y-78537853D01*
X90674190Y-78474297D01*
X90699010Y-78452398D01*
X90738733Y-78425858D01*
X90825858Y-78338733D01*
X90825859Y-78338731D01*
X90832925Y-78331665D01*
X90832927Y-78331661D01*
X91659311Y-77505277D01*
X91720633Y-77471794D01*
X91790325Y-77476778D01*
G37*
%TD.AperFunction*%
%TA.AperFunction,Conductor*%
G36*
X133354075Y-72667007D02*
G01*
X133320000Y-72794174D01*
X133320000Y-72925826D01*
X133354075Y-73052993D01*
X133386988Y-73110000D01*
X132489364Y-73110000D01*
X132546567Y-73323486D01*
X132546570Y-73323492D01*
X132646399Y-73537578D01*
X132781894Y-73731082D01*
X132948917Y-73898105D01*
X133134595Y-74028119D01*
X133178219Y-74082696D01*
X133185412Y-74152195D01*
X133153890Y-74214549D01*
X133134595Y-74231269D01*
X132948594Y-74361508D01*
X132781505Y-74528597D01*
X132645965Y-74722169D01*
X132645964Y-74722171D01*
X132546098Y-74936335D01*
X132546094Y-74936344D01*
X132484938Y-75164586D01*
X132484936Y-75164596D01*
X132464341Y-75399999D01*
X132464341Y-75400000D01*
X132484936Y-75635403D01*
X132484938Y-75635413D01*
X132511856Y-75735872D01*
X132510193Y-75805722D01*
X132479762Y-75855646D01*
X132263928Y-76071481D01*
X132202608Y-76104965D01*
X132176249Y-76107799D01*
X130094701Y-76107799D01*
X130027662Y-76088114D01*
X129981907Y-76035310D01*
X129971963Y-75966152D01*
X129982319Y-75931394D01*
X130013903Y-75863663D01*
X130075063Y-75635408D01*
X130095659Y-75400000D01*
X130075063Y-75164592D01*
X130024978Y-74977669D01*
X130020969Y-74962707D01*
X130022632Y-74892857D01*
X130061795Y-74834995D01*
X130116552Y-74808997D01*
X130202782Y-74791844D01*
X130244328Y-74783580D01*
X130308069Y-74757177D01*
X130371807Y-74730777D01*
X130371808Y-74730776D01*
X130371811Y-74730775D01*
X130486543Y-74654114D01*
X132494337Y-72646318D01*
X132555660Y-72612834D01*
X132582018Y-72610000D01*
X133386988Y-72610000D01*
X133354075Y-72667007D01*
G37*
%TD.AperFunction*%
%TA.AperFunction,Conductor*%
G36*
X71335520Y-72330185D02*
G01*
X71356162Y-72346819D01*
X71538972Y-72529629D01*
X71572457Y-72590952D01*
X71574819Y-72628117D01*
X71554532Y-72859998D01*
X71554532Y-72860001D01*
X71574364Y-73086686D01*
X71574366Y-73086697D01*
X71633258Y-73306488D01*
X71633260Y-73306492D01*
X71633261Y-73306496D01*
X71687307Y-73422397D01*
X71710948Y-73473095D01*
X71721440Y-73542173D01*
X71692920Y-73605957D01*
X71634444Y-73644196D01*
X71598566Y-73649500D01*
X69096051Y-73649500D01*
X69029012Y-73629815D01*
X68983257Y-73577011D01*
X68973313Y-73507853D01*
X68983669Y-73473095D01*
X69053429Y-73323492D01*
X69053432Y-73323486D01*
X69110636Y-73110000D01*
X68213012Y-73110000D01*
X68245925Y-73052993D01*
X68280000Y-72925826D01*
X68280000Y-72794174D01*
X68245925Y-72667007D01*
X68213012Y-72610000D01*
X69110636Y-72610000D01*
X69110635Y-72609999D01*
X69072210Y-72466594D01*
X69073873Y-72396744D01*
X69113035Y-72338881D01*
X69177264Y-72311377D01*
X69191985Y-72310500D01*
X71268481Y-72310500D01*
X71335520Y-72330185D01*
G37*
%TD.AperFunction*%
%TA.AperFunction,Conductor*%
G36*
X86793420Y-72380185D02*
G01*
X86839175Y-72432989D01*
X86849119Y-72502147D01*
X86846156Y-72516594D01*
X86821128Y-72609999D01*
X86821128Y-72610000D01*
X87784314Y-72610000D01*
X87779920Y-72614394D01*
X87727259Y-72705606D01*
X87700000Y-72807339D01*
X87700000Y-72912661D01*
X87727259Y-73014394D01*
X87779920Y-73105606D01*
X87784314Y-73110000D01*
X86821128Y-73110000D01*
X86873730Y-73306317D01*
X86873734Y-73306326D01*
X86951499Y-73473095D01*
X86961991Y-73542173D01*
X86933471Y-73605957D01*
X86874994Y-73644196D01*
X86839117Y-73649500D01*
X80348070Y-73649500D01*
X80281031Y-73629815D01*
X80235276Y-73577011D01*
X80225332Y-73507853D01*
X80254357Y-73444297D01*
X80279180Y-73422397D01*
X80306543Y-73404114D01*
X81313838Y-72396819D01*
X81375161Y-72363334D01*
X81401519Y-72360500D01*
X86726381Y-72360500D01*
X86793420Y-72380185D01*
G37*
%TD.AperFunction*%
%TA.AperFunction,Conductor*%
G36*
X89765520Y-72380185D02*
G01*
X89786162Y-72396819D01*
X90742161Y-73352819D01*
X90775646Y-73414142D01*
X90770662Y-73483834D01*
X90728790Y-73539767D01*
X90663326Y-73564184D01*
X90654480Y-73564500D01*
X89400519Y-73564500D01*
X89333480Y-73544815D01*
X89287725Y-73492011D01*
X89277781Y-73422853D01*
X89288137Y-73388095D01*
X89326265Y-73306326D01*
X89326269Y-73306317D01*
X89378872Y-73110000D01*
X88415686Y-73110000D01*
X88420080Y-73105606D01*
X88472741Y-73014394D01*
X88500000Y-72912661D01*
X88500000Y-72807339D01*
X88472741Y-72705606D01*
X88420080Y-72614394D01*
X88415686Y-72610000D01*
X89378872Y-72610000D01*
X89378871Y-72609999D01*
X89353844Y-72516594D01*
X89355507Y-72446744D01*
X89394669Y-72388881D01*
X89458898Y-72361377D01*
X89473619Y-72360500D01*
X89698481Y-72360500D01*
X89765520Y-72380185D01*
G37*
%TD.AperFunction*%
%TA.AperFunction,Conductor*%
G36*
X85507861Y-51850185D02*
G01*
X85553616Y-51902989D01*
X85563560Y-51972147D01*
X85534535Y-52035703D01*
X85519488Y-52050352D01*
X85514875Y-52054137D01*
X85492678Y-52076335D01*
X85427746Y-52141267D01*
X85427743Y-52141270D01*
X84565833Y-53003181D01*
X84504510Y-53036666D01*
X84478152Y-53039500D01*
X81853619Y-53039500D01*
X81786580Y-53019815D01*
X81740825Y-52967011D01*
X81730881Y-52897853D01*
X81733844Y-52883406D01*
X81758872Y-52790000D01*
X80795686Y-52790000D01*
X80800080Y-52785606D01*
X80852741Y-52694394D01*
X80880000Y-52592661D01*
X80880000Y-52487339D01*
X80852741Y-52385606D01*
X80800080Y-52294394D01*
X80795686Y-52290000D01*
X81758872Y-52290000D01*
X81758872Y-52289999D01*
X81706269Y-52093682D01*
X81706266Y-52093673D01*
X81665805Y-52006905D01*
X81655313Y-51937828D01*
X81683833Y-51874044D01*
X81742309Y-51835804D01*
X81778187Y-51830500D01*
X85440822Y-51830500D01*
X85507861Y-51850185D01*
G37*
%TD.AperFunction*%
%TD*%
M02*
