%TF.GenerationSoftware,KiCad,Pcbnew,8.0.7*%
%TF.CreationDate,2025-09-11T19:41:31+01:00*%
%TF.ProjectId,ArduinoAY38910,41726475-696e-46f4-9159-33383931302e,rev?*%
%TF.SameCoordinates,Original*%
%TF.FileFunction,Soldermask,Top*%
%TF.FilePolarity,Negative*%
%FSLAX46Y46*%
G04 Gerber Fmt 4.6, Leading zero omitted, Abs format (unit mm)*
G04 Created by KiCad (PCBNEW 8.0.7) date 2025-09-11 19:41:31*
%MOMM*%
%LPD*%
G01*
G04 APERTURE LIST*
G04 Aperture macros list*
%AMFreePoly0*
4,1,19,0.500000,-0.750000,0.000000,-0.750000,0.000000,-0.744911,-0.071157,-0.744911,-0.207708,-0.704816,-0.327430,-0.627875,-0.420627,-0.520320,-0.479746,-0.390866,-0.500000,-0.250000,-0.500000,0.250000,-0.479746,0.390866,-0.420627,0.520320,-0.327430,0.627875,-0.207708,0.704816,-0.071157,0.744911,0.000000,0.744911,0.000000,0.750000,0.500000,0.750000,0.500000,-0.750000,0.500000,-0.750000,
$1*%
%AMFreePoly1*
4,1,19,0.000000,0.744911,0.071157,0.744911,0.207708,0.704816,0.327430,0.627875,0.420627,0.520320,0.479746,0.390866,0.500000,0.250000,0.500000,-0.250000,0.479746,-0.390866,0.420627,-0.520320,0.327430,-0.627875,0.207708,-0.704816,0.071157,-0.744911,0.000000,-0.744911,0.000000,-0.750000,-0.500000,-0.750000,-0.500000,0.750000,0.000000,0.750000,0.000000,0.744911,0.000000,0.744911,
$1*%
G04 Aperture macros list end*
%ADD10R,1.700000X1.700000*%
%ADD11O,1.700000X1.700000*%
%ADD12R,1.600000X1.600000*%
%ADD13C,1.600000*%
%ADD14O,1.600000X1.600000*%
%ADD15C,3.200000*%
%ADD16C,1.200000*%
%ADD17O,2.200000X1.200000*%
%ADD18O,2.300000X1.600000*%
%ADD19O,1.200000X2.200000*%
%ADD20O,2.500000X1.600000*%
%ADD21FreePoly0,270.000000*%
%ADD22FreePoly1,270.000000*%
%ADD23FreePoly0,180.000000*%
%ADD24FreePoly1,180.000000*%
G04 APERTURE END LIST*
D10*
%TO.C,J1*%
X127940000Y-97460000D03*
D11*
X130480000Y-97460000D03*
X133020000Y-97460000D03*
X135560000Y-97460000D03*
X138100000Y-97460000D03*
X140640000Y-97460000D03*
X143180000Y-97460000D03*
X145720000Y-97460000D03*
%TD*%
D10*
%TO.C,J3*%
X150800000Y-97460000D03*
D11*
X153340000Y-97460000D03*
X155880000Y-97460000D03*
X158420000Y-97460000D03*
X160960000Y-97460000D03*
X163500000Y-97460000D03*
%TD*%
D10*
%TO.C,J2*%
X118796000Y-49200000D03*
D11*
X121336000Y-49200000D03*
X123876000Y-49200000D03*
X126416000Y-49200000D03*
X128956000Y-49200000D03*
X131496000Y-49200000D03*
X134036000Y-49200000D03*
X136576000Y-49200000D03*
X139116000Y-49200000D03*
X141656000Y-49200000D03*
%TD*%
D10*
%TO.C,J4*%
X145720000Y-49200000D03*
D11*
X148260000Y-49200000D03*
X150800000Y-49200000D03*
X153340000Y-49200000D03*
X155880000Y-49200000D03*
X158420000Y-49200000D03*
X160960000Y-49200000D03*
X163500000Y-49200000D03*
%TD*%
D12*
%TO.C,C2*%
X110800000Y-76300000D03*
D13*
X110800000Y-78800000D03*
%TD*%
D10*
%TO.C,J9*%
X135560000Y-94000000D03*
D11*
X138100000Y-94000000D03*
X140640000Y-94000000D03*
X143180000Y-94000000D03*
X145720000Y-94000000D03*
%TD*%
D10*
%TO.C,J8*%
X160960000Y-94000000D03*
D11*
X163500000Y-94000000D03*
%TD*%
D10*
%TO.C,J10*%
X126416000Y-52500000D03*
D11*
X123876000Y-52500000D03*
X121336000Y-52500000D03*
X118796000Y-52500000D03*
%TD*%
D13*
%TO.C,R10*%
X110700000Y-69000000D03*
D14*
X103080000Y-69000000D03*
%TD*%
D13*
%TO.C,R1*%
X110700000Y-49800000D03*
D14*
X103080000Y-49800000D03*
%TD*%
D13*
%TO.C,R2*%
X110700000Y-53000000D03*
D14*
X103080000Y-53000000D03*
%TD*%
D12*
%TO.C,C1*%
X103400000Y-76300000D03*
D13*
X103400000Y-78800000D03*
%TD*%
D12*
%TO.C,U2*%
X165000000Y-74000000D03*
D14*
X162460000Y-74000000D03*
X159920000Y-74000000D03*
X157380000Y-74000000D03*
X154840000Y-74000000D03*
X152300000Y-74000000D03*
X149760000Y-74000000D03*
X147220000Y-74000000D03*
X144680000Y-74000000D03*
X142140000Y-74000000D03*
X139600000Y-74000000D03*
X137060000Y-74000000D03*
X134520000Y-74000000D03*
X131980000Y-74000000D03*
X129440000Y-74000000D03*
X126900000Y-74000000D03*
X124360000Y-74000000D03*
X121820000Y-74000000D03*
X119280000Y-74000000D03*
X116740000Y-74000000D03*
X116740000Y-89240000D03*
X119280000Y-89240000D03*
X121820000Y-89240000D03*
X124360000Y-89240000D03*
X126900000Y-89240000D03*
X129440000Y-89240000D03*
X131980000Y-89240000D03*
X134520000Y-89240000D03*
X137060000Y-89240000D03*
X139600000Y-89240000D03*
X142140000Y-89240000D03*
X144680000Y-89240000D03*
X147220000Y-89240000D03*
X149760000Y-89240000D03*
X152300000Y-89240000D03*
X154840000Y-89240000D03*
X157380000Y-89240000D03*
X159920000Y-89240000D03*
X162460000Y-89240000D03*
X165000000Y-89240000D03*
%TD*%
D12*
%TO.C,U1*%
X165000000Y-55750000D03*
D14*
X162460000Y-55750000D03*
X159920000Y-55750000D03*
X157380000Y-55750000D03*
X154840000Y-55750000D03*
X152300000Y-55750000D03*
X149760000Y-55750000D03*
X147220000Y-55750000D03*
X144680000Y-55750000D03*
X142140000Y-55750000D03*
X139600000Y-55750000D03*
X137060000Y-55750000D03*
X134520000Y-55750000D03*
X131980000Y-55750000D03*
X129440000Y-55750000D03*
X126900000Y-55750000D03*
X124360000Y-55750000D03*
X121820000Y-55750000D03*
X119280000Y-55750000D03*
X116740000Y-55750000D03*
X116740000Y-70990000D03*
X119280000Y-70990000D03*
X121820000Y-70990000D03*
X124360000Y-70990000D03*
X126900000Y-70990000D03*
X129440000Y-70990000D03*
X131980000Y-70990000D03*
X134520000Y-70990000D03*
X137060000Y-70990000D03*
X139600000Y-70990000D03*
X142140000Y-70990000D03*
X144680000Y-70990000D03*
X147220000Y-70990000D03*
X149760000Y-70990000D03*
X152300000Y-70990000D03*
X154840000Y-70990000D03*
X157380000Y-70990000D03*
X159920000Y-70990000D03*
X162460000Y-70990000D03*
X165000000Y-70990000D03*
%TD*%
D15*
%TO.C,MH1*%
X115240000Y-49200000D03*
%TD*%
D10*
%TO.C,J6*%
X163500000Y-52500000D03*
D11*
X160960000Y-52500000D03*
%TD*%
D13*
%TO.C,R8*%
X110700000Y-62600000D03*
D14*
X103080000Y-62600000D03*
%TD*%
D13*
%TO.C,C4*%
X162300000Y-79500000D03*
X162300000Y-84500000D03*
%TD*%
D16*
%TO.C,J5*%
X104480000Y-83500000D03*
X101980000Y-83500000D03*
X109480000Y-88500000D03*
X104480000Y-93500000D03*
X101980000Y-93500000D03*
D17*
X109480000Y-83500000D03*
D18*
X109480000Y-86000000D03*
D19*
X104480000Y-88500000D03*
D17*
X109480000Y-93500000D03*
D20*
X109480000Y-91000000D03*
%TD*%
D13*
%TO.C,R14*%
X110700000Y-72200000D03*
D14*
X103080000Y-72200000D03*
%TD*%
D13*
%TO.C,R7*%
X110700000Y-59400000D03*
D14*
X103080000Y-59400000D03*
%TD*%
D13*
%TO.C,R3*%
X110700000Y-56200000D03*
D14*
X103080000Y-56200000D03*
%TD*%
D21*
%TO.C,JP2*%
X114350000Y-92225000D03*
D22*
X114350000Y-93525000D03*
%TD*%
D15*
%TO.C,MH2*%
X113970000Y-97460000D03*
%TD*%
%TO.C,MH3*%
X166040000Y-64440000D03*
%TD*%
D13*
%TO.C,C3*%
X162300000Y-60250000D03*
X162300000Y-65250000D03*
%TD*%
D15*
%TO.C,MH4*%
X166040000Y-92380000D03*
%TD*%
D10*
%TO.C,J7*%
X131496000Y-52500000D03*
D11*
X128956000Y-52500000D03*
%TD*%
D23*
%TO.C,JP1*%
X107800000Y-80850000D03*
D24*
X106500000Y-80850000D03*
%TD*%
D13*
%TO.C,R9*%
X110700000Y-65800000D03*
D14*
X103080000Y-65800000D03*
%TD*%
M02*
