%TF.GenerationSoftware,KiCad,Pcbnew,8.0.7*%
%TF.CreationDate,2025-09-11T19:41:31+01:00*%
%TF.ProjectId,ArduinoAY38910,41726475-696e-46f4-9159-33383931302e,rev?*%
%TF.SameCoordinates,Original*%
%TF.FileFunction,Profile,NP*%
%FSLAX46Y46*%
G04 Gerber Fmt 4.6, Leading zero omitted, Abs format (unit mm)*
G04 Created by KiCad (PCBNEW 8.0.7) date 2025-09-11 19:41:31*
%MOMM*%
%LPD*%
G01*
G04 APERTURE LIST*
%TA.AperFunction,Profile*%
%ADD10C,0.150000*%
%TD*%
%TA.AperFunction,Profile*%
%ADD11C,0.120000*%
%TD*%
G04 APERTURE END LIST*
D10*
X99980000Y-82000000D02*
X100000000Y-47422000D01*
X168575000Y-51600000D02*
X166040000Y-49200000D01*
X168580000Y-61900000D02*
X168575000Y-51600000D01*
X168580000Y-61900000D02*
X168580000Y-96190000D01*
X165278000Y-100000000D02*
X100762000Y-100000000D01*
X100762000Y-46660000D02*
X163500000Y-46660000D01*
X100762000Y-100000000D02*
G75*
G02*
X100000000Y-99238000I0J762000D01*
G01*
X168580000Y-96190000D02*
X166040000Y-98730000D01*
X163500000Y-46660000D02*
X166040000Y-49200000D01*
X166040000Y-99238000D02*
G75*
G02*
X165278000Y-100000000I-762000J0D01*
G01*
X166040000Y-98730000D02*
X166040000Y-99238000D01*
X100000000Y-47422000D02*
G75*
G02*
X100762000Y-46660000I762000J0D01*
G01*
X99980000Y-95000000D02*
X100000000Y-99238000D01*
D11*
%TO.C,J5*%
X99980000Y-86300000D02*
X99980000Y-82000000D01*
X99980000Y-90700000D02*
X99980000Y-95000000D01*
X100980000Y-86300000D02*
X99980000Y-86300000D01*
X100980000Y-90700000D02*
X99980000Y-90700000D01*
X101380000Y-90300000D02*
X101380000Y-86700000D01*
X100980000Y-86300000D02*
G75*
G02*
X101380000Y-86700000I-2J-400002D01*
G01*
X101380000Y-90300000D02*
G75*
G02*
X100980000Y-90700000I-400000J0D01*
G01*
%TD*%
M02*
