G04 #@! TF.GenerationSoftware,KiCad,Pcbnew,(6.0.5)*
G04 #@! TF.CreationDate,2022-07-28T08:19:04+01:00*
G04 #@! TF.ProjectId,RPi-MiniDexed-IOBoard-HD44780,5250692d-4d69-46e6-9944-657865642d49,rev?*
G04 #@! TF.SameCoordinates,Original*
G04 #@! TF.FileFunction,Legend,Top*
G04 #@! TF.FilePolarity,Positive*
%FSLAX46Y46*%
G04 Gerber Fmt 4.6, Leading zero omitted, Abs format (unit mm)*
G04 Created by KiCad (PCBNEW (6.0.5)) date 2022-07-28 08:19:04*
%MOMM*%
%LPD*%
G01*
G04 APERTURE LIST*
%ADD10C,0.150000*%
%ADD11C,0.250000*%
%ADD12C,0.304800*%
%ADD13C,0.120000*%
%ADD14C,2.499360*%
G04 APERTURE END LIST*
D10*
X266192000Y-82804000D02*
X266192000Y-135636000D01*
D11*
X224179333Y-127550380D02*
X224179333Y-128359904D01*
X224226952Y-128455142D01*
X224274571Y-128502761D01*
X224369809Y-128550380D01*
X224560285Y-128550380D01*
X224655523Y-128502761D01*
X224703142Y-128455142D01*
X224750761Y-128359904D01*
X224750761Y-127550380D01*
X225179333Y-128502761D02*
X225274571Y-128550380D01*
X225465047Y-128550380D01*
X225560285Y-128502761D01*
X225607904Y-128407523D01*
X225607904Y-128359904D01*
X225560285Y-128264666D01*
X225465047Y-128217047D01*
X225322190Y-128217047D01*
X225226952Y-128169428D01*
X225179333Y-128074190D01*
X225179333Y-128026571D01*
X225226952Y-127931333D01*
X225322190Y-127883714D01*
X225465047Y-127883714D01*
X225560285Y-127931333D01*
X226417428Y-128502761D02*
X226322190Y-128550380D01*
X226131714Y-128550380D01*
X226036476Y-128502761D01*
X225988857Y-128407523D01*
X225988857Y-128026571D01*
X226036476Y-127931333D01*
X226131714Y-127883714D01*
X226322190Y-127883714D01*
X226417428Y-127931333D01*
X226465047Y-128026571D01*
X226465047Y-128121809D01*
X225988857Y-128217047D01*
X227798380Y-128550380D02*
X227703142Y-128502761D01*
X227655523Y-128455142D01*
X227607904Y-128359904D01*
X227607904Y-128074190D01*
X227655523Y-127978952D01*
X227703142Y-127931333D01*
X227798380Y-127883714D01*
X227941238Y-127883714D01*
X228036476Y-127931333D01*
X228084095Y-127978952D01*
X228131714Y-128074190D01*
X228131714Y-128359904D01*
X228084095Y-128455142D01*
X228036476Y-128502761D01*
X227941238Y-128550380D01*
X227798380Y-128550380D01*
X228417428Y-127883714D02*
X228798380Y-127883714D01*
X228560285Y-128550380D02*
X228560285Y-127693238D01*
X228607904Y-127598000D01*
X228703142Y-127550380D01*
X228798380Y-127550380D01*
X229893619Y-128550380D02*
X229893619Y-127550380D01*
X230226952Y-128264666D01*
X230560285Y-127550380D01*
X230560285Y-128550380D01*
X231036476Y-128550380D02*
X231036476Y-127550380D01*
X231512666Y-128550380D02*
X231512666Y-127550380D01*
X231750761Y-127550380D01*
X231893619Y-127598000D01*
X231988857Y-127693238D01*
X232036476Y-127788476D01*
X232084095Y-127978952D01*
X232084095Y-128121809D01*
X232036476Y-128312285D01*
X231988857Y-128407523D01*
X231893619Y-128502761D01*
X231750761Y-128550380D01*
X231512666Y-128550380D01*
X232512666Y-128550380D02*
X232512666Y-127550380D01*
X224250761Y-129160380D02*
X224441238Y-129160380D01*
X224536476Y-129208000D01*
X224631714Y-129303238D01*
X224679333Y-129493714D01*
X224679333Y-129827047D01*
X224631714Y-130017523D01*
X224536476Y-130112761D01*
X224441238Y-130160380D01*
X224250761Y-130160380D01*
X224155523Y-130112761D01*
X224060285Y-130017523D01*
X224012666Y-129827047D01*
X224012666Y-129493714D01*
X224060285Y-129303238D01*
X224155523Y-129208000D01*
X224250761Y-129160380D01*
X225107904Y-129160380D02*
X225107904Y-129969904D01*
X225155523Y-130065142D01*
X225203142Y-130112761D01*
X225298380Y-130160380D01*
X225488857Y-130160380D01*
X225584095Y-130112761D01*
X225631714Y-130065142D01*
X225679333Y-129969904D01*
X225679333Y-129160380D01*
X226012666Y-129160380D02*
X226584095Y-129160380D01*
X226298380Y-130160380D02*
X226298380Y-129160380D01*
X227631714Y-130112761D02*
X227774571Y-130160380D01*
X228012666Y-130160380D01*
X228107904Y-130112761D01*
X228155523Y-130065142D01*
X228203142Y-129969904D01*
X228203142Y-129874666D01*
X228155523Y-129779428D01*
X228107904Y-129731809D01*
X228012666Y-129684190D01*
X227822190Y-129636571D01*
X227726952Y-129588952D01*
X227679333Y-129541333D01*
X227631714Y-129446095D01*
X227631714Y-129350857D01*
X227679333Y-129255619D01*
X227726952Y-129208000D01*
X227822190Y-129160380D01*
X228060285Y-129160380D01*
X228203142Y-129208000D01*
X228774571Y-130160380D02*
X228679333Y-130112761D01*
X228631714Y-130065142D01*
X228584095Y-129969904D01*
X228584095Y-129684190D01*
X228631714Y-129588952D01*
X228679333Y-129541333D01*
X228774571Y-129493714D01*
X228917428Y-129493714D01*
X229012666Y-129541333D01*
X229060285Y-129588952D01*
X229107904Y-129684190D01*
X229107904Y-129969904D01*
X229060285Y-130065142D01*
X229012666Y-130112761D01*
X228917428Y-130160380D01*
X228774571Y-130160380D01*
X229965047Y-130112761D02*
X229869809Y-130160380D01*
X229679333Y-130160380D01*
X229584095Y-130112761D01*
X229536476Y-130065142D01*
X229488857Y-129969904D01*
X229488857Y-129684190D01*
X229536476Y-129588952D01*
X229584095Y-129541333D01*
X229679333Y-129493714D01*
X229869809Y-129493714D01*
X229965047Y-129541333D01*
X230393619Y-130160380D02*
X230393619Y-129160380D01*
X230488857Y-129779428D02*
X230774571Y-130160380D01*
X230774571Y-129493714D02*
X230393619Y-129874666D01*
X231584095Y-130112761D02*
X231488857Y-130160380D01*
X231298380Y-130160380D01*
X231203142Y-130112761D01*
X231155523Y-130017523D01*
X231155523Y-129636571D01*
X231203142Y-129541333D01*
X231298380Y-129493714D01*
X231488857Y-129493714D01*
X231584095Y-129541333D01*
X231631714Y-129636571D01*
X231631714Y-129731809D01*
X231155523Y-129827047D01*
X231917428Y-129493714D02*
X232298380Y-129493714D01*
X232060285Y-129160380D02*
X232060285Y-130017523D01*
X232107904Y-130112761D01*
X232203142Y-130160380D01*
X232298380Y-130160380D01*
X232631714Y-130065142D02*
X232679333Y-130112761D01*
X232631714Y-130160380D01*
X232584095Y-130112761D01*
X232631714Y-130065142D01*
X232631714Y-130160380D01*
X232631714Y-129541333D02*
X232679333Y-129588952D01*
X232631714Y-129636571D01*
X232584095Y-129588952D01*
X232631714Y-129541333D01*
X232631714Y-129636571D01*
X224274571Y-130770380D02*
X224846000Y-130770380D01*
X224560285Y-131770380D02*
X224560285Y-130770380D01*
X225179333Y-131770380D02*
X225179333Y-130770380D01*
X225179333Y-131246571D02*
X225750761Y-131246571D01*
X225750761Y-131770380D02*
X225750761Y-130770380D01*
X226798380Y-131770380D02*
X226465047Y-131294190D01*
X226226952Y-131770380D02*
X226226952Y-130770380D01*
X226607904Y-130770380D01*
X226703142Y-130818000D01*
X226750761Y-130865619D01*
X226798380Y-130960857D01*
X226798380Y-131103714D01*
X226750761Y-131198952D01*
X226703142Y-131246571D01*
X226607904Y-131294190D01*
X226226952Y-131294190D01*
X227226952Y-130770380D02*
X227226952Y-131579904D01*
X227274571Y-131675142D01*
X227322190Y-131722761D01*
X227417428Y-131770380D01*
X227607904Y-131770380D01*
X227703142Y-131722761D01*
X227750761Y-131675142D01*
X227798380Y-131579904D01*
X227798380Y-130770380D01*
X229322190Y-132151333D02*
X229274571Y-132103714D01*
X229179333Y-131960857D01*
X229131714Y-131865619D01*
X229084095Y-131722761D01*
X229036476Y-131484666D01*
X229036476Y-131294190D01*
X229084095Y-131056095D01*
X229131714Y-130913238D01*
X229179333Y-130818000D01*
X229274571Y-130675142D01*
X229322190Y-130627523D01*
X229846000Y-131770380D02*
X229750761Y-131722761D01*
X229703142Y-131675142D01*
X229655523Y-131579904D01*
X229655523Y-131294190D01*
X229703142Y-131198952D01*
X229750761Y-131151333D01*
X229846000Y-131103714D01*
X229988857Y-131103714D01*
X230084095Y-131151333D01*
X230131714Y-131198952D01*
X230179333Y-131294190D01*
X230179333Y-131579904D01*
X230131714Y-131675142D01*
X230084095Y-131722761D01*
X229988857Y-131770380D01*
X229846000Y-131770380D01*
X230607904Y-131103714D02*
X230607904Y-132103714D01*
X230607904Y-131151333D02*
X230703142Y-131103714D01*
X230893619Y-131103714D01*
X230988857Y-131151333D01*
X231036476Y-131198952D01*
X231084095Y-131294190D01*
X231084095Y-131579904D01*
X231036476Y-131675142D01*
X230988857Y-131722761D01*
X230893619Y-131770380D01*
X230703142Y-131770380D01*
X230607904Y-131722761D01*
X231369809Y-131103714D02*
X231750761Y-131103714D01*
X231512666Y-130770380D02*
X231512666Y-131627523D01*
X231560285Y-131722761D01*
X231655523Y-131770380D01*
X231750761Y-131770380D01*
X231988857Y-132151333D02*
X232036476Y-132103714D01*
X232131714Y-131960857D01*
X232179333Y-131865619D01*
X232226952Y-131722761D01*
X232274571Y-131484666D01*
X232274571Y-131294190D01*
X232226952Y-131056095D01*
X232179333Y-130913238D01*
X232131714Y-130818000D01*
X232036476Y-130675142D01*
X231988857Y-130627523D01*
X227965047Y-133380380D02*
X227869809Y-133332761D01*
X227822190Y-133285142D01*
X227774571Y-133189904D01*
X227774571Y-132904190D01*
X227822190Y-132808952D01*
X227869809Y-132761333D01*
X227965047Y-132713714D01*
X228107904Y-132713714D01*
X228203142Y-132761333D01*
X228250761Y-132808952D01*
X228298380Y-132904190D01*
X228298380Y-133189904D01*
X228250761Y-133285142D01*
X228203142Y-133332761D01*
X228107904Y-133380380D01*
X227965047Y-133380380D01*
X228726952Y-133380380D02*
X228726952Y-132713714D01*
X228726952Y-132904190D02*
X228774571Y-132808952D01*
X228822190Y-132761333D01*
X228917428Y-132713714D01*
X229012666Y-132713714D01*
X225131714Y-133990380D02*
X225322190Y-133990380D01*
X225417428Y-134038000D01*
X225512666Y-134133238D01*
X225560285Y-134323714D01*
X225560285Y-134657047D01*
X225512666Y-134847523D01*
X225417428Y-134942761D01*
X225322190Y-134990380D01*
X225131714Y-134990380D01*
X225036476Y-134942761D01*
X224941238Y-134847523D01*
X224893619Y-134657047D01*
X224893619Y-134323714D01*
X224941238Y-134133238D01*
X225036476Y-134038000D01*
X225131714Y-133990380D01*
X225988857Y-133990380D02*
X225988857Y-134799904D01*
X226036476Y-134895142D01*
X226084095Y-134942761D01*
X226179333Y-134990380D01*
X226369809Y-134990380D01*
X226465047Y-134942761D01*
X226512666Y-134895142D01*
X226560285Y-134799904D01*
X226560285Y-133990380D01*
X226893619Y-133990380D02*
X227465047Y-133990380D01*
X227179333Y-134990380D02*
X227179333Y-133990380D01*
X228846000Y-135371333D02*
X228798380Y-135323714D01*
X228703142Y-135180857D01*
X228655523Y-135085619D01*
X228607904Y-134942761D01*
X228560285Y-134704666D01*
X228560285Y-134514190D01*
X228607904Y-134276095D01*
X228655523Y-134133238D01*
X228703142Y-134038000D01*
X228798380Y-133895142D01*
X228846000Y-133847523D01*
X229655523Y-134990380D02*
X229655523Y-133990380D01*
X229655523Y-134942761D02*
X229560285Y-134990380D01*
X229369809Y-134990380D01*
X229274571Y-134942761D01*
X229226952Y-134895142D01*
X229179333Y-134799904D01*
X229179333Y-134514190D01*
X229226952Y-134418952D01*
X229274571Y-134371333D01*
X229369809Y-134323714D01*
X229560285Y-134323714D01*
X229655523Y-134371333D01*
X230512666Y-134942761D02*
X230417428Y-134990380D01*
X230226952Y-134990380D01*
X230131714Y-134942761D01*
X230084095Y-134847523D01*
X230084095Y-134466571D01*
X230131714Y-134371333D01*
X230226952Y-134323714D01*
X230417428Y-134323714D01*
X230512666Y-134371333D01*
X230560285Y-134466571D01*
X230560285Y-134561809D01*
X230084095Y-134657047D01*
X230846000Y-134323714D02*
X231226952Y-134323714D01*
X230988857Y-134990380D02*
X230988857Y-134133238D01*
X231036476Y-134038000D01*
X231131714Y-133990380D01*
X231226952Y-133990380D01*
X231465047Y-135371333D02*
X231512666Y-135323714D01*
X231607904Y-135180857D01*
X231655523Y-135085619D01*
X231703142Y-134942761D01*
X231750761Y-134704666D01*
X231750761Y-134514190D01*
X231703142Y-134276095D01*
X231655523Y-134133238D01*
X231607904Y-134038000D01*
X231512666Y-133895142D01*
X231465047Y-133847523D01*
X204391333Y-96124380D02*
X204058000Y-95648190D01*
X203819904Y-96124380D02*
X203819904Y-95124380D01*
X204200857Y-95124380D01*
X204296095Y-95172000D01*
X204343714Y-95219619D01*
X204391333Y-95314857D01*
X204391333Y-95457714D01*
X204343714Y-95552952D01*
X204296095Y-95600571D01*
X204200857Y-95648190D01*
X203819904Y-95648190D01*
X204819904Y-96124380D02*
X204819904Y-95124380D01*
X205200857Y-95124380D01*
X205296095Y-95172000D01*
X205343714Y-95219619D01*
X205391333Y-95314857D01*
X205391333Y-95457714D01*
X205343714Y-95552952D01*
X205296095Y-95600571D01*
X205200857Y-95648190D01*
X204819904Y-95648190D01*
X205819904Y-96124380D02*
X205819904Y-95457714D01*
X205819904Y-95124380D02*
X205772285Y-95172000D01*
X205819904Y-95219619D01*
X205867523Y-95172000D01*
X205819904Y-95124380D01*
X205819904Y-95219619D01*
X207058000Y-96124380D02*
X207058000Y-95124380D01*
X207391333Y-95838666D01*
X207724666Y-95124380D01*
X207724666Y-96124380D01*
X208200857Y-96124380D02*
X208200857Y-95457714D01*
X208200857Y-95124380D02*
X208153238Y-95172000D01*
X208200857Y-95219619D01*
X208248476Y-95172000D01*
X208200857Y-95124380D01*
X208200857Y-95219619D01*
X208677047Y-95457714D02*
X208677047Y-96124380D01*
X208677047Y-95552952D02*
X208724666Y-95505333D01*
X208819904Y-95457714D01*
X208962761Y-95457714D01*
X209058000Y-95505333D01*
X209105619Y-95600571D01*
X209105619Y-96124380D01*
X209581809Y-96124380D02*
X209581809Y-95457714D01*
X209581809Y-95124380D02*
X209534190Y-95172000D01*
X209581809Y-95219619D01*
X209629428Y-95172000D01*
X209581809Y-95124380D01*
X209581809Y-95219619D01*
X210058000Y-96124380D02*
X210058000Y-95124380D01*
X210296095Y-95124380D01*
X210438952Y-95172000D01*
X210534190Y-95267238D01*
X210581809Y-95362476D01*
X210629428Y-95552952D01*
X210629428Y-95695809D01*
X210581809Y-95886285D01*
X210534190Y-95981523D01*
X210438952Y-96076761D01*
X210296095Y-96124380D01*
X210058000Y-96124380D01*
X211438952Y-96076761D02*
X211343714Y-96124380D01*
X211153238Y-96124380D01*
X211058000Y-96076761D01*
X211010380Y-95981523D01*
X211010380Y-95600571D01*
X211058000Y-95505333D01*
X211153238Y-95457714D01*
X211343714Y-95457714D01*
X211438952Y-95505333D01*
X211486571Y-95600571D01*
X211486571Y-95695809D01*
X211010380Y-95791047D01*
X211819904Y-96124380D02*
X212343714Y-95457714D01*
X211819904Y-95457714D02*
X212343714Y-96124380D01*
X213105619Y-96076761D02*
X213010380Y-96124380D01*
X212819904Y-96124380D01*
X212724666Y-96076761D01*
X212677047Y-95981523D01*
X212677047Y-95600571D01*
X212724666Y-95505333D01*
X212819904Y-95457714D01*
X213010380Y-95457714D01*
X213105619Y-95505333D01*
X213153238Y-95600571D01*
X213153238Y-95695809D01*
X212677047Y-95791047D01*
X214010380Y-96124380D02*
X214010380Y-95124380D01*
X214010380Y-96076761D02*
X213915142Y-96124380D01*
X213724666Y-96124380D01*
X213629428Y-96076761D01*
X213581809Y-96029142D01*
X213534190Y-95933904D01*
X213534190Y-95648190D01*
X213581809Y-95552952D01*
X213629428Y-95505333D01*
X213724666Y-95457714D01*
X213915142Y-95457714D01*
X214010380Y-95505333D01*
X215248476Y-96124380D02*
X215248476Y-95124380D01*
X215915142Y-95124380D02*
X216105619Y-95124380D01*
X216200857Y-95172000D01*
X216296095Y-95267238D01*
X216343714Y-95457714D01*
X216343714Y-95791047D01*
X216296095Y-95981523D01*
X216200857Y-96076761D01*
X216105619Y-96124380D01*
X215915142Y-96124380D01*
X215819904Y-96076761D01*
X215724666Y-95981523D01*
X215677047Y-95791047D01*
X215677047Y-95457714D01*
X215724666Y-95267238D01*
X215819904Y-95172000D01*
X215915142Y-95124380D01*
X204867523Y-97734380D02*
X204867523Y-96734380D01*
X204867523Y-97686761D02*
X204772285Y-97734380D01*
X204581809Y-97734380D01*
X204486571Y-97686761D01*
X204438952Y-97639142D01*
X204391333Y-97543904D01*
X204391333Y-97258190D01*
X204438952Y-97162952D01*
X204486571Y-97115333D01*
X204581809Y-97067714D01*
X204772285Y-97067714D01*
X204867523Y-97115333D01*
X205343714Y-97734380D02*
X205343714Y-97067714D01*
X205343714Y-96734380D02*
X205296095Y-96782000D01*
X205343714Y-96829619D01*
X205391333Y-96782000D01*
X205343714Y-96734380D01*
X205343714Y-96829619D01*
X205724666Y-97067714D02*
X205962761Y-97734380D01*
X206200857Y-97067714D02*
X205962761Y-97734380D01*
X205867523Y-97972476D01*
X205819904Y-98020095D01*
X205724666Y-98067714D01*
X206962761Y-97686761D02*
X206867523Y-97734380D01*
X206677047Y-97734380D01*
X206581809Y-97686761D01*
X206534190Y-97591523D01*
X206534190Y-97210571D01*
X206581809Y-97115333D01*
X206677047Y-97067714D01*
X206867523Y-97067714D01*
X206962761Y-97115333D01*
X207010380Y-97210571D01*
X207010380Y-97305809D01*
X206534190Y-97401047D01*
X207581809Y-97734380D02*
X207486571Y-97686761D01*
X207438952Y-97591523D01*
X207438952Y-96734380D01*
X208343714Y-97686761D02*
X208248476Y-97734380D01*
X208058000Y-97734380D01*
X207962761Y-97686761D01*
X207915142Y-97591523D01*
X207915142Y-97210571D01*
X207962761Y-97115333D01*
X208058000Y-97067714D01*
X208248476Y-97067714D01*
X208343714Y-97115333D01*
X208391333Y-97210571D01*
X208391333Y-97305809D01*
X207915142Y-97401047D01*
X209248476Y-97686761D02*
X209153238Y-97734380D01*
X208962761Y-97734380D01*
X208867523Y-97686761D01*
X208819904Y-97639142D01*
X208772285Y-97543904D01*
X208772285Y-97258190D01*
X208819904Y-97162952D01*
X208867523Y-97115333D01*
X208962761Y-97067714D01*
X209153238Y-97067714D01*
X209248476Y-97115333D01*
X209534190Y-97067714D02*
X209915142Y-97067714D01*
X209677047Y-96734380D02*
X209677047Y-97591523D01*
X209724666Y-97686761D01*
X209819904Y-97734380D01*
X209915142Y-97734380D01*
X210248476Y-97734380D02*
X210248476Y-97067714D01*
X210248476Y-97258190D02*
X210296095Y-97162952D01*
X210343714Y-97115333D01*
X210438952Y-97067714D01*
X210534190Y-97067714D01*
X211010380Y-97734380D02*
X210915142Y-97686761D01*
X210867523Y-97639142D01*
X210819904Y-97543904D01*
X210819904Y-97258190D01*
X210867523Y-97162952D01*
X210915142Y-97115333D01*
X211010380Y-97067714D01*
X211153238Y-97067714D01*
X211248476Y-97115333D01*
X211296095Y-97162952D01*
X211343714Y-97258190D01*
X211343714Y-97543904D01*
X211296095Y-97639142D01*
X211248476Y-97686761D01*
X211153238Y-97734380D01*
X211010380Y-97734380D01*
X211772285Y-97734380D02*
X211772285Y-97067714D01*
X211772285Y-97162952D02*
X211819904Y-97115333D01*
X211915142Y-97067714D01*
X212058000Y-97067714D01*
X212153238Y-97115333D01*
X212200857Y-97210571D01*
X212200857Y-97734380D01*
X212200857Y-97210571D02*
X212248476Y-97115333D01*
X212343714Y-97067714D01*
X212486571Y-97067714D01*
X212581809Y-97115333D01*
X212629428Y-97210571D01*
X212629428Y-97734380D01*
X213534190Y-97067714D02*
X213534190Y-97734380D01*
X213105619Y-97067714D02*
X213105619Y-97591523D01*
X213153238Y-97686761D01*
X213248476Y-97734380D01*
X213391333Y-97734380D01*
X213486571Y-97686761D01*
X213534190Y-97639142D01*
X213962761Y-97686761D02*
X214058000Y-97734380D01*
X214248476Y-97734380D01*
X214343714Y-97686761D01*
X214391333Y-97591523D01*
X214391333Y-97543904D01*
X214343714Y-97448666D01*
X214248476Y-97401047D01*
X214105619Y-97401047D01*
X214010380Y-97353428D01*
X213962761Y-97258190D01*
X213962761Y-97210571D01*
X214010380Y-97115333D01*
X214105619Y-97067714D01*
X214248476Y-97067714D01*
X214343714Y-97115333D01*
X214819904Y-97734380D02*
X214819904Y-97067714D01*
X214819904Y-96734380D02*
X214772285Y-96782000D01*
X214819904Y-96829619D01*
X214867523Y-96782000D01*
X214819904Y-96734380D01*
X214819904Y-96829619D01*
X215724666Y-97686761D02*
X215629428Y-97734380D01*
X215438952Y-97734380D01*
X215343714Y-97686761D01*
X215296095Y-97639142D01*
X215248476Y-97543904D01*
X215248476Y-97258190D01*
X215296095Y-97162952D01*
X215343714Y-97115333D01*
X215438952Y-97067714D01*
X215629428Y-97067714D01*
X215724666Y-97115333D01*
X206343714Y-98677714D02*
X206581809Y-99344380D01*
X206819904Y-98677714D01*
X207391333Y-98344380D02*
X207486571Y-98344380D01*
X207581809Y-98392000D01*
X207629428Y-98439619D01*
X207677047Y-98534857D01*
X207724666Y-98725333D01*
X207724666Y-98963428D01*
X207677047Y-99153904D01*
X207629428Y-99249142D01*
X207581809Y-99296761D01*
X207486571Y-99344380D01*
X207391333Y-99344380D01*
X207296095Y-99296761D01*
X207248476Y-99249142D01*
X207200857Y-99153904D01*
X207153238Y-98963428D01*
X207153238Y-98725333D01*
X207200857Y-98534857D01*
X207248476Y-98439619D01*
X207296095Y-98392000D01*
X207391333Y-98344380D01*
X208153238Y-99249142D02*
X208200857Y-99296761D01*
X208153238Y-99344380D01*
X208105619Y-99296761D01*
X208153238Y-99249142D01*
X208153238Y-99344380D01*
X209153238Y-99344380D02*
X208581809Y-99344380D01*
X208867523Y-99344380D02*
X208867523Y-98344380D01*
X208772285Y-98487238D01*
X208677047Y-98582476D01*
X208581809Y-98630095D01*
X210296095Y-98439619D02*
X210343714Y-98392000D01*
X210438952Y-98344380D01*
X210677047Y-98344380D01*
X210772285Y-98392000D01*
X210819904Y-98439619D01*
X210867523Y-98534857D01*
X210867523Y-98630095D01*
X210819904Y-98772952D01*
X210248476Y-99344380D01*
X210867523Y-99344380D01*
X211486571Y-98344380D02*
X211581809Y-98344380D01*
X211677047Y-98392000D01*
X211724666Y-98439619D01*
X211772285Y-98534857D01*
X211819904Y-98725333D01*
X211819904Y-98963428D01*
X211772285Y-99153904D01*
X211724666Y-99249142D01*
X211677047Y-99296761D01*
X211581809Y-99344380D01*
X211486571Y-99344380D01*
X211391333Y-99296761D01*
X211343714Y-99249142D01*
X211296095Y-99153904D01*
X211248476Y-98963428D01*
X211248476Y-98725333D01*
X211296095Y-98534857D01*
X211343714Y-98439619D01*
X211391333Y-98392000D01*
X211486571Y-98344380D01*
X212200857Y-98439619D02*
X212248476Y-98392000D01*
X212343714Y-98344380D01*
X212581809Y-98344380D01*
X212677047Y-98392000D01*
X212724666Y-98439619D01*
X212772285Y-98534857D01*
X212772285Y-98630095D01*
X212724666Y-98772952D01*
X212153238Y-99344380D01*
X212772285Y-99344380D01*
X213153238Y-98439619D02*
X213200857Y-98392000D01*
X213296095Y-98344380D01*
X213534190Y-98344380D01*
X213629428Y-98392000D01*
X213677047Y-98439619D01*
X213724666Y-98534857D01*
X213724666Y-98630095D01*
X213677047Y-98772952D01*
X213105619Y-99344380D01*
X213724666Y-99344380D01*
X270923619Y-120590380D02*
X270923619Y-119590380D01*
X271256952Y-120304666D01*
X271590285Y-119590380D01*
X271590285Y-120590380D01*
X272066476Y-120590380D02*
X272066476Y-119590380D01*
X272542666Y-120590380D02*
X272542666Y-119590380D01*
X272780761Y-119590380D01*
X272923619Y-119638000D01*
X273018857Y-119733238D01*
X273066476Y-119828476D01*
X273114095Y-120018952D01*
X273114095Y-120161809D01*
X273066476Y-120352285D01*
X273018857Y-120447523D01*
X272923619Y-120542761D01*
X272780761Y-120590380D01*
X272542666Y-120590380D01*
X273542666Y-120590380D02*
X273542666Y-119590380D01*
X274733142Y-120542761D02*
X274876000Y-120590380D01*
X275114095Y-120590380D01*
X275209333Y-120542761D01*
X275256952Y-120495142D01*
X275304571Y-120399904D01*
X275304571Y-120304666D01*
X275256952Y-120209428D01*
X275209333Y-120161809D01*
X275114095Y-120114190D01*
X274923619Y-120066571D01*
X274828380Y-120018952D01*
X274780761Y-119971333D01*
X274733142Y-119876095D01*
X274733142Y-119780857D01*
X274780761Y-119685619D01*
X274828380Y-119638000D01*
X274923619Y-119590380D01*
X275161714Y-119590380D01*
X275304571Y-119638000D01*
X275876000Y-120590380D02*
X275780761Y-120542761D01*
X275733142Y-120495142D01*
X275685523Y-120399904D01*
X275685523Y-120114190D01*
X275733142Y-120018952D01*
X275780761Y-119971333D01*
X275876000Y-119923714D01*
X276018857Y-119923714D01*
X276114095Y-119971333D01*
X276161714Y-120018952D01*
X276209333Y-120114190D01*
X276209333Y-120399904D01*
X276161714Y-120495142D01*
X276114095Y-120542761D01*
X276018857Y-120590380D01*
X275876000Y-120590380D01*
X277066476Y-120542761D02*
X276971238Y-120590380D01*
X276780761Y-120590380D01*
X276685523Y-120542761D01*
X276637904Y-120495142D01*
X276590285Y-120399904D01*
X276590285Y-120114190D01*
X276637904Y-120018952D01*
X276685523Y-119971333D01*
X276780761Y-119923714D01*
X276971238Y-119923714D01*
X277066476Y-119971333D01*
X277495047Y-120590380D02*
X277495047Y-119590380D01*
X277590285Y-120209428D02*
X277876000Y-120590380D01*
X277876000Y-119923714D02*
X277495047Y-120304666D01*
X278685523Y-120542761D02*
X278590285Y-120590380D01*
X278399809Y-120590380D01*
X278304571Y-120542761D01*
X278256952Y-120447523D01*
X278256952Y-120066571D01*
X278304571Y-119971333D01*
X278399809Y-119923714D01*
X278590285Y-119923714D01*
X278685523Y-119971333D01*
X278733142Y-120066571D01*
X278733142Y-120161809D01*
X278256952Y-120257047D01*
X279018857Y-119923714D02*
X279399809Y-119923714D01*
X279161714Y-119590380D02*
X279161714Y-120447523D01*
X279209333Y-120542761D01*
X279304571Y-120590380D01*
X279399809Y-120590380D01*
X279685523Y-120542761D02*
X279780761Y-120590380D01*
X279971238Y-120590380D01*
X280066476Y-120542761D01*
X280114095Y-120447523D01*
X280114095Y-120399904D01*
X280066476Y-120304666D01*
X279971238Y-120257047D01*
X279828380Y-120257047D01*
X279733142Y-120209428D01*
X279685523Y-120114190D01*
X279685523Y-120066571D01*
X279733142Y-119971333D01*
X279828380Y-119923714D01*
X279971238Y-119923714D01*
X280066476Y-119971333D01*
X281161714Y-119923714D02*
X281542666Y-119923714D01*
X281304571Y-119590380D02*
X281304571Y-120447523D01*
X281352190Y-120542761D01*
X281447428Y-120590380D01*
X281542666Y-120590380D01*
X282018857Y-120590380D02*
X281923619Y-120542761D01*
X281876000Y-120495142D01*
X281828380Y-120399904D01*
X281828380Y-120114190D01*
X281876000Y-120018952D01*
X281923619Y-119971333D01*
X282018857Y-119923714D01*
X282161714Y-119923714D01*
X282256952Y-119971333D01*
X282304571Y-120018952D01*
X282352190Y-120114190D01*
X282352190Y-120399904D01*
X282304571Y-120495142D01*
X282256952Y-120542761D01*
X282161714Y-120590380D01*
X282018857Y-120590380D01*
X283542666Y-120590380D02*
X283542666Y-119590380D01*
X283542666Y-119971333D02*
X283637904Y-119923714D01*
X283828380Y-119923714D01*
X283923619Y-119971333D01*
X283971238Y-120018952D01*
X284018857Y-120114190D01*
X284018857Y-120399904D01*
X283971238Y-120495142D01*
X283923619Y-120542761D01*
X283828380Y-120590380D01*
X283637904Y-120590380D01*
X283542666Y-120542761D01*
X284828380Y-120542761D02*
X284733142Y-120590380D01*
X284542666Y-120590380D01*
X284447428Y-120542761D01*
X284399809Y-120447523D01*
X284399809Y-120066571D01*
X284447428Y-119971333D01*
X284542666Y-119923714D01*
X284733142Y-119923714D01*
X284828380Y-119971333D01*
X284876000Y-120066571D01*
X284876000Y-120161809D01*
X284399809Y-120257047D01*
X270352190Y-121533714D02*
X270352190Y-122533714D01*
X270352190Y-121581333D02*
X270447428Y-121533714D01*
X270637904Y-121533714D01*
X270733142Y-121581333D01*
X270780761Y-121628952D01*
X270828380Y-121724190D01*
X270828380Y-122009904D01*
X270780761Y-122105142D01*
X270733142Y-122152761D01*
X270637904Y-122200380D01*
X270447428Y-122200380D01*
X270352190Y-122152761D01*
X271399809Y-122200380D02*
X271304571Y-122152761D01*
X271256952Y-122057523D01*
X271256952Y-121200380D01*
X272209333Y-122200380D02*
X272209333Y-121676571D01*
X272161714Y-121581333D01*
X272066476Y-121533714D01*
X271876000Y-121533714D01*
X271780761Y-121581333D01*
X272209333Y-122152761D02*
X272114095Y-122200380D01*
X271876000Y-122200380D01*
X271780761Y-122152761D01*
X271733142Y-122057523D01*
X271733142Y-121962285D01*
X271780761Y-121867047D01*
X271876000Y-121819428D01*
X272114095Y-121819428D01*
X272209333Y-121771809D01*
X273114095Y-122152761D02*
X273018857Y-122200380D01*
X272828380Y-122200380D01*
X272733142Y-122152761D01*
X272685523Y-122105142D01*
X272637904Y-122009904D01*
X272637904Y-121724190D01*
X272685523Y-121628952D01*
X272733142Y-121581333D01*
X272828380Y-121533714D01*
X273018857Y-121533714D01*
X273114095Y-121581333D01*
X273923619Y-122152761D02*
X273828380Y-122200380D01*
X273637904Y-122200380D01*
X273542666Y-122152761D01*
X273495047Y-122057523D01*
X273495047Y-121676571D01*
X273542666Y-121581333D01*
X273637904Y-121533714D01*
X273828380Y-121533714D01*
X273923619Y-121581333D01*
X273971238Y-121676571D01*
X273971238Y-121771809D01*
X273495047Y-121867047D01*
X274828380Y-122200380D02*
X274828380Y-121200380D01*
X274828380Y-122152761D02*
X274733142Y-122200380D01*
X274542666Y-122200380D01*
X274447428Y-122152761D01*
X274399809Y-122105142D01*
X274352190Y-122009904D01*
X274352190Y-121724190D01*
X274399809Y-121628952D01*
X274447428Y-121581333D01*
X274542666Y-121533714D01*
X274733142Y-121533714D01*
X274828380Y-121581333D01*
X276209333Y-122200380D02*
X276114095Y-122152761D01*
X276066476Y-122105142D01*
X276018857Y-122009904D01*
X276018857Y-121724190D01*
X276066476Y-121628952D01*
X276114095Y-121581333D01*
X276209333Y-121533714D01*
X276352190Y-121533714D01*
X276447428Y-121581333D01*
X276495047Y-121628952D01*
X276542666Y-121724190D01*
X276542666Y-122009904D01*
X276495047Y-122105142D01*
X276447428Y-122152761D01*
X276352190Y-122200380D01*
X276209333Y-122200380D01*
X276971238Y-121533714D02*
X276971238Y-122200380D01*
X276971238Y-121628952D02*
X277018857Y-121581333D01*
X277114095Y-121533714D01*
X277256952Y-121533714D01*
X277352190Y-121581333D01*
X277399809Y-121676571D01*
X277399809Y-122200380D01*
X279066476Y-121533714D02*
X279066476Y-122200380D01*
X278637904Y-121533714D02*
X278637904Y-122057523D01*
X278685523Y-122152761D01*
X278780761Y-122200380D01*
X278923619Y-122200380D01*
X279018857Y-122152761D01*
X279066476Y-122105142D01*
X279542666Y-121533714D02*
X279542666Y-122200380D01*
X279542666Y-121628952D02*
X279590285Y-121581333D01*
X279685523Y-121533714D01*
X279828380Y-121533714D01*
X279923619Y-121581333D01*
X279971238Y-121676571D01*
X279971238Y-122200380D01*
X280876000Y-122200380D02*
X280876000Y-121200380D01*
X280876000Y-122152761D02*
X280780761Y-122200380D01*
X280590285Y-122200380D01*
X280495047Y-122152761D01*
X280447428Y-122105142D01*
X280399809Y-122009904D01*
X280399809Y-121724190D01*
X280447428Y-121628952D01*
X280495047Y-121581333D01*
X280590285Y-121533714D01*
X280780761Y-121533714D01*
X280876000Y-121581333D01*
X281733142Y-122152761D02*
X281637904Y-122200380D01*
X281447428Y-122200380D01*
X281352190Y-122152761D01*
X281304571Y-122057523D01*
X281304571Y-121676571D01*
X281352190Y-121581333D01*
X281447428Y-121533714D01*
X281637904Y-121533714D01*
X281733142Y-121581333D01*
X281780761Y-121676571D01*
X281780761Y-121771809D01*
X281304571Y-121867047D01*
X282209333Y-122200380D02*
X282209333Y-121533714D01*
X282209333Y-121724190D02*
X282256952Y-121628952D01*
X282304571Y-121581333D01*
X282399809Y-121533714D01*
X282495047Y-121533714D01*
X282780761Y-122152761D02*
X282876000Y-122200380D01*
X283066476Y-122200380D01*
X283161714Y-122152761D01*
X283209333Y-122057523D01*
X283209333Y-122009904D01*
X283161714Y-121914666D01*
X283066476Y-121867047D01*
X282923619Y-121867047D01*
X282828380Y-121819428D01*
X282780761Y-121724190D01*
X282780761Y-121676571D01*
X282828380Y-121581333D01*
X282923619Y-121533714D01*
X283066476Y-121533714D01*
X283161714Y-121581333D01*
X283637904Y-122200380D02*
X283637904Y-121533714D01*
X283637904Y-121200380D02*
X283590285Y-121248000D01*
X283637904Y-121295619D01*
X283685523Y-121248000D01*
X283637904Y-121200380D01*
X283637904Y-121295619D01*
X284542666Y-122200380D02*
X284542666Y-121200380D01*
X284542666Y-122152761D02*
X284447428Y-122200380D01*
X284256952Y-122200380D01*
X284161714Y-122152761D01*
X284114095Y-122105142D01*
X284066476Y-122009904D01*
X284066476Y-121724190D01*
X284114095Y-121628952D01*
X284161714Y-121581333D01*
X284256952Y-121533714D01*
X284447428Y-121533714D01*
X284542666Y-121581333D01*
X285399809Y-122152761D02*
X285304571Y-122200380D01*
X285114095Y-122200380D01*
X285018857Y-122152761D01*
X284971238Y-122057523D01*
X284971238Y-121676571D01*
X285018857Y-121581333D01*
X285114095Y-121533714D01*
X285304571Y-121533714D01*
X285399809Y-121581333D01*
X285447428Y-121676571D01*
X285447428Y-121771809D01*
X284971238Y-121867047D01*
X275637904Y-123810380D02*
X275542666Y-123762761D01*
X275495047Y-123715142D01*
X275447428Y-123619904D01*
X275447428Y-123334190D01*
X275495047Y-123238952D01*
X275542666Y-123191333D01*
X275637904Y-123143714D01*
X275780761Y-123143714D01*
X275876000Y-123191333D01*
X275923619Y-123238952D01*
X275971238Y-123334190D01*
X275971238Y-123619904D01*
X275923619Y-123715142D01*
X275876000Y-123762761D01*
X275780761Y-123810380D01*
X275637904Y-123810380D01*
X276256952Y-123143714D02*
X276637904Y-123143714D01*
X276399809Y-123810380D02*
X276399809Y-122953238D01*
X276447428Y-122858000D01*
X276542666Y-122810380D01*
X276637904Y-122810380D01*
X277733142Y-123810380D02*
X277733142Y-122810380D01*
X278114095Y-122810380D01*
X278209333Y-122858000D01*
X278256952Y-122905619D01*
X278304571Y-123000857D01*
X278304571Y-123143714D01*
X278256952Y-123238952D01*
X278209333Y-123286571D01*
X278114095Y-123334190D01*
X277733142Y-123334190D01*
X279304571Y-123715142D02*
X279256952Y-123762761D01*
X279114095Y-123810380D01*
X279018857Y-123810380D01*
X278876000Y-123762761D01*
X278780761Y-123667523D01*
X278733142Y-123572285D01*
X278685523Y-123381809D01*
X278685523Y-123238952D01*
X278733142Y-123048476D01*
X278780761Y-122953238D01*
X278876000Y-122858000D01*
X279018857Y-122810380D01*
X279114095Y-122810380D01*
X279256952Y-122858000D01*
X279304571Y-122905619D01*
X280066476Y-123286571D02*
X280209333Y-123334190D01*
X280256952Y-123381809D01*
X280304571Y-123477047D01*
X280304571Y-123619904D01*
X280256952Y-123715142D01*
X280209333Y-123762761D01*
X280114095Y-123810380D01*
X279733142Y-123810380D01*
X279733142Y-122810380D01*
X280066476Y-122810380D01*
X280161714Y-122858000D01*
X280209333Y-122905619D01*
X280256952Y-123000857D01*
X280256952Y-123096095D01*
X280209333Y-123191333D01*
X280161714Y-123238952D01*
X280066476Y-123286571D01*
X279733142Y-123286571D01*
X270280761Y-127030380D02*
X270280761Y-126030380D01*
X270614095Y-126363714D02*
X270995047Y-126363714D01*
X270756952Y-127030380D02*
X270756952Y-126173238D01*
X270804571Y-126078000D01*
X270899809Y-126030380D01*
X270995047Y-126030380D01*
X272090285Y-127030380D02*
X272090285Y-126030380D01*
X272423619Y-126744666D01*
X272756952Y-126030380D01*
X272756952Y-127030380D01*
X273233142Y-127030380D02*
X273233142Y-126030380D01*
X273709333Y-127030380D02*
X273709333Y-126030380D01*
X273947428Y-126030380D01*
X274090285Y-126078000D01*
X274185523Y-126173238D01*
X274233142Y-126268476D01*
X274280761Y-126458952D01*
X274280761Y-126601809D01*
X274233142Y-126792285D01*
X274185523Y-126887523D01*
X274090285Y-126982761D01*
X273947428Y-127030380D01*
X273709333Y-127030380D01*
X274709333Y-127030380D02*
X274709333Y-126030380D01*
X275804571Y-126030380D02*
X276376000Y-126030380D01*
X276090285Y-127030380D02*
X276090285Y-126030380D01*
X276709333Y-127030380D02*
X276709333Y-126030380D01*
X276709333Y-126506571D02*
X277280761Y-126506571D01*
X277280761Y-127030380D02*
X277280761Y-126030380D01*
X278328380Y-127030380D02*
X277995047Y-126554190D01*
X277756952Y-127030380D02*
X277756952Y-126030380D01*
X278137904Y-126030380D01*
X278233142Y-126078000D01*
X278280761Y-126125619D01*
X278328380Y-126220857D01*
X278328380Y-126363714D01*
X278280761Y-126458952D01*
X278233142Y-126506571D01*
X278137904Y-126554190D01*
X277756952Y-126554190D01*
X278756952Y-126030380D02*
X278756952Y-126839904D01*
X278804571Y-126935142D01*
X278852190Y-126982761D01*
X278947428Y-127030380D01*
X279137904Y-127030380D01*
X279233142Y-126982761D01*
X279280761Y-126935142D01*
X279328380Y-126839904D01*
X279328380Y-126030380D01*
X280518857Y-126982761D02*
X280614095Y-127030380D01*
X280804571Y-127030380D01*
X280899809Y-126982761D01*
X280947428Y-126887523D01*
X280947428Y-126839904D01*
X280899809Y-126744666D01*
X280804571Y-126697047D01*
X280661714Y-126697047D01*
X280566476Y-126649428D01*
X280518857Y-126554190D01*
X280518857Y-126506571D01*
X280566476Y-126411333D01*
X280661714Y-126363714D01*
X280804571Y-126363714D01*
X280899809Y-126411333D01*
X281756952Y-126982761D02*
X281661714Y-127030380D01*
X281471238Y-127030380D01*
X281376000Y-126982761D01*
X281328380Y-126887523D01*
X281328380Y-126506571D01*
X281376000Y-126411333D01*
X281471238Y-126363714D01*
X281661714Y-126363714D01*
X281756952Y-126411333D01*
X281804571Y-126506571D01*
X281804571Y-126601809D01*
X281328380Y-126697047D01*
X282661714Y-126982761D02*
X282566476Y-127030380D01*
X282376000Y-127030380D01*
X282280761Y-126982761D01*
X282233142Y-126935142D01*
X282185523Y-126839904D01*
X282185523Y-126554190D01*
X282233142Y-126458952D01*
X282280761Y-126411333D01*
X282376000Y-126363714D01*
X282566476Y-126363714D01*
X282661714Y-126411333D01*
X282947428Y-126363714D02*
X283328380Y-126363714D01*
X283090285Y-126030380D02*
X283090285Y-126887523D01*
X283137904Y-126982761D01*
X283233142Y-127030380D01*
X283328380Y-127030380D01*
X283661714Y-127030380D02*
X283661714Y-126363714D01*
X283661714Y-126030380D02*
X283614095Y-126078000D01*
X283661714Y-126125619D01*
X283709333Y-126078000D01*
X283661714Y-126030380D01*
X283661714Y-126125619D01*
X284280761Y-127030380D02*
X284185523Y-126982761D01*
X284137904Y-126935142D01*
X284090285Y-126839904D01*
X284090285Y-126554190D01*
X284137904Y-126458952D01*
X284185523Y-126411333D01*
X284280761Y-126363714D01*
X284423619Y-126363714D01*
X284518857Y-126411333D01*
X284566476Y-126458952D01*
X284614095Y-126554190D01*
X284614095Y-126839904D01*
X284566476Y-126935142D01*
X284518857Y-126982761D01*
X284423619Y-127030380D01*
X284280761Y-127030380D01*
X285042666Y-126363714D02*
X285042666Y-127030380D01*
X285042666Y-126458952D02*
X285090285Y-126411333D01*
X285185523Y-126363714D01*
X285328380Y-126363714D01*
X285423619Y-126411333D01*
X285471238Y-126506571D01*
X285471238Y-127030380D01*
X269947428Y-128640380D02*
X269947428Y-127973714D01*
X269947428Y-128164190D02*
X269995047Y-128068952D01*
X270042666Y-128021333D01*
X270137904Y-127973714D01*
X270233142Y-127973714D01*
X270947428Y-128592761D02*
X270852190Y-128640380D01*
X270661714Y-128640380D01*
X270566476Y-128592761D01*
X270518857Y-128497523D01*
X270518857Y-128116571D01*
X270566476Y-128021333D01*
X270661714Y-127973714D01*
X270852190Y-127973714D01*
X270947428Y-128021333D01*
X270995047Y-128116571D01*
X270995047Y-128211809D01*
X270518857Y-128307047D01*
X271423619Y-128640380D02*
X271423619Y-127973714D01*
X271423619Y-128068952D02*
X271471238Y-128021333D01*
X271566476Y-127973714D01*
X271709333Y-127973714D01*
X271804571Y-128021333D01*
X271852190Y-128116571D01*
X271852190Y-128640380D01*
X271852190Y-128116571D02*
X271899809Y-128021333D01*
X271995047Y-127973714D01*
X272137904Y-127973714D01*
X272233142Y-128021333D01*
X272280761Y-128116571D01*
X272280761Y-128640380D01*
X272899809Y-128640380D02*
X272804571Y-128592761D01*
X272756952Y-128545142D01*
X272709333Y-128449904D01*
X272709333Y-128164190D01*
X272756952Y-128068952D01*
X272804571Y-128021333D01*
X272899809Y-127973714D01*
X273042666Y-127973714D01*
X273137904Y-128021333D01*
X273185523Y-128068952D01*
X273233142Y-128164190D01*
X273233142Y-128449904D01*
X273185523Y-128545142D01*
X273137904Y-128592761D01*
X273042666Y-128640380D01*
X272899809Y-128640380D01*
X273566476Y-127973714D02*
X273804571Y-128640380D01*
X274042666Y-127973714D01*
X274804571Y-128592761D02*
X274709333Y-128640380D01*
X274518857Y-128640380D01*
X274423619Y-128592761D01*
X274376000Y-128497523D01*
X274376000Y-128116571D01*
X274423619Y-128021333D01*
X274518857Y-127973714D01*
X274709333Y-127973714D01*
X274804571Y-128021333D01*
X274852190Y-128116571D01*
X274852190Y-128211809D01*
X274376000Y-128307047D01*
X275709333Y-128640380D02*
X275709333Y-127640380D01*
X275709333Y-128592761D02*
X275614095Y-128640380D01*
X275423619Y-128640380D01*
X275328380Y-128592761D01*
X275280761Y-128545142D01*
X275233142Y-128449904D01*
X275233142Y-128164190D01*
X275280761Y-128068952D01*
X275328380Y-128021333D01*
X275423619Y-127973714D01*
X275614095Y-127973714D01*
X275709333Y-128021333D01*
X276804571Y-127973714D02*
X277185523Y-127973714D01*
X276947428Y-127640380D02*
X276947428Y-128497523D01*
X276995047Y-128592761D01*
X277090285Y-128640380D01*
X277185523Y-128640380D01*
X277518857Y-128640380D02*
X277518857Y-127640380D01*
X277947428Y-128640380D02*
X277947428Y-128116571D01*
X277899809Y-128021333D01*
X277804571Y-127973714D01*
X277661714Y-127973714D01*
X277566476Y-128021333D01*
X277518857Y-128068952D01*
X278804571Y-128592761D02*
X278709333Y-128640380D01*
X278518857Y-128640380D01*
X278423619Y-128592761D01*
X278376000Y-128497523D01*
X278376000Y-128116571D01*
X278423619Y-128021333D01*
X278518857Y-127973714D01*
X278709333Y-127973714D01*
X278804571Y-128021333D01*
X278852190Y-128116571D01*
X278852190Y-128211809D01*
X278376000Y-128307047D01*
X279280761Y-127973714D02*
X279280761Y-128640380D01*
X279280761Y-128068952D02*
X279328380Y-128021333D01*
X279423619Y-127973714D01*
X279566476Y-127973714D01*
X279661714Y-128021333D01*
X279709333Y-128116571D01*
X279709333Y-128640380D01*
X281376000Y-128592761D02*
X281280761Y-128640380D01*
X281090285Y-128640380D01*
X280995047Y-128592761D01*
X280947428Y-128545142D01*
X280899809Y-128449904D01*
X280899809Y-128164190D01*
X280947428Y-128068952D01*
X280995047Y-128021333D01*
X281090285Y-127973714D01*
X281280761Y-127973714D01*
X281376000Y-128021333D01*
X281804571Y-128640380D02*
X281804571Y-127640380D01*
X282233142Y-128640380D02*
X282233142Y-128116571D01*
X282185523Y-128021333D01*
X282090285Y-127973714D01*
X281947428Y-127973714D01*
X281852190Y-128021333D01*
X281804571Y-128068952D01*
X283137904Y-128640380D02*
X283137904Y-128116571D01*
X283090285Y-128021333D01*
X282995047Y-127973714D01*
X282804571Y-127973714D01*
X282709333Y-128021333D01*
X283137904Y-128592761D02*
X283042666Y-128640380D01*
X282804571Y-128640380D01*
X282709333Y-128592761D01*
X282661714Y-128497523D01*
X282661714Y-128402285D01*
X282709333Y-128307047D01*
X282804571Y-128259428D01*
X283042666Y-128259428D01*
X283137904Y-128211809D01*
X283614095Y-127973714D02*
X283614095Y-128640380D01*
X283614095Y-128068952D02*
X283661714Y-128021333D01*
X283756952Y-127973714D01*
X283899809Y-127973714D01*
X283995047Y-128021333D01*
X284042666Y-128116571D01*
X284042666Y-128640380D01*
X284947428Y-127973714D02*
X284947428Y-128783238D01*
X284899809Y-128878476D01*
X284852190Y-128926095D01*
X284756952Y-128973714D01*
X284614095Y-128973714D01*
X284518857Y-128926095D01*
X284947428Y-128592761D02*
X284852190Y-128640380D01*
X284661714Y-128640380D01*
X284566476Y-128592761D01*
X284518857Y-128545142D01*
X284471238Y-128449904D01*
X284471238Y-128164190D01*
X284518857Y-128068952D01*
X284566476Y-128021333D01*
X284661714Y-127973714D01*
X284852190Y-127973714D01*
X284947428Y-128021333D01*
X285804571Y-128592761D02*
X285709333Y-128640380D01*
X285518857Y-128640380D01*
X285423619Y-128592761D01*
X285376000Y-128497523D01*
X285376000Y-128116571D01*
X285423619Y-128021333D01*
X285518857Y-127973714D01*
X285709333Y-127973714D01*
X285804571Y-128021333D01*
X285852190Y-128116571D01*
X285852190Y-128211809D01*
X285376000Y-128307047D01*
X269376000Y-129583714D02*
X269376000Y-130440857D01*
X269328380Y-130536095D01*
X269233142Y-130583714D01*
X269185523Y-130583714D01*
X269376000Y-129250380D02*
X269328380Y-129298000D01*
X269376000Y-129345619D01*
X269423619Y-129298000D01*
X269376000Y-129250380D01*
X269376000Y-129345619D01*
X270280761Y-129583714D02*
X270280761Y-130250380D01*
X269852190Y-129583714D02*
X269852190Y-130107523D01*
X269899809Y-130202761D01*
X269995047Y-130250380D01*
X270137904Y-130250380D01*
X270233142Y-130202761D01*
X270280761Y-130155142D01*
X270756952Y-130250380D02*
X270756952Y-129583714D01*
X270756952Y-129678952D02*
X270804571Y-129631333D01*
X270899809Y-129583714D01*
X271042666Y-129583714D01*
X271137904Y-129631333D01*
X271185523Y-129726571D01*
X271185523Y-130250380D01*
X271185523Y-129726571D02*
X271233142Y-129631333D01*
X271328380Y-129583714D01*
X271471238Y-129583714D01*
X271566476Y-129631333D01*
X271614095Y-129726571D01*
X271614095Y-130250380D01*
X272090285Y-129583714D02*
X272090285Y-130583714D01*
X272090285Y-129631333D02*
X272185523Y-129583714D01*
X272376000Y-129583714D01*
X272471238Y-129631333D01*
X272518857Y-129678952D01*
X272566476Y-129774190D01*
X272566476Y-130059904D01*
X272518857Y-130155142D01*
X272471238Y-130202761D01*
X272376000Y-130250380D01*
X272185523Y-130250380D01*
X272090285Y-130202761D01*
X273376000Y-130202761D02*
X273280761Y-130250380D01*
X273090285Y-130250380D01*
X272995047Y-130202761D01*
X272947428Y-130107523D01*
X272947428Y-129726571D01*
X272995047Y-129631333D01*
X273090285Y-129583714D01*
X273280761Y-129583714D01*
X273376000Y-129631333D01*
X273423619Y-129726571D01*
X273423619Y-129821809D01*
X272947428Y-129917047D01*
X273852190Y-130250380D02*
X273852190Y-129583714D01*
X273852190Y-129774190D02*
X273899809Y-129678952D01*
X273947428Y-129631333D01*
X274042666Y-129583714D01*
X274137904Y-129583714D01*
X274423619Y-130202761D02*
X274518857Y-130250380D01*
X274709333Y-130250380D01*
X274804571Y-130202761D01*
X274852190Y-130107523D01*
X274852190Y-130059904D01*
X274804571Y-129964666D01*
X274709333Y-129917047D01*
X274566476Y-129917047D01*
X274471238Y-129869428D01*
X274423619Y-129774190D01*
X274423619Y-129726571D01*
X274471238Y-129631333D01*
X274566476Y-129583714D01*
X274709333Y-129583714D01*
X274804571Y-129631333D01*
X276471238Y-129583714D02*
X276471238Y-130250380D01*
X276042666Y-129583714D02*
X276042666Y-130107523D01*
X276090285Y-130202761D01*
X276185523Y-130250380D01*
X276328380Y-130250380D01*
X276423619Y-130202761D01*
X276471238Y-130155142D01*
X276947428Y-129583714D02*
X276947428Y-130250380D01*
X276947428Y-129678952D02*
X276995047Y-129631333D01*
X277090285Y-129583714D01*
X277233142Y-129583714D01*
X277328380Y-129631333D01*
X277376000Y-129726571D01*
X277376000Y-130250380D01*
X278280761Y-130250380D02*
X278280761Y-129250380D01*
X278280761Y-130202761D02*
X278185523Y-130250380D01*
X277995047Y-130250380D01*
X277899809Y-130202761D01*
X277852190Y-130155142D01*
X277804571Y-130059904D01*
X277804571Y-129774190D01*
X277852190Y-129678952D01*
X277899809Y-129631333D01*
X277995047Y-129583714D01*
X278185523Y-129583714D01*
X278280761Y-129631333D01*
X279137904Y-130202761D02*
X279042666Y-130250380D01*
X278852190Y-130250380D01*
X278756952Y-130202761D01*
X278709333Y-130107523D01*
X278709333Y-129726571D01*
X278756952Y-129631333D01*
X278852190Y-129583714D01*
X279042666Y-129583714D01*
X279137904Y-129631333D01*
X279185523Y-129726571D01*
X279185523Y-129821809D01*
X278709333Y-129917047D01*
X279614095Y-130250380D02*
X279614095Y-129583714D01*
X279614095Y-129774190D02*
X279661714Y-129678952D01*
X279709333Y-129631333D01*
X279804571Y-129583714D01*
X279899809Y-129583714D01*
X280899809Y-129250380D02*
X281566476Y-129250380D01*
X281137904Y-130250380D01*
X282376000Y-129583714D02*
X282376000Y-130250380D01*
X282137904Y-129202761D02*
X281899809Y-129917047D01*
X282518857Y-129917047D01*
X282899809Y-130250380D02*
X282899809Y-129250380D01*
X282899809Y-129726571D02*
X283471238Y-129726571D01*
X283471238Y-130250380D02*
X283471238Y-129250380D01*
X284518857Y-130155142D02*
X284471238Y-130202761D01*
X284328380Y-130250380D01*
X284233142Y-130250380D01*
X284090285Y-130202761D01*
X283995047Y-130107523D01*
X283947428Y-130012285D01*
X283899809Y-129821809D01*
X283899809Y-129678952D01*
X283947428Y-129488476D01*
X283995047Y-129393238D01*
X284090285Y-129298000D01*
X284233142Y-129250380D01*
X284328380Y-129250380D01*
X284471238Y-129298000D01*
X284518857Y-129345619D01*
X285471238Y-130250380D02*
X284899809Y-130250380D01*
X285185523Y-130250380D02*
X285185523Y-129250380D01*
X285090285Y-129393238D01*
X284995047Y-129488476D01*
X284899809Y-129536095D01*
X286328380Y-129583714D02*
X286328380Y-130250380D01*
X286090285Y-129202761D02*
X285852190Y-129917047D01*
X286471238Y-129917047D01*
D10*
X199448380Y-94372380D02*
X198876952Y-94372380D01*
X199162666Y-94372380D02*
X199162666Y-93372380D01*
X199067428Y-93515238D01*
X198972190Y-93610476D01*
X198876952Y-93658095D01*
X200067428Y-93372380D02*
X200162666Y-93372380D01*
X200257904Y-93420000D01*
X200305523Y-93467619D01*
X200353142Y-93562857D01*
X200400761Y-93753333D01*
X200400761Y-93991428D01*
X200353142Y-94181904D01*
X200305523Y-94277142D01*
X200257904Y-94324761D01*
X200162666Y-94372380D01*
X200067428Y-94372380D01*
X199972190Y-94324761D01*
X199924571Y-94277142D01*
X199876952Y-94181904D01*
X199829333Y-93991428D01*
X199829333Y-93753333D01*
X199876952Y-93562857D01*
X199924571Y-93467619D01*
X199972190Y-93420000D01*
X200067428Y-93372380D01*
X201019809Y-93372380D02*
X201115047Y-93372380D01*
X201210285Y-93420000D01*
X201257904Y-93467619D01*
X201305523Y-93562857D01*
X201353142Y-93753333D01*
X201353142Y-93991428D01*
X201305523Y-94181904D01*
X201257904Y-94277142D01*
X201210285Y-94324761D01*
X201115047Y-94372380D01*
X201019809Y-94372380D01*
X200924571Y-94324761D01*
X200876952Y-94277142D01*
X200829333Y-94181904D01*
X200781714Y-93991428D01*
X200781714Y-93753333D01*
X200829333Y-93562857D01*
X200876952Y-93467619D01*
X200924571Y-93420000D01*
X201019809Y-93372380D01*
X202210285Y-93705714D02*
X202210285Y-94372380D01*
X201781714Y-93705714D02*
X201781714Y-94229523D01*
X201829333Y-94324761D01*
X201924571Y-94372380D01*
X202067428Y-94372380D01*
X202162666Y-94324761D01*
X202210285Y-94277142D01*
X203019809Y-93848571D02*
X202686476Y-93848571D01*
X202686476Y-94372380D02*
X202686476Y-93372380D01*
X203162666Y-93372380D01*
X225591714Y-114553904D02*
X226258380Y-114553904D01*
X225210761Y-114792000D02*
X225925047Y-115030095D01*
X225925047Y-114411047D01*
X225258380Y-114125333D02*
X225258380Y-113458666D01*
X226258380Y-113887238D01*
X225258380Y-112887238D02*
X225258380Y-112792000D01*
X225306000Y-112696761D01*
X225353619Y-112649142D01*
X225448857Y-112601523D01*
X225639333Y-112553904D01*
X225877428Y-112553904D01*
X226067904Y-112601523D01*
X226163142Y-112649142D01*
X226210761Y-112696761D01*
X226258380Y-112792000D01*
X226258380Y-112887238D01*
X226210761Y-112982476D01*
X226163142Y-113030095D01*
X226067904Y-113077714D01*
X225877428Y-113125333D01*
X225639333Y-113125333D01*
X225448857Y-113077714D01*
X225353619Y-113030095D01*
X225306000Y-112982476D01*
X225258380Y-112887238D01*
X237577428Y-132364380D02*
X237006000Y-132364380D01*
X237291714Y-132364380D02*
X237291714Y-131364380D01*
X237196476Y-131507238D01*
X237101238Y-131602476D01*
X237006000Y-131650095D01*
X238196476Y-131364380D02*
X238291714Y-131364380D01*
X238386952Y-131412000D01*
X238434571Y-131459619D01*
X238482190Y-131554857D01*
X238529809Y-131745333D01*
X238529809Y-131983428D01*
X238482190Y-132173904D01*
X238434571Y-132269142D01*
X238386952Y-132316761D01*
X238291714Y-132364380D01*
X238196476Y-132364380D01*
X238101238Y-132316761D01*
X238053619Y-132269142D01*
X238006000Y-132173904D01*
X237958380Y-131983428D01*
X237958380Y-131745333D01*
X238006000Y-131554857D01*
X238053619Y-131459619D01*
X238101238Y-131412000D01*
X238196476Y-131364380D01*
X238958380Y-131697714D02*
X238958380Y-132697714D01*
X238958380Y-131745333D02*
X239053619Y-131697714D01*
X239244095Y-131697714D01*
X239339333Y-131745333D01*
X239386952Y-131792952D01*
X239434571Y-131888190D01*
X239434571Y-132173904D01*
X239386952Y-132269142D01*
X239339333Y-132316761D01*
X239244095Y-132364380D01*
X239053619Y-132364380D01*
X238958380Y-132316761D01*
X239720285Y-131697714D02*
X240101238Y-131697714D01*
X239863142Y-132364380D02*
X239863142Y-131507238D01*
X239910761Y-131412000D01*
X240006000Y-131364380D01*
X240101238Y-131364380D01*
X241752380Y-118641619D02*
X241752380Y-119213047D01*
X241752380Y-118927333D02*
X240752380Y-118927333D01*
X240895238Y-119022571D01*
X240990476Y-119117809D01*
X241038095Y-119213047D01*
X240752380Y-118022571D02*
X240752380Y-117927333D01*
X240800000Y-117832095D01*
X240847619Y-117784476D01*
X240942857Y-117736857D01*
X241133333Y-117689238D01*
X241371428Y-117689238D01*
X241561904Y-117736857D01*
X241657142Y-117784476D01*
X241704761Y-117832095D01*
X241752380Y-117927333D01*
X241752380Y-118022571D01*
X241704761Y-118117809D01*
X241657142Y-118165428D01*
X241561904Y-118213047D01*
X241371428Y-118260666D01*
X241133333Y-118260666D01*
X240942857Y-118213047D01*
X240847619Y-118165428D01*
X240800000Y-118117809D01*
X240752380Y-118022571D01*
X240752380Y-117070190D02*
X240752380Y-116974952D01*
X240800000Y-116879714D01*
X240847619Y-116832095D01*
X240942857Y-116784476D01*
X241133333Y-116736857D01*
X241371428Y-116736857D01*
X241561904Y-116784476D01*
X241657142Y-116832095D01*
X241704761Y-116879714D01*
X241752380Y-116974952D01*
X241752380Y-117070190D01*
X241704761Y-117165428D01*
X241657142Y-117213047D01*
X241561904Y-117260666D01*
X241371428Y-117308285D01*
X241133333Y-117308285D01*
X240942857Y-117260666D01*
X240847619Y-117213047D01*
X240800000Y-117165428D01*
X240752380Y-117070190D01*
X241085714Y-116308285D02*
X241752380Y-116308285D01*
X241180952Y-116308285D02*
X241133333Y-116260666D01*
X241085714Y-116165428D01*
X241085714Y-116022571D01*
X241133333Y-115927333D01*
X241228571Y-115879714D01*
X241752380Y-115879714D01*
X241228571Y-115070190D02*
X241228571Y-115403523D01*
X241752380Y-115403523D02*
X240752380Y-115403523D01*
X240752380Y-114927333D01*
X229981333Y-106370380D02*
X229409904Y-106370380D01*
X229695619Y-106370380D02*
X229695619Y-105370380D01*
X229600380Y-105513238D01*
X229505142Y-105608476D01*
X229409904Y-105656095D01*
X230409904Y-106370380D02*
X230409904Y-105370380D01*
X230981333Y-106370380D01*
X230981333Y-105370380D01*
X231505142Y-106370380D02*
X231695619Y-106370380D01*
X231790857Y-106322761D01*
X231838476Y-106275142D01*
X231933714Y-106132285D01*
X231981333Y-105941809D01*
X231981333Y-105560857D01*
X231933714Y-105465619D01*
X231886095Y-105418000D01*
X231790857Y-105370380D01*
X231600380Y-105370380D01*
X231505142Y-105418000D01*
X231457523Y-105465619D01*
X231409904Y-105560857D01*
X231409904Y-105798952D01*
X231457523Y-105894190D01*
X231505142Y-105941809D01*
X231600380Y-105989428D01*
X231790857Y-105989428D01*
X231886095Y-105941809D01*
X231933714Y-105894190D01*
X231981333Y-105798952D01*
X232933714Y-106370380D02*
X232362285Y-106370380D01*
X232648000Y-106370380D02*
X232648000Y-105370380D01*
X232552761Y-105513238D01*
X232457523Y-105608476D01*
X232362285Y-105656095D01*
X233790857Y-105703714D02*
X233790857Y-106370380D01*
X233552761Y-105322761D02*
X233314666Y-106037047D01*
X233933714Y-106037047D01*
X230663904Y-101655619D02*
X230711523Y-101608000D01*
X230806761Y-101560380D01*
X231044857Y-101560380D01*
X231140095Y-101608000D01*
X231187714Y-101655619D01*
X231235333Y-101750857D01*
X231235333Y-101846095D01*
X231187714Y-101988952D01*
X230616285Y-102560380D01*
X231235333Y-102560380D01*
X231616285Y-101655619D02*
X231663904Y-101608000D01*
X231759142Y-101560380D01*
X231997238Y-101560380D01*
X232092476Y-101608000D01*
X232140095Y-101655619D01*
X232187714Y-101750857D01*
X232187714Y-101846095D01*
X232140095Y-101988952D01*
X231568666Y-102560380D01*
X232187714Y-102560380D01*
X232806761Y-101560380D02*
X232902000Y-101560380D01*
X232997238Y-101608000D01*
X233044857Y-101655619D01*
X233092476Y-101750857D01*
X233140095Y-101941333D01*
X233140095Y-102179428D01*
X233092476Y-102369904D01*
X233044857Y-102465142D01*
X232997238Y-102512761D01*
X232902000Y-102560380D01*
X232806761Y-102560380D01*
X232711523Y-102512761D01*
X232663904Y-102465142D01*
X232616285Y-102369904D01*
X232568666Y-102179428D01*
X232568666Y-101941333D01*
X232616285Y-101750857D01*
X232663904Y-101655619D01*
X232711523Y-101608000D01*
X232806761Y-101560380D01*
X237577428Y-127538380D02*
X237006000Y-127538380D01*
X237291714Y-127538380D02*
X237291714Y-126538380D01*
X237196476Y-126681238D01*
X237101238Y-126776476D01*
X237006000Y-126824095D01*
X238196476Y-126538380D02*
X238291714Y-126538380D01*
X238386952Y-126586000D01*
X238434571Y-126633619D01*
X238482190Y-126728857D01*
X238529809Y-126919333D01*
X238529809Y-127157428D01*
X238482190Y-127347904D01*
X238434571Y-127443142D01*
X238386952Y-127490761D01*
X238291714Y-127538380D01*
X238196476Y-127538380D01*
X238101238Y-127490761D01*
X238053619Y-127443142D01*
X238006000Y-127347904D01*
X237958380Y-127157428D01*
X237958380Y-126919333D01*
X238006000Y-126728857D01*
X238053619Y-126633619D01*
X238101238Y-126586000D01*
X238196476Y-126538380D01*
X238958380Y-126871714D02*
X238958380Y-127871714D01*
X238958380Y-126919333D02*
X239053619Y-126871714D01*
X239244095Y-126871714D01*
X239339333Y-126919333D01*
X239386952Y-126966952D01*
X239434571Y-127062190D01*
X239434571Y-127347904D01*
X239386952Y-127443142D01*
X239339333Y-127490761D01*
X239244095Y-127538380D01*
X239053619Y-127538380D01*
X238958380Y-127490761D01*
X239720285Y-126871714D02*
X240101238Y-126871714D01*
X239863142Y-127538380D02*
X239863142Y-126681238D01*
X239910761Y-126586000D01*
X240006000Y-126538380D01*
X240101238Y-126538380D01*
X164536380Y-111815428D02*
X164536380Y-112386857D01*
X164536380Y-112101142D02*
X163536380Y-112101142D01*
X163679238Y-112196380D01*
X163774476Y-112291619D01*
X163822095Y-112386857D01*
X163536380Y-111196380D02*
X163536380Y-111101142D01*
X163584000Y-111005904D01*
X163631619Y-110958285D01*
X163726857Y-110910666D01*
X163917333Y-110863047D01*
X164155428Y-110863047D01*
X164345904Y-110910666D01*
X164441142Y-110958285D01*
X164488761Y-111005904D01*
X164536380Y-111101142D01*
X164536380Y-111196380D01*
X164488761Y-111291619D01*
X164441142Y-111339238D01*
X164345904Y-111386857D01*
X164155428Y-111434476D01*
X163917333Y-111434476D01*
X163726857Y-111386857D01*
X163631619Y-111339238D01*
X163584000Y-111291619D01*
X163536380Y-111196380D01*
X163869714Y-110434476D02*
X164869714Y-110434476D01*
X163917333Y-110434476D02*
X163869714Y-110339238D01*
X163869714Y-110148761D01*
X163917333Y-110053523D01*
X163964952Y-110005904D01*
X164060190Y-109958285D01*
X164345904Y-109958285D01*
X164441142Y-110005904D01*
X164488761Y-110053523D01*
X164536380Y-110148761D01*
X164536380Y-110339238D01*
X164488761Y-110434476D01*
X164012571Y-109196380D02*
X164012571Y-109529714D01*
X164536380Y-109529714D02*
X163536380Y-109529714D01*
X163536380Y-109053523D01*
X241752380Y-109608761D02*
X241752380Y-110180190D01*
X241752380Y-109894476D02*
X240752380Y-109894476D01*
X240895238Y-109989714D01*
X240990476Y-110084952D01*
X241038095Y-110180190D01*
X240752380Y-108989714D02*
X240752380Y-108894476D01*
X240800000Y-108799238D01*
X240847619Y-108751619D01*
X240942857Y-108704000D01*
X241133333Y-108656380D01*
X241371428Y-108656380D01*
X241561904Y-108704000D01*
X241657142Y-108751619D01*
X241704761Y-108799238D01*
X241752380Y-108894476D01*
X241752380Y-108989714D01*
X241704761Y-109084952D01*
X241657142Y-109132571D01*
X241561904Y-109180190D01*
X241371428Y-109227809D01*
X241133333Y-109227809D01*
X240942857Y-109180190D01*
X240847619Y-109132571D01*
X240800000Y-109084952D01*
X240752380Y-108989714D01*
X240752380Y-108037333D02*
X240752380Y-107942095D01*
X240800000Y-107846857D01*
X240847619Y-107799238D01*
X240942857Y-107751619D01*
X241133333Y-107704000D01*
X241371428Y-107704000D01*
X241561904Y-107751619D01*
X241657142Y-107799238D01*
X241704761Y-107846857D01*
X241752380Y-107942095D01*
X241752380Y-108037333D01*
X241704761Y-108132571D01*
X241657142Y-108180190D01*
X241561904Y-108227809D01*
X241371428Y-108275428D01*
X241133333Y-108275428D01*
X240942857Y-108227809D01*
X240847619Y-108180190D01*
X240800000Y-108132571D01*
X240752380Y-108037333D01*
X241085714Y-107275428D02*
X241752380Y-107275428D01*
X241180952Y-107275428D02*
X241133333Y-107227809D01*
X241085714Y-107132571D01*
X241085714Y-106989714D01*
X241133333Y-106894476D01*
X241228571Y-106846857D01*
X241752380Y-106846857D01*
X241085714Y-106513523D02*
X241085714Y-106132571D01*
X241752380Y-106370666D02*
X240895238Y-106370666D01*
X240800000Y-106323047D01*
X240752380Y-106227809D01*
X240752380Y-106132571D01*
X159916761Y-100266190D02*
X159964380Y-100123333D01*
X159964380Y-99885238D01*
X159916761Y-99790000D01*
X159869142Y-99742380D01*
X159773904Y-99694761D01*
X159678666Y-99694761D01*
X159583428Y-99742380D01*
X159535809Y-99790000D01*
X159488190Y-99885238D01*
X159440571Y-100075714D01*
X159392952Y-100170952D01*
X159345333Y-100218571D01*
X159250095Y-100266190D01*
X159154857Y-100266190D01*
X159059619Y-100218571D01*
X159012000Y-100170952D01*
X158964380Y-100075714D01*
X158964380Y-99837619D01*
X159012000Y-99694761D01*
X159440571Y-99266190D02*
X159440571Y-98932857D01*
X159964380Y-98790000D02*
X159964380Y-99266190D01*
X158964380Y-99266190D01*
X158964380Y-98790000D01*
X159964380Y-97885238D02*
X159964380Y-98361428D01*
X158964380Y-98361428D01*
X159440571Y-97551904D02*
X159440571Y-97218571D01*
X159964380Y-97075714D02*
X159964380Y-97551904D01*
X158964380Y-97551904D01*
X158964380Y-97075714D01*
X159869142Y-96075714D02*
X159916761Y-96123333D01*
X159964380Y-96266190D01*
X159964380Y-96361428D01*
X159916761Y-96504285D01*
X159821523Y-96599523D01*
X159726285Y-96647142D01*
X159535809Y-96694761D01*
X159392952Y-96694761D01*
X159202476Y-96647142D01*
X159107238Y-96599523D01*
X159012000Y-96504285D01*
X158964380Y-96361428D01*
X158964380Y-96266190D01*
X159012000Y-96123333D01*
X159059619Y-96075714D01*
X158964380Y-95790000D02*
X158964380Y-95218571D01*
X159964380Y-95504285D02*
X158964380Y-95504285D01*
X260603380Y-112757714D02*
X260603380Y-112091047D01*
X261603380Y-112519619D01*
X260936714Y-111281523D02*
X261603380Y-111281523D01*
X260555761Y-111519619D02*
X261270047Y-111757714D01*
X261270047Y-111138666D01*
X261603380Y-110757714D02*
X260603380Y-110757714D01*
X261079571Y-110757714D02*
X261079571Y-110186285D01*
X261603380Y-110186285D02*
X260603380Y-110186285D01*
X261508142Y-109138666D02*
X261555761Y-109186285D01*
X261603380Y-109329142D01*
X261603380Y-109424380D01*
X261555761Y-109567238D01*
X261460523Y-109662476D01*
X261365285Y-109710095D01*
X261174809Y-109757714D01*
X261031952Y-109757714D01*
X260841476Y-109710095D01*
X260746238Y-109662476D01*
X260651000Y-109567238D01*
X260603380Y-109424380D01*
X260603380Y-109329142D01*
X260651000Y-109186285D01*
X260698619Y-109138666D01*
X261603380Y-108186285D02*
X261603380Y-108757714D01*
X261603380Y-108472000D02*
X260603380Y-108472000D01*
X260746238Y-108567238D01*
X260841476Y-108662476D01*
X260889095Y-108757714D01*
X260936714Y-107329142D02*
X261603380Y-107329142D01*
X260555761Y-107567238D02*
X261270047Y-107805333D01*
X261270047Y-107186285D01*
X270819619Y-109950095D02*
X270772000Y-109902476D01*
X270724380Y-109807238D01*
X270724380Y-109569142D01*
X270772000Y-109473904D01*
X270819619Y-109426285D01*
X270914857Y-109378666D01*
X271010095Y-109378666D01*
X271152952Y-109426285D01*
X271724380Y-109997714D01*
X271724380Y-109378666D01*
X270819619Y-108997714D02*
X270772000Y-108950095D01*
X270724380Y-108854857D01*
X270724380Y-108616761D01*
X270772000Y-108521523D01*
X270819619Y-108473904D01*
X270914857Y-108426285D01*
X271010095Y-108426285D01*
X271152952Y-108473904D01*
X271724380Y-109045333D01*
X271724380Y-108426285D01*
X270724380Y-107807238D02*
X270724380Y-107712000D01*
X270772000Y-107616761D01*
X270819619Y-107569142D01*
X270914857Y-107521523D01*
X271105333Y-107473904D01*
X271343428Y-107473904D01*
X271533904Y-107521523D01*
X271629142Y-107569142D01*
X271676761Y-107616761D01*
X271724380Y-107712000D01*
X271724380Y-107807238D01*
X271676761Y-107902476D01*
X271629142Y-107950095D01*
X271533904Y-107997714D01*
X271343428Y-108045333D01*
X271105333Y-108045333D01*
X270914857Y-107997714D01*
X270819619Y-107950095D01*
X270772000Y-107902476D01*
X270724380Y-107807238D01*
X230798952Y-114254380D02*
X230798952Y-113254380D01*
X230798952Y-113730571D02*
X231370380Y-113730571D01*
X231370380Y-114254380D02*
X231370380Y-113254380D01*
X232370380Y-114254380D02*
X231798952Y-114254380D01*
X232084666Y-114254380D02*
X232084666Y-113254380D01*
X231989428Y-113397238D01*
X231894190Y-113492476D01*
X231798952Y-113540095D01*
X233322761Y-114254380D02*
X232751333Y-114254380D01*
X233037047Y-114254380D02*
X233037047Y-113254380D01*
X232941809Y-113397238D01*
X232846571Y-113492476D01*
X232751333Y-113540095D01*
X234227523Y-114254380D02*
X233751333Y-114254380D01*
X233751333Y-113254380D01*
X235084666Y-114254380D02*
X234513238Y-114254380D01*
X234798952Y-114254380D02*
X234798952Y-113254380D01*
X234703714Y-113397238D01*
X234608476Y-113492476D01*
X234513238Y-113540095D01*
X181991619Y-106624380D02*
X181991619Y-105624380D01*
X181991619Y-106100571D02*
X182563047Y-106100571D01*
X182563047Y-106624380D02*
X182563047Y-105624380D01*
X183039238Y-106624380D02*
X183039238Y-105624380D01*
X183277333Y-105624380D01*
X183420190Y-105672000D01*
X183515428Y-105767238D01*
X183563047Y-105862476D01*
X183610666Y-106052952D01*
X183610666Y-106195809D01*
X183563047Y-106386285D01*
X183515428Y-106481523D01*
X183420190Y-106576761D01*
X183277333Y-106624380D01*
X183039238Y-106624380D01*
X184467809Y-105957714D02*
X184467809Y-106624380D01*
X184229714Y-105576761D02*
X183991619Y-106291047D01*
X184610666Y-106291047D01*
X185420190Y-105957714D02*
X185420190Y-106624380D01*
X185182095Y-105576761D02*
X184944000Y-106291047D01*
X185563047Y-106291047D01*
X185848761Y-105624380D02*
X186515428Y-105624380D01*
X186086857Y-106624380D01*
X187039238Y-106052952D02*
X186944000Y-106005333D01*
X186896380Y-105957714D01*
X186848761Y-105862476D01*
X186848761Y-105814857D01*
X186896380Y-105719619D01*
X186944000Y-105672000D01*
X187039238Y-105624380D01*
X187229714Y-105624380D01*
X187324952Y-105672000D01*
X187372571Y-105719619D01*
X187420190Y-105814857D01*
X187420190Y-105862476D01*
X187372571Y-105957714D01*
X187324952Y-106005333D01*
X187229714Y-106052952D01*
X187039238Y-106052952D01*
X186944000Y-106100571D01*
X186896380Y-106148190D01*
X186848761Y-106243428D01*
X186848761Y-106433904D01*
X186896380Y-106529142D01*
X186944000Y-106576761D01*
X187039238Y-106624380D01*
X187229714Y-106624380D01*
X187324952Y-106576761D01*
X187372571Y-106529142D01*
X187420190Y-106433904D01*
X187420190Y-106243428D01*
X187372571Y-106148190D01*
X187324952Y-106100571D01*
X187229714Y-106052952D01*
X188039238Y-105624380D02*
X188134476Y-105624380D01*
X188229714Y-105672000D01*
X188277333Y-105719619D01*
X188324952Y-105814857D01*
X188372571Y-106005333D01*
X188372571Y-106243428D01*
X188324952Y-106433904D01*
X188277333Y-106529142D01*
X188229714Y-106576761D01*
X188134476Y-106624380D01*
X188039238Y-106624380D01*
X187944000Y-106576761D01*
X187896380Y-106529142D01*
X187848761Y-106433904D01*
X187801142Y-106243428D01*
X187801142Y-106005333D01*
X187848761Y-105814857D01*
X187896380Y-105719619D01*
X187944000Y-105672000D01*
X188039238Y-105624380D01*
X190039238Y-106624380D02*
X189563047Y-106624380D01*
X189563047Y-105624380D01*
X190944000Y-106529142D02*
X190896380Y-106576761D01*
X190753523Y-106624380D01*
X190658285Y-106624380D01*
X190515428Y-106576761D01*
X190420190Y-106481523D01*
X190372571Y-106386285D01*
X190324952Y-106195809D01*
X190324952Y-106052952D01*
X190372571Y-105862476D01*
X190420190Y-105767238D01*
X190515428Y-105672000D01*
X190658285Y-105624380D01*
X190753523Y-105624380D01*
X190896380Y-105672000D01*
X190944000Y-105719619D01*
X191372571Y-106624380D02*
X191372571Y-105624380D01*
X191610666Y-105624380D01*
X191753523Y-105672000D01*
X191848761Y-105767238D01*
X191896380Y-105862476D01*
X191944000Y-106052952D01*
X191944000Y-106195809D01*
X191896380Y-106386285D01*
X191848761Y-106481523D01*
X191753523Y-106576761D01*
X191610666Y-106624380D01*
X191372571Y-106624380D01*
X230648000Y-125182380D02*
X230838476Y-125182380D01*
X230933714Y-125230000D01*
X231028952Y-125325238D01*
X231076571Y-125515714D01*
X231076571Y-125849047D01*
X231028952Y-126039523D01*
X230933714Y-126134761D01*
X230838476Y-126182380D01*
X230648000Y-126182380D01*
X230552761Y-126134761D01*
X230457523Y-126039523D01*
X230409904Y-125849047D01*
X230409904Y-125515714D01*
X230457523Y-125325238D01*
X230552761Y-125230000D01*
X230648000Y-125182380D01*
X231505142Y-125182380D02*
X231505142Y-125991904D01*
X231552761Y-126087142D01*
X231600380Y-126134761D01*
X231695619Y-126182380D01*
X231886095Y-126182380D01*
X231981333Y-126134761D01*
X232028952Y-126087142D01*
X232076571Y-125991904D01*
X232076571Y-125182380D01*
X232409904Y-125182380D02*
X232981333Y-125182380D01*
X232695619Y-126182380D02*
X232695619Y-125182380D01*
X191325904Y-99004380D02*
X191325904Y-98004380D01*
X191706857Y-98004380D01*
X191802095Y-98052000D01*
X191849714Y-98099619D01*
X191897333Y-98194857D01*
X191897333Y-98337714D01*
X191849714Y-98432952D01*
X191802095Y-98480571D01*
X191706857Y-98528190D01*
X191325904Y-98528190D01*
X192897333Y-98909142D02*
X192849714Y-98956761D01*
X192706857Y-99004380D01*
X192611619Y-99004380D01*
X192468761Y-98956761D01*
X192373523Y-98861523D01*
X192325904Y-98766285D01*
X192278285Y-98575809D01*
X192278285Y-98432952D01*
X192325904Y-98242476D01*
X192373523Y-98147238D01*
X192468761Y-98052000D01*
X192611619Y-98004380D01*
X192706857Y-98004380D01*
X192849714Y-98052000D01*
X192897333Y-98099619D01*
X193325904Y-99004380D02*
X193325904Y-98004380D01*
X193659238Y-98718666D01*
X193992571Y-98004380D01*
X193992571Y-99004380D01*
X194944952Y-98004380D02*
X194468761Y-98004380D01*
X194421142Y-98480571D01*
X194468761Y-98432952D01*
X194564000Y-98385333D01*
X194802095Y-98385333D01*
X194897333Y-98432952D01*
X194944952Y-98480571D01*
X194992571Y-98575809D01*
X194992571Y-98813904D01*
X194944952Y-98909142D01*
X194897333Y-98956761D01*
X194802095Y-99004380D01*
X194564000Y-99004380D01*
X194468761Y-98956761D01*
X194421142Y-98909142D01*
X195944952Y-99004380D02*
X195373523Y-99004380D01*
X195659238Y-99004380D02*
X195659238Y-98004380D01*
X195564000Y-98147238D01*
X195468761Y-98242476D01*
X195373523Y-98290095D01*
X196564000Y-98004380D02*
X196659238Y-98004380D01*
X196754476Y-98052000D01*
X196802095Y-98099619D01*
X196849714Y-98194857D01*
X196897333Y-98385333D01*
X196897333Y-98623428D01*
X196849714Y-98813904D01*
X196802095Y-98909142D01*
X196754476Y-98956761D01*
X196659238Y-99004380D01*
X196564000Y-99004380D01*
X196468761Y-98956761D01*
X196421142Y-98909142D01*
X196373523Y-98813904D01*
X196325904Y-98623428D01*
X196325904Y-98385333D01*
X196373523Y-98194857D01*
X196421142Y-98099619D01*
X196468761Y-98052000D01*
X196564000Y-98004380D01*
X197278285Y-98099619D02*
X197325904Y-98052000D01*
X197421142Y-98004380D01*
X197659238Y-98004380D01*
X197754476Y-98052000D01*
X197802095Y-98099619D01*
X197849714Y-98194857D01*
X197849714Y-98290095D01*
X197802095Y-98432952D01*
X197230666Y-99004380D01*
X197849714Y-99004380D01*
X199620380Y-85288380D02*
X199048952Y-85288380D01*
X199334666Y-85288380D02*
X199334666Y-84288380D01*
X199239428Y-84431238D01*
X199144190Y-84526476D01*
X199048952Y-84574095D01*
X200239428Y-84288380D02*
X200334666Y-84288380D01*
X200429904Y-84336000D01*
X200477523Y-84383619D01*
X200525142Y-84478857D01*
X200572761Y-84669333D01*
X200572761Y-84907428D01*
X200525142Y-85097904D01*
X200477523Y-85193142D01*
X200429904Y-85240761D01*
X200334666Y-85288380D01*
X200239428Y-85288380D01*
X200144190Y-85240761D01*
X200096571Y-85193142D01*
X200048952Y-85097904D01*
X200001333Y-84907428D01*
X200001333Y-84669333D01*
X200048952Y-84478857D01*
X200096571Y-84383619D01*
X200144190Y-84336000D01*
X200239428Y-84288380D01*
X201191809Y-84288380D02*
X201287047Y-84288380D01*
X201382285Y-84336000D01*
X201429904Y-84383619D01*
X201477523Y-84478857D01*
X201525142Y-84669333D01*
X201525142Y-84907428D01*
X201477523Y-85097904D01*
X201429904Y-85193142D01*
X201382285Y-85240761D01*
X201287047Y-85288380D01*
X201191809Y-85288380D01*
X201096571Y-85240761D01*
X201048952Y-85193142D01*
X201001333Y-85097904D01*
X200953714Y-84907428D01*
X200953714Y-84669333D01*
X201001333Y-84478857D01*
X201048952Y-84383619D01*
X201096571Y-84336000D01*
X201191809Y-84288380D01*
X201953714Y-84621714D02*
X201953714Y-85288380D01*
X201953714Y-84716952D02*
X202001333Y-84669333D01*
X202096571Y-84621714D01*
X202239428Y-84621714D01*
X202334666Y-84669333D01*
X202382285Y-84764571D01*
X202382285Y-85288380D01*
X203191809Y-84764571D02*
X202858476Y-84764571D01*
X202858476Y-85288380D02*
X202858476Y-84288380D01*
X203334666Y-84288380D01*
X230322666Y-121372380D02*
X230894095Y-121372380D01*
X230608380Y-122372380D02*
X230608380Y-121372380D01*
X231227428Y-122372380D02*
X231227428Y-121372380D01*
X231227428Y-121848571D02*
X231798857Y-121848571D01*
X231798857Y-122372380D02*
X231798857Y-121372380D01*
X232846476Y-122372380D02*
X232513142Y-121896190D01*
X232275047Y-122372380D02*
X232275047Y-121372380D01*
X232656000Y-121372380D01*
X232751238Y-121420000D01*
X232798857Y-121467619D01*
X232846476Y-121562857D01*
X232846476Y-121705714D01*
X232798857Y-121800952D01*
X232751238Y-121848571D01*
X232656000Y-121896190D01*
X232275047Y-121896190D01*
X233275047Y-121372380D02*
X233275047Y-122181904D01*
X233322666Y-122277142D01*
X233370285Y-122324761D01*
X233465523Y-122372380D01*
X233656000Y-122372380D01*
X233751238Y-122324761D01*
X233798857Y-122277142D01*
X233846476Y-122181904D01*
X233846476Y-121372380D01*
X164282380Y-121975428D02*
X164282380Y-122546857D01*
X164282380Y-122261142D02*
X163282380Y-122261142D01*
X163425238Y-122356380D01*
X163520476Y-122451619D01*
X163568095Y-122546857D01*
X163282380Y-121356380D02*
X163282380Y-121261142D01*
X163330000Y-121165904D01*
X163377619Y-121118285D01*
X163472857Y-121070666D01*
X163663333Y-121023047D01*
X163901428Y-121023047D01*
X164091904Y-121070666D01*
X164187142Y-121118285D01*
X164234761Y-121165904D01*
X164282380Y-121261142D01*
X164282380Y-121356380D01*
X164234761Y-121451619D01*
X164187142Y-121499238D01*
X164091904Y-121546857D01*
X163901428Y-121594476D01*
X163663333Y-121594476D01*
X163472857Y-121546857D01*
X163377619Y-121499238D01*
X163330000Y-121451619D01*
X163282380Y-121356380D01*
X163615714Y-120594476D02*
X164615714Y-120594476D01*
X163663333Y-120594476D02*
X163615714Y-120499238D01*
X163615714Y-120308761D01*
X163663333Y-120213523D01*
X163710952Y-120165904D01*
X163806190Y-120118285D01*
X164091904Y-120118285D01*
X164187142Y-120165904D01*
X164234761Y-120213523D01*
X164282380Y-120308761D01*
X164282380Y-120499238D01*
X164234761Y-120594476D01*
X163758571Y-119356380D02*
X163758571Y-119689714D01*
X164282380Y-119689714D02*
X163282380Y-119689714D01*
X163282380Y-119213523D01*
X244379904Y-101655619D02*
X244427523Y-101608000D01*
X244522761Y-101560380D01*
X244760857Y-101560380D01*
X244856095Y-101608000D01*
X244903714Y-101655619D01*
X244951333Y-101750857D01*
X244951333Y-101846095D01*
X244903714Y-101988952D01*
X244332285Y-102560380D01*
X244951333Y-102560380D01*
X245332285Y-101655619D02*
X245379904Y-101608000D01*
X245475142Y-101560380D01*
X245713238Y-101560380D01*
X245808476Y-101608000D01*
X245856095Y-101655619D01*
X245903714Y-101750857D01*
X245903714Y-101846095D01*
X245856095Y-101988952D01*
X245284666Y-102560380D01*
X245903714Y-102560380D01*
X246522761Y-101560380D02*
X246618000Y-101560380D01*
X246713238Y-101608000D01*
X246760857Y-101655619D01*
X246808476Y-101750857D01*
X246856095Y-101941333D01*
X246856095Y-102179428D01*
X246808476Y-102369904D01*
X246760857Y-102465142D01*
X246713238Y-102512761D01*
X246618000Y-102560380D01*
X246522761Y-102560380D01*
X246427523Y-102512761D01*
X246379904Y-102465142D01*
X246332285Y-102369904D01*
X246284666Y-102179428D01*
X246284666Y-101941333D01*
X246332285Y-101750857D01*
X246379904Y-101655619D01*
X246427523Y-101608000D01*
X246522761Y-101560380D01*
X159964380Y-93273333D02*
X158964380Y-93273333D01*
X159440571Y-93273333D02*
X159440571Y-92701904D01*
X159964380Y-92701904D02*
X158964380Y-92701904D01*
X158964380Y-92035238D02*
X158964380Y-91844761D01*
X159012000Y-91749523D01*
X159107238Y-91654285D01*
X159297714Y-91606666D01*
X159631047Y-91606666D01*
X159821523Y-91654285D01*
X159916761Y-91749523D01*
X159964380Y-91844761D01*
X159964380Y-92035238D01*
X159916761Y-92130476D01*
X159821523Y-92225714D01*
X159631047Y-92273333D01*
X159297714Y-92273333D01*
X159107238Y-92225714D01*
X159012000Y-92130476D01*
X158964380Y-92035238D01*
X159964380Y-91178095D02*
X158964380Y-91178095D01*
X159678666Y-90844761D01*
X158964380Y-90511428D01*
X159964380Y-90511428D01*
X159440571Y-90035238D02*
X159440571Y-89701904D01*
X159964380Y-89559047D02*
X159964380Y-90035238D01*
X158964380Y-90035238D01*
X158964380Y-89559047D01*
X237577428Y-122712380D02*
X237006000Y-122712380D01*
X237291714Y-122712380D02*
X237291714Y-121712380D01*
X237196476Y-121855238D01*
X237101238Y-121950476D01*
X237006000Y-121998095D01*
X238196476Y-121712380D02*
X238291714Y-121712380D01*
X238386952Y-121760000D01*
X238434571Y-121807619D01*
X238482190Y-121902857D01*
X238529809Y-122093333D01*
X238529809Y-122331428D01*
X238482190Y-122521904D01*
X238434571Y-122617142D01*
X238386952Y-122664761D01*
X238291714Y-122712380D01*
X238196476Y-122712380D01*
X238101238Y-122664761D01*
X238053619Y-122617142D01*
X238006000Y-122521904D01*
X237958380Y-122331428D01*
X237958380Y-122093333D01*
X238006000Y-121902857D01*
X238053619Y-121807619D01*
X238101238Y-121760000D01*
X238196476Y-121712380D01*
X238958380Y-122045714D02*
X238958380Y-123045714D01*
X238958380Y-122093333D02*
X239053619Y-122045714D01*
X239244095Y-122045714D01*
X239339333Y-122093333D01*
X239386952Y-122140952D01*
X239434571Y-122236190D01*
X239434571Y-122521904D01*
X239386952Y-122617142D01*
X239339333Y-122664761D01*
X239244095Y-122712380D01*
X239053619Y-122712380D01*
X238958380Y-122664761D01*
X239720285Y-122045714D02*
X240101238Y-122045714D01*
X239863142Y-122712380D02*
X239863142Y-121855238D01*
X239910761Y-121760000D01*
X240006000Y-121712380D01*
X240101238Y-121712380D01*
X280725619Y-109950095D02*
X280678000Y-109902476D01*
X280630380Y-109807238D01*
X280630380Y-109569142D01*
X280678000Y-109473904D01*
X280725619Y-109426285D01*
X280820857Y-109378666D01*
X280916095Y-109378666D01*
X281058952Y-109426285D01*
X281630380Y-109997714D01*
X281630380Y-109378666D01*
X280725619Y-108997714D02*
X280678000Y-108950095D01*
X280630380Y-108854857D01*
X280630380Y-108616761D01*
X280678000Y-108521523D01*
X280725619Y-108473904D01*
X280820857Y-108426285D01*
X280916095Y-108426285D01*
X281058952Y-108473904D01*
X281630380Y-109045333D01*
X281630380Y-108426285D01*
X280630380Y-107807238D02*
X280630380Y-107712000D01*
X280678000Y-107616761D01*
X280725619Y-107569142D01*
X280820857Y-107521523D01*
X281011333Y-107473904D01*
X281249428Y-107473904D01*
X281439904Y-107521523D01*
X281535142Y-107569142D01*
X281582761Y-107616761D01*
X281630380Y-107712000D01*
X281630380Y-107807238D01*
X281582761Y-107902476D01*
X281535142Y-107950095D01*
X281439904Y-107997714D01*
X281249428Y-108045333D01*
X281011333Y-108045333D01*
X280820857Y-107997714D01*
X280725619Y-107950095D01*
X280678000Y-107902476D01*
X280630380Y-107807238D01*
X210732761Y-87067380D02*
X210161333Y-87067380D01*
X210447047Y-87067380D02*
X210447047Y-86067380D01*
X210351809Y-86210238D01*
X210256571Y-86305476D01*
X210161333Y-86353095D01*
X211351809Y-86067380D02*
X211447047Y-86067380D01*
X211542285Y-86115000D01*
X211589904Y-86162619D01*
X211637523Y-86257857D01*
X211685142Y-86448333D01*
X211685142Y-86686428D01*
X211637523Y-86876904D01*
X211589904Y-86972142D01*
X211542285Y-87019761D01*
X211447047Y-87067380D01*
X211351809Y-87067380D01*
X211256571Y-87019761D01*
X211208952Y-86972142D01*
X211161333Y-86876904D01*
X211113714Y-86686428D01*
X211113714Y-86448333D01*
X211161333Y-86257857D01*
X211208952Y-86162619D01*
X211256571Y-86115000D01*
X211351809Y-86067380D01*
X212113714Y-87067380D02*
X212113714Y-86067380D01*
X212208952Y-86686428D02*
X212494666Y-87067380D01*
X212494666Y-86400714D02*
X212113714Y-86781666D01*
X256063904Y-101655619D02*
X256111523Y-101608000D01*
X256206761Y-101560380D01*
X256444857Y-101560380D01*
X256540095Y-101608000D01*
X256587714Y-101655619D01*
X256635333Y-101750857D01*
X256635333Y-101846095D01*
X256587714Y-101988952D01*
X256016285Y-102560380D01*
X256635333Y-102560380D01*
X257016285Y-101655619D02*
X257063904Y-101608000D01*
X257159142Y-101560380D01*
X257397238Y-101560380D01*
X257492476Y-101608000D01*
X257540095Y-101655619D01*
X257587714Y-101750857D01*
X257587714Y-101846095D01*
X257540095Y-101988952D01*
X256968666Y-102560380D01*
X257587714Y-102560380D01*
X258206761Y-101560380D02*
X258302000Y-101560380D01*
X258397238Y-101608000D01*
X258444857Y-101655619D01*
X258492476Y-101750857D01*
X258540095Y-101941333D01*
X258540095Y-102179428D01*
X258492476Y-102369904D01*
X258444857Y-102465142D01*
X258397238Y-102512761D01*
X258302000Y-102560380D01*
X258206761Y-102560380D01*
X258111523Y-102512761D01*
X258063904Y-102465142D01*
X258016285Y-102369904D01*
X257968666Y-102179428D01*
X257968666Y-101941333D01*
X258016285Y-101750857D01*
X258063904Y-101655619D01*
X258111523Y-101608000D01*
X258206761Y-101560380D01*
D12*
X232432571Y-88941428D02*
X232432571Y-87417428D01*
X232940571Y-88506000D01*
X233448571Y-87417428D01*
X233448571Y-88941428D01*
X234174285Y-88941428D02*
X234174285Y-87417428D01*
X234900000Y-88941428D02*
X234900000Y-87417428D01*
X235262857Y-87417428D01*
X235480571Y-87490000D01*
X235625714Y-87635142D01*
X235698285Y-87780285D01*
X235770857Y-88070571D01*
X235770857Y-88288285D01*
X235698285Y-88578571D01*
X235625714Y-88723714D01*
X235480571Y-88868857D01*
X235262857Y-88941428D01*
X234900000Y-88941428D01*
X236424000Y-88941428D02*
X236424000Y-87417428D01*
X238310857Y-88941428D02*
X238310857Y-87417428D01*
X239036571Y-88941428D02*
X239036571Y-87417428D01*
X239907428Y-88941428D01*
X239907428Y-87417428D01*
X251380571Y-88941428D02*
X251380571Y-87417428D01*
X251888571Y-88506000D01*
X252396571Y-87417428D01*
X252396571Y-88941428D01*
X253122285Y-88941428D02*
X253122285Y-87417428D01*
X253848000Y-88941428D02*
X253848000Y-87417428D01*
X254210857Y-87417428D01*
X254428571Y-87490000D01*
X254573714Y-87635142D01*
X254646285Y-87780285D01*
X254718857Y-88070571D01*
X254718857Y-88288285D01*
X254646285Y-88578571D01*
X254573714Y-88723714D01*
X254428571Y-88868857D01*
X254210857Y-88941428D01*
X253848000Y-88941428D01*
X255372000Y-88941428D02*
X255372000Y-87417428D01*
X257549142Y-87417428D02*
X257839428Y-87417428D01*
X257984571Y-87490000D01*
X258129714Y-87635142D01*
X258202285Y-87925428D01*
X258202285Y-88433428D01*
X258129714Y-88723714D01*
X257984571Y-88868857D01*
X257839428Y-88941428D01*
X257549142Y-88941428D01*
X257404000Y-88868857D01*
X257258857Y-88723714D01*
X257186285Y-88433428D01*
X257186285Y-87925428D01*
X257258857Y-87635142D01*
X257404000Y-87490000D01*
X257549142Y-87417428D01*
X258855428Y-87417428D02*
X258855428Y-88651142D01*
X258928000Y-88796285D01*
X259000571Y-88868857D01*
X259145714Y-88941428D01*
X259436000Y-88941428D01*
X259581142Y-88868857D01*
X259653714Y-88796285D01*
X259726285Y-88651142D01*
X259726285Y-87417428D01*
X260234285Y-87417428D02*
X261105142Y-87417428D01*
X260669714Y-88941428D02*
X260669714Y-87417428D01*
X271040571Y-88941428D02*
X271040571Y-87417428D01*
X271548571Y-88506000D01*
X272056571Y-87417428D01*
X272056571Y-88941428D01*
X272782285Y-88941428D02*
X272782285Y-87417428D01*
X273508000Y-88941428D02*
X273508000Y-87417428D01*
X273870857Y-87417428D01*
X274088571Y-87490000D01*
X274233714Y-87635142D01*
X274306285Y-87780285D01*
X274378857Y-88070571D01*
X274378857Y-88288285D01*
X274306285Y-88578571D01*
X274233714Y-88723714D01*
X274088571Y-88868857D01*
X273870857Y-88941428D01*
X273508000Y-88941428D01*
X275032000Y-88941428D02*
X275032000Y-87417428D01*
X276701142Y-87417428D02*
X277572000Y-87417428D01*
X277136571Y-88941428D02*
X277136571Y-87417428D01*
X278080000Y-88941428D02*
X278080000Y-87417428D01*
X278080000Y-88143142D02*
X278950857Y-88143142D01*
X278950857Y-88941428D02*
X278950857Y-87417428D01*
X280547428Y-88941428D02*
X280039428Y-88215714D01*
X279676571Y-88941428D02*
X279676571Y-87417428D01*
X280257142Y-87417428D01*
X280402285Y-87490000D01*
X280474857Y-87562571D01*
X280547428Y-87707714D01*
X280547428Y-87925428D01*
X280474857Y-88070571D01*
X280402285Y-88143142D01*
X280257142Y-88215714D01*
X279676571Y-88215714D01*
X281200571Y-87417428D02*
X281200571Y-88651142D01*
X281273142Y-88796285D01*
X281345714Y-88868857D01*
X281490857Y-88941428D01*
X281781142Y-88941428D01*
X281926285Y-88868857D01*
X281998857Y-88796285D01*
X282071428Y-88651142D01*
X282071428Y-87417428D01*
D13*
X201396000Y-91210000D02*
X201396000Y-92720000D01*
X203597000Y-89886000D02*
X203597000Y-90454000D01*
X202117000Y-87841000D02*
X202117000Y-89130000D01*
X203117000Y-88670000D02*
X203117000Y-89130000D01*
X201436000Y-87627000D02*
X201436000Y-89130000D01*
X201997000Y-91210000D02*
X201997000Y-92552000D01*
X202677000Y-91210000D02*
X202677000Y-92141000D01*
X202717000Y-91210000D02*
X202717000Y-92107000D01*
X203037000Y-91210000D02*
X203037000Y-91775000D01*
X202197000Y-91210000D02*
X202197000Y-92460000D01*
X201997000Y-87788000D02*
X201997000Y-89130000D01*
X202997000Y-88517000D02*
X202997000Y-89130000D01*
X202477000Y-88048000D02*
X202477000Y-89130000D01*
X201036000Y-87590000D02*
X201036000Y-92750000D01*
X201236000Y-91210000D02*
X201236000Y-92739000D01*
X201877000Y-91210000D02*
X201877000Y-92598000D01*
X201837000Y-91210000D02*
X201837000Y-92612000D01*
X203277000Y-88919000D02*
X203277000Y-89130000D01*
X201476000Y-87634000D02*
X201476000Y-89130000D01*
X202037000Y-87805000D02*
X202037000Y-89130000D01*
X201196000Y-87597000D02*
X201196000Y-92743000D01*
X202157000Y-91210000D02*
X202157000Y-92480000D01*
X202437000Y-91210000D02*
X202437000Y-92319000D01*
X203157000Y-88727000D02*
X203157000Y-89130000D01*
X201596000Y-87659000D02*
X201596000Y-89130000D01*
X201316000Y-91210000D02*
X201316000Y-92731000D01*
X201556000Y-87650000D02*
X201556000Y-89130000D01*
X201917000Y-91210000D02*
X201917000Y-92584000D01*
X201356000Y-91210000D02*
X201356000Y-92726000D01*
X203117000Y-91210000D02*
X203117000Y-91670000D01*
X203357000Y-89072000D02*
X203357000Y-91268000D01*
X201957000Y-91210000D02*
X201957000Y-92568000D01*
X198191225Y-88695000D02*
X198691225Y-88695000D01*
X203237000Y-88851000D02*
X203237000Y-89130000D01*
X201436000Y-91210000D02*
X201436000Y-92713000D01*
X201797000Y-91210000D02*
X201797000Y-92625000D01*
X202557000Y-91210000D02*
X202557000Y-92235000D01*
X202997000Y-91210000D02*
X202997000Y-91823000D01*
X203397000Y-89159000D02*
X203397000Y-91181000D01*
X203517000Y-89493000D02*
X203517000Y-90847000D01*
X202037000Y-91210000D02*
X202037000Y-92535000D01*
X202237000Y-91210000D02*
X202237000Y-92438000D01*
X203197000Y-88787000D02*
X203197000Y-89130000D01*
X202757000Y-91210000D02*
X202757000Y-92071000D01*
X201757000Y-87702000D02*
X201757000Y-89130000D01*
X203197000Y-91210000D02*
X203197000Y-91553000D01*
X203557000Y-89652000D02*
X203557000Y-90688000D01*
X202317000Y-87946000D02*
X202317000Y-89130000D01*
X201276000Y-87605000D02*
X201276000Y-89130000D01*
X202877000Y-88385000D02*
X202877000Y-89130000D01*
X201596000Y-91210000D02*
X201596000Y-92681000D01*
X203157000Y-91210000D02*
X203157000Y-91613000D01*
X203277000Y-91210000D02*
X203277000Y-91421000D01*
X202517000Y-88075000D02*
X202517000Y-89130000D01*
X201676000Y-91210000D02*
X201676000Y-92661000D01*
X201636000Y-87669000D02*
X201636000Y-89130000D01*
X203077000Y-88616000D02*
X203077000Y-89130000D01*
X201877000Y-87742000D02*
X201877000Y-89130000D01*
X202757000Y-88269000D02*
X202757000Y-89130000D01*
X202517000Y-91210000D02*
X202517000Y-92265000D01*
X202277000Y-91210000D02*
X202277000Y-92417000D01*
X202237000Y-87902000D02*
X202237000Y-89130000D01*
X201837000Y-87728000D02*
X201837000Y-89130000D01*
X202957000Y-91210000D02*
X202957000Y-91869000D01*
X201917000Y-87756000D02*
X201917000Y-89130000D01*
X201476000Y-91210000D02*
X201476000Y-92706000D01*
X201356000Y-87614000D02*
X201356000Y-89130000D01*
X202637000Y-91210000D02*
X202637000Y-92174000D01*
X202077000Y-91210000D02*
X202077000Y-92518000D01*
X201636000Y-91210000D02*
X201636000Y-92671000D01*
X201396000Y-87620000D02*
X201396000Y-89130000D01*
X202797000Y-88306000D02*
X202797000Y-89130000D01*
X198441225Y-88445000D02*
X198441225Y-88945000D01*
X202837000Y-88344000D02*
X202837000Y-89130000D01*
X201276000Y-91210000D02*
X201276000Y-92735000D01*
X203477000Y-89365000D02*
X203477000Y-90975000D01*
X202477000Y-91210000D02*
X202477000Y-92292000D01*
X201316000Y-87609000D02*
X201316000Y-89130000D01*
X202557000Y-88105000D02*
X202557000Y-89130000D01*
X202917000Y-88427000D02*
X202917000Y-89130000D01*
X202077000Y-87822000D02*
X202077000Y-89130000D01*
X201676000Y-87679000D02*
X201676000Y-89130000D01*
X200996000Y-87590000D02*
X200996000Y-92750000D01*
X201556000Y-91210000D02*
X201556000Y-92690000D01*
X203077000Y-91210000D02*
X203077000Y-91724000D01*
X201516000Y-87642000D02*
X201516000Y-89130000D01*
X202357000Y-91210000D02*
X202357000Y-92370000D01*
X202597000Y-88135000D02*
X202597000Y-89130000D01*
X201156000Y-87594000D02*
X201156000Y-92746000D01*
X202117000Y-91210000D02*
X202117000Y-92499000D01*
X202197000Y-87880000D02*
X202197000Y-89130000D01*
X202317000Y-91210000D02*
X202317000Y-92394000D01*
X202717000Y-88233000D02*
X202717000Y-89130000D01*
X201757000Y-91210000D02*
X201757000Y-92638000D01*
X201236000Y-87601000D02*
X201236000Y-89130000D01*
X202597000Y-91210000D02*
X202597000Y-92205000D01*
X202957000Y-88471000D02*
X202957000Y-89130000D01*
X202397000Y-91210000D02*
X202397000Y-92345000D01*
X202437000Y-88021000D02*
X202437000Y-89130000D01*
X202837000Y-91210000D02*
X202837000Y-91996000D01*
X201717000Y-87690000D02*
X201717000Y-89130000D01*
X202797000Y-91210000D02*
X202797000Y-92034000D01*
X201076000Y-87591000D02*
X201076000Y-92749000D01*
X201797000Y-87715000D02*
X201797000Y-89130000D01*
X203437000Y-89255000D02*
X203437000Y-91085000D01*
X202637000Y-88166000D02*
X202637000Y-89130000D01*
X202357000Y-87970000D02*
X202357000Y-89130000D01*
X202277000Y-87923000D02*
X202277000Y-89130000D01*
X203037000Y-88565000D02*
X203037000Y-89130000D01*
X201957000Y-87772000D02*
X201957000Y-89130000D01*
X202877000Y-91210000D02*
X202877000Y-91955000D01*
X203317000Y-88992000D02*
X203317000Y-91348000D01*
X202917000Y-91210000D02*
X202917000Y-91913000D01*
X202397000Y-87995000D02*
X202397000Y-89130000D01*
X202157000Y-87860000D02*
X202157000Y-89130000D01*
X202677000Y-88199000D02*
X202677000Y-89130000D01*
X201717000Y-91210000D02*
X201717000Y-92650000D01*
X203237000Y-91210000D02*
X203237000Y-91489000D01*
X201516000Y-91210000D02*
X201516000Y-92698000D01*
X201116000Y-87592000D02*
X201116000Y-92748000D01*
X203616000Y-90170000D02*
G75*
G03*
X203616000Y-90170000I-2620000J0D01*
G01*
X253496000Y-127000000D02*
X254496000Y-127000000D01*
X246496000Y-123200000D02*
X246196000Y-122900000D01*
X251996000Y-132900000D02*
X247896000Y-132900000D01*
X260096000Y-125700000D02*
X260096000Y-128300000D01*
X253996000Y-126500000D02*
X253996000Y-127500000D01*
X255996000Y-121100000D02*
X260096000Y-121100000D01*
X260096000Y-121100000D02*
X260096000Y-123500000D01*
X247896000Y-121100000D02*
X247896000Y-132900000D01*
X246796000Y-122900000D02*
X246496000Y-123200000D01*
X246196000Y-122900000D02*
X246796000Y-122900000D01*
X251996000Y-121100000D02*
X247896000Y-121100000D01*
X260096000Y-130500000D02*
X260096000Y-132900000D01*
X260096000Y-132900000D02*
X255996000Y-132900000D01*
X256996000Y-127000000D02*
G75*
G03*
X256996000Y-127000000I-3000000J0D01*
G01*
X227176000Y-110522000D02*
X227176000Y-117062000D01*
X227176000Y-117062000D02*
X226846000Y-117062000D01*
X224766000Y-110522000D02*
X224436000Y-110522000D01*
X224436000Y-110522000D02*
X224436000Y-117062000D01*
X224436000Y-117062000D02*
X224766000Y-117062000D01*
X226846000Y-110522000D02*
X227176000Y-110522000D01*
X236236000Y-133057000D02*
X236236000Y-133042000D01*
X240776000Y-135182000D02*
X240776000Y-135167000D01*
X240776000Y-133057000D02*
X240776000Y-133042000D01*
X240776000Y-133042000D02*
X236236000Y-133042000D01*
X240776000Y-135182000D02*
X236236000Y-135182000D01*
X236236000Y-135182000D02*
X236236000Y-135167000D01*
X238452000Y-114824000D02*
X238467000Y-114824000D01*
X240577000Y-114824000D02*
X240592000Y-114824000D01*
X238452000Y-119364000D02*
X238467000Y-119364000D01*
X240592000Y-119364000D02*
X240592000Y-114824000D01*
X240577000Y-119364000D02*
X240592000Y-119364000D01*
X238452000Y-119364000D02*
X238452000Y-114824000D01*
X234418000Y-105918000D02*
X233768000Y-105918000D01*
X229528000Y-107038000D02*
X233768000Y-107038000D01*
X232928000Y-107038000D02*
X232928000Y-104798000D01*
X233768000Y-104798000D02*
X229528000Y-104798000D01*
X229528000Y-104798000D02*
X229528000Y-107038000D01*
X233168000Y-107038000D02*
X233168000Y-104798000D01*
X233768000Y-107038000D02*
X233768000Y-104798000D01*
X228878000Y-105918000D02*
X229528000Y-105918000D01*
X233048000Y-107038000D02*
X233048000Y-104798000D01*
X228378000Y-103478000D02*
X234918000Y-103478000D01*
X234918000Y-103478000D02*
X234918000Y-103148000D01*
X228378000Y-100738000D02*
X234918000Y-100738000D01*
X228378000Y-101068000D02*
X228378000Y-100738000D01*
X228378000Y-103148000D02*
X228378000Y-103478000D01*
X234918000Y-100738000D02*
X234918000Y-101068000D01*
X236236000Y-130356000D02*
X236236000Y-130341000D01*
X240776000Y-128231000D02*
X240776000Y-128216000D01*
X240776000Y-130356000D02*
X236236000Y-130356000D01*
X236236000Y-128231000D02*
X236236000Y-128216000D01*
X240776000Y-130356000D02*
X240776000Y-130341000D01*
X240776000Y-128216000D02*
X236236000Y-128216000D01*
X160997000Y-113014000D02*
X160982000Y-113014000D01*
X163122000Y-108474000D02*
X163122000Y-113014000D01*
X160997000Y-108474000D02*
X160982000Y-108474000D01*
X163122000Y-108474000D02*
X163107000Y-108474000D01*
X160982000Y-108474000D02*
X160982000Y-113014000D01*
X163122000Y-113014000D02*
X163107000Y-113014000D01*
X240592000Y-105934000D02*
X240592000Y-110474000D01*
X238467000Y-105934000D02*
X238452000Y-105934000D01*
X238452000Y-105934000D02*
X238452000Y-110474000D01*
X240592000Y-110474000D02*
X240577000Y-110474000D01*
X240592000Y-105934000D02*
X240577000Y-105934000D01*
X238467000Y-110474000D02*
X238452000Y-110474000D01*
X160722000Y-100385000D02*
X163382000Y-100385000D01*
X160722000Y-96515000D02*
X160722000Y-95185000D01*
X160722000Y-97785000D02*
X163382000Y-97785000D01*
X160722000Y-95185000D02*
X162052000Y-95185000D01*
X163382000Y-97785000D02*
X163382000Y-100385000D01*
X160722000Y-97785000D02*
X160722000Y-100385000D01*
X260211000Y-115112000D02*
X260211000Y-104832000D01*
X242191000Y-115112000D02*
X260211000Y-115112000D01*
X260151000Y-107322000D02*
X242251000Y-107322000D01*
X260211000Y-104832000D02*
X242191000Y-104832000D01*
X242251000Y-107322000D02*
X242251000Y-108972000D01*
X242251000Y-112622000D02*
X260151000Y-112622000D01*
X242251000Y-110972000D02*
X242251000Y-112622000D01*
X242191000Y-104832000D02*
X242191000Y-115112000D01*
X260151000Y-112622000D02*
X260151000Y-107322000D01*
X242251000Y-110972000D02*
G75*
G03*
X242251000Y-108972000I0J1000000D01*
G01*
X272642000Y-105442000D02*
X272642000Y-111982000D01*
X269902000Y-105442000D02*
X269902000Y-111982000D01*
X269902000Y-111982000D02*
X270232000Y-111982000D01*
X272642000Y-111982000D02*
X272312000Y-111982000D01*
X270232000Y-105442000D02*
X269902000Y-105442000D01*
X272312000Y-105442000D02*
X272642000Y-105442000D01*
X228998000Y-108662000D02*
X228998000Y-118942000D01*
X236858000Y-108662000D02*
X228998000Y-108662000D01*
X229058000Y-111152000D02*
X229058000Y-116452000D01*
X228998000Y-118942000D02*
X236858000Y-118942000D01*
X236798000Y-112802000D02*
X236798000Y-111152000D01*
X236858000Y-118942000D02*
X236858000Y-108662000D01*
X236798000Y-111152000D02*
X229058000Y-111152000D01*
X236798000Y-116452000D02*
X236798000Y-114802000D01*
X229058000Y-116452000D02*
X236798000Y-116452000D01*
X236798000Y-112802000D02*
G75*
G03*
X236798000Y-114802000I0J-1000000D01*
G01*
X166310000Y-102048000D02*
X166310000Y-104708000D01*
X207070000Y-103378000D02*
X207070000Y-104708000D01*
X204470000Y-102048000D02*
X166310000Y-102048000D01*
X204470000Y-104708000D02*
X166310000Y-104708000D01*
X207070000Y-104708000D02*
X205740000Y-104708000D01*
X204470000Y-102048000D02*
X204470000Y-104708000D01*
X229746000Y-126730000D02*
X226946000Y-126730000D01*
X229746000Y-124730000D02*
X229746000Y-126730000D01*
X226946000Y-126730000D02*
X226946000Y-124730000D01*
X226946000Y-124730000D02*
X229746000Y-124730000D01*
X193311000Y-94349000D02*
X193311000Y-81589000D01*
X194641000Y-96949000D02*
X193311000Y-96949000D01*
X195971000Y-81589000D02*
X193311000Y-81589000D01*
X195971000Y-94349000D02*
X195971000Y-81589000D01*
X195971000Y-94349000D02*
X193311000Y-94349000D01*
X193311000Y-96949000D02*
X193311000Y-95619000D01*
X203438000Y-83874000D02*
X203438000Y-83859000D01*
X203438000Y-83874000D02*
X198898000Y-83874000D01*
X203438000Y-81734000D02*
X198898000Y-81734000D01*
X203438000Y-81749000D02*
X203438000Y-81734000D01*
X198898000Y-81749000D02*
X198898000Y-81734000D01*
X198898000Y-83874000D02*
X198898000Y-83859000D01*
X226946000Y-120920000D02*
X229746000Y-120920000D01*
X229746000Y-122920000D02*
X226946000Y-122920000D01*
X229746000Y-120920000D02*
X229746000Y-122920000D01*
X226946000Y-122920000D02*
X226946000Y-120920000D01*
X160743000Y-118634000D02*
X160728000Y-118634000D01*
X162868000Y-118634000D02*
X162868000Y-123174000D01*
X160728000Y-118634000D02*
X160728000Y-123174000D01*
X162868000Y-123174000D02*
X162853000Y-123174000D01*
X160743000Y-123174000D02*
X160728000Y-123174000D01*
X162868000Y-118634000D02*
X162853000Y-118634000D01*
X242348000Y-100738000D02*
X242348000Y-101068000D01*
X248888000Y-101068000D02*
X248888000Y-100738000D01*
X248888000Y-103478000D02*
X242348000Y-103478000D01*
X242348000Y-103478000D02*
X242348000Y-103148000D01*
X248888000Y-100738000D02*
X242348000Y-100738000D01*
X248888000Y-103148000D02*
X248888000Y-103478000D01*
X163382000Y-88845000D02*
X160722000Y-88845000D01*
X160722000Y-91445000D02*
X160722000Y-88845000D01*
X163382000Y-92715000D02*
X163382000Y-94045000D01*
X163382000Y-91445000D02*
X163382000Y-88845000D01*
X163382000Y-91445000D02*
X160722000Y-91445000D01*
X163382000Y-94045000D02*
X162052000Y-94045000D01*
X236236000Y-125530000D02*
X236236000Y-125515000D01*
X240776000Y-125530000D02*
X240776000Y-125515000D01*
X240776000Y-123405000D02*
X240776000Y-123390000D01*
X240776000Y-123390000D02*
X236236000Y-123390000D01*
X240776000Y-125530000D02*
X236236000Y-125530000D01*
X236236000Y-123405000D02*
X236236000Y-123390000D01*
X280138000Y-105442000D02*
X279808000Y-105442000D01*
X282218000Y-105442000D02*
X282548000Y-105442000D01*
X282548000Y-111982000D02*
X282218000Y-111982000D01*
X279808000Y-111982000D02*
X280138000Y-111982000D01*
X279808000Y-105442000D02*
X279808000Y-111982000D01*
X282548000Y-105442000D02*
X282548000Y-111982000D01*
X216304000Y-86615000D02*
G75*
G03*
X216304000Y-86615000I-5270000J0D01*
G01*
X254032000Y-100738000D02*
X254032000Y-101068000D01*
X254032000Y-103478000D02*
X254032000Y-103148000D01*
X260572000Y-100738000D02*
X254032000Y-100738000D01*
X260572000Y-103478000D02*
X254032000Y-103478000D01*
X260572000Y-103148000D02*
X260572000Y-103478000D01*
X260572000Y-101068000D02*
X260572000Y-100738000D01*
D14*
X231071820Y-96177100D03*
X241064180Y-96177100D03*
X228569920Y-93675200D03*
X236068000Y-93677740D03*
X243566080Y-93675200D03*
X263632080Y-93675200D03*
X256134000Y-93677740D03*
X248635920Y-93675200D03*
X261130180Y-96177100D03*
X251137820Y-96177100D03*
X283698080Y-93675200D03*
X276200000Y-93677740D03*
X268701920Y-93675200D03*
X281196180Y-96177100D03*
X271203820Y-96177100D03*
M02*
