M48
; DRILL file {KiCad (6.0.5)} date Thu Jul 28 08:19:07 2022
; FORMAT={-:-/ absolute / inch / decimal}
; #@! TF.CreationDate,2022-07-28T08:19:07+01:00
; #@! TF.GenerationSoftware,Kicad,Pcbnew,(6.0.5)
; #@! TF.FileFunction,MixedPlating,1,2
FMAT,2
INCH
; #@! TA.AperFunction,Plated,PTH,ComponentDrill
T1C0.0315
; #@! TA.AperFunction,Plated,PTH,ComponentDrill
T2C0.0394
; #@! TA.AperFunction,Plated,PTH,ComponentDrill
T3C0.0512
; #@! TA.AperFunction,Plated,PTH,ComponentDrill
T4C0.0550
; #@! TA.AperFunction,Plated,PTH,ComponentDrill
T5C0.1024
; #@! TA.AperFunction,NonPlated,NPTH,ComponentDrill
T6C0.0550
; #@! TA.AperFunction,NonPlated,NPTH,ComponentDrill
T7C0.1063
%
G90
G05
T1
X6.37Y-4.6616
X6.37Y-4.8584
X6.38Y-4.2616
X6.38Y-4.4584
X7.8216Y-3.26
X7.864Y-3.55
X7.9624Y-3.55
X8.0184Y-3.26
X8.89Y-4.33
X8.89Y-4.63
X8.97Y-4.02
X8.97Y-4.17
X9.0704Y-4.3304
X9.0704Y-4.6304
X9.1704Y-4.3304
X9.1704Y-4.6304
X9.27Y-4.02
X9.27Y-4.17
X9.2704Y-4.3304
X9.2704Y-4.6304
X9.2916Y-4.9
X9.2916Y-5.09
X9.2916Y-5.28
X9.43Y-4.1616
X9.43Y-4.3584
X9.43Y-4.5116
X9.43Y-4.7084
X9.4884Y-4.9
X9.4884Y-5.09
X9.4884Y-5.28
X9.52Y-4.02
X9.5898Y-4.1796
X9.5898Y-4.4796
X9.6898Y-4.1796
X9.6898Y-4.4796
X9.7898Y-4.1796
X9.7898Y-4.4796
X9.82Y-4.02
X9.8898Y-4.1796
X9.8898Y-4.4796
X9.98Y-4.02
X9.9898Y-4.1796
X9.9898Y-4.4796
X10.0898Y-4.1796
X10.0898Y-4.4796
X10.1898Y-4.1796
X10.1898Y-4.4796
X10.28Y-4.02
X10.68Y-4.13
X10.68Y-4.43
X11.07Y-4.13
X11.07Y-4.43
T2
X6.38Y-3.5502
X6.38Y-3.6502
X6.38Y-3.7998
X6.38Y-3.8998
X6.5645Y-5.2024
X6.5645Y-5.3024
X6.6Y-4.07
X6.6645Y-5.2024
X6.6645Y-5.3024
X6.7Y-4.07
X6.7645Y-5.2024
X6.7645Y-5.3024
X6.8Y-4.07
X6.8645Y-5.2024
X6.8645Y-5.3024
X6.9Y-4.07
X6.9645Y-5.2024
X6.9645Y-5.3024
X7.0Y-4.07
X7.0645Y-5.2024
X7.0645Y-5.3024
X7.1Y-4.07
X7.1645Y-5.2024
X7.1645Y-5.3024
X7.2Y-4.07
X7.2645Y-5.2024
X7.2645Y-5.3024
X7.3Y-4.07
X7.3645Y-5.2024
X7.3645Y-5.3024
X7.4Y-4.07
X7.4645Y-5.2024
X7.4645Y-5.3024
X7.5Y-4.07
X7.5645Y-5.2024
X7.5645Y-5.3024
X7.6Y-4.07
X7.663Y-3.2645
X7.663Y-3.3645
X7.663Y-3.4645
X7.663Y-3.5645
X7.663Y-3.6645
X7.663Y-3.7645
X7.6645Y-5.2024
X7.6645Y-5.3024
X7.7Y-4.07
X7.7645Y-5.2024
X7.7645Y-5.3024
X7.8Y-4.07
X7.8645Y-5.2024
X7.8645Y-5.3024
X7.9Y-4.07
X7.9645Y-5.2024
X7.9645Y-5.3024
X8.0Y-4.07
X8.0645Y-5.2024
X8.0645Y-5.3024
X8.1Y-4.07
X8.1645Y-5.2024
X8.1645Y-5.3024
X8.2645Y-5.2024
X8.2645Y-5.3024
X8.3645Y-5.2024
X8.3645Y-5.3024
X8.4645Y-5.2024
X8.4645Y-5.3024
X9.7046Y-4.9016
X9.7046Y-5.0
X9.7046Y-5.0984
X10.2754Y-4.9016
X10.2754Y-5.0984
T3
X8.21Y-3.3116
X8.3084Y-3.5084
X8.4069Y-3.3116
T4
X8.9988Y-3.688
X9.0973Y-3.7865
X9.294Y-3.6881
X9.4907Y-3.7865
X9.5892Y-3.688
X9.7888Y-3.688
X9.8873Y-3.7865
X10.084Y-3.6881
X10.2807Y-3.7865
X10.3792Y-3.688
X10.5788Y-3.688
X10.6773Y-3.7865
X10.874Y-3.6881
X11.0707Y-3.7865
X11.1692Y-3.688
T5
X9.9998Y-4.7795
X9.9998Y-5.2205
T6
X9.0971Y-3.2945
X9.4909Y-3.2945
X9.8871Y-3.2945
X10.2809Y-3.2945
X10.6771Y-3.2945
X11.0709Y-3.2945
T7
X6.3728Y-3.3233
X6.3728Y-5.2524
X8.6562Y-3.3233
X8.6562Y-5.2524
T0
M30
