G04 #@! TF.GenerationSoftware,KiCad,Pcbnew,7.0.9*
G04 #@! TF.CreationDate,2023-11-29T14:02:09+00:00*
G04 #@! TF.ProjectId,RPi-400-MIDI-MiniDexed,5250692d-3430-4302-9d4d-4944492d4d69,rev?*
G04 #@! TF.SameCoordinates,Original*
G04 #@! TF.FileFunction,Profile,NP*
%FSLAX46Y46*%
G04 Gerber Fmt 4.6, Leading zero omitted, Abs format (unit mm)*
G04 Created by KiCad (PCBNEW 7.0.9) date 2023-11-29 14:02:09*
%MOMM*%
%LPD*%
G01*
G04 APERTURE LIST*
G04 #@! TA.AperFunction,Profile*
%ADD10C,0.100000*%
G04 #@! TD*
G04 #@! TA.AperFunction,Profile*
%ADD11C,0.120000*%
G04 #@! TD*
G04 APERTURE END LIST*
D10*
X165000000Y-73000000D02*
G75*
G03*
X162000000Y-70000000I-3000000J0D01*
G01*
X165000000Y-127000000D02*
X165000000Y-73000000D01*
X100000000Y-73000000D02*
X100000000Y-127000000D01*
X139000000Y-130000000D02*
X145800000Y-130000000D01*
X100000000Y-127000000D02*
G75*
G03*
X103000000Y-130000000I3000000J0D01*
G01*
X158800000Y-130000000D02*
X162000000Y-130000000D01*
X103000000Y-130000000D02*
X106200000Y-130000000D01*
X162000000Y-130000000D02*
G75*
G03*
X165000000Y-127000000I0J3000000D01*
G01*
X103000000Y-70000000D02*
G75*
G03*
X100000000Y-73000000I0J-3000000D01*
G01*
X119200000Y-130000000D02*
X126000000Y-130000000D01*
X162000000Y-70000000D02*
X103000000Y-70000000D01*
D11*
X130300000Y-129000000D02*
X130300000Y-130000000D01*
X130300000Y-130000000D02*
X126000000Y-130000000D01*
X134300000Y-128600000D02*
X130700000Y-128600000D01*
X134700000Y-129000000D02*
X134700000Y-130000000D01*
X134700000Y-130000000D02*
X139000000Y-130000000D01*
X130700000Y-128600000D02*
G75*
G03*
X130300000Y-129000000I2J-400002D01*
G01*
X134700000Y-129000000D02*
G75*
G03*
X134300000Y-128600000I-400000J0D01*
G01*
X150100000Y-129000000D02*
X150100000Y-130000000D01*
X150100000Y-130000000D02*
X145800000Y-130000000D01*
X154100000Y-128600000D02*
X150500000Y-128600000D01*
X154500000Y-129000000D02*
X154500000Y-130000000D01*
X154500000Y-130000000D02*
X158800000Y-130000000D01*
X150500000Y-128600000D02*
G75*
G03*
X150100000Y-129000000I2J-400002D01*
G01*
X154500000Y-129000000D02*
G75*
G03*
X154100000Y-128600000I-400000J0D01*
G01*
X110500000Y-129000000D02*
X110500000Y-130000000D01*
X110500000Y-130000000D02*
X106200000Y-130000000D01*
X114500000Y-128600000D02*
X110900000Y-128600000D01*
X114900000Y-129000000D02*
X114900000Y-130000000D01*
X114900000Y-130000000D02*
X119200000Y-130000000D01*
X110900000Y-128600000D02*
G75*
G03*
X110500000Y-129000000I2J-400002D01*
G01*
X114900000Y-129000000D02*
G75*
G03*
X114500000Y-128600000I-400000J0D01*
G01*
M02*
