M48
; DRILL file {KiCad (6.0.5)} date Thu Oct 19 13:29:12 2023
; FORMAT={-:-/ absolute / inch / decimal}
; #@! TF.CreationDate,2023-10-19T13:29:12+01:00
; #@! TF.GenerationSoftware,Kicad,Pcbnew,(6.0.5)
; #@! TF.FileFunction,MixedPlating,1,2
FMAT,2
INCH
; #@! TA.AperFunction,Plated,PTH,ComponentDrill
T1C0.0157
; #@! TA.AperFunction,Plated,PTH,ComponentDrill
T2C0.0315
; #@! TA.AperFunction,Plated,PTH,ComponentDrill
T3C0.0394
; #@! TA.AperFunction,Plated,PTH,ComponentDrill
T4C0.0550
; #@! TA.AperFunction,Plated,PTH,ComponentDrill
T5C0.0709
; #@! TA.AperFunction,NonPlated,NPTH,ComponentDrill
T6C0.0472
; #@! TA.AperFunction,NonPlated,NPTH,ComponentDrill
T7C0.0550
%
G90
G05
T2
X2.6563Y-2.109
X2.6563Y-2.2467
X2.8283Y-2.5413
X2.8287Y-2.4035
X2.8492Y-2.8346
X2.8492Y-2.9346
X2.8492Y-3.0346
X2.8492Y-3.1346
X2.8492Y-3.3071
X2.8492Y-3.4449
X2.8496Y-3.5827
X2.8496Y-3.7205
X2.9228Y-2.261
X2.9539Y-2.6799
X3.1197Y-2.261
X3.1283Y-2.5413
X3.1287Y-2.4035
X3.1492Y-2.8346
X3.1492Y-2.9346
X3.1492Y-3.0346
X3.1492Y-3.1346
X3.1492Y-3.3071
X3.1492Y-3.4449
X3.1496Y-3.5827
X3.1496Y-3.7205
X3.1508Y-2.6799
X4.765Y-2.052
X4.765Y-2.1996
X5.065Y-2.052
X5.065Y-2.1996
X5.1602Y-2.3165
X5.2642Y-2.0791
X5.2642Y-2.1776
X5.3571Y-2.3165
X5.6374Y-2.6429
X5.6374Y-2.8398
T3
X2.8937Y-3.9551
X2.8937Y-4.0551
X2.9937Y-3.9551
X2.9937Y-4.0551
X3.0179Y-2.0736
X3.0937Y-3.9551
X3.0937Y-4.0551
X3.1179Y-2.0736
X3.2179Y-2.0736
X3.3476Y-2.4583
X3.3476Y-2.5583
X3.3476Y-2.6583
X3.3476Y-2.7583
X3.3476Y-2.8583
X3.3476Y-2.9583
X3.3476Y-3.0583
X3.3476Y-3.1583
X3.3476Y-3.2583
X3.3476Y-3.3583
X3.3476Y-3.4583
X3.3476Y-3.5583
X3.3476Y-3.6583
X3.3476Y-3.7583
X3.3476Y-3.8583
X3.9476Y-2.4583
X3.9476Y-2.5583
X3.9476Y-2.6583
X3.9476Y-2.7583
X3.9476Y-2.8583
X3.9476Y-2.9583
X3.9476Y-3.0583
X3.9476Y-3.1583
X3.9476Y-3.2583
X3.9476Y-3.3583
X3.9476Y-3.4583
X3.9476Y-3.5583
X3.9476Y-3.6583
X3.9476Y-3.7583
X3.9476Y-3.8583
X4.1154Y-2.0815
X4.2154Y-2.0815
X4.2913Y-3.5433
X4.3154Y-2.0815
X4.3898Y-3.5433
X4.4154Y-2.0815
X4.4882Y-3.5433
X4.5154Y-2.0815
X4.5154Y-2.2126
X4.6154Y-2.0815
X4.8819Y-3.5433
X4.9803Y-3.5433
X5.0787Y-3.5433
X5.3904Y-3.3374
X5.4724Y-3.5433
X5.4904Y-3.3374
X5.5039Y-2.7772
X5.5039Y-2.8772
X5.5039Y-2.9772
X5.5039Y-3.0772
X5.5709Y-3.5433
X5.5904Y-3.3374
X5.6693Y-3.5433
X5.7748Y-2.6366
X5.7748Y-2.7366
X5.7748Y-2.8366
X5.7748Y-2.9366
X5.7748Y-3.0366
X5.7748Y-3.1366
X5.7748Y-3.2366
X5.7748Y-3.3366
T4
X2.4605Y-2.5985
X2.4605Y-3.1889
X2.4605Y-3.3859
X2.4605Y-3.9763
X2.4606Y-2.8937
X2.4606Y-3.6811
X2.559Y-2.697
X2.559Y-3.0904
X2.559Y-3.4844
X2.559Y-3.8778
T6
X5.5315Y-2.2433
X5.7283Y-2.0465
X5.7283Y-2.4402
X5.8268Y-2.0465
X5.8268Y-2.4402
T7
X2.067Y-2.6968
X2.067Y-3.0906
X2.067Y-3.4842
X2.067Y-3.878
T1
G00X5.5512Y-2.0465
M15
G01X5.5118Y-2.0465
M16
G05
G00X5.5512Y-2.1449
M15
G01X5.5118Y-2.1449
M16
G05
G00X5.5118Y-2.3417
M15
G01X5.5512Y-2.3417
M16
G05
G00X5.5118Y-2.4402
M15
G01X5.5512Y-2.4402
M16
G05
G00X5.7283Y-2.263
M15
G01X5.7283Y-2.2236
M16
G05
T3
G00X2.1339Y-2.1379
M15
G01X2.1339Y-2.2166
M16
G05
G00X2.2126Y-2.3623
M15
G01X2.2913Y-2.3623
M16
G05
G00X2.3701Y-2.1379
M15
G01X2.3701Y-2.2166
M16
G05
T5
G00X4.2165Y-3.813
M15
G01X4.2165Y-3.8248
M16
G05
G00X4.563Y-3.813
M15
G01X4.563Y-3.8248
M16
G05
G00X4.8071Y-3.813
M15
G01X4.8071Y-3.8248
M16
G05
G00X5.1535Y-3.813
M15
G01X5.1535Y-3.8248
M16
G05
G00X5.3976Y-3.813
M15
G01X5.3976Y-3.8248
M16
G05
G00X5.7441Y-3.813
M15
G01X5.7441Y-3.8248
M16
G05
T0
M30
