%TF.GenerationSoftware,KiCad,Pcbnew,(6.0.5)*%
%TF.CreationDate,2023-10-19T13:29:11+01:00*%
%TF.ProjectId,NanoAudioiExperimentShield,4e616e6f-4175-4646-996f-694578706572,rev?*%
%TF.SameCoordinates,Original*%
%TF.FileFunction,Soldermask,Top*%
%TF.FilePolarity,Negative*%
%FSLAX46Y46*%
G04 Gerber Fmt 4.6, Leading zero omitted, Abs format (unit mm)*
G04 Created by KiCad (PCBNEW (6.0.5)) date 2023-10-19 13:29:11*
%MOMM*%
%LPD*%
G01*
G04 APERTURE LIST*
G04 Aperture macros list*
%AMRoundRect*
0 Rectangle with rounded corners*
0 $1 Rounding radius*
0 $2 $3 $4 $5 $6 $7 $8 $9 X,Y pos of 4 corners*
0 Add a 4 corners polygon primitive as box body*
4,1,4,$2,$3,$4,$5,$6,$7,$8,$9,$2,$3,0*
0 Add four circle primitives for the rounded corners*
1,1,$1+$1,$2,$3*
1,1,$1+$1,$4,$5*
1,1,$1+$1,$6,$7*
1,1,$1+$1,$8,$9*
0 Add four rect primitives between the rounded corners*
20,1,$1+$1,$2,$3,$4,$5,0*
20,1,$1+$1,$4,$5,$6,$7,0*
20,1,$1+$1,$6,$7,$8,$9,0*
20,1,$1+$1,$8,$9,$2,$3,0*%
G04 Aperture macros list end*
%ADD10R,1.600000X1.600000*%
%ADD11O,1.600000X1.600000*%
%ADD12R,4.000000X2.500000*%
%ADD13C,2.499360*%
%ADD14R,1.700000X1.700000*%
%ADD15O,1.700000X1.700000*%
%ADD16C,1.600000*%
%ADD17R,1.800000X1.800000*%
%ADD18C,1.800000*%
%ADD19RoundRect,0.750000X-0.750000X1.250000X-0.750000X-1.250000X0.750000X-1.250000X0.750000X1.250000X0*%
%ADD20R,3.500000X3.500000*%
%ADD21RoundRect,0.750000X-0.750000X-1.000000X0.750000X-1.000000X0.750000X1.000000X-0.750000X1.000000X0*%
%ADD22RoundRect,0.875000X-0.875000X-0.875000X0.875000X-0.875000X0.875000X0.875000X-0.875000X0.875000X0*%
%ADD23O,2.200000X1.200000*%
%ADD24O,1.200000X2.200000*%
G04 APERTURE END LIST*
D10*
%TO.C,U1*%
X72370000Y-72000000D03*
D11*
X72370000Y-74540000D03*
X72370000Y-77080000D03*
X72370000Y-79620000D03*
X79990000Y-79620000D03*
X79990000Y-77080000D03*
X79990000Y-74540000D03*
X79990000Y-72000000D03*
%TD*%
D12*
%TO.C,OUT1*%
X53302300Y-88498740D03*
X53302300Y-98501260D03*
D13*
X62497200Y-100998080D03*
X62499740Y-93500000D03*
X62497200Y-86001920D03*
X64999100Y-98496180D03*
X64999100Y-88503820D03*
%TD*%
D14*
%TO.C,J7*%
X146680000Y-66970000D03*
D15*
X146680000Y-69510000D03*
X146680000Y-72050000D03*
X146680000Y-74590000D03*
X146680000Y-77130000D03*
X146680000Y-79670000D03*
X146680000Y-82210000D03*
X146680000Y-84750000D03*
%TD*%
D14*
%TO.C,J1*%
X73500000Y-103000000D03*
D15*
X76040000Y-103000000D03*
X78580000Y-103000000D03*
%TD*%
D16*
%TO.C,R7*%
X121030000Y-55870000D03*
D11*
X128650000Y-55870000D03*
%TD*%
D16*
%TO.C,R1*%
X80000000Y-94500000D03*
D11*
X72380000Y-94500000D03*
%TD*%
D16*
%TO.C,C6*%
X143190000Y-72130000D03*
X143190000Y-67130000D03*
%TD*%
%TO.C,R3*%
X71840000Y-64550000D03*
D11*
X79460000Y-64550000D03*
%TD*%
D10*
%TO.C,C3*%
X133710000Y-55310000D03*
D16*
X133710000Y-52810000D03*
%TD*%
%TO.C,C5*%
X74240000Y-57430000D03*
X79240000Y-57430000D03*
%TD*%
D17*
%TO.C,RV1*%
X114000000Y-90000000D03*
D18*
X111500000Y-90000000D03*
X109000000Y-90000000D03*
D19*
X115900000Y-97000000D03*
X107100000Y-97000000D03*
%TD*%
D10*
%TO.C,C4*%
X67470000Y-53567349D03*
D16*
X67470000Y-57067349D03*
%TD*%
D12*
%TO.C,IN1*%
X53302300Y-68498740D03*
X53302300Y-78501260D03*
D13*
X62497200Y-80998080D03*
X62499740Y-73500000D03*
X62497200Y-66001920D03*
X64999100Y-78496180D03*
X64999100Y-68503820D03*
%TD*%
D17*
%TO.C,RV2*%
X129000000Y-90000000D03*
D18*
X126500000Y-90000000D03*
X124000000Y-90000000D03*
D19*
X122100000Y-97000000D03*
X130900000Y-97000000D03*
%TD*%
D14*
%TO.C,J3*%
X81735000Y-52670000D03*
D15*
X79195000Y-52670000D03*
X76655000Y-52670000D03*
%TD*%
D16*
%TO.C,R6*%
X128650000Y-52120000D03*
D11*
X121030000Y-52120000D03*
%TD*%
D17*
%TO.C,RV3*%
X144000000Y-90000000D03*
D18*
X141500000Y-90000000D03*
X139000000Y-90000000D03*
D19*
X137100000Y-97000000D03*
X145900000Y-97000000D03*
%TD*%
D20*
%TO.C,J4*%
X60200000Y-55302500D03*
D21*
X54200000Y-55302500D03*
D22*
X57200000Y-60002500D03*
%TD*%
D16*
%TO.C,R2*%
X80000000Y-91000000D03*
D11*
X72380000Y-91000000D03*
%TD*%
D14*
%TO.C,J8*%
X104530000Y-52870000D03*
D15*
X107070000Y-52870000D03*
X109610000Y-52870000D03*
X112150000Y-52870000D03*
X114690000Y-52870000D03*
X117230000Y-52870000D03*
%TD*%
D14*
%TO.C,J6*%
X136915000Y-84770000D03*
D15*
X139455000Y-84770000D03*
X141995000Y-84770000D03*
%TD*%
D10*
%TO.C,D1*%
X79470000Y-61050000D03*
D11*
X71850000Y-61050000D03*
%TD*%
D14*
%TO.C,A2*%
X139800000Y-70540000D03*
D15*
X139800000Y-73080000D03*
X139800000Y-75620000D03*
X139800000Y-78160000D03*
%TD*%
D14*
%TO.C,J2*%
X73500000Y-100460000D03*
D15*
X76040000Y-100460000D03*
X78580000Y-100460000D03*
%TD*%
D16*
%TO.C,C2*%
X131070000Y-58840000D03*
X136070000Y-58840000D03*
%TD*%
%TO.C,C1*%
X80030000Y-68070000D03*
X75030000Y-68070000D03*
%TD*%
%TO.C,R4*%
X72370000Y-87500000D03*
D11*
X79990000Y-87500000D03*
%TD*%
D10*
%TO.C,A1*%
X85030000Y-62440000D03*
D11*
X85030000Y-64980000D03*
X85030000Y-67520000D03*
X85030000Y-70060000D03*
X85030000Y-72600000D03*
X85030000Y-75140000D03*
X85030000Y-77680000D03*
X85030000Y-80220000D03*
X85030000Y-82760000D03*
X85030000Y-85300000D03*
X85030000Y-87840000D03*
X85030000Y-90380000D03*
X85030000Y-92920000D03*
X85030000Y-95460000D03*
X85030000Y-98000000D03*
X100270000Y-98000000D03*
X100270000Y-95460000D03*
X100270000Y-92920000D03*
X100270000Y-90380000D03*
X100270000Y-87840000D03*
X100270000Y-85300000D03*
X100270000Y-82760000D03*
X100270000Y-80220000D03*
X100270000Y-77680000D03*
X100270000Y-75140000D03*
X100270000Y-72600000D03*
X100270000Y-70060000D03*
X100270000Y-67520000D03*
X100270000Y-64980000D03*
X100270000Y-62440000D03*
%TD*%
D23*
%TO.C,J5*%
X140500000Y-61980000D03*
X140500000Y-59480000D03*
D24*
X145500000Y-56980000D03*
D23*
X140500000Y-51980000D03*
X140500000Y-54480000D03*
%TD*%
D16*
%TO.C,R5*%
X72370000Y-84000000D03*
D11*
X79990000Y-84000000D03*
%TD*%
D15*
%TO.C,*%
X114690000Y-56200000D03*
%TD*%
M02*
